<?xml version="1.0" encoding="UTF-8" standalone="no"?>
<!DOCTYPE svg PUBLIC "-//W3C//DTD SVG 1.1//EN"
 "http://www.w3.org/Graphics/SVG/1.1/DTD/svg11.dtd">
<!-- Generated by graphviz version 5.0.0 (0)
 -->
<!-- Title: /mnt/raid10/stargate/ivi&#45;homescreen/shell/static_plugins/accessibility/accessibility.cc Pages: 1 -->
<svg width="2964pt" height="434pt"
 viewBox="0.00 0.00 2964.00 434.00" xmlns="http://www.w3.org/2000/svg" xmlns:xlink="http://www.w3.org/1999/xlink">
<g id="graph0" class="graph" transform="scale(1 1) rotate(0) translate(4 430)">
<title>/mnt/raid10/stargate/ivi&#45;homescreen/shell/static_plugins/accessibility/accessibility.cc</title>
<!-- Node1 -->
<g id="node1" class="node">
<title>Node1</title>
<g id="a_node1"><a xlink:title=" ">
<polygon fill="#999999" stroke="#666666" points="2731.5,-426 2594.5,-426 2594.5,-374 2731.5,-374 2731.5,-426"/>
<text text-anchor="start" x="2602.5" y="-414" font-family="Helvetica,sans-Serif" font-size="10.00">/mnt/raid10/stargate</text>
<text text-anchor="start" x="2602.5" y="-403" font-family="Helvetica,sans-Serif" font-size="10.00">/ivi&#45;homescreen/shell</text>
<text text-anchor="start" x="2602.5" y="-392" font-family="Helvetica,sans-Serif" font-size="10.00">/static_plugins/accessibility</text>
<text text-anchor="middle" x="2663" y="-381" font-family="Helvetica,sans-Serif" font-size="10.00">/accessibility.cc</text>
</a>
</g>
</g>
<!-- Node2 -->
<g id="node2" class="node">
<title>Node2</title>
<g id="a_node2"><a xlink:href="accessibility_8h.html" target="_top" xlink:title=" ">
<polygon fill="white" stroke="#666666" points="2956,-85 2878,-85 2878,-66 2956,-66 2956,-85"/>
<text text-anchor="middle" x="2917" y="-73" font-family="Helvetica,sans-Serif" font-size="10.00">accessibility.h</text>
</a>
</g>
</g>
<!-- Node1&#45;&gt;Node2 -->
<g id="edge1" class="edge">
<title>Node1&#45;&gt;Node2</title>
<path fill="none" stroke="#63b8ff" d="M2731.81,-389.7C2802.41,-375.84 2902,-342.32 2902,-263.5 2902,-263.5 2902,-263.5 2902,-201 2902,-163.22 2908.89,-119.46 2913.33,-95.18"/>
<polygon fill="#63b8ff" stroke="#63b8ff" points="2916.8,-95.69 2915.22,-85.21 2909.92,-94.38 2916.8,-95.69"/>
</g>
<!-- Node4 -->
<g id="node4" class="node">
<title>Node4</title>
<g id="a_node4"><a xlink:title=" ">
<polygon fill="#e0e0e0" stroke="#999999" points="2680.5,-338 2553.5,-338 2553.5,-308 2680.5,-308 2680.5,-338"/>
<text text-anchor="start" x="2561.5" y="-326" font-family="Helvetica,sans-Serif" font-size="10.00">flutter/standard_message</text>
<text text-anchor="middle" x="2617" y="-315" font-family="Helvetica,sans-Serif" font-size="10.00">_codec.h</text>
</a>
</g>
</g>
<!-- Node1&#45;&gt;Node4 -->
<g id="edge3" class="edge">
<title>Node1&#45;&gt;Node4</title>
<path fill="none" stroke="#63b8ff" d="M2647.43,-373.61C2642.14,-364.99 2636.28,-355.43 2631.11,-347.01"/>
<polygon fill="#63b8ff" stroke="#63b8ff" points="2634.06,-345.12 2625.85,-338.43 2628.09,-348.78 2634.06,-345.12"/>
</g>
<!-- Node5 -->
<g id="node5" class="node">
<title>Node5</title>
<g id="a_node5"><a xlink:href="engine_8h.html" target="_top" xlink:title=" ">
<polygon fill="white" stroke="#666666" points="1223.5,-332.5 1170.5,-332.5 1170.5,-313.5 1223.5,-313.5 1223.5,-332.5"/>
<text text-anchor="middle" x="1197" y="-320.5" font-family="Helvetica,sans-Serif" font-size="10.00">engine.h</text>
</a>
</g>
</g>
<!-- Node1&#45;&gt;Node5 -->
<g id="edge4" class="edge">
<title>Node1&#45;&gt;Node5</title>
<path fill="none" stroke="#63b8ff" d="M2594.26,-395.48C2335.91,-382.27 1427.99,-335.82 1233.75,-325.88"/>
<polygon fill="#63b8ff" stroke="#63b8ff" points="1233.67,-322.37 1223.51,-325.36 1233.31,-329.36 1233.67,-322.37"/>
</g>
<!-- Node20 -->
<g id="node20" class="node">
<title>Node20</title>
<g id="a_node20"><a xlink:href="logging_8h.html" target="_top" xlink:title=" ">
<polygon fill="white" stroke="#666666" points="2737,-272 2681,-272 2681,-253 2737,-253 2737,-272"/>
<text text-anchor="middle" x="2709" y="-260" font-family="Helvetica,sans-Serif" font-size="10.00">logging.h</text>
</a>
</g>
</g>
<!-- Node1&#45;&gt;Node20 -->
<g id="edge81" class="edge">
<title>Node1&#45;&gt;Node20</title>
<path fill="none" stroke="#63b8ff" d="M2675.26,-373.86C2680.26,-362.99 2685.83,-350.04 2690,-338 2696.4,-319.5 2701.7,-297.76 2705.06,-282.55"/>
<polygon fill="#63b8ff" stroke="#63b8ff" points="2708.58,-282.87 2707.24,-272.36 2701.73,-281.4 2708.58,-282.87"/>
</g>
<!-- Node3 -->
<g id="node3" class="node">
<title>Node3</title>
<g id="a_node3"><a xlink:title=" ">
<polygon fill="#e0e0e0" stroke="#999999" points="1657.5,-30 1536.5,-30 1536.5,0 1657.5,0 1657.5,-30"/>
<text text-anchor="start" x="1544.5" y="-18" font-family="Helvetica,sans-Serif" font-size="10.00">shell/platform/embedder</text>
<text text-anchor="middle" x="1597" y="-7" font-family="Helvetica,sans-Serif" font-size="10.00">/embedder.h</text>
</a>
</g>
</g>
<!-- Node2&#45;&gt;Node3 -->
<g id="edge2" class="edge">
<title>Node2&#45;&gt;Node3</title>
<path fill="none" stroke="#63b8ff" d="M2877.67,-70.46C2861.11,-68.88 2841.63,-67.16 2824,-66 2384.81,-37 1855.99,-22.26 1667.74,-17.63"/>
<polygon fill="#63b8ff" stroke="#63b8ff" points="1667.78,-14.13 1657.7,-17.39 1667.61,-21.13 1667.78,-14.13"/>
</g>
<!-- Node5&#45;&gt;Node3 -->
<g id="edge9" class="edge">
<title>Node5&#45;&gt;Node3</title>
<path fill="none" stroke="#63b8ff" d="M1223.59,-321.12C1417.78,-314.42 2612.63,-268.57 2715,-151 2723.76,-140.94 2723.98,-130.86 2715,-121 2644.4,-43.45 1902.62,-22.09 1667.84,-17.24"/>
<polygon fill="#63b8ff" stroke="#63b8ff" points="1667.78,-13.74 1657.71,-17.04 1667.63,-20.74 1667.78,-13.74"/>
</g>
<!-- Node6 -->
<g id="node6" class="node">
<title>Node6</title>
<g id="a_node6"><a xlink:title=" ">
<polygon fill="#e0e0e0" stroke="#999999" points="1399.5,-272 1340.5,-272 1340.5,-253 1399.5,-253 1399.5,-272"/>
<text text-anchor="middle" x="1370" y="-260" font-family="Helvetica,sans-Serif" font-size="10.00">functional</text>
</a>
</g>
</g>
<!-- Node5&#45;&gt;Node6 -->
<g id="edge5" class="edge">
<title>Node5&#45;&gt;Node6</title>
<path fill="none" stroke="#63b8ff" d="M1222.16,-313.49C1251.88,-303.44 1301.52,-286.66 1334.99,-275.34"/>
<polygon fill="#63b8ff" stroke="#63b8ff" points="1336.46,-278.54 1344.81,-272.02 1334.22,-271.9 1336.46,-278.54"/>
</g>
<!-- Node7 -->
<g id="node7" class="node">
<title>Node7</title>
<g id="a_node7"><a xlink:title=" ">
<polygon fill="#e0e0e0" stroke="#999999" points="2308,-24.5 2248,-24.5 2248,-5.5 2308,-5.5 2308,-24.5"/>
<text text-anchor="middle" x="2278" y="-12.5" font-family="Helvetica,sans-Serif" font-size="10.00">EGL/egl.h</text>
</a>
</g>
</g>
<!-- Node5&#45;&gt;Node7 -->
<g id="edge6" class="edge">
<title>Node5&#45;&gt;Node7</title>
<path fill="none" stroke="#63b8ff" d="M1223.51,-322C1415.96,-321.88 2595.14,-319.21 2746,-272 2798.94,-255.43 2850,-258.47 2850,-203 2850,-203 2850,-203 2850,-135 2850,-102.23 2850.07,-85.86 2824,-66 2783.98,-35.52 2437.83,-21.29 2318.35,-17.25"/>
<polygon fill="#63b8ff" stroke="#63b8ff" points="2318.27,-13.75 2308.16,-16.91 2318.04,-20.74 2318.27,-13.75"/>
</g>
<!-- Node8 -->
<g id="node8" class="node">
<title>Node8</title>
<g id="a_node8"><a xlink:title=" ">
<polygon fill="#e0e0e0" stroke="#999999" points="1528,-272 1456,-272 1456,-253 1528,-253 1528,-272"/>
<text text-anchor="middle" x="1492" y="-260" font-family="Helvetica,sans-Serif" font-size="10.00">GLES2/gl2.h</text>
</a>
</g>
</g>
<!-- Node5&#45;&gt;Node8 -->
<g id="edge7" class="edge">
<title>Node5&#45;&gt;Node8</title>
<path fill="none" stroke="#63b8ff" d="M1223.7,-316.71C1273.95,-306.74 1383.12,-285.09 1445.61,-272.7"/>
<polygon fill="#63b8ff" stroke="#63b8ff" points="1446.47,-276.1 1455.59,-270.72 1445.1,-269.23 1446.47,-276.1"/>
</g>
<!-- Node9 -->
<g id="node9" class="node">
<title>Node9</title>
<g id="a_node9"><a xlink:title=" ">
<polygon fill="#e0e0e0" stroke="#999999" points="1671.5,-272 1546.5,-272 1546.5,-253 1671.5,-253 1671.5,-272"/>
<text text-anchor="middle" x="1609" y="-260" font-family="Helvetica,sans-Serif" font-size="10.00">flutter/encodable_value.h</text>
</a>
</g>
</g>
<!-- Node5&#45;&gt;Node9 -->
<g id="edge8" class="edge">
<title>Node5&#45;&gt;Node9</title>
<path fill="none" stroke="#63b8ff" d="M1223.72,-318.21C1286.62,-309.27 1445.75,-286.68 1538.64,-273.49"/>
<polygon fill="#63b8ff" stroke="#63b8ff" points="1539.39,-276.92 1548.8,-272.05 1538.41,-269.99 1539.39,-276.92"/>
</g>
<!-- Node10 -->
<g id="node10" class="node">
<title>Node10</title>
<g id="a_node10"><a xlink:title=" ">
<polygon fill="#e0e0e0" stroke="#999999" points="62,-272 0,-272 0,-253 62,-253 62,-272"/>
<text text-anchor="middle" x="31" y="-260" font-family="Helvetica,sans-Serif" font-size="10.00">filesystem</text>
</a>
</g>
</g>
<!-- Node5&#45;&gt;Node10 -->
<g id="edge10" class="edge">
<title>Node5&#45;&gt;Node10</title>
<path fill="none" stroke="#63b8ff" d="M1170.41,-322.2C1046.2,-322.87 510.92,-322.52 76,-272 74.89,-271.87 73.78,-271.73 72.65,-271.58"/>
<polygon fill="#63b8ff" stroke="#63b8ff" points="72.8,-268.06 62.38,-270.02 71.74,-274.98 72.8,-268.06"/>
</g>
<!-- Node11 -->
<g id="node11" class="node">
<title>Node11</title>
<g id="a_node11"><a xlink:title=" ">
<polygon fill="#e0e0e0" stroke="#999999" points="1019.5,-145.5 984.5,-145.5 984.5,-126.5 1019.5,-126.5 1019.5,-145.5"/>
<text text-anchor="middle" x="1002" y="-133.5" font-family="Helvetica,sans-Serif" font-size="10.00">map</text>
</a>
</g>
</g>
<!-- Node5&#45;&gt;Node11 -->
<g id="edge11" class="edge">
<title>Node5&#45;&gt;Node11</title>
<path fill="none" stroke="#63b8ff" d="M1170.34,-313.61C1131.3,-299.91 1059.1,-268.92 1021,-217 1007.77,-198.97 1003.62,-173.04 1002.39,-155.64"/>
<polygon fill="#63b8ff" stroke="#63b8ff" points="1005.88,-155.43 1001.93,-145.6 998.89,-155.75 1005.88,-155.43"/>
</g>
<!-- Node12 -->
<g id="node12" class="node">
<title>Node12</title>
<g id="a_node12"><a xlink:title=" ">
<polygon fill="#e0e0e0" stroke="#999999" points="1090,-145.5 1038,-145.5 1038,-126.5 1090,-126.5 1090,-145.5"/>
<text text-anchor="middle" x="1064" y="-133.5" font-family="Helvetica,sans-Serif" font-size="10.00">memory</text>
</a>
</g>
</g>
<!-- Node5&#45;&gt;Node12 -->
<g id="edge12" class="edge">
<title>Node5&#45;&gt;Node12</title>
<path fill="none" stroke="#63b8ff" d="M1213.22,-313.38C1227.21,-304.93 1246.47,-290.61 1255,-272 1267.87,-243.91 1241.49,-197.38 1230,-187 1183.92,-145.37 1153.49,-171.85 1095,-151 1093.61,-150.5 1092.19,-149.97 1090.77,-149.41"/>
<polygon fill="#63b8ff" stroke="#63b8ff" points="1092.07,-146.16 1081.5,-145.5 1089.35,-152.61 1092.07,-146.16"/>
</g>
<!-- Node13 -->
<g id="node13" class="node">
<title>Node13</title>
<g id="a_node13"><a xlink:title=" ">
<polygon fill="#e0e0e0" stroke="#999999" points="718,-272 674,-272 674,-253 718,-253 718,-272"/>
<text text-anchor="middle" x="696" y="-260" font-family="Helvetica,sans-Serif" font-size="10.00">mutex</text>
</a>
</g>
</g>
<!-- Node5&#45;&gt;Node13 -->
<g id="edge13" class="edge">
<title>Node5&#45;&gt;Node13</title>
<path fill="none" stroke="#63b8ff" d="M1170.28,-320.67C1099.56,-316.84 901.64,-304.05 728.32,-271.95"/>
<polygon fill="#63b8ff" stroke="#63b8ff" points="728.72,-268.47 718.25,-270.06 727.43,-275.35 728.72,-268.47"/>
</g>
<!-- Node14 -->
<g id="node14" class="node">
<title>Node14</title>
<g id="a_node14"><a xlink:title=" ">
<polygon fill="#e0e0e0" stroke="#999999" points="779.5,-272 736.5,-272 736.5,-253 779.5,-253 779.5,-272"/>
<text text-anchor="middle" x="758" y="-260" font-family="Helvetica,sans-Serif" font-size="10.00">queue</text>
</a>
</g>
</g>
<!-- Node5&#45;&gt;Node14 -->
<g id="edge14" class="edge">
<title>Node5&#45;&gt;Node14</title>
<path fill="none" stroke="#63b8ff" d="M1170.45,-319.71C1105.73,-313.91 934.87,-297.29 794,-272 792.54,-271.74 791.05,-271.45 789.54,-271.15"/>
<polygon fill="#63b8ff" stroke="#63b8ff" points="790.14,-267.7 779.62,-269.01 788.66,-274.54 790.14,-267.7"/>
</g>
<!-- Node15 -->
<g id="node15" class="node">
<title>Node15</title>
<g id="a_node15"><a xlink:title=" ">
<polygon fill="#e0e0e0" stroke="#999999" points="966.5,-145.5 925.5,-145.5 925.5,-126.5 966.5,-126.5 966.5,-145.5"/>
<text text-anchor="middle" x="946" y="-133.5" font-family="Helvetica,sans-Serif" font-size="10.00">string</text>
</a>
</g>
</g>
<!-- Node5&#45;&gt;Node15 -->
<g id="edge15" class="edge">
<title>Node5&#45;&gt;Node15</title>
<path fill="none" stroke="#63b8ff" d="M1170.49,-317.03C1140.14,-310.42 1089.87,-296.61 1053,-272 1006.72,-241.11 971.19,-183.81 955.23,-154.8"/>
<polygon fill="#63b8ff" stroke="#63b8ff" points="958.22,-152.98 950.42,-145.82 952.05,-156.28 958.22,-152.98"/>
</g>
<!-- Node16 -->
<g id="node16" class="node">
<title>Node16</title>
<g id="a_node16"><a xlink:title=" ">
<polygon fill="#e0e0e0" stroke="#999999" points="907,-145.5 863,-145.5 863,-126.5 907,-126.5 907,-145.5"/>
<text text-anchor="middle" x="885" y="-133.5" font-family="Helvetica,sans-Serif" font-size="10.00">vector</text>
</a>
</g>
</g>
<!-- Node5&#45;&gt;Node16 -->
<g id="edge16" class="edge">
<title>Node5&#45;&gt;Node16</title>
<path fill="none" stroke="#63b8ff" d="M1170.43,-320.22C1120.41,-316.2 1009.45,-304.15 922,-272 876.21,-255.16 851.37,-259.27 827,-217 820.34,-205.45 821.45,-199.12 827,-187 833.86,-172.02 847.67,-159.83 860.09,-151.23"/>
<polygon fill="#63b8ff" stroke="#63b8ff" points="862.28,-153.99 868.78,-145.62 858.48,-148.11 862.28,-153.99"/>
</g>
<!-- Node17 -->
<g id="node17" class="node">
<title>Node17</title>
<g id="a_node17"><a xlink:href="backend_8h.html" target="_top" xlink:title=" ">
<polygon fill="white" stroke="#666666" points="117.5,-145.5 16.5,-145.5 16.5,-126.5 117.5,-126.5 117.5,-145.5"/>
<text text-anchor="middle" x="67" y="-133.5" font-family="Helvetica,sans-Serif" font-size="10.00">backend/backend.h</text>
</a>
</g>
</g>
<!-- Node5&#45;&gt;Node17 -->
<g id="edge17" class="edge">
<title>Node5&#45;&gt;Node17</title>
<path fill="none" stroke="#63b8ff" d="M1170.34,-321.56C1008.78,-318.67 167.84,-301.67 123,-272 82.6,-245.27 66.58,-186 64.32,-155.67"/>
<polygon fill="#63b8ff" stroke="#63b8ff" points="67.81,-155.51 64.1,-145.59 60.81,-155.66 67.81,-155.51"/>
</g>
<!-- Node18 -->
<g id="node18" class="node">
<title>Node18</title>
<g id="a_node18"><a xlink:href="constants_8h.html" target="_top" xlink:title=" ">
<polygon fill="white" stroke="#666666" points="819,-85 751,-85 751,-66 819,-66 819,-85"/>
<text text-anchor="middle" x="785" y="-73" font-family="Helvetica,sans-Serif" font-size="10.00">constants.h</text>
</a>
</g>
</g>
<!-- Node5&#45;&gt;Node18 -->
<g id="edge24" class="edge">
<title>Node5&#45;&gt;Node18</title>
<path fill="none" stroke="#63b8ff" d="M1170.26,-322.15C1021.08,-322.34 293.87,-314.77 165,-151 156.75,-140.52 155.92,-130.76 165,-121 184.59,-99.95 601.55,-83.1 740.44,-78.05"/>
<polygon fill="#63b8ff" stroke="#63b8ff" points="740.85,-81.54 750.72,-77.68 740.6,-74.54 740.85,-81.54"/>
</g>
<!-- Node5&#45;&gt;Node20 -->
<g id="edge25" class="edge">
<title>Node5&#45;&gt;Node20</title>
<path fill="none" stroke="#63b8ff" d="M1223.81,-322.16C1368.98,-322.82 2075.52,-323.11 2650,-272 2656.79,-271.4 2663.99,-270.54 2670.94,-269.6"/>
<polygon fill="#63b8ff" stroke="#63b8ff" points="2671.46,-273.06 2680.86,-268.19 2670.47,-266.13 2671.46,-273.06"/>
</g>
<!-- Node26 -->
<g id="node26" class="node">
<title>Node26</title>
<g id="a_node26"><a xlink:href="platform__channel_8h.html" target="_top" xlink:title=" ">
<polygon fill="white" stroke="#666666" points="935.5,-211.5 836.5,-211.5 836.5,-192.5 935.5,-192.5 935.5,-211.5"/>
<text text-anchor="middle" x="886" y="-199.5" font-family="Helvetica,sans-Serif" font-size="10.00">platform_channel.h</text>
</a>
</g>
</g>
<!-- Node5&#45;&gt;Node26 -->
<g id="edge32" class="edge">
<title>Node5&#45;&gt;Node26</title>
<path fill="none" stroke="#63b8ff" d="M1170.29,-321.84C1122.91,-320.48 1022.3,-312.57 950,-272 927.61,-259.43 908.59,-236.29 897.24,-220.3"/>
<polygon fill="#63b8ff" stroke="#63b8ff" points="900,-218.13 891.48,-211.84 894.22,-222.07 900,-218.13"/>
</g>
<!-- Node27 -->
<g id="node27" class="node">
<title>Node27</title>
<g id="a_node27"><a xlink:href="key__event_8h.html" target="_top" xlink:title=" ">
<polygon fill="white" stroke="#666666" points="1406,-217 1304,-217 1304,-187 1406,-187 1406,-217"/>
<text text-anchor="start" x="1312" y="-205" font-family="Helvetica,sans-Serif" font-size="10.00">static_plugins/key</text>
<text text-anchor="middle" x="1355" y="-194" font-family="Helvetica,sans-Serif" font-size="10.00">_event/key_event.h</text>
</a>
</g>
</g>
<!-- Node5&#45;&gt;Node27 -->
<g id="edge36" class="edge">
<title>Node5&#45;&gt;Node27</title>
<path fill="none" stroke="#63b8ff" d="M1216.48,-313.39C1235.62,-304.45 1265.2,-289.37 1288,-272 1306.09,-258.21 1323.91,-239.55 1336.61,-225.11"/>
<polygon fill="#63b8ff" stroke="#63b8ff" points="1339.59,-227.03 1343.47,-217.17 1334.29,-222.45 1339.59,-227.03"/>
</g>
<!-- Node33 -->
<g id="node33" class="node">
<title>Node33</title>
<g id="a_node33"><a xlink:href="text__input_8h.html" target="_top" xlink:title=" ">
<polygon fill="white" stroke="#666666" points="1937.5,-217 1840.5,-217 1840.5,-187 1937.5,-187 1937.5,-217"/>
<text text-anchor="start" x="1848.5" y="-205" font-family="Helvetica,sans-Serif" font-size="10.00">static_plugins/text</text>
<text text-anchor="middle" x="1889" y="-194" font-family="Helvetica,sans-Serif" font-size="10.00">_input/text_input.h</text>
</a>
</g>
</g>
<!-- Node5&#45;&gt;Node33 -->
<g id="edge48" class="edge">
<title>Node5&#45;&gt;Node33</title>
<path fill="none" stroke="#63b8ff" d="M1223.68,-317.76C1264.44,-310.83 1344.29,-295.45 1409,-272 1426.75,-265.57 1428.9,-258.37 1447,-253 1580.23,-213.51 1744.53,-204.83 1830.41,-203.16"/>
<polygon fill="#63b8ff" stroke="#63b8ff" points="1830.55,-206.66 1840.49,-202.99 1830.43,-199.66 1830.55,-206.66"/>
</g>
<!-- Node38 -->
<g id="node38" class="node">
<title>Node38</title>
<g id="a_node38"><a xlink:href="flutter__view_8h.html" target="_top" xlink:title=" ">
<polygon fill="white" stroke="#666666" points="1246,-272 1148,-272 1148,-253 1246,-253 1246,-272"/>
<text text-anchor="middle" x="1197" y="-260" font-family="Helvetica,sans-Serif" font-size="10.00">view/flutter_view.h</text>
</a>
</g>
</g>
<!-- Node5&#45;&gt;Node38 -->
<g id="edge62" class="edge">
<title>Node5&#45;&gt;Node38</title>
<path fill="none" stroke="#63b8ff" d="M1197,-313.37C1197,-305.25 1197,-292.81 1197,-282.39"/>
<polygon fill="#63b8ff" stroke="#63b8ff" points="1200.5,-282.17 1197,-272.17 1193.5,-282.17 1200.5,-282.17"/>
</g>
<!-- Node17&#45;&gt;Node3 -->
<g id="edge18" class="edge">
<title>Node17&#45;&gt;Node3</title>
<path fill="none" stroke="#63b8ff" d="M102.96,-126.44C112.37,-124.42 122.53,-122.44 132,-121 663.71,-40.08 1313.74,-21.22 1526.18,-17.09"/>
<polygon fill="#63b8ff" stroke="#63b8ff" points="1526.33,-20.59 1536.26,-16.9 1526.2,-13.59 1526.33,-20.59"/>
</g>
<!-- Node17&#45;&gt;Node5 -->
<g id="edge23" class="edge">
<title>Node17&#45;&gt;Node5</title>
<path fill="none" stroke="#63b8ff" d="M72.16,-145.59C80.89,-170.32 95.44,-241.86 141,-272 184.54,-300.81 978.63,-317.68 1160.27,-321.27"/>
<polygon fill="#63b8ff" stroke="#63b8ff" points="1160.32,-324.77 1170.38,-321.47 1160.45,-317.78 1160.32,-324.77"/>
</g>
<!-- Node17&#45;&gt;Node18 -->
<g id="edge19" class="edge">
<title>Node17&#45;&gt;Node18</title>
<path fill="none" stroke="#63b8ff" d="M102.26,-126.44C111.85,-124.37 122.28,-122.37 132,-121 359.35,-88.94 634.62,-79.77 740.53,-77.32"/>
<polygon fill="#63b8ff" stroke="#63b8ff" points="740.91,-80.82 750.83,-77.1 740.76,-73.82 740.91,-80.82"/>
</g>
<!-- Node18&#45;&gt;Node3 -->
<g id="edge21" class="edge">
<title>Node18&#45;&gt;Node3</title>
<path fill="none" stroke="#63b8ff" d="M819.02,-68C823.7,-67.24 828.46,-66.55 833,-66 1087.01,-35.29 1390.97,-22.5 1526.16,-18.04"/>
<polygon fill="#63b8ff" stroke="#63b8ff" points="1526.49,-21.53 1536.38,-17.7 1526.27,-14.53 1526.49,-21.53"/>
</g>
<!-- Node18&#45;&gt;Node7 -->
<g id="edge20" class="edge">
<title>Node18&#45;&gt;Node7</title>
<path fill="none" stroke="#63b8ff" d="M819.35,-73.15C1018.48,-65.35 2023.32,-25.98 2237.72,-17.58"/>
<polygon fill="#63b8ff" stroke="#63b8ff" points="2238.04,-21.07 2247.89,-17.18 2237.77,-14.07 2238.04,-21.07"/>
</g>
<!-- Node19 -->
<g id="node19" class="node">
<title>Node19</title>
<g id="a_node19"><a xlink:title=" ">
<polygon fill="#e0e0e0" stroke="#999999" points="804,-24.5 766,-24.5 766,-5.5 804,-5.5 804,-24.5"/>
<text text-anchor="middle" x="785" y="-12.5" font-family="Helvetica,sans-Serif" font-size="10.00">array</text>
</a>
</g>
</g>
<!-- Node18&#45;&gt;Node19 -->
<g id="edge22" class="edge">
<title>Node18&#45;&gt;Node19</title>
<path fill="none" stroke="#63b8ff" d="M785,-65.87C785,-57.75 785,-45.31 785,-34.89"/>
<polygon fill="#63b8ff" stroke="#63b8ff" points="788.5,-34.67 785,-24.67 781.5,-34.67 788.5,-34.67"/>
</g>
<!-- Node21 -->
<g id="node21" class="node">
<title>Node21</title>
<g id="a_node21"><a xlink:title=" ">
<polygon fill="#e0e0e0" stroke="#999999" points="2822,-211.5 2770,-211.5 2770,-192.5 2822,-192.5 2822,-211.5"/>
<text text-anchor="middle" x="2796" y="-199.5" font-family="Helvetica,sans-Serif" font-size="10.00">sstream</text>
</a>
</g>
</g>
<!-- Node20&#45;&gt;Node21 -->
<g id="edge26" class="edge">
<title>Node20&#45;&gt;Node21</title>
<path fill="none" stroke="#63b8ff" d="M2721.84,-252.87C2735.72,-243.54 2758.07,-228.51 2774.61,-217.38"/>
<polygon fill="#63b8ff" stroke="#63b8ff" points="2776.76,-220.15 2783.11,-211.67 2772.86,-214.34 2776.76,-220.15"/>
</g>
<!-- Node22 -->
<g id="node22" class="node">
<title>Node22</title>
<g id="a_node22"><a xlink:href="dlt_8h.html" target="_top" xlink:title=" ">
<polygon fill="white" stroke="#666666" points="2751.5,-211.5 2702.5,-211.5 2702.5,-192.5 2751.5,-192.5 2751.5,-211.5"/>
<text text-anchor="middle" x="2727" y="-199.5" font-family="Helvetica,sans-Serif" font-size="10.00">dlt/dlt.h</text>
</a>
</g>
</g>
<!-- Node20&#45;&gt;Node22 -->
<g id="edge27" class="edge">
<title>Node20&#45;&gt;Node22</title>
<path fill="none" stroke="#63b8ff" d="M2711.66,-252.87C2714.18,-244.66 2718.06,-232.04 2721.29,-221.55"/>
<polygon fill="#63b8ff" stroke="#63b8ff" points="2724.74,-222.25 2724.33,-211.67 2718.05,-220.2 2724.74,-222.25"/>
</g>
<!-- Node25 -->
<g id="node25" class="node">
<title>Node25</title>
<g id="a_node25"><a xlink:title=" ">
<polygon fill="#e0e0e0" stroke="#999999" points="2705.5,-145.5 2604.5,-145.5 2604.5,-126.5 2705.5,-126.5 2705.5,-145.5"/>
<text text-anchor="middle" x="2655" y="-133.5" font-family="Helvetica,sans-Serif" font-size="10.00">flutter/fml/macros.h</text>
</a>
</g>
</g>
<!-- Node20&#45;&gt;Node25 -->
<g id="edge31" class="edge">
<title>Node20&#45;&gt;Node25</title>
<path fill="none" stroke="#63b8ff" d="M2705.29,-252.94C2696.58,-232.86 2674.68,-182.37 2662.86,-155.12"/>
<polygon fill="#63b8ff" stroke="#63b8ff" points="2665.93,-153.4 2658.74,-145.62 2659.51,-156.18 2665.93,-153.4"/>
</g>
<!-- Node23 -->
<g id="node23" class="node">
<title>Node23</title>
<g id="a_node23"><a xlink:href="libdlt_8h.html" target="_top" xlink:title=" ">
<polygon fill="white" stroke="#666666" points="2821.5,-145.5 2762.5,-145.5 2762.5,-126.5 2821.5,-126.5 2821.5,-145.5"/>
<text text-anchor="middle" x="2792" y="-133.5" font-family="Helvetica,sans-Serif" font-size="10.00">dlt/libdlt.h</text>
</a>
</g>
</g>
<!-- Node22&#45;&gt;Node23 -->
<g id="edge28" class="edge">
<title>Node22&#45;&gt;Node23</title>
<path fill="none" stroke="#63b8ff" d="M2735.77,-192.37C2745.98,-182.31 2763.08,-165.48 2775.74,-153.01"/>
<polygon fill="#63b8ff" stroke="#63b8ff" points="2778.29,-155.42 2782.96,-145.91 2773.37,-150.43 2778.29,-155.42"/>
</g>
<!-- Node22&#45;&gt;Node25 -->
<g id="edge30" class="edge">
<title>Node22&#45;&gt;Node25</title>
<path fill="none" stroke="#63b8ff" d="M2717.29,-192.37C2705.87,-182.21 2686.68,-165.16 2672.61,-152.65"/>
<polygon fill="#63b8ff" stroke="#63b8ff" points="2674.82,-149.93 2665.02,-145.91 2670.17,-155.16 2674.82,-149.93"/>
</g>
<!-- Node24 -->
<g id="node24" class="node">
<title>Node24</title>
<g id="a_node24"><a xlink:title=" ">
<polygon fill="#e0e0e0" stroke="#999999" points="2815,-85 2769,-85 2769,-66 2815,-66 2815,-85"/>
<text text-anchor="middle" x="2792" y="-73" font-family="Helvetica,sans-Serif" font-size="10.00">cstdint</text>
</a>
</g>
</g>
<!-- Node23&#45;&gt;Node24 -->
<g id="edge29" class="edge">
<title>Node23&#45;&gt;Node24</title>
<path fill="none" stroke="#63b8ff" d="M2792,-126.37C2792,-118.25 2792,-105.81 2792,-95.39"/>
<polygon fill="#63b8ff" stroke="#63b8ff" points="2795.5,-95.17 2792,-85.17 2788.5,-95.17 2795.5,-95.17"/>
</g>
<!-- Node26&#45;&gt;Node3 -->
<g id="edge35" class="edge">
<title>Node26&#45;&gt;Node3</title>
<path fill="none" stroke="#63b8ff" d="M877.23,-192.32C862.3,-176.49 835.26,-142.57 854,-121 897.87,-70.5 1349.6,-33.45 1526.5,-20.77"/>
<polygon fill="#63b8ff" stroke="#63b8ff" points="1526.76,-24.26 1536.49,-20.06 1526.27,-17.28 1526.76,-24.26"/>
</g>
<!-- Node26&#45;&gt;Node11 -->
<g id="edge33" class="edge">
<title>Node26&#45;&gt;Node11</title>
<path fill="none" stroke="#63b8ff" d="M901.64,-192.37C921.1,-181.63 954.55,-163.18 977.44,-150.55"/>
<polygon fill="#63b8ff" stroke="#63b8ff" points="979.17,-153.59 986.23,-145.7 975.79,-147.47 979.17,-153.59"/>
</g>
<!-- Node26&#45;&gt;Node15 -->
<g id="edge34" class="edge">
<title>Node26&#45;&gt;Node15</title>
<path fill="none" stroke="#63b8ff" d="M894.09,-192.37C903.43,-182.4 919.01,-165.79 930.66,-153.36"/>
<polygon fill="#63b8ff" stroke="#63b8ff" points="933.37,-155.59 937.65,-145.91 928.26,-150.81 933.37,-155.59"/>
</g>
<!-- Node27&#45;&gt;Node3 -->
<g id="edge45" class="edge">
<title>Node27&#45;&gt;Node3</title>
<path fill="none" stroke="#63b8ff" d="M1406.11,-196.23C1464.57,-189.66 1555.17,-175.75 1578,-151 1605.58,-121.09 1604.69,-70.49 1601.13,-40.46"/>
<polygon fill="#63b8ff" stroke="#63b8ff" points="1604.57,-39.83 1599.74,-30.4 1597.64,-40.79 1604.57,-39.83"/>
</g>
<!-- Node27&#45;&gt;Node11 -->
<g id="edge37" class="edge">
<title>Node27&#45;&gt;Node11</title>
<path fill="none" stroke="#63b8ff" d="M1303.71,-195.2C1225.19,-185.97 1079.01,-167.31 1029,-151 1027.95,-150.66 1026.88,-150.27 1025.82,-149.86"/>
<polygon fill="#63b8ff" stroke="#63b8ff" points="1027.03,-146.57 1016.48,-145.6 1024.12,-152.94 1027.03,-146.57"/>
</g>
<!-- Node27&#45;&gt;Node12 -->
<g id="edge38" class="edge">
<title>Node27&#45;&gt;Node12</title>
<path fill="none" stroke="#63b8ff" d="M1303.8,-190.23C1298.47,-189.13 1293.12,-188.04 1288,-187 1206.33,-170.48 1184.42,-172.82 1104,-151 1101.51,-150.33 1098.96,-149.57 1096.4,-148.78"/>
<polygon fill="#63b8ff" stroke="#63b8ff" points="1097.26,-145.38 1086.67,-145.57 1095.07,-152.02 1097.26,-145.38"/>
</g>
<!-- Node27&#45;&gt;Node15 -->
<g id="edge39" class="edge">
<title>Node27&#45;&gt;Node15</title>
<path fill="none" stroke="#63b8ff" d="M1303.98,-196.32C1215.08,-187.82 1035.49,-169.07 975,-151 973.56,-150.57 972.1,-150.08 970.65,-149.54"/>
<polygon fill="#63b8ff" stroke="#63b8ff" points="971.85,-146.24 961.29,-145.5 969.08,-152.67 971.85,-146.24"/>
</g>
<!-- Node27&#45;&gt;Node18 -->
<g id="edge47" class="edge">
<title>Node27&#45;&gt;Node18</title>
<path fill="none" stroke="#63b8ff" d="M1303.77,-189.84C1241.75,-176.25 1144.58,-154.63 1137,-151 1117.6,-141.7 1118.78,-129.47 1099,-121 1008.81,-82.38 892.04,-75.97 829.39,-75.63"/>
<polygon fill="#63b8ff" stroke="#63b8ff" points="829.08,-72.13 819.08,-75.63 829.08,-79.13 829.08,-72.13"/>
</g>
<!-- Node27&#45;&gt;Node25 -->
<g id="edge43" class="edge">
<title>Node27&#45;&gt;Node25</title>
<path fill="none" stroke="#63b8ff" d="M1406.35,-199.52C1625.53,-193.1 2477.04,-167.35 2596,-151 2601.88,-150.19 2608.03,-149.06 2614.05,-147.79"/>
<polygon fill="#63b8ff" stroke="#63b8ff" points="2615,-151.16 2623.98,-145.54 2613.45,-144.33 2615,-151.16"/>
</g>
<!-- Node28 -->
<g id="node28" class="node">
<title>Node28</title>
<g id="a_node28"><a xlink:title=" ">
<polygon fill="#e0e0e0" stroke="#999999" points="1568.5,-151 1455.5,-151 1455.5,-121 1568.5,-121 1568.5,-151"/>
<text text-anchor="start" x="1463.5" y="-139" font-family="Helvetica,sans-Serif" font-size="10.00">flutter/basic_message</text>
<text text-anchor="middle" x="1512" y="-128" font-family="Helvetica,sans-Serif" font-size="10.00">_channel.h</text>
</a>
</g>
</g>
<!-- Node27&#45;&gt;Node28 -->
<g id="edge40" class="edge">
<title>Node27&#45;&gt;Node28</title>
<path fill="none" stroke="#63b8ff" d="M1389.45,-186.95C1412.56,-177.53 1443.2,-165.04 1468.06,-154.91"/>
<polygon fill="#63b8ff" stroke="#63b8ff" points="1469.69,-158.03 1477.63,-151.01 1467.04,-151.55 1469.69,-158.03"/>
</g>
<!-- Node29 -->
<g id="node29" class="node">
<title>Node29</title>
<g id="a_node29"><a xlink:title=" ">
<polygon fill="#e0e0e0" stroke="#999999" points="1757,-145.5 1625,-145.5 1625,-126.5 1757,-126.5 1757,-145.5"/>
<text text-anchor="middle" x="1691" y="-133.5" font-family="Helvetica,sans-Serif" font-size="10.00">flutter/binary_messenger.h</text>
</a>
</g>
</g>
<!-- Node27&#45;&gt;Node29 -->
<g id="edge41" class="edge">
<title>Node27&#45;&gt;Node29</title>
<path fill="none" stroke="#63b8ff" d="M1406.03,-191.28C1468.16,-179.45 1572.64,-159.54 1636.36,-147.41"/>
<polygon fill="#63b8ff" stroke="#63b8ff" points="1637.05,-150.84 1646.22,-145.53 1635.74,-143.96 1637.05,-150.84"/>
</g>
<!-- Node30 -->
<g id="node30" class="node">
<title>Node30</title>
<g id="a_node30"><a xlink:title=" ">
<polygon fill="#e0e0e0" stroke="#999999" points="1437.5,-151 1274.5,-151 1274.5,-121 1437.5,-121 1437.5,-151"/>
<text text-anchor="start" x="1282.5" y="-139" font-family="Helvetica,sans-Serif" font-size="10.00">flutter/shell/platform</text>
<text text-anchor="middle" x="1356" y="-128" font-family="Helvetica,sans-Serif" font-size="10.00">/common/json_message_codec.h</text>
</a>
</g>
</g>
<!-- Node27&#45;&gt;Node30 -->
<g id="edge42" class="edge">
<title>Node27&#45;&gt;Node30</title>
<path fill="none" stroke="#63b8ff" d="M1355.22,-186.8C1355.34,-179.34 1355.48,-169.99 1355.62,-161.41"/>
<polygon fill="#63b8ff" stroke="#63b8ff" points="1359.12,-161.22 1355.78,-151.16 1352.12,-161.11 1359.12,-161.22"/>
</g>
<!-- Node31 -->
<g id="node31" class="node">
<title>Node31</title>
<g id="a_node31"><a xlink:title=" ">
<polygon fill="#e0e0e0" stroke="#999999" points="1256,-145.5 1146,-145.5 1146,-126.5 1256,-126.5 1256,-145.5"/>
<text text-anchor="middle" x="1201" y="-133.5" font-family="Helvetica,sans-Serif" font-size="10.00">rapidjson/document.h</text>
</a>
</g>
</g>
<!-- Node27&#45;&gt;Node31 -->
<g id="edge44" class="edge">
<title>Node27&#45;&gt;Node31</title>
<path fill="none" stroke="#63b8ff" d="M1321.2,-186.95C1294.2,-175.73 1256.7,-160.15 1230.81,-149.39"/>
<polygon fill="#63b8ff" stroke="#63b8ff" points="1232.07,-146.12 1221.49,-145.52 1229.39,-152.59 1232.07,-146.12"/>
</g>
<!-- Node32 -->
<g id="node32" class="node">
<title>Node32</title>
<g id="a_node32"><a xlink:title=" ">
<polygon fill="#e0e0e0" stroke="#999999" points="1909,-145.5 1775,-145.5 1775,-126.5 1909,-126.5 1909,-145.5"/>
<text text-anchor="middle" x="1842" y="-133.5" font-family="Helvetica,sans-Serif" font-size="10.00">xkbcommon/xkbcommon.h</text>
</a>
</g>
</g>
<!-- Node27&#45;&gt;Node32 -->
<g id="edge46" class="edge">
<title>Node27&#45;&gt;Node32</title>
<path fill="none" stroke="#63b8ff" d="M1406.08,-195.8C1483.92,-187.65 1636.86,-170.73 1766,-151 1773.2,-149.9 1780.77,-148.64 1788.22,-147.33"/>
<polygon fill="#63b8ff" stroke="#63b8ff" points="1789.05,-150.74 1798.27,-145.53 1787.81,-143.85 1789.05,-150.74"/>
</g>
<!-- Node33&#45;&gt;Node3 -->
<g id="edge59" class="edge">
<title>Node33&#45;&gt;Node3</title>
<path fill="none" stroke="#63b8ff" d="M1907.23,-186.82C1926.16,-170.35 1950.96,-142.67 1935,-121 1903.16,-77.77 1757.27,-44.63 1667.89,-27.95"/>
<polygon fill="#63b8ff" stroke="#63b8ff" points="1668.28,-24.46 1657.81,-26.09 1667.01,-31.35 1668.28,-24.46"/>
</g>
<!-- Node33&#45;&gt;Node11 -->
<g id="edge49" class="edge">
<title>Node33&#45;&gt;Node11</title>
<path fill="none" stroke="#63b8ff" d="M1840.36,-199.36C1670.12,-193.45 1107.19,-172.49 1029,-151 1027.74,-150.65 1026.47,-150.24 1025.21,-149.78"/>
<polygon fill="#63b8ff" stroke="#63b8ff" points="1026.39,-146.48 1015.83,-145.58 1023.53,-152.87 1026.39,-146.48"/>
</g>
<!-- Node33&#45;&gt;Node12 -->
<g id="edge50" class="edge">
<title>Node33&#45;&gt;Node12</title>
<path fill="none" stroke="#63b8ff" d="M1840.41,-199.84C1720.51,-196.53 1401.09,-184.97 1137,-151 1124.92,-149.45 1111.83,-147.14 1100.11,-144.84"/>
<polygon fill="#63b8ff" stroke="#63b8ff" points="1100.72,-141.39 1090.23,-142.84 1099.34,-148.25 1100.72,-141.39"/>
</g>
<!-- Node33&#45;&gt;Node15 -->
<g id="edge51" class="edge">
<title>Node33&#45;&gt;Node15</title>
<path fill="none" stroke="#63b8ff" d="M1840.41,-199.46C1663.39,-193.7 1058.92,-172.63 975,-151 973.51,-150.62 972.01,-150.15 970.51,-149.63"/>
<polygon fill="#63b8ff" stroke="#63b8ff" points="971.49,-146.25 960.92,-145.59 968.77,-152.7 971.49,-146.25"/>
</g>
<!-- Node33&#45;&gt;Node18 -->
<g id="edge61" class="edge">
<title>Node33&#45;&gt;Node18</title>
<path fill="none" stroke="#63b8ff" d="M1902.01,-186.73C1916.47,-169.13 1935.61,-139.32 1918,-121 1879.63,-81.1 1033.77,-76.96 829.23,-76.54"/>
<polygon fill="#63b8ff" stroke="#63b8ff" points="829.16,-73.04 819.15,-76.53 829.14,-80.04 829.16,-73.04"/>
</g>
<!-- Node33&#45;&gt;Node25 -->
<g id="edge55" class="edge">
<title>Node33&#45;&gt;Node25</title>
<path fill="none" stroke="#63b8ff" d="M1937.89,-198.58C2076.23,-191.57 2468.59,-170.49 2596,-151 2601.59,-150.14 2607.44,-149.03 2613.18,-147.81"/>
<polygon fill="#63b8ff" stroke="#63b8ff" points="2614.36,-151.13 2623.34,-145.51 2612.82,-144.3 2614.36,-151.13"/>
</g>
<!-- Node33&#45;&gt;Node29 -->
<g id="edge52" class="edge">
<title>Node33&#45;&gt;Node29</title>
<path fill="none" stroke="#63b8ff" d="M1845.55,-186.95C1810.06,-175.48 1760.49,-159.46 1727.14,-148.68"/>
<polygon fill="#63b8ff" stroke="#63b8ff" points="1727.94,-145.26 1717.35,-145.52 1725.79,-151.92 1727.94,-145.26"/>
</g>
<!-- Node33&#45;&gt;Node31 -->
<g id="edge58" class="edge">
<title>Node33&#45;&gt;Node31</title>
<path fill="none" stroke="#63b8ff" d="M1840.2,-199.34C1734.73,-195.26 1477.85,-182.66 1265,-151 1258.8,-150.08 1252.3,-148.9 1245.92,-147.63"/>
<polygon fill="#63b8ff" stroke="#63b8ff" points="1246.56,-144.19 1236.05,-145.56 1245.12,-151.04 1246.56,-144.19"/>
</g>
<!-- Node33&#45;&gt;Node32 -->
<g id="edge60" class="edge">
<title>Node33&#45;&gt;Node32</title>
<path fill="none" stroke="#63b8ff" d="M1878.57,-186.8C1871.46,-177.11 1862,-164.24 1854.49,-154.01"/>
<polygon fill="#63b8ff" stroke="#63b8ff" points="1857.24,-151.83 1848.5,-145.84 1851.59,-155.98 1857.24,-151.83"/>
</g>
<!-- Node34 -->
<g id="node34" class="node">
<title>Node34</title>
<g id="a_node34"><a xlink:title=" ">
<polygon fill="#e0e0e0" stroke="#999999" points="2289,-145.5 2165,-145.5 2165,-126.5 2289,-126.5 2289,-145.5"/>
<text text-anchor="middle" x="2227" y="-133.5" font-family="Helvetica,sans-Serif" font-size="10.00">flutter/method_channel.h</text>
</a>
</g>
</g>
<!-- Node33&#45;&gt;Node34 -->
<g id="edge53" class="edge">
<title>Node33&#45;&gt;Node34</title>
<path fill="none" stroke="#63b8ff" d="M1937.75,-192.02C1991.29,-182.11 2079.82,-165.64 2156,-151 2161.85,-149.88 2167.97,-148.69 2174.05,-147.5"/>
<polygon fill="#63b8ff" stroke="#63b8ff" points="2175.07,-150.86 2184.21,-145.51 2173.73,-144 2175.07,-150.86"/>
</g>
<!-- Node35 -->
<g id="node35" class="node">
<title>Node35</title>
<g id="a_node35"><a xlink:title=" ">
<polygon fill="#e0e0e0" stroke="#999999" points="2413,-151 2307,-151 2307,-121 2413,-121 2413,-151"/>
<text text-anchor="start" x="2315" y="-139" font-family="Helvetica,sans-Serif" font-size="10.00">flutter/method_result</text>
<text text-anchor="middle" x="2360" y="-128" font-family="Helvetica,sans-Serif" font-size="10.00">_functions.h</text>
</a>
</g>
</g>
<!-- Node33&#45;&gt;Node35 -->
<g id="edge54" class="edge">
<title>Node33&#45;&gt;Node35</title>
<path fill="none" stroke="#63b8ff" d="M1937.71,-196.64C2012.72,-189.58 2161.19,-174.22 2296.81,-151.09"/>
<polygon fill="#63b8ff" stroke="#63b8ff" points="2297.71,-154.49 2306.97,-149.34 2296.52,-147.59 2297.71,-154.49"/>
</g>
<!-- Node36 -->
<g id="node36" class="node">
<title>Node36</title>
<g id="a_node36"><a xlink:title=" ">
<polygon fill="#e0e0e0" stroke="#999999" points="2586.5,-151 2431.5,-151 2431.5,-121 2586.5,-121 2586.5,-151"/>
<text text-anchor="start" x="2439.5" y="-139" font-family="Helvetica,sans-Serif" font-size="10.00">flutter/shell/platform</text>
<text text-anchor="middle" x="2509" y="-128" font-family="Helvetica,sans-Serif" font-size="10.00">/common/json_method_codec.h</text>
</a>
</g>
</g>
<!-- Node33&#45;&gt;Node36 -->
<g id="edge56" class="edge">
<title>Node33&#45;&gt;Node36</title>
<path fill="none" stroke="#63b8ff" d="M1937.62,-197.52C2029.78,-190.69 2236.42,-174.25 2421.08,-151.06"/>
<polygon fill="#63b8ff" stroke="#63b8ff" points="2421.77,-154.5 2431.25,-149.77 2420.89,-147.56 2421.77,-154.5"/>
</g>
<!-- Node37 -->
<g id="node37" class="node">
<title>Node37</title>
<g id="a_node37"><a xlink:title=" ">
<polygon fill="#e0e0e0" stroke="#999999" points="2146.5,-151 2003.5,-151 2003.5,-121 2146.5,-121 2146.5,-151"/>
<text text-anchor="start" x="2011.5" y="-139" font-family="Helvetica,sans-Serif" font-size="10.00">flutter/shell/platform</text>
<text text-anchor="middle" x="2075" y="-128" font-family="Helvetica,sans-Serif" font-size="10.00">/common/text_input_model.h</text>
</a>
</g>
</g>
<!-- Node33&#45;&gt;Node37 -->
<g id="edge57" class="edge">
<title>Node33&#45;&gt;Node37</title>
<path fill="none" stroke="#63b8ff" d="M1929.82,-186.95C1957.68,-177.37 1994.78,-164.6 2024.5,-154.37"/>
<polygon fill="#63b8ff" stroke="#63b8ff" points="2025.96,-157.58 2034.28,-151.01 2023.68,-150.96 2025.96,-157.58"/>
</g>
<!-- Node38&#45;&gt;Node11 -->
<g id="edge63" class="edge">
<title>Node38&#45;&gt;Node11</title>
<path fill="none" stroke="#63b8ff" d="M1197.46,-252.75C1197.77,-237.23 1196.05,-204.82 1178,-187 1129.52,-139.13 1092.82,-174.85 1029,-151 1027.99,-150.62 1026.96,-150.21 1025.93,-149.78"/>
<polygon fill="#63b8ff" stroke="#63b8ff" points="1027.38,-146.6 1016.84,-145.51 1024.4,-152.93 1027.38,-146.6"/>
</g>
<!-- Node38&#45;&gt;Node12 -->
<g id="edge64" class="edge">
<title>Node38&#45;&gt;Node12</title>
<path fill="none" stroke="#63b8ff" d="M1202.68,-252.78C1211.62,-237.87 1226.5,-207.12 1212,-187 1182.42,-145.95 1151.88,-167.36 1104,-151 1102.12,-150.36 1100.19,-149.7 1098.25,-149.02"/>
<polygon fill="#63b8ff" stroke="#63b8ff" points="1099.11,-145.62 1088.52,-145.65 1096.82,-152.23 1099.11,-145.62"/>
</g>
<!-- Node38&#45;&gt;Node25 -->
<g id="edge70" class="edge">
<title>Node38&#45;&gt;Node25</title>
<path fill="none" stroke="#63b8ff" d="M1246.05,-258.36C1271.66,-256.73 1303.52,-254.73 1332,-253 1894.57,-218.82 2040.25,-244.78 2596,-151 2601.39,-150.09 2607.01,-148.98 2612.56,-147.78"/>
<polygon fill="#63b8ff" stroke="#63b8ff" points="2613.41,-151.17 2622.39,-145.55 2611.86,-144.34 2613.41,-151.17"/>
</g>
<!-- Node39 -->
<g id="node39" class="node">
<title>Node39</title>
<g id="a_node39"><a xlink:href="configuration_8h.html" target="_top" xlink:title=" ">
<polygon fill="white" stroke="#666666" points="1169.5,-211.5 1030.5,-211.5 1030.5,-192.5 1169.5,-192.5 1169.5,-211.5"/>
<text text-anchor="middle" x="1100" y="-199.5" font-family="Helvetica,sans-Serif" font-size="10.00">configuration/configuration.h</text>
</a>
</g>
</g>
<!-- Node38&#45;&gt;Node39 -->
<g id="edge65" class="edge">
<title>Node38&#45;&gt;Node39</title>
<path fill="none" stroke="#63b8ff" d="M1182.69,-252.87C1167,-243.41 1141.6,-228.09 1123.09,-216.92"/>
<polygon fill="#63b8ff" stroke="#63b8ff" points="1124.74,-213.83 1114.37,-211.67 1121.13,-219.83 1124.74,-213.83"/>
</g>
<!-- Node40 -->
<g id="node40" class="node">
<title>Node40</title>
<g id="a_node40"><a xlink:href="window_8h.html" target="_top" xlink:title=" ">
<polygon fill="white" stroke="#666666" points="694,-211.5 598,-211.5 598,-192.5 694,-192.5 694,-211.5"/>
<text text-anchor="middle" x="646" y="-199.5" font-family="Helvetica,sans-Serif" font-size="10.00">wayland/window.h</text>
</a>
</g>
</g>
<!-- Node38&#45;&gt;Node40 -->
<g id="edge71" class="edge">
<title>Node38&#45;&gt;Node40</title>
<path fill="none" stroke="#63b8ff" d="M1147.62,-256.26C1045.9,-245.46 813.44,-220.78 704.44,-209.2"/>
<polygon fill="#63b8ff" stroke="#63b8ff" points="704.6,-205.7 694.29,-208.13 703.86,-212.66 704.6,-205.7"/>
</g>
<!-- Node39&#45;&gt;Node15 -->
<g id="edge66" class="edge">
<title>Node39&#45;&gt;Node15</title>
<path fill="none" stroke="#63b8ff" d="M1077.22,-192.43C1052.02,-182.83 1010.29,-166.55 975,-151 974.17,-150.64 973.33,-150.26 972.49,-149.88"/>
<polygon fill="#63b8ff" stroke="#63b8ff" points="973.93,-146.69 963.39,-145.64 970.97,-153.04 973.93,-146.69"/>
</g>
<!-- Node39&#45;&gt;Node16 -->
<g id="edge67" class="edge">
<title>Node39&#45;&gt;Node16</title>
<path fill="none" stroke="#63b8ff" d="M1061.75,-192.48C1024.15,-183.67 965.38,-168.73 916,-151 914.78,-150.56 913.54,-150.1 912.3,-149.61"/>
<polygon fill="#63b8ff" stroke="#63b8ff" points="913.41,-146.28 902.83,-145.64 910.7,-152.73 913.41,-146.28"/>
</g>
<!-- Node39&#45;&gt;Node25 -->
<g id="edge68" class="edge">
<title>Node39&#45;&gt;Node25</title>
<path fill="none" stroke="#63b8ff" d="M1169.9,-195.23C1207.04,-192.36 1253.47,-189.06 1295,-187 1583.87,-172.64 2309.23,-188.59 2596,-151 2601.95,-150.22 2608.18,-149.09 2614.26,-147.81"/>
<polygon fill="#63b8ff" stroke="#63b8ff" points="2615.31,-151.16 2624.29,-145.55 2613.77,-144.34 2615.31,-151.16"/>
</g>
<!-- Node39&#45;&gt;Node31 -->
<g id="edge69" class="edge">
<title>Node39&#45;&gt;Node31</title>
<path fill="none" stroke="#63b8ff" d="M1113.62,-192.37C1130.34,-181.78 1158.91,-163.67 1178.81,-151.06"/>
<polygon fill="#63b8ff" stroke="#63b8ff" points="1180.7,-154.01 1187.27,-145.7 1176.95,-148.1 1180.7,-154.01"/>
</g>
<!-- Node40&#45;&gt;Node12 -->
<g id="edge72" class="edge">
<title>Node40&#45;&gt;Node12</title>
<path fill="none" stroke="#63b8ff" d="M694.04,-198.43C767.14,-193.68 910.23,-181.14 1028,-151 1030.3,-150.41 1032.66,-149.72 1035.01,-148.96"/>
<polygon fill="#63b8ff" stroke="#63b8ff" points="1036.23,-152.24 1044.47,-145.58 1033.88,-145.64 1036.23,-152.24"/>
</g>
<!-- Node40&#45;&gt;Node15 -->
<g id="edge73" class="edge">
<title>Node40&#45;&gt;Node15</title>
<path fill="none" stroke="#63b8ff" d="M694.21,-195.81C748.93,-189.07 840.41,-175.2 916,-151 917.4,-150.55 918.83,-150.05 920.25,-149.52"/>
<polygon fill="#63b8ff" stroke="#63b8ff" points="921.63,-152.73 929.48,-145.62 918.91,-146.28 921.63,-152.73"/>
</g>
<!-- Node40&#45;&gt;Node17 -->
<g id="edge77" class="edge">
<title>Node40&#45;&gt;Node17</title>
<path fill="none" stroke="#63b8ff" d="M597.8,-196.61C511.09,-188.56 323.11,-170.5 165,-151 152.94,-149.51 140.07,-147.78 127.75,-146.05"/>
<polygon fill="#63b8ff" stroke="#63b8ff" points="127.95,-142.54 117.56,-144.6 126.97,-149.47 127.95,-142.54"/>
</g>
<!-- Node40&#45;&gt;Node18 -->
<g id="edge76" class="edge">
<title>Node40&#45;&gt;Node18</title>
<path fill="none" stroke="#63b8ff" d="M694.3,-195.16C722.91,-189.04 757.31,-176.55 777,-151 789.13,-135.26 789.63,-111.78 788.06,-95.4"/>
<polygon fill="#63b8ff" stroke="#63b8ff" points="791.52,-94.84 786.77,-85.38 784.58,-95.74 791.52,-94.84"/>
</g>
<!-- Node41 -->
<g id="node41" class="node">
<title>Node41</title>
<g id="a_node41"><a xlink:title=" ">
<polygon fill="#e0e0e0" stroke="#999999" points="369.5,-145.5 320.5,-145.5 320.5,-126.5 369.5,-126.5 369.5,-145.5"/>
<text text-anchor="middle" x="345" y="-133.5" font-family="Helvetica,sans-Serif" font-size="10.00">cassert</text>
</a>
</g>
</g>
<!-- Node40&#45;&gt;Node41 -->
<g id="edge74" class="edge">
<title>Node40&#45;&gt;Node41</title>
<path fill="none" stroke="#63b8ff" d="M597.81,-195.22C543.58,-187.97 453.22,-173.68 378,-151 376.32,-150.49 374.61,-149.93 372.9,-149.33"/>
<polygon fill="#63b8ff" stroke="#63b8ff" points="373.83,-145.93 363.24,-145.57 371.29,-152.46 373.83,-145.93"/>
</g>
<!-- Node42 -->
<g id="node42" class="node">
<title>Node42</title>
<g id="a_node42"><a xlink:title=" ">
<polygon fill="#e0e0e0" stroke="#999999" points="512.5,-145.5 387.5,-145.5 387.5,-126.5 512.5,-126.5 512.5,-145.5"/>
<text text-anchor="middle" x="450" y="-133.5" font-family="Helvetica,sans-Serif" font-size="10.00">agl&#45;shell&#45;client&#45;protocol.h</text>
</a>
</g>
</g>
<!-- Node40&#45;&gt;Node42 -->
<g id="edge75" class="edge">
<title>Node40&#45;&gt;Node42</title>
<path fill="none" stroke="#63b8ff" d="M619.57,-192.37C585.13,-181.12 524.78,-161.42 486.13,-148.8"/>
<polygon fill="#63b8ff" stroke="#63b8ff" points="486.92,-145.37 476.33,-145.6 484.75,-152.03 486.92,-145.37"/>
</g>
<!-- Node43 -->
<g id="node43" class="node">
<title>Node43</title>
<g id="a_node43"><a xlink:title=" ">
<polygon fill="#e0e0e0" stroke="#999999" points="633,-151 531,-151 531,-121 633,-121 633,-151"/>
<text text-anchor="start" x="539" y="-139" font-family="Helvetica,sans-Serif" font-size="10.00">ivi&#45;application&#45;client</text>
<text text-anchor="middle" x="582" y="-128" font-family="Helvetica,sans-Serif" font-size="10.00">&#45;protocol.h</text>
</a>
</g>
</g>
<!-- Node40&#45;&gt;Node43 -->
<g id="edge78" class="edge">
<title>Node40&#45;&gt;Node43</title>
<path fill="none" stroke="#63b8ff" d="M637.37,-192.37C628.75,-183.75 615.15,-170.15 603.59,-158.59"/>
<polygon fill="#63b8ff" stroke="#63b8ff" points="605.91,-155.96 596.36,-151.36 600.96,-160.91 605.91,-155.96"/>
</g>
<!-- Node44 -->
<g id="node44" class="node">
<title>Node44</title>
<g id="a_node44"><a xlink:title=" ">
<polygon fill="#e0e0e0" stroke="#999999" points="768.5,-145.5 651.5,-145.5 651.5,-126.5 768.5,-126.5 768.5,-145.5"/>
<text text-anchor="middle" x="710" y="-133.5" font-family="Helvetica,sans-Serif" font-size="10.00">ivi&#45;wm&#45;client&#45;protocol.h</text>
</a>
</g>
</g>
<!-- Node40&#45;&gt;Node44 -->
<g id="edge79" class="edge">
<title>Node40&#45;&gt;Node44</title>
<path fill="none" stroke="#63b8ff" d="M654.63,-192.37C664.69,-182.31 681.52,-165.48 693.99,-153.01"/>
<polygon fill="#63b8ff" stroke="#63b8ff" points="696.5,-155.45 701.09,-145.91 691.55,-150.5 696.5,-155.45"/>
</g>
<!-- Node45 -->
<g id="node45" class="node">
<title>Node45</title>
<g id="a_node45"><a xlink:title=" ">
<polygon fill="#e0e0e0" stroke="#999999" points="302,-145.5 174,-145.5 174,-126.5 302,-126.5 302,-145.5"/>
<text text-anchor="middle" x="238" y="-133.5" font-family="Helvetica,sans-Serif" font-size="10.00">xdg&#45;shell&#45;client&#45;protocol.h</text>
</a>
</g>
</g>
<!-- Node40&#45;&gt;Node45 -->
<g id="edge80" class="edge">
<title>Node40&#45;&gt;Node45</title>
<path fill="none" stroke="#63b8ff" d="M597.91,-194.46C532.76,-185.45 412.88,-168.36 311,-151 304.42,-149.88 297.52,-148.64 290.69,-147.37"/>
<polygon fill="#63b8ff" stroke="#63b8ff" points="291.27,-143.92 280.79,-145.51 289.97,-150.8 291.27,-143.92"/>
</g>
</g>
</svg>
