<?xml version="1.0" encoding="UTF-8" standalone="no"?>
<!DOCTYPE svg PUBLIC "-//W3C//DTD SVG 1.1//EN"
 "http://www.w3.org/Graphics/SVG/1.1/DTD/svg11.dtd">
<!-- Generated by graphviz version 2.43.0 (0)
 -->
<!-- Title: /home/joel.winarske@toyotaconnected.com/development/workspace&#45;automation&#45;configs/app/ivi&#45;homescreen/shell/static_plugins/accessibility/accessibility.cc Pages: 1 -->
<svg width="2896pt" height="463pt"
 viewBox="0.00 0.00 2895.60 463.00" xmlns="http://www.w3.org/2000/svg" xmlns:xlink="http://www.w3.org/1999/xlink">
<g id="graph0" class="graph" transform="scale(1 1) rotate(0) translate(4 459)">
<title>/home/joel.winarske@toyotaconnected.com/development/workspace&#45;automation&#45;configs/app/ivi&#45;homescreen/shell/static_plugins/accessibility/accessibility.cc</title>
<polygon fill="white" stroke="transparent" points="-4,4 -4,-459 2891.6,-459 2891.6,4 -4,4"/>
<!-- Node1 -->
<g id="node1" class="node">
<title>Node1</title>
<g id="a_node1"><a xlink:title=" ">
<polygon fill="#bfbfbf" stroke="black" points="2600.6,-380.5 2600.6,-454.5 2797.6,-454.5 2797.6,-380.5 2600.6,-380.5"/>
<text text-anchor="start" x="2608.6" y="-442.5" font-family="Helvetica,sans-Serif" font-size="10.00">/home/joel.winarske</text>
<text text-anchor="start" x="2608.6" y="-431.5" font-family="Helvetica,sans-Serif" font-size="10.00">@toyotaconnected.com</text>
<text text-anchor="start" x="2608.6" y="-420.5" font-family="Helvetica,sans-Serif" font-size="10.00">/development/workspace</text>
<text text-anchor="start" x="2608.6" y="-409.5" font-family="Helvetica,sans-Serif" font-size="10.00">&#45;automation&#45;configs/app</text>
<text text-anchor="start" x="2608.6" y="-398.5" font-family="Helvetica,sans-Serif" font-size="10.00">/ivi&#45;homescreen/shell/static</text>
<text text-anchor="middle" x="2699.1" y="-387.5" font-family="Helvetica,sans-Serif" font-size="10.00">_plugins/accessibility/accessibility.cc</text>
</a>
</g>
</g>
<!-- Node2 -->
<g id="node2" class="node">
<title>Node2</title>
<g id="a_node2"><a xlink:href="accessibility_8h.html" target="_top" xlink:title=" ">
<polygon fill="white" stroke="black" points="2585.6,-67.5 2585.6,-86.5 2670.6,-86.5 2670.6,-67.5 2585.6,-67.5"/>
<text text-anchor="middle" x="2628.1" y="-74.5" font-family="Helvetica,sans-Serif" font-size="10.00">accessibility.h</text>
</a>
</g>
</g>
<!-- Node1&#45;&gt;Node2 -->
<g id="edge1" class="edge">
<title>Node1&#45;&gt;Node2</title>
<path fill="none" stroke="midnightblue" d="M2691.5,-380.27C2676.44,-308.46 2643.27,-150.34 2631.96,-96.43"/>
<polygon fill="midnightblue" stroke="midnightblue" points="2635.37,-95.64 2629.9,-86.57 2628.52,-97.08 2635.37,-95.64"/>
</g>
<!-- Node4 -->
<g id="node4" class="node">
<title>Node4</title>
<g id="a_node4"><a xlink:title=" ">
<polygon fill="white" stroke="#bfbfbf" points="2746.6,-313.5 2746.6,-343.5 2887.6,-343.5 2887.6,-313.5 2746.6,-313.5"/>
<text text-anchor="start" x="2754.6" y="-331.5" font-family="Helvetica,sans-Serif" font-size="10.00">flutter/standard_message</text>
<text text-anchor="middle" x="2817.1" y="-320.5" font-family="Helvetica,sans-Serif" font-size="10.00">_codec.h</text>
</a>
</g>
</g>
<!-- Node1&#45;&gt;Node4 -->
<g id="edge3" class="edge">
<title>Node1&#45;&gt;Node4</title>
<path fill="none" stroke="midnightblue" d="M2748.12,-380.36C2762.42,-369.81 2777.53,-358.68 2789.95,-349.52"/>
<polygon fill="midnightblue" stroke="midnightblue" points="2792.1,-352.28 2798.07,-343.53 2787.95,-346.64 2792.1,-352.28"/>
</g>
<!-- Node5 -->
<g id="node5" class="node">
<title>Node5</title>
<g id="a_node5"><a xlink:href="engine_8h.html" target="_top" xlink:title=" ">
<polygon fill="white" stroke="black" points="2060.6,-319 2060.6,-338 2119.6,-338 2119.6,-319 2060.6,-319"/>
<text text-anchor="middle" x="2090.1" y="-326" font-family="Helvetica,sans-Serif" font-size="10.00">engine.h</text>
</a>
</g>
</g>
<!-- Node1&#45;&gt;Node5 -->
<g id="edge4" class="edge">
<title>Node1&#45;&gt;Node5</title>
<path fill="none" stroke="midnightblue" d="M2600.57,-402.43C2464.13,-382.93 2223.82,-348.6 2129.59,-335.14"/>
<polygon fill="midnightblue" stroke="midnightblue" points="2130.01,-331.67 2119.62,-333.72 2129.02,-338.6 2130.01,-331.67"/>
</g>
<!-- Node19 -->
<g id="node19" class="node">
<title>Node19</title>
<g id="a_node19"><a xlink:href="logging_8h.html" target="_top" xlink:title=" ">
<polygon fill="white" stroke="black" points="2708.1,-257.5 2708.1,-276.5 2770.1,-276.5 2770.1,-257.5 2708.1,-257.5"/>
<text text-anchor="middle" x="2739.1" y="-264.5" font-family="Helvetica,sans-Serif" font-size="10.00">logging.h</text>
</a>
</g>
</g>
<!-- Node1&#45;&gt;Node19 -->
<g id="edge73" class="edge">
<title>Node1&#45;&gt;Node19</title>
<path fill="none" stroke="midnightblue" d="M2708.88,-380.17C2716.87,-350.51 2727.84,-309.81 2734.12,-286.47"/>
<polygon fill="midnightblue" stroke="midnightblue" points="2737.58,-287.09 2736.8,-276.53 2730.82,-285.27 2737.58,-287.09"/>
</g>
<!-- Node3 -->
<g id="node3" class="node">
<title>Node3</title>
<g id="a_node3"><a xlink:title=" ">
<polygon fill="white" stroke="#bfbfbf" points="1948.6,-0.5 1948.6,-30.5 2085.6,-30.5 2085.6,-0.5 1948.6,-0.5"/>
<text text-anchor="start" x="1956.6" y="-18.5" font-family="Helvetica,sans-Serif" font-size="10.00">shell/platform/embedder</text>
<text text-anchor="middle" x="2017.1" y="-7.5" font-family="Helvetica,sans-Serif" font-size="10.00">/embedder.h</text>
</a>
</g>
</g>
<!-- Node2&#45;&gt;Node3 -->
<g id="edge2" class="edge">
<title>Node2&#45;&gt;Node3</title>
<path fill="none" stroke="midnightblue" d="M2585.5,-68.96C2580.65,-68.25 2575.77,-67.58 2571.1,-67 2402.35,-46.01 2203.66,-30 2096.04,-22.06"/>
<polygon fill="midnightblue" stroke="midnightblue" points="2096.15,-18.55 2085.92,-21.31 2095.63,-25.54 2096.15,-18.55"/>
</g>
<!-- Node5&#45;&gt;Node3 -->
<g id="edge9" class="edge">
<title>Node5&#45;&gt;Node3</title>
<path fill="none" stroke="midnightblue" d="M2119.76,-326.67C2201.26,-323.94 2426.75,-313.22 2490.1,-277 2559.91,-237.09 2636.46,-184.88 2585.1,-123 2523.84,-49.19 2237.2,-26.22 2096.05,-19.33"/>
<polygon fill="midnightblue" stroke="midnightblue" points="2095.88,-15.82 2085.73,-18.84 2095.55,-22.81 2095.88,-15.82"/>
</g>
<!-- Node6 -->
<g id="node6" class="node">
<title>Node6</title>
<g id="a_node6"><a xlink:title=" ">
<polygon fill="white" stroke="#bfbfbf" points="1633.6,-257.5 1633.6,-276.5 1698.6,-276.5 1698.6,-257.5 1633.6,-257.5"/>
<text text-anchor="middle" x="1666.1" y="-264.5" font-family="Helvetica,sans-Serif" font-size="10.00">functional</text>
</a>
</g>
</g>
<!-- Node5&#45;&gt;Node6 -->
<g id="edge5" class="edge">
<title>Node5&#45;&gt;Node6</title>
<path fill="none" stroke="midnightblue" d="M2060.17,-324.43C1997.06,-317.77 1845.54,-300.79 1708.95,-277.21"/>
<polygon fill="midnightblue" stroke="midnightblue" points="1709.17,-273.69 1698.72,-275.42 1707.97,-280.59 1709.17,-273.69"/>
</g>
<!-- Node7 -->
<g id="node7" class="node">
<title>Node7</title>
<g id="a_node7"><a xlink:title=" ">
<polygon fill="white" stroke="#bfbfbf" points="2401.1,-6 2401.1,-25 2463.1,-25 2463.1,-6 2401.1,-6"/>
<text text-anchor="middle" x="2432.1" y="-13" font-family="Helvetica,sans-Serif" font-size="10.00">EGL/egl.h</text>
</a>
</g>
</g>
<!-- Node5&#45;&gt;Node7 -->
<g id="edge6" class="edge">
<title>Node5&#45;&gt;Node7</title>
<path fill="none" stroke="midnightblue" d="M2119.72,-326.01C2204.63,-321.42 2447.51,-306.04 2521.1,-277 2560.13,-261.6 2568.73,-251.91 2597.1,-221 2649.52,-163.87 2728.13,-127.07 2679.1,-67 2653.6,-35.76 2536.87,-23.33 2473.43,-18.82"/>
<polygon fill="midnightblue" stroke="midnightblue" points="2473.57,-15.32 2463.35,-18.13 2473.09,-22.3 2473.57,-15.32"/>
</g>
<!-- Node8 -->
<g id="node8" class="node">
<title>Node8</title>
<g id="a_node8"><a xlink:title=" ">
<polygon fill="white" stroke="#bfbfbf" points="2085.1,-257.5 2085.1,-276.5 2159.1,-276.5 2159.1,-257.5 2085.1,-257.5"/>
<text text-anchor="middle" x="2122.1" y="-264.5" font-family="Helvetica,sans-Serif" font-size="10.00">GLES2/gl2.h</text>
</a>
</g>
</g>
<!-- Node5&#45;&gt;Node8 -->
<g id="edge7" class="edge">
<title>Node5&#45;&gt;Node8</title>
<path fill="none" stroke="midnightblue" d="M2094.68,-318.98C2099.34,-310.32 2106.69,-296.65 2112.61,-285.65"/>
<polygon fill="midnightblue" stroke="midnightblue" points="2115.87,-286.97 2117.52,-276.51 2109.7,-283.66 2115.87,-286.97"/>
</g>
<!-- Node9 -->
<g id="node9" class="node">
<title>Node9</title>
<g id="a_node9"><a xlink:title=" ">
<polygon fill="white" stroke="#bfbfbf" points="2177.1,-257.5 2177.1,-276.5 2317.1,-276.5 2317.1,-257.5 2177.1,-257.5"/>
<text text-anchor="middle" x="2247.1" y="-264.5" font-family="Helvetica,sans-Serif" font-size="10.00">flutter/encodable_value.h</text>
</a>
</g>
</g>
<!-- Node5&#45;&gt;Node9 -->
<g id="edge8" class="edge">
<title>Node5&#45;&gt;Node9</title>
<path fill="none" stroke="midnightblue" d="M2112.59,-318.98C2139.41,-308.81 2184.41,-291.76 2214.91,-280.2"/>
<polygon fill="midnightblue" stroke="midnightblue" points="2216.53,-283.33 2224.65,-276.51 2214.05,-276.78 2216.53,-283.33"/>
</g>
<!-- Node10 -->
<g id="node10" class="node">
<title>Node10</title>
<g id="a_node10"><a xlink:title=" ">
<polygon fill="white" stroke="#bfbfbf" points="1736.1,-129 1736.1,-148 1774.1,-148 1774.1,-129 1736.1,-129"/>
<text text-anchor="middle" x="1755.1" y="-136" font-family="Helvetica,sans-Serif" font-size="10.00">map</text>
</a>
</g>
</g>
<!-- Node5&#45;&gt;Node10 -->
<g id="edge10" class="edge">
<title>Node5&#45;&gt;Node10</title>
<path fill="none" stroke="midnightblue" d="M2060.49,-327.32C1970.08,-326.32 1699.15,-319.73 1624.1,-277 1586.79,-255.75 1555.67,-223.84 1582.1,-190 1622.7,-138 1664.23,-176.89 1726.1,-154 1727.48,-153.49 1728.89,-152.93 1730.3,-152.34"/>
<polygon fill="midnightblue" stroke="midnightblue" points="1731.81,-155.49 1739.42,-148.12 1728.88,-149.14 1731.81,-155.49"/>
</g>
<!-- Node11 -->
<g id="node11" class="node">
<title>Node11</title>
<g id="a_node11"><a xlink:title=" ">
<polygon fill="white" stroke="#bfbfbf" points="1792.1,-129 1792.1,-148 1850.1,-148 1850.1,-129 1792.1,-129"/>
<text text-anchor="middle" x="1821.1" y="-136" font-family="Helvetica,sans-Serif" font-size="10.00">memory</text>
</a>
</g>
</g>
<!-- Node5&#45;&gt;Node11 -->
<g id="edge11" class="edge">
<title>Node5&#45;&gt;Node11</title>
<path fill="none" stroke="midnightblue" d="M2060.47,-319.4C2014.86,-305.68 1926.81,-274.05 1870.1,-221 1850.75,-202.9 1836.4,-175.46 1828.39,-157.51"/>
<polygon fill="midnightblue" stroke="midnightblue" points="1831.55,-156 1824.41,-148.17 1825.11,-158.75 1831.55,-156"/>
</g>
<!-- Node12 -->
<g id="node12" class="node">
<title>Node12</title>
<g id="a_node12"><a xlink:title=" ">
<polygon fill="white" stroke="#bfbfbf" points="2335.1,-257.5 2335.1,-276.5 2383.1,-276.5 2383.1,-257.5 2335.1,-257.5"/>
<text text-anchor="middle" x="2359.1" y="-264.5" font-family="Helvetica,sans-Serif" font-size="10.00">mutex</text>
</a>
</g>
</g>
<!-- Node5&#45;&gt;Node12 -->
<g id="edge12" class="edge">
<title>Node5&#45;&gt;Node12</title>
<path fill="none" stroke="midnightblue" d="M2119.65,-321.72C2162.71,-313.19 2245.41,-296.35 2325.27,-277.1"/>
<polygon fill="midnightblue" stroke="midnightblue" points="2326.09,-280.5 2334.99,-274.74 2324.44,-273.7 2326.09,-280.5"/>
</g>
<!-- Node13 -->
<g id="node13" class="node">
<title>Node13</title>
<g id="a_node13"><a xlink:title=" ">
<polygon fill="white" stroke="#bfbfbf" points="2401.6,-257.5 2401.6,-276.5 2448.6,-276.5 2448.6,-257.5 2401.6,-257.5"/>
<text text-anchor="middle" x="2425.1" y="-264.5" font-family="Helvetica,sans-Serif" font-size="10.00">queue</text>
</a>
</g>
</g>
<!-- Node5&#45;&gt;Node13 -->
<g id="edge13" class="edge">
<title>Node5&#45;&gt;Node13</title>
<path fill="none" stroke="midnightblue" d="M2119.87,-323.54C2172.6,-316.29 2286.04,-299.74 2391.52,-276.93"/>
<polygon fill="midnightblue" stroke="midnightblue" points="2392.35,-280.33 2401.38,-274.78 2390.86,-273.49 2392.35,-280.33"/>
</g>
<!-- Node14 -->
<g id="node14" class="node">
<title>Node14</title>
<g id="a_node14"><a xlink:title=" ">
<polygon fill="white" stroke="#bfbfbf" points="1868.1,-129 1868.1,-148 1912.1,-148 1912.1,-129 1868.1,-129"/>
<text text-anchor="middle" x="1890.1" y="-136" font-family="Helvetica,sans-Serif" font-size="10.00">string</text>
</a>
</g>
</g>
<!-- Node5&#45;&gt;Node14 -->
<g id="edge14" class="edge">
<title>Node5&#45;&gt;Node14</title>
<path fill="none" stroke="midnightblue" d="M2085.22,-318.85C2069.87,-291.86 2022.23,-209.86 1999.1,-190 1970.13,-165.13 1955.72,-170.09 1921.1,-154 1919.95,-153.46 1918.77,-152.92 1917.58,-152.37"/>
<polygon fill="midnightblue" stroke="midnightblue" points="1918.99,-149.16 1908.45,-148.1 1916.03,-155.5 1918.99,-149.16"/>
</g>
<!-- Node15 -->
<g id="node15" class="node">
<title>Node15</title>
<g id="a_node15"><a xlink:title=" ">
<polygon fill="white" stroke="#bfbfbf" points="1930.6,-129 1930.6,-148 1977.6,-148 1977.6,-129 1930.6,-129"/>
<text text-anchor="middle" x="1954.1" y="-136" font-family="Helvetica,sans-Serif" font-size="10.00">vector</text>
</a>
</g>
</g>
<!-- Node5&#45;&gt;Node15 -->
<g id="edge15" class="edge">
<title>Node5&#45;&gt;Node15</title>
<path fill="none" stroke="midnightblue" d="M2087.31,-318.95C2078.5,-292.27 2050.77,-211.09 2033.1,-190 2019.64,-173.94 1999.74,-161.26 1983.28,-152.62"/>
<polygon fill="midnightblue" stroke="midnightblue" points="1984.57,-149.36 1974.06,-148.01 1981.44,-155.62 1984.57,-149.36"/>
</g>
<!-- Node16 -->
<g id="node16" class="node">
<title>Node16</title>
<g id="a_node16"><a xlink:href="backend_8h.html" target="_top" xlink:title=" ">
<polygon fill="white" stroke="black" points="2466.1,-129 2466.1,-148 2576.1,-148 2576.1,-129 2466.1,-129"/>
<text text-anchor="middle" x="2521.1" y="-136" font-family="Helvetica,sans-Serif" font-size="10.00">backend/backend.h</text>
</a>
</g>
</g>
<!-- Node5&#45;&gt;Node16 -->
<g id="edge16" class="edge">
<title>Node5&#45;&gt;Node16</title>
<path fill="none" stroke="midnightblue" d="M2119.79,-326.88C2196.07,-324.79 2395.64,-315.73 2448.1,-277 2487.72,-247.75 2503.61,-187.85 2512.8,-157.69"/>
<polygon fill="midnightblue" stroke="midnightblue" points="2516.18,-158.63 2515.92,-148.04 2509.51,-156.48 2516.18,-158.63"/>
</g>
<!-- Node17 -->
<g id="node17" class="node">
<title>Node17</title>
<g id="a_node17"><a xlink:href="constants_8h.html" target="_top" xlink:title=" ">
<polygon fill="white" stroke="black" points="1883.6,-67.5 1883.6,-86.5 1956.6,-86.5 1956.6,-67.5 1883.6,-67.5"/>
<text text-anchor="middle" x="1920.1" y="-74.5" font-family="Helvetica,sans-Serif" font-size="10.00">constants.h</text>
</a>
</g>
</g>
<!-- Node5&#45;&gt;Node17 -->
<g id="edge23" class="edge">
<title>Node5&#45;&gt;Node17</title>
<path fill="none" stroke="midnightblue" d="M2060.53,-327.41C1817.28,-326.41 151.37,-313.73 7.1,-154 -2.14,-143.78 -2.53,-132.86 7.1,-123 40.74,-88.56 1583,-79.59 1873.26,-78.21"/>
<polygon fill="midnightblue" stroke="midnightblue" points="1873.46,-81.71 1883.45,-78.16 1873.43,-74.71 1873.46,-81.71"/>
</g>
<!-- Node5&#45;&gt;Node19 -->
<g id="edge24" class="edge">
<title>Node5&#45;&gt;Node19</title>
<path fill="none" stroke="midnightblue" d="M2119.88,-325.04C2204.1,-318.05 2451.16,-297.25 2656.1,-277 2669.64,-275.66 2684.42,-274.09 2697.7,-272.65"/>
<polygon fill="midnightblue" stroke="midnightblue" points="2698.42,-276.09 2707.98,-271.52 2697.65,-269.13 2698.42,-276.09"/>
</g>
<!-- Node21 -->
<g id="node21" class="node">
<title>Node21</title>
<g id="a_node21"><a xlink:href="platform__channel_8h.html" target="_top" xlink:title=" ">
<polygon fill="white" stroke="black" points="1879.6,-196 1879.6,-215 1990.6,-215 1990.6,-196 1879.6,-196"/>
<text text-anchor="middle" x="1935.1" y="-203" font-family="Helvetica,sans-Serif" font-size="10.00">platform_channel.h</text>
</a>
</g>
</g>
<!-- Node5&#45;&gt;Node21 -->
<g id="edge26" class="edge">
<title>Node5&#45;&gt;Node21</title>
<path fill="none" stroke="midnightblue" d="M2073,-318.99C2055.24,-309.78 2027.02,-294.1 2005.1,-277 1983.95,-260.5 1962.67,-238.04 1949.22,-222.94"/>
<polygon fill="midnightblue" stroke="midnightblue" points="1951.49,-220.22 1942.26,-215 1946.22,-224.83 1951.49,-220.22"/>
</g>
<!-- Node22 -->
<g id="node22" class="node">
<title>Node22</title>
<g id="a_node22"><a xlink:href="key__event_8h.html" target="_top" xlink:title=" ">
<polygon fill="white" stroke="black" points="673.1,-190.5 673.1,-220.5 785.1,-220.5 785.1,-190.5 673.1,-190.5"/>
<text text-anchor="start" x="681.1" y="-208.5" font-family="Helvetica,sans-Serif" font-size="10.00">static_plugins/key</text>
<text text-anchor="middle" x="729.1" y="-197.5" font-family="Helvetica,sans-Serif" font-size="10.00">_event/key_event.h</text>
</a>
</g>
</g>
<!-- Node5&#45;&gt;Node22 -->
<g id="edge30" class="edge">
<title>Node5&#45;&gt;Node22</title>
<path fill="none" stroke="midnightblue" d="M2060.56,-325.3C1970.48,-318.57 1691.27,-297.41 1460.1,-277 1214.95,-255.35 923.9,-226.27 795.54,-213.27"/>
<polygon fill="midnightblue" stroke="midnightblue" points="795.78,-209.78 785.47,-212.25 795.07,-216.74 795.78,-209.78"/>
</g>
<!-- Node29 -->
<g id="node29" class="node">
<title>Node29</title>
<g id="a_node29"><a xlink:href="text__input_8h.html" target="_top" xlink:title=" ">
<polygon fill="white" stroke="black" points="1238.1,-190.5 1238.1,-220.5 1346.1,-220.5 1346.1,-190.5 1238.1,-190.5"/>
<text text-anchor="start" x="1246.1" y="-208.5" font-family="Helvetica,sans-Serif" font-size="10.00">static_plugins/text</text>
<text text-anchor="middle" x="1292.1" y="-197.5" font-family="Helvetica,sans-Serif" font-size="10.00">_input/text_input.h</text>
</a>
</g>
</g>
<!-- Node5&#45;&gt;Node29 -->
<g id="edge42" class="edge">
<title>Node5&#45;&gt;Node29</title>
<path fill="none" stroke="midnightblue" d="M2060.53,-326.55C1978.63,-323.54 1742.12,-312.21 1549.1,-277 1476.83,-263.82 1395.35,-239.87 1343.88,-223.58"/>
<polygon fill="midnightblue" stroke="midnightblue" points="1344.91,-220.23 1334.32,-220.53 1342.78,-226.9 1344.91,-220.23"/>
</g>
<!-- Node34 -->
<g id="node34" class="node">
<title>Node34</title>
<g id="a_node34"><a xlink:href="flutter__view_8h.html" target="_top" xlink:title=" ">
<polygon fill="white" stroke="black" points="1716.6,-257.5 1716.6,-276.5 1825.6,-276.5 1825.6,-257.5 1716.6,-257.5"/>
<text text-anchor="middle" x="1771.1" y="-264.5" font-family="Helvetica,sans-Serif" font-size="10.00">view/flutter_view.h</text>
</a>
</g>
</g>
<!-- Node5&#45;&gt;Node34 -->
<g id="edge56" class="edge">
<title>Node5&#45;&gt;Node34</title>
<path fill="none" stroke="midnightblue" d="M2060.37,-321.96C2007.19,-312.04 1894.97,-291.1 1827,-278.43"/>
<polygon fill="midnightblue" stroke="midnightblue" points="1827.37,-274.93 1816.89,-276.54 1826.08,-281.82 1827.37,-274.93"/>
</g>
<!-- Node16&#45;&gt;Node3 -->
<g id="edge17" class="edge">
<title>Node16&#45;&gt;Node3</title>
<path fill="none" stroke="midnightblue" d="M2485.66,-128.99C2402.55,-109.04 2193.94,-58.96 2085.29,-32.87"/>
<polygon fill="midnightblue" stroke="midnightblue" points="2085.95,-29.43 2075.41,-30.5 2084.32,-36.24 2085.95,-29.43"/>
</g>
<!-- Node16&#45;&gt;Node5 -->
<g id="edge22" class="edge">
<title>Node16&#45;&gt;Node5</title>
<path fill="none" stroke="midnightblue" d="M2523.98,-148.04C2525.15,-172.67 2510.58,-244.16 2466.1,-277 2413.88,-315.55 2215.88,-324.7 2130.01,-326.85"/>
<polygon fill="midnightblue" stroke="midnightblue" points="2129.79,-323.36 2119.87,-327.09 2129.95,-330.35 2129.79,-323.36"/>
</g>
<!-- Node16&#45;&gt;Node17 -->
<g id="edge18" class="edge">
<title>Node16&#45;&gt;Node17</title>
<path fill="none" stroke="midnightblue" d="M2486.85,-128.95C2476.98,-126.73 2466.16,-124.54 2456.1,-123 2276.55,-95.57 2060.42,-83.84 1966.94,-79.79"/>
<polygon fill="midnightblue" stroke="midnightblue" points="1966.83,-76.29 1956.69,-79.36 1966.54,-83.28 1966.83,-76.29"/>
</g>
<!-- Node17&#45;&gt;Node3 -->
<g id="edge20" class="edge">
<title>Node17&#45;&gt;Node3</title>
<path fill="none" stroke="midnightblue" d="M1934,-67.48C1947.38,-59.27 1968.1,-46.56 1985.5,-35.88"/>
<polygon fill="midnightblue" stroke="midnightblue" points="1987.54,-38.74 1994.24,-30.52 1983.88,-32.77 1987.54,-38.74"/>
</g>
<!-- Node17&#45;&gt;Node7 -->
<g id="edge19" class="edge">
<title>Node17&#45;&gt;Node7</title>
<path fill="none" stroke="midnightblue" d="M1956.92,-71.72C2049.84,-60.92 2293.34,-32.63 2390.85,-21.29"/>
<polygon fill="midnightblue" stroke="midnightblue" points="2391.38,-24.76 2400.91,-20.12 2390.58,-17.8 2391.38,-24.76"/>
</g>
<!-- Node18 -->
<g id="node18" class="node">
<title>Node18</title>
<g id="a_node18"><a xlink:title=" ">
<polygon fill="white" stroke="#bfbfbf" points="1888.1,-6 1888.1,-25 1930.1,-25 1930.1,-6 1888.1,-6"/>
<text text-anchor="middle" x="1909.1" y="-13" font-family="Helvetica,sans-Serif" font-size="10.00">array</text>
</a>
</g>
</g>
<!-- Node17&#45;&gt;Node18 -->
<g id="edge21" class="edge">
<title>Node17&#45;&gt;Node18</title>
<path fill="none" stroke="midnightblue" d="M1918.52,-67.48C1916.97,-59.08 1914.55,-45.98 1912.55,-35.16"/>
<polygon fill="midnightblue" stroke="midnightblue" points="1915.93,-34.21 1910.67,-25.01 1909.05,-35.48 1915.93,-34.21"/>
</g>
<!-- Node20 -->
<g id="node20" class="node">
<title>Node20</title>
<g id="a_node20"><a xlink:title=" ">
<polygon fill="white" stroke="#bfbfbf" points="2727.6,-196 2727.6,-215 2840.6,-215 2840.6,-196 2727.6,-196"/>
<text text-anchor="middle" x="2784.1" y="-203" font-family="Helvetica,sans-Serif" font-size="10.00">flutter/fml/logging.h</text>
</a>
</g>
</g>
<!-- Node19&#45;&gt;Node20 -->
<g id="edge25" class="edge">
<title>Node19&#45;&gt;Node20</title>
<path fill="none" stroke="midnightblue" d="M2745.55,-257.48C2752.3,-248.55 2763.07,-234.31 2771.51,-223.14"/>
<polygon fill="midnightblue" stroke="midnightblue" points="2774.42,-225.1 2777.66,-215.01 2768.84,-220.87 2774.42,-225.1"/>
</g>
<!-- Node21&#45;&gt;Node3 -->
<g id="edge29" class="edge">
<title>Node21&#45;&gt;Node3</title>
<path fill="none" stroke="midnightblue" d="M1947.16,-195.88C1958.93,-186.81 1976.43,-171.44 1986.1,-154 2006.1,-117.91 2013.2,-69.71 2015.72,-41.01"/>
<polygon fill="midnightblue" stroke="midnightblue" points="2019.24,-40.92 2016.5,-30.69 2012.26,-40.39 2019.24,-40.92"/>
</g>
<!-- Node21&#45;&gt;Node10 -->
<g id="edge27" class="edge">
<title>Node21&#45;&gt;Node10</title>
<path fill="none" stroke="midnightblue" d="M1904.88,-195.99C1873.83,-186.89 1824.35,-171.41 1783.1,-154 1782.06,-153.56 1781.02,-153.1 1779.96,-152.63"/>
<polygon fill="midnightblue" stroke="midnightblue" points="1781.11,-149.3 1770.59,-148.07 1778.05,-155.59 1781.11,-149.3"/>
</g>
<!-- Node21&#45;&gt;Node14 -->
<g id="edge28" class="edge">
<title>Node21&#45;&gt;Node14</title>
<path fill="none" stroke="midnightblue" d="M1929.03,-195.73C1922.08,-185.7 1910.53,-169.01 1901.81,-156.42"/>
<polygon fill="midnightblue" stroke="midnightblue" points="1904.64,-154.36 1896.07,-148.13 1898.89,-158.34 1904.64,-154.36"/>
</g>
<!-- Node22&#45;&gt;Node3 -->
<g id="edge39" class="edge">
<title>Node22&#45;&gt;Node3</title>
<path fill="none" stroke="midnightblue" d="M673.06,-204.86C511.29,-205.34 52.19,-202.36 7.1,-154 -2.3,-143.92 -2.32,-133.06 7.1,-123 135.69,14.4 664.14,-76.34 852.1,-67 1331.58,-43.18 1456.85,-82.77 1938.29,-30.96"/>
<polygon fill="midnightblue" stroke="midnightblue" points="1938.71,-34.43 1948.28,-29.88 1937.96,-27.47 1938.71,-34.43"/>
</g>
<!-- Node22&#45;&gt;Node10 -->
<g id="edge31" class="edge">
<title>Node22&#45;&gt;Node10</title>
<path fill="none" stroke="midnightblue" d="M785.13,-203.01C982.03,-197.57 1635.17,-177.91 1726.1,-154 1727.82,-153.55 1729.56,-152.99 1731.28,-152.35"/>
<polygon fill="midnightblue" stroke="midnightblue" points="1733.1,-155.37 1740.81,-148.11 1730.25,-148.98 1733.1,-155.37"/>
</g>
<!-- Node22&#45;&gt;Node11 -->
<g id="edge32" class="edge">
<title>Node22&#45;&gt;Node11</title>
<path fill="none" stroke="midnightblue" d="M785.41,-202.84C989.77,-196.69 1685.37,-174.44 1783.1,-154 1786.18,-153.36 1789.34,-152.5 1792.45,-151.52"/>
<polygon fill="midnightblue" stroke="midnightblue" points="1793.87,-154.73 1802.12,-148.09 1791.53,-148.13 1793.87,-154.73"/>
</g>
<!-- Node22&#45;&gt;Node14 -->
<g id="edge33" class="edge">
<title>Node22&#45;&gt;Node14</title>
<path fill="none" stroke="midnightblue" d="M785.23,-202.6C1006.19,-195.05 1806.54,-166.92 1859.1,-154 1861.09,-153.51 1863.11,-152.89 1865.11,-152.18"/>
<polygon fill="midnightblue" stroke="midnightblue" points="1866.9,-155.22 1874.77,-148.12 1864.19,-148.77 1866.9,-155.22"/>
</g>
<!-- Node22&#45;&gt;Node17 -->
<g id="edge41" class="edge">
<title>Node22&#45;&gt;Node17</title>
<path fill="none" stroke="midnightblue" d="M672.85,-204.81C584.61,-203.95 419.87,-196.53 383.1,-154 374.09,-143.58 373.5,-132.88 383.1,-123 409.73,-95.58 1619.39,-81.2 1873.55,-78.48"/>
<polygon fill="midnightblue" stroke="midnightblue" points="1873.6,-81.98 1883.56,-78.37 1873.53,-74.98 1873.6,-81.98"/>
</g>
<!-- Node23 -->
<g id="node23" class="node">
<title>Node23</title>
<g id="a_node23"><a xlink:title=" ">
<polygon fill="white" stroke="#bfbfbf" points="16.1,-123.5 16.1,-153.5 140.1,-153.5 140.1,-123.5 16.1,-123.5"/>
<text text-anchor="start" x="24.1" y="-141.5" font-family="Helvetica,sans-Serif" font-size="10.00">flutter/basic_message</text>
<text text-anchor="middle" x="78.1" y="-130.5" font-family="Helvetica,sans-Serif" font-size="10.00">_channel.h</text>
</a>
</g>
</g>
<!-- Node22&#45;&gt;Node23 -->
<g id="edge34" class="edge">
<title>Node22&#45;&gt;Node23</title>
<path fill="none" stroke="midnightblue" d="M672.86,-201.75C570.7,-196.29 347.71,-182.21 150.34,-154.07"/>
<polygon fill="midnightblue" stroke="midnightblue" points="150.76,-150.6 140.37,-152.64 149.76,-157.53 150.76,-150.6"/>
</g>
<!-- Node24 -->
<g id="node24" class="node">
<title>Node24</title>
<g id="a_node24"><a xlink:title=" ">
<polygon fill="white" stroke="#bfbfbf" points="560.6,-129 560.6,-148 707.6,-148 707.6,-129 560.6,-129"/>
<text text-anchor="middle" x="634.1" y="-136" font-family="Helvetica,sans-Serif" font-size="10.00">flutter/binary_messenger.h</text>
</a>
</g>
</g>
<!-- Node22&#45;&gt;Node24 -->
<g id="edge35" class="edge">
<title>Node22&#45;&gt;Node24</title>
<path fill="none" stroke="midnightblue" d="M708.48,-190.4C692.7,-179.6 671.01,-164.76 655.13,-153.89"/>
<polygon fill="midnightblue" stroke="midnightblue" points="656.76,-150.77 646.53,-148.01 652.81,-156.54 656.76,-150.77"/>
</g>
<!-- Node25 -->
<g id="node25" class="node">
<title>Node25</title>
<g id="a_node25"><a xlink:title=" ">
<polygon fill="white" stroke="#bfbfbf" points="158.1,-123.5 158.1,-153.5 336.1,-153.5 336.1,-123.5 158.1,-123.5"/>
<text text-anchor="start" x="166.1" y="-141.5" font-family="Helvetica,sans-Serif" font-size="10.00">flutter/shell/platform</text>
<text text-anchor="middle" x="247.1" y="-130.5" font-family="Helvetica,sans-Serif" font-size="10.00">/common/json_message_codec.h</text>
</a>
</g>
</g>
<!-- Node22&#45;&gt;Node25 -->
<g id="edge36" class="edge">
<title>Node22&#45;&gt;Node25</title>
<path fill="none" stroke="midnightblue" d="M672.89,-197.14C598.88,-187.42 464.69,-169.7 350.1,-154 348.81,-153.82 347.52,-153.65 346.22,-153.47"/>
<polygon fill="midnightblue" stroke="midnightblue" points="346.52,-149.98 336.14,-152.08 345.57,-156.91 346.52,-149.98"/>
</g>
<!-- Node26 -->
<g id="node26" class="node">
<title>Node26</title>
<g id="a_node26"><a xlink:title=" ">
<polygon fill="white" stroke="#bfbfbf" points="1604.6,-129 1604.6,-148 1717.6,-148 1717.6,-129 1604.6,-129"/>
<text text-anchor="middle" x="1661.1" y="-136" font-family="Helvetica,sans-Serif" font-size="10.00">flutter/fml/macros.h</text>
</a>
</g>
</g>
<!-- Node22&#45;&gt;Node26 -->
<g id="edge37" class="edge">
<title>Node22&#45;&gt;Node26</title>
<path fill="none" stroke="midnightblue" d="M785.12,-204.29C923.35,-203.11 1291.5,-195.93 1595.1,-154 1602.29,-153.01 1609.86,-151.65 1617.21,-150.15"/>
<polygon fill="midnightblue" stroke="midnightblue" points="1617.98,-153.57 1627.03,-148.06 1616.52,-146.72 1617.98,-153.57"/>
</g>
<!-- Node27 -->
<g id="node27" class="node">
<title>Node27</title>
<g id="a_node27"><a xlink:title=" ">
<polygon fill="white" stroke="#bfbfbf" points="764.1,-129 764.1,-148 886.1,-148 886.1,-129 764.1,-129"/>
<text text-anchor="middle" x="825.1" y="-136" font-family="Helvetica,sans-Serif" font-size="10.00">rapidjson/document.h</text>
</a>
</g>
</g>
<!-- Node22&#45;&gt;Node27 -->
<g id="edge38" class="edge">
<title>Node22&#45;&gt;Node27</title>
<path fill="none" stroke="midnightblue" d="M749.93,-190.4C765.88,-179.6 787.8,-164.76 803.85,-153.89"/>
<polygon fill="midnightblue" stroke="midnightblue" points="806.22,-156.51 812.53,-148.01 802.29,-150.72 806.22,-156.51"/>
</g>
<!-- Node28 -->
<g id="node28" class="node">
<title>Node28</title>
<g id="a_node28"><a xlink:title=" ">
<polygon fill="white" stroke="#bfbfbf" points="392.1,-129 392.1,-148 542.1,-148 542.1,-129 392.1,-129"/>
<text text-anchor="middle" x="467.1" y="-136" font-family="Helvetica,sans-Serif" font-size="10.00">xkbcommon/xkbcommon.h</text>
</a>
</g>
</g>
<!-- Node22&#45;&gt;Node28 -->
<g id="edge40" class="edge">
<title>Node22&#45;&gt;Node28</title>
<path fill="none" stroke="midnightblue" d="M672.89,-190.56C624.63,-178.58 555.99,-161.55 511.5,-150.52"/>
<polygon fill="midnightblue" stroke="midnightblue" points="512.11,-147.06 501.56,-148.05 510.43,-153.86 512.11,-147.06"/>
</g>
<!-- Node29&#45;&gt;Node3 -->
<g id="edge53" class="edge">
<title>Node29&#45;&gt;Node3</title>
<path fill="none" stroke="midnightblue" d="M1237.65,-203.44C1107.58,-200.36 787.17,-189.23 755.1,-154 745.82,-143.81 745.74,-133.11 755.1,-123 842.79,-28.23 1767.27,-47.3 1938.11,-30.84"/>
<polygon fill="midnightblue" stroke="midnightblue" points="1938.71,-34.3 1948.26,-29.71 1937.93,-27.34 1938.71,-34.3"/>
</g>
<!-- Node29&#45;&gt;Node10 -->
<g id="edge43" class="edge">
<title>Node29&#45;&gt;Node10</title>
<path fill="none" stroke="midnightblue" d="M1346.42,-204.18C1429.8,-202.35 1593.61,-193.5 1726.1,-154 1727.77,-153.5 1729.46,-152.91 1731.14,-152.26"/>
<polygon fill="midnightblue" stroke="midnightblue" points="1732.78,-155.36 1740.45,-148.06 1729.9,-148.98 1732.78,-155.36"/>
</g>
<!-- Node29&#45;&gt;Node11 -->
<g id="edge44" class="edge">
<title>Node29&#45;&gt;Node11</title>
<path fill="none" stroke="midnightblue" d="M1346.27,-203.54C1437.58,-200.91 1627.41,-191.03 1783.1,-154 1786.09,-153.29 1789.17,-152.4 1792.21,-151.41"/>
<polygon fill="midnightblue" stroke="midnightblue" points="1793.44,-154.69 1801.68,-148.03 1791.09,-148.1 1793.44,-154.69"/>
</g>
<!-- Node29&#45;&gt;Node14 -->
<g id="edge45" class="edge">
<title>Node29&#45;&gt;Node14</title>
<path fill="none" stroke="midnightblue" d="M1346.54,-202.06C1469.08,-196.19 1763.32,-179.81 1859.1,-154 1861.03,-153.48 1863,-152.84 1864.95,-152.13"/>
<polygon fill="midnightblue" stroke="midnightblue" points="1866.56,-155.25 1874.41,-148.13 1863.84,-148.8 1866.56,-155.25"/>
</g>
<!-- Node29&#45;&gt;Node17 -->
<g id="edge55" class="edge">
<title>Node29&#45;&gt;Node17</title>
<path fill="none" stroke="midnightblue" d="M1237.78,-205.16C1147.33,-204.96 971.91,-198.65 933.1,-154 924.06,-143.6 923.58,-132.96 933.1,-123 965.93,-88.63 1681.95,-80.04 1873.39,-78.36"/>
<polygon fill="midnightblue" stroke="midnightblue" points="1873.44,-81.86 1883.41,-78.27 1873.38,-74.86 1873.44,-81.86"/>
</g>
<!-- Node29&#45;&gt;Node24 -->
<g id="edge46" class="edge">
<title>Node29&#45;&gt;Node24</title>
<path fill="none" stroke="midnightblue" d="M1237.72,-201.05C1136.16,-194.29 910.84,-177.88 722.1,-154 712.3,-152.76 701.93,-151.24 691.88,-149.65"/>
<polygon fill="midnightblue" stroke="midnightblue" points="692.39,-146.19 681.96,-148.05 691.27,-153.1 692.39,-146.19"/>
</g>
<!-- Node29&#45;&gt;Node26 -->
<g id="edge49" class="edge">
<title>Node29&#45;&gt;Node26</title>
<path fill="none" stroke="midnightblue" d="M1346.16,-196.34C1406.88,-186.98 1508.31,-170.76 1595.1,-154 1601.22,-152.82 1607.65,-151.5 1613.99,-150.16"/>
<polygon fill="midnightblue" stroke="midnightblue" points="1614.78,-153.57 1623.82,-148.04 1613.31,-146.72 1614.78,-153.57"/>
</g>
<!-- Node29&#45;&gt;Node27 -->
<g id="edge52" class="edge">
<title>Node29&#45;&gt;Node27</title>
<path fill="none" stroke="midnightblue" d="M1238.05,-198.63C1162.3,-190.14 1020.35,-173.35 900.1,-154 892.46,-152.77 884.4,-151.35 876.52,-149.88"/>
<polygon fill="midnightblue" stroke="midnightblue" points="877.15,-146.44 866.67,-148.02 875.84,-153.32 877.15,-146.44"/>
</g>
<!-- Node29&#45;&gt;Node28 -->
<g id="edge54" class="edge">
<title>Node29&#45;&gt;Node28</title>
<path fill="none" stroke="midnightblue" d="M1237.99,-202.72C1115.39,-198.27 807.15,-184.74 551.1,-154 541.5,-152.85 531.33,-151.34 521.51,-149.73"/>
<polygon fill="midnightblue" stroke="midnightblue" points="521.88,-146.25 511.44,-148.03 520.72,-153.15 521.88,-146.25"/>
</g>
<!-- Node30 -->
<g id="node30" class="node">
<title>Node30</title>
<g id="a_node30"><a xlink:title=" ">
<polygon fill="white" stroke="#bfbfbf" points="1310.6,-129 1310.6,-148 1449.6,-148 1449.6,-129 1310.6,-129"/>
<text text-anchor="middle" x="1380.1" y="-136" font-family="Helvetica,sans-Serif" font-size="10.00">flutter/method_channel.h</text>
</a>
</g>
</g>
<!-- Node29&#45;&gt;Node30 -->
<g id="edge47" class="edge">
<title>Node29&#45;&gt;Node30</title>
<path fill="none" stroke="midnightblue" d="M1311.19,-190.4C1325.68,-179.7 1345.53,-165.03 1360.21,-154.19"/>
<polygon fill="midnightblue" stroke="midnightblue" points="1362.62,-156.76 1368.58,-148.01 1358.46,-151.13 1362.62,-156.76"/>
</g>
<!-- Node31 -->
<g id="node31" class="node">
<title>Node31</title>
<g id="a_node31"><a xlink:title=" ">
<polygon fill="white" stroke="#bfbfbf" points="1467.6,-123.5 1467.6,-153.5 1586.6,-153.5 1586.6,-123.5 1467.6,-123.5"/>
<text text-anchor="start" x="1475.6" y="-141.5" font-family="Helvetica,sans-Serif" font-size="10.00">flutter/method_result</text>
<text text-anchor="middle" x="1527.1" y="-130.5" font-family="Helvetica,sans-Serif" font-size="10.00">_functions.h</text>
</a>
</g>
</g>
<!-- Node29&#45;&gt;Node31 -->
<g id="edge48" class="edge">
<title>Node29&#45;&gt;Node31</title>
<path fill="none" stroke="midnightblue" d="M1342.8,-190.48C1378.97,-180.47 1427.78,-166.97 1466.08,-156.38"/>
<polygon fill="midnightblue" stroke="midnightblue" points="1467.38,-159.65 1476.08,-153.61 1465.51,-152.9 1467.38,-159.65"/>
</g>
<!-- Node32 -->
<g id="node32" class="node">
<title>Node32</title>
<g id="a_node32"><a xlink:title=" ">
<polygon fill="white" stroke="#bfbfbf" points="942.6,-123.5 942.6,-153.5 1113.6,-153.5 1113.6,-123.5 942.6,-123.5"/>
<text text-anchor="start" x="950.6" y="-141.5" font-family="Helvetica,sans-Serif" font-size="10.00">flutter/shell/platform</text>
<text text-anchor="middle" x="1028.1" y="-130.5" font-family="Helvetica,sans-Serif" font-size="10.00">/common/json_method_codec.h</text>
</a>
</g>
</g>
<!-- Node29&#45;&gt;Node32 -->
<g id="edge50" class="edge">
<title>Node29&#45;&gt;Node32</title>
<path fill="none" stroke="midnightblue" d="M1238.04,-191.19C1196.66,-181 1139.38,-166.9 1095.1,-156"/>
<polygon fill="midnightblue" stroke="midnightblue" points="1095.83,-152.57 1085.28,-153.58 1094.16,-159.37 1095.83,-152.57"/>
</g>
<!-- Node33 -->
<g id="node33" class="node">
<title>Node33</title>
<g id="a_node33"><a xlink:title=" ">
<polygon fill="white" stroke="#bfbfbf" points="1132.1,-123.5 1132.1,-153.5 1292.1,-153.5 1292.1,-123.5 1132.1,-123.5"/>
<text text-anchor="start" x="1140.1" y="-141.5" font-family="Helvetica,sans-Serif" font-size="10.00">flutter/shell/platform</text>
<text text-anchor="middle" x="1212.1" y="-130.5" font-family="Helvetica,sans-Serif" font-size="10.00">/common/text_input_model.h</text>
</a>
</g>
</g>
<!-- Node29&#45;&gt;Node33 -->
<g id="edge51" class="edge">
<title>Node29&#45;&gt;Node33</title>
<path fill="none" stroke="midnightblue" d="M1274.74,-190.4C1263.84,-181.54 1249.59,-169.96 1237.43,-160.09"/>
<polygon fill="midnightblue" stroke="midnightblue" points="1239.39,-157.17 1229.42,-153.58 1234.98,-162.6 1239.39,-157.17"/>
</g>
<!-- Node34&#45;&gt;Node10 -->
<g id="edge57" class="edge">
<title>Node34&#45;&gt;Node10</title>
<path fill="none" stroke="midnightblue" d="M1770,-257.31C1767.43,-236.99 1760.99,-186.05 1757.47,-158.28"/>
<polygon fill="midnightblue" stroke="midnightblue" points="1760.93,-157.74 1756.21,-148.26 1753.99,-158.62 1760.93,-157.74"/>
</g>
<!-- Node34&#45;&gt;Node11 -->
<g id="edge58" class="edge">
<title>Node34&#45;&gt;Node11</title>
<path fill="none" stroke="midnightblue" d="M1774.53,-257.31C1782.6,-236.9 1802.88,-185.6 1813.82,-157.91"/>
<polygon fill="midnightblue" stroke="midnightblue" points="1817.22,-158.84 1817.64,-148.26 1810.71,-156.27 1817.22,-158.84"/>
</g>
<!-- Node34&#45;&gt;Node26 -->
<g id="edge64" class="edge">
<title>Node34&#45;&gt;Node26</title>
<path fill="none" stroke="midnightblue" d="M1721.62,-257.47C1668.6,-247.83 1590.83,-232.05 1582.1,-221 1573.56,-210.19 1575.48,-202.08 1582.1,-190 1591.57,-172.69 1609.79,-160.46 1626.34,-152.36"/>
<polygon fill="midnightblue" stroke="midnightblue" points="1628.15,-155.39 1635.81,-148.07 1625.26,-149.01 1628.15,-155.39"/>
</g>
<!-- Node35 -->
<g id="node35" class="node">
<title>Node35</title>
<g id="a_node35"><a xlink:href="configuration_8h.html" target="_top" xlink:title=" ">
<polygon fill="white" stroke="black" points="1591.1,-196 1591.1,-215 1747.1,-215 1747.1,-196 1591.1,-196"/>
<text text-anchor="middle" x="1669.1" y="-203" font-family="Helvetica,sans-Serif" font-size="10.00">configuration/configuration.h</text>
</a>
</g>
</g>
<!-- Node34&#45;&gt;Node35 -->
<g id="edge59" class="edge">
<title>Node34&#45;&gt;Node35</title>
<path fill="none" stroke="midnightblue" d="M1756.48,-257.48C1739.74,-247.71 1712.09,-231.58 1692.38,-220.08"/>
<polygon fill="midnightblue" stroke="midnightblue" points="1694.09,-217.02 1683.68,-215.01 1690.56,-223.07 1694.09,-217.02"/>
</g>
<!-- Node36 -->
<g id="node36" class="node">
<title>Node36</title>
<g id="a_node36"><a xlink:href="window_8h.html" target="_top" xlink:title=" ">
<polygon fill="white" stroke="black" points="2085.6,-196 2085.6,-215 2192.6,-215 2192.6,-196 2085.6,-196"/>
<text text-anchor="middle" x="2139.1" y="-203" font-family="Helvetica,sans-Serif" font-size="10.00">wayland/window.h</text>
</a>
</g>
</g>
<!-- Node34&#45;&gt;Node36 -->
<g id="edge65" class="edge">
<title>Node34&#45;&gt;Node36</title>
<path fill="none" stroke="midnightblue" d="M1823.82,-257.48C1890.5,-246.69 2005.17,-228.15 2076.3,-216.65"/>
<polygon fill="midnightblue" stroke="midnightblue" points="2077.16,-220.06 2086.47,-215.01 2076.04,-213.15 2077.16,-220.06"/>
</g>
<!-- Node35&#45;&gt;Node14 -->
<g id="edge60" class="edge">
<title>Node35&#45;&gt;Node14</title>
<path fill="none" stroke="midnightblue" d="M1709.4,-195.98C1748.3,-187.25 1808.58,-172.36 1859.1,-154 1860.71,-153.41 1862.35,-152.78 1864,-152.1"/>
<polygon fill="midnightblue" stroke="midnightblue" points="1865.52,-155.26 1873.27,-148.03 1862.71,-148.85 1865.52,-155.26"/>
</g>
<!-- Node35&#45;&gt;Node15 -->
<g id="edge61" class="edge">
<title>Node35&#45;&gt;Node15</title>
<path fill="none" stroke="midnightblue" d="M1730.62,-195.98C1782.23,-187.94 1857.49,-174.09 1921.1,-154 1923.02,-153.39 1924.99,-152.71 1926.95,-151.97"/>
<polygon fill="midnightblue" stroke="midnightblue" points="1928.63,-155.07 1936.56,-148.05 1925.98,-148.59 1928.63,-155.07"/>
</g>
<!-- Node35&#45;&gt;Node26 -->
<g id="edge62" class="edge">
<title>Node35&#45;&gt;Node26</title>
<path fill="none" stroke="midnightblue" d="M1668.02,-195.73C1666.84,-186.18 1664.93,-170.62 1663.41,-158.28"/>
<polygon fill="midnightblue" stroke="midnightblue" points="1666.86,-157.62 1662.16,-148.13 1659.91,-158.48 1666.86,-157.62"/>
</g>
<!-- Node35&#45;&gt;Node27 -->
<g id="edge63" class="edge">
<title>Node35&#45;&gt;Node27</title>
<path fill="none" stroke="midnightblue" d="M1591.07,-200.81C1456.54,-194.09 1172.34,-178.24 933.1,-154 920.2,-152.69 906.47,-151.05 893.27,-149.34"/>
<polygon fill="midnightblue" stroke="midnightblue" points="893.68,-145.86 883.31,-148.02 892.76,-152.8 893.68,-145.86"/>
</g>
<!-- Node36&#45;&gt;Node11 -->
<g id="edge66" class="edge">
<title>Node36&#45;&gt;Node11</title>
<path fill="none" stroke="midnightblue" d="M2085.54,-197.86C2028.69,-190.12 1936.54,-175.56 1859.1,-154 1856.45,-153.26 1853.72,-152.41 1851.01,-151.5"/>
<polygon fill="midnightblue" stroke="midnightblue" points="1851.97,-148.13 1841.37,-148.04 1849.6,-154.72 1851.97,-148.13"/>
</g>
<!-- Node36&#45;&gt;Node14 -->
<g id="edge67" class="edge">
<title>Node36&#45;&gt;Node14</title>
<path fill="none" stroke="midnightblue" d="M2088.91,-195.98C2044.18,-187.65 1977.28,-173.41 1921.1,-154 1919.48,-153.44 1917.83,-152.82 1916.17,-152.17"/>
<polygon fill="midnightblue" stroke="midnightblue" points="1917.45,-148.91 1906.89,-148.13 1914.67,-155.33 1917.45,-148.91"/>
</g>
<!-- Node36&#45;&gt;Node16 -->
<g id="edge71" class="edge">
<title>Node36&#45;&gt;Node16</title>
<path fill="none" stroke="midnightblue" d="M2192.84,-196.97C2256.03,-187.87 2364,-171.59 2456.1,-154 2462.21,-152.83 2468.62,-151.52 2474.94,-150.16"/>
<polygon fill="midnightblue" stroke="midnightblue" points="2475.72,-153.58 2484.74,-148.02 2474.22,-146.74 2475.72,-153.58"/>
</g>
<!-- Node36&#45;&gt;Node17 -->
<g id="edge70" class="edge">
<title>Node36&#45;&gt;Node17</title>
<path fill="none" stroke="midnightblue" d="M2124.05,-195.81C2086.6,-174.18 1989.04,-117.82 1943.79,-91.68"/>
<polygon fill="midnightblue" stroke="midnightblue" points="1945.38,-88.56 1934.97,-86.59 1941.87,-94.62 1945.38,-88.56"/>
</g>
<!-- Node37 -->
<g id="node37" class="node">
<title>Node37</title>
<g id="a_node37"><a xlink:title=" ">
<polygon fill="white" stroke="#bfbfbf" points="2072.1,-129 2072.1,-148 2124.1,-148 2124.1,-129 2072.1,-129"/>
<text text-anchor="middle" x="2098.1" y="-136" font-family="Helvetica,sans-Serif" font-size="10.00">cassert</text>
</a>
</g>
</g>
<!-- Node36&#45;&gt;Node37 -->
<g id="edge68" class="edge">
<title>Node36&#45;&gt;Node37</title>
<path fill="none" stroke="midnightblue" d="M2133.57,-195.73C2127.3,-185.79 2116.92,-169.34 2109,-156.79"/>
<polygon fill="midnightblue" stroke="midnightblue" points="2111.84,-154.72 2103.54,-148.13 2105.91,-158.45 2111.84,-154.72"/>
</g>
<!-- Node38 -->
<g id="node38" class="node">
<title>Node38</title>
<g id="a_node38"><a xlink:title=" ">
<polygon fill="white" stroke="#bfbfbf" points="2142.1,-129 2142.1,-148 2284.1,-148 2284.1,-129 2142.1,-129"/>
<text text-anchor="middle" x="2213.1" y="-136" font-family="Helvetica,sans-Serif" font-size="10.00">agl&#45;shell&#45;client&#45;protocol.h</text>
</a>
</g>
</g>
<!-- Node36&#45;&gt;Node38 -->
<g id="edge69" class="edge">
<title>Node36&#45;&gt;Node38</title>
<path fill="none" stroke="midnightblue" d="M2149.08,-195.73C2160.95,-185.31 2180.98,-167.71 2195.48,-154.97"/>
<polygon fill="midnightblue" stroke="midnightblue" points="2198.07,-157.36 2203.28,-148.13 2193.45,-152.1 2198.07,-157.36"/>
</g>
<!-- Node39 -->
<g id="node39" class="node">
<title>Node39</title>
<g id="a_node39"><a xlink:title=" ">
<polygon fill="white" stroke="#bfbfbf" points="2302.6,-129 2302.6,-148 2447.6,-148 2447.6,-129 2302.6,-129"/>
<text text-anchor="middle" x="2375.1" y="-136" font-family="Helvetica,sans-Serif" font-size="10.00">xdg&#45;shell&#45;client&#45;protocol.h</text>
</a>
</g>
</g>
<!-- Node36&#45;&gt;Node39 -->
<g id="edge72" class="edge">
<title>Node36&#45;&gt;Node39</title>
<path fill="none" stroke="midnightblue" d="M2170.44,-195.87C2212.61,-184.25 2287.68,-163.58 2334.24,-150.75"/>
<polygon fill="midnightblue" stroke="midnightblue" points="2335.29,-154.09 2344.01,-148.06 2333.43,-147.34 2335.29,-154.09"/>
</g>
</g>
</svg>
