<?xml version="1.0" encoding="UTF-8" standalone="no"?>
<!DOCTYPE svg PUBLIC "-//W3C//DTD SVG 1.1//EN"
 "http://www.w3.org/Graphics/SVG/1.1/DTD/svg11.dtd">
<!-- Generated by graphviz version 5.0.0 (0)
 -->
<!-- Title: /mnt/raid10/stargate/ivi&#45;homescreen/shell/app.h Pages: 1 -->
<svg width="3064pt" height="467pt"
 viewBox="0.00 0.00 3063.50 467.00" xmlns="http://www.w3.org/2000/svg" xmlns:xlink="http://www.w3.org/1999/xlink">
<g id="graph0" class="graph" transform="scale(1 1) rotate(0) translate(4 463)">
<title>/mnt/raid10/stargate/ivi&#45;homescreen/shell/app.h</title>
<!-- Node1 -->
<g id="node1" class="node">
<title>Node1</title>
<g id="a_node1"><a xlink:title=" ">
<polygon fill="#999999" stroke="#666666" points="1124,-459 988,-459 988,-429 1124,-429 1124,-459"/>
<text text-anchor="start" x="996" y="-447" font-family="Helvetica,sans-Serif" font-size="10.00">/mnt/raid10/stargate</text>
<text text-anchor="middle" x="1056" y="-436" font-family="Helvetica,sans-Serif" font-size="10.00">/ivi&#45;homescreen/shell/app.h</text>
</a>
</g>
</g>
<!-- Node2 -->
<g id="node2" class="node">
<title>Node2</title>
<g id="a_node2"><a xlink:title=" ">
<polygon fill="#e0e0e0" stroke="#999999" points="258,-24.5 198,-24.5 198,-5.5 258,-5.5 258,-24.5"/>
<text text-anchor="middle" x="228" y="-12.5" font-family="Helvetica,sans-Serif" font-size="10.00">EGL/egl.h</text>
</a>
</g>
</g>
<!-- Node1&#45;&gt;Node2 -->
<g id="edge1" class="edge">
<title>Node1&#45;&gt;Node2</title>
<path fill="none" stroke="#63b8ff" d="M987.64,-441.35C783.56,-436.15 187.64,-418.9 104,-393 52.27,-376.98 0,-383.66 0,-329.5 0,-329.5 0,-329.5 0,-146 0,-60.58 122.27,-30.55 187.73,-20.6"/>
<polygon fill="#63b8ff" stroke="#63b8ff" points="188.32,-24.05 197.72,-19.17 187.33,-17.12 188.32,-24.05"/>
</g>
<!-- Node3 -->
<g id="node3" class="node">
<title>Node3</title>
<g id="a_node3"><a xlink:title=" ">
<polygon fill="#e0e0e0" stroke="#999999" points="1331.5,-30 1210.5,-30 1210.5,0 1331.5,0 1331.5,-30"/>
<text text-anchor="start" x="1218.5" y="-18" font-family="Helvetica,sans-Serif" font-size="10.00">shell/platform/embedder</text>
<text text-anchor="middle" x="1271" y="-7" font-family="Helvetica,sans-Serif" font-size="10.00">/embedder.h</text>
</a>
</g>
</g>
<!-- Node1&#45;&gt;Node3 -->
<g id="edge2" class="edge">
<title>Node1&#45;&gt;Node3</title>
<path fill="none" stroke="#63b8ff" d="M1124.17,-442.53C1461.93,-439.77 2940,-422.38 2940,-329.5 2940,-329.5 2940,-329.5 2940,-146 2940,-107.71 2939.38,-87.95 2908,-66 2875.46,-43.24 1652.41,-22.12 1342.04,-17.11"/>
<polygon fill="#63b8ff" stroke="#63b8ff" points="1341.87,-13.61 1331.82,-16.95 1341.76,-20.61 1341.87,-13.61"/>
</g>
<!-- Node4 -->
<g id="node4" class="node">
<title>Node4</title>
<g id="a_node4"><a xlink:title=" ">
<polygon fill="#e0e0e0" stroke="#999999" points="3055.5,-393 2968.5,-393 2968.5,-374 3055.5,-374 3055.5,-393"/>
<text text-anchor="middle" x="3012" y="-381" font-family="Helvetica,sans-Serif" font-size="10.00">wayland&#45;client.h</text>
</a>
</g>
</g>
<!-- Node1&#45;&gt;Node4 -->
<g id="edge3" class="edge">
<title>Node1&#45;&gt;Node4</title>
<path fill="none" stroke="#63b8ff" d="M1124.23,-442.29C1419.38,-439.07 2587.82,-424.54 2954,-393 2955.46,-392.87 2956.93,-392.74 2958.42,-392.59"/>
<polygon fill="#63b8ff" stroke="#63b8ff" points="2958.82,-396.06 2968.36,-391.46 2958.03,-389.11 2958.82,-396.06"/>
</g>
<!-- Node5 -->
<g id="node5" class="node">
<title>Node5</title>
<g id="a_node5"><a xlink:title=" ">
<polygon fill="#e0e0e0" stroke="#999999" points="170,-90.5 118,-90.5 118,-71.5 170,-71.5 170,-90.5"/>
<text text-anchor="middle" x="144" y="-78.5" font-family="Helvetica,sans-Serif" font-size="10.00">memory</text>
</a>
</g>
</g>
<!-- Node1&#45;&gt;Node5 -->
<g id="edge4" class="edge">
<title>Node1&#45;&gt;Node5</title>
<path fill="none" stroke="#63b8ff" d="M987.63,-442.57C759.38,-440.24 38,-425.31 38,-329.5 38,-329.5 38,-329.5 38,-206.5 38,-156.38 88.43,-116.17 119.72,-96.04"/>
<polygon fill="#63b8ff" stroke="#63b8ff" points="121.71,-98.93 128.36,-90.68 118.02,-92.98 121.71,-98.93"/>
</g>
<!-- Node6 -->
<g id="node6" class="node">
<title>Node6</title>
<g id="a_node6"><a xlink:href="configuration_8h.html" target="_top" xlink:title=" ">
<polygon fill="white" stroke="#666666" points="1308.5,-217 1169.5,-217 1169.5,-198 1308.5,-198 1308.5,-217"/>
<text text-anchor="middle" x="1239" y="-205" font-family="Helvetica,sans-Serif" font-size="10.00">configuration/configuration.h</text>
</a>
</g>
</g>
<!-- Node1&#45;&gt;Node6 -->
<g id="edge5" class="edge">
<title>Node1&#45;&gt;Node6</title>
<path fill="none" stroke="#63b8ff" d="M1061.76,-428.91C1078.01,-389.69 1124.76,-280.38 1152,-253 1166.1,-238.83 1185.66,-228.27 1202.67,-221.01"/>
<polygon fill="#63b8ff" stroke="#63b8ff" points="1204.36,-224.1 1212.32,-217.11 1201.74,-217.61 1204.36,-224.1"/>
</g>
<!-- Node11 -->
<g id="node11" class="node">
<title>Node11</title>
<g id="a_node11"><a xlink:href="flutter__view_8h.html" target="_top" xlink:title=" ">
<polygon fill="white" stroke="#666666" points="1067,-393 969,-393 969,-374 1067,-374 1067,-393"/>
<text text-anchor="middle" x="1018" y="-381" font-family="Helvetica,sans-Serif" font-size="10.00">view/flutter_view.h</text>
</a>
</g>
</g>
<!-- Node1&#45;&gt;Node11 -->
<g id="edge10" class="edge">
<title>Node1&#45;&gt;Node11</title>
<path fill="none" stroke="#63b8ff" d="M1046.8,-428.84C1041.51,-420.69 1034.82,-410.4 1029.22,-401.78"/>
<polygon fill="#63b8ff" stroke="#63b8ff" points="1032.08,-399.75 1023.69,-393.27 1026.21,-403.56 1032.08,-399.75"/>
</g>
<!-- Node7 -->
<g id="node7" class="node">
<title>Node7</title>
<g id="a_node7"><a xlink:title=" ">
<polygon fill="#e0e0e0" stroke="#999999" points="821.5,-90.5 780.5,-90.5 780.5,-71.5 821.5,-71.5 821.5,-90.5"/>
<text text-anchor="middle" x="801" y="-78.5" font-family="Helvetica,sans-Serif" font-size="10.00">string</text>
</a>
</g>
</g>
<!-- Node6&#45;&gt;Node7 -->
<g id="edge6" class="edge">
<title>Node6&#45;&gt;Node7</title>
<path fill="none" stroke="#63b8ff" d="M1231.45,-197.72C1216.95,-181.53 1183.39,-147.25 1147,-132 1016.23,-77.19 966.22,-135.38 830,-96 828.56,-95.58 827.1,-95.1 825.64,-94.57"/>
<polygon fill="#63b8ff" stroke="#63b8ff" points="826.84,-91.27 816.27,-90.56 824.09,-97.71 826.84,-91.27"/>
</g>
<!-- Node8 -->
<g id="node8" class="node">
<title>Node8</title>
<g id="a_node8"><a xlink:title=" ">
<polygon fill="#e0e0e0" stroke="#999999" points="1473,-156.5 1429,-156.5 1429,-137.5 1473,-137.5 1473,-156.5"/>
<text text-anchor="middle" x="1451" y="-144.5" font-family="Helvetica,sans-Serif" font-size="10.00">vector</text>
</a>
</g>
</g>
<!-- Node6&#45;&gt;Node8 -->
<g id="edge7" class="edge">
<title>Node6&#45;&gt;Node8</title>
<path fill="none" stroke="#63b8ff" d="M1278.54,-197.97C1314.47,-189.88 1368.77,-176.77 1415,-162 1416.87,-161.4 1418.78,-160.76 1420.7,-160.09"/>
<polygon fill="#63b8ff" stroke="#63b8ff" points="1422.04,-163.32 1430.22,-156.58 1419.62,-156.76 1422.04,-163.32"/>
</g>
<!-- Node9 -->
<g id="node9" class="node">
<title>Node9</title>
<g id="a_node9"><a xlink:title=" ">
<polygon fill="#e0e0e0" stroke="#999999" points="940.5,-90.5 839.5,-90.5 839.5,-71.5 940.5,-71.5 940.5,-90.5"/>
<text text-anchor="middle" x="890" y="-78.5" font-family="Helvetica,sans-Serif" font-size="10.00">flutter/fml/macros.h</text>
</a>
</g>
</g>
<!-- Node6&#45;&gt;Node9 -->
<g id="edge8" class="edge">
<title>Node6&#45;&gt;Node9</title>
<path fill="none" stroke="#63b8ff" d="M1240.02,-197.84C1241.34,-182.17 1241.57,-149.13 1223,-132 1178.03,-90.51 1010.2,-106.97 950,-96 944.67,-95.03 939.11,-93.9 933.6,-92.7"/>
<polygon fill="#63b8ff" stroke="#63b8ff" points="934.36,-89.28 923.83,-90.51 932.82,-96.11 934.36,-89.28"/>
</g>
<!-- Node10 -->
<g id="node10" class="node">
<title>Node10</title>
<g id="a_node10"><a xlink:title=" ">
<polygon fill="#e0e0e0" stroke="#999999" points="1868,-90.5 1758,-90.5 1758,-71.5 1868,-71.5 1868,-90.5"/>
<text text-anchor="middle" x="1813" y="-78.5" font-family="Helvetica,sans-Serif" font-size="10.00">rapidjson/document.h</text>
</a>
</g>
</g>
<!-- Node6&#45;&gt;Node10 -->
<g id="edge9" class="edge">
<title>Node6&#45;&gt;Node10</title>
<path fill="none" stroke="#63b8ff" d="M1290.36,-197.95C1339.66,-189.55 1416.13,-175.98 1482,-162 1586.09,-139.91 1707.42,-109.34 1770.31,-93.13"/>
<polygon fill="#63b8ff" stroke="#63b8ff" points="1771.45,-96.45 1780.25,-90.56 1769.69,-89.67 1771.45,-96.45"/>
</g>
<!-- Node11&#45;&gt;Node5 -->
<g id="edge12" class="edge">
<title>Node11&#45;&gt;Node5</title>
<path fill="none" stroke="#63b8ff" d="M968.83,-381.6C822.72,-378.61 392.83,-367.48 256,-338 172.25,-319.96 76,-354.68 76,-269 76,-269 76,-269 76,-206.5 76,-163.26 107.98,-120.77 128.08,-98.34"/>
<polygon fill="#63b8ff" stroke="#63b8ff" points="130.87,-100.48 135.11,-90.77 125.74,-95.72 130.87,-100.48"/>
</g>
<!-- Node11&#45;&gt;Node6 -->
<g id="edge13" class="edge">
<title>Node11&#45;&gt;Node6</title>
<path fill="none" stroke="#63b8ff" d="M1021.14,-373.84C1030.81,-347.65 1060.67,-270 1081,-253 1103,-234.61 1132.13,-223.8 1159.37,-217.45"/>
<polygon fill="#63b8ff" stroke="#63b8ff" points="1160.27,-220.84 1169.3,-215.31 1158.79,-214 1160.27,-220.84"/>
</g>
<!-- Node11&#45;&gt;Node9 -->
<g id="edge14" class="edge">
<title>Node11&#45;&gt;Node9</title>
<path fill="none" stroke="#63b8ff" d="M1019.69,-373.78C1022.15,-361.45 1027.1,-338.28 1033,-319 1042.18,-289.01 1044.16,-281.15 1058,-253 1078.95,-210.38 1101.07,-207.69 1114,-162 1117.63,-149.17 1122.36,-142.39 1114,-132 1067.23,-73.85 1022.78,-112.48 950,-96 945.54,-94.99 940.89,-93.93 936.24,-92.85"/>
<polygon fill="#63b8ff" stroke="#63b8ff" points="936.68,-89.36 926.15,-90.52 935.1,-96.18 936.68,-89.36"/>
</g>
<!-- Node12 -->
<g id="node12" class="node">
<title>Node12</title>
<g id="a_node12"><a xlink:title=" ">
<polygon fill="#e0e0e0" stroke="#999999" points="373.5,-90.5 338.5,-90.5 338.5,-71.5 373.5,-71.5 373.5,-90.5"/>
<text text-anchor="middle" x="356" y="-78.5" font-family="Helvetica,sans-Serif" font-size="10.00">map</text>
</a>
</g>
</g>
<!-- Node11&#45;&gt;Node12 -->
<g id="edge11" class="edge">
<title>Node11&#45;&gt;Node12</title>
<path fill="none" stroke="#63b8ff" d="M968.96,-381.28C785.76,-376.06 152,-352.02 152,-269 152,-269 152,-269 152,-206.5 152,-124.84 272.58,-95.15 328.33,-85.79"/>
<polygon fill="#63b8ff" stroke="#63b8ff" points="328.92,-89.24 338.25,-84.23 327.83,-82.33 328.92,-89.24"/>
</g>
<!-- Node13 -->
<g id="node13" class="node">
<title>Node13</title>
<g id="a_node13"><a xlink:href="window_8h.html" target="_top" xlink:title=" ">
<polygon fill="white" stroke="#666666" points="1406,-338 1310,-338 1310,-319 1406,-319 1406,-338"/>
<text text-anchor="middle" x="1358" y="-326" font-family="Helvetica,sans-Serif" font-size="10.00">wayland/window.h</text>
</a>
</g>
</g>
<!-- Node11&#45;&gt;Node13 -->
<g id="edge15" class="edge">
<title>Node11&#45;&gt;Node13</title>
<path fill="none" stroke="#63b8ff" d="M1067.08,-374.85C1128.61,-365.26 1233.96,-348.83 1299.59,-338.61"/>
<polygon fill="#63b8ff" stroke="#63b8ff" points="1300.42,-342.02 1309.76,-337.02 1299.34,-335.1 1300.42,-342.02"/>
</g>
<!-- Node13&#45;&gt;Node5 -->
<g id="edge16" class="edge">
<title>Node13&#45;&gt;Node5</title>
<path fill="none" stroke="#63b8ff" d="M1309.82,-327.07C1110.85,-324.39 355.22,-304.8 175,-162 156.16,-147.07 148.75,-119.16 145.85,-100.58"/>
<polygon fill="#63b8ff" stroke="#63b8ff" points="149.32,-100.13 144.59,-90.65 142.38,-101.01 149.32,-100.13"/>
</g>
<!-- Node13&#45;&gt;Node7 -->
<g id="edge17" class="edge">
<title>Node13&#45;&gt;Node7</title>
<path fill="none" stroke="#63b8ff" d="M1309.54,-322.91C1255.91,-316.85 1174.1,-304.36 1152,-283 1102.25,-234.9 1165.79,-177.9 1114,-132 1066.39,-89.81 891,-114.06 830,-96 828.56,-95.57 827.1,-95.08 825.65,-94.54"/>
<polygon fill="#63b8ff" stroke="#63b8ff" points="826.85,-91.25 816.28,-90.52 824.08,-97.68 826.85,-91.25"/>
</g>
<!-- Node14 -->
<g id="node14" class="node">
<title>Node14</title>
<g id="a_node14"><a xlink:title=" ">
<polygon fill="#e0e0e0" stroke="#999999" points="1329.5,-277.5 1280.5,-277.5 1280.5,-258.5 1329.5,-258.5 1329.5,-277.5"/>
<text text-anchor="middle" x="1305" y="-265.5" font-family="Helvetica,sans-Serif" font-size="10.00">cassert</text>
</a>
</g>
</g>
<!-- Node13&#45;&gt;Node14 -->
<g id="edge18" class="edge">
<title>Node13&#45;&gt;Node14</title>
<path fill="none" stroke="#63b8ff" d="M1350.18,-318.87C1342.19,-310.05 1329.61,-296.16 1319.74,-285.27"/>
<polygon fill="#63b8ff" stroke="#63b8ff" points="1322.16,-282.73 1312.85,-277.67 1316.97,-287.43 1322.16,-282.73"/>
</g>
<!-- Node15 -->
<g id="node15" class="node">
<title>Node15</title>
<g id="a_node15"><a xlink:title=" ">
<polygon fill="#e0e0e0" stroke="#999999" points="1472.5,-277.5 1347.5,-277.5 1347.5,-258.5 1472.5,-258.5 1472.5,-277.5"/>
<text text-anchor="middle" x="1410" y="-265.5" font-family="Helvetica,sans-Serif" font-size="10.00">agl&#45;shell&#45;client&#45;protocol.h</text>
</a>
</g>
</g>
<!-- Node13&#45;&gt;Node15 -->
<g id="edge19" class="edge">
<title>Node13&#45;&gt;Node15</title>
<path fill="none" stroke="#63b8ff" d="M1365.67,-318.87C1373.51,-310.05 1385.86,-296.16 1395.54,-285.27"/>
<polygon fill="#63b8ff" stroke="#63b8ff" points="1398.27,-287.47 1402.3,-277.67 1393.04,-282.82 1398.27,-287.47"/>
</g>
<!-- Node16 -->
<g id="node16" class="node">
<title>Node16</title>
<g id="a_node16"><a xlink:href="constants_8h.html" target="_top" xlink:title=" ">
<polygon fill="white" stroke="#666666" points="2096,-90.5 2028,-90.5 2028,-71.5 2096,-71.5 2096,-90.5"/>
<text text-anchor="middle" x="2062" y="-78.5" font-family="Helvetica,sans-Serif" font-size="10.00">constants.h</text>
</a>
</g>
</g>
<!-- Node13&#45;&gt;Node16 -->
<g id="edge20" class="edge">
<title>Node13&#45;&gt;Node16</title>
<path fill="none" stroke="#63b8ff" d="M1406.03,-327.93C1519.52,-328.25 1800.97,-324.68 1884,-283 1968.11,-240.78 2030.26,-140.14 2052.78,-99.49"/>
<polygon fill="#63b8ff" stroke="#63b8ff" points="2055.95,-100.97 2057.64,-90.51 2049.8,-97.64 2055.95,-100.97"/>
</g>
<!-- Node18 -->
<g id="node18" class="node">
<title>Node18</title>
<g id="a_node18"><a xlink:href="backend_8h.html" target="_top" xlink:title=" ">
<polygon fill="white" stroke="#666666" points="1262.5,-277.5 1161.5,-277.5 1161.5,-258.5 1262.5,-258.5 1262.5,-277.5"/>
<text text-anchor="middle" x="1212" y="-265.5" font-family="Helvetica,sans-Serif" font-size="10.00">backend/backend.h</text>
</a>
</g>
</g>
<!-- Node13&#45;&gt;Node18 -->
<g id="edge24" class="edge">
<title>Node13&#45;&gt;Node18</title>
<path fill="none" stroke="#63b8ff" d="M1336.77,-318.99C1312.01,-309.07 1270.88,-292.59 1242.65,-281.28"/>
<polygon fill="#63b8ff" stroke="#63b8ff" points="1243.84,-277.99 1233.26,-277.52 1241.24,-284.49 1243.84,-277.99"/>
</g>
<!-- Node45 -->
<g id="node45" class="node">
<title>Node45</title>
<g id="a_node45"><a xlink:title=" ">
<polygon fill="#e0e0e0" stroke="#999999" points="1593,-283 1491,-283 1491,-253 1593,-253 1593,-283"/>
<text text-anchor="start" x="1499" y="-271" font-family="Helvetica,sans-Serif" font-size="10.00">ivi&#45;application&#45;client</text>
<text text-anchor="middle" x="1542" y="-260" font-family="Helvetica,sans-Serif" font-size="10.00">&#45;protocol.h</text>
</a>
</g>
</g>
<!-- Node13&#45;&gt;Node45 -->
<g id="edge82" class="edge">
<title>Node13&#45;&gt;Node45</title>
<path fill="none" stroke="#63b8ff" d="M1384.76,-318.99C1411.7,-310.43 1454.02,-296.97 1487.98,-286.18"/>
<polygon fill="#63b8ff" stroke="#63b8ff" points="1489.29,-289.43 1497.76,-283.06 1487.17,-282.76 1489.29,-289.43"/>
</g>
<!-- Node46 -->
<g id="node46" class="node">
<title>Node46</title>
<g id="a_node46"><a xlink:title=" ">
<polygon fill="#e0e0e0" stroke="#999999" points="1728.5,-277.5 1611.5,-277.5 1611.5,-258.5 1728.5,-258.5 1728.5,-277.5"/>
<text text-anchor="middle" x="1670" y="-265.5" font-family="Helvetica,sans-Serif" font-size="10.00">ivi&#45;wm&#45;client&#45;protocol.h</text>
</a>
</g>
</g>
<!-- Node13&#45;&gt;Node46 -->
<g id="edge83" class="edge">
<title>Node13&#45;&gt;Node46</title>
<path fill="none" stroke="#63b8ff" d="M1406.21,-319.04C1455.47,-310.32 1534.16,-296.17 1602,-283 1607.69,-281.9 1613.63,-280.71 1619.54,-279.52"/>
<polygon fill="#63b8ff" stroke="#63b8ff" points="1620.3,-282.94 1629.4,-277.52 1618.9,-276.08 1620.3,-282.94"/>
</g>
<!-- Node47 -->
<g id="node47" class="node">
<title>Node47</title>
<g id="a_node47"><a xlink:title=" ">
<polygon fill="#e0e0e0" stroke="#999999" points="1875,-277.5 1747,-277.5 1747,-258.5 1875,-258.5 1875,-277.5"/>
<text text-anchor="middle" x="1811" y="-265.5" font-family="Helvetica,sans-Serif" font-size="10.00">xdg&#45;shell&#45;client&#45;protocol.h</text>
</a>
</g>
</g>
<!-- Node13&#45;&gt;Node47 -->
<g id="edge84" class="edge">
<title>Node13&#45;&gt;Node47</title>
<path fill="none" stroke="#63b8ff" d="M1406.01,-322.95C1478.09,-315.88 1618.47,-301.15 1737,-283 1744.11,-281.91 1751.58,-280.64 1758.93,-279.33"/>
<polygon fill="#63b8ff" stroke="#63b8ff" points="1759.62,-282.76 1768.82,-277.51 1758.36,-275.87 1759.62,-282.76"/>
</g>
<!-- Node16&#45;&gt;Node2 -->
<g id="edge21" class="edge">
<title>Node16&#45;&gt;Node2</title>
<path fill="none" stroke="#63b8ff" d="M2039.99,-71.49C2033.34,-69.29 2025.96,-67.2 2019,-66 1841.38,-35.27 517.08,-19.2 268.24,-16.43"/>
<polygon fill="#63b8ff" stroke="#63b8ff" points="268.23,-12.93 258.19,-16.32 268.15,-19.93 268.23,-12.93"/>
</g>
<!-- Node16&#45;&gt;Node3 -->
<g id="edge22" class="edge">
<title>Node16&#45;&gt;Node3</title>
<path fill="none" stroke="#63b8ff" d="M2039.07,-71.37C2032.66,-69.28 2025.63,-67.28 2019,-66 1890.52,-41.19 1502.37,-24.51 1341.76,-18.49"/>
<polygon fill="#63b8ff" stroke="#63b8ff" points="1341.63,-14.98 1331.51,-18.11 1341.37,-21.98 1341.63,-14.98"/>
</g>
<!-- Node17 -->
<g id="node17" class="node">
<title>Node17</title>
<g id="a_node17"><a xlink:title=" ">
<polygon fill="#e0e0e0" stroke="#999999" points="2081,-24.5 2043,-24.5 2043,-5.5 2081,-5.5 2081,-24.5"/>
<text text-anchor="middle" x="2062" y="-12.5" font-family="Helvetica,sans-Serif" font-size="10.00">array</text>
</a>
</g>
</g>
<!-- Node16&#45;&gt;Node17 -->
<g id="edge23" class="edge">
<title>Node16&#45;&gt;Node17</title>
<path fill="none" stroke="#63b8ff" d="M2062,-71.37C2062,-62.16 2062,-47.29 2062,-35.27"/>
<polygon fill="#63b8ff" stroke="#63b8ff" points="2065.5,-34.91 2062,-24.91 2058.5,-34.91 2065.5,-34.91"/>
</g>
<!-- Node18&#45;&gt;Node3 -->
<g id="edge25" class="edge">
<title>Node18&#45;&gt;Node3</title>
<path fill="none" stroke="#63b8ff" d="M1243.97,-258.46C1252.68,-256.39 1262.16,-254.38 1271,-253 1788.94,-172.02 1926.16,-221.49 2447,-162 2644.14,-139.48 3021.11,-208.46 2883,-66 2869.39,-51.96 1651.28,-24.33 1341.85,-17.54"/>
<polygon fill="#63b8ff" stroke="#63b8ff" points="1341.73,-14.03 1331.66,-17.31 1341.58,-21.03 1341.73,-14.03"/>
</g>
<!-- Node18&#45;&gt;Node16 -->
<g id="edge26" class="edge">
<title>Node18&#45;&gt;Node16</title>
<path fill="none" stroke="#63b8ff" d="M1247.22,-258.48C1255.04,-256.64 1263.29,-254.72 1271,-253 1602.51,-178.89 1690.8,-183.6 2019,-96 2021.77,-95.26 2024.63,-94.45 2027.49,-93.59"/>
<polygon fill="#63b8ff" stroke="#63b8ff" points="2028.61,-96.91 2037.12,-90.6 2026.54,-90.23 2028.61,-96.91"/>
</g>
<!-- Node19 -->
<g id="node19" class="node">
<title>Node19</title>
<g id="a_node19"><a xlink:href="engine_8h.html" target="_top" xlink:title=" ">
<polygon fill="white" stroke="#666666" points="877.5,-217 824.5,-217 824.5,-198 877.5,-198 877.5,-217"/>
<text text-anchor="middle" x="851" y="-205" font-family="Helvetica,sans-Serif" font-size="10.00">engine.h</text>
</a>
</g>
</g>
<!-- Node18&#45;&gt;Node19 -->
<g id="edge27" class="edge">
<title>Node18&#45;&gt;Node19</title>
<path fill="none" stroke="#63b8ff" d="M1161.22,-259.53C1087.47,-248.04 952.68,-226.18 887.74,-215.18"/>
<polygon fill="#63b8ff" stroke="#63b8ff" points="888.02,-211.68 877.57,-213.45 886.84,-218.58 888.02,-211.68"/>
</g>
<!-- Node19&#45;&gt;Node2 -->
<g id="edge29" class="edge">
<title>Node19&#45;&gt;Node2</title>
<path fill="none" stroke="#63b8ff" d="M824.43,-205.86C720.58,-203.14 345.71,-191.35 302,-162 257.47,-132.1 238.38,-66.93 231.42,-34.74"/>
<polygon fill="#63b8ff" stroke="#63b8ff" points="234.83,-33.97 229.44,-24.85 227.97,-35.34 234.83,-33.97"/>
</g>
<!-- Node19&#45;&gt;Node3 -->
<g id="edge32" class="edge">
<title>Node19&#45;&gt;Node3</title>
<path fill="none" stroke="#63b8ff" d="M824.5,-206.36C720.99,-205.54 347.95,-199.96 313,-162 294.97,-142.41 312.65,-79.58 329,-66 362.39,-38.27 986.65,-22.18 1200.13,-17.46"/>
<polygon fill="#63b8ff" stroke="#63b8ff" points="1200.36,-20.96 1210.28,-17.24 1200.2,-13.96 1200.36,-20.96"/>
</g>
<!-- Node19&#45;&gt;Node5 -->
<g id="edge35" class="edge">
<title>Node19&#45;&gt;Node5</title>
<path fill="none" stroke="#63b8ff" d="M824.35,-205.83C710.64,-202.82 269.29,-189.45 214,-162 186.55,-148.37 165.26,-118.76 153.69,-99.64"/>
<polygon fill="#63b8ff" stroke="#63b8ff" points="156.57,-97.64 148.54,-90.74 150.51,-101.15 156.57,-97.64"/>
</g>
<!-- Node19&#45;&gt;Node7 -->
<g id="edge38" class="edge">
<title>Node19&#45;&gt;Node7</title>
<path fill="none" stroke="#63b8ff" d="M877.54,-203.32C902.3,-198.78 937.91,-187.9 955,-162 962.34,-150.87 963.02,-142.65 955,-132 920.23,-85.81 884,-116.64 830,-96 828.98,-95.61 827.95,-95.2 826.91,-94.77"/>
<polygon fill="#63b8ff" stroke="#63b8ff" points="828.21,-91.52 817.66,-90.63 825.36,-97.91 828.21,-91.52"/>
</g>
<!-- Node19&#45;&gt;Node8 -->
<g id="edge39" class="edge">
<title>Node19&#45;&gt;Node8</title>
<path fill="none" stroke="#63b8ff" d="M877.69,-205.43C975.03,-201.35 1310.63,-185.87 1415,-162 1417.37,-161.46 1419.79,-160.79 1422.21,-160.04"/>
<polygon fill="#63b8ff" stroke="#63b8ff" points="1423.63,-163.25 1431.9,-156.62 1421.3,-156.65 1423.63,-163.25"/>
</g>
<!-- Node19&#45;&gt;Node11 -->
<g id="edge81" class="edge">
<title>Node19&#45;&gt;Node11</title>
<path fill="none" stroke="#63b8ff" d="M859.3,-217.14C885.69,-244.64 968,-330.41 1002.52,-366.37"/>
<polygon fill="#63b8ff" stroke="#63b8ff" points="1000.04,-368.84 1009.49,-373.63 1005.09,-363.99 1000.04,-368.84"/>
</g>
<!-- Node19&#45;&gt;Node12 -->
<g id="edge34" class="edge">
<title>Node19&#45;&gt;Node12</title>
<path fill="none" stroke="#63b8ff" d="M824.29,-206.31C721.74,-205.33 357.2,-199.21 323,-162 306.22,-143.75 324.78,-115.79 340.1,-98.22"/>
<polygon fill="#63b8ff" stroke="#63b8ff" points="342.99,-100.25 347.18,-90.52 337.84,-95.51 342.99,-100.25"/>
</g>
<!-- Node19&#45;&gt;Node16 -->
<g id="edge41" class="edge">
<title>Node19&#45;&gt;Node16</title>
<path fill="none" stroke="#63b8ff" d="M877.65,-206.24C971.72,-205.01 1287.58,-198.2 1381,-162 1401.39,-154.1 1399.52,-139.66 1420,-132 1544.9,-85.29 1887.98,-120.84 2019,-96 2022.5,-95.34 2026.11,-94.47 2029.68,-93.49"/>
<polygon fill="#63b8ff" stroke="#63b8ff" points="2030.96,-96.76 2039.52,-90.51 2028.93,-90.06 2030.96,-96.76"/>
</g>
<!-- Node19&#45;&gt;Node18 -->
<g id="edge40" class="edge">
<title>Node19&#45;&gt;Node18</title>
<path fill="none" stroke="#63b8ff" d="M877.66,-212.25C935.87,-221.1 1074.84,-243.52 1154.13,-256.77"/>
<polygon fill="#63b8ff" stroke="#63b8ff" points="1153.99,-260.29 1164.44,-258.49 1155.15,-253.39 1153.99,-260.29"/>
</g>
<!-- Node20 -->
<g id="node20" class="node">
<title>Node20</title>
<g id="a_node20"><a xlink:title=" ">
<polygon fill="#e0e0e0" stroke="#999999" points="391.5,-156.5 332.5,-156.5 332.5,-137.5 391.5,-137.5 391.5,-156.5"/>
<text text-anchor="middle" x="362" y="-144.5" font-family="Helvetica,sans-Serif" font-size="10.00">functional</text>
</a>
</g>
</g>
<!-- Node19&#45;&gt;Node20 -->
<g id="edge28" class="edge">
<title>Node19&#45;&gt;Node20</title>
<path fill="none" stroke="#63b8ff" d="M824.26,-206.14C754.01,-204.7 558.77,-197.55 401,-162 398.17,-161.36 395.27,-160.58 392.38,-159.71"/>
<polygon fill="#63b8ff" stroke="#63b8ff" points="393.36,-156.35 382.77,-156.52 391.16,-162.99 393.36,-156.35"/>
</g>
<!-- Node21 -->
<g id="node21" class="node">
<title>Node21</title>
<g id="a_node21"><a xlink:title=" ">
<polygon fill="#e0e0e0" stroke="#999999" points="482,-156.5 410,-156.5 410,-137.5 482,-137.5 482,-156.5"/>
<text text-anchor="middle" x="446" y="-144.5" font-family="Helvetica,sans-Serif" font-size="10.00">GLES2/gl2.h</text>
</a>
</g>
</g>
<!-- Node19&#45;&gt;Node21 -->
<g id="edge30" class="edge">
<title>Node19&#45;&gt;Node21</title>
<path fill="none" stroke="#63b8ff" d="M824.08,-204.82C763.84,-200.71 613.82,-188.47 491,-162 487.54,-161.25 483.96,-160.36 480.4,-159.39"/>
<polygon fill="#63b8ff" stroke="#63b8ff" points="481.13,-155.95 470.55,-156.51 479.16,-162.67 481.13,-155.95"/>
</g>
<!-- Node22 -->
<g id="node22" class="node">
<title>Node22</title>
<g id="a_node22"><a xlink:title=" ">
<polygon fill="#e0e0e0" stroke="#999999" points="625.5,-156.5 500.5,-156.5 500.5,-137.5 625.5,-137.5 625.5,-156.5"/>
<text text-anchor="middle" x="563" y="-144.5" font-family="Helvetica,sans-Serif" font-size="10.00">flutter/encodable_value.h</text>
</a>
</g>
</g>
<!-- Node19&#45;&gt;Node22 -->
<g id="edge31" class="edge">
<title>Node19&#45;&gt;Node22</title>
<path fill="none" stroke="#63b8ff" d="M824.42,-201.1C776.93,-191.46 676.73,-171.1 615.1,-158.58"/>
<polygon fill="#63b8ff" stroke="#63b8ff" points="615.68,-155.13 605.19,-156.57 614.29,-161.99 615.68,-155.13"/>
</g>
<!-- Node23 -->
<g id="node23" class="node">
<title>Node23</title>
<g id="a_node23"><a xlink:title=" ">
<polygon fill="#e0e0e0" stroke="#999999" points="706,-156.5 644,-156.5 644,-137.5 706,-137.5 706,-156.5"/>
<text text-anchor="middle" x="675" y="-144.5" font-family="Helvetica,sans-Serif" font-size="10.00">filesystem</text>
</a>
</g>
</g>
<!-- Node19&#45;&gt;Node23 -->
<g id="edge33" class="edge">
<title>Node19&#45;&gt;Node23</title>
<path fill="none" stroke="#63b8ff" d="M824.37,-197.96C796.91,-189.12 752.88,-174.83 715,-162 712.9,-161.29 710.75,-160.55 708.58,-159.81"/>
<polygon fill="#63b8ff" stroke="#63b8ff" points="709.68,-156.49 699.09,-156.52 707.39,-163.1 709.68,-156.49"/>
</g>
<!-- Node24 -->
<g id="node24" class="node">
<title>Node24</title>
<g id="a_node24"><a xlink:title=" ">
<polygon fill="#e0e0e0" stroke="#999999" points="768,-156.5 724,-156.5 724,-137.5 768,-137.5 768,-156.5"/>
<text text-anchor="middle" x="746" y="-144.5" font-family="Helvetica,sans-Serif" font-size="10.00">mutex</text>
</a>
</g>
</g>
<!-- Node19&#45;&gt;Node24 -->
<g id="edge36" class="edge">
<title>Node19&#45;&gt;Node24</title>
<path fill="none" stroke="#63b8ff" d="M835.51,-197.87C818.37,-188.32 790.53,-172.81 770.44,-161.62"/>
<polygon fill="#63b8ff" stroke="#63b8ff" points="772,-158.48 761.56,-156.67 768.59,-164.59 772,-158.48"/>
</g>
<!-- Node25 -->
<g id="node25" class="node">
<title>Node25</title>
<g id="a_node25"><a xlink:title=" ">
<polygon fill="#e0e0e0" stroke="#999999" points="829.5,-156.5 786.5,-156.5 786.5,-137.5 829.5,-137.5 829.5,-156.5"/>
<text text-anchor="middle" x="808" y="-144.5" font-family="Helvetica,sans-Serif" font-size="10.00">queue</text>
</a>
</g>
</g>
<!-- Node19&#45;&gt;Node25 -->
<g id="edge37" class="edge">
<title>Node19&#45;&gt;Node25</title>
<path fill="none" stroke="#63b8ff" d="M844.66,-197.87C838.3,-189.23 828.36,-175.7 820.43,-164.92"/>
<polygon fill="#63b8ff" stroke="#63b8ff" points="823.11,-162.65 814.37,-156.67 817.47,-166.8 823.11,-162.65"/>
</g>
<!-- Node26 -->
<g id="node26" class="node">
<title>Node26</title>
<g id="a_node26"><a xlink:href="logging_8h.html" target="_top" xlink:title=" ">
<polygon fill="white" stroke="#666666" points="2438,-156.5 2382,-156.5 2382,-137.5 2438,-137.5 2438,-156.5"/>
<text text-anchor="middle" x="2410" y="-144.5" font-family="Helvetica,sans-Serif" font-size="10.00">logging.h</text>
</a>
</g>
</g>
<!-- Node19&#45;&gt;Node26 -->
<g id="edge42" class="edge">
<title>Node19&#45;&gt;Node26</title>
<path fill="none" stroke="#63b8ff" d="M877.73,-205.5C1062.84,-198.55 2153.16,-157.64 2371.82,-149.43"/>
<polygon fill="#63b8ff" stroke="#63b8ff" points="2372,-152.93 2381.86,-149.06 2371.73,-145.93 2372,-152.93"/>
</g>
<!-- Node34 -->
<g id="node34" class="node">
<title>Node34</title>
<g id="a_node34"><a xlink:href="platform__channel_8h.html" target="_top" xlink:title=" ">
<polygon fill="white" stroke="#666666" points="946.5,-156.5 847.5,-156.5 847.5,-137.5 946.5,-137.5 946.5,-156.5"/>
<text text-anchor="middle" x="897" y="-144.5" font-family="Helvetica,sans-Serif" font-size="10.00">platform_channel.h</text>
</a>
</g>
</g>
<!-- Node19&#45;&gt;Node34 -->
<g id="edge51" class="edge">
<title>Node19&#45;&gt;Node34</title>
<path fill="none" stroke="#63b8ff" d="M857.79,-197.87C864.65,-189.14 875.43,-175.43 883.95,-164.59"/>
<polygon fill="#63b8ff" stroke="#63b8ff" points="886.75,-166.69 890.18,-156.67 881.25,-162.36 886.75,-166.69"/>
</g>
<!-- Node35 -->
<g id="node35" class="node">
<title>Node35</title>
<g id="a_node35"><a xlink:href="key__event_8h.html" target="_top" xlink:title=" ">
<polygon fill="white" stroke="#666666" points="1105,-162 1003,-162 1003,-132 1105,-132 1105,-162"/>
<text text-anchor="start" x="1011" y="-150" font-family="Helvetica,sans-Serif" font-size="10.00">static_plugins/key</text>
<text text-anchor="middle" x="1054" y="-139" font-family="Helvetica,sans-Serif" font-size="10.00">_event/key_event.h</text>
</a>
</g>
</g>
<!-- Node19&#45;&gt;Node35 -->
<g id="edge55" class="edge">
<title>Node19&#45;&gt;Node35</title>
<path fill="none" stroke="#63b8ff" d="M877.54,-198.85C907.36,-190.26 956.69,-176.04 995.62,-164.82"/>
<polygon fill="#63b8ff" stroke="#63b8ff" points="996.64,-168.17 1005.28,-162.04 994.7,-161.45 996.64,-168.17"/>
</g>
<!-- Node40 -->
<g id="node40" class="node">
<title>Node40</title>
<g id="a_node40"><a xlink:href="text__input_8h.html" target="_top" xlink:title=" ">
<polygon fill="white" stroke="#666666" points="1372.5,-162 1275.5,-162 1275.5,-132 1372.5,-132 1372.5,-162"/>
<text text-anchor="start" x="1283.5" y="-150" font-family="Helvetica,sans-Serif" font-size="10.00">static_plugins/text</text>
<text text-anchor="middle" x="1324" y="-139" font-family="Helvetica,sans-Serif" font-size="10.00">_input/text_input.h</text>
</a>
</g>
</g>
<!-- Node19&#45;&gt;Node40 -->
<g id="edge67" class="edge">
<title>Node19&#45;&gt;Node40</title>
<path fill="none" stroke="#63b8ff" d="M877.79,-203.19C952.11,-193.99 1162.24,-168.01 1265.4,-155.25"/>
<polygon fill="#63b8ff" stroke="#63b8ff" points="1265.84,-158.72 1275.34,-154.02 1264.98,-151.77 1265.84,-158.72"/>
</g>
<!-- Node26&#45;&gt;Node16 -->
<g id="edge50" class="edge">
<title>Node26&#45;&gt;Node16</title>
<path fill="none" stroke="#63b8ff" d="M2386.67,-137.37C2380.65,-135.38 2374.14,-133.43 2368,-132 2253.1,-105.23 2219.99,-122.37 2105,-96 2101.96,-95.3 2098.83,-94.49 2095.71,-93.6"/>
<polygon fill="#63b8ff" stroke="#63b8ff" points="2096.48,-90.18 2085.89,-90.62 2094.44,-96.88 2096.48,-90.18"/>
</g>
<!-- Node27 -->
<g id="node27" class="node">
<title>Node27</title>
<g id="a_node27"><a xlink:title=" ">
<polygon fill="#e0e0e0" stroke="#999999" points="2166,-90.5 2114,-90.5 2114,-71.5 2166,-71.5 2166,-90.5"/>
<text text-anchor="middle" x="2140" y="-78.5" font-family="Helvetica,sans-Serif" font-size="10.00">sstream</text>
</a>
</g>
</g>
<!-- Node26&#45;&gt;Node27 -->
<g id="edge43" class="edge">
<title>Node26&#45;&gt;Node27</title>
<path fill="none" stroke="#63b8ff" d="M2386.18,-137.43C2380.29,-135.48 2373.95,-133.54 2368,-132 2283.52,-110.15 2258.8,-120.32 2175,-96 2173.07,-95.44 2171.09,-94.81 2169.12,-94.14"/>
<polygon fill="#63b8ff" stroke="#63b8ff" points="2169.98,-90.73 2159.38,-90.54 2167.55,-97.29 2169.98,-90.73"/>
</g>
<!-- Node28 -->
<g id="node28" class="node">
<title>Node28</title>
<g id="a_node28"><a xlink:title=" ">
<polygon fill="#e0e0e0" stroke="#999999" points="2272,-90.5 2184,-90.5 2184,-71.5 2272,-71.5 2272,-90.5"/>
<text text-anchor="middle" x="2228" y="-78.5" font-family="Helvetica,sans-Serif" font-size="10.00">spdlog/cfg/env.h</text>
</a>
</g>
</g>
<!-- Node26&#45;&gt;Node28 -->
<g id="edge44" class="edge">
<title>Node26&#45;&gt;Node28</title>
<path fill="none" stroke="#63b8ff" d="M2385.45,-137.37C2353.62,-126.17 2297.91,-106.58 2262.01,-93.96"/>
<polygon fill="#63b8ff" stroke="#63b8ff" points="2263.04,-90.61 2252.45,-90.6 2260.72,-97.22 2263.04,-90.61"/>
</g>
<!-- Node29 -->
<g id="node29" class="node">
<title>Node29</title>
<g id="a_node29"><a xlink:title=" ">
<polygon fill="#e0e0e0" stroke="#999999" points="2400,-96 2290,-96 2290,-66 2400,-66 2400,-96"/>
<text text-anchor="start" x="2298" y="-84" font-family="Helvetica,sans-Serif" font-size="10.00">spdlog/sinks/callback</text>
<text text-anchor="middle" x="2345" y="-73" font-family="Helvetica,sans-Serif" font-size="10.00">_sink.h</text>
</a>
</g>
</g>
<!-- Node26&#45;&gt;Node29 -->
<g id="edge45" class="edge">
<title>Node26&#45;&gt;Node29</title>
<path fill="none" stroke="#63b8ff" d="M2401.23,-137.37C2392.48,-128.75 2378.67,-115.15 2366.93,-103.59"/>
<polygon fill="#63b8ff" stroke="#63b8ff" points="2369.17,-100.88 2359.58,-96.36 2364.25,-105.87 2369.17,-100.88"/>
</g>
<!-- Node30 -->
<g id="node30" class="node">
<title>Node30</title>
<g id="a_node30"><a xlink:title=" ">
<polygon fill="#e0e0e0" stroke="#999999" points="2532,-96 2418,-96 2418,-66 2532,-66 2532,-96"/>
<text text-anchor="start" x="2426" y="-84" font-family="Helvetica,sans-Serif" font-size="10.00">spdlog/sinks/ringbuffer</text>
<text text-anchor="middle" x="2475" y="-73" font-family="Helvetica,sans-Serif" font-size="10.00">_sink.h</text>
</a>
</g>
</g>
<!-- Node26&#45;&gt;Node30 -->
<g id="edge46" class="edge">
<title>Node26&#45;&gt;Node30</title>
<path fill="none" stroke="#63b8ff" d="M2418.77,-137.37C2427.52,-128.75 2441.33,-115.15 2453.07,-103.59"/>
<polygon fill="#63b8ff" stroke="#63b8ff" points="2455.75,-105.87 2460.42,-96.36 2450.83,-100.88 2455.75,-105.87"/>
</g>
<!-- Node31 -->
<g id="node31" class="node">
<title>Node31</title>
<g id="a_node31"><a xlink:title=" ">
<polygon fill="#e0e0e0" stroke="#999999" points="2651.5,-96 2550.5,-96 2550.5,-66 2651.5,-66 2651.5,-96"/>
<text text-anchor="start" x="2558.5" y="-84" font-family="Helvetica,sans-Serif" font-size="10.00">spdlog/sinks/stdout</text>
<text text-anchor="middle" x="2601" y="-73" font-family="Helvetica,sans-Serif" font-size="10.00">_color_sinks.h</text>
</a>
</g>
</g>
<!-- Node26&#45;&gt;Node31 -->
<g id="edge47" class="edge">
<title>Node26&#45;&gt;Node31</title>
<path fill="none" stroke="#63b8ff" d="M2435.76,-137.37C2464.74,-127.66 2512.55,-111.64 2549.31,-99.32"/>
<polygon fill="#63b8ff" stroke="#63b8ff" points="2550.5,-102.61 2558.87,-96.12 2548.28,-95.97 2550.5,-102.61"/>
</g>
<!-- Node32 -->
<g id="node32" class="node">
<title>Node32</title>
<g id="a_node32"><a xlink:title=" ">
<polygon fill="#e0e0e0" stroke="#999999" points="2770.5,-96 2669.5,-96 2669.5,-66 2770.5,-66 2770.5,-96"/>
<text text-anchor="start" x="2677.5" y="-84" font-family="Helvetica,sans-Serif" font-size="10.00">spdlog/sinks/stdout</text>
<text text-anchor="middle" x="2720" y="-73" font-family="Helvetica,sans-Serif" font-size="10.00">_sinks.h</text>
</a>
</g>
</g>
<!-- Node26&#45;&gt;Node32 -->
<g id="edge48" class="edge">
<title>Node26&#45;&gt;Node32</title>
<path fill="none" stroke="#63b8ff" d="M2438.3,-140.71C2483.13,-132.26 2573.44,-114.92 2659.56,-96.27"/>
<polygon fill="#63b8ff" stroke="#63b8ff" points="2660.47,-99.66 2669.5,-94.11 2658.98,-92.82 2660.47,-99.66"/>
</g>
<!-- Node33 -->
<g id="node33" class="node">
<title>Node33</title>
<g id="a_node33"><a xlink:title=" ">
<polygon fill="#e0e0e0" stroke="#999999" points="2873.5,-90.5 2788.5,-90.5 2788.5,-71.5 2873.5,-71.5 2873.5,-90.5"/>
<text text-anchor="middle" x="2831" y="-78.5" font-family="Helvetica,sans-Serif" font-size="10.00">spdlog/spdlog.h</text>
</a>
</g>
</g>
<!-- Node26&#45;&gt;Node33 -->
<g id="edge49" class="edge">
<title>Node26&#45;&gt;Node33</title>
<path fill="none" stroke="#63b8ff" d="M2438.06,-143.5C2500.14,-137.69 2653.61,-121.77 2780,-96 2784.15,-95.15 2788.46,-94.16 2792.74,-93.09"/>
<polygon fill="#63b8ff" stroke="#63b8ff" points="2793.78,-96.44 2802.57,-90.53 2792.01,-89.67 2793.78,-96.44"/>
</g>
<!-- Node34&#45;&gt;Node3 -->
<g id="edge54" class="edge">
<title>Node34&#45;&gt;Node3</title>
<path fill="none" stroke="#63b8ff" d="M864.71,-137.47C856.08,-135.43 846.73,-133.43 838,-132 794.95,-124.95 476.4,-128.23 447,-96 438.01,-86.15 437.86,-75.71 447,-66 472.65,-38.75 1005.06,-22.68 1200.16,-17.69"/>
<polygon fill="#63b8ff" stroke="#63b8ff" points="1200.39,-21.18 1210.3,-17.43 1200.21,-14.19 1200.39,-21.18"/>
</g>
<!-- Node34&#45;&gt;Node7 -->
<g id="edge53" class="edge">
<title>Node34&#45;&gt;Node7</title>
<path fill="none" stroke="#63b8ff" d="M884.05,-137.37C868.31,-126.87 841.5,-109 822.6,-96.4"/>
<polygon fill="#63b8ff" stroke="#63b8ff" points="824.31,-93.33 814.05,-90.7 820.43,-99.16 824.31,-93.33"/>
</g>
<!-- Node34&#45;&gt;Node12 -->
<g id="edge52" class="edge">
<title>Node34&#45;&gt;Node12</title>
<path fill="none" stroke="#63b8ff" d="M865.03,-137.47C856.31,-135.41 846.84,-133.39 838,-132 639.81,-100.75 582.59,-144.88 388,-96 386.1,-95.52 384.18,-94.94 382.26,-94.3"/>
<polygon fill="#63b8ff" stroke="#63b8ff" points="383.49,-91.02 372.9,-90.64 380.94,-97.54 383.49,-91.02"/>
</g>
<!-- Node35&#45;&gt;Node3 -->
<g id="edge64" class="edge">
<title>Node35&#45;&gt;Node3</title>
<path fill="none" stroke="#63b8ff" d="M1002.95,-138.1C987.57,-135.91 970.62,-133.67 955,-132 844.44,-120.18 382.83,-147.01 459,-66 484.22,-39.18 1007.08,-22.88 1200.17,-17.75"/>
<polygon fill="#63b8ff" stroke="#63b8ff" points="1200.3,-21.25 1210.21,-17.49 1200.12,-14.25 1200.3,-21.25"/>
</g>
<!-- Node35&#45;&gt;Node5 -->
<g id="edge57" class="edge">
<title>Node35&#45;&gt;Node5</title>
<path fill="none" stroke="#63b8ff" d="M1002.97,-137.96C987.58,-135.76 970.63,-133.55 955,-132 677.68,-104.47 607.07,-114.52 329,-96 277.37,-92.56 217.69,-87.93 180.39,-84.95"/>
<polygon fill="#63b8ff" stroke="#63b8ff" points="180.28,-81.43 170.03,-84.12 179.72,-88.41 180.28,-81.43"/>
</g>
<!-- Node35&#45;&gt;Node7 -->
<g id="edge58" class="edge">
<title>Node35&#45;&gt;Node7</title>
<path fill="none" stroke="#63b8ff" d="M1002.84,-134.89C939.3,-121.05 838.21,-98.85 830,-96 828.78,-95.58 827.55,-95.12 826.31,-94.63"/>
<polygon fill="#63b8ff" stroke="#63b8ff" points="827.54,-91.35 816.98,-90.52 824.72,-97.75 827.54,-91.35"/>
</g>
<!-- Node35&#45;&gt;Node9 -->
<g id="edge62" class="edge">
<title>Node35&#45;&gt;Node9</title>
<path fill="none" stroke="#63b8ff" d="M1018.01,-131.95C989.12,-120.68 948.97,-105.01 921.38,-94.25"/>
<polygon fill="#63b8ff" stroke="#63b8ff" points="922.41,-90.89 911.83,-90.52 919.87,-97.41 922.41,-90.89"/>
</g>
<!-- Node35&#45;&gt;Node10 -->
<g id="edge63" class="edge">
<title>Node35&#45;&gt;Node10</title>
<path fill="none" stroke="#63b8ff" d="M1105.1,-142.52C1260.09,-131.92 1716.27,-100.54 1748,-96 1754.37,-95.09 1761.06,-93.91 1767.61,-92.62"/>
<polygon fill="#63b8ff" stroke="#63b8ff" points="1768.65,-95.98 1777.74,-90.54 1767.24,-89.13 1768.65,-95.98"/>
</g>
<!-- Node35&#45;&gt;Node12 -->
<g id="edge56" class="edge">
<title>Node35&#45;&gt;Node12</title>
<path fill="none" stroke="#63b8ff" d="M1002.96,-138.06C987.57,-135.86 970.62,-133.63 955,-132 720.62,-107.49 659.58,-127.17 426,-96 411.99,-94.13 396.57,-91.15 383.77,-88.41"/>
<polygon fill="#63b8ff" stroke="#63b8ff" points="384.25,-84.94 373.73,-86.21 382.75,-91.77 384.25,-84.94"/>
</g>
<!-- Node35&#45;&gt;Node16 -->
<g id="edge66" class="edge">
<title>Node35&#45;&gt;Node16</title>
<path fill="none" stroke="#63b8ff" d="M1105.39,-142.34C1148.31,-139.35 1211.13,-135.12 1266,-132 1600.51,-112.96 1689.44,-156.4 2019,-96 2022.5,-95.36 2026.12,-94.5 2029.69,-93.53"/>
<polygon fill="#63b8ff" stroke="#63b8ff" points="2030.97,-96.8 2039.53,-90.57 2028.95,-90.1 2030.97,-96.8"/>
</g>
<!-- Node36 -->
<g id="node36" class="node">
<title>Node36</title>
<g id="a_node36"><a xlink:title=" ">
<polygon fill="#e0e0e0" stroke="#999999" points="581.5,-96 468.5,-96 468.5,-66 581.5,-66 581.5,-96"/>
<text text-anchor="start" x="476.5" y="-84" font-family="Helvetica,sans-Serif" font-size="10.00">flutter/basic_message</text>
<text text-anchor="middle" x="525" y="-73" font-family="Helvetica,sans-Serif" font-size="10.00">_channel.h</text>
</a>
</g>
</g>
<!-- Node35&#45;&gt;Node36 -->
<g id="edge59" class="edge">
<title>Node35&#45;&gt;Node36</title>
<path fill="none" stroke="#63b8ff" d="M1002.93,-138.36C987.54,-136.17 970.6,-133.87 955,-132 796.47,-112.98 752.83,-120.86 591.91,-96.19"/>
<polygon fill="#63b8ff" stroke="#63b8ff" points="592.07,-92.67 581.65,-94.6 590.99,-99.59 592.07,-92.67"/>
</g>
<!-- Node37 -->
<g id="node37" class="node">
<title>Node37</title>
<g id="a_node37"><a xlink:title=" ">
<polygon fill="#e0e0e0" stroke="#999999" points="1091,-90.5 959,-90.5 959,-71.5 1091,-71.5 1091,-90.5"/>
<text text-anchor="middle" x="1025" y="-78.5" font-family="Helvetica,sans-Serif" font-size="10.00">flutter/binary_messenger.h</text>
</a>
</g>
</g>
<!-- Node35&#45;&gt;Node37 -->
<g id="edge60" class="edge">
<title>Node35&#45;&gt;Node37</title>
<path fill="none" stroke="#63b8ff" d="M1047.56,-131.8C1043.35,-122.5 1037.81,-110.27 1033.27,-100.26"/>
<polygon fill="#63b8ff" stroke="#63b8ff" points="1036.32,-98.51 1029.01,-90.84 1029.95,-101.4 1036.32,-98.51"/>
</g>
<!-- Node38 -->
<g id="node38" class="node">
<title>Node38</title>
<g id="a_node38"><a xlink:title=" ">
<polygon fill="#e0e0e0" stroke="#999999" points="762.5,-96 599.5,-96 599.5,-66 762.5,-66 762.5,-96"/>
<text text-anchor="start" x="607.5" y="-84" font-family="Helvetica,sans-Serif" font-size="10.00">flutter/shell/platform</text>
<text text-anchor="middle" x="681" y="-73" font-family="Helvetica,sans-Serif" font-size="10.00">/common/json_message_codec.h</text>
</a>
</g>
</g>
<!-- Node35&#45;&gt;Node38 -->
<g id="edge61" class="edge">
<title>Node35&#45;&gt;Node38</title>
<path fill="none" stroke="#63b8ff" d="M1002.92,-137.24C943.75,-127.08 845.13,-110.16 772.6,-97.72"/>
<polygon fill="#63b8ff" stroke="#63b8ff" points="773,-94.23 762.55,-95.99 771.81,-101.13 773,-94.23"/>
</g>
<!-- Node39 -->
<g id="node39" class="node">
<title>Node39</title>
<g id="a_node39"><a xlink:title=" ">
<polygon fill="#e0e0e0" stroke="#999999" points="1243,-90.5 1109,-90.5 1109,-71.5 1243,-71.5 1243,-90.5"/>
<text text-anchor="middle" x="1176" y="-78.5" font-family="Helvetica,sans-Serif" font-size="10.00">xkbcommon/xkbcommon.h</text>
</a>
</g>
</g>
<!-- Node35&#45;&gt;Node39 -->
<g id="edge65" class="edge">
<title>Node35&#45;&gt;Node39</title>
<path fill="none" stroke="#63b8ff" d="M1080.77,-131.95C1101.6,-121.03 1130.31,-105.97 1150.74,-95.25"/>
<polygon fill="#63b8ff" stroke="#63b8ff" points="1152.53,-98.26 1159.76,-90.52 1149.28,-92.06 1152.53,-98.26"/>
</g>
<!-- Node40&#45;&gt;Node3 -->
<g id="edge78" class="edge">
<title>Node40&#45;&gt;Node3</title>
<path fill="none" stroke="#63b8ff" d="M1312.39,-131.95C1304.99,-122.36 1295.76,-109.06 1290,-96 1282.14,-78.17 1277.26,-56.61 1274.42,-40.37"/>
<polygon fill="#63b8ff" stroke="#63b8ff" points="1277.81,-39.4 1272.76,-30.08 1270.9,-40.51 1277.81,-39.4"/>
</g>
<!-- Node40&#45;&gt;Node5 -->
<g id="edge69" class="edge">
<title>Node40&#45;&gt;Node5</title>
<path fill="none" stroke="#63b8ff" d="M1275.22,-142.46C1232.67,-139.44 1169.27,-135.11 1114,-132 765.3,-112.38 677.61,-117.18 329,-96 277.35,-92.86 217.68,-88.15 180.38,-85.07"/>
<polygon fill="#63b8ff" stroke="#63b8ff" points="180.28,-81.55 170.03,-84.21 179.7,-88.53 180.28,-81.55"/>
</g>
<!-- Node40&#45;&gt;Node7 -->
<g id="edge70" class="edge">
<title>Node40&#45;&gt;Node7</title>
<path fill="none" stroke="#63b8ff" d="M1275.43,-141.11C1151.17,-128.6 831.34,-96.38 830,-96 828.55,-95.59 827.09,-95.11 825.63,-94.59"/>
<polygon fill="#63b8ff" stroke="#63b8ff" points="826.83,-91.29 816.26,-90.59 824.09,-97.73 826.83,-91.29"/>
</g>
<!-- Node40&#45;&gt;Node9 -->
<g id="edge74" class="edge">
<title>Node40&#45;&gt;Node9</title>
<path fill="none" stroke="#63b8ff" d="M1275.26,-134.65C1270.45,-133.68 1265.64,-132.78 1261,-132 1123.79,-108.88 1087.09,-119.85 950,-96 944.6,-95.06 938.96,-93.94 933.38,-92.74"/>
<polygon fill="#63b8ff" stroke="#63b8ff" points="934.02,-89.29 923.5,-90.53 932.49,-96.13 934.02,-89.29"/>
</g>
<!-- Node40&#45;&gt;Node10 -->
<g id="edge77" class="edge">
<title>Node40&#45;&gt;Node10</title>
<path fill="none" stroke="#63b8ff" d="M1372.73,-134.57C1377.54,-133.62 1382.35,-132.75 1387,-132 1546.21,-106.47 1588.71,-121.01 1748,-96 1754.21,-95.02 1760.72,-93.83 1767.12,-92.55"/>
<polygon fill="#63b8ff" stroke="#63b8ff" points="1767.95,-95.96 1777.04,-90.5 1766.53,-89.1 1767.95,-95.96"/>
</g>
<!-- Node40&#45;&gt;Node12 -->
<g id="edge68" class="edge">
<title>Node40&#45;&gt;Node12</title>
<path fill="none" stroke="#63b8ff" d="M1275.21,-142.59C1232.66,-139.65 1169.25,-135.36 1114,-132 822.99,-114.3 749.24,-123.66 459,-96 433.45,-93.57 404.5,-89.52 383.82,-86.4"/>
<polygon fill="#63b8ff" stroke="#63b8ff" points="384.23,-82.92 373.81,-84.86 383.17,-89.84 384.23,-82.92"/>
</g>
<!-- Node40&#45;&gt;Node16 -->
<g id="edge80" class="edge">
<title>Node40&#45;&gt;Node16</title>
<path fill="none" stroke="#63b8ff" d="M1372.7,-134.36C1377.51,-133.46 1382.34,-132.65 1387,-132 1665.68,-93.36 1742.5,-147.98 2019,-96 2022.5,-95.34 2026.11,-94.48 2029.68,-93.5"/>
<polygon fill="#63b8ff" stroke="#63b8ff" points="2030.96,-96.77 2039.52,-90.53 2028.94,-90.07 2030.96,-96.77"/>
</g>
<!-- Node40&#45;&gt;Node37 -->
<g id="edge71" class="edge">
<title>Node40&#45;&gt;Node37</title>
<path fill="none" stroke="#63b8ff" d="M1275.17,-135.1C1270.38,-134.05 1265.6,-133 1261,-132 1197.19,-118.15 1123.57,-102.62 1075.75,-92.6"/>
<polygon fill="#63b8ff" stroke="#63b8ff" points="1076.46,-89.17 1065.96,-90.55 1075.03,-96.02 1076.46,-89.17"/>
</g>
<!-- Node40&#45;&gt;Node39 -->
<g id="edge79" class="edge">
<title>Node40&#45;&gt;Node39</title>
<path fill="none" stroke="#63b8ff" d="M1291.52,-131.95C1265.68,-120.78 1229.85,-105.29 1204.97,-94.53"/>
<polygon fill="#63b8ff" stroke="#63b8ff" points="1206.26,-91.27 1195.7,-90.52 1203.49,-97.7 1206.26,-91.27"/>
</g>
<!-- Node41 -->
<g id="node41" class="node">
<title>Node41</title>
<g id="a_node41"><a xlink:title=" ">
<polygon fill="#e0e0e0" stroke="#999999" points="2010,-90.5 1886,-90.5 1886,-71.5 2010,-71.5 2010,-90.5"/>
<text text-anchor="middle" x="1948" y="-78.5" font-family="Helvetica,sans-Serif" font-size="10.00">flutter/method_channel.h</text>
</a>
</g>
</g>
<!-- Node40&#45;&gt;Node41 -->
<g id="edge72" class="edge">
<title>Node40&#45;&gt;Node41</title>
<path fill="none" stroke="#63b8ff" d="M1372.71,-134.44C1377.52,-133.52 1382.34,-132.68 1387,-132 1603.04,-100.23 1660.59,-125.18 1877,-96 1884.19,-95.03 1891.75,-93.79 1899.15,-92.44"/>
<polygon fill="#63b8ff" stroke="#63b8ff" points="1899.91,-95.86 1909.08,-90.56 1898.6,-88.98 1899.91,-95.86"/>
</g>
<!-- Node42 -->
<g id="node42" class="node">
<title>Node42</title>
<g id="a_node42"><a xlink:title=" ">
<polygon fill="#e0e0e0" stroke="#999999" points="1405,-96 1299,-96 1299,-66 1405,-66 1405,-96"/>
<text text-anchor="start" x="1307" y="-84" font-family="Helvetica,sans-Serif" font-size="10.00">flutter/method_result</text>
<text text-anchor="middle" x="1352" y="-73" font-family="Helvetica,sans-Serif" font-size="10.00">_functions.h</text>
</a>
</g>
</g>
<!-- Node40&#45;&gt;Node42 -->
<g id="edge73" class="edge">
<title>Node40&#45;&gt;Node42</title>
<path fill="none" stroke="#63b8ff" d="M1330.21,-131.8C1333.59,-124.09 1337.84,-114.37 1341.69,-105.56"/>
<polygon fill="#63b8ff" stroke="#63b8ff" points="1345,-106.73 1345.8,-96.16 1338.59,-103.92 1345,-106.73"/>
</g>
<!-- Node43 -->
<g id="node43" class="node">
<title>Node43</title>
<g id="a_node43"><a xlink:title=" ">
<polygon fill="#e0e0e0" stroke="#999999" points="1578.5,-96 1423.5,-96 1423.5,-66 1578.5,-66 1578.5,-96"/>
<text text-anchor="start" x="1431.5" y="-84" font-family="Helvetica,sans-Serif" font-size="10.00">flutter/shell/platform</text>
<text text-anchor="middle" x="1501" y="-73" font-family="Helvetica,sans-Serif" font-size="10.00">/common/json_method_codec.h</text>
</a>
</g>
</g>
<!-- Node40&#45;&gt;Node43 -->
<g id="edge75" class="edge">
<title>Node40&#45;&gt;Node43</title>
<path fill="none" stroke="#63b8ff" d="M1362.84,-131.95C1389.24,-122.41 1424.36,-109.71 1452.58,-99.51"/>
<polygon fill="#63b8ff" stroke="#63b8ff" points="1454.03,-102.7 1462.25,-96.01 1451.65,-96.12 1454.03,-102.7"/>
</g>
<!-- Node44 -->
<g id="node44" class="node">
<title>Node44</title>
<g id="a_node44"><a xlink:title=" ">
<polygon fill="#e0e0e0" stroke="#999999" points="1739.5,-96 1596.5,-96 1596.5,-66 1739.5,-66 1739.5,-96"/>
<text text-anchor="start" x="1604.5" y="-84" font-family="Helvetica,sans-Serif" font-size="10.00">flutter/shell/platform</text>
<text text-anchor="middle" x="1668" y="-73" font-family="Helvetica,sans-Serif" font-size="10.00">/common/text_input_model.h</text>
</a>
</g>
</g>
<!-- Node40&#45;&gt;Node44 -->
<g id="edge76" class="edge">
<title>Node40&#45;&gt;Node44</title>
<path fill="none" stroke="#63b8ff" d="M1372.8,-134.94C1377.59,-133.92 1382.39,-132.92 1387,-132 1424.22,-124.56 1517.54,-108.11 1586.48,-96.11"/>
<polygon fill="#63b8ff" stroke="#63b8ff" points="1587.21,-99.53 1596.46,-94.37 1586.01,-92.64 1587.21,-99.53"/>
</g>
</g>
</svg>
