<?xml version="1.0" encoding="UTF-8" standalone="no"?>
<!DOCTYPE svg PUBLIC "-//W3C//DTD SVG 1.1//EN"
 "http://www.w3.org/Graphics/SVG/1.1/DTD/svg11.dtd">
<!-- Generated by graphviz version 5.0.0 (0)
 -->
<!-- Title: /mnt/raid10/stargate/ivi&#45;homescreen/shell/app.h Pages: 1 -->
<svg width="2376pt" height="522pt"
 viewBox="0.00 0.00 2375.50 522.00" xmlns="http://www.w3.org/2000/svg" xmlns:xlink="http://www.w3.org/1999/xlink">
<g id="graph0" class="graph" transform="scale(1 1) rotate(0) translate(4 518)">
<title>/mnt/raid10/stargate/ivi&#45;homescreen/shell/app.h</title>
<!-- Node1 -->
<g id="node1" class="node">
<title>Node1</title>
<g id="a_node1"><a xlink:title=" ">
<polygon fill="#999999" stroke="#666666" points="1523,-514 1387,-514 1387,-484 1523,-484 1523,-514"/>
<text text-anchor="start" x="1395" y="-502" font-family="Helvetica,sans-Serif" font-size="10.00">/mnt/raid10/stargate</text>
<text text-anchor="middle" x="1455" y="-491" font-family="Helvetica,sans-Serif" font-size="10.00">/ivi&#45;homescreen/shell/app.h</text>
</a>
</g>
</g>
<!-- Node2 -->
<g id="node2" class="node">
<title>Node2</title>
<g id="a_node2"><a xlink:title=" ">
<polygon fill="#e0e0e0" stroke="#999999" points="206,-79.5 146,-79.5 146,-60.5 206,-60.5 206,-79.5"/>
<text text-anchor="middle" x="176" y="-67.5" font-family="Helvetica,sans-Serif" font-size="10.00">EGL/egl.h</text>
</a>
</g>
</g>
<!-- Node1&#45;&gt;Node2 -->
<g id="edge1" class="edge">
<title>Node1&#45;&gt;Node2</title>
<path fill="none" stroke="#63b8ff" d="M1386.68,-497.53C1160.76,-495.63 439.18,-486.61 210,-448 113.85,-431.8 0,-482.01 0,-384.5 0,-384.5 0,-384.5 0,-201 0,-133.73 84.22,-97.32 136.14,-81.27"/>
<polygon fill="#63b8ff" stroke="#63b8ff" points="137.16,-84.62 145.74,-78.41 135.16,-77.91 137.16,-84.62"/>
</g>
<!-- Node3 -->
<g id="node3" class="node">
<title>Node3</title>
<g id="a_node3"><a xlink:title=" ">
<polygon fill="#e0e0e0" stroke="#999999" points="2087.5,-85 1966.5,-85 1966.5,-55 2087.5,-55 2087.5,-85"/>
<text text-anchor="start" x="1974.5" y="-73" font-family="Helvetica,sans-Serif" font-size="10.00">shell/platform/embedder</text>
<text text-anchor="middle" x="2027" y="-62" font-family="Helvetica,sans-Serif" font-size="10.00">/embedder.h</text>
</a>
</g>
</g>
<!-- Node1&#45;&gt;Node3 -->
<g id="edge2" class="edge">
<title>Node1&#45;&gt;Node3</title>
<path fill="none" stroke="#63b8ff" d="M1523.3,-495.42C1716.33,-487.21 2252,-457.83 2252,-384.5 2252,-384.5 2252,-384.5 2252,-201 2252,-145.46 2203.86,-149.19 2156,-121 2133.45,-107.72 2106.74,-96.69 2083.48,-88.4"/>
<polygon fill="#63b8ff" stroke="#63b8ff" points="2084.34,-84.99 2073.75,-85.01 2082.04,-91.6 2084.34,-84.99"/>
</g>
<!-- Node4 -->
<g id="node4" class="node">
<title>Node4</title>
<g id="a_node4"><a xlink:title=" ">
<polygon fill="#e0e0e0" stroke="#999999" points="2367.5,-448 2280.5,-448 2280.5,-429 2367.5,-429 2367.5,-448"/>
<text text-anchor="middle" x="2324" y="-436" font-family="Helvetica,sans-Serif" font-size="10.00">wayland&#45;client.h</text>
</a>
</g>
</g>
<!-- Node1&#45;&gt;Node4 -->
<g id="edge3" class="edge">
<title>Node1&#45;&gt;Node4</title>
<path fill="none" stroke="#63b8ff" d="M1523.25,-495.73C1662.96,-490.65 1991.52,-476.52 2266,-448 2267.46,-447.85 2268.93,-447.69 2270.42,-447.52"/>
<polygon fill="#63b8ff" stroke="#63b8ff" points="2270.85,-450.99 2280.34,-446.3 2269.99,-444.04 2270.85,-450.99"/>
</g>
<!-- Node5 -->
<g id="node5" class="node">
<title>Node5</title>
<g id="a_node5"><a xlink:title=" ">
<polygon fill="#e0e0e0" stroke="#999999" points="161,-145.5 109,-145.5 109,-126.5 161,-126.5 161,-145.5"/>
<text text-anchor="middle" x="135" y="-133.5" font-family="Helvetica,sans-Serif" font-size="10.00">memory</text>
</a>
</g>
</g>
<!-- Node1&#45;&gt;Node5 -->
<g id="edge4" class="edge">
<title>Node1&#45;&gt;Node5</title>
<path fill="none" stroke="#63b8ff" d="M1386.66,-496.15C1103.6,-488.05 38,-452.99 38,-384.5 38,-384.5 38,-384.5 38,-261.5 38,-213.08 84.22,-172.18 112.85,-151.49"/>
<polygon fill="#63b8ff" stroke="#63b8ff" points="114.9,-154.33 121.1,-145.74 110.9,-148.59 114.9,-154.33"/>
</g>
<!-- Node6 -->
<g id="node6" class="node">
<title>Node6</title>
<g id="a_node6"><a xlink:href="configuration_8h.html" target="_top" xlink:title=" ">
<polygon fill="white" stroke="#666666" points="2047.5,-272 1908.5,-272 1908.5,-253 2047.5,-253 2047.5,-272"/>
<text text-anchor="middle" x="1978" y="-260" font-family="Helvetica,sans-Serif" font-size="10.00">configuration/configuration.h</text>
</a>
</g>
</g>
<!-- Node1&#45;&gt;Node6 -->
<g id="edge5" class="edge">
<title>Node1&#45;&gt;Node6</title>
<path fill="none" stroke="#63b8ff" d="M1523.02,-488.15C1655.59,-467.4 1940.61,-414.74 1998,-338 2010.6,-321.15 2000.2,-296.91 1990.28,-280.7"/>
<polygon fill="#63b8ff" stroke="#63b8ff" points="1993.1,-278.63 1984.68,-272.21 1987.26,-282.48 1993.1,-278.63"/>
</g>
<!-- Node11 -->
<g id="node11" class="node">
<title>Node11</title>
<g id="a_node11"><a xlink:href="flutter__view_8h.html" target="_top" xlink:title=" ">
<polygon fill="white" stroke="#666666" points="943,-448 845,-448 845,-429 943,-429 943,-448"/>
<text text-anchor="middle" x="894" y="-436" font-family="Helvetica,sans-Serif" font-size="10.00">view/flutter_view.h</text>
</a>
</g>
</g>
<!-- Node1&#45;&gt;Node11 -->
<g id="edge10" class="edge">
<title>Node1&#45;&gt;Node11</title>
<path fill="none" stroke="#63b8ff" d="M1386.77,-490.89C1275.85,-479.32 1058.29,-456.63 953.37,-445.69"/>
<polygon fill="#63b8ff" stroke="#63b8ff" points="953.58,-442.19 943.27,-444.64 952.85,-449.16 953.58,-442.19"/>
</g>
<!-- Node7 -->
<g id="node7" class="node">
<title>Node7</title>
<g id="a_node7"><a xlink:title=" ">
<polygon fill="#e0e0e0" stroke="#999999" points="1217.5,-145.5 1176.5,-145.5 1176.5,-126.5 1217.5,-126.5 1217.5,-145.5"/>
<text text-anchor="middle" x="1197" y="-133.5" font-family="Helvetica,sans-Serif" font-size="10.00">string</text>
</a>
</g>
</g>
<!-- Node6&#45;&gt;Node7 -->
<g id="edge6" class="edge">
<title>Node6&#45;&gt;Node7</title>
<path fill="none" stroke="#63b8ff" d="M1978.74,-252.91C1979.59,-237.04 1978.8,-203.27 1959,-187 1902.69,-140.72 1376.58,-157.73 1304,-151 1278.31,-148.62 1249.29,-144.75 1227.96,-141.68"/>
<polygon fill="#63b8ff" stroke="#63b8ff" points="1228.26,-138.18 1217.86,-140.2 1227.25,-145.11 1228.26,-138.18"/>
</g>
<!-- Node8 -->
<g id="node8" class="node">
<title>Node8</title>
<g id="a_node8"><a xlink:title=" ">
<polygon fill="#e0e0e0" stroke="#999999" points="1950,-211.5 1906,-211.5 1906,-192.5 1950,-192.5 1950,-211.5"/>
<text text-anchor="middle" x="1928" y="-199.5" font-family="Helvetica,sans-Serif" font-size="10.00">vector</text>
</a>
</g>
</g>
<!-- Node6&#45;&gt;Node8 -->
<g id="edge7" class="edge">
<title>Node6&#45;&gt;Node8</title>
<path fill="none" stroke="#63b8ff" d="M1970.62,-252.87C1963.09,-244.05 1951.21,-230.16 1941.91,-219.27"/>
<polygon fill="#63b8ff" stroke="#63b8ff" points="1944.57,-217 1935.41,-211.67 1939.24,-221.54 1944.57,-217"/>
</g>
<!-- Node9 -->
<g id="node9" class="node">
<title>Node9</title>
<g id="a_node9"><a xlink:title=" ">
<polygon fill="#e0e0e0" stroke="#999999" points="449.5,-79.5 348.5,-79.5 348.5,-60.5 449.5,-60.5 449.5,-79.5"/>
<text text-anchor="middle" x="399" y="-67.5" font-family="Helvetica,sans-Serif" font-size="10.00">flutter/fml/macros.h</text>
</a>
</g>
</g>
<!-- Node6&#45;&gt;Node9 -->
<g id="edge8" class="edge">
<title>Node6&#45;&gt;Node9</title>
<path fill="none" stroke="#63b8ff" d="M1998.8,-252.88C2048.84,-231.05 2168.24,-171.69 2119,-121 2089.49,-90.62 762.14,-74.82 459.83,-71.62"/>
<polygon fill="#63b8ff" stroke="#63b8ff" points="459.55,-68.11 449.52,-71.51 459.48,-75.11 459.55,-68.11"/>
</g>
<!-- Node10 -->
<g id="node10" class="node">
<title>Node10</title>
<g id="a_node10"><a xlink:title=" ">
<polygon fill="#e0e0e0" stroke="#999999" points="1850,-145.5 1740,-145.5 1740,-126.5 1850,-126.5 1850,-145.5"/>
<text text-anchor="middle" x="1795" y="-133.5" font-family="Helvetica,sans-Serif" font-size="10.00">rapidjson/document.h</text>
</a>
</g>
</g>
<!-- Node6&#45;&gt;Node10 -->
<g id="edge9" class="edge">
<title>Node6&#45;&gt;Node10</title>
<path fill="none" stroke="#63b8ff" d="M1983.65,-252.66C1992.52,-237.55 2007.19,-206.53 1992,-187 1987.35,-181.02 1900.33,-160.57 1843.51,-147.75"/>
<polygon fill="#63b8ff" stroke="#63b8ff" points="1844.15,-144.31 1833.63,-145.53 1842.62,-151.14 1844.15,-144.31"/>
</g>
<!-- Node11&#45;&gt;Node5 -->
<g id="edge12" class="edge">
<title>Node11&#45;&gt;Node5</title>
<path fill="none" stroke="#63b8ff" d="M844.56,-436.48C714.8,-433.42 366.89,-422.62 256,-393 188.21,-374.9 114,-394.17 114,-324 114,-324 114,-324 114,-261.5 114,-223.46 123.65,-179.79 129.86,-155.6"/>
<polygon fill="#63b8ff" stroke="#63b8ff" points="133.32,-156.23 132.51,-145.67 126.55,-154.43 133.32,-156.23"/>
</g>
<!-- Node11&#45;&gt;Node6 -->
<g id="edge13" class="edge">
<title>Node11&#45;&gt;Node6</title>
<path fill="none" stroke="#63b8ff" d="M910.46,-428.98C958.07,-404.81 1100.7,-335.74 1228,-308 1353.85,-280.57 1731.87,-268.98 1898.1,-265.11"/>
<polygon fill="#63b8ff" stroke="#63b8ff" points="1898.34,-268.61 1908.25,-264.88 1898.18,-261.61 1898.34,-268.61"/>
</g>
<!-- Node11&#45;&gt;Node9 -->
<g id="edge14" class="edge">
<title>Node11&#45;&gt;Node9</title>
<path fill="none" stroke="#63b8ff" d="M844.92,-436.62C688.38,-433.54 207.51,-421.82 144,-393 104.79,-375.21 76,-367.06 76,-324 76,-324 76,-324 76,-201 76,-163.88 72.15,-145.55 100,-121 108.89,-113.16 253.38,-91.59 338.19,-79.5"/>
<polygon fill="#63b8ff" stroke="#63b8ff" points="338.81,-82.94 348.22,-78.07 337.83,-76.01 338.81,-82.94"/>
</g>
<!-- Node12 -->
<g id="node12" class="node">
<title>Node12</title>
<g id="a_node12"><a xlink:title=" ">
<polygon fill="#e0e0e0" stroke="#999999" points="428.5,-145.5 393.5,-145.5 393.5,-126.5 428.5,-126.5 428.5,-145.5"/>
<text text-anchor="middle" x="411" y="-133.5" font-family="Helvetica,sans-Serif" font-size="10.00">map</text>
</a>
</g>
</g>
<!-- Node11&#45;&gt;Node12 -->
<g id="edge11" class="edge">
<title>Node11&#45;&gt;Node12</title>
<path fill="none" stroke="#63b8ff" d="M844.74,-435.18C679.02,-426.72 152,-394.29 152,-324 152,-324 152,-324 152,-261.5 152,-147.29 279.42,-196.9 384,-151 384.69,-150.7 385.38,-150.39 386.08,-150.07"/>
<polygon fill="#63b8ff" stroke="#63b8ff" points="387.72,-153.16 395.18,-145.64 384.65,-146.87 387.72,-153.16"/>
</g>
<!-- Node13 -->
<g id="node13" class="node">
<title>Node13</title>
<g id="a_node13"><a xlink:href="window_8h.html" target="_top" xlink:title=" ">
<polygon fill="white" stroke="#666666" points="1441,-393 1345,-393 1345,-374 1441,-374 1441,-393"/>
<text text-anchor="middle" x="1393" y="-381" font-family="Helvetica,sans-Serif" font-size="10.00">wayland/window.h</text>
</a>
</g>
</g>
<!-- Node11&#45;&gt;Node13 -->
<g id="edge15" class="edge">
<title>Node11&#45;&gt;Node13</title>
<path fill="none" stroke="#63b8ff" d="M943.21,-432.27C1035.83,-422.44 1235.61,-401.22 1334.75,-390.69"/>
<polygon fill="#63b8ff" stroke="#63b8ff" points="1335.32,-394.15 1344.89,-389.61 1334.58,-387.19 1335.32,-394.15"/>
</g>
<!-- Node13&#45;&gt;Node5 -->
<g id="edge16" class="edge">
<title>Node13&#45;&gt;Node5</title>
<path fill="none" stroke="#63b8ff" d="M1344.75,-380.29C1147.92,-370.6 406.59,-327.33 204,-217 177.25,-202.43 156.17,-173.1 144.66,-154.29"/>
<polygon fill="#63b8ff" stroke="#63b8ff" points="147.61,-152.4 139.54,-145.55 141.57,-155.95 147.61,-152.4"/>
</g>
<!-- Node13&#45;&gt;Node7 -->
<g id="edge17" class="edge">
<title>Node13&#45;&gt;Node7</title>
<path fill="none" stroke="#63b8ff" d="M1344.62,-375.4C1301.7,-368.08 1243.49,-355.3 1228,-338 1181.49,-286.04 1188.29,-194.62 1193.83,-155.55"/>
<polygon fill="#63b8ff" stroke="#63b8ff" points="1197.3,-156.02 1195.38,-145.6 1190.38,-154.94 1197.3,-156.02"/>
</g>
<!-- Node14 -->
<g id="node14" class="node">
<title>Node14</title>
<g id="a_node14"><a xlink:title=" ">
<polygon fill="#e0e0e0" stroke="#999999" points="1443.5,-332.5 1394.5,-332.5 1394.5,-313.5 1443.5,-313.5 1443.5,-332.5"/>
<text text-anchor="middle" x="1419" y="-320.5" font-family="Helvetica,sans-Serif" font-size="10.00">cassert</text>
</a>
</g>
</g>
<!-- Node13&#45;&gt;Node14 -->
<g id="edge18" class="edge">
<title>Node13&#45;&gt;Node14</title>
<path fill="none" stroke="#63b8ff" d="M1396.84,-373.87C1400.56,-365.49 1406.33,-352.51 1411.05,-341.89"/>
<polygon fill="#63b8ff" stroke="#63b8ff" points="1414.28,-343.23 1415.15,-332.67 1407.89,-340.38 1414.28,-343.23"/>
</g>
<!-- Node15 -->
<g id="node15" class="node">
<title>Node15</title>
<g id="a_node15"><a xlink:title=" ">
<polygon fill="#e0e0e0" stroke="#999999" points="1586.5,-332.5 1461.5,-332.5 1461.5,-313.5 1586.5,-313.5 1586.5,-332.5"/>
<text text-anchor="middle" x="1524" y="-320.5" font-family="Helvetica,sans-Serif" font-size="10.00">agl&#45;shell&#45;client&#45;protocol.h</text>
</a>
</g>
</g>
<!-- Node13&#45;&gt;Node15 -->
<g id="edge19" class="edge">
<title>Node13&#45;&gt;Node15</title>
<path fill="none" stroke="#63b8ff" d="M1412.05,-373.99C1433.97,-364.2 1470.21,-348.02 1495.5,-336.73"/>
<polygon fill="#63b8ff" stroke="#63b8ff" points="1497.22,-339.79 1504.93,-332.52 1494.37,-333.4 1497.22,-339.79"/>
</g>
<!-- Node16 -->
<g id="node16" class="node">
<title>Node16</title>
<g id="a_node16"><a xlink:href="constants_8h.html" target="_top" xlink:title=" ">
<polygon fill="white" stroke="#666666" points="2110,-145.5 2042,-145.5 2042,-126.5 2110,-126.5 2110,-145.5"/>
<text text-anchor="middle" x="2076" y="-133.5" font-family="Helvetica,sans-Serif" font-size="10.00">constants.h</text>
</a>
</g>
</g>
<!-- Node13&#45;&gt;Node16 -->
<g id="edge20" class="edge">
<title>Node13&#45;&gt;Node16</title>
<path fill="none" stroke="#63b8ff" d="M1388.46,-373.77C1381.09,-358.27 1369.01,-325.9 1386,-308 1438.93,-252.24 2015.57,-318.23 2077,-272 2107.93,-248.72 2103.32,-225.01 2096,-187 2093.84,-175.81 2089.21,-163.94 2084.94,-154.57"/>
<polygon fill="#63b8ff" stroke="#63b8ff" points="2088.08,-153.03 2080.59,-145.54 2081.78,-156.07 2088.08,-153.03"/>
</g>
<!-- Node18 -->
<g id="node18" class="node">
<title>Node18</title>
<g id="a_node18"><a xlink:href="backend_8h.html" target="_top" xlink:title=" ">
<polygon fill="white" stroke="#666666" points="1337.5,-332.5 1236.5,-332.5 1236.5,-313.5 1337.5,-313.5 1337.5,-332.5"/>
<text text-anchor="middle" x="1287" y="-320.5" font-family="Helvetica,sans-Serif" font-size="10.00">backend/backend.h</text>
</a>
</g>
</g>
<!-- Node13&#45;&gt;Node18 -->
<g id="edge24" class="edge">
<title>Node13&#45;&gt;Node18</title>
<path fill="none" stroke="#63b8ff" d="M1377.36,-373.87C1360.06,-364.32 1331.95,-348.81 1311.67,-337.62"/>
<polygon fill="#63b8ff" stroke="#63b8ff" points="1313.15,-334.43 1302.7,-332.67 1309.77,-340.56 1313.15,-334.43"/>
</g>
<!-- Node42 -->
<g id="node42" class="node">
<title>Node42</title>
<g id="a_node42"><a xlink:title=" ">
<polygon fill="#e0e0e0" stroke="#999999" points="1707,-338 1605,-338 1605,-308 1707,-308 1707,-338"/>
<text text-anchor="start" x="1613" y="-326" font-family="Helvetica,sans-Serif" font-size="10.00">ivi&#45;application&#45;client</text>
<text text-anchor="middle" x="1656" y="-315" font-family="Helvetica,sans-Serif" font-size="10.00">&#45;protocol.h</text>
</a>
</g>
</g>
<!-- Node13&#45;&gt;Node42 -->
<g id="edge80" class="edge">
<title>Node13&#45;&gt;Node42</title>
<path fill="none" stroke="#63b8ff" d="M1432.71,-373.96C1471.58,-365.56 1532.74,-352.26 1594.96,-338.22"/>
<polygon fill="#63b8ff" stroke="#63b8ff" points="1595.97,-341.58 1604.95,-335.96 1594.42,-334.75 1595.97,-341.58"/>
</g>
<!-- Node43 -->
<g id="node43" class="node">
<title>Node43</title>
<g id="a_node43"><a xlink:title=" ">
<polygon fill="#e0e0e0" stroke="#999999" points="1842.5,-332.5 1725.5,-332.5 1725.5,-313.5 1842.5,-313.5 1842.5,-332.5"/>
<text text-anchor="middle" x="1784" y="-320.5" font-family="Helvetica,sans-Serif" font-size="10.00">ivi&#45;wm&#45;client&#45;protocol.h</text>
</a>
</g>
</g>
<!-- Node13&#45;&gt;Node43 -->
<g id="edge81" class="edge">
<title>Node13&#45;&gt;Node43</title>
<path fill="none" stroke="#63b8ff" d="M1441.04,-376.89C1504.26,-369.27 1618.79,-354.69 1716,-338 1722.16,-336.94 1728.61,-335.74 1734.99,-334.49"/>
<polygon fill="#63b8ff" stroke="#63b8ff" points="1735.77,-337.91 1744.89,-332.51 1734.4,-331.04 1735.77,-337.91"/>
</g>
<!-- Node44 -->
<g id="node44" class="node">
<title>Node44</title>
<g id="a_node44"><a xlink:title=" ">
<polygon fill="#e0e0e0" stroke="#999999" points="1989,-332.5 1861,-332.5 1861,-313.5 1989,-313.5 1989,-332.5"/>
<text text-anchor="middle" x="1925" y="-320.5" font-family="Helvetica,sans-Serif" font-size="10.00">xdg&#45;shell&#45;client&#45;protocol.h</text>
</a>
</g>
</g>
<!-- Node13&#45;&gt;Node44 -->
<g id="edge82" class="edge">
<title>Node13&#45;&gt;Node44</title>
<path fill="none" stroke="#63b8ff" d="M1441.08,-379.31C1524.84,-373.44 1702.82,-359.49 1852,-338 1859.2,-336.96 1866.77,-335.7 1874.2,-334.37"/>
<polygon fill="#63b8ff" stroke="#63b8ff" points="1874.99,-337.78 1884.19,-332.52 1873.72,-330.9 1874.99,-337.78"/>
</g>
<!-- Node16&#45;&gt;Node2 -->
<g id="edge21" class="edge">
<title>Node16&#45;&gt;Node2</title>
<path fill="none" stroke="#63b8ff" d="M2054,-126.46C2047.35,-124.26 2039.97,-122.18 2033,-121 1634.56,-53.72 612.39,-158.23 215,-85 211.92,-84.43 208.75,-83.65 205.62,-82.75"/>
<polygon fill="#63b8ff" stroke="#63b8ff" points="206.49,-79.35 195.9,-79.55 204.3,-86 206.49,-79.35"/>
</g>
<!-- Node16&#45;&gt;Node3 -->
<g id="edge22" class="edge">
<title>Node16&#45;&gt;Node3</title>
<path fill="none" stroke="#63b8ff" d="M2069.39,-126.37C2062.98,-117.99 2052.97,-104.93 2044.29,-93.59"/>
<polygon fill="#63b8ff" stroke="#63b8ff" points="2046.85,-91.17 2037.99,-85.36 2041.29,-95.43 2046.85,-91.17"/>
</g>
<!-- Node17 -->
<g id="node17" class="node">
<title>Node17</title>
<g id="a_node17"><a xlink:title=" ">
<polygon fill="#e0e0e0" stroke="#999999" points="2144,-79.5 2106,-79.5 2106,-60.5 2144,-60.5 2144,-79.5"/>
<text text-anchor="middle" x="2125" y="-67.5" font-family="Helvetica,sans-Serif" font-size="10.00">array</text>
</a>
</g>
</g>
<!-- Node16&#45;&gt;Node17 -->
<g id="edge23" class="edge">
<title>Node16&#45;&gt;Node17</title>
<path fill="none" stroke="#63b8ff" d="M2082.61,-126.37C2090.09,-116.59 2102.47,-100.42 2111.93,-88.08"/>
<polygon fill="#63b8ff" stroke="#63b8ff" points="2114.88,-89.97 2118.18,-79.91 2109.32,-85.72 2114.88,-89.97"/>
</g>
<!-- Node18&#45;&gt;Node3 -->
<g id="edge25" class="edge">
<title>Node18&#45;&gt;Node3</title>
<path fill="none" stroke="#63b8ff" d="M1333.74,-313.43C1346.44,-311.36 1360.21,-309.36 1373,-308 1450.88,-299.69 2011.66,-315.19 2077,-272 2137.11,-232.27 2174.9,-181.65 2136,-121 2126.88,-106.78 2112.58,-96.55 2097.32,-89.21"/>
<polygon fill="#63b8ff" stroke="#63b8ff" points="2098.28,-85.81 2087.72,-85 2095.47,-92.22 2098.28,-85.81"/>
</g>
<!-- Node18&#45;&gt;Node16 -->
<g id="edge26" class="edge">
<title>Node18&#45;&gt;Node16</title>
<path fill="none" stroke="#63b8ff" d="M1321.56,-313.47C1331.35,-311.36 1342.04,-309.32 1352,-308 1429.76,-297.71 1999.13,-324.95 2057,-272 2089.22,-242.52 2084.87,-185.41 2079.92,-155.81"/>
<polygon fill="#63b8ff" stroke="#63b8ff" points="2083.29,-154.79 2078,-145.6 2076.41,-156.08 2083.29,-154.79"/>
</g>
<!-- Node19 -->
<g id="node19" class="node">
<title>Node19</title>
<g id="a_node19"><a xlink:href="engine_8h.html" target="_top" xlink:title=" ">
<polygon fill="white" stroke="#666666" points="920.5,-272 867.5,-272 867.5,-253 920.5,-253 920.5,-272"/>
<text text-anchor="middle" x="894" y="-260" font-family="Helvetica,sans-Serif" font-size="10.00">engine.h</text>
</a>
</g>
</g>
<!-- Node18&#45;&gt;Node19 -->
<g id="edge27" class="edge">
<title>Node18&#45;&gt;Node19</title>
<path fill="none" stroke="#63b8ff" d="M1236.22,-315.12C1155.82,-303.6 1001.36,-280.6 930.73,-269.61"/>
<polygon fill="#63b8ff" stroke="#63b8ff" points="930.96,-266.1 920.54,-268.02 929.88,-273.02 930.96,-266.1"/>
</g>
<!-- Node19&#45;&gt;Node2 -->
<g id="edge29" class="edge">
<title>Node19&#45;&gt;Node2</title>
<path fill="none" stroke="#63b8ff" d="M867.3,-261.74C764.24,-262.36 392.7,-261.37 285,-217 274.58,-212.71 214.56,-160.16 208,-151 194.43,-132.04 185.52,-106.52 180.63,-89.44"/>
<polygon fill="#63b8ff" stroke="#63b8ff" points="183.96,-88.35 177.99,-79.6 177.2,-90.17 183.96,-88.35"/>
</g>
<!-- Node19&#45;&gt;Node3 -->
<g id="edge32" class="edge">
<title>Node19&#45;&gt;Node3</title>
<path fill="none" stroke="#63b8ff" d="M920.69,-261.38C1025.27,-260.62 1417.22,-255.25 1737,-217 1808.84,-208.41 1825.73,-199.46 1897,-187 1946.23,-178.39 2086.61,-189.06 2119,-151 2139.16,-127.3 2105.84,-104.45 2073.81,-89.27"/>
<polygon fill="#63b8ff" stroke="#63b8ff" points="2074.96,-85.96 2064.41,-85.01 2072.07,-92.33 2074.96,-85.96"/>
</g>
<!-- Node19&#45;&gt;Node5 -->
<g id="edge35" class="edge">
<title>Node19&#45;&gt;Node5</title>
<path fill="none" stroke="#63b8ff" d="M867.46,-261.5C761.45,-261.24 368.48,-257.48 252,-217 241.32,-213.29 185.63,-173.65 155.1,-151.6"/>
<polygon fill="#63b8ff" stroke="#63b8ff" points="157.01,-148.66 146.85,-145.63 152.9,-154.33 157.01,-148.66"/>
</g>
<!-- Node19&#45;&gt;Node7 -->
<g id="edge38" class="edge">
<title>Node19&#45;&gt;Node7</title>
<path fill="none" stroke="#63b8ff" d="M920.62,-259.74C978.58,-255.45 1113.98,-242.88 1151,-217 1172.29,-202.11 1185.07,-173.98 1191.57,-155.36"/>
<polygon fill="#63b8ff" stroke="#63b8ff" points="1194.96,-156.26 1194.69,-145.67 1188.3,-154.12 1194.96,-156.26"/>
</g>
<!-- Node19&#45;&gt;Node8 -->
<g id="edge39" class="edge">
<title>Node19&#45;&gt;Node8</title>
<path fill="none" stroke="#63b8ff" d="M920.72,-261.48C1059.46,-261.21 1698.75,-257.73 1892,-217 1894.53,-216.47 1897.11,-215.78 1899.67,-214.99"/>
<polygon fill="#63b8ff" stroke="#63b8ff" points="1901.03,-218.22 1909.3,-211.6 1898.7,-211.62 1901.03,-218.22"/>
</g>
<!-- Node19&#45;&gt;Node11 -->
<g id="edge79" class="edge">
<title>Node19&#45;&gt;Node11</title>
<path fill="none" stroke="#63b8ff" d="M894,-272.14C894,-298.95 894,-381.12 894,-418.56"/>
<polygon fill="#63b8ff" stroke="#63b8ff" points="890.5,-418.63 894,-428.63 897.5,-418.63 890.5,-418.63"/>
</g>
<!-- Node19&#45;&gt;Node12 -->
<g id="edge34" class="edge">
<title>Node19&#45;&gt;Node12</title>
<path fill="none" stroke="#63b8ff" d="M894.7,-252.96C895.47,-237.18 894.57,-203.55 875,-187 801.45,-124.79 536.39,-174.63 443,-151 441.1,-150.52 439.18,-149.94 437.26,-149.29"/>
<polygon fill="#63b8ff" stroke="#63b8ff" points="438.49,-146.01 427.9,-145.63 435.94,-152.53 438.49,-146.01"/>
</g>
<!-- Node19&#45;&gt;Node16 -->
<g id="edge41" class="edge">
<title>Node19&#45;&gt;Node16</title>
<path fill="none" stroke="#63b8ff" d="M920.81,-261.05C1047.17,-258.47 1595.42,-242.32 2033,-151 2036.23,-150.33 2039.55,-149.5 2042.86,-148.58"/>
<polygon fill="#63b8ff" stroke="#63b8ff" points="2044.03,-151.88 2052.59,-145.64 2042.01,-145.18 2044.03,-151.88"/>
</g>
<!-- Node19&#45;&gt;Node18 -->
<g id="edge40" class="edge">
<title>Node19&#45;&gt;Node18</title>
<path fill="none" stroke="#63b8ff" d="M920.57,-266.95C982.95,-275.68 1139.4,-298.88 1226.4,-312.21"/>
<polygon fill="#63b8ff" stroke="#63b8ff" points="1225.98,-315.68 1236.4,-313.74 1227.05,-308.76 1225.98,-315.68"/>
</g>
<!-- Node20 -->
<g id="node20" class="node">
<title>Node20</title>
<g id="a_node20"><a xlink:title=" ">
<polygon fill="#e0e0e0" stroke="#999999" points="353.5,-211.5 294.5,-211.5 294.5,-192.5 353.5,-192.5 353.5,-211.5"/>
<text text-anchor="middle" x="324" y="-199.5" font-family="Helvetica,sans-Serif" font-size="10.00">functional</text>
</a>
</g>
</g>
<!-- Node19&#45;&gt;Node20 -->
<g id="edge28" class="edge">
<title>Node19&#45;&gt;Node20</title>
<path fill="none" stroke="#63b8ff" d="M867.4,-261.7C789.1,-261.79 553.06,-258.33 363,-217 360.17,-216.38 357.26,-215.61 354.37,-214.76"/>
<polygon fill="#63b8ff" stroke="#63b8ff" points="355.35,-211.39 344.76,-211.58 353.15,-218.04 355.35,-211.39"/>
</g>
<!-- Node21 -->
<g id="node21" class="node">
<title>Node21</title>
<g id="a_node21"><a xlink:title=" ">
<polygon fill="#e0e0e0" stroke="#999999" points="444,-211.5 372,-211.5 372,-192.5 444,-192.5 444,-211.5"/>
<text text-anchor="middle" x="408" y="-199.5" font-family="Helvetica,sans-Serif" font-size="10.00">GLES2/gl2.h</text>
</a>
</g>
</g>
<!-- Node19&#45;&gt;Node21 -->
<g id="edge30" class="edge">
<title>Node19&#45;&gt;Node21</title>
<path fill="none" stroke="#63b8ff" d="M867.38,-260.68C798.3,-258.14 607.95,-248.59 453,-217 449.53,-216.29 445.94,-215.42 442.38,-214.47"/>
<polygon fill="#63b8ff" stroke="#63b8ff" points="443.1,-211.03 432.52,-211.61 441.15,-217.76 443.1,-211.03"/>
</g>
<!-- Node22 -->
<g id="node22" class="node">
<title>Node22</title>
<g id="a_node22"><a xlink:title=" ">
<polygon fill="#e0e0e0" stroke="#999999" points="587.5,-211.5 462.5,-211.5 462.5,-192.5 587.5,-192.5 587.5,-211.5"/>
<text text-anchor="middle" x="525" y="-199.5" font-family="Helvetica,sans-Serif" font-size="10.00">flutter/encodable_value.h</text>
</a>
</g>
</g>
<!-- Node19&#45;&gt;Node22 -->
<g id="edge31" class="edge">
<title>Node19&#45;&gt;Node22</title>
<path fill="none" stroke="#63b8ff" d="M867.31,-257.9C815.23,-250.78 696.43,-234.11 597,-217 590.66,-215.91 584.02,-214.7 577.44,-213.47"/>
<polygon fill="#63b8ff" stroke="#63b8ff" points="577.68,-209.95 567.2,-211.52 576.37,-216.83 577.68,-209.95"/>
</g>
<!-- Node23 -->
<g id="node23" class="node">
<title>Node23</title>
<g id="a_node23"><a xlink:title=" ">
<polygon fill="#e0e0e0" stroke="#999999" points="668,-211.5 606,-211.5 606,-192.5 668,-192.5 668,-211.5"/>
<text text-anchor="middle" x="637" y="-199.5" font-family="Helvetica,sans-Serif" font-size="10.00">filesystem</text>
</a>
</g>
</g>
<!-- Node19&#45;&gt;Node23 -->
<g id="edge33" class="edge">
<title>Node19&#45;&gt;Node23</title>
<path fill="none" stroke="#63b8ff" d="M867.34,-257.22C826.13,-250.34 744.65,-235.68 677,-217 674.52,-216.31 671.97,-215.55 669.41,-214.75"/>
<polygon fill="#63b8ff" stroke="#63b8ff" points="670.27,-211.35 659.68,-211.53 668.07,-218 670.27,-211.35"/>
</g>
<!-- Node24 -->
<g id="node24" class="node">
<title>Node24</title>
<g id="a_node24"><a xlink:title=" ">
<polygon fill="#e0e0e0" stroke="#999999" points="730,-211.5 686,-211.5 686,-192.5 730,-192.5 730,-211.5"/>
<text text-anchor="middle" x="708" y="-199.5" font-family="Helvetica,sans-Serif" font-size="10.00">mutex</text>
</a>
</g>
</g>
<!-- Node19&#45;&gt;Node24 -->
<g id="edge36" class="edge">
<title>Node19&#45;&gt;Node24</title>
<path fill="none" stroke="#63b8ff" d="M867.23,-254.9C836.24,-247.01 783.84,-232.85 740,-217 738.61,-216.5 737.19,-215.96 735.77,-215.41"/>
<polygon fill="#63b8ff" stroke="#63b8ff" points="737.03,-212.14 726.45,-211.56 734.35,-218.61 737.03,-212.14"/>
</g>
<!-- Node25 -->
<g id="node25" class="node">
<title>Node25</title>
<g id="a_node25"><a xlink:title=" ">
<polygon fill="#e0e0e0" stroke="#999999" points="791.5,-211.5 748.5,-211.5 748.5,-192.5 791.5,-192.5 791.5,-211.5"/>
<text text-anchor="middle" x="770" y="-199.5" font-family="Helvetica,sans-Serif" font-size="10.00">queue</text>
</a>
</g>
</g>
<!-- Node19&#45;&gt;Node25 -->
<g id="edge37" class="edge">
<title>Node19&#45;&gt;Node25</title>
<path fill="none" stroke="#63b8ff" d="M875.97,-252.99C855.31,-243.25 821.22,-227.16 797.3,-215.88"/>
<polygon fill="#63b8ff" stroke="#63b8ff" points="798.59,-212.62 788.05,-211.52 795.6,-218.95 798.59,-212.62"/>
</g>
<!-- Node26 -->
<g id="node26" class="node">
<title>Node26</title>
<g id="a_node26"><a xlink:href="logging_8h.html" target="_top" xlink:title=" ">
<polygon fill="white" stroke="#666666" points="866,-211.5 810,-211.5 810,-192.5 866,-192.5 866,-211.5"/>
<text text-anchor="middle" x="838" y="-199.5" font-family="Helvetica,sans-Serif" font-size="10.00">logging.h</text>
</a>
</g>
</g>
<!-- Node19&#45;&gt;Node26 -->
<g id="edge42" class="edge">
<title>Node19&#45;&gt;Node26</title>
<path fill="none" stroke="#63b8ff" d="M885.74,-252.87C877.22,-243.97 863.74,-229.89 853.27,-218.95"/>
<polygon fill="#63b8ff" stroke="#63b8ff" points="855.74,-216.47 846.3,-211.67 850.68,-221.31 855.74,-216.47"/>
</g>
<!-- Node31 -->
<g id="node31" class="node">
<title>Node31</title>
<g id="a_node31"><a xlink:href="platform__channel_8h.html" target="_top" xlink:title=" ">
<polygon fill="white" stroke="#666666" points="1021.5,-211.5 922.5,-211.5 922.5,-192.5 1021.5,-192.5 1021.5,-211.5"/>
<text text-anchor="middle" x="972" y="-199.5" font-family="Helvetica,sans-Serif" font-size="10.00">platform_channel.h</text>
</a>
</g>
</g>
<!-- Node19&#45;&gt;Node31 -->
<g id="edge49" class="edge">
<title>Node19&#45;&gt;Node31</title>
<path fill="none" stroke="#63b8ff" d="M905.51,-252.87C917.84,-243.62 937.62,-228.78 952.41,-217.69"/>
<polygon fill="#63b8ff" stroke="#63b8ff" points="954.54,-220.47 960.44,-211.67 950.34,-214.87 954.54,-220.47"/>
</g>
<!-- Node32 -->
<g id="node32" class="node">
<title>Node32</title>
<g id="a_node32"><a xlink:href="key__event_8h.html" target="_top" xlink:title=" ">
<polygon fill="white" stroke="#666666" points="1142,-217 1040,-217 1040,-187 1142,-187 1142,-217"/>
<text text-anchor="start" x="1048" y="-205" font-family="Helvetica,sans-Serif" font-size="10.00">static_plugins/key</text>
<text text-anchor="middle" x="1091" y="-194" font-family="Helvetica,sans-Serif" font-size="10.00">_event/key_event.h</text>
</a>
</g>
</g>
<!-- Node19&#45;&gt;Node32 -->
<g id="edge53" class="edge">
<title>Node19&#45;&gt;Node32</title>
<path fill="none" stroke="#63b8ff" d="M920.57,-253.61C949.49,-245.02 996.61,-231.03 1033.98,-219.93"/>
<polygon fill="#63b8ff" stroke="#63b8ff" points="1035.15,-223.24 1043.74,-217.03 1033.16,-216.52 1035.15,-223.24"/>
</g>
<!-- Node37 -->
<g id="node37" class="node">
<title>Node37</title>
<g id="a_node37"><a xlink:href="text__input_8h.html" target="_top" xlink:title=" ">
<polygon fill="white" stroke="#666666" points="1333.5,-217 1236.5,-217 1236.5,-187 1333.5,-187 1333.5,-217"/>
<text text-anchor="start" x="1244.5" y="-205" font-family="Helvetica,sans-Serif" font-size="10.00">static_plugins/text</text>
<text text-anchor="middle" x="1285" y="-194" font-family="Helvetica,sans-Serif" font-size="10.00">_input/text_input.h</text>
</a>
</g>
</g>
<!-- Node19&#45;&gt;Node37 -->
<g id="edge65" class="edge">
<title>Node19&#45;&gt;Node37</title>
<path fill="none" stroke="#63b8ff" d="M920.57,-257.53C982.92,-248.2 1139.85,-224.72 1226.05,-211.82"/>
<polygon fill="#63b8ff" stroke="#63b8ff" points="1226.83,-215.24 1236.2,-210.3 1225.79,-208.32 1226.83,-215.24"/>
</g>
<!-- Node26&#45;&gt;Node9 -->
<g id="edge48" class="edge">
<title>Node26&#45;&gt;Node9</title>
<path fill="none" stroke="#63b8ff" d="M818.35,-192.37C812.83,-190.27 806.77,-188.28 801,-187 748.02,-175.28 350.93,-190.76 314,-151 290.72,-125.93 335.11,-99.13 368.05,-83.79"/>
<polygon fill="#63b8ff" stroke="#63b8ff" points="369.7,-86.88 377.39,-79.59 366.83,-80.5 369.7,-86.88"/>
</g>
<!-- Node27 -->
<g id="node27" class="node">
<title>Node27</title>
<g id="a_node27"><a xlink:title=" ">
<polygon fill="#e0e0e0" stroke="#999999" points="375,-145.5 323,-145.5 323,-126.5 375,-126.5 375,-145.5"/>
<text text-anchor="middle" x="349" y="-133.5" font-family="Helvetica,sans-Serif" font-size="10.00">sstream</text>
</a>
</g>
</g>
<!-- Node26&#45;&gt;Node27 -->
<g id="edge43" class="edge">
<title>Node26&#45;&gt;Node27</title>
<path fill="none" stroke="#63b8ff" d="M818.34,-192.41C812.82,-190.32 806.76,-188.31 801,-187 619.62,-145.69 564.98,-194.01 384,-151 381.69,-150.45 379.33,-149.78 376.99,-149.02"/>
<polygon fill="#63b8ff" stroke="#63b8ff" points="378.15,-145.72 367.56,-145.6 375.76,-152.3 378.15,-145.72"/>
</g>
<!-- Node28 -->
<g id="node28" class="node">
<title>Node28</title>
<g id="a_node28"><a xlink:href="dlt_8h.html" target="_top" xlink:title=" ">
<polygon fill="white" stroke="#666666" points="266.5,-145.5 217.5,-145.5 217.5,-126.5 266.5,-126.5 266.5,-145.5"/>
<text text-anchor="middle" x="242" y="-133.5" font-family="Helvetica,sans-Serif" font-size="10.00">dlt/dlt.h</text>
</a>
</g>
</g>
<!-- Node26&#45;&gt;Node28 -->
<g id="edge44" class="edge">
<title>Node26&#45;&gt;Node28</title>
<path fill="none" stroke="#63b8ff" d="M818.74,-192.49C813.12,-190.35 806.9,-188.29 801,-187 574.69,-137.48 507.72,-198.59 281,-151 278.16,-150.4 275.25,-149.65 272.36,-148.8"/>
<polygon fill="#63b8ff" stroke="#63b8ff" points="273.34,-145.44 262.74,-145.64 271.15,-152.09 273.34,-145.44"/>
</g>
<!-- Node28&#45;&gt;Node9 -->
<g id="edge47" class="edge">
<title>Node28&#45;&gt;Node9</title>
<path fill="none" stroke="#63b8ff" d="M263.17,-126.37C290.29,-115.32 337.46,-96.08 368.46,-83.45"/>
<polygon fill="#63b8ff" stroke="#63b8ff" points="369.97,-86.61 377.91,-79.6 367.33,-80.13 369.97,-86.61"/>
</g>
<!-- Node29 -->
<g id="node29" class="node">
<title>Node29</title>
<g id="a_node29"><a xlink:href="libdlt_8h.html" target="_top" xlink:title=" ">
<polygon fill="white" stroke="#666666" points="283.5,-79.5 224.5,-79.5 224.5,-60.5 283.5,-60.5 283.5,-79.5"/>
<text text-anchor="middle" x="254" y="-67.5" font-family="Helvetica,sans-Serif" font-size="10.00">dlt/libdlt.h</text>
</a>
</g>
</g>
<!-- Node28&#45;&gt;Node29 -->
<g id="edge45" class="edge">
<title>Node28&#45;&gt;Node29</title>
<path fill="none" stroke="#63b8ff" d="M243.62,-126.37C245.36,-117.07 248.19,-101.98 250.46,-89.9"/>
<polygon fill="#63b8ff" stroke="#63b8ff" points="253.93,-90.38 252.33,-79.91 247.05,-89.09 253.93,-90.38"/>
</g>
<!-- Node30 -->
<g id="node30" class="node">
<title>Node30</title>
<g id="a_node30"><a xlink:title=" ">
<polygon fill="#e0e0e0" stroke="#999999" points="277,-19 231,-19 231,0 277,0 277,-19"/>
<text text-anchor="middle" x="254" y="-7" font-family="Helvetica,sans-Serif" font-size="10.00">cstdint</text>
</a>
</g>
</g>
<!-- Node29&#45;&gt;Node30 -->
<g id="edge46" class="edge">
<title>Node29&#45;&gt;Node30</title>
<path fill="none" stroke="#63b8ff" d="M254,-60.37C254,-52.25 254,-39.81 254,-29.39"/>
<polygon fill="#63b8ff" stroke="#63b8ff" points="257.5,-29.17 254,-19.17 250.5,-29.17 257.5,-29.17"/>
</g>
<!-- Node31&#45;&gt;Node3 -->
<g id="edge52" class="edge">
<title>Node31&#45;&gt;Node3</title>
<path fill="none" stroke="#63b8ff" d="M930.06,-192.48C919.32,-190.49 907.76,-188.51 897,-187 854.78,-181.08 543.7,-182.53 515,-151 506.03,-141.14 505.73,-130.58 515,-121 565.65,-68.65 1664.21,-69.48 1956.24,-70.64"/>
<polygon fill="#63b8ff" stroke="#63b8ff" points="1956.27,-74.14 1966.28,-70.68 1956.3,-67.14 1956.27,-74.14"/>
</g>
<!-- Node31&#45;&gt;Node7 -->
<g id="edge51" class="edge">
<title>Node31&#45;&gt;Node7</title>
<path fill="none" stroke="#63b8ff" d="M1006.85,-192.44C1058.77,-179.62 1151.95,-156.39 1167,-151 1168.22,-150.56 1169.45,-150.1 1170.69,-149.61"/>
<polygon fill="#63b8ff" stroke="#63b8ff" points="1172.3,-152.73 1180.1,-145.56 1169.53,-146.3 1172.3,-152.73"/>
</g>
<!-- Node31&#45;&gt;Node12 -->
<g id="edge50" class="edge">
<title>Node31&#45;&gt;Node12</title>
<path fill="none" stroke="#63b8ff" d="M937.28,-192.49C927.83,-190.43 917.56,-188.41 908,-187 702.93,-156.78 644.1,-201.25 443,-151 441.06,-150.51 439.09,-149.92 437.12,-149.26"/>
<polygon fill="#63b8ff" stroke="#63b8ff" points="438.15,-145.9 427.57,-145.5 435.59,-152.42 438.15,-145.9"/>
</g>
<!-- Node32&#45;&gt;Node3 -->
<g id="edge62" class="edge">
<title>Node32&#45;&gt;Node3</title>
<path fill="none" stroke="#63b8ff" d="M1039.95,-189.03C1036.92,-188.34 1033.92,-187.66 1031,-187 953.54,-169.57 810.08,-178.33 865,-121 902.85,-81.49 1709.69,-73.04 1956.14,-71.38"/>
<polygon fill="#63b8ff" stroke="#63b8ff" points="1956.43,-74.88 1966.41,-71.31 1956.38,-67.88 1956.43,-74.88"/>
</g>
<!-- Node32&#45;&gt;Node5 -->
<g id="edge55" class="edge">
<title>Node32&#45;&gt;Node5</title>
<path fill="none" stroke="#63b8ff" d="M1039.73,-188.38C1036.79,-187.86 1033.86,-187.39 1031,-187 668.28,-137.19 571.64,-193.59 208,-151 195.91,-149.58 182.81,-147.31 171.09,-145"/>
<polygon fill="#63b8ff" stroke="#63b8ff" points="171.71,-141.56 161.21,-142.99 170.31,-148.41 171.71,-141.56"/>
</g>
<!-- Node32&#45;&gt;Node7 -->
<g id="edge56" class="edge">
<title>Node32&#45;&gt;Node7</title>
<path fill="none" stroke="#63b8ff" d="M1114.26,-186.95C1132.11,-176.18 1156.62,-161.38 1174.33,-150.69"/>
<polygon fill="#63b8ff" stroke="#63b8ff" points="1176.14,-153.68 1182.89,-145.52 1172.52,-147.69 1176.14,-153.68"/>
</g>
<!-- Node32&#45;&gt;Node9 -->
<g id="edge60" class="edge">
<title>Node32&#45;&gt;Node9</title>
<path fill="none" stroke="#63b8ff" d="M1039.72,-188.47C1036.78,-187.93 1033.86,-187.43 1031,-187 803.67,-152.77 731.98,-226.95 515,-151 475.05,-137.02 436.11,-105.39 415.07,-86.36"/>
<polygon fill="#63b8ff" stroke="#63b8ff" points="417.39,-83.74 407.67,-79.51 412.63,-88.87 417.39,-83.74"/>
</g>
<!-- Node32&#45;&gt;Node10 -->
<g id="edge61" class="edge">
<title>Node32&#45;&gt;Node10</title>
<path fill="none" stroke="#63b8ff" d="M1142.04,-195.41C1167.79,-192.69 1199.54,-189.47 1228,-187 1451.29,-167.61 1509.17,-183.03 1731,-151 1737.28,-150.09 1743.86,-148.92 1750.31,-147.63"/>
<polygon fill="#63b8ff" stroke="#63b8ff" points="1751.22,-151.02 1760.29,-145.55 1749.78,-144.17 1751.22,-151.02"/>
</g>
<!-- Node32&#45;&gt;Node12 -->
<g id="edge54" class="edge">
<title>Node32&#45;&gt;Node12</title>
<path fill="none" stroke="#63b8ff" d="M1039.72,-188.44C1036.78,-187.9 1033.86,-187.42 1031,-187 771.93,-149.12 697.52,-212.42 443,-151 441.05,-150.53 439.08,-149.95 437.11,-149.29"/>
<polygon fill="#63b8ff" stroke="#63b8ff" points="438.14,-145.94 427.55,-145.56 435.59,-152.46 438.14,-145.94"/>
</g>
<!-- Node32&#45;&gt;Node16 -->
<g id="edge64" class="edge">
<title>Node32&#45;&gt;Node16</title>
<path fill="none" stroke="#63b8ff" d="M1142.01,-195.09C1167.76,-192.28 1199.51,-189.09 1228,-187 1585.17,-160.79 1680.63,-215.02 2033,-151 2036.51,-150.36 2040.12,-149.51 2043.69,-148.54"/>
<polygon fill="#63b8ff" stroke="#63b8ff" points="2044.97,-151.81 2053.53,-145.58 2042.95,-145.11 2044.97,-151.81"/>
</g>
<!-- Node33 -->
<g id="node33" class="node">
<title>Node33</title>
<g id="a_node33"><a xlink:title=" ">
<polygon fill="#e0e0e0" stroke="#999999" points="636.5,-151 523.5,-151 523.5,-121 636.5,-121 636.5,-151"/>
<text text-anchor="start" x="531.5" y="-139" font-family="Helvetica,sans-Serif" font-size="10.00">flutter/basic_message</text>
<text text-anchor="middle" x="580" y="-128" font-family="Helvetica,sans-Serif" font-size="10.00">_channel.h</text>
</a>
</g>
</g>
<!-- Node32&#45;&gt;Node33 -->
<g id="edge57" class="edge">
<title>Node32&#45;&gt;Node33</title>
<path fill="none" stroke="#63b8ff" d="M1039.7,-188.55C1036.77,-187.99 1033.85,-187.46 1031,-187 864.6,-159.94 817.68,-176.23 646.89,-151"/>
<polygon fill="#63b8ff" stroke="#63b8ff" points="647.21,-147.51 636.81,-149.49 646.17,-154.43 647.21,-147.51"/>
</g>
<!-- Node34 -->
<g id="node34" class="node">
<title>Node34</title>
<g id="a_node34"><a xlink:title=" ">
<polygon fill="#e0e0e0" stroke="#999999" points="1006,-145.5 874,-145.5 874,-126.5 1006,-126.5 1006,-145.5"/>
<text text-anchor="middle" x="940" y="-133.5" font-family="Helvetica,sans-Serif" font-size="10.00">flutter/binary_messenger.h</text>
</a>
</g>
</g>
<!-- Node32&#45;&gt;Node34 -->
<g id="edge58" class="edge">
<title>Node32&#45;&gt;Node34</title>
<path fill="none" stroke="#63b8ff" d="M1057.86,-186.95C1031.5,-175.78 994.94,-160.29 969.56,-149.53"/>
<polygon fill="#63b8ff" stroke="#63b8ff" points="970.67,-146.2 960.1,-145.52 967.94,-152.64 970.67,-146.2"/>
</g>
<!-- Node35 -->
<g id="node35" class="node">
<title>Node35</title>
<g id="a_node35"><a xlink:title=" ">
<polygon fill="#e0e0e0" stroke="#999999" points="817.5,-151 654.5,-151 654.5,-121 817.5,-121 817.5,-151"/>
<text text-anchor="start" x="662.5" y="-139" font-family="Helvetica,sans-Serif" font-size="10.00">flutter/shell/platform</text>
<text text-anchor="middle" x="736" y="-128" font-family="Helvetica,sans-Serif" font-size="10.00">/common/json_message_codec.h</text>
</a>
</g>
</g>
<!-- Node32&#45;&gt;Node35 -->
<g id="edge59" class="edge">
<title>Node32&#45;&gt;Node35</title>
<path fill="none" stroke="#63b8ff" d="M1039.98,-188.87C1036.95,-188.22 1033.94,-187.59 1031,-187 963.12,-173.34 885.96,-160.35 827.58,-151.04"/>
<polygon fill="#63b8ff" stroke="#63b8ff" points="828.06,-147.57 817.64,-149.46 826.96,-154.48 828.06,-147.57"/>
</g>
<!-- Node36 -->
<g id="node36" class="node">
<title>Node36</title>
<g id="a_node36"><a xlink:title=" ">
<polygon fill="#e0e0e0" stroke="#999999" points="1158,-145.5 1024,-145.5 1024,-126.5 1158,-126.5 1158,-145.5"/>
<text text-anchor="middle" x="1091" y="-133.5" font-family="Helvetica,sans-Serif" font-size="10.00">xkbcommon/xkbcommon.h</text>
</a>
</g>
</g>
<!-- Node32&#45;&gt;Node36 -->
<g id="edge63" class="edge">
<title>Node32&#45;&gt;Node36</title>
<path fill="none" stroke="#63b8ff" d="M1091,-186.8C1091,-177.7 1091,-165.79 1091,-155.9"/>
<polygon fill="#63b8ff" stroke="#63b8ff" points="1094.5,-155.84 1091,-145.84 1087.5,-155.84 1094.5,-155.84"/>
</g>
<!-- Node37&#45;&gt;Node3 -->
<g id="edge76" class="edge">
<title>Node37&#45;&gt;Node3</title>
<path fill="none" stroke="#63b8ff" d="M1283.78,-186.89C1283.06,-168.61 1284.95,-137.16 1304,-121 1352.99,-79.46 1783.85,-72.38 1956.2,-71.21"/>
<polygon fill="#63b8ff" stroke="#63b8ff" points="1956.46,-74.71 1966.43,-71.15 1956.41,-67.71 1956.46,-74.71"/>
</g>
<!-- Node37&#45;&gt;Node5 -->
<g id="edge67" class="edge">
<title>Node37&#45;&gt;Node5</title>
<path fill="none" stroke="#63b8ff" d="M1236.38,-195.14C1210.97,-192.28 1179.35,-189.02 1151,-187 732.64,-157.19 624.7,-198.63 208,-151 195.9,-149.62 182.8,-147.35 171.09,-145.04"/>
<polygon fill="#63b8ff" stroke="#63b8ff" points="171.71,-141.6 161.21,-143.02 170.3,-148.45 171.71,-141.6"/>
</g>
<!-- Node37&#45;&gt;Node7 -->
<g id="edge68" class="edge">
<title>Node37&#45;&gt;Node7</title>
<path fill="none" stroke="#63b8ff" d="M1265.47,-186.8C1251.13,-176.37 1231.7,-162.24 1217.21,-151.69"/>
<polygon fill="#63b8ff" stroke="#63b8ff" points="1219.05,-148.71 1208.91,-145.66 1214.93,-154.37 1219.05,-148.71"/>
</g>
<!-- Node37&#45;&gt;Node9 -->
<g id="edge72" class="edge">
<title>Node37&#45;&gt;Node9</title>
<path fill="none" stroke="#63b8ff" d="M1279.3,-186.7C1270.96,-167.89 1253.47,-135.53 1227,-121 1160.28,-84.38 639.14,-74.15 459.57,-71.69"/>
<polygon fill="#63b8ff" stroke="#63b8ff" points="459.55,-68.19 449.51,-71.56 459.46,-75.19 459.55,-68.19"/>
</g>
<!-- Node37&#45;&gt;Node10 -->
<g id="edge75" class="edge">
<title>Node37&#45;&gt;Node10</title>
<path fill="none" stroke="#63b8ff" d="M1333.73,-197.2C1415.99,-190.42 1587.43,-174.68 1731,-151 1736.9,-150.03 1743.07,-148.86 1749.15,-147.63"/>
<polygon fill="#63b8ff" stroke="#63b8ff" points="1750.18,-150.99 1759.25,-145.51 1748.74,-144.14 1750.18,-150.99"/>
</g>
<!-- Node37&#45;&gt;Node12 -->
<g id="edge66" class="edge">
<title>Node37&#45;&gt;Node12</title>
<path fill="none" stroke="#63b8ff" d="M1236.36,-195.36C1210.95,-192.55 1179.33,-189.28 1151,-187 868.79,-164.28 796.84,-177.91 515,-151 489.05,-148.52 459.63,-144.44 438.71,-141.32"/>
<polygon fill="#63b8ff" stroke="#63b8ff" points="439.03,-137.83 428.62,-139.79 437.98,-144.75 439.03,-137.83"/>
</g>
<!-- Node37&#45;&gt;Node16 -->
<g id="edge78" class="edge">
<title>Node37&#45;&gt;Node16</title>
<path fill="none" stroke="#63b8ff" d="M1333.54,-198.46C1488.43,-190.24 1964.67,-164.19 2033,-151 2036.42,-150.34 2039.94,-149.49 2043.43,-148.53"/>
<polygon fill="#63b8ff" stroke="#63b8ff" points="2044.5,-151.86 2053.07,-145.63 2042.48,-145.16 2044.5,-151.86"/>
</g>
<!-- Node37&#45;&gt;Node34 -->
<g id="edge69" class="edge">
<title>Node37&#45;&gt;Node34</title>
<path fill="none" stroke="#63b8ff" d="M1236.22,-191.99C1182.14,-181.99 1092.33,-165.38 1015,-151 1008.76,-149.84 1002.23,-148.62 995.74,-147.41"/>
<polygon fill="#63b8ff" stroke="#63b8ff" points="996.08,-143.92 985.61,-145.52 994.8,-150.8 996.08,-143.92"/>
</g>
<!-- Node37&#45;&gt;Node36 -->
<g id="edge77" class="edge">
<title>Node37&#45;&gt;Node36</title>
<path fill="none" stroke="#63b8ff" d="M1242.43,-186.95C1207.65,-175.48 1159.09,-159.46 1126.41,-148.68"/>
<polygon fill="#63b8ff" stroke="#63b8ff" points="1127.41,-145.33 1116.82,-145.52 1125.22,-151.97 1127.41,-145.33"/>
</g>
<!-- Node38 -->
<g id="node38" class="node">
<title>Node38</title>
<g id="a_node38"><a xlink:title=" ">
<polygon fill="#e0e0e0" stroke="#999999" points="1598,-145.5 1474,-145.5 1474,-126.5 1598,-126.5 1598,-145.5"/>
<text text-anchor="middle" x="1536" y="-133.5" font-family="Helvetica,sans-Serif" font-size="10.00">flutter/method_channel.h</text>
</a>
</g>
</g>
<!-- Node37&#45;&gt;Node38 -->
<g id="edge70" class="edge">
<title>Node37&#45;&gt;Node38</title>
<path fill="none" stroke="#63b8ff" d="M1333.69,-188.58C1379.72,-176.85 1448.14,-159.4 1492.41,-148.11"/>
<polygon fill="#63b8ff" stroke="#63b8ff" points="1493.47,-151.46 1502.3,-145.59 1491.74,-144.67 1493.47,-151.46"/>
</g>
<!-- Node39 -->
<g id="node39" class="node">
<title>Node39</title>
<g id="a_node39"><a xlink:title=" ">
<polygon fill="#e0e0e0" stroke="#999999" points="1722,-151 1616,-151 1616,-121 1722,-121 1722,-151"/>
<text text-anchor="start" x="1624" y="-139" font-family="Helvetica,sans-Serif" font-size="10.00">flutter/method_result</text>
<text text-anchor="middle" x="1669" y="-128" font-family="Helvetica,sans-Serif" font-size="10.00">_functions.h</text>
</a>
</g>
</g>
<!-- Node37&#45;&gt;Node39 -->
<g id="edge71" class="edge">
<title>Node37&#45;&gt;Node39</title>
<path fill="none" stroke="#63b8ff" d="M1333.73,-194.49C1394.97,-186.07 1503.52,-170.37 1606.05,-151.1"/>
<polygon fill="#63b8ff" stroke="#63b8ff" points="1606.78,-154.53 1615.95,-149.23 1605.47,-147.65 1606.78,-154.53"/>
</g>
<!-- Node40 -->
<g id="node40" class="node">
<title>Node40</title>
<g id="a_node40"><a xlink:title=" ">
<polygon fill="#e0e0e0" stroke="#999999" points="2023.5,-151 1868.5,-151 1868.5,-121 2023.5,-121 2023.5,-151"/>
<text text-anchor="start" x="1876.5" y="-139" font-family="Helvetica,sans-Serif" font-size="10.00">flutter/shell/platform</text>
<text text-anchor="middle" x="1946" y="-128" font-family="Helvetica,sans-Serif" font-size="10.00">/common/json_method_codec.h</text>
</a>
</g>
</g>
<!-- Node37&#45;&gt;Node40 -->
<g id="edge73" class="edge">
<title>Node37&#45;&gt;Node40</title>
<path fill="none" stroke="#63b8ff" d="M1333.5,-197.97C1430.87,-191.63 1657.24,-175.58 1858.1,-151.05"/>
<polygon fill="#63b8ff" stroke="#63b8ff" points="1858.75,-154.49 1868.25,-149.8 1857.9,-147.55 1858.75,-154.49"/>
</g>
<!-- Node41 -->
<g id="node41" class="node">
<title>Node41</title>
<g id="a_node41"><a xlink:title=" ">
<polygon fill="#e0e0e0" stroke="#999999" points="1455.5,-151 1312.5,-151 1312.5,-121 1455.5,-121 1455.5,-151"/>
<text text-anchor="start" x="1320.5" y="-139" font-family="Helvetica,sans-Serif" font-size="10.00">flutter/shell/platform</text>
<text text-anchor="middle" x="1384" y="-128" font-family="Helvetica,sans-Serif" font-size="10.00">/common/text_input_model.h</text>
</a>
</g>
</g>
<!-- Node37&#45;&gt;Node41 -->
<g id="edge74" class="edge">
<title>Node37&#45;&gt;Node41</title>
<path fill="none" stroke="#63b8ff" d="M1306.97,-186.8C1320.69,-177.93 1338.53,-166.39 1353.6,-156.66"/>
<polygon fill="#63b8ff" stroke="#63b8ff" points="1355.59,-159.53 1362.09,-151.16 1351.79,-153.65 1355.59,-159.53"/>
</g>
</g>
</svg>
