<?xml version="1.0" encoding="UTF-8" standalone="no"?>
<!DOCTYPE svg PUBLIC "-//W3C//DTD SVG 1.1//EN"
 "http://www.w3.org/Graphics/SVG/1.1/DTD/svg11.dtd">
<!-- Generated by graphviz version 2.43.0 (0)
 -->
<!-- Title: /home/joel.winarske@toyotaconnected.com/development/workspace&#45;automation&#45;configs/app/ivi&#45;homescreen/shell/app.h Pages: 1 -->
<svg width="2317pt" height="497pt"
 viewBox="0.00 0.00 2317.00 497.00" xmlns="http://www.w3.org/2000/svg" xmlns:xlink="http://www.w3.org/1999/xlink">
<g id="graph0" class="graph" transform="scale(1 1) rotate(0) translate(4 493)">
<title>/home/joel.winarske@toyotaconnected.com/development/workspace&#45;automation&#45;configs/app/ivi&#45;homescreen/shell/app.h</title>
<polygon fill="white" stroke="transparent" points="-4,4 -4,-493 2313,-493 2313,4 -4,4"/>
<!-- Node1 -->
<g id="node1" class="node">
<title>Node1</title>
<g id="a_node1"><a xlink:title=" ">
<polygon fill="#bfbfbf" stroke="black" points="664,-425.5 664,-488.5 816,-488.5 816,-425.5 664,-425.5"/>
<text text-anchor="start" x="672" y="-476.5" font-family="Helvetica,sans-Serif" font-size="10.00">/home/joel.winarske</text>
<text text-anchor="start" x="672" y="-465.5" font-family="Helvetica,sans-Serif" font-size="10.00">@toyotaconnected.com</text>
<text text-anchor="start" x="672" y="-454.5" font-family="Helvetica,sans-Serif" font-size="10.00">/development/workspace</text>
<text text-anchor="start" x="672" y="-443.5" font-family="Helvetica,sans-Serif" font-size="10.00">&#45;automation&#45;configs/app</text>
<text text-anchor="middle" x="740" y="-432.5" font-family="Helvetica,sans-Serif" font-size="10.00">/ivi&#45;homescreen/shell/app.h</text>
</a>
</g>
</g>
<!-- Node2 -->
<g id="node2" class="node">
<title>Node2</title>
<g id="a_node2"><a xlink:title=" ">
<polygon fill="white" stroke="#bfbfbf" points="2242,-6 2242,-25 2304,-25 2304,-6 2242,-6"/>
<text text-anchor="middle" x="2273" y="-13" font-family="Helvetica,sans-Serif" font-size="10.00">EGL/egl.h</text>
</a>
</g>
</g>
<!-- Node1&#45;&gt;Node2 -->
<g id="edge1" class="edge">
<title>Node1&#45;&gt;Node2</title>
<path fill="none" stroke="midnightblue" d="M816.21,-453.63C1130.42,-443.37 2309,-399.81 2309,-324 2309,-324 2309,-324 2309,-148.5 2309,-106.52 2291.84,-59.58 2281.21,-34.55"/>
<polygon fill="midnightblue" stroke="midnightblue" points="2284.35,-32.99 2277.13,-25.24 2277.94,-35.8 2284.35,-32.99"/>
</g>
<!-- Node3 -->
<g id="node3" class="node">
<title>Node3</title>
<g id="a_node3"><a xlink:title=" ">
<polygon fill="white" stroke="#bfbfbf" points="666.5,-0.5 666.5,-30.5 803.5,-30.5 803.5,-0.5 666.5,-0.5"/>
<text text-anchor="start" x="674.5" y="-18.5" font-family="Helvetica,sans-Serif" font-size="10.00">shell/platform/embedder</text>
<text text-anchor="middle" x="735" y="-7.5" font-family="Helvetica,sans-Serif" font-size="10.00">/embedder.h</text>
</a>
</g>
</g>
<!-- Node1&#45;&gt;Node3 -->
<g id="edge2" class="edge">
<title>Node1&#45;&gt;Node3</title>
<path fill="none" stroke="midnightblue" d="M663.81,-451.41C521.47,-442.24 220.57,-419.84 121,-389 62.69,-370.94 0,-385.05 0,-324 0,-324 0,-324 0,-148.5 0,-108.53 5.09,-89.68 38,-67 87.9,-32.61 484.45,-21.14 656.17,-17.76"/>
<polygon fill="midnightblue" stroke="midnightblue" points="656.48,-21.26 666.41,-17.56 656.35,-14.26 656.48,-21.26"/>
</g>
<!-- Node4 -->
<g id="node4" class="node">
<title>Node4</title>
<g id="a_node4"><a xlink:title=" ">
<polygon fill="white" stroke="#bfbfbf" points="630,-369.5 630,-388.5 728,-388.5 728,-369.5 630,-369.5"/>
<text text-anchor="middle" x="679" y="-376.5" font-family="Helvetica,sans-Serif" font-size="10.00">wayland&#45;client.h</text>
</a>
</g>
</g>
<!-- Node1&#45;&gt;Node4 -->
<g id="edge3" class="edge">
<title>Node1&#45;&gt;Node4</title>
<path fill="none" stroke="midnightblue" d="M715.19,-425.09C707.36,-415.33 699,-404.92 692.3,-396.57"/>
<polygon fill="midnightblue" stroke="midnightblue" points="694.99,-394.33 686,-388.72 689.53,-398.71 694.99,-394.33"/>
</g>
<!-- Node5 -->
<g id="node5" class="node">
<title>Node5</title>
<g id="a_node5"><a xlink:title=" ">
<polygon fill="white" stroke="#bfbfbf" points="47,-73 47,-92 105,-92 105,-73 47,-73"/>
<text text-anchor="middle" x="76" y="-80" font-family="Helvetica,sans-Serif" font-size="10.00">memory</text>
</a>
</g>
</g>
<!-- Node1&#45;&gt;Node5 -->
<g id="edge4" class="edge">
<title>Node1&#45;&gt;Node5</title>
<path fill="none" stroke="midnightblue" d="M663.87,-449.61C482.14,-433.34 38,-387.13 38,-324 38,-324 38,-324 38,-210 38,-169.85 55.78,-125.45 67.01,-101.39"/>
<polygon fill="midnightblue" stroke="midnightblue" points="70.29,-102.65 71.49,-92.13 63.99,-99.6 70.29,-102.65"/>
</g>
<!-- Node6 -->
<g id="node6" class="node">
<title>Node6</title>
<g id="a_node6"><a xlink:href="configuration_8h.html" target="_top" xlink:title=" ">
<polygon fill="white" stroke="black" points="1923,-201.5 1923,-220.5 2079,-220.5 2079,-201.5 1923,-201.5"/>
<text text-anchor="middle" x="2001" y="-208.5" font-family="Helvetica,sans-Serif" font-size="10.00">configuration/configuration.h</text>
</a>
</g>
</g>
<!-- Node1&#45;&gt;Node6 -->
<g id="edge5" class="edge">
<title>Node1&#45;&gt;Node6</title>
<path fill="none" stroke="midnightblue" d="M816.31,-444.88C985.65,-419.7 1405.25,-354.41 1752,-277 1826.29,-260.41 1911.99,-237.11 1961,-223.38"/>
<polygon fill="midnightblue" stroke="midnightblue" points="1962.21,-226.68 1970.89,-220.6 1960.31,-219.94 1962.21,-226.68"/>
</g>
<!-- Node11 -->
<g id="node11" class="node">
<title>Node11</title>
<g id="a_node11"><a xlink:href="flutter__view_8h.html" target="_top" xlink:title=" ">
<polygon fill="white" stroke="black" points="746.5,-369.5 746.5,-388.5 855.5,-388.5 855.5,-369.5 746.5,-369.5"/>
<text text-anchor="middle" x="801" y="-376.5" font-family="Helvetica,sans-Serif" font-size="10.00">view/flutter_view.h</text>
</a>
</g>
</g>
<!-- Node1&#45;&gt;Node11 -->
<g id="edge10" class="edge">
<title>Node1&#45;&gt;Node11</title>
<path fill="none" stroke="midnightblue" d="M764.81,-425.09C772.64,-415.33 781,-404.92 787.7,-396.57"/>
<polygon fill="midnightblue" stroke="midnightblue" points="790.47,-398.71 794,-388.72 785.01,-394.33 790.47,-398.71"/>
</g>
<!-- Node7 -->
<g id="node7" class="node">
<title>Node7</title>
<g id="a_node7"><a xlink:title=" ">
<polygon fill="white" stroke="#bfbfbf" points="763,-73 763,-92 807,-92 807,-73 763,-73"/>
<text text-anchor="middle" x="785" y="-80" font-family="Helvetica,sans-Serif" font-size="10.00">string</text>
</a>
</g>
</g>
<!-- Node6&#45;&gt;Node7 -->
<g id="edge6" class="edge">
<title>Node6&#45;&gt;Node7</title>
<path fill="none" stroke="midnightblue" d="M1922.9,-208.29C1734.79,-203.8 1267.22,-190.22 1201,-165 1180.31,-157.12 1182.5,-142.37 1162,-134 1018.86,-75.56 964.98,-139.33 816,-98 814.07,-97.46 812.11,-96.82 810.16,-96.1"/>
<polygon fill="midnightblue" stroke="midnightblue" points="811.27,-92.77 800.7,-92.08 808.53,-99.21 811.27,-92.77"/>
</g>
<!-- Node8 -->
<g id="node8" class="node">
<title>Node8</title>
<g id="a_node8"><a xlink:title=" ">
<polygon fill="white" stroke="#bfbfbf" points="1999.5,-140 1999.5,-159 2046.5,-159 2046.5,-140 1999.5,-140"/>
<text text-anchor="middle" x="2023" y="-147" font-family="Helvetica,sans-Serif" font-size="10.00">vector</text>
</a>
</g>
</g>
<!-- Node6&#45;&gt;Node8 -->
<g id="edge7" class="edge">
<title>Node6&#45;&gt;Node8</title>
<path fill="none" stroke="midnightblue" d="M2004.15,-201.48C2007.32,-192.9 2012.3,-179.43 2016.35,-168.48"/>
<polygon fill="midnightblue" stroke="midnightblue" points="2019.67,-169.6 2019.85,-159.01 2013.1,-167.17 2019.67,-169.6"/>
</g>
<!-- Node9 -->
<g id="node9" class="node">
<title>Node9</title>
<g id="a_node9"><a xlink:title=" ">
<polygon fill="white" stroke="#bfbfbf" points="2038.5,-73 2038.5,-92 2151.5,-92 2151.5,-73 2038.5,-73"/>
<text text-anchor="middle" x="2095" y="-80" font-family="Helvetica,sans-Serif" font-size="10.00">flutter/fml/macros.h</text>
</a>
</g>
</g>
<!-- Node6&#45;&gt;Node9 -->
<g id="edge8" class="edge">
<title>Node6&#45;&gt;Node9</title>
<path fill="none" stroke="midnightblue" d="M2014.65,-201.38C2026.75,-193.19 2044.27,-179.94 2056,-165 2071.32,-145.49 2082.6,-118.97 2088.98,-101.56"/>
<polygon fill="midnightblue" stroke="midnightblue" points="2092.31,-102.63 2092.31,-92.04 2085.71,-100.32 2092.31,-102.63"/>
</g>
<!-- Node10 -->
<g id="node10" class="node">
<title>Node10</title>
<g id="a_node10"><a xlink:title=" ">
<polygon fill="white" stroke="#bfbfbf" points="991,-73 991,-92 1113,-92 1113,-73 991,-73"/>
<text text-anchor="middle" x="1052" y="-80" font-family="Helvetica,sans-Serif" font-size="10.00">rapidjson/document.h</text>
</a>
</g>
</g>
<!-- Node6&#45;&gt;Node10 -->
<g id="edge9" class="edge">
<title>Node6&#45;&gt;Node10</title>
<path fill="none" stroke="midnightblue" d="M1922.81,-210.63C1755.77,-211.11 1369.31,-207.43 1246,-165 1223.03,-157.1 1222.71,-144.89 1201,-134 1167,-116.94 1125.9,-103.5 1095.49,-94.79"/>
<polygon fill="midnightblue" stroke="midnightblue" points="1096.18,-91.35 1085.61,-92.01 1094.29,-98.09 1096.18,-91.35"/>
</g>
<!-- Node11&#45;&gt;Node5 -->
<g id="edge12" class="edge">
<title>Node11&#45;&gt;Node5</title>
<path fill="none" stroke="midnightblue" d="M746.2,-370.17C743.09,-369.77 740.01,-369.37 737,-369 589.54,-350.71 76,-416.59 76,-268 76,-268 76,-268 76,-210 76,-171.7 76,-126.88 76,-102.2"/>
<polygon fill="midnightblue" stroke="midnightblue" points="79.5,-102.09 76,-92.09 72.5,-102.09 79.5,-102.09"/>
</g>
<!-- Node11&#45;&gt;Node6 -->
<g id="edge13" class="edge">
<title>Node11&#45;&gt;Node6</title>
<path fill="none" stroke="midnightblue" d="M855.71,-375.4C957.33,-370.2 1182,-356.88 1370,-333 1512.8,-314.86 1547.63,-304.13 1689,-277 1782.42,-259.07 1891.09,-235.91 1952.38,-222.63"/>
<polygon fill="midnightblue" stroke="midnightblue" points="1953.14,-226.04 1962.17,-220.5 1951.65,-219.2 1953.14,-226.04"/>
</g>
<!-- Node11&#45;&gt;Node9 -->
<g id="edge14" class="edge">
<title>Node11&#45;&gt;Node9</title>
<path fill="none" stroke="midnightblue" d="M855.5,-375.53C1089.99,-364.37 2004.9,-315.03 2088,-221 2117.2,-187.97 2107.96,-131.16 2100.51,-101.98"/>
<polygon fill="midnightblue" stroke="midnightblue" points="2103.86,-100.97 2097.83,-92.26 2097.11,-102.83 2103.86,-100.97"/>
</g>
<!-- Node12 -->
<g id="node12" class="node">
<title>Node12</title>
<g id="a_node12"><a xlink:title=" ">
<polygon fill="white" stroke="#bfbfbf" points="293,-73 293,-92 331,-92 331,-73 293,-73"/>
<text text-anchor="middle" x="312" y="-80" font-family="Helvetica,sans-Serif" font-size="10.00">map</text>
</a>
</g>
</g>
<!-- Node11&#45;&gt;Node12 -->
<g id="edge11" class="edge">
<title>Node11&#45;&gt;Node12</title>
<path fill="none" stroke="midnightblue" d="M746.24,-369.58C596.27,-346.33 190,-282.06 190,-268 190,-268 190,-268 190,-210 190,-175.18 187.11,-161.07 209,-134 227.76,-110.8 259.84,-97.46 283.23,-90.38"/>
<polygon fill="midnightblue" stroke="midnightblue" points="284.29,-93.72 292.97,-87.64 282.39,-86.98 284.29,-93.72"/>
</g>
<!-- Node13 -->
<g id="node13" class="node">
<title>Node13</title>
<g id="a_node13"><a xlink:href="window_8h.html" target="_top" xlink:title=" ">
<polygon fill="white" stroke="black" points="1254.5,-313.5 1254.5,-332.5 1361.5,-332.5 1361.5,-313.5 1254.5,-313.5"/>
<text text-anchor="middle" x="1308" y="-320.5" font-family="Helvetica,sans-Serif" font-size="10.00">wayland/window.h</text>
</a>
</g>
</g>
<!-- Node11&#45;&gt;Node13 -->
<g id="edge15" class="edge">
<title>Node11&#45;&gt;Node13</title>
<path fill="none" stroke="midnightblue" d="M855.74,-372.17C950.3,-362.1 1143.76,-341.49 1244.24,-330.79"/>
<polygon fill="midnightblue" stroke="midnightblue" points="1244.68,-334.26 1254.25,-329.72 1243.94,-327.3 1244.68,-334.26"/>
</g>
<!-- Node13&#45;&gt;Node5 -->
<g id="edge16" class="edge">
<title>Node13&#45;&gt;Node5</title>
<path fill="none" stroke="midnightblue" d="M1254.33,-319.88C1052.34,-311.11 339.44,-272.98 144,-165 117.22,-150.2 96.57,-120.31 85.37,-101.13"/>
<polygon fill="midnightblue" stroke="midnightblue" points="88.32,-99.24 80.39,-92.22 82.21,-102.65 88.32,-99.24"/>
</g>
<!-- Node13&#45;&gt;Node7 -->
<g id="edge17" class="edge">
<title>Node13&#45;&gt;Node7</title>
<path fill="none" stroke="midnightblue" d="M1254.22,-317.25C1224.73,-311.91 1189.67,-300.66 1167,-277 1121.42,-229.43 1177.97,-176.93 1128,-134 1075.06,-88.52 883.15,-117.03 816,-98 814.07,-97.45 812.11,-96.8 810.16,-96.07"/>
<polygon fill="midnightblue" stroke="midnightblue" points="811.28,-92.75 800.71,-92.04 808.54,-99.19 811.28,-92.75"/>
</g>
<!-- Node14 -->
<g id="node14" class="node">
<title>Node14</title>
<g id="a_node14"><a xlink:title=" ">
<polygon fill="white" stroke="#bfbfbf" points="1340,-257.5 1340,-276.5 1392,-276.5 1392,-257.5 1340,-257.5"/>
<text text-anchor="middle" x="1366" y="-264.5" font-family="Helvetica,sans-Serif" font-size="10.00">cassert</text>
</a>
</g>
</g>
<!-- Node13&#45;&gt;Node14 -->
<g id="edge18" class="edge">
<title>Node13&#45;&gt;Node14</title>
<path fill="none" stroke="midnightblue" d="M1317.32,-313.32C1325.89,-305.34 1338.81,-293.31 1349.19,-283.65"/>
<polygon fill="midnightblue" stroke="midnightblue" points="1351.58,-286.21 1356.51,-276.83 1346.81,-281.09 1351.58,-286.21"/>
</g>
<!-- Node15 -->
<g id="node15" class="node">
<title>Node15</title>
<g id="a_node15"><a xlink:title=" ">
<polygon fill="white" stroke="#bfbfbf" points="1410,-257.5 1410,-276.5 1552,-276.5 1552,-257.5 1410,-257.5"/>
<text text-anchor="middle" x="1481" y="-264.5" font-family="Helvetica,sans-Serif" font-size="10.00">agl&#45;shell&#45;client&#45;protocol.h</text>
</a>
</g>
</g>
<!-- Node13&#45;&gt;Node15 -->
<g id="edge19" class="edge">
<title>Node13&#45;&gt;Node15</title>
<path fill="none" stroke="midnightblue" d="M1335.41,-313.44C1364.77,-304.28 1411.52,-289.69 1444.1,-279.52"/>
<polygon fill="midnightblue" stroke="midnightblue" points="1445.21,-282.84 1453.72,-276.52 1443.13,-276.16 1445.21,-282.84"/>
</g>
<!-- Node16 -->
<g id="node16" class="node">
<title>Node16</title>
<g id="a_node16"><a xlink:href="constants_8h.html" target="_top" xlink:title=" ">
<polygon fill="white" stroke="black" points="2169.5,-73 2169.5,-92 2242.5,-92 2242.5,-73 2169.5,-73"/>
<text text-anchor="middle" x="2206" y="-80" font-family="Helvetica,sans-Serif" font-size="10.00">constants.h</text>
</a>
</g>
</g>
<!-- Node13&#45;&gt;Node16 -->
<g id="edge20" class="edge">
<title>Node13&#45;&gt;Node16</title>
<path fill="none" stroke="midnightblue" d="M1361.78,-319.76C1519.73,-312.49 1979.53,-286.12 2113,-221 2161.89,-197.15 2189.24,-133.72 2200.24,-102.04"/>
<polygon fill="midnightblue" stroke="midnightblue" points="2203.65,-102.87 2203.46,-92.28 2197,-100.68 2203.65,-102.87"/>
</g>
<!-- Node18 -->
<g id="node18" class="node">
<title>Node18</title>
<g id="a_node18"><a xlink:href="backend_8h.html" target="_top" xlink:title=" ">
<polygon fill="white" stroke="black" points="1570,-257.5 1570,-276.5 1680,-276.5 1680,-257.5 1570,-257.5"/>
<text text-anchor="middle" x="1625" y="-264.5" font-family="Helvetica,sans-Serif" font-size="10.00">backend/backend.h</text>
</a>
</g>
</g>
<!-- Node13&#45;&gt;Node18 -->
<g id="edge24" class="edge">
<title>Node13&#45;&gt;Node18</title>
<path fill="none" stroke="midnightblue" d="M1358.23,-313.44C1414.34,-303.89 1505.13,-288.42 1564.95,-278.23"/>
<polygon fill="midnightblue" stroke="midnightblue" points="1565.74,-281.65 1575.01,-276.52 1564.56,-274.75 1565.74,-281.65"/>
</g>
<!-- Node38 -->
<g id="node38" class="node">
<title>Node38</title>
<g id="a_node38"><a xlink:title=" ">
<polygon fill="white" stroke="#bfbfbf" points="1176.5,-257.5 1176.5,-276.5 1321.5,-276.5 1321.5,-257.5 1176.5,-257.5"/>
<text text-anchor="middle" x="1249" y="-264.5" font-family="Helvetica,sans-Serif" font-size="10.00">xdg&#45;shell&#45;client&#45;protocol.h</text>
</a>
</g>
</g>
<!-- Node13&#45;&gt;Node38 -->
<g id="edge74" class="edge">
<title>Node13&#45;&gt;Node38</title>
<path fill="none" stroke="midnightblue" d="M1298.52,-313.32C1289.8,-305.34 1276.66,-293.31 1266.1,-283.65"/>
<polygon fill="midnightblue" stroke="midnightblue" points="1268.39,-281 1258.65,-276.83 1263.67,-286.17 1268.39,-281"/>
</g>
<!-- Node16&#45;&gt;Node2 -->
<g id="edge21" class="edge">
<title>Node16&#45;&gt;Node2</title>
<path fill="none" stroke="midnightblue" d="M2215.04,-72.73C2225.68,-62.4 2243.58,-45.04 2256.68,-32.33"/>
<polygon fill="midnightblue" stroke="midnightblue" points="2259.37,-34.6 2264.11,-25.13 2254.49,-29.58 2259.37,-34.6"/>
</g>
<!-- Node16&#45;&gt;Node3 -->
<g id="edge22" class="edge">
<title>Node16&#45;&gt;Node3</title>
<path fill="none" stroke="midnightblue" d="M2183.42,-72.88C2176.34,-70.54 2168.44,-68.3 2161,-67 1898.99,-21.06 1073.05,-16.66 813.71,-16.43"/>
<polygon fill="midnightblue" stroke="midnightblue" points="813.63,-12.93 803.62,-16.43 813.62,-19.93 813.63,-12.93"/>
</g>
<!-- Node17 -->
<g id="node17" class="node">
<title>Node17</title>
<g id="a_node17"><a xlink:title=" ">
<polygon fill="white" stroke="#bfbfbf" points="2182,-6 2182,-25 2224,-25 2224,-6 2182,-6"/>
<text text-anchor="middle" x="2203" y="-13" font-family="Helvetica,sans-Serif" font-size="10.00">array</text>
</a>
</g>
</g>
<!-- Node16&#45;&gt;Node17 -->
<g id="edge23" class="edge">
<title>Node16&#45;&gt;Node17</title>
<path fill="none" stroke="midnightblue" d="M2205.6,-72.73C2205.15,-63.18 2204.44,-47.62 2203.87,-35.28"/>
<polygon fill="midnightblue" stroke="midnightblue" points="2207.36,-34.96 2203.4,-25.13 2200.36,-35.28 2207.36,-34.96"/>
</g>
<!-- Node18&#45;&gt;Node3 -->
<g id="edge25" class="edge">
<title>Node18&#45;&gt;Node3</title>
<path fill="none" stroke="midnightblue" d="M1651.68,-257.49C1744.59,-227.23 2045.36,-123.59 1991,-67 1950.14,-24.46 1082.32,-17.76 813.6,-16.7"/>
<polygon fill="midnightblue" stroke="midnightblue" points="813.55,-13.2 803.53,-16.66 813.52,-20.2 813.55,-13.2"/>
</g>
<!-- Node18&#45;&gt;Node16 -->
<g id="edge26" class="edge">
<title>Node18&#45;&gt;Node16</title>
<path fill="none" stroke="midnightblue" d="M1680.26,-265.73C1787.25,-264.38 2018.31,-257.21 2088,-221 2115.3,-206.81 2169.77,-134.03 2193.96,-100.48"/>
<polygon fill="midnightblue" stroke="midnightblue" points="2196.95,-102.3 2199.93,-92.14 2191.26,-98.23 2196.95,-102.3"/>
</g>
<!-- Node19 -->
<g id="node19" class="node">
<title>Node19</title>
<g id="a_node19"><a xlink:href="engine_8h.html" target="_top" xlink:title=" ">
<polygon fill="white" stroke="black" points="828.5,-201.5 828.5,-220.5 887.5,-220.5 887.5,-201.5 828.5,-201.5"/>
<text text-anchor="middle" x="858" y="-208.5" font-family="Helvetica,sans-Serif" font-size="10.00">engine.h</text>
</a>
</g>
</g>
<!-- Node18&#45;&gt;Node19 -->
<g id="edge27" class="edge">
<title>Node18&#45;&gt;Node19</title>
<path fill="none" stroke="midnightblue" d="M1569.98,-259.09C1563.89,-258.32 1557.8,-257.59 1552,-257 1303.81,-231.64 1004.78,-218.12 898.08,-213.68"/>
<polygon fill="midnightblue" stroke="midnightblue" points="897.91,-210.17 887.77,-213.25 897.62,-217.16 897.91,-210.17"/>
</g>
<!-- Node19&#45;&gt;Node2 -->
<g id="edge29" class="edge">
<title>Node19&#45;&gt;Node2</title>
<path fill="none" stroke="midnightblue" d="M887.9,-209.38C1032.69,-206.27 1661.81,-191.45 1856,-165 1917,-156.69 1930.45,-145.11 1991,-134 2048.59,-123.44 2208.29,-136.95 2252,-98 2269.61,-82.31 2273.36,-54 2273.73,-35.23"/>
<polygon fill="midnightblue" stroke="midnightblue" points="2277.23,-35.17 2273.63,-25.21 2270.23,-35.24 2277.23,-35.17"/>
</g>
<!-- Node19&#45;&gt;Node3 -->
<g id="edge32" class="edge">
<title>Node19&#45;&gt;Node3</title>
<path fill="none" stroke="midnightblue" d="M858.64,-201.27C859.3,-185.15 858.11,-150.79 838,-134 759.3,-68.28 447.62,-173.28 378,-98 368.65,-87.88 368.97,-77.4 378,-67 413.3,-26.36 562.29,-17.53 656.29,-16.12"/>
<polygon fill="midnightblue" stroke="midnightblue" points="656.38,-19.61 666.34,-15.99 656.29,-12.62 656.38,-19.61"/>
</g>
<!-- Node19&#45;&gt;Node5 -->
<g id="edge34" class="edge">
<title>Node19&#45;&gt;Node5</title>
<path fill="none" stroke="midnightblue" d="M828.25,-209.81C717.11,-208.81 326.66,-202.63 209,-165 163.97,-150.6 118.51,-117.94 94.14,-98.62"/>
<polygon fill="midnightblue" stroke="midnightblue" points="96.14,-95.73 86.16,-92.17 91.74,-101.18 96.14,-95.73"/>
</g>
<!-- Node19&#45;&gt;Node7 -->
<g id="edge37" class="edge">
<title>Node19&#45;&gt;Node7</title>
<path fill="none" stroke="midnightblue" d="M887.54,-206.23C940.45,-198.32 1042.68,-177.03 1007,-134 951.86,-67.5 898.22,-124.51 816,-98 814.33,-97.46 812.63,-96.85 810.93,-96.2"/>
<polygon fill="midnightblue" stroke="midnightblue" points="811.99,-92.85 801.42,-92.12 809.23,-99.28 811.99,-92.85"/>
</g>
<!-- Node19&#45;&gt;Node8 -->
<g id="edge38" class="edge">
<title>Node19&#45;&gt;Node8</title>
<path fill="none" stroke="midnightblue" d="M887.65,-210.11C1043.21,-210.5 1766.32,-209.83 1985,-165 1988.08,-164.37 1991.24,-163.52 1994.36,-162.54"/>
<polygon fill="midnightblue" stroke="midnightblue" points="1995.77,-165.76 2004.03,-159.12 1993.44,-159.16 1995.77,-165.76"/>
</g>
<!-- Node19&#45;&gt;Node11 -->
<g id="edge73" class="edge">
<title>Node19&#45;&gt;Node11</title>
<path fill="none" stroke="midnightblue" d="M855.06,-220.57C846.21,-246.34 819.68,-323.59 807.39,-359.39"/>
<polygon fill="midnightblue" stroke="midnightblue" points="804,-358.48 804.06,-369.08 810.62,-360.75 804,-358.48"/>
</g>
<!-- Node19&#45;&gt;Node12 -->
<g id="edge33" class="edge">
<title>Node19&#45;&gt;Node12</title>
<path fill="none" stroke="midnightblue" d="M828.39,-208.79C747.51,-205.17 524.42,-192.85 457,-165 436.53,-156.55 436.78,-145.73 418,-134 404.29,-125.44 366.91,-108.12 340.44,-96.17"/>
<polygon fill="midnightblue" stroke="midnightblue" points="341.79,-92.94 331.24,-92.03 338.92,-99.32 341.79,-92.94"/>
</g>
<!-- Node19&#45;&gt;Node16 -->
<g id="edge40" class="edge">
<title>Node19&#45;&gt;Node16</title>
<path fill="none" stroke="midnightblue" d="M887.71,-209.91C1030.39,-208.99 1659.08,-199.08 2161,-98 2164.96,-97.2 2169.06,-96.18 2173.1,-95.04"/>
<polygon fill="midnightblue" stroke="midnightblue" points="2174.37,-98.31 2182.91,-92.04 2172.32,-91.62 2174.37,-98.31"/>
</g>
<!-- Node19&#45;&gt;Node18 -->
<g id="edge39" class="edge">
<title>Node19&#45;&gt;Node18</title>
<path fill="none" stroke="midnightblue" d="M887.79,-212.96C984.67,-216.47 1298.49,-229.74 1564.17,-256.43"/>
<polygon fill="midnightblue" stroke="midnightblue" points="1564.1,-259.94 1574.4,-257.47 1564.8,-252.98 1564.1,-259.94"/>
</g>
<!-- Node20 -->
<g id="node20" class="node">
<title>Node20</title>
<g id="a_node20"><a xlink:title=" ">
<polygon fill="white" stroke="#bfbfbf" points="1054.5,-140 1054.5,-159 1119.5,-159 1119.5,-140 1054.5,-140"/>
<text text-anchor="middle" x="1087" y="-147" font-family="Helvetica,sans-Serif" font-size="10.00">functional</text>
</a>
</g>
</g>
<!-- Node19&#45;&gt;Node20 -->
<g id="edge28" class="edge">
<title>Node19&#45;&gt;Node20</title>
<path fill="none" stroke="midnightblue" d="M887.77,-203.19C923.92,-194.79 986.68,-179.8 1040,-165 1043.39,-164.06 1046.91,-163.04 1050.43,-162"/>
<polygon fill="midnightblue" stroke="midnightblue" points="1051.67,-165.28 1060.23,-159.05 1049.65,-158.58 1051.67,-165.28"/>
</g>
<!-- Node21 -->
<g id="node21" class="node">
<title>Node21</title>
<g id="a_node21"><a xlink:title=" ">
<polygon fill="white" stroke="#bfbfbf" points="466,-140 466,-159 540,-159 540,-140 466,-140"/>
<text text-anchor="middle" x="503" y="-147" font-family="Helvetica,sans-Serif" font-size="10.00">GLES2/gl2.h</text>
</a>
</g>
</g>
<!-- Node19&#45;&gt;Node21 -->
<g id="edge30" class="edge">
<title>Node19&#45;&gt;Node21</title>
<path fill="none" stroke="midnightblue" d="M828.31,-207.28C772.9,-201.85 650.2,-188.16 549,-165 545.16,-164.12 541.18,-163.08 537.24,-161.96"/>
<polygon fill="midnightblue" stroke="midnightblue" points="538.21,-158.59 527.63,-159.06 536.2,-165.3 538.21,-158.59"/>
</g>
<!-- Node22 -->
<g id="node22" class="node">
<title>Node22</title>
<g id="a_node22"><a xlink:title=" ">
<polygon fill="white" stroke="#bfbfbf" points="558,-140 558,-159 698,-159 698,-140 558,-140"/>
<text text-anchor="middle" x="628" y="-147" font-family="Helvetica,sans-Serif" font-size="10.00">flutter/encodable_value.h</text>
</a>
</g>
</g>
<!-- Node19&#45;&gt;Node22 -->
<g id="edge31" class="edge">
<title>Node19&#45;&gt;Node22</title>
<path fill="none" stroke="midnightblue" d="M828.4,-202.34C788.47,-192.01 717.07,-173.54 671.16,-161.67"/>
<polygon fill="midnightblue" stroke="midnightblue" points="671.76,-158.21 661.2,-159.09 670.01,-164.98 671.76,-158.21"/>
</g>
<!-- Node23 -->
<g id="node23" class="node">
<title>Node23</title>
<g id="a_node23"><a xlink:title=" ">
<polygon fill="white" stroke="#bfbfbf" points="716,-140 716,-159 764,-159 764,-140 716,-140"/>
<text text-anchor="middle" x="740" y="-147" font-family="Helvetica,sans-Serif" font-size="10.00">mutex</text>
</a>
</g>
</g>
<!-- Node19&#45;&gt;Node23 -->
<g id="edge35" class="edge">
<title>Node19&#45;&gt;Node23</title>
<path fill="none" stroke="midnightblue" d="M841.09,-201.48C821.47,-191.58 788.87,-175.14 766.01,-163.62"/>
<polygon fill="midnightblue" stroke="midnightblue" points="767.38,-160.39 756.88,-159.01 764.23,-166.64 767.38,-160.39"/>
</g>
<!-- Node24 -->
<g id="node24" class="node">
<title>Node24</title>
<g id="a_node24"><a xlink:title=" ">
<polygon fill="white" stroke="#bfbfbf" points="782.5,-140 782.5,-159 829.5,-159 829.5,-140 782.5,-140"/>
<text text-anchor="middle" x="806" y="-147" font-family="Helvetica,sans-Serif" font-size="10.00">queue</text>
</a>
</g>
</g>
<!-- Node19&#45;&gt;Node24 -->
<g id="edge36" class="edge">
<title>Node19&#45;&gt;Node24</title>
<path fill="none" stroke="midnightblue" d="M850.55,-201.48C842.67,-192.46 830.06,-178.02 820.26,-166.81"/>
<polygon fill="midnightblue" stroke="midnightblue" points="822.65,-164.24 813.44,-159.01 817.38,-168.84 822.65,-164.24"/>
</g>
<!-- Node25 -->
<g id="node25" class="node">
<title>Node25</title>
<g id="a_node25"><a xlink:href="logging_8h.html" target="_top" xlink:title=" ">
<polygon fill="white" stroke="black" points="218,-140 218,-159 280,-159 280,-140 218,-140"/>
<text text-anchor="middle" x="249" y="-147" font-family="Helvetica,sans-Serif" font-size="10.00">logging.h</text>
</a>
</g>
</g>
<!-- Node19&#45;&gt;Node25 -->
<g id="edge41" class="edge">
<title>Node19&#45;&gt;Node25</title>
<path fill="none" stroke="midnightblue" d="M828.28,-210.44C743.17,-211.1 491.65,-208.9 289,-165 285.75,-164.3 282.41,-163.39 279.11,-162.38"/>
<polygon fill="midnightblue" stroke="midnightblue" points="280.04,-159 269.45,-159.11 277.8,-165.63 280.04,-159"/>
</g>
<!-- Node27 -->
<g id="node27" class="node">
<title>Node27</title>
<g id="a_node27"><a xlink:href="platform__channel_8h.html" target="_top" xlink:title=" ">
<polygon fill="white" stroke="black" points="298.5,-140 298.5,-159 409.5,-159 409.5,-140 298.5,-140"/>
<text text-anchor="middle" x="354" y="-147" font-family="Helvetica,sans-Serif" font-size="10.00">platform_channel.h</text>
</a>
</g>
</g>
<!-- Node19&#45;&gt;Node27 -->
<g id="edge43" class="edge">
<title>Node19&#45;&gt;Node27</title>
<path fill="none" stroke="midnightblue" d="M828.4,-207.97C758.01,-202.91 575.21,-188.44 424,-165 416.75,-163.88 409.11,-162.5 401.66,-161.04"/>
<polygon fill="midnightblue" stroke="midnightblue" points="402.15,-157.57 391.65,-159.03 400.77,-164.43 402.15,-157.57"/>
</g>
<!-- Node28 -->
<g id="node28" class="node">
<title>Node28</title>
<g id="a_node28"><a xlink:href="key__event_8h.html" target="_top" xlink:title=" ">
<polygon fill="white" stroke="black" points="886,-134.5 886,-164.5 998,-164.5 998,-134.5 886,-134.5"/>
<text text-anchor="start" x="894" y="-152.5" font-family="Helvetica,sans-Serif" font-size="10.00">static_plugins/key</text>
<text text-anchor="middle" x="942" y="-141.5" font-family="Helvetica,sans-Serif" font-size="10.00">_event/key_event.h</text>
</a>
</g>
</g>
<!-- Node19&#45;&gt;Node28 -->
<g id="edge47" class="edge">
<title>Node19&#45;&gt;Node28</title>
<path fill="none" stroke="midnightblue" d="M870.04,-201.48C881.41,-193.42 898.91,-181.02 913.8,-170.47"/>
<polygon fill="midnightblue" stroke="midnightblue" points="916.07,-173.16 922.2,-164.52 912.02,-167.45 916.07,-173.16"/>
</g>
<!-- Node33 -->
<g id="node33" class="node">
<title>Node33</title>
<g id="a_node33"><a xlink:href="text__input_8h.html" target="_top" xlink:title=" ">
<polygon fill="white" stroke="black" points="1255,-134.5 1255,-164.5 1363,-164.5 1363,-134.5 1255,-134.5"/>
<text text-anchor="start" x="1263" y="-152.5" font-family="Helvetica,sans-Serif" font-size="10.00">static_plugins/text</text>
<text text-anchor="middle" x="1309" y="-141.5" font-family="Helvetica,sans-Serif" font-size="10.00">_input/text_input.h</text>
</a>
</g>
</g>
<!-- Node19&#45;&gt;Node33 -->
<g id="edge59" class="edge">
<title>Node19&#45;&gt;Node33</title>
<path fill="none" stroke="midnightblue" d="M887.59,-206.1C959.61,-196.59 1145.35,-172.09 1244.45,-159.02"/>
<polygon fill="midnightblue" stroke="midnightblue" points="1245.18,-162.45 1254.64,-157.67 1244.27,-155.51 1245.18,-162.45"/>
</g>
<!-- Node26 -->
<g id="node26" class="node">
<title>Node26</title>
<g id="a_node26"><a xlink:title=" ">
<polygon fill="white" stroke="#bfbfbf" points="123.5,-73 123.5,-92 236.5,-92 236.5,-73 123.5,-73"/>
<text text-anchor="middle" x="180" y="-80" font-family="Helvetica,sans-Serif" font-size="10.00">flutter/fml/logging.h</text>
</a>
</g>
</g>
<!-- Node25&#45;&gt;Node26 -->
<g id="edge42" class="edge">
<title>Node25&#45;&gt;Node26</title>
<path fill="none" stroke="midnightblue" d="M239.69,-139.73C228.73,-129.4 210.29,-112.04 196.81,-99.33"/>
<polygon fill="midnightblue" stroke="midnightblue" points="198.84,-96.44 189.16,-92.13 194.04,-101.53 198.84,-96.44"/>
</g>
<!-- Node27&#45;&gt;Node3 -->
<g id="edge46" class="edge">
<title>Node27&#45;&gt;Node3</title>
<path fill="none" stroke="midnightblue" d="M336.86,-139.84C309.33,-124.84 260.63,-93.14 284,-67 308.33,-39.79 533.71,-25.52 656.35,-19.7"/>
<polygon fill="midnightblue" stroke="midnightblue" points="656.62,-23.19 666.45,-19.23 656.3,-16.2 656.62,-23.19"/>
</g>
<!-- Node27&#45;&gt;Node7 -->
<g id="edge45" class="edge">
<title>Node27&#45;&gt;Node7</title>
<path fill="none" stroke="midnightblue" d="M409.59,-140.66C424.95,-138.49 441.62,-136.15 457,-134 572.1,-117.9 601.51,-117.96 716,-98 728,-95.91 741.1,-93.25 752.63,-90.78"/>
<polygon fill="midnightblue" stroke="midnightblue" points="753.67,-94.14 762.7,-88.59 752.19,-87.3 753.67,-94.14"/>
</g>
<!-- Node27&#45;&gt;Node12 -->
<g id="edge44" class="edge">
<title>Node27&#45;&gt;Node12</title>
<path fill="none" stroke="midnightblue" d="M348.34,-139.73C341.91,-129.79 331.28,-113.34 323.17,-100.79"/>
<polygon fill="midnightblue" stroke="midnightblue" points="325.94,-98.63 317.57,-92.13 320.06,-102.43 325.94,-98.63"/>
</g>
<!-- Node28&#45;&gt;Node3 -->
<g id="edge56" class="edge">
<title>Node28&#45;&gt;Node3</title>
<path fill="none" stroke="midnightblue" d="M885.99,-136.51C834.04,-124.91 763.37,-107.69 754,-98 739.38,-82.88 735.22,-58.8 734.36,-40.72"/>
<polygon fill="midnightblue" stroke="midnightblue" points="737.86,-40.57 734.19,-30.64 730.86,-40.69 737.86,-40.57"/>
</g>
<!-- Node28&#45;&gt;Node5 -->
<g id="edge49" class="edge">
<title>Node28&#45;&gt;Node5</title>
<path fill="none" stroke="midnightblue" d="M885.97,-139.76C870.47,-137.59 853.61,-135.47 838,-134 517.25,-103.73 429.29,-164.25 114,-98 110.92,-97.35 107.76,-96.49 104.64,-95.51"/>
<polygon fill="midnightblue" stroke="midnightblue" points="105.57,-92.13 94.98,-92.08 103.23,-98.72 105.57,-92.13"/>
</g>
<!-- Node28&#45;&gt;Node7 -->
<g id="edge50" class="edge">
<title>Node28&#45;&gt;Node7</title>
<path fill="none" stroke="midnightblue" d="M905.38,-134.45C880.12,-124.61 845.83,-110.94 816,-98 814.8,-97.48 813.59,-96.94 812.36,-96.4"/>
<polygon fill="midnightblue" stroke="midnightblue" points="813.5,-93.07 802.95,-92.11 810.6,-99.44 813.5,-93.07"/>
</g>
<!-- Node28&#45;&gt;Node9 -->
<g id="edge54" class="edge">
<title>Node28&#45;&gt;Node9</title>
<path fill="none" stroke="midnightblue" d="M998.01,-139.56C1013.22,-137.42 1029.71,-135.36 1045,-134 1464.09,-96.62 1571.89,-135.1 1991,-98 2004.1,-96.84 2018.07,-95.18 2031.38,-93.4"/>
<polygon fill="midnightblue" stroke="midnightblue" points="2031.98,-96.85 2041.41,-92.02 2031.02,-89.92 2031.98,-96.85"/>
</g>
<!-- Node28&#45;&gt;Node10 -->
<g id="edge55" class="edge">
<title>Node28&#45;&gt;Node10</title>
<path fill="none" stroke="midnightblue" d="M965.87,-134.4C984.57,-123.34 1010.44,-108.06 1028.93,-97.13"/>
<polygon fill="midnightblue" stroke="midnightblue" points="1030.77,-100.11 1037.6,-92.01 1027.21,-94.08 1030.77,-100.11"/>
</g>
<!-- Node28&#45;&gt;Node12 -->
<g id="edge48" class="edge">
<title>Node28&#45;&gt;Node12</title>
<path fill="none" stroke="midnightblue" d="M885.94,-140.05C870.44,-137.89 853.59,-135.69 838,-134 634.13,-111.83 580.85,-128.07 378,-98 365.83,-96.2 352.55,-93.44 341.12,-90.81"/>
<polygon fill="midnightblue" stroke="midnightblue" points="341.76,-87.36 331.22,-88.46 340.14,-94.17 341.76,-87.36"/>
</g>
<!-- Node28&#45;&gt;Node16 -->
<g id="edge58" class="edge">
<title>Node28&#45;&gt;Node16</title>
<path fill="none" stroke="midnightblue" d="M998,-139.5C1013.21,-137.36 1029.71,-135.32 1045,-134 1292.21,-112.67 1916.53,-140.46 2161,-98 2165.19,-97.27 2169.52,-96.25 2173.77,-95.07"/>
<polygon fill="midnightblue" stroke="midnightblue" points="2174.87,-98.4 2183.42,-92.14 2172.83,-91.7 2174.87,-98.4"/>
</g>
<!-- Node29 -->
<g id="node29" class="node">
<title>Node29</title>
<g id="a_node29"><a xlink:title=" ">
<polygon fill="white" stroke="#bfbfbf" points="583,-67.5 583,-97.5 707,-97.5 707,-67.5 583,-67.5"/>
<text text-anchor="start" x="591" y="-85.5" font-family="Helvetica,sans-Serif" font-size="10.00">flutter/basic_message</text>
<text text-anchor="middle" x="645" y="-74.5" font-family="Helvetica,sans-Serif" font-size="10.00">_channel.h</text>
</a>
</g>
</g>
<!-- Node28&#45;&gt;Node29 -->
<g id="edge51" class="edge">
<title>Node28&#45;&gt;Node29</title>
<path fill="none" stroke="midnightblue" d="M885.79,-136.2C837.92,-125.72 768.85,-110.6 716.95,-99.25"/>
<polygon fill="midnightblue" stroke="midnightblue" points="717.66,-95.82 707.14,-97.1 716.16,-102.66 717.66,-95.82"/>
</g>
<!-- Node30 -->
<g id="node30" class="node">
<title>Node30</title>
<g id="a_node30"><a xlink:title=" ">
<polygon fill="white" stroke="#bfbfbf" points="825.5,-73 825.5,-92 972.5,-92 972.5,-73 825.5,-73"/>
<text text-anchor="middle" x="899" y="-80" font-family="Helvetica,sans-Serif" font-size="10.00">flutter/binary_messenger.h</text>
</a>
</g>
</g>
<!-- Node28&#45;&gt;Node30 -->
<g id="edge52" class="edge">
<title>Node28&#45;&gt;Node30</title>
<path fill="none" stroke="midnightblue" d="M932.67,-134.4C926.1,-124.46 917.26,-111.11 910.29,-100.57"/>
<polygon fill="midnightblue" stroke="midnightblue" points="913.19,-98.6 904.75,-92.19 907.35,-102.47 913.19,-98.6"/>
</g>
<!-- Node31 -->
<g id="node31" class="node">
<title>Node31</title>
<g id="a_node31"><a xlink:title=" ">
<polygon fill="white" stroke="#bfbfbf" points="387,-67.5 387,-97.5 565,-97.5 565,-67.5 387,-67.5"/>
<text text-anchor="start" x="395" y="-85.5" font-family="Helvetica,sans-Serif" font-size="10.00">flutter/shell/platform</text>
<text text-anchor="middle" x="476" y="-74.5" font-family="Helvetica,sans-Serif" font-size="10.00">/common/json_message_codec.h</text>
</a>
</g>
</g>
<!-- Node28&#45;&gt;Node31 -->
<g id="edge53" class="edge">
<title>Node28&#45;&gt;Node31</title>
<path fill="none" stroke="midnightblue" d="M885.91,-136.45C881.22,-135.57 876.53,-134.74 872,-134 743.56,-112.98 707.94,-115.62 575.33,-98.15"/>
<polygon fill="midnightblue" stroke="midnightblue" points="575.56,-94.65 565.18,-96.8 574.63,-101.59 575.56,-94.65"/>
</g>
<!-- Node32 -->
<g id="node32" class="node">
<title>Node32</title>
<g id="a_node32"><a xlink:title=" ">
<polygon fill="white" stroke="#bfbfbf" points="1131,-73 1131,-92 1281,-92 1281,-73 1131,-73"/>
<text text-anchor="middle" x="1206" y="-80" font-family="Helvetica,sans-Serif" font-size="10.00">xkbcommon/xkbcommon.h</text>
</a>
</g>
</g>
<!-- Node28&#45;&gt;Node32 -->
<g id="edge57" class="edge">
<title>Node28&#45;&gt;Node32</title>
<path fill="none" stroke="midnightblue" d="M998.31,-134.64C1047.02,-122.64 1116.51,-105.53 1161.43,-94.47"/>
<polygon fill="midnightblue" stroke="midnightblue" points="1162.31,-97.86 1171.18,-92.07 1160.64,-91.06 1162.31,-97.86"/>
</g>
<!-- Node33&#45;&gt;Node3 -->
<g id="edge70" class="edge">
<title>Node33&#45;&gt;Node3</title>
<path fill="none" stroke="midnightblue" d="M1310.26,-134.2C1311.01,-115.65 1309.18,-83.69 1290,-67 1254.86,-36.41 958.37,-23.26 813.73,-18.63"/>
<polygon fill="midnightblue" stroke="midnightblue" points="813.69,-15.13 803.59,-18.31 813.47,-22.12 813.69,-15.13"/>
</g>
<!-- Node33&#45;&gt;Node5 -->
<g id="edge61" class="edge">
<title>Node33&#45;&gt;Node5</title>
<path fill="none" stroke="midnightblue" d="M1254.79,-143.52C1218.85,-140.38 1170.64,-136.46 1128,-134 902.9,-120.99 334.98,-142.8 114,-98 110.92,-97.37 107.75,-96.53 104.64,-95.56"/>
<polygon fill="midnightblue" stroke="midnightblue" points="105.56,-92.17 94.97,-92.14 103.23,-98.77 105.56,-92.17"/>
</g>
<!-- Node33&#45;&gt;Node7 -->
<g id="edge62" class="edge">
<title>Node33&#45;&gt;Node7</title>
<path fill="none" stroke="midnightblue" d="M1254.94,-140.81C1237.72,-138.47 1218.58,-136 1201,-134 1030.25,-114.56 981.84,-143.07 816,-98 814.06,-97.47 812.1,-96.83 810.15,-96.12"/>
<polygon fill="midnightblue" stroke="midnightblue" points="811.26,-92.79 800.69,-92.11 808.53,-99.24 811.26,-92.79"/>
</g>
<!-- Node33&#45;&gt;Node9 -->
<g id="edge66" class="edge">
<title>Node33&#45;&gt;Node9</title>
<path fill="none" stroke="midnightblue" d="M1363.04,-145.69C1478.52,-139.42 1757.84,-122.86 1991,-98 2003.23,-96.7 2016.24,-95.07 2028.76,-93.39"/>
<polygon fill="midnightblue" stroke="midnightblue" points="2029.25,-96.85 2038.68,-92.03 2028.3,-89.92 2029.25,-96.85"/>
</g>
<!-- Node33&#45;&gt;Node10 -->
<g id="edge69" class="edge">
<title>Node33&#45;&gt;Node10</title>
<path fill="none" stroke="midnightblue" d="M1254.81,-134.79C1207.4,-122.8 1139.43,-105.61 1095.5,-94.5"/>
<polygon fill="midnightblue" stroke="midnightblue" points="1096.24,-91.08 1085.69,-92.02 1094.53,-97.87 1096.24,-91.08"/>
</g>
<!-- Node33&#45;&gt;Node12 -->
<g id="edge60" class="edge">
<title>Node33&#45;&gt;Node12</title>
<path fill="none" stroke="midnightblue" d="M1254.78,-143.7C1218.84,-140.63 1170.63,-136.73 1128,-134 794.97,-112.67 708.81,-141.96 378,-98 365.8,-96.38 352.52,-93.65 341.09,-91"/>
<polygon fill="midnightblue" stroke="midnightblue" points="341.74,-87.55 331.2,-88.61 340.1,-94.36 341.74,-87.55"/>
</g>
<!-- Node33&#45;&gt;Node16 -->
<g id="edge72" class="edge">
<title>Node33&#45;&gt;Node16</title>
<path fill="none" stroke="midnightblue" d="M1363.03,-147.08C1525.35,-142.53 2006.9,-126.91 2161,-98 2165.17,-97.22 2169.5,-96.16 2173.75,-94.97"/>
<polygon fill="midnightblue" stroke="midnightblue" points="2174.86,-98.29 2183.4,-92.01 2172.81,-91.59 2174.86,-98.29"/>
</g>
<!-- Node33&#45;&gt;Node30 -->
<g id="edge63" class="edge">
<title>Node33&#45;&gt;Node30</title>
<path fill="none" stroke="midnightblue" d="M1254.85,-140.47C1189.95,-130.77 1077.93,-113.79 982,-98 973.8,-96.65 965.16,-95.19 956.67,-93.73"/>
<polygon fill="midnightblue" stroke="midnightblue" points="957.26,-90.28 946.81,-92.02 956.07,-97.17 957.26,-90.28"/>
</g>
<!-- Node33&#45;&gt;Node32 -->
<g id="edge71" class="edge">
<title>Node33&#45;&gt;Node32</title>
<path fill="none" stroke="midnightblue" d="M1286.65,-134.4C1269.38,-123.5 1245.58,-108.48 1228.32,-97.58"/>
<polygon fill="midnightblue" stroke="midnightblue" points="1229.81,-94.38 1219.48,-92.01 1226.07,-100.3 1229.81,-94.38"/>
</g>
<!-- Node34 -->
<g id="node34" class="node">
<title>Node34</title>
<g id="a_node34"><a xlink:title=" ">
<polygon fill="white" stroke="#bfbfbf" points="1842.5,-73 1842.5,-92 1981.5,-92 1981.5,-73 1842.5,-73"/>
<text text-anchor="middle" x="1912" y="-80" font-family="Helvetica,sans-Serif" font-size="10.00">flutter/method_channel.h</text>
</a>
</g>
</g>
<!-- Node33&#45;&gt;Node34 -->
<g id="edge64" class="edge">
<title>Node33&#45;&gt;Node34</title>
<path fill="none" stroke="midnightblue" d="M1363.11,-144.82C1458.38,-137.99 1662.15,-121.87 1833,-98 1841.44,-96.82 1850.35,-95.38 1859.02,-93.87"/>
<polygon fill="midnightblue" stroke="midnightblue" points="1859.83,-97.28 1869.06,-92.07 1858.6,-90.39 1859.83,-97.28"/>
</g>
<!-- Node35 -->
<g id="node35" class="node">
<title>Node35</title>
<g id="a_node35"><a xlink:title=" ">
<polygon fill="white" stroke="#bfbfbf" points="1337.5,-67.5 1337.5,-97.5 1456.5,-97.5 1456.5,-67.5 1337.5,-67.5"/>
<text text-anchor="start" x="1345.5" y="-85.5" font-family="Helvetica,sans-Serif" font-size="10.00">flutter/method_result</text>
<text text-anchor="middle" x="1397" y="-74.5" font-family="Helvetica,sans-Serif" font-size="10.00">_functions.h</text>
</a>
</g>
</g>
<!-- Node33&#45;&gt;Node35 -->
<g id="edge65" class="edge">
<title>Node33&#45;&gt;Node35</title>
<path fill="none" stroke="midnightblue" d="M1328.09,-134.4C1340.32,-125.37 1356.37,-113.51 1369.9,-103.52"/>
<polygon fill="midnightblue" stroke="midnightblue" points="1371.98,-106.33 1377.94,-97.58 1367.82,-100.7 1371.98,-106.33"/>
</g>
<!-- Node36 -->
<g id="node36" class="node">
<title>Node36</title>
<g id="a_node36"><a xlink:title=" ">
<polygon fill="white" stroke="#bfbfbf" points="1474.5,-67.5 1474.5,-97.5 1645.5,-97.5 1645.5,-67.5 1474.5,-67.5"/>
<text text-anchor="start" x="1482.5" y="-85.5" font-family="Helvetica,sans-Serif" font-size="10.00">flutter/shell/platform</text>
<text text-anchor="middle" x="1560" y="-74.5" font-family="Helvetica,sans-Serif" font-size="10.00">/common/json_method_codec.h</text>
</a>
</g>
</g>
<!-- Node33&#45;&gt;Node36 -->
<g id="edge67" class="edge">
<title>Node33&#45;&gt;Node36</title>
<path fill="none" stroke="midnightblue" d="M1363.15,-134.48C1402.03,-124.41 1454.58,-110.8 1495.61,-100.17"/>
<polygon fill="midnightblue" stroke="midnightblue" points="1496.71,-103.51 1505.51,-97.61 1494.95,-96.73 1496.71,-103.51"/>
</g>
<!-- Node37 -->
<g id="node37" class="node">
<title>Node37</title>
<g id="a_node37"><a xlink:title=" ">
<polygon fill="white" stroke="#bfbfbf" points="1664,-67.5 1664,-97.5 1824,-97.5 1824,-67.5 1664,-67.5"/>
<text text-anchor="start" x="1672" y="-85.5" font-family="Helvetica,sans-Serif" font-size="10.00">flutter/shell/platform</text>
<text text-anchor="middle" x="1744" y="-74.5" font-family="Helvetica,sans-Serif" font-size="10.00">/common/text_input_model.h</text>
</a>
</g>
</g>
<!-- Node33&#45;&gt;Node37 -->
<g id="edge68" class="edge">
<title>Node33&#45;&gt;Node37</title>
<path fill="none" stroke="midnightblue" d="M1363.28,-140.86C1429.38,-131.5 1544.71,-114.95 1653.76,-98.18"/>
<polygon fill="midnightblue" stroke="midnightblue" points="1654.61,-101.59 1663.96,-96.61 1653.54,-94.67 1654.61,-101.59"/>
</g>
</g>
</svg>
