<?xml version="1.0" encoding="UTF-8" standalone="no"?>
<!DOCTYPE svg PUBLIC "-//W3C//DTD SVG 1.1//EN"
 "http://www.w3.org/Graphics/SVG/1.1/DTD/svg11.dtd">
<!-- Generated by graphviz version 5.0.0 (0)
 -->
<!-- Title: /mnt/raid10/stargate/ivi&#45;homescreen/shell/backend/backend.h Pages: 1 -->
<svg width="2693pt" height="357pt"
 viewBox="0.00 0.00 2693.00 357.00" xmlns="http://www.w3.org/2000/svg" xmlns:xlink="http://www.w3.org/1999/xlink">
<g id="graph0" class="graph" transform="scale(1 1) rotate(0) translate(4 353)">
<title>/mnt/raid10/stargate/ivi&#45;homescreen/shell/backend/backend.h</title>
<!-- Node1 -->
<g id="node1" class="node">
<title>Node1</title>
<g id="a_node1"><a xlink:title=" ">
<polygon fill="#999999" stroke="#666666" points="767.5,-349 658.5,-349 658.5,-308 767.5,-308 767.5,-349"/>
<text text-anchor="start" x="666.5" y="-337" font-family="Helvetica,sans-Serif" font-size="10.00">/mnt/raid10/stargate</text>
<text text-anchor="start" x="666.5" y="-326" font-family="Helvetica,sans-Serif" font-size="10.00">/ivi&#45;homescreen/shell</text>
<text text-anchor="middle" x="713" y="-315" font-family="Helvetica,sans-Serif" font-size="10.00">/backend/backend.h</text>
</a>
</g>
</g>
<!-- Node2 -->
<g id="node2" class="node">
<title>Node2</title>
<g id="a_node2"><a xlink:title=" ">
<polygon fill="#e0e0e0" stroke="#999999" points="1452.5,-30 1331.5,-30 1331.5,0 1452.5,0 1452.5,-30"/>
<text text-anchor="start" x="1339.5" y="-18" font-family="Helvetica,sans-Serif" font-size="10.00">shell/platform/embedder</text>
<text text-anchor="middle" x="1392" y="-7" font-family="Helvetica,sans-Serif" font-size="10.00">/embedder.h</text>
</a>
</g>
</g>
<!-- Node1&#45;&gt;Node2 -->
<g id="edge1" class="edge">
<title>Node1&#45;&gt;Node2</title>
<path fill="none" stroke="#63b8ff" d="M658.24,-324.13C491.28,-313.15 0,-275.17 0,-208.5 0,-208.5 0,-208.5 0,-146 0,-102.34 18.57,-86.72 57,-66 85.04,-50.88 1049.06,-24.86 1321.14,-17.81"/>
<polygon fill="#63b8ff" stroke="#63b8ff" points="1321.39,-21.3 1331.29,-17.55 1321.21,-14.31 1321.39,-21.3"/>
</g>
<!-- Node3 -->
<g id="node3" class="node">
<title>Node3</title>
<g id="a_node3"><a xlink:href="constants_8h.html" target="_top" xlink:title=" ">
<polygon fill="white" stroke="#666666" points="747,-90.5 679,-90.5 679,-71.5 747,-71.5 747,-90.5"/>
<text text-anchor="middle" x="713" y="-78.5" font-family="Helvetica,sans-Serif" font-size="10.00">constants.h</text>
</a>
</g>
</g>
<!-- Node1&#45;&gt;Node3 -->
<g id="edge2" class="edge">
<title>Node1&#45;&gt;Node3</title>
<path fill="none" stroke="#63b8ff" d="M713,-307.82C713,-261.56 713,-146.36 713,-100.89"/>
<polygon fill="#63b8ff" stroke="#63b8ff" points="716.5,-100.69 713,-90.69 709.5,-100.69 716.5,-100.69"/>
</g>
<!-- Node6 -->
<g id="node6" class="node">
<title>Node6</title>
<g id="a_node6"><a xlink:href="engine_8h.html" target="_top" xlink:title=" ">
<polygon fill="white" stroke="#666666" points="1890.5,-272 1837.5,-272 1837.5,-253 1890.5,-253 1890.5,-272"/>
<text text-anchor="middle" x="1864" y="-260" font-family="Helvetica,sans-Serif" font-size="10.00">engine.h</text>
</a>
</g>
</g>
<!-- Node1&#45;&gt;Node6 -->
<g id="edge6" class="edge">
<title>Node1&#45;&gt;Node6</title>
<path fill="none" stroke="#63b8ff" d="M767.7,-324.28C968.23,-312.85 1659.58,-274.43 1827.22,-265.41"/>
<polygon fill="#63b8ff" stroke="#63b8ff" points="1827.48,-268.9 1837.27,-264.87 1827.1,-261.91 1827.48,-268.9"/>
</g>
<!-- Node3&#45;&gt;Node2 -->
<g id="edge4" class="edge">
<title>Node3&#45;&gt;Node2</title>
<path fill="none" stroke="#63b8ff" d="M735.94,-71.42C742.35,-69.33 749.38,-67.32 756,-66 958.39,-25.69 1203.07,-17.57 1321.28,-16.14"/>
<polygon fill="#63b8ff" stroke="#63b8ff" points="1321.32,-19.64 1331.28,-16.03 1321.25,-12.64 1321.32,-19.64"/>
</g>
<!-- Node4 -->
<g id="node4" class="node">
<title>Node4</title>
<g id="a_node4"><a xlink:title=" ">
<polygon fill="#e0e0e0" stroke="#999999" points="372,-24.5 312,-24.5 312,-5.5 372,-5.5 372,-24.5"/>
<text text-anchor="middle" x="342" y="-12.5" font-family="Helvetica,sans-Serif" font-size="10.00">EGL/egl.h</text>
</a>
</g>
</g>
<!-- Node3&#45;&gt;Node4 -->
<g id="edge3" class="edge">
<title>Node3&#45;&gt;Node4</title>
<path fill="none" stroke="#63b8ff" d="M688.52,-71.46C682.21,-69.47 675.4,-67.5 669,-66 566.98,-42.12 444.29,-26.88 382.21,-20.1"/>
<polygon fill="#63b8ff" stroke="#63b8ff" points="382.37,-16.6 372.06,-19 381.62,-23.56 382.37,-16.6"/>
</g>
<!-- Node5 -->
<g id="node5" class="node">
<title>Node5</title>
<g id="a_node5"><a xlink:title=" ">
<polygon fill="#e0e0e0" stroke="#999999" points="732,-24.5 694,-24.5 694,-5.5 732,-5.5 732,-24.5"/>
<text text-anchor="middle" x="713" y="-12.5" font-family="Helvetica,sans-Serif" font-size="10.00">array</text>
</a>
</g>
</g>
<!-- Node3&#45;&gt;Node5 -->
<g id="edge5" class="edge">
<title>Node3&#45;&gt;Node5</title>
<path fill="none" stroke="#63b8ff" d="M713,-71.37C713,-62.16 713,-47.29 713,-35.27"/>
<polygon fill="#63b8ff" stroke="#63b8ff" points="716.5,-34.91 713,-24.91 709.5,-34.91 716.5,-34.91"/>
</g>
<!-- Node6&#45;&gt;Node1 -->
<g id="edge19" class="edge">
<title>Node6&#45;&gt;Node1</title>
<path fill="none" stroke="#63b8ff" d="M1837.4,-265.11C1692.25,-273.49 995.57,-312.24 778,-324.07"/>
<polygon fill="#63b8ff" stroke="#63b8ff" points="777.5,-320.59 767.7,-324.63 777.88,-327.58 777.5,-320.59"/>
</g>
<!-- Node6&#45;&gt;Node2 -->
<g id="edge11" class="edge">
<title>Node6&#45;&gt;Node2</title>
<path fill="none" stroke="#63b8ff" d="M1890.57,-260.99C1948.57,-259.25 2090.33,-251.49 2203,-217 2221.06,-211.47 2223,-203.71 2241,-198 2342.55,-165.78 2398.94,-233.42 2478,-162 2510.15,-132.95 2524.94,-97.33 2495,-66 2459.3,-28.64 1700.91,-18.74 1462.84,-16.55"/>
<polygon fill="#63b8ff" stroke="#63b8ff" points="1462.61,-13.05 1452.58,-16.46 1462.54,-20.05 1462.61,-13.05"/>
</g>
<!-- Node6&#45;&gt;Node3 -->
<g id="edge20" class="edge">
<title>Node6&#45;&gt;Node3</title>
<path fill="none" stroke="#63b8ff" d="M1837.31,-261.28C1743.02,-260.21 1416.97,-253.88 1151,-217 1036.59,-201.14 1006.94,-197.42 897,-162 838.81,-143.25 773.93,-112.61 738.88,-95.2"/>
<polygon fill="#63b8ff" stroke="#63b8ff" points="740.32,-92 729.81,-90.65 737.19,-98.26 740.32,-92"/>
</g>
<!-- Node6&#45;&gt;Node4 -->
<g id="edge8" class="edge">
<title>Node6&#45;&gt;Node4</title>
<path fill="none" stroke="#63b8ff" d="M1837.31,-261.21C1622.48,-258.64 180.07,-236.2 57,-96 48.2,-85.98 48.43,-76.21 57,-66 87.73,-29.41 230.17,-19.59 301.32,-16.96"/>
<polygon fill="#63b8ff" stroke="#63b8ff" points="301.82,-20.45 311.69,-16.61 301.58,-13.45 301.82,-20.45"/>
</g>
<!-- Node7 -->
<g id="node7" class="node">
<title>Node7</title>
<g id="a_node7"><a xlink:title=" ">
<polygon fill="#e0e0e0" stroke="#999999" points="1551.5,-217 1492.5,-217 1492.5,-198 1551.5,-198 1551.5,-217"/>
<text text-anchor="middle" x="1522" y="-205" font-family="Helvetica,sans-Serif" font-size="10.00">functional</text>
</a>
</g>
</g>
<!-- Node6&#45;&gt;Node7 -->
<g id="edge7" class="edge">
<title>Node6&#45;&gt;Node7</title>
<path fill="none" stroke="#63b8ff" d="M1837.15,-258.19C1785.76,-251.71 1669.78,-236.45 1561.85,-217.04"/>
<polygon fill="#63b8ff" stroke="#63b8ff" points="1562.23,-213.55 1551.77,-215.21 1560.98,-220.44 1562.23,-213.55"/>
</g>
<!-- Node8 -->
<g id="node8" class="node">
<title>Node8</title>
<g id="a_node8"><a xlink:title=" ">
<polygon fill="#e0e0e0" stroke="#999999" points="1642,-217 1570,-217 1570,-198 1642,-198 1642,-217"/>
<text text-anchor="middle" x="1606" y="-205" font-family="Helvetica,sans-Serif" font-size="10.00">GLES2/gl2.h</text>
</a>
</g>
</g>
<!-- Node6&#45;&gt;Node8 -->
<g id="edge9" class="edge">
<title>Node6&#45;&gt;Node8</title>
<path fill="none" stroke="#63b8ff" d="M1837.36,-256.03C1793.7,-247.06 1706.37,-229.12 1652.38,-218.03"/>
<polygon fill="#63b8ff" stroke="#63b8ff" points="1652.87,-214.56 1642.37,-215.97 1651.46,-221.41 1652.87,-214.56"/>
</g>
<!-- Node9 -->
<g id="node9" class="node">
<title>Node9</title>
<g id="a_node9"><a xlink:title=" ">
<polygon fill="#e0e0e0" stroke="#999999" points="1785.5,-217 1660.5,-217 1660.5,-198 1785.5,-198 1785.5,-217"/>
<text text-anchor="middle" x="1723" y="-205" font-family="Helvetica,sans-Serif" font-size="10.00">flutter/encodable_value.h</text>
</a>
</g>
</g>
<!-- Node6&#45;&gt;Node9 -->
<g id="edge10" class="edge">
<title>Node6&#45;&gt;Node9</title>
<path fill="none" stroke="#63b8ff" d="M1841.35,-252.98C1818.15,-244.27 1781.88,-230.63 1755.6,-220.75"/>
<polygon fill="#63b8ff" stroke="#63b8ff" points="1756.66,-217.41 1746.07,-217.17 1754.2,-223.97 1756.66,-217.41"/>
</g>
<!-- Node10 -->
<g id="node10" class="node">
<title>Node10</title>
<g id="a_node10"><a xlink:title=" ">
<polygon fill="#e0e0e0" stroke="#999999" points="1866,-217 1804,-217 1804,-198 1866,-198 1866,-217"/>
<text text-anchor="middle" x="1835" y="-205" font-family="Helvetica,sans-Serif" font-size="10.00">filesystem</text>
</a>
</g>
</g>
<!-- Node6&#45;&gt;Node10 -->
<g id="edge12" class="edge">
<title>Node6&#45;&gt;Node10</title>
<path fill="none" stroke="#63b8ff" d="M1859.21,-252.75C1855.24,-245.49 1849.47,-234.95 1844.57,-225.98"/>
<polygon fill="#63b8ff" stroke="#63b8ff" points="1847.57,-224.18 1839.7,-217.09 1841.43,-227.54 1847.57,-224.18"/>
</g>
<!-- Node11 -->
<g id="node11" class="node">
<title>Node11</title>
<g id="a_node11"><a xlink:title=" ">
<polygon fill="#e0e0e0" stroke="#999999" points="2468.5,-90.5 2433.5,-90.5 2433.5,-71.5 2468.5,-71.5 2468.5,-90.5"/>
<text text-anchor="middle" x="2451" y="-78.5" font-family="Helvetica,sans-Serif" font-size="10.00">map</text>
</a>
</g>
</g>
<!-- Node6&#45;&gt;Node11 -->
<g id="edge13" class="edge">
<title>Node6&#45;&gt;Node11</title>
<path fill="none" stroke="#63b8ff" d="M1890.53,-260.73C1982.74,-257.82 2288.74,-246.15 2382,-217 2428.93,-202.33 2453.34,-204.54 2478,-162 2489.66,-141.88 2476.5,-115.98 2464.81,-99.19"/>
<polygon fill="#63b8ff" stroke="#63b8ff" points="2467.41,-96.82 2458.63,-90.89 2461.79,-101 2467.41,-96.82"/>
</g>
<!-- Node12 -->
<g id="node12" class="node">
<title>Node12</title>
<g id="a_node12"><a xlink:title=" ">
<polygon fill="#e0e0e0" stroke="#999999" points="817,-90.5 765,-90.5 765,-71.5 817,-71.5 817,-90.5"/>
<text text-anchor="middle" x="791" y="-78.5" font-family="Helvetica,sans-Serif" font-size="10.00">memory</text>
</a>
</g>
</g>
<!-- Node6&#45;&gt;Node12 -->
<g id="edge14" class="edge">
<title>Node6&#45;&gt;Node12</title>
<path fill="none" stroke="#63b8ff" d="M1837.34,-261.21C1729.4,-259.49 1314.93,-247.34 988,-162 924.39,-145.4 853.95,-113.18 816.96,-95.11"/>
<polygon fill="#63b8ff" stroke="#63b8ff" points="818.39,-91.91 807.88,-90.62 815.29,-98.19 818.39,-91.91"/>
</g>
<!-- Node13 -->
<g id="node13" class="node">
<title>Node13</title>
<g id="a_node13"><a xlink:title=" ">
<polygon fill="#e0e0e0" stroke="#999999" points="2294,-217 2250,-217 2250,-198 2294,-198 2294,-217"/>
<text text-anchor="middle" x="2272" y="-205" font-family="Helvetica,sans-Serif" font-size="10.00">mutex</text>
</a>
</g>
</g>
<!-- Node6&#45;&gt;Node13 -->
<g id="edge15" class="edge">
<title>Node6&#45;&gt;Node13</title>
<path fill="none" stroke="#63b8ff" d="M1890.77,-259.34C1952.13,-254.17 2107.59,-239.77 2236,-217 2237.28,-216.77 2238.58,-216.53 2239.9,-216.27"/>
<polygon fill="#63b8ff" stroke="#63b8ff" points="2240.95,-219.63 2250,-214.11 2239.49,-212.78 2240.95,-219.63"/>
</g>
<!-- Node14 -->
<g id="node14" class="node">
<title>Node14</title>
<g id="a_node14"><a xlink:title=" ">
<polygon fill="#e0e0e0" stroke="#999999" points="2355.5,-217 2312.5,-217 2312.5,-198 2355.5,-198 2355.5,-217"/>
<text text-anchor="middle" x="2334" y="-205" font-family="Helvetica,sans-Serif" font-size="10.00">queue</text>
</a>
</g>
</g>
<!-- Node6&#45;&gt;Node14 -->
<g id="edge16" class="edge">
<title>Node6&#45;&gt;Node14</title>
<path fill="none" stroke="#63b8ff" d="M1890.69,-260.34C1958.11,-257.1 2140.73,-246.27 2302.31,-216.79"/>
<polygon fill="#63b8ff" stroke="#63b8ff" points="2303.23,-220.17 2312.43,-214.91 2301.96,-213.29 2303.23,-220.17"/>
</g>
<!-- Node15 -->
<g id="node15" class="node">
<title>Node15</title>
<g id="a_node15"><a xlink:title=" ">
<polygon fill="#e0e0e0" stroke="#999999" points="2296.5,-90.5 2255.5,-90.5 2255.5,-71.5 2296.5,-71.5 2296.5,-90.5"/>
<text text-anchor="middle" x="2276" y="-78.5" font-family="Helvetica,sans-Serif" font-size="10.00">string</text>
</a>
</g>
</g>
<!-- Node6&#45;&gt;Node15 -->
<g id="edge17" class="edge">
<title>Node6&#45;&gt;Node15</title>
<path fill="none" stroke="#63b8ff" d="M1869.33,-252.8C1886.43,-224.98 1939.58,-139.57 1952,-132 2064.76,-63.22 2120.27,-133.21 2247,-96 2248.44,-95.58 2249.9,-95.09 2251.36,-94.55"/>
<polygon fill="#63b8ff" stroke="#63b8ff" points="2252.92,-97.69 2260.72,-90.53 2250.15,-91.26 2252.92,-97.69"/>
</g>
<!-- Node16 -->
<g id="node16" class="node">
<title>Node16</title>
<g id="a_node16"><a xlink:title=" ">
<polygon fill="#e0e0e0" stroke="#999999" points="2685,-90.5 2641,-90.5 2641,-71.5 2685,-71.5 2685,-90.5"/>
<text text-anchor="middle" x="2663" y="-78.5" font-family="Helvetica,sans-Serif" font-size="10.00">vector</text>
</a>
</g>
</g>
<!-- Node6&#45;&gt;Node16 -->
<g id="edge18" class="edge">
<title>Node6&#45;&gt;Node16</title>
<path fill="none" stroke="#63b8ff" d="M1890.64,-260.59C1987.77,-257.1 2322.63,-243.37 2426,-217 2515.63,-194.14 2606.47,-127.56 2644.48,-97.3"/>
<polygon fill="#63b8ff" stroke="#63b8ff" points="2647,-99.76 2652.58,-90.76 2642.6,-94.32 2647,-99.76"/>
</g>
<!-- Node17 -->
<g id="node17" class="node">
<title>Node17</title>
<g id="a_node17"><a xlink:href="logging_8h.html" target="_top" xlink:title=" ">
<polygon fill="white" stroke="#666666" points="2194,-217 2138,-217 2138,-198 2194,-198 2194,-217"/>
<text text-anchor="middle" x="2166" y="-205" font-family="Helvetica,sans-Serif" font-size="10.00">logging.h</text>
</a>
</g>
</g>
<!-- Node6&#45;&gt;Node17 -->
<g id="edge21" class="edge">
<title>Node6&#45;&gt;Node17</title>
<path fill="none" stroke="#63b8ff" d="M1890.54,-256.84C1944.14,-247.43 2065.53,-226.13 2127.71,-215.22"/>
<polygon fill="#63b8ff" stroke="#63b8ff" points="2128.64,-218.61 2137.89,-213.43 2127.43,-211.72 2128.64,-218.61"/>
</g>
<!-- Node23 -->
<g id="node23" class="node">
<title>Node23</title>
<g id="a_node23"><a xlink:href="platform__channel_8h.html" target="_top" xlink:title=" ">
<polygon fill="white" stroke="#666666" points="2401.5,-156.5 2302.5,-156.5 2302.5,-137.5 2401.5,-137.5 2401.5,-156.5"/>
<text text-anchor="middle" x="2352" y="-144.5" font-family="Helvetica,sans-Serif" font-size="10.00">platform_channel.h</text>
</a>
</g>
</g>
<!-- Node6&#45;&gt;Node23 -->
<g id="edge28" class="edge">
<title>Node6&#45;&gt;Node23</title>
<path fill="none" stroke="#63b8ff" d="M1890.69,-261.19C1989.81,-259.74 2332.76,-252.23 2365,-217 2377.56,-203.28 2370.53,-181.4 2362.8,-165.97"/>
<polygon fill="#63b8ff" stroke="#63b8ff" points="2365.7,-163.98 2357.82,-156.9 2359.57,-167.35 2365.7,-163.98"/>
</g>
<!-- Node24 -->
<g id="node24" class="node">
<title>Node24</title>
<g id="a_node24"><a xlink:href="key__event_8h.html" target="_top" xlink:title=" ">
<polygon fill="white" stroke="#666666" points="1378,-162 1276,-162 1276,-132 1378,-132 1378,-162"/>
<text text-anchor="start" x="1284" y="-150" font-family="Helvetica,sans-Serif" font-size="10.00">static_plugins/key</text>
<text text-anchor="middle" x="1327" y="-139" font-family="Helvetica,sans-Serif" font-size="10.00">_event/key_event.h</text>
</a>
</g>
</g>
<!-- Node6&#45;&gt;Node24 -->
<g id="edge32" class="edge">
<title>Node6&#45;&gt;Node24</title>
<path fill="none" stroke="#63b8ff" d="M1837.23,-261.08C1774.42,-259.51 1613.16,-252.1 1484,-217 1440.13,-205.08 1392.73,-182.83 1361.63,-166.81"/>
<polygon fill="#63b8ff" stroke="#63b8ff" points="1363,-163.58 1352.52,-162.06 1359.77,-169.79 1363,-163.58"/>
</g>
<!-- Node30 -->
<g id="node30" class="node">
<title>Node30</title>
<g id="a_node30"><a xlink:href="text__input_8h.html" target="_top" xlink:title=" ">
<polygon fill="white" stroke="#666666" points="1838.5,-162 1741.5,-162 1741.5,-132 1838.5,-132 1838.5,-162"/>
<text text-anchor="start" x="1749.5" y="-150" font-family="Helvetica,sans-Serif" font-size="10.00">static_plugins/text</text>
<text text-anchor="middle" x="1790" y="-139" font-family="Helvetica,sans-Serif" font-size="10.00">_input/text_input.h</text>
</a>
</g>
</g>
<!-- Node6&#45;&gt;Node30 -->
<g id="edge44" class="edge">
<title>Node6&#45;&gt;Node30</title>
<path fill="none" stroke="#63b8ff" d="M1868.98,-252.66C1875.5,-239.77 1885,-215.48 1875,-198 1867.26,-184.47 1854.27,-174.24 1840.75,-166.67"/>
<polygon fill="#63b8ff" stroke="#63b8ff" points="1842.33,-163.55 1831.84,-162.07 1839.12,-169.77 1842.33,-163.55"/>
</g>
<!-- Node35 -->
<g id="node35" class="node">
<title>Node35</title>
<g id="a_node35"><a xlink:href="flutter__view_8h.html" target="_top" xlink:title=" ">
<polygon fill="white" stroke="#666666" points="2068,-217 1970,-217 1970,-198 2068,-198 2068,-217"/>
<text text-anchor="middle" x="2019" y="-205" font-family="Helvetica,sans-Serif" font-size="10.00">view/flutter_view.h</text>
</a>
</g>
</g>
<!-- Node6&#45;&gt;Node35 -->
<g id="edge58" class="edge">
<title>Node6&#45;&gt;Node35</title>
<path fill="none" stroke="#63b8ff" d="M1888.9,-252.98C1914.7,-244.16 1955.22,-230.31 1984.18,-220.41"/>
<polygon fill="#63b8ff" stroke="#63b8ff" points="1985.57,-223.63 1993.9,-217.08 1983.31,-217.01 1985.57,-223.63"/>
</g>
<!-- Node18 -->
<g id="node18" class="node">
<title>Node18</title>
<g id="a_node18"><a xlink:title=" ">
<polygon fill="#e0e0e0" stroke="#999999" points="2284,-156.5 2232,-156.5 2232,-137.5 2284,-137.5 2284,-156.5"/>
<text text-anchor="middle" x="2258" y="-144.5" font-family="Helvetica,sans-Serif" font-size="10.00">sstream</text>
</a>
</g>
</g>
<!-- Node17&#45;&gt;Node18 -->
<g id="edge22" class="edge">
<title>Node17&#45;&gt;Node18</title>
<path fill="none" stroke="#63b8ff" d="M2179.57,-197.87C2194.39,-188.45 2218.33,-173.23 2235.86,-162.08"/>
<polygon fill="#63b8ff" stroke="#63b8ff" points="2237.81,-164.99 2244.37,-156.67 2234.05,-159.08 2237.81,-164.99"/>
</g>
<!-- Node19 -->
<g id="node19" class="node">
<title>Node19</title>
<g id="a_node19"><a xlink:href="dlt_8h.html" target="_top" xlink:title=" ">
<polygon fill="white" stroke="#666666" points="2468.5,-156.5 2419.5,-156.5 2419.5,-137.5 2468.5,-137.5 2468.5,-156.5"/>
<text text-anchor="middle" x="2444" y="-144.5" font-family="Helvetica,sans-Serif" font-size="10.00">dlt/dlt.h</text>
</a>
</g>
</g>
<!-- Node17&#45;&gt;Node19 -->
<g id="edge23" class="edge">
<title>Node17&#45;&gt;Node19</title>
<path fill="none" stroke="#63b8ff" d="M2194.45,-200.65C2198.98,-199.74 2203.61,-198.83 2208,-198 2298.02,-180.91 2323.15,-188.06 2411,-162 2412.68,-161.5 2414.39,-160.94 2416.11,-160.34"/>
<polygon fill="#63b8ff" stroke="#63b8ff" points="2417.71,-163.48 2425.77,-156.6 2415.18,-156.95 2417.71,-163.48"/>
</g>
<!-- Node22 -->
<g id="node22" class="node">
<title>Node22</title>
<g id="a_node22"><a xlink:title=" ">
<polygon fill="#e0e0e0" stroke="#999999" points="2415.5,-90.5 2314.5,-90.5 2314.5,-71.5 2415.5,-71.5 2415.5,-90.5"/>
<text text-anchor="middle" x="2365" y="-78.5" font-family="Helvetica,sans-Serif" font-size="10.00">flutter/fml/macros.h</text>
</a>
</g>
</g>
<!-- Node17&#45;&gt;Node22 -->
<g id="edge27" class="edge">
<title>Node17&#45;&gt;Node22</title>
<path fill="none" stroke="#63b8ff" d="M2170.42,-197.82C2178.69,-182.41 2197.96,-150.18 2223,-132 2239.53,-120 2288.81,-104.01 2324.69,-93.38"/>
<polygon fill="#63b8ff" stroke="#63b8ff" points="2325.8,-96.7 2334.41,-90.53 2323.83,-89.99 2325.8,-96.7"/>
</g>
<!-- Node20 -->
<g id="node20" class="node">
<title>Node20</title>
<g id="a_node20"><a xlink:href="libdlt_8h.html" target="_top" xlink:title=" ">
<polygon fill="white" stroke="#666666" points="2622.5,-90.5 2563.5,-90.5 2563.5,-71.5 2622.5,-71.5 2622.5,-90.5"/>
<text text-anchor="middle" x="2593" y="-78.5" font-family="Helvetica,sans-Serif" font-size="10.00">dlt/libdlt.h</text>
</a>
</g>
</g>
<!-- Node19&#45;&gt;Node20 -->
<g id="edge24" class="edge">
<title>Node19&#45;&gt;Node20</title>
<path fill="none" stroke="#63b8ff" d="M2464.09,-137.37C2489.64,-126.39 2533.96,-107.36 2563.39,-94.72"/>
<polygon fill="#63b8ff" stroke="#63b8ff" points="2564.94,-97.86 2572.75,-90.7 2562.18,-91.43 2564.94,-97.86"/>
</g>
<!-- Node19&#45;&gt;Node22 -->
<g id="edge26" class="edge">
<title>Node19&#45;&gt;Node22</title>
<path fill="none" stroke="#63b8ff" d="M2433.35,-137.37C2420.62,-127.06 2399.12,-109.65 2383.63,-97.09"/>
<polygon fill="#63b8ff" stroke="#63b8ff" points="2385.71,-94.27 2375.74,-90.7 2381.3,-99.71 2385.71,-94.27"/>
</g>
<!-- Node21 -->
<g id="node21" class="node">
<title>Node21</title>
<g id="a_node21"><a xlink:title=" ">
<polygon fill="#e0e0e0" stroke="#999999" points="2616,-24.5 2570,-24.5 2570,-5.5 2616,-5.5 2616,-24.5"/>
<text text-anchor="middle" x="2593" y="-12.5" font-family="Helvetica,sans-Serif" font-size="10.00">cstdint</text>
</a>
</g>
</g>
<!-- Node20&#45;&gt;Node21 -->
<g id="edge25" class="edge">
<title>Node20&#45;&gt;Node21</title>
<path fill="none" stroke="#63b8ff" d="M2593,-71.37C2593,-62.16 2593,-47.29 2593,-35.27"/>
<polygon fill="#63b8ff" stroke="#63b8ff" points="2596.5,-34.91 2593,-24.91 2589.5,-34.91 2596.5,-34.91"/>
</g>
<!-- Node23&#45;&gt;Node2 -->
<g id="edge31" class="edge">
<title>Node23&#45;&gt;Node2</title>
<path fill="none" stroke="#63b8ff" d="M2389.24,-137.43C2436.91,-124.86 2509.77,-99.26 2478,-66 2442.92,-29.27 1698.71,-18.95 1462.96,-16.6"/>
<polygon fill="#63b8ff" stroke="#63b8ff" points="1462.82,-13.1 1452.79,-16.5 1462.76,-20.1 1462.82,-13.1"/>
</g>
<!-- Node23&#45;&gt;Node11 -->
<g id="edge29" class="edge">
<title>Node23&#45;&gt;Node11</title>
<path fill="none" stroke="#63b8ff" d="M2365.35,-137.37C2381.66,-126.82 2409.49,-108.84 2428.99,-96.23"/>
<polygon fill="#63b8ff" stroke="#63b8ff" points="2431.05,-99.07 2437.54,-90.7 2427.25,-93.19 2431.05,-99.07"/>
</g>
<!-- Node23&#45;&gt;Node15 -->
<g id="edge30" class="edge">
<title>Node23&#45;&gt;Node15</title>
<path fill="none" stroke="#63b8ff" d="M2341.75,-137.37C2329.69,-127.21 2309.44,-110.16 2294.59,-97.65"/>
<polygon fill="#63b8ff" stroke="#63b8ff" points="2296.48,-94.67 2286.57,-90.91 2291.97,-100.02 2296.48,-94.67"/>
</g>
<!-- Node24&#45;&gt;Node2 -->
<g id="edge41" class="edge">
<title>Node24&#45;&gt;Node2</title>
<path fill="none" stroke="#63b8ff" d="M1275.57,-138C1220.84,-127.28 1146.07,-104.94 1177,-66 1194.89,-43.47 1265.76,-30.17 1321.31,-23.02"/>
<polygon fill="#63b8ff" stroke="#63b8ff" points="1321.99,-26.46 1331.48,-21.76 1321.13,-19.51 1321.99,-26.46"/>
</g>
<!-- Node24&#45;&gt;Node3 -->
<g id="edge43" class="edge">
<title>Node24&#45;&gt;Node3</title>
<path fill="none" stroke="#63b8ff" d="M1275.64,-145.4C1174.95,-143.36 944.92,-134.5 756,-96 752.59,-95.3 749.07,-94.43 745.58,-93.46"/>
<polygon fill="#63b8ff" stroke="#63b8ff" points="746.54,-90.09 735.95,-90.54 744.5,-96.79 746.54,-90.09"/>
</g>
<!-- Node24&#45;&gt;Node11 -->
<g id="edge33" class="edge">
<title>Node24&#45;&gt;Node11</title>
<path fill="none" stroke="#63b8ff" d="M1378.32,-144.3C1588.39,-137.26 2374.05,-110.09 2425,-96 2426.09,-95.7 2427.18,-95.35 2428.27,-94.95"/>
<polygon fill="#63b8ff" stroke="#63b8ff" points="2430.09,-97.97 2437.72,-90.62 2427.17,-91.61 2430.09,-97.97"/>
</g>
<!-- Node24&#45;&gt;Node12 -->
<g id="edge34" class="edge">
<title>Node24&#45;&gt;Node12</title>
<path fill="none" stroke="#63b8ff" d="M1275.82,-142.65C1166.08,-135.18 911.3,-116.21 827,-96 824.63,-95.43 822.22,-94.75 819.81,-93.98"/>
<polygon fill="#63b8ff" stroke="#63b8ff" points="820.72,-90.59 810.12,-90.54 818.37,-97.19 820.72,-90.59"/>
</g>
<!-- Node24&#45;&gt;Node15 -->
<g id="edge35" class="edge">
<title>Node24&#45;&gt;Node15</title>
<path fill="none" stroke="#63b8ff" d="M1378.07,-144.4C1558.97,-138.57 2162.87,-117.66 2247,-96 2248.49,-95.62 2249.99,-95.15 2251.49,-94.63"/>
<polygon fill="#63b8ff" stroke="#63b8ff" points="2253.23,-97.7 2261.08,-90.59 2250.51,-91.25 2253.23,-97.7"/>
</g>
<!-- Node24&#45;&gt;Node22 -->
<g id="edge39" class="edge">
<title>Node24&#45;&gt;Node22</title>
<path fill="none" stroke="#63b8ff" d="M1378.27,-143.93C1566.59,-136.25 2214.02,-109.15 2306,-96 2311.81,-95.17 2317.88,-94.04 2323.84,-92.77"/>
<polygon fill="#63b8ff" stroke="#63b8ff" points="2324.68,-96.17 2333.66,-90.55 2323.14,-89.34 2324.68,-96.17"/>
</g>
<!-- Node25 -->
<g id="node25" class="node">
<title>Node25</title>
<g id="a_node25"><a xlink:title=" ">
<polygon fill="#e0e0e0" stroke="#999999" points="1129.5,-96 1016.5,-96 1016.5,-66 1129.5,-66 1129.5,-96"/>
<text text-anchor="start" x="1024.5" y="-84" font-family="Helvetica,sans-Serif" font-size="10.00">flutter/basic_message</text>
<text text-anchor="middle" x="1073" y="-73" font-family="Helvetica,sans-Serif" font-size="10.00">_channel.h</text>
</a>
</g>
</g>
<!-- Node24&#45;&gt;Node25 -->
<g id="edge36" class="edge">
<title>Node24&#45;&gt;Node25</title>
<path fill="none" stroke="#63b8ff" d="M1275.9,-133.13C1236.39,-123.17 1181.39,-109.31 1138.62,-98.54"/>
<polygon fill="#63b8ff" stroke="#63b8ff" points="1139.42,-95.13 1128.87,-96.08 1137.71,-101.91 1139.42,-95.13"/>
</g>
<!-- Node26 -->
<g id="node26" class="node">
<title>Node26</title>
<g id="a_node26"><a xlink:title=" ">
<polygon fill="#e0e0e0" stroke="#999999" points="1318,-90.5 1186,-90.5 1186,-71.5 1318,-71.5 1318,-90.5"/>
<text text-anchor="middle" x="1252" y="-78.5" font-family="Helvetica,sans-Serif" font-size="10.00">flutter/binary_messenger.h</text>
</a>
</g>
</g>
<!-- Node24&#45;&gt;Node26 -->
<g id="edge37" class="edge">
<title>Node24&#45;&gt;Node26</title>
<path fill="none" stroke="#63b8ff" d="M1310.36,-131.8C1298.43,-121.62 1282.39,-107.93 1270.14,-97.48"/>
<polygon fill="#63b8ff" stroke="#63b8ff" points="1272.24,-94.67 1262.36,-90.84 1267.7,-100 1272.24,-94.67"/>
</g>
<!-- Node27 -->
<g id="node27" class="node">
<title>Node27</title>
<g id="a_node27"><a xlink:title=" ">
<polygon fill="#e0e0e0" stroke="#999999" points="998.5,-96 835.5,-96 835.5,-66 998.5,-66 998.5,-96"/>
<text text-anchor="start" x="843.5" y="-84" font-family="Helvetica,sans-Serif" font-size="10.00">flutter/shell/platform</text>
<text text-anchor="middle" x="917" y="-73" font-family="Helvetica,sans-Serif" font-size="10.00">/common/json_message_codec.h</text>
</a>
</g>
</g>
<!-- Node24&#45;&gt;Node27 -->
<g id="edge38" class="edge">
<title>Node24&#45;&gt;Node27</title>
<path fill="none" stroke="#63b8ff" d="M1275.9,-138.02C1209.14,-127.6 1091.04,-109.17 1008.62,-96.3"/>
<polygon fill="#63b8ff" stroke="#63b8ff" points="1008.92,-92.81 998.5,-94.72 1007.84,-99.72 1008.92,-92.81"/>
</g>
<!-- Node28 -->
<g id="node28" class="node">
<title>Node28</title>
<g id="a_node28"><a xlink:title=" ">
<polygon fill="#e0e0e0" stroke="#999999" points="1598,-90.5 1488,-90.5 1488,-71.5 1598,-71.5 1598,-90.5"/>
<text text-anchor="middle" x="1543" y="-78.5" font-family="Helvetica,sans-Serif" font-size="10.00">rapidjson/document.h</text>
</a>
</g>
</g>
<!-- Node24&#45;&gt;Node28 -->
<g id="edge40" class="edge">
<title>Node24&#45;&gt;Node28</title>
<path fill="none" stroke="#63b8ff" d="M1374.4,-131.95C1413.45,-120.38 1468.13,-104.18 1504.51,-93.41"/>
<polygon fill="#63b8ff" stroke="#63b8ff" points="1505.66,-96.71 1514.25,-90.52 1503.67,-90 1505.66,-96.71"/>
</g>
<!-- Node29 -->
<g id="node29" class="node">
<title>Node29</title>
<g id="a_node29"><a xlink:title=" ">
<polygon fill="#e0e0e0" stroke="#999999" points="1470,-90.5 1336,-90.5 1336,-71.5 1470,-71.5 1470,-90.5"/>
<text text-anchor="middle" x="1403" y="-78.5" font-family="Helvetica,sans-Serif" font-size="10.00">xkbcommon/xkbcommon.h</text>
</a>
</g>
</g>
<!-- Node24&#45;&gt;Node29 -->
<g id="edge42" class="edge">
<title>Node24&#45;&gt;Node29</title>
<path fill="none" stroke="#63b8ff" d="M1343.87,-131.8C1355.95,-121.62 1372.21,-107.93 1384.62,-97.48"/>
<polygon fill="#63b8ff" stroke="#63b8ff" points="1387.1,-99.96 1392.5,-90.84 1382.59,-94.61 1387.1,-99.96"/>
</g>
<!-- Node30&#45;&gt;Node2 -->
<g id="edge55" class="edge">
<title>Node30&#45;&gt;Node2</title>
<path fill="none" stroke="#63b8ff" d="M1741.36,-133.36C1712.65,-124.88 1676.16,-112.28 1646,-96 1626.76,-85.61 1626.77,-75.36 1607,-66 1561.46,-44.45 1506,-31.84 1462.81,-24.68"/>
<polygon fill="#63b8ff" stroke="#63b8ff" points="1463.1,-21.18 1452.67,-23.06 1462,-28.1 1463.1,-21.18"/>
</g>
<!-- Node30&#45;&gt;Node3 -->
<g id="edge57" class="edge">
<title>Node30&#45;&gt;Node3</title>
<path fill="none" stroke="#63b8ff" d="M1741.49,-144.41C1550.14,-138.06 853.44,-113.89 756,-96 752.5,-95.36 748.88,-94.5 745.31,-93.53"/>
<polygon fill="#63b8ff" stroke="#63b8ff" points="746.06,-90.1 735.47,-90.56 744.03,-96.8 746.06,-90.1"/>
</g>
<!-- Node30&#45;&gt;Node11 -->
<g id="edge45" class="edge">
<title>Node30&#45;&gt;Node11</title>
<path fill="none" stroke="#63b8ff" d="M1838.55,-141.67C1870.72,-138.84 1913.87,-135.1 1952,-132 2162.14,-114.92 2222.67,-155.27 2425,-96 2426.08,-95.68 2427.17,-95.32 2428.26,-94.91"/>
<polygon fill="#63b8ff" stroke="#63b8ff" points="2430.1,-97.92 2437.7,-90.54 2427.15,-91.57 2430.1,-97.92"/>
</g>
<!-- Node30&#45;&gt;Node12 -->
<g id="edge46" class="edge">
<title>Node30&#45;&gt;Node12</title>
<path fill="none" stroke="#63b8ff" d="M1741.4,-144.38C1558.39,-138.18 916.67,-115.24 827,-96 824.48,-95.46 821.9,-94.76 819.34,-93.97"/>
<polygon fill="#63b8ff" stroke="#63b8ff" points="820.3,-90.6 809.71,-90.57 817.97,-97.2 820.3,-90.6"/>
</g>
<!-- Node30&#45;&gt;Node15 -->
<g id="edge47" class="edge">
<title>Node30&#45;&gt;Node15</title>
<path fill="none" stroke="#63b8ff" d="M1838.91,-140.65C1956.8,-127.75 2247,-96 2247,-96 2248.44,-95.59 2249.9,-95.1 2251.36,-94.57"/>
<polygon fill="#63b8ff" stroke="#63b8ff" points="2252.91,-97.72 2260.73,-90.57 2250.16,-91.28 2252.91,-97.72"/>
</g>
<!-- Node30&#45;&gt;Node22 -->
<g id="edge51" class="edge">
<title>Node30&#45;&gt;Node22</title>
<path fill="none" stroke="#63b8ff" d="M1838.73,-141.66C1958.46,-130.94 2260.61,-103.55 2306,-96 2311.45,-95.09 2317.15,-93.97 2322.76,-92.76"/>
<polygon fill="#63b8ff" stroke="#63b8ff" points="2323.72,-96.13 2332.7,-90.5 2322.18,-89.3 2323.72,-96.13"/>
</g>
<!-- Node30&#45;&gt;Node26 -->
<g id="edge48" class="edge">
<title>Node30&#45;&gt;Node26</title>
<path fill="none" stroke="#63b8ff" d="M1741.18,-141.97C1656.59,-134.72 1477.38,-118.12 1327,-96 1319.79,-94.94 1312.22,-93.69 1304.77,-92.38"/>
<polygon fill="#63b8ff" stroke="#63b8ff" points="1305.2,-88.9 1294.74,-90.57 1303.96,-95.79 1305.2,-88.9"/>
</g>
<!-- Node30&#45;&gt;Node28 -->
<g id="edge54" class="edge">
<title>Node30&#45;&gt;Node28</title>
<path fill="none" stroke="#63b8ff" d="M1741.5,-133.43C1696.14,-121.68 1629.06,-104.3 1585.68,-93.06"/>
<polygon fill="#63b8ff" stroke="#63b8ff" points="1586.56,-89.67 1576,-90.55 1584.8,-96.45 1586.56,-89.67"/>
</g>
<!-- Node30&#45;&gt;Node29 -->
<g id="edge56" class="edge">
<title>Node30&#45;&gt;Node29</title>
<path fill="none" stroke="#63b8ff" d="M1741.46,-138.55C1680.22,-129.06 1571.69,-111.99 1479,-96 1472.34,-94.85 1465.35,-93.61 1458.43,-92.36"/>
<polygon fill="#63b8ff" stroke="#63b8ff" points="1458.85,-88.88 1448.38,-90.53 1457.59,-95.77 1458.85,-88.88"/>
</g>
<!-- Node31 -->
<g id="node31" class="node">
<title>Node31</title>
<g id="a_node31"><a xlink:title=" ">
<polygon fill="#e0e0e0" stroke="#999999" points="1940,-90.5 1816,-90.5 1816,-71.5 1940,-71.5 1940,-90.5"/>
<text text-anchor="middle" x="1878" y="-78.5" font-family="Helvetica,sans-Serif" font-size="10.00">flutter/method_channel.h</text>
</a>
</g>
</g>
<!-- Node30&#45;&gt;Node31 -->
<g id="edge49" class="edge">
<title>Node30&#45;&gt;Node31</title>
<path fill="none" stroke="#63b8ff" d="M1809.53,-131.8C1823.87,-121.37 1843.3,-107.24 1857.79,-96.69"/>
<polygon fill="#63b8ff" stroke="#63b8ff" points="1860.07,-99.37 1866.09,-90.66 1855.95,-93.71 1860.07,-99.37"/>
</g>
<!-- Node32 -->
<g id="node32" class="node">
<title>Node32</title>
<g id="a_node32"><a xlink:title=" ">
<polygon fill="#e0e0e0" stroke="#999999" points="2064,-96 1958,-96 1958,-66 2064,-66 2064,-96"/>
<text text-anchor="start" x="1966" y="-84" font-family="Helvetica,sans-Serif" font-size="10.00">flutter/method_result</text>
<text text-anchor="middle" x="2011" y="-73" font-family="Helvetica,sans-Serif" font-size="10.00">_functions.h</text>
</a>
</g>
</g>
<!-- Node30&#45;&gt;Node32 -->
<g id="edge50" class="edge">
<title>Node30&#45;&gt;Node32</title>
<path fill="none" stroke="#63b8ff" d="M1838.5,-131.95C1872.18,-122.2 1917.22,-109.16 1952.84,-98.84"/>
<polygon fill="#63b8ff" stroke="#63b8ff" points="1953.98,-102.16 1962.61,-96.01 1952.03,-95.43 1953.98,-102.16"/>
</g>
<!-- Node33 -->
<g id="node33" class="node">
<title>Node33</title>
<g id="a_node33"><a xlink:title=" ">
<polygon fill="#e0e0e0" stroke="#999999" points="2237.5,-96 2082.5,-96 2082.5,-66 2237.5,-66 2237.5,-96"/>
<text text-anchor="start" x="2090.5" y="-84" font-family="Helvetica,sans-Serif" font-size="10.00">flutter/shell/platform</text>
<text text-anchor="middle" x="2160" y="-73" font-family="Helvetica,sans-Serif" font-size="10.00">/common/json_method_codec.h</text>
</a>
</g>
</g>
<!-- Node30&#45;&gt;Node33 -->
<g id="edge52" class="edge">
<title>Node30&#45;&gt;Node33</title>
<path fill="none" stroke="#63b8ff" d="M1838.75,-137.57C1898.07,-127.31 1999.32,-109.79 2072.32,-97.17"/>
<polygon fill="#63b8ff" stroke="#63b8ff" points="2073.16,-100.57 2082.42,-95.42 2071.97,-93.67 2073.16,-100.57"/>
</g>
<!-- Node34 -->
<g id="node34" class="node">
<title>Node34</title>
<g id="a_node34"><a xlink:title=" ">
<polygon fill="#e0e0e0" stroke="#999999" points="1797.5,-96 1654.5,-96 1654.5,-66 1797.5,-66 1797.5,-96"/>
<text text-anchor="start" x="1662.5" y="-84" font-family="Helvetica,sans-Serif" font-size="10.00">flutter/shell/platform</text>
<text text-anchor="middle" x="1726" y="-73" font-family="Helvetica,sans-Serif" font-size="10.00">/common/text_input_model.h</text>
</a>
</g>
</g>
<!-- Node30&#45;&gt;Node34 -->
<g id="edge53" class="edge">
<title>Node30&#45;&gt;Node34</title>
<path fill="none" stroke="#63b8ff" d="M1775.8,-131.8C1767.43,-123.43 1756.68,-112.68 1747.31,-103.31"/>
<polygon fill="#63b8ff" stroke="#63b8ff" points="1749.71,-100.76 1740.16,-96.16 1744.76,-105.71 1749.71,-100.76"/>
</g>
<!-- Node35&#45;&gt;Node11 -->
<g id="edge59" class="edge">
<title>Node35&#45;&gt;Node11</title>
<path fill="none" stroke="#63b8ff" d="M2055.26,-197.94C2085.89,-190.18 2130.62,-177.58 2168,-162 2193.7,-151.29 2196.73,-141.23 2223,-132 2309.04,-101.77 2338.88,-125.99 2425,-96 2425.89,-95.69 2426.79,-95.35 2427.68,-94.99"/>
<polygon fill="#63b8ff" stroke="#63b8ff" points="2429.53,-97.99 2437.07,-90.55 2426.53,-91.66 2429.53,-97.99"/>
</g>
<!-- Node35&#45;&gt;Node12 -->
<g id="edge60" class="edge">
<title>Node35&#45;&gt;Node12</title>
<path fill="none" stroke="#63b8ff" d="M1969.82,-203.6C1803.05,-193.75 1269.2,-162.23 1267,-162 1070.33,-141.47 1018.1,-146.82 827,-96 824.7,-95.39 822.35,-94.68 820.01,-93.91"/>
<polygon fill="#63b8ff" stroke="#63b8ff" points="821.14,-90.6 810.54,-90.51 818.77,-97.18 821.14,-90.6"/>
</g>
<!-- Node35&#45;&gt;Node22 -->
<g id="edge66" class="edge">
<title>Node35&#45;&gt;Node22</title>
<path fill="none" stroke="#63b8ff" d="M2036.66,-197.88C2067.34,-183.1 2132.7,-152.57 2190,-132 2233.44,-116.41 2284.29,-102.33 2319.94,-93.11"/>
<polygon fill="#63b8ff" stroke="#63b8ff" points="2321.22,-96.4 2330.04,-90.53 2319.48,-89.62 2321.22,-96.4"/>
</g>
<!-- Node36 -->
<g id="node36" class="node">
<title>Node36</title>
<g id="a_node36"><a xlink:href="configuration_8h.html" target="_top" xlink:title=" ">
<polygon fill="white" stroke="#666666" points="2099.5,-156.5 1960.5,-156.5 1960.5,-137.5 2099.5,-137.5 2099.5,-156.5"/>
<text text-anchor="middle" x="2030" y="-144.5" font-family="Helvetica,sans-Serif" font-size="10.00">configuration/configuration.h</text>
</a>
</g>
</g>
<!-- Node35&#45;&gt;Node36 -->
<g id="edge61" class="edge">
<title>Node35&#45;&gt;Node36</title>
<path fill="none" stroke="#63b8ff" d="M2020.62,-197.87C2022.17,-189.66 2024.54,-177.04 2026.51,-166.55"/>
<polygon fill="#63b8ff" stroke="#63b8ff" points="2029.96,-167.14 2028.37,-156.67 2023.08,-165.85 2029.96,-167.14"/>
</g>
<!-- Node37 -->
<g id="node37" class="node">
<title>Node37</title>
<g id="a_node37"><a xlink:href="window_8h.html" target="_top" xlink:title=" ">
<polygon fill="white" stroke="#666666" points="667,-156.5 571,-156.5 571,-137.5 667,-137.5 667,-156.5"/>
<text text-anchor="middle" x="619" y="-144.5" font-family="Helvetica,sans-Serif" font-size="10.00">wayland/window.h</text>
</a>
</g>
</g>
<!-- Node35&#45;&gt;Node37 -->
<g id="edge67" class="edge">
<title>Node35&#45;&gt;Node37</title>
<path fill="none" stroke="#63b8ff" d="M1969.69,-203.36C1941.89,-201.64 1906.52,-199.56 1875,-198 1413.66,-175.2 856.6,-155.92 677.47,-149.93"/>
<polygon fill="#63b8ff" stroke="#63b8ff" points="677.33,-146.42 667.22,-149.59 677.09,-153.42 677.33,-146.42"/>
</g>
<!-- Node36&#45;&gt;Node15 -->
<g id="edge62" class="edge">
<title>Node36&#45;&gt;Node15</title>
<path fill="none" stroke="#63b8ff" d="M2081.78,-137.44C2126.33,-129.28 2191.93,-115.36 2247,-96 2248.22,-95.57 2249.45,-95.11 2250.68,-94.62"/>
<polygon fill="#63b8ff" stroke="#63b8ff" points="2252.28,-97.74 2260.01,-90.5 2249.45,-91.34 2252.28,-97.74"/>
</g>
<!-- Node36&#45;&gt;Node16 -->
<g id="edge63" class="edge">
<title>Node36&#45;&gt;Node16</title>
<path fill="none" stroke="#63b8ff" d="M2099.6,-140.86C2252.58,-129.46 2606.59,-102.58 2632,-96 2633.69,-95.56 2635.4,-95.04 2637.11,-94.46"/>
<polygon fill="#63b8ff" stroke="#63b8ff" points="2638.67,-97.6 2646.65,-90.64 2636.06,-91.1 2638.67,-97.6"/>
</g>
<!-- Node36&#45;&gt;Node22 -->
<g id="edge64" class="edge">
<title>Node36&#45;&gt;Node22</title>
<path fill="none" stroke="#63b8ff" d="M2081.79,-137.47C2137.38,-128.12 2228.19,-112.27 2306,-96 2310.71,-95.02 2315.62,-93.94 2320.51,-92.83"/>
<polygon fill="#63b8ff" stroke="#63b8ff" points="2321.49,-96.19 2330.44,-90.53 2319.91,-89.37 2321.49,-96.19"/>
</g>
<!-- Node36&#45;&gt;Node28 -->
<g id="edge65" class="edge">
<title>Node36&#45;&gt;Node28</title>
<path fill="none" stroke="#63b8ff" d="M1963.73,-137.49C1887.18,-127.62 1757.46,-110.83 1646,-96 1633.72,-94.37 1620.62,-92.6 1608.02,-90.89"/>
<polygon fill="#63b8ff" stroke="#63b8ff" points="1608.43,-87.42 1598.05,-89.54 1607.49,-94.35 1608.43,-87.42"/>
</g>
<!-- Node37&#45;&gt;Node1 -->
<g id="edge73" class="edge">
<title>Node37&#45;&gt;Node1</title>
<path fill="none" stroke="#63b8ff" d="M623.58,-156.75C636.93,-182.23 676.21,-257.25 698.01,-298.87"/>
<polygon fill="#63b8ff" stroke="#63b8ff" points="695.02,-300.71 702.76,-307.95 701.22,-297.47 695.02,-300.71"/>
</g>
<!-- Node37&#45;&gt;Node3 -->
<g id="edge72" class="edge">
<title>Node37&#45;&gt;Node3</title>
<path fill="none" stroke="#63b8ff" d="M631.68,-137.37C647.09,-126.87 673.35,-109 691.85,-96.4"/>
<polygon fill="#63b8ff" stroke="#63b8ff" points="693.93,-99.22 700.22,-90.7 689.99,-93.43 693.93,-99.22"/>
</g>
<!-- Node37&#45;&gt;Node12 -->
<g id="edge68" class="edge">
<title>Node37&#45;&gt;Node12</title>
<path fill="none" stroke="#63b8ff" d="M643.34,-137.37C670.79,-127.58 716.74,-111.01 756,-96 757.41,-95.46 758.86,-94.9 760.31,-94.34"/>
<polygon fill="#63b8ff" stroke="#63b8ff" points="761.92,-97.47 769.94,-90.54 759.35,-90.95 761.92,-97.47"/>
</g>
<!-- Node37&#45;&gt;Node15 -->
<g id="edge69" class="edge">
<title>Node37&#45;&gt;Node15</title>
<path fill="none" stroke="#63b8ff" d="M667.32,-144.79C933.23,-138.11 2207.65,-105.64 2247,-96 2248.68,-95.59 2250.38,-95.07 2252.06,-94.48"/>
<polygon fill="#63b8ff" stroke="#63b8ff" points="2253.56,-97.65 2261.4,-90.52 2250.83,-91.21 2253.56,-97.65"/>
</g>
<!-- Node38 -->
<g id="node38" class="node">
<title>Node38</title>
<g id="a_node38"><a xlink:title=" ">
<polygon fill="#e0e0e0" stroke="#999999" points="261.5,-90.5 212.5,-90.5 212.5,-71.5 261.5,-71.5 261.5,-90.5"/>
<text text-anchor="middle" x="237" y="-78.5" font-family="Helvetica,sans-Serif" font-size="10.00">cassert</text>
</a>
</g>
</g>
<!-- Node37&#45;&gt;Node38 -->
<g id="edge70" class="edge">
<title>Node37&#45;&gt;Node38</title>
<path fill="none" stroke="#63b8ff" d="M570.78,-143.05C502.68,-137.99 374.95,-125.25 270,-96 268.11,-95.47 266.19,-94.87 264.27,-94.2"/>
<polygon fill="#63b8ff" stroke="#63b8ff" points="265.44,-90.9 254.85,-90.57 262.92,-97.43 265.44,-90.9"/>
</g>
<!-- Node39 -->
<g id="node39" class="node">
<title>Node39</title>
<g id="a_node39"><a xlink:title=" ">
<polygon fill="#e0e0e0" stroke="#999999" points="404.5,-90.5 279.5,-90.5 279.5,-71.5 404.5,-71.5 404.5,-90.5"/>
<text text-anchor="middle" x="342" y="-78.5" font-family="Helvetica,sans-Serif" font-size="10.00">agl&#45;shell&#45;client&#45;protocol.h</text>
</a>
</g>
</g>
<!-- Node37&#45;&gt;Node39 -->
<g id="edge71" class="edge">
<title>Node37&#45;&gt;Node39</title>
<path fill="none" stroke="#63b8ff" d="M581.93,-137.44C531.97,-125.89 443.02,-105.34 388.59,-92.77"/>
<polygon fill="#63b8ff" stroke="#63b8ff" points="389.38,-89.36 378.85,-90.51 387.81,-96.18 389.38,-89.36"/>
</g>
<!-- Node40 -->
<g id="node40" class="node">
<title>Node40</title>
<g id="a_node40"><a xlink:title=" ">
<polygon fill="#e0e0e0" stroke="#999999" points="525,-96 423,-96 423,-66 525,-66 525,-96"/>
<text text-anchor="start" x="431" y="-84" font-family="Helvetica,sans-Serif" font-size="10.00">ivi&#45;application&#45;client</text>
<text text-anchor="middle" x="474" y="-73" font-family="Helvetica,sans-Serif" font-size="10.00">&#45;protocol.h</text>
</a>
</g>
</g>
<!-- Node37&#45;&gt;Node40 -->
<g id="edge74" class="edge">
<title>Node37&#45;&gt;Node40</title>
<path fill="none" stroke="#63b8ff" d="M599.44,-137.37C578.01,-127.91 542.99,-112.45 515.4,-100.27"/>
<polygon fill="#63b8ff" stroke="#63b8ff" points="516.54,-96.95 505.98,-96.12 513.72,-103.36 516.54,-96.95"/>
</g>
<!-- Node41 -->
<g id="node41" class="node">
<title>Node41</title>
<g id="a_node41"><a xlink:title=" ">
<polygon fill="#e0e0e0" stroke="#999999" points="660.5,-90.5 543.5,-90.5 543.5,-71.5 660.5,-71.5 660.5,-90.5"/>
<text text-anchor="middle" x="602" y="-78.5" font-family="Helvetica,sans-Serif" font-size="10.00">ivi&#45;wm&#45;client&#45;protocol.h</text>
</a>
</g>
</g>
<!-- Node37&#45;&gt;Node41 -->
<g id="edge75" class="edge">
<title>Node37&#45;&gt;Node41</title>
<path fill="none" stroke="#63b8ff" d="M616.71,-137.37C614.24,-128.07 610.23,-112.98 607.02,-100.9"/>
<polygon fill="#63b8ff" stroke="#63b8ff" points="610.32,-99.67 604.37,-90.91 603.55,-101.47 610.32,-99.67"/>
</g>
<!-- Node42 -->
<g id="node42" class="node">
<title>Node42</title>
<g id="a_node42"><a xlink:title=" ">
<polygon fill="#e0e0e0" stroke="#999999" points="194,-90.5 66,-90.5 66,-71.5 194,-71.5 194,-90.5"/>
<text text-anchor="middle" x="130" y="-78.5" font-family="Helvetica,sans-Serif" font-size="10.00">xdg&#45;shell&#45;client&#45;protocol.h</text>
</a>
</g>
</g>
<!-- Node37&#45;&gt;Node42 -->
<g id="edge76" class="edge">
<title>Node37&#45;&gt;Node42</title>
<path fill="none" stroke="#63b8ff" d="M570.81,-141.31C493.15,-133.51 335.61,-116.66 203,-96 196.23,-94.95 189.13,-93.73 182.13,-92.46"/>
<polygon fill="#63b8ff" stroke="#63b8ff" points="182.46,-88.96 171.99,-90.57 181.18,-95.84 182.46,-88.96"/>
</g>
</g>
</svg>
