<?xml version="1.0" encoding="UTF-8" standalone="no"?>
<!DOCTYPE svg PUBLIC "-//W3C//DTD SVG 1.1//EN"
 "http://www.w3.org/Graphics/SVG/1.1/DTD/svg11.dtd">
<!-- Generated by graphviz version 5.0.0 (0)
 -->
<!-- Title: /mnt/raid10/stargate/ivi&#45;homescreen/shell/backend/backend.h Pages: 1 -->
<svg width="3812pt" height="390pt"
 viewBox="0.00 0.00 3812.00 390.00" xmlns="http://www.w3.org/2000/svg" xmlns:xlink="http://www.w3.org/1999/xlink">
<g id="graph0" class="graph" transform="scale(1 1) rotate(0) translate(4 386)">
<title>/mnt/raid10/stargate/ivi&#45;homescreen/shell/backend/backend.h</title>
<!-- Node1 -->
<g id="node1" class="node">
<title>Node1</title>
<g id="a_node1"><a xlink:title=" ">
<polygon fill="#999999" stroke="#666666" points="1833,-382 1724,-382 1724,-341 1833,-341 1833,-382"/>
<text text-anchor="start" x="1732" y="-370" font-family="Helvetica,sans-Serif" font-size="10.00">/mnt/raid10/stargate</text>
<text text-anchor="start" x="1732" y="-359" font-family="Helvetica,sans-Serif" font-size="10.00">/ivi&#45;homescreen/shell</text>
<text text-anchor="middle" x="1778.5" y="-348" font-family="Helvetica,sans-Serif" font-size="10.00">/backend/backend.h</text>
</a>
</g>
</g>
<!-- Node2 -->
<g id="node2" class="node">
<title>Node2</title>
<g id="a_node2"><a xlink:href="wayland__egl_8h.html" target="_top" xlink:title=" ">
<polygon fill="white" stroke="#666666" points="1507.5,-222.5 1385.5,-222.5 1385.5,-181.5 1507.5,-181.5 1507.5,-222.5"/>
<text text-anchor="start" x="1393.5" y="-210.5" font-family="Helvetica,sans-Serif" font-size="10.00">/mnt/raid10/stargate</text>
<text text-anchor="start" x="1393.5" y="-199.5" font-family="Helvetica,sans-Serif" font-size="10.00">/ivi&#45;homescreen/shell</text>
<text text-anchor="middle" x="1446.5" y="-188.5" font-family="Helvetica,sans-Serif" font-size="10.00">/backend/wayland_egl.h</text>
</a>
</g>
</g>
<!-- Node1&#45;&gt;Node2 -->
<g id="edge1" class="edge">
<title>Node1&#45;&gt;Node2</title>
<path fill="none" stroke="#63b8ff" d="M1727.77,-336.43C1661.94,-305.21 1548.35,-251.32 1487.62,-222.5"/>
<polygon fill="#63b8ff" stroke="#63b8ff" points="1726.59,-339.75 1737.12,-340.87 1729.59,-333.42 1726.59,-339.75"/>
</g>
<!-- Node7 -->
<g id="node7" class="node">
<title>Node7</title>
<g id="a_node7"><a xlink:href="wayland__vulkan_8h.html" target="_top" xlink:title=" ">
<polygon fill="white" stroke="#666666" points="1426,-305 1289,-305 1289,-264 1426,-264 1426,-305"/>
<text text-anchor="start" x="1297" y="-293" font-family="Helvetica,sans-Serif" font-size="10.00">/mnt/raid10/stargate</text>
<text text-anchor="start" x="1297" y="-282" font-family="Helvetica,sans-Serif" font-size="10.00">/ivi&#45;homescreen/shell</text>
<text text-anchor="middle" x="1357.5" y="-271" font-family="Helvetica,sans-Serif" font-size="10.00">/backend/wayland_vulkan.h</text>
</a>
</g>
</g>
<!-- Node1&#45;&gt;Node7 -->
<g id="edge6" class="edge">
<title>Node1&#45;&gt;Node7</title>
<path fill="none" stroke="#63b8ff" d="M1713.74,-348.96C1635.92,-335.1 1505.91,-311.94 1426.33,-297.76"/>
<polygon fill="#63b8ff" stroke="#63b8ff" points="1713.43,-352.46 1723.89,-350.77 1714.66,-345.57 1713.43,-352.46"/>
</g>
<!-- Node9 -->
<g id="node9" class="node">
<title>Node9</title>
<g id="a_node9"><a xlink:href="engine_8h.html" target="_top" xlink:title=" ">
<polygon fill="white" stroke="#666666" points="1833,-134.5 1724,-134.5 1724,-93.5 1833,-93.5 1833,-134.5"/>
<text text-anchor="start" x="1732" y="-122.5" font-family="Helvetica,sans-Serif" font-size="10.00">/mnt/raid10/stargate</text>
<text text-anchor="start" x="1732" y="-111.5" font-family="Helvetica,sans-Serif" font-size="10.00">/ivi&#45;homescreen/shell</text>
<text text-anchor="middle" x="1778.5" y="-100.5" font-family="Helvetica,sans-Serif" font-size="10.00">/engine.h</text>
</a>
</g>
</g>
<!-- Node1&#45;&gt;Node9 -->
<g id="edge8" class="edge">
<title>Node1&#45;&gt;Node9</title>
<path fill="none" stroke="#63b8ff" d="M1773.91,-330.81C1770.81,-280.01 1771.05,-177.77 1774.61,-134.77"/>
<polygon fill="#63b8ff" stroke="#63b8ff" points="1770.42,-331.1 1774.62,-340.82 1777.4,-330.6 1770.42,-331.1"/>
</g>
<!-- Node31 -->
<g id="node31" class="node">
<title>Node31</title>
<g id="a_node31"><a xlink:href="window_8h.html" target="_top" xlink:title=" ">
<polygon fill="white" stroke="#666666" points="3097,-305 2988,-305 2988,-264 3097,-264 3097,-305"/>
<text text-anchor="start" x="2996" y="-293" font-family="Helvetica,sans-Serif" font-size="10.00">/mnt/raid10/stargate</text>
<text text-anchor="start" x="2996" y="-282" font-family="Helvetica,sans-Serif" font-size="10.00">/ivi&#45;homescreen/shell</text>
<text text-anchor="middle" x="3042.5" y="-271" font-family="Helvetica,sans-Serif" font-size="10.00">/wayland/window.h</text>
</a>
</g>
</g>
<!-- Node1&#45;&gt;Node31 -->
<g id="edge34" class="edge">
<title>Node1&#45;&gt;Node31</title>
<path fill="none" stroke="#63b8ff" d="M1843.34,-356.65C2063.96,-343.56 2783.13,-300.89 2987.74,-288.75"/>
<polygon fill="#63b8ff" stroke="#63b8ff" points="1842.99,-353.17 1833.22,-357.25 1843.41,-360.15 1842.99,-353.17"/>
</g>
<!-- Node3 -->
<g id="node3" class="node">
<title>Node3</title>
<g id="a_node3"><a xlink:href="wayland__egl_8cc.html" target="_top" xlink:title=" ">
<polygon fill="white" stroke="#666666" points="288,-46.5 161,-46.5 161,-5.5 288,-5.5 288,-46.5"/>
<text text-anchor="start" x="169" y="-34.5" font-family="Helvetica,sans-Serif" font-size="10.00">/mnt/raid10/stargate</text>
<text text-anchor="start" x="169" y="-23.5" font-family="Helvetica,sans-Serif" font-size="10.00">/ivi&#45;homescreen/shell</text>
<text text-anchor="middle" x="224.5" y="-12.5" font-family="Helvetica,sans-Serif" font-size="10.00">/backend/wayland_egl.cc</text>
</a>
</g>
</g>
<!-- Node2&#45;&gt;Node3 -->
<g id="edge2" class="edge">
<title>Node2&#45;&gt;Node3</title>
<path fill="none" stroke="#63b8ff" d="M1374.94,-197.31C1192.75,-186.73 697.47,-150.43 297.5,-52 291.13,-50.43 284.52,-48.55 278,-46.53"/>
<polygon fill="#63b8ff" stroke="#63b8ff" points="1375.01,-200.82 1385.19,-197.9 1375.41,-193.83 1375.01,-200.82"/>
</g>
<!-- Node4 -->
<g id="node4" class="node">
<title>Node4</title>
<g id="a_node4"><a xlink:href="gstreamer__egl_8cc.html" target="_top" xlink:title=" ">
<polygon fill="white" stroke="#666666" points="432.5,-52 306.5,-52 306.5,0 432.5,0 432.5,-52"/>
<text text-anchor="start" x="314.5" y="-40" font-family="Helvetica,sans-Serif" font-size="10.00">/mnt/raid10/stargate</text>
<text text-anchor="start" x="314.5" y="-29" font-family="Helvetica,sans-Serif" font-size="10.00">/ivi&#45;homescreen/shell</text>
<text text-anchor="start" x="314.5" y="-18" font-family="Helvetica,sans-Serif" font-size="10.00">/static_plugins/gstreamer</text>
<text text-anchor="middle" x="369.5" y="-7" font-family="Helvetica,sans-Serif" font-size="10.00">_egl/gstreamer_egl.cc</text>
</a>
</g>
</g>
<!-- Node2&#45;&gt;Node4 -->
<g id="edge3" class="edge">
<title>Node2&#45;&gt;Node4</title>
<path fill="none" stroke="#63b8ff" d="M1375.54,-184.5C1267.09,-159.87 1053.32,-113.65 869.5,-88 680.44,-61.62 628.24,-91.62 441.5,-52 438.65,-51.4 435.76,-50.71 432.86,-49.96"/>
<polygon fill="#63b8ff" stroke="#63b8ff" points="1374.86,-187.93 1385.39,-186.74 1376.41,-181.11 1374.86,-187.93"/>
</g>
<!-- Node5 -->
<g id="node5" class="node">
<title>Node5</title>
<g id="a_node5"><a xlink:href="texture__navi__render__egl_8cc.html" target="_top" xlink:title=" ">
<polygon fill="white" stroke="#666666" points="1524,-140 1369,-140 1369,-88 1524,-88 1524,-140"/>
<text text-anchor="start" x="1377" y="-128" font-family="Helvetica,sans-Serif" font-size="10.00">/mnt/raid10/stargate</text>
<text text-anchor="start" x="1377" y="-117" font-family="Helvetica,sans-Serif" font-size="10.00">/ivi&#45;homescreen/shell</text>
<text text-anchor="start" x="1377" y="-106" font-family="Helvetica,sans-Serif" font-size="10.00">/textures/navi_render</text>
<text text-anchor="middle" x="1446.5" y="-95" font-family="Helvetica,sans-Serif" font-size="10.00">_egl/texture_navi_render_egl.cc</text>
</a>
</g>
</g>
<!-- Node2&#45;&gt;Node5 -->
<g id="edge4" class="edge">
<title>Node2&#45;&gt;Node5</title>
<path fill="none" stroke="#63b8ff" d="M1446.5,-171.44C1446.5,-161.31 1446.5,-150.08 1446.5,-140.32"/>
<polygon fill="#63b8ff" stroke="#63b8ff" points="1443,-171.49 1446.5,-181.49 1450,-171.49 1443,-171.49"/>
</g>
<!-- Node6 -->
<g id="node6" class="node">
<title>Node6</title>
<g id="a_node6"><a xlink:href="texture__test__egl_8cc.html" target="_top" xlink:title=" ">
<polygon fill="white" stroke="#666666" points="1706,-140 1581,-140 1581,-88 1706,-88 1706,-140"/>
<text text-anchor="start" x="1589" y="-128" font-family="Helvetica,sans-Serif" font-size="10.00">/mnt/raid10/stargate</text>
<text text-anchor="start" x="1589" y="-117" font-family="Helvetica,sans-Serif" font-size="10.00">/ivi&#45;homescreen/shell</text>
<text text-anchor="start" x="1589" y="-106" font-family="Helvetica,sans-Serif" font-size="10.00">/textures/test_egl/texture</text>
<text text-anchor="middle" x="1643.5" y="-95" font-family="Helvetica,sans-Serif" font-size="10.00">_test_egl.cc</text>
</a>
</g>
</g>
<!-- Node2&#45;&gt;Node6 -->
<g id="edge5" class="edge">
<title>Node2&#45;&gt;Node6</title>
<path fill="none" stroke="#63b8ff" d="M1500.68,-177.35C1527.14,-165.8 1558.98,-151.9 1585.87,-140.16"/>
<polygon fill="#63b8ff" stroke="#63b8ff" points="1498.97,-174.28 1491.2,-181.49 1501.77,-180.69 1498.97,-174.28"/>
</g>
<!-- Node8 -->
<g id="node8" class="node">
<title>Node8</title>
<g id="a_node8"><a xlink:href="wayland__vulkan_8cc.html" target="_top" xlink:title=" ">
<polygon fill="white" stroke="#666666" points="143,-46.5 0,-46.5 0,-5.5 143,-5.5 143,-46.5"/>
<text text-anchor="start" x="8" y="-34.5" font-family="Helvetica,sans-Serif" font-size="10.00">/mnt/raid10/stargate</text>
<text text-anchor="start" x="8" y="-23.5" font-family="Helvetica,sans-Serif" font-size="10.00">/ivi&#45;homescreen/shell</text>
<text text-anchor="middle" x="71.5" y="-12.5" font-family="Helvetica,sans-Serif" font-size="10.00">/backend/wayland_vulkan.cc</text>
</a>
</g>
</g>
<!-- Node7&#45;&gt;Node8 -->
<g id="edge7" class="edge">
<title>Node7&#45;&gt;Node8</title>
<path fill="none" stroke="#63b8ff" d="M1278.43,-273.28C1123.98,-252.73 771.75,-202.92 479.5,-140 355.37,-113.28 212.98,-71.16 133.5,-46.6"/>
<polygon fill="#63b8ff" stroke="#63b8ff" points="1278.38,-276.81 1288.76,-274.65 1279.3,-269.87 1278.38,-276.81"/>
</g>
<!-- Node9&#45;&gt;Node1 -->
<g id="edge9" class="edge">
<title>Node9&#45;&gt;Node1</title>
<path fill="none" stroke="#63b8ff" d="M1783.1,-144.8C1786.19,-195.67 1785.95,-297.91 1782.38,-340.82"/>
<polygon fill="#63b8ff" stroke="#63b8ff" points="1786.58,-144.5 1782.39,-134.77 1779.6,-144.99 1786.58,-144.5"/>
</g>
<!-- Node9&#45;&gt;Node3 -->
<g id="edge10" class="edge">
<title>Node9&#45;&gt;Node3</title>
<path fill="none" stroke="#63b8ff" d="M1724.73,-90.49C1721.31,-89.53 1717.88,-88.68 1714.5,-88 1405.72,-25.76 607.53,-107.67 297.5,-52 290.12,-50.67 282.47,-48.73 275.03,-46.51"/>
<polygon fill="#63b8ff" stroke="#63b8ff" points="1723.75,-93.85 1734.34,-93.48 1725.83,-87.17 1723.75,-93.85"/>
</g>
<!-- Node9&#45;&gt;Node4 -->
<g id="edge17" class="edge">
<title>Node9&#45;&gt;Node4</title>
<path fill="none" stroke="#63b8ff" d="M1724.73,-90.5C1721.3,-89.53 1717.88,-88.69 1714.5,-88 1437.16,-31.68 719.87,-103.01 441.5,-52 438.64,-51.48 435.73,-50.86 432.82,-50.16"/>
<polygon fill="#63b8ff" stroke="#63b8ff" points="1723.75,-93.86 1734.33,-93.5 1725.83,-87.18 1723.75,-93.86"/>
</g>
<!-- Node9&#45;&gt;Node8 -->
<g id="edge11" class="edge">
<title>Node9&#45;&gt;Node8</title>
<path fill="none" stroke="#63b8ff" d="M1724.73,-90.48C1721.31,-89.52 1717.88,-88.68 1714.5,-88 1373.84,-19.76 494.32,-108.37 151.5,-52 143.46,-50.68 135.11,-48.74 126.97,-46.51"/>
<polygon fill="#63b8ff" stroke="#63b8ff" points="1723.75,-93.84 1734.34,-93.47 1725.83,-87.16 1723.75,-93.84"/>
</g>
<!-- Node10 -->
<g id="node10" class="node">
<title>Node10</title>
<g id="a_node10"><a xlink:href="engine_8cc.html" target="_top" xlink:title=" ">
<polygon fill="white" stroke="#666666" points="1833,-46.5 1724,-46.5 1724,-5.5 1833,-5.5 1833,-46.5"/>
<text text-anchor="start" x="1732" y="-34.5" font-family="Helvetica,sans-Serif" font-size="10.00">/mnt/raid10/stargate</text>
<text text-anchor="start" x="1732" y="-23.5" font-family="Helvetica,sans-Serif" font-size="10.00">/ivi&#45;homescreen/shell</text>
<text text-anchor="middle" x="1778.5" y="-12.5" font-family="Helvetica,sans-Serif" font-size="10.00">/engine.cc</text>
</a>
</g>
</g>
<!-- Node9&#45;&gt;Node10 -->
<g id="edge12" class="edge">
<title>Node9&#45;&gt;Node10</title>
<path fill="none" stroke="#63b8ff" d="M1778.5,-83.36C1778.5,-71.26 1778.5,-57.58 1778.5,-46.74"/>
<polygon fill="#63b8ff" stroke="#63b8ff" points="1775,-83.49 1778.5,-93.49 1782,-83.49 1775,-83.49"/>
</g>
<!-- Node11 -->
<g id="node11" class="node">
<title>Node11</title>
<g id="a_node11"><a xlink:href="accessibility_8cc.html" target="_top" xlink:title=" ">
<polygon fill="white" stroke="#666666" points="1988,-52 1851,-52 1851,0 1988,0 1988,-52"/>
<text text-anchor="start" x="1859" y="-40" font-family="Helvetica,sans-Serif" font-size="10.00">/mnt/raid10/stargate</text>
<text text-anchor="start" x="1859" y="-29" font-family="Helvetica,sans-Serif" font-size="10.00">/ivi&#45;homescreen/shell</text>
<text text-anchor="start" x="1859" y="-18" font-family="Helvetica,sans-Serif" font-size="10.00">/static_plugins/accessibility</text>
<text text-anchor="middle" x="1919.5" y="-7" font-family="Helvetica,sans-Serif" font-size="10.00">/accessibility.cc</text>
</a>
</g>
</g>
<!-- Node9&#45;&gt;Node11 -->
<g id="edge13" class="edge">
<title>Node9&#45;&gt;Node11</title>
<path fill="none" stroke="#63b8ff" d="M1819.04,-88.28C1837.61,-76.95 1859.59,-63.54 1878.25,-52.16"/>
<polygon fill="#63b8ff" stroke="#63b8ff" points="1817.21,-85.29 1810.5,-93.49 1820.85,-91.27 1817.21,-85.29"/>
</g>
<!-- Node12 -->
<g id="node12" class="node">
<title>Node12</title>
<g id="a_node12"><a xlink:href="comp__region_8cc.html" target="_top" xlink:title=" ">
<polygon fill="white" stroke="#666666" points="3018.5,-52 2880.5,-52 2880.5,0 3018.5,0 3018.5,-52"/>
<text text-anchor="start" x="2888.5" y="-40" font-family="Helvetica,sans-Serif" font-size="10.00">/mnt/raid10/stargate</text>
<text text-anchor="start" x="2888.5" y="-29" font-family="Helvetica,sans-Serif" font-size="10.00">/ivi&#45;homescreen/shell</text>
<text text-anchor="start" x="2888.5" y="-18" font-family="Helvetica,sans-Serif" font-size="10.00">/static_plugins/comp_region</text>
<text text-anchor="middle" x="2949.5" y="-7" font-family="Helvetica,sans-Serif" font-size="10.00">/comp_region.cc</text>
</a>
</g>
</g>
<!-- Node9&#45;&gt;Node12 -->
<g id="edge14" class="edge">
<title>Node9&#45;&gt;Node12</title>
<path fill="none" stroke="#63b8ff" d="M1843.32,-111.54C2046.99,-106.63 2672.32,-88.86 2871.5,-52 2874.44,-51.46 2877.42,-50.83 2880.41,-50.15"/>
<polygon fill="#63b8ff" stroke="#63b8ff" points="1843,-108.05 1833.09,-111.79 1843.17,-115.05 1843,-108.05"/>
</g>
<!-- Node13 -->
<g id="node13" class="node">
<title>Node13</title>
<g id="a_node13"><a xlink:href="comp__surf_8cc.html" target="_top" xlink:title=" ">
<polygon fill="white" stroke="#666666" points="2134.5,-52 2006.5,-52 2006.5,0 2134.5,0 2134.5,-52"/>
<text text-anchor="start" x="2014.5" y="-40" font-family="Helvetica,sans-Serif" font-size="10.00">/mnt/raid10/stargate</text>
<text text-anchor="start" x="2014.5" y="-29" font-family="Helvetica,sans-Serif" font-size="10.00">/ivi&#45;homescreen/shell</text>
<text text-anchor="start" x="2014.5" y="-18" font-family="Helvetica,sans-Serif" font-size="10.00">/static_plugins/comp_surf</text>
<text text-anchor="middle" x="2070.5" y="-7" font-family="Helvetica,sans-Serif" font-size="10.00">/comp_surf.cc</text>
</a>
</g>
</g>
<!-- Node9&#45;&gt;Node13 -->
<g id="edge15" class="edge">
<title>Node9&#45;&gt;Node13</title>
<path fill="none" stroke="#63b8ff" d="M1842.87,-96.13C1886.66,-84.39 1945.81,-68.04 1997.5,-52 2000.44,-51.09 2003.45,-50.14 2006.48,-49.16"/>
<polygon fill="#63b8ff" stroke="#63b8ff" points="1841.97,-92.75 1833.21,-98.71 1843.77,-99.51 1841.97,-92.75"/>
</g>
<!-- Node14 -->
<g id="node14" class="node">
<title>Node14</title>
<g id="a_node14"><a xlink:href="desktop__window_8cc.html" target="_top" xlink:title=" ">
<polygon fill="white" stroke="#666666" points="2296,-52 2153,-52 2153,0 2296,0 2296,-52"/>
<text text-anchor="start" x="2161" y="-40" font-family="Helvetica,sans-Serif" font-size="10.00">/mnt/raid10/stargate</text>
<text text-anchor="start" x="2161" y="-29" font-family="Helvetica,sans-Serif" font-size="10.00">/ivi&#45;homescreen/shell</text>
<text text-anchor="start" x="2161" y="-18" font-family="Helvetica,sans-Serif" font-size="10.00">/static_plugins/desktop</text>
<text text-anchor="middle" x="2224.5" y="-7" font-family="Helvetica,sans-Serif" font-size="10.00">_window/desktop_window.cc</text>
</a>
</g>
</g>
<!-- Node9&#45;&gt;Node14 -->
<g id="edge16" class="edge">
<title>Node9&#45;&gt;Node14</title>
<path fill="none" stroke="#63b8ff" d="M1843.08,-104.87C1916.43,-95.02 2039.46,-76.63 2143.5,-52 2146.51,-51.29 2149.57,-50.52 2152.65,-49.72"/>
<polygon fill="#63b8ff" stroke="#63b8ff" points="1842.51,-101.41 1833.06,-106.2 1843.44,-108.35 1842.51,-101.41"/>
</g>
<!-- Node15 -->
<g id="node15" class="node">
<title>Node15</title>
<g id="a_node15"><a xlink:href="isolate_8cc.html" target="_top" xlink:title=" ">
<polygon fill="white" stroke="#666666" points="2425,-52 2314,-52 2314,0 2425,0 2425,-52"/>
<text text-anchor="start" x="2322" y="-40" font-family="Helvetica,sans-Serif" font-size="10.00">/mnt/raid10/stargate</text>
<text text-anchor="start" x="2322" y="-29" font-family="Helvetica,sans-Serif" font-size="10.00">/ivi&#45;homescreen/shell</text>
<text text-anchor="start" x="2322" y="-18" font-family="Helvetica,sans-Serif" font-size="10.00">/static_plugins/isolate</text>
<text text-anchor="middle" x="2369.5" y="-7" font-family="Helvetica,sans-Serif" font-size="10.00">/isolate.cc</text>
</a>
</g>
</g>
<!-- Node9&#45;&gt;Node15 -->
<g id="edge18" class="edge">
<title>Node9&#45;&gt;Node15</title>
<path fill="none" stroke="#63b8ff" d="M1843.48,-110.84C1943.92,-106.31 2142.35,-92.59 2305.5,-52 2308.28,-51.31 2311.1,-50.53 2313.93,-49.68"/>
<polygon fill="#63b8ff" stroke="#63b8ff" points="1843.02,-107.36 1833.19,-111.29 1843.33,-114.35 1843.02,-107.36"/>
</g>
<!-- Node16 -->
<g id="node16" class="node">
<title>Node16</title>
<g id="a_node16"><a xlink:href="key__event_8cc.html" target="_top" xlink:title=" ">
<polygon fill="white" stroke="#666666" points="2571.5,-52 2443.5,-52 2443.5,0 2571.5,0 2571.5,-52"/>
<text text-anchor="start" x="2451.5" y="-40" font-family="Helvetica,sans-Serif" font-size="10.00">/mnt/raid10/stargate</text>
<text text-anchor="start" x="2451.5" y="-29" font-family="Helvetica,sans-Serif" font-size="10.00">/ivi&#45;homescreen/shell</text>
<text text-anchor="start" x="2451.5" y="-18" font-family="Helvetica,sans-Serif" font-size="10.00">/static_plugins/key_event</text>
<text text-anchor="middle" x="2507.5" y="-7" font-family="Helvetica,sans-Serif" font-size="10.00">/key_event.cc</text>
</a>
</g>
</g>
<!-- Node9&#45;&gt;Node16 -->
<g id="edge19" class="edge">
<title>Node9&#45;&gt;Node16</title>
<path fill="none" stroke="#63b8ff" d="M1843.16,-112.05C1961.7,-109.19 2221.24,-97.75 2434.5,-52 2437.38,-51.38 2440.31,-50.69 2443.25,-49.93"/>
<polygon fill="#63b8ff" stroke="#63b8ff" points="1843.07,-108.55 1833.16,-112.28 1843.23,-115.55 1843.07,-108.55"/>
</g>
<!-- Node17 -->
<g id="node17" class="node">
<title>Node17</title>
<g id="a_node17"><a xlink:href="mouse__cursor_8cc.html" target="_top" xlink:title=" ">
<polygon fill="white" stroke="#666666" points="2717,-52 2590,-52 2590,0 2717,0 2717,-52"/>
<text text-anchor="start" x="2598" y="-40" font-family="Helvetica,sans-Serif" font-size="10.00">/mnt/raid10/stargate</text>
<text text-anchor="start" x="2598" y="-29" font-family="Helvetica,sans-Serif" font-size="10.00">/ivi&#45;homescreen/shell</text>
<text text-anchor="start" x="2598" y="-18" font-family="Helvetica,sans-Serif" font-size="10.00">/static_plugins/mouse</text>
<text text-anchor="middle" x="2653.5" y="-7" font-family="Helvetica,sans-Serif" font-size="10.00">_cursor/mouse_cursor.cc</text>
</a>
</g>
</g>
<!-- Node9&#45;&gt;Node17 -->
<g id="edge20" class="edge">
<title>Node9&#45;&gt;Node17</title>
<path fill="none" stroke="#63b8ff" d="M1843.49,-113.61C1980.99,-113.69 2310.9,-107.47 2580.5,-52 2583.52,-51.38 2586.58,-50.67 2589.66,-49.89"/>
<polygon fill="#63b8ff" stroke="#63b8ff" points="1843.14,-110.11 1833.14,-113.59 1843.13,-117.11 1843.14,-110.11"/>
</g>
<!-- Node18 -->
<g id="node18" class="node">
<title>Node18</title>
<g id="a_node18"><a xlink:href="navigation_8cc.html" target="_top" xlink:title=" ">
<polygon fill="white" stroke="#666666" points="2862,-52 2735,-52 2735,0 2862,0 2862,-52"/>
<text text-anchor="start" x="2743" y="-40" font-family="Helvetica,sans-Serif" font-size="10.00">/mnt/raid10/stargate</text>
<text text-anchor="start" x="2743" y="-29" font-family="Helvetica,sans-Serif" font-size="10.00">/ivi&#45;homescreen/shell</text>
<text text-anchor="start" x="2743" y="-18" font-family="Helvetica,sans-Serif" font-size="10.00">/static_plugins/navigation</text>
<text text-anchor="middle" x="2798.5" y="-7" font-family="Helvetica,sans-Serif" font-size="10.00">/navigation.cc</text>
</a>
</g>
</g>
<!-- Node9&#45;&gt;Node18 -->
<g id="edge21" class="edge">
<title>Node9&#45;&gt;Node18</title>
<path fill="none" stroke="#63b8ff" d="M1843.13,-111.11C2028.05,-105.35 2556.83,-86.26 2726.5,-52 2729.22,-51.45 2731.99,-50.82 2734.76,-50.13"/>
<polygon fill="#63b8ff" stroke="#63b8ff" points="1842.9,-107.62 1833.02,-111.42 1843.12,-114.61 1842.9,-107.62"/>
</g>
<!-- Node19 -->
<g id="node19" class="node">
<title>Node19</title>
<g id="a_node19"><a xlink:href="opengl__texture_8cc.html" target="_top" xlink:title=" ">
<polygon fill="white" stroke="#666666" points="3168.5,-52 3036.5,-52 3036.5,0 3168.5,0 3168.5,-52"/>
<text text-anchor="start" x="3044.5" y="-40" font-family="Helvetica,sans-Serif" font-size="10.00">/mnt/raid10/stargate</text>
<text text-anchor="start" x="3044.5" y="-29" font-family="Helvetica,sans-Serif" font-size="10.00">/ivi&#45;homescreen/shell</text>
<text text-anchor="start" x="3044.5" y="-18" font-family="Helvetica,sans-Serif" font-size="10.00">/static_plugins/opengl</text>
<text text-anchor="middle" x="3102.5" y="-7" font-family="Helvetica,sans-Serif" font-size="10.00">_texture/opengl_texture.cc</text>
</a>
</g>
</g>
<!-- Node9&#45;&gt;Node19 -->
<g id="edge22" class="edge">
<title>Node9&#45;&gt;Node19</title>
<path fill="none" stroke="#63b8ff" d="M1843.35,-112.16C2065.83,-108.93 2796.97,-95.21 3027.5,-52 3030.33,-51.47 3033.21,-50.86 3036.09,-50.18"/>
<polygon fill="#63b8ff" stroke="#63b8ff" points="1843.1,-108.67 1833.15,-112.31 1843.2,-115.67 1843.1,-108.67"/>
</g>
<!-- Node20 -->
<g id="node20" class="node">
<title>Node20</title>
<g id="a_node20"><a xlink:href="package__info_8cc.html" target="_top" xlink:title=" ">
<polygon fill="white" stroke="#666666" points="570,-52 451,-52 451,0 570,0 570,-52"/>
<text text-anchor="start" x="459" y="-40" font-family="Helvetica,sans-Serif" font-size="10.00">/mnt/raid10/stargate</text>
<text text-anchor="start" x="459" y="-29" font-family="Helvetica,sans-Serif" font-size="10.00">/ivi&#45;homescreen/shell</text>
<text text-anchor="start" x="459" y="-18" font-family="Helvetica,sans-Serif" font-size="10.00">/static_plugins/package</text>
<text text-anchor="middle" x="510.5" y="-7" font-family="Helvetica,sans-Serif" font-size="10.00">_info/package_info.cc</text>
</a>
</g>
</g>
<!-- Node9&#45;&gt;Node20 -->
<g id="edge23" class="edge">
<title>Node9&#45;&gt;Node20</title>
<path fill="none" stroke="#63b8ff" d="M1724.24,-90.38C1720.98,-89.46 1717.71,-88.66 1714.5,-88 1220.07,13.28 1075.15,-147.15 579.5,-52 576.37,-51.4 573.2,-50.68 570.01,-49.86"/>
<polygon fill="#63b8ff" stroke="#63b8ff" points="1723.39,-93.78 1733.98,-93.4 1725.47,-87.09 1723.39,-93.78"/>
</g>
<!-- Node21 -->
<g id="node21" class="node">
<title>Node21</title>
<g id="a_node21"><a xlink:href="platform_8cc.html" target="_top" xlink:title=" ">
<polygon fill="white" stroke="#666666" points="706.5,-52 588.5,-52 588.5,0 706.5,0 706.5,-52"/>
<text text-anchor="start" x="596.5" y="-40" font-family="Helvetica,sans-Serif" font-size="10.00">/mnt/raid10/stargate</text>
<text text-anchor="start" x="596.5" y="-29" font-family="Helvetica,sans-Serif" font-size="10.00">/ivi&#45;homescreen/shell</text>
<text text-anchor="start" x="596.5" y="-18" font-family="Helvetica,sans-Serif" font-size="10.00">/static_plugins/platform</text>
<text text-anchor="middle" x="647.5" y="-7" font-family="Helvetica,sans-Serif" font-size="10.00">/platform.cc</text>
</a>
</g>
</g>
<!-- Node9&#45;&gt;Node21 -->
<g id="edge24" class="edge">
<title>Node9&#45;&gt;Node21</title>
<path fill="none" stroke="#63b8ff" d="M1724.23,-90.39C1720.97,-89.48 1717.71,-88.67 1714.5,-88 1279.44,2.1 1151.44,-137.72 715.5,-52 712.54,-51.42 709.53,-50.72 706.52,-49.95"/>
<polygon fill="#63b8ff" stroke="#63b8ff" points="1723.39,-93.79 1733.97,-93.43 1725.47,-87.11 1723.39,-93.79"/>
</g>
<!-- Node22 -->
<g id="node22" class="node">
<title>Node22</title>
<g id="a_node22"><a xlink:href="platform__views_8cc.html" target="_top" xlink:title=" ">
<polygon fill="white" stroke="#666666" points="854.5,-52 724.5,-52 724.5,0 854.5,0 854.5,-52"/>
<text text-anchor="start" x="732.5" y="-40" font-family="Helvetica,sans-Serif" font-size="10.00">/mnt/raid10/stargate</text>
<text text-anchor="start" x="732.5" y="-29" font-family="Helvetica,sans-Serif" font-size="10.00">/ivi&#45;homescreen/shell</text>
<text text-anchor="start" x="732.5" y="-18" font-family="Helvetica,sans-Serif" font-size="10.00">/static_plugins/platform</text>
<text text-anchor="middle" x="789.5" y="-7" font-family="Helvetica,sans-Serif" font-size="10.00">_views/platform_views.cc</text>
</a>
</g>
</g>
<!-- Node9&#45;&gt;Node22 -->
<g id="edge25" class="edge">
<title>Node9&#45;&gt;Node22</title>
<path fill="none" stroke="#63b8ff" d="M1724.23,-90.42C1720.97,-89.49 1717.71,-88.68 1714.5,-88 1344.05,-10.07 1235.67,-121.28 863.5,-52 860.57,-51.45 857.59,-50.82 854.6,-50.11"/>
<polygon fill="#63b8ff" stroke="#63b8ff" points="1723.38,-93.82 1733.97,-93.46 1725.47,-87.14 1723.38,-93.82"/>
</g>
<!-- Node23 -->
<g id="node23" class="node">
<title>Node23</title>
<g id="a_node23"><a xlink:href="restoration_8cc.html" target="_top" xlink:title=" ">
<polygon fill="white" stroke="#666666" points="1000.5,-52 872.5,-52 872.5,0 1000.5,0 1000.5,-52"/>
<text text-anchor="start" x="880.5" y="-40" font-family="Helvetica,sans-Serif" font-size="10.00">/mnt/raid10/stargate</text>
<text text-anchor="start" x="880.5" y="-29" font-family="Helvetica,sans-Serif" font-size="10.00">/ivi&#45;homescreen/shell</text>
<text text-anchor="start" x="880.5" y="-18" font-family="Helvetica,sans-Serif" font-size="10.00">/static_plugins/restoration</text>
<text text-anchor="middle" x="936.5" y="-7" font-family="Helvetica,sans-Serif" font-size="10.00">/restoration.cc</text>
</a>
</g>
</g>
<!-- Node9&#45;&gt;Node23 -->
<g id="edge26" class="edge">
<title>Node9&#45;&gt;Node23</title>
<path fill="none" stroke="#63b8ff" d="M1724.04,-90.4C1720.85,-89.49 1717.65,-88.68 1714.5,-88 1407.76,-22.07 1317.57,-111.4 1009.5,-52 1006.61,-51.44 1003.67,-50.8 1000.72,-50.08"/>
<polygon fill="#63b8ff" stroke="#63b8ff" points="1723.02,-93.75 1733.6,-93.4 1725.11,-87.07 1723.02,-93.75"/>
</g>
<!-- Node24 -->
<g id="node24" class="node">
<title>Node24</title>
<g id="a_node24"><a xlink:href="secure__storage_8cc.html" target="_top" xlink:title=" ">
<polygon fill="white" stroke="#666666" points="1156,-52 1019,-52 1019,0 1156,0 1156,-52"/>
<text text-anchor="start" x="1027" y="-40" font-family="Helvetica,sans-Serif" font-size="10.00">/mnt/raid10/stargate</text>
<text text-anchor="start" x="1027" y="-29" font-family="Helvetica,sans-Serif" font-size="10.00">/ivi&#45;homescreen/shell</text>
<text text-anchor="start" x="1027" y="-18" font-family="Helvetica,sans-Serif" font-size="10.00">/static_plugins/secure</text>
<text text-anchor="middle" x="1087.5" y="-7" font-family="Helvetica,sans-Serif" font-size="10.00">_storage/secure_storage.cc</text>
</a>
</g>
</g>
<!-- Node9&#45;&gt;Node24 -->
<g id="edge27" class="edge">
<title>Node9&#45;&gt;Node24</title>
<path fill="none" stroke="#63b8ff" d="M1724.03,-90.45C1720.84,-89.53 1717.64,-88.7 1714.5,-88 1475.38,-34.81 1405.08,-98.18 1164.5,-52 1161.74,-51.47 1158.94,-50.87 1156.13,-50.22"/>
<polygon fill="#63b8ff" stroke="#63b8ff" points="1723,-93.8 1733.59,-93.48 1725.11,-87.12 1723,-93.8"/>
</g>
<!-- Node25 -->
<g id="node25" class="node">
<title>Node25</title>
<g id="a_node25"><a xlink:href="text__input_8cc.html" target="_top" xlink:title=" ">
<polygon fill="white" stroke="#666666" points="1299,-52 1174,-52 1174,0 1299,0 1299,-52"/>
<text text-anchor="start" x="1182" y="-40" font-family="Helvetica,sans-Serif" font-size="10.00">/mnt/raid10/stargate</text>
<text text-anchor="start" x="1182" y="-29" font-family="Helvetica,sans-Serif" font-size="10.00">/ivi&#45;homescreen/shell</text>
<text text-anchor="start" x="1182" y="-18" font-family="Helvetica,sans-Serif" font-size="10.00">/static_plugins/text_input</text>
<text text-anchor="middle" x="1236.5" y="-7" font-family="Helvetica,sans-Serif" font-size="10.00">/text_input.cc</text>
</a>
</g>
</g>
<!-- Node9&#45;&gt;Node25 -->
<g id="edge28" class="edge">
<title>Node9&#45;&gt;Node25</title>
<path fill="none" stroke="#63b8ff" d="M1723.54,-90.4C1720.51,-89.51 1717.48,-88.7 1714.5,-88 1537.7,-46.55 1484.98,-90.46 1307.5,-52 1304.82,-51.42 1302.1,-50.76 1299.36,-50.05"/>
<polygon fill="#63b8ff" stroke="#63b8ff" points="1722.61,-93.78 1733.2,-93.49 1724.75,-87.11 1722.61,-93.78"/>
</g>
<!-- Node26 -->
<g id="node26" class="node">
<title>Node26</title>
<g id="a_node26"><a xlink:href="url__launcher_8cc.html" target="_top" xlink:title=" ">
<polygon fill="white" stroke="#666666" points="1452,-52 1317,-52 1317,0 1452,0 1452,-52"/>
<text text-anchor="start" x="1325" y="-40" font-family="Helvetica,sans-Serif" font-size="10.00">/mnt/raid10/stargate</text>
<text text-anchor="start" x="1325" y="-29" font-family="Helvetica,sans-Serif" font-size="10.00">/ivi&#45;homescreen/shell</text>
<text text-anchor="start" x="1325" y="-18" font-family="Helvetica,sans-Serif" font-size="10.00">/static_plugins/url_launcher</text>
<text text-anchor="middle" x="1384.5" y="-7" font-family="Helvetica,sans-Serif" font-size="10.00">/url_launcher.cc</text>
</a>
</g>
</g>
<!-- Node9&#45;&gt;Node26 -->
<g id="edge29" class="edge">
<title>Node9&#45;&gt;Node26</title>
<path fill="none" stroke="#63b8ff" d="M1722.43,-90.26C1719.77,-89.45 1717.11,-88.69 1714.5,-88 1604.22,-59.06 1571.53,-77.92 1460.5,-52 1457.79,-51.37 1455.05,-50.68 1452.28,-49.96"/>
<polygon fill="#63b8ff" stroke="#63b8ff" points="1721.48,-93.64 1732.08,-93.43 1723.67,-86.98 1721.48,-93.64"/>
</g>
<!-- Node27 -->
<g id="node27" class="node">
<title>Node27</title>
<g id="a_node27"><a xlink:href="texture_8cc.html" target="_top" xlink:title=" ">
<polygon fill="white" stroke="#666666" points="1579,-46.5 1470,-46.5 1470,-5.5 1579,-5.5 1579,-46.5"/>
<text text-anchor="start" x="1478" y="-34.5" font-family="Helvetica,sans-Serif" font-size="10.00">/mnt/raid10/stargate</text>
<text text-anchor="start" x="1478" y="-23.5" font-family="Helvetica,sans-Serif" font-size="10.00">/ivi&#45;homescreen/shell</text>
<text text-anchor="middle" x="1524.5" y="-12.5" font-family="Helvetica,sans-Serif" font-size="10.00">/textures/texture.cc</text>
</a>
</g>
</g>
<!-- Node9&#45;&gt;Node27 -->
<g id="edge30" class="edge">
<title>Node9&#45;&gt;Node27</title>
<path fill="none" stroke="#63b8ff" d="M1720.16,-89.95C1718.26,-89.28 1716.37,-88.63 1714.5,-88 1658.89,-69.31 1643.06,-70.84 1587.5,-52 1582.6,-50.34 1577.52,-48.51 1572.47,-46.62"/>
<polygon fill="#63b8ff" stroke="#63b8ff" points="1719.16,-93.31 1729.76,-93.4 1721.54,-86.72 1719.16,-93.31"/>
</g>
<!-- Node28 -->
<g id="node28" class="node">
<title>Node28</title>
<g id="a_node28"><a xlink:href="flutter__view_8cc.html" target="_top" xlink:title=" ">
<polygon fill="white" stroke="#666666" points="3423,-46.5 3314,-46.5 3314,-5.5 3423,-5.5 3423,-46.5"/>
<text text-anchor="start" x="3322" y="-34.5" font-family="Helvetica,sans-Serif" font-size="10.00">/mnt/raid10/stargate</text>
<text text-anchor="start" x="3322" y="-23.5" font-family="Helvetica,sans-Serif" font-size="10.00">/ivi&#45;homescreen/shell</text>
<text text-anchor="middle" x="3368.5" y="-12.5" font-family="Helvetica,sans-Serif" font-size="10.00">/view/flutter_view.cc</text>
</a>
</g>
</g>
<!-- Node9&#45;&gt;Node28 -->
<g id="edge31" class="edge">
<title>Node9&#45;&gt;Node28</title>
<path fill="none" stroke="#63b8ff" d="M1843.54,-111.69C2116.4,-106.04 3161.28,-82.57 3305.5,-52 3311.83,-50.66 3318.35,-48.74 3324.68,-46.55"/>
<polygon fill="#63b8ff" stroke="#63b8ff" points="1843.33,-108.2 1833.4,-111.9 1843.47,-115.2 1843.33,-108.2"/>
</g>
<!-- Node29 -->
<g id="node29" class="node">
<title>Node29</title>
<g id="a_node29"><a xlink:href="display_8cc.html" target="_top" xlink:title=" ">
<polygon fill="white" stroke="#666666" points="1706,-46.5 1597,-46.5 1597,-5.5 1706,-5.5 1706,-46.5"/>
<text text-anchor="start" x="1605" y="-34.5" font-family="Helvetica,sans-Serif" font-size="10.00">/mnt/raid10/stargate</text>
<text text-anchor="start" x="1605" y="-23.5" font-family="Helvetica,sans-Serif" font-size="10.00">/ivi&#45;homescreen/shell</text>
<text text-anchor="middle" x="1651.5" y="-12.5" font-family="Helvetica,sans-Serif" font-size="10.00">/wayland/display.cc</text>
</a>
</g>
</g>
<!-- Node9&#45;&gt;Node29 -->
<g id="edge32" class="edge">
<title>Node9&#45;&gt;Node29</title>
<path fill="none" stroke="#63b8ff" d="M1741.38,-87.86C1722.02,-74.75 1698.69,-58.95 1680.64,-46.74"/>
<polygon fill="#63b8ff" stroke="#63b8ff" points="1739.44,-90.78 1749.68,-93.49 1743.36,-84.98 1739.44,-90.78"/>
</g>
<!-- Node30 -->
<g id="node30" class="node">
<title>Node30</title>
<g id="a_node30"><a xlink:href="window_8cc.html" target="_top" xlink:title=" ">
<polygon fill="white" stroke="#666666" points="3550,-46.5 3441,-46.5 3441,-5.5 3550,-5.5 3550,-46.5"/>
<text text-anchor="start" x="3449" y="-34.5" font-family="Helvetica,sans-Serif" font-size="10.00">/mnt/raid10/stargate</text>
<text text-anchor="start" x="3449" y="-23.5" font-family="Helvetica,sans-Serif" font-size="10.00">/ivi&#45;homescreen/shell</text>
<text text-anchor="middle" x="3495.5" y="-12.5" font-family="Helvetica,sans-Serif" font-size="10.00">/wayland/window.cc</text>
</a>
</g>
</g>
<!-- Node9&#45;&gt;Node30 -->
<g id="edge33" class="edge">
<title>Node9&#45;&gt;Node30</title>
<path fill="none" stroke="#63b8ff" d="M1843.68,-111.91C2130.77,-106.91 3275.3,-85.06 3432.5,-52 3438.83,-50.67 3445.35,-48.75 3451.69,-46.57"/>
<polygon fill="#63b8ff" stroke="#63b8ff" points="1843.37,-108.41 1833.43,-112.08 1843.49,-115.41 1843.37,-108.41"/>
</g>
<!-- Node31&#45;&gt;Node28 -->
<g id="edge37" class="edge">
<title>Node31&#45;&gt;Node28</title>
<path fill="none" stroke="#63b8ff" d="M3106.63,-262.97C3166.89,-240.89 3256.29,-200.56 3314.5,-140 3340.41,-113.04 3355.88,-71.3 3363.24,-46.81"/>
<polygon fill="#63b8ff" stroke="#63b8ff" points="3105.44,-259.68 3097.22,-266.36 3107.81,-266.27 3105.44,-259.68"/>
</g>
<!-- Node31&#45;&gt;Node30 -->
<g id="edge52" class="edge">
<title>Node31&#45;&gt;Node30</title>
<path fill="none" stroke="#63b8ff" d="M3106.87,-272.78C3147.81,-264.3 3201.1,-250.14 3244.5,-228 3341.97,-178.28 3437.32,-86.87 3476.66,-46.75"/>
<polygon fill="#63b8ff" stroke="#63b8ff" points="3106.12,-269.36 3097,-274.76 3107.5,-276.22 3106.12,-269.36"/>
</g>
<!-- Node32 -->
<g id="node32" class="node">
<title>Node32</title>
<g id="a_node32"><a xlink:href="nv12_8h.html" target="_top" xlink:title=" ">
<polygon fill="white" stroke="#666666" points="1696.5,-228 1570.5,-228 1570.5,-176 1696.5,-176 1696.5,-228"/>
<text text-anchor="start" x="1578.5" y="-216" font-family="Helvetica,sans-Serif" font-size="10.00">/mnt/raid10/stargate</text>
<text text-anchor="start" x="1578.5" y="-205" font-family="Helvetica,sans-Serif" font-size="10.00">/ivi&#45;homescreen/shell</text>
<text text-anchor="start" x="1578.5" y="-194" font-family="Helvetica,sans-Serif" font-size="10.00">/static_plugins/gstreamer</text>
<text text-anchor="middle" x="1633.5" y="-183" font-family="Helvetica,sans-Serif" font-size="10.00">_egl/nv12.h</text>
</a>
</g>
</g>
<!-- Node31&#45;&gt;Node32 -->
<g id="edge35" class="edge">
<title>Node31&#45;&gt;Node32</title>
<path fill="none" stroke="#63b8ff" d="M2977.55,-279.79C2741.38,-266.3 1929.92,-219.94 1696.67,-206.61"/>
<polygon fill="#63b8ff" stroke="#63b8ff" points="2977.51,-283.29 2987.7,-280.37 2977.91,-276.3 2977.51,-283.29"/>
</g>
<!-- Node33 -->
<g id="node33" class="node">
<title>Node33</title>
<g id="a_node33"><a xlink:href="flutter__view_8h.html" target="_top" xlink:title=" ">
<polygon fill="white" stroke="#666666" points="3097,-222.5 2988,-222.5 2988,-181.5 3097,-181.5 3097,-222.5"/>
<text text-anchor="start" x="2996" y="-210.5" font-family="Helvetica,sans-Serif" font-size="10.00">/mnt/raid10/stargate</text>
<text text-anchor="start" x="2996" y="-199.5" font-family="Helvetica,sans-Serif" font-size="10.00">/ivi&#45;homescreen/shell</text>
<text text-anchor="middle" x="3042.5" y="-188.5" font-family="Helvetica,sans-Serif" font-size="10.00">/view/flutter_view.h</text>
</a>
</g>
</g>
<!-- Node31&#45;&gt;Node33 -->
<g id="edge38" class="edge">
<title>Node31&#45;&gt;Node33</title>
<path fill="none" stroke="#63b8ff" d="M3042.5,-253.37C3042.5,-243.1 3042.5,-231.9 3042.5,-222.67"/>
<polygon fill="#63b8ff" stroke="#63b8ff" points="3039,-253.6 3042.5,-263.6 3046,-253.6 3039,-253.6"/>
</g>
<!-- Node32&#45;&gt;Node4 -->
<g id="edge36" class="edge">
<title>Node32&#45;&gt;Node4</title>
<path fill="none" stroke="#63b8ff" d="M1598.85,-168.71C1589.67,-159.68 1579.97,-149.69 1571.5,-140 1552.48,-118.25 1558.12,-101.34 1532.5,-88 1424.93,-31.98 560.75,-74.14 441.5,-52 438.64,-51.47 435.74,-50.84 432.82,-50.15"/>
<polygon fill="#63b8ff" stroke="#63b8ff" points="1596.45,-171.26 1606.06,-175.72 1601.33,-166.24 1596.45,-171.26"/>
</g>
<!-- Node33&#45;&gt;Node5 -->
<g id="edge48" class="edge">
<title>Node33&#45;&gt;Node5</title>
<path fill="none" stroke="#63b8ff" d="M2977.38,-199.65C2730.16,-194.32 1849.68,-173.38 1571.5,-140 1556.12,-138.15 1539.8,-135.45 1524.21,-132.49"/>
<polygon fill="#63b8ff" stroke="#63b8ff" points="2977.56,-203.16 2987.64,-199.87 2977.71,-196.16 2977.56,-203.16"/>
</g>
<!-- Node33&#45;&gt;Node6 -->
<g id="edge49" class="edge">
<title>Node33&#45;&gt;Node6</title>
<path fill="none" stroke="#63b8ff" d="M2977.46,-200.52C2745.65,-198.43 1960.63,-187.9 1714.5,-140 1711.81,-139.48 1709.08,-138.87 1706.34,-138.2"/>
<polygon fill="#63b8ff" stroke="#63b8ff" points="2977.72,-204.03 2987.75,-200.61 2977.78,-197.03 2977.72,-204.03"/>
</g>
<!-- Node33&#45;&gt;Node9 -->
<g id="edge43" class="edge">
<title>Node33&#45;&gt;Node9</title>
<path fill="none" stroke="#63b8ff" d="M2977.66,-196.59C2757.04,-181.58 2037.87,-132.65 1833.26,-118.73"/>
<polygon fill="#63b8ff" stroke="#63b8ff" points="2977.57,-200.09 2987.78,-197.28 2978.04,-193.11 2977.57,-200.09"/>
</g>
<!-- Node33&#45;&gt;Node12 -->
<g id="edge44" class="edge">
<title>Node33&#45;&gt;Node12</title>
<path fill="none" stroke="#63b8ff" d="M3001.28,-175.51C2988.9,-165.87 2976.5,-153.84 2968.5,-140 2952.77,-112.79 2949.22,-76.12 2948.81,-52.04"/>
<polygon fill="#63b8ff" stroke="#63b8ff" points="2999.24,-178.36 3009.36,-181.5 3003.41,-172.73 2999.24,-178.36"/>
</g>
<!-- Node33&#45;&gt;Node28 -->
<g id="edge51" class="edge">
<title>Node33&#45;&gt;Node28</title>
<path fill="none" stroke="#63b8ff" d="M3077.77,-174.91C3090.58,-164.68 3104.79,-152.42 3116.5,-140 3136.14,-119.18 3130.67,-103.85 3154.5,-88 3211.95,-49.79 3239.71,-72.78 3305.5,-52 3310.66,-50.37 3316,-48.52 3321.29,-46.58"/>
<polygon fill="#63b8ff" stroke="#63b8ff" points="3075.29,-172.4 3069.58,-181.32 3079.61,-177.91 3075.29,-172.4"/>
</g>
<!-- Node34 -->
<g id="node34" class="node">
<title>Node34</title>
<g id="a_node34"><a xlink:href="app_8cc.html" target="_top" xlink:title=" ">
<polygon fill="white" stroke="#666666" points="3677,-46.5 3568,-46.5 3568,-5.5 3677,-5.5 3677,-46.5"/>
<text text-anchor="start" x="3576" y="-34.5" font-family="Helvetica,sans-Serif" font-size="10.00">/mnt/raid10/stargate</text>
<text text-anchor="start" x="3576" y="-23.5" font-family="Helvetica,sans-Serif" font-size="10.00">/ivi&#45;homescreen/shell</text>
<text text-anchor="middle" x="3622.5" y="-12.5" font-family="Helvetica,sans-Serif" font-size="10.00">/app.cc</text>
</a>
</g>
</g>
<!-- Node33&#45;&gt;Node34 -->
<g id="edge39" class="edge">
<title>Node33&#45;&gt;Node34</title>
<path fill="none" stroke="#63b8ff" d="M3107.24,-188.84C3162.71,-177.86 3244.5,-160.34 3314.5,-140 3425.61,-107.72 3451.27,-92.9 3559.5,-52 3564.12,-50.25 3568.93,-48.41 3573.72,-46.54"/>
<polygon fill="#63b8ff" stroke="#63b8ff" points="3106.33,-185.45 3097.19,-190.81 3107.68,-192.32 3106.33,-185.45"/>
</g>
<!-- Node35 -->
<g id="node35" class="node">
<title>Node35</title>
<g id="a_node35"><a xlink:href="app_8h.html" target="_top" xlink:title=" ">
<polygon fill="white" stroke="#666666" points="3690.5,-129 3554.5,-129 3554.5,-99 3690.5,-99 3690.5,-129"/>
<text text-anchor="start" x="3562.5" y="-117" font-family="Helvetica,sans-Serif" font-size="10.00">/mnt/raid10/stargate</text>
<text text-anchor="middle" x="3622.5" y="-106" font-family="Helvetica,sans-Serif" font-size="10.00">/ivi&#45;homescreen/shell/app.h</text>
</a>
</g>
</g>
<!-- Node33&#45;&gt;Node35 -->
<g id="edge40" class="edge">
<title>Node33&#45;&gt;Node35</title>
<path fill="none" stroke="#63b8ff" d="M3107.07,-191.43C3217.48,-175.06 3441.53,-141.83 3554.35,-125.11"/>
<polygon fill="#63b8ff" stroke="#63b8ff" points="3106.44,-187.98 3097.06,-192.91 3107.47,-194.9 3106.44,-187.98"/>
</g>
<!-- Node37 -->
<g id="node37" class="node">
<title>Node37</title>
<g id="a_node37"><a xlink:href="texture__egl_8h.html" target="_top" xlink:title=" ">
<polygon fill="white" stroke="#666666" points="3107.5,-134.5 2977.5,-134.5 2977.5,-93.5 3107.5,-93.5 3107.5,-134.5"/>
<text text-anchor="start" x="2985.5" y="-122.5" font-family="Helvetica,sans-Serif" font-size="10.00">/mnt/raid10/stargate</text>
<text text-anchor="start" x="2985.5" y="-111.5" font-family="Helvetica,sans-Serif" font-size="10.00">/ivi&#45;homescreen/shell</text>
<text text-anchor="middle" x="3042.5" y="-100.5" font-family="Helvetica,sans-Serif" font-size="10.00">/textures/egl/texture_egl.h</text>
</a>
</g>
</g>
<!-- Node33&#45;&gt;Node37 -->
<g id="edge45" class="edge">
<title>Node33&#45;&gt;Node37</title>
<path fill="none" stroke="#63b8ff" d="M3042.5,-171.36C3042.5,-159.26 3042.5,-145.58 3042.5,-134.74"/>
<polygon fill="#63b8ff" stroke="#63b8ff" points="3039,-171.49 3042.5,-181.49 3046,-171.49 3039,-171.49"/>
</g>
<!-- Node39 -->
<g id="node39" class="node">
<title>Node39</title>
<g id="a_node39"><a xlink:href="compositor__surface_8cc.html" target="_top" xlink:title=" ">
<polygon fill="white" stroke="#666666" points="3305.5,-134.5 3163.5,-134.5 3163.5,-93.5 3305.5,-93.5 3305.5,-134.5"/>
<text text-anchor="start" x="3171.5" y="-122.5" font-family="Helvetica,sans-Serif" font-size="10.00">/mnt/raid10/stargate</text>
<text text-anchor="start" x="3171.5" y="-111.5" font-family="Helvetica,sans-Serif" font-size="10.00">/ivi&#45;homescreen/shell</text>
<text text-anchor="middle" x="3234.5" y="-100.5" font-family="Helvetica,sans-Serif" font-size="10.00">/view/compositor_surface.cc</text>
</a>
</g>
</g>
<!-- Node33&#45;&gt;Node39 -->
<g id="edge50" class="edge">
<title>Node33&#45;&gt;Node39</title>
<path fill="none" stroke="#63b8ff" d="M3095.53,-177.25C3125.49,-163.83 3162.49,-147.26 3190.77,-134.59"/>
<polygon fill="#63b8ff" stroke="#63b8ff" points="3093.76,-174.2 3086.07,-181.49 3096.62,-180.59 3093.76,-174.2"/>
</g>
<!-- Node35&#45;&gt;Node34 -->
<g id="edge41" class="edge">
<title>Node35&#45;&gt;Node34</title>
<path fill="none" stroke="#63b8ff" d="M3622.5,-88.5C3622.5,-75.25 3622.5,-59.11 3622.5,-46.69"/>
<polygon fill="#63b8ff" stroke="#63b8ff" points="3619,-88.8 3622.5,-98.8 3626,-88.8 3619,-88.8"/>
</g>
<!-- Node36 -->
<g id="node36" class="node">
<title>Node36</title>
<g id="a_node36"><a xlink:href="main_8cc.html" target="_top" xlink:title=" ">
<polygon fill="white" stroke="#666666" points="3804,-46.5 3695,-46.5 3695,-5.5 3804,-5.5 3804,-46.5"/>
<text text-anchor="start" x="3703" y="-34.5" font-family="Helvetica,sans-Serif" font-size="10.00">/mnt/raid10/stargate</text>
<text text-anchor="start" x="3703" y="-23.5" font-family="Helvetica,sans-Serif" font-size="10.00">/ivi&#45;homescreen/shell</text>
<text text-anchor="middle" x="3749.5" y="-12.5" font-family="Helvetica,sans-Serif" font-size="10.00">/main.cc</text>
</a>
</g>
</g>
<!-- Node35&#45;&gt;Node36 -->
<g id="edge42" class="edge">
<title>Node35&#45;&gt;Node36</title>
<path fill="none" stroke="#63b8ff" d="M3651.55,-93.33C3672.14,-79.39 3699.66,-60.75 3720.29,-46.78"/>
<polygon fill="#63b8ff" stroke="#63b8ff" points="3649.51,-90.49 3643.19,-98.99 3653.43,-96.28 3649.51,-90.49"/>
</g>
<!-- Node37&#45;&gt;Node19 -->
<g id="edge46" class="edge">
<title>Node37&#45;&gt;Node19</title>
<path fill="none" stroke="#63b8ff" d="M3062.01,-85.03C3069.36,-74.5 3077.67,-62.59 3084.84,-52.32"/>
<polygon fill="#63b8ff" stroke="#63b8ff" points="3058.97,-83.28 3056.11,-93.49 3064.71,-87.29 3058.97,-83.28"/>
</g>
<!-- Node38 -->
<g id="node38" class="node">
<title>Node38</title>
<g id="a_node38"><a xlink:href="texture__egl_8cc.html" target="_top" xlink:title=" ">
<polygon fill="white" stroke="#666666" points="3296,-52 3187,-52 3187,0 3296,0 3296,-52"/>
<text text-anchor="start" x="3195" y="-40" font-family="Helvetica,sans-Serif" font-size="10.00">/mnt/raid10/stargate</text>
<text text-anchor="start" x="3195" y="-29" font-family="Helvetica,sans-Serif" font-size="10.00">/ivi&#45;homescreen/shell</text>
<text text-anchor="start" x="3195" y="-18" font-family="Helvetica,sans-Serif" font-size="10.00">/textures/egl/texture</text>
<text text-anchor="middle" x="3241.5" y="-7" font-family="Helvetica,sans-Serif" font-size="10.00">_egl.cc</text>
</a>
</g>
</g>
<!-- Node37&#45;&gt;Node38 -->
<g id="edge47" class="edge">
<title>Node37&#45;&gt;Node38</title>
<path fill="none" stroke="#63b8ff" d="M3096.9,-89.49C3124.9,-77.39 3158.94,-62.68 3186.96,-50.57"/>
<polygon fill="#63b8ff" stroke="#63b8ff" points="3095.45,-86.31 3087.66,-93.49 3098.22,-92.73 3095.45,-86.31"/>
</g>
</g>
</svg>
