<?xml version="1.0" encoding="UTF-8" standalone="no"?>
<!DOCTYPE svg PUBLIC "-//W3C//DTD SVG 1.1//EN"
 "http://www.w3.org/Graphics/SVG/1.1/DTD/svg11.dtd">
<!-- Generated by graphviz version 2.43.0 (0)
 -->
<!-- Title: /home/joel.winarske@toyotaconnected.com/development/stargate/ivi&#45;homescreen/shell/backend/backend.h Pages: 1 -->
<svg width="2759pt" height="385pt"
 viewBox="0.00 0.00 2758.58 385.00" xmlns="http://www.w3.org/2000/svg" xmlns:xlink="http://www.w3.org/1999/xlink">
<g id="graph0" class="graph" transform="scale(1 1) rotate(0) translate(4 381)">
<title>/home/joel.winarske@toyotaconnected.com/development/stargate/ivi&#45;homescreen/shell/backend/backend.h</title>
<polygon fill="white" stroke="transparent" points="-4,4 -4,-381 2754.58,-381 2754.58,4 -4,4"/>
<!-- Node1 -->
<g id="node1" class="node">
<title>Node1</title>
<g id="a_node1"><a xlink:title=" ">
<polygon fill="#bfbfbf" stroke="black" points="602,-313.5 602,-376.5 734,-376.5 734,-313.5 602,-313.5"/>
<text text-anchor="start" x="610" y="-364.5" font-family="Helvetica,sans-Serif" font-size="10.00">/home/joel.winarske</text>
<text text-anchor="start" x="610" y="-353.5" font-family="Helvetica,sans-Serif" font-size="10.00">@toyotaconnected.com</text>
<text text-anchor="start" x="610" y="-342.5" font-family="Helvetica,sans-Serif" font-size="10.00">/development/stargate</text>
<text text-anchor="start" x="610" y="-331.5" font-family="Helvetica,sans-Serif" font-size="10.00">/ivi&#45;homescreen/shell</text>
<text text-anchor="middle" x="668" y="-320.5" font-family="Helvetica,sans-Serif" font-size="10.00">/backend/backend.h</text>
</a>
</g>
</g>
<!-- Node2 -->
<g id="node2" class="node">
<title>Node2</title>
<g id="a_node2"><a xlink:title=" ">
<polygon fill="white" stroke="#bfbfbf" points="642.5,-0.5 642.5,-30.5 779.5,-30.5 779.5,-0.5 642.5,-0.5"/>
<text text-anchor="start" x="650.5" y="-18.5" font-family="Helvetica,sans-Serif" font-size="10.00">shell/platform/embedder</text>
<text text-anchor="middle" x="711" y="-7.5" font-family="Helvetica,sans-Serif" font-size="10.00">/embedder.h</text>
</a>
</g>
</g>
<!-- Node1&#45;&gt;Node2 -->
<g id="edge1" class="edge">
<title>Node1&#45;&gt;Node2</title>
<path fill="none" stroke="midnightblue" d="M601.81,-344.79C433.07,-345.05 0,-333.84 0,-212 0,-212 0,-212 0,-148.5 0,-102.17 24.07,-88.71 65,-67 113.98,-41.01 470.72,-25.1 632.1,-19.16"/>
<polygon fill="midnightblue" stroke="midnightblue" points="632.57,-22.64 642.44,-18.78 632.32,-15.65 632.57,-22.64"/>
</g>
<!-- Node3 -->
<g id="node3" class="node">
<title>Node3</title>
<g id="a_node3"><a xlink:href="constants_8h.html" target="_top" xlink:title=" ">
<polygon fill="white" stroke="black" points="2266.5,-73 2266.5,-92 2339.5,-92 2339.5,-73 2266.5,-73"/>
<text text-anchor="middle" x="2303" y="-80" font-family="Helvetica,sans-Serif" font-size="10.00">constants.h</text>
</a>
</g>
</g>
<!-- Node1&#45;&gt;Node3 -->
<g id="edge2" class="edge">
<title>Node1&#45;&gt;Node3</title>
<path fill="none" stroke="midnightblue" d="M734.19,-341.12C937.29,-331.1 1568.47,-291.23 2074,-165 2147.69,-146.6 2230.95,-113.79 2273.91,-95.92"/>
<polygon fill="midnightblue" stroke="midnightblue" points="2275.32,-99.13 2283.19,-92.04 2272.61,-92.67 2275.32,-99.13"/>
</g>
<!-- Node6 -->
<g id="node6" class="node">
<title>Node6</title>
<g id="a_node6"><a xlink:href="engine_8h.html" target="_top" xlink:title=" ">
<polygon fill="white" stroke="black" points="638.5,-257.5 638.5,-276.5 697.5,-276.5 697.5,-257.5 638.5,-257.5"/>
<text text-anchor="middle" x="668" y="-264.5" font-family="Helvetica,sans-Serif" font-size="10.00">engine.h</text>
</a>
</g>
</g>
<!-- Node1&#45;&gt;Node6 -->
<g id="edge6" class="edge">
<title>Node1&#45;&gt;Node6</title>
<path fill="none" stroke="midnightblue" d="M661.36,-313.09C661.09,-304.15 661.33,-294.67 662.09,-286.72"/>
<polygon fill="midnightblue" stroke="midnightblue" points="665.57,-287.11 663.51,-276.72 658.64,-286.13 665.57,-287.11"/>
</g>
<!-- Node3&#45;&gt;Node2 -->
<g id="edge4" class="edge">
<title>Node3&#45;&gt;Node2</title>
<path fill="none" stroke="midnightblue" d="M2279.9,-72.87C2272.67,-70.53 2264.59,-68.3 2257,-67 1970.65,-18.14 1064.16,-15.8 790.19,-16.24"/>
<polygon fill="midnightblue" stroke="midnightblue" points="789.93,-12.74 779.94,-16.26 789.94,-19.74 789.93,-12.74"/>
</g>
<!-- Node4 -->
<g id="node4" class="node">
<title>Node4</title>
<g id="a_node4"><a xlink:title=" ">
<polygon fill="white" stroke="#bfbfbf" points="2536,-6 2536,-25 2598,-25 2598,-6 2536,-6"/>
<text text-anchor="middle" x="2567" y="-13" font-family="Helvetica,sans-Serif" font-size="10.00">EGL/egl.h</text>
</a>
</g>
</g>
<!-- Node3&#45;&gt;Node4 -->
<g id="edge3" class="edge">
<title>Node3&#45;&gt;Node4</title>
<path fill="none" stroke="midnightblue" d="M2328.11,-72.99C2334.56,-70.92 2341.51,-68.79 2348,-67 2409.59,-50.01 2481.99,-34.09 2526.17,-24.83"/>
<polygon fill="midnightblue" stroke="midnightblue" points="2526.89,-28.25 2535.96,-22.79 2525.46,-21.4 2526.89,-28.25"/>
</g>
<!-- Node5 -->
<g id="node5" class="node">
<title>Node5</title>
<g id="a_node5"><a xlink:title=" ">
<polygon fill="white" stroke="#bfbfbf" points="2282,-6 2282,-25 2324,-25 2324,-6 2282,-6"/>
<text text-anchor="middle" x="2303" y="-13" font-family="Helvetica,sans-Serif" font-size="10.00">array</text>
</a>
</g>
</g>
<!-- Node3&#45;&gt;Node5 -->
<g id="edge5" class="edge">
<title>Node3&#45;&gt;Node5</title>
<path fill="none" stroke="midnightblue" d="M2303,-72.73C2303,-63.18 2303,-47.62 2303,-35.28"/>
<polygon fill="midnightblue" stroke="midnightblue" points="2306.5,-35.13 2303,-25.13 2299.5,-35.13 2306.5,-35.13"/>
</g>
<!-- Node6&#45;&gt;Node1 -->
<g id="edge18" class="edge">
<title>Node6&#45;&gt;Node1</title>
<path fill="none" stroke="midnightblue" d="M672.49,-276.72C673.85,-283.32 674.6,-292.91 674.73,-302.8"/>
<polygon fill="midnightblue" stroke="midnightblue" points="671.23,-303.06 674.64,-313.09 678.23,-303.12 671.23,-303.06"/>
</g>
<!-- Node6&#45;&gt;Node2 -->
<g id="edge11" class="edge">
<title>Node6&#45;&gt;Node2</title>
<path fill="none" stroke="midnightblue" d="M638.31,-266.12C521.36,-266.3 96.91,-263.96 57,-221 -111.21,-39.94 424.26,-18.07 632.11,-16.26"/>
<polygon fill="midnightblue" stroke="midnightblue" points="632.38,-19.76 642.35,-16.18 632.33,-12.76 632.38,-19.76"/>
</g>
<!-- Node6&#45;&gt;Node3 -->
<g id="edge19" class="edge">
<title>Node6&#45;&gt;Node3</title>
<path fill="none" stroke="midnightblue" d="M697.64,-266.12C841.4,-266.18 1479.87,-260.8 1991,-165 2110.83,-142.54 2139.7,-131.23 2257,-98 2260.32,-97.06 2263.77,-96.04 2267.21,-95"/>
<polygon fill="midnightblue" stroke="midnightblue" points="2268.28,-98.34 2276.81,-92.05 2266.22,-91.65 2268.28,-98.34"/>
</g>
<!-- Node6&#45;&gt;Node4 -->
<g id="edge8" class="edge">
<title>Node6&#45;&gt;Node4</title>
<path fill="none" stroke="midnightblue" d="M697.9,-265.03C821.18,-260.96 1302.06,-244.37 1697,-221 1930.42,-207.19 2596.11,-280.73 2742,-98 2780.82,-49.37 2671.29,-28.41 2608.16,-20.56"/>
<polygon fill="midnightblue" stroke="midnightblue" points="2608.43,-17.07 2598.09,-19.37 2607.61,-24.02 2608.43,-17.07"/>
</g>
<!-- Node7 -->
<g id="node7" class="node">
<title>Node7</title>
<g id="a_node7"><a xlink:title=" ">
<polygon fill="white" stroke="#bfbfbf" points="66.5,-201.5 66.5,-220.5 131.5,-220.5 131.5,-201.5 66.5,-201.5"/>
<text text-anchor="middle" x="99" y="-208.5" font-family="Helvetica,sans-Serif" font-size="10.00">functional</text>
</a>
</g>
</g>
<!-- Node6&#45;&gt;Node7 -->
<g id="edge7" class="edge">
<title>Node6&#45;&gt;Node7</title>
<path fill="none" stroke="midnightblue" d="M638.42,-264.78C559.46,-261.25 337,-249.5 142.08,-220.97"/>
<polygon fill="midnightblue" stroke="midnightblue" points="142.35,-217.47 131.94,-219.47 141.32,-224.4 142.35,-217.47"/>
</g>
<!-- Node8 -->
<g id="node8" class="node">
<title>Node8</title>
<g id="a_node8"><a xlink:title=" ">
<polygon fill="white" stroke="#bfbfbf" points="150,-201.5 150,-220.5 224,-220.5 224,-201.5 150,-201.5"/>
<text text-anchor="middle" x="187" y="-208.5" font-family="Helvetica,sans-Serif" font-size="10.00">GLES2/gl2.h</text>
</a>
</g>
</g>
<!-- Node6&#45;&gt;Node8 -->
<g id="edge9" class="edge">
<title>Node6&#45;&gt;Node8</title>
<path fill="none" stroke="midnightblue" d="M638.35,-263.86C569.28,-258.68 392.15,-244.25 234.01,-221.03"/>
<polygon fill="midnightblue" stroke="midnightblue" points="234.51,-217.56 224.11,-219.56 233.49,-224.49 234.51,-217.56"/>
</g>
<!-- Node9 -->
<g id="node9" class="node">
<title>Node9</title>
<g id="a_node9"><a xlink:title=" ">
<polygon fill="white" stroke="#bfbfbf" points="242,-201.5 242,-220.5 382,-220.5 382,-201.5 242,-201.5"/>
<text text-anchor="middle" x="312" y="-208.5" font-family="Helvetica,sans-Serif" font-size="10.00">flutter/encodable_value.h</text>
</a>
</g>
</g>
<!-- Node6&#45;&gt;Node9 -->
<g id="edge10" class="edge">
<title>Node6&#45;&gt;Node9</title>
<path fill="none" stroke="midnightblue" d="M638.26,-261.49C581.4,-252.86 456.05,-233.85 378.33,-222.06"/>
<polygon fill="midnightblue" stroke="midnightblue" points="378.57,-218.56 368.16,-220.52 377.52,-225.48 378.57,-218.56"/>
</g>
<!-- Node10 -->
<g id="node10" class="node">
<title>Node10</title>
<g id="a_node10"><a xlink:title=" ">
<polygon fill="white" stroke="#bfbfbf" points="323,-73 323,-92 361,-92 361,-73 323,-73"/>
<text text-anchor="middle" x="342" y="-80" font-family="Helvetica,sans-Serif" font-size="10.00">map</text>
</a>
</g>
</g>
<!-- Node6&#45;&gt;Node10 -->
<g id="edge12" class="edge">
<title>Node6&#45;&gt;Node10</title>
<path fill="none" stroke="midnightblue" d="M638.41,-264.28C595.16,-260.81 512.96,-250.58 450,-221 413.94,-204.06 404.62,-196.32 380,-165 364.74,-145.59 353.83,-119.05 347.72,-101.6"/>
<polygon fill="midnightblue" stroke="midnightblue" points="351.02,-100.44 344.54,-92.06 344.38,-102.65 351.02,-100.44"/>
</g>
<!-- Node11 -->
<g id="node11" class="node">
<title>Node11</title>
<g id="a_node11"><a xlink:title=" ">
<polygon fill="white" stroke="#bfbfbf" points="2190,-73 2190,-92 2248,-92 2248,-73 2190,-73"/>
<text text-anchor="middle" x="2219" y="-80" font-family="Helvetica,sans-Serif" font-size="10.00">memory</text>
</a>
</g>
</g>
<!-- Node6&#45;&gt;Node11 -->
<g id="edge13" class="edge">
<title>Node6&#45;&gt;Node11</title>
<path fill="none" stroke="midnightblue" d="M697.73,-265.23C835.31,-261.31 1423.59,-240.73 1899,-165 2025.79,-144.8 2057.16,-135.33 2180,-98 2182.57,-97.22 2185.21,-96.36 2187.86,-95.46"/>
<polygon fill="midnightblue" stroke="midnightblue" points="2189.05,-98.75 2197.3,-92.1 2186.7,-92.16 2189.05,-98.75"/>
</g>
<!-- Node12 -->
<g id="node12" class="node">
<title>Node12</title>
<g id="a_node12"><a xlink:title=" ">
<polygon fill="white" stroke="#bfbfbf" points="476,-201.5 476,-220.5 524,-220.5 524,-201.5 476,-201.5"/>
<text text-anchor="middle" x="500" y="-208.5" font-family="Helvetica,sans-Serif" font-size="10.00">mutex</text>
</a>
</g>
</g>
<!-- Node6&#45;&gt;Node12 -->
<g id="edge14" class="edge">
<title>Node6&#45;&gt;Node12</title>
<path fill="none" stroke="midnightblue" d="M641.38,-257.44C612.24,-248.08 565.46,-233.04 533.77,-222.85"/>
<polygon fill="midnightblue" stroke="midnightblue" points="534.64,-219.46 524.05,-219.73 532.5,-226.12 534.64,-219.46"/>
</g>
<!-- Node13 -->
<g id="node13" class="node">
<title>Node13</title>
<g id="a_node13"><a xlink:title=" ">
<polygon fill="white" stroke="#bfbfbf" points="542.5,-201.5 542.5,-220.5 589.5,-220.5 589.5,-201.5 542.5,-201.5"/>
<text text-anchor="middle" x="566" y="-208.5" font-family="Helvetica,sans-Serif" font-size="10.00">queue</text>
</a>
</g>
</g>
<!-- Node6&#45;&gt;Node13 -->
<g id="edge15" class="edge">
<title>Node6&#45;&gt;Node13</title>
<path fill="none" stroke="midnightblue" d="M651.61,-257.32C635.33,-248.7 610.13,-235.36 591.28,-225.39"/>
<polygon fill="midnightblue" stroke="midnightblue" points="592.82,-222.24 582.35,-220.65 589.55,-228.43 592.82,-222.24"/>
</g>
<!-- Node14 -->
<g id="node14" class="node">
<title>Node14</title>
<g id="a_node14"><a xlink:title=" ">
<polygon fill="white" stroke="#bfbfbf" points="445,-73 445,-92 489,-92 489,-73 445,-73"/>
<text text-anchor="middle" x="467" y="-80" font-family="Helvetica,sans-Serif" font-size="10.00">string</text>
</a>
</g>
</g>
<!-- Node6&#45;&gt;Node14 -->
<g id="edge16" class="edge">
<title>Node6&#45;&gt;Node14</title>
<path fill="none" stroke="midnightblue" d="M680.78,-257.37C691.39,-249.36 705.73,-236.38 712,-221 726.49,-185.45 674.77,-134.56 674,-134 609.41,-87.07 573.8,-123.09 498,-98 496.33,-97.45 494.64,-96.83 492.94,-96.17"/>
<polygon fill="midnightblue" stroke="midnightblue" points="494.01,-92.82 483.44,-92.07 491.23,-99.24 494.01,-92.82"/>
</g>
<!-- Node15 -->
<g id="node15" class="node">
<title>Node15</title>
<g id="a_node15"><a xlink:title=" ">
<polygon fill="white" stroke="#bfbfbf" points="379.5,-73 379.5,-92 426.5,-92 426.5,-73 379.5,-73"/>
<text text-anchor="middle" x="403" y="-80" font-family="Helvetica,sans-Serif" font-size="10.00">vector</text>
</a>
</g>
</g>
<!-- Node6&#45;&gt;Node15 -->
<g id="edge17" class="edge">
<title>Node6&#45;&gt;Node15</title>
<path fill="none" stroke="midnightblue" d="M671.75,-257.47C676.75,-244.94 684.37,-220.89 679,-201 670.02,-167.73 668.26,-153.71 640,-134 564.49,-81.32 524.11,-124.71 436,-98 434.07,-97.41 432.1,-96.75 430.13,-96.03"/>
<polygon fill="midnightblue" stroke="midnightblue" points="431.1,-92.64 420.52,-92.12 428.47,-99.13 431.1,-92.64"/>
</g>
<!-- Node16 -->
<g id="node16" class="node">
<title>Node16</title>
<g id="a_node16"><a xlink:href="logging_8h.html" target="_top" xlink:title=" ">
<polygon fill="white" stroke="black" points="608,-201.5 608,-220.5 670,-220.5 670,-201.5 608,-201.5"/>
<text text-anchor="middle" x="639" y="-208.5" font-family="Helvetica,sans-Serif" font-size="10.00">logging.h</text>
</a>
</g>
</g>
<!-- Node6&#45;&gt;Node16 -->
<g id="edge20" class="edge">
<title>Node6&#45;&gt;Node16</title>
<path fill="none" stroke="midnightblue" d="M663.21,-257.08C659.24,-249.69 653.47,-238.95 648.57,-229.81"/>
<polygon fill="midnightblue" stroke="midnightblue" points="651.51,-227.91 643.7,-220.75 645.35,-231.22 651.51,-227.91"/>
</g>
<!-- Node18 -->
<g id="node18" class="node">
<title>Node18</title>
<g id="a_node18"><a xlink:href="platform__channel_8h.html" target="_top" xlink:title=" ">
<polygon fill="white" stroke="black" points="389.5,-140 389.5,-159 500.5,-159 500.5,-140 389.5,-140"/>
<text text-anchor="middle" x="445" y="-147" font-family="Helvetica,sans-Serif" font-size="10.00">platform_channel.h</text>
</a>
</g>
</g>
<!-- Node6&#45;&gt;Node18 -->
<g id="edge22" class="edge">
<title>Node6&#45;&gt;Node18</title>
<path fill="none" stroke="midnightblue" d="M638.22,-262.98C588.54,-257.37 491.73,-243.77 467,-221 452.73,-207.86 447.64,-185.63 445.87,-169.64"/>
<polygon fill="midnightblue" stroke="midnightblue" points="449.33,-169.03 445.08,-159.32 442.35,-169.56 449.33,-169.03"/>
</g>
<!-- Node19 -->
<g id="node19" class="node">
<title>Node19</title>
<g id="a_node19"><a xlink:href="key__event_8h.html" target="_top" xlink:title=" ">
<polygon fill="white" stroke="black" points="976,-134.5 976,-164.5 1088,-164.5 1088,-134.5 976,-134.5"/>
<text text-anchor="start" x="984" y="-152.5" font-family="Helvetica,sans-Serif" font-size="10.00">static_plugins/key</text>
<text text-anchor="middle" x="1032" y="-141.5" font-family="Helvetica,sans-Serif" font-size="10.00">_event/key_event.h</text>
</a>
</g>
</g>
<!-- Node6&#45;&gt;Node19 -->
<g id="edge26" class="edge">
<title>Node6&#45;&gt;Node19</title>
<path fill="none" stroke="midnightblue" d="M697.96,-263.63C762.51,-258.16 912.52,-243.4 958,-221 981.05,-209.65 1001.69,-188.59 1015.28,-172.44"/>
<polygon fill="midnightblue" stroke="midnightblue" points="1018.13,-174.48 1021.72,-164.51 1012.7,-170.07 1018.13,-174.48"/>
</g>
<!-- Node26 -->
<g id="node26" class="node">
<title>Node26</title>
<g id="a_node26"><a xlink:href="text__input_8h.html" target="_top" xlink:title=" ">
<polygon fill="white" stroke="black" points="1384,-134.5 1384,-164.5 1492,-164.5 1492,-134.5 1384,-134.5"/>
<text text-anchor="start" x="1392" y="-152.5" font-family="Helvetica,sans-Serif" font-size="10.00">static_plugins/text</text>
<text text-anchor="middle" x="1438" y="-141.5" font-family="Helvetica,sans-Serif" font-size="10.00">_input/text_input.h</text>
</a>
</g>
</g>
<!-- Node6&#45;&gt;Node26 -->
<g id="edge38" class="edge">
<title>Node6&#45;&gt;Node26</title>
<path fill="none" stroke="midnightblue" d="M697.83,-261.92C754.18,-254.19 880.11,-236.75 986,-221 1124.28,-200.43 1286.11,-174.82 1373.72,-160.82"/>
<polygon fill="midnightblue" stroke="midnightblue" points="1374.45,-164.25 1383.77,-159.21 1373.34,-157.34 1374.45,-164.25"/>
</g>
<!-- Node31 -->
<g id="node31" class="node">
<title>Node31</title>
<g id="a_node31"><a xlink:href="flutter__view_8h.html" target="_top" xlink:title=" ">
<polygon fill="white" stroke="black" points="840.5,-201.5 840.5,-220.5 949.5,-220.5 949.5,-201.5 840.5,-201.5"/>
<text text-anchor="middle" x="895" y="-208.5" font-family="Helvetica,sans-Serif" font-size="10.00">view/flutter_view.h</text>
</a>
</g>
</g>
<!-- Node6&#45;&gt;Node31 -->
<g id="edge52" class="edge">
<title>Node6&#45;&gt;Node31</title>
<path fill="none" stroke="midnightblue" d="M697.68,-258.94C736.22,-249.77 803.91,-233.67 849.1,-222.92"/>
<polygon fill="midnightblue" stroke="midnightblue" points="850.03,-226.3 858.95,-220.58 848.41,-219.49 850.03,-226.3"/>
</g>
<!-- Node17 -->
<g id="node17" class="node">
<title>Node17</title>
<g id="a_node17"><a xlink:title=" ">
<polygon fill="white" stroke="#bfbfbf" points="518.5,-140 518.5,-159 631.5,-159 631.5,-140 518.5,-140"/>
<text text-anchor="middle" x="575" y="-147" font-family="Helvetica,sans-Serif" font-size="10.00">flutter/fml/logging.h</text>
</a>
</g>
</g>
<!-- Node16&#45;&gt;Node17 -->
<g id="edge21" class="edge">
<title>Node16&#45;&gt;Node17</title>
<path fill="none" stroke="midnightblue" d="M629.83,-201.48C619.85,-192.2 603.69,-177.17 591.49,-165.83"/>
<polygon fill="midnightblue" stroke="midnightblue" points="593.86,-163.25 584.15,-159.01 589.09,-168.38 593.86,-163.25"/>
</g>
<!-- Node18&#45;&gt;Node2 -->
<g id="edge25" class="edge">
<title>Node18&#45;&gt;Node2</title>
<path fill="none" stroke="midnightblue" d="M405.49,-139.96C356.44,-127.63 282.84,-102.38 314,-67 334.65,-43.55 522.3,-28.12 632.06,-21.02"/>
<polygon fill="midnightblue" stroke="midnightblue" points="632.35,-24.51 642.1,-20.38 631.9,-17.52 632.35,-24.51"/>
</g>
<!-- Node18&#45;&gt;Node10 -->
<g id="edge23" class="edge">
<title>Node18&#45;&gt;Node10</title>
<path fill="none" stroke="midnightblue" d="M431.11,-139.73C413.97,-128.92 384.6,-110.38 364.29,-97.57"/>
<polygon fill="midnightblue" stroke="midnightblue" points="366,-94.5 355.67,-92.13 362.26,-100.42 366,-94.5"/>
</g>
<!-- Node18&#45;&gt;Node14 -->
<g id="edge24" class="edge">
<title>Node18&#45;&gt;Node14</title>
<path fill="none" stroke="midnightblue" d="M447.97,-139.73C451.23,-130.09 456.58,-114.3 460.77,-101.91"/>
<polygon fill="midnightblue" stroke="midnightblue" points="464.19,-102.72 464.08,-92.13 457.56,-100.48 464.19,-102.72"/>
</g>
<!-- Node19&#45;&gt;Node2 -->
<g id="edge35" class="edge">
<title>Node19&#45;&gt;Node2</title>
<path fill="none" stroke="midnightblue" d="M1061.18,-134.44C1090.74,-118.38 1129.29,-91.17 1108,-67 1087.35,-43.55 899.7,-28.12 789.94,-21.02"/>
<polygon fill="midnightblue" stroke="midnightblue" points="790.1,-17.52 779.9,-20.38 789.65,-24.51 790.1,-17.52"/>
</g>
<!-- Node19&#45;&gt;Node3 -->
<g id="edge37" class="edge">
<title>Node19&#45;&gt;Node3</title>
<path fill="none" stroke="midnightblue" d="M1088.14,-146.1C1156.07,-143.21 1273.91,-138.2 1375,-134 1570.99,-125.86 2063.77,-131.78 2257,-98 2261.27,-97.25 2265.69,-96.22 2270.03,-95.04"/>
<polygon fill="midnightblue" stroke="midnightblue" points="2271.31,-98.31 2279.9,-92.09 2269.31,-91.6 2271.31,-98.31"/>
</g>
<!-- Node19&#45;&gt;Node10 -->
<g id="edge27" class="edge">
<title>Node19&#45;&gt;Node10</title>
<path fill="none" stroke="midnightblue" d="M975.96,-139.83C960.75,-137.69 944.27,-135.56 929,-134 681.34,-108.63 609.87,-164.66 370,-98 368.33,-97.54 366.65,-96.97 364.98,-96.32"/>
<polygon fill="midnightblue" stroke="midnightblue" points="366.32,-93.09 355.78,-92.07 363.38,-99.44 366.32,-93.09"/>
</g>
<!-- Node19&#45;&gt;Node11 -->
<g id="edge28" class="edge">
<title>Node19&#45;&gt;Node11</title>
<path fill="none" stroke="midnightblue" d="M1088.17,-146.09C1317.78,-136.22 2173.23,-99.37 2180,-98 2183.26,-97.34 2186.6,-96.45 2189.9,-95.43"/>
<polygon fill="midnightblue" stroke="midnightblue" points="2191.21,-98.68 2199.51,-92.1 2188.91,-92.07 2191.21,-98.68"/>
</g>
<!-- Node19&#45;&gt;Node14 -->
<g id="edge29" class="edge">
<title>Node19&#45;&gt;Node14</title>
<path fill="none" stroke="midnightblue" d="M975.94,-140.02C960.73,-137.88 944.25,-135.71 929,-134 737.97,-112.59 683.74,-147.49 498,-98 496.06,-97.48 494.1,-96.85 492.14,-96.14"/>
<polygon fill="midnightblue" stroke="midnightblue" points="493.26,-92.81 482.68,-92.15 490.53,-99.26 493.26,-92.81"/>
</g>
<!-- Node20 -->
<g id="node20" class="node">
<title>Node20</title>
<g id="a_node20"><a xlink:title=" ">
<polygon fill="white" stroke="#bfbfbf" points="639,-67.5 639,-97.5 763,-97.5 763,-67.5 639,-67.5"/>
<text text-anchor="start" x="647" y="-85.5" font-family="Helvetica,sans-Serif" font-size="10.00">flutter/basic_message</text>
<text text-anchor="middle" x="701" y="-74.5" font-family="Helvetica,sans-Serif" font-size="10.00">_channel.h</text>
</a>
</g>
</g>
<!-- Node19&#45;&gt;Node20 -->
<g id="edge30" class="edge">
<title>Node19&#45;&gt;Node20</title>
<path fill="none" stroke="midnightblue" d="M975.85,-136.78C971.17,-135.83 966.5,-134.89 962,-134 880.82,-117.9 858,-114.82 773.39,-98.26"/>
<polygon fill="midnightblue" stroke="midnightblue" points="773.82,-94.77 763.33,-96.28 772.47,-101.64 773.82,-94.77"/>
</g>
<!-- Node21 -->
<g id="node21" class="node">
<title>Node21</title>
<g id="a_node21"><a xlink:title=" ">
<polygon fill="white" stroke="#bfbfbf" points="1155.5,-73 1155.5,-92 1302.5,-92 1302.5,-73 1155.5,-73"/>
<text text-anchor="middle" x="1229" y="-80" font-family="Helvetica,sans-Serif" font-size="10.00">flutter/binary_messenger.h</text>
</a>
</g>
</g>
<!-- Node19&#45;&gt;Node21 -->
<g id="edge31" class="edge">
<title>Node19&#45;&gt;Node21</title>
<path fill="none" stroke="midnightblue" d="M1074.75,-134.4C1110.23,-122.69 1160.11,-106.23 1193.44,-95.23"/>
<polygon fill="midnightblue" stroke="midnightblue" points="1194.82,-98.46 1203.22,-92.01 1192.62,-91.82 1194.82,-98.46"/>
</g>
<!-- Node22 -->
<g id="node22" class="node">
<title>Node22</title>
<g id="a_node22"><a xlink:title=" ">
<polygon fill="white" stroke="#bfbfbf" points="921,-67.5 921,-97.5 1099,-97.5 1099,-67.5 921,-67.5"/>
<text text-anchor="start" x="929" y="-85.5" font-family="Helvetica,sans-Serif" font-size="10.00">flutter/shell/platform</text>
<text text-anchor="middle" x="1010" y="-74.5" font-family="Helvetica,sans-Serif" font-size="10.00">/common/json_message_codec.h</text>
</a>
</g>
</g>
<!-- Node19&#45;&gt;Node22 -->
<g id="edge32" class="edge">
<title>Node19&#45;&gt;Node22</title>
<path fill="none" stroke="midnightblue" d="M1027.23,-134.4C1024.55,-126.47 1021.13,-116.38 1018.05,-107.27"/>
<polygon fill="midnightblue" stroke="midnightblue" points="1021.29,-105.93 1014.76,-97.58 1014.66,-108.17 1021.29,-105.93"/>
</g>
<!-- Node23 -->
<g id="node23" class="node">
<title>Node23</title>
<g id="a_node23"><a xlink:title=" ">
<polygon fill="white" stroke="#bfbfbf" points="507.5,-73 507.5,-92 620.5,-92 620.5,-73 507.5,-73"/>
<text text-anchor="middle" x="564" y="-80" font-family="Helvetica,sans-Serif" font-size="10.00">flutter/fml/macros.h</text>
</a>
</g>
</g>
<!-- Node19&#45;&gt;Node23 -->
<g id="edge33" class="edge">
<title>Node19&#45;&gt;Node23</title>
<path fill="none" stroke="midnightblue" d="M975.92,-136.39C971.22,-135.52 966.54,-134.71 962,-134 815.38,-110.92 776.47,-121.96 630,-98 623.31,-96.91 616.28,-95.57 609.4,-94.15"/>
<polygon fill="midnightblue" stroke="midnightblue" points="610,-90.7 599.49,-92.04 608.54,-97.54 610,-90.7"/>
</g>
<!-- Node24 -->
<g id="node24" class="node">
<title>Node24</title>
<g id="a_node24"><a xlink:title=" ">
<polygon fill="white" stroke="#bfbfbf" points="781,-73 781,-92 903,-92 903,-73 781,-73"/>
<text text-anchor="middle" x="842" y="-80" font-family="Helvetica,sans-Serif" font-size="10.00">rapidjson/document.h</text>
</a>
</g>
</g>
<!-- Node19&#45;&gt;Node24 -->
<g id="edge34" class="edge">
<title>Node19&#45;&gt;Node24</title>
<path fill="none" stroke="midnightblue" d="M990.77,-134.4C956.7,-122.74 908.86,-106.37 876.71,-95.38"/>
<polygon fill="midnightblue" stroke="midnightblue" points="877.46,-91.93 866.87,-92.01 875.2,-98.56 877.46,-91.93"/>
</g>
<!-- Node25 -->
<g id="node25" class="node">
<title>Node25</title>
<g id="a_node25"><a xlink:title=" ">
<polygon fill="white" stroke="#bfbfbf" points="1321,-73 1321,-92 1471,-92 1471,-73 1321,-73"/>
<text text-anchor="middle" x="1396" y="-80" font-family="Helvetica,sans-Serif" font-size="10.00">xkbcommon/xkbcommon.h</text>
</a>
</g>
</g>
<!-- Node19&#45;&gt;Node25 -->
<g id="edge36" class="edge">
<title>Node19&#45;&gt;Node25</title>
<path fill="none" stroke="midnightblue" d="M1088.08,-138.49C1155.89,-126.38 1269.45,-106.1 1338.08,-93.84"/>
<polygon fill="midnightblue" stroke="midnightblue" points="1339.05,-97.22 1348.28,-92.02 1337.82,-90.33 1339.05,-97.22"/>
</g>
<!-- Node26&#45;&gt;Node2 -->
<g id="edge49" class="edge">
<title>Node26&#45;&gt;Node2</title>
<path fill="none" stroke="midnightblue" d="M1492.39,-145.75C1598.49,-139.82 1824.81,-124.22 1848,-98 1857.13,-87.68 1857.52,-76.96 1848,-67 1811.46,-28.8 1041.25,-19.18 789.7,-17.05"/>
<polygon fill="midnightblue" stroke="midnightblue" points="789.57,-13.55 779.54,-16.96 789.52,-20.55 789.57,-13.55"/>
</g>
<!-- Node26&#45;&gt;Node3 -->
<g id="edge51" class="edge">
<title>Node26&#45;&gt;Node3</title>
<path fill="none" stroke="midnightblue" d="M1492.17,-146.88C1650.31,-141.89 2109.49,-125.37 2257,-98 2261.17,-97.23 2265.49,-96.19 2269.73,-95.03"/>
<polygon fill="midnightblue" stroke="midnightblue" points="2270.82,-98.36 2279.41,-92.15 2268.82,-91.65 2270.82,-98.36"/>
</g>
<!-- Node26&#45;&gt;Node10 -->
<g id="edge39" class="edge">
<title>Node26&#45;&gt;Node10</title>
<path fill="none" stroke="midnightblue" d="M1383.9,-146.1C1168.43,-136.51 382.37,-101.33 370,-98 368.33,-97.55 366.64,-96.99 364.97,-96.36"/>
<polygon fill="midnightblue" stroke="midnightblue" points="366.31,-93.12 355.76,-92.12 363.38,-99.48 366.31,-93.12"/>
</g>
<!-- Node26&#45;&gt;Node11 -->
<g id="edge40" class="edge">
<title>Node26&#45;&gt;Node11</title>
<path fill="none" stroke="midnightblue" d="M1492.1,-146.84C1639.95,-141.97 2048.57,-126.28 2180,-98 2183.25,-97.3 2186.59,-96.38 2189.88,-95.35"/>
<polygon fill="midnightblue" stroke="midnightblue" points="2191.2,-98.6 2199.49,-92.01 2188.89,-91.99 2191.2,-98.6"/>
</g>
<!-- Node26&#45;&gt;Node14 -->
<g id="edge41" class="edge">
<title>Node26&#45;&gt;Node14</title>
<path fill="none" stroke="midnightblue" d="M1383.87,-146.16C1190.23,-137.74 541.12,-108.81 498,-98 496.01,-97.5 494,-96.87 492,-96.16"/>
<polygon fill="midnightblue" stroke="midnightblue" points="492.91,-92.75 482.34,-92.09 490.19,-99.2 492.91,-92.75"/>
</g>
<!-- Node26&#45;&gt;Node21 -->
<g id="edge42" class="edge">
<title>Node26&#45;&gt;Node21</title>
<path fill="none" stroke="midnightblue" d="M1392.91,-134.48C1355.12,-122.72 1301.81,-106.14 1266.36,-95.12"/>
<polygon fill="midnightblue" stroke="midnightblue" points="1267.01,-91.66 1256.42,-92.03 1264.93,-98.34 1267.01,-91.66"/>
</g>
<!-- Node26&#45;&gt;Node23 -->
<g id="edge45" class="edge">
<title>Node26&#45;&gt;Node23</title>
<path fill="none" stroke="midnightblue" d="M1383.83,-146.2C1227.31,-139.4 776.32,-118.52 630,-98 622.81,-96.99 615.24,-95.62 607.9,-94.13"/>
<polygon fill="midnightblue" stroke="midnightblue" points="608.58,-90.7 598.07,-92.03 607.12,-97.54 608.58,-90.7"/>
</g>
<!-- Node26&#45;&gt;Node24 -->
<g id="edge48" class="edge">
<title>Node26&#45;&gt;Node24</title>
<path fill="none" stroke="midnightblue" d="M1383.62,-145.23C1287.9,-139.05 1083.21,-123.87 912,-98 904.58,-96.88 896.75,-95.48 889.13,-93.99"/>
<polygon fill="midnightblue" stroke="midnightblue" points="889.78,-90.55 879.28,-92 888.39,-97.41 889.78,-90.55"/>
</g>
<!-- Node26&#45;&gt;Node25 -->
<g id="edge50" class="edge">
<title>Node26&#45;&gt;Node25</title>
<path fill="none" stroke="midnightblue" d="M1428.89,-134.4C1422.53,-124.56 1414.01,-111.38 1407.24,-100.89"/>
<polygon fill="midnightblue" stroke="midnightblue" points="1409.98,-98.69 1401.62,-92.19 1404.11,-102.49 1409.98,-98.69"/>
</g>
<!-- Node27 -->
<g id="node27" class="node">
<title>Node27</title>
<g id="a_node27"><a xlink:title=" ">
<polygon fill="white" stroke="#bfbfbf" points="1895.5,-73 1895.5,-92 2034.5,-92 2034.5,-73 1895.5,-73"/>
<text text-anchor="middle" x="1965" y="-80" font-family="Helvetica,sans-Serif" font-size="10.00">flutter/method_channel.h</text>
</a>
</g>
</g>
<!-- Node26&#45;&gt;Node27 -->
<g id="edge43" class="edge">
<title>Node26&#45;&gt;Node27</title>
<path fill="none" stroke="midnightblue" d="M1492,-143.35C1575.56,-135.16 1741.16,-118.02 1881,-98 1889.83,-96.74 1899.17,-95.26 1908.28,-93.75"/>
<polygon fill="midnightblue" stroke="midnightblue" points="1909.15,-97.15 1918.42,-92.03 1907.98,-90.25 1909.15,-97.15"/>
</g>
<!-- Node28 -->
<g id="node28" class="node">
<title>Node28</title>
<g id="a_node28"><a xlink:title=" ">
<polygon fill="white" stroke="#bfbfbf" points="2052.5,-67.5 2052.5,-97.5 2171.5,-97.5 2171.5,-67.5 2052.5,-67.5"/>
<text text-anchor="start" x="2060.5" y="-85.5" font-family="Helvetica,sans-Serif" font-size="10.00">flutter/method_result</text>
<text text-anchor="middle" x="2112" y="-74.5" font-family="Helvetica,sans-Serif" font-size="10.00">_functions.h</text>
</a>
</g>
</g>
<!-- Node26&#45;&gt;Node28 -->
<g id="edge44" class="edge">
<title>Node26&#45;&gt;Node28</title>
<path fill="none" stroke="midnightblue" d="M1492.08,-146.24C1596.53,-141.37 1833.38,-127.98 2042.31,-97.97"/>
<polygon fill="midnightblue" stroke="midnightblue" points="2042.85,-101.43 2052.24,-96.53 2041.84,-94.5 2042.85,-101.43"/>
</g>
<!-- Node29 -->
<g id="node29" class="node">
<title>Node29</title>
<g id="a_node29"><a xlink:title=" ">
<polygon fill="white" stroke="#bfbfbf" points="1489.5,-67.5 1489.5,-97.5 1660.5,-97.5 1660.5,-67.5 1489.5,-67.5"/>
<text text-anchor="start" x="1497.5" y="-85.5" font-family="Helvetica,sans-Serif" font-size="10.00">flutter/shell/platform</text>
<text text-anchor="middle" x="1575" y="-74.5" font-family="Helvetica,sans-Serif" font-size="10.00">/common/json_method_codec.h</text>
</a>
</g>
</g>
<!-- Node26&#45;&gt;Node29 -->
<g id="edge46" class="edge">
<title>Node26&#45;&gt;Node29</title>
<path fill="none" stroke="midnightblue" d="M1467.73,-134.4C1487.74,-124.9 1514.35,-112.28 1536.05,-101.98"/>
<polygon fill="midnightblue" stroke="midnightblue" points="1537.8,-105.03 1545.33,-97.58 1534.8,-98.7 1537.8,-105.03"/>
</g>
<!-- Node30 -->
<g id="node30" class="node">
<title>Node30</title>
<g id="a_node30"><a xlink:title=" ">
<polygon fill="white" stroke="#bfbfbf" points="1679,-67.5 1679,-97.5 1839,-97.5 1839,-67.5 1679,-67.5"/>
<text text-anchor="start" x="1687" y="-85.5" font-family="Helvetica,sans-Serif" font-size="10.00">flutter/shell/platform</text>
<text text-anchor="middle" x="1759" y="-74.5" font-family="Helvetica,sans-Serif" font-size="10.00">/common/text_input_model.h</text>
</a>
</g>
</g>
<!-- Node26&#45;&gt;Node30 -->
<g id="edge47" class="edge">
<title>Node26&#45;&gt;Node30</title>
<path fill="none" stroke="midnightblue" d="M1492.09,-137.55C1543.52,-127.13 1621.49,-111.35 1679.89,-99.52"/>
<polygon fill="midnightblue" stroke="midnightblue" points="1680.72,-102.92 1689.83,-97.51 1679.33,-96.06 1680.72,-102.92"/>
</g>
<!-- Node31&#45;&gt;Node10 -->
<g id="edge53" class="edge">
<title>Node31&#45;&gt;Node10</title>
<path fill="none" stroke="midnightblue" d="M868.13,-201.41C812.16,-183.6 684.61,-143.56 640,-134 521.63,-108.63 485.47,-134.38 370,-98 368.53,-97.54 367.05,-97 365.57,-96.41"/>
<polygon fill="midnightblue" stroke="midnightblue" points="366.67,-93.06 356.12,-92.02 363.71,-99.41 366.67,-93.06"/>
</g>
<!-- Node31&#45;&gt;Node11 -->
<g id="edge54" class="edge">
<title>Node31&#45;&gt;Node11</title>
<path fill="none" stroke="midnightblue" d="M949.71,-210.66C1128.85,-211.68 1713.09,-205.93 2180,-98 2183.07,-97.29 2186.22,-96.4 2189.34,-95.42"/>
<polygon fill="midnightblue" stroke="midnightblue" points="2190.77,-98.63 2199.06,-92.04 2188.47,-92.02 2190.77,-98.63"/>
</g>
<!-- Node31&#45;&gt;Node23 -->
<g id="edge60" class="edge">
<title>Node31&#45;&gt;Node23</title>
<path fill="none" stroke="midnightblue" d="M904.74,-201.07C920.24,-185.79 947.03,-154.33 929,-134 884.6,-83.93 695.98,-109.19 630,-98 623.39,-96.88 616.45,-95.54 609.65,-94.13"/>
<polygon fill="midnightblue" stroke="midnightblue" points="610.35,-90.7 599.84,-92.03 608.89,-97.54 610.35,-90.7"/>
</g>
<!-- Node32 -->
<g id="node32" class="node">
<title>Node32</title>
<g id="a_node32"><a xlink:href="configuration_8h.html" target="_top" xlink:title=" ">
<polygon fill="white" stroke="black" points="764,-140 764,-159 920,-159 920,-140 764,-140"/>
<text text-anchor="middle" x="842" y="-147" font-family="Helvetica,sans-Serif" font-size="10.00">configuration/configuration.h</text>
</a>
</g>
</g>
<!-- Node31&#45;&gt;Node32 -->
<g id="edge55" class="edge">
<title>Node31&#45;&gt;Node32</title>
<path fill="none" stroke="midnightblue" d="M887.41,-201.48C879.3,-192.37 866.27,-177.74 856.24,-166.48"/>
<polygon fill="midnightblue" stroke="midnightblue" points="858.84,-164.15 849.58,-159.01 853.62,-168.8 858.84,-164.15"/>
</g>
<!-- Node33 -->
<g id="node33" class="node">
<title>Node33</title>
<g id="a_node33"><a xlink:href="window_8h.html" target="_top" xlink:title=" ">
<polygon fill="white" stroke="black" points="2331.5,-140 2331.5,-159 2438.5,-159 2438.5,-140 2331.5,-140"/>
<text text-anchor="middle" x="2385" y="-147" font-family="Helvetica,sans-Serif" font-size="10.00">wayland/window.h</text>
</a>
</g>
</g>
<!-- Node31&#45;&gt;Node33 -->
<g id="edge61" class="edge">
<title>Node31&#45;&gt;Node33</title>
<path fill="none" stroke="midnightblue" d="M949.8,-207.81C1180.64,-198.59 2073.42,-162.94 2321.01,-153.06"/>
<polygon fill="midnightblue" stroke="midnightblue" points="2321.42,-156.54 2331.28,-152.65 2321.14,-149.55 2321.42,-156.54"/>
</g>
<!-- Node32&#45;&gt;Node14 -->
<g id="edge56" class="edge">
<title>Node32&#45;&gt;Node14</title>
<path fill="none" stroke="midnightblue" d="M788.51,-139.94C775.88,-137.95 762.47,-135.87 750,-134 638.12,-117.19 606.42,-130.32 498,-98 496.12,-97.44 494.21,-96.78 492.31,-96.06"/>
<polygon fill="midnightblue" stroke="midnightblue" points="493.63,-92.82 483.06,-92.11 490.87,-99.26 493.63,-92.82"/>
</g>
<!-- Node32&#45;&gt;Node15 -->
<g id="edge57" class="edge">
<title>Node32&#45;&gt;Node15</title>
<path fill="none" stroke="midnightblue" d="M768.83,-139.95C656.26,-126.73 451.81,-102.36 436,-98 433.84,-97.41 431.65,-96.69 429.46,-95.91"/>
<polygon fill="midnightblue" stroke="midnightblue" points="430.71,-92.64 420.12,-92.15 428.09,-99.13 430.71,-92.64"/>
</g>
<!-- Node32&#45;&gt;Node23 -->
<g id="edge58" class="edge">
<title>Node32&#45;&gt;Node23</title>
<path fill="none" stroke="midnightblue" d="M805.37,-139.94C755.26,-128.22 665.33,-107.19 610.52,-94.38"/>
<polygon fill="midnightblue" stroke="midnightblue" points="611.24,-90.95 600.71,-92.08 609.65,-97.77 611.24,-90.95"/>
</g>
<!-- Node32&#45;&gt;Node24 -->
<g id="edge59" class="edge">
<title>Node32&#45;&gt;Node24</title>
<path fill="none" stroke="midnightblue" d="M842,-139.73C842,-130.18 842,-114.62 842,-102.28"/>
<polygon fill="midnightblue" stroke="midnightblue" points="845.5,-102.13 842,-92.13 838.5,-102.13 845.5,-102.13"/>
</g>
<!-- Node33&#45;&gt;Node1 -->
<g id="edge67" class="edge">
<title>Node33&#45;&gt;Node1</title>
<path fill="none" stroke="midnightblue" d="M2383.36,-159.27C2378.38,-183.17 2360.97,-249.49 2317,-277 2249.64,-319.15 1060.58,-338.56 744.59,-342.99"/>
<polygon fill="midnightblue" stroke="midnightblue" points="744.11,-339.5 734.16,-343.14 744.21,-346.5 744.11,-339.5"/>
</g>
<!-- Node33&#45;&gt;Node3 -->
<g id="edge66" class="edge">
<title>Node33&#45;&gt;Node3</title>
<path fill="none" stroke="midnightblue" d="M2373.94,-139.73C2360.66,-129.21 2338.17,-111.38 2322.07,-98.62"/>
<polygon fill="midnightblue" stroke="midnightblue" points="2323.89,-95.6 2313.88,-92.13 2319.55,-101.08 2323.89,-95.6"/>
</g>
<!-- Node33&#45;&gt;Node11 -->
<g id="edge62" class="edge">
<title>Node33&#45;&gt;Node11</title>
<path fill="none" stroke="midnightblue" d="M2362.96,-139.87C2334.1,-128.57 2283.35,-108.7 2250.46,-95.82"/>
<polygon fill="midnightblue" stroke="midnightblue" points="2251.46,-92.45 2240.87,-92.06 2248.91,-98.97 2251.46,-92.45"/>
</g>
<!-- Node33&#45;&gt;Node14 -->
<g id="edge63" class="edge">
<title>Node33&#45;&gt;Node14</title>
<path fill="none" stroke="midnightblue" d="M2331.47,-147.68C2033.49,-143.06 589.49,-119.63 498,-98 495.79,-97.48 493.55,-96.79 491.34,-95.99"/>
<polygon fill="midnightblue" stroke="midnightblue" points="492.57,-92.72 482,-92.03 489.84,-99.16 492.57,-92.72"/>
</g>
<!-- Node34 -->
<g id="node34" class="node">
<title>Node34</title>
<g id="a_node34"><a xlink:title=" ">
<polygon fill="white" stroke="#bfbfbf" points="2521,-73 2521,-92 2573,-92 2573,-73 2521,-73"/>
<text text-anchor="middle" x="2547" y="-80" font-family="Helvetica,sans-Serif" font-size="10.00">cassert</text>
</a>
</g>
</g>
<!-- Node33&#45;&gt;Node34 -->
<g id="edge64" class="edge">
<title>Node33&#45;&gt;Node34</title>
<path fill="none" stroke="midnightblue" d="M2406.41,-139.93C2431.48,-129.9 2474.26,-112.76 2511,-98 2512.63,-97.34 2514.31,-96.67 2516,-95.99"/>
<polygon fill="midnightblue" stroke="midnightblue" points="2517.71,-99.07 2525.68,-92.09 2515.1,-92.58 2517.71,-99.07"/>
</g>
<!-- Node35 -->
<g id="node35" class="node">
<title>Node35</title>
<g id="a_node35"><a xlink:title=" ">
<polygon fill="white" stroke="#bfbfbf" points="2591,-73 2591,-92 2733,-92 2733,-73 2591,-73"/>
<text text-anchor="middle" x="2662" y="-80" font-family="Helvetica,sans-Serif" font-size="10.00">agl&#45;shell&#45;client&#45;protocol.h</text>
</a>
</g>
</g>
<!-- Node33&#45;&gt;Node35 -->
<g id="edge65" class="edge">
<title>Node33&#45;&gt;Node35</title>
<path fill="none" stroke="midnightblue" d="M2421.5,-139.94C2471.42,-128.22 2561.03,-107.19 2615.65,-94.38"/>
<polygon fill="midnightblue" stroke="midnightblue" points="2616.49,-97.78 2625.42,-92.08 2614.89,-90.96 2616.49,-97.78"/>
</g>
<!-- Node36 -->
<g id="node36" class="node">
<title>Node36</title>
<g id="a_node36"><a xlink:title=" ">
<polygon fill="white" stroke="#bfbfbf" points="2357.5,-73 2357.5,-92 2502.5,-92 2502.5,-73 2357.5,-73"/>
<text text-anchor="middle" x="2430" y="-80" font-family="Helvetica,sans-Serif" font-size="10.00">xdg&#45;shell&#45;client&#45;protocol.h</text>
</a>
</g>
</g>
<!-- Node33&#45;&gt;Node36 -->
<g id="edge68" class="edge">
<title>Node33&#45;&gt;Node36</title>
<path fill="none" stroke="midnightblue" d="M2391.07,-139.73C2398.02,-129.7 2409.57,-113.01 2418.29,-100.42"/>
<polygon fill="midnightblue" stroke="midnightblue" points="2421.21,-102.34 2424.03,-92.13 2415.46,-98.36 2421.21,-102.34"/>
</g>
</g>
</svg>
