<?xml version="1.0" encoding="UTF-8" standalone="no"?>
<!DOCTYPE svg PUBLIC "-//W3C//DTD SVG 1.1//EN"
 "http://www.w3.org/Graphics/SVG/1.1/DTD/svg11.dtd">
<!-- Generated by graphviz version 5.0.0 (0)
 -->
<!-- Title: /mnt/raid10/stargate/ivi&#45;homescreen/shell/backend/backend.h Pages: 1 -->
<svg width="2724pt" height="357pt"
 viewBox="0.00 0.00 2723.87 357.00" xmlns="http://www.w3.org/2000/svg" xmlns:xlink="http://www.w3.org/1999/xlink">
<g id="graph0" class="graph" transform="scale(1 1) rotate(0) translate(4 353)">
<title>/mnt/raid10/stargate/ivi&#45;homescreen/shell/backend/backend.h</title>
<!-- Node1 -->
<g id="node1" class="node">
<title>Node1</title>
<g id="a_node1"><a xlink:title=" ">
<polygon fill="#999999" stroke="#666666" points="2184.08,-349 2075.08,-349 2075.08,-308 2184.08,-308 2184.08,-349"/>
<text text-anchor="start" x="2083.08" y="-337" font-family="Helvetica,sans-Serif" font-size="10.00">/mnt/raid10/stargate</text>
<text text-anchor="start" x="2083.08" y="-326" font-family="Helvetica,sans-Serif" font-size="10.00">/ivi&#45;homescreen/shell</text>
<text text-anchor="middle" x="2129.58" y="-315" font-family="Helvetica,sans-Serif" font-size="10.00">/backend/backend.h</text>
</a>
</g>
</g>
<!-- Node2 -->
<g id="node2" class="node">
<title>Node2</title>
<g id="a_node2"><a xlink:title=" ">
<polygon fill="#e0e0e0" stroke="#999999" points="1664.08,-30 1543.08,-30 1543.08,0 1664.08,0 1664.08,-30"/>
<text text-anchor="start" x="1551.08" y="-18" font-family="Helvetica,sans-Serif" font-size="10.00">shell/platform/embedder</text>
<text text-anchor="middle" x="1603.58" y="-7" font-family="Helvetica,sans-Serif" font-size="10.00">/embedder.h</text>
</a>
</g>
</g>
<!-- Node1&#45;&gt;Node2 -->
<g id="edge1" class="edge">
<title>Node1&#45;&gt;Node2</title>
<path fill="none" stroke="#63b8ff" d="M2184.26,-327.87C2329.44,-327.37 2713.58,-315.92 2713.58,-208.5 2713.58,-208.5 2713.58,-208.5 2713.58,-146 2713.58,-109.46 2722.73,-89.31 2694.58,-66 2684.72,-57.84 1914.65,-27.85 1674.37,-18.68"/>
<polygon fill="#63b8ff" stroke="#63b8ff" points="1674.47,-15.18 1664.35,-18.3 1674.21,-22.18 1674.47,-15.18"/>
</g>
<!-- Node3 -->
<g id="node3" class="node">
<title>Node3</title>
<g id="a_node3"><a xlink:href="constants_8h.html" target="_top" xlink:title=" ">
<polygon fill="white" stroke="#666666" points="2072.58,-90.5 2004.58,-90.5 2004.58,-71.5 2072.58,-71.5 2072.58,-90.5"/>
<text text-anchor="middle" x="2038.58" y="-78.5" font-family="Helvetica,sans-Serif" font-size="10.00">constants.h</text>
</a>
</g>
</g>
<!-- Node1&#45;&gt;Node3 -->
<g id="edge2" class="edge">
<title>Node1&#45;&gt;Node3</title>
<path fill="none" stroke="#63b8ff" d="M2122.29,-307.82C2105.07,-261.36 2062.07,-145.38 2045.37,-100.31"/>
<polygon fill="#63b8ff" stroke="#63b8ff" points="2048.56,-98.85 2041.8,-90.69 2042,-101.28 2048.56,-98.85"/>
</g>
<!-- Node6 -->
<g id="node6" class="node">
<title>Node6</title>
<g id="a_node6"><a xlink:href="engine_8h.html" target="_top" xlink:title=" ">
<polygon fill="white" stroke="#666666" points="701.08,-272 648.08,-272 648.08,-253 701.08,-253 701.08,-272"/>
<text text-anchor="middle" x="674.58" y="-260" font-family="Helvetica,sans-Serif" font-size="10.00">engine.h</text>
</a>
</g>
</g>
<!-- Node1&#45;&gt;Node6 -->
<g id="edge6" class="edge">
<title>Node1&#45;&gt;Node6</title>
<path fill="none" stroke="#63b8ff" d="M2074.65,-325.2C1837.9,-315.03 908.48,-274.14 711.39,-265.22"/>
<polygon fill="#63b8ff" stroke="#63b8ff" points="711.42,-261.72 701.27,-264.76 711.1,-268.71 711.42,-261.72"/>
</g>
<!-- Node3&#45;&gt;Node2 -->
<g id="edge4" class="edge">
<title>Node3&#45;&gt;Node2</title>
<path fill="none" stroke="#63b8ff" d="M2012.11,-71.48C2005.16,-69.46 1997.64,-67.47 1990.58,-66 1881.43,-43.17 1752.64,-29.03 1674.6,-21.84"/>
<polygon fill="#63b8ff" stroke="#63b8ff" points="1674.67,-18.33 1664.4,-20.91 1674.04,-25.3 1674.67,-18.33"/>
</g>
<!-- Node4 -->
<g id="node4" class="node">
<title>Node4</title>
<g id="a_node4"><a xlink:title=" ">
<polygon fill="#e0e0e0" stroke="#999999" points="2458.58,-24.5 2398.58,-24.5 2398.58,-5.5 2458.58,-5.5 2458.58,-24.5"/>
<text text-anchor="middle" x="2428.58" y="-12.5" font-family="Helvetica,sans-Serif" font-size="10.00">EGL/egl.h</text>
</a>
</g>
</g>
<!-- Node3&#45;&gt;Node4 -->
<g id="edge3" class="edge">
<title>Node3&#45;&gt;Node4</title>
<path fill="none" stroke="#63b8ff" d="M2062.48,-71.41C2068.65,-69.42 2075.31,-67.46 2081.58,-66 2191.08,-40.49 2323.22,-25.76 2388.32,-19.54"/>
<polygon fill="#63b8ff" stroke="#63b8ff" points="2388.93,-23 2398.56,-18.58 2388.27,-16.03 2388.93,-23"/>
</g>
<!-- Node5 -->
<g id="node5" class="node">
<title>Node5</title>
<g id="a_node5"><a xlink:title=" ">
<polygon fill="#e0e0e0" stroke="#999999" points="2057.58,-24.5 2019.58,-24.5 2019.58,-5.5 2057.58,-5.5 2057.58,-24.5"/>
<text text-anchor="middle" x="2038.58" y="-12.5" font-family="Helvetica,sans-Serif" font-size="10.00">array</text>
</a>
</g>
</g>
<!-- Node3&#45;&gt;Node5 -->
<g id="edge5" class="edge">
<title>Node3&#45;&gt;Node5</title>
<path fill="none" stroke="#63b8ff" d="M2038.58,-71.37C2038.58,-62.16 2038.58,-47.29 2038.58,-35.27"/>
<polygon fill="#63b8ff" stroke="#63b8ff" points="2042.08,-34.91 2038.58,-24.91 2035.08,-34.91 2042.08,-34.91"/>
</g>
<!-- Node6&#45;&gt;Node1 -->
<g id="edge19" class="edge">
<title>Node6&#45;&gt;Node1</title>
<path fill="none" stroke="#63b8ff" d="M701.3,-264.59C871.86,-271.83 1808.23,-313 2064.67,-324.51"/>
<polygon fill="#63b8ff" stroke="#63b8ff" points="2064.79,-328.02 2074.94,-324.97 2065.11,-321.03 2064.79,-328.02"/>
</g>
<!-- Node6&#45;&gt;Node2 -->
<g id="edge11" class="edge">
<title>Node6&#45;&gt;Node2</title>
<path fill="none" stroke="#63b8ff" d="M701.22,-261.6C822.17,-261.49 1331.19,-255.26 1734.58,-162 1835.29,-138.72 1895.73,-178.81 1957.58,-96 1965.56,-85.32 1966.33,-76.07 1957.58,-66 1921.68,-24.67 1767.2,-16.56 1674.58,-15.51"/>
<polygon fill="#63b8ff" stroke="#63b8ff" points="1674.47,-12.01 1664.44,-15.42 1674.4,-19.01 1674.47,-12.01"/>
</g>
<!-- Node6&#45;&gt;Node3 -->
<g id="edge20" class="edge">
<title>Node6&#45;&gt;Node3</title>
<path fill="none" stroke="#63b8ff" d="M701.16,-261.44C882.9,-260.96 1936.64,-256.45 1990.58,-217 2027.97,-189.66 2036.36,-130.66 2038.16,-100.53"/>
<polygon fill="#63b8ff" stroke="#63b8ff" points="2041.66,-100.66 2038.57,-90.52 2034.67,-100.37 2041.66,-100.66"/>
</g>
<!-- Node6&#45;&gt;Node4 -->
<g id="edge8" class="edge">
<title>Node6&#45;&gt;Node4</title>
<path fill="none" stroke="#63b8ff" d="M701.14,-261.54C929.75,-261.61 2560.11,-256.47 2694.58,-96 2756.79,-21.77 2557.68,-14.77 2468.98,-15.2"/>
<polygon fill="#63b8ff" stroke="#63b8ff" points="2468.7,-11.7 2458.73,-15.29 2468.76,-18.7 2468.7,-11.7"/>
</g>
<!-- Node7 -->
<g id="node7" class="node">
<title>Node7</title>
<g id="a_node7"><a xlink:title=" ">
<polygon fill="#e0e0e0" stroke="#999999" points="148.08,-217 89.08,-217 89.08,-198 148.08,-198 148.08,-217"/>
<text text-anchor="middle" x="118.58" y="-205" font-family="Helvetica,sans-Serif" font-size="10.00">functional</text>
</a>
</g>
</g>
<!-- Node6&#45;&gt;Node7 -->
<g id="edge7" class="edge">
<title>Node6&#45;&gt;Node7</title>
<path fill="none" stroke="#63b8ff" d="M648.08,-260.42C572.92,-257.12 351.92,-245.65 158.39,-216.91"/>
<polygon fill="#63b8ff" stroke="#63b8ff" points="158.73,-213.42 148.32,-215.39 157.69,-220.34 158.73,-213.42"/>
</g>
<!-- Node8 -->
<g id="node8" class="node">
<title>Node8</title>
<g id="a_node8"><a xlink:title=" ">
<polygon fill="#e0e0e0" stroke="#999999" points="238.58,-217 166.58,-217 166.58,-198 238.58,-198 238.58,-217"/>
<text text-anchor="middle" x="202.58" y="-205" font-family="Helvetica,sans-Serif" font-size="10.00">GLES2/gl2.h</text>
</a>
</g>
</g>
<!-- Node6&#45;&gt;Node8 -->
<g id="edge9" class="edge">
<title>Node6&#45;&gt;Node8</title>
<path fill="none" stroke="#63b8ff" d="M648,-259.5C582.19,-254.39 406.18,-239.71 249.2,-217.12"/>
<polygon fill="#63b8ff" stroke="#63b8ff" points="249.29,-213.6 238.89,-215.63 248.28,-220.53 249.29,-213.6"/>
</g>
<!-- Node9 -->
<g id="node9" class="node">
<title>Node9</title>
<g id="a_node9"><a xlink:title=" ">
<polygon fill="#e0e0e0" stroke="#999999" points="382.08,-217 257.08,-217 257.08,-198 382.08,-198 382.08,-217"/>
<text text-anchor="middle" x="319.58" y="-205" font-family="Helvetica,sans-Serif" font-size="10.00">flutter/encodable_value.h</text>
</a>
</g>
</g>
<!-- Node6&#45;&gt;Node9 -->
<g id="edge10" class="edge">
<title>Node6&#45;&gt;Node9</title>
<path fill="none" stroke="#63b8ff" d="M647.9,-257.52C593.04,-249.33 466.12,-230.38 387.13,-218.58"/>
<polygon fill="#63b8ff" stroke="#63b8ff" points="387.19,-215.06 376.79,-217.04 386.16,-221.98 387.19,-215.06"/>
</g>
<!-- Node10 -->
<g id="node10" class="node">
<title>Node10</title>
<g id="a_node10"><a xlink:title=" ">
<polygon fill="#e0e0e0" stroke="#999999" points="462.58,-217 400.58,-217 400.58,-198 462.58,-198 462.58,-217"/>
<text text-anchor="middle" x="431.58" y="-205" font-family="Helvetica,sans-Serif" font-size="10.00">filesystem</text>
</a>
</g>
</g>
<!-- Node6&#45;&gt;Node10 -->
<g id="edge12" class="edge">
<title>Node6&#45;&gt;Node10</title>
<path fill="none" stroke="#63b8ff" d="M647.65,-255.63C605.22,-246.37 522.53,-228.34 472.66,-217.46"/>
<polygon fill="#63b8ff" stroke="#63b8ff" points="473.36,-214.03 462.84,-215.32 471.87,-220.87 473.36,-214.03"/>
</g>
<!-- Node11 -->
<g id="node11" class="node">
<title>Node11</title>
<g id="a_node11"><a xlink:title=" ">
<polygon fill="#e0e0e0" stroke="#999999" points="278.08,-90.5 243.08,-90.5 243.08,-71.5 278.08,-71.5 278.08,-90.5"/>
<text text-anchor="middle" x="260.58" y="-78.5" font-family="Helvetica,sans-Serif" font-size="10.00">map</text>
</a>
</g>
</g>
<!-- Node6&#45;&gt;Node11 -->
<g id="edge13" class="edge">
<title>Node6&#45;&gt;Node11</title>
<path fill="none" stroke="#63b8ff" d="M647.76,-261.8C545.94,-262.59 183.81,-262.09 79.58,-217 46.38,-202.64 34.15,-195.11 19.58,-162 14.21,-149.8 11.05,-142.24 19.58,-132 47.93,-97.98 172.59,-106.6 215.58,-96 221.24,-94.61 227.24,-92.9 232.94,-91.17"/>
<polygon fill="#63b8ff" stroke="#63b8ff" points="234.27,-94.42 242.77,-88.08 232.18,-87.74 234.27,-94.42"/>
</g>
<!-- Node12 -->
<g id="node12" class="node">
<title>Node12</title>
<g id="a_node12"><a xlink:title=" ">
<polygon fill="#e0e0e0" stroke="#999999" points="1948.58,-90.5 1896.58,-90.5 1896.58,-71.5 1948.58,-71.5 1948.58,-90.5"/>
<text text-anchor="middle" x="1922.58" y="-78.5" font-family="Helvetica,sans-Serif" font-size="10.00">memory</text>
</a>
</g>
</g>
<!-- Node6&#45;&gt;Node12 -->
<g id="edge14" class="edge">
<title>Node6&#45;&gt;Node12</title>
<path fill="none" stroke="#63b8ff" d="M701.23,-261.01C816.93,-258.44 1286.66,-243.26 1661.58,-162 1763.43,-139.93 1787.93,-129.58 1886.58,-96 1888.24,-95.44 1889.94,-94.84 1891.64,-94.23"/>
<polygon fill="#63b8ff" stroke="#63b8ff" points="1893.23,-97.37 1901.37,-90.6 1890.78,-90.81 1893.23,-97.37"/>
</g>
<!-- Node13 -->
<g id="node13" class="node">
<title>Node13</title>
<g id="a_node13"><a xlink:title=" ">
<polygon fill="#e0e0e0" stroke="#999999" points="600.58,-217 556.58,-217 556.58,-198 600.58,-198 600.58,-217"/>
<text text-anchor="middle" x="578.58" y="-205" font-family="Helvetica,sans-Serif" font-size="10.00">mutex</text>
</a>
</g>
</g>
<!-- Node6&#45;&gt;Node13 -->
<g id="edge15" class="edge">
<title>Node6&#45;&gt;Node13</title>
<path fill="none" stroke="#63b8ff" d="M659.16,-252.98C644.13,-244.69 621.04,-231.94 603.43,-222.22"/>
<polygon fill="#63b8ff" stroke="#63b8ff" points="604.73,-218.94 594.29,-217.17 601.35,-225.07 604.73,-218.94"/>
</g>
<!-- Node14 -->
<g id="node14" class="node">
<title>Node14</title>
<g id="a_node14"><a xlink:title=" ">
<polygon fill="#e0e0e0" stroke="#999999" points="662.08,-217 619.08,-217 619.08,-198 662.08,-198 662.08,-217"/>
<text text-anchor="middle" x="640.58" y="-205" font-family="Helvetica,sans-Serif" font-size="10.00">queue</text>
</a>
</g>
</g>
<!-- Node6&#45;&gt;Node14 -->
<g id="edge16" class="edge">
<title>Node6&#45;&gt;Node14</title>
<path fill="none" stroke="#63b8ff" d="M668.97,-252.75C664.26,-245.42 657.41,-234.73 651.61,-225.7"/>
<polygon fill="#63b8ff" stroke="#63b8ff" points="654.44,-223.62 646.09,-217.09 648.55,-227.4 654.44,-223.62"/>
</g>
<!-- Node15 -->
<g id="node15" class="node">
<title>Node15</title>
<g id="a_node15"><a xlink:title=" ">
<polygon fill="#e0e0e0" stroke="#999999" points="337.08,-90.5 296.08,-90.5 296.08,-71.5 337.08,-71.5 337.08,-90.5"/>
<text text-anchor="middle" x="316.58" y="-78.5" font-family="Helvetica,sans-Serif" font-size="10.00">string</text>
</a>
</g>
</g>
<!-- Node6&#45;&gt;Node15 -->
<g id="edge17" class="edge">
<title>Node6&#45;&gt;Node15</title>
<path fill="none" stroke="#63b8ff" d="M648.01,-253.1C622.1,-244.7 581.72,-231.04 547.58,-217 529.38,-209.51 526.52,-203.36 507.58,-198 436.18,-177.8 225.15,-217.23 175.58,-162 166.68,-152.08 167.74,-142.78 175.58,-132 206.08,-90.05 238.33,-115 286.58,-96 287.63,-95.59 288.68,-95.16 289.75,-94.72"/>
<polygon fill="#63b8ff" stroke="#63b8ff" points="291.55,-97.75 299.29,-90.51 288.73,-91.34 291.55,-97.75"/>
</g>
<!-- Node16 -->
<g id="node16" class="node">
<title>Node16</title>
<g id="a_node16"><a xlink:title=" ">
<polygon fill="#e0e0e0" stroke="#999999" points="206.58,-90.5 162.58,-90.5 162.58,-71.5 206.58,-71.5 206.58,-90.5"/>
<text text-anchor="middle" x="184.58" y="-78.5" font-family="Helvetica,sans-Serif" font-size="10.00">vector</text>
</a>
</g>
</g>
<!-- Node6&#45;&gt;Node16 -->
<g id="edge18" class="edge">
<title>Node6&#45;&gt;Node16</title>
<path fill="none" stroke="#63b8ff" d="M647.95,-261.1C534.3,-259.21 93.43,-249.79 41.58,-217 7.6,-195.51 -13.61,-164.12 10.58,-132 27.64,-109.35 107.1,-93.79 152.52,-86.58"/>
<polygon fill="#63b8ff" stroke="#63b8ff" points="153.11,-90.03 162.47,-85.04 152.05,-83.11 153.11,-90.03"/>
</g>
<!-- Node17 -->
<g id="node17" class="node">
<title>Node17</title>
<g id="a_node17"><a xlink:href="logging_8h.html" target="_top" xlink:title=" ">
<polygon fill="white" stroke="#666666" points="736.58,-217 680.58,-217 680.58,-198 736.58,-198 736.58,-217"/>
<text text-anchor="middle" x="708.58" y="-205" font-family="Helvetica,sans-Serif" font-size="10.00">logging.h</text>
</a>
</g>
</g>
<!-- Node6&#45;&gt;Node17 -->
<g id="edge21" class="edge">
<title>Node6&#45;&gt;Node17</title>
<path fill="none" stroke="#63b8ff" d="M680.2,-252.75C684.9,-245.42 691.76,-234.73 697.55,-225.7"/>
<polygon fill="#63b8ff" stroke="#63b8ff" points="700.62,-227.4 703.07,-217.09 694.73,-223.62 700.62,-227.4"/>
</g>
<!-- Node25 -->
<g id="node25" class="node">
<title>Node25</title>
<g id="a_node25"><a xlink:href="platform__channel_8h.html" target="_top" xlink:title=" ">
<polygon fill="white" stroke="#666666" points="128.08,-156.5 29.08,-156.5 29.08,-137.5 128.08,-137.5 128.08,-156.5"/>
<text text-anchor="middle" x="78.58" y="-144.5" font-family="Helvetica,sans-Serif" font-size="10.00">platform_channel.h</text>
</a>
</g>
</g>
<!-- Node6&#45;&gt;Node25 -->
<g id="edge30" class="edge">
<title>Node6&#45;&gt;Node25</title>
<path fill="none" stroke="#63b8ff" d="M647.89,-255.33C615.82,-247.64 560.6,-233.47 514.58,-217 494.91,-209.96 491.76,-203.42 471.58,-198 329.53,-159.83 287.75,-185.75 142.58,-162 136.69,-161.04 130.51,-159.88 124.43,-158.65"/>
<polygon fill="#63b8ff" stroke="#63b8ff" points="124.84,-155.16 114.33,-156.52 123.4,-162.01 124.84,-155.16"/>
</g>
<!-- Node26 -->
<g id="node26" class="node">
<title>Node26</title>
<g id="a_node26"><a xlink:href="key__event_8h.html" target="_top" xlink:title=" ">
<polygon fill="white" stroke="#666666" points="1261.58,-162 1159.58,-162 1159.58,-132 1261.58,-132 1261.58,-162"/>
<text text-anchor="start" x="1167.58" y="-150" font-family="Helvetica,sans-Serif" font-size="10.00">static_plugins/key</text>
<text text-anchor="middle" x="1210.58" y="-139" font-family="Helvetica,sans-Serif" font-size="10.00">_event/key_event.h</text>
</a>
</g>
</g>
<!-- Node6&#45;&gt;Node26 -->
<g id="edge34" class="edge">
<title>Node6&#45;&gt;Node26</title>
<path fill="none" stroke="#63b8ff" d="M701.14,-256.12C772,-241.73 971.63,-200.94 1149.55,-161.98"/>
<polygon fill="#63b8ff" stroke="#63b8ff" points="1150.33,-165.4 1159.34,-159.83 1148.83,-158.56 1150.33,-165.4"/>
</g>
<!-- Node33 -->
<g id="node33" class="node">
<title>Node33</title>
<g id="a_node33"><a xlink:href="text__input_8h.html" target="_top" xlink:title=" ">
<polygon fill="white" stroke="#666666" points="1415.08,-162 1318.08,-162 1318.08,-132 1415.08,-132 1415.08,-162"/>
<text text-anchor="start" x="1326.08" y="-150" font-family="Helvetica,sans-Serif" font-size="10.00">static_plugins/text</text>
<text text-anchor="middle" x="1366.58" y="-139" font-family="Helvetica,sans-Serif" font-size="10.00">_input/text_input.h</text>
</a>
</g>
</g>
<!-- Node6&#45;&gt;Node33 -->
<g id="edge46" class="edge">
<title>Node6&#45;&gt;Node33</title>
<path fill="none" stroke="#63b8ff" d="M701.39,-260.85C799.11,-258.25 1135.89,-247.26 1238.58,-217 1275.25,-206.2 1313.32,-184.04 1338.3,-167.73"/>
<polygon fill="#63b8ff" stroke="#63b8ff" points="1340.5,-170.47 1346.89,-162.02 1336.62,-164.64 1340.5,-170.47"/>
</g>
<!-- Node38 -->
<g id="node38" class="node">
<title>Node38</title>
<g id="a_node38"><a xlink:href="flutter__view_8h.html" target="_top" xlink:title=" ">
<polygon fill="white" stroke="#666666" points="1229.58,-217 1131.58,-217 1131.58,-198 1229.58,-198 1229.58,-217"/>
<text text-anchor="middle" x="1180.58" y="-205" font-family="Helvetica,sans-Serif" font-size="10.00">view/flutter_view.h</text>
</a>
</g>
</g>
<!-- Node6&#45;&gt;Node38 -->
<g id="edge60" class="edge">
<title>Node6&#45;&gt;Node38</title>
<path fill="none" stroke="#63b8ff" d="M701.43,-258.69C780.01,-250.46 1010.89,-226.27 1120.94,-214.75"/>
<polygon fill="#63b8ff" stroke="#63b8ff" points="1121.62,-218.2 1131.2,-213.67 1120.89,-211.23 1121.62,-218.2"/>
</g>
<!-- Node17&#45;&gt;Node3 -->
<g id="edge29" class="edge">
<title>Node17&#45;&gt;Node3</title>
<path fill="none" stroke="#63b8ff" d="M736.9,-205.36C833.23,-201.34 1157.02,-186.75 1423.58,-162 1661.7,-139.9 1721.02,-131.04 1957.58,-96 1969.48,-94.24 1982.33,-92.12 1994.21,-90.07"/>
<polygon fill="#63b8ff" stroke="#63b8ff" points="1995.1,-93.46 2004.35,-88.29 1993.9,-86.57 1995.1,-93.46"/>
</g>
<!-- Node18 -->
<g id="node18" class="node">
<title>Node18</title>
<g id="a_node18"><a xlink:title=" ">
<polygon fill="#e0e0e0" stroke="#999999" points="459.58,-156.5 407.58,-156.5 407.58,-137.5 459.58,-137.5 459.58,-156.5"/>
<text text-anchor="middle" x="433.58" y="-144.5" font-family="Helvetica,sans-Serif" font-size="10.00">sstream</text>
</a>
</g>
</g>
<!-- Node17&#45;&gt;Node18 -->
<g id="edge22" class="edge">
<title>Node17&#45;&gt;Node18</title>
<path fill="none" stroke="#63b8ff" d="M680.39,-200.05C677.09,-199.34 673.76,-198.64 670.58,-198 581.18,-180.04 556.26,-187.06 468.58,-162 466.65,-161.45 464.67,-160.82 462.7,-160.16"/>
<polygon fill="#63b8ff" stroke="#63b8ff" points="463.55,-156.74 452.96,-156.57 461.13,-163.31 463.55,-156.74"/>
</g>
<!-- Node19 -->
<g id="node19" class="node">
<title>Node19</title>
<g id="a_node19"><a xlink:title=" ">
<polygon fill="#e0e0e0" stroke="#999999" points="565.58,-156.5 477.58,-156.5 477.58,-137.5 565.58,-137.5 565.58,-156.5"/>
<text text-anchor="middle" x="521.58" y="-144.5" font-family="Helvetica,sans-Serif" font-size="10.00">spdlog/cfg/env.h</text>
</a>
</g>
</g>
<!-- Node17&#45;&gt;Node19 -->
<g id="edge23" class="edge">
<title>Node17&#45;&gt;Node19</title>
<path fill="none" stroke="#63b8ff" d="M681.39,-197.99C648.98,-187.86 594.68,-170.87 558.5,-159.55"/>
<polygon fill="#63b8ff" stroke="#63b8ff" points="559.4,-156.16 548.81,-156.52 557.31,-162.84 559.4,-156.16"/>
</g>
<!-- Node20 -->
<g id="node20" class="node">
<title>Node20</title>
<g id="a_node20"><a xlink:title=" ">
<polygon fill="#e0e0e0" stroke="#999999" points="693.58,-162 583.58,-162 583.58,-132 693.58,-132 693.58,-162"/>
<text text-anchor="start" x="591.58" y="-150" font-family="Helvetica,sans-Serif" font-size="10.00">spdlog/sinks/callback</text>
<text text-anchor="middle" x="638.58" y="-139" font-family="Helvetica,sans-Serif" font-size="10.00">_sink.h</text>
</a>
</g>
</g>
<!-- Node17&#45;&gt;Node20 -->
<g id="edge24" class="edge">
<title>Node17&#45;&gt;Node20</title>
<path fill="none" stroke="#63b8ff" d="M698.25,-197.87C689.11,-190.22 675.39,-178.76 663.41,-168.75"/>
<polygon fill="#63b8ff" stroke="#63b8ff" points="665.39,-165.84 655.47,-162.11 660.9,-171.21 665.39,-165.84"/>
</g>
<!-- Node21 -->
<g id="node21" class="node">
<title>Node21</title>
<g id="a_node21"><a xlink:title=" ">
<polygon fill="#e0e0e0" stroke="#999999" points="825.58,-162 711.58,-162 711.58,-132 825.58,-132 825.58,-162"/>
<text text-anchor="start" x="719.58" y="-150" font-family="Helvetica,sans-Serif" font-size="10.00">spdlog/sinks/ringbuffer</text>
<text text-anchor="middle" x="768.58" y="-139" font-family="Helvetica,sans-Serif" font-size="10.00">_sink.h</text>
</a>
</g>
</g>
<!-- Node17&#45;&gt;Node21 -->
<g id="edge25" class="edge">
<title>Node17&#45;&gt;Node21</title>
<path fill="none" stroke="#63b8ff" d="M717.44,-197.87C725.12,-190.37 736.58,-179.2 746.71,-169.33"/>
<polygon fill="#63b8ff" stroke="#63b8ff" points="749.39,-171.6 754.11,-162.11 744.5,-166.59 749.39,-171.6"/>
</g>
<!-- Node22 -->
<g id="node22" class="node">
<title>Node22</title>
<g id="a_node22"><a xlink:title=" ">
<polygon fill="#e0e0e0" stroke="#999999" points="945.08,-162 844.08,-162 844.08,-132 945.08,-132 945.08,-162"/>
<text text-anchor="start" x="852.08" y="-150" font-family="Helvetica,sans-Serif" font-size="10.00">spdlog/sinks/stdout</text>
<text text-anchor="middle" x="894.58" y="-139" font-family="Helvetica,sans-Serif" font-size="10.00">_color_sinks.h</text>
</a>
</g>
</g>
<!-- Node17&#45;&gt;Node22 -->
<g id="edge26" class="edge">
<title>Node17&#45;&gt;Node22</title>
<path fill="none" stroke="#63b8ff" d="M735.63,-197.99C762.86,-189.43 805.65,-175.97 839.97,-165.18"/>
<polygon fill="#63b8ff" stroke="#63b8ff" points="841.38,-168.4 849.87,-162.06 839.28,-161.73 841.38,-168.4"/>
</g>
<!-- Node23 -->
<g id="node23" class="node">
<title>Node23</title>
<g id="a_node23"><a xlink:title=" ">
<polygon fill="#e0e0e0" stroke="#999999" points="286.08,-162 185.08,-162 185.08,-132 286.08,-132 286.08,-162"/>
<text text-anchor="start" x="193.08" y="-150" font-family="Helvetica,sans-Serif" font-size="10.00">spdlog/sinks/stdout</text>
<text text-anchor="middle" x="235.58" y="-139" font-family="Helvetica,sans-Serif" font-size="10.00">_sinks.h</text>
</a>
</g>
</g>
<!-- Node17&#45;&gt;Node23 -->
<g id="edge27" class="edge">
<title>Node17&#45;&gt;Node23</title>
<path fill="none" stroke="#63b8ff" d="M680.44,-199.79C677.13,-199.13 673.79,-198.51 670.58,-198 508.03,-172.14 461.99,-188.76 296.38,-162.15"/>
<polygon fill="#63b8ff" stroke="#63b8ff" points="296.78,-158.67 286.34,-160.51 295.65,-165.58 296.78,-158.67"/>
</g>
<!-- Node24 -->
<g id="node24" class="node">
<title>Node24</title>
<g id="a_node24"><a xlink:title=" ">
<polygon fill="#e0e0e0" stroke="#999999" points="389.08,-156.5 304.08,-156.5 304.08,-137.5 389.08,-137.5 389.08,-156.5"/>
<text text-anchor="middle" x="346.58" y="-144.5" font-family="Helvetica,sans-Serif" font-size="10.00">spdlog/spdlog.h</text>
</a>
</g>
</g>
<!-- Node17&#45;&gt;Node24 -->
<g id="edge28" class="edge">
<title>Node17&#45;&gt;Node24</title>
<path fill="none" stroke="#63b8ff" d="M680.42,-199.91C677.11,-199.22 673.78,-198.57 670.58,-198 550.52,-176.67 518.16,-185.9 398.58,-162 394.35,-161.15 389.96,-160.16 385.6,-159.1"/>
<polygon fill="#63b8ff" stroke="#63b8ff" points="386.13,-155.62 375.58,-156.53 384.39,-162.4 386.13,-155.62"/>
</g>
<!-- Node25&#45;&gt;Node2 -->
<g id="edge33" class="edge">
<title>Node25&#45;&gt;Node2</title>
<path fill="none" stroke="#63b8ff" d="M83.41,-137.42C93.69,-120.12 119.6,-81.42 153.58,-66 216.92,-37.26 1250.55,-20.89 1532.84,-16.94"/>
<polygon fill="#63b8ff" stroke="#63b8ff" points="1533,-20.44 1542.95,-16.8 1532.91,-13.44 1533,-20.44"/>
</g>
<!-- Node25&#45;&gt;Node11 -->
<g id="edge31" class="edge">
<title>Node25&#45;&gt;Node11</title>
<path fill="none" stroke="#63b8ff" d="M103.13,-137.37C137.04,-125.44 198.02,-104 233.32,-91.59"/>
<polygon fill="#63b8ff" stroke="#63b8ff" points="234.69,-94.81 242.97,-88.19 232.37,-88.21 234.69,-94.81"/>
</g>
<!-- Node25&#45;&gt;Node15 -->
<g id="edge32" class="edge">
<title>Node25&#45;&gt;Node15</title>
<path fill="none" stroke="#63b8ff" d="M115.76,-137.49C171.15,-124.75 270.54,-101.61 286.58,-96 287.8,-95.57 289.04,-95.11 290.28,-94.63"/>
<polygon fill="#63b8ff" stroke="#63b8ff" points="291.88,-97.75 299.7,-90.6 289.12,-91.32 291.88,-97.75"/>
</g>
<!-- Node26&#45;&gt;Node2 -->
<g id="edge43" class="edge">
<title>Node26&#45;&gt;Node2</title>
<path fill="none" stroke="#63b8ff" d="M1159.45,-133.57C1156.12,-132.97 1152.81,-132.44 1149.58,-132 1107.43,-126.22 413.95,-126.78 384.58,-96 375.38,-86.35 375.35,-75.62 384.58,-66 424.5,-24.41 1278.31,-17.4 1532.68,-16.23"/>
<polygon fill="#63b8ff" stroke="#63b8ff" points="1532.93,-19.73 1542.91,-16.18 1532.9,-12.73 1532.93,-19.73"/>
</g>
<!-- Node26&#45;&gt;Node3 -->
<g id="edge45" class="edge">
<title>Node26&#45;&gt;Node3</title>
<path fill="none" stroke="#63b8ff" d="M1261.6,-137.86C1276.69,-135.68 1293.28,-133.52 1308.58,-132 1596.07,-103.55 1670.55,-128.66 1957.58,-96 1969.54,-94.64 1982.4,-92.66 1994.28,-90.61"/>
<polygon fill="#63b8ff" stroke="#63b8ff" points="1995.19,-94 2004.42,-88.81 1993.96,-87.11 1995.19,-94"/>
</g>
<!-- Node26&#45;&gt;Node11 -->
<g id="edge35" class="edge">
<title>Node26&#45;&gt;Node11</title>
<path fill="none" stroke="#63b8ff" d="M1159.45,-133.55C1156.12,-132.96 1152.81,-132.43 1149.58,-132 959.35,-106.42 471.68,-146.79 286.58,-96 285.5,-95.7 284.4,-95.35 283.31,-94.96"/>
<polygon fill="#63b8ff" stroke="#63b8ff" points="284.41,-91.61 273.86,-90.63 281.49,-97.98 284.41,-91.61"/>
</g>
<!-- Node26&#45;&gt;Node12 -->
<g id="edge36" class="edge">
<title>Node26&#45;&gt;Node12</title>
<path fill="none" stroke="#63b8ff" d="M1261.6,-137.93C1276.7,-135.75 1293.28,-133.57 1308.58,-132 1564.63,-105.78 1635.21,-151.3 1886.58,-96 1889.1,-95.45 1891.68,-94.74 1894.24,-93.94"/>
<polygon fill="#63b8ff" stroke="#63b8ff" points="1895.61,-97.17 1903.87,-90.54 1893.27,-90.57 1895.61,-97.17"/>
</g>
<!-- Node26&#45;&gt;Node15 -->
<g id="edge37" class="edge">
<title>Node26&#45;&gt;Node15</title>
<path fill="none" stroke="#63b8ff" d="M1159.45,-133.56C1156.12,-132.97 1152.81,-132.44 1149.58,-132 797.8,-84.1 698.6,-170.98 351.58,-96 349.21,-95.49 346.79,-94.83 344.38,-94.08"/>
<polygon fill="#63b8ff" stroke="#63b8ff" points="345.34,-90.7 334.75,-90.6 342.97,-97.29 345.34,-90.7"/>
</g>
<!-- Node27 -->
<g id="node27" class="node">
<title>Node27</title>
<g id="a_node27"><a xlink:title=" ">
<polygon fill="#e0e0e0" stroke="#999999" points="817.08,-96 704.08,-96 704.08,-66 817.08,-66 817.08,-96"/>
<text text-anchor="start" x="712.08" y="-84" font-family="Helvetica,sans-Serif" font-size="10.00">flutter/basic_message</text>
<text text-anchor="middle" x="760.58" y="-73" font-family="Helvetica,sans-Serif" font-size="10.00">_channel.h</text>
</a>
</g>
</g>
<!-- Node26&#45;&gt;Node27 -->
<g id="edge38" class="edge">
<title>Node26&#45;&gt;Node27</title>
<path fill="none" stroke="#63b8ff" d="M1159.41,-133.81C1156.09,-133.16 1152.8,-132.55 1149.58,-132 1009.95,-108.3 970.35,-118.78 827.27,-96.17"/>
<polygon fill="#63b8ff" stroke="#63b8ff" points="827.67,-92.69 817.24,-94.56 826.56,-99.6 827.67,-92.69"/>
</g>
<!-- Node28 -->
<g id="node28" class="node">
<title>Node28</title>
<g id="a_node28"><a xlink:title=" ">
<polygon fill="#e0e0e0" stroke="#999999" points="1238.58,-90.5 1106.58,-90.5 1106.58,-71.5 1238.58,-71.5 1238.58,-90.5"/>
<text text-anchor="middle" x="1172.58" y="-78.5" font-family="Helvetica,sans-Serif" font-size="10.00">flutter/binary_messenger.h</text>
</a>
</g>
</g>
<!-- Node26&#45;&gt;Node28 -->
<g id="edge39" class="edge">
<title>Node26&#45;&gt;Node28</title>
<path fill="none" stroke="#63b8ff" d="M1202.15,-131.8C1196.52,-122.31 1189.06,-109.76 1183.05,-99.63"/>
<polygon fill="#63b8ff" stroke="#63b8ff" points="1185.95,-97.66 1177.83,-90.84 1179.93,-101.23 1185.95,-97.66"/>
</g>
<!-- Node29 -->
<g id="node29" class="node">
<title>Node29</title>
<g id="a_node29"><a xlink:title=" ">
<polygon fill="#e0e0e0" stroke="#999999" points="557.08,-96 394.08,-96 394.08,-66 557.08,-66 557.08,-96"/>
<text text-anchor="start" x="402.08" y="-84" font-family="Helvetica,sans-Serif" font-size="10.00">flutter/shell/platform</text>
<text text-anchor="middle" x="475.58" y="-73" font-family="Helvetica,sans-Serif" font-size="10.00">/common/json_message_codec.h</text>
</a>
</g>
</g>
<!-- Node26&#45;&gt;Node29 -->
<g id="edge40" class="edge">
<title>Node26&#45;&gt;Node29</title>
<path fill="none" stroke="#63b8ff" d="M1159.44,-133.62C1156.12,-133.02 1152.81,-132.47 1149.58,-132 895.91,-95.31 826.45,-123.04 567.47,-96.01"/>
<polygon fill="#63b8ff" stroke="#63b8ff" points="567.7,-92.52 557.39,-94.94 566.96,-99.48 567.7,-92.52"/>
</g>
<!-- Node30 -->
<g id="node30" class="node">
<title>Node30</title>
<g id="a_node30"><a xlink:title=" ">
<polygon fill="#e0e0e0" stroke="#999999" points="936.08,-90.5 835.08,-90.5 835.08,-71.5 936.08,-71.5 936.08,-90.5"/>
<text text-anchor="middle" x="885.58" y="-78.5" font-family="Helvetica,sans-Serif" font-size="10.00">flutter/fml/macros.h</text>
</a>
</g>
</g>
<!-- Node26&#45;&gt;Node30 -->
<g id="edge41" class="edge">
<title>Node26&#45;&gt;Node30</title>
<path fill="none" stroke="#63b8ff" d="M1159.37,-134.05C1156.06,-133.34 1152.78,-132.65 1149.58,-132 1059.35,-113.7 1035.78,-114.47 945.58,-96 940.79,-95.02 935.8,-93.94 930.83,-92.83"/>
<polygon fill="#63b8ff" stroke="#63b8ff" points="931.26,-89.34 920.73,-90.54 929.7,-96.17 931.26,-89.34"/>
</g>
<!-- Node31 -->
<g id="node31" class="node">
<title>Node31</title>
<g id="a_node31"><a xlink:title=" ">
<polygon fill="#e0e0e0" stroke="#999999" points="685.58,-90.5 575.58,-90.5 575.58,-71.5 685.58,-71.5 685.58,-90.5"/>
<text text-anchor="middle" x="630.58" y="-78.5" font-family="Helvetica,sans-Serif" font-size="10.00">rapidjson/document.h</text>
</a>
</g>
</g>
<!-- Node26&#45;&gt;Node31 -->
<g id="edge42" class="edge">
<title>Node26&#45;&gt;Node31</title>
<path fill="none" stroke="#63b8ff" d="M1159.43,-133.69C1156.11,-133.07 1152.8,-132.49 1149.58,-132 949.08,-101.23 895.24,-125.74 694.58,-96 688.38,-95.08 681.88,-93.91 675.5,-92.63"/>
<polygon fill="#63b8ff" stroke="#63b8ff" points="676.14,-89.19 665.63,-90.57 674.71,-96.04 676.14,-89.19"/>
</g>
<!-- Node32 -->
<g id="node32" class="node">
<title>Node32</title>
<g id="a_node32"><a xlink:title=" ">
<polygon fill="#e0e0e0" stroke="#999999" points="1088.58,-90.5 954.58,-90.5 954.58,-71.5 1088.58,-71.5 1088.58,-90.5"/>
<text text-anchor="middle" x="1021.58" y="-78.5" font-family="Helvetica,sans-Serif" font-size="10.00">xkbcommon/xkbcommon.h</text>
</a>
</g>
</g>
<!-- Node26&#45;&gt;Node32 -->
<g id="edge44" class="edge">
<title>Node26&#45;&gt;Node32</title>
<path fill="none" stroke="#63b8ff" d="M1169.11,-131.95C1135.38,-120.53 1088.32,-104.6 1056.5,-93.82"/>
<polygon fill="#63b8ff" stroke="#63b8ff" points="1057.33,-90.41 1046.74,-90.52 1055.08,-97.04 1057.33,-90.41"/>
</g>
<!-- Node33&#45;&gt;Node2 -->
<g id="edge57" class="edge">
<title>Node33&#45;&gt;Node2</title>
<path fill="none" stroke="#63b8ff" d="M1334.56,-131.98C1303.68,-116.54 1264.52,-90.64 1285.58,-66 1316.74,-29.56 1449,-19.5 1532.83,-16.84"/>
<polygon fill="#63b8ff" stroke="#63b8ff" points="1533.16,-20.33 1543.06,-16.54 1532.96,-13.33 1533.16,-20.33"/>
</g>
<!-- Node33&#45;&gt;Node3 -->
<g id="edge59" class="edge">
<title>Node33&#45;&gt;Node3</title>
<path fill="none" stroke="#63b8ff" d="M1415.38,-143.31C1516.7,-137.4 1757.15,-121.75 1957.58,-96 1969.52,-94.47 1982.37,-92.43 1994.25,-90.38"/>
<polygon fill="#63b8ff" stroke="#63b8ff" points="1995.15,-93.77 2004.39,-88.59 1993.94,-86.88 1995.15,-93.77"/>
</g>
<!-- Node33&#45;&gt;Node11 -->
<g id="edge47" class="edge">
<title>Node33&#45;&gt;Node11</title>
<path fill="none" stroke="#63b8ff" d="M1317.87,-137.85C1302.75,-135.61 1286.01,-133.4 1270.58,-132 1052.67,-112.18 497.74,-153.36 286.58,-96 285.49,-95.7 284.4,-95.36 283.31,-94.97"/>
<polygon fill="#63b8ff" stroke="#63b8ff" points="284.4,-91.62 273.85,-90.65 281.5,-97.98 284.4,-91.62"/>
</g>
<!-- Node33&#45;&gt;Node12 -->
<g id="edge48" class="edge">
<title>Node33&#45;&gt;Node12</title>
<path fill="none" stroke="#63b8ff" d="M1415.36,-139.64C1435.53,-137.11 1459.17,-134.26 1480.58,-132 1660.73,-112.96 1710.19,-137.24 1886.58,-96 1888.95,-95.45 1891.37,-94.77 1893.78,-94.01"/>
<polygon fill="#63b8ff" stroke="#63b8ff" points="1895.21,-97.22 1903.47,-90.58 1892.88,-90.62 1895.21,-97.22"/>
</g>
<!-- Node33&#45;&gt;Node15 -->
<g id="edge49" class="edge">
<title>Node33&#45;&gt;Node15</title>
<path fill="none" stroke="#63b8ff" d="M1317.86,-137.89C1302.75,-135.65 1286.01,-133.43 1270.58,-132 878.17,-95.51 775.76,-143.89 384.58,-96 372.31,-94.5 358.95,-91.95 347.35,-89.44"/>
<polygon fill="#63b8ff" stroke="#63b8ff" points="347.8,-85.95 337.27,-87.17 346.26,-92.78 347.8,-85.95"/>
</g>
<!-- Node33&#45;&gt;Node28 -->
<g id="edge50" class="edge">
<title>Node33&#45;&gt;Node28</title>
<path fill="none" stroke="#63b8ff" d="M1324.01,-131.95C1289.24,-120.48 1240.67,-104.46 1208,-93.68"/>
<polygon fill="#63b8ff" stroke="#63b8ff" points="1208.99,-90.33 1198.4,-90.52 1206.8,-96.97 1208.99,-90.33"/>
</g>
<!-- Node33&#45;&gt;Node30 -->
<g id="edge53" class="edge">
<title>Node33&#45;&gt;Node30</title>
<path fill="none" stroke="#63b8ff" d="M1317.85,-134.57C1313.05,-133.63 1308.23,-132.75 1303.58,-132 1145.7,-106.61 1103.33,-122.22 945.58,-96 940.11,-95.09 934.39,-93.97 928.75,-92.77"/>
<polygon fill="#63b8ff" stroke="#63b8ff" points="929.27,-89.3 918.75,-90.54 927.75,-96.14 929.27,-89.3"/>
</g>
<!-- Node33&#45;&gt;Node31 -->
<g id="edge56" class="edge">
<title>Node33&#45;&gt;Node31</title>
<path fill="none" stroke="#63b8ff" d="M1317.84,-138.1C1302.73,-135.86 1286,-133.6 1270.58,-132 1015.46,-105.47 948.61,-131.51 694.58,-96 688.23,-95.11 681.56,-93.93 675.03,-92.64"/>
<polygon fill="#63b8ff" stroke="#63b8ff" points="675.46,-89.15 664.95,-90.53 674.02,-96 675.46,-89.15"/>
</g>
<!-- Node33&#45;&gt;Node32 -->
<g id="edge58" class="edge">
<title>Node33&#45;&gt;Node32</title>
<path fill="none" stroke="#63b8ff" d="M1317.79,-134.93C1313,-133.91 1308.2,-132.92 1303.58,-132 1212.42,-113.91 1189.06,-112.42 1097.58,-96 1091.02,-94.82 1084.14,-93.57 1077.31,-92.33"/>
<polygon fill="#63b8ff" stroke="#63b8ff" points="1077.85,-88.87 1067.39,-90.51 1076.59,-95.75 1077.85,-88.87"/>
</g>
<!-- Node34 -->
<g id="node34" class="node">
<title>Node34</title>
<g id="a_node34"><a xlink:title=" ">
<polygon fill="#e0e0e0" stroke="#999999" points="1580.58,-90.5 1456.58,-90.5 1456.58,-71.5 1580.58,-71.5 1580.58,-90.5"/>
<text text-anchor="middle" x="1518.58" y="-78.5" font-family="Helvetica,sans-Serif" font-size="10.00">flutter/method_channel.h</text>
</a>
</g>
</g>
<!-- Node33&#45;&gt;Node34 -->
<g id="edge51" class="edge">
<title>Node33&#45;&gt;Node34</title>
<path fill="none" stroke="#63b8ff" d="M1399.94,-131.95C1426.48,-120.78 1463.28,-105.29 1488.82,-94.53"/>
<polygon fill="#63b8ff" stroke="#63b8ff" points="1490.5,-97.62 1498.35,-90.52 1487.78,-91.17 1490.5,-97.62"/>
</g>
<!-- Node35 -->
<g id="node35" class="node">
<title>Node35</title>
<g id="a_node35"><a xlink:title=" ">
<polygon fill="#e0e0e0" stroke="#999999" points="1704.58,-96 1598.58,-96 1598.58,-66 1704.58,-66 1704.58,-96"/>
<text text-anchor="start" x="1606.58" y="-84" font-family="Helvetica,sans-Serif" font-size="10.00">flutter/method_result</text>
<text text-anchor="middle" x="1651.58" y="-73" font-family="Helvetica,sans-Serif" font-size="10.00">_functions.h</text>
</a>
</g>
</g>
<!-- Node33&#45;&gt;Node35 -->
<g id="edge52" class="edge">
<title>Node33&#45;&gt;Node35</title>
<path fill="none" stroke="#63b8ff" d="M1415.31,-135.1C1458.28,-125.48 1522.89,-111 1588.39,-96.27"/>
<polygon fill="#63b8ff" stroke="#63b8ff" points="1589.5,-99.61 1598.48,-94 1587.96,-92.78 1589.5,-99.61"/>
</g>
<!-- Node36 -->
<g id="node36" class="node">
<title>Node36</title>
<g id="a_node36"><a xlink:title=" ">
<polygon fill="#e0e0e0" stroke="#999999" points="1878.08,-96 1723.08,-96 1723.08,-66 1878.08,-66 1878.08,-96"/>
<text text-anchor="start" x="1731.08" y="-84" font-family="Helvetica,sans-Serif" font-size="10.00">flutter/shell/platform</text>
<text text-anchor="middle" x="1800.58" y="-73" font-family="Helvetica,sans-Serif" font-size="10.00">/common/json_method_codec.h</text>
</a>
</g>
</g>
<!-- Node33&#45;&gt;Node36 -->
<g id="edge54" class="edge">
<title>Node33&#45;&gt;Node36</title>
<path fill="none" stroke="#63b8ff" d="M1415.18,-139.25C1480.36,-130.15 1599.96,-113.25 1712.62,-96.13"/>
<polygon fill="#63b8ff" stroke="#63b8ff" points="1713.45,-99.55 1722.8,-94.58 1712.39,-92.63 1713.45,-99.55"/>
</g>
<!-- Node37 -->
<g id="node37" class="node">
<title>Node37</title>
<g id="a_node37"><a xlink:title=" ">
<polygon fill="#e0e0e0" stroke="#999999" points="1438.08,-96 1295.08,-96 1295.08,-66 1438.08,-66 1438.08,-96"/>
<text text-anchor="start" x="1303.08" y="-84" font-family="Helvetica,sans-Serif" font-size="10.00">flutter/shell/platform</text>
<text text-anchor="middle" x="1366.58" y="-73" font-family="Helvetica,sans-Serif" font-size="10.00">/common/text_input_model.h</text>
</a>
</g>
</g>
<!-- Node33&#45;&gt;Node37 -->
<g id="edge55" class="edge">
<title>Node33&#45;&gt;Node37</title>
<path fill="none" stroke="#63b8ff" d="M1366.58,-131.8C1366.58,-124.34 1366.58,-114.99 1366.58,-106.41"/>
<polygon fill="#63b8ff" stroke="#63b8ff" points="1370.08,-106.16 1366.58,-96.16 1363.08,-106.16 1370.08,-106.16"/>
</g>
<!-- Node38&#45;&gt;Node11 -->
<g id="edge61" class="edge">
<title>Node38&#45;&gt;Node11</title>
<path fill="none" stroke="#63b8ff" d="M1131.57,-200.69C1092.49,-194.71 1037.11,-183.18 992.58,-162 972.84,-152.61 974.09,-139.6 953.58,-132 814.39,-80.43 429.49,-136.16 286.58,-96 285.5,-95.69 284.41,-95.34 283.32,-94.94"/>
<polygon fill="#63b8ff" stroke="#63b8ff" points="284.41,-91.59 273.87,-90.6 281.49,-97.95 284.41,-91.59"/>
</g>
<!-- Node38&#45;&gt;Node12 -->
<g id="edge62" class="edge">
<title>Node38&#45;&gt;Node12</title>
<path fill="none" stroke="#63b8ff" d="M1229.7,-202.49C1345.67,-192.22 1644.9,-161.09 1886.58,-96 1888.74,-95.42 1890.95,-94.75 1893.15,-94.03"/>
<polygon fill="#63b8ff" stroke="#63b8ff" points="1894.42,-97.29 1902.66,-90.63 1892.06,-90.7 1894.42,-97.29"/>
</g>
<!-- Node38&#45;&gt;Node30 -->
<g id="edge68" class="edge">
<title>Node38&#45;&gt;Node30</title>
<path fill="none" stroke="#63b8ff" d="M1218.6,-197.85C1237.71,-191.37 1259.18,-180.36 1270.58,-162 1277.62,-150.67 1279.48,-141.93 1270.58,-132 1222.11,-77.86 1017.2,-108.28 945.58,-96 940.18,-95.07 934.54,-93.96 928.96,-92.76"/>
<polygon fill="#63b8ff" stroke="#63b8ff" points="929.6,-89.32 919.08,-90.56 928.07,-96.15 929.6,-89.32"/>
</g>
<!-- Node39 -->
<g id="node39" class="node">
<title>Node39</title>
<g id="a_node39"><a xlink:href="configuration_8h.html" target="_top" xlink:title=" ">
<polygon fill="white" stroke="#666666" points="1141.08,-156.5 1002.08,-156.5 1002.08,-137.5 1141.08,-137.5 1141.08,-156.5"/>
<text text-anchor="middle" x="1071.58" y="-144.5" font-family="Helvetica,sans-Serif" font-size="10.00">configuration/configuration.h</text>
</a>
</g>
</g>
<!-- Node38&#45;&gt;Node39 -->
<g id="edge63" class="edge">
<title>Node38&#45;&gt;Node39</title>
<path fill="none" stroke="#63b8ff" d="M1164.5,-197.87C1146.63,-188.28 1117.54,-172.67 1096.67,-161.47"/>
<polygon fill="#63b8ff" stroke="#63b8ff" points="1098.2,-158.31 1087.73,-156.67 1094.89,-164.48 1098.2,-158.31"/>
</g>
<!-- Node40 -->
<g id="node40" class="node">
<title>Node40</title>
<g id="a_node40"><a xlink:href="window_8h.html" target="_top" xlink:title=" ">
<polygon fill="white" stroke="#666666" points="2253.58,-156.5 2157.58,-156.5 2157.58,-137.5 2253.58,-137.5 2253.58,-156.5"/>
<text text-anchor="middle" x="2205.58" y="-144.5" font-family="Helvetica,sans-Serif" font-size="10.00">wayland/window.h</text>
</a>
</g>
</g>
<!-- Node38&#45;&gt;Node40 -->
<g id="edge69" class="edge">
<title>Node38&#45;&gt;Node40</title>
<path fill="none" stroke="#63b8ff" d="M1229.68,-203.7C1399.87,-193.98 1964.16,-161.78 2147.5,-151.32"/>
<polygon fill="#63b8ff" stroke="#63b8ff" points="2147.7,-154.81 2157.48,-150.75 2147.3,-147.82 2147.7,-154.81"/>
</g>
<!-- Node39&#45;&gt;Node15 -->
<g id="edge64" class="edge">
<title>Node39&#45;&gt;Node15</title>
<path fill="none" stroke="#63b8ff" d="M1025.93,-137.47C1013.53,-135.4 1000.07,-133.39 987.58,-132 706.2,-100.68 627.97,-157.38 351.58,-96 349.21,-95.47 346.79,-94.8 344.39,-94.05"/>
<polygon fill="#63b8ff" stroke="#63b8ff" points="345.35,-90.67 334.75,-90.56 342.97,-97.26 345.35,-90.67"/>
</g>
<!-- Node39&#45;&gt;Node16 -->
<g id="edge65" class="edge">
<title>Node39&#45;&gt;Node16</title>
<path fill="none" stroke="#63b8ff" d="M1006.44,-137.47C989.27,-135.44 970.75,-133.45 953.58,-132 634.31,-105.11 549.68,-148.35 233.58,-96 228.02,-95.08 222.19,-93.75 216.57,-92.27"/>
<polygon fill="#63b8ff" stroke="#63b8ff" points="217.35,-88.85 206.78,-89.5 215.45,-95.59 217.35,-88.85"/>
</g>
<!-- Node39&#45;&gt;Node30 -->
<g id="edge66" class="edge">
<title>Node39&#45;&gt;Node30</title>
<path fill="none" stroke="#63b8ff" d="M1046.5,-137.37C1013.96,-126.17 957.03,-106.58 920.34,-93.96"/>
<polygon fill="#63b8ff" stroke="#63b8ff" points="921.16,-90.54 910.57,-90.6 918.88,-97.16 921.16,-90.54"/>
</g>
<!-- Node39&#45;&gt;Node31 -->
<g id="edge67" class="edge">
<title>Node39&#45;&gt;Node31</title>
<path fill="none" stroke="#63b8ff" d="M1022.33,-137.43C1010.94,-135.55 998.85,-133.63 987.58,-132 857.73,-113.21 823.92,-118.04 694.58,-96 688.76,-95.01 682.68,-93.84 676.66,-92.62"/>
<polygon fill="#63b8ff" stroke="#63b8ff" points="677.19,-89.15 666.68,-90.51 675.75,-96 677.19,-89.15"/>
</g>
<!-- Node40&#45;&gt;Node1 -->
<g id="edge75" class="edge">
<title>Node40&#45;&gt;Node1</title>
<path fill="none" stroke="#63b8ff" d="M2201.88,-156.75C2191.11,-182.18 2159.46,-256.94 2141.82,-298.61"/>
<polygon fill="#63b8ff" stroke="#63b8ff" points="2138.54,-297.38 2137.86,-307.95 2144.98,-300.1 2138.54,-297.38"/>
</g>
<!-- Node40&#45;&gt;Node3 -->
<g id="edge74" class="edge">
<title>Node40&#45;&gt;Node3</title>
<path fill="none" stroke="#63b8ff" d="M2183.06,-137.37C2154.09,-126.27 2103.6,-106.92 2070.64,-94.28"/>
<polygon fill="#63b8ff" stroke="#63b8ff" points="2071.6,-90.91 2061.01,-90.6 2069.1,-97.44 2071.6,-90.91"/>
</g>
<!-- Node40&#45;&gt;Node12 -->
<g id="edge70" class="edge">
<title>Node40&#45;&gt;Node12</title>
<path fill="none" stroke="#63b8ff" d="M2167.71,-137.44C2112.95,-125.05 2012.36,-102.3 1958.64,-90.15"/>
<polygon fill="#63b8ff" stroke="#63b8ff" points="1959.38,-86.73 1948.86,-87.94 1957.84,-93.56 1959.38,-86.73"/>
</g>
<!-- Node40&#45;&gt;Node15 -->
<g id="edge71" class="edge">
<title>Node40&#45;&gt;Node15</title>
<path fill="none" stroke="#63b8ff" d="M2157.32,-145.18C1886.85,-140.53 564.93,-116.88 384.58,-96 372.3,-94.58 358.94,-92.05 347.34,-89.52"/>
<polygon fill="#63b8ff" stroke="#63b8ff" points="347.79,-86.04 337.26,-87.24 346.24,-92.87 347.79,-86.04"/>
</g>
<!-- Node41 -->
<g id="node41" class="node">
<title>Node41</title>
<g id="a_node41"><a xlink:title=" ">
<polygon fill="#e0e0e0" stroke="#999999" points="2140.08,-90.5 2091.08,-90.5 2091.08,-71.5 2140.08,-71.5 2140.08,-90.5"/>
<text text-anchor="middle" x="2115.58" y="-78.5" font-family="Helvetica,sans-Serif" font-size="10.00">cassert</text>
</a>
</g>
</g>
<!-- Node40&#45;&gt;Node41 -->
<g id="edge72" class="edge">
<title>Node40&#45;&gt;Node41</title>
<path fill="none" stroke="#63b8ff" d="M2193.44,-137.37C2178.82,-126.97 2154,-109.32 2136.32,-96.75"/>
<polygon fill="#63b8ff" stroke="#63b8ff" points="2137.99,-93.64 2127.82,-90.7 2133.94,-99.35 2137.99,-93.64"/>
</g>
<!-- Node42 -->
<g id="node42" class="node">
<title>Node42</title>
<g id="a_node42"><a xlink:title=" ">
<polygon fill="#e0e0e0" stroke="#999999" points="2283.08,-90.5 2158.08,-90.5 2158.08,-71.5 2283.08,-71.5 2283.08,-90.5"/>
<text text-anchor="middle" x="2220.58" y="-78.5" font-family="Helvetica,sans-Serif" font-size="10.00">agl&#45;shell&#45;client&#45;protocol.h</text>
</a>
</g>
</g>
<!-- Node40&#45;&gt;Node42 -->
<g id="edge73" class="edge">
<title>Node40&#45;&gt;Node42</title>
<path fill="none" stroke="#63b8ff" d="M2207.61,-137.37C2209.79,-128.07 2213.32,-112.98 2216.15,-100.9"/>
<polygon fill="#63b8ff" stroke="#63b8ff" points="2219.62,-101.44 2218.5,-90.91 2212.81,-99.84 2219.62,-101.44"/>
</g>
<!-- Node43 -->
<g id="node43" class="node">
<title>Node43</title>
<g id="a_node43"><a xlink:title=" ">
<polygon fill="#e0e0e0" stroke="#999999" points="2403.58,-96 2301.58,-96 2301.58,-66 2403.58,-66 2403.58,-96"/>
<text text-anchor="start" x="2309.58" y="-84" font-family="Helvetica,sans-Serif" font-size="10.00">ivi&#45;application&#45;client</text>
<text text-anchor="middle" x="2352.58" y="-73" font-family="Helvetica,sans-Serif" font-size="10.00">&#45;protocol.h</text>
</a>
</g>
</g>
<!-- Node40&#45;&gt;Node43 -->
<g id="edge76" class="edge">
<title>Node40&#45;&gt;Node43</title>
<path fill="none" stroke="#63b8ff" d="M2225.41,-137.37C2247.23,-127.87 2282.95,-112.32 2310.98,-100.11"/>
<polygon fill="#63b8ff" stroke="#63b8ff" points="2312.39,-103.32 2320.16,-96.12 2309.59,-96.9 2312.39,-103.32"/>
</g>
<!-- Node44 -->
<g id="node44" class="node">
<title>Node44</title>
<g id="a_node44"><a xlink:title=" ">
<polygon fill="#e0e0e0" stroke="#999999" points="2539.08,-90.5 2422.08,-90.5 2422.08,-71.5 2539.08,-71.5 2539.08,-90.5"/>
<text text-anchor="middle" x="2480.58" y="-78.5" font-family="Helvetica,sans-Serif" font-size="10.00">ivi&#45;wm&#45;client&#45;protocol.h</text>
</a>
</g>
</g>
<!-- Node40&#45;&gt;Node44 -->
<g id="edge77" class="edge">
<title>Node40&#45;&gt;Node44</title>
<path fill="none" stroke="#63b8ff" d="M2242.39,-137.44C2291.88,-125.92 2379.92,-105.43 2433.99,-92.84"/>
<polygon fill="#63b8ff" stroke="#63b8ff" points="2435.05,-96.19 2444,-90.51 2433.47,-89.37 2435.05,-96.19"/>
</g>
<!-- Node45 -->
<g id="node45" class="node">
<title>Node45</title>
<g id="a_node45"><a xlink:title=" ">
<polygon fill="#e0e0e0" stroke="#999999" points="2685.58,-90.5 2557.58,-90.5 2557.58,-71.5 2685.58,-71.5 2685.58,-90.5"/>
<text text-anchor="middle" x="2621.58" y="-78.5" font-family="Helvetica,sans-Serif" font-size="10.00">xdg&#45;shell&#45;client&#45;protocol.h</text>
</a>
</g>
</g>
<!-- Node40&#45;&gt;Node45 -->
<g id="edge78" class="edge">
<title>Node40&#45;&gt;Node45</title>
<path fill="none" stroke="#63b8ff" d="M2253.82,-139.59C2320.14,-130.64 2443.13,-113.51 2547.58,-96 2554.25,-94.88 2561.25,-93.64 2568.17,-92.38"/>
<polygon fill="#63b8ff" stroke="#63b8ff" points="2569.01,-95.78 2578.2,-90.52 2567.73,-88.9 2569.01,-95.78"/>
</g>
</g>
</svg>
