<?xml version="1.0" encoding="UTF-8" standalone="no"?>
<!DOCTYPE svg PUBLIC "-//W3C//DTD SVG 1.1//EN"
 "http://www.w3.org/Graphics/SVG/1.1/DTD/svg11.dtd">
<!-- Generated by graphviz version 5.0.0 (0)
 -->
<!-- Title: WaylandEglBackend Pages: 1 -->
<svg width="120pt" height="82pt"
 viewBox="0.00 0.00 120.00 82.00" xmlns="http://www.w3.org/2000/svg" xmlns:xlink="http://www.w3.org/1999/xlink">
<g id="graph0" class="graph" transform="scale(1 1) rotate(0) translate(4 78)">
<title>WaylandEglBackend</title>
<!-- Node1 -->
<g id="node1" class="node">
<title>Node1</title>
<g id="a_node1"><a xlink:title=" ">
<polygon fill="#999999" stroke="#666666" points="107,-19 0,-19 0,0 107,0 107,-19"/>
<text text-anchor="middle" x="53.5" y="-7" font-family="Helvetica,sans-Serif" font-size="10.00">WaylandEglBackend</text>
</a>
</g>
</g>
<!-- Node2 -->
<g id="node2" class="node">
<title>Node2</title>
<g id="a_node2"><a xlink:href="class_egl.html" target="_top" xlink:title=" ">
<polygon fill="white" stroke="#666666" points="39,-74 8,-74 8,-55 39,-55 39,-74"/>
<text text-anchor="middle" x="23.5" y="-62" font-family="Helvetica,sans-Serif" font-size="10.00">Egl</text>
</a>
</g>
</g>
<!-- Node2&#45;&gt;Node1 -->
<g id="edge1" class="edge">
<title>Node2&#45;&gt;Node1</title>
<path fill="none" stroke="#63b8ff" d="M33.51,-45.82C38.6,-36.82 44.56,-26.29 48.64,-19.09"/>
<polygon fill="#63b8ff" stroke="#63b8ff" points="30.33,-44.32 28.45,-54.75 36.43,-47.77 30.33,-44.32"/>
</g>
<!-- Node3 -->
<g id="node3" class="node">
<title>Node3</title>
<g id="a_node3"><a xlink:href="class_backend.html" target="_top" xlink:title=" ">
<polygon fill="white" stroke="#666666" points="112,-74 57,-74 57,-55 112,-55 112,-74"/>
<text text-anchor="middle" x="84.5" y="-62" font-family="Helvetica,sans-Serif" font-size="10.00">Backend</text>
</a>
</g>
</g>
<!-- Node3&#45;&gt;Node1 -->
<g id="edge2" class="edge">
<title>Node3&#45;&gt;Node1</title>
<path fill="none" stroke="#63b8ff" d="M74.32,-46.1C69.03,-37.04 62.78,-26.37 58.52,-19.09"/>
<polygon fill="#63b8ff" stroke="#63b8ff" points="71.31,-47.88 79.38,-54.75 77.35,-44.35 71.31,-47.88"/>
</g>
</g>
</svg>
