<?xml version="1.0" encoding="UTF-8" standalone="no"?>
<!DOCTYPE svg PUBLIC "-//W3C//DTD SVG 1.1//EN"
 "http://www.w3.org/Graphics/SVG/1.1/DTD/svg11.dtd">
<!-- Generated by graphviz version 2.43.0 (0)
 -->
<!-- Title: Backend Pages: 1 -->
<svg width="274pt" height="84pt"
 viewBox="0.00 0.00 273.50 84.00" xmlns="http://www.w3.org/2000/svg" xmlns:xlink="http://www.w3.org/1999/xlink">
<g id="graph0" class="graph" transform="scale(1 1) rotate(0) translate(4 80)">
<title>Backend</title>
<polygon fill="white" stroke="transparent" points="-4,4 -4,-80 269.5,-80 269.5,4 -4,4"/>
<!-- Node1 -->
<g id="node1" class="node">
<title>Node1</title>
<g id="a_node1"><a xlink:title=" ">
<polygon fill="#bfbfbf" stroke="black" points="99.5,-56.5 99.5,-75.5 157.5,-75.5 157.5,-56.5 99.5,-56.5"/>
<text text-anchor="middle" x="128.5" y="-63.5" font-family="Helvetica,sans-Serif" font-size="10.00">Backend</text>
</a>
</g>
</g>
<!-- Node2 -->
<g id="node2" class="node">
<title>Node2</title>
<g id="a_node2"><a xlink:href="class_wayland_egl_backend.html" target="_top" xlink:title=" ">
<polygon fill="white" stroke="black" points="0,-0.5 0,-19.5 115,-19.5 115,-0.5 0,-0.5"/>
<text text-anchor="middle" x="57.5" y="-7.5" font-family="Helvetica,sans-Serif" font-size="10.00">WaylandEglBackend</text>
</a>
</g>
</g>
<!-- Node1&#45;&gt;Node2 -->
<g id="edge1" class="edge">
<title>Node1&#45;&gt;Node2</title>
<path fill="none" stroke="midnightblue" d="M108.91,-50.1C96.13,-40.38 79.89,-28.03 69.11,-19.83"/>
<polygon fill="midnightblue" stroke="midnightblue" points="107.01,-53.06 117.09,-56.32 111.25,-47.48 107.01,-53.06"/>
</g>
<!-- Node3 -->
<g id="node3" class="node">
<title>Node3</title>
<g id="a_node3"><a xlink:href="class_wayland_vulkan_backend.html" target="_top" xlink:title=" ">
<polygon fill="white" stroke="black" points="133.5,-0.5 133.5,-19.5 265.5,-19.5 265.5,-0.5 133.5,-0.5"/>
<text text-anchor="middle" x="199.5" y="-7.5" font-family="Helvetica,sans-Serif" font-size="10.00">WaylandVulkanBackend</text>
</a>
</g>
</g>
<!-- Node1&#45;&gt;Node3 -->
<g id="edge2" class="edge">
<title>Node1&#45;&gt;Node3</title>
<path fill="none" stroke="midnightblue" d="M148.09,-50.1C160.87,-40.38 177.11,-28.03 187.89,-19.83"/>
<polygon fill="midnightblue" stroke="midnightblue" points="145.75,-47.48 139.91,-56.32 149.99,-53.06 145.75,-47.48"/>
</g>
</g>
</svg>
