<?xml version="1.0" encoding="UTF-8" standalone="no"?>
<!DOCTYPE svg PUBLIC "-//W3C//DTD SVG 1.1//EN"
 "http://www.w3.org/Graphics/SVG/1.1/DTD/svg11.dtd">
<!-- Generated by graphviz version 2.43.0 (0)
 -->
<!-- Title: WaylandEglBackend Pages: 1 -->
<svg width="127pt" height="84pt"
 viewBox="0.00 0.00 126.50 84.00" xmlns="http://www.w3.org/2000/svg" xmlns:xlink="http://www.w3.org/1999/xlink">
<g id="graph0" class="graph" transform="scale(1 1) rotate(0) translate(4 80)">
<title>WaylandEglBackend</title>
<polygon fill="white" stroke="transparent" points="-4,4 -4,-80 122.5,-80 122.5,4 -4,4"/>
<!-- Node1 -->
<g id="node1" class="node">
<title>Node1</title>
<g id="a_node1"><a xlink:title=" ">
<polygon fill="#bfbfbf" stroke="black" points="0,-0.5 0,-19.5 115,-19.5 115,-0.5 0,-0.5"/>
<text text-anchor="middle" x="57.5" y="-7.5" font-family="Helvetica,sans-Serif" font-size="10.00">WaylandEglBackend</text>
</a>
</g>
</g>
<!-- Node2 -->
<g id="node2" class="node">
<title>Node2</title>
<g id="a_node2"><a xlink:href="class_egl.html" target="_top" xlink:title=" ">
<polygon fill="white" stroke="black" points="10.5,-56.5 10.5,-75.5 42.5,-75.5 42.5,-56.5 10.5,-56.5"/>
<text text-anchor="middle" x="26.5" y="-63.5" font-family="Helvetica,sans-Serif" font-size="10.00">Egl</text>
</a>
</g>
</g>
<!-- Node2&#45;&gt;Node1 -->
<g id="edge1" class="edge">
<title>Node2&#45;&gt;Node1</title>
<path fill="none" stroke="midnightblue" d="M36.68,-47.27C41.97,-38.05 48.22,-27.17 52.48,-19.75"/>
<polygon fill="midnightblue" stroke="midnightblue" points="33.56,-45.67 31.62,-56.08 39.63,-49.15 33.56,-45.67"/>
</g>
<!-- Node3 -->
<g id="node3" class="node">
<title>Node3</title>
<g id="a_node3"><a xlink:href="class_backend.html" target="_top" xlink:title=" ">
<polygon fill="white" stroke="black" points="60.5,-56.5 60.5,-75.5 118.5,-75.5 118.5,-56.5 60.5,-56.5"/>
<text text-anchor="middle" x="89.5" y="-63.5" font-family="Helvetica,sans-Serif" font-size="10.00">Backend</text>
</a>
</g>
</g>
<!-- Node3&#45;&gt;Node1 -->
<g id="edge2" class="edge">
<title>Node3&#45;&gt;Node1</title>
<path fill="none" stroke="midnightblue" d="M79,-47.27C73.53,-38.05 67.08,-27.17 62.69,-19.75"/>
<polygon fill="midnightblue" stroke="midnightblue" points="76.11,-49.26 84.22,-56.08 82.13,-45.7 76.11,-49.26"/>
</g>
</g>
</svg>
