<?xml version="1.0" encoding="UTF-8" standalone="no"?>
<!DOCTYPE svg PUBLIC "-//W3C//DTD SVG 1.1//EN"
 "http://www.w3.org/Graphics/SVG/1.1/DTD/svg11.dtd">
<!-- Generated by graphviz version 5.0.0 (0)
 -->
<!-- Title: /mnt/raid10/stargate/ivi&#45;homescreen/shell/static_plugins/comp_surf/comp_surf.cc Pages: 1 -->
<svg width="2971pt" height="434pt"
 viewBox="0.00 0.00 2970.95 434.00" xmlns="http://www.w3.org/2000/svg" xmlns:xlink="http://www.w3.org/1999/xlink">
<g id="graph0" class="graph" transform="scale(1 1) rotate(0) translate(4 430)">
<title>/mnt/raid10/stargate/ivi&#45;homescreen/shell/static_plugins/comp_surf/comp_surf.cc</title>
<!-- Node1 -->
<g id="node1" class="node">
<title>Node1</title>
<g id="a_node1"><a xlink:title=" ">
<polygon fill="#999999" stroke="#666666" points="2014.45,-426 1886.45,-426 1886.45,-374 2014.45,-374 2014.45,-426"/>
<text text-anchor="start" x="1894.45" y="-414" font-family="Helvetica,sans-Serif" font-size="10.00">/mnt/raid10/stargate</text>
<text text-anchor="start" x="1894.45" y="-403" font-family="Helvetica,sans-Serif" font-size="10.00">/ivi&#45;homescreen/shell</text>
<text text-anchor="start" x="1894.45" y="-392" font-family="Helvetica,sans-Serif" font-size="10.00">/static_plugins/comp_surf</text>
<text text-anchor="middle" x="1950.45" y="-381" font-family="Helvetica,sans-Serif" font-size="10.00">/comp_surf.cc</text>
</a>
</g>
</g>
<!-- Node2 -->
<g id="node2" class="node">
<title>Node2</title>
<g id="a_node2"><a xlink:href="comp__surf_8h.html" target="_top" xlink:title=" ">
<polygon fill="white" stroke="#666666" points="2962.95,-85 2891.95,-85 2891.95,-66 2962.95,-66 2962.95,-85"/>
<text text-anchor="middle" x="2927.45" y="-73" font-family="Helvetica,sans-Serif" font-size="10.00">comp_surf.h</text>
</a>
</g>
</g>
<!-- Node1&#45;&gt;Node2 -->
<g id="edge1" class="edge">
<title>Node1&#45;&gt;Node2</title>
<path fill="none" stroke="#63b8ff" d="M2014.83,-396.75C2230.55,-388.37 2914.45,-354.6 2914.45,-263.5 2914.45,-263.5 2914.45,-263.5 2914.45,-201 2914.45,-163.29 2920.43,-119.5 2924.27,-95.2"/>
<polygon fill="#63b8ff" stroke="#63b8ff" points="2927.75,-95.66 2925.91,-85.22 2920.84,-94.52 2927.75,-95.66"/>
</g>
<!-- Node4 -->
<g id="node4" class="node">
<title>Node4</title>
<g id="a_node4"><a xlink:title=" ">
<polygon fill="#e0e0e0" stroke="#999999" points="1923.45,-332.5 1877.45,-332.5 1877.45,-313.5 1923.45,-313.5 1923.45,-332.5"/>
<text text-anchor="middle" x="1900.45" y="-320.5" font-family="Helvetica,sans-Serif" font-size="10.00">dlfcn.h</text>
</a>
</g>
</g>
<!-- Node1&#45;&gt;Node4 -->
<g id="edge3" class="edge">
<title>Node1&#45;&gt;Node4</title>
<path fill="none" stroke="#63b8ff" d="M1933.53,-373.61C1926.47,-363.03 1918.46,-351 1912.08,-341.45"/>
<polygon fill="#63b8ff" stroke="#63b8ff" points="1914.81,-339.23 1906.35,-332.85 1908.99,-343.11 1914.81,-339.23"/>
</g>
<!-- Node5 -->
<g id="node5" class="node">
<title>Node5</title>
<g id="a_node5"><a xlink:title=" ">
<polygon fill="#e0e0e0" stroke="#999999" points="2060.95,-338 1941.95,-338 1941.95,-308 2060.95,-308 2060.95,-338"/>
<text text-anchor="start" x="1949.95" y="-326" font-family="Helvetica,sans-Serif" font-size="10.00">flutter/standard_method</text>
<text text-anchor="middle" x="2001.45" y="-315" font-family="Helvetica,sans-Serif" font-size="10.00">_codec.h</text>
</a>
</g>
</g>
<!-- Node1&#45;&gt;Node5 -->
<g id="edge4" class="edge">
<title>Node1&#45;&gt;Node5</title>
<path fill="none" stroke="#63b8ff" d="M1967.72,-373.61C1973.64,-364.9 1980.22,-355.22 1985.99,-346.74"/>
<polygon fill="#63b8ff" stroke="#63b8ff" points="1988.91,-348.66 1991.64,-338.43 1983.13,-344.73 1988.91,-348.66"/>
</g>
<!-- Node6 -->
<g id="node6" class="node">
<title>Node6</title>
<g id="a_node6"><a xlink:href="engine_8h.html" target="_top" xlink:title=" ">
<polygon fill="white" stroke="#666666" points="1049.95,-332.5 996.95,-332.5 996.95,-313.5 1049.95,-313.5 1049.95,-332.5"/>
<text text-anchor="middle" x="1023.45" y="-320.5" font-family="Helvetica,sans-Serif" font-size="10.00">engine.h</text>
</a>
</g>
</g>
<!-- Node1&#45;&gt;Node6 -->
<g id="edge5" class="edge">
<title>Node1&#45;&gt;Node6</title>
<path fill="none" stroke="#63b8ff" d="M1886.37,-393.82C1706.63,-379.27 1201.66,-338.42 1060.51,-327"/>
<polygon fill="#63b8ff" stroke="#63b8ff" points="1060.49,-323.48 1050.24,-326.17 1059.92,-330.46 1060.49,-323.48"/>
</g>
<!-- Node3 -->
<g id="node3" class="node">
<title>Node3</title>
<g id="a_node3"><a xlink:title=" ">
<polygon fill="#e0e0e0" stroke="#999999" points="2193.95,-30 2072.95,-30 2072.95,0 2193.95,0 2193.95,-30"/>
<text text-anchor="start" x="2080.95" y="-18" font-family="Helvetica,sans-Serif" font-size="10.00">shell/platform/embedder</text>
<text text-anchor="middle" x="2133.45" y="-7" font-family="Helvetica,sans-Serif" font-size="10.00">/embedder.h</text>
</a>
</g>
</g>
<!-- Node2&#45;&gt;Node3 -->
<g id="edge2" class="edge">
<title>Node2&#45;&gt;Node3</title>
<path fill="none" stroke="#63b8ff" d="M2891.74,-67.98C2886.95,-67.23 2882.09,-66.55 2877.45,-66 2631.24,-36.87 2337.04,-23.34 2204.43,-18.38"/>
<polygon fill="#63b8ff" stroke="#63b8ff" points="2204.53,-14.88 2194.4,-18 2204.27,-21.87 2204.53,-14.88"/>
</g>
<!-- Node6&#45;&gt;Node3 -->
<g id="edge10" class="edge">
<title>Node6&#45;&gt;Node3</title>
<path fill="none" stroke="#63b8ff" d="M1050.17,-321.72C1276.45,-319.2 2863.45,-298.13 2863.45,-203 2863.45,-203 2863.45,-203 2863.45,-135 2863.45,-72.71 2800.99,-84.31 2741.45,-66 2642.82,-35.66 2342.04,-22.54 2204.02,-18"/>
<polygon fill="#63b8ff" stroke="#63b8ff" points="2204.08,-14.5 2193.97,-17.68 2203.85,-21.5 2204.08,-14.5"/>
</g>
<!-- Node7 -->
<g id="node7" class="node">
<title>Node7</title>
<g id="a_node7"><a xlink:title=" ">
<polygon fill="#e0e0e0" stroke="#999999" points="88.95,-272 29.95,-272 29.95,-253 88.95,-253 88.95,-272"/>
<text text-anchor="middle" x="59.45" y="-260" font-family="Helvetica,sans-Serif" font-size="10.00">functional</text>
</a>
</g>
</g>
<!-- Node6&#45;&gt;Node7 -->
<g id="edge6" class="edge">
<title>Node6&#45;&gt;Node7</title>
<path fill="none" stroke="#63b8ff" d="M996.62,-321.88C886,-321.09 454.71,-315.27 103.45,-272 102.15,-271.84 100.83,-271.66 99.49,-271.47"/>
<polygon fill="#63b8ff" stroke="#63b8ff" points="99.62,-267.95 89.19,-269.81 98.5,-274.86 99.62,-267.95"/>
</g>
<!-- Node8 -->
<g id="node8" class="node">
<title>Node8</title>
<g id="a_node8"><a xlink:title=" ">
<polygon fill="#e0e0e0" stroke="#999999" points="451.45,-24.5 391.45,-24.5 391.45,-5.5 451.45,-5.5 451.45,-24.5"/>
<text text-anchor="middle" x="421.45" y="-12.5" font-family="Helvetica,sans-Serif" font-size="10.00">EGL/egl.h</text>
</a>
</g>
</g>
<!-- Node6&#45;&gt;Node8 -->
<g id="edge7" class="edge">
<title>Node6&#45;&gt;Node8</title>
<path fill="none" stroke="#63b8ff" d="M996.75,-321.55C841.4,-318.8 59.64,-303.43 20.45,-272 -4.36,-252.1 1.45,-234.81 1.45,-203 1.45,-203 1.45,-203 1.45,-135 1.45,-56.6 275.78,-27.2 381.02,-18.8"/>
<polygon fill="#63b8ff" stroke="#63b8ff" points="381.55,-22.27 391.25,-18.01 381.01,-15.29 381.55,-22.27"/>
</g>
<!-- Node9 -->
<g id="node9" class="node">
<title>Node9</title>
<g id="a_node9"><a xlink:title=" ">
<polygon fill="#e0e0e0" stroke="#999999" points="485.45,-272 413.45,-272 413.45,-253 485.45,-253 485.45,-272"/>
<text text-anchor="middle" x="449.45" y="-260" font-family="Helvetica,sans-Serif" font-size="10.00">GLES2/gl2.h</text>
</a>
</g>
</g>
<!-- Node6&#45;&gt;Node9 -->
<g id="edge8" class="edge">
<title>Node6&#45;&gt;Node9</title>
<path fill="none" stroke="#63b8ff" d="M996.93,-320.36C920.65,-315.48 693.97,-299.66 495.77,-272.06"/>
<polygon fill="#63b8ff" stroke="#63b8ff" points="496.14,-268.58 485.76,-270.66 495.17,-275.51 496.14,-268.58"/>
</g>
<!-- Node10 -->
<g id="node10" class="node">
<title>Node10</title>
<g id="a_node10"><a xlink:title=" ">
<polygon fill="#e0e0e0" stroke="#999999" points="628.95,-272 503.95,-272 503.95,-253 628.95,-253 628.95,-272"/>
<text text-anchor="middle" x="566.45" y="-260" font-family="Helvetica,sans-Serif" font-size="10.00">flutter/encodable_value.h</text>
</a>
</g>
</g>
<!-- Node6&#45;&gt;Node10 -->
<g id="edge9" class="edge">
<title>Node6&#45;&gt;Node10</title>
<path fill="none" stroke="#63b8ff" d="M996.91,-318.6C928.23,-309.81 742.87,-286.08 639.18,-272.81"/>
<polygon fill="#63b8ff" stroke="#63b8ff" points="639.47,-269.32 629.1,-271.52 638.58,-276.26 639.47,-269.32"/>
</g>
<!-- Node11 -->
<g id="node11" class="node">
<title>Node11</title>
<g id="a_node11"><a xlink:title=" ">
<polygon fill="#e0e0e0" stroke="#999999" points="709.45,-272 647.45,-272 647.45,-253 709.45,-253 709.45,-272"/>
<text text-anchor="middle" x="678.45" y="-260" font-family="Helvetica,sans-Serif" font-size="10.00">filesystem</text>
</a>
</g>
</g>
<!-- Node6&#45;&gt;Node11 -->
<g id="edge11" class="edge">
<title>Node6&#45;&gt;Node11</title>
<path fill="none" stroke="#63b8ff" d="M996.93,-317.78C944.59,-309.4 824.31,-289.93 723.45,-272 722.36,-271.81 721.25,-271.61 720.13,-271.4"/>
<polygon fill="#63b8ff" stroke="#63b8ff" points="720.38,-267.89 709.91,-269.53 719.11,-274.78 720.38,-267.89"/>
</g>
<!-- Node12 -->
<g id="node12" class="node">
<title>Node12</title>
<g id="a_node12"><a xlink:title=" ">
<polygon fill="#e0e0e0" stroke="#999999" points="2796.95,-145.5 2761.95,-145.5 2761.95,-126.5 2796.95,-126.5 2796.95,-145.5"/>
<text text-anchor="middle" x="2779.45" y="-133.5" font-family="Helvetica,sans-Serif" font-size="10.00">map</text>
</a>
</g>
</g>
<!-- Node6&#45;&gt;Node12 -->
<g id="edge12" class="edge">
<title>Node6&#45;&gt;Node12</title>
<path fill="none" stroke="#63b8ff" d="M1049.99,-320.25C1181.22,-311.48 1773.96,-270.65 2257.45,-217 2355.1,-206.17 2379.07,-200 2476.45,-187 2599.51,-170.58 2635.28,-189.06 2753.45,-151 2754.5,-150.66 2755.56,-150.28 2756.61,-149.87"/>
<polygon fill="#63b8ff" stroke="#63b8ff" points="2758.28,-152.96 2765.84,-145.53 2755.3,-146.62 2758.28,-152.96"/>
</g>
<!-- Node13 -->
<g id="node13" class="node">
<title>Node13</title>
<g id="a_node13"><a xlink:title=" ">
<polygon fill="#e0e0e0" stroke="#999999" points="1069.45,-145.5 1017.45,-145.5 1017.45,-126.5 1069.45,-126.5 1069.45,-145.5"/>
<text text-anchor="middle" x="1043.45" y="-133.5" font-family="Helvetica,sans-Serif" font-size="10.00">memory</text>
</a>
</g>
</g>
<!-- Node6&#45;&gt;Node13 -->
<g id="edge13" class="edge">
<title>Node6&#45;&gt;Node13</title>
<path fill="none" stroke="#63b8ff" d="M996.69,-321.64C946.08,-319.68 843.08,-308.89 862.45,-253 888.38,-178.21 934.74,-179.85 1008.45,-151 1009.82,-150.46 1011.23,-149.91 1012.64,-149.35"/>
<polygon fill="#63b8ff" stroke="#63b8ff" points="1014,-152.58 1022,-145.64 1011.42,-146.07 1014,-152.58"/>
</g>
<!-- Node14 -->
<g id="node14" class="node">
<title>Node14</title>
<g id="a_node14"><a xlink:title=" ">
<polygon fill="#e0e0e0" stroke="#999999" points="915.45,-272 871.45,-272 871.45,-253 915.45,-253 915.45,-272"/>
<text text-anchor="middle" x="893.45" y="-260" font-family="Helvetica,sans-Serif" font-size="10.00">mutex</text>
</a>
</g>
</g>
<!-- Node6&#45;&gt;Node14 -->
<g id="edge14" class="edge">
<title>Node6&#45;&gt;Node14</title>
<path fill="none" stroke="#63b8ff" d="M1004.55,-313.49C982.79,-303.7 946.83,-287.52 921.74,-276.23"/>
<polygon fill="#63b8ff" stroke="#63b8ff" points="922.93,-272.93 912.38,-272.02 920.06,-279.31 922.93,-272.93"/>
</g>
<!-- Node15 -->
<g id="node15" class="node">
<title>Node15</title>
<g id="a_node15"><a xlink:title=" ">
<polygon fill="#e0e0e0" stroke="#999999" points="976.95,-272 933.95,-272 933.95,-253 976.95,-253 976.95,-272"/>
<text text-anchor="middle" x="955.45" y="-260" font-family="Helvetica,sans-Serif" font-size="10.00">queue</text>
</a>
</g>
</g>
<!-- Node6&#45;&gt;Node15 -->
<g id="edge15" class="edge">
<title>Node6&#45;&gt;Node15</title>
<path fill="none" stroke="#63b8ff" d="M1013.42,-313.37C1002.87,-304.3 986.07,-289.84 973.26,-278.82"/>
<polygon fill="#63b8ff" stroke="#63b8ff" points="975.39,-276.04 965.53,-272.17 970.83,-281.34 975.39,-276.04"/>
</g>
<!-- Node16 -->
<g id="node16" class="node">
<title>Node16</title>
<g id="a_node16"><a xlink:title=" ">
<polygon fill="#e0e0e0" stroke="#999999" points="1247.95,-145.5 1206.95,-145.5 1206.95,-126.5 1247.95,-126.5 1247.95,-145.5"/>
<text text-anchor="middle" x="1227.45" y="-133.5" font-family="Helvetica,sans-Serif" font-size="10.00">string</text>
</a>
</g>
</g>
<!-- Node6&#45;&gt;Node16 -->
<g id="edge16" class="edge">
<title>Node6&#45;&gt;Node16</title>
<path fill="none" stroke="#63b8ff" d="M1050.36,-322.69C1112.08,-322.59 1262.38,-312.2 1312.45,-217 1318.66,-205.2 1319.07,-198.57 1312.45,-187 1310.71,-183.95 1276.3,-164.28 1251.8,-150.54"/>
<polygon fill="#63b8ff" stroke="#63b8ff" points="1253.42,-147.44 1242.99,-145.61 1250.01,-153.55 1253.42,-147.44"/>
</g>
<!-- Node17 -->
<g id="node17" class="node">
<title>Node17</title>
<g id="a_node17"><a xlink:title=" ">
<polygon fill="#e0e0e0" stroke="#999999" points="597.45,-145.5 553.45,-145.5 553.45,-126.5 597.45,-126.5 597.45,-145.5"/>
<text text-anchor="middle" x="575.45" y="-133.5" font-family="Helvetica,sans-Serif" font-size="10.00">vector</text>
</a>
</g>
</g>
<!-- Node6&#45;&gt;Node17 -->
<g id="edge17" class="edge">
<title>Node6&#45;&gt;Node17</title>
<path fill="none" stroke="#63b8ff" d="M996.89,-316.64C939,-304.31 798.07,-270.84 690.45,-217 653.59,-198.56 615.12,-169.46 593.34,-151.91"/>
<polygon fill="#63b8ff" stroke="#63b8ff" points="595.55,-149.2 585.59,-145.58 591.12,-154.62 595.55,-149.2"/>
</g>
<!-- Node18 -->
<g id="node18" class="node">
<title>Node18</title>
<g id="a_node18"><a xlink:href="backend_8h.html" target="_top" xlink:title=" ">
<polygon fill="white" stroke="#666666" points="998.95,-145.5 897.95,-145.5 897.95,-126.5 998.95,-126.5 998.95,-145.5"/>
<text text-anchor="middle" x="948.45" y="-133.5" font-family="Helvetica,sans-Serif" font-size="10.00">backend/backend.h</text>
</a>
</g>
</g>
<!-- Node6&#45;&gt;Node18 -->
<g id="edge18" class="edge">
<title>Node6&#45;&gt;Node18</title>
<path fill="none" stroke="#63b8ff" d="M1027.85,-313.37C1038.6,-300.58 1060.62,-275.69 1051.45,-253 1033.43,-208.38 989.12,-171.38 964.67,-151.89"/>
<polygon fill="#63b8ff" stroke="#63b8ff" points="966.65,-149 956.64,-145.52 962.3,-154.48 966.65,-149"/>
</g>
<!-- Node19 -->
<g id="node19" class="node">
<title>Node19</title>
<g id="a_node19"><a xlink:href="constants_8h.html" target="_top" xlink:title=" ">
<polygon fill="white" stroke="#666666" points="982.45,-85 914.45,-85 914.45,-66 982.45,-66 982.45,-85"/>
<text text-anchor="middle" x="948.45" y="-73" font-family="Helvetica,sans-Serif" font-size="10.00">constants.h</text>
</a>
</g>
</g>
<!-- Node6&#45;&gt;Node19 -->
<g id="edge25" class="edge">
<title>Node6&#45;&gt;Node19</title>
<path fill="none" stroke="#63b8ff" d="M996.87,-321.84C856.34,-320.37 202.44,-305.23 97.45,-151 89.95,-139.98 88.27,-130.67 97.45,-121 125.45,-91.5 733.24,-79.85 904.12,-77.15"/>
<polygon fill="#63b8ff" stroke="#63b8ff" points="904.32,-80.64 914.27,-76.99 904.22,-73.64 904.32,-80.64"/>
</g>
<!-- Node21 -->
<g id="node21" class="node">
<title>Node21</title>
<g id="a_node21"><a xlink:href="logging_8h.html" target="_top" xlink:title=" ">
<polygon fill="white" stroke="#666666" points="1051.45,-272 995.45,-272 995.45,-253 1051.45,-253 1051.45,-272"/>
<text text-anchor="middle" x="1023.45" y="-260" font-family="Helvetica,sans-Serif" font-size="10.00">logging.h</text>
</a>
</g>
</g>
<!-- Node6&#45;&gt;Node21 -->
<g id="edge26" class="edge">
<title>Node6&#45;&gt;Node21</title>
<path fill="none" stroke="#63b8ff" d="M1023.45,-313.37C1023.45,-305.25 1023.45,-292.81 1023.45,-282.39"/>
<polygon fill="#63b8ff" stroke="#63b8ff" points="1026.95,-282.17 1023.45,-272.17 1019.95,-282.17 1026.95,-282.17"/>
</g>
<!-- Node27 -->
<g id="node27" class="node">
<title>Node27</title>
<g id="a_node27"><a xlink:href="platform__channel_8h.html" target="_top" xlink:title=" ">
<polygon fill="white" stroke="#666666" points="2583.95,-211.5 2484.95,-211.5 2484.95,-192.5 2583.95,-192.5 2583.95,-211.5"/>
<text text-anchor="middle" x="2534.45" y="-199.5" font-family="Helvetica,sans-Serif" font-size="10.00">platform_channel.h</text>
</a>
</g>
</g>
<!-- Node6&#45;&gt;Node27 -->
<g id="edge33" class="edge">
<title>Node6&#45;&gt;Node27</title>
<path fill="none" stroke="#63b8ff" d="M1049.97,-321.78C1230.34,-320.22 2273.85,-309.56 2409.45,-272 2449.91,-260.79 2491.55,-234.21 2515.1,-217.51"/>
<polygon fill="#63b8ff" stroke="#63b8ff" points="2517.15,-220.34 2523.19,-211.64 2513.04,-214.67 2517.15,-220.34"/>
</g>
<!-- Node28 -->
<g id="node28" class="node">
<title>Node28</title>
<g id="a_node28"><a xlink:href="key__event_8h.html" target="_top" xlink:title=" ">
<polygon fill="white" stroke="#666666" points="1502.45,-217 1400.45,-217 1400.45,-187 1502.45,-187 1502.45,-217"/>
<text text-anchor="start" x="1408.45" y="-205" font-family="Helvetica,sans-Serif" font-size="10.00">static_plugins/key</text>
<text text-anchor="middle" x="1451.45" y="-194" font-family="Helvetica,sans-Serif" font-size="10.00">_event/key_event.h</text>
</a>
</g>
</g>
<!-- Node6&#45;&gt;Node28 -->
<g id="edge37" class="edge">
<title>Node6&#45;&gt;Node28</title>
<path fill="none" stroke="#63b8ff" d="M1050.29,-321.6C1106.8,-319.97 1241.37,-311.84 1345.45,-272 1375.73,-260.41 1406.35,-239.24 1426.84,-223.39"/>
<polygon fill="#63b8ff" stroke="#63b8ff" points="1429.02,-226.12 1434.7,-217.18 1424.68,-220.63 1429.02,-226.12"/>
</g>
<!-- Node34 -->
<g id="node34" class="node">
<title>Node34</title>
<g id="a_node34"><a xlink:href="text__input_8h.html" target="_top" xlink:title=" ">
<polygon fill="white" stroke="#666666" points="2096.95,-217 1999.95,-217 1999.95,-187 2096.95,-187 2096.95,-217"/>
<text text-anchor="start" x="2007.95" y="-205" font-family="Helvetica,sans-Serif" font-size="10.00">static_plugins/text</text>
<text text-anchor="middle" x="2048.45" y="-194" font-family="Helvetica,sans-Serif" font-size="10.00">_input/text_input.h</text>
</a>
</g>
</g>
<!-- Node6&#45;&gt;Node34 -->
<g id="edge49" class="edge">
<title>Node6&#45;&gt;Node34</title>
<path fill="none" stroke="#63b8ff" d="M1050.08,-318.91C1185.3,-303.21 1797.06,-232.19 1989.99,-209.79"/>
<polygon fill="#63b8ff" stroke="#63b8ff" points="1990.4,-213.26 1999.93,-208.63 1989.6,-206.31 1990.4,-213.26"/>
</g>
<!-- Node39 -->
<g id="node39" class="node">
<title>Node39</title>
<g id="a_node39"><a xlink:href="flutter__view_8h.html" target="_top" xlink:title=" ">
<polygon fill="white" stroke="#666666" points="1223.45,-272 1125.45,-272 1125.45,-253 1223.45,-253 1223.45,-272"/>
<text text-anchor="middle" x="1174.45" y="-260" font-family="Helvetica,sans-Serif" font-size="10.00">view/flutter_view.h</text>
</a>
</g>
</g>
<!-- Node6&#45;&gt;Node39 -->
<g id="edge63" class="edge">
<title>Node6&#45;&gt;Node39</title>
<path fill="none" stroke="#63b8ff" d="M1045.41,-313.49C1071.13,-303.53 1113.93,-286.95 1143.13,-275.63"/>
<polygon fill="#63b8ff" stroke="#63b8ff" points="1144.41,-278.89 1152.47,-272.02 1141.88,-272.37 1144.41,-278.89"/>
</g>
<!-- Node18&#45;&gt;Node3 -->
<g id="edge19" class="edge">
<title>Node18&#45;&gt;Node3</title>
<path fill="none" stroke="#63b8ff" d="M981.3,-126.49C990.08,-124.44 999.58,-122.44 1008.45,-121 1403.99,-56.7 1884.64,-28.16 2062.69,-19.25"/>
<polygon fill="#63b8ff" stroke="#63b8ff" points="2062.9,-22.75 2072.72,-18.76 2062.56,-15.75 2062.9,-22.75"/>
</g>
<!-- Node18&#45;&gt;Node6 -->
<g id="edge24" class="edge">
<title>Node18&#45;&gt;Node6</title>
<path fill="none" stroke="#63b8ff" d="M966.93,-145.52C995.84,-162.41 1049.22,-202.9 1069.45,-253 1077.26,-272.32 1062.45,-293.24 1047.38,-306.92"/>
<polygon fill="#63b8ff" stroke="#63b8ff" points="1045.07,-304.29 1039.59,-313.37 1049.53,-309.68 1045.07,-304.29"/>
</g>
<!-- Node18&#45;&gt;Node19 -->
<g id="edge20" class="edge">
<title>Node18&#45;&gt;Node19</title>
<path fill="none" stroke="#63b8ff" d="M948.45,-126.37C948.45,-118.25 948.45,-105.81 948.45,-95.39"/>
<polygon fill="#63b8ff" stroke="#63b8ff" points="951.95,-95.17 948.45,-85.17 944.95,-95.17 951.95,-95.17"/>
</g>
<!-- Node19&#45;&gt;Node3 -->
<g id="edge22" class="edge">
<title>Node19&#45;&gt;Node3</title>
<path fill="none" stroke="#63b8ff" d="M982.64,-72.81C1144.84,-64.8 1838.26,-30.57 2062.91,-19.48"/>
<polygon fill="#63b8ff" stroke="#63b8ff" points="2063.12,-22.98 2072.93,-18.99 2062.77,-15.99 2063.12,-22.98"/>
</g>
<!-- Node19&#45;&gt;Node8 -->
<g id="edge21" class="edge">
<title>Node19&#45;&gt;Node8</title>
<path fill="none" stroke="#63b8ff" d="M914.28,-70.71C820.88,-60.34 561.62,-31.56 461.56,-20.45"/>
<polygon fill="#63b8ff" stroke="#63b8ff" points="461.88,-16.97 451.55,-19.34 461.11,-23.92 461.88,-16.97"/>
</g>
<!-- Node20 -->
<g id="node20" class="node">
<title>Node20</title>
<g id="a_node20"><a xlink:title=" ">
<polygon fill="#e0e0e0" stroke="#999999" points="967.45,-24.5 929.45,-24.5 929.45,-5.5 967.45,-5.5 967.45,-24.5"/>
<text text-anchor="middle" x="948.45" y="-12.5" font-family="Helvetica,sans-Serif" font-size="10.00">array</text>
</a>
</g>
</g>
<!-- Node19&#45;&gt;Node20 -->
<g id="edge23" class="edge">
<title>Node19&#45;&gt;Node20</title>
<path fill="none" stroke="#63b8ff" d="M948.45,-65.87C948.45,-57.75 948.45,-45.31 948.45,-34.89"/>
<polygon fill="#63b8ff" stroke="#63b8ff" points="951.95,-34.67 948.45,-24.67 944.95,-34.67 951.95,-34.67"/>
</g>
<!-- Node22 -->
<g id="node22" class="node">
<title>Node22</title>
<g id="a_node22"><a xlink:title=" ">
<polygon fill="#e0e0e0" stroke="#999999" points="975.45,-211.5 923.45,-211.5 923.45,-192.5 975.45,-192.5 975.45,-211.5"/>
<text text-anchor="middle" x="949.45" y="-199.5" font-family="Helvetica,sans-Serif" font-size="10.00">sstream</text>
</a>
</g>
</g>
<!-- Node21&#45;&gt;Node22 -->
<g id="edge27" class="edge">
<title>Node21&#45;&gt;Node22</title>
<path fill="none" stroke="#63b8ff" d="M1012.53,-252.87C1000.95,-243.71 982.42,-229.06 968.43,-218.01"/>
<polygon fill="#63b8ff" stroke="#63b8ff" points="970.43,-215.12 960.42,-211.67 966.09,-220.61 970.43,-215.12"/>
</g>
<!-- Node23 -->
<g id="node23" class="node">
<title>Node23</title>
<g id="a_node23"><a xlink:href="dlt_8h.html" target="_top" xlink:title=" ">
<polygon fill="white" stroke="#666666" points="748.95,-211.5 699.95,-211.5 699.95,-192.5 748.95,-192.5 748.95,-211.5"/>
<text text-anchor="middle" x="724.45" y="-199.5" font-family="Helvetica,sans-Serif" font-size="10.00">dlt/dlt.h</text>
</a>
</g>
</g>
<!-- Node21&#45;&gt;Node23 -->
<g id="edge28" class="edge">
<title>Node21&#45;&gt;Node23</title>
<path fill="none" stroke="#63b8ff" d="M995.21,-254.8C992.26,-254.16 989.3,-253.55 986.45,-253 885.73,-233.5 857.23,-244.72 758.45,-217 756.52,-216.46 754.54,-215.84 752.57,-215.16"/>
<polygon fill="#63b8ff" stroke="#63b8ff" points="753.47,-211.76 742.88,-211.51 751,-218.31 753.47,-211.76"/>
</g>
<!-- Node26 -->
<g id="node26" class="node">
<title>Node26</title>
<g id="a_node26"><a xlink:title=" ">
<polygon fill="#e0e0e0" stroke="#999999" points="1188.95,-145.5 1087.95,-145.5 1087.95,-126.5 1188.95,-126.5 1188.95,-145.5"/>
<text text-anchor="middle" x="1138.45" y="-133.5" font-family="Helvetica,sans-Serif" font-size="10.00">flutter/fml/macros.h</text>
</a>
</g>
</g>
<!-- Node21&#45;&gt;Node26 -->
<g id="edge32" class="edge">
<title>Node21&#45;&gt;Node26</title>
<path fill="none" stroke="#63b8ff" d="M1031.36,-252.94C1050.4,-232.33 1099.04,-179.67 1123.68,-153"/>
<polygon fill="#63b8ff" stroke="#63b8ff" points="1126.28,-155.34 1130.49,-145.62 1121.14,-150.59 1126.28,-155.34"/>
</g>
<!-- Node24 -->
<g id="node24" class="node">
<title>Node24</title>
<g id="a_node24"><a xlink:href="libdlt_8h.html" target="_top" xlink:title=" ">
<polygon fill="white" stroke="#666666" points="165.95,-145.5 106.95,-145.5 106.95,-126.5 165.95,-126.5 165.95,-145.5"/>
<text text-anchor="middle" x="136.45" y="-133.5" font-family="Helvetica,sans-Serif" font-size="10.00">dlt/libdlt.h</text>
</a>
</g>
</g>
<!-- Node23&#45;&gt;Node24 -->
<g id="edge29" class="edge">
<title>Node23&#45;&gt;Node24</title>
<path fill="none" stroke="#63b8ff" d="M699.78,-200.63C622.41,-199.05 377.98,-191.01 180.45,-151 176.97,-150.29 173.37,-149.41 169.81,-148.44"/>
<polygon fill="#63b8ff" stroke="#63b8ff" points="170.54,-145 159.95,-145.51 168.54,-151.71 170.54,-145"/>
</g>
<!-- Node23&#45;&gt;Node26 -->
<g id="edge31" class="edge">
<title>Node23&#45;&gt;Node26</title>
<path fill="none" stroke="#63b8ff" d="M742.49,-192.48C747.55,-190.39 753.14,-188.37 758.45,-187 897.08,-151.41 937.41,-175.3 1078.45,-151 1083.86,-150.07 1089.5,-148.95 1095.07,-147.76"/>
<polygon fill="#63b8ff" stroke="#63b8ff" points="1095.96,-151.14 1104.96,-145.55 1094.43,-144.31 1095.96,-151.14"/>
</g>
<!-- Node25 -->
<g id="node25" class="node">
<title>Node25</title>
<g id="a_node25"><a xlink:title=" ">
<polygon fill="#e0e0e0" stroke="#999999" points="159.45,-85 113.45,-85 113.45,-66 159.45,-66 159.45,-85"/>
<text text-anchor="middle" x="136.45" y="-73" font-family="Helvetica,sans-Serif" font-size="10.00">cstdint</text>
</a>
</g>
</g>
<!-- Node24&#45;&gt;Node25 -->
<g id="edge30" class="edge">
<title>Node24&#45;&gt;Node25</title>
<path fill="none" stroke="#63b8ff" d="M136.45,-126.37C136.45,-118.25 136.45,-105.81 136.45,-95.39"/>
<polygon fill="#63b8ff" stroke="#63b8ff" points="139.95,-95.17 136.45,-85.17 132.95,-95.17 139.95,-95.17"/>
</g>
<!-- Node27&#45;&gt;Node3 -->
<g id="edge36" class="edge">
<title>Node27&#45;&gt;Node3</title>
<path fill="none" stroke="#63b8ff" d="M2584.06,-201.96C2678.38,-202.17 2868.87,-193.91 2806.45,-121 2729.42,-31.01 2360.75,-17.56 2204.11,-15.97"/>
<polygon fill="#63b8ff" stroke="#63b8ff" points="2204.14,-12.47 2194.11,-15.88 2204.07,-19.47 2204.14,-12.47"/>
</g>
<!-- Node27&#45;&gt;Node12 -->
<g id="edge34" class="edge">
<title>Node27&#45;&gt;Node12</title>
<path fill="none" stroke="#63b8ff" d="M2584.27,-193.57C2629.4,-185.92 2697.23,-172.11 2753.45,-151 2754.31,-150.68 2755.18,-150.33 2756.05,-149.96"/>
<polygon fill="#63b8ff" stroke="#63b8ff" points="2757.71,-153.05 2765.2,-145.56 2754.67,-146.74 2757.71,-153.05"/>
</g>
<!-- Node27&#45;&gt;Node16 -->
<g id="edge35" class="edge">
<title>Node27&#45;&gt;Node16</title>
<path fill="none" stroke="#63b8ff" d="M2484.77,-199.22C2261.04,-191.18 1355.35,-158.33 1295.45,-151 1283.18,-149.5 1269.82,-146.95 1258.22,-144.44"/>
<polygon fill="#63b8ff" stroke="#63b8ff" points="1258.67,-140.95 1248.14,-142.17 1257.13,-147.78 1258.67,-140.95"/>
</g>
<!-- Node28&#45;&gt;Node3 -->
<g id="edge46" class="edge">
<title>Node28&#45;&gt;Node3</title>
<path fill="none" stroke="#63b8ff" d="M1502.55,-199.53C1561.35,-196.18 1659.66,-185.39 1736.45,-151 1756.09,-142.21 1755.33,-130.87 1774.45,-121 1868.29,-72.58 1987.75,-43.31 2062.43,-28.39"/>
<polygon fill="#63b8ff" stroke="#63b8ff" points="2063.53,-31.75 2072.67,-26.38 2062.18,-24.88 2063.53,-31.75"/>
</g>
<!-- Node28&#45;&gt;Node12 -->
<g id="edge38" class="edge">
<title>Node28&#45;&gt;Node12</title>
<path fill="none" stroke="#63b8ff" d="M1502.57,-199.68C1736.02,-193.59 2692.17,-167.71 2753.45,-151 2754.54,-150.7 2755.63,-150.35 2756.72,-149.96"/>
<polygon fill="#63b8ff" stroke="#63b8ff" points="2758.54,-152.98 2766.18,-145.64 2755.63,-146.62 2758.54,-152.98"/>
</g>
<!-- Node28&#45;&gt;Node13 -->
<g id="edge39" class="edge">
<title>Node28&#45;&gt;Node13</title>
<path fill="none" stroke="#63b8ff" d="M1400.26,-195.64C1312.97,-186.25 1139.01,-166.35 1079.45,-151 1077.15,-150.41 1074.8,-149.71 1072.45,-148.95"/>
<polygon fill="#63b8ff" stroke="#63b8ff" points="1073.58,-145.63 1062.98,-145.56 1071.22,-152.23 1073.58,-145.63"/>
</g>
<!-- Node28&#45;&gt;Node16 -->
<g id="edge40" class="edge">
<title>Node28&#45;&gt;Node16</title>
<path fill="none" stroke="#63b8ff" d="M1400.42,-189.29C1362.11,-180.06 1308.53,-166.25 1262.45,-151 1260.79,-150.45 1259.09,-149.86 1257.38,-149.25"/>
<polygon fill="#63b8ff" stroke="#63b8ff" points="1258.25,-145.83 1247.66,-145.57 1255.77,-152.38 1258.25,-145.83"/>
</g>
<!-- Node28&#45;&gt;Node19 -->
<g id="edge48" class="edge">
<title>Node28&#45;&gt;Node19</title>
<path fill="none" stroke="#63b8ff" d="M1400.43,-189.59C1369.03,-181.38 1328.59,-168.64 1295.45,-151 1276.46,-140.89 1277.22,-129.49 1257.45,-121 1168.95,-82.99 1054.41,-76.31 992.64,-75.78"/>
<polygon fill="#63b8ff" stroke="#63b8ff" points="992.47,-72.27 982.46,-75.74 992.45,-79.27 992.47,-72.27"/>
</g>
<!-- Node28&#45;&gt;Node26 -->
<g id="edge44" class="edge">
<title>Node28&#45;&gt;Node26</title>
<path fill="none" stroke="#63b8ff" d="M1399.98,-191.36C1348.79,-181.65 1268.05,-165.99 1198.45,-151 1193.8,-150 1188.95,-148.92 1184.11,-147.82"/>
<polygon fill="#63b8ff" stroke="#63b8ff" points="1184.79,-144.39 1174.26,-145.57 1183.23,-151.21 1184.79,-144.39"/>
</g>
<!-- Node29 -->
<g id="node29" class="node">
<title>Node29</title>
<g id="a_node29"><a xlink:title=" ">
<polygon fill="#e0e0e0" stroke="#999999" points="1545.95,-151 1432.95,-151 1432.95,-121 1545.95,-121 1545.95,-151"/>
<text text-anchor="start" x="1440.95" y="-139" font-family="Helvetica,sans-Serif" font-size="10.00">flutter/basic_message</text>
<text text-anchor="middle" x="1489.45" y="-128" font-family="Helvetica,sans-Serif" font-size="10.00">_channel.h</text>
</a>
</g>
</g>
<!-- Node28&#45;&gt;Node29 -->
<g id="edge41" class="edge">
<title>Node28&#45;&gt;Node29</title>
<path fill="none" stroke="#63b8ff" d="M1459.89,-186.8C1464.56,-178.92 1470.49,-168.95 1475.8,-159.99"/>
<polygon fill="#63b8ff" stroke="#63b8ff" points="1478.95,-161.55 1481.04,-151.16 1472.93,-157.98 1478.95,-161.55"/>
</g>
<!-- Node30 -->
<g id="node30" class="node">
<title>Node30</title>
<g id="a_node30"><a xlink:title=" ">
<polygon fill="#e0e0e0" stroke="#999999" points="1915.45,-145.5 1783.45,-145.5 1783.45,-126.5 1915.45,-126.5 1915.45,-145.5"/>
<text text-anchor="middle" x="1849.45" y="-133.5" font-family="Helvetica,sans-Serif" font-size="10.00">flutter/binary_messenger.h</text>
</a>
</g>
</g>
<!-- Node28&#45;&gt;Node30 -->
<g id="edge42" class="edge">
<title>Node28&#45;&gt;Node30</title>
<path fill="none" stroke="#63b8ff" d="M1502.72,-193.22C1565.61,-183.61 1675.45,-166.61 1769.45,-151 1776.63,-149.81 1784.15,-148.53 1791.6,-147.25"/>
<polygon fill="#63b8ff" stroke="#63b8ff" points="1792.42,-150.66 1801.67,-145.5 1791.22,-143.76 1792.42,-150.66"/>
</g>
<!-- Node31 -->
<g id="node31" class="node">
<title>Node31</title>
<g id="a_node31"><a xlink:title=" ">
<polygon fill="#e0e0e0" stroke="#999999" points="1726.95,-151 1563.95,-151 1563.95,-121 1726.95,-121 1726.95,-151"/>
<text text-anchor="start" x="1571.95" y="-139" font-family="Helvetica,sans-Serif" font-size="10.00">flutter/shell/platform</text>
<text text-anchor="middle" x="1645.45" y="-128" font-family="Helvetica,sans-Serif" font-size="10.00">/common/json_message_codec.h</text>
</a>
</g>
</g>
<!-- Node28&#45;&gt;Node31 -->
<g id="edge43" class="edge">
<title>Node28&#45;&gt;Node31</title>
<path fill="none" stroke="#63b8ff" d="M1494.03,-186.95C1523.21,-177.33 1562.12,-164.49 1593.19,-154.24"/>
<polygon fill="#63b8ff" stroke="#63b8ff" points="1594.58,-157.47 1602.98,-151.01 1592.39,-150.82 1594.58,-157.47"/>
</g>
<!-- Node32 -->
<g id="node32" class="node">
<title>Node32</title>
<g id="a_node32"><a xlink:title=" ">
<polygon fill="#e0e0e0" stroke="#999999" points="1414.45,-145.5 1304.45,-145.5 1304.45,-126.5 1414.45,-126.5 1414.45,-145.5"/>
<text text-anchor="middle" x="1359.45" y="-133.5" font-family="Helvetica,sans-Serif" font-size="10.00">rapidjson/document.h</text>
</a>
</g>
</g>
<!-- Node28&#45;&gt;Node32 -->
<g id="edge45" class="edge">
<title>Node28&#45;&gt;Node32</title>
<path fill="none" stroke="#63b8ff" d="M1431.04,-186.8C1415.9,-176.27 1395.35,-161.97 1380.15,-151.4"/>
<polygon fill="#63b8ff" stroke="#63b8ff" points="1382.11,-148.5 1371.9,-145.66 1378.11,-154.24 1382.11,-148.5"/>
</g>
<!-- Node33 -->
<g id="node33" class="node">
<title>Node33</title>
<g id="a_node33"><a xlink:title=" ">
<polygon fill="#e0e0e0" stroke="#999999" points="2067.45,-145.5 1933.45,-145.5 1933.45,-126.5 2067.45,-126.5 2067.45,-145.5"/>
<text text-anchor="middle" x="2000.45" y="-133.5" font-family="Helvetica,sans-Serif" font-size="10.00">xkbcommon/xkbcommon.h</text>
</a>
</g>
</g>
<!-- Node28&#45;&gt;Node33 -->
<g id="edge47" class="edge">
<title>Node28&#45;&gt;Node33</title>
<path fill="none" stroke="#63b8ff" d="M1502.71,-196.88C1589.69,-189.6 1771.63,-173.12 1924.45,-151 1931.84,-149.93 1939.6,-148.67 1947.23,-147.34"/>
<polygon fill="#63b8ff" stroke="#63b8ff" points="1947.91,-150.77 1957.14,-145.57 1946.68,-143.88 1947.91,-150.77"/>
</g>
<!-- Node34&#45;&gt;Node3 -->
<g id="edge60" class="edge">
<title>Node34&#45;&gt;Node3</title>
<path fill="none" stroke="#63b8ff" d="M2064.6,-186.64C2074.19,-177.32 2085.92,-164.45 2093.45,-151 2113.49,-115.22 2124.44,-68.37 2129.61,-40.32"/>
<polygon fill="#63b8ff" stroke="#63b8ff" points="2133.1,-40.66 2131.37,-30.21 2126.21,-39.46 2133.1,-40.66"/>
</g>
<!-- Node34&#45;&gt;Node12 -->
<g id="edge50" class="edge">
<title>Node34&#45;&gt;Node12</title>
<path fill="none" stroke="#63b8ff" d="M2097,-196.87C2131.45,-193.98 2178.77,-190.1 2220.45,-187 2338.84,-178.18 2639.39,-183.89 2753.45,-151 2754.54,-150.69 2755.63,-150.33 2756.71,-149.92"/>
<polygon fill="#63b8ff" stroke="#63b8ff" points="2758.55,-152.93 2766.16,-145.56 2755.61,-146.58 2758.55,-152.93"/>
</g>
<!-- Node34&#45;&gt;Node13 -->
<g id="edge51" class="edge">
<title>Node34&#45;&gt;Node13</title>
<path fill="none" stroke="#63b8ff" d="M1999.86,-199.4C1816.13,-193.23 1169.73,-170.36 1079.45,-151 1076.93,-150.46 1074.35,-149.76 1071.79,-148.97"/>
<polygon fill="#63b8ff" stroke="#63b8ff" points="1072.76,-145.6 1062.16,-145.58 1070.43,-152.2 1072.76,-145.6"/>
</g>
<!-- Node34&#45;&gt;Node16 -->
<g id="edge52" class="edge">
<title>Node34&#45;&gt;Node16</title>
<path fill="none" stroke="#63b8ff" d="M1999.77,-200.07C1879.64,-197.28 1559.66,-186.8 1295.45,-151 1283.2,-149.34 1269.85,-146.76 1258.24,-144.27"/>
<polygon fill="#63b8ff" stroke="#63b8ff" points="1258.68,-140.78 1248.16,-142.03 1257.16,-147.61 1258.68,-140.78"/>
</g>
<!-- Node34&#45;&gt;Node19 -->
<g id="edge62" class="edge">
<title>Node34&#45;&gt;Node19</title>
<path fill="none" stroke="#63b8ff" d="M2061.18,-186.71C2075.32,-169.09 2093.99,-139.25 2076.45,-121 2038.28,-81.29 1197.04,-77.01 992.82,-76.55"/>
<polygon fill="#63b8ff" stroke="#63b8ff" points="992.76,-73.05 982.76,-76.53 992.75,-80.05 992.76,-73.05"/>
</g>
<!-- Node34&#45;&gt;Node26 -->
<g id="edge56" class="edge">
<title>Node34&#45;&gt;Node26</title>
<path fill="none" stroke="#63b8ff" d="M1999.76,-201.03C1869.24,-200.49 1500.92,-194.86 1198.45,-151 1192.55,-150.14 1186.38,-149 1180.33,-147.73"/>
<polygon fill="#63b8ff" stroke="#63b8ff" points="1180.86,-144.26 1170.33,-145.5 1179.33,-151.09 1180.86,-144.26"/>
</g>
<!-- Node34&#45;&gt;Node30 -->
<g id="edge53" class="edge">
<title>Node34&#45;&gt;Node30</title>
<path fill="none" stroke="#63b8ff" d="M2004.78,-186.95C1969.11,-175.48 1919.29,-159.46 1885.78,-148.68"/>
<polygon fill="#63b8ff" stroke="#63b8ff" points="1886.53,-145.25 1875.94,-145.52 1884.39,-151.91 1886.53,-145.25"/>
</g>
<!-- Node34&#45;&gt;Node32 -->
<g id="edge59" class="edge">
<title>Node34&#45;&gt;Node32</title>
<path fill="none" stroke="#63b8ff" d="M1999.66,-199.29C1894.2,-195.1 1637.35,-182.32 1424.45,-151 1418.16,-150.07 1411.56,-148.9 1405.08,-147.62"/>
<polygon fill="#63b8ff" stroke="#63b8ff" points="1405.56,-144.15 1395.06,-145.56 1404.15,-151 1405.56,-144.15"/>
</g>
<!-- Node34&#45;&gt;Node33 -->
<g id="edge61" class="edge">
<title>Node34&#45;&gt;Node33</title>
<path fill="none" stroke="#63b8ff" d="M2037.8,-186.8C2030.54,-177.11 2020.88,-164.24 2013.21,-154.01"/>
<polygon fill="#63b8ff" stroke="#63b8ff" points="2015.89,-151.74 2007.09,-145.84 2010.29,-155.94 2015.89,-151.74"/>
</g>
<!-- Node35 -->
<g id="node35" class="node">
<title>Node35</title>
<g id="a_node35"><a xlink:title=" ">
<polygon fill="#e0e0e0" stroke="#999999" points="2285.45,-145.5 2161.45,-145.5 2161.45,-126.5 2285.45,-126.5 2285.45,-145.5"/>
<text text-anchor="middle" x="2223.45" y="-133.5" font-family="Helvetica,sans-Serif" font-size="10.00">flutter/method_channel.h</text>
</a>
</g>
</g>
<!-- Node34&#45;&gt;Node35 -->
<g id="edge54" class="edge">
<title>Node34&#45;&gt;Node35</title>
<path fill="none" stroke="#63b8ff" d="M2086.86,-186.95C2117.95,-175.58 2161.28,-159.74 2190.74,-148.96"/>
<polygon fill="#63b8ff" stroke="#63b8ff" points="2191.97,-152.24 2200.16,-145.52 2189.57,-145.66 2191.97,-152.24"/>
</g>
<!-- Node36 -->
<g id="node36" class="node">
<title>Node36</title>
<g id="a_node36"><a xlink:title=" ">
<polygon fill="#e0e0e0" stroke="#999999" points="2409.45,-151 2303.45,-151 2303.45,-121 2409.45,-121 2409.45,-151"/>
<text text-anchor="start" x="2311.45" y="-139" font-family="Helvetica,sans-Serif" font-size="10.00">flutter/method_result</text>
<text text-anchor="middle" x="2356.45" y="-128" font-family="Helvetica,sans-Serif" font-size="10.00">_functions.h</text>
</a>
</g>
</g>
<!-- Node34&#45;&gt;Node36 -->
<g id="edge55" class="edge">
<title>Node34&#45;&gt;Node36</title>
<path fill="none" stroke="#63b8ff" d="M2097.06,-191.44C2144.6,-182.02 2219.3,-167.03 2293.4,-151.2"/>
<polygon fill="#63b8ff" stroke="#63b8ff" points="2294.32,-154.58 2303.37,-149.07 2292.86,-147.74 2294.32,-154.58"/>
</g>
<!-- Node37 -->
<g id="node37" class="node">
<title>Node37</title>
<g id="a_node37"><a xlink:title=" ">
<polygon fill="#e0e0e0" stroke="#999999" points="2582.95,-151 2427.95,-151 2427.95,-121 2582.95,-121 2582.95,-151"/>
<text text-anchor="start" x="2435.95" y="-139" font-family="Helvetica,sans-Serif" font-size="10.00">flutter/shell/platform</text>
<text text-anchor="middle" x="2505.45" y="-128" font-family="Helvetica,sans-Serif" font-size="10.00">/common/json_method_codec.h</text>
</a>
</g>
</g>
<!-- Node34&#45;&gt;Node37 -->
<g id="edge57" class="edge">
<title>Node34&#45;&gt;Node37</title>
<path fill="none" stroke="#63b8ff" d="M2096.99,-194.84C2165.82,-186.01 2295.99,-169 2417.46,-151.12"/>
<polygon fill="#63b8ff" stroke="#63b8ff" points="2418.3,-154.54 2427.68,-149.61 2417.28,-147.61 2418.3,-154.54"/>
</g>
<!-- Node38 -->
<g id="node38" class="node">
<title>Node38</title>
<g id="a_node38"><a xlink:title=" ">
<polygon fill="#e0e0e0" stroke="#999999" points="2743.95,-151 2600.95,-151 2600.95,-121 2743.95,-121 2743.95,-151"/>
<text text-anchor="start" x="2608.95" y="-139" font-family="Helvetica,sans-Serif" font-size="10.00">flutter/shell/platform</text>
<text text-anchor="middle" x="2672.45" y="-128" font-family="Helvetica,sans-Serif" font-size="10.00">/common/text_input_model.h</text>
</a>
</g>
</g>
<!-- Node34&#45;&gt;Node38 -->
<g id="edge58" class="edge">
<title>Node34&#45;&gt;Node38</title>
<path fill="none" stroke="#63b8ff" d="M2097.33,-197.02C2208.69,-187.88 2479.62,-165.16 2590.33,-151.19"/>
<polygon fill="#63b8ff" stroke="#63b8ff" points="2591.07,-154.63 2600.54,-149.87 2590.17,-147.69 2591.07,-154.63"/>
</g>
<!-- Node39&#45;&gt;Node12 -->
<g id="edge64" class="edge">
<title>Node39&#45;&gt;Node12</title>
<path fill="none" stroke="#63b8ff" d="M1223.53,-260.21C1362.3,-256.34 1769.33,-243.41 2106.45,-217 2229.03,-207.4 2259.15,-199.59 2381.45,-187 2546.69,-169.99 2594.53,-199.33 2753.45,-151 2754.51,-150.68 2755.57,-150.31 2756.63,-149.91"/>
<polygon fill="#63b8ff" stroke="#63b8ff" points="2758.27,-153.01 2765.87,-145.62 2755.32,-146.66 2758.27,-153.01"/>
</g>
<!-- Node39&#45;&gt;Node13 -->
<g id="edge65" class="edge">
<title>Node39&#45;&gt;Node13</title>
<path fill="none" stroke="#63b8ff" d="M1165.45,-252.94C1143.67,-232.24 1087.87,-179.21 1059.92,-152.65"/>
<polygon fill="#63b8ff" stroke="#63b8ff" points="1062.18,-149.97 1052.52,-145.62 1057.36,-155.04 1062.18,-149.97"/>
</g>
<!-- Node39&#45;&gt;Node26 -->
<g id="edge71" class="edge">
<title>Node39&#45;&gt;Node26</title>
<path fill="none" stroke="#63b8ff" d="M1170.15,-252.83C1165.92,-243.99 1159.51,-229.81 1155.45,-217 1148.91,-196.32 1144.12,-171.84 1141.33,-155.45"/>
<polygon fill="#63b8ff" stroke="#63b8ff" points="1144.77,-154.85 1139.71,-145.55 1137.87,-155.98 1144.77,-154.85"/>
</g>
<!-- Node40 -->
<g id="node40" class="node">
<title>Node40</title>
<g id="a_node40"><a xlink:href="configuration_8h.html" target="_top" xlink:title=" ">
<polygon fill="white" stroke="#666666" points="1302.95,-211.5 1163.95,-211.5 1163.95,-192.5 1302.95,-192.5 1302.95,-211.5"/>
<text text-anchor="middle" x="1233.45" y="-199.5" font-family="Helvetica,sans-Serif" font-size="10.00">configuration/configuration.h</text>
</a>
</g>
</g>
<!-- Node39&#45;&gt;Node40 -->
<g id="edge66" class="edge">
<title>Node39&#45;&gt;Node40</title>
<path fill="none" stroke="#63b8ff" d="M1183.16,-252.87C1192.14,-243.97 1206.34,-229.89 1217.36,-218.95"/>
<polygon fill="#63b8ff" stroke="#63b8ff" points="1220.08,-221.19 1224.71,-211.67 1215.15,-216.22 1220.08,-221.19"/>
</g>
<!-- Node41 -->
<g id="node41" class="node">
<title>Node41</title>
<g id="a_node41"><a xlink:href="window_8h.html" target="_top" xlink:title=" ">
<polygon fill="white" stroke="#666666" points="863.45,-211.5 767.45,-211.5 767.45,-192.5 863.45,-192.5 863.45,-211.5"/>
<text text-anchor="middle" x="815.45" y="-199.5" font-family="Helvetica,sans-Serif" font-size="10.00">wayland/window.h</text>
</a>
</g>
</g>
<!-- Node39&#45;&gt;Node41 -->
<g id="edge72" class="edge">
<title>Node39&#45;&gt;Node41</title>
<path fill="none" stroke="#63b8ff" d="M1125.29,-253.49C1059.67,-242.8 943.64,-223.89 873.71,-212.49"/>
<polygon fill="#63b8ff" stroke="#63b8ff" points="874.17,-209.02 863.74,-210.87 873.04,-215.93 874.17,-209.02"/>
</g>
<!-- Node40&#45;&gt;Node16 -->
<g id="edge67" class="edge">
<title>Node40&#45;&gt;Node16</title>
<path fill="none" stroke="#63b8ff" d="M1232.64,-192.37C1231.77,-183.07 1230.36,-167.98 1229.23,-155.9"/>
<polygon fill="#63b8ff" stroke="#63b8ff" points="1232.71,-155.53 1228.29,-145.91 1225.74,-156.19 1232.71,-155.53"/>
</g>
<!-- Node40&#45;&gt;Node17 -->
<g id="edge68" class="edge">
<title>Node40&#45;&gt;Node17</title>
<path fill="none" stroke="#63b8ff" d="M1163.88,-196.8C1011.84,-187.44 659.3,-164.6 606.45,-151 604.72,-150.55 602.97,-150.02 601.22,-149.42"/>
<polygon fill="#63b8ff" stroke="#63b8ff" points="602.06,-145.99 591.48,-145.5 599.45,-152.48 602.06,-145.99"/>
</g>
<!-- Node40&#45;&gt;Node26 -->
<g id="edge69" class="edge">
<title>Node40&#45;&gt;Node26</title>
<path fill="none" stroke="#63b8ff" d="M1220.64,-192.37C1205.06,-181.87 1178.53,-164 1159.83,-151.4"/>
<polygon fill="#63b8ff" stroke="#63b8ff" points="1161.62,-148.38 1151.37,-145.7 1157.7,-154.19 1161.62,-148.38"/>
</g>
<!-- Node40&#45;&gt;Node32 -->
<g id="edge70" class="edge">
<title>Node40&#45;&gt;Node32</title>
<path fill="none" stroke="#63b8ff" d="M1250.45,-192.37C1271.68,-181.59 1308.23,-163.02 1333.1,-150.38"/>
<polygon fill="#63b8ff" stroke="#63b8ff" points="1335,-153.35 1342.33,-145.7 1331.83,-147.11 1335,-153.35"/>
</g>
<!-- Node41&#45;&gt;Node13 -->
<g id="edge73" class="edge">
<title>Node41&#45;&gt;Node13</title>
<path fill="none" stroke="#63b8ff" d="M850.53,-192.48C897.77,-180.91 979.26,-160.58 1008.45,-151 1010.12,-150.45 1011.82,-149.87 1013.53,-149.26"/>
<polygon fill="#63b8ff" stroke="#63b8ff" points="1015.14,-152.39 1023.26,-145.59 1012.66,-145.84 1015.14,-152.39"/>
</g>
<!-- Node41&#45;&gt;Node16 -->
<g id="edge74" class="edge">
<title>Node41&#45;&gt;Node16</title>
<path fill="none" stroke="#63b8ff" d="M863.52,-194.06C879.7,-191.76 897.85,-189.23 914.45,-187 1040.56,-170.09 1076.46,-187.13 1198.45,-151 1199.89,-150.57 1201.35,-150.08 1202.81,-149.54"/>
<polygon fill="#63b8ff" stroke="#63b8ff" points="1204.37,-152.68 1212.17,-145.52 1201.6,-146.25 1204.37,-152.68"/>
</g>
<!-- Node41&#45;&gt;Node18 -->
<g id="edge78" class="edge">
<title>Node41&#45;&gt;Node18</title>
<path fill="none" stroke="#63b8ff" d="M833.39,-192.37C856,-181.49 895.07,-162.69 921.33,-150.05"/>
<polygon fill="#63b8ff" stroke="#63b8ff" points="922.88,-153.19 930.38,-145.7 919.85,-146.88 922.88,-153.19"/>
</g>
<!-- Node41&#45;&gt;Node19 -->
<g id="edge77" class="edge">
<title>Node41&#45;&gt;Node19</title>
<path fill="none" stroke="#63b8ff" d="M784.34,-192.46C775.7,-190.37 766.26,-188.34 757.45,-187 637.07,-168.63 129.99,-209.67 213.45,-121 237.22,-95.75 748.87,-81.33 904.16,-77.52"/>
<polygon fill="#63b8ff" stroke="#63b8ff" points="904.38,-81.02 914.29,-77.28 904.21,-74.02 904.38,-81.02"/>
</g>
<!-- Node42 -->
<g id="node42" class="node">
<title>Node42</title>
<g id="a_node42"><a xlink:title=" ">
<polygon fill="#e0e0e0" stroke="#999999" points="271.95,-145.5 222.95,-145.5 222.95,-126.5 271.95,-126.5 271.95,-145.5"/>
<text text-anchor="middle" x="247.45" y="-133.5" font-family="Helvetica,sans-Serif" font-size="10.00">cassert</text>
</a>
</g>
</g>
<!-- Node41&#45;&gt;Node42 -->
<g id="edge75" class="edge">
<title>Node41&#45;&gt;Node42</title>
<path fill="none" stroke="#63b8ff" d="M784.03,-192.44C775.47,-190.37 766.15,-188.37 757.45,-187 547.44,-153.95 487.05,-201.18 280.45,-151 278.29,-150.47 276.09,-149.82 273.9,-149.09"/>
<polygon fill="#63b8ff" stroke="#63b8ff" points="275.15,-145.82 264.56,-145.5 272.64,-152.36 275.15,-145.82"/>
</g>
<!-- Node43 -->
<g id="node43" class="node">
<title>Node43</title>
<g id="a_node43"><a xlink:title=" ">
<polygon fill="#e0e0e0" stroke="#999999" points="414.95,-145.5 289.95,-145.5 289.95,-126.5 414.95,-126.5 414.95,-145.5"/>
<text text-anchor="middle" x="352.45" y="-133.5" font-family="Helvetica,sans-Serif" font-size="10.00">agl&#45;shell&#45;client&#45;protocol.h</text>
</a>
</g>
</g>
<!-- Node41&#45;&gt;Node43 -->
<g id="edge76" class="edge">
<title>Node41&#45;&gt;Node43</title>
<path fill="none" stroke="#63b8ff" d="M783.4,-192.48C775,-190.46 765.92,-188.47 757.45,-187 610.79,-161.48 571.65,-173.23 424.45,-151 417.6,-149.97 410.41,-148.74 403.33,-147.45"/>
<polygon fill="#63b8ff" stroke="#63b8ff" points="403.57,-143.93 393.09,-145.52 402.27,-150.81 403.57,-143.93"/>
</g>
<!-- Node44 -->
<g id="node44" class="node">
<title>Node44</title>
<g id="a_node44"><a xlink:title=" ">
<polygon fill="#e0e0e0" stroke="#999999" points="535.45,-151 433.45,-151 433.45,-121 535.45,-121 535.45,-151"/>
<text text-anchor="start" x="441.45" y="-139" font-family="Helvetica,sans-Serif" font-size="10.00">ivi&#45;application&#45;client</text>
<text text-anchor="middle" x="484.45" y="-128" font-family="Helvetica,sans-Serif" font-size="10.00">&#45;protocol.h</text>
</a>
</g>
</g>
<!-- Node41&#45;&gt;Node44 -->
<g id="edge79" class="edge">
<title>Node41&#45;&gt;Node44</title>
<path fill="none" stroke="#63b8ff" d="M781.81,-192.46C773.84,-190.56 765.37,-188.62 757.45,-187 666.52,-168.36 640.31,-169.8 545.49,-151.13"/>
<polygon fill="#63b8ff" stroke="#63b8ff" points="545.96,-147.65 535.47,-149.13 544.59,-154.52 545.96,-147.65"/>
</g>
<!-- Node45 -->
<g id="node45" class="node">
<title>Node45</title>
<g id="a_node45"><a xlink:title=" ">
<polygon fill="#e0e0e0" stroke="#999999" points="732.95,-145.5 615.95,-145.5 615.95,-126.5 732.95,-126.5 732.95,-145.5"/>
<text text-anchor="middle" x="674.45" y="-133.5" font-family="Helvetica,sans-Serif" font-size="10.00">ivi&#45;wm&#45;client&#45;protocol.h</text>
</a>
</g>
</g>
<!-- Node41&#45;&gt;Node45 -->
<g id="edge80" class="edge">
<title>Node41&#45;&gt;Node45</title>
<path fill="none" stroke="#63b8ff" d="M796.44,-192.37C772.37,-181.44 730.68,-162.52 702.84,-149.88"/>
<polygon fill="#63b8ff" stroke="#63b8ff" points="704.17,-146.65 693.62,-145.7 701.28,-153.02 704.17,-146.65"/>
</g>
<!-- Node46 -->
<g id="node46" class="node">
<title>Node46</title>
<g id="a_node46"><a xlink:title=" ">
<polygon fill="#e0e0e0" stroke="#999999" points="879.45,-145.5 751.45,-145.5 751.45,-126.5 879.45,-126.5 879.45,-145.5"/>
<text text-anchor="middle" x="815.45" y="-133.5" font-family="Helvetica,sans-Serif" font-size="10.00">xdg&#45;shell&#45;client&#45;protocol.h</text>
</a>
</g>
</g>
<!-- Node41&#45;&gt;Node46 -->
<g id="edge81" class="edge">
<title>Node41&#45;&gt;Node46</title>
<path fill="none" stroke="#63b8ff" d="M815.45,-192.37C815.45,-183.16 815.45,-168.29 815.45,-156.27"/>
<polygon fill="#63b8ff" stroke="#63b8ff" points="818.95,-155.91 815.45,-145.91 811.95,-155.91 818.95,-155.91"/>
</g>
</g>
</svg>
