<?xml version="1.0" encoding="UTF-8" standalone="no"?>
<!DOCTYPE svg PUBLIC "-//W3C//DTD SVG 1.1//EN"
 "http://www.w3.org/Graphics/SVG/1.1/DTD/svg11.dtd">
<!-- Generated by graphviz version 2.43.0 (0)
 -->
<!-- Title: /home/joel.winarske@toyotaconnected.com/development/stargate/ivi&#45;homescreen/shell/static_plugins/comp_region/comp_region.cc Pages: 1 -->
<svg width="2487pt" height="530pt"
 viewBox="0.00 0.00 2486.53 530.00" xmlns="http://www.w3.org/2000/svg" xmlns:xlink="http://www.w3.org/1999/xlink">
<g id="graph0" class="graph" transform="scale(1 1) rotate(0) translate(4 526)">
<title>/home/joel.winarske@toyotaconnected.com/development/stargate/ivi&#45;homescreen/shell/static_plugins/comp_region/comp_region.cc</title>
<polygon fill="white" stroke="transparent" points="-4,4 -4,-526 2482.53,-526 2482.53,4 -4,4"/>
<!-- Node1 -->
<g id="node1" class="node">
<title>Node1</title>
<g id="a_node1"><a xlink:title=" ">
<polygon fill="#bfbfbf" stroke="black" points="1066.5,-447.5 1066.5,-521.5 1219.5,-521.5 1219.5,-447.5 1066.5,-447.5"/>
<text text-anchor="start" x="1074.5" y="-509.5" font-family="Helvetica,sans-Serif" font-size="10.00">/home/joel.winarske</text>
<text text-anchor="start" x="1074.5" y="-498.5" font-family="Helvetica,sans-Serif" font-size="10.00">@toyotaconnected.com</text>
<text text-anchor="start" x="1074.5" y="-487.5" font-family="Helvetica,sans-Serif" font-size="10.00">/development/stargate</text>
<text text-anchor="start" x="1074.5" y="-476.5" font-family="Helvetica,sans-Serif" font-size="10.00">/ivi&#45;homescreen/shell</text>
<text text-anchor="start" x="1074.5" y="-465.5" font-family="Helvetica,sans-Serif" font-size="10.00">/static_plugins/comp_region</text>
<text text-anchor="middle" x="1143" y="-454.5" font-family="Helvetica,sans-Serif" font-size="10.00">/comp_region.cc</text>
</a>
</g>
</g>
<!-- Node2 -->
<g id="node2" class="node">
<title>Node2</title>
<g id="a_node2"><a xlink:href="comp__region_8h.html" target="_top" xlink:title=" ">
<polygon fill="white" stroke="black" points="117.5,-386 117.5,-405 206.5,-405 206.5,-386 117.5,-386"/>
<text text-anchor="middle" x="162" y="-393" font-family="Helvetica,sans-Serif" font-size="10.00">comp_region.h</text>
</a>
</g>
</g>
<!-- Node1&#45;&gt;Node2 -->
<g id="edge1" class="edge">
<title>Node1&#45;&gt;Node2</title>
<path fill="none" stroke="midnightblue" d="M1066.43,-476.71C875.59,-459.79 382.3,-416.04 216.95,-401.37"/>
<polygon fill="midnightblue" stroke="midnightblue" points="216.81,-397.85 206.54,-400.45 216.19,-404.82 216.81,-397.85"/>
</g>
<!-- Node5 -->
<g id="node5" class="node">
<title>Node5</title>
<g id="a_node5"><a xlink:href="flutter__view_8h.html" target="_top" xlink:title=" ">
<polygon fill="white" stroke="black" points="1098,-380.5 1098,-410.5 1188,-410.5 1188,-380.5 1098,-380.5"/>
<text text-anchor="start" x="1106" y="-398.5" font-family="Helvetica,sans-Serif" font-size="10.00">../../view/flutter</text>
<text text-anchor="middle" x="1143" y="-387.5" font-family="Helvetica,sans-Serif" font-size="10.00">_view.h</text>
</a>
</g>
</g>
<!-- Node1&#45;&gt;Node5 -->
<g id="edge4" class="edge">
<title>Node1&#45;&gt;Node5</title>
<path fill="none" stroke="midnightblue" d="M1143,-447.36C1143,-438.4 1143,-429.01 1143,-420.78"/>
<polygon fill="midnightblue" stroke="midnightblue" points="1146.5,-420.74 1143,-410.74 1139.5,-420.74 1146.5,-420.74"/>
</g>
<!-- Node20 -->
<g id="node20" class="node">
<title>Node20</title>
<g id="a_node20"><a xlink:href="engine_8h.html" target="_top" xlink:title=" ">
<polygon fill="white" stroke="black" points="1385.5,-201.5 1385.5,-220.5 1444.5,-220.5 1444.5,-201.5 1385.5,-201.5"/>
<text text-anchor="middle" x="1415" y="-208.5" font-family="Helvetica,sans-Serif" font-size="10.00">engine.h</text>
</a>
</g>
</g>
<!-- Node1&#45;&gt;Node20 -->
<g id="edge73" class="edge">
<title>Node1&#45;&gt;Node20</title>
<path fill="none" stroke="midnightblue" d="M1179.12,-447.45C1238.85,-387.82 1355.88,-271.01 1398.76,-228.21"/>
<polygon fill="midnightblue" stroke="midnightblue" points="1401.49,-230.44 1406.09,-220.89 1396.54,-225.48 1401.49,-230.44"/>
</g>
<!-- Node3 -->
<g id="node3" class="node">
<title>Node3</title>
<g id="a_node3"><a xlink:title=" ">
<polygon fill="white" stroke="#bfbfbf" points="0,-313.5 0,-343.5 134,-343.5 134,-313.5 0,-313.5"/>
<text text-anchor="start" x="8" y="-331.5" font-family="Helvetica,sans-Serif" font-size="10.00">flutter/standard_method</text>
<text text-anchor="middle" x="67" y="-320.5" font-family="Helvetica,sans-Serif" font-size="10.00">_codec.h</text>
</a>
</g>
</g>
<!-- Node2&#45;&gt;Node3 -->
<g id="edge2" class="edge">
<title>Node2&#45;&gt;Node3</title>
<path fill="none" stroke="midnightblue" d="M149.19,-385.73C135.61,-376.44 113.71,-361.46 95.93,-349.3"/>
<polygon fill="midnightblue" stroke="midnightblue" points="97.82,-346.35 87.59,-343.59 93.87,-352.12 97.82,-346.35"/>
</g>
<!-- Node4 -->
<g id="node4" class="node">
<title>Node4</title>
<g id="a_node4"><a xlink:title=" ">
<polygon fill="white" stroke="#bfbfbf" points="457.5,-0.5 457.5,-30.5 594.5,-30.5 594.5,-0.5 457.5,-0.5"/>
<text text-anchor="start" x="465.5" y="-18.5" font-family="Helvetica,sans-Serif" font-size="10.00">shell/platform/embedder</text>
<text text-anchor="middle" x="526" y="-7.5" font-family="Helvetica,sans-Serif" font-size="10.00">/embedder.h</text>
</a>
</g>
</g>
<!-- Node2&#45;&gt;Node4 -->
<g id="edge3" class="edge">
<title>Node2&#45;&gt;Node4</title>
<path fill="none" stroke="midnightblue" d="M162,-385.91C162,-365.48 162,-312.36 162,-268 162,-268 162,-268 162,-148.5 162,-108.53 168.04,-91 200,-67 237.96,-38.5 363.44,-25.73 447.19,-20.28"/>
<polygon fill="midnightblue" stroke="midnightblue" points="447.42,-23.77 457.18,-19.65 446.98,-16.78 447.42,-23.77"/>
</g>
<!-- Node6 -->
<g id="node6" class="node">
<title>Node6</title>
<g id="a_node6"><a xlink:title=" ">
<polygon fill="white" stroke="#bfbfbf" points="2206,-73 2206,-92 2244,-92 2244,-73 2206,-73"/>
<text text-anchor="middle" x="2225" y="-80" font-family="Helvetica,sans-Serif" font-size="10.00">map</text>
</a>
</g>
</g>
<!-- Node5&#45;&gt;Node6 -->
<g id="edge5" class="edge">
<title>Node5&#45;&gt;Node6</title>
<path fill="none" stroke="midnightblue" d="M1188.29,-393.98C1391.95,-391.08 2213,-372.87 2213,-268 2213,-268 2213,-268 2213,-210 2213,-171.53 2218.57,-126.77 2222.12,-102.14"/>
<polygon fill="midnightblue" stroke="midnightblue" points="2225.61,-102.47 2223.62,-92.06 2218.69,-101.44 2225.61,-102.47"/>
</g>
<!-- Node7 -->
<g id="node7" class="node">
<title>Node7</title>
<g id="a_node7"><a xlink:title=" ">
<polygon fill="white" stroke="#bfbfbf" points="1992,-73 1992,-92 2050,-92 2050,-73 1992,-73"/>
<text text-anchor="middle" x="2021" y="-80" font-family="Helvetica,sans-Serif" font-size="10.00">memory</text>
</a>
</g>
</g>
<!-- Node5&#45;&gt;Node7 -->
<g id="edge6" class="edge">
<title>Node5&#45;&gt;Node7</title>
<path fill="none" stroke="midnightblue" d="M1179.97,-380.42C1285.99,-340.19 1600.42,-222.03 1865,-134 1917.03,-116.69 1931.13,-115.78 1983,-98 1985.25,-97.23 1987.57,-96.41 1989.9,-95.56"/>
<polygon fill="midnightblue" stroke="midnightblue" points="1991.24,-98.8 1999.39,-92.04 1988.8,-92.24 1991.24,-98.8"/>
</g>
<!-- Node8 -->
<g id="node8" class="node">
<title>Node8</title>
<g id="a_node8"><a xlink:href="configuration_8h.html" target="_top" xlink:title=" ">
<polygon fill="white" stroke="black" points="537,-140 537,-159 693,-159 693,-140 537,-140"/>
<text text-anchor="middle" x="615" y="-147" font-family="Helvetica,sans-Serif" font-size="10.00">configuration/configuration.h</text>
</a>
</g>
</g>
<!-- Node5&#45;&gt;Node8 -->
<g id="edge7" class="edge">
<title>Node5&#45;&gt;Node8</title>
<path fill="none" stroke="midnightblue" d="M1127.18,-380.48C1095.71,-353.21 1022.12,-292.61 951,-257 855.11,-208.98 733.04,-176.8 665.58,-161.27"/>
<polygon fill="midnightblue" stroke="midnightblue" points="666.15,-157.81 655.63,-159.01 664.6,-164.64 666.15,-157.81"/>
</g>
<!-- Node11 -->
<g id="node11" class="node">
<title>Node11</title>
<g id="a_node11"><a xlink:title=" ">
<polygon fill="white" stroke="#bfbfbf" points="384.5,-73 384.5,-92 497.5,-92 497.5,-73 384.5,-73"/>
<text text-anchor="middle" x="441" y="-80" font-family="Helvetica,sans-Serif" font-size="10.00">flutter/fml/macros.h</text>
</a>
</g>
</g>
<!-- Node5&#45;&gt;Node11 -->
<g id="edge12" class="edge">
<title>Node5&#45;&gt;Node11</title>
<path fill="none" stroke="midnightblue" d="M1097.99,-394.51C954.7,-393.49 513.69,-381.75 430,-277 388.71,-225.32 417.32,-138.9 432.83,-101.57"/>
<polygon fill="midnightblue" stroke="midnightblue" points="436.2,-102.6 436.96,-92.04 429.77,-99.82 436.2,-102.6"/>
</g>
<!-- Node13 -->
<g id="node13" class="node">
<title>Node13</title>
<g id="a_node13"><a xlink:href="window_8h.html" target="_top" xlink:title=" ">
<polygon fill="white" stroke="black" points="735.5,-319 735.5,-338 842.5,-338 842.5,-319 735.5,-319"/>
<text text-anchor="middle" x="789" y="-326" font-family="Helvetica,sans-Serif" font-size="10.00">wayland/window.h</text>
</a>
</g>
</g>
<!-- Node5&#45;&gt;Node13 -->
<g id="edge13" class="edge">
<title>Node5&#45;&gt;Node13</title>
<path fill="none" stroke="midnightblue" d="M1097.81,-386.2C1033.41,-374.38 915.3,-352.69 845.3,-339.84"/>
<polygon fill="midnightblue" stroke="midnightblue" points="845.8,-336.37 835.33,-338.01 844.53,-343.26 845.8,-336.37"/>
</g>
<!-- Node9 -->
<g id="node9" class="node">
<title>Node9</title>
<g id="a_node9"><a xlink:title=" ">
<polygon fill="white" stroke="#bfbfbf" points="1366,-73 1366,-92 1410,-92 1410,-73 1366,-73"/>
<text text-anchor="middle" x="1388" y="-80" font-family="Helvetica,sans-Serif" font-size="10.00">string</text>
</a>
</g>
</g>
<!-- Node8&#45;&gt;Node9 -->
<g id="edge8" class="edge">
<title>Node8&#45;&gt;Node9</title>
<path fill="none" stroke="midnightblue" d="M693.05,-143.93C876.92,-133.06 1324.27,-105.99 1356,-98 1358.21,-97.44 1360.46,-96.74 1362.68,-95.94"/>
<polygon fill="midnightblue" stroke="midnightblue" points="1364.22,-99.1 1372.13,-92.04 1361.55,-92.63 1364.22,-99.1"/>
</g>
<!-- Node10 -->
<g id="node10" class="node">
<title>Node10</title>
<g id="a_node10"><a xlink:title=" ">
<polygon fill="white" stroke="#bfbfbf" points="319.5,-73 319.5,-92 366.5,-92 366.5,-73 319.5,-73"/>
<text text-anchor="middle" x="343" y="-80" font-family="Helvetica,sans-Serif" font-size="10.00">vector</text>
</a>
</g>
</g>
<!-- Node8&#45;&gt;Node10 -->
<g id="edge9" class="edge">
<title>Node8&#45;&gt;Node10</title>
<path fill="none" stroke="midnightblue" d="M557.34,-140C508.14,-131.89 435.9,-117.94 375,-98 373.13,-97.39 371.22,-96.7 369.32,-95.96"/>
<polygon fill="midnightblue" stroke="midnightblue" points="370.57,-92.69 360,-92.03 367.85,-99.14 370.57,-92.69"/>
</g>
<!-- Node8&#45;&gt;Node11 -->
<g id="edge10" class="edge">
<title>Node8&#45;&gt;Node11</title>
<path fill="none" stroke="midnightblue" d="M591.89,-139.87C561.52,-128.52 507.99,-108.52 473.53,-95.65"/>
<polygon fill="midnightblue" stroke="midnightblue" points="474.52,-92.28 463.92,-92.06 472.07,-98.84 474.52,-92.28"/>
</g>
<!-- Node12 -->
<g id="node12" class="node">
<title>Node12</title>
<g id="a_node12"><a xlink:title=" ">
<polygon fill="white" stroke="#bfbfbf" points="554,-73 554,-92 676,-92 676,-73 554,-73"/>
<text text-anchor="middle" x="615" y="-80" font-family="Helvetica,sans-Serif" font-size="10.00">rapidjson/document.h</text>
</a>
</g>
</g>
<!-- Node8&#45;&gt;Node12 -->
<g id="edge11" class="edge">
<title>Node8&#45;&gt;Node12</title>
<path fill="none" stroke="midnightblue" d="M615,-139.73C615,-130.18 615,-114.62 615,-102.28"/>
<polygon fill="midnightblue" stroke="midnightblue" points="618.5,-102.13 615,-92.13 611.5,-102.13 618.5,-102.13"/>
</g>
<!-- Node13&#45;&gt;Node7 -->
<g id="edge14" class="edge">
<title>Node13&#45;&gt;Node7</title>
<path fill="none" stroke="midnightblue" d="M842.72,-321.17C881.72,-314.69 934.52,-301.87 975,-277 1047.93,-232.19 1026.52,-170.37 1104,-134 1192.48,-92.46 1887.25,-117.68 1983,-98 1986.08,-97.37 1989.24,-96.51 1992.36,-95.54"/>
<polygon fill="midnightblue" stroke="midnightblue" points="1993.77,-98.75 2002.03,-92.12 1991.44,-92.15 1993.77,-98.75"/>
</g>
<!-- Node13&#45;&gt;Node9 -->
<g id="edge15" class="edge">
<title>Node13&#45;&gt;Node9</title>
<path fill="none" stroke="midnightblue" d="M842.57,-321C876.63,-314.57 919.98,-301.89 951,-277 1008.14,-231.15 971.74,-174.19 1033,-134 1093.39,-94.39 1286.36,-117.14 1356,-98 1358.15,-97.41 1360.34,-96.69 1362.51,-95.89"/>
<polygon fill="midnightblue" stroke="midnightblue" points="1363.87,-99.12 1371.76,-92.05 1361.18,-92.66 1363.87,-99.12"/>
</g>
<!-- Node14 -->
<g id="node14" class="node">
<title>Node14</title>
<g id="a_node14"><a xlink:title=" ">
<polygon fill="white" stroke="#bfbfbf" points="567,-257.5 567,-276.5 619,-276.5 619,-257.5 567,-257.5"/>
<text text-anchor="middle" x="593" y="-264.5" font-family="Helvetica,sans-Serif" font-size="10.00">cassert</text>
</a>
</g>
</g>
<!-- Node13&#45;&gt;Node14 -->
<g id="edge16" class="edge">
<title>Node13&#45;&gt;Node14</title>
<path fill="none" stroke="midnightblue" d="M760.92,-318.98C726.13,-308.42 666.82,-290.41 628.8,-278.87"/>
<polygon fill="midnightblue" stroke="midnightblue" points="629.74,-275.49 619.15,-275.94 627.7,-282.19 629.74,-275.49"/>
</g>
<!-- Node15 -->
<g id="node15" class="node">
<title>Node15</title>
<g id="a_node15"><a xlink:title=" ">
<polygon fill="white" stroke="#bfbfbf" points="637,-257.5 637,-276.5 779,-276.5 779,-257.5 637,-257.5"/>
<text text-anchor="middle" x="708" y="-264.5" font-family="Helvetica,sans-Serif" font-size="10.00">agl&#45;shell&#45;client&#45;protocol.h</text>
</a>
</g>
</g>
<!-- Node13&#45;&gt;Node15 -->
<g id="edge17" class="edge">
<title>Node13&#45;&gt;Node15</title>
<path fill="none" stroke="midnightblue" d="M777.39,-318.98C764.52,-309.52 743.53,-294.1 727.99,-282.69"/>
<polygon fill="midnightblue" stroke="midnightblue" points="729.72,-279.61 719.58,-276.51 725.57,-285.25 729.72,-279.61"/>
</g>
<!-- Node16 -->
<g id="node16" class="node">
<title>Node16</title>
<g id="a_node16"><a xlink:href="constants_8h.html" target="_top" xlink:title=" ">
<polygon fill="white" stroke="black" points="228.5,-73 228.5,-92 301.5,-92 301.5,-73 228.5,-73"/>
<text text-anchor="middle" x="265" y="-80" font-family="Helvetica,sans-Serif" font-size="10.00">constants.h</text>
</a>
</g>
</g>
<!-- Node13&#45;&gt;Node16 -->
<g id="edge18" class="edge">
<title>Node13&#45;&gt;Node16</title>
<path fill="none" stroke="midnightblue" d="M735.46,-324.42C648.71,-318.69 481.9,-304.41 430,-277 351.71,-235.65 294.83,-140.34 273.85,-100.99"/>
<polygon fill="midnightblue" stroke="midnightblue" points="276.92,-99.31 269.2,-92.05 270.72,-102.54 276.92,-99.31"/>
</g>
<!-- Node19 -->
<g id="node19" class="node">
<title>Node19</title>
<g id="a_node19"><a xlink:href="backend_8h.html" target="_top" xlink:title=" ">
<polygon fill="white" stroke="black" points="439,-257.5 439,-276.5 549,-276.5 549,-257.5 439,-257.5"/>
<text text-anchor="middle" x="494" y="-264.5" font-family="Helvetica,sans-Serif" font-size="10.00">backend/backend.h</text>
</a>
</g>
</g>
<!-- Node13&#45;&gt;Node19 -->
<g id="edge22" class="edge">
<title>Node13&#45;&gt;Node19</title>
<path fill="none" stroke="midnightblue" d="M746.73,-318.98C693.83,-308.3 603.24,-290.03 546.1,-278.51"/>
<polygon fill="midnightblue" stroke="midnightblue" points="546.68,-275.06 536.19,-276.51 545.3,-281.92 546.68,-275.06"/>
</g>
<!-- Node39 -->
<g id="node39" class="node">
<title>Node39</title>
<g id="a_node39"><a xlink:title=" ">
<polygon fill="white" stroke="#bfbfbf" points="797.5,-257.5 797.5,-276.5 942.5,-276.5 942.5,-257.5 797.5,-257.5"/>
<text text-anchor="middle" x="870" y="-264.5" font-family="Helvetica,sans-Serif" font-size="10.00">xdg&#45;shell&#45;client&#45;protocol.h</text>
</a>
</g>
</g>
<!-- Node13&#45;&gt;Node39 -->
<g id="edge72" class="edge">
<title>Node13&#45;&gt;Node39</title>
<path fill="none" stroke="midnightblue" d="M800.61,-318.98C813.48,-309.52 834.47,-294.1 850.01,-282.69"/>
<polygon fill="midnightblue" stroke="midnightblue" points="852.43,-285.25 858.42,-276.51 848.28,-279.61 852.43,-285.25"/>
</g>
<!-- Node16&#45;&gt;Node4 -->
<g id="edge20" class="edge">
<title>Node16&#45;&gt;Node4</title>
<path fill="none" stroke="midnightblue" d="M290.59,-72.85C296.91,-70.83 303.67,-68.76 310,-67 356.04,-54.22 408.18,-41.97 449.7,-32.74"/>
<polygon fill="midnightblue" stroke="midnightblue" points="450.46,-36.15 459.47,-30.57 448.95,-29.32 450.46,-36.15"/>
</g>
<!-- Node17 -->
<g id="node17" class="node">
<title>Node17</title>
<g id="a_node17"><a xlink:title=" ">
<polygon fill="white" stroke="#bfbfbf" points="1531,-6 1531,-25 1593,-25 1593,-6 1531,-6"/>
<text text-anchor="middle" x="1562" y="-13" font-family="Helvetica,sans-Serif" font-size="10.00">EGL/egl.h</text>
</a>
</g>
</g>
<!-- Node16&#45;&gt;Node17 -->
<g id="edge19" class="edge">
<title>Node16&#45;&gt;Node17</title>
<path fill="none" stroke="midnightblue" d="M287.59,-72.9C294.66,-70.57 302.57,-68.32 310,-67 550.42,-24.24 1332.05,-17.64 1520.73,-16.66"/>
<polygon fill="midnightblue" stroke="midnightblue" points="1520.81,-20.16 1530.79,-16.61 1520.77,-13.16 1520.81,-20.16"/>
</g>
<!-- Node18 -->
<g id="node18" class="node">
<title>Node18</title>
<g id="a_node18"><a xlink:title=" ">
<polygon fill="white" stroke="#bfbfbf" points="244,-6 244,-25 286,-25 286,-6 244,-6"/>
<text text-anchor="middle" x="265" y="-13" font-family="Helvetica,sans-Serif" font-size="10.00">array</text>
</a>
</g>
</g>
<!-- Node16&#45;&gt;Node18 -->
<g id="edge21" class="edge">
<title>Node16&#45;&gt;Node18</title>
<path fill="none" stroke="midnightblue" d="M265,-72.73C265,-63.18 265,-47.62 265,-35.28"/>
<polygon fill="midnightblue" stroke="midnightblue" points="268.5,-35.13 265,-25.13 261.5,-35.13 268.5,-35.13"/>
</g>
<!-- Node19&#45;&gt;Node4 -->
<g id="edge23" class="edge">
<title>Node19&#45;&gt;Node4</title>
<path fill="none" stroke="midnightblue" d="M460.25,-257.49C370.79,-233.41 139.67,-160.45 219,-67 247.7,-33.19 365.92,-21.97 446.99,-18.28"/>
<polygon fill="midnightblue" stroke="midnightblue" points="447.34,-21.77 457.18,-17.85 447.04,-14.78 447.34,-21.77"/>
</g>
<!-- Node19&#45;&gt;Node16 -->
<g id="edge24" class="edge">
<title>Node19&#45;&gt;Node16</title>
<path fill="none" stroke="midnightblue" d="M483.26,-257.44C447.13,-228.64 329.63,-135 283.67,-98.38"/>
<polygon fill="midnightblue" stroke="midnightblue" points="285.72,-95.53 275.71,-92.04 281.35,-101.01 285.72,-95.53"/>
</g>
<!-- Node19&#45;&gt;Node20 -->
<g id="edge25" class="edge">
<title>Node19&#45;&gt;Node20</title>
<path fill="none" stroke="midnightblue" d="M544.26,-257.48C545.85,-257.31 547.44,-257.15 549,-257 866.39,-226.41 1252.05,-215.52 1375.27,-212.77"/>
<polygon fill="midnightblue" stroke="midnightblue" points="1375.45,-216.26 1385.37,-212.55 1375.3,-209.26 1375.45,-216.26"/>
</g>
<!-- Node20&#45;&gt;Node4 -->
<g id="edge30" class="edge">
<title>Node20&#45;&gt;Node4</title>
<path fill="none" stroke="midnightblue" d="M1444.56,-210.35C1625.01,-211.99 2565.81,-213.66 2423,-67 2406.88,-50.45 961.29,-24.11 604.78,-17.86"/>
<polygon fill="midnightblue" stroke="midnightblue" points="604.62,-14.36 594.56,-17.68 604.49,-21.36 604.62,-14.36"/>
</g>
<!-- Node20&#45;&gt;Node5 -->
<g id="edge71" class="edge">
<title>Node20&#45;&gt;Node5</title>
<path fill="none" stroke="midnightblue" d="M1402.16,-220.62C1360.91,-248.29 1231.07,-335.41 1172.35,-374.81"/>
<polygon fill="midnightblue" stroke="midnightblue" points="1170.25,-372 1163.89,-380.48 1174.15,-377.82 1170.25,-372"/>
</g>
<!-- Node20&#45;&gt;Node6 -->
<g id="edge31" class="edge">
<title>Node20&#45;&gt;Node6</title>
<path fill="none" stroke="midnightblue" d="M1444.56,-210.2C1530.39,-210.25 1786.66,-206.64 1994,-165 2040.57,-155.65 2153.21,-116.43 2197,-98 2198.03,-97.56 2199.08,-97.11 2200.14,-96.63"/>
<polygon fill="midnightblue" stroke="midnightblue" points="2202.05,-99.59 2209.51,-92.08 2198.99,-93.3 2202.05,-99.59"/>
</g>
<!-- Node20&#45;&gt;Node7 -->
<g id="edge32" class="edge">
<title>Node20&#45;&gt;Node7</title>
<path fill="none" stroke="midnightblue" d="M1444.52,-209.7C1497.07,-208.23 1609.47,-200.74 1696,-165 1717.78,-156.01 1717.17,-142.86 1739,-134 1840.57,-92.77 1876.94,-125.7 1983,-98 1985.82,-97.26 1988.71,-96.39 1991.59,-95.44"/>
<polygon fill="midnightblue" stroke="midnightblue" points="1992.92,-98.68 2001.15,-92.01 1990.56,-92.09 1992.92,-98.68"/>
</g>
<!-- Node20&#45;&gt;Node9 -->
<g id="edge35" class="edge">
<title>Node20&#45;&gt;Node9</title>
<path fill="none" stroke="midnightblue" d="M1385.45,-210.39C1314.99,-210.64 1140.29,-206.92 1104,-165 1094.98,-154.58 1094.97,-144.41 1104,-134 1141.06,-91.27 1301.69,-113.83 1356,-98 1357.93,-97.44 1359.9,-96.78 1361.86,-96.06"/>
<polygon fill="midnightblue" stroke="midnightblue" points="1363.51,-99.16 1371.4,-92.1 1360.82,-92.7 1363.51,-99.16"/>
</g>
<!-- Node20&#45;&gt;Node10 -->
<g id="edge36" class="edge">
<title>Node20&#45;&gt;Node10</title>
<path fill="none" stroke="midnightblue" d="M1385.18,-210.1C1250.13,-210.31 695.34,-208.44 528,-165 497.79,-157.16 493.51,-146.69 465,-134 425.64,-116.48 414.63,-114.89 375,-98 373.63,-97.42 372.24,-96.81 370.83,-96.2"/>
<polygon fill="midnightblue" stroke="midnightblue" points="372.11,-92.94 361.55,-92.08 369.27,-99.34 372.11,-92.94"/>
</g>
<!-- Node20&#45;&gt;Node16 -->
<g id="edge38" class="edge">
<title>Node20&#45;&gt;Node16</title>
<path fill="none" stroke="midnightblue" d="M1385.11,-209.56C1233.57,-207.19 553.89,-194.98 465,-165 441.99,-157.24 441.77,-144.76 420,-134 417.24,-132.63 346.37,-109.71 301.43,-95.23"/>
<polygon fill="midnightblue" stroke="midnightblue" points="302.31,-91.83 291.72,-92.1 300.16,-98.49 302.31,-91.83"/>
</g>
<!-- Node20&#45;&gt;Node17 -->
<g id="edge27" class="edge">
<title>Node20&#45;&gt;Node17</title>
<path fill="none" stroke="midnightblue" d="M1444.73,-209.86C1611.05,-208.93 2420.09,-202.5 2456,-165 2486.13,-133.54 2485.92,-98.65 2456,-67 2426.36,-35.63 1775.24,-20.68 1603.32,-17.27"/>
<polygon fill="midnightblue" stroke="midnightblue" points="1603.23,-13.77 1593.16,-17.07 1603.09,-20.77 1603.23,-13.77"/>
</g>
<!-- Node20&#45;&gt;Node19 -->
<g id="edge37" class="edge">
<title>Node20&#45;&gt;Node19</title>
<path fill="none" stroke="midnightblue" d="M1385.45,-212.7C1276.31,-215.34 886.96,-226.16 567,-257 564.37,-257.25 561.68,-257.54 558.96,-257.84"/>
<polygon fill="midnightblue" stroke="midnightblue" points="558.53,-254.37 549.01,-259.03 559.36,-261.32 558.53,-254.37"/>
</g>
<!-- Node21 -->
<g id="node21" class="node">
<title>Node21</title>
<g id="a_node21"><a xlink:title=" ">
<polygon fill="white" stroke="#bfbfbf" points="1113.5,-140 1113.5,-159 1178.5,-159 1178.5,-140 1113.5,-140"/>
<text text-anchor="middle" x="1146" y="-147" font-family="Helvetica,sans-Serif" font-size="10.00">functional</text>
</a>
</g>
</g>
<!-- Node20&#45;&gt;Node21 -->
<g id="edge26" class="edge">
<title>Node20&#45;&gt;Node21</title>
<path fill="none" stroke="midnightblue" d="M1385.32,-205.45C1341.68,-198.45 1257.81,-183.88 1188,-165 1184.97,-164.18 1181.84,-163.26 1178.72,-162.28"/>
<polygon fill="midnightblue" stroke="midnightblue" points="1179.52,-158.86 1168.93,-159.05 1177.33,-165.51 1179.52,-158.86"/>
</g>
<!-- Node22 -->
<g id="node22" class="node">
<title>Node22</title>
<g id="a_node22"><a xlink:title=" ">
<polygon fill="white" stroke="#bfbfbf" points="1197,-140 1197,-159 1271,-159 1271,-140 1197,-140"/>
<text text-anchor="middle" x="1234" y="-147" font-family="Helvetica,sans-Serif" font-size="10.00">GLES2/gl2.h</text>
</a>
</g>
</g>
<!-- Node20&#45;&gt;Node22 -->
<g id="edge28" class="edge">
<title>Node20&#45;&gt;Node22</title>
<path fill="none" stroke="midnightblue" d="M1389.07,-201.48C1357.75,-191.18 1304.91,-173.81 1269.74,-162.25"/>
<polygon fill="midnightblue" stroke="midnightblue" points="1270.48,-158.81 1259.88,-159.01 1268.29,-165.46 1270.48,-158.81"/>
</g>
<!-- Node23 -->
<g id="node23" class="node">
<title>Node23</title>
<g id="a_node23"><a xlink:title=" ">
<polygon fill="white" stroke="#bfbfbf" points="1289,-140 1289,-159 1429,-159 1429,-140 1289,-140"/>
<text text-anchor="middle" x="1359" y="-147" font-family="Helvetica,sans-Serif" font-size="10.00">flutter/encodable_value.h</text>
</a>
</g>
</g>
<!-- Node20&#45;&gt;Node23 -->
<g id="edge29" class="edge">
<title>Node20&#45;&gt;Node23</title>
<path fill="none" stroke="midnightblue" d="M1406.98,-201.48C1398.41,-192.37 1384.64,-177.74 1374.04,-166.48"/>
<polygon fill="midnightblue" stroke="midnightblue" points="1376.41,-163.89 1367.01,-159.01 1371.31,-168.69 1376.41,-163.89"/>
</g>
<!-- Node24 -->
<g id="node24" class="node">
<title>Node24</title>
<g id="a_node24"><a xlink:title=" ">
<polygon fill="white" stroke="#bfbfbf" points="1447,-140 1447,-159 1495,-159 1495,-140 1447,-140"/>
<text text-anchor="middle" x="1471" y="-147" font-family="Helvetica,sans-Serif" font-size="10.00">mutex</text>
</a>
</g>
</g>
<!-- Node20&#45;&gt;Node24 -->
<g id="edge33" class="edge">
<title>Node20&#45;&gt;Node24</title>
<path fill="none" stroke="midnightblue" d="M1423.02,-201.48C1431.59,-192.37 1445.36,-177.74 1455.96,-166.48"/>
<polygon fill="midnightblue" stroke="midnightblue" points="1458.69,-168.69 1462.99,-159.01 1453.59,-163.89 1458.69,-168.69"/>
</g>
<!-- Node25 -->
<g id="node25" class="node">
<title>Node25</title>
<g id="a_node25"><a xlink:title=" ">
<polygon fill="white" stroke="#bfbfbf" points="1513.5,-140 1513.5,-159 1560.5,-159 1560.5,-140 1513.5,-140"/>
<text text-anchor="middle" x="1537" y="-147" font-family="Helvetica,sans-Serif" font-size="10.00">queue</text>
</a>
</g>
</g>
<!-- Node20&#45;&gt;Node25 -->
<g id="edge34" class="edge">
<title>Node20&#45;&gt;Node25</title>
<path fill="none" stroke="midnightblue" d="M1432.48,-201.48C1452.86,-191.53 1486.78,-174.99 1510.42,-163.46"/>
<polygon fill="midnightblue" stroke="midnightblue" points="1512.1,-166.54 1519.55,-159.01 1509.03,-160.25 1512.1,-166.54"/>
</g>
<!-- Node26 -->
<g id="node26" class="node">
<title>Node26</title>
<g id="a_node26"><a xlink:href="logging_8h.html" target="_top" xlink:title=" ">
<polygon fill="white" stroke="black" points="2111,-140 2111,-159 2173,-159 2173,-140 2111,-140"/>
<text text-anchor="middle" x="2142" y="-147" font-family="Helvetica,sans-Serif" font-size="10.00">logging.h</text>
</a>
</g>
</g>
<!-- Node20&#45;&gt;Node26 -->
<g id="edge39" class="edge">
<title>Node20&#45;&gt;Node26</title>
<path fill="none" stroke="midnightblue" d="M1444.71,-209.47C1537.91,-207.49 1832.67,-198.8 2074,-165 2082.68,-163.78 2091.9,-162.09 2100.67,-160.29"/>
<polygon fill="midnightblue" stroke="midnightblue" points="2101.63,-163.66 2110.68,-158.15 2100.17,-156.82 2101.63,-163.66"/>
</g>
<!-- Node28 -->
<g id="node28" class="node">
<title>Node28</title>
<g id="a_node28"><a xlink:href="platform__channel_8h.html" target="_top" xlink:title=" ">
<polygon fill="white" stroke="black" points="1874.5,-140 1874.5,-159 1985.5,-159 1985.5,-140 1874.5,-140"/>
<text text-anchor="middle" x="1930" y="-147" font-family="Helvetica,sans-Serif" font-size="10.00">platform_channel.h</text>
</a>
</g>
</g>
<!-- Node20&#45;&gt;Node28 -->
<g id="edge41" class="edge">
<title>Node20&#45;&gt;Node28</title>
<path fill="none" stroke="midnightblue" d="M1444.54,-206.59C1525.27,-197.26 1751.08,-171.17 1863.99,-158.13"/>
<polygon fill="midnightblue" stroke="midnightblue" points="1864.69,-161.57 1874.22,-156.94 1863.89,-154.61 1864.69,-161.57"/>
</g>
<!-- Node29 -->
<g id="node29" class="node">
<title>Node29</title>
<g id="a_node29"><a xlink:href="key__event_8h.html" target="_top" xlink:title=" ">
<polygon fill="white" stroke="black" points="869,-134.5 869,-164.5 981,-164.5 981,-134.5 869,-134.5"/>
<text text-anchor="start" x="877" y="-152.5" font-family="Helvetica,sans-Serif" font-size="10.00">static_plugins/key</text>
<text text-anchor="middle" x="925" y="-141.5" font-family="Helvetica,sans-Serif" font-size="10.00">_event/key_event.h</text>
</a>
</g>
</g>
<!-- Node20&#45;&gt;Node29 -->
<g id="edge45" class="edge">
<title>Node20&#45;&gt;Node29</title>
<path fill="none" stroke="midnightblue" d="M1385.45,-206.41C1308.28,-197.04 1099.2,-171.65 991.35,-158.56"/>
<polygon fill="midnightblue" stroke="midnightblue" points="991.58,-155.06 981.23,-157.33 990.74,-162.01 991.58,-155.06"/>
</g>
<!-- Node34 -->
<g id="node34" class="node">
<title>Node34</title>
<g id="a_node34"><a xlink:href="text__input_8h.html" target="_top" xlink:title=" ">
<polygon fill="white" stroke="black" points="1579,-134.5 1579,-164.5 1687,-164.5 1687,-134.5 1579,-134.5"/>
<text text-anchor="start" x="1587" y="-152.5" font-family="Helvetica,sans-Serif" font-size="10.00">static_plugins/text</text>
<text text-anchor="middle" x="1633" y="-141.5" font-family="Helvetica,sans-Serif" font-size="10.00">_input/text_input.h</text>
</a>
</g>
</g>
<!-- Node20&#45;&gt;Node34 -->
<g id="edge57" class="edge">
<title>Node20&#45;&gt;Node34</title>
<path fill="none" stroke="midnightblue" d="M1444.85,-201.85C1477.35,-192.98 1530.21,-178.56 1571.63,-167.25"/>
<polygon fill="midnightblue" stroke="midnightblue" points="1572.63,-170.6 1581.36,-164.59 1570.79,-163.85 1572.63,-170.6"/>
</g>
<!-- Node27 -->
<g id="node27" class="node">
<title>Node27</title>
<g id="a_node27"><a xlink:title=" ">
<polygon fill="white" stroke="#bfbfbf" points="2300.5,-73 2300.5,-92 2413.5,-92 2413.5,-73 2300.5,-73"/>
<text text-anchor="middle" x="2357" y="-80" font-family="Helvetica,sans-Serif" font-size="10.00">flutter/fml/logging.h</text>
</a>
</g>
</g>
<!-- Node26&#45;&gt;Node27 -->
<g id="edge40" class="edge">
<title>Node26&#45;&gt;Node27</title>
<path fill="none" stroke="midnightblue" d="M2170.55,-139.87C2208.73,-128.33 2276.51,-107.84 2318.98,-95"/>
<polygon fill="midnightblue" stroke="midnightblue" points="2320.11,-98.31 2328.67,-92.06 2318.09,-91.61 2320.11,-98.31"/>
</g>
<!-- Node28&#45;&gt;Node4 -->
<g id="edge44" class="edge">
<title>Node28&#45;&gt;Node4</title>
<path fill="none" stroke="midnightblue" d="M1985.75,-143.7C2073.54,-135.58 2235.86,-118.02 2253,-98 2261.96,-87.53 2262.6,-76.88 2253,-67 2223.91,-37.05 938.58,-20.99 604.62,-17.32"/>
<polygon fill="midnightblue" stroke="midnightblue" points="604.58,-13.82 594.55,-17.21 604.51,-20.82 604.58,-13.82"/>
</g>
<!-- Node28&#45;&gt;Node6 -->
<g id="edge42" class="edge">
<title>Node28&#45;&gt;Node6</title>
<path fill="none" stroke="midnightblue" d="M1985.28,-139.99C2051.62,-129.43 2158.7,-111.22 2197,-98 2198.42,-97.51 2199.86,-96.96 2201.3,-96.36"/>
<polygon fill="midnightblue" stroke="midnightblue" points="2202.98,-99.44 2210.53,-92.01 2200,-93.11 2202.98,-99.44"/>
</g>
<!-- Node28&#45;&gt;Node9 -->
<g id="edge43" class="edge">
<title>Node28&#45;&gt;Node9</title>
<path fill="none" stroke="midnightblue" d="M1874.42,-144.39C1785.78,-137.43 1607.09,-121.72 1457,-98 1444.97,-96.1 1431.86,-93.48 1420.33,-91"/>
<polygon fill="midnightblue" stroke="midnightblue" points="1420.79,-87.51 1410.27,-88.77 1419.28,-94.35 1420.79,-87.51"/>
</g>
<!-- Node29&#45;&gt;Node4 -->
<g id="edge54" class="edge">
<title>Node29&#45;&gt;Node4</title>
<path fill="none" stroke="midnightblue" d="M868.89,-144.55C769,-137 568.56,-119.38 545,-98 529.26,-83.72 525.31,-59.14 524.81,-40.71"/>
<polygon fill="midnightblue" stroke="midnightblue" points="528.31,-40.7 524.85,-30.68 521.31,-40.67 528.31,-40.7"/>
</g>
<!-- Node29&#45;&gt;Node6 -->
<g id="edge46" class="edge">
<title>Node29&#45;&gt;Node6</title>
<path fill="none" stroke="midnightblue" d="M981.39,-143.24C1016.6,-140.12 1062.91,-136.34 1104,-134 1346.63,-120.19 1961.86,-159.39 2197,-98 2198.71,-97.55 2200.44,-96.99 2202.15,-96.34"/>
<polygon fill="midnightblue" stroke="midnightblue" points="2203.92,-99.38 2211.53,-92.01 2200.99,-93.02 2203.92,-99.38"/>
</g>
<!-- Node29&#45;&gt;Node7 -->
<g id="edge47" class="edge">
<title>Node29&#45;&gt;Node7</title>
<path fill="none" stroke="midnightblue" d="M981.22,-139.92C997.86,-137.66 1016.13,-135.45 1033,-134 1243.49,-115.92 1776,-140.22 1983,-98 1986.08,-97.37 1989.24,-96.52 1992.36,-95.55"/>
<polygon fill="midnightblue" stroke="midnightblue" points="1993.77,-98.76 2002.03,-92.13 1991.44,-92.16 1993.77,-98.76"/>
</g>
<!-- Node29&#45;&gt;Node9 -->
<g id="edge48" class="edge">
<title>Node29&#45;&gt;Node9</title>
<path fill="none" stroke="midnightblue" d="M981.07,-136.35C985.77,-135.49 990.46,-134.69 995,-134 1154.39,-109.61 1200.28,-139.83 1356,-98 1358.15,-97.42 1360.34,-96.71 1362.52,-95.92"/>
<polygon fill="midnightblue" stroke="midnightblue" points="1363.87,-99.15 1371.77,-92.09 1361.19,-92.68 1363.87,-99.15"/>
</g>
<!-- Node29&#45;&gt;Node11 -->
<g id="edge52" class="edge">
<title>Node29&#45;&gt;Node11</title>
<path fill="none" stroke="midnightblue" d="M868.69,-143.05C789,-135.02 638.9,-118.68 512,-98 504.83,-96.83 497.28,-95.45 489.89,-94.02"/>
<polygon fill="midnightblue" stroke="midnightblue" points="490.45,-90.56 479.96,-92.04 489.08,-97.42 490.45,-90.56"/>
</g>
<!-- Node29&#45;&gt;Node12 -->
<g id="edge53" class="edge">
<title>Node29&#45;&gt;Node12</title>
<path fill="none" stroke="midnightblue" d="M868.86,-136.73C811.04,-124.61 721.73,-105.88 665.9,-94.17"/>
<polygon fill="midnightblue" stroke="midnightblue" points="666.39,-90.7 655.89,-92.07 664.95,-97.55 666.39,-90.7"/>
</g>
<!-- Node29&#45;&gt;Node16 -->
<g id="edge56" class="edge">
<title>Node29&#45;&gt;Node16</title>
<path fill="none" stroke="midnightblue" d="M868.95,-144.64C727.59,-134.79 363.98,-108.76 310,-98 306.04,-97.21 301.94,-96.19 297.89,-95.05"/>
<polygon fill="midnightblue" stroke="midnightblue" points="298.67,-91.63 288.09,-92.06 296.63,-98.33 298.67,-91.63"/>
</g>
<!-- Node30 -->
<g id="node30" class="node">
<title>Node30</title>
<g id="a_node30"><a xlink:title=" ">
<polygon fill="white" stroke="#bfbfbf" points="694,-67.5 694,-97.5 818,-97.5 818,-67.5 694,-67.5"/>
<text text-anchor="start" x="702" y="-85.5" font-family="Helvetica,sans-Serif" font-size="10.00">flutter/basic_message</text>
<text text-anchor="middle" x="756" y="-74.5" font-family="Helvetica,sans-Serif" font-size="10.00">_channel.h</text>
</a>
</g>
</g>
<!-- Node29&#45;&gt;Node30 -->
<g id="edge49" class="edge">
<title>Node29&#45;&gt;Node30</title>
<path fill="none" stroke="midnightblue" d="M888.33,-134.4C863.08,-124.69 829.34,-111.71 802.25,-101.29"/>
<polygon fill="midnightblue" stroke="midnightblue" points="803.19,-97.9 792.6,-97.58 800.68,-104.43 803.19,-97.9"/>
</g>
<!-- Node31 -->
<g id="node31" class="node">
<title>Node31</title>
<g id="a_node31"><a xlink:title=" ">
<polygon fill="white" stroke="#bfbfbf" points="1200.5,-73 1200.5,-92 1347.5,-92 1347.5,-73 1200.5,-73"/>
<text text-anchor="middle" x="1274" y="-80" font-family="Helvetica,sans-Serif" font-size="10.00">flutter/binary_messenger.h</text>
</a>
</g>
</g>
<!-- Node29&#45;&gt;Node31 -->
<g id="edge50" class="edge">
<title>Node29&#45;&gt;Node31</title>
<path fill="none" stroke="midnightblue" d="M981.14,-136.74C985.83,-135.8 990.49,-134.87 995,-134 1036.31,-125.98 1146.89,-106.15 1215.78,-93.86"/>
<polygon fill="midnightblue" stroke="midnightblue" points="1216.82,-97.23 1226.05,-92.03 1215.59,-90.34 1216.82,-97.23"/>
</g>
<!-- Node32 -->
<g id="node32" class="node">
<title>Node32</title>
<g id="a_node32"><a xlink:title=" ">
<polygon fill="white" stroke="#bfbfbf" points="836,-67.5 836,-97.5 1014,-97.5 1014,-67.5 836,-67.5"/>
<text text-anchor="start" x="844" y="-85.5" font-family="Helvetica,sans-Serif" font-size="10.00">flutter/shell/platform</text>
<text text-anchor="middle" x="925" y="-74.5" font-family="Helvetica,sans-Serif" font-size="10.00">/common/json_message_codec.h</text>
</a>
</g>
</g>
<!-- Node29&#45;&gt;Node32 -->
<g id="edge51" class="edge">
<title>Node29&#45;&gt;Node32</title>
<path fill="none" stroke="midnightblue" d="M925,-134.4C925,-126.64 925,-116.81 925,-107.86"/>
<polygon fill="midnightblue" stroke="midnightblue" points="928.5,-107.58 925,-97.58 921.5,-107.58 928.5,-107.58"/>
</g>
<!-- Node33 -->
<g id="node33" class="node">
<title>Node33</title>
<g id="a_node33"><a xlink:title=" ">
<polygon fill="white" stroke="#bfbfbf" points="1032,-73 1032,-92 1182,-92 1182,-73 1032,-73"/>
<text text-anchor="middle" x="1107" y="-80" font-family="Helvetica,sans-Serif" font-size="10.00">xkbcommon/xkbcommon.h</text>
</a>
</g>
</g>
<!-- Node29&#45;&gt;Node33 -->
<g id="edge55" class="edge">
<title>Node29&#45;&gt;Node33</title>
<path fill="none" stroke="midnightblue" d="M964.49,-134.4C997.13,-122.74 1042.96,-106.37 1073.75,-95.38"/>
<polygon fill="midnightblue" stroke="midnightblue" points="1074.94,-98.67 1083.18,-92.01 1072.59,-92.07 1074.94,-98.67"/>
</g>
<!-- Node34&#45;&gt;Node4 -->
<g id="edge68" class="edge">
<title>Node34&#45;&gt;Node4</title>
<path fill="none" stroke="midnightblue" d="M1578.76,-135.49C1535.3,-124.59 1478.2,-109.09 1457,-98 1437.69,-87.9 1439.32,-74.89 1419,-67 1344.27,-37.98 808.98,-22.92 604.83,-18.18"/>
<polygon fill="midnightblue" stroke="midnightblue" points="604.85,-14.68 594.78,-17.95 604.69,-21.68 604.85,-14.68"/>
</g>
<!-- Node34&#45;&gt;Node6 -->
<g id="edge58" class="edge">
<title>Node34&#45;&gt;Node6</title>
<path fill="none" stroke="midnightblue" d="M1687.4,-144.83C1819.3,-135.77 2148.87,-112.03 2197,-98 2198.48,-97.57 2199.97,-97.06 2201.45,-96.49"/>
<polygon fill="midnightblue" stroke="midnightblue" points="2203.29,-99.5 2210.92,-92.14 2200.37,-93.14 2203.29,-99.5"/>
</g>
<!-- Node34&#45;&gt;Node7 -->
<g id="edge59" class="edge">
<title>Node34&#45;&gt;Node7</title>
<path fill="none" stroke="midnightblue" d="M1687.11,-136.54C1691.8,-135.63 1696.48,-134.77 1701,-134 1825.56,-112.81 1860.45,-128.74 1983,-98 1985.83,-97.29 1988.73,-96.43 1991.61,-95.5"/>
<polygon fill="midnightblue" stroke="midnightblue" points="1992.93,-98.74 2001.17,-92.08 1990.58,-92.15 1992.93,-98.74"/>
</g>
<!-- Node34&#45;&gt;Node9 -->
<g id="edge60" class="edge">
<title>Node34&#45;&gt;Node9</title>
<path fill="none" stroke="midnightblue" d="M1578.88,-135.86C1522,-122.5 1438.73,-102.72 1424,-98 1421.73,-97.27 1419.39,-96.47 1417.06,-95.62"/>
<polygon fill="midnightblue" stroke="midnightblue" points="1418.21,-92.31 1407.62,-92 1415.7,-98.85 1418.21,-92.31"/>
</g>
<!-- Node34&#45;&gt;Node11 -->
<g id="edge64" class="edge">
<title>Node34&#45;&gt;Node11</title>
<path fill="none" stroke="midnightblue" d="M1578.66,-135.46C1575.4,-134.9 1572.16,-134.41 1569,-134 1117.39,-75.43 998.68,-137.49 545,-98 531.83,-96.85 517.78,-95.19 504.4,-93.4"/>
<polygon fill="midnightblue" stroke="midnightblue" points="504.71,-89.91 494.32,-92.01 503.75,-96.85 504.71,-89.91"/>
</g>
<!-- Node34&#45;&gt;Node12 -->
<g id="edge67" class="edge">
<title>Node34&#45;&gt;Node12</title>
<path fill="none" stroke="midnightblue" d="M1578.65,-135.48C1575.4,-134.92 1572.16,-134.42 1569,-134 1179.19,-82.34 1075.27,-146.04 685,-98 676.94,-97.01 668.43,-95.58 660.23,-94"/>
<polygon fill="midnightblue" stroke="midnightblue" points="660.92,-90.56 650.42,-92.01 659.53,-97.42 660.92,-90.56"/>
</g>
<!-- Node34&#45;&gt;Node16 -->
<g id="edge70" class="edge">
<title>Node34&#45;&gt;Node16</title>
<path fill="none" stroke="midnightblue" d="M1578.66,-135.43C1575.4,-134.89 1572.16,-134.4 1569,-134 1291.32,-98.91 585.85,-145.39 310,-98 305.72,-97.27 301.29,-96.22 296.96,-95.01"/>
<polygon fill="midnightblue" stroke="midnightblue" points="297.71,-91.58 287.12,-92 295.66,-98.27 297.71,-91.58"/>
</g>
<!-- Node34&#45;&gt;Node31 -->
<g id="edge61" class="edge">
<title>Node34&#45;&gt;Node31</title>
<path fill="none" stroke="midnightblue" d="M1578.92,-136.03C1575.57,-135.32 1572.24,-134.64 1569,-134 1475.25,-115.43 1451.18,-114.22 1357,-98 1349.11,-96.64 1340.8,-95.2 1332.61,-93.77"/>
<polygon fill="midnightblue" stroke="midnightblue" points="1333.16,-90.32 1322.71,-92.05 1331.96,-97.21 1333.16,-90.32"/>
</g>
<!-- Node34&#45;&gt;Node33 -->
<g id="edge69" class="edge">
<title>Node34&#45;&gt;Node33</title>
<path fill="none" stroke="midnightblue" d="M1578.97,-135.75C1575.61,-135.11 1572.26,-134.52 1569,-134 1402.37,-107.3 1358.27,-120.37 1191,-98 1181.84,-96.78 1172.16,-95.29 1162.75,-93.73"/>
<polygon fill="midnightblue" stroke="midnightblue" points="1163.12,-90.25 1152.68,-92.03 1161.96,-97.15 1163.12,-90.25"/>
</g>
<!-- Node35 -->
<g id="node35" class="node">
<title>Node35</title>
<g id="a_node35"><a xlink:title=" ">
<polygon fill="white" stroke="#bfbfbf" points="1834.5,-73 1834.5,-92 1973.5,-92 1973.5,-73 1834.5,-73"/>
<text text-anchor="middle" x="1904" y="-80" font-family="Helvetica,sans-Serif" font-size="10.00">flutter/method_channel.h</text>
</a>
</g>
</g>
<!-- Node34&#45;&gt;Node35 -->
<g id="edge62" class="edge">
<title>Node34&#45;&gt;Node35</title>
<path fill="none" stroke="midnightblue" d="M1687.19,-135.5C1737.41,-123.46 1811.28,-105.74 1858.51,-94.41"/>
<polygon fill="midnightblue" stroke="midnightblue" points="1859.55,-97.76 1868.46,-92.02 1857.92,-90.95 1859.55,-97.76"/>
</g>
<!-- Node36 -->
<g id="node36" class="node">
<title>Node36</title>
<g id="a_node36"><a xlink:title=" ">
<polygon fill="white" stroke="#bfbfbf" points="2068.5,-67.5 2068.5,-97.5 2187.5,-97.5 2187.5,-67.5 2068.5,-67.5"/>
<text text-anchor="start" x="2076.5" y="-85.5" font-family="Helvetica,sans-Serif" font-size="10.00">flutter/method_result</text>
<text text-anchor="middle" x="2128" y="-74.5" font-family="Helvetica,sans-Serif" font-size="10.00">_functions.h</text>
</a>
</g>
</g>
<!-- Node34&#45;&gt;Node36 -->
<g id="edge63" class="edge">
<title>Node34&#45;&gt;Node36</title>
<path fill="none" stroke="midnightblue" d="M1687.01,-143.65C1766.2,-136.21 1918.62,-120.57 2058.2,-98.04"/>
<polygon fill="midnightblue" stroke="midnightblue" points="2058.92,-101.47 2068.22,-96.4 2057.79,-94.56 2058.92,-101.47"/>
</g>
<!-- Node37 -->
<g id="node37" class="node">
<title>Node37</title>
<g id="a_node37"><a xlink:title=" ">
<polygon fill="white" stroke="#bfbfbf" points="1466.5,-67.5 1466.5,-97.5 1637.5,-97.5 1637.5,-67.5 1466.5,-67.5"/>
<text text-anchor="start" x="1474.5" y="-85.5" font-family="Helvetica,sans-Serif" font-size="10.00">flutter/shell/platform</text>
<text text-anchor="middle" x="1552" y="-74.5" font-family="Helvetica,sans-Serif" font-size="10.00">/common/json_method_codec.h</text>
</a>
</g>
</g>
<!-- Node34&#45;&gt;Node37 -->
<g id="edge65" class="edge">
<title>Node34&#45;&gt;Node37</title>
<path fill="none" stroke="midnightblue" d="M1615.42,-134.4C1604.39,-125.54 1589.96,-113.96 1577.65,-104.09"/>
<polygon fill="midnightblue" stroke="midnightblue" points="1579.53,-101.11 1569.54,-97.58 1575.15,-106.56 1579.53,-101.11"/>
</g>
<!-- Node38 -->
<g id="node38" class="node">
<title>Node38</title>
<g id="a_node38"><a xlink:title=" ">
<polygon fill="white" stroke="#bfbfbf" points="1656,-67.5 1656,-97.5 1816,-97.5 1816,-67.5 1656,-67.5"/>
<text text-anchor="start" x="1664" y="-85.5" font-family="Helvetica,sans-Serif" font-size="10.00">flutter/shell/platform</text>
<text text-anchor="middle" x="1736" y="-74.5" font-family="Helvetica,sans-Serif" font-size="10.00">/common/text_input_model.h</text>
</a>
</g>
</g>
<!-- Node34&#45;&gt;Node38 -->
<g id="edge66" class="edge">
<title>Node34&#45;&gt;Node38</title>
<path fill="none" stroke="midnightblue" d="M1655.35,-134.4C1669.93,-125.2 1689.15,-113.07 1705.17,-102.95"/>
<polygon fill="midnightblue" stroke="midnightblue" points="1707.11,-105.87 1713.69,-97.58 1703.37,-99.95 1707.11,-105.87"/>
</g>
</g>
</svg>
