<?xml version="1.0" encoding="UTF-8" standalone="no"?>
<!DOCTYPE svg PUBLIC "-//W3C//DTD SVG 1.1//EN"
 "http://www.w3.org/Graphics/SVG/1.1/DTD/svg11.dtd">
<!-- Generated by graphviz version 2.43.0 (0)
 -->
<!-- Title: /home/joel.winarske@toyotaconnected.com/development/stargate/ivi&#45;homescreen/shell/view/compositor_surface_api.h Pages: 1 -->
<svg width="179pt" height="272pt"
 viewBox="0.00 0.00 179.00 272.00" xmlns="http://www.w3.org/2000/svg" xmlns:xlink="http://www.w3.org/1999/xlink">
<g id="graph0" class="graph" transform="scale(1 1) rotate(0) translate(4 268)">
<title>/home/joel.winarske@toyotaconnected.com/development/stargate/ivi&#45;homescreen/shell/view/compositor_surface_api.h</title>
<polygon fill="white" stroke="transparent" points="-4,4 -4,-268 175,-268 175,4 -4,4"/>
<!-- Node1 -->
<g id="node1" class="node">
<title>Node1</title>
<g id="a_node1"><a xlink:title=" ">
<polygon fill="#bfbfbf" stroke="black" points="0,-200.5 0,-263.5 171,-263.5 171,-200.5 0,-200.5"/>
<text text-anchor="start" x="8" y="-251.5" font-family="Helvetica,sans-Serif" font-size="10.00">/home/joel.winarske</text>
<text text-anchor="start" x="8" y="-240.5" font-family="Helvetica,sans-Serif" font-size="10.00">@toyotaconnected.com</text>
<text text-anchor="start" x="8" y="-229.5" font-family="Helvetica,sans-Serif" font-size="10.00">/development/stargate</text>
<text text-anchor="start" x="8" y="-218.5" font-family="Helvetica,sans-Serif" font-size="10.00">/ivi&#45;homescreen/shell</text>
<text text-anchor="middle" x="85.5" y="-207.5" font-family="Helvetica,sans-Serif" font-size="10.00">/view/compositor_surface_api.h</text>
</a>
</g>
</g>
<!-- Node2 -->
<g id="node2" class="node">
<title>Node2</title>
<g id="a_node2"><a xlink:href="compositor__surface_8h.html" target="_top" xlink:title=" ">
<polygon fill="white" stroke="black" points="10,-100.5 10,-163.5 161,-163.5 161,-100.5 10,-100.5"/>
<text text-anchor="start" x="18" y="-151.5" font-family="Helvetica,sans-Serif" font-size="10.00">/home/joel.winarske</text>
<text text-anchor="start" x="18" y="-140.5" font-family="Helvetica,sans-Serif" font-size="10.00">@toyotaconnected.com</text>
<text text-anchor="start" x="18" y="-129.5" font-family="Helvetica,sans-Serif" font-size="10.00">/development/stargate</text>
<text text-anchor="start" x="18" y="-118.5" font-family="Helvetica,sans-Serif" font-size="10.00">/ivi&#45;homescreen/shell</text>
<text text-anchor="middle" x="85.5" y="-107.5" font-family="Helvetica,sans-Serif" font-size="10.00">/view/compositor_surface.h</text>
</a>
</g>
</g>
<!-- Node1&#45;&gt;Node2 -->
<g id="edge1" class="edge">
<title>Node1&#45;&gt;Node2</title>
<path fill="none" stroke="midnightblue" d="M85.5,-190.1C85.5,-181.24 85.5,-172.01 85.5,-163.63"/>
<polygon fill="midnightblue" stroke="midnightblue" points="82,-190.26 85.5,-200.26 89,-190.26 82,-190.26"/>
</g>
<!-- Node3 -->
<g id="node3" class="node">
<title>Node3</title>
<g id="a_node3"><a xlink:href="compositor__surface_8cc.html" target="_top" xlink:title=" ">
<polygon fill="white" stroke="black" points="8,-0.5 8,-63.5 163,-63.5 163,-0.5 8,-0.5"/>
<text text-anchor="start" x="16" y="-51.5" font-family="Helvetica,sans-Serif" font-size="10.00">/home/joel.winarske</text>
<text text-anchor="start" x="16" y="-40.5" font-family="Helvetica,sans-Serif" font-size="10.00">@toyotaconnected.com</text>
<text text-anchor="start" x="16" y="-29.5" font-family="Helvetica,sans-Serif" font-size="10.00">/development/stargate</text>
<text text-anchor="start" x="16" y="-18.5" font-family="Helvetica,sans-Serif" font-size="10.00">/ivi&#45;homescreen/shell</text>
<text text-anchor="middle" x="85.5" y="-7.5" font-family="Helvetica,sans-Serif" font-size="10.00">/view/compositor_surface.cc</text>
</a>
</g>
</g>
<!-- Node2&#45;&gt;Node3 -->
<g id="edge2" class="edge">
<title>Node2&#45;&gt;Node3</title>
<path fill="none" stroke="midnightblue" d="M85.5,-90.1C85.5,-81.24 85.5,-72.01 85.5,-63.63"/>
<polygon fill="midnightblue" stroke="midnightblue" points="82,-90.26 85.5,-100.26 89,-90.26 82,-90.26"/>
</g>
</g>
</svg>
