<?xml version="1.0" encoding="UTF-8" standalone="no"?>
<!DOCTYPE svg PUBLIC "-//W3C//DTD SVG 1.1//EN"
 "http://www.w3.org/Graphics/SVG/1.1/DTD/svg11.dtd">
<!-- Generated by graphviz version 5.0.0 (0)
 -->
<!-- Title: /mnt/raid10/stargate/ivi&#45;homescreen/shell/view/compositor_surface.h Pages: 1 -->
<svg width="597pt" height="170pt"
 viewBox="0.00 0.00 596.50 170.00" xmlns="http://www.w3.org/2000/svg" xmlns:xlink="http://www.w3.org/1999/xlink">
<g id="graph0" class="graph" transform="scale(1 1) rotate(0) translate(4 166)">
<title>/mnt/raid10/stargate/ivi&#45;homescreen/shell/view/compositor_surface.h</title>
<!-- Node1 -->
<g id="node1" class="node">
<title>Node1</title>
<g id="a_node1"><a xlink:title=" ">
<polygon fill="#999999" stroke="#666666" points="372,-162 235,-162 235,-121 372,-121 372,-162"/>
<text text-anchor="start" x="243" y="-150" font-family="Helvetica,sans-Serif" font-size="10.00">/mnt/raid10/stargate</text>
<text text-anchor="start" x="243" y="-139" font-family="Helvetica,sans-Serif" font-size="10.00">/ivi&#45;homescreen/shell</text>
<text text-anchor="middle" x="303.5" y="-128" font-family="Helvetica,sans-Serif" font-size="10.00">/view/compositor_surface.h</text>
</a>
</g>
</g>
<!-- Node2 -->
<g id="node2" class="node">
<title>Node2</title>
<g id="a_node2"><a xlink:title=" ">
<polygon fill="#e0e0e0" stroke="#999999" points="88.5,-79.5 36.5,-79.5 36.5,-60.5 88.5,-60.5 88.5,-79.5"/>
<text text-anchor="middle" x="62.5" y="-67.5" font-family="Helvetica,sans-Serif" font-size="10.00">memory</text>
</a>
</g>
</g>
<!-- Node1&#45;&gt;Node2 -->
<g id="edge1" class="edge">
<title>Node1&#45;&gt;Node2</title>
<path fill="none" stroke="#63b8ff" d="M234.7,-124.12C194.38,-113.98 142.65,-100.05 97.5,-85 95.84,-84.44 94.14,-83.85 92.43,-83.24"/>
<polygon fill="#63b8ff" stroke="#63b8ff" points="93.3,-79.83 82.71,-79.55 90.82,-86.37 93.3,-79.83"/>
</g>
<!-- Node3 -->
<g id="node3" class="node">
<title>Node3</title>
<g id="a_node3"><a xlink:href="configuration_8h.html" target="_top" xlink:title=" ">
<polygon fill="white" stroke="#666666" points="246,-79.5 107,-79.5 107,-60.5 246,-60.5 246,-79.5"/>
<text text-anchor="middle" x="176.5" y="-67.5" font-family="Helvetica,sans-Serif" font-size="10.00">configuration/configuration.h</text>
</a>
</g>
</g>
<!-- Node1&#45;&gt;Node3 -->
<g id="edge2" class="edge">
<title>Node1&#45;&gt;Node3</title>
<path fill="none" stroke="#63b8ff" d="M267.79,-120.96C246.45,-109.28 219.89,-94.75 200.94,-84.37"/>
<polygon fill="#63b8ff" stroke="#63b8ff" points="202.49,-81.23 192.04,-79.5 199.13,-87.37 202.49,-81.23"/>
</g>
<!-- Node6 -->
<g id="node6" class="node">
<title>Node6</title>
<g id="a_node6"><a xlink:title=" ">
<polygon fill="#e0e0e0" stroke="#999999" points="351,-19 250,-19 250,0 351,0 351,-19"/>
<text text-anchor="middle" x="300.5" y="-7" font-family="Helvetica,sans-Serif" font-size="10.00">flutter/fml/macros.h</text>
</a>
</g>
</g>
<!-- Node1&#45;&gt;Node6 -->
<g id="edge7" class="edge">
<title>Node1&#45;&gt;Node6</title>
<path fill="none" stroke="#63b8ff" d="M299.08,-120.84C296.92,-110.28 294.57,-96.99 293.5,-85 292.31,-71.72 292.46,-68.29 293.5,-55 294.16,-46.52 295.53,-37.22 296.87,-29.32"/>
<polygon fill="#63b8ff" stroke="#63b8ff" points="300.35,-29.78 298.7,-19.32 293.46,-28.53 300.35,-29.78"/>
</g>
<!-- Node8 -->
<g id="node8" class="node">
<title>Node8</title>
<g id="a_node8"><a xlink:title=" ">
<polygon fill="#e0e0e0" stroke="#999999" points="362.5,-79.5 302.5,-79.5 302.5,-60.5 362.5,-60.5 362.5,-79.5"/>
<text text-anchor="middle" x="332.5" y="-67.5" font-family="Helvetica,sans-Serif" font-size="10.00">EGL/egl.h</text>
</a>
</g>
</g>
<!-- Node1&#45;&gt;Node8 -->
<g id="edge8" class="edge">
<title>Node1&#45;&gt;Node8</title>
<path fill="none" stroke="#63b8ff" d="M311.73,-120.77C315.86,-110.87 320.84,-98.95 324.88,-89.26"/>
<polygon fill="#63b8ff" stroke="#63b8ff" points="328.2,-90.4 328.82,-79.82 321.74,-87.7 328.2,-90.4"/>
</g>
<!-- Node9 -->
<g id="node9" class="node">
<title>Node9</title>
<g id="a_node9"><a xlink:title=" ">
<polygon fill="#e0e0e0" stroke="#999999" points="468,-79.5 381,-79.5 381,-60.5 468,-60.5 468,-79.5"/>
<text text-anchor="middle" x="424.5" y="-67.5" font-family="Helvetica,sans-Serif" font-size="10.00">wayland&#45;client.h</text>
</a>
</g>
</g>
<!-- Node1&#45;&gt;Node9 -->
<g id="edge9" class="edge">
<title>Node1&#45;&gt;Node9</title>
<path fill="none" stroke="#63b8ff" d="M337.53,-120.96C357.77,-109.33 382.93,-94.88 400.97,-84.51"/>
<polygon fill="#63b8ff" stroke="#63b8ff" points="402.77,-87.52 409.7,-79.5 399.28,-81.45 402.77,-87.52"/>
</g>
<!-- Node10 -->
<g id="node10" class="node">
<title>Node10</title>
<g id="a_node10"><a xlink:href="compositor__surface__api_8h.html" target="_top" xlink:title=" ">
<polygon fill="white" stroke="#666666" points="588.5,-85 486.5,-85 486.5,-55 588.5,-55 588.5,-85"/>
<text text-anchor="start" x="494.5" y="-73" font-family="Helvetica,sans-Serif" font-size="10.00">compositor_surface</text>
<text text-anchor="middle" x="537.5" y="-62" font-family="Helvetica,sans-Serif" font-size="10.00">_api.h</text>
</a>
</g>
</g>
<!-- Node1&#45;&gt;Node10 -->
<g id="edge10" class="edge">
<title>Node1&#45;&gt;Node10</title>
<path fill="none" stroke="#63b8ff" d="M369.3,-120.96C404.37,-110.54 447.08,-97.86 480.68,-87.88"/>
<polygon fill="#63b8ff" stroke="#63b8ff" points="481.76,-91.21 490.35,-85 479.77,-84.5 481.76,-91.21"/>
</g>
<!-- Node4 -->
<g id="node4" class="node">
<title>Node4</title>
<g id="a_node4"><a xlink:title=" ">
<polygon fill="#e0e0e0" stroke="#999999" points="41,-19 0,-19 0,0 41,0 41,-19"/>
<text text-anchor="middle" x="20.5" y="-7" font-family="Helvetica,sans-Serif" font-size="10.00">string</text>
</a>
</g>
</g>
<!-- Node3&#45;&gt;Node4 -->
<g id="edge3" class="edge">
<title>Node3&#45;&gt;Node4</title>
<path fill="none" stroke="#63b8ff" d="M153.82,-60.49C126.64,-50.3 80.99,-33.19 50.81,-21.87"/>
<polygon fill="#63b8ff" stroke="#63b8ff" points="51.81,-18.5 41.22,-18.27 49.35,-25.06 51.81,-18.5"/>
</g>
<!-- Node5 -->
<g id="node5" class="node">
<title>Node5</title>
<g id="a_node5"><a xlink:title=" ">
<polygon fill="#e0e0e0" stroke="#999999" points="103.5,-19 59.5,-19 59.5,0 103.5,0 103.5,-19"/>
<text text-anchor="middle" x="81.5" y="-7" font-family="Helvetica,sans-Serif" font-size="10.00">vector</text>
</a>
</g>
</g>
<!-- Node3&#45;&gt;Node5 -->
<g id="edge4" class="edge">
<title>Node3&#45;&gt;Node5</title>
<path fill="none" stroke="#63b8ff" d="M162.48,-60.37C147.19,-50.95 122.47,-35.73 104.36,-24.58"/>
<polygon fill="#63b8ff" stroke="#63b8ff" points="105.93,-21.43 95.58,-19.17 102.25,-27.39 105.93,-21.43"/>
</g>
<!-- Node3&#45;&gt;Node6 -->
<g id="edge5" class="edge">
<title>Node3&#45;&gt;Node6</title>
<path fill="none" stroke="#63b8ff" d="M194.53,-60.49C215.19,-50.75 249.28,-34.66 273.2,-23.38"/>
<polygon fill="#63b8ff" stroke="#63b8ff" points="274.9,-26.45 282.45,-19.02 271.91,-20.12 274.9,-26.45"/>
</g>
<!-- Node7 -->
<g id="node7" class="node">
<title>Node7</title>
<g id="a_node7"><a xlink:title=" ">
<polygon fill="#e0e0e0" stroke="#999999" points="231.5,-19 121.5,-19 121.5,0 231.5,0 231.5,-19"/>
<text text-anchor="middle" x="176.5" y="-7" font-family="Helvetica,sans-Serif" font-size="10.00">rapidjson/document.h</text>
</a>
</g>
</g>
<!-- Node3&#45;&gt;Node7 -->
<g id="edge6" class="edge">
<title>Node3&#45;&gt;Node7</title>
<path fill="none" stroke="#63b8ff" d="M176.5,-60.37C176.5,-52.25 176.5,-39.81 176.5,-29.39"/>
<polygon fill="#63b8ff" stroke="#63b8ff" points="180,-29.17 176.5,-19.17 173,-29.17 180,-29.17"/>
</g>
<!-- Node11 -->
<g id="node11" class="node">
<title>Node11</title>
<g id="a_node11"><a xlink:title=" ">
<polygon fill="#e0e0e0" stroke="#999999" points="560.5,-19 514.5,-19 514.5,0 560.5,0 560.5,-19"/>
<text text-anchor="middle" x="537.5" y="-7" font-family="Helvetica,sans-Serif" font-size="10.00">cstdint</text>
</a>
</g>
</g>
<!-- Node10&#45;&gt;Node11 -->
<g id="edge11" class="edge">
<title>Node10&#45;&gt;Node11</title>
<path fill="none" stroke="#63b8ff" d="M537.5,-54.84C537.5,-47.21 537.5,-37.7 537.5,-29.45"/>
<polygon fill="#63b8ff" stroke="#63b8ff" points="541,-29.27 537.5,-19.27 534,-29.27 541,-29.27"/>
</g>
</g>
</svg>
