<?xml version="1.0" encoding="UTF-8" standalone="no"?>
<!DOCTYPE svg PUBLIC "-//W3C//DTD SVG 1.1//EN"
 "http://www.w3.org/Graphics/SVG/1.1/DTD/svg11.dtd">
<!-- Generated by graphviz version 5.0.0 (0)
 -->
<!-- Title: /mnt/raid10/stargate/ivi&#45;homescreen/shell/static_plugins/comp_region/comp_region.cc Pages: 1 -->
<svg width="2254pt" height="566pt"
 viewBox="0.00 0.00 2254.28 566.00" xmlns="http://www.w3.org/2000/svg" xmlns:xlink="http://www.w3.org/1999/xlink">
<g id="graph0" class="graph" transform="scale(1 1) rotate(0) translate(4 562)">
<title>/mnt/raid10/stargate/ivi&#45;homescreen/shell/static_plugins/comp_region/comp_region.cc</title>
<!-- Node1 -->
<g id="node1" class="node">
<title>Node1</title>
<g id="a_node1"><a xlink:title=" ">
<polygon fill="#999999" stroke="#666666" points="296,-558 158,-558 158,-506 296,-506 296,-558"/>
<text text-anchor="start" x="166" y="-546" font-family="Helvetica,sans-Serif" font-size="10.00">/mnt/raid10/stargate</text>
<text text-anchor="start" x="166" y="-535" font-family="Helvetica,sans-Serif" font-size="10.00">/ivi&#45;homescreen/shell</text>
<text text-anchor="start" x="166" y="-524" font-family="Helvetica,sans-Serif" font-size="10.00">/static_plugins/comp_region</text>
<text text-anchor="middle" x="227" y="-513" font-family="Helvetica,sans-Serif" font-size="10.00">/comp_region.cc</text>
</a>
</g>
</g>
<!-- Node2 -->
<g id="node2" class="node">
<title>Node2</title>
<g id="a_node2"><a xlink:href="comp__region_8h.html" target="_top" xlink:title=" ">
<polygon fill="white" stroke="#666666" points="179,-464.5 99,-464.5 99,-445.5 179,-445.5 179,-464.5"/>
<text text-anchor="middle" x="139" y="-452.5" font-family="Helvetica,sans-Serif" font-size="10.00">comp_region.h</text>
</a>
</g>
</g>
<!-- Node1&#45;&gt;Node2 -->
<g id="edge1" class="edge">
<title>Node1&#45;&gt;Node2</title>
<path fill="none" stroke="#63b8ff" d="M197.21,-505.61C183.89,-494.26 168.62,-481.24 157.06,-471.39"/>
<polygon fill="#63b8ff" stroke="#63b8ff" points="159.27,-468.67 149.39,-464.85 154.73,-474 159.27,-468.67"/>
</g>
<!-- Node5 -->
<g id="node5" class="node">
<title>Node5</title>
<g id="a_node5"><a xlink:href="flutter__view_8h.html" target="_top" xlink:title=" ">
<polygon fill="white" stroke="#666666" points="1383.5,-470 1300.5,-470 1300.5,-440 1383.5,-440 1383.5,-470"/>
<text text-anchor="start" x="1308.5" y="-458" font-family="Helvetica,sans-Serif" font-size="10.00">../../view/flutter</text>
<text text-anchor="middle" x="1342" y="-447" font-family="Helvetica,sans-Serif" font-size="10.00">_view.h</text>
</a>
</g>
</g>
<!-- Node1&#45;&gt;Node5 -->
<g id="edge4" class="edge">
<title>Node1&#45;&gt;Node5</title>
<path fill="none" stroke="#63b8ff" d="M296.33,-526.34C502.62,-512.46 1109.41,-471.64 1290.44,-459.47"/>
<polygon fill="#63b8ff" stroke="#63b8ff" points="1290.76,-462.95 1300.5,-458.79 1290.29,-455.97 1290.76,-462.95"/>
</g>
<!-- Node20 -->
<g id="node20" class="node">
<title>Node20</title>
<g id="a_node20"><a xlink:href="engine_8h.html" target="_top" xlink:title=" ">
<polygon fill="white" stroke="#666666" points="807.5,-272 754.5,-272 754.5,-253 807.5,-253 807.5,-272"/>
<text text-anchor="middle" x="781" y="-260" font-family="Helvetica,sans-Serif" font-size="10.00">engine.h</text>
</a>
</g>
</g>
<!-- Node1&#45;&gt;Node20 -->
<g id="edge81" class="edge">
<title>Node1&#45;&gt;Node20</title>
<path fill="none" stroke="#63b8ff" d="M253.18,-505.87C303.75,-458.89 420.28,-357.99 538,-308 607.14,-278.64 695.42,-268.62 744.29,-265.23"/>
<polygon fill="#63b8ff" stroke="#63b8ff" points="744.63,-268.71 754.38,-264.58 744.18,-261.73 744.63,-268.71"/>
</g>
<!-- Node3 -->
<g id="node3" class="node">
<title>Node3</title>
<g id="a_node3"><a xlink:title=" ">
<polygon fill="#e0e0e0" stroke="#999999" points="198.5,-404 79.5,-404 79.5,-374 198.5,-374 198.5,-404"/>
<text text-anchor="start" x="87.5" y="-392" font-family="Helvetica,sans-Serif" font-size="10.00">flutter/standard_method</text>
<text text-anchor="middle" x="139" y="-381" font-family="Helvetica,sans-Serif" font-size="10.00">_codec.h</text>
</a>
</g>
</g>
<!-- Node2&#45;&gt;Node3 -->
<g id="edge2" class="edge">
<title>Node2&#45;&gt;Node3</title>
<path fill="none" stroke="#63b8ff" d="M139,-445.37C139,-437.49 139,-425.45 139,-414.6"/>
<polygon fill="#63b8ff" stroke="#63b8ff" points="142.5,-414.36 139,-404.36 135.5,-414.36 142.5,-414.36"/>
</g>
<!-- Node4 -->
<g id="node4" class="node">
<title>Node4</title>
<g id="a_node4"><a xlink:title=" ">
<polygon fill="#e0e0e0" stroke="#999999" points="874.5,-85 753.5,-85 753.5,-55 874.5,-55 874.5,-85"/>
<text text-anchor="start" x="761.5" y="-73" font-family="Helvetica,sans-Serif" font-size="10.00">shell/platform/embedder</text>
<text text-anchor="middle" x="814" y="-62" font-family="Helvetica,sans-Serif" font-size="10.00">/embedder.h</text>
</a>
</g>
</g>
<!-- Node2&#45;&gt;Node4 -->
<g id="edge3" class="edge">
<title>Node2&#45;&gt;Node4</title>
<path fill="none" stroke="#63b8ff" d="M120.58,-445.37C104.76,-437.01 82.56,-422.83 70,-404 49.72,-373.6 51,-360.54 51,-324 51,-324 51,-324 51,-201 51,-164.46 42.1,-144.61 70,-121 120.65,-78.13 567.45,-71.86 743.32,-71.06"/>
<polygon fill="#63b8ff" stroke="#63b8ff" points="743.51,-74.56 753.5,-71.02 743.48,-67.56 743.51,-74.56"/>
</g>
<!-- Node6 -->
<g id="node6" class="node">
<title>Node6</title>
<g id="a_node6"><a xlink:title=" ">
<polygon fill="#e0e0e0" stroke="#999999" points="1804.5,-145.5 1769.5,-145.5 1769.5,-126.5 1804.5,-126.5 1804.5,-145.5"/>
<text text-anchor="middle" x="1787" y="-133.5" font-family="Helvetica,sans-Serif" font-size="10.00">map</text>
</a>
</g>
</g>
<!-- Node5&#45;&gt;Node6 -->
<g id="edge5" class="edge">
<title>Node5&#45;&gt;Node6</title>
<path fill="none" stroke="#63b8ff" d="M1361.7,-439.97C1435.08,-387.7 1692.19,-204.54 1766.65,-151.49"/>
<polygon fill="#63b8ff" stroke="#63b8ff" points="1768.69,-154.34 1774.8,-145.69 1764.63,-148.64 1768.69,-154.34"/>
</g>
<!-- Node7 -->
<g id="node7" class="node">
<title>Node7</title>
<g id="a_node7"><a xlink:title=" ">
<polygon fill="#e0e0e0" stroke="#999999" points="1234,-145.5 1182,-145.5 1182,-126.5 1234,-126.5 1234,-145.5"/>
<text text-anchor="middle" x="1208" y="-133.5" font-family="Helvetica,sans-Serif" font-size="10.00">memory</text>
</a>
</g>
</g>
<!-- Node5&#45;&gt;Node7 -->
<g id="edge6" class="edge">
<title>Node5&#45;&gt;Node7</title>
<path fill="none" stroke="#63b8ff" d="M1342,-439.96C1342,-416.12 1342,-366.2 1342,-324 1342,-324 1342,-324 1342,-261.5 1342,-231.22 1267.63,-176.96 1229.7,-151.25"/>
<polygon fill="#63b8ff" stroke="#63b8ff" points="1231.59,-148.31 1221.34,-145.65 1227.7,-154.12 1231.59,-148.31"/>
</g>
<!-- Node8 -->
<g id="node8" class="node">
<title>Node8</title>
<g id="a_node8"><a xlink:href="configuration_8h.html" target="_top" xlink:title=" ">
<polygon fill="white" stroke="#666666" points="2171.5,-211.5 2032.5,-211.5 2032.5,-192.5 2171.5,-192.5 2171.5,-211.5"/>
<text text-anchor="middle" x="2102" y="-199.5" font-family="Helvetica,sans-Serif" font-size="10.00">configuration/configuration.h</text>
</a>
</g>
</g>
<!-- Node5&#45;&gt;Node8 -->
<g id="edge7" class="edge">
<title>Node5&#45;&gt;Node8</title>
<path fill="none" stroke="#63b8ff" d="M1383.62,-453.27C1492.04,-450.87 1780.85,-441.08 1868,-404 1968.34,-361.31 2057.09,-259.39 2089.21,-219.45"/>
<polygon fill="#63b8ff" stroke="#63b8ff" points="2092.04,-221.52 2095.51,-211.51 2086.56,-217.17 2092.04,-221.52"/>
</g>
<!-- Node11 -->
<g id="node11" class="node">
<title>Node11</title>
<g id="a_node11"><a xlink:title=" ">
<polygon fill="#e0e0e0" stroke="#999999" points="2144.5,-79.5 2043.5,-79.5 2043.5,-60.5 2144.5,-60.5 2144.5,-79.5"/>
<text text-anchor="middle" x="2094" y="-67.5" font-family="Helvetica,sans-Serif" font-size="10.00">flutter/fml/macros.h</text>
</a>
</g>
</g>
<!-- Node5&#45;&gt;Node11 -->
<g id="edge12" class="edge">
<title>Node5&#45;&gt;Node11</title>
<path fill="none" stroke="#63b8ff" d="M1383.74,-452.45C1561.34,-445.34 2245,-412.2 2245,-324 2245,-324 2245,-324 2245,-201 2245,-164.46 2250.12,-148.45 2226,-121 2207.79,-100.28 2180.08,-88.11 2154.74,-80.99"/>
<polygon fill="#63b8ff" stroke="#63b8ff" points="2155.36,-77.53 2144.8,-78.41 2153.6,-84.31 2155.36,-77.53"/>
</g>
<!-- Node13 -->
<g id="node13" class="node">
<title>Node13</title>
<g id="a_node13"><a xlink:href="window_8h.html" target="_top" xlink:title=" ">
<polygon fill="white" stroke="#666666" points="1047,-398.5 951,-398.5 951,-379.5 1047,-379.5 1047,-398.5"/>
<text text-anchor="middle" x="999" y="-386.5" font-family="Helvetica,sans-Serif" font-size="10.00">wayland/window.h</text>
</a>
</g>
</g>
<!-- Node5&#45;&gt;Node13 -->
<g id="edge13" class="edge">
<title>Node5&#45;&gt;Node13</title>
<path fill="none" stroke="#63b8ff" d="M1300.28,-446.22C1238.81,-434.75 1123.76,-413.28 1055,-400.45"/>
<polygon fill="#63b8ff" stroke="#63b8ff" points="1055.26,-396.94 1044.78,-398.54 1053.97,-403.82 1055.26,-396.94"/>
</g>
<!-- Node9 -->
<g id="node9" class="node">
<title>Node9</title>
<g id="a_node9"><a xlink:title=" ">
<polygon fill="#e0e0e0" stroke="#999999" points="1902.5,-145.5 1861.5,-145.5 1861.5,-126.5 1902.5,-126.5 1902.5,-145.5"/>
<text text-anchor="middle" x="1882" y="-133.5" font-family="Helvetica,sans-Serif" font-size="10.00">string</text>
</a>
</g>
</g>
<!-- Node8&#45;&gt;Node9 -->
<g id="edge8" class="edge">
<title>Node8&#45;&gt;Node9</title>
<path fill="none" stroke="#63b8ff" d="M2072.33,-192.37C2030.51,-180.2 1954.61,-158.12 1912.4,-145.84"/>
<polygon fill="#63b8ff" stroke="#63b8ff" points="1913.26,-142.45 1902.68,-143.02 1911.31,-149.17 1913.26,-142.45"/>
</g>
<!-- Node10 -->
<g id="node10" class="node">
<title>Node10</title>
<g id="a_node10"><a xlink:title=" ">
<polygon fill="#e0e0e0" stroke="#999999" points="2217,-145.5 2173,-145.5 2173,-126.5 2217,-126.5 2217,-145.5"/>
<text text-anchor="middle" x="2195" y="-133.5" font-family="Helvetica,sans-Serif" font-size="10.00">vector</text>
</a>
</g>
</g>
<!-- Node8&#45;&gt;Node10 -->
<g id="edge9" class="edge">
<title>Node8&#45;&gt;Node10</title>
<path fill="none" stroke="#63b8ff" d="M2114.54,-192.37C2129.8,-181.87 2155.77,-164 2174.07,-151.4"/>
<polygon fill="#63b8ff" stroke="#63b8ff" points="2176.11,-154.25 2182.36,-145.7 2172.14,-148.48 2176.11,-154.25"/>
</g>
<!-- Node8&#45;&gt;Node11 -->
<g id="edge10" class="edge">
<title>Node8&#45;&gt;Node11</title>
<path fill="none" stroke="#63b8ff" d="M2106.94,-192.1C2114.53,-177.31 2127.51,-146.74 2121,-121 2118.06,-109.36 2111.81,-97.48 2106.06,-88.23"/>
<polygon fill="#63b8ff" stroke="#63b8ff" points="2108.84,-86.08 2100.42,-79.65 2102.99,-89.93 2108.84,-86.08"/>
</g>
<!-- Node12 -->
<g id="node12" class="node">
<title>Node12</title>
<g id="a_node12"><a xlink:title=" ">
<polygon fill="#e0e0e0" stroke="#999999" points="1713,-145.5 1603,-145.5 1603,-126.5 1713,-126.5 1713,-145.5"/>
<text text-anchor="middle" x="1658" y="-133.5" font-family="Helvetica,sans-Serif" font-size="10.00">rapidjson/document.h</text>
</a>
</g>
</g>
<!-- Node8&#45;&gt;Node12 -->
<g id="edge11" class="edge">
<title>Node8&#45;&gt;Node12</title>
<path fill="none" stroke="#63b8ff" d="M2055.68,-192.48C2044.96,-190.59 2033.6,-188.66 2023,-187 2008.4,-184.71 1824.48,-159.64 1723.45,-145.9"/>
<polygon fill="#63b8ff" stroke="#63b8ff" points="1723.72,-142.4 1713.34,-144.52 1722.78,-149.34 1723.72,-142.4"/>
</g>
<!-- Node13&#45;&gt;Node7 -->
<g id="edge14" class="edge">
<title>Node13&#45;&gt;Node7</title>
<path fill="none" stroke="#63b8ff" d="M995.55,-379.06C990.19,-363.67 981.62,-331.58 993,-308 1031.85,-227.46 1129.13,-173.17 1178.4,-149.88"/>
<polygon fill="#63b8ff" stroke="#63b8ff" points="1179.98,-153.01 1187.59,-145.63 1177.04,-146.65 1179.98,-153.01"/>
</g>
<!-- Node13&#45;&gt;Node9 -->
<g id="edge15" class="edge">
<title>Node13&#45;&gt;Node9</title>
<path fill="none" stroke="#63b8ff" d="M1047.21,-381.6C1110.65,-372.94 1225.55,-356.44 1323,-338 1564.24,-292.36 1686.31,-388.5 1862,-217 1878.29,-201.1 1882.06,-174.09 1882.58,-155.9"/>
<polygon fill="#63b8ff" stroke="#63b8ff" points="1886.08,-155.89 1882.56,-145.9 1879.08,-155.91 1886.08,-155.89"/>
</g>
<!-- Node14 -->
<g id="node14" class="node">
<title>Node14</title>
<g id="a_node14"><a xlink:title=" ">
<polygon fill="#e0e0e0" stroke="#999999" points="1050.5,-332.5 1001.5,-332.5 1001.5,-313.5 1050.5,-313.5 1050.5,-332.5"/>
<text text-anchor="middle" x="1026" y="-320.5" font-family="Helvetica,sans-Serif" font-size="10.00">cassert</text>
</a>
</g>
</g>
<!-- Node13&#45;&gt;Node14 -->
<g id="edge16" class="edge">
<title>Node13&#45;&gt;Node14</title>
<path fill="none" stroke="#63b8ff" d="M1002.64,-379.37C1006.64,-369.88 1013.19,-354.36 1018.34,-342.16"/>
<polygon fill="#63b8ff" stroke="#63b8ff" points="1021.58,-343.48 1022.24,-332.91 1015.13,-340.76 1021.58,-343.48"/>
</g>
<!-- Node15 -->
<g id="node15" class="node">
<title>Node15</title>
<g id="a_node15"><a xlink:title=" ">
<polygon fill="#e0e0e0" stroke="#999999" points="1193.5,-332.5 1068.5,-332.5 1068.5,-313.5 1193.5,-313.5 1193.5,-332.5"/>
<text text-anchor="middle" x="1131" y="-320.5" font-family="Helvetica,sans-Serif" font-size="10.00">agl&#45;shell&#45;client&#45;protocol.h</text>
</a>
</g>
</g>
<!-- Node13&#45;&gt;Node15 -->
<g id="edge17" class="edge">
<title>Node13&#45;&gt;Node15</title>
<path fill="none" stroke="#63b8ff" d="M1016.8,-379.37C1039.14,-368.54 1077.68,-349.85 1103.74,-337.22"/>
<polygon fill="#63b8ff" stroke="#63b8ff" points="1105.59,-340.21 1113.06,-332.7 1102.53,-333.91 1105.59,-340.21"/>
</g>
<!-- Node16 -->
<g id="node16" class="node">
<title>Node16</title>
<g id="a_node16"><a xlink:href="constants_8h.html" target="_top" xlink:title=" ">
<polygon fill="white" stroke="#666666" points="147,-145.5 79,-145.5 79,-126.5 147,-126.5 147,-145.5"/>
<text text-anchor="middle" x="113" y="-133.5" font-family="Helvetica,sans-Serif" font-size="10.00">constants.h</text>
</a>
</g>
</g>
<!-- Node13&#45;&gt;Node16 -->
<g id="edge18" class="edge">
<title>Node13&#45;&gt;Node16</title>
<path fill="none" stroke="#63b8ff" d="M950.85,-384.69C868.75,-378.58 696.61,-363.75 553,-338 433.11,-316.5 402.71,-310.05 287,-272 226.23,-252.02 201.04,-260.35 154,-217 135.67,-200.1 124.25,-173.14 118.25,-155.26"/>
<polygon fill="#63b8ff" stroke="#63b8ff" points="121.59,-154.2 115.27,-145.69 114.91,-156.28 121.59,-154.2"/>
</g>
<!-- Node19 -->
<g id="node19" class="node">
<title>Node19</title>
<g id="a_node19"><a xlink:href="backend_8h.html" target="_top" xlink:title=" ">
<polygon fill="white" stroke="#666666" points="944.5,-332.5 843.5,-332.5 843.5,-313.5 944.5,-313.5 944.5,-332.5"/>
<text text-anchor="middle" x="894" y="-320.5" font-family="Helvetica,sans-Serif" font-size="10.00">backend/backend.h</text>
</a>
</g>
</g>
<!-- Node13&#45;&gt;Node19 -->
<g id="edge22" class="edge">
<title>Node13&#45;&gt;Node19</title>
<path fill="none" stroke="#63b8ff" d="M984.84,-379.37C967.46,-368.78 937.76,-350.67 917.07,-338.06"/>
<polygon fill="#63b8ff" stroke="#63b8ff" points="918.63,-334.92 908.27,-332.7 914.99,-340.89 918.63,-334.92"/>
</g>
<!-- Node43 -->
<g id="node43" class="node">
<title>Node43</title>
<g id="a_node43"><a xlink:title=" ">
<polygon fill="#e0e0e0" stroke="#999999" points="1314,-338 1212,-338 1212,-308 1314,-308 1314,-338"/>
<text text-anchor="start" x="1220" y="-326" font-family="Helvetica,sans-Serif" font-size="10.00">ivi&#45;application&#45;client</text>
<text text-anchor="middle" x="1263" y="-315" font-family="Helvetica,sans-Serif" font-size="10.00">&#45;protocol.h</text>
</a>
</g>
</g>
<!-- Node13&#45;&gt;Node43 -->
<g id="edge78" class="edge">
<title>Node13&#45;&gt;Node43</title>
<path fill="none" stroke="#63b8ff" d="M1034.33,-379.44C1077.1,-369.07 1149.83,-351.43 1201.79,-338.84"/>
<polygon fill="#63b8ff" stroke="#63b8ff" points="1202.67,-342.23 1211.56,-336.47 1201.02,-335.42 1202.67,-342.23"/>
</g>
<!-- Node44 -->
<g id="node44" class="node">
<title>Node44</title>
<g id="a_node44"><a xlink:title=" ">
<polygon fill="#e0e0e0" stroke="#999999" points="678.5,-332.5 561.5,-332.5 561.5,-313.5 678.5,-313.5 678.5,-332.5"/>
<text text-anchor="middle" x="620" y="-320.5" font-family="Helvetica,sans-Serif" font-size="10.00">ivi&#45;wm&#45;client&#45;protocol.h</text>
</a>
</g>
</g>
<!-- Node13&#45;&gt;Node44 -->
<g id="edge79" class="edge">
<title>Node13&#45;&gt;Node44</title>
<path fill="none" stroke="#63b8ff" d="M950.94,-380.94C889.74,-371.79 780.79,-355 688,-338 682.15,-336.93 676.03,-335.75 669.96,-334.55"/>
<polygon fill="#63b8ff" stroke="#63b8ff" points="670.35,-331.05 659.86,-332.51 668.97,-337.92 670.35,-331.05"/>
</g>
<!-- Node45 -->
<g id="node45" class="node">
<title>Node45</title>
<g id="a_node45"><a xlink:title=" ">
<polygon fill="#e0e0e0" stroke="#999999" points="825,-332.5 697,-332.5 697,-313.5 825,-313.5 825,-332.5"/>
<text text-anchor="middle" x="761" y="-320.5" font-family="Helvetica,sans-Serif" font-size="10.00">xdg&#45;shell&#45;client&#45;protocol.h</text>
</a>
</g>
</g>
<!-- Node13&#45;&gt;Node45 -->
<g id="edge80" class="edge">
<title>Node13&#45;&gt;Node45</title>
<path fill="none" stroke="#63b8ff" d="M966.9,-379.37C924.47,-367.96 849.61,-347.83 802.8,-335.24"/>
<polygon fill="#63b8ff" stroke="#63b8ff" points="803.53,-331.81 792.97,-332.6 801.72,-338.57 803.53,-331.81"/>
</g>
<!-- Node16&#45;&gt;Node4 -->
<g id="edge20" class="edge">
<title>Node16&#45;&gt;Node4</title>
<path fill="none" stroke="#63b8ff" d="M138.67,-126.45C145.83,-124.36 153.66,-122.34 161,-121 370.23,-82.9 622.32,-73.78 742.94,-71.64"/>
<polygon fill="#63b8ff" stroke="#63b8ff" points="743.21,-75.13 753.15,-71.47 743.09,-68.13 743.21,-75.13"/>
</g>
<!-- Node17 -->
<g id="node17" class="node">
<title>Node17</title>
<g id="a_node17"><a xlink:title=" ">
<polygon fill="#e0e0e0" stroke="#999999" points="60,-79.5 0,-79.5 0,-60.5 60,-60.5 60,-79.5"/>
<text text-anchor="middle" x="30" y="-67.5" font-family="Helvetica,sans-Serif" font-size="10.00">EGL/egl.h</text>
</a>
</g>
</g>
<!-- Node16&#45;&gt;Node17 -->
<g id="edge19" class="edge">
<title>Node16&#45;&gt;Node17</title>
<path fill="none" stroke="#63b8ff" d="M101.81,-126.37C88.44,-116.06 65.85,-98.65 49.58,-86.09"/>
<polygon fill="#63b8ff" stroke="#63b8ff" points="51.34,-83.03 41.28,-79.7 47.06,-88.58 51.34,-83.03"/>
</g>
<!-- Node18 -->
<g id="node18" class="node">
<title>Node18</title>
<g id="a_node18"><a xlink:title=" ">
<polygon fill="#e0e0e0" stroke="#999999" points="132,-79.5 94,-79.5 94,-60.5 132,-60.5 132,-79.5"/>
<text text-anchor="middle" x="113" y="-67.5" font-family="Helvetica,sans-Serif" font-size="10.00">array</text>
</a>
</g>
</g>
<!-- Node16&#45;&gt;Node18 -->
<g id="edge21" class="edge">
<title>Node16&#45;&gt;Node18</title>
<path fill="none" stroke="#63b8ff" d="M113,-126.37C113,-117.16 113,-102.29 113,-90.27"/>
<polygon fill="#63b8ff" stroke="#63b8ff" points="116.5,-89.91 113,-79.91 109.5,-89.91 116.5,-89.91"/>
</g>
<!-- Node19&#45;&gt;Node4 -->
<g id="edge23" class="edge">
<title>Node19&#45;&gt;Node4</title>
<path fill="none" stroke="#63b8ff" d="M944.57,-314.49C960.09,-312.28 977.24,-309.94 993,-308 1185.71,-284.29 1692.87,-312.36 1862,-217 1903.9,-193.37 1945.23,-155.78 1912,-121 1876.48,-83.83 1122.38,-73.81 884.93,-71.57"/>
<polygon fill="#63b8ff" stroke="#63b8ff" points="884.72,-68.06 874.69,-71.47 884.65,-75.06 884.72,-68.06"/>
</g>
<!-- Node19&#45;&gt;Node16 -->
<g id="edge24" class="edge">
<title>Node19&#45;&gt;Node16</title>
<path fill="none" stroke="#63b8ff" d="M859.84,-313.49C851.42,-311.54 842.41,-309.58 834,-308 553.8,-255.34 456.24,-339.93 199,-217 168.03,-202.2 140.6,-172.27 125.45,-153.51"/>
<polygon fill="#63b8ff" stroke="#63b8ff" points="128.13,-151.26 119.21,-145.54 122.62,-155.57 128.13,-151.26"/>
</g>
<!-- Node19&#45;&gt;Node20 -->
<g id="edge25" class="edge">
<title>Node19&#45;&gt;Node20</title>
<path fill="none" stroke="#63b8ff" d="M872.64,-313.49C852.05,-303.92 821.47,-288.23 801.26,-276.99"/>
<polygon fill="#63b8ff" stroke="#63b8ff" points="802.94,-273.92 792.52,-272.02 799.48,-280 802.94,-273.92"/>
</g>
<!-- Node20&#45;&gt;Node4 -->
<g id="edge30" class="edge">
<title>Node20&#45;&gt;Node4</title>
<path fill="none" stroke="#63b8ff" d="M781.73,-252.93C782.55,-237.08 781.73,-203.36 762,-187 664.63,-106.28 280.56,-243.22 194,-151 184.87,-141.28 184.96,-130.8 194,-121 230.6,-81.33 588.1,-73.13 743.02,-71.44"/>
<polygon fill="#63b8ff" stroke="#63b8ff" points="743.4,-74.93 753.37,-71.33 743.33,-67.93 743.4,-74.93"/>
</g>
<!-- Node20&#45;&gt;Node5 -->
<g id="edge77" class="edge">
<title>Node20&#45;&gt;Node5</title>
<path fill="none" stroke="#63b8ff" d="M754.32,-263.39C683,-263.99 497.04,-271.75 553,-338 648.07,-450.56 1130.38,-456.14 1290.36,-454.82"/>
<polygon fill="#63b8ff" stroke="#63b8ff" points="1290.46,-458.32 1300.42,-454.72 1290.39,-451.32 1290.46,-458.32"/>
</g>
<!-- Node20&#45;&gt;Node6 -->
<g id="edge32" class="edge">
<title>Node20&#45;&gt;Node6</title>
<path fill="none" stroke="#63b8ff" d="M807.56,-261.46C900.65,-260.97 1220.62,-256.33 1481,-217 1604.86,-198.29 1636.27,-190.92 1755,-151 1756.62,-150.46 1758.27,-149.86 1759.93,-149.23"/>
<polygon fill="#63b8ff" stroke="#63b8ff" points="1761.34,-152.44 1769.28,-145.41 1758.7,-145.96 1761.34,-152.44"/>
</g>
<!-- Node20&#45;&gt;Node7 -->
<g id="edge33" class="edge">
<title>Node20&#45;&gt;Node7</title>
<path fill="none" stroke="#63b8ff" d="M807.52,-255.21C835.41,-248.03 880.13,-234.94 916,-217 936.84,-206.58 937.43,-195.81 959,-187 1048.28,-150.52 1080.14,-177.06 1173,-151 1174.94,-150.46 1176.91,-149.84 1178.89,-149.18"/>
<polygon fill="#63b8ff" stroke="#63b8ff" points="1180.45,-152.34 1188.63,-145.6 1178.04,-145.76 1180.45,-152.34"/>
</g>
<!-- Node20&#45;&gt;Node9 -->
<g id="edge36" class="edge">
<title>Node20&#45;&gt;Node9</title>
<path fill="none" stroke="#63b8ff" d="M807.64,-261.09C967.06,-258.57 1789.64,-244.25 1835,-217 1857.61,-203.42 1870.53,-174.47 1876.9,-155.38"/>
<polygon fill="#63b8ff" stroke="#63b8ff" points="1880.28,-156.29 1879.85,-145.71 1873.59,-154.25 1880.28,-156.29"/>
</g>
<!-- Node20&#45;&gt;Node10 -->
<g id="edge37" class="edge">
<title>Node20&#45;&gt;Node10</title>
<path fill="none" stroke="#63b8ff" d="M807.52,-261.6C996.03,-262.18 2127.13,-263.74 2181,-217 2198.19,-202.08 2199.27,-174.17 2197.72,-155.58"/>
<polygon fill="#63b8ff" stroke="#63b8ff" points="2201.2,-155.18 2196.57,-145.65 2194.24,-155.99 2201.2,-155.18"/>
</g>
<!-- Node20&#45;&gt;Node16 -->
<g id="edge39" class="edge">
<title>Node20&#45;&gt;Node16</title>
<path fill="none" stroke="#63b8ff" d="M754.22,-261.07C659.68,-259.25 342.13,-250.74 247,-217 224.69,-209.09 223.14,-199.43 203,-187 181.63,-173.81 156.6,-160.04 138.37,-150.3"/>
<polygon fill="#63b8ff" stroke="#63b8ff" points="139.99,-147.19 129.52,-145.59 136.71,-153.37 139.99,-147.19"/>
</g>
<!-- Node20&#45;&gt;Node17 -->
<g id="edge27" class="edge">
<title>Node20&#45;&gt;Node17</title>
<path fill="none" stroke="#63b8ff" d="M754.25,-260.79C655.12,-257.97 309.01,-246.19 203,-217 139.38,-199.48 116.73,-197.59 70,-151 52.52,-133.57 41.32,-106.93 35.35,-89.24"/>
<polygon fill="#63b8ff" stroke="#63b8ff" points="38.64,-88.04 32.29,-79.55 31.96,-90.14 38.64,-88.04"/>
</g>
<!-- Node20&#45;&gt;Node19 -->
<g id="edge38" class="edge">
<title>Node20&#45;&gt;Node19</title>
<path fill="none" stroke="#63b8ff" d="M802.7,-272.17C823.24,-281.73 853.48,-297.24 873.58,-308.42"/>
<polygon fill="#63b8ff" stroke="#63b8ff" points="871.86,-311.47 882.28,-313.37 875.32,-305.39 871.86,-311.47"/>
</g>
<!-- Node21 -->
<g id="node21" class="node">
<title>Node21</title>
<g id="a_node21"><a xlink:title=" ">
<polygon fill="#e0e0e0" stroke="#999999" points="314.5,-211.5 255.5,-211.5 255.5,-192.5 314.5,-192.5 314.5,-211.5"/>
<text text-anchor="middle" x="285" y="-199.5" font-family="Helvetica,sans-Serif" font-size="10.00">functional</text>
</a>
</g>
</g>
<!-- Node20&#45;&gt;Node21 -->
<g id="edge26" class="edge">
<title>Node20&#45;&gt;Node21</title>
<path fill="none" stroke="#63b8ff" d="M754.36,-261.2C683.47,-259.9 484.61,-253.06 324,-217 321.17,-216.36 318.26,-215.58 315.38,-214.71"/>
<polygon fill="#63b8ff" stroke="#63b8ff" points="316.36,-211.35 305.77,-211.53 314.16,-218 316.36,-211.35"/>
</g>
<!-- Node22 -->
<g id="node22" class="node">
<title>Node22</title>
<g id="a_node22"><a xlink:title=" ">
<polygon fill="#e0e0e0" stroke="#999999" points="405,-211.5 333,-211.5 333,-192.5 405,-192.5 405,-211.5"/>
<text text-anchor="middle" x="369" y="-199.5" font-family="Helvetica,sans-Serif" font-size="10.00">GLES2/gl2.h</text>
</a>
</g>
</g>
<!-- Node20&#45;&gt;Node22 -->
<g id="edge28" class="edge">
<title>Node20&#45;&gt;Node22</title>
<path fill="none" stroke="#63b8ff" d="M754.1,-259.84C693.19,-255.74 540.25,-243.46 415,-217 411.36,-216.23 407.58,-215.3 403.84,-214.3"/>
<polygon fill="#63b8ff" stroke="#63b8ff" points="404.68,-210.9 394.1,-211.5 402.75,-217.63 404.68,-210.9"/>
</g>
<!-- Node23 -->
<g id="node23" class="node">
<title>Node23</title>
<g id="a_node23"><a xlink:title=" ">
<polygon fill="#e0e0e0" stroke="#999999" points="548.5,-211.5 423.5,-211.5 423.5,-192.5 548.5,-192.5 548.5,-211.5"/>
<text text-anchor="middle" x="486" y="-199.5" font-family="Helvetica,sans-Serif" font-size="10.00">flutter/encodable_value.h</text>
</a>
</g>
</g>
<!-- Node20&#45;&gt;Node23 -->
<g id="edge29" class="edge">
<title>Node20&#45;&gt;Node23</title>
<path fill="none" stroke="#63b8ff" d="M754.3,-256.21C705.8,-246.59 602.4,-226.08 539.07,-213.52"/>
<polygon fill="#63b8ff" stroke="#63b8ff" points="539.37,-210.02 528.88,-211.5 538.01,-216.88 539.37,-210.02"/>
</g>
<!-- Node24 -->
<g id="node24" class="node">
<title>Node24</title>
<g id="a_node24"><a xlink:title=" ">
<polygon fill="#e0e0e0" stroke="#999999" points="629,-211.5 567,-211.5 567,-192.5 629,-192.5 629,-211.5"/>
<text text-anchor="middle" x="598" y="-199.5" font-family="Helvetica,sans-Serif" font-size="10.00">filesystem</text>
</a>
</g>
</g>
<!-- Node20&#45;&gt;Node24 -->
<g id="edge31" class="edge">
<title>Node20&#45;&gt;Node24</title>
<path fill="none" stroke="#63b8ff" d="M754.29,-253.49C725.5,-244.79 678.36,-230.34 638,-217 635.9,-216.31 633.74,-215.58 631.57,-214.84"/>
<polygon fill="#63b8ff" stroke="#63b8ff" points="632.66,-211.52 622.07,-211.58 630.38,-218.14 632.66,-211.52"/>
</g>
<!-- Node25 -->
<g id="node25" class="node">
<title>Node25</title>
<g id="a_node25"><a xlink:title=" ">
<polygon fill="#e0e0e0" stroke="#999999" points="691,-211.5 647,-211.5 647,-192.5 691,-192.5 691,-211.5"/>
<text text-anchor="middle" x="669" y="-199.5" font-family="Helvetica,sans-Serif" font-size="10.00">mutex</text>
</a>
</g>
</g>
<!-- Node20&#45;&gt;Node25 -->
<g id="edge34" class="edge">
<title>Node20&#45;&gt;Node25</title>
<path fill="none" stroke="#63b8ff" d="M764.47,-252.87C746.03,-243.23 715.96,-227.53 694.49,-216.31"/>
<polygon fill="#63b8ff" stroke="#63b8ff" points="696.08,-213.19 685.59,-211.67 692.84,-219.4 696.08,-213.19"/>
</g>
<!-- Node26 -->
<g id="node26" class="node">
<title>Node26</title>
<g id="a_node26"><a xlink:title=" ">
<polygon fill="#e0e0e0" stroke="#999999" points="752.5,-211.5 709.5,-211.5 709.5,-192.5 752.5,-192.5 752.5,-211.5"/>
<text text-anchor="middle" x="731" y="-199.5" font-family="Helvetica,sans-Serif" font-size="10.00">queue</text>
</a>
</g>
</g>
<!-- Node20&#45;&gt;Node26 -->
<g id="edge35" class="edge">
<title>Node20&#45;&gt;Node26</title>
<path fill="none" stroke="#63b8ff" d="M773.62,-252.87C766.09,-244.05 754.21,-230.16 744.91,-219.27"/>
<polygon fill="#63b8ff" stroke="#63b8ff" points="747.57,-217 738.41,-211.67 742.24,-221.54 747.57,-217"/>
</g>
<!-- Node27 -->
<g id="node27" class="node">
<title>Node27</title>
<g id="a_node27"><a xlink:href="logging_8h.html" target="_top" xlink:title=" ">
<polygon fill="white" stroke="#666666" points="2014,-211.5 1958,-211.5 1958,-192.5 2014,-192.5 2014,-211.5"/>
<text text-anchor="middle" x="1986" y="-199.5" font-family="Helvetica,sans-Serif" font-size="10.00">logging.h</text>
</a>
</g>
</g>
<!-- Node20&#45;&gt;Node27 -->
<g id="edge40" class="edge">
<title>Node20&#45;&gt;Node27</title>
<path fill="none" stroke="#63b8ff" d="M807.53,-261.17C929.18,-259.49 1445.79,-250.64 1868,-217 1894.75,-214.87 1924.78,-211.29 1947.85,-208.28"/>
<polygon fill="#63b8ff" stroke="#63b8ff" points="1948.47,-211.73 1957.93,-206.95 1947.55,-204.79 1948.47,-211.73"/>
</g>
<!-- Node32 -->
<g id="node32" class="node">
<title>Node32</title>
<g id="a_node32"><a xlink:href="platform__channel_8h.html" target="_top" xlink:title=" ">
<polygon fill="white" stroke="#666666" points="1825.5,-211.5 1726.5,-211.5 1726.5,-192.5 1825.5,-192.5 1825.5,-211.5"/>
<text text-anchor="middle" x="1776" y="-199.5" font-family="Helvetica,sans-Serif" font-size="10.00">platform_channel.h</text>
</a>
</g>
</g>
<!-- Node20&#45;&gt;Node32 -->
<g id="edge47" class="edge">
<title>Node20&#45;&gt;Node32</title>
<path fill="none" stroke="#63b8ff" d="M807.68,-260.25C909.73,-255.44 1285.1,-237.33 1594,-217 1634.73,-214.32 1680.54,-210.79 1716.01,-207.95"/>
<polygon fill="#63b8ff" stroke="#63b8ff" points="1716.51,-211.42 1726.2,-207.13 1715.95,-204.44 1716.51,-211.42"/>
</g>
<!-- Node33 -->
<g id="node33" class="node">
<title>Node33</title>
<g id="a_node33"><a xlink:href="key__event_8h.html" target="_top" xlink:title=" ">
<polygon fill="white" stroke="#666666" points="1472,-217 1370,-217 1370,-187 1472,-187 1472,-217"/>
<text text-anchor="start" x="1378" y="-205" font-family="Helvetica,sans-Serif" font-size="10.00">static_plugins/key</text>
<text text-anchor="middle" x="1421" y="-194" font-family="Helvetica,sans-Serif" font-size="10.00">_event/key_event.h</text>
</a>
</g>
</g>
<!-- Node20&#45;&gt;Node33 -->
<g id="edge51" class="edge">
<title>Node20&#45;&gt;Node33</title>
<path fill="none" stroke="#63b8ff" d="M807.69,-259.06C902.33,-250.41 1223.55,-221.05 1359.46,-208.63"/>
<polygon fill="#63b8ff" stroke="#63b8ff" points="1360.06,-212.09 1369.7,-207.69 1359.42,-205.11 1360.06,-212.09"/>
</g>
<!-- Node38 -->
<g id="node38" class="node">
<title>Node38</title>
<g id="a_node38"><a xlink:href="text__input_8h.html" target="_top" xlink:title=" ">
<polygon fill="white" stroke="#666666" points="906.5,-217 809.5,-217 809.5,-187 906.5,-187 906.5,-217"/>
<text text-anchor="start" x="817.5" y="-205" font-family="Helvetica,sans-Serif" font-size="10.00">static_plugins/text</text>
<text text-anchor="middle" x="858" y="-194" font-family="Helvetica,sans-Serif" font-size="10.00">_input/text_input.h</text>
</a>
</g>
</g>
<!-- Node20&#45;&gt;Node38 -->
<g id="edge63" class="edge">
<title>Node20&#45;&gt;Node38</title>
<path fill="none" stroke="#63b8ff" d="M792.36,-252.87C802.62,-245.08 818.1,-233.32 831.45,-223.17"/>
<polygon fill="#63b8ff" stroke="#63b8ff" points="833.58,-225.95 839.42,-217.11 829.34,-220.38 833.58,-225.95"/>
</g>
<!-- Node27&#45;&gt;Node11 -->
<g id="edge46" class="edge">
<title>Node27&#45;&gt;Node11</title>
<path fill="none" stroke="#63b8ff" d="M2010.1,-192.38C2037.2,-182.17 2078.66,-164.8 2088,-151 2100.23,-132.93 2099.74,-107.01 2097.51,-89.62"/>
<polygon fill="#63b8ff" stroke="#63b8ff" points="2100.95,-88.92 2095.92,-79.59 2094.03,-90.02 2100.95,-88.92"/>
</g>
<!-- Node28 -->
<g id="node28" class="node">
<title>Node28</title>
<g id="a_node28"><a xlink:title=" ">
<polygon fill="#e0e0e0" stroke="#999999" points="2079,-145.5 2027,-145.5 2027,-126.5 2079,-126.5 2079,-145.5"/>
<text text-anchor="middle" x="2053" y="-133.5" font-family="Helvetica,sans-Serif" font-size="10.00">sstream</text>
</a>
</g>
</g>
<!-- Node27&#45;&gt;Node28 -->
<g id="edge41" class="edge">
<title>Node27&#45;&gt;Node28</title>
<path fill="none" stroke="#63b8ff" d="M1995.04,-192.37C2005.57,-182.31 2023.19,-165.48 2036.24,-153.01"/>
<polygon fill="#63b8ff" stroke="#63b8ff" points="2038.86,-155.34 2043.68,-145.91 2034.03,-150.28 2038.86,-155.34"/>
</g>
<!-- Node29 -->
<g id="node29" class="node">
<title>Node29</title>
<g id="a_node29"><a xlink:href="dlt_8h.html" target="_top" xlink:title=" ">
<polygon fill="white" stroke="#666666" points="2008.5,-145.5 1959.5,-145.5 1959.5,-126.5 2008.5,-126.5 2008.5,-145.5"/>
<text text-anchor="middle" x="1984" y="-133.5" font-family="Helvetica,sans-Serif" font-size="10.00">dlt/dlt.h</text>
</a>
</g>
</g>
<!-- Node27&#45;&gt;Node29 -->
<g id="edge42" class="edge">
<title>Node27&#45;&gt;Node29</title>
<path fill="none" stroke="#63b8ff" d="M1985.73,-192.37C1985.44,-183.16 1984.98,-168.29 1984.6,-156.27"/>
<polygon fill="#63b8ff" stroke="#63b8ff" points="1988.09,-155.79 1984.28,-145.91 1981.09,-156.01 1988.09,-155.79"/>
</g>
<!-- Node29&#45;&gt;Node11 -->
<g id="edge45" class="edge">
<title>Node29&#45;&gt;Node11</title>
<path fill="none" stroke="#63b8ff" d="M1998.84,-126.37C2017.12,-115.73 2048.44,-97.51 2070.13,-84.89"/>
<polygon fill="#63b8ff" stroke="#63b8ff" points="2072.17,-87.75 2079.05,-79.7 2068.64,-81.7 2072.17,-87.75"/>
</g>
<!-- Node30 -->
<g id="node30" class="node">
<title>Node30</title>
<g id="a_node30"><a xlink:href="libdlt_8h.html" target="_top" xlink:title=" ">
<polygon fill="white" stroke="#666666" points="2013.5,-79.5 1954.5,-79.5 1954.5,-60.5 2013.5,-60.5 2013.5,-79.5"/>
<text text-anchor="middle" x="1984" y="-67.5" font-family="Helvetica,sans-Serif" font-size="10.00">dlt/libdlt.h</text>
</a>
</g>
</g>
<!-- Node29&#45;&gt;Node30 -->
<g id="edge43" class="edge">
<title>Node29&#45;&gt;Node30</title>
<path fill="none" stroke="#63b8ff" d="M1984,-126.37C1984,-117.16 1984,-102.29 1984,-90.27"/>
<polygon fill="#63b8ff" stroke="#63b8ff" points="1987.5,-89.91 1984,-79.91 1980.5,-89.91 1987.5,-89.91"/>
</g>
<!-- Node31 -->
<g id="node31" class="node">
<title>Node31</title>
<g id="a_node31"><a xlink:title=" ">
<polygon fill="#e0e0e0" stroke="#999999" points="2007,-19 1961,-19 1961,0 2007,0 2007,-19"/>
<text text-anchor="middle" x="1984" y="-7" font-family="Helvetica,sans-Serif" font-size="10.00">cstdint</text>
</a>
</g>
</g>
<!-- Node30&#45;&gt;Node31 -->
<g id="edge44" class="edge">
<title>Node30&#45;&gt;Node31</title>
<path fill="none" stroke="#63b8ff" d="M1984,-60.37C1984,-52.25 1984,-39.81 1984,-29.39"/>
<polygon fill="#63b8ff" stroke="#63b8ff" points="1987.5,-29.17 1984,-19.17 1980.5,-29.17 1987.5,-29.17"/>
</g>
<!-- Node32&#45;&gt;Node4 -->
<g id="edge50" class="edge">
<title>Node32&#45;&gt;Node4</title>
<path fill="none" stroke="#63b8ff" d="M1786.02,-192.26C1803.13,-176.34 1834.24,-142.28 1814,-121 1782.03,-87.39 1107.94,-75.06 884.93,-71.9"/>
<polygon fill="#63b8ff" stroke="#63b8ff" points="884.71,-68.39 874.66,-71.75 884.61,-75.39 884.71,-68.39"/>
</g>
<!-- Node32&#45;&gt;Node6 -->
<g id="edge48" class="edge">
<title>Node32&#45;&gt;Node6</title>
<path fill="none" stroke="#63b8ff" d="M1777.48,-192.37C1779.08,-183.07 1781.68,-167.98 1783.75,-155.9"/>
<polygon fill="#63b8ff" stroke="#63b8ff" points="1787.22,-156.35 1785.47,-145.91 1780.33,-155.17 1787.22,-156.35"/>
</g>
<!-- Node32&#45;&gt;Node9 -->
<g id="edge49" class="edge">
<title>Node32&#45;&gt;Node9</title>
<path fill="none" stroke="#63b8ff" d="M1790.3,-192.37C1807.92,-181.73 1838.09,-163.51 1858.99,-150.89"/>
<polygon fill="#63b8ff" stroke="#63b8ff" points="1860.84,-153.86 1867.59,-145.7 1857.22,-147.87 1860.84,-153.86"/>
</g>
<!-- Node33&#45;&gt;Node4 -->
<g id="edge60" class="edge">
<title>Node33&#45;&gt;Node4</title>
<path fill="none" stroke="#63b8ff" d="M1370.5,-187C1343.38,-178.47 1309.9,-166.26 1282,-151 1262.81,-140.51 1263.26,-129.23 1243,-121 1179.8,-95.33 989.74,-80.89 885.07,-74.69"/>
<polygon fill="#63b8ff" stroke="#63b8ff" points="885.09,-71.18 874.9,-74.09 884.68,-78.17 885.09,-71.18"/>
</g>
<!-- Node33&#45;&gt;Node6 -->
<g id="edge52" class="edge">
<title>Node33&#45;&gt;Node6</title>
<path fill="none" stroke="#63b8ff" d="M1472.12,-195.02C1552.08,-185.39 1702.96,-165.99 1755,-151 1756.68,-150.52 1758.39,-149.96 1760.1,-149.36"/>
<polygon fill="#63b8ff" stroke="#63b8ff" points="1761.7,-152.49 1769.7,-145.56 1759.12,-145.99 1761.7,-152.49"/>
</g>
<!-- Node33&#45;&gt;Node7 -->
<g id="edge53" class="edge">
<title>Node33&#45;&gt;Node7</title>
<path fill="none" stroke="#63b8ff" d="M1369.68,-186.97C1335.14,-177.33 1288.65,-163.98 1248,-151 1245.75,-150.28 1243.44,-149.53 1241.12,-148.75"/>
<polygon fill="#63b8ff" stroke="#63b8ff" points="1242.21,-145.42 1231.62,-145.51 1239.95,-152.05 1242.21,-145.42"/>
</g>
<!-- Node33&#45;&gt;Node9 -->
<g id="edge54" class="edge">
<title>Node33&#45;&gt;Node9</title>
<path fill="none" stroke="#63b8ff" d="M1472.05,-195.77C1547.19,-187.78 1691.87,-171.31 1814,-151 1826.2,-148.97 1839.54,-146.32 1851.15,-143.87"/>
<polygon fill="#63b8ff" stroke="#63b8ff" points="1852.2,-147.23 1861.24,-141.7 1850.73,-140.38 1852.2,-147.23"/>
</g>
<!-- Node33&#45;&gt;Node11 -->
<g id="edge58" class="edge">
<title>Node33&#45;&gt;Node11</title>
<path fill="none" stroke="#63b8ff" d="M1472.05,-195.56C1545.77,-187.2 1678.04,-170.12 1722,-151 1742.05,-142.28 1740.83,-129.44 1761,-121 1869.44,-75.65 1907.07,-104.38 2023,-85 2029.34,-83.94 2035.99,-82.74 2042.56,-81.51"/>
<polygon fill="#63b8ff" stroke="#63b8ff" points="2043.61,-84.87 2052.78,-79.55 2042.3,-78 2043.61,-84.87"/>
</g>
<!-- Node33&#45;&gt;Node12 -->
<g id="edge59" class="edge">
<title>Node33&#45;&gt;Node12</title>
<path fill="none" stroke="#63b8ff" d="M1472.13,-187.19C1515.29,-175.54 1576.29,-159.07 1616.47,-148.21"/>
<polygon fill="#63b8ff" stroke="#63b8ff" points="1617.48,-151.57 1626.22,-145.58 1615.65,-144.81 1617.48,-151.57"/>
</g>
<!-- Node33&#45;&gt;Node16 -->
<g id="edge62" class="edge">
<title>Node33&#45;&gt;Node16</title>
<path fill="none" stroke="#63b8ff" d="M1369.89,-199.31C1152.69,-192.08 311.99,-163.55 194,-151 182.04,-149.73 169.17,-147.78 157.29,-145.73"/>
<polygon fill="#63b8ff" stroke="#63b8ff" points="157.61,-142.23 147.15,-143.92 156.38,-149.12 157.61,-142.23"/>
</g>
<!-- Node34 -->
<g id="node34" class="node">
<title>Node34</title>
<g id="a_node34"><a xlink:title=" ">
<polygon fill="#e0e0e0" stroke="#999999" points="1403.5,-151 1290.5,-151 1290.5,-121 1403.5,-121 1403.5,-151"/>
<text text-anchor="start" x="1298.5" y="-139" font-family="Helvetica,sans-Serif" font-size="10.00">flutter/basic_message</text>
<text text-anchor="middle" x="1347" y="-128" font-family="Helvetica,sans-Serif" font-size="10.00">_channel.h</text>
</a>
</g>
</g>
<!-- Node33&#45;&gt;Node34 -->
<g id="edge55" class="edge">
<title>Node33&#45;&gt;Node34</title>
<path fill="none" stroke="#63b8ff" d="M1404.58,-186.8C1394.71,-178.26 1381.98,-167.25 1371,-157.75"/>
<polygon fill="#63b8ff" stroke="#63b8ff" points="1373.23,-155.06 1363.38,-151.16 1368.65,-160.35 1373.23,-155.06"/>
</g>
<!-- Node35 -->
<g id="node35" class="node">
<title>Node35</title>
<g id="a_node35"><a xlink:title=" ">
<polygon fill="#e0e0e0" stroke="#999999" points="1164,-145.5 1032,-145.5 1032,-126.5 1164,-126.5 1164,-145.5"/>
<text text-anchor="middle" x="1098" y="-133.5" font-family="Helvetica,sans-Serif" font-size="10.00">flutter/binary_messenger.h</text>
</a>
</g>
</g>
<!-- Node33&#45;&gt;Node35 -->
<g id="edge56" class="edge">
<title>Node33&#45;&gt;Node35</title>
<path fill="none" stroke="#63b8ff" d="M1369.82,-190.86C1310.04,-179.01 1211.63,-159.52 1151.06,-147.51"/>
<polygon fill="#63b8ff" stroke="#63b8ff" points="1151.43,-144.02 1140.94,-145.51 1150.07,-150.88 1151.43,-144.02"/>
</g>
<!-- Node36 -->
<g id="node36" class="node">
<title>Node36</title>
<g id="a_node36"><a xlink:title=" ">
<polygon fill="#e0e0e0" stroke="#999999" points="1584.5,-151 1421.5,-151 1421.5,-121 1584.5,-121 1584.5,-151"/>
<text text-anchor="start" x="1429.5" y="-139" font-family="Helvetica,sans-Serif" font-size="10.00">flutter/shell/platform</text>
<text text-anchor="middle" x="1503" y="-128" font-family="Helvetica,sans-Serif" font-size="10.00">/common/json_message_codec.h</text>
</a>
</g>
</g>
<!-- Node33&#45;&gt;Node36 -->
<g id="edge57" class="edge">
<title>Node33&#45;&gt;Node36</title>
<path fill="none" stroke="#63b8ff" d="M1439.2,-186.8C1450.24,-178.18 1464.51,-167.04 1476.76,-157.48"/>
<polygon fill="#63b8ff" stroke="#63b8ff" points="1479.12,-160.08 1484.85,-151.16 1474.82,-154.56 1479.12,-160.08"/>
</g>
<!-- Node37 -->
<g id="node37" class="node">
<title>Node37</title>
<g id="a_node37"><a xlink:title=" ">
<polygon fill="#e0e0e0" stroke="#999999" points="1014,-145.5 880,-145.5 880,-126.5 1014,-126.5 1014,-145.5"/>
<text text-anchor="middle" x="947" y="-133.5" font-family="Helvetica,sans-Serif" font-size="10.00">xkbcommon/xkbcommon.h</text>
</a>
</g>
</g>
<!-- Node33&#45;&gt;Node37 -->
<g id="edge61" class="edge">
<title>Node33&#45;&gt;Node37</title>
<path fill="none" stroke="#63b8ff" d="M1369.98,-195.54C1294.13,-187.2 1147.22,-170.23 1023,-151 1015.89,-149.9 1008.42,-148.65 1001.06,-147.35"/>
<polygon fill="#63b8ff" stroke="#63b8ff" points="1001.59,-143.89 991.13,-145.57 1000.36,-150.78 1001.59,-143.89"/>
</g>
<!-- Node38&#45;&gt;Node4 -->
<g id="edge74" class="edge">
<title>Node38&#45;&gt;Node4</title>
<path fill="none" stroke="#63b8ff" d="M851.88,-186.69C847.73,-176.76 842.25,-163.18 838,-151 831.49,-132.36 825.12,-110.91 820.57,-94.92"/>
<polygon fill="#63b8ff" stroke="#63b8ff" points="823.94,-93.97 817.87,-85.28 817.2,-95.86 823.94,-93.97"/>
</g>
<!-- Node38&#45;&gt;Node6 -->
<g id="edge64" class="edge">
<title>Node38&#45;&gt;Node6</title>
<path fill="none" stroke="#63b8ff" d="M906.97,-200.81C1039.12,-199.71 1413.81,-192.85 1722,-151 1734.44,-149.31 1748.03,-146.53 1759.56,-143.89"/>
<polygon fill="#63b8ff" stroke="#63b8ff" points="1760.55,-147.26 1769.47,-141.54 1758.94,-140.44 1760.55,-147.26"/>
</g>
<!-- Node38&#45;&gt;Node7 -->
<g id="edge65" class="edge">
<title>Node38&#45;&gt;Node7</title>
<path fill="none" stroke="#63b8ff" d="M906.76,-189.78C911.56,-188.79 916.37,-187.84 921,-187 1032.3,-166.71 1063.7,-180.22 1173,-151 1175.16,-150.42 1177.36,-149.75 1179.56,-149.02"/>
<polygon fill="#63b8ff" stroke="#63b8ff" points="1180.84,-152.28 1189.02,-145.54 1178.43,-145.71 1180.84,-152.28"/>
</g>
<!-- Node38&#45;&gt;Node9 -->
<g id="edge66" class="edge">
<title>Node38&#45;&gt;Node9</title>
<path fill="none" stroke="#63b8ff" d="M906.51,-199.43C1075.19,-193.83 1635.55,-173.9 1814,-151 1826.27,-149.43 1839.62,-146.86 1851.22,-144.36"/>
<polygon fill="#63b8ff" stroke="#63b8ff" points="1852.31,-147.7 1861.3,-142.11 1850.78,-140.87 1852.31,-147.7"/>
</g>
<!-- Node38&#45;&gt;Node11 -->
<g id="edge70" class="edge">
<title>Node38&#45;&gt;Node11</title>
<path fill="none" stroke="#63b8ff" d="M855.52,-186.92C853.21,-168.66 852.49,-137.25 871,-121 919.12,-78.76 1959.38,-92.22 2023,-85 2030.72,-84.12 2038.86,-82.85 2046.76,-81.43"/>
<polygon fill="#63b8ff" stroke="#63b8ff" points="2047.42,-84.87 2056.59,-79.56 2046.12,-77.99 2047.42,-84.87"/>
</g>
<!-- Node38&#45;&gt;Node12 -->
<g id="edge73" class="edge">
<title>Node38&#45;&gt;Node12</title>
<path fill="none" stroke="#63b8ff" d="M906.92,-200.17C1025.4,-197.61 1336.93,-187.64 1594,-151 1600.28,-150.1 1606.86,-148.93 1613.32,-147.65"/>
<polygon fill="#63b8ff" stroke="#63b8ff" points="1614.22,-151.04 1623.29,-145.57 1612.79,-144.19 1614.22,-151.04"/>
</g>
<!-- Node38&#45;&gt;Node16 -->
<g id="edge76" class="edge">
<title>Node38&#45;&gt;Node16</title>
<path fill="none" stroke="#63b8ff" d="M809.26,-193.11C794.14,-190.87 777.41,-188.61 762,-187 510.42,-160.73 445.22,-180.58 194,-151 182.05,-149.59 169.19,-147.59 157.31,-145.55"/>
<polygon fill="#63b8ff" stroke="#63b8ff" points="157.63,-142.05 147.17,-143.75 156.4,-148.94 157.63,-142.05"/>
</g>
<!-- Node38&#45;&gt;Node35 -->
<g id="edge67" class="edge">
<title>Node38&#45;&gt;Node35</title>
<path fill="none" stroke="#63b8ff" d="M906.57,-188.05C950.48,-176.34 1014.45,-159.28 1056.14,-148.16"/>
<polygon fill="#63b8ff" stroke="#63b8ff" points="1057.22,-151.5 1065.98,-145.54 1055.41,-144.73 1057.22,-151.5"/>
</g>
<!-- Node38&#45;&gt;Node37 -->
<g id="edge75" class="edge">
<title>Node38&#45;&gt;Node37</title>
<path fill="none" stroke="#63b8ff" d="M877.75,-186.8C892.26,-176.37 911.9,-162.24 926.56,-151.69"/>
<polygon fill="#63b8ff" stroke="#63b8ff" points="928.88,-154.34 934.96,-145.66 924.8,-148.66 928.88,-154.34"/>
</g>
<!-- Node39 -->
<g id="node39" class="node">
<title>Node39</title>
<g id="a_node39"><a xlink:title=" ">
<polygon fill="#e0e0e0" stroke="#999999" points="662,-145.5 538,-145.5 538,-126.5 662,-126.5 662,-145.5"/>
<text text-anchor="middle" x="600" y="-133.5" font-family="Helvetica,sans-Serif" font-size="10.00">flutter/method_channel.h</text>
</a>
</g>
</g>
<!-- Node38&#45;&gt;Node39 -->
<g id="edge68" class="edge">
<title>Node38&#45;&gt;Node39</title>
<path fill="none" stroke="#63b8ff" d="M809.47,-188.96C761.98,-177.18 690.24,-159.39 644.27,-147.98"/>
<polygon fill="#63b8ff" stroke="#63b8ff" points="644.85,-144.52 634.3,-145.51 643.16,-151.31 644.85,-144.52"/>
</g>
<!-- Node40 -->
<g id="node40" class="node">
<title>Node40</title>
<g id="a_node40"><a xlink:title=" ">
<polygon fill="#e0e0e0" stroke="#999999" points="786,-151 680,-151 680,-121 786,-121 786,-151"/>
<text text-anchor="start" x="688" y="-139" font-family="Helvetica,sans-Serif" font-size="10.00">flutter/method_result</text>
<text text-anchor="middle" x="733" y="-128" font-family="Helvetica,sans-Serif" font-size="10.00">_functions.h</text>
</a>
</g>
</g>
<!-- Node38&#45;&gt;Node40 -->
<g id="edge69" class="edge">
<title>Node38&#45;&gt;Node40</title>
<path fill="none" stroke="#63b8ff" d="M830.57,-186.95C812.58,-177.74 788.85,-165.6 769.3,-155.59"/>
<polygon fill="#63b8ff" stroke="#63b8ff" points="770.86,-152.45 760.37,-151.01 767.67,-158.69 770.86,-152.45"/>
</g>
<!-- Node41 -->
<g id="node41" class="node">
<title>Node41</title>
<g id="a_node41"><a xlink:title=" ">
<polygon fill="#e0e0e0" stroke="#999999" points="358.5,-151 203.5,-151 203.5,-121 358.5,-121 358.5,-151"/>
<text text-anchor="start" x="211.5" y="-139" font-family="Helvetica,sans-Serif" font-size="10.00">flutter/shell/platform</text>
<text text-anchor="middle" x="281" y="-128" font-family="Helvetica,sans-Serif" font-size="10.00">/common/json_method_codec.h</text>
</a>
</g>
</g>
<!-- Node38&#45;&gt;Node41 -->
<g id="edge71" class="edge">
<title>Node38&#45;&gt;Node41</title>
<path fill="none" stroke="#63b8ff" d="M809.28,-189.49C804.47,-188.56 799.65,-187.71 795,-187 609.94,-158.77 558.78,-173.62 368.78,-151.02"/>
<polygon fill="#63b8ff" stroke="#63b8ff" points="369.09,-147.53 358.75,-149.81 368.25,-154.48 369.09,-147.53"/>
</g>
<!-- Node42 -->
<g id="node42" class="node">
<title>Node42</title>
<g id="a_node42"><a xlink:title=" ">
<polygon fill="#e0e0e0" stroke="#999999" points="519.5,-151 376.5,-151 376.5,-121 519.5,-121 519.5,-151"/>
<text text-anchor="start" x="384.5" y="-139" font-family="Helvetica,sans-Serif" font-size="10.00">flutter/shell/platform</text>
<text text-anchor="middle" x="448" y="-128" font-family="Helvetica,sans-Serif" font-size="10.00">/common/text_input_model.h</text>
</a>
</g>
</g>
<!-- Node38&#45;&gt;Node42 -->
<g id="edge72" class="edge">
<title>Node38&#45;&gt;Node42</title>
<path fill="none" stroke="#63b8ff" d="M809.24,-189.74C804.44,-188.76 799.63,-187.83 795,-187 680.77,-166.61 648.65,-169.01 529.77,-151.07"/>
<polygon fill="#63b8ff" stroke="#63b8ff" points="529.94,-147.56 519.53,-149.51 528.89,-154.48 529.94,-147.56"/>
</g>
</g>
</svg>
