<?xml version="1.0" encoding="UTF-8" standalone="no"?>
<!DOCTYPE svg PUBLIC "-//W3C//DTD SVG 1.1//EN"
 "http://www.w3.org/Graphics/SVG/1.1/DTD/svg11.dtd">
<!-- Generated by graphviz version 2.43.0 (0)
 -->
<!-- Title: /home/joel.winarske@toyotaconnected.com/development/stargate/ivi&#45;homescreen/shell/view/compositor_surface.h Pages: 1 -->
<svg width="641pt" height="195pt"
 viewBox="0.00 0.00 640.50 195.00" xmlns="http://www.w3.org/2000/svg" xmlns:xlink="http://www.w3.org/1999/xlink">
<g id="graph0" class="graph" transform="scale(1 1) rotate(0) translate(4 191)">
<title>/home/joel.winarske@toyotaconnected.com/development/stargate/ivi&#45;homescreen/shell/view/compositor_surface.h</title>
<polygon fill="white" stroke="transparent" points="-4,4 -4,-191 636.5,-191 636.5,4 -4,4"/>
<!-- Node1 -->
<g id="node1" class="node">
<title>Node1</title>
<g id="a_node1"><a xlink:title=" ">
<polygon fill="#bfbfbf" stroke="black" points="248.5,-123.5 248.5,-186.5 399.5,-186.5 399.5,-123.5 248.5,-123.5"/>
<text text-anchor="start" x="256.5" y="-174.5" font-family="Helvetica,sans-Serif" font-size="10.00">/home/joel.winarske</text>
<text text-anchor="start" x="256.5" y="-163.5" font-family="Helvetica,sans-Serif" font-size="10.00">@toyotaconnected.com</text>
<text text-anchor="start" x="256.5" y="-152.5" font-family="Helvetica,sans-Serif" font-size="10.00">/development/stargate</text>
<text text-anchor="start" x="256.5" y="-141.5" font-family="Helvetica,sans-Serif" font-size="10.00">/ivi&#45;homescreen/shell</text>
<text text-anchor="middle" x="324" y="-130.5" font-family="Helvetica,sans-Serif" font-size="10.00">/view/compositor_surface.h</text>
</a>
</g>
</g>
<!-- Node2 -->
<g id="node2" class="node">
<title>Node2</title>
<g id="a_node2"><a xlink:title=" ">
<polygon fill="white" stroke="#bfbfbf" points="35,-62 35,-81 93,-81 93,-62 35,-62"/>
<text text-anchor="middle" x="64" y="-69" font-family="Helvetica,sans-Serif" font-size="10.00">memory</text>
</a>
</g>
</g>
<!-- Node1&#45;&gt;Node2 -->
<g id="edge1" class="edge">
<title>Node1&#45;&gt;Node2</title>
<path fill="none" stroke="midnightblue" d="M248.31,-132.61C205.19,-120.06 150.29,-103.48 102,-87 99.74,-86.23 97.42,-85.41 95.09,-84.57"/>
<polygon fill="midnightblue" stroke="midnightblue" points="96.2,-81.25 85.61,-81.05 93.76,-87.81 96.2,-81.25"/>
</g>
<!-- Node3 -->
<g id="node3" class="node">
<title>Node3</title>
<g id="a_node3"><a xlink:href="configuration_8h.html" target="_top" xlink:title=" ">
<polygon fill="white" stroke="black" points="111,-62 111,-81 267,-81 267,-62 111,-62"/>
<text text-anchor="middle" x="189" y="-69" font-family="Helvetica,sans-Serif" font-size="10.00">configuration/configuration.h</text>
</a>
</g>
</g>
<!-- Node1&#45;&gt;Node3 -->
<g id="edge2" class="edge">
<title>Node1&#45;&gt;Node3</title>
<path fill="none" stroke="midnightblue" d="M273.35,-123.42C252.14,-110.62 228.55,-96.38 211.73,-86.22"/>
<polygon fill="midnightblue" stroke="midnightblue" points="213.51,-83.21 203.14,-81.03 209.89,-89.2 213.51,-83.21"/>
</g>
<!-- Node6 -->
<g id="node6" class="node">
<title>Node6</title>
<g id="a_node6"><a xlink:title=" ">
<polygon fill="white" stroke="#bfbfbf" points="268.5,-0.5 268.5,-19.5 381.5,-19.5 381.5,-0.5 268.5,-0.5"/>
<text text-anchor="middle" x="325" y="-7.5" font-family="Helvetica,sans-Serif" font-size="10.00">flutter/fml/macros.h</text>
</a>
</g>
</g>
<!-- Node1&#45;&gt;Node6 -->
<g id="edge7" class="edge">
<title>Node1&#45;&gt;Node6</title>
<path fill="none" stroke="midnightblue" d="M317.33,-123.07C314.04,-103.77 311.3,-78.41 314,-56 315.07,-47.11 317.29,-37.43 319.46,-29.34"/>
<polygon fill="midnightblue" stroke="midnightblue" points="322.89,-30.09 322.27,-19.51 316.16,-28.17 322.89,-30.09"/>
</g>
<!-- Node8 -->
<g id="node8" class="node">
<title>Node8</title>
<g id="a_node8"><a xlink:title=" ">
<polygon fill="white" stroke="#bfbfbf" points="323,-62 323,-81 385,-81 385,-62 323,-62"/>
<text text-anchor="middle" x="354" y="-69" font-family="Helvetica,sans-Serif" font-size="10.00">EGL/egl.h</text>
</a>
</g>
</g>
<!-- Node1&#45;&gt;Node8 -->
<g id="edge8" class="edge">
<title>Node1&#45;&gt;Node8</title>
<path fill="none" stroke="midnightblue" d="M335.34,-123.19C339.34,-112.31 343.72,-100.44 347.22,-90.91"/>
<polygon fill="midnightblue" stroke="midnightblue" points="350.58,-91.93 350.75,-81.34 344.01,-89.52 350.58,-91.93"/>
</g>
<!-- Node9 -->
<g id="node9" class="node">
<title>Node9</title>
<g id="a_node9"><a xlink:title=" ">
<polygon fill="white" stroke="#bfbfbf" points="403,-62 403,-81 501,-81 501,-62 403,-62"/>
<text text-anchor="middle" x="452" y="-69" font-family="Helvetica,sans-Serif" font-size="10.00">wayland&#45;client.h</text>
</a>
</g>
</g>
<!-- Node1&#45;&gt;Node9 -->
<g id="edge9" class="edge">
<title>Node1&#45;&gt;Node9</title>
<path fill="none" stroke="midnightblue" d="M372.03,-123.42C391.95,-110.73 414.08,-96.64 430,-86.51"/>
<polygon fill="midnightblue" stroke="midnightblue" points="432.04,-89.36 438.6,-81.03 428.28,-83.45 432.04,-89.36"/>
</g>
<!-- Node10 -->
<g id="node10" class="node">
<title>Node10</title>
<g id="a_node10"><a xlink:href="compositor__surface__api_8h.html" target="_top" xlink:title=" ">
<polygon fill="white" stroke="black" points="519.5,-56.5 519.5,-86.5 632.5,-86.5 632.5,-56.5 519.5,-56.5"/>
<text text-anchor="start" x="527.5" y="-74.5" font-family="Helvetica,sans-Serif" font-size="10.00">compositor_surface</text>
<text text-anchor="middle" x="576" y="-63.5" font-family="Helvetica,sans-Serif" font-size="10.00">_api.h</text>
</a>
</g>
</g>
<!-- Node1&#45;&gt;Node10 -->
<g id="edge10" class="edge">
<title>Node1&#45;&gt;Node10</title>
<path fill="none" stroke="midnightblue" d="M399.61,-129.55C439.36,-116.69 487.13,-101.24 522.93,-89.66"/>
<polygon fill="midnightblue" stroke="midnightblue" points="524.25,-92.91 532.69,-86.51 522.1,-86.25 524.25,-92.91"/>
</g>
<!-- Node4 -->
<g id="node4" class="node">
<title>Node4</title>
<g id="a_node4"><a xlink:title=" ">
<polygon fill="white" stroke="#bfbfbf" points="0,-0.5 0,-19.5 44,-19.5 44,-0.5 0,-0.5"/>
<text text-anchor="middle" x="22" y="-7.5" font-family="Helvetica,sans-Serif" font-size="10.00">string</text>
</a>
</g>
</g>
<!-- Node3&#45;&gt;Node4 -->
<g id="edge3" class="edge">
<title>Node3&#45;&gt;Node4</title>
<path fill="none" stroke="midnightblue" d="M165.07,-61.98C135.73,-51.52 85.91,-33.77 53.48,-22.22"/>
<polygon fill="midnightblue" stroke="midnightblue" points="54.61,-18.9 44.02,-18.85 52.26,-25.5 54.61,-18.9"/>
</g>
<!-- Node5 -->
<g id="node5" class="node">
<title>Node5</title>
<g id="a_node5"><a xlink:title=" ">
<polygon fill="white" stroke="#bfbfbf" points="62.5,-0.5 62.5,-19.5 109.5,-19.5 109.5,-0.5 62.5,-0.5"/>
<text text-anchor="middle" x="86" y="-7.5" font-family="Helvetica,sans-Serif" font-size="10.00">vector</text>
</a>
</g>
</g>
<!-- Node3&#45;&gt;Node5 -->
<g id="edge4" class="edge">
<title>Node3&#45;&gt;Node5</title>
<path fill="none" stroke="midnightblue" d="M174.24,-61.98C157.34,-52.21 129.42,-36.08 109.51,-24.58"/>
<polygon fill="midnightblue" stroke="midnightblue" points="111.14,-21.48 100.73,-19.51 107.64,-27.54 111.14,-21.48"/>
</g>
<!-- Node3&#45;&gt;Node6 -->
<g id="edge5" class="edge">
<title>Node3&#45;&gt;Node6</title>
<path fill="none" stroke="midnightblue" d="M208.49,-61.98C231.41,-51.95 269.69,-35.2 296.08,-23.65"/>
<polygon fill="midnightblue" stroke="midnightblue" points="297.79,-26.72 305.55,-19.51 294.99,-20.31 297.79,-26.72"/>
</g>
<!-- Node7 -->
<g id="node7" class="node">
<title>Node7</title>
<g id="a_node7"><a xlink:title=" ">
<polygon fill="white" stroke="#bfbfbf" points="128,-0.5 128,-19.5 250,-19.5 250,-0.5 128,-0.5"/>
<text text-anchor="middle" x="189" y="-7.5" font-family="Helvetica,sans-Serif" font-size="10.00">rapidjson/document.h</text>
</a>
</g>
</g>
<!-- Node3&#45;&gt;Node7 -->
<g id="edge6" class="edge">
<title>Node3&#45;&gt;Node7</title>
<path fill="none" stroke="midnightblue" d="M189,-61.98C189,-53.58 189,-40.48 189,-29.66"/>
<polygon fill="midnightblue" stroke="midnightblue" points="192.5,-29.51 189,-19.51 185.5,-29.51 192.5,-29.51"/>
</g>
<!-- Node11 -->
<g id="node11" class="node">
<title>Node11</title>
<g id="a_node11"><a xlink:title=" ">
<polygon fill="white" stroke="#bfbfbf" points="551,-0.5 551,-19.5 601,-19.5 601,-0.5 551,-0.5"/>
<text text-anchor="middle" x="576" y="-7.5" font-family="Helvetica,sans-Serif" font-size="10.00">cstdint</text>
</a>
</g>
</g>
<!-- Node10&#45;&gt;Node11 -->
<g id="edge11" class="edge">
<title>Node10&#45;&gt;Node11</title>
<path fill="none" stroke="midnightblue" d="M576,-56.4C576,-48.47 576,-38.46 576,-29.86"/>
<polygon fill="midnightblue" stroke="midnightblue" points="579.5,-29.66 576,-19.66 572.5,-29.66 579.5,-29.66"/>
</g>
</g>
</svg>
