<?xml version="1.0" encoding="UTF-8" standalone="no"?>
<!DOCTYPE svg PUBLIC "-//W3C//DTD SVG 1.1//EN"
 "http://www.w3.org/Graphics/SVG/1.1/DTD/svg11.dtd">
<!-- Generated by graphviz version 2.43.0 (0)
 -->
<!-- Title: /home/joel.winarske@toyotaconnected.com/development/workspace&#45;automation&#45;configs/app/ivi&#45;homescreen/shell/view/compositor_surface.h Pages: 1 -->
<svg width="855pt" height="217pt"
 viewBox="0.00 0.00 855.00 217.00" xmlns="http://www.w3.org/2000/svg" xmlns:xlink="http://www.w3.org/1999/xlink">
<g id="graph0" class="graph" transform="scale(1 1) rotate(0) translate(4 213)">
<title>/home/joel.winarske@toyotaconnected.com/development/workspace&#45;automation&#45;configs/app/ivi&#45;homescreen/shell/view/compositor_surface.h</title>
<polygon fill="white" stroke="transparent" points="-4,4 -4,-213 851,-213 851,4 -4,4"/>
<!-- Node1 -->
<g id="node1" class="node">
<title>Node1</title>
<g id="a_node1"><a xlink:title=" ">
<polygon fill="#bfbfbf" stroke="black" points="339,-134.5 339,-208.5 487,-208.5 487,-134.5 339,-134.5"/>
<text text-anchor="start" x="347" y="-196.5" font-family="Helvetica,sans-Serif" font-size="10.00">/home/joel.winarske</text>
<text text-anchor="start" x="347" y="-185.5" font-family="Helvetica,sans-Serif" font-size="10.00">@toyotaconnected.com</text>
<text text-anchor="start" x="347" y="-174.5" font-family="Helvetica,sans-Serif" font-size="10.00">/development/workspace</text>
<text text-anchor="start" x="347" y="-163.5" font-family="Helvetica,sans-Serif" font-size="10.00">&#45;automation&#45;configs/app</text>
<text text-anchor="start" x="347" y="-152.5" font-family="Helvetica,sans-Serif" font-size="10.00">/ivi&#45;homescreen/shell/view</text>
<text text-anchor="middle" x="413" y="-141.5" font-family="Helvetica,sans-Serif" font-size="10.00">/compositor_surface.h</text>
</a>
</g>
</g>
<!-- Node2 -->
<g id="node2" class="node">
<title>Node2</title>
<g id="a_node2"><a xlink:title=" ">
<polygon fill="white" stroke="#bfbfbf" points="68,-73 68,-92 126,-92 126,-73 68,-73"/>
<text text-anchor="middle" x="97" y="-80" font-family="Helvetica,sans-Serif" font-size="10.00">memory</text>
</a>
</g>
</g>
<!-- Node1&#45;&gt;Node2 -->
<g id="edge1" class="edge">
<title>Node1&#45;&gt;Node2</title>
<path fill="none" stroke="midnightblue" d="M338.91,-153.52C282.54,-140.03 203.29,-119.86 135,-98 132.59,-97.23 130.1,-96.39 127.62,-95.51"/>
<polygon fill="midnightblue" stroke="midnightblue" points="128.75,-92.2 118.16,-92.04 126.34,-98.77 128.75,-92.2"/>
</g>
<!-- Node3 -->
<g id="node3" class="node">
<title>Node3</title>
<g id="a_node3"><a xlink:href="configuration_8h.html" target="_top" xlink:title=" ">
<polygon fill="white" stroke="black" points="144,-73 144,-92 300,-92 300,-73 144,-73"/>
<text text-anchor="middle" x="222" y="-80" font-family="Helvetica,sans-Serif" font-size="10.00">configuration/configuration.h</text>
</a>
</g>
</g>
<!-- Node1&#45;&gt;Node3 -->
<g id="edge2" class="edge">
<title>Node1&#45;&gt;Node3</title>
<path fill="none" stroke="midnightblue" d="M338.88,-136.74C307.87,-122.61 273.68,-107.04 250.34,-96.41"/>
<polygon fill="midnightblue" stroke="midnightblue" points="251.59,-93.13 241.04,-92.17 248.69,-99.5 251.59,-93.13"/>
</g>
<!-- Node6 -->
<g id="node6" class="node">
<title>Node6</title>
<g id="a_node6"><a xlink:title=" ">
<polygon fill="white" stroke="#bfbfbf" points="267.5,-6 267.5,-25 380.5,-25 380.5,-6 267.5,-6"/>
<text text-anchor="middle" x="324" y="-13" font-family="Helvetica,sans-Serif" font-size="10.00">flutter/fml/macros.h</text>
</a>
</g>
</g>
<!-- Node1&#45;&gt;Node6 -->
<g id="edge7" class="edge">
<title>Node1&#45;&gt;Node6</title>
<path fill="none" stroke="midnightblue" d="M374.08,-134.36C364.11,-123.47 354.19,-110.95 347,-98 335.88,-77.97 329.77,-52.12 326.7,-34.96"/>
<polygon fill="midnightblue" stroke="midnightblue" points="330.15,-34.4 325.09,-25.09 323.24,-35.52 330.15,-34.4"/>
</g>
<!-- Node8 -->
<g id="node8" class="node">
<title>Node8</title>
<g id="a_node8"><a xlink:title=" ">
<polygon fill="white" stroke="#bfbfbf" points="569,-6 569,-25 631,-25 631,-6 569,-6"/>
<text text-anchor="middle" x="600" y="-13" font-family="Helvetica,sans-Serif" font-size="10.00">EGL/egl.h</text>
</a>
</g>
</g>
<!-- Node1&#45;&gt;Node8 -->
<g id="edge8" class="edge">
<title>Node1&#45;&gt;Node8</title>
<path fill="none" stroke="midnightblue" d="M487.16,-160.15C525.74,-150.68 569.97,-132.58 595,-98 608.15,-79.83 606.96,-52.98 604.12,-35.12"/>
<polygon fill="midnightblue" stroke="midnightblue" points="607.52,-34.27 602.21,-25.1 600.65,-35.58 607.52,-34.27"/>
</g>
<!-- Node9 -->
<g id="node9" class="node">
<title>Node9</title>
<g id="a_node9"><a xlink:title=" ">
<polygon fill="white" stroke="#bfbfbf" points="488,-73 488,-92 586,-92 586,-73 488,-73"/>
<text text-anchor="middle" x="537" y="-80" font-family="Helvetica,sans-Serif" font-size="10.00">wayland&#45;client.h</text>
</a>
</g>
</g>
<!-- Node1&#45;&gt;Node9 -->
<g id="edge9" class="edge">
<title>Node1&#45;&gt;Node9</title>
<path fill="none" stroke="midnightblue" d="M464.51,-134.36C482.74,-121.57 502.22,-107.9 516.39,-97.96"/>
<polygon fill="midnightblue" stroke="midnightblue" points="518.69,-100.62 524.87,-92.01 514.67,-94.89 518.69,-100.62"/>
</g>
<!-- Node10 -->
<g id="node10" class="node">
<title>Node10</title>
<g id="a_node10"><a xlink:href="compositor__surface__api_8h.html" target="_top" xlink:title=" ">
<polygon fill="white" stroke="black" points="356.5,-67.5 356.5,-97.5 469.5,-97.5 469.5,-67.5 356.5,-67.5"/>
<text text-anchor="start" x="364.5" y="-85.5" font-family="Helvetica,sans-Serif" font-size="10.00">compositor_surface</text>
<text text-anchor="middle" x="413" y="-74.5" font-family="Helvetica,sans-Serif" font-size="10.00">_api.h</text>
</a>
</g>
</g>
<!-- Node1&#45;&gt;Node10 -->
<g id="edge10" class="edge">
<title>Node1&#45;&gt;Node10</title>
<path fill="none" stroke="midnightblue" d="M413,-134.36C413,-125.4 413,-116.01 413,-107.78"/>
<polygon fill="midnightblue" stroke="midnightblue" points="416.5,-107.74 413,-97.74 409.5,-107.74 416.5,-107.74"/>
</g>
<!-- Node12 -->
<g id="node12" class="node">
<title>Node12</title>
<g id="a_node12"><a xlink:href="constants_8h.html" target="_top" xlink:title=" ">
<polygon fill="white" stroke="black" points="668.5,-73 668.5,-92 741.5,-92 741.5,-73 668.5,-73"/>
<text text-anchor="middle" x="705" y="-80" font-family="Helvetica,sans-Serif" font-size="10.00">constants.h</text>
</a>
</g>
</g>
<!-- Node1&#45;&gt;Node12 -->
<g id="edge12" class="edge">
<title>Node1&#45;&gt;Node12</title>
<path fill="none" stroke="midnightblue" d="M487.06,-148.43C544.24,-131.4 621.04,-108.52 666.55,-94.96"/>
<polygon fill="midnightblue" stroke="midnightblue" points="667.73,-98.26 676.31,-92.05 665.73,-91.55 667.73,-98.26"/>
</g>
<!-- Node4 -->
<g id="node4" class="node">
<title>Node4</title>
<g id="a_node4"><a xlink:title=" ">
<polygon fill="white" stroke="#bfbfbf" points="140,-6 140,-25 184,-25 184,-6 140,-6"/>
<text text-anchor="middle" x="162" y="-13" font-family="Helvetica,sans-Serif" font-size="10.00">string</text>
</a>
</g>
</g>
<!-- Node3&#45;&gt;Node4 -->
<g id="edge3" class="edge">
<title>Node3&#45;&gt;Node4</title>
<path fill="none" stroke="midnightblue" d="M213.91,-72.73C204.46,-62.5 188.64,-45.36 176.95,-32.69"/>
<polygon fill="midnightblue" stroke="midnightblue" points="179.32,-30.1 169.96,-25.13 174.17,-34.85 179.32,-30.1"/>
</g>
<!-- Node5 -->
<g id="node5" class="node">
<title>Node5</title>
<g id="a_node5"><a xlink:title=" ">
<polygon fill="white" stroke="#bfbfbf" points="202.5,-6 202.5,-25 249.5,-25 249.5,-6 202.5,-6"/>
<text text-anchor="middle" x="226" y="-13" font-family="Helvetica,sans-Serif" font-size="10.00">vector</text>
</a>
</g>
</g>
<!-- Node3&#45;&gt;Node5 -->
<g id="edge4" class="edge">
<title>Node3&#45;&gt;Node5</title>
<path fill="none" stroke="midnightblue" d="M222.54,-72.73C223.13,-63.18 224.09,-47.62 224.84,-35.28"/>
<polygon fill="midnightblue" stroke="midnightblue" points="228.35,-35.32 225.47,-25.13 221.36,-34.89 228.35,-35.32"/>
</g>
<!-- Node3&#45;&gt;Node6 -->
<g id="edge5" class="edge">
<title>Node3&#45;&gt;Node6</title>
<path fill="none" stroke="midnightblue" d="M235.76,-72.73C252.73,-61.92 281.81,-43.38 301.93,-30.57"/>
<polygon fill="midnightblue" stroke="midnightblue" points="303.91,-33.45 310.46,-25.13 300.15,-27.55 303.91,-33.45"/>
</g>
<!-- Node7 -->
<g id="node7" class="node">
<title>Node7</title>
<g id="a_node7"><a xlink:title=" ">
<polygon fill="white" stroke="#bfbfbf" points="0,-6 0,-25 122,-25 122,-6 0,-6"/>
<text text-anchor="middle" x="61" y="-13" font-family="Helvetica,sans-Serif" font-size="10.00">rapidjson/document.h</text>
</a>
</g>
</g>
<!-- Node3&#45;&gt;Node7 -->
<g id="edge6" class="edge">
<title>Node3&#45;&gt;Node7</title>
<path fill="none" stroke="midnightblue" d="M200.62,-72.87C172.64,-61.57 123.41,-41.7 91.51,-28.82"/>
<polygon fill="midnightblue" stroke="midnightblue" points="92.79,-25.56 82.21,-25.06 90.17,-32.05 92.79,-25.56"/>
</g>
<!-- Node11 -->
<g id="node11" class="node">
<title>Node11</title>
<g id="a_node11"><a xlink:title=" ">
<polygon fill="white" stroke="#bfbfbf" points="399,-6 399,-25 449,-25 449,-6 399,-6"/>
<text text-anchor="middle" x="424" y="-13" font-family="Helvetica,sans-Serif" font-size="10.00">cstdint</text>
</a>
</g>
</g>
<!-- Node10&#45;&gt;Node11 -->
<g id="edge11" class="edge">
<title>Node10&#45;&gt;Node11</title>
<path fill="none" stroke="midnightblue" d="M415.39,-67.4C416.98,-57.96 419.1,-45.45 420.84,-35.19"/>
<polygon fill="midnightblue" stroke="midnightblue" points="424.31,-35.64 422.53,-25.19 417.41,-34.47 424.31,-35.64"/>
</g>
<!-- Node12&#45;&gt;Node8 -->
<g id="edge13" class="edge">
<title>Node12&#45;&gt;Node8</title>
<path fill="none" stroke="midnightblue" d="M690.84,-72.73C673.29,-61.87 643.16,-43.22 622.44,-30.39"/>
<polygon fill="midnightblue" stroke="midnightblue" points="624.28,-27.41 613.94,-25.13 620.6,-33.37 624.28,-27.41"/>
</g>
<!-- Node13 -->
<g id="node13" class="node">
<title>Node13</title>
<g id="a_node13"><a xlink:title=" ">
<polygon fill="white" stroke="#bfbfbf" points="649.5,-0.5 649.5,-30.5 786.5,-30.5 786.5,-0.5 649.5,-0.5"/>
<text text-anchor="start" x="657.5" y="-18.5" font-family="Helvetica,sans-Serif" font-size="10.00">shell/platform/embedder</text>
<text text-anchor="middle" x="718" y="-7.5" font-family="Helvetica,sans-Serif" font-size="10.00">/embedder.h</text>
</a>
</g>
</g>
<!-- Node12&#45;&gt;Node13 -->
<g id="edge14" class="edge">
<title>Node12&#45;&gt;Node13</title>
<path fill="none" stroke="midnightblue" d="M706.75,-72.73C708.39,-64.54 710.92,-51.92 713.16,-40.71"/>
<polygon fill="midnightblue" stroke="midnightblue" points="716.65,-41.08 715.18,-30.59 709.79,-39.71 716.65,-41.08"/>
</g>
<!-- Node14 -->
<g id="node14" class="node">
<title>Node14</title>
<g id="a_node14"><a xlink:title=" ">
<polygon fill="white" stroke="#bfbfbf" points="805,-6 805,-25 847,-25 847,-6 805,-6"/>
<text text-anchor="middle" x="826" y="-13" font-family="Helvetica,sans-Serif" font-size="10.00">array</text>
</a>
</g>
</g>
<!-- Node12&#45;&gt;Node14 -->
<g id="edge15" class="edge">
<title>Node12&#45;&gt;Node14</title>
<path fill="none" stroke="midnightblue" d="M721.32,-72.73C741.82,-61.72 777.2,-42.71 801.09,-29.88"/>
<polygon fill="midnightblue" stroke="midnightblue" points="802.79,-32.94 809.94,-25.13 799.47,-26.78 802.79,-32.94"/>
</g>
</g>
</svg>
