<?xml version="1.0" encoding="UTF-8" standalone="no"?>
<!DOCTYPE svg PUBLIC "-//W3C//DTD SVG 1.1//EN"
 "http://www.w3.org/Graphics/SVG/1.1/DTD/svg11.dtd">
<!-- Generated by graphviz version 5.0.0 (0)
 -->
<!-- Title: /mnt/raid10/stargate/ivi&#45;homescreen/shell/static_plugins/comp_region/comp_region.cc Pages: 1 -->
<svg width="2779pt" height="511pt"
 viewBox="0.00 0.00 2778.83 511.00" xmlns="http://www.w3.org/2000/svg" xmlns:xlink="http://www.w3.org/1999/xlink">
<g id="graph0" class="graph" transform="scale(1 1) rotate(0) translate(4 507)">
<title>/mnt/raid10/stargate/ivi&#45;homescreen/shell/static_plugins/comp_region/comp_region.cc</title>
<!-- Node1 -->
<g id="node1" class="node">
<title>Node1</title>
<g id="a_node1"><a xlink:title=" ">
<polygon fill="#999999" stroke="#666666" points="239,-503 101,-503 101,-451 239,-451 239,-503"/>
<text text-anchor="start" x="109" y="-491" font-family="Helvetica,sans-Serif" font-size="10.00">/mnt/raid10/stargate</text>
<text text-anchor="start" x="109" y="-480" font-family="Helvetica,sans-Serif" font-size="10.00">/ivi&#45;homescreen/shell</text>
<text text-anchor="start" x="109" y="-469" font-family="Helvetica,sans-Serif" font-size="10.00">/static_plugins/comp_region</text>
<text text-anchor="middle" x="170" y="-458" font-family="Helvetica,sans-Serif" font-size="10.00">/comp_region.cc</text>
</a>
</g>
</g>
<!-- Node2 -->
<g id="node2" class="node">
<title>Node2</title>
<g id="a_node2"><a xlink:href="comp__region_8h.html" target="_top" xlink:title=" ">
<polygon fill="white" stroke="#666666" points="210,-409.5 130,-409.5 130,-390.5 210,-390.5 210,-409.5"/>
<text text-anchor="middle" x="170" y="-397.5" font-family="Helvetica,sans-Serif" font-size="10.00">comp_region.h</text>
</a>
</g>
</g>
<!-- Node1&#45;&gt;Node2 -->
<g id="edge1" class="edge">
<title>Node1&#45;&gt;Node2</title>
<path fill="none" stroke="#63b8ff" d="M170,-450.61C170,-440.58 170,-429.25 170,-419.96"/>
<polygon fill="#63b8ff" stroke="#63b8ff" points="173.5,-419.85 170,-409.85 166.5,-419.85 173.5,-419.85"/>
</g>
<!-- Node5 -->
<g id="node5" class="node">
<title>Node5</title>
<g id="a_node5"><a xlink:href="flutter__view_8h.html" target="_top" xlink:title=" ">
<polygon fill="white" stroke="#666666" points="1912.5,-415 1829.5,-415 1829.5,-385 1912.5,-385 1912.5,-415"/>
<text text-anchor="start" x="1837.5" y="-403" font-family="Helvetica,sans-Serif" font-size="10.00">../../view/flutter</text>
<text text-anchor="middle" x="1871" y="-392" font-family="Helvetica,sans-Serif" font-size="10.00">_view.h</text>
</a>
</g>
</g>
<!-- Node1&#45;&gt;Node5 -->
<g id="edge4" class="edge">
<title>Node1&#45;&gt;Node5</title>
<path fill="none" stroke="#63b8ff" d="M239.05,-472.96C519.79,-460.58 1572.3,-414.17 1819.02,-403.29"/>
<polygon fill="#63b8ff" stroke="#63b8ff" points="1819.31,-406.78 1829.14,-402.85 1819,-399.79 1819.31,-406.78"/>
</g>
<!-- Node20 -->
<g id="node20" class="node">
<title>Node20</title>
<g id="a_node20"><a xlink:href="engine_8h.html" target="_top" xlink:title=" ">
<polygon fill="white" stroke="#666666" points="1050.5,-217 997.5,-217 997.5,-198 1050.5,-198 1050.5,-217"/>
<text text-anchor="middle" x="1024" y="-205" font-family="Helvetica,sans-Serif" font-size="10.00">engine.h</text>
</a>
</g>
</g>
<!-- Node1&#45;&gt;Node20 -->
<g id="edge83" class="edge">
<title>Node1&#45;&gt;Node20</title>
<path fill="none" stroke="#63b8ff" d="M130.15,-450.82C84.14,-418.73 19.44,-362.22 58,-319 121.12,-248.25 817.54,-216.57 987,-209.88"/>
<polygon fill="#63b8ff" stroke="#63b8ff" points="987.31,-213.37 997.16,-209.48 987.03,-206.38 987.31,-213.37"/>
</g>
<!-- Node3 -->
<g id="node3" class="node">
<title>Node3</title>
<g id="a_node3"><a xlink:title=" ">
<polygon fill="#e0e0e0" stroke="#999999" points="185.5,-349 66.5,-349 66.5,-319 185.5,-319 185.5,-349"/>
<text text-anchor="start" x="74.5" y="-337" font-family="Helvetica,sans-Serif" font-size="10.00">flutter/standard_method</text>
<text text-anchor="middle" x="126" y="-326" font-family="Helvetica,sans-Serif" font-size="10.00">_codec.h</text>
</a>
</g>
</g>
<!-- Node2&#45;&gt;Node3 -->
<g id="edge2" class="edge">
<title>Node2&#45;&gt;Node3</title>
<path fill="none" stroke="#63b8ff" d="M164.07,-390.37C158.37,-382.08 149.5,-369.18 141.76,-357.92"/>
<polygon fill="#63b8ff" stroke="#63b8ff" points="144.42,-355.62 135.87,-349.36 138.65,-359.58 144.42,-355.62"/>
</g>
<!-- Node4 -->
<g id="node4" class="node">
<title>Node4</title>
<g id="a_node4"><a xlink:title=" ">
<polygon fill="#e0e0e0" stroke="#999999" points="1018.5,-30 897.5,-30 897.5,0 1018.5,0 1018.5,-30"/>
<text text-anchor="start" x="905.5" y="-18" font-family="Helvetica,sans-Serif" font-size="10.00">shell/platform/embedder</text>
<text text-anchor="middle" x="958" y="-7" font-family="Helvetica,sans-Serif" font-size="10.00">/embedder.h</text>
</a>
</g>
</g>
<!-- Node2&#45;&gt;Node4 -->
<g id="edge3" class="edge">
<title>Node2&#45;&gt;Node4</title>
<path fill="none" stroke="#63b8ff" d="M177.27,-390.07C188.83,-374.7 208.77,-342.64 195,-319 144.85,-232.93 0,-308.11 0,-208.5 0,-208.5 0,-208.5 0,-146 0,58.43 333.09,-94.56 887.15,-29.93"/>
<polygon fill="#63b8ff" stroke="#63b8ff" points="887.87,-33.37 897.39,-28.72 887.04,-26.42 887.87,-33.37"/>
</g>
<!-- Node6 -->
<g id="node6" class="node">
<title>Node6</title>
<g id="a_node6"><a xlink:title=" ">
<polygon fill="#e0e0e0" stroke="#999999" points="1003.5,-90.5 968.5,-90.5 968.5,-71.5 1003.5,-71.5 1003.5,-90.5"/>
<text text-anchor="middle" x="986" y="-78.5" font-family="Helvetica,sans-Serif" font-size="10.00">map</text>
</a>
</g>
</g>
<!-- Node5&#45;&gt;Node6 -->
<g id="edge5" class="edge">
<title>Node5&#45;&gt;Node6</title>
<path fill="none" stroke="#63b8ff" d="M1873.97,-384.75C1879.11,-355.8 1886.08,-289.72 1852,-253 1716.15,-106.63 1605.09,-212.95 1412,-162 1370.01,-150.92 1361.44,-141.24 1319,-132 1184.77,-102.77 1143.03,-137.3 1012,-96 1010.95,-95.67 1009.89,-95.29 1008.83,-94.89"/>
<polygon fill="#63b8ff" stroke="#63b8ff" points="1010.15,-91.64 999.61,-90.57 1007.18,-97.98 1010.15,-91.64"/>
</g>
<!-- Node7 -->
<g id="node7" class="node">
<title>Node7</title>
<g id="a_node7"><a xlink:title=" ">
<polygon fill="#e0e0e0" stroke="#999999" points="2554,-90.5 2502,-90.5 2502,-71.5 2554,-71.5 2554,-90.5"/>
<text text-anchor="middle" x="2528" y="-78.5" font-family="Helvetica,sans-Serif" font-size="10.00">memory</text>
</a>
</g>
</g>
<!-- Node5&#45;&gt;Node7 -->
<g id="edge6" class="edge">
<title>Node5&#45;&gt;Node7</title>
<path fill="none" stroke="#63b8ff" d="M1912.6,-399.66C2057.02,-400.83 2528,-395.01 2528,-269 2528,-269 2528,-269 2528,-206.5 2528,-168.99 2528,-125.13 2528,-100.76"/>
<polygon fill="#63b8ff" stroke="#63b8ff" points="2531.5,-100.75 2528,-90.75 2524.5,-100.75 2531.5,-100.75"/>
</g>
<!-- Node8 -->
<g id="node8" class="node">
<title>Node8</title>
<g id="a_node8"><a xlink:href="configuration_8h.html" target="_top" xlink:title=" ">
<polygon fill="white" stroke="#666666" points="2194.5,-156.5 2055.5,-156.5 2055.5,-137.5 2194.5,-137.5 2194.5,-156.5"/>
<text text-anchor="middle" x="2125" y="-144.5" font-family="Helvetica,sans-Serif" font-size="10.00">configuration/configuration.h</text>
</a>
</g>
</g>
<!-- Node5&#45;&gt;Node8 -->
<g id="edge7" class="edge">
<title>Node5&#45;&gt;Node8</title>
<path fill="none" stroke="#63b8ff" d="M1887.57,-384.78C1912.36,-363.31 1960.34,-321.1 1999,-283 2040.85,-241.76 2087.36,-190.37 2110.41,-164.51"/>
<polygon fill="#63b8ff" stroke="#63b8ff" points="2113.26,-166.57 2117.28,-156.77 2108.02,-161.92 2113.26,-166.57"/>
</g>
<!-- Node11 -->
<g id="node11" class="node">
<title>Node11</title>
<g id="a_node11"><a xlink:title=" ">
<polygon fill="#e0e0e0" stroke="#999999" points="2673.5,-90.5 2572.5,-90.5 2572.5,-71.5 2673.5,-71.5 2673.5,-90.5"/>
<text text-anchor="middle" x="2623" y="-78.5" font-family="Helvetica,sans-Serif" font-size="10.00">flutter/fml/macros.h</text>
</a>
</g>
</g>
<!-- Node5&#45;&gt;Node11 -->
<g id="edge12" class="edge">
<title>Node5&#45;&gt;Node11</title>
<path fill="none" stroke="#63b8ff" d="M1912.74,-397.67C2032.45,-393.52 2375.24,-379.27 2483,-349 2559.16,-327.61 2642,-348.11 2642,-269 2642,-269 2642,-269 2642,-206.5 2642,-168.56 2633.27,-124.85 2627.65,-100.63"/>
<polygon fill="#63b8ff" stroke="#63b8ff" points="2631,-99.59 2625.25,-90.69 2624.19,-101.23 2631,-99.59"/>
</g>
<!-- Node13 -->
<g id="node13" class="node">
<title>Node13</title>
<g id="a_node13"><a xlink:href="window_8h.html" target="_top" xlink:title=" ">
<polygon fill="white" stroke="#666666" points="1559,-343.5 1463,-343.5 1463,-324.5 1559,-324.5 1559,-343.5"/>
<text text-anchor="middle" x="1511" y="-331.5" font-family="Helvetica,sans-Serif" font-size="10.00">wayland/window.h</text>
</a>
</g>
</g>
<!-- Node5&#45;&gt;Node13 -->
<g id="edge13" class="edge">
<title>Node5&#45;&gt;Node13</title>
<path fill="none" stroke="#63b8ff" d="M1829.35,-391.6C1765.1,-380.17 1641.61,-358.22 1568.76,-345.27"/>
<polygon fill="#63b8ff" stroke="#63b8ff" points="1569.29,-341.81 1558.83,-343.5 1568.06,-348.7 1569.29,-341.81"/>
</g>
<!-- Node9 -->
<g id="node9" class="node">
<title>Node9</title>
<g id="a_node9"><a xlink:title=" ">
<polygon fill="#e0e0e0" stroke="#999999" points="1413.5,-90.5 1372.5,-90.5 1372.5,-71.5 1413.5,-71.5 1413.5,-90.5"/>
<text text-anchor="middle" x="1393" y="-78.5" font-family="Helvetica,sans-Serif" font-size="10.00">string</text>
</a>
</g>
</g>
<!-- Node8&#45;&gt;Node9 -->
<g id="edge8" class="edge">
<title>Node8&#45;&gt;Node9</title>
<path fill="none" stroke="#63b8ff" d="M2055.22,-142.48C1889.77,-133.92 1483.06,-111.58 1423,-96 1421.32,-95.56 1419.61,-95.03 1417.92,-94.44"/>
<polygon fill="#63b8ff" stroke="#63b8ff" points="1419.06,-91.12 1408.48,-90.53 1416.38,-97.59 1419.06,-91.12"/>
</g>
<!-- Node10 -->
<g id="node10" class="node">
<title>Node10</title>
<g id="a_node10"><a xlink:title=" ">
<polygon fill="#e0e0e0" stroke="#999999" points="2736,-90.5 2692,-90.5 2692,-71.5 2736,-71.5 2736,-90.5"/>
<text text-anchor="middle" x="2714" y="-78.5" font-family="Helvetica,sans-Serif" font-size="10.00">vector</text>
</a>
</g>
</g>
<!-- Node8&#45;&gt;Node10 -->
<g id="edge9" class="edge">
<title>Node8&#45;&gt;Node10</title>
<path fill="none" stroke="#63b8ff" d="M2194.5,-142.67C2322.92,-136.05 2592.51,-119.76 2683,-96 2684.69,-95.56 2686.4,-95.03 2688.11,-94.44"/>
<polygon fill="#63b8ff" stroke="#63b8ff" points="2689.67,-97.59 2697.64,-90.62 2687.06,-91.09 2689.67,-97.59"/>
</g>
<!-- Node8&#45;&gt;Node11 -->
<g id="edge10" class="edge">
<title>Node8&#45;&gt;Node11</title>
<path fill="none" stroke="#63b8ff" d="M2194.77,-140.54C2281.49,-133.18 2433.85,-118.36 2563,-96 2568.4,-95.06 2574.05,-93.94 2579.62,-92.75"/>
<polygon fill="#63b8ff" stroke="#63b8ff" points="2580.51,-96.13 2589.5,-90.54 2578.98,-89.3 2580.51,-96.13"/>
</g>
<!-- Node12 -->
<g id="node12" class="node">
<title>Node12</title>
<g id="a_node12"><a xlink:title=" ">
<polygon fill="#e0e0e0" stroke="#999999" points="2180,-90.5 2070,-90.5 2070,-71.5 2180,-71.5 2180,-90.5"/>
<text text-anchor="middle" x="2125" y="-78.5" font-family="Helvetica,sans-Serif" font-size="10.00">rapidjson/document.h</text>
</a>
</g>
</g>
<!-- Node8&#45;&gt;Node12 -->
<g id="edge11" class="edge">
<title>Node8&#45;&gt;Node12</title>
<path fill="none" stroke="#63b8ff" d="M2125,-137.37C2125,-128.16 2125,-113.29 2125,-101.27"/>
<polygon fill="#63b8ff" stroke="#63b8ff" points="2128.5,-100.91 2125,-90.91 2121.5,-100.91 2128.5,-100.91"/>
</g>
<!-- Node13&#45;&gt;Node7 -->
<g id="edge14" class="edge">
<title>Node13&#45;&gt;Node7</title>
<path fill="none" stroke="#63b8ff" d="M1559.1,-333.52C1627.06,-332.6 1753.86,-324.75 1852,-283 1952.86,-240.09 1944.79,-171.61 2047,-132 2232.43,-60.14 2299.39,-141.44 2493,-96 2495.31,-95.46 2497.67,-94.79 2500.02,-94.04"/>
<polygon fill="#63b8ff" stroke="#63b8ff" points="2501.24,-97.32 2509.44,-90.62 2498.85,-90.74 2501.24,-97.32"/>
</g>
<!-- Node13&#45;&gt;Node9 -->
<g id="edge15" class="edge">
<title>Node13&#45;&gt;Node9</title>
<path fill="none" stroke="#63b8ff" d="M1515.63,-324.31C1530.92,-294.29 1576.4,-193.42 1532,-132 1502.11,-90.65 1470.42,-114.82 1423,-96 1421.98,-95.6 1420.96,-95.18 1419.92,-94.74"/>
<polygon fill="#63b8ff" stroke="#63b8ff" points="1421.18,-91.47 1410.62,-90.64 1418.35,-97.88 1421.18,-91.47"/>
</g>
<!-- Node14 -->
<g id="node14" class="node">
<title>Node14</title>
<g id="a_node14"><a xlink:title=" ">
<polygon fill="#e0e0e0" stroke="#999999" points="1259.5,-277.5 1210.5,-277.5 1210.5,-258.5 1259.5,-258.5 1259.5,-277.5"/>
<text text-anchor="middle" x="1235" y="-265.5" font-family="Helvetica,sans-Serif" font-size="10.00">cassert</text>
</a>
</g>
</g>
<!-- Node13&#45;&gt;Node14 -->
<g id="edge16" class="edge">
<title>Node13&#45;&gt;Node14</title>
<path fill="none" stroke="#63b8ff" d="M1462.58,-325.73C1413.24,-317.7 1334.84,-303.16 1269,-283 1267.32,-282.49 1265.61,-281.92 1263.9,-281.32"/>
<polygon fill="#63b8ff" stroke="#63b8ff" points="1264.78,-277.91 1254.19,-277.63 1262.29,-284.46 1264.78,-277.91"/>
</g>
<!-- Node15 -->
<g id="node15" class="node">
<title>Node15</title>
<g id="a_node15"><a xlink:title=" ">
<polygon fill="#e0e0e0" stroke="#999999" points="1402.5,-277.5 1277.5,-277.5 1277.5,-258.5 1402.5,-258.5 1402.5,-277.5"/>
<text text-anchor="middle" x="1340" y="-265.5" font-family="Helvetica,sans-Serif" font-size="10.00">agl&#45;shell&#45;client&#45;protocol.h</text>
</a>
</g>
</g>
<!-- Node13&#45;&gt;Node15 -->
<g id="edge17" class="edge">
<title>Node13&#45;&gt;Node15</title>
<path fill="none" stroke="#63b8ff" d="M1487.94,-324.37C1458.15,-313.22 1406.13,-293.75 1372.39,-281.12"/>
<polygon fill="#63b8ff" stroke="#63b8ff" points="1373.56,-277.82 1362.97,-277.6 1371.11,-284.38 1373.56,-277.82"/>
</g>
<!-- Node16 -->
<g id="node16" class="node">
<title>Node16</title>
<g id="a_node16"><a xlink:href="constants_8h.html" target="_top" xlink:title=" ">
<polygon fill="white" stroke="#666666" points="912,-90.5 844,-90.5 844,-71.5 912,-71.5 912,-90.5"/>
<text text-anchor="middle" x="878" y="-78.5" font-family="Helvetica,sans-Serif" font-size="10.00">constants.h</text>
</a>
</g>
</g>
<!-- Node13&#45;&gt;Node16 -->
<g id="edge18" class="edge">
<title>Node13&#45;&gt;Node16</title>
<path fill="none" stroke="#63b8ff" d="M1462.83,-330.07C1386.93,-324.65 1243.84,-310.99 1202,-283 1136.49,-239.17 1173.33,-177.54 1109,-132 1107.07,-130.64 988.52,-105.39 922.03,-91.31"/>
<polygon fill="#63b8ff" stroke="#63b8ff" points="922.73,-87.88 912.22,-89.23 921.28,-94.72 922.73,-87.88"/>
</g>
<!-- Node19 -->
<g id="node19" class="node">
<title>Node19</title>
<g id="a_node19"><a xlink:href="backend_8h.html" target="_top" xlink:title=" ">
<polygon fill="white" stroke="#666666" points="1153.5,-277.5 1052.5,-277.5 1052.5,-258.5 1153.5,-258.5 1153.5,-277.5"/>
<text text-anchor="middle" x="1103" y="-265.5" font-family="Helvetica,sans-Serif" font-size="10.00">backend/backend.h</text>
</a>
</g>
</g>
<!-- Node13&#45;&gt;Node19 -->
<g id="edge22" class="edge">
<title>Node13&#45;&gt;Node19</title>
<path fill="none" stroke="#63b8ff" d="M1462.83,-327.02C1396.31,-318.52 1272.68,-301.88 1168,-283 1162.25,-281.96 1156.23,-280.79 1150.28,-279.57"/>
<polygon fill="#63b8ff" stroke="#63b8ff" points="1150.88,-276.12 1140.38,-277.5 1149.45,-282.97 1150.88,-276.12"/>
</g>
<!-- Node46 -->
<g id="node46" class="node">
<title>Node46</title>
<g id="a_node46"><a xlink:title=" ">
<polygon fill="#e0e0e0" stroke="#999999" points="1523,-283 1421,-283 1421,-253 1523,-253 1523,-283"/>
<text text-anchor="start" x="1429" y="-271" font-family="Helvetica,sans-Serif" font-size="10.00">ivi&#45;application&#45;client</text>
<text text-anchor="middle" x="1472" y="-260" font-family="Helvetica,sans-Serif" font-size="10.00">&#45;protocol.h</text>
</a>
</g>
</g>
<!-- Node13&#45;&gt;Node46 -->
<g id="edge80" class="edge">
<title>Node13&#45;&gt;Node46</title>
<path fill="none" stroke="#63b8ff" d="M1505.74,-324.37C1500.69,-316.08 1492.83,-303.18 1485.97,-291.92"/>
<polygon fill="#63b8ff" stroke="#63b8ff" points="1488.94,-290.08 1480.75,-283.36 1482.97,-293.72 1488.94,-290.08"/>
</g>
<!-- Node47 -->
<g id="node47" class="node">
<title>Node47</title>
<g id="a_node47"><a xlink:title=" ">
<polygon fill="#e0e0e0" stroke="#999999" points="1696.5,-277.5 1579.5,-277.5 1579.5,-258.5 1696.5,-258.5 1696.5,-277.5"/>
<text text-anchor="middle" x="1638" y="-265.5" font-family="Helvetica,sans-Serif" font-size="10.00">ivi&#45;wm&#45;client&#45;protocol.h</text>
</a>
</g>
</g>
<!-- Node13&#45;&gt;Node47 -->
<g id="edge81" class="edge">
<title>Node13&#45;&gt;Node47</title>
<path fill="none" stroke="#63b8ff" d="M1528.13,-324.37C1549.62,-313.54 1586.7,-294.85 1611.77,-282.22"/>
<polygon fill="#63b8ff" stroke="#63b8ff" points="1613.38,-285.32 1620.74,-277.7 1610.23,-279.07 1613.38,-285.32"/>
</g>
<!-- Node48 -->
<g id="node48" class="node">
<title>Node48</title>
<g id="a_node48"><a xlink:title=" ">
<polygon fill="#e0e0e0" stroke="#999999" points="1843,-277.5 1715,-277.5 1715,-258.5 1843,-258.5 1843,-277.5"/>
<text text-anchor="middle" x="1779" y="-265.5" font-family="Helvetica,sans-Serif" font-size="10.00">xdg&#45;shell&#45;client&#45;protocol.h</text>
</a>
</g>
</g>
<!-- Node13&#45;&gt;Node48 -->
<g id="edge82" class="edge">
<title>Node13&#45;&gt;Node48</title>
<path fill="none" stroke="#63b8ff" d="M1546.87,-324.44C1595.1,-312.92 1680.9,-292.43 1733.59,-279.84"/>
<polygon fill="#63b8ff" stroke="#63b8ff" points="1734.43,-283.24 1743.35,-277.51 1732.81,-276.43 1734.43,-283.24"/>
</g>
<!-- Node16&#45;&gt;Node4 -->
<g id="edge20" class="edge">
<title>Node16&#45;&gt;Node4</title>
<path fill="none" stroke="#63b8ff" d="M888.79,-71.37C899.94,-62.44 917.77,-48.19 932.53,-36.38"/>
<polygon fill="#63b8ff" stroke="#63b8ff" points="934.73,-39.1 940.36,-30.12 930.36,-33.63 934.73,-39.1"/>
</g>
<!-- Node17 -->
<g id="node17" class="node">
<title>Node17</title>
<g id="a_node17"><a xlink:title=" ">
<polygon fill="#e0e0e0" stroke="#999999" points="417,-24.5 357,-24.5 357,-5.5 417,-5.5 417,-24.5"/>
<text text-anchor="middle" x="387" y="-12.5" font-family="Helvetica,sans-Serif" font-size="10.00">EGL/egl.h</text>
</a>
</g>
</g>
<!-- Node16&#45;&gt;Node17 -->
<g id="edge19" class="edge">
<title>Node16&#45;&gt;Node17</title>
<path fill="none" stroke="#63b8ff" d="M854.58,-71.42C848.29,-69.38 841.45,-67.39 835,-66 686.76,-33.95 506.22,-21.77 427.24,-17.74"/>
<polygon fill="#63b8ff" stroke="#63b8ff" points="427.39,-14.25 417.23,-17.25 427.04,-21.24 427.39,-14.25"/>
</g>
<!-- Node18 -->
<g id="node18" class="node">
<title>Node18</title>
<g id="a_node18"><a xlink:title=" ">
<polygon fill="#e0e0e0" stroke="#999999" points="879,-24.5 841,-24.5 841,-5.5 879,-5.5 879,-24.5"/>
<text text-anchor="middle" x="860" y="-12.5" font-family="Helvetica,sans-Serif" font-size="10.00">array</text>
</a>
</g>
</g>
<!-- Node16&#45;&gt;Node18 -->
<g id="edge21" class="edge">
<title>Node16&#45;&gt;Node18</title>
<path fill="none" stroke="#63b8ff" d="M875.57,-71.37C872.96,-62.07 868.71,-46.98 865.32,-34.9"/>
<polygon fill="#63b8ff" stroke="#63b8ff" points="868.58,-33.58 862.5,-24.91 861.84,-35.48 868.58,-33.58"/>
</g>
<!-- Node19&#45;&gt;Node4 -->
<g id="edge23" class="edge">
<title>Node19&#45;&gt;Node4</title>
<path fill="none" stroke="#63b8ff" d="M1153.54,-259.22C1169.06,-257 1186.21,-254.72 1202,-253 1724.01,-195.99 1859.18,-229.03 2380,-162 2546.37,-140.59 2861.94,-186.26 2745,-66 2714.57,-34.71 1357.28,-19.8 1028.95,-16.65"/>
<polygon fill="#63b8ff" stroke="#63b8ff" points="1028.66,-13.14 1018.62,-16.55 1028.59,-20.14 1028.66,-13.14"/>
</g>
<!-- Node19&#45;&gt;Node16 -->
<g id="edge24" class="edge">
<title>Node19&#45;&gt;Node16</title>
<path fill="none" stroke="#63b8ff" d="M1104.96,-258.41C1109.8,-234.88 1119.63,-168.68 1087,-132 1081.46,-125.77 981.86,-103.88 922.18,-91.23"/>
<polygon fill="#63b8ff" stroke="#63b8ff" points="922.76,-87.77 912.25,-89.13 921.31,-94.62 922.76,-87.77"/>
</g>
<!-- Node19&#45;&gt;Node20 -->
<g id="edge25" class="edge">
<title>Node19&#45;&gt;Node20</title>
<path fill="none" stroke="#63b8ff" d="M1086.39,-258.37C1072.17,-249.3 1052.3,-234.84 1038.67,-223.82"/>
<polygon fill="#63b8ff" stroke="#63b8ff" points="1040.65,-220.91 1030.74,-217.17 1036.15,-226.28 1040.65,-220.91"/>
</g>
<!-- Node20&#45;&gt;Node4 -->
<g id="edge30" class="edge">
<title>Node20&#45;&gt;Node4</title>
<path fill="none" stroke="#63b8ff" d="M997.08,-205.57C847.15,-200.11 119.75,-169.9 57,-96 48.37,-85.84 47.78,-75.63 57,-66 87.65,-33.99 781.55,-35.37 887.16,-29.51"/>
<polygon fill="#63b8ff" stroke="#63b8ff" points="887.69,-32.98 897.39,-28.72 887.14,-26 887.69,-32.98"/>
</g>
<!-- Node20&#45;&gt;Node5 -->
<g id="edge79" class="edge">
<title>Node20&#45;&gt;Node5</title>
<path fill="none" stroke="#63b8ff" d="M1023.54,-217.16C1023.22,-232.83 1025.01,-265.86 1044,-283 1158.81,-386.59 1656.5,-398.09 1819.27,-399.04"/>
<polygon fill="#63b8ff" stroke="#63b8ff" points="1819.48,-402.54 1829.5,-399.09 1819.52,-395.54 1819.48,-402.54"/>
</g>
<!-- Node20&#45;&gt;Node6 -->
<g id="edge32" class="edge">
<title>Node20&#45;&gt;Node6</title>
<path fill="none" stroke="#63b8ff" d="M1045.15,-197.93C1059.83,-190.73 1078.25,-178.88 1087,-162 1093.13,-150.16 1094.03,-143.33 1087,-132 1084.83,-128.51 1042.01,-108.06 1012.83,-94.42"/>
<polygon fill="#63b8ff" stroke="#63b8ff" points="1014.07,-91.14 1003.53,-90.09 1011.12,-97.49 1014.07,-91.14"/>
</g>
<!-- Node20&#45;&gt;Node7 -->
<g id="edge33" class="edge">
<title>Node20&#45;&gt;Node7</title>
<path fill="none" stroke="#63b8ff" d="M1050.68,-206.41C1151.88,-205.77 1521.57,-200.74 1823,-162 1889.57,-153.44 1904.49,-140.99 1971,-132 2201.45,-100.83 2266.29,-147.81 2493,-96 2495.37,-95.46 2497.79,-94.78 2500.19,-94.02"/>
<polygon fill="#63b8ff" stroke="#63b8ff" points="2501.61,-97.22 2509.82,-90.52 2499.22,-90.64 2501.61,-97.22"/>
</g>
<!-- Node20&#45;&gt;Node9 -->
<g id="edge36" class="edge">
<title>Node20&#45;&gt;Node9</title>
<path fill="none" stroke="#63b8ff" d="M1050.72,-204.73C1114.27,-200.17 1272.54,-186.6 1319,-162 1346.89,-147.23 1369.85,-117.74 1382.47,-98.98"/>
<polygon fill="#63b8ff" stroke="#63b8ff" points="1385.45,-100.82 1387.95,-90.52 1379.58,-97.01 1385.45,-100.82"/>
</g>
<!-- Node20&#45;&gt;Node10 -->
<g id="edge37" class="edge">
<title>Node20&#45;&gt;Node10</title>
<path fill="none" stroke="#63b8ff" d="M1050.65,-206.47C1178.69,-206.13 1743.47,-202.31 2204,-162 2418.08,-143.26 2476.5,-155.5 2683,-96 2684.64,-95.53 2686.3,-94.98 2687.96,-94.39"/>
<polygon fill="#63b8ff" stroke="#63b8ff" points="2689.33,-97.61 2697.28,-90.61 2686.7,-91.13 2689.33,-97.61"/>
</g>
<!-- Node20&#45;&gt;Node16 -->
<g id="edge39" class="edge">
<title>Node20&#45;&gt;Node16</title>
<path fill="none" stroke="#63b8ff" d="M997.41,-205.92C904.82,-203.61 600.69,-193.66 572,-162 563.05,-152.12 563.23,-142.05 572,-132 610.78,-87.55 777.5,-109.18 835,-96 838.04,-95.3 841.17,-94.49 844.29,-93.6"/>
<polygon fill="#63b8ff" stroke="#63b8ff" points="845.56,-96.88 854.11,-90.62 843.52,-90.18 845.56,-96.88"/>
</g>
<!-- Node20&#45;&gt;Node17 -->
<g id="edge27" class="edge">
<title>Node20&#45;&gt;Node17</title>
<path fill="none" stroke="#63b8ff" d="M997.08,-205.92C859.17,-202.84 235.22,-187.6 153,-162 99.65,-145.39 73.23,-144.79 46,-96 39.5,-84.36 37.28,-76.09 46,-66 84.42,-21.53 264.65,-15.87 346.44,-15.64"/>
<polygon fill="#63b8ff" stroke="#63b8ff" points="346.84,-19.14 356.84,-15.64 346.84,-12.14 346.84,-19.14"/>
</g>
<!-- Node20&#45;&gt;Node19 -->
<g id="edge38" class="edge">
<title>Node20&#45;&gt;Node19</title>
<path fill="none" stroke="#63b8ff" d="M1040.67,-217.17C1054.9,-226.25 1074.77,-240.71 1088.38,-251.72"/>
<polygon fill="#63b8ff" stroke="#63b8ff" points="1086.39,-254.62 1096.3,-258.37 1090.89,-249.26 1086.39,-254.62"/>
</g>
<!-- Node21 -->
<g id="node21" class="node">
<title>Node21</title>
<g id="a_node21"><a xlink:title=" ">
<polygon fill="#e0e0e0" stroke="#999999" points="639.5,-156.5 580.5,-156.5 580.5,-137.5 639.5,-137.5 639.5,-156.5"/>
<text text-anchor="middle" x="610" y="-144.5" font-family="Helvetica,sans-Serif" font-size="10.00">functional</text>
</a>
</g>
</g>
<!-- Node20&#45;&gt;Node21 -->
<g id="edge26" class="edge">
<title>Node20&#45;&gt;Node21</title>
<path fill="none" stroke="#63b8ff" d="M997.27,-205.41C935.29,-202.42 777.27,-192.22 649,-162 646.33,-161.37 643.6,-160.62 640.88,-159.8"/>
<polygon fill="#63b8ff" stroke="#63b8ff" points="641.79,-156.41 631.19,-156.59 639.59,-163.06 641.79,-156.41"/>
</g>
<!-- Node22 -->
<g id="node22" class="node">
<title>Node22</title>
<g id="a_node22"><a xlink:title=" ">
<polygon fill="#e0e0e0" stroke="#999999" points="730,-156.5 658,-156.5 658,-137.5 730,-137.5 730,-156.5"/>
<text text-anchor="middle" x="694" y="-144.5" font-family="Helvetica,sans-Serif" font-size="10.00">GLES2/gl2.h</text>
</a>
</g>
</g>
<!-- Node20&#45;&gt;Node22 -->
<g id="edge28" class="edge">
<title>Node20&#45;&gt;Node22</title>
<path fill="none" stroke="#63b8ff" d="M997.14,-203.56C946.45,-197.74 833.4,-183.42 740,-162 736.64,-161.23 733.17,-160.35 729.72,-159.4"/>
<polygon fill="#63b8ff" stroke="#63b8ff" points="730.68,-156.04 720.1,-156.64 728.74,-162.76 730.68,-156.04"/>
</g>
<!-- Node23 -->
<g id="node23" class="node">
<title>Node23</title>
<g id="a_node23"><a xlink:title=" ">
<polygon fill="#e0e0e0" stroke="#999999" points="873.5,-156.5 748.5,-156.5 748.5,-137.5 873.5,-137.5 873.5,-156.5"/>
<text text-anchor="middle" x="811" y="-144.5" font-family="Helvetica,sans-Serif" font-size="10.00">flutter/encodable_value.h</text>
</a>
</g>
</g>
<!-- Node20&#45;&gt;Node23 -->
<g id="edge29" class="edge">
<title>Node20&#45;&gt;Node23</title>
<path fill="none" stroke="#63b8ff" d="M997.45,-199.21C960.91,-189.17 894.75,-171 851.87,-159.22"/>
<polygon fill="#63b8ff" stroke="#63b8ff" points="852.6,-155.8 842.03,-156.52 850.75,-162.55 852.6,-155.8"/>
</g>
<!-- Node24 -->
<g id="node24" class="node">
<title>Node24</title>
<g id="a_node24"><a xlink:title=" ">
<polygon fill="#e0e0e0" stroke="#999999" points="954,-156.5 892,-156.5 892,-137.5 954,-137.5 954,-156.5"/>
<text text-anchor="middle" x="923" y="-144.5" font-family="Helvetica,sans-Serif" font-size="10.00">filesystem</text>
</a>
</g>
</g>
<!-- Node20&#45;&gt;Node24 -->
<g id="edge31" class="edge">
<title>Node20&#45;&gt;Node24</title>
<path fill="none" stroke="#63b8ff" d="M1009.1,-197.87C992.69,-188.36 966.07,-172.95 946.77,-161.77"/>
<polygon fill="#63b8ff" stroke="#63b8ff" points="948.37,-158.65 937.96,-156.67 944.86,-164.71 948.37,-158.65"/>
</g>
<!-- Node25 -->
<g id="node25" class="node">
<title>Node25</title>
<g id="a_node25"><a xlink:title=" ">
<polygon fill="#e0e0e0" stroke="#999999" points="1016,-156.5 972,-156.5 972,-137.5 1016,-137.5 1016,-156.5"/>
<text text-anchor="middle" x="994" y="-144.5" font-family="Helvetica,sans-Serif" font-size="10.00">mutex</text>
</a>
</g>
</g>
<!-- Node20&#45;&gt;Node25 -->
<g id="edge34" class="edge">
<title>Node20&#45;&gt;Node25</title>
<path fill="none" stroke="#63b8ff" d="M1019.57,-197.87C1015.23,-189.4 1008.48,-176.24 1003.01,-165.57"/>
<polygon fill="#63b8ff" stroke="#63b8ff" points="1006.12,-163.97 998.44,-156.67 999.89,-167.16 1006.12,-163.97"/>
</g>
<!-- Node26 -->
<g id="node26" class="node">
<title>Node26</title>
<g id="a_node26"><a xlink:title=" ">
<polygon fill="#e0e0e0" stroke="#999999" points="1077.5,-156.5 1034.5,-156.5 1034.5,-137.5 1077.5,-137.5 1077.5,-156.5"/>
<text text-anchor="middle" x="1056" y="-144.5" font-family="Helvetica,sans-Serif" font-size="10.00">queue</text>
</a>
</g>
</g>
<!-- Node20&#45;&gt;Node26 -->
<g id="edge35" class="edge">
<title>Node20&#45;&gt;Node26</title>
<path fill="none" stroke="#63b8ff" d="M1028.72,-197.87C1033.35,-189.4 1040.55,-176.24 1046.39,-165.57"/>
<polygon fill="#63b8ff" stroke="#63b8ff" points="1049.53,-167.12 1051.26,-156.67 1043.39,-163.76 1049.53,-167.12"/>
</g>
<!-- Node27 -->
<g id="node27" class="node">
<title>Node27</title>
<g id="a_node27"><a xlink:href="logging_8h.html" target="_top" xlink:title=" ">
<polygon fill="white" stroke="#666666" points="524,-156.5 468,-156.5 468,-137.5 524,-137.5 524,-156.5"/>
<text text-anchor="middle" x="496" y="-144.5" font-family="Helvetica,sans-Serif" font-size="10.00">logging.h</text>
</a>
</g>
</g>
<!-- Node20&#45;&gt;Node27 -->
<g id="edge40" class="edge">
<title>Node20&#45;&gt;Node27</title>
<path fill="none" stroke="#63b8ff" d="M997.34,-206.2C923.52,-204.93 710.49,-198.14 538,-162 534.77,-161.32 531.43,-160.48 528.13,-159.54"/>
<polygon fill="#63b8ff" stroke="#63b8ff" points="528.99,-156.15 518.41,-156.53 526.92,-162.83 528.99,-156.15"/>
</g>
<!-- Node35 -->
<g id="node35" class="node">
<title>Node35</title>
<g id="a_node35"><a xlink:href="platform__channel_8h.html" target="_top" xlink:title=" ">
<polygon fill="white" stroke="#666666" points="1309.5,-156.5 1210.5,-156.5 1210.5,-137.5 1309.5,-137.5 1309.5,-156.5"/>
<text text-anchor="middle" x="1260" y="-144.5" font-family="Helvetica,sans-Serif" font-size="10.00">platform_channel.h</text>
</a>
</g>
</g>
<!-- Node20&#45;&gt;Node35 -->
<g id="edge49" class="edge">
<title>Node20&#45;&gt;Node35</title>
<path fill="none" stroke="#63b8ff" d="M1050.61,-199.9C1090.68,-189.97 1166.96,-171.06 1215.56,-159.02"/>
<polygon fill="#63b8ff" stroke="#63b8ff" points="1216.62,-162.36 1225.48,-156.56 1214.93,-155.57 1216.62,-162.36"/>
</g>
<!-- Node36 -->
<g id="node36" class="node">
<title>Node36</title>
<g id="a_node36"><a xlink:href="key__event_8h.html" target="_top" xlink:title=" ">
<polygon fill="white" stroke="#666666" points="1523,-162 1421,-162 1421,-132 1523,-132 1523,-162"/>
<text text-anchor="start" x="1429" y="-150" font-family="Helvetica,sans-Serif" font-size="10.00">static_plugins/key</text>
<text text-anchor="middle" x="1472" y="-139" font-family="Helvetica,sans-Serif" font-size="10.00">_event/key_event.h</text>
</a>
</g>
</g>
<!-- Node20&#45;&gt;Node36 -->
<g id="edge53" class="edge">
<title>Node20&#45;&gt;Node36</title>
<path fill="none" stroke="#63b8ff" d="M1050.68,-203.02C1120.82,-193.86 1311.75,-168.93 1410.7,-156"/>
<polygon fill="#63b8ff" stroke="#63b8ff" points="1411.39,-159.44 1420.85,-154.68 1410.48,-152.5 1411.39,-159.44"/>
</g>
<!-- Node41 -->
<g id="node41" class="node">
<title>Node41</title>
<g id="a_node41"><a xlink:href="text__input_8h.html" target="_top" xlink:title=" ">
<polygon fill="white" stroke="#666666" points="1813.5,-162 1716.5,-162 1716.5,-132 1813.5,-132 1813.5,-162"/>
<text text-anchor="start" x="1724.5" y="-150" font-family="Helvetica,sans-Serif" font-size="10.00">static_plugins/text</text>
<text text-anchor="middle" x="1765" y="-139" font-family="Helvetica,sans-Serif" font-size="10.00">_input/text_input.h</text>
</a>
</g>
</g>
<!-- Node20&#45;&gt;Node41 -->
<g id="edge65" class="edge">
<title>Node20&#45;&gt;Node41</title>
<path fill="none" stroke="#63b8ff" d="M1050.81,-204.38C1157.78,-195.94 1555.56,-164.54 1706.45,-152.62"/>
<polygon fill="#63b8ff" stroke="#63b8ff" points="1706.76,-156.11 1716.45,-151.83 1706.21,-149.13 1706.76,-156.11"/>
</g>
<!-- Node27&#45;&gt;Node16 -->
<g id="edge48" class="edge">
<title>Node27&#45;&gt;Node16</title>
<path fill="none" stroke="#63b8ff" d="M518.87,-137.45C525.01,-135.41 531.7,-133.42 538,-132 667.73,-102.83 705.17,-124.72 835,-96 838.22,-95.29 841.54,-94.43 844.84,-93.5"/>
<polygon fill="#63b8ff" stroke="#63b8ff" points="846.02,-96.8 854.57,-90.54 843.99,-90.1 846.02,-96.8"/>
</g>
<!-- Node28 -->
<g id="node28" class="node">
<title>Node28</title>
<g id="a_node28"><a xlink:title=" ">
<polygon fill="#e0e0e0" stroke="#999999" points="720,-90.5 668,-90.5 668,-71.5 720,-71.5 720,-90.5"/>
<text text-anchor="middle" x="694" y="-78.5" font-family="Helvetica,sans-Serif" font-size="10.00">sstream</text>
</a>
</g>
</g>
<!-- Node27&#45;&gt;Node28 -->
<g id="edge41" class="edge">
<title>Node27&#45;&gt;Node28</title>
<path fill="none" stroke="#63b8ff" d="M521.28,-137.43C526.78,-135.6 532.58,-133.71 538,-132 591.51,-115.13 606.01,-114.44 659,-96 660.61,-95.44 662.26,-94.85 663.93,-94.23"/>
<polygon fill="#63b8ff" stroke="#63b8ff" points="665.3,-97.45 673.39,-90.61 662.8,-90.92 665.3,-97.45"/>
</g>
<!-- Node29 -->
<g id="node29" class="node">
<title>Node29</title>
<g id="a_node29"><a xlink:title=" ">
<polygon fill="#e0e0e0" stroke="#999999" points="826,-90.5 738,-90.5 738,-71.5 826,-71.5 826,-90.5"/>
<text text-anchor="middle" x="782" y="-78.5" font-family="Helvetica,sans-Serif" font-size="10.00">spdlog/cfg/env.h</text>
</a>
</g>
</g>
<!-- Node27&#45;&gt;Node29 -->
<g id="edge42" class="edge">
<title>Node27&#45;&gt;Node29</title>
<path fill="none" stroke="#63b8ff" d="M519.82,-137.44C525.72,-135.49 532.05,-133.55 538,-132 621.61,-110.29 644.74,-115.04 729,-96 733.07,-95.08 737.31,-94.06 741.53,-93.01"/>
<polygon fill="#63b8ff" stroke="#63b8ff" points="742.44,-96.39 751.26,-90.52 740.71,-89.61 742.44,-96.39"/>
</g>
<!-- Node30 -->
<g id="node30" class="node">
<title>Node30</title>
<g id="a_node30"><a xlink:title=" ">
<polygon fill="#e0e0e0" stroke="#999999" points="176,-96 66,-96 66,-66 176,-66 176,-96"/>
<text text-anchor="start" x="74" y="-84" font-family="Helvetica,sans-Serif" font-size="10.00">spdlog/sinks/callback</text>
<text text-anchor="middle" x="121" y="-73" font-family="Helvetica,sans-Serif" font-size="10.00">_sink.h</text>
</a>
</g>
</g>
<!-- Node27&#45;&gt;Node30 -->
<g id="edge43" class="edge">
<title>Node27&#45;&gt;Node30</title>
<path fill="none" stroke="#63b8ff" d="M467.61,-141.98C414.41,-134.33 295.91,-116.73 186.04,-96.14"/>
<polygon fill="#63b8ff" stroke="#63b8ff" points="186.59,-92.68 176.12,-94.26 185.3,-99.56 186.59,-92.68"/>
</g>
<!-- Node31 -->
<g id="node31" class="node">
<title>Node31</title>
<g id="a_node31"><a xlink:title=" ">
<polygon fill="#e0e0e0" stroke="#999999" points="308,-96 194,-96 194,-66 308,-66 308,-96"/>
<text text-anchor="start" x="202" y="-84" font-family="Helvetica,sans-Serif" font-size="10.00">spdlog/sinks/ringbuffer</text>
<text text-anchor="middle" x="251" y="-73" font-family="Helvetica,sans-Serif" font-size="10.00">_sink.h</text>
</a>
</g>
</g>
<!-- Node27&#45;&gt;Node31 -->
<g id="edge44" class="edge">
<title>Node27&#45;&gt;Node31</title>
<path fill="none" stroke="#63b8ff" d="M467.9,-138.66C430.78,-128.96 364.32,-111.6 314.72,-98.64"/>
<polygon fill="#63b8ff" stroke="#63b8ff" points="315.6,-95.26 305.04,-96.12 313.83,-102.03 315.6,-95.26"/>
</g>
<!-- Node32 -->
<g id="node32" class="node">
<title>Node32</title>
<g id="a_node32"><a xlink:title=" ">
<polygon fill="#e0e0e0" stroke="#999999" points="427.5,-96 326.5,-96 326.5,-66 427.5,-66 427.5,-96"/>
<text text-anchor="start" x="334.5" y="-84" font-family="Helvetica,sans-Serif" font-size="10.00">spdlog/sinks/stdout</text>
<text text-anchor="middle" x="377" y="-73" font-family="Helvetica,sans-Serif" font-size="10.00">_color_sinks.h</text>
</a>
</g>
</g>
<!-- Node27&#45;&gt;Node32 -->
<g id="edge45" class="edge">
<title>Node27&#45;&gt;Node32</title>
<path fill="none" stroke="#63b8ff" d="M479.95,-137.37C462.67,-128.07 434.62,-112.99 412.17,-100.91"/>
<polygon fill="#63b8ff" stroke="#63b8ff" points="413.71,-97.77 403.25,-96.12 410.4,-103.93 413.71,-97.77"/>
</g>
<!-- Node33 -->
<g id="node33" class="node">
<title>Node33</title>
<g id="a_node33"><a xlink:title=" ">
<polygon fill="#e0e0e0" stroke="#999999" points="546.5,-96 445.5,-96 445.5,-66 546.5,-66 546.5,-96"/>
<text text-anchor="start" x="453.5" y="-84" font-family="Helvetica,sans-Serif" font-size="10.00">spdlog/sinks/stdout</text>
<text text-anchor="middle" x="496" y="-73" font-family="Helvetica,sans-Serif" font-size="10.00">_sinks.h</text>
</a>
</g>
</g>
<!-- Node27&#45;&gt;Node33 -->
<g id="edge46" class="edge">
<title>Node27&#45;&gt;Node33</title>
<path fill="none" stroke="#63b8ff" d="M496,-137.37C496,-129.49 496,-117.45 496,-106.6"/>
<polygon fill="#63b8ff" stroke="#63b8ff" points="499.5,-106.36 496,-96.36 492.5,-106.36 499.5,-106.36"/>
</g>
<!-- Node34 -->
<g id="node34" class="node">
<title>Node34</title>
<g id="a_node34"><a xlink:title=" ">
<polygon fill="#e0e0e0" stroke="#999999" points="649.5,-90.5 564.5,-90.5 564.5,-71.5 649.5,-71.5 649.5,-90.5"/>
<text text-anchor="middle" x="607" y="-78.5" font-family="Helvetica,sans-Serif" font-size="10.00">spdlog/spdlog.h</text>
</a>
</g>
</g>
<!-- Node27&#45;&gt;Node34 -->
<g id="edge47" class="edge">
<title>Node27&#45;&gt;Node34</title>
<path fill="none" stroke="#63b8ff" d="M510.97,-137.37C529.51,-126.68 561.31,-108.35 583.2,-95.72"/>
<polygon fill="#63b8ff" stroke="#63b8ff" points="585,-98.73 591.91,-90.7 581.5,-92.66 585,-98.73"/>
</g>
<!-- Node35&#45;&gt;Node4 -->
<g id="edge52" class="edge">
<title>Node35&#45;&gt;Node4</title>
<path fill="none" stroke="#63b8ff" d="M1222.86,-137.45C1214.07,-135.55 1204.72,-133.62 1196,-132 1143.84,-122.33 995.07,-135.81 960,-96 946.84,-81.06 947.79,-57.79 951.17,-40.19"/>
<polygon fill="#63b8ff" stroke="#63b8ff" points="954.66,-40.62 953.48,-30.09 947.84,-39.05 954.66,-40.62"/>
</g>
<!-- Node35&#45;&gt;Node6 -->
<g id="edge50" class="edge">
<title>Node35&#45;&gt;Node6</title>
<path fill="none" stroke="#63b8ff" d="M1221.44,-137.46C1213.06,-135.63 1204.24,-133.73 1196,-132 1117.02,-115.38 1094.96,-120.31 1018,-96 1016.37,-95.49 1014.71,-94.91 1013.05,-94.3"/>
<polygon fill="#63b8ff" stroke="#63b8ff" points="1014.27,-91.02 1003.68,-90.54 1011.65,-97.52 1014.27,-91.02"/>
</g>
<!-- Node35&#45;&gt;Node9 -->
<g id="edge51" class="edge">
<title>Node35&#45;&gt;Node9</title>
<path fill="none" stroke="#63b8ff" d="M1278.04,-137.34C1298.79,-127.37 1333.86,-110.52 1364,-96 1364.68,-95.67 1365.37,-95.34 1366.06,-95.01"/>
<polygon fill="#63b8ff" stroke="#63b8ff" points="1367.73,-98.09 1375.21,-90.59 1364.68,-91.79 1367.73,-98.09"/>
</g>
<!-- Node36&#45;&gt;Node4 -->
<g id="edge62" class="edge">
<title>Node36&#45;&gt;Node4</title>
<path fill="none" stroke="#63b8ff" d="M1420.65,-134.39C1416.05,-133.52 1411.45,-132.7 1407,-132 1250.35,-107.27 1197.88,-158.21 1052,-96 1043.77,-92.49 1006.31,-59.54 981.23,-37.04"/>
<polygon fill="#63b8ff" stroke="#63b8ff" points="983.35,-34.24 973.58,-30.15 978.67,-39.44 983.35,-34.24"/>
</g>
<!-- Node36&#45;&gt;Node6 -->
<g id="edge54" class="edge">
<title>Node36&#45;&gt;Node6</title>
<path fill="none" stroke="#63b8ff" d="M1420.66,-134.35C1416.05,-133.48 1411.45,-132.68 1407,-132 1235.38,-105.67 1186.13,-139.35 1018,-96 1016.11,-95.51 1014.18,-94.92 1012.26,-94.27"/>
<polygon fill="#63b8ff" stroke="#63b8ff" points="1013.5,-91 1002.91,-90.6 1010.94,-97.51 1013.5,-91"/>
</g>
<!-- Node36&#45;&gt;Node7 -->
<g id="edge55" class="edge">
<title>Node36&#45;&gt;Node7</title>
<path fill="none" stroke="#63b8ff" d="M1523.09,-142.77C1570.88,-139.8 1644.26,-135.35 1708,-132 1882.39,-122.83 2322.32,-132.94 2493,-96 2495.37,-95.49 2497.8,-94.83 2500.2,-94.07"/>
<polygon fill="#63b8ff" stroke="#63b8ff" points="2501.62,-97.29 2509.84,-90.6 2499.24,-90.7 2501.62,-97.29"/>
</g>
<!-- Node36&#45;&gt;Node9 -->
<g id="edge56" class="edge">
<title>Node36&#45;&gt;Node9</title>
<path fill="none" stroke="#63b8ff" d="M1454.47,-131.8C1441.79,-121.53 1424.68,-107.67 1411.74,-97.18"/>
<polygon fill="#63b8ff" stroke="#63b8ff" points="1413.89,-94.42 1403.92,-90.84 1409.48,-99.86 1413.89,-94.42"/>
</g>
<!-- Node36&#45;&gt;Node11 -->
<g id="edge60" class="edge">
<title>Node36&#45;&gt;Node11</title>
<path fill="none" stroke="#63b8ff" d="M1523.09,-142.72C1570.88,-139.7 1644.26,-135.23 1708,-132 2087.85,-112.74 2186.16,-147.44 2563,-96 2568.97,-95.18 2575.23,-94.05 2581.35,-92.77"/>
<polygon fill="#63b8ff" stroke="#63b8ff" points="2582.44,-96.12 2591.44,-90.53 2580.92,-89.28 2582.44,-96.12"/>
</g>
<!-- Node36&#45;&gt;Node12 -->
<g id="edge61" class="edge">
<title>Node36&#45;&gt;Node12</title>
<path fill="none" stroke="#63b8ff" d="M1523.13,-142.52C1646.46,-134 1957.75,-111.61 2061,-96 2067.2,-95.06 2073.7,-93.88 2080.08,-92.6"/>
<polygon fill="#63b8ff" stroke="#63b8ff" points="2080.87,-96.01 2089.94,-90.53 2079.44,-89.16 2080.87,-96.01"/>
</g>
<!-- Node36&#45;&gt;Node16 -->
<g id="edge64" class="edge">
<title>Node36&#45;&gt;Node16</title>
<path fill="none" stroke="#63b8ff" d="M1420.58,-141.19C1299.82,-129.86 1004.87,-102.01 960,-96 947.7,-94.35 934.42,-92.23 922.2,-90.14"/>
<polygon fill="#63b8ff" stroke="#63b8ff" points="922.68,-86.68 912.23,-88.41 921.48,-93.57 922.68,-86.68"/>
</g>
<!-- Node37 -->
<g id="node37" class="node">
<title>Node37</title>
<g id="a_node37"><a xlink:title=" ">
<polygon fill="#e0e0e0" stroke="#999999" points="1173.5,-96 1060.5,-96 1060.5,-66 1173.5,-66 1173.5,-96"/>
<text text-anchor="start" x="1068.5" y="-84" font-family="Helvetica,sans-Serif" font-size="10.00">flutter/basic_message</text>
<text text-anchor="middle" x="1117" y="-73" font-family="Helvetica,sans-Serif" font-size="10.00">_channel.h</text>
</a>
</g>
</g>
<!-- Node36&#45;&gt;Node37 -->
<g id="edge57" class="edge">
<title>Node36&#45;&gt;Node37</title>
<path fill="none" stroke="#63b8ff" d="M1420.96,-134.74C1416.24,-133.78 1411.54,-132.85 1407,-132 1311,-113.96 1283.81,-114.42 1183.76,-96.08"/>
<polygon fill="#63b8ff" stroke="#63b8ff" points="1184.32,-92.62 1173.85,-94.25 1183.04,-99.51 1184.32,-92.62"/>
</g>
<!-- Node38 -->
<g id="node38" class="node">
<title>Node38</title>
<g id="a_node38"><a xlink:title=" ">
<polygon fill="#e0e0e0" stroke="#999999" points="1716,-90.5 1584,-90.5 1584,-71.5 1716,-71.5 1716,-90.5"/>
<text text-anchor="middle" x="1650" y="-78.5" font-family="Helvetica,sans-Serif" font-size="10.00">flutter/binary_messenger.h</text>
</a>
</g>
</g>
<!-- Node36&#45;&gt;Node38 -->
<g id="edge58" class="edge">
<title>Node36&#45;&gt;Node38</title>
<path fill="none" stroke="#63b8ff" d="M1511.06,-131.95C1542.69,-120.58 1586.76,-104.74 1616.73,-93.96"/>
<polygon fill="#63b8ff" stroke="#63b8ff" points="1618.09,-97.19 1626.31,-90.52 1615.72,-90.61 1618.09,-97.19"/>
</g>
<!-- Node39 -->
<g id="node39" class="node">
<title>Node39</title>
<g id="a_node39"><a xlink:title=" ">
<polygon fill="#e0e0e0" stroke="#999999" points="1354.5,-96 1191.5,-96 1191.5,-66 1354.5,-66 1354.5,-96"/>
<text text-anchor="start" x="1199.5" y="-84" font-family="Helvetica,sans-Serif" font-size="10.00">flutter/shell/platform</text>
<text text-anchor="middle" x="1273" y="-73" font-family="Helvetica,sans-Serif" font-size="10.00">/common/json_message_codec.h</text>
</a>
</g>
</g>
<!-- Node36&#45;&gt;Node39 -->
<g id="edge59" class="edge">
<title>Node36&#45;&gt;Node39</title>
<path fill="none" stroke="#63b8ff" d="M1428.33,-131.95C1398.26,-122.28 1358.13,-109.38 1326.2,-99.11"/>
<polygon fill="#63b8ff" stroke="#63b8ff" points="1327.16,-95.74 1316.57,-96.01 1325.02,-102.41 1327.16,-95.74"/>
</g>
<!-- Node40 -->
<g id="node40" class="node">
<title>Node40</title>
<g id="a_node40"><a xlink:title=" ">
<polygon fill="#e0e0e0" stroke="#999999" points="1566,-90.5 1432,-90.5 1432,-71.5 1566,-71.5 1566,-90.5"/>
<text text-anchor="middle" x="1499" y="-78.5" font-family="Helvetica,sans-Serif" font-size="10.00">xkbcommon/xkbcommon.h</text>
</a>
</g>
</g>
<!-- Node36&#45;&gt;Node40 -->
<g id="edge63" class="edge">
<title>Node36&#45;&gt;Node40</title>
<path fill="none" stroke="#63b8ff" d="M1477.99,-131.8C1481.91,-122.5 1487.07,-110.27 1491.3,-100.26"/>
<polygon fill="#63b8ff" stroke="#63b8ff" points="1494.61,-101.42 1495.27,-90.84 1488.16,-98.7 1494.61,-101.42"/>
</g>
<!-- Node41&#45;&gt;Node4 -->
<g id="edge76" class="edge">
<title>Node41&#45;&gt;Node4</title>
<path fill="none" stroke="#63b8ff" d="M1762.39,-131.87C1758.14,-113.26 1747.77,-81.12 1725,-66 1667.85,-28.05 1207.63,-18.81 1028.75,-16.64"/>
<polygon fill="#63b8ff" stroke="#63b8ff" points="1028.7,-13.14 1018.66,-16.52 1028.61,-20.14 1028.7,-13.14"/>
</g>
<!-- Node41&#45;&gt;Node6 -->
<g id="edge66" class="edge">
<title>Node41&#45;&gt;Node6</title>
<path fill="none" stroke="#63b8ff" d="M1716.42,-142.99C1566.52,-133.63 1117.36,-105.18 1052,-96 1039.17,-94.2 1025.11,-91.34 1013.27,-88.67"/>
<polygon fill="#63b8ff" stroke="#63b8ff" points="1014.06,-85.27 1003.53,-86.41 1012.48,-92.08 1014.06,-85.27"/>
</g>
<!-- Node41&#45;&gt;Node7 -->
<g id="edge67" class="edge">
<title>Node41&#45;&gt;Node7</title>
<path fill="none" stroke="#63b8ff" d="M1813.73,-136.95C1825.26,-135.07 1837.54,-133.27 1849,-132 2133.92,-100.39 2213.13,-158.05 2493,-96 2495.37,-95.47 2497.79,-94.81 2500.2,-94.05"/>
<polygon fill="#63b8ff" stroke="#63b8ff" points="2501.62,-97.26 2509.83,-90.56 2499.23,-90.68 2501.62,-97.26"/>
</g>
<!-- Node41&#45;&gt;Node9 -->
<g id="edge68" class="edge">
<title>Node41&#45;&gt;Node9</title>
<path fill="none" stroke="#63b8ff" d="M1716.46,-143.36C1649.29,-138.7 1524.75,-126.46 1423,-96 1421.55,-95.57 1420.09,-95.08 1418.63,-94.54"/>
<polygon fill="#63b8ff" stroke="#63b8ff" points="1419.74,-91.22 1409.17,-90.59 1417.04,-97.68 1419.74,-91.22"/>
</g>
<!-- Node41&#45;&gt;Node11 -->
<g id="edge72" class="edge">
<title>Node41&#45;&gt;Node11</title>
<path fill="none" stroke="#63b8ff" d="M1813.6,-143.43C1975.3,-134.81 2489.09,-106.86 2563,-96 2568.83,-95.14 2574.93,-94.01 2580.91,-92.75"/>
<polygon fill="#63b8ff" stroke="#63b8ff" points="2581.8,-96.14 2590.8,-90.55 2580.28,-89.31 2581.8,-96.14"/>
</g>
<!-- Node41&#45;&gt;Node12 -->
<g id="edge75" class="edge">
<title>Node41&#45;&gt;Node12</title>
<path fill="none" stroke="#63b8ff" d="M1813.69,-137.84C1894.57,-124.27 2048.96,-98.33 2061,-96 2066.37,-94.96 2071.99,-93.81 2077.56,-92.64"/>
<polygon fill="#63b8ff" stroke="#63b8ff" points="2078.45,-96.03 2087.5,-90.52 2076.99,-89.19 2078.45,-96.03"/>
</g>
<!-- Node41&#45;&gt;Node16 -->
<g id="edge78" class="edge">
<title>Node41&#45;&gt;Node16</title>
<path fill="none" stroke="#63b8ff" d="M1716.25,-143.04C1544.81,-132.63 978.88,-98.19 960,-96 947.67,-94.57 934.38,-92.52 922.16,-90.43"/>
<polygon fill="#63b8ff" stroke="#63b8ff" points="922.65,-86.96 912.19,-88.68 921.44,-93.86 922.65,-86.96"/>
</g>
<!-- Node41&#45;&gt;Node38 -->
<g id="edge69" class="edge">
<title>Node41&#45;&gt;Node38</title>
<path fill="none" stroke="#63b8ff" d="M1739.76,-131.95C1720.22,-121.08 1693.32,-106.11 1674.07,-95.4"/>
<polygon fill="#63b8ff" stroke="#63b8ff" points="1675.74,-92.32 1665.3,-90.52 1672.34,-98.44 1675.74,-92.32"/>
</g>
<!-- Node41&#45;&gt;Node40 -->
<g id="edge77" class="edge">
<title>Node41&#45;&gt;Node40</title>
<path fill="none" stroke="#63b8ff" d="M1716.21,-134.26C1667.2,-122.47 1592.28,-104.44 1544.48,-92.94"/>
<polygon fill="#63b8ff" stroke="#63b8ff" points="1545.25,-89.53 1534.71,-90.59 1543.61,-96.33 1545.25,-89.53"/>
</g>
<!-- Node42 -->
<g id="node42" class="node">
<title>Node42</title>
<g id="a_node42"><a xlink:title=" ">
<polygon fill="#e0e0e0" stroke="#999999" points="2484,-90.5 2360,-90.5 2360,-71.5 2484,-71.5 2484,-90.5"/>
<text text-anchor="middle" x="2422" y="-78.5" font-family="Helvetica,sans-Serif" font-size="10.00">flutter/method_channel.h</text>
</a>
</g>
</g>
<!-- Node41&#45;&gt;Node42 -->
<g id="edge70" class="edge">
<title>Node41&#45;&gt;Node42</title>
<path fill="none" stroke="#63b8ff" d="M1813.75,-137.08C1825.28,-135.19 1837.55,-133.36 1849,-132 2071.12,-105.58 2129.3,-125.69 2351,-96 2358.19,-95.04 2365.75,-93.8 2373.15,-92.45"/>
<polygon fill="#63b8ff" stroke="#63b8ff" points="2373.91,-95.87 2383.08,-90.57 2372.61,-88.99 2373.91,-95.87"/>
</g>
<!-- Node43 -->
<g id="node43" class="node">
<title>Node43</title>
<g id="a_node43"><a xlink:title=" ">
<polygon fill="#e0e0e0" stroke="#999999" points="1878,-96 1772,-96 1772,-66 1878,-66 1878,-96"/>
<text text-anchor="start" x="1780" y="-84" font-family="Helvetica,sans-Serif" font-size="10.00">flutter/method_result</text>
<text text-anchor="middle" x="1825" y="-73" font-family="Helvetica,sans-Serif" font-size="10.00">_functions.h</text>
</a>
</g>
</g>
<!-- Node41&#45;&gt;Node43 -->
<g id="edge71" class="edge">
<title>Node41&#45;&gt;Node43</title>
<path fill="none" stroke="#63b8ff" d="M1778.32,-131.8C1786.08,-123.51 1796.04,-112.89 1804.76,-103.59"/>
<polygon fill="#63b8ff" stroke="#63b8ff" points="1807.44,-105.85 1811.72,-96.16 1802.33,-101.07 1807.44,-105.85"/>
</g>
<!-- Node44 -->
<g id="node44" class="node">
<title>Node44</title>
<g id="a_node44"><a xlink:title=" ">
<polygon fill="#e0e0e0" stroke="#999999" points="2051.5,-96 1896.5,-96 1896.5,-66 2051.5,-66 2051.5,-96"/>
<text text-anchor="start" x="1904.5" y="-84" font-family="Helvetica,sans-Serif" font-size="10.00">flutter/shell/platform</text>
<text text-anchor="middle" x="1974" y="-73" font-family="Helvetica,sans-Serif" font-size="10.00">/common/json_method_codec.h</text>
</a>
</g>
</g>
<!-- Node41&#45;&gt;Node44 -->
<g id="edge73" class="edge">
<title>Node41&#45;&gt;Node44</title>
<path fill="none" stroke="#63b8ff" d="M1810.87,-131.95C1842.58,-122.24 1884.95,-109.27 1918.56,-98.98"/>
<polygon fill="#63b8ff" stroke="#63b8ff" points="1919.7,-102.29 1928.24,-96.01 1917.65,-95.59 1919.7,-102.29"/>
</g>
<!-- Node45 -->
<g id="node45" class="node">
<title>Node45</title>
<g id="a_node45"><a xlink:title=" ">
<polygon fill="#e0e0e0" stroke="#999999" points="2341.5,-96 2198.5,-96 2198.5,-66 2341.5,-66 2341.5,-96"/>
<text text-anchor="start" x="2206.5" y="-84" font-family="Helvetica,sans-Serif" font-size="10.00">flutter/shell/platform</text>
<text text-anchor="middle" x="2270" y="-73" font-family="Helvetica,sans-Serif" font-size="10.00">/common/text_input_model.h</text>
</a>
</g>
</g>
<!-- Node41&#45;&gt;Node45 -->
<g id="edge74" class="edge">
<title>Node41&#45;&gt;Node45</title>
<path fill="none" stroke="#63b8ff" d="M1813.78,-137.36C1825.31,-135.46 1837.57,-133.56 1849,-132 1996.33,-111.94 2036.77,-116.73 2188.34,-96.02"/>
<polygon fill="#63b8ff" stroke="#63b8ff" points="2189.06,-99.46 2198.49,-94.62 2188.1,-92.52 2189.06,-99.46"/>
</g>
</g>
</svg>
