<?xml version="1.0" encoding="UTF-8" standalone="no"?>
<!DOCTYPE svg PUBLIC "-//W3C//DTD SVG 1.1//EN"
 "http://www.w3.org/Graphics/SVG/1.1/DTD/svg11.dtd">
<!-- Generated by graphviz version 5.0.0 (0)
 -->
<!-- Title: /mnt/raid10/stargate/ivi&#45;homescreen/shell/configuration/configuration.cc Pages: 1 -->
<svg width="755pt" height="280pt"
 viewBox="0.00 0.00 754.50 280.00" xmlns="http://www.w3.org/2000/svg" xmlns:xlink="http://www.w3.org/1999/xlink">
<g id="graph0" class="graph" transform="scale(1 1) rotate(0) translate(4 276)">
<title>/mnt/raid10/stargate/ivi&#45;homescreen/shell/configuration/configuration.cc</title>
<!-- Node1 -->
<g id="node1" class="node">
<title>Node1</title>
<g id="a_node1"><a xlink:title=" ">
<polygon fill="#999999" stroke="#666666" points="481.5,-272 334.5,-272 334.5,-231 481.5,-231 481.5,-272"/>
<text text-anchor="start" x="342.5" y="-260" font-family="Helvetica,sans-Serif" font-size="10.00">/mnt/raid10/stargate</text>
<text text-anchor="start" x="342.5" y="-249" font-family="Helvetica,sans-Serif" font-size="10.00">/ivi&#45;homescreen/shell</text>
<text text-anchor="middle" x="408" y="-238" font-family="Helvetica,sans-Serif" font-size="10.00">/configuration/configuration.cc</text>
</a>
</g>
</g>
<!-- Node2 -->
<g id="node2" class="node">
<title>Node2</title>
<g id="a_node2"><a xlink:href="configuration_8h.html" target="_top" xlink:title=" ">
<polygon fill="white" stroke="#666666" points="161,-195 81,-195 81,-176 161,-176 161,-195"/>
<text text-anchor="middle" x="121" y="-183" font-family="Helvetica,sans-Serif" font-size="10.00">configuration.h</text>
</a>
</g>
</g>
<!-- Node1&#45;&gt;Node2 -->
<g id="edge1" class="edge">
<title>Node1&#45;&gt;Node2</title>
<path fill="none" stroke="#63b8ff" d="M334.46,-234.1C282.43,-222.5 214.15,-207.27 168.98,-197.2"/>
<polygon fill="#63b8ff" stroke="#63b8ff" points="169.67,-193.77 159.15,-195.01 168.15,-200.6 169.67,-193.77"/>
</g>
<!-- Node6 -->
<g id="node6" class="node">
<title>Node6</title>
<g id="a_node6"><a xlink:title=" ">
<polygon fill="#e0e0e0" stroke="#999999" points="270,-134.5 160,-134.5 160,-115.5 270,-115.5 270,-134.5"/>
<text text-anchor="middle" x="215" y="-122.5" font-family="Helvetica,sans-Serif" font-size="10.00">rapidjson/document.h</text>
</a>
</g>
</g>
<!-- Node1&#45;&gt;Node6 -->
<g id="edge8" class="edge">
<title>Node1&#45;&gt;Node6</title>
<path fill="none" stroke="#63b8ff" d="M377.42,-230.77C338.36,-205.58 271.71,-162.58 237.19,-140.31"/>
<polygon fill="#63b8ff" stroke="#63b8ff" points="238.65,-137.09 228.35,-134.61 234.86,-142.98 238.65,-137.09"/>
</g>
<!-- Node7 -->
<g id="node7" class="node">
<title>Node7</title>
<g id="a_node7"><a xlink:title=" ">
<polygon fill="#e0e0e0" stroke="#999999" points="395,-195 345,-195 345,-176 395,-176 395,-195"/>
<text text-anchor="middle" x="370" y="-183" font-family="Helvetica,sans-Serif" font-size="10.00">fstream</text>
</a>
</g>
</g>
<!-- Node1&#45;&gt;Node7 -->
<g id="edge6" class="edge">
<title>Node1&#45;&gt;Node7</title>
<path fill="none" stroke="#63b8ff" d="M396.39,-230.95C391.31,-222.39 385.39,-212.42 380.45,-204.1"/>
<polygon fill="#63b8ff" stroke="#63b8ff" points="383.32,-202.07 375.2,-195.26 377.3,-205.65 383.32,-202.07"/>
</g>
<!-- Node8 -->
<g id="node8" class="node">
<title>Node8</title>
<g id="a_node8"><a xlink:title=" ">
<polygon fill="#e0e0e0" stroke="#999999" points="614,-134.5 562,-134.5 562,-115.5 614,-115.5 614,-134.5"/>
<text text-anchor="middle" x="588" y="-122.5" font-family="Helvetica,sans-Serif" font-size="10.00">sstream</text>
</a>
</g>
</g>
<!-- Node1&#45;&gt;Node8 -->
<g id="edge7" class="edge">
<title>Node1&#45;&gt;Node8</title>
<path fill="none" stroke="#63b8ff" d="M437.31,-230.85C452.99,-220.29 472.6,-207.01 490,-195 517.03,-176.34 547.98,-154.46 567.74,-140.43"/>
<polygon fill="#63b8ff" stroke="#63b8ff" points="569.86,-143.22 575.98,-134.57 565.8,-137.51 569.86,-143.22"/>
</g>
<!-- Node9 -->
<g id="node9" class="node">
<title>Node9</title>
<g id="a_node9"><a xlink:href="constants_8h.html" target="_top" xlink:title=" ">
<polygon fill="white" stroke="#666666" points="481,-195 413,-195 413,-176 481,-176 481,-195"/>
<text text-anchor="middle" x="447" y="-183" font-family="Helvetica,sans-Serif" font-size="10.00">constants.h</text>
</a>
</g>
</g>
<!-- Node1&#45;&gt;Node9 -->
<g id="edge9" class="edge">
<title>Node1&#45;&gt;Node9</title>
<path fill="none" stroke="#63b8ff" d="M419.91,-230.95C425.19,-222.3 431.34,-212.2 436.44,-203.82"/>
<polygon fill="#63b8ff" stroke="#63b8ff" points="439.45,-205.62 441.66,-195.26 433.47,-201.98 439.45,-205.62"/>
</g>
<!-- Node13 -->
<g id="node13" class="node">
<title>Node13</title>
<g id="a_node13"><a xlink:href="logging_8h.html" target="_top" xlink:title=" ">
<polygon fill="white" stroke="#666666" points="643,-195 587,-195 587,-176 643,-176 643,-195"/>
<text text-anchor="middle" x="615" y="-183" font-family="Helvetica,sans-Serif" font-size="10.00">logging.h</text>
</a>
</g>
</g>
<!-- Node1&#45;&gt;Node13 -->
<g id="edge13" class="edge">
<title>Node1&#45;&gt;Node13</title>
<path fill="none" stroke="#63b8ff" d="M471.23,-230.95C506.01,-220.2 547.98,-207.22 577.56,-198.07"/>
<polygon fill="#63b8ff" stroke="#63b8ff" points="578.96,-201.31 587.48,-195.01 576.89,-194.62 578.96,-201.31"/>
</g>
<!-- Node3 -->
<g id="node3" class="node">
<title>Node3</title>
<g id="a_node3"><a xlink:title=" ">
<polygon fill="#e0e0e0" stroke="#999999" points="141.5,-134.5 100.5,-134.5 100.5,-115.5 141.5,-115.5 141.5,-134.5"/>
<text text-anchor="middle" x="121" y="-122.5" font-family="Helvetica,sans-Serif" font-size="10.00">string</text>
</a>
</g>
</g>
<!-- Node2&#45;&gt;Node3 -->
<g id="edge2" class="edge">
<title>Node2&#45;&gt;Node3</title>
<path fill="none" stroke="#63b8ff" d="M121,-175.87C121,-167.75 121,-155.31 121,-144.89"/>
<polygon fill="#63b8ff" stroke="#63b8ff" points="124.5,-144.67 121,-134.67 117.5,-144.67 124.5,-144.67"/>
</g>
<!-- Node4 -->
<g id="node4" class="node">
<title>Node4</title>
<g id="a_node4"><a xlink:title=" ">
<polygon fill="#e0e0e0" stroke="#999999" points="44,-134.5 0,-134.5 0,-115.5 44,-115.5 44,-134.5"/>
<text text-anchor="middle" x="22" y="-122.5" font-family="Helvetica,sans-Serif" font-size="10.00">vector</text>
</a>
</g>
</g>
<!-- Node2&#45;&gt;Node4 -->
<g id="edge3" class="edge">
<title>Node2&#45;&gt;Node4</title>
<path fill="none" stroke="#63b8ff" d="M106.39,-175.87C90.31,-166.36 64.22,-150.95 45.3,-139.77"/>
<polygon fill="#63b8ff" stroke="#63b8ff" points="47.06,-136.74 36.67,-134.67 43.5,-142.77 47.06,-136.74"/>
</g>
<!-- Node5 -->
<g id="node5" class="node">
<title>Node5</title>
<g id="a_node5"><a xlink:title=" ">
<polygon fill="#e0e0e0" stroke="#999999" points="669.5,-74 568.5,-74 568.5,-55 669.5,-55 669.5,-74"/>
<text text-anchor="middle" x="619" y="-62" font-family="Helvetica,sans-Serif" font-size="10.00">flutter/fml/macros.h</text>
</a>
</g>
</g>
<!-- Node2&#45;&gt;Node5 -->
<g id="edge4" class="edge">
<title>Node2&#45;&gt;Node5</title>
<path fill="none" stroke="#63b8ff" d="M112.02,-175.61C97.75,-160.43 73.26,-129.3 91,-110 122.07,-76.21 425.65,-68.06 557.92,-66.11"/>
<polygon fill="#63b8ff" stroke="#63b8ff" points="558.33,-69.6 568.28,-65.96 558.23,-62.6 558.33,-69.6"/>
</g>
<!-- Node2&#45;&gt;Node6 -->
<g id="edge5" class="edge">
<title>Node2&#45;&gt;Node6</title>
<path fill="none" stroke="#63b8ff" d="M134.87,-175.87C150,-166.45 174.46,-151.23 192.38,-140.08"/>
<polygon fill="#63b8ff" stroke="#63b8ff" points="194.43,-142.92 201.07,-134.67 190.73,-136.98 194.43,-142.92"/>
</g>
<!-- Node10 -->
<g id="node10" class="node">
<title>Node10</title>
<g id="a_node10"><a xlink:title=" ">
<polygon fill="#e0e0e0" stroke="#999999" points="544,-134.5 484,-134.5 484,-115.5 544,-115.5 544,-134.5"/>
<text text-anchor="middle" x="514" y="-122.5" font-family="Helvetica,sans-Serif" font-size="10.00">EGL/egl.h</text>
</a>
</g>
</g>
<!-- Node9&#45;&gt;Node10 -->
<g id="edge10" class="edge">
<title>Node9&#45;&gt;Node10</title>
<path fill="none" stroke="#63b8ff" d="M456.89,-175.87C467.28,-166.8 483.84,-152.34 496.45,-141.32"/>
<polygon fill="#63b8ff" stroke="#63b8ff" points="498.84,-143.88 504.07,-134.67 494.24,-138.61 498.84,-143.88"/>
</g>
<!-- Node11 -->
<g id="node11" class="node">
<title>Node11</title>
<g id="a_node11"><a xlink:title=" ">
<polygon fill="#e0e0e0" stroke="#999999" points="409.5,-140 288.5,-140 288.5,-110 409.5,-110 409.5,-140"/>
<text text-anchor="start" x="296.5" y="-128" font-family="Helvetica,sans-Serif" font-size="10.00">shell/platform/embedder</text>
<text text-anchor="middle" x="349" y="-117" font-family="Helvetica,sans-Serif" font-size="10.00">/embedder.h</text>
</a>
</g>
</g>
<!-- Node9&#45;&gt;Node11 -->
<g id="edge11" class="edge">
<title>Node9&#45;&gt;Node11</title>
<path fill="none" stroke="#63b8ff" d="M432.54,-175.87C419.12,-167.86 398.67,-155.65 381.36,-145.31"/>
<polygon fill="#63b8ff" stroke="#63b8ff" points="383.03,-142.23 372.64,-140.11 379.44,-148.25 383.03,-142.23"/>
</g>
<!-- Node12 -->
<g id="node12" class="node">
<title>Node12</title>
<g id="a_node12"><a xlink:title=" ">
<polygon fill="#e0e0e0" stroke="#999999" points="466,-134.5 428,-134.5 428,-115.5 466,-115.5 466,-134.5"/>
<text text-anchor="middle" x="447" y="-122.5" font-family="Helvetica,sans-Serif" font-size="10.00">array</text>
</a>
</g>
</g>
<!-- Node9&#45;&gt;Node12 -->
<g id="edge12" class="edge">
<title>Node9&#45;&gt;Node12</title>
<path fill="none" stroke="#63b8ff" d="M447,-175.87C447,-167.75 447,-155.31 447,-144.89"/>
<polygon fill="#63b8ff" stroke="#63b8ff" points="450.5,-144.67 447,-134.67 443.5,-144.67 450.5,-144.67"/>
</g>
<!-- Node13&#45;&gt;Node5 -->
<g id="edge19" class="edge">
<title>Node13&#45;&gt;Node5</title>
<path fill="none" stroke="#63b8ff" d="M617.06,-175.7C619.04,-166.77 621.88,-152.51 623,-140 624.69,-121.08 623.13,-99.4 621.49,-84.32"/>
<polygon fill="#63b8ff" stroke="#63b8ff" points="624.95,-83.74 620.27,-74.23 618,-84.58 624.95,-83.74"/>
</g>
<!-- Node13&#45;&gt;Node8 -->
<g id="edge14" class="edge">
<title>Node13&#45;&gt;Node8</title>
<path fill="none" stroke="#63b8ff" d="M611.02,-175.87C607.15,-167.49 601.16,-154.51 596.26,-143.89"/>
<polygon fill="#63b8ff" stroke="#63b8ff" points="599.37,-142.28 592,-134.67 593.01,-145.21 599.37,-142.28"/>
</g>
<!-- Node14 -->
<g id="node14" class="node">
<title>Node14</title>
<g id="a_node14"><a xlink:href="dlt_8h.html" target="_top" xlink:title=" ">
<polygon fill="white" stroke="#666666" points="719.5,-134.5 670.5,-134.5 670.5,-115.5 719.5,-115.5 719.5,-134.5"/>
<text text-anchor="middle" x="695" y="-122.5" font-family="Helvetica,sans-Serif" font-size="10.00">dlt/dlt.h</text>
</a>
</g>
</g>
<!-- Node13&#45;&gt;Node14 -->
<g id="edge15" class="edge">
<title>Node13&#45;&gt;Node14</title>
<path fill="none" stroke="#63b8ff" d="M626.8,-175.87C639.45,-166.62 659.74,-151.78 674.91,-140.69"/>
<polygon fill="#63b8ff" stroke="#63b8ff" points="677.14,-143.4 683.15,-134.67 673.01,-137.74 677.14,-143.4"/>
</g>
<!-- Node14&#45;&gt;Node5 -->
<g id="edge18" class="edge">
<title>Node14&#45;&gt;Node5</title>
<path fill="none" stroke="#63b8ff" d="M683.79,-115.37C671.89,-106.21 652.86,-91.56 638.49,-80.51"/>
<polygon fill="#63b8ff" stroke="#63b8ff" points="640.32,-77.49 630.26,-74.17 636.05,-83.04 640.32,-77.49"/>
</g>
<!-- Node15 -->
<g id="node15" class="node">
<title>Node15</title>
<g id="a_node15"><a xlink:href="libdlt_8h.html" target="_top" xlink:title=" ">
<polygon fill="white" stroke="#666666" points="746.5,-74 687.5,-74 687.5,-55 746.5,-55 746.5,-74"/>
<text text-anchor="middle" x="717" y="-62" font-family="Helvetica,sans-Serif" font-size="10.00">dlt/libdlt.h</text>
</a>
</g>
</g>
<!-- Node14&#45;&gt;Node15 -->
<g id="edge16" class="edge">
<title>Node14&#45;&gt;Node15</title>
<path fill="none" stroke="#63b8ff" d="M698.25,-115.37C701.37,-107.07 706.18,-94.28 710.15,-83.72"/>
<polygon fill="#63b8ff" stroke="#63b8ff" points="713.5,-84.76 713.74,-74.17 706.94,-82.3 713.5,-84.76"/>
</g>
<!-- Node16 -->
<g id="node16" class="node">
<title>Node16</title>
<g id="a_node16"><a xlink:title=" ">
<polygon fill="#e0e0e0" stroke="#999999" points="740,-19 694,-19 694,0 740,0 740,-19"/>
<text text-anchor="middle" x="717" y="-7" font-family="Helvetica,sans-Serif" font-size="10.00">cstdint</text>
</a>
</g>
</g>
<!-- Node15&#45;&gt;Node16 -->
<g id="edge17" class="edge">
<title>Node15&#45;&gt;Node16</title>
<path fill="none" stroke="#63b8ff" d="M717,-54.75C717,-47.8 717,-37.85 717,-29.13"/>
<polygon fill="#63b8ff" stroke="#63b8ff" points="720.5,-29.09 717,-19.09 713.5,-29.09 720.5,-29.09"/>
</g>
</g>
</svg>
