<?xml version="1.0" encoding="UTF-8" standalone="no"?>
<!DOCTYPE svg PUBLIC "-//W3C//DTD SVG 1.1//EN"
 "http://www.w3.org/Graphics/SVG/1.1/DTD/svg11.dtd">
<!-- Generated by graphviz version 2.43.0 (0)
 -->
<!-- Title: /home/joel.winarske@toyotaconnected.com/development/stargate/ivi&#45;homescreen/shell/configuration/configuration.cc Pages: 1 -->
<svg width="817pt" height="195pt"
 viewBox="0.00 0.00 816.50 195.00" xmlns="http://www.w3.org/2000/svg" xmlns:xlink="http://www.w3.org/1999/xlink">
<g id="graph0" class="graph" transform="scale(1 1) rotate(0) translate(4 191)">
<title>/home/joel.winarske@toyotaconnected.com/development/stargate/ivi&#45;homescreen/shell/configuration/configuration.cc</title>
<polygon fill="white" stroke="transparent" points="-4,4 -4,-191 812.5,-191 812.5,4 -4,4"/>
<!-- Node1 -->
<g id="node1" class="node">
<title>Node1</title>
<g id="a_node1"><a xlink:title=" ">
<polygon fill="#bfbfbf" stroke="black" points="340,-123.5 340,-186.5 504,-186.5 504,-123.5 340,-123.5"/>
<text text-anchor="start" x="348" y="-174.5" font-family="Helvetica,sans-Serif" font-size="10.00">/home/joel.winarske</text>
<text text-anchor="start" x="348" y="-163.5" font-family="Helvetica,sans-Serif" font-size="10.00">@toyotaconnected.com</text>
<text text-anchor="start" x="348" y="-152.5" font-family="Helvetica,sans-Serif" font-size="10.00">/development/stargate</text>
<text text-anchor="start" x="348" y="-141.5" font-family="Helvetica,sans-Serif" font-size="10.00">/ivi&#45;homescreen/shell</text>
<text text-anchor="middle" x="422" y="-130.5" font-family="Helvetica,sans-Serif" font-size="10.00">/configuration/configuration.cc</text>
</a>
</g>
</g>
<!-- Node2 -->
<g id="node2" class="node">
<title>Node2</title>
<g id="a_node2"><a xlink:href="configuration_8h.html" target="_top" xlink:title=" ">
<polygon fill="white" stroke="black" points="139.5,-67.5 139.5,-86.5 228.5,-86.5 228.5,-67.5 139.5,-67.5"/>
<text text-anchor="middle" x="184" y="-74.5" font-family="Helvetica,sans-Serif" font-size="10.00">configuration.h</text>
</a>
</g>
</g>
<!-- Node1&#45;&gt;Node2 -->
<g id="edge1" class="edge">
<title>Node1&#45;&gt;Node2</title>
<path fill="none" stroke="midnightblue" d="M339.76,-127.74C299.15,-114.77 252.19,-99.78 220.55,-89.67"/>
<polygon fill="midnightblue" stroke="midnightblue" points="221.43,-86.28 210.84,-86.57 219.3,-92.95 221.43,-86.28"/>
</g>
<!-- Node6 -->
<g id="node6" class="node">
<title>Node6</title>
<g id="a_node6"><a xlink:title=" ">
<polygon fill="white" stroke="#bfbfbf" points="259,-6 259,-25 381,-25 381,-6 259,-6"/>
<text text-anchor="middle" x="320" y="-13" font-family="Helvetica,sans-Serif" font-size="10.00">rapidjson/document.h</text>
</a>
</g>
</g>
<!-- Node1&#45;&gt;Node6 -->
<g id="edge8" class="edge">
<title>Node1&#45;&gt;Node6</title>
<path fill="none" stroke="midnightblue" d="M381.38,-123.21C369.47,-112.71 357.19,-100.24 348,-87 336.99,-71.13 329.41,-50.32 324.94,-35.42"/>
<polygon fill="midnightblue" stroke="midnightblue" points="328.19,-34.05 322.12,-25.37 321.45,-35.94 328.19,-34.05"/>
</g>
<!-- Node7 -->
<g id="node7" class="node">
<title>Node7</title>
<g id="a_node7"><a xlink:title=" ">
<polygon fill="white" stroke="#bfbfbf" points="357.5,-67.5 357.5,-86.5 412.5,-86.5 412.5,-67.5 357.5,-67.5"/>
<text text-anchor="middle" x="385" y="-74.5" font-family="Helvetica,sans-Serif" font-size="10.00">fstream</text>
</a>
</g>
</g>
<!-- Node1&#45;&gt;Node7 -->
<g id="edge6" class="edge">
<title>Node1&#45;&gt;Node7</title>
<path fill="none" stroke="midnightblue" d="M406.95,-123.09C402.45,-113.84 397.66,-104.01 393.72,-95.9"/>
<polygon fill="midnightblue" stroke="midnightblue" points="396.77,-94.18 389.24,-86.72 390.47,-97.24 396.77,-94.18"/>
</g>
<!-- Node8 -->
<g id="node8" class="node">
<title>Node8</title>
<g id="a_node8"><a xlink:title=" ">
<polygon fill="white" stroke="#bfbfbf" points="431,-67.5 431,-86.5 487,-86.5 487,-67.5 431,-67.5"/>
<text text-anchor="middle" x="459" y="-74.5" font-family="Helvetica,sans-Serif" font-size="10.00">sstream</text>
</a>
</g>
</g>
<!-- Node1&#45;&gt;Node8 -->
<g id="edge7" class="edge">
<title>Node1&#45;&gt;Node8</title>
<path fill="none" stroke="midnightblue" d="M437.05,-123.09C441.55,-113.84 446.34,-104.01 450.28,-95.9"/>
<polygon fill="midnightblue" stroke="midnightblue" points="453.53,-97.24 454.76,-86.72 447.23,-94.18 453.53,-97.24"/>
</g>
<!-- Node9 -->
<g id="node9" class="node">
<title>Node9</title>
<g id="a_node9"><a xlink:href="constants_8h.html" target="_top" xlink:title=" ">
<polygon fill="white" stroke="black" points="509.5,-67.5 509.5,-86.5 582.5,-86.5 582.5,-67.5 509.5,-67.5"/>
<text text-anchor="middle" x="546" y="-74.5" font-family="Helvetica,sans-Serif" font-size="10.00">constants.h</text>
</a>
</g>
</g>
<!-- Node1&#45;&gt;Node9 -->
<g id="edge9" class="edge">
<title>Node1&#45;&gt;Node9</title>
<path fill="none" stroke="midnightblue" d="M472.08,-123.31C489.83,-112.43 508.94,-100.71 523.28,-91.92"/>
<polygon fill="midnightblue" stroke="midnightblue" points="525.26,-94.82 531.96,-86.61 521.6,-88.85 525.26,-94.82"/>
</g>
<!-- Node13 -->
<g id="node13" class="node">
<title>Node13</title>
<g id="a_node13"><a xlink:href="logging_8h.html" target="_top" xlink:title=" ">
<polygon fill="white" stroke="black" points="662,-67.5 662,-86.5 724,-86.5 724,-67.5 662,-67.5"/>
<text text-anchor="middle" x="693" y="-74.5" font-family="Helvetica,sans-Serif" font-size="10.00">logging.h</text>
</a>
</g>
</g>
<!-- Node1&#45;&gt;Node13 -->
<g id="edge13" class="edge">
<title>Node1&#45;&gt;Node13</title>
<path fill="none" stroke="midnightblue" d="M504.04,-130.99C553.24,-117.2 613.63,-100.26 652.69,-89.3"/>
<polygon fill="midnightblue" stroke="midnightblue" points="653.94,-92.59 662.63,-86.52 652.05,-85.85 653.94,-92.59"/>
</g>
<!-- Node3 -->
<g id="node3" class="node">
<title>Node3</title>
<g id="a_node3"><a xlink:title=" ">
<polygon fill="white" stroke="#bfbfbf" points="0,-6 0,-25 44,-25 44,-6 0,-6"/>
<text text-anchor="middle" x="22" y="-13" font-family="Helvetica,sans-Serif" font-size="10.00">string</text>
</a>
</g>
</g>
<!-- Node2&#45;&gt;Node3 -->
<g id="edge2" class="edge">
<title>Node2&#45;&gt;Node3</title>
<path fill="none" stroke="midnightblue" d="M156.34,-67.45C129.61,-58.96 88.11,-45.2 53,-31 51.62,-30.44 50.22,-29.86 48.81,-29.25"/>
<polygon fill="midnightblue" stroke="midnightblue" points="50.12,-26 39.56,-25.11 47.26,-32.39 50.12,-26"/>
</g>
<!-- Node4 -->
<g id="node4" class="node">
<title>Node4</title>
<g id="a_node4"><a xlink:title=" ">
<polygon fill="white" stroke="#bfbfbf" points="62.5,-6 62.5,-25 109.5,-25 109.5,-6 62.5,-6"/>
<text text-anchor="middle" x="86" y="-13" font-family="Helvetica,sans-Serif" font-size="10.00">vector</text>
</a>
</g>
</g>
<!-- Node2&#45;&gt;Node4 -->
<g id="edge3" class="edge">
<title>Node2&#45;&gt;Node4</title>
<path fill="none" stroke="midnightblue" d="M169.96,-67.48C153.95,-57.75 127.55,-41.73 108.63,-30.24"/>
<polygon fill="midnightblue" stroke="midnightblue" points="110.38,-27.21 100.01,-25.01 106.75,-33.19 110.38,-27.21"/>
</g>
<!-- Node5 -->
<g id="node5" class="node">
<title>Node5</title>
<g id="a_node5"><a xlink:title=" ">
<polygon fill="white" stroke="#bfbfbf" points="127.5,-6 127.5,-25 240.5,-25 240.5,-6 127.5,-6"/>
<text text-anchor="middle" x="184" y="-13" font-family="Helvetica,sans-Serif" font-size="10.00">flutter/fml/macros.h</text>
</a>
</g>
</g>
<!-- Node2&#45;&gt;Node5 -->
<g id="edge4" class="edge">
<title>Node2&#45;&gt;Node5</title>
<path fill="none" stroke="midnightblue" d="M184,-67.48C184,-59.08 184,-45.98 184,-35.16"/>
<polygon fill="midnightblue" stroke="midnightblue" points="187.5,-35.01 184,-25.01 180.5,-35.01 187.5,-35.01"/>
</g>
<!-- Node2&#45;&gt;Node6 -->
<g id="edge5" class="edge">
<title>Node2&#45;&gt;Node6</title>
<path fill="none" stroke="midnightblue" d="M203.49,-67.48C226.41,-57.45 264.69,-40.7 291.08,-29.15"/>
<polygon fill="midnightblue" stroke="midnightblue" points="292.79,-32.22 300.55,-25.01 289.99,-25.81 292.79,-32.22"/>
</g>
<!-- Node10 -->
<g id="node10" class="node">
<title>Node10</title>
<g id="a_node10"><a xlink:title=" ">
<polygon fill="white" stroke="#bfbfbf" points="399,-6 399,-25 461,-25 461,-6 399,-6"/>
<text text-anchor="middle" x="430" y="-13" font-family="Helvetica,sans-Serif" font-size="10.00">EGL/egl.h</text>
</a>
</g>
</g>
<!-- Node9&#45;&gt;Node10 -->
<g id="edge10" class="edge">
<title>Node9&#45;&gt;Node10</title>
<path fill="none" stroke="midnightblue" d="M529.38,-67.48C510.08,-57.58 478.04,-41.14 455.57,-29.62"/>
<polygon fill="midnightblue" stroke="midnightblue" points="457.08,-26.46 446.59,-25.01 453.89,-32.69 457.08,-26.46"/>
</g>
<!-- Node11 -->
<g id="node11" class="node">
<title>Node11</title>
<g id="a_node11"><a xlink:title=" ">
<polygon fill="white" stroke="#bfbfbf" points="479.5,-0.5 479.5,-30.5 616.5,-30.5 616.5,-0.5 479.5,-0.5"/>
<text text-anchor="start" x="487.5" y="-18.5" font-family="Helvetica,sans-Serif" font-size="10.00">shell/platform/embedder</text>
<text text-anchor="middle" x="548" y="-7.5" font-family="Helvetica,sans-Serif" font-size="10.00">/embedder.h</text>
</a>
</g>
</g>
<!-- Node9&#45;&gt;Node11 -->
<g id="edge11" class="edge">
<title>Node9&#45;&gt;Node11</title>
<path fill="none" stroke="midnightblue" d="M546.29,-67.48C546.52,-60.47 546.87,-50.19 547.19,-40.7"/>
<polygon fill="midnightblue" stroke="midnightblue" points="550.69,-40.63 547.53,-30.52 543.69,-40.4 550.69,-40.63"/>
</g>
<!-- Node12 -->
<g id="node12" class="node">
<title>Node12</title>
<g id="a_node12"><a xlink:title=" ">
<polygon fill="white" stroke="#bfbfbf" points="635,-6 635,-25 677,-25 677,-6 635,-6"/>
<text text-anchor="middle" x="656" y="-13" font-family="Helvetica,sans-Serif" font-size="10.00">array</text>
</a>
</g>
</g>
<!-- Node9&#45;&gt;Node12 -->
<g id="edge12" class="edge">
<title>Node9&#45;&gt;Node12</title>
<path fill="none" stroke="midnightblue" d="M561.76,-67.48C579.98,-57.62 610.17,-41.29 631.47,-29.77"/>
<polygon fill="midnightblue" stroke="midnightblue" points="633.14,-32.85 640.27,-25.01 629.81,-26.69 633.14,-32.85"/>
</g>
<!-- Node14 -->
<g id="node14" class="node">
<title>Node14</title>
<g id="a_node14"><a xlink:title=" ">
<polygon fill="white" stroke="#bfbfbf" points="695.5,-6 695.5,-25 808.5,-25 808.5,-6 695.5,-6"/>
<text text-anchor="middle" x="752" y="-13" font-family="Helvetica,sans-Serif" font-size="10.00">flutter/fml/logging.h</text>
</a>
</g>
</g>
<!-- Node13&#45;&gt;Node14 -->
<g id="edge14" class="edge">
<title>Node13&#45;&gt;Node14</title>
<path fill="none" stroke="midnightblue" d="M701.45,-67.48C710.57,-58.28 725.27,-43.46 736.48,-32.16"/>
<polygon fill="midnightblue" stroke="midnightblue" points="739.01,-34.57 743.56,-25.01 734.04,-29.65 739.01,-34.57"/>
</g>
</g>
</svg>
