<?xml version="1.0" encoding="UTF-8" standalone="no"?>
<!DOCTYPE svg PUBLIC "-//W3C//DTD SVG 1.1//EN"
 "http://www.w3.org/Graphics/SVG/1.1/DTD/svg11.dtd">
<!-- Generated by graphviz version 2.43.0 (0)
 -->
<!-- Title: /home/joel.winarske@toyotaconnected.com/development/workspace&#45;automation&#45;configs/app/ivi&#45;homescreen/shell/configuration/configuration.cc Pages: 1 -->
<svg width="817pt" height="206pt"
 viewBox="0.00 0.00 816.50 206.00" xmlns="http://www.w3.org/2000/svg" xmlns:xlink="http://www.w3.org/1999/xlink">
<g id="graph0" class="graph" transform="scale(1 1) rotate(0) translate(4 202)">
<title>/home/joel.winarske@toyotaconnected.com/development/workspace&#45;automation&#45;configs/app/ivi&#45;homescreen/shell/configuration/configuration.cc</title>
<polygon fill="white" stroke="transparent" points="-4,4 -4,-202 812.5,-202 812.5,4 -4,4"/>
<!-- Node1 -->
<g id="node1" class="node">
<title>Node1</title>
<g id="a_node1"><a xlink:title=" ">
<polygon fill="#bfbfbf" stroke="black" points="328,-123.5 328,-197.5 516,-197.5 516,-123.5 328,-123.5"/>
<text text-anchor="start" x="336" y="-185.5" font-family="Helvetica,sans-Serif" font-size="10.00">/home/joel.winarske</text>
<text text-anchor="start" x="336" y="-174.5" font-family="Helvetica,sans-Serif" font-size="10.00">@toyotaconnected.com</text>
<text text-anchor="start" x="336" y="-163.5" font-family="Helvetica,sans-Serif" font-size="10.00">/development/workspace</text>
<text text-anchor="start" x="336" y="-152.5" font-family="Helvetica,sans-Serif" font-size="10.00">&#45;automation&#45;configs/app</text>
<text text-anchor="start" x="336" y="-141.5" font-family="Helvetica,sans-Serif" font-size="10.00">/ivi&#45;homescreen/shell/configuration</text>
<text text-anchor="middle" x="422" y="-130.5" font-family="Helvetica,sans-Serif" font-size="10.00">/configuration.cc</text>
</a>
</g>
</g>
<!-- Node2 -->
<g id="node2" class="node">
<title>Node2</title>
<g id="a_node2"><a xlink:href="configuration_8h.html" target="_top" xlink:title=" ">
<polygon fill="white" stroke="black" points="139.5,-67.5 139.5,-86.5 228.5,-86.5 228.5,-67.5 139.5,-67.5"/>
<text text-anchor="middle" x="184" y="-74.5" font-family="Helvetica,sans-Serif" font-size="10.00">configuration.h</text>
</a>
</g>
</g>
<!-- Node1&#45;&gt;Node2 -->
<g id="edge1" class="edge">
<title>Node1&#45;&gt;Node2</title>
<path fill="none" stroke="midnightblue" d="M327.94,-127.29C289.35,-114.08 247.1,-99.61 218.42,-89.79"/>
<polygon fill="midnightblue" stroke="midnightblue" points="219.46,-86.44 208.87,-86.52 217.19,-93.07 219.46,-86.44"/>
</g>
<!-- Node6 -->
<g id="node6" class="node">
<title>Node6</title>
<g id="a_node6"><a xlink:title=" ">
<polygon fill="white" stroke="#bfbfbf" points="259,-6 259,-25 381,-25 381,-6 259,-6"/>
<text text-anchor="middle" x="320" y="-13" font-family="Helvetica,sans-Serif" font-size="10.00">rapidjson/document.h</text>
</a>
</g>
</g>
<!-- Node1&#45;&gt;Node6 -->
<g id="edge8" class="edge">
<title>Node1&#45;&gt;Node6</title>
<path fill="none" stroke="midnightblue" d="M379.16,-123.46C367.99,-112.58 356.66,-100.03 348,-87 337.31,-70.92 329.68,-50.13 325.11,-35.31"/>
<polygon fill="midnightblue" stroke="midnightblue" points="328.36,-33.94 322.21,-25.3 321.63,-35.88 328.36,-33.94"/>
</g>
<!-- Node7 -->
<g id="node7" class="node">
<title>Node7</title>
<g id="a_node7"><a xlink:title=" ">
<polygon fill="white" stroke="#bfbfbf" points="357.5,-67.5 357.5,-86.5 412.5,-86.5 412.5,-67.5 357.5,-67.5"/>
<text text-anchor="middle" x="385" y="-74.5" font-family="Helvetica,sans-Serif" font-size="10.00">fstream</text>
</a>
</g>
</g>
<!-- Node1&#45;&gt;Node7 -->
<g id="edge6" class="edge">
<title>Node1&#45;&gt;Node7</title>
<path fill="none" stroke="midnightblue" d="M405.45,-123.04C401.17,-113.61 396.74,-103.87 393.11,-95.87"/>
<polygon fill="midnightblue" stroke="midnightblue" points="396.19,-94.19 388.87,-86.53 389.82,-97.08 396.19,-94.19"/>
</g>
<!-- Node8 -->
<g id="node8" class="node">
<title>Node8</title>
<g id="a_node8"><a xlink:title=" ">
<polygon fill="white" stroke="#bfbfbf" points="431,-67.5 431,-86.5 487,-86.5 487,-67.5 431,-67.5"/>
<text text-anchor="middle" x="459" y="-74.5" font-family="Helvetica,sans-Serif" font-size="10.00">sstream</text>
</a>
</g>
</g>
<!-- Node1&#45;&gt;Node8 -->
<g id="edge7" class="edge">
<title>Node1&#45;&gt;Node8</title>
<path fill="none" stroke="midnightblue" d="M438.55,-123.04C442.83,-113.61 447.26,-103.87 450.89,-95.87"/>
<polygon fill="midnightblue" stroke="midnightblue" points="454.18,-97.08 455.13,-86.53 447.81,-94.19 454.18,-97.08"/>
</g>
<!-- Node9 -->
<g id="node9" class="node">
<title>Node9</title>
<g id="a_node9"><a xlink:href="constants_8h.html" target="_top" xlink:title=" ">
<polygon fill="white" stroke="black" points="509.5,-67.5 509.5,-86.5 582.5,-86.5 582.5,-67.5 509.5,-67.5"/>
<text text-anchor="middle" x="546" y="-74.5" font-family="Helvetica,sans-Serif" font-size="10.00">constants.h</text>
</a>
</g>
</g>
<!-- Node1&#45;&gt;Node9 -->
<g id="edge9" class="edge">
<title>Node1&#45;&gt;Node9</title>
<path fill="none" stroke="midnightblue" d="M477.11,-123.28C493.77,-112.33 511.09,-100.94 524.2,-92.33"/>
<polygon fill="midnightblue" stroke="midnightblue" points="526.5,-95 532.93,-86.59 522.66,-89.15 526.5,-95"/>
</g>
<!-- Node13 -->
<g id="node13" class="node">
<title>Node13</title>
<g id="a_node13"><a xlink:href="logging_8h.html" target="_top" xlink:title=" ">
<polygon fill="white" stroke="black" points="662,-67.5 662,-86.5 724,-86.5 724,-67.5 662,-67.5"/>
<text text-anchor="middle" x="693" y="-74.5" font-family="Helvetica,sans-Serif" font-size="10.00">logging.h</text>
</a>
</g>
</g>
<!-- Node1&#45;&gt;Node13 -->
<g id="edge13" class="edge">
<title>Node1&#45;&gt;Node13</title>
<path fill="none" stroke="midnightblue" d="M516.02,-131.22C563.81,-116.85 619.22,-100.19 655.13,-89.39"/>
<polygon fill="midnightblue" stroke="midnightblue" points="656.15,-92.74 664.72,-86.51 654.13,-86.03 656.15,-92.74"/>
</g>
<!-- Node3 -->
<g id="node3" class="node">
<title>Node3</title>
<g id="a_node3"><a xlink:title=" ">
<polygon fill="white" stroke="#bfbfbf" points="0,-6 0,-25 44,-25 44,-6 0,-6"/>
<text text-anchor="middle" x="22" y="-13" font-family="Helvetica,sans-Serif" font-size="10.00">string</text>
</a>
</g>
</g>
<!-- Node2&#45;&gt;Node3 -->
<g id="edge2" class="edge">
<title>Node2&#45;&gt;Node3</title>
<path fill="none" stroke="midnightblue" d="M156.34,-67.45C129.61,-58.96 88.11,-45.2 53,-31 51.62,-30.44 50.22,-29.86 48.81,-29.25"/>
<polygon fill="midnightblue" stroke="midnightblue" points="50.12,-26 39.56,-25.11 47.26,-32.39 50.12,-26"/>
</g>
<!-- Node4 -->
<g id="node4" class="node">
<title>Node4</title>
<g id="a_node4"><a xlink:title=" ">
<polygon fill="white" stroke="#bfbfbf" points="62.5,-6 62.5,-25 109.5,-25 109.5,-6 62.5,-6"/>
<text text-anchor="middle" x="86" y="-13" font-family="Helvetica,sans-Serif" font-size="10.00">vector</text>
</a>
</g>
</g>
<!-- Node2&#45;&gt;Node4 -->
<g id="edge3" class="edge">
<title>Node2&#45;&gt;Node4</title>
<path fill="none" stroke="midnightblue" d="M169.96,-67.48C153.95,-57.75 127.55,-41.73 108.63,-30.24"/>
<polygon fill="midnightblue" stroke="midnightblue" points="110.38,-27.21 100.01,-25.01 106.75,-33.19 110.38,-27.21"/>
</g>
<!-- Node5 -->
<g id="node5" class="node">
<title>Node5</title>
<g id="a_node5"><a xlink:title=" ">
<polygon fill="white" stroke="#bfbfbf" points="127.5,-6 127.5,-25 240.5,-25 240.5,-6 127.5,-6"/>
<text text-anchor="middle" x="184" y="-13" font-family="Helvetica,sans-Serif" font-size="10.00">flutter/fml/macros.h</text>
</a>
</g>
</g>
<!-- Node2&#45;&gt;Node5 -->
<g id="edge4" class="edge">
<title>Node2&#45;&gt;Node5</title>
<path fill="none" stroke="midnightblue" d="M184,-67.48C184,-59.08 184,-45.98 184,-35.16"/>
<polygon fill="midnightblue" stroke="midnightblue" points="187.5,-35.01 184,-25.01 180.5,-35.01 187.5,-35.01"/>
</g>
<!-- Node2&#45;&gt;Node6 -->
<g id="edge5" class="edge">
<title>Node2&#45;&gt;Node6</title>
<path fill="none" stroke="midnightblue" d="M203.49,-67.48C226.41,-57.45 264.69,-40.7 291.08,-29.15"/>
<polygon fill="midnightblue" stroke="midnightblue" points="292.79,-32.22 300.55,-25.01 289.99,-25.81 292.79,-32.22"/>
</g>
<!-- Node10 -->
<g id="node10" class="node">
<title>Node10</title>
<g id="a_node10"><a xlink:title=" ">
<polygon fill="white" stroke="#bfbfbf" points="399,-6 399,-25 461,-25 461,-6 399,-6"/>
<text text-anchor="middle" x="430" y="-13" font-family="Helvetica,sans-Serif" font-size="10.00">EGL/egl.h</text>
</a>
</g>
</g>
<!-- Node9&#45;&gt;Node10 -->
<g id="edge10" class="edge">
<title>Node9&#45;&gt;Node10</title>
<path fill="none" stroke="midnightblue" d="M529.38,-67.48C510.08,-57.58 478.04,-41.14 455.57,-29.62"/>
<polygon fill="midnightblue" stroke="midnightblue" points="457.08,-26.46 446.59,-25.01 453.89,-32.69 457.08,-26.46"/>
</g>
<!-- Node11 -->
<g id="node11" class="node">
<title>Node11</title>
<g id="a_node11"><a xlink:title=" ">
<polygon fill="white" stroke="#bfbfbf" points="479.5,-0.5 479.5,-30.5 616.5,-30.5 616.5,-0.5 479.5,-0.5"/>
<text text-anchor="start" x="487.5" y="-18.5" font-family="Helvetica,sans-Serif" font-size="10.00">shell/platform/embedder</text>
<text text-anchor="middle" x="548" y="-7.5" font-family="Helvetica,sans-Serif" font-size="10.00">/embedder.h</text>
</a>
</g>
</g>
<!-- Node9&#45;&gt;Node11 -->
<g id="edge11" class="edge">
<title>Node9&#45;&gt;Node11</title>
<path fill="none" stroke="midnightblue" d="M546.29,-67.48C546.52,-60.47 546.87,-50.19 547.19,-40.7"/>
<polygon fill="midnightblue" stroke="midnightblue" points="550.69,-40.63 547.53,-30.52 543.69,-40.4 550.69,-40.63"/>
</g>
<!-- Node12 -->
<g id="node12" class="node">
<title>Node12</title>
<g id="a_node12"><a xlink:title=" ">
<polygon fill="white" stroke="#bfbfbf" points="635,-6 635,-25 677,-25 677,-6 635,-6"/>
<text text-anchor="middle" x="656" y="-13" font-family="Helvetica,sans-Serif" font-size="10.00">array</text>
</a>
</g>
</g>
<!-- Node9&#45;&gt;Node12 -->
<g id="edge12" class="edge">
<title>Node9&#45;&gt;Node12</title>
<path fill="none" stroke="midnightblue" d="M561.76,-67.48C579.98,-57.62 610.17,-41.29 631.47,-29.77"/>
<polygon fill="midnightblue" stroke="midnightblue" points="633.14,-32.85 640.27,-25.01 629.81,-26.69 633.14,-32.85"/>
</g>
<!-- Node14 -->
<g id="node14" class="node">
<title>Node14</title>
<g id="a_node14"><a xlink:title=" ">
<polygon fill="white" stroke="#bfbfbf" points="695.5,-6 695.5,-25 808.5,-25 808.5,-6 695.5,-6"/>
<text text-anchor="middle" x="752" y="-13" font-family="Helvetica,sans-Serif" font-size="10.00">flutter/fml/logging.h</text>
</a>
</g>
</g>
<!-- Node13&#45;&gt;Node14 -->
<g id="edge14" class="edge">
<title>Node13&#45;&gt;Node14</title>
<path fill="none" stroke="midnightblue" d="M701.45,-67.48C710.57,-58.28 725.27,-43.46 736.48,-32.16"/>
<polygon fill="midnightblue" stroke="midnightblue" points="739.01,-34.57 743.56,-25.01 734.04,-29.65 739.01,-34.57"/>
</g>
</g>
</svg>
