<?xml version="1.0" encoding="UTF-8" standalone="no"?>
<!DOCTYPE svg PUBLIC "-//W3C//DTD SVG 1.1//EN"
 "http://www.w3.org/Graphics/SVG/1.1/DTD/svg11.dtd">
<!-- Generated by graphviz version 5.0.0 (0)
 -->
<!-- Title: /mnt/raid10/stargate/ivi&#45;homescreen/shell/configuration/configuration.cc Pages: 1 -->
<svg width="1223pt" height="236pt"
 viewBox="0.00 0.00 1223.00 236.00" xmlns="http://www.w3.org/2000/svg" xmlns:xlink="http://www.w3.org/1999/xlink">
<g id="graph0" class="graph" transform="scale(1 1) rotate(0) translate(4 232)">
<title>/mnt/raid10/stargate/ivi&#45;homescreen/shell/configuration/configuration.cc</title>
<!-- Node1 -->
<g id="node1" class="node">
<title>Node1</title>
<g id="a_node1"><a xlink:title=" ">
<polygon fill="#999999" stroke="#666666" points="449,-228 302,-228 302,-187 449,-187 449,-228"/>
<text text-anchor="start" x="310" y="-216" font-family="Helvetica,sans-Serif" font-size="10.00">/mnt/raid10/stargate</text>
<text text-anchor="start" x="310" y="-205" font-family="Helvetica,sans-Serif" font-size="10.00">/ivi&#45;homescreen/shell</text>
<text text-anchor="middle" x="375.5" y="-194" font-family="Helvetica,sans-Serif" font-size="10.00">/configuration/configuration.cc</text>
</a>
</g>
</g>
<!-- Node2 -->
<g id="node2" class="node">
<title>Node2</title>
<g id="a_node2"><a xlink:href="configuration_8h.html" target="_top" xlink:title=" ">
<polygon fill="white" stroke="#666666" points="212.5,-151 132.5,-151 132.5,-132 212.5,-132 212.5,-151"/>
<text text-anchor="middle" x="172.5" y="-139" font-family="Helvetica,sans-Serif" font-size="10.00">configuration.h</text>
</a>
</g>
</g>
<!-- Node1&#45;&gt;Node2 -->
<g id="edge1" class="edge">
<title>Node1&#45;&gt;Node2</title>
<path fill="none" stroke="#63b8ff" d="M313.49,-186.95C279.38,-176.2 238.23,-163.22 209.21,-154.07"/>
<polygon fill="#63b8ff" stroke="#63b8ff" points="210.08,-150.68 199.49,-151.01 207.97,-157.35 210.08,-150.68"/>
</g>
<!-- Node6 -->
<g id="node6" class="node">
<title>Node6</title>
<g id="a_node6"><a xlink:title=" ">
<polygon fill="#e0e0e0" stroke="#999999" points="351.5,-90.5 241.5,-90.5 241.5,-71.5 351.5,-71.5 351.5,-90.5"/>
<text text-anchor="middle" x="296.5" y="-78.5" font-family="Helvetica,sans-Serif" font-size="10.00">rapidjson/document.h</text>
</a>
</g>
</g>
<!-- Node1&#45;&gt;Node6 -->
<g id="edge8" class="edge">
<title>Node1&#45;&gt;Node6</title>
<path fill="none" stroke="#63b8ff" d="M348.36,-186.97C336.72,-177.34 323.91,-164.82 315.5,-151 306.12,-135.59 301.27,-115.46 298.83,-100.93"/>
<polygon fill="#63b8ff" stroke="#63b8ff" points="302.24,-100.06 297.34,-90.67 295.31,-101.07 302.24,-100.06"/>
</g>
<!-- Node7 -->
<g id="node7" class="node">
<title>Node7</title>
<g id="a_node7"><a xlink:title=" ">
<polygon fill="#e0e0e0" stroke="#999999" points="374.5,-151 324.5,-151 324.5,-132 374.5,-132 374.5,-151"/>
<text text-anchor="middle" x="349.5" y="-139" font-family="Helvetica,sans-Serif" font-size="10.00">fstream</text>
</a>
</g>
</g>
<!-- Node1&#45;&gt;Node7 -->
<g id="edge6" class="edge">
<title>Node1&#45;&gt;Node7</title>
<path fill="none" stroke="#63b8ff" d="M367.56,-186.95C364.16,-178.58 360.21,-168.85 356.87,-160.64"/>
<polygon fill="#63b8ff" stroke="#63b8ff" points="360.07,-159.21 353.06,-151.26 353.58,-161.84 360.07,-159.21"/>
</g>
<!-- Node8 -->
<g id="node8" class="node">
<title>Node8</title>
<g id="a_node8"><a xlink:title=" ">
<polygon fill="#e0e0e0" stroke="#999999" points="421.5,-90.5 369.5,-90.5 369.5,-71.5 421.5,-71.5 421.5,-90.5"/>
<text text-anchor="middle" x="395.5" y="-78.5" font-family="Helvetica,sans-Serif" font-size="10.00">sstream</text>
</a>
</g>
</g>
<!-- Node1&#45;&gt;Node8 -->
<g id="edge7" class="edge">
<title>Node1&#45;&gt;Node8</title>
<path fill="none" stroke="#63b8ff" d="M378.67,-186.77C382.47,-163.09 388.81,-123.66 392.52,-100.52"/>
<polygon fill="#63b8ff" stroke="#63b8ff" points="395.99,-101.04 394.12,-90.61 389.07,-99.93 395.99,-101.04"/>
</g>
<!-- Node9 -->
<g id="node9" class="node">
<title>Node9</title>
<g id="a_node9"><a xlink:href="constants_8h.html" target="_top" xlink:title=" ">
<polygon fill="white" stroke="#666666" points="507.5,-90.5 439.5,-90.5 439.5,-71.5 507.5,-71.5 507.5,-90.5"/>
<text text-anchor="middle" x="473.5" y="-78.5" font-family="Helvetica,sans-Serif" font-size="10.00">constants.h</text>
</a>
</g>
</g>
<!-- Node1&#45;&gt;Node9 -->
<g id="edge9" class="edge">
<title>Node1&#45;&gt;Node9</title>
<path fill="none" stroke="#63b8ff" d="M391.03,-186.77C410.18,-162.44 442.41,-121.5 460.38,-98.67"/>
<polygon fill="#63b8ff" stroke="#63b8ff" points="463.28,-100.64 466.72,-90.61 457.78,-96.31 463.28,-100.64"/>
</g>
<!-- Node13 -->
<g id="node13" class="node">
<title>Node13</title>
<g id="a_node13"><a xlink:href="logging_8h.html" target="_top" xlink:title=" ">
<polygon fill="white" stroke="#666666" points="714.5,-151 658.5,-151 658.5,-132 714.5,-132 714.5,-151"/>
<text text-anchor="middle" x="686.5" y="-139" font-family="Helvetica,sans-Serif" font-size="10.00">logging.h</text>
</a>
</g>
</g>
<!-- Node1&#45;&gt;Node13 -->
<g id="edge13" class="edge">
<title>Node1&#45;&gt;Node13</title>
<path fill="none" stroke="#63b8ff" d="M449.2,-191.33C511.75,-178.46 598.99,-160.51 648.4,-150.34"/>
<polygon fill="#63b8ff" stroke="#63b8ff" points="649.25,-153.74 658.34,-148.29 647.84,-146.88 649.25,-153.74"/>
</g>
<!-- Node3 -->
<g id="node3" class="node">
<title>Node3</title>
<g id="a_node3"><a xlink:title=" ">
<polygon fill="#e0e0e0" stroke="#999999" points="41,-90.5 0,-90.5 0,-71.5 41,-71.5 41,-90.5"/>
<text text-anchor="middle" x="20.5" y="-78.5" font-family="Helvetica,sans-Serif" font-size="10.00">string</text>
</a>
</g>
</g>
<!-- Node2&#45;&gt;Node3 -->
<g id="edge2" class="edge">
<title>Node2&#45;&gt;Node3</title>
<path fill="none" stroke="#63b8ff" d="M147.02,-131.93C122.16,-123.4 83.4,-109.65 50.5,-96 49.49,-95.58 48.47,-95.15 47.44,-94.7"/>
<polygon fill="#63b8ff" stroke="#63b8ff" points="48.71,-91.44 38.15,-90.55 45.85,-97.83 48.71,-91.44"/>
</g>
<!-- Node4 -->
<g id="node4" class="node">
<title>Node4</title>
<g id="a_node4"><a xlink:title=" ">
<polygon fill="#e0e0e0" stroke="#999999" points="103.5,-90.5 59.5,-90.5 59.5,-71.5 103.5,-71.5 103.5,-90.5"/>
<text text-anchor="middle" x="81.5" y="-78.5" font-family="Helvetica,sans-Serif" font-size="10.00">vector</text>
</a>
</g>
</g>
<!-- Node2&#45;&gt;Node4 -->
<g id="edge3" class="edge">
<title>Node2&#45;&gt;Node4</title>
<path fill="none" stroke="#63b8ff" d="M159.07,-131.87C144.42,-122.45 120.74,-107.23 103.4,-96.08"/>
<polygon fill="#63b8ff" stroke="#63b8ff" points="105.29,-93.13 94.98,-90.67 101.5,-99.02 105.29,-93.13"/>
</g>
<!-- Node5 -->
<g id="node5" class="node">
<title>Node5</title>
<g id="a_node5"><a xlink:title=" ">
<polygon fill="#e0e0e0" stroke="#999999" points="223,-90.5 122,-90.5 122,-71.5 223,-71.5 223,-90.5"/>
<text text-anchor="middle" x="172.5" y="-78.5" font-family="Helvetica,sans-Serif" font-size="10.00">flutter/fml/macros.h</text>
</a>
</g>
</g>
<!-- Node2&#45;&gt;Node5 -->
<g id="edge4" class="edge">
<title>Node2&#45;&gt;Node5</title>
<path fill="none" stroke="#63b8ff" d="M172.5,-131.87C172.5,-123.75 172.5,-111.31 172.5,-100.89"/>
<polygon fill="#63b8ff" stroke="#63b8ff" points="176,-100.67 172.5,-90.67 169,-100.67 176,-100.67"/>
</g>
<!-- Node2&#45;&gt;Node6 -->
<g id="edge5" class="edge">
<title>Node2&#45;&gt;Node6</title>
<path fill="none" stroke="#63b8ff" d="M190.53,-131.99C211.19,-122.25 245.28,-106.16 269.2,-94.88"/>
<polygon fill="#63b8ff" stroke="#63b8ff" points="270.9,-97.95 278.45,-90.52 267.91,-91.62 270.9,-97.95"/>
</g>
<!-- Node10 -->
<g id="node10" class="node">
<title>Node10</title>
<g id="a_node10"><a xlink:title=" ">
<polygon fill="#e0e0e0" stroke="#999999" points="394.5,-24.5 334.5,-24.5 334.5,-5.5 394.5,-5.5 394.5,-24.5"/>
<text text-anchor="middle" x="364.5" y="-12.5" font-family="Helvetica,sans-Serif" font-size="10.00">EGL/egl.h</text>
</a>
</g>
</g>
<!-- Node9&#45;&gt;Node10 -->
<g id="edge10" class="edge">
<title>Node9&#45;&gt;Node10</title>
<path fill="none" stroke="#63b8ff" d="M458.8,-71.37C440.68,-60.73 409.65,-42.51 388.16,-29.89"/>
<polygon fill="#63b8ff" stroke="#63b8ff" points="389.71,-26.74 379.32,-24.7 386.17,-32.78 389.71,-26.74"/>
</g>
<!-- Node11 -->
<g id="node11" class="node">
<title>Node11</title>
<g id="a_node11"><a xlink:title=" ">
<polygon fill="#e0e0e0" stroke="#999999" points="534,-30 413,-30 413,0 534,0 534,-30"/>
<text text-anchor="start" x="421" y="-18" font-family="Helvetica,sans-Serif" font-size="10.00">shell/platform/embedder</text>
<text text-anchor="middle" x="473.5" y="-7" font-family="Helvetica,sans-Serif" font-size="10.00">/embedder.h</text>
</a>
</g>
</g>
<!-- Node9&#45;&gt;Node11 -->
<g id="edge11" class="edge">
<title>Node9&#45;&gt;Node11</title>
<path fill="none" stroke="#63b8ff" d="M473.5,-71.37C473.5,-63.49 473.5,-51.45 473.5,-40.6"/>
<polygon fill="#63b8ff" stroke="#63b8ff" points="477,-40.36 473.5,-30.36 470,-40.36 477,-40.36"/>
</g>
<!-- Node12 -->
<g id="node12" class="node">
<title>Node12</title>
<g id="a_node12"><a xlink:title=" ">
<polygon fill="#e0e0e0" stroke="#999999" points="590.5,-24.5 552.5,-24.5 552.5,-5.5 590.5,-5.5 590.5,-24.5"/>
<text text-anchor="middle" x="571.5" y="-12.5" font-family="Helvetica,sans-Serif" font-size="10.00">array</text>
</a>
</g>
</g>
<!-- Node9&#45;&gt;Node12 -->
<g id="edge12" class="edge">
<title>Node9&#45;&gt;Node12</title>
<path fill="none" stroke="#63b8ff" d="M486.72,-71.37C502.86,-60.82 530.41,-42.84 549.71,-30.23"/>
<polygon fill="#63b8ff" stroke="#63b8ff" points="551.72,-33.1 558.18,-24.7 547.89,-27.24 551.72,-33.1"/>
</g>
<!-- Node13&#45;&gt;Node8 -->
<g id="edge14" class="edge">
<title>Node13&#45;&gt;Node8</title>
<path fill="none" stroke="#63b8ff" d="M658.42,-137.56C610.85,-132.15 511.66,-119.01 430.5,-96 428.56,-95.45 426.59,-94.83 424.61,-94.17"/>
<polygon fill="#63b8ff" stroke="#63b8ff" points="425.47,-90.75 414.87,-90.58 423.05,-97.32 425.47,-90.75"/>
</g>
<!-- Node13&#45;&gt;Node9 -->
<g id="edge21" class="edge">
<title>Node13&#45;&gt;Node9</title>
<path fill="none" stroke="#63b8ff" d="M658.38,-133.68C624.56,-125.35 566.12,-110.56 516.5,-96 513.91,-95.24 511.23,-94.43 508.55,-93.6"/>
<polygon fill="#63b8ff" stroke="#63b8ff" points="509.48,-90.22 498.89,-90.54 507.37,-96.9 509.48,-90.22"/>
</g>
<!-- Node14 -->
<g id="node14" class="node">
<title>Node14</title>
<g id="a_node14"><a xlink:title=" ">
<polygon fill="#e0e0e0" stroke="#999999" points="613.5,-90.5 525.5,-90.5 525.5,-71.5 613.5,-71.5 613.5,-90.5"/>
<text text-anchor="middle" x="569.5" y="-78.5" font-family="Helvetica,sans-Serif" font-size="10.00">spdlog/cfg/env.h</text>
</a>
</g>
</g>
<!-- Node13&#45;&gt;Node14 -->
<g id="edge15" class="edge">
<title>Node13&#45;&gt;Node14</title>
<path fill="none" stroke="#63b8ff" d="M669.49,-131.99C650.08,-122.29 618.11,-106.31 595.56,-95.03"/>
<polygon fill="#63b8ff" stroke="#63b8ff" points="597.04,-91.86 586.53,-90.52 593.91,-98.12 597.04,-91.86"/>
</g>
<!-- Node15 -->
<g id="node15" class="node">
<title>Node15</title>
<g id="a_node15"><a xlink:title=" ">
<polygon fill="#e0e0e0" stroke="#999999" points="741.5,-96 631.5,-96 631.5,-66 741.5,-66 741.5,-96"/>
<text text-anchor="start" x="639.5" y="-84" font-family="Helvetica,sans-Serif" font-size="10.00">spdlog/sinks/callback</text>
<text text-anchor="middle" x="686.5" y="-73" font-family="Helvetica,sans-Serif" font-size="10.00">_sink.h</text>
</a>
</g>
</g>
<!-- Node13&#45;&gt;Node15 -->
<g id="edge16" class="edge">
<title>Node13&#45;&gt;Node15</title>
<path fill="none" stroke="#63b8ff" d="M686.5,-131.87C686.5,-125.11 686.5,-115.35 686.5,-106.26"/>
<polygon fill="#63b8ff" stroke="#63b8ff" points="690,-106.11 686.5,-96.11 683,-106.11 690,-106.11"/>
</g>
<!-- Node16 -->
<g id="node16" class="node">
<title>Node16</title>
<g id="a_node16"><a xlink:title=" ">
<polygon fill="#e0e0e0" stroke="#999999" points="873.5,-96 759.5,-96 759.5,-66 873.5,-66 873.5,-96"/>
<text text-anchor="start" x="767.5" y="-84" font-family="Helvetica,sans-Serif" font-size="10.00">spdlog/sinks/ringbuffer</text>
<text text-anchor="middle" x="816.5" y="-73" font-family="Helvetica,sans-Serif" font-size="10.00">_sink.h</text>
</a>
</g>
</g>
<!-- Node13&#45;&gt;Node16 -->
<g id="edge17" class="edge">
<title>Node13&#45;&gt;Node16</title>
<path fill="none" stroke="#63b8ff" d="M705.4,-131.99C723.79,-123.72 752.3,-110.89 775.84,-100.3"/>
<polygon fill="#63b8ff" stroke="#63b8ff" points="777.56,-103.36 785.25,-96.06 774.69,-96.98 777.56,-103.36"/>
</g>
<!-- Node17 -->
<g id="node17" class="node">
<title>Node17</title>
<g id="a_node17"><a xlink:title=" ">
<polygon fill="#e0e0e0" stroke="#999999" points="993,-96 892,-96 892,-66 993,-66 993,-96"/>
<text text-anchor="start" x="900" y="-84" font-family="Helvetica,sans-Serif" font-size="10.00">spdlog/sinks/stdout</text>
<text text-anchor="middle" x="942.5" y="-73" font-family="Helvetica,sans-Serif" font-size="10.00">_color_sinks.h</text>
</a>
</g>
</g>
<!-- Node13&#45;&gt;Node17 -->
<g id="edge18" class="edge">
<title>Node13&#45;&gt;Node17</title>
<path fill="none" stroke="#63b8ff" d="M714.75,-134.14C750.99,-125.97 816.07,-111.26 881.66,-96.18"/>
<polygon fill="#63b8ff" stroke="#63b8ff" points="882.81,-99.51 891.77,-93.86 881.24,-92.69 882.81,-99.51"/>
</g>
<!-- Node18 -->
<g id="node18" class="node">
<title>Node18</title>
<g id="a_node18"><a xlink:title=" ">
<polygon fill="#e0e0e0" stroke="#999999" points="1112,-96 1011,-96 1011,-66 1112,-66 1112,-96"/>
<text text-anchor="start" x="1019" y="-84" font-family="Helvetica,sans-Serif" font-size="10.00">spdlog/sinks/stdout</text>
<text text-anchor="middle" x="1061.5" y="-73" font-family="Helvetica,sans-Serif" font-size="10.00">_sinks.h</text>
</a>
</g>
</g>
<!-- Node13&#45;&gt;Node18 -->
<g id="edge19" class="edge">
<title>Node13&#45;&gt;Node18</title>
<path fill="none" stroke="#63b8ff" d="M714.54,-137.44C768.25,-131.39 889.5,-116.81 1000.68,-96.25"/>
<polygon fill="#63b8ff" stroke="#63b8ff" points="1001.53,-99.65 1010.72,-94.37 1000.24,-92.77 1001.53,-99.65"/>
</g>
<!-- Node19 -->
<g id="node19" class="node">
<title>Node19</title>
<g id="a_node19"><a xlink:title=" ">
<polygon fill="#e0e0e0" stroke="#999999" points="1215,-90.5 1130,-90.5 1130,-71.5 1215,-71.5 1215,-90.5"/>
<text text-anchor="middle" x="1172.5" y="-78.5" font-family="Helvetica,sans-Serif" font-size="10.00">spdlog/spdlog.h</text>
</a>
</g>
</g>
<!-- Node13&#45;&gt;Node19 -->
<g id="edge20" class="edge">
<title>Node13&#45;&gt;Node19</title>
<path fill="none" stroke="#63b8ff" d="M714.72,-139.24C784.34,-135.77 969.65,-124.41 1121.5,-96 1125.88,-95.18 1130.44,-94.17 1134.94,-93.06"/>
<polygon fill="#63b8ff" stroke="#63b8ff" points="1135.84,-96.45 1144.64,-90.55 1134.08,-89.67 1135.84,-96.45"/>
</g>
</g>
</svg>
