<?xml version="1.0" encoding="UTF-8" standalone="no"?>
<!DOCTYPE svg PUBLIC "-//W3C//DTD SVG 1.1//EN"
 "http://www.w3.org/Graphics/SVG/1.1/DTD/svg11.dtd">
<!-- Generated by graphviz version 5.0.0 (0)
 -->
<!-- Title: /mnt/raid10/stargate/ivi&#45;homescreen/shell/crash_handler.cc Pages: 1 -->
<svg width="721pt" height="225pt"
 viewBox="0.00 0.00 721.00 225.00" xmlns="http://www.w3.org/2000/svg" xmlns:xlink="http://www.w3.org/1999/xlink">
<g id="graph0" class="graph" transform="scale(1 1) rotate(0) translate(4 221)">
<title>/mnt/raid10/stargate/ivi&#45;homescreen/shell/crash_handler.cc</title>
<!-- Node1 -->
<g id="node1" class="node">
<title>Node1</title>
<g id="a_node1"><a xlink:title=" ">
<polygon fill="#999999" stroke="#666666" points="444.5,-217 335.5,-217 335.5,-176 444.5,-176 444.5,-217"/>
<text text-anchor="start" x="343.5" y="-205" font-family="Helvetica,sans-Serif" font-size="10.00">/mnt/raid10/stargate</text>
<text text-anchor="start" x="343.5" y="-194" font-family="Helvetica,sans-Serif" font-size="10.00">/ivi&#45;homescreen/shell</text>
<text text-anchor="middle" x="390" y="-183" font-family="Helvetica,sans-Serif" font-size="10.00">/crash_handler.cc</text>
</a>
</g>
</g>
<!-- Node2 -->
<g id="node2" class="node">
<title>Node2</title>
<g id="a_node2"><a xlink:href="crash__handler_8h.html" target="_top" xlink:title=" ">
<polygon fill="white" stroke="#666666" points="174,-140 88,-140 88,-121 174,-121 174,-140"/>
<text text-anchor="middle" x="131" y="-128" font-family="Helvetica,sans-Serif" font-size="10.00">crash_handler.h</text>
</a>
</g>
</g>
<!-- Node1&#45;&gt;Node2 -->
<g id="edge1" class="edge">
<title>Node1&#45;&gt;Node2</title>
<path fill="none" stroke="#63b8ff" d="M335.39,-182.01C287.89,-170.27 219.9,-153.47 175.61,-142.52"/>
<polygon fill="#63b8ff" stroke="#63b8ff" points="176.25,-139.08 165.71,-140.08 174.58,-145.87 176.25,-139.08"/>
</g>
<!-- Node4 -->
<g id="node4" class="node">
<title>Node4</title>
<g id="a_node4"><a xlink:title=" ">
<polygon fill="#e0e0e0" stroke="#999999" points="350.5,-140 285.5,-140 285.5,-121 350.5,-121 350.5,-140"/>
<text text-anchor="middle" x="318" y="-128" font-family="Helvetica,sans-Serif" font-size="10.00">fml/paths.h</text>
</a>
</g>
</g>
<!-- Node1&#45;&gt;Node4 -->
<g id="edge3" class="edge">
<title>Node1&#45;&gt;Node4</title>
<path fill="none" stroke="#63b8ff" d="M368.01,-175.95C357.54,-166.65 345.2,-155.68 335.4,-146.96"/>
<polygon fill="#63b8ff" stroke="#63b8ff" points="337.66,-144.29 327.86,-140.26 333,-149.52 337.66,-144.29"/>
</g>
<!-- Node5 -->
<g id="node5" class="node">
<title>Node5</title>
<g id="a_node5"><a xlink:href="utils_8h.html" target="_top" xlink:title=" ">
<polygon fill="white" stroke="#666666" points="411.5,-140 368.5,-140 368.5,-121 411.5,-121 411.5,-140"/>
<text text-anchor="middle" x="390" y="-128" font-family="Helvetica,sans-Serif" font-size="10.00">utils.h</text>
</a>
</g>
</g>
<!-- Node1&#45;&gt;Node5 -->
<g id="edge4" class="edge">
<title>Node1&#45;&gt;Node5</title>
<path fill="none" stroke="#63b8ff" d="M390,-175.95C390,-167.85 390,-158.5 390,-150.47"/>
<polygon fill="#63b8ff" stroke="#63b8ff" points="393.5,-150.26 390,-140.26 386.5,-150.26 393.5,-150.26"/>
</g>
<!-- Node13 -->
<g id="node13" class="node">
<title>Node13</title>
<g id="a_node13"><a xlink:title=" ">
<polygon fill="#e0e0e0" stroke="#999999" points="694,-85 648,-85 648,-66 694,-66 694,-85"/>
<text text-anchor="middle" x="671" y="-73" font-family="Helvetica,sans-Serif" font-size="10.00">cstring</text>
</a>
</g>
</g>
<!-- Node1&#45;&gt;Node13 -->
<g id="edge17" class="edge">
<title>Node1&#45;&gt;Node13</title>
<path fill="none" stroke="#63b8ff" d="M402.85,-175.76C415.16,-158.53 435.31,-134.27 459,-121 527.4,-82.69 557.18,-101.83 637.87,-85.03"/>
<polygon fill="#63b8ff" stroke="#63b8ff" points="638.96,-88.38 647.97,-82.8 637.45,-81.54 638.96,-88.38"/>
</g>
<!-- Node18 -->
<g id="node18" class="node">
<title>Node18</title>
<g id="a_node18"><a xlink:title=" ">
<polygon fill="#e0e0e0" stroke="#999999" points="519.5,-140 468.5,-140 468.5,-121 519.5,-121 519.5,-140"/>
<text text-anchor="middle" x="494" y="-128" font-family="Helvetica,sans-Serif" font-size="10.00">sentry.h</text>
</a>
</g>
</g>
<!-- Node1&#45;&gt;Node18 -->
<g id="edge18" class="edge">
<title>Node1&#45;&gt;Node18</title>
<path fill="none" stroke="#63b8ff" d="M421.77,-175.95C437.74,-166.12 456.74,-154.43 471.24,-145.51"/>
<polygon fill="#63b8ff" stroke="#63b8ff" points="473.36,-148.31 480.04,-140.09 469.69,-142.35 473.36,-148.31"/>
</g>
<!-- Node3 -->
<g id="node3" class="node">
<title>Node3</title>
<g id="a_node3"><a xlink:title=" ">
<polygon fill="#e0e0e0" stroke="#999999" points="74,-85 0,-85 0,-66 74,-66 74,-85"/>
<text text-anchor="middle" x="37" y="-73" font-family="Helvetica,sans-Serif" font-size="10.00">fml/macros.h</text>
</a>
</g>
</g>
<!-- Node2&#45;&gt;Node3 -->
<g id="edge2" class="edge">
<title>Node2&#45;&gt;Node3</title>
<path fill="none" stroke="#63b8ff" d="M115.9,-120.98C101.18,-112.69 78.58,-99.94 61.33,-90.22"/>
<polygon fill="#63b8ff" stroke="#63b8ff" points="62.81,-87.03 52.38,-85.17 59.37,-93.13 62.81,-87.03"/>
</g>
<!-- Node6 -->
<g id="node6" class="node">
<title>Node6</title>
<g id="a_node6"><a xlink:title=" ">
<polygon fill="#e0e0e0" stroke="#999999" points="148,-85 92,-85 92,-66 148,-66 148,-85"/>
<text text-anchor="middle" x="120" y="-73" font-family="Helvetica,sans-Serif" font-size="10.00">algorithm</text>
</a>
</g>
</g>
<!-- Node5&#45;&gt;Node6 -->
<g id="edge5" class="edge">
<title>Node5&#45;&gt;Node6</title>
<path fill="none" stroke="#63b8ff" d="M368.38,-123.3C365.25,-122.48 362.05,-121.69 359,-121 273.09,-101.61 248.05,-103.08 158.05,-85.12"/>
<polygon fill="#63b8ff" stroke="#63b8ff" points="158.75,-81.69 148.25,-83.14 157.36,-88.55 158.75,-81.69"/>
</g>
<!-- Node7 -->
<g id="node7" class="node">
<title>Node7</title>
<g id="a_node7"><a xlink:title=" ">
<polygon fill="#e0e0e0" stroke="#999999" points="212,-85 166,-85 166,-66 212,-66 212,-85"/>
<text text-anchor="middle" x="189" y="-73" font-family="Helvetica,sans-Serif" font-size="10.00">cctype</text>
</a>
</g>
</g>
<!-- Node5&#45;&gt;Node7 -->
<g id="edge6" class="edge">
<title>Node5&#45;&gt;Node7</title>
<path fill="none" stroke="#63b8ff" d="M368.33,-123.52C365.2,-122.67 362.02,-121.81 359,-121 300.76,-105.42 283.92,-101.51 221.98,-85.25"/>
<polygon fill="#63b8ff" stroke="#63b8ff" points="222.63,-81.8 212.07,-82.64 220.85,-88.57 222.63,-81.8"/>
</g>
<!-- Node8 -->
<g id="node8" class="node">
<title>Node8</title>
<g id="a_node8"><a xlink:title=" ">
<polygon fill="#e0e0e0" stroke="#999999" points="289.5,-85 230.5,-85 230.5,-66 289.5,-66 289.5,-85"/>
<text text-anchor="middle" x="260" y="-73" font-family="Helvetica,sans-Serif" font-size="10.00">functional</text>
</a>
</g>
</g>
<!-- Node5&#45;&gt;Node8 -->
<g id="edge7" class="edge">
<title>Node5&#45;&gt;Node8</title>
<path fill="none" stroke="#63b8ff" d="M369.11,-120.98C347.92,-112.34 314.87,-98.87 290.7,-89.02"/>
<polygon fill="#63b8ff" stroke="#63b8ff" points="291.85,-85.7 281.27,-85.17 289.21,-92.19 291.85,-85.7"/>
</g>
<!-- Node9 -->
<g id="node9" class="node">
<title>Node9</title>
<g id="a_node9"><a xlink:title=" ">
<polygon fill="#e0e0e0" stroke="#999999" points="350,-85 308,-85 308,-66 350,-66 350,-85"/>
<text text-anchor="middle" x="329" y="-73" font-family="Helvetica,sans-Serif" font-size="10.00">locale</text>
</a>
</g>
</g>
<!-- Node5&#45;&gt;Node9 -->
<g id="edge8" class="edge">
<title>Node5&#45;&gt;Node9</title>
<path fill="none" stroke="#63b8ff" d="M380.2,-120.98C371.18,-113.15 357.59,-101.34 346.68,-91.86"/>
<polygon fill="#63b8ff" stroke="#63b8ff" points="348.82,-89.09 338.98,-85.17 344.23,-94.37 348.82,-89.09"/>
</g>
<!-- Node10 -->
<g id="node10" class="node">
<title>Node10</title>
<g id="a_node10"><a xlink:title=" ">
<polygon fill="#e0e0e0" stroke="#999999" points="411.5,-85 368.5,-85 368.5,-66 411.5,-66 411.5,-85"/>
<text text-anchor="middle" x="390" y="-73" font-family="Helvetica,sans-Serif" font-size="10.00">pwd.h</text>
</a>
</g>
</g>
<!-- Node5&#45;&gt;Node10 -->
<g id="edge9" class="edge">
<title>Node5&#45;&gt;Node10</title>
<path fill="none" stroke="#63b8ff" d="M390,-120.75C390,-113.8 390,-103.85 390,-95.13"/>
<polygon fill="#63b8ff" stroke="#63b8ff" points="393.5,-95.09 390,-85.09 386.5,-95.09 393.5,-95.09"/>
</g>
<!-- Node11 -->
<g id="node11" class="node">
<title>Node11</title>
<g id="a_node11"><a xlink:title=" ">
<polygon fill="#e0e0e0" stroke="#999999" points="480.5,-85 429.5,-85 429.5,-66 480.5,-66 480.5,-85"/>
<text text-anchor="middle" x="455" y="-73" font-family="Helvetica,sans-Serif" font-size="10.00">unistd.h</text>
</a>
</g>
</g>
<!-- Node5&#45;&gt;Node11 -->
<g id="edge10" class="edge">
<title>Node5&#45;&gt;Node11</title>
<path fill="none" stroke="#63b8ff" d="M400.44,-120.98C410.15,-113.07 424.82,-101.11 436.5,-91.58"/>
<polygon fill="#63b8ff" stroke="#63b8ff" points="438.83,-94.2 444.37,-85.17 434.4,-88.78 438.83,-94.2"/>
</g>
<!-- Node12 -->
<g id="node12" class="node">
<title>Node12</title>
<g id="a_node12"><a xlink:title=" ">
<polygon fill="#e0e0e0" stroke="#999999" points="543.5,-85 498.5,-85 498.5,-66 543.5,-66 543.5,-85"/>
<text text-anchor="middle" x="521" y="-73" font-family="Helvetica,sans-Serif" font-size="10.00">cstdlib</text>
</a>
</g>
</g>
<!-- Node5&#45;&gt;Node12 -->
<g id="edge11" class="edge">
<title>Node5&#45;&gt;Node12</title>
<path fill="none" stroke="#63b8ff" d="M411.05,-120.98C432.41,-112.34 465.7,-98.87 490.06,-89.02"/>
<polygon fill="#63b8ff" stroke="#63b8ff" points="491.61,-92.17 499.57,-85.17 488.99,-85.68 491.61,-92.17"/>
</g>
<!-- Node5&#45;&gt;Node13 -->
<g id="edge12" class="edge">
<title>Node5&#45;&gt;Node13</title>
<path fill="none" stroke="#63b8ff" d="M411.65,-124.15C416.37,-123.05 421.34,-121.94 426,-121 516.98,-102.59 543.43,-105.15 638,-85.04"/>
<polygon fill="#63b8ff" stroke="#63b8ff" points="638.95,-88.41 647.99,-82.88 637.48,-81.57 638.95,-88.41"/>
</g>
<!-- Node14 -->
<g id="node14" class="node">
<title>Node14</title>
<g id="a_node14"><a xlink:href="constants_8h.html" target="_top" xlink:title=" ">
<polygon fill="white" stroke="#666666" points="630,-85 562,-85 562,-66 630,-66 630,-85"/>
<text text-anchor="middle" x="596" y="-73" font-family="Helvetica,sans-Serif" font-size="10.00">constants.h</text>
</a>
</g>
</g>
<!-- Node5&#45;&gt;Node14 -->
<g id="edge13" class="edge">
<title>Node5&#45;&gt;Node14</title>
<path fill="none" stroke="#63b8ff" d="M411.66,-123.93C445.03,-115.34 509.69,-98.7 552.87,-87.6"/>
<polygon fill="#63b8ff" stroke="#63b8ff" points="553.99,-90.92 562.81,-85.04 552.25,-84.14 553.99,-90.92"/>
</g>
<!-- Node15 -->
<g id="node15" class="node">
<title>Node15</title>
<g id="a_node15"><a xlink:title=" ">
<polygon fill="#e0e0e0" stroke="#999999" points="517,-24.5 457,-24.5 457,-5.5 517,-5.5 517,-24.5"/>
<text text-anchor="middle" x="487" y="-12.5" font-family="Helvetica,sans-Serif" font-size="10.00">EGL/egl.h</text>
</a>
</g>
</g>
<!-- Node14&#45;&gt;Node15 -->
<g id="edge14" class="edge">
<title>Node14&#45;&gt;Node15</title>
<path fill="none" stroke="#63b8ff" d="M579.92,-65.87C562.05,-56.28 532.96,-40.67 512.09,-29.47"/>
<polygon fill="#63b8ff" stroke="#63b8ff" points="513.62,-26.31 503.15,-24.67 510.31,-32.48 513.62,-26.31"/>
</g>
<!-- Node16 -->
<g id="node16" class="node">
<title>Node16</title>
<g id="a_node16"><a xlink:title=" ">
<polygon fill="#e0e0e0" stroke="#999999" points="656.5,-30 535.5,-30 535.5,0 656.5,0 656.5,-30"/>
<text text-anchor="start" x="543.5" y="-18" font-family="Helvetica,sans-Serif" font-size="10.00">shell/platform/embedder</text>
<text text-anchor="middle" x="596" y="-7" font-family="Helvetica,sans-Serif" font-size="10.00">/embedder.h</text>
</a>
</g>
</g>
<!-- Node14&#45;&gt;Node16 -->
<g id="edge15" class="edge">
<title>Node14&#45;&gt;Node16</title>
<path fill="none" stroke="#63b8ff" d="M596,-65.87C596,-59.11 596,-49.35 596,-40.26"/>
<polygon fill="#63b8ff" stroke="#63b8ff" points="599.5,-40.11 596,-30.11 592.5,-40.11 599.5,-40.11"/>
</g>
<!-- Node17 -->
<g id="node17" class="node">
<title>Node17</title>
<g id="a_node17"><a xlink:title=" ">
<polygon fill="#e0e0e0" stroke="#999999" points="713,-24.5 675,-24.5 675,-5.5 713,-5.5 713,-24.5"/>
<text text-anchor="middle" x="694" y="-12.5" font-family="Helvetica,sans-Serif" font-size="10.00">array</text>
</a>
</g>
</g>
<!-- Node14&#45;&gt;Node17 -->
<g id="edge16" class="edge">
<title>Node14&#45;&gt;Node17</title>
<path fill="none" stroke="#63b8ff" d="M610.46,-65.87C626.31,-56.41 651.97,-41.09 670.68,-29.92"/>
<polygon fill="#63b8ff" stroke="#63b8ff" points="672.69,-32.8 679.48,-24.67 669.1,-26.79 672.69,-32.8"/>
</g>
</g>
</svg>
