<?xml version="1.0" encoding="UTF-8" standalone="no"?>
<!DOCTYPE svg PUBLIC "-//W3C//DTD SVG 1.1//EN"
 "http://www.w3.org/Graphics/SVG/1.1/DTD/svg11.dtd">
<!-- Generated by graphviz version 5.0.0 (0)
 -->
<!-- Title: /mnt/raid10/stargate/ivi&#45;homescreen/shell/static_plugins/desktop_window/desktop_window.cc Pages: 1 -->
<svg width="3674pt" height="434pt"
 viewBox="0.00 0.00 3673.50 434.00" xmlns="http://www.w3.org/2000/svg" xmlns:xlink="http://www.w3.org/1999/xlink">
<g id="graph0" class="graph" transform="scale(1 1) rotate(0) translate(4 430)">
<title>/mnt/raid10/stargate/ivi&#45;homescreen/shell/static_plugins/desktop_window/desktop_window.cc</title>
<!-- Node1 -->
<g id="node1" class="node">
<title>Node1</title>
<g id="a_node1"><a xlink:title=" ">
<polygon fill="#999999" stroke="#666666" points="3181.5,-426 3038.5,-426 3038.5,-374 3181.5,-374 3181.5,-426"/>
<text text-anchor="start" x="3046.5" y="-414" font-family="Helvetica,sans-Serif" font-size="10.00">/mnt/raid10/stargate</text>
<text text-anchor="start" x="3046.5" y="-403" font-family="Helvetica,sans-Serif" font-size="10.00">/ivi&#45;homescreen/shell</text>
<text text-anchor="start" x="3046.5" y="-392" font-family="Helvetica,sans-Serif" font-size="10.00">/static_plugins/desktop</text>
<text text-anchor="middle" x="3110" y="-381" font-family="Helvetica,sans-Serif" font-size="10.00">_window/desktop_window.cc</text>
</a>
</g>
</g>
<!-- Node2 -->
<g id="node2" class="node">
<title>Node2</title>
<g id="a_node2"><a xlink:href="desktop__window_8h.html" target="_top" xlink:title=" ">
<polygon fill="white" stroke="#666666" points="3566.5,-85 3469.5,-85 3469.5,-66 3566.5,-66 3566.5,-85"/>
<text text-anchor="middle" x="3518" y="-73" font-family="Helvetica,sans-Serif" font-size="10.00">desktop_window.h</text>
</a>
</g>
</g>
<!-- Node1&#45;&gt;Node2 -->
<g id="edge1" class="edge">
<title>Node1&#45;&gt;Node2</title>
<path fill="none" stroke="#63b8ff" d="M3181.54,-390.18C3298.55,-373.74 3518,-333.57 3518,-263.5 3518,-263.5 3518,-263.5 3518,-201 3518,-163.49 3518,-119.63 3518,-95.26"/>
<polygon fill="#63b8ff" stroke="#63b8ff" points="3521.5,-95.25 3518,-85.25 3514.5,-95.25 3521.5,-95.25"/>
</g>
<!-- Node4 -->
<g id="node4" class="node">
<title>Node4</title>
<g id="a_node4"><a xlink:title=" ">
<polygon fill="#e0e0e0" stroke="#999999" points="3665.5,-338 3546.5,-338 3546.5,-308 3665.5,-308 3665.5,-338"/>
<text text-anchor="start" x="3554.5" y="-326" font-family="Helvetica,sans-Serif" font-size="10.00">flutter/standard_method</text>
<text text-anchor="middle" x="3606" y="-315" font-family="Helvetica,sans-Serif" font-size="10.00">_codec.h</text>
</a>
</g>
</g>
<!-- Node1&#45;&gt;Node4 -->
<g id="edge3" class="edge">
<title>Node1&#45;&gt;Node4</title>
<path fill="none" stroke="#63b8ff" d="M3181.83,-389.58C3265.93,-378.34 3409.33,-358.46 3532,-338 3533.45,-337.76 3534.92,-337.51 3536.39,-337.26"/>
<polygon fill="#63b8ff" stroke="#63b8ff" points="3537.02,-340.7 3546.27,-335.53 3535.81,-333.81 3537.02,-340.7"/>
</g>
<!-- Node5 -->
<g id="node5" class="node">
<title>Node5</title>
<g id="a_node5"><a xlink:href="engine_8h.html" target="_top" xlink:title=" ">
<polygon fill="white" stroke="#666666" points="2729.5,-332.5 2676.5,-332.5 2676.5,-313.5 2729.5,-313.5 2729.5,-332.5"/>
<text text-anchor="middle" x="2703" y="-320.5" font-family="Helvetica,sans-Serif" font-size="10.00">engine.h</text>
</a>
</g>
</g>
<!-- Node1&#45;&gt;Node5 -->
<g id="edge4" class="edge">
<title>Node1&#45;&gt;Node5</title>
<path fill="none" stroke="#63b8ff" d="M3038.17,-385.76C2950.88,-369.68 2806.93,-343.15 2739.71,-330.76"/>
<polygon fill="#63b8ff" stroke="#63b8ff" points="2740.07,-327.27 2729.6,-328.9 2738.8,-334.16 2740.07,-327.27"/>
</g>
<!-- Node20 -->
<g id="node20" class="node">
<title>Node20</title>
<g id="a_node20"><a xlink:href="logging_8h.html" target="_top" xlink:title=" ">
<polygon fill="white" stroke="#666666" points="620,-272 564,-272 564,-253 620,-253 620,-272"/>
<text text-anchor="middle" x="592" y="-260" font-family="Helvetica,sans-Serif" font-size="10.00">logging.h</text>
</a>
</g>
</g>
<!-- Node1&#45;&gt;Node20 -->
<g id="edge83" class="edge">
<title>Node1&#45;&gt;Node20</title>
<path fill="none" stroke="#63b8ff" d="M3038.36,-395.15C2661.14,-374.85 911.71,-280.7 630.26,-265.56"/>
<polygon fill="#63b8ff" stroke="#63b8ff" points="630.31,-262.06 620.14,-265.01 629.94,-269.05 630.31,-262.06"/>
</g>
<!-- Node3 -->
<g id="node3" class="node">
<title>Node3</title>
<g id="a_node3"><a xlink:title=" ">
<polygon fill="#e0e0e0" stroke="#999999" points="2599.5,-30 2478.5,-30 2478.5,0 2599.5,0 2599.5,-30"/>
<text text-anchor="start" x="2486.5" y="-18" font-family="Helvetica,sans-Serif" font-size="10.00">shell/platform/embedder</text>
<text text-anchor="middle" x="2539" y="-7" font-family="Helvetica,sans-Serif" font-size="10.00">/embedder.h</text>
</a>
</g>
</g>
<!-- Node2&#45;&gt;Node3 -->
<g id="edge2" class="edge">
<title>Node2&#45;&gt;Node3</title>
<path fill="none" stroke="#63b8ff" d="M3469.21,-67.53C3464.41,-66.96 3459.61,-66.44 3455,-66 3140.75,-36.27 2764.04,-22.61 2609.95,-17.95"/>
<polygon fill="#63b8ff" stroke="#63b8ff" points="2609.78,-14.44 2599.68,-17.64 2609.57,-21.44 2609.78,-14.44"/>
</g>
<!-- Node5&#45;&gt;Node3 -->
<g id="edge9" class="edge">
<title>Node5&#45;&gt;Node3</title>
<path fill="none" stroke="#63b8ff" d="M2729.53,-320.68C2821.05,-315.92 3122.96,-298.55 3216,-272 3339,-236.9 3546.17,-216.43 3461,-121 3404.46,-57.65 2815.78,-27.43 2609.74,-18.74"/>
<polygon fill="#63b8ff" stroke="#63b8ff" points="2609.78,-15.24 2599.64,-18.32 2609.49,-22.23 2609.78,-15.24"/>
</g>
<!-- Node6 -->
<g id="node6" class="node">
<title>Node6</title>
<g id="a_node6"><a xlink:title=" ">
<polygon fill="#e0e0e0" stroke="#999999" points="2598.5,-272 2539.5,-272 2539.5,-253 2598.5,-253 2598.5,-272"/>
<text text-anchor="middle" x="2569" y="-260" font-family="Helvetica,sans-Serif" font-size="10.00">functional</text>
</a>
</g>
</g>
<!-- Node5&#45;&gt;Node6 -->
<g id="edge5" class="edge">
<title>Node5&#45;&gt;Node6</title>
<path fill="none" stroke="#63b8ff" d="M2683.52,-313.49C2660.99,-303.66 2623.69,-287.38 2597.81,-276.08"/>
<polygon fill="#63b8ff" stroke="#63b8ff" points="2599.07,-272.81 2588.51,-272.02 2596.27,-279.23 2599.07,-272.81"/>
</g>
<!-- Node7 -->
<g id="node7" class="node">
<title>Node7</title>
<g id="a_node7"><a xlink:title=" ">
<polygon fill="#e0e0e0" stroke="#999999" points="3151,-24.5 3091,-24.5 3091,-5.5 3151,-5.5 3151,-24.5"/>
<text text-anchor="middle" x="3121" y="-12.5" font-family="Helvetica,sans-Serif" font-size="10.00">EGL/egl.h</text>
</a>
</g>
</g>
<!-- Node5&#45;&gt;Node7 -->
<g id="edge6" class="edge">
<title>Node5&#45;&gt;Node7</title>
<path fill="none" stroke="#63b8ff" d="M2729.7,-321.32C2878.11,-317.2 3595,-292.64 3595,-203 3595,-203 3595,-203 3595,-135 3595,-103.19 3600.21,-86.63 3576,-66 3544.72,-39.34 3266.81,-23.11 3161.35,-17.87"/>
<polygon fill="#63b8ff" stroke="#63b8ff" points="3161.27,-14.36 3151.11,-17.37 3160.93,-21.35 3161.27,-14.36"/>
</g>
<!-- Node8 -->
<g id="node8" class="node">
<title>Node8</title>
<g id="a_node8"><a xlink:title=" ">
<polygon fill="#e0e0e0" stroke="#999999" points="2859,-272 2787,-272 2787,-253 2859,-253 2859,-272"/>
<text text-anchor="middle" x="2823" y="-260" font-family="Helvetica,sans-Serif" font-size="10.00">GLES2/gl2.h</text>
</a>
</g>
</g>
<!-- Node5&#45;&gt;Node8 -->
<g id="edge7" class="edge">
<title>Node5&#45;&gt;Node8</title>
<path fill="none" stroke="#63b8ff" d="M2720.45,-313.49C2740.36,-303.79 2773.14,-287.81 2796.27,-276.53"/>
<polygon fill="#63b8ff" stroke="#63b8ff" points="2798.07,-279.54 2805.53,-272.02 2795.01,-273.25 2798.07,-279.54"/>
</g>
<!-- Node9 -->
<g id="node9" class="node">
<title>Node9</title>
<g id="a_node9"><a xlink:title=" ">
<polygon fill="#e0e0e0" stroke="#999999" points="3002.5,-272 2877.5,-272 2877.5,-253 3002.5,-253 3002.5,-272"/>
<text text-anchor="middle" x="2940" y="-260" font-family="Helvetica,sans-Serif" font-size="10.00">flutter/encodable_value.h</text>
</a>
</g>
</g>
<!-- Node5&#45;&gt;Node9 -->
<g id="edge8" class="edge">
<title>Node5&#45;&gt;Node9</title>
<path fill="none" stroke="#63b8ff" d="M2729.73,-315.4C2769.96,-305.47 2846.57,-286.56 2895.37,-274.52"/>
<polygon fill="#63b8ff" stroke="#63b8ff" points="2896.47,-277.85 2905.34,-272.06 2894.79,-271.05 2896.47,-277.85"/>
</g>
<!-- Node10 -->
<g id="node10" class="node">
<title>Node10</title>
<g id="a_node10"><a xlink:title=" ">
<polygon fill="#e0e0e0" stroke="#999999" points="3083,-272 3021,-272 3021,-253 3083,-253 3083,-272"/>
<text text-anchor="middle" x="3052" y="-260" font-family="Helvetica,sans-Serif" font-size="10.00">filesystem</text>
</a>
</g>
</g>
<!-- Node5&#45;&gt;Node10 -->
<g id="edge10" class="edge">
<title>Node5&#45;&gt;Node10</title>
<path fill="none" stroke="#63b8ff" d="M2729.53,-318.15C2781.5,-310.53 2900.59,-292.58 3010.65,-272.18"/>
<polygon fill="#63b8ff" stroke="#63b8ff" points="3011.4,-275.6 3020.59,-270.33 3010.11,-268.72 3011.4,-275.6"/>
</g>
<!-- Node11 -->
<g id="node11" class="node">
<title>Node11</title>
<g id="a_node11"><a xlink:title=" ">
<polygon fill="#e0e0e0" stroke="#999999" points="2451.5,-145.5 2416.5,-145.5 2416.5,-126.5 2451.5,-126.5 2451.5,-145.5"/>
<text text-anchor="middle" x="2434" y="-133.5" font-family="Helvetica,sans-Serif" font-size="10.00">map</text>
</a>
</g>
</g>
<!-- Node5&#45;&gt;Node11 -->
<g id="edge11" class="edge">
<title>Node5&#45;&gt;Node11</title>
<path fill="none" stroke="#63b8ff" d="M2676.2,-320.35C2587,-314.2 2303.12,-289.13 2257,-217 2249.82,-205.77 2248.74,-197.46 2257,-187 2299.76,-132.85 2343.53,-175.56 2408,-151 2408.86,-150.67 2409.73,-150.32 2410.59,-149.95"/>
<polygon fill="#63b8ff" stroke="#63b8ff" points="2412.26,-153.04 2419.74,-145.54 2409.21,-146.74 2412.26,-153.04"/>
</g>
<!-- Node12 -->
<g id="node12" class="node">
<title>Node12</title>
<g id="a_node12"><a xlink:title=" ">
<polygon fill="#e0e0e0" stroke="#999999" points="2619,-145.5 2567,-145.5 2567,-126.5 2619,-126.5 2619,-145.5"/>
<text text-anchor="middle" x="2593" y="-133.5" font-family="Helvetica,sans-Serif" font-size="10.00">memory</text>
</a>
</g>
</g>
<!-- Node5&#45;&gt;Node12 -->
<g id="edge12" class="edge">
<title>Node5&#45;&gt;Node12</title>
<path fill="none" stroke="#63b8ff" d="M2697.69,-313.08C2680.6,-284.32 2626.72,-193.71 2603.65,-154.91"/>
<polygon fill="#63b8ff" stroke="#63b8ff" points="2606.37,-152.64 2598.25,-145.83 2600.35,-156.22 2606.37,-152.64"/>
</g>
<!-- Node13 -->
<g id="node13" class="node">
<title>Node13</title>
<g id="a_node13"><a xlink:title=" ">
<polygon fill="#e0e0e0" stroke="#999999" points="3145,-272 3101,-272 3101,-253 3145,-253 3145,-272"/>
<text text-anchor="middle" x="3123" y="-260" font-family="Helvetica,sans-Serif" font-size="10.00">mutex</text>
</a>
</g>
</g>
<!-- Node5&#45;&gt;Node13 -->
<g id="edge13" class="edge">
<title>Node5&#45;&gt;Node13</title>
<path fill="none" stroke="#63b8ff" d="M2729.62,-319.87C2791.42,-314.65 2949.49,-299.74 3090.61,-272.02"/>
<polygon fill="#63b8ff" stroke="#63b8ff" points="3091.61,-275.39 3100.74,-270 3090.25,-268.53 3091.61,-275.39"/>
</g>
<!-- Node14 -->
<g id="node14" class="node">
<title>Node14</title>
<g id="a_node14"><a xlink:title=" ">
<polygon fill="#e0e0e0" stroke="#999999" points="3206.5,-272 3163.5,-272 3163.5,-253 3206.5,-253 3206.5,-272"/>
<text text-anchor="middle" x="3185" y="-260" font-family="Helvetica,sans-Serif" font-size="10.00">queue</text>
</a>
</g>
</g>
<!-- Node5&#45;&gt;Node14 -->
<g id="edge14" class="edge">
<title>Node5&#45;&gt;Node14</title>
<path fill="none" stroke="#63b8ff" d="M2729.65,-320.51C2798.34,-316.37 2987.04,-303.03 3153.5,-271.77"/>
<polygon fill="#63b8ff" stroke="#63b8ff" points="3154.25,-275.19 3163.42,-269.88 3152.94,-268.32 3154.25,-275.19"/>
</g>
<!-- Node15 -->
<g id="node15" class="node">
<title>Node15</title>
<g id="a_node15"><a xlink:title=" ">
<polygon fill="#e0e0e0" stroke="#999999" points="2510.5,-145.5 2469.5,-145.5 2469.5,-126.5 2510.5,-126.5 2510.5,-145.5"/>
<text text-anchor="middle" x="2490" y="-133.5" font-family="Helvetica,sans-Serif" font-size="10.00">string</text>
</a>
</g>
</g>
<!-- Node5&#45;&gt;Node15 -->
<g id="edge15" class="edge">
<title>Node5&#45;&gt;Node15</title>
<path fill="none" stroke="#63b8ff" d="M2694.98,-313.34C2670.56,-287.08 2597.21,-208.81 2570,-187 2552.69,-173.13 2531.31,-159.94 2515.01,-150.6"/>
<polygon fill="#63b8ff" stroke="#63b8ff" points="2516.49,-147.42 2506.06,-145.56 2513.06,-153.52 2516.49,-147.42"/>
</g>
<!-- Node16 -->
<g id="node16" class="node">
<title>Node16</title>
<g id="a_node16"><a xlink:title=" ">
<polygon fill="#e0e0e0" stroke="#999999" points="2681,-145.5 2637,-145.5 2637,-126.5 2681,-126.5 2681,-145.5"/>
<text text-anchor="middle" x="2659" y="-133.5" font-family="Helvetica,sans-Serif" font-size="10.00">vector</text>
</a>
</g>
</g>
<!-- Node5&#45;&gt;Node16 -->
<g id="edge16" class="edge">
<title>Node5&#45;&gt;Node16</title>
<path fill="none" stroke="#63b8ff" d="M2702.08,-313.33C2699.66,-291.7 2692.34,-233.69 2679,-187 2675.9,-176.16 2671.28,-164.43 2667.27,-155.06"/>
<polygon fill="#63b8ff" stroke="#63b8ff" points="2670.35,-153.38 2663.1,-145.66 2663.95,-156.22 2670.35,-153.38"/>
</g>
<!-- Node17 -->
<g id="node17" class="node">
<title>Node17</title>
<g id="a_node17"><a xlink:href="backend_8h.html" target="_top" xlink:title=" ">
<polygon fill="white" stroke="#666666" points="2800.5,-145.5 2699.5,-145.5 2699.5,-126.5 2800.5,-126.5 2800.5,-145.5"/>
<text text-anchor="middle" x="2750" y="-133.5" font-family="Helvetica,sans-Serif" font-size="10.00">backend/backend.h</text>
</a>
</g>
</g>
<!-- Node5&#45;&gt;Node17 -->
<g id="edge17" class="edge">
<title>Node5&#45;&gt;Node17</title>
<path fill="none" stroke="#63b8ff" d="M2702.16,-313.08C2704.99,-284.44 2727.47,-194.48 2741.08,-155.41"/>
<polygon fill="#63b8ff" stroke="#63b8ff" points="2744.44,-156.43 2744.66,-145.83 2737.88,-153.97 2744.44,-156.43"/>
</g>
<!-- Node18 -->
<g id="node18" class="node">
<title>Node18</title>
<g id="a_node18"><a xlink:href="constants_8h.html" target="_top" xlink:title=" ">
<polygon fill="white" stroke="#666666" points="1889,-85 1821,-85 1821,-66 1889,-66 1889,-85"/>
<text text-anchor="middle" x="1855" y="-73" font-family="Helvetica,sans-Serif" font-size="10.00">constants.h</text>
</a>
</g>
</g>
<!-- Node5&#45;&gt;Node18 -->
<g id="edge24" class="edge">
<title>Node5&#45;&gt;Node18</title>
<path fill="none" stroke="#63b8ff" d="M2676.41,-321.7C2457.63,-318.99 959.32,-295.17 830,-151 821.1,-141.07 820.78,-130.63 830,-121 864.38,-85.1 1618.43,-77.97 1810.7,-76.74"/>
<polygon fill="#63b8ff" stroke="#63b8ff" points="1810.75,-80.24 1820.73,-76.67 1810.71,-73.24 1810.75,-80.24"/>
</g>
<!-- Node5&#45;&gt;Node20 -->
<g id="edge25" class="edge">
<title>Node5&#45;&gt;Node20</title>
<path fill="none" stroke="#63b8ff" d="M2676.33,-321.42C2507.84,-317.71 1573.52,-296.78 812,-272 748.3,-269.93 674.24,-266.95 630.35,-265.12"/>
<polygon fill="#63b8ff" stroke="#63b8ff" points="630.26,-261.62 620.13,-264.7 629.97,-268.61 630.26,-261.62"/>
</g>
<!-- Node28 -->
<g id="node28" class="node">
<title>Node28</title>
<g id="a_node28"><a xlink:href="platform__channel_8h.html" target="_top" xlink:title=" ">
<polygon fill="white" stroke="#666666" points="2560.5,-211.5 2461.5,-211.5 2461.5,-192.5 2560.5,-192.5 2560.5,-211.5"/>
<text text-anchor="middle" x="2511" y="-199.5" font-family="Helvetica,sans-Serif" font-size="10.00">platform_channel.h</text>
</a>
</g>
</g>
<!-- Node5&#45;&gt;Node28 -->
<g id="edge34" class="edge">
<title>Node5&#45;&gt;Node28</title>
<path fill="none" stroke="#63b8ff" d="M2676.36,-321.84C2638.76,-320.13 2570.35,-311.38 2531,-272 2517.66,-258.65 2513.1,-236.98 2511.61,-221.49"/>
<polygon fill="#63b8ff" stroke="#63b8ff" points="2515.1,-221.27 2510.98,-211.51 2508.11,-221.71 2515.1,-221.27"/>
</g>
<!-- Node29 -->
<g id="node29" class="node">
<title>Node29</title>
<g id="a_node29"><a xlink:href="key__event_8h.html" target="_top" xlink:title=" ">
<polygon fill="white" stroke="#666666" points="1547,-217 1445,-217 1445,-187 1547,-187 1547,-217"/>
<text text-anchor="start" x="1453" y="-205" font-family="Helvetica,sans-Serif" font-size="10.00">static_plugins/key</text>
<text text-anchor="middle" x="1496" y="-194" font-family="Helvetica,sans-Serif" font-size="10.00">_event/key_event.h</text>
</a>
</g>
</g>
<!-- Node5&#45;&gt;Node29 -->
<g id="edge38" class="edge">
<title>Node5&#45;&gt;Node29</title>
<path fill="none" stroke="#63b8ff" d="M2676.22,-319.81C2595.12,-313.14 2345.03,-292.28 2138,-272 1924.38,-251.07 1671.17,-222.85 1557.09,-209.95"/>
<polygon fill="#63b8ff" stroke="#63b8ff" points="1557.48,-206.47 1547.15,-208.83 1556.69,-213.43 1557.48,-206.47"/>
</g>
<!-- Node36 -->
<g id="node36" class="node">
<title>Node36</title>
<g id="a_node36"><a xlink:href="text__input_8h.html" target="_top" xlink:title=" ">
<polygon fill="white" stroke="#666666" points="2110.5,-217 2013.5,-217 2013.5,-187 2110.5,-187 2110.5,-217"/>
<text text-anchor="start" x="2021.5" y="-205" font-family="Helvetica,sans-Serif" font-size="10.00">static_plugins/text</text>
<text text-anchor="middle" x="2062" y="-194" font-family="Helvetica,sans-Serif" font-size="10.00">_input/text_input.h</text>
</a>
</g>
</g>
<!-- Node5&#45;&gt;Node36 -->
<g id="edge50" class="edge">
<title>Node5&#45;&gt;Node36</title>
<path fill="none" stroke="#63b8ff" d="M2676.47,-320.89C2584.28,-316.79 2278.33,-301.25 2185,-272 2149.83,-260.98 2113.5,-239.06 2089.53,-222.88"/>
<polygon fill="#63b8ff" stroke="#63b8ff" points="2091.5,-219.99 2081.28,-217.2 2087.54,-225.75 2091.5,-219.99"/>
</g>
<!-- Node41 -->
<g id="node41" class="node">
<title>Node41</title>
<g id="a_node41"><a xlink:href="flutter__view_8h.html" target="_top" xlink:title=" ">
<polygon fill="white" stroke="#666666" points="2483,-272 2385,-272 2385,-253 2483,-253 2483,-272"/>
<text text-anchor="middle" x="2434" y="-260" font-family="Helvetica,sans-Serif" font-size="10.00">view/flutter_view.h</text>
</a>
</g>
</g>
<!-- Node5&#45;&gt;Node41 -->
<g id="edge64" class="edge">
<title>Node5&#45;&gt;Node41</title>
<path fill="none" stroke="#63b8ff" d="M2676.22,-316.18C2631.22,-306.39 2539.77,-286.5 2483.01,-274.16"/>
<polygon fill="#63b8ff" stroke="#63b8ff" points="2483.7,-270.73 2473.18,-272.02 2482.21,-277.57 2483.7,-270.73"/>
</g>
<!-- Node17&#45;&gt;Node3 -->
<g id="edge18" class="edge">
<title>Node17&#45;&gt;Node3</title>
<path fill="none" stroke="#63b8ff" d="M2734.83,-126.44C2701.07,-107.41 2619.11,-61.18 2572.63,-34.96"/>
<polygon fill="#63b8ff" stroke="#63b8ff" points="2574.26,-31.87 2563.83,-30 2570.82,-37.96 2574.26,-31.87"/>
</g>
<!-- Node17&#45;&gt;Node5 -->
<g id="edge23" class="edge">
<title>Node17&#45;&gt;Node5</title>
<path fill="none" stroke="#63b8ff" d="M2750.85,-145.83C2748.06,-174.34 2725.59,-264.29 2711.96,-303.47"/>
<polygon fill="#63b8ff" stroke="#63b8ff" points="2708.59,-302.48 2708.38,-313.08 2715.15,-304.93 2708.59,-302.48"/>
</g>
<!-- Node17&#45;&gt;Node18 -->
<g id="edge19" class="edge">
<title>Node17&#45;&gt;Node18</title>
<path fill="none" stroke="#63b8ff" d="M2718.12,-126.46C2709.09,-124.35 2699.21,-122.31 2690,-121 2390.09,-78.36 2024.32,-75.67 1899.32,-76.13"/>
<polygon fill="#63b8ff" stroke="#63b8ff" points="1899,-72.63 1889.01,-76.18 1899.03,-79.63 1899,-72.63"/>
</g>
<!-- Node18&#45;&gt;Node3 -->
<g id="edge21" class="edge">
<title>Node18&#45;&gt;Node3</title>
<path fill="none" stroke="#63b8ff" d="M1889.39,-71.56C1996.07,-62.43 2322.94,-34.48 2468.18,-22.06"/>
<polygon fill="#63b8ff" stroke="#63b8ff" points="2468.65,-25.53 2478.31,-21.19 2468.05,-18.56 2468.65,-25.53"/>
</g>
<!-- Node18&#45;&gt;Node7 -->
<g id="edge20" class="edge">
<title>Node18&#45;&gt;Node7</title>
<path fill="none" stroke="#63b8ff" d="M1889.19,-72.92C2067.31,-64.69 2888.19,-26.76 3080.57,-17.87"/>
<polygon fill="#63b8ff" stroke="#63b8ff" points="3080.98,-21.35 3090.8,-17.4 3080.65,-14.36 3080.98,-21.35"/>
</g>
<!-- Node19 -->
<g id="node19" class="node">
<title>Node19</title>
<g id="a_node19"><a xlink:title=" ">
<polygon fill="#e0e0e0" stroke="#999999" points="1874,-24.5 1836,-24.5 1836,-5.5 1874,-5.5 1874,-24.5"/>
<text text-anchor="middle" x="1855" y="-12.5" font-family="Helvetica,sans-Serif" font-size="10.00">array</text>
</a>
</g>
</g>
<!-- Node18&#45;&gt;Node19 -->
<g id="edge22" class="edge">
<title>Node18&#45;&gt;Node19</title>
<path fill="none" stroke="#63b8ff" d="M1855,-65.87C1855,-57.75 1855,-45.31 1855,-34.89"/>
<polygon fill="#63b8ff" stroke="#63b8ff" points="1858.5,-34.67 1855,-24.67 1851.5,-34.67 1858.5,-34.67"/>
</g>
<!-- Node20&#45;&gt;Node18 -->
<g id="edge33" class="edge">
<title>Node20&#45;&gt;Node18</title>
<path fill="none" stroke="#63b8ff" d="M620.28,-253.08C642.75,-245.63 674.38,-233.38 699,-217 749.5,-183.4 740.4,-145.24 796,-121 889.95,-80.04 1622.42,-76.67 1810.9,-76.48"/>
<polygon fill="#63b8ff" stroke="#63b8ff" points="1811,-79.98 1820.99,-76.48 1810.99,-72.98 1811,-79.98"/>
</g>
<!-- Node21 -->
<g id="node21" class="node">
<title>Node21</title>
<g id="a_node21"><a xlink:title=" ">
<polygon fill="#e0e0e0" stroke="#999999" points="798,-211.5 746,-211.5 746,-192.5 798,-192.5 798,-211.5"/>
<text text-anchor="middle" x="772" y="-199.5" font-family="Helvetica,sans-Serif" font-size="10.00">sstream</text>
</a>
</g>
</g>
<!-- Node20&#45;&gt;Node21 -->
<g id="edge26" class="edge">
<title>Node20&#45;&gt;Node21</title>
<path fill="none" stroke="#63b8ff" d="M619.7,-252.95C648,-244.16 693.17,-229.96 732,-217 734.1,-216.3 736.25,-215.57 738.43,-214.83"/>
<polygon fill="#63b8ff" stroke="#63b8ff" points="739.61,-218.12 747.93,-211.55 737.33,-211.51 739.61,-218.12"/>
</g>
<!-- Node22 -->
<g id="node22" class="node">
<title>Node22</title>
<g id="a_node22"><a xlink:title=" ">
<polygon fill="#e0e0e0" stroke="#999999" points="88,-211.5 0,-211.5 0,-192.5 88,-192.5 88,-211.5"/>
<text text-anchor="middle" x="44" y="-199.5" font-family="Helvetica,sans-Serif" font-size="10.00">spdlog/cfg/env.h</text>
</a>
</g>
</g>
<!-- Node20&#45;&gt;Node22 -->
<g id="edge27" class="edge">
<title>Node20&#45;&gt;Node22</title>
<path fill="none" stroke="#63b8ff" d="M563.87,-260.63C487.98,-257.93 272.91,-247.91 97,-217 92.27,-216.17 87.34,-215.12 82.48,-213.97"/>
<polygon fill="#63b8ff" stroke="#63b8ff" points="83.24,-210.56 72.69,-211.52 81.54,-217.35 83.24,-210.56"/>
</g>
<!-- Node23 -->
<g id="node23" class="node">
<title>Node23</title>
<g id="a_node23"><a xlink:title=" ">
<polygon fill="#e0e0e0" stroke="#999999" points="216,-217 106,-217 106,-187 216,-187 216,-217"/>
<text text-anchor="start" x="114" y="-205" font-family="Helvetica,sans-Serif" font-size="10.00">spdlog/sinks/callback</text>
<text text-anchor="middle" x="161" y="-194" font-family="Helvetica,sans-Serif" font-size="10.00">_sink.h</text>
</a>
</g>
</g>
<!-- Node20&#45;&gt;Node23 -->
<g id="edge28" class="edge">
<title>Node20&#45;&gt;Node23</title>
<path fill="none" stroke="#63b8ff" d="M563.78,-259C503.58,-253.46 357.95,-239.03 225.97,-217.06"/>
<polygon fill="#63b8ff" stroke="#63b8ff" points="226.54,-213.61 216.09,-215.4 225.37,-220.51 226.54,-213.61"/>
</g>
<!-- Node24 -->
<g id="node24" class="node">
<title>Node24</title>
<g id="a_node24"><a xlink:title=" ">
<polygon fill="#e0e0e0" stroke="#999999" points="348,-217 234,-217 234,-187 348,-187 348,-217"/>
<text text-anchor="start" x="242" y="-205" font-family="Helvetica,sans-Serif" font-size="10.00">spdlog/sinks/ringbuffer</text>
<text text-anchor="middle" x="291" y="-194" font-family="Helvetica,sans-Serif" font-size="10.00">_sink.h</text>
</a>
</g>
</g>
<!-- Node20&#45;&gt;Node24 -->
<g id="edge29" class="edge">
<title>Node20&#45;&gt;Node24</title>
<path fill="none" stroke="#63b8ff" d="M563.75,-256.36C521.39,-248.6 438.65,-233.28 358.49,-217.27"/>
<polygon fill="#63b8ff" stroke="#63b8ff" points="358.71,-213.75 348.22,-215.22 357.34,-220.61 358.71,-213.75"/>
</g>
<!-- Node25 -->
<g id="node25" class="node">
<title>Node25</title>
<g id="a_node25"><a xlink:title=" ">
<polygon fill="#e0e0e0" stroke="#999999" points="467.5,-217 366.5,-217 366.5,-187 467.5,-187 467.5,-217"/>
<text text-anchor="start" x="374.5" y="-205" font-family="Helvetica,sans-Serif" font-size="10.00">spdlog/sinks/stdout</text>
<text text-anchor="middle" x="417" y="-194" font-family="Helvetica,sans-Serif" font-size="10.00">_color_sinks.h</text>
</a>
</g>
</g>
<!-- Node20&#45;&gt;Node25 -->
<g id="edge30" class="edge">
<title>Node20&#45;&gt;Node25</title>
<path fill="none" stroke="#63b8ff" d="M566.55,-252.99C541.04,-244.46 501.02,-231.09 468.8,-220.32"/>
<polygon fill="#63b8ff" stroke="#63b8ff" points="469.67,-216.92 459.07,-217.06 467.45,-223.55 469.67,-216.92"/>
</g>
<!-- Node26 -->
<g id="node26" class="node">
<title>Node26</title>
<g id="a_node26"><a xlink:title=" ">
<polygon fill="#e0e0e0" stroke="#999999" points="586.5,-217 485.5,-217 485.5,-187 586.5,-187 586.5,-217"/>
<text text-anchor="start" x="493.5" y="-205" font-family="Helvetica,sans-Serif" font-size="10.00">spdlog/sinks/stdout</text>
<text text-anchor="middle" x="536" y="-194" font-family="Helvetica,sans-Serif" font-size="10.00">_sinks.h</text>
</a>
</g>
</g>
<!-- Node20&#45;&gt;Node26 -->
<g id="edge31" class="edge">
<title>Node20&#45;&gt;Node26</title>
<path fill="none" stroke="#63b8ff" d="M583.74,-252.87C576.63,-245.44 566.07,-234.42 556.69,-224.62"/>
<polygon fill="#63b8ff" stroke="#63b8ff" points="558.95,-221.92 549.51,-217.11 553.9,-226.76 558.95,-221.92"/>
</g>
<!-- Node27 -->
<g id="node27" class="node">
<title>Node27</title>
<g id="a_node27"><a xlink:title=" ">
<polygon fill="#e0e0e0" stroke="#999999" points="689.5,-211.5 604.5,-211.5 604.5,-192.5 689.5,-192.5 689.5,-211.5"/>
<text text-anchor="middle" x="647" y="-199.5" font-family="Helvetica,sans-Serif" font-size="10.00">spdlog/spdlog.h</text>
</a>
</g>
</g>
<!-- Node20&#45;&gt;Node27 -->
<g id="edge32" class="edge">
<title>Node20&#45;&gt;Node27</title>
<path fill="none" stroke="#63b8ff" d="M600.12,-252.87C608.4,-244.05 621.47,-230.16 631.7,-219.27"/>
<polygon fill="#63b8ff" stroke="#63b8ff" points="634.55,-221.35 638.85,-211.67 629.45,-216.56 634.55,-221.35"/>
</g>
<!-- Node28&#45;&gt;Node3 -->
<g id="edge37" class="edge">
<title>Node28&#45;&gt;Node3</title>
<path fill="none" stroke="#63b8ff" d="M2512.7,-192.17C2514.59,-182.19 2517.68,-165.46 2520,-151 2526.19,-112.38 2532.31,-67.38 2535.86,-40.31"/>
<polygon fill="#63b8ff" stroke="#63b8ff" points="2539.36,-40.58 2537.18,-30.22 2532.42,-39.68 2539.36,-40.58"/>
</g>
<!-- Node28&#45;&gt;Node11 -->
<g id="edge35" class="edge">
<title>Node28&#45;&gt;Node11</title>
<path fill="none" stroke="#63b8ff" d="M2500.62,-192.37C2488.28,-182.12 2467.49,-164.84 2452.41,-152.31"/>
<polygon fill="#63b8ff" stroke="#63b8ff" points="2454.64,-149.61 2444.71,-145.91 2450.17,-154.99 2454.64,-149.61"/>
</g>
<!-- Node28&#45;&gt;Node15 -->
<g id="edge36" class="edge">
<title>Node28&#45;&gt;Node15</title>
<path fill="none" stroke="#63b8ff" d="M2508.17,-192.37C2505.09,-182.97 2500.06,-167.67 2496.08,-155.53"/>
<polygon fill="#63b8ff" stroke="#63b8ff" points="2499.37,-154.32 2492.92,-145.91 2492.71,-156.5 2499.37,-154.32"/>
</g>
<!-- Node29&#45;&gt;Node3 -->
<g id="edge47" class="edge">
<title>Node29&#45;&gt;Node3</title>
<path fill="none" stroke="#63b8ff" d="M1444.83,-201.06C1296.06,-200.72 871.55,-195.79 830,-151 820.93,-141.23 820.87,-130.71 830,-121 887.01,-60.38 2152.21,-25.46 2468.05,-17.67"/>
<polygon fill="#63b8ff" stroke="#63b8ff" points="2468.53,-21.16 2478.45,-17.42 2468.36,-14.17 2468.53,-21.16"/>
</g>
<!-- Node29&#45;&gt;Node11 -->
<g id="edge39" class="edge">
<title>Node29&#45;&gt;Node11</title>
<path fill="none" stroke="#63b8ff" d="M1547.28,-199.5C1727.48,-194.03 2325.19,-174.31 2408,-151 2409.09,-150.69 2410.18,-150.34 2411.26,-149.94"/>
<polygon fill="#63b8ff" stroke="#63b8ff" points="2413.09,-152.95 2420.72,-145.6 2410.17,-146.59 2413.09,-152.95"/>
</g>
<!-- Node29&#45;&gt;Node12 -->
<g id="edge40" class="edge">
<title>Node29&#45;&gt;Node12</title>
<path fill="none" stroke="#63b8ff" d="M1547.01,-199.46C1726.5,-193.9 2328.36,-173.94 2520,-151 2532.09,-149.55 2545.19,-147.27 2556.9,-144.97"/>
<polygon fill="#63b8ff" stroke="#63b8ff" points="2557.68,-148.38 2566.78,-142.95 2556.29,-141.52 2557.68,-148.38"/>
</g>
<!-- Node29&#45;&gt;Node15 -->
<g id="edge41" class="edge">
<title>Node29&#45;&gt;Node15</title>
<path fill="none" stroke="#63b8ff" d="M1547.3,-199.53C1734.2,-194.02 2372.38,-173.7 2461,-151 2462.49,-150.62 2463.99,-150.16 2465.49,-149.64"/>
<polygon fill="#63b8ff" stroke="#63b8ff" points="2467.23,-152.71 2475.08,-145.6 2464.51,-146.25 2467.23,-152.71"/>
</g>
<!-- Node29&#45;&gt;Node18 -->
<g id="edge49" class="edge">
<title>Node29&#45;&gt;Node18</title>
<path fill="none" stroke="#63b8ff" d="M1444.62,-199.02C1332.93,-194.19 1075.94,-180.01 1050,-151 1041.11,-141.06 1040.84,-130.68 1050,-121 1076.31,-93.19 1645.8,-80.41 1810.66,-77.28"/>
<polygon fill="#63b8ff" stroke="#63b8ff" points="1810.99,-80.78 1820.92,-77.09 1810.86,-73.78 1810.99,-80.78"/>
</g>
<!-- Node30 -->
<g id="node30" class="node">
<title>Node30</title>
<g id="a_node30"><a xlink:title=" ">
<polygon fill="#e0e0e0" stroke="#999999" points="1171.5,-151 1058.5,-151 1058.5,-121 1171.5,-121 1171.5,-151"/>
<text text-anchor="start" x="1066.5" y="-139" font-family="Helvetica,sans-Serif" font-size="10.00">flutter/basic_message</text>
<text text-anchor="middle" x="1115" y="-128" font-family="Helvetica,sans-Serif" font-size="10.00">_channel.h</text>
</a>
</g>
</g>
<!-- Node29&#45;&gt;Node30 -->
<g id="edge42" class="edge">
<title>Node29&#45;&gt;Node30</title>
<path fill="none" stroke="#63b8ff" d="M1444.85,-193.71C1384.43,-184.91 1280.65,-169.23 1181.71,-151.07"/>
<polygon fill="#63b8ff" stroke="#63b8ff" points="1182.31,-147.63 1171.84,-149.25 1181.04,-154.51 1182.31,-147.63"/>
</g>
<!-- Node31 -->
<g id="node31" class="node">
<title>Node31</title>
<g id="a_node31"><a xlink:title=" ">
<polygon fill="#e0e0e0" stroke="#999999" points="1322,-145.5 1190,-145.5 1190,-126.5 1322,-126.5 1322,-145.5"/>
<text text-anchor="middle" x="1256" y="-133.5" font-family="Helvetica,sans-Serif" font-size="10.00">flutter/binary_messenger.h</text>
</a>
</g>
</g>
<!-- Node29&#45;&gt;Node31 -->
<g id="edge43" class="edge">
<title>Node29&#45;&gt;Node31</title>
<path fill="none" stroke="#63b8ff" d="M1444.81,-187.35C1401.02,-175.67 1338.78,-159.07 1297.91,-148.17"/>
<polygon fill="#63b8ff" stroke="#63b8ff" points="1298.56,-144.73 1288,-145.53 1296.76,-151.49 1298.56,-144.73"/>
</g>
<!-- Node32 -->
<g id="node32" class="node">
<title>Node32</title>
<g id="a_node32"><a xlink:title=" ">
<polygon fill="#e0e0e0" stroke="#999999" points="1001.5,-151 838.5,-151 838.5,-121 1001.5,-121 1001.5,-151"/>
<text text-anchor="start" x="846.5" y="-139" font-family="Helvetica,sans-Serif" font-size="10.00">flutter/shell/platform</text>
<text text-anchor="middle" x="920" y="-128" font-family="Helvetica,sans-Serif" font-size="10.00">/common/json_message_codec.h</text>
</a>
</g>
</g>
<!-- Node29&#45;&gt;Node32 -->
<g id="edge44" class="edge">
<title>Node29&#45;&gt;Node32</title>
<path fill="none" stroke="#63b8ff" d="M1444.77,-196.36C1356.91,-188.25 1171.88,-170.48 1016,-151 1014.68,-150.84 1013.36,-150.67 1012.02,-150.5"/>
<polygon fill="#63b8ff" stroke="#63b8ff" points="1012.04,-146.97 1001.67,-149.14 1011.13,-153.91 1012.04,-146.97"/>
</g>
<!-- Node33 -->
<g id="node33" class="node">
<title>Node33</title>
<g id="a_node33"><a xlink:title=" ">
<polygon fill="#e0e0e0" stroke="#999999" points="2398.5,-145.5 2297.5,-145.5 2297.5,-126.5 2398.5,-126.5 2398.5,-145.5"/>
<text text-anchor="middle" x="2348" y="-133.5" font-family="Helvetica,sans-Serif" font-size="10.00">flutter/fml/macros.h</text>
</a>
</g>
</g>
<!-- Node29&#45;&gt;Node33 -->
<g id="edge45" class="edge">
<title>Node29&#45;&gt;Node33</title>
<path fill="none" stroke="#63b8ff" d="M1547.31,-198.94C1669.35,-193.74 1986.43,-178.53 2250,-151 2262.09,-149.74 2274.97,-148.1 2287.29,-146.4"/>
<polygon fill="#63b8ff" stroke="#63b8ff" points="2288.07,-149.83 2297.48,-144.96 2287.09,-142.9 2288.07,-149.83"/>
</g>
<!-- Node34 -->
<g id="node34" class="node">
<title>Node34</title>
<g id="a_node34"><a xlink:title=" ">
<polygon fill="#e0e0e0" stroke="#999999" points="1640,-145.5 1530,-145.5 1530,-126.5 1640,-126.5 1640,-145.5"/>
<text text-anchor="middle" x="1585" y="-133.5" font-family="Helvetica,sans-Serif" font-size="10.00">rapidjson/document.h</text>
</a>
</g>
</g>
<!-- Node29&#45;&gt;Node34 -->
<g id="edge46" class="edge">
<title>Node29&#45;&gt;Node34</title>
<path fill="none" stroke="#63b8ff" d="M1515.75,-186.8C1530.26,-176.37 1549.9,-162.24 1564.56,-151.69"/>
<polygon fill="#63b8ff" stroke="#63b8ff" points="1566.88,-154.34 1572.96,-145.66 1562.8,-148.66 1566.88,-154.34"/>
</g>
<!-- Node35 -->
<g id="node35" class="node">
<title>Node35</title>
<g id="a_node35"><a xlink:title=" ">
<polygon fill="#e0e0e0" stroke="#999999" points="1474,-145.5 1340,-145.5 1340,-126.5 1474,-126.5 1474,-145.5"/>
<text text-anchor="middle" x="1407" y="-133.5" font-family="Helvetica,sans-Serif" font-size="10.00">xkbcommon/xkbcommon.h</text>
</a>
</g>
</g>
<!-- Node29&#45;&gt;Node35 -->
<g id="edge48" class="edge">
<title>Node29&#45;&gt;Node35</title>
<path fill="none" stroke="#63b8ff" d="M1476.25,-186.8C1461.74,-176.37 1442.1,-162.24 1427.44,-151.69"/>
<polygon fill="#63b8ff" stroke="#63b8ff" points="1429.2,-148.66 1419.04,-145.66 1425.12,-154.34 1429.2,-148.66"/>
</g>
<!-- Node36&#45;&gt;Node3 -->
<g id="edge61" class="edge">
<title>Node36&#45;&gt;Node3</title>
<path fill="none" stroke="#63b8ff" d="M2110.6,-193.53C2149.71,-186.26 2205.31,-173.02 2250,-151 2269.62,-141.33 2270.1,-131.99 2289,-121 2353.8,-83.32 2434.72,-51.89 2486.62,-33.51"/>
<polygon fill="#63b8ff" stroke="#63b8ff" points="2488.01,-36.74 2496.29,-30.13 2485.69,-30.13 2488.01,-36.74"/>
</g>
<!-- Node36&#45;&gt;Node11 -->
<g id="edge51" class="edge">
<title>Node36&#45;&gt;Node11</title>
<path fill="none" stroke="#63b8ff" d="M2110.53,-194.94C2199.07,-183.75 2380.3,-160.14 2408,-151 2408.89,-150.7 2409.79,-150.38 2410.69,-150.03"/>
<polygon fill="#63b8ff" stroke="#63b8ff" points="2412.52,-153.04 2420.1,-145.64 2409.56,-146.7 2412.52,-153.04"/>
</g>
<!-- Node36&#45;&gt;Node12 -->
<g id="edge52" class="edge">
<title>Node36&#45;&gt;Node12</title>
<path fill="none" stroke="#63b8ff" d="M2110.64,-196.99C2194.47,-189.79 2371.49,-173.31 2520,-151 2532.04,-149.19 2545.12,-146.81 2556.84,-144.53"/>
<polygon fill="#63b8ff" stroke="#63b8ff" points="2557.61,-147.95 2566.73,-142.57 2556.24,-141.08 2557.61,-147.95"/>
</g>
<!-- Node36&#45;&gt;Node15 -->
<g id="edge53" class="edge">
<title>Node36&#45;&gt;Node15</title>
<path fill="none" stroke="#63b8ff" d="M2110.51,-196.9C2201.92,-188.86 2396.31,-170.11 2461,-151 2462.44,-150.57 2463.9,-150.08 2465.35,-149.55"/>
<polygon fill="#63b8ff" stroke="#63b8ff" points="2466.92,-152.69 2474.72,-145.52 2464.15,-146.25 2466.92,-152.69"/>
</g>
<!-- Node36&#45;&gt;Node18 -->
<g id="edge63" class="edge">
<title>Node36&#45;&gt;Node18</title>
<path fill="none" stroke="#63b8ff" d="M2013.28,-200.16C1886.5,-197.47 1553.85,-187.03 1521,-151 1512.02,-141.15 1512.22,-131.03 1521,-121 1539.82,-99.51 1724.33,-84.91 1810.76,-79.19"/>
<polygon fill="#63b8ff" stroke="#63b8ff" points="1811.04,-82.68 1820.79,-78.54 1810.59,-75.7 1811.04,-82.68"/>
</g>
<!-- Node36&#45;&gt;Node31 -->
<g id="edge54" class="edge">
<title>Node36&#45;&gt;Node31</title>
<path fill="none" stroke="#63b8ff" d="M2013.48,-199.63C1895.96,-195.89 1586.85,-183.52 1331,-151 1323.24,-150.01 1315.07,-148.74 1307.09,-147.36"/>
<polygon fill="#63b8ff" stroke="#63b8ff" points="1307.59,-143.89 1297.13,-145.57 1306.35,-150.78 1307.59,-143.89"/>
</g>
<!-- Node36&#45;&gt;Node33 -->
<g id="edge57" class="edge">
<title>Node36&#45;&gt;Node33</title>
<path fill="none" stroke="#63b8ff" d="M2110.52,-190.14C2163.37,-178.32 2247.38,-159.52 2300.02,-147.74"/>
<polygon fill="#63b8ff" stroke="#63b8ff" points="2300.8,-151.15 2309.79,-145.55 2299.27,-144.32 2300.8,-151.15"/>
</g>
<!-- Node36&#45;&gt;Node34 -->
<g id="edge60" class="edge">
<title>Node36&#45;&gt;Node34</title>
<path fill="none" stroke="#63b8ff" d="M2013.46,-196.63C1936.06,-189.32 1780.02,-173.21 1649,-151 1643.18,-150.01 1637.09,-148.85 1631.08,-147.63"/>
<polygon fill="#63b8ff" stroke="#63b8ff" points="1631.61,-144.16 1621.1,-145.52 1630.16,-151.01 1631.61,-144.16"/>
</g>
<!-- Node36&#45;&gt;Node35 -->
<g id="edge62" class="edge">
<title>Node36&#45;&gt;Node35</title>
<path fill="none" stroke="#63b8ff" d="M2013.47,-198.16C1914.42,-192.05 1681.93,-176.16 1488,-151 1479.66,-149.92 1470.87,-148.59 1462.27,-147.19"/>
<polygon fill="#63b8ff" stroke="#63b8ff" points="1462.75,-143.72 1452.31,-145.52 1461.59,-150.63 1462.75,-143.72"/>
</g>
<!-- Node37 -->
<g id="node37" class="node">
<title>Node37</title>
<g id="a_node37"><a xlink:title=" ">
<polygon fill="#e0e0e0" stroke="#999999" points="1782,-145.5 1658,-145.5 1658,-126.5 1782,-126.5 1782,-145.5"/>
<text text-anchor="middle" x="1720" y="-133.5" font-family="Helvetica,sans-Serif" font-size="10.00">flutter/method_channel.h</text>
</a>
</g>
</g>
<!-- Node36&#45;&gt;Node37 -->
<g id="edge55" class="edge">
<title>Node36&#45;&gt;Node37</title>
<path fill="none" stroke="#63b8ff" d="M2013.01,-192.15C1958.71,-182.29 1868.54,-165.8 1791,-151 1785.15,-149.88 1779.03,-148.7 1772.94,-147.51"/>
<polygon fill="#63b8ff" stroke="#63b8ff" points="1773.27,-144.01 1762.78,-145.52 1771.93,-150.88 1773.27,-144.01"/>
</g>
<!-- Node38 -->
<g id="node38" class="node">
<title>Node38</title>
<g id="a_node38"><a xlink:title=" ">
<polygon fill="#e0e0e0" stroke="#999999" points="1906,-151 1800,-151 1800,-121 1906,-121 1906,-151"/>
<text text-anchor="start" x="1808" y="-139" font-family="Helvetica,sans-Serif" font-size="10.00">flutter/method_result</text>
<text text-anchor="middle" x="1853" y="-128" font-family="Helvetica,sans-Serif" font-size="10.00">_functions.h</text>
</a>
</g>
</g>
<!-- Node36&#45;&gt;Node38 -->
<g id="edge56" class="edge">
<title>Node36&#45;&gt;Node38</title>
<path fill="none" stroke="#63b8ff" d="M2016.13,-186.95C1984.42,-177.24 1942.05,-164.27 1908.44,-153.98"/>
<polygon fill="#63b8ff" stroke="#63b8ff" points="1909.35,-150.59 1898.76,-151.01 1907.3,-157.29 1909.35,-150.59"/>
</g>
<!-- Node39 -->
<g id="node39" class="node">
<title>Node39</title>
<g id="a_node39"><a xlink:title=" ">
<polygon fill="#e0e0e0" stroke="#999999" points="2079.5,-151 1924.5,-151 1924.5,-121 2079.5,-121 2079.5,-151"/>
<text text-anchor="start" x="1932.5" y="-139" font-family="Helvetica,sans-Serif" font-size="10.00">flutter/shell/platform</text>
<text text-anchor="middle" x="2002" y="-128" font-family="Helvetica,sans-Serif" font-size="10.00">/common/json_method_codec.h</text>
</a>
</g>
</g>
<!-- Node36&#45;&gt;Node39 -->
<g id="edge58" class="edge">
<title>Node36&#45;&gt;Node39</title>
<path fill="none" stroke="#63b8ff" d="M2048.68,-186.8C2040.92,-178.51 2030.96,-167.89 2022.24,-158.59"/>
<polygon fill="#63b8ff" stroke="#63b8ff" points="2024.67,-156.07 2015.28,-151.16 2019.56,-160.85 2024.67,-156.07"/>
</g>
<!-- Node40 -->
<g id="node40" class="node">
<title>Node40</title>
<g id="a_node40"><a xlink:title=" ">
<polygon fill="#e0e0e0" stroke="#999999" points="2240.5,-151 2097.5,-151 2097.5,-121 2240.5,-121 2240.5,-151"/>
<text text-anchor="start" x="2105.5" y="-139" font-family="Helvetica,sans-Serif" font-size="10.00">flutter/shell/platform</text>
<text text-anchor="middle" x="2169" y="-128" font-family="Helvetica,sans-Serif" font-size="10.00">/common/text_input_model.h</text>
</a>
</g>
</g>
<!-- Node36&#45;&gt;Node40 -->
<g id="edge59" class="edge">
<title>Node36&#45;&gt;Node40</title>
<path fill="none" stroke="#63b8ff" d="M2085.48,-186.95C2100.53,-177.95 2120.27,-166.14 2136.78,-156.27"/>
<polygon fill="#63b8ff" stroke="#63b8ff" points="2138.79,-159.15 2145.57,-151.01 2135.19,-153.14 2138.79,-159.15"/>
</g>
<!-- Node41&#45;&gt;Node11 -->
<g id="edge65" class="edge">
<title>Node41&#45;&gt;Node11</title>
<path fill="none" stroke="#63b8ff" d="M2434,-252.94C2434,-233.04 2434,-183.26 2434,-155.85"/>
<polygon fill="#63b8ff" stroke="#63b8ff" points="2437.5,-155.62 2434,-145.62 2430.5,-155.62 2437.5,-155.62"/>
</g>
<!-- Node41&#45;&gt;Node12 -->
<g id="edge66" class="edge">
<title>Node41&#45;&gt;Node12</title>
<path fill="none" stroke="#63b8ff" d="M2483.12,-256.85C2512.06,-251.61 2547.32,-240.52 2570,-217 2585.88,-200.54 2590.91,-173.86 2592.44,-155.88"/>
<polygon fill="#63b8ff" stroke="#63b8ff" points="2595.95,-155.94 2593.02,-145.76 2588.96,-155.54 2595.95,-155.94"/>
</g>
<!-- Node41&#45;&gt;Node33 -->
<g id="edge72" class="edge">
<title>Node41&#45;&gt;Node33</title>
<path fill="none" stroke="#63b8ff" d="M2384.57,-255.85C2337.83,-249.38 2272.59,-236.99 2257,-217 2235.42,-189.33 2280.61,-163.75 2314.71,-149.29"/>
<polygon fill="#63b8ff" stroke="#63b8ff" points="2316.03,-152.53 2323.97,-145.51 2313.38,-146.05 2316.03,-152.53"/>
</g>
<!-- Node42 -->
<g id="node42" class="node">
<title>Node42</title>
<g id="a_node42"><a xlink:href="configuration_8h.html" target="_top" xlink:title=" ">
<polygon fill="white" stroke="#666666" points="2404.5,-211.5 2265.5,-211.5 2265.5,-192.5 2404.5,-192.5 2404.5,-211.5"/>
<text text-anchor="middle" x="2335" y="-199.5" font-family="Helvetica,sans-Serif" font-size="10.00">configuration/configuration.h</text>
</a>
</g>
</g>
<!-- Node41&#45;&gt;Node42 -->
<g id="edge67" class="edge">
<title>Node41&#45;&gt;Node42</title>
<path fill="none" stroke="#63b8ff" d="M2419.39,-252.87C2403.31,-243.36 2377.22,-227.95 2358.3,-216.77"/>
<polygon fill="#63b8ff" stroke="#63b8ff" points="2360.06,-213.74 2349.67,-211.67 2356.5,-219.77 2360.06,-213.74"/>
</g>
<!-- Node43 -->
<g id="node43" class="node">
<title>Node43</title>
<g id="a_node43"><a xlink:href="window_8h.html" target="_top" xlink:title=" ">
<polygon fill="white" stroke="#666666" points="2923,-211.5 2827,-211.5 2827,-192.5 2923,-192.5 2923,-211.5"/>
<text text-anchor="middle" x="2875" y="-199.5" font-family="Helvetica,sans-Serif" font-size="10.00">wayland/window.h</text>
</a>
</g>
</g>
<!-- Node41&#45;&gt;Node43 -->
<g id="edge73" class="edge">
<title>Node41&#45;&gt;Node43</title>
<path fill="none" stroke="#63b8ff" d="M2483.3,-254.96C2565.24,-244.09 2729.09,-222.36 2816.65,-210.74"/>
<polygon fill="#63b8ff" stroke="#63b8ff" points="2817.23,-214.19 2826.68,-209.41 2816.31,-207.25 2817.23,-214.19"/>
</g>
<!-- Node42&#45;&gt;Node15 -->
<g id="edge68" class="edge">
<title>Node42&#45;&gt;Node15</title>
<path fill="none" stroke="#63b8ff" d="M2357.97,-192.46C2383.38,-182.87 2425.45,-166.61 2461,-151 2461.83,-150.64 2462.67,-150.26 2463.51,-149.88"/>
<polygon fill="#63b8ff" stroke="#63b8ff" points="2465.02,-153.04 2472.61,-145.64 2462.07,-146.69 2465.02,-153.04"/>
</g>
<!-- Node42&#45;&gt;Node16 -->
<g id="edge69" class="edge">
<title>Node42&#45;&gt;Node16</title>
<path fill="none" stroke="#63b8ff" d="M2395.86,-192.48C2468.57,-181.98 2585.68,-163.93 2628,-151 2629.63,-150.5 2631.29,-149.94 2632.94,-149.33"/>
<polygon fill="#63b8ff" stroke="#63b8ff" points="2634.33,-152.54 2642.25,-145.5 2631.67,-146.07 2634.33,-152.54"/>
</g>
<!-- Node42&#45;&gt;Node33 -->
<g id="edge70" class="edge">
<title>Node42&#45;&gt;Node33</title>
<path fill="none" stroke="#63b8ff" d="M2336.75,-192.37C2338.64,-183.07 2341.71,-167.98 2344.16,-155.9"/>
<polygon fill="#63b8ff" stroke="#63b8ff" points="2347.63,-156.4 2346.19,-145.91 2340.77,-155.01 2347.63,-156.4"/>
</g>
<!-- Node42&#45;&gt;Node34 -->
<g id="edge71" class="edge">
<title>Node42&#45;&gt;Node34</title>
<path fill="none" stroke="#63b8ff" d="M2265.48,-196.5C2103.24,-185.91 1708.83,-159.68 1649,-151 1642.72,-150.09 1636.14,-148.91 1629.69,-147.62"/>
<polygon fill="#63b8ff" stroke="#63b8ff" points="1630.22,-144.16 1619.71,-145.54 1628.78,-151.01 1630.22,-144.16"/>
</g>
<!-- Node43&#45;&gt;Node12 -->
<g id="edge74" class="edge">
<title>Node43&#45;&gt;Node12</title>
<path fill="none" stroke="#63b8ff" d="M2826.55,-193.85C2776.29,-185.82 2695.71,-171.21 2628,-151 2626.12,-150.44 2624.2,-149.82 2622.27,-149.16"/>
<polygon fill="#63b8ff" stroke="#63b8ff" points="2623.36,-145.83 2612.77,-145.63 2620.93,-152.39 2623.36,-145.83"/>
</g>
<!-- Node43&#45;&gt;Node15 -->
<g id="edge75" class="edge">
<title>Node43&#45;&gt;Node15</title>
<path fill="none" stroke="#63b8ff" d="M2826.82,-194.11C2764.58,-185.06 2652.97,-168.26 2558,-151 2545.83,-148.79 2532.5,-146.1 2520.88,-143.68"/>
<polygon fill="#63b8ff" stroke="#63b8ff" points="2521.29,-140.18 2510.78,-141.54 2519.84,-147.03 2521.29,-140.18"/>
</g>
<!-- Node43&#45;&gt;Node17 -->
<g id="edge79" class="edge">
<title>Node43&#45;&gt;Node17</title>
<path fill="none" stroke="#63b8ff" d="M2858.14,-192.37C2837.08,-181.59 2800.82,-163.02 2776.14,-150.38"/>
<polygon fill="#63b8ff" stroke="#63b8ff" points="2777.49,-147.14 2766.99,-145.7 2774.3,-153.37 2777.49,-147.14"/>
</g>
<!-- Node43&#45;&gt;Node18 -->
<g id="edge78" class="edge">
<title>Node43&#45;&gt;Node18</title>
<path fill="none" stroke="#63b8ff" d="M2871.12,-192.48C2862.78,-175.3 2841.31,-136.81 2810,-121 2728.19,-79.7 2076.71,-76.54 1899.41,-76.45"/>
<polygon fill="#63b8ff" stroke="#63b8ff" points="1899.15,-72.95 1889.15,-76.45 1899.15,-79.95 1899.15,-72.95"/>
</g>
<!-- Node44 -->
<g id="node44" class="node">
<title>Node44</title>
<g id="a_node44"><a xlink:title=" ">
<polygon fill="#e0e0e0" stroke="#999999" points="3188.5,-145.5 3139.5,-145.5 3139.5,-126.5 3188.5,-126.5 3188.5,-145.5"/>
<text text-anchor="middle" x="3164" y="-133.5" font-family="Helvetica,sans-Serif" font-size="10.00">cassert</text>
</a>
</g>
</g>
<!-- Node43&#45;&gt;Node44 -->
<g id="edge76" class="edge">
<title>Node43&#45;&gt;Node44</title>
<path fill="none" stroke="#63b8ff" d="M2923.15,-194.45C2974.94,-186.75 3059.36,-172.24 3130,-151 3131.88,-150.43 3133.8,-149.8 3135.72,-149.13"/>
<polygon fill="#63b8ff" stroke="#63b8ff" points="3137.08,-152.36 3145.18,-145.52 3134.59,-145.82 3137.08,-152.36"/>
</g>
<!-- Node45 -->
<g id="node45" class="node">
<title>Node45</title>
<g id="a_node45"><a xlink:title=" ">
<polygon fill="#e0e0e0" stroke="#999999" points="3331.5,-145.5 3206.5,-145.5 3206.5,-126.5 3331.5,-126.5 3331.5,-145.5"/>
<text text-anchor="middle" x="3269" y="-133.5" font-family="Helvetica,sans-Serif" font-size="10.00">agl&#45;shell&#45;client&#45;protocol.h</text>
</a>
</g>
</g>
<!-- Node43&#45;&gt;Node45 -->
<g id="edge77" class="edge">
<title>Node43&#45;&gt;Node45</title>
<path fill="none" stroke="#63b8ff" d="M2923.26,-194.16C2986.49,-185.06 3100.76,-168.11 3198,-151 3204.25,-149.9 3210.8,-148.69 3217.29,-147.45"/>
<polygon fill="#63b8ff" stroke="#63b8ff" points="3218.23,-150.84 3227.38,-145.5 3216.9,-143.96 3218.23,-150.84"/>
</g>
<!-- Node46 -->
<g id="node46" class="node">
<title>Node46</title>
<g id="a_node46"><a xlink:title=" ">
<polygon fill="#e0e0e0" stroke="#999999" points="3452,-151 3350,-151 3350,-121 3452,-121 3452,-151"/>
<text text-anchor="start" x="3358" y="-139" font-family="Helvetica,sans-Serif" font-size="10.00">ivi&#45;application&#45;client</text>
<text text-anchor="middle" x="3401" y="-128" font-family="Helvetica,sans-Serif" font-size="10.00">&#45;protocol.h</text>
</a>
</g>
</g>
<!-- Node43&#45;&gt;Node46 -->
<g id="edge80" class="edge">
<title>Node43&#45;&gt;Node46</title>
<path fill="none" stroke="#63b8ff" d="M2923.23,-197.78C3006.38,-191.8 3182.18,-177.3 3339.82,-151.07"/>
<polygon fill="#63b8ff" stroke="#63b8ff" points="3340.42,-154.52 3349.7,-149.41 3339.25,-147.62 3340.42,-154.52"/>
</g>
<!-- Node47 -->
<g id="node47" class="node">
<title>Node47</title>
<g id="a_node47"><a xlink:title=" ">
<polygon fill="#e0e0e0" stroke="#999999" points="2974.5,-145.5 2857.5,-145.5 2857.5,-126.5 2974.5,-126.5 2974.5,-145.5"/>
<text text-anchor="middle" x="2916" y="-133.5" font-family="Helvetica,sans-Serif" font-size="10.00">ivi&#45;wm&#45;client&#45;protocol.h</text>
</a>
</g>
</g>
<!-- Node43&#45;&gt;Node47 -->
<g id="edge81" class="edge">
<title>Node43&#45;&gt;Node47</title>
<path fill="none" stroke="#63b8ff" d="M2880.53,-192.37C2886.73,-182.69 2896.95,-166.74 2904.83,-154.44"/>
<polygon fill="#63b8ff" stroke="#63b8ff" points="2907.85,-156.21 2910.3,-145.91 2901.95,-152.44 2907.85,-156.21"/>
</g>
<!-- Node48 -->
<g id="node48" class="node">
<title>Node48</title>
<g id="a_node48"><a xlink:title=" ">
<polygon fill="#e0e0e0" stroke="#999999" points="3121,-145.5 2993,-145.5 2993,-126.5 3121,-126.5 3121,-145.5"/>
<text text-anchor="middle" x="3057" y="-133.5" font-family="Helvetica,sans-Serif" font-size="10.00">xdg&#45;shell&#45;client&#45;protocol.h</text>
</a>
</g>
</g>
<!-- Node43&#45;&gt;Node48 -->
<g id="edge82" class="edge">
<title>Node43&#45;&gt;Node48</title>
<path fill="none" stroke="#63b8ff" d="M2899.55,-192.37C2931.38,-181.17 2987.09,-161.58 3022.99,-148.96"/>
<polygon fill="#63b8ff" stroke="#63b8ff" points="3024.28,-152.22 3032.55,-145.6 3021.96,-145.61 3024.28,-152.22"/>
</g>
</g>
</svg>
