<?xml version="1.0" encoding="UTF-8" standalone="no"?>
<!DOCTYPE svg PUBLIC "-//W3C//DTD SVG 1.1//EN"
 "http://www.w3.org/Graphics/SVG/1.1/DTD/svg11.dtd">
<!-- Generated by graphviz version 2.43.0 (0)
 -->
<!-- Title: /home/joel.winarske@toyotaconnected.com/development/workspace&#45;automation&#45;configs/app/ivi&#45;homescreen/shell/static_plugins Pages: 1 -->
<svg width="1845pt" height="311pt"
 viewBox="0.00 0.00 1845.00 311.00" xmlns="http://www.w3.org/2000/svg" xmlns:xlink="http://www.w3.org/1999/xlink">
<g id="graph0" class="graph" transform="scale(1 1) rotate(0) translate(4 307)">
<title>/home/joel.winarske@toyotaconnected.com/development/workspace&#45;automation&#45;configs/app/ivi&#45;homescreen/shell/static_plugins</title>
<polygon fill="white" stroke="transparent" points="-4,4 -4,-307 1841,-307 1841,4 -4,4"/>
<g id="clust1" class="cluster">
<title>clusterdir_71eb729dfe620fdc00a342f30f6592a7</title>
<g id="a_clust1"><a xlink:href="dir_71eb729dfe620fdc00a342f30f6592a7.html" target="_top" xlink:title="shell">
<polygon fill="#ddddee" stroke="black" points="8,-8 8,-295 1829,-295 1829,-8 8,-8"/>
<text text-anchor="middle" x="918.5" y="-283" font-family="Helvetica,sans-Serif" font-size="10.00">shell</text>
</a>
</g>
</g>
<g id="clust2" class="cluster">
<title>clusterdir_79cb9064b670fb5f58fc52d27b952f67</title>
<g id="a_clust2"><a xlink:href="dir_79cb9064b670fb5f58fc52d27b952f67.html" target="_top">
<polygon fill="#eeeeff" stroke="black" points="100,-152 100,-204 1821,-204 1821,-152 100,-152"/>
</a>
</g>
</g>
<!-- dir_29feba7cb98f5ae4aa6ed0ad4dfc7add -->
<g id="node1" class="node">
<title>dir_29feba7cb98f5ae4aa6ed0ad4dfc7add</title>
<g id="a_node1"><a xlink:href="dir_29feba7cb98f5ae4aa6ed0ad4dfc7add.html" target="_top" xlink:title="wayland">
<polygon fill="none" stroke="black" points="1151,-124 1093,-124 1093,-88 1151,-88 1151,-124"/>
<text text-anchor="middle" x="1122" y="-103.5" font-family="Helvetica,sans-Serif" font-size="10.00">wayland</text>
</a>
</g>
</g>
<!-- dir_35b1bce254f5b2507c468c8ff86af821 -->
<g id="node2" class="node">
<title>dir_35b1bce254f5b2507c468c8ff86af821</title>
<g id="a_node2"><a xlink:href="dir_35b1bce254f5b2507c468c8ff86af821.html" target="_top" xlink:title="backend">
<polygon fill="none" stroke="black" points="1150.5,-52 1093.5,-52 1093.5,-16 1150.5,-16 1150.5,-52"/>
<text text-anchor="middle" x="1122" y="-31.5" font-family="Helvetica,sans-Serif" font-size="10.00">backend</text>
</a>
</g>
</g>
<!-- dir_29feba7cb98f5ae4aa6ed0ad4dfc7add&#45;&gt;dir_35b1bce254f5b2507c468c8ff86af821 -->
<g id="edge9" class="edge">
<title>dir_29feba7cb98f5ae4aa6ed0ad4dfc7add&#45;&gt;dir_35b1bce254f5b2507c468c8ff86af821</title>
<path fill="none" stroke="black" d="M1122,-87.7C1122,-79.98 1122,-70.71 1122,-62.11"/>
<polygon fill="black" stroke="black" points="1125.5,-62.1 1122,-52.1 1118.5,-62.1 1125.5,-62.1"/>
<g id="a_edge9&#45;headlabel"><a xlink:href="dir_000026_000001.html" target="_top" xlink:title="1">
<text text-anchor="middle" x="1128.34" y="-63.2" font-family="Helvetica,sans-Serif" font-size="10.00">1</text>
</a>
</g>
</g>
<!-- dir_79cb9064b670fb5f58fc52d27b952f67 -->
<g id="node5" class="node">
<title>dir_79cb9064b670fb5f58fc52d27b952f67</title>
<text text-anchor="middle" x="246" y="-175.5" font-family="Helvetica,sans-Serif" font-size="10.00">static_plugins</text>
</g>
<!-- dir_29feba7cb98f5ae4aa6ed0ad4dfc7add&#45;&gt;dir_79cb9064b670fb5f58fc52d27b952f67 -->
<g id="edge10" class="edge">
<title>dir_29feba7cb98f5ae4aa6ed0ad4dfc7add&#45;&gt;dir_79cb9064b670fb5f58fc52d27b952f67</title>
<path fill="none" stroke="black" d="M1092.6,-107.07C964.29,-107.6 452.9,-112.22 298,-152 293.91,-153.05 289.75,-154.43 285.66,-156.01"/>
<polygon fill="black" stroke="black" points="284.15,-152.85 276.31,-159.98 286.89,-159.3 284.15,-152.85"/>
<g id="a_edge10&#45;headlabel"><a xlink:href="dir_000026_000003.html" target="_top" xlink:title="2">
<text text-anchor="middle" x="286.35" y="-146.33" font-family="Helvetica,sans-Serif" font-size="10.00">2</text>
</a>
</g>
</g>
<!-- dir_c7659468fbc36105b1a4f638a14d03ae -->
<g id="node12" class="node">
<title>dir_c7659468fbc36105b1a4f638a14d03ae</title>
<g id="a_node12"><a xlink:href="dir_c7659468fbc36105b1a4f638a14d03ae.html" target="_top" xlink:title="key_event">
<polygon fill="white" stroke="black" points="1155.5,-196 1088.5,-196 1088.5,-160 1155.5,-160 1155.5,-196"/>
<text text-anchor="middle" x="1122" y="-175.5" font-family="Helvetica,sans-Serif" font-size="10.00">key_event</text>
</a>
</g>
</g>
<!-- dir_29feba7cb98f5ae4aa6ed0ad4dfc7add&#45;&gt;dir_c7659468fbc36105b1a4f638a14d03ae -->
<g id="edge11" class="edge">
<title>dir_29feba7cb98f5ae4aa6ed0ad4dfc7add&#45;&gt;dir_c7659468fbc36105b1a4f638a14d03ae</title>
<path fill="none" stroke="black" d="M1122,-124.1C1122,-131.79 1122,-141.05 1122,-149.67"/>
<polygon fill="black" stroke="black" points="1118.5,-149.7 1122,-159.7 1125.5,-149.7 1118.5,-149.7"/>
<g id="a_edge11&#45;headlabel"><a xlink:href="dir_000026_000010.html" target="_top" xlink:title="1">
<text text-anchor="middle" x="1115.66" y="-143.6" font-family="Helvetica,sans-Serif" font-size="10.00">1</text>
</a>
</g>
</g>
<!-- dir_06b1c224081b49f6ece928cdd733a10f -->
<g id="node21" class="node">
<title>dir_06b1c224081b49f6ece928cdd733a10f</title>
<g id="a_node21"><a xlink:href="dir_06b1c224081b49f6ece928cdd733a10f.html" target="_top" xlink:title="text_input">
<polygon fill="white" stroke="black" points="1312,-196 1246,-196 1246,-160 1312,-160 1312,-196"/>
<text text-anchor="middle" x="1279" y="-175.5" font-family="Helvetica,sans-Serif" font-size="10.00">text_input</text>
</a>
</g>
</g>
<!-- dir_29feba7cb98f5ae4aa6ed0ad4dfc7add&#45;&gt;dir_06b1c224081b49f6ece928cdd733a10f -->
<g id="edge8" class="edge">
<title>dir_29feba7cb98f5ae4aa6ed0ad4dfc7add&#45;&gt;dir_06b1c224081b49f6ece928cdd733a10f</title>
<path fill="none" stroke="black" d="M1151.39,-117C1174.97,-125.37 1208.69,-138.15 1237,-152 1238.98,-152.97 1240.99,-154 1243.01,-155.07"/>
<polygon fill="black" stroke="black" points="1241.35,-158.15 1251.79,-159.93 1244.74,-152.03 1241.35,-158.15"/>
<g id="a_edge8&#45;headlabel"><a xlink:href="dir_000026_000019.html" target="_top" xlink:title="1">
<text text-anchor="middle" x="1236.83" y="-156.39" font-family="Helvetica,sans-Serif" font-size="10.00">1</text>
</a>
</g>
</g>
<!-- dir_a2d99a8074d97da561b7fb6f8afb5301 -->
<g id="node3" class="node">
<title>dir_a2d99a8074d97da561b7fb6f8afb5301</title>
<g id="a_node3"><a xlink:href="dir_a2d99a8074d97da561b7fb6f8afb5301.html" target="_top" xlink:title="view">
<polygon fill="none" stroke="black" points="90,-196 36,-196 36,-160 90,-160 90,-196"/>
<text text-anchor="middle" x="63" y="-175.5" font-family="Helvetica,sans-Serif" font-size="10.00">view</text>
</a>
</g>
</g>
<!-- dir_a2d99a8074d97da561b7fb6f8afb5301&#45;&gt;dir_29feba7cb98f5ae4aa6ed0ad4dfc7add -->
<g id="edge12" class="edge">
<title>dir_a2d99a8074d97da561b7fb6f8afb5301&#45;&gt;dir_29feba7cb98f5ae4aa6ed0ad4dfc7add</title>
<path fill="none" stroke="black" d="M81.74,-159.79C86.13,-156.65 91,-153.8 96,-152 190,-118.11 906.1,-109.07 1082.72,-107.34"/>
<polygon fill="black" stroke="black" points="1082.89,-110.84 1092.86,-107.25 1082.83,-103.84 1082.89,-110.84"/>
<g id="a_edge12&#45;headlabel"><a xlink:href="dir_000025_000026.html" target="_top" xlink:title="4">
<text text-anchor="middle" x="1079.33" y="-111.21" font-family="Helvetica,sans-Serif" font-size="10.00">4</text>
</a>
</g>
</g>
<!-- dir_cbd5181aa7335f7853461136929ffc5b -->
<g id="node4" class="node">
<title>dir_cbd5181aa7335f7853461136929ffc5b</title>
<g id="a_node4"><a xlink:href="dir_cbd5181aa7335f7853461136929ffc5b.html" target="_top" xlink:title="textures">
<polygon fill="white" stroke="red" points="477.5,-268 420.5,-268 420.5,-232 477.5,-232 477.5,-268"/>
<text text-anchor="middle" x="449" y="-247.5" font-family="Helvetica,sans-Serif" font-size="10.00">textures</text>
</a>
</g>
</g>
<!-- dir_cbd5181aa7335f7853461136929ffc5b&#45;&gt;dir_35b1bce254f5b2507c468c8ff86af821 -->
<g id="edge2" class="edge">
<title>dir_cbd5181aa7335f7853461136929ffc5b&#45;&gt;dir_35b1bce254f5b2507c468c8ff86af821</title>
<path fill="none" stroke="black" d="M420.46,-248.12C329.89,-245.04 53.32,-233.28 27,-204 11.55,-186.81 11.55,-169.19 27,-152 99.21,-71.67 897.24,-41.99 1083.36,-36.13"/>
<polygon fill="black" stroke="black" points="1083.61,-39.63 1093.49,-35.82 1083.39,-32.63 1083.61,-39.63"/>
<g id="a_edge2&#45;headlabel"><a xlink:href="dir_000021_000001.html" target="_top" xlink:title="2">
<text text-anchor="middle" x="1080.1" y="-40.08" font-family="Helvetica,sans-Serif" font-size="10.00">2</text>
</a>
</g>
</g>
<!-- dir_cbd5181aa7335f7853461136929ffc5b&#45;&gt;dir_a2d99a8074d97da561b7fb6f8afb5301 -->
<g id="edge3" class="edge">
<title>dir_cbd5181aa7335f7853461136929ffc5b&#45;&gt;dir_a2d99a8074d97da561b7fb6f8afb5301</title>
<path fill="none" stroke="black" d="M420.34,-247.26C347.12,-242.5 154.84,-228.02 96,-204 94.35,-203.33 92.72,-202.55 91.1,-201.7"/>
<polygon fill="black" stroke="black" points="92.55,-198.47 82.21,-196.15 88.84,-204.41 92.55,-198.47"/>
<g id="a_edge3&#45;headlabel"><a xlink:href="dir_000021_000025.html" target="_top" xlink:title="3">
<text text-anchor="middle" x="97.1" y="-195.47" font-family="Helvetica,sans-Serif" font-size="10.00">3</text>
</a>
</g>
</g>
<!-- dir_550dad75a05703c4fc525b6956232966 -->
<g id="node6" class="node">
<title>dir_550dad75a05703c4fc525b6956232966</title>
<g id="a_node6"><a xlink:href="dir_550dad75a05703c4fc525b6956232966.html" target="_top" xlink:title="accessibility">
<polygon fill="white" stroke="black" points="1707.5,-196 1630.5,-196 1630.5,-160 1707.5,-160 1707.5,-196"/>
<text text-anchor="middle" x="1669" y="-175.5" font-family="Helvetica,sans-Serif" font-size="10.00">accessibility</text>
</a>
</g>
</g>
<!-- dir_9221e4b7e8e411c0e85c3d9906816171 -->
<g id="node7" class="node">
<title>dir_9221e4b7e8e411c0e85c3d9906816171</title>
<g id="a_node7"><a xlink:href="dir_9221e4b7e8e411c0e85c3d9906816171.html" target="_top" xlink:title="comp_region">
<polygon fill="white" stroke="black" points="1612,-196 1532,-196 1532,-160 1612,-160 1612,-196"/>
<text text-anchor="middle" x="1572" y="-175.5" font-family="Helvetica,sans-Serif" font-size="10.00">comp_region</text>
</a>
</g>
</g>
<!-- dir_9221e4b7e8e411c0e85c3d9906816171&#45;&gt;dir_a2d99a8074d97da561b7fb6f8afb5301 -->
<g id="edge7" class="edge">
<title>dir_9221e4b7e8e411c0e85c3d9906816171&#45;&gt;dir_a2d99a8074d97da561b7fb6f8afb5301</title>
<path fill="none" stroke="black" d="M1552.15,-196.18C1541.63,-204.57 1528.01,-213.64 1514,-218 1476.63,-229.64 141.34,-232.54 105,-218 97.11,-214.84 89.86,-209.42 83.68,-203.57"/>
<polygon fill="black" stroke="black" points="85.92,-200.85 76.47,-196.07 80.88,-205.71 85.92,-200.85"/>
<g id="a_edge7&#45;headlabel"><a xlink:href="dir_000005_000025.html" target="_top" xlink:title="1">
<text text-anchor="middle" x="90.46" y="-198.97" font-family="Helvetica,sans-Serif" font-size="10.00">1</text>
</a>
</g>
</g>
<!-- dir_d15c2689b526cae72776ec2a91550bbe -->
<g id="node8" class="node">
<title>dir_d15c2689b526cae72776ec2a91550bbe</title>
<g id="a_node8"><a xlink:href="dir_d15c2689b526cae72776ec2a91550bbe.html" target="_top" xlink:title="comp_surf">
<polygon fill="white" stroke="black" points="1514,-196 1446,-196 1446,-160 1514,-160 1514,-196"/>
<text text-anchor="middle" x="1480" y="-175.5" font-family="Helvetica,sans-Serif" font-size="10.00">comp_surf</text>
</a>
</g>
</g>
<!-- dir_eb37c4717de51140635b7842619532cb -->
<g id="node9" class="node">
<title>dir_eb37c4717de51140635b7842619532cb</title>
<g id="a_node9"><a xlink:href="dir_eb37c4717de51140635b7842619532cb.html" target="_top" xlink:title="desktop_window">
<polygon fill="white" stroke="black" points="1428,-196 1330,-196 1330,-160 1428,-160 1428,-196"/>
<text text-anchor="middle" x="1379" y="-175.5" font-family="Helvetica,sans-Serif" font-size="10.00">desktop_window</text>
</a>
</g>
</g>
<!-- dir_84db636a4db25019a7d330ed76dfb2ae -->
<g id="node10" class="node">
<title>dir_84db636a4db25019a7d330ed76dfb2ae</title>
<g id="a_node10"><a xlink:href="dir_84db636a4db25019a7d330ed76dfb2ae.html" target="_top" xlink:title="gstreamer_egl">
<polygon fill="white" stroke="black" points="1812.5,-196 1725.5,-196 1725.5,-160 1812.5,-160 1812.5,-196"/>
<text text-anchor="middle" x="1769" y="-175.5" font-family="Helvetica,sans-Serif" font-size="10.00">gstreamer_egl</text>
</a>
</g>
</g>
<!-- dir_84db636a4db25019a7d330ed76dfb2ae&#45;&gt;dir_29feba7cb98f5ae4aa6ed0ad4dfc7add -->
<g id="edge4" class="edge">
<title>dir_84db636a4db25019a7d330ed76dfb2ae&#45;&gt;dir_29feba7cb98f5ae4aa6ed0ad4dfc7add</title>
<path fill="none" stroke="black" d="M1738.38,-159.97C1731.53,-156.82 1724.16,-153.92 1717,-152 1663.58,-137.69 1285.33,-115.94 1161.29,-109.12"/>
<polygon fill="black" stroke="black" points="1161.28,-105.62 1151.11,-108.57 1160.9,-112.61 1161.28,-105.62"/>
<g id="a_edge4&#45;headlabel"><a xlink:href="dir_000008_000026.html" target="_top" xlink:title="1">
<text text-anchor="middle" x="1165.03" y="-100.48" font-family="Helvetica,sans-Serif" font-size="10.00">1</text>
</a>
</g>
</g>
<!-- dir_84db636a4db25019a7d330ed76dfb2ae&#45;&gt;dir_35b1bce254f5b2507c468c8ff86af821 -->
<g id="edge5" class="edge">
<title>dir_84db636a4db25019a7d330ed76dfb2ae&#45;&gt;dir_35b1bce254f5b2507c468c8ff86af821</title>
<path fill="none" stroke="black" d="M1736.79,-159.96C1730.36,-157 1723.56,-154.18 1717,-152 1513.36,-84.25 1256.74,-50.21 1160.65,-39.15"/>
<polygon fill="black" stroke="black" points="1160.86,-35.65 1150.53,-38.01 1160.08,-42.61 1160.86,-35.65"/>
<g id="a_edge5&#45;headlabel"><a xlink:href="dir_000008_000001.html" target="_top" xlink:title="1">
<text text-anchor="middle" x="1164.76" y="-30.74" font-family="Helvetica,sans-Serif" font-size="10.00">1</text>
</a>
</g>
</g>
<!-- dir_84db636a4db25019a7d330ed76dfb2ae&#45;&gt;dir_cbd5181aa7335f7853461136929ffc5b -->
<g id="edge6" class="edge">
<title>dir_84db636a4db25019a7d330ed76dfb2ae&#45;&gt;dir_cbd5181aa7335f7853461136929ffc5b</title>
<path fill="none" stroke="black" d="M1738.71,-196.12C1731.78,-199.31 1724.29,-202.2 1717,-204 1595.27,-234.02 687.12,-246.24 487.66,-248.57"/>
<polygon fill="black" stroke="black" points="487.6,-245.07 477.64,-248.69 487.68,-252.07 487.6,-245.07"/>
<g id="a_edge6&#45;headlabel"><a xlink:href="dir_000008_000021.html" target="_top" xlink:title="1">
<text text-anchor="middle" x="491.16" y="-239.69" font-family="Helvetica,sans-Serif" font-size="10.00">1</text>
</a>
</g>
</g>
<!-- dir_9c2f3d41d5b1d5da96b1eeade62418d9 -->
<g id="node11" class="node">
<title>dir_9c2f3d41d5b1d5da96b1eeade62418d9</title>
<g id="a_node11"><a xlink:href="dir_9c2f3d41d5b1d5da96b1eeade62418d9.html" target="_top" xlink:title="isolate">
<polygon fill="white" stroke="black" points="1228,-196 1174,-196 1174,-160 1228,-160 1228,-196"/>
<text text-anchor="middle" x="1201" y="-175.5" font-family="Helvetica,sans-Serif" font-size="10.00">isolate</text>
</a>
</g>
</g>
<!-- dir_e7cbcca1f6354486f1fcda039116897d -->
<g id="node13" class="node">
<title>dir_e7cbcca1f6354486f1fcda039116897d</title>
<g id="a_node13"><a xlink:href="dir_e7cbcca1f6354486f1fcda039116897d.html" target="_top" xlink:title="mouse_cursor">
<polygon fill="white" stroke="black" points="1070.5,-196 985.5,-196 985.5,-160 1070.5,-160 1070.5,-196"/>
<text text-anchor="middle" x="1028" y="-175.5" font-family="Helvetica,sans-Serif" font-size="10.00">mouse_cursor</text>
</a>
</g>
</g>
<!-- dir_f3157a5c91034e72bd2d16d24c31686a -->
<g id="node14" class="node">
<title>dir_f3157a5c91034e72bd2d16d24c31686a</title>
<g id="a_node14"><a xlink:href="dir_f3157a5c91034e72bd2d16d24c31686a.html" target="_top" xlink:title="navigation">
<polygon fill="white" stroke="black" points="967,-196 899,-196 899,-160 967,-160 967,-196"/>
<text text-anchor="middle" x="933" y="-175.5" font-family="Helvetica,sans-Serif" font-size="10.00">navigation</text>
</a>
</g>
</g>
<!-- dir_3bc78b495b43d144b3cfcf1505da4112 -->
<g id="node15" class="node">
<title>dir_3bc78b495b43d144b3cfcf1505da4112</title>
<g id="a_node15"><a xlink:href="dir_3bc78b495b43d144b3cfcf1505da4112.html" target="_top" xlink:title="opengl_texture">
<polygon fill="white" stroke="black" points="881,-196 791,-196 791,-160 881,-160 881,-196"/>
<text text-anchor="middle" x="836" y="-175.5" font-family="Helvetica,sans-Serif" font-size="10.00">opengl_texture</text>
</a>
</g>
</g>
<!-- dir_3bc78b495b43d144b3cfcf1505da4112&#45;&gt;dir_cbd5181aa7335f7853461136929ffc5b -->
<g id="edge1" class="edge">
<title>dir_3bc78b495b43d144b3cfcf1505da4112&#45;&gt;dir_cbd5181aa7335f7853461136929ffc5b</title>
<path fill="none" stroke="black" d="M803.19,-196.08C796.33,-199.11 789.04,-201.95 782,-204 678.5,-234.2 550.89,-244.25 487.92,-247.5"/>
<polygon fill="black" stroke="black" points="487.48,-244.02 477.66,-248 487.82,-251.01 487.48,-244.02"/>
<g id="a_edge1&#45;headlabel"><a xlink:href="dir_000013_000021.html" target="_top" xlink:title="1">
<text text-anchor="middle" x="490.93" y="-238.51" font-family="Helvetica,sans-Serif" font-size="10.00">1</text>
</a>
</g>
</g>
<!-- dir_ea144bd76ac85b4dc4797190240ee4f3 -->
<g id="node16" class="node">
<title>dir_ea144bd76ac85b4dc4797190240ee4f3</title>
<g id="a_node16"><a xlink:href="dir_ea144bd76ac85b4dc4797190240ee4f3.html" target="_top" xlink:title="package_info">
<polygon fill="white" stroke="black" points="772.5,-196 691.5,-196 691.5,-160 772.5,-160 772.5,-196"/>
<text text-anchor="middle" x="732" y="-175.5" font-family="Helvetica,sans-Serif" font-size="10.00">package_info</text>
</a>
</g>
</g>
<!-- dir_f6795e9bc0fae27dd08aa28032a6ff1c -->
<g id="node17" class="node">
<title>dir_f6795e9bc0fae27dd08aa28032a6ff1c</title>
<g id="a_node17"><a xlink:href="dir_f6795e9bc0fae27dd08aa28032a6ff1c.html" target="_top" xlink:title="platform">
<polygon fill="white" stroke="black" points="673.5,-196 614.5,-196 614.5,-160 673.5,-160 673.5,-196"/>
<text text-anchor="middle" x="644" y="-175.5" font-family="Helvetica,sans-Serif" font-size="10.00">platform</text>
</a>
</g>
</g>
<!-- dir_258d5d99ba8dcb17c865b7835783c37e -->
<g id="node18" class="node">
<title>dir_258d5d99ba8dcb17c865b7835783c37e</title>
<g id="a_node18"><a xlink:href="dir_258d5d99ba8dcb17c865b7835783c37e.html" target="_top" xlink:title="platform_views">
<polygon fill="white" stroke="black" points="596,-196 504,-196 504,-160 596,-160 596,-196"/>
<text text-anchor="middle" x="550" y="-175.5" font-family="Helvetica,sans-Serif" font-size="10.00">platform_views</text>
</a>
</g>
</g>
<!-- dir_45a92ff5b77a5d3ed8aaac323a188a80 -->
<g id="node19" class="node">
<title>dir_45a92ff5b77a5d3ed8aaac323a188a80</title>
<g id="a_node19"><a xlink:href="dir_45a92ff5b77a5d3ed8aaac323a188a80.html" target="_top" xlink:title="restoration">
<polygon fill="white" stroke="black" points="486,-196 416,-196 416,-160 486,-160 486,-196"/>
<text text-anchor="middle" x="451" y="-175.5" font-family="Helvetica,sans-Serif" font-size="10.00">restoration</text>
</a>
</g>
</g>
<!-- dir_9e7c465d19b79abef65e02dc03538835 -->
<g id="node20" class="node">
<title>dir_9e7c465d19b79abef65e02dc03538835</title>
<g id="a_node20"><a xlink:href="dir_9e7c465d19b79abef65e02dc03538835.html" target="_top" xlink:title="secure_storage">
<polygon fill="white" stroke="black" points="397.5,-196 306.5,-196 306.5,-160 397.5,-160 397.5,-196"/>
<text text-anchor="middle" x="352" y="-175.5" font-family="Helvetica,sans-Serif" font-size="10.00">secure_storage</text>
</a>
</g>
</g>
<!-- dir_474a281e1fa1f0e9fee98a4179830dab -->
<g id="node22" class="node">
<title>dir_474a281e1fa1f0e9fee98a4179830dab</title>
<g id="a_node22"><a xlink:href="dir_474a281e1fa1f0e9fee98a4179830dab.html" target="_top" xlink:title="url_launcher">
<polygon fill="white" stroke="black" points="185.5,-196 108.5,-196 108.5,-160 185.5,-160 185.5,-196"/>
<text text-anchor="middle" x="147" y="-175.5" font-family="Helvetica,sans-Serif" font-size="10.00">url_launcher</text>
</a>
</g>
</g>
</g>
</svg>
