<?xml version="1.0" encoding="UTF-8" standalone="no"?>
<!DOCTYPE svg PUBLIC "-//W3C//DTD SVG 1.1//EN"
 "http://www.w3.org/Graphics/SVG/1.1/DTD/svg11.dtd">
<!-- Generated by graphviz version 5.0.0 (0)
 -->
<!-- Title: /mnt/raid10/stargate/ivi&#45;homescreen/shell/textures Pages: 1 -->
<svg width="315pt" height="196pt"
 viewBox="0.00 0.00 315.00 196.00" xmlns="http://www.w3.org/2000/svg" xmlns:xlink="http://www.w3.org/1999/xlink">
<g id="graph0" class="graph" transform="scale(1 1) rotate(0) translate(4 192)">
<title>/mnt/raid10/stargate/ivi&#45;homescreen/shell/textures</title>
<g id="clust1" class="cluster">
<title>clusterdir_71eb729dfe620fdc00a342f30f6592a7</title>
<g id="a_clust1"><a xlink:href="dir_71eb729dfe620fdc00a342f30f6592a7.html" target="_top" xlink:title="shell">
<polygon fill="#edf0f7" stroke="#404040" stroke-dasharray="5,2" points="8,-8 8,-180 299,-180 299,-8 8,-8"/>
<text text-anchor="middle" x="153.5" y="-168" font-family="Helvetica,sans-Serif" font-size="10.00">shell</text>
</a>
</g>
</g>
<g id="clust2" class="cluster">
<title>clusterdir_cbd5181aa7335f7853461136929ffc5b</title>
<g id="a_clust2"><a xlink:href="dir_cbd5181aa7335f7853461136929ffc5b.html" target="_top">
<polygon fill="#edf0f7" stroke="#404040" stroke-width="2" points="72,-63 72,-153 291,-153 291,-63 72,-63"/>
</a>
</g>
</g>
<!-- dir_35b1bce254f5b2507c468c8ff86af821 -->
<g id="node1" class="node">
<title>dir_35b1bce254f5b2507c468c8ff86af821</title>
<g id="a_node1"><a xlink:href="dir_35b1bce254f5b2507c468c8ff86af821.html" target="_top" xlink:title="backend">
<polygon fill="#a2b4d6" stroke="#404040" points="208.5,-35 155.5,-35 155.5,-16 208.5,-16 208.5,-35"/>
<text text-anchor="middle" x="182" y="-23" font-family="Helvetica,sans-Serif" font-size="10.00">backend</text>
</a>
</g>
</g>
<!-- dir_a12c10b3e8a6cef69ec97b3594e428bc -->
<g id="node2" class="node">
<title>dir_a12c10b3e8a6cef69ec97b3594e428bc</title>
<g id="a_node2"><a xlink:href="dir_a12c10b3e8a6cef69ec97b3594e428bc.html" target="_top" xlink:title="logging">
<polygon fill="#a2b4d6" stroke="red" points="63.5,-90 16.5,-90 16.5,-71 63.5,-71 63.5,-90"/>
<text text-anchor="middle" x="40" y="-78" font-family="Helvetica,sans-Serif" font-size="10.00">logging</text>
</a>
</g>
</g>
<!-- dir_a2d99a8074d97da561b7fb6f8afb5301 -->
<g id="node3" class="node">
<title>dir_a2d99a8074d97da561b7fb6f8afb5301</title>
<g id="a_node3"><a xlink:href="dir_a2d99a8074d97da561b7fb6f8afb5301.html" target="_top" xlink:title="view">
<polygon fill="#a2b4d6" stroke="#404040" points="277.5,-35 240.5,-35 240.5,-16 277.5,-16 277.5,-35"/>
<text text-anchor="middle" x="259" y="-23" font-family="Helvetica,sans-Serif" font-size="10.00">view</text>
</a>
</g>
</g>
<!-- dir_cbd5181aa7335f7853461136929ffc5b -->
<g id="node4" class="node">
<title>dir_cbd5181aa7335f7853461136929ffc5b</title>
<text text-anchor="middle" x="106" y="-133" font-family="Helvetica,sans-Serif" font-size="10.00">textures</text>
</g>
<!-- dir_cbd5181aa7335f7853461136929ffc5b&#45;&gt;dir_a12c10b3e8a6cef69ec97b3594e428bc -->
<g id="edge1" class="edge">
<title>dir_cbd5181aa7335f7853461136929ffc5b&#45;&gt;dir_a12c10b3e8a6cef69ec97b3594e428bc</title>
<path fill="none" stroke="#63b8ff" d="M95.4,-125.98C85.54,-118.07 70.65,-106.11 58.78,-96.58"/>
<polygon fill="#63b8ff" stroke="#63b8ff" points="60.79,-93.7 50.8,-90.17 56.4,-99.16 60.79,-93.7"/>
<g id="a_edge1&#45;headlabel"><a xlink:href="dir_000025_000011.html" target="_top" xlink:title="2">
<text text-anchor="middle" x="65.37" y="-91.24" font-family="Helvetica,sans-Serif" font-size="10.00" fill="#63b8ff">2</text>
</a>
</g>
</g>
<!-- dir_450a1e92fb0b97c093fde235babe0ff2 -->
<g id="node5" class="node">
<title>dir_450a1e92fb0b97c093fde235babe0ff2</title>
<g id="a_node5"><a xlink:href="dir_450a1e92fb0b97c093fde235babe0ff2.html" target="_top" xlink:title="egl">
<polygon fill="#a2b4d6" stroke="#404040" points="282.5,-145 253.5,-145 253.5,-126 282.5,-126 282.5,-145"/>
<text text-anchor="middle" x="268" y="-133" font-family="Helvetica,sans-Serif" font-size="10.00">egl</text>
</a>
</g>
</g>
<!-- dir_450a1e92fb0b97c093fde235babe0ff2&#45;&gt;dir_a2d99a8074d97da561b7fb6f8afb5301 -->
<g id="edge3" class="edge">
<title>dir_450a1e92fb0b97c093fde235babe0ff2&#45;&gt;dir_a2d99a8074d97da561b7fb6f8afb5301</title>
<path fill="none" stroke="#63b8ff" d="M267.73,-125.68C267.28,-112.16 266.17,-85.52 264,-63 263.44,-57.18 262.64,-50.86 261.85,-45.15"/>
<polygon fill="#63b8ff" stroke="#63b8ff" points="265.3,-44.57 260.39,-35.18 258.37,-45.58 265.3,-44.57"/>
<g id="a_edge3&#45;headlabel"><a xlink:href="dir_000007_000027.html" target="_top" xlink:title="1">
<text text-anchor="middle" x="268.63" y="-45.21" font-family="Helvetica,sans-Serif" font-size="10.00" fill="#63b8ff">1</text>
</a>
</g>
</g>
<!-- dir_9f23322903599d4a0d252f0039a5cb38 -->
<g id="node7" class="node">
<title>dir_9f23322903599d4a0d252f0039a5cb38</title>
<g id="a_node7"><a xlink:href="dir_9f23322903599d4a0d252f0039a5cb38.html" target="_top" xlink:title="test_egl">
<polygon fill="#a2b4d6" stroke="#404040" points="239.5,-90 188.5,-90 188.5,-71 239.5,-71 239.5,-90"/>
<text text-anchor="middle" x="214" y="-78" font-family="Helvetica,sans-Serif" font-size="10.00">test_egl</text>
</a>
</g>
</g>
<!-- dir_450a1e92fb0b97c093fde235babe0ff2&#45;&gt;dir_9f23322903599d4a0d252f0039a5cb38 -->
<g id="edge2" class="edge">
<title>dir_450a1e92fb0b97c093fde235babe0ff2&#45;&gt;dir_9f23322903599d4a0d252f0039a5cb38</title>
<path fill="none" stroke="#63b8ff" d="M259.08,-125.75C251.22,-118.03 239.57,-106.6 230.08,-97.28"/>
<polygon fill="#63b8ff" stroke="#63b8ff" points="232.34,-94.6 222.75,-90.09 227.44,-99.59 232.34,-94.6"/>
<g id="a_edge2&#45;headlabel"><a xlink:href="dir_000007_000023.html" target="_top" xlink:title="1">
<text text-anchor="middle" x="236.89" y="-92.59" font-family="Helvetica,sans-Serif" font-size="10.00" fill="#63b8ff">1</text>
</a>
</g>
</g>
<!-- dir_6992419951a4d6f5d3a31fc48a6b0aed -->
<g id="node6" class="node">
<title>dir_6992419951a4d6f5d3a31fc48a6b0aed</title>
<g id="a_node6"><a xlink:href="dir_6992419951a4d6f5d3a31fc48a6b0aed.html" target="_top" xlink:title="navi_render_egl">
<polygon fill="#a2b4d6" stroke="#404040" points="235.5,-145 150.5,-145 150.5,-126 235.5,-126 235.5,-145"/>
<text text-anchor="middle" x="193" y="-133" font-family="Helvetica,sans-Serif" font-size="10.00">navi_render_egl</text>
</a>
</g>
</g>
<!-- dir_6992419951a4d6f5d3a31fc48a6b0aed&#45;&gt;dir_35b1bce254f5b2507c468c8ff86af821 -->
<g id="edge4" class="edge">
<title>dir_6992419951a4d6f5d3a31fc48a6b0aed&#45;&gt;dir_35b1bce254f5b2507c468c8ff86af821</title>
<path fill="none" stroke="#63b8ff" d="M189.66,-125.8C186.45,-116.94 181.82,-102.75 180,-90 178.3,-78.12 179.67,-75 180,-63 180.15,-57.35 180.44,-51.21 180.76,-45.61"/>
<polygon fill="#63b8ff" stroke="#63b8ff" points="184.27,-45.39 181.39,-35.2 177.29,-44.97 184.27,-45.39"/>
<g id="a_edge4&#45;headlabel"><a xlink:href="dir_000013_000001.html" target="_top" xlink:title="1">
<text text-anchor="middle" x="186.89" y="-46.65" font-family="Helvetica,sans-Serif" font-size="10.00" fill="#63b8ff">1</text>
</a>
</g>
</g>
<!-- dir_6992419951a4d6f5d3a31fc48a6b0aed&#45;&gt;dir_a12c10b3e8a6cef69ec97b3594e428bc -->
<g id="edge5" class="edge">
<title>dir_6992419951a4d6f5d3a31fc48a6b0aed&#45;&gt;dir_a12c10b3e8a6cef69ec97b3594e428bc</title>
<path fill="none" stroke="#63b8ff" d="M168.42,-125.98C142.58,-117.03 101.77,-102.9 73.1,-92.97"/>
<polygon fill="#63b8ff" stroke="#63b8ff" points="74.11,-89.61 63.52,-89.65 71.82,-96.23 74.11,-89.61"/>
<g id="a_edge5&#45;headlabel"><a xlink:href="dir_000013_000011.html" target="_top" xlink:title="1">
<text text-anchor="middle" x="78.44" y="-85.61" font-family="Helvetica,sans-Serif" font-size="10.00" fill="#63b8ff">1</text>
</a>
</g>
</g>
<!-- dir_6992419951a4d6f5d3a31fc48a6b0aed&#45;&gt;dir_a2d99a8074d97da561b7fb6f8afb5301 -->
<g id="edge6" class="edge">
<title>dir_6992419951a4d6f5d3a31fc48a6b0aed&#45;&gt;dir_a2d99a8074d97da561b7fb6f8afb5301</title>
<path fill="none" stroke="#63b8ff" d="M209.55,-125.9C222.47,-118.27 239.74,-105.88 249,-90 256.82,-76.58 259.1,-58.97 259.54,-45.71"/>
<polygon fill="#63b8ff" stroke="#63b8ff" points="263.04,-45.38 259.55,-35.38 256.04,-45.37 263.04,-45.38"/>
<g id="a_edge6&#45;headlabel"><a xlink:href="dir_000013_000027.html" target="_top" xlink:title="1">
<text text-anchor="middle" x="265.88" y="-46.48" font-family="Helvetica,sans-Serif" font-size="10.00" fill="#63b8ff">1</text>
</a>
</g>
</g>
<!-- dir_9f23322903599d4a0d252f0039a5cb38&#45;&gt;dir_35b1bce254f5b2507c468c8ff86af821 -->
<g id="edge7" class="edge">
<title>dir_9f23322903599d4a0d252f0039a5cb38&#45;&gt;dir_35b1bce254f5b2507c468c8ff86af821</title>
<path fill="none" stroke="#63b8ff" d="M208.72,-70.75C204.29,-63.42 197.84,-52.73 192.38,-43.7"/>
<polygon fill="#63b8ff" stroke="#63b8ff" points="195.35,-41.84 187.19,-35.09 189.36,-45.46 195.35,-41.84"/>
<g id="a_edge7&#45;headlabel"><a xlink:href="dir_000023_000001.html" target="_top" xlink:title="1">
<text text-anchor="middle" x="199.64" y="-40.95" font-family="Helvetica,sans-Serif" font-size="10.00" fill="#63b8ff">1</text>
</a>
</g>
</g>
<!-- dir_9f23322903599d4a0d252f0039a5cb38&#45;&gt;dir_a2d99a8074d97da561b7fb6f8afb5301 -->
<g id="edge8" class="edge">
<title>dir_9f23322903599d4a0d252f0039a5cb38&#45;&gt;dir_a2d99a8074d97da561b7fb6f8afb5301</title>
<path fill="none" stroke="#63b8ff" d="M221.43,-70.75C227.85,-63.18 237.31,-52.05 245.12,-42.84"/>
<polygon fill="#63b8ff" stroke="#63b8ff" points="247.9,-44.98 251.71,-35.09 242.57,-40.45 247.9,-44.98"/>
<g id="a_edge8&#45;headlabel"><a xlink:href="dir_000023_000027.html" target="_top" xlink:title="1">
<text text-anchor="middle" x="247.74" y="-47.06" font-family="Helvetica,sans-Serif" font-size="10.00" fill="#63b8ff">1</text>
</a>
</g>
</g>
</g>
</svg>
