<?xml version="1.0" encoding="UTF-8" standalone="no"?>
<!DOCTYPE svg PUBLIC "-//W3C//DTD SVG 1.1//EN"
 "http://www.w3.org/Graphics/SVG/1.1/DTD/svg11.dtd">
<!-- Generated by graphviz version 2.43.0 (0)
 -->
<!-- Title: /home/joel.winarske@toyotaconnected.com/development/stargate/ivi&#45;homescreen/shell/textures/egl Pages: 1 -->
<svg width="107pt" height="223pt"
 viewBox="0.00 0.00 107.00 223.00" xmlns="http://www.w3.org/2000/svg" xmlns:xlink="http://www.w3.org/1999/xlink">
<g id="graph0" class="graph" transform="scale(1 1) rotate(0) translate(4 219)">
<title>/home/joel.winarske@toyotaconnected.com/development/stargate/ivi&#45;homescreen/shell/textures/egl</title>
<polygon fill="white" stroke="transparent" points="-4,4 -4,-219 103,-219 103,4 -4,4"/>
<g id="clust1" class="cluster">
<title>clusterdir_cbd5181aa7335f7853461136929ffc5b</title>
<g id="a_clust1"><a xlink:href="dir_cbd5181aa7335f7853461136929ffc5b.html" target="_top" xlink:title="textures">
<polygon fill="#ddddee" stroke="black" points="8,-64 8,-207 80,-207 80,-64 8,-64"/>
<text text-anchor="middle" x="44" y="-195" font-family="Helvetica,sans-Serif" font-size="10.00">textures</text>
</a>
</g>
</g>
<!-- dir_9f23322903599d4a0d252f0039a5cb38 -->
<g id="node1" class="node">
<title>dir_9f23322903599d4a0d252f0039a5cb38</title>
<g id="a_node1"><a xlink:href="dir_9f23322903599d4a0d252f0039a5cb38.html" target="_top" xlink:title="test_egl">
<polygon fill="none" stroke="black" points="72,-108 16,-108 16,-72 72,-72 72,-108"/>
<text text-anchor="middle" x="44" y="-87.5" font-family="Helvetica,sans-Serif" font-size="10.00">test_egl</text>
</a>
</g>
</g>
<!-- dir_a2d99a8074d97da561b7fb6f8afb5301 -->
<g id="node3" class="node">
<title>dir_a2d99a8074d97da561b7fb6f8afb5301</title>
<g id="a_node3"><a xlink:href="dir_a2d99a8074d97da561b7fb6f8afb5301.html" target="_top" xlink:title="view">
<polygon fill="none" stroke="black" points="99,-36 45,-36 45,0 99,0 99,-36"/>
<text text-anchor="middle" x="72" y="-15.5" font-family="Helvetica,sans-Serif" font-size="10.00">view</text>
</a>
</g>
</g>
<!-- dir_9f23322903599d4a0d252f0039a5cb38&#45;&gt;dir_a2d99a8074d97da561b7fb6f8afb5301 -->
<g id="edge1" class="edge">
<title>dir_9f23322903599d4a0d252f0039a5cb38&#45;&gt;dir_a2d99a8074d97da561b7fb6f8afb5301</title>
<path fill="none" stroke="black" d="M50.92,-71.7C54.07,-63.81 57.88,-54.3 61.38,-45.55"/>
<polygon fill="black" stroke="black" points="64.69,-46.69 65.16,-36.1 58.19,-44.09 64.69,-46.69"/>
<g id="a_edge1&#45;headlabel"><a xlink:href="dir_000024_000025.html" target="_top" xlink:title="1">
<text text-anchor="middle" x="66" y="-48.58" font-family="Helvetica,sans-Serif" font-size="10.00">1</text>
</a>
</g>
</g>
<!-- dir_450a1e92fb0b97c093fde235babe0ff2 -->
<g id="node2" class="node">
<title>dir_450a1e92fb0b97c093fde235babe0ff2</title>
<g id="a_node2"><a xlink:href="dir_450a1e92fb0b97c093fde235babe0ff2.html" target="_top" xlink:title="egl">
<polygon fill="#eeeeff" stroke="black" points="71,-180 17,-180 17,-144 71,-144 71,-180"/>
<text text-anchor="middle" x="44" y="-159.5" font-family="Helvetica,sans-Serif" font-size="10.00">egl</text>
</a>
</g>
</g>
<!-- dir_450a1e92fb0b97c093fde235babe0ff2&#45;&gt;dir_9f23322903599d4a0d252f0039a5cb38 -->
<g id="edge2" class="edge">
<title>dir_450a1e92fb0b97c093fde235babe0ff2&#45;&gt;dir_9f23322903599d4a0d252f0039a5cb38</title>
<path fill="none" stroke="black" d="M44,-143.7C44,-135.98 44,-126.71 44,-118.11"/>
<polygon fill="black" stroke="black" points="47.5,-118.1 44,-108.1 40.5,-118.1 47.5,-118.1"/>
<g id="a_edge2&#45;headlabel"><a xlink:href="dir_000022_000024.html" target="_top" xlink:title="1">
<text text-anchor="middle" x="50.34" y="-119.2" font-family="Helvetica,sans-Serif" font-size="10.00">1</text>
</a>
</g>
</g>
<!-- dir_450a1e92fb0b97c093fde235babe0ff2&#45;&gt;dir_a2d99a8074d97da561b7fb6f8afb5301 -->
<g id="edge3" class="edge">
<title>dir_450a1e92fb0b97c093fde235babe0ff2&#45;&gt;dir_a2d99a8074d97da561b7fb6f8afb5301</title>
<path fill="none" stroke="black" d="M60.04,-143.85C68.01,-134.12 76.83,-121.27 81,-108 87.35,-87.81 84.39,-63.9 80.23,-45.95"/>
<polygon fill="black" stroke="black" points="83.59,-44.95 77.71,-36.14 76.81,-46.7 83.59,-44.95"/>
<g id="a_edge3&#45;headlabel"><a xlink:href="dir_000022_000025.html" target="_top" xlink:title="1">
<text text-anchor="middle" x="87.24" y="-45.23" font-family="Helvetica,sans-Serif" font-size="10.00">1</text>
</a>
</g>
</g>
</g>
</svg>
