<?xml version="1.0" encoding="UTF-8" standalone="no"?>
<!DOCTYPE svg PUBLIC "-//W3C//DTD SVG 1.1//EN"
 "http://www.w3.org/Graphics/SVG/1.1/DTD/svg11.dtd">
<!-- Generated by graphviz version 2.43.0 (0)
 -->
<!-- Title: /home/joel.winarske@toyotaconnected.com/development/workspace&#45;automation&#45;configs/app/ivi&#45;homescreen/shell Pages: 1 -->
<svg width="196pt" height="436pt"
 viewBox="0.00 0.00 196.00 436.00" xmlns="http://www.w3.org/2000/svg" xmlns:xlink="http://www.w3.org/1999/xlink">
<g id="graph0" class="graph" transform="scale(1 1) rotate(0) translate(4 432)">
<title>/home/joel.winarske@toyotaconnected.com/development/workspace&#45;automation&#45;configs/app/ivi&#45;homescreen/shell</title>
<polygon fill="white" stroke="transparent" points="-4,4 -4,-432 192,-432 192,4 -4,4"/>
<g id="clust1" class="cluster">
<title>clusterdir_71eb729dfe620fdc00a342f30f6592a7</title>
<g id="a_clust1"><a xlink:href="dir_71eb729dfe620fdc00a342f30f6592a7.html" target="_top">
<polygon fill="#eeeeff" stroke="black" points="8,-8 8,-420 180,-420 180,-8 8,-8"/>
</a>
</g>
</g>
<!-- dir_71eb729dfe620fdc00a342f30f6592a7 -->
<g id="node1" class="node">
<title>dir_71eb729dfe620fdc00a342f30f6592a7</title>
<text text-anchor="middle" x="60" y="-391.5" font-family="Helvetica,sans-Serif" font-size="10.00">shell</text>
</g>
<!-- dir_c9c0daff397b3190feb779cec5a4ac58 -->
<g id="node3" class="node">
<title>dir_c9c0daff397b3190feb779cec5a4ac58</title>
<g id="a_node3"><a xlink:href="dir_c9c0daff397b3190feb779cec5a4ac58.html" target="_top" xlink:title="configuration">
<polygon fill="white" stroke="black" points="96,-52 16,-52 16,-16 96,-16 96,-52"/>
<text text-anchor="middle" x="56" y="-31.5" font-family="Helvetica,sans-Serif" font-size="10.00">configuration</text>
</a>
</g>
</g>
<!-- dir_71eb729dfe620fdc00a342f30f6592a7&#45;&gt;dir_c9c0daff397b3190feb779cec5a4ac58 -->
<g id="edge2" class="edge">
<title>dir_71eb729dfe620fdc00a342f30f6592a7&#45;&gt;dir_c9c0daff397b3190feb779cec5a4ac58</title>
<path fill="none" stroke="black" d="M46.58,-375.86C39.55,-365.94 31.48,-352.9 27,-340 13.94,-302.4 17,-290.8 17,-251 17,-251 17,-251 17,-177 17,-135.56 32.64,-89.67 44.11,-61.58"/>
<polygon fill="black" stroke="black" points="47.45,-62.65 48.11,-52.07 41,-59.93 47.45,-62.65"/>
<g id="a_edge2&#45;headlabel"><a xlink:href="dir_000000_000002.html" target="_top" xlink:title="6">
<text text-anchor="middle" x="48.68" y="-64.56" font-family="Helvetica,sans-Serif" font-size="10.00">6</text>
</a>
</g>
</g>
<!-- dir_79cb9064b670fb5f58fc52d27b952f67 -->
<g id="node4" class="node">
<title>dir_79cb9064b670fb5f58fc52d27b952f67</title>
<g id="a_node4"><a xlink:href="dir_79cb9064b670fb5f58fc52d27b952f67.html" target="_top" xlink:title="static_plugins">
<polygon fill="white" stroke="red" points="120,-340 36,-340 36,-304 120,-304 120,-340"/>
<text text-anchor="middle" x="78" y="-319.5" font-family="Helvetica,sans-Serif" font-size="10.00">static_plugins</text>
</a>
</g>
</g>
<!-- dir_71eb729dfe620fdc00a342f30f6592a7&#45;&gt;dir_79cb9064b670fb5f58fc52d27b952f67 -->
<g id="edge1" class="edge">
<title>dir_71eb729dfe620fdc00a342f30f6592a7&#45;&gt;dir_79cb9064b670fb5f58fc52d27b952f67</title>
<path fill="none" stroke="black" d="M64.45,-375.7C66.45,-367.9 68.87,-358.51 71.1,-349.83"/>
<polygon fill="black" stroke="black" points="74.5,-350.66 73.6,-340.1 67.72,-348.92 74.5,-350.66"/>
<g id="a_edge1&#45;headlabel"><a xlink:href="dir_000000_000003.html" target="_top" xlink:title="4">
<text text-anchor="middle" x="76.36" y="-352.35" font-family="Helvetica,sans-Serif" font-size="10.00">4</text>
</a>
</g>
</g>
<!-- dir_35b1bce254f5b2507c468c8ff86af821 -->
<g id="node2" class="node">
<title>dir_35b1bce254f5b2507c468c8ff86af821</title>
<g id="a_node2"><a xlink:href="dir_35b1bce254f5b2507c468c8ff86af821.html" target="_top" xlink:title="backend">
<polygon fill="white" stroke="black" points="171.5,-52 114.5,-52 114.5,-16 171.5,-16 171.5,-52"/>
<text text-anchor="middle" x="143" y="-31.5" font-family="Helvetica,sans-Serif" font-size="10.00">backend</text>
</a>
</g>
</g>
<!-- dir_79cb9064b670fb5f58fc52d27b952f67&#45;&gt;dir_35b1bce254f5b2507c468c8ff86af821 -->
<g id="edge6" class="edge">
<title>dir_79cb9064b670fb5f58fc52d27b952f67&#45;&gt;dir_35b1bce254f5b2507c468c8ff86af821</title>
<path fill="none" stroke="black" d="M120.25,-304.58C135.97,-296.16 152.13,-284.19 161,-268 197.61,-201.18 170.82,-107.01 153.95,-61.57"/>
<polygon fill="black" stroke="black" points="157.18,-60.21 150.32,-52.13 150.64,-62.72 157.18,-60.21"/>
<g id="a_edge6&#45;headlabel"><a xlink:href="dir_000003_000001.html" target="_top" xlink:title="1">
<text text-anchor="middle" x="161.11" y="-60.05" font-family="Helvetica,sans-Serif" font-size="10.00">1</text>
</a>
</g>
</g>
<!-- dir_cbd5181aa7335f7853461136929ffc5b -->
<g id="node5" class="node">
<title>dir_cbd5181aa7335f7853461136929ffc5b</title>
<g id="a_node5"><a xlink:href="dir_cbd5181aa7335f7853461136929ffc5b.html" target="_top" xlink:title="textures">
<polygon fill="white" stroke="red" points="151.5,-268 94.5,-268 94.5,-232 151.5,-232 151.5,-268"/>
<text text-anchor="middle" x="123" y="-247.5" font-family="Helvetica,sans-Serif" font-size="10.00">textures</text>
</a>
</g>
</g>
<!-- dir_79cb9064b670fb5f58fc52d27b952f67&#45;&gt;dir_cbd5181aa7335f7853461136929ffc5b -->
<g id="edge8" class="edge">
<title>dir_79cb9064b670fb5f58fc52d27b952f67&#45;&gt;dir_cbd5181aa7335f7853461136929ffc5b</title>
<path fill="none" stroke="black" d="M89.12,-303.7C94.36,-295.56 100.7,-285.69 106.48,-276.7"/>
<polygon fill="black" stroke="black" points="109.54,-278.41 112,-268.1 103.65,-274.62 109.54,-278.41"/>
<g id="a_edge8&#45;headlabel"><a xlink:href="dir_000003_000021.html" target="_top" xlink:title="2">
<text text-anchor="middle" x="109.99" y="-280.47" font-family="Helvetica,sans-Serif" font-size="10.00">2</text>
</a>
</g>
</g>
<!-- dir_a2d99a8074d97da561b7fb6f8afb5301 -->
<g id="node6" class="node">
<title>dir_a2d99a8074d97da561b7fb6f8afb5301</title>
<g id="a_node6"><a xlink:href="dir_a2d99a8074d97da561b7fb6f8afb5301.html" target="_top" xlink:title="view">
<polygon fill="white" stroke="black" points="90,-196 36,-196 36,-160 90,-160 90,-196"/>
<text text-anchor="middle" x="63" y="-175.5" font-family="Helvetica,sans-Serif" font-size="10.00">view</text>
</a>
</g>
</g>
<!-- dir_79cb9064b670fb5f58fc52d27b952f67&#45;&gt;dir_a2d99a8074d97da561b7fb6f8afb5301 -->
<g id="edge7" class="edge">
<title>dir_79cb9064b670fb5f58fc52d27b952f67&#45;&gt;dir_a2d99a8074d97da561b7fb6f8afb5301</title>
<path fill="none" stroke="black" d="M75.1,-303.86C73.42,-293.5 71.38,-280.02 70,-268 67.63,-247.34 65.82,-223.89 64.64,-206.25"/>
<polygon fill="black" stroke="black" points="68.12,-205.85 63.98,-196.1 61.13,-206.3 68.12,-205.85"/>
<g id="a_edge7&#45;headlabel"><a xlink:href="dir_000003_000025.html" target="_top" xlink:title="1">
<text text-anchor="middle" x="71.18" y="-206.75" font-family="Helvetica,sans-Serif" font-size="10.00">1</text>
</a>
</g>
</g>
<!-- dir_29feba7cb98f5ae4aa6ed0ad4dfc7add -->
<g id="node7" class="node">
<title>dir_29feba7cb98f5ae4aa6ed0ad4dfc7add</title>
<g id="a_node7"><a xlink:href="dir_29feba7cb98f5ae4aa6ed0ad4dfc7add.html" target="_top" xlink:title="wayland">
<polygon fill="white" stroke="black" points="132,-124 74,-124 74,-88 132,-88 132,-124"/>
<text text-anchor="middle" x="103" y="-103.5" font-family="Helvetica,sans-Serif" font-size="10.00">wayland</text>
</a>
</g>
</g>
<!-- dir_79cb9064b670fb5f58fc52d27b952f67&#45;&gt;dir_29feba7cb98f5ae4aa6ed0ad4dfc7add -->
<g id="edge5" class="edge">
<title>dir_79cb9064b670fb5f58fc52d27b952f67&#45;&gt;dir_29feba7cb98f5ae4aa6ed0ad4dfc7add</title>
<path fill="none" stroke="black" d="M71.52,-303.74C69.8,-285.66 71.56,-256.54 77,-232 80.68,-215.39 86.69,-212.69 90,-196 94.04,-175.65 94.94,-152.18 96.18,-134.46"/>
<polygon fill="black" stroke="black" points="99.69,-134.5 97.03,-124.25 92.71,-133.92 99.69,-134.5"/>
<g id="a_edge5&#45;headlabel"><a xlink:href="dir_000003_000026.html" target="_top" xlink:title="1">
<text text-anchor="middle" x="102.22" y="-135.82" font-family="Helvetica,sans-Serif" font-size="10.00">1</text>
</a>
</g>
</g>
<!-- dir_cbd5181aa7335f7853461136929ffc5b&#45;&gt;dir_35b1bce254f5b2507c468c8ff86af821 -->
<g id="edge3" class="edge">
<title>dir_cbd5181aa7335f7853461136929ffc5b&#45;&gt;dir_35b1bce254f5b2507c468c8ff86af821</title>
<path fill="none" stroke="black" d="M126.17,-231.68C130.42,-207.62 137.79,-162.67 141,-124 142.71,-103.34 143.18,-79.89 143.24,-62.25"/>
<polygon fill="black" stroke="black" points="146.74,-62.09 143.23,-52.09 139.74,-62.1 146.74,-62.09"/>
<g id="a_edge3&#45;headlabel"><a xlink:href="dir_000021_000001.html" target="_top" xlink:title="2">
<text text-anchor="middle" x="149.58" y="-63.18" font-family="Helvetica,sans-Serif" font-size="10.00">2</text>
</a>
</g>
</g>
<!-- dir_cbd5181aa7335f7853461136929ffc5b&#45;&gt;dir_a2d99a8074d97da561b7fb6f8afb5301 -->
<g id="edge4" class="edge">
<title>dir_cbd5181aa7335f7853461136929ffc5b&#45;&gt;dir_a2d99a8074d97da561b7fb6f8afb5301</title>
<path fill="none" stroke="black" d="M108.17,-231.7C100.98,-223.3 92.2,-213.07 84.31,-203.86"/>
<polygon fill="black" stroke="black" points="86.83,-201.42 77.66,-196.1 81.51,-205.97 86.83,-201.42"/>
<g id="a_edge4&#45;headlabel"><a xlink:href="dir_000021_000025.html" target="_top" xlink:title="3">
<text text-anchor="middle" x="91.32" y="-199.8" font-family="Helvetica,sans-Serif" font-size="10.00">3</text>
</a>
</g>
</g>
<!-- dir_a2d99a8074d97da561b7fb6f8afb5301&#45;&gt;dir_c9c0daff397b3190feb779cec5a4ac58 -->
<g id="edge13" class="edge">
<title>dir_a2d99a8074d97da561b7fb6f8afb5301&#45;&gt;dir_c9c0daff397b3190feb779cec5a4ac58</title>
<path fill="none" stroke="black" d="M62.16,-159.87C60.96,-135.67 58.77,-91.21 57.35,-62.39"/>
<polygon fill="black" stroke="black" points="60.84,-62 56.85,-52.19 53.84,-62.35 60.84,-62"/>
<g id="a_edge13&#45;headlabel"><a xlink:href="dir_000025_000002.html" target="_top" xlink:title="3">
<text text-anchor="middle" x="63.85" y="-62.96" font-family="Helvetica,sans-Serif" font-size="10.00">3</text>
</a>
</g>
</g>
<!-- dir_a2d99a8074d97da561b7fb6f8afb5301&#45;&gt;dir_29feba7cb98f5ae4aa6ed0ad4dfc7add -->
<g id="edge12" class="edge">
<title>dir_a2d99a8074d97da561b7fb6f8afb5301&#45;&gt;dir_29feba7cb98f5ae4aa6ed0ad4dfc7add</title>
<path fill="none" stroke="black" d="M72.89,-159.7C77.49,-151.64 83.06,-141.89 88.15,-132.98"/>
<polygon fill="black" stroke="black" points="91.3,-134.52 93.23,-124.1 85.23,-131.05 91.3,-134.52"/>
<g id="a_edge12&#45;headlabel"><a xlink:href="dir_000025_000026.html" target="_top" xlink:title="4">
<text text-anchor="middle" x="91.99" y="-136.55" font-family="Helvetica,sans-Serif" font-size="10.00">4</text>
</a>
</g>
</g>
<!-- dir_29feba7cb98f5ae4aa6ed0ad4dfc7add&#45;&gt;dir_35b1bce254f5b2507c468c8ff86af821 -->
<g id="edge9" class="edge">
<title>dir_29feba7cb98f5ae4aa6ed0ad4dfc7add&#45;&gt;dir_35b1bce254f5b2507c468c8ff86af821</title>
<path fill="none" stroke="black" d="M112.89,-87.7C117.49,-79.64 123.06,-69.89 128.15,-60.98"/>
<polygon fill="black" stroke="black" points="131.3,-62.52 133.23,-52.1 125.23,-59.05 131.3,-62.52"/>
<g id="a_edge9&#45;headlabel"><a xlink:href="dir_000026_000001.html" target="_top" xlink:title="1">
<text text-anchor="middle" x="131.99" y="-64.55" font-family="Helvetica,sans-Serif" font-size="10.00">1</text>
</a>
</g>
</g>
<!-- dir_29feba7cb98f5ae4aa6ed0ad4dfc7add&#45;&gt;dir_c9c0daff397b3190feb779cec5a4ac58 -->
<g id="edge11" class="edge">
<title>dir_29feba7cb98f5ae4aa6ed0ad4dfc7add&#45;&gt;dir_c9c0daff397b3190feb779cec5a4ac58</title>
<path fill="none" stroke="black" d="M91.38,-87.7C85.86,-79.47 79.15,-69.48 73.07,-60.42"/>
<polygon fill="black" stroke="black" points="75.96,-58.46 67.48,-52.1 70.15,-62.36 75.96,-58.46"/>
<g id="a_edge11&#45;headlabel"><a xlink:href="dir_000026_000002.html" target="_top" xlink:title="1">
<text text-anchor="middle" x="80.33" y="-57.36" font-family="Helvetica,sans-Serif" font-size="10.00">1</text>
</a>
</g>
</g>
<!-- dir_29feba7cb98f5ae4aa6ed0ad4dfc7add&#45;&gt;dir_79cb9064b670fb5f58fc52d27b952f67 -->
<g id="edge10" class="edge">
<title>dir_29feba7cb98f5ae4aa6ed0ad4dfc7add&#45;&gt;dir_79cb9064b670fb5f58fc52d27b952f67</title>
<path fill="none" stroke="black" d="M110.47,-124.25C113.18,-142.31 112.87,-171.42 108,-196 104.69,-212.69 98.68,-215.39 95,-232 90.48,-252.42 88.5,-276.01 86.33,-293.77"/>
<polygon fill="black" stroke="black" points="82.85,-293.36 84.96,-303.74 89.78,-294.3 82.85,-293.36"/>
<g id="a_edge10&#45;headlabel"><a xlink:href="dir_000026_000003.html" target="_top" xlink:title="2">
<text text-anchor="middle" x="80.52" y="-286.91" font-family="Helvetica,sans-Serif" font-size="10.00">2</text>
</a>
</g>
</g>
</g>
</svg>
