<?xml version="1.0" encoding="UTF-8" standalone="no"?>
<!DOCTYPE svg PUBLIC "-//W3C//DTD SVG 1.1//EN"
 "http://www.w3.org/Graphics/SVG/1.1/DTD/svg11.dtd">
<!-- Generated by graphviz version 5.0.0 (0)
 -->
<!-- Title: /mnt/raid10/stargate/ivi&#45;homescreen/shell/static_plugins Pages: 1 -->
<svg width="1624pt" height="141pt"
 viewBox="0.00 0.00 1624.00 141.00" xmlns="http://www.w3.org/2000/svg" xmlns:xlink="http://www.w3.org/1999/xlink">
<g id="graph0" class="graph" transform="scale(1 1) rotate(0) translate(4 137)">
<title>/mnt/raid10/stargate/ivi&#45;homescreen/shell/static_plugins</title>
<g id="clust1" class="cluster">
<title>clusterdir_71eb729dfe620fdc00a342f30f6592a7</title>
<g id="a_clust1"><a xlink:href="dir_71eb729dfe620fdc00a342f30f6592a7.html" target="_top" xlink:title="shell">
<polygon fill="#edf0f7" stroke="#404040" stroke-dasharray="5,2" points="8,-8 8,-125 1608,-125 1608,-8 8,-8"/>
<text text-anchor="middle" x="808" y="-113" font-family="Helvetica,sans-Serif" font-size="10.00">shell</text>
</a>
</g>
</g>
<g id="clust2" class="cluster">
<title>clusterdir_79cb9064b670fb5f58fc52d27b952f67</title>
<g id="a_clust2"><a xlink:href="dir_79cb9064b670fb5f58fc52d27b952f67.html" target="_top">
<polygon fill="#edf0f7" stroke="#404040" stroke-width="2" points="16,-63 16,-98 1600,-98 1600,-63 16,-63"/>
</a>
</g>
</g>
<!-- dir_29feba7cb98f5ae4aa6ed0ad4dfc7add -->
<g id="node1" class="node">
<title>dir_29feba7cb98f5ae4aa6ed0ad4dfc7add</title>
<g id="a_node1"><a xlink:href="dir_29feba7cb98f5ae4aa6ed0ad4dfc7add.html" target="_top" xlink:title="wayland">
<polygon fill="#a2b4d6" stroke="#404040" points="1320.5,-35 1267.5,-35 1267.5,-16 1320.5,-16 1320.5,-35"/>
<text text-anchor="middle" x="1294" y="-23" font-family="Helvetica,sans-Serif" font-size="10.00">wayland</text>
</a>
</g>
</g>
<!-- dir_35b1bce254f5b2507c468c8ff86af821 -->
<g id="node2" class="node">
<title>dir_35b1bce254f5b2507c468c8ff86af821</title>
<g id="a_node2"><a xlink:href="dir_35b1bce254f5b2507c468c8ff86af821.html" target="_top" xlink:title="backend">
<polygon fill="#a2b4d6" stroke="#404040" points="1391.5,-35 1338.5,-35 1338.5,-16 1391.5,-16 1391.5,-35"/>
<text text-anchor="middle" x="1365" y="-23" font-family="Helvetica,sans-Serif" font-size="10.00">backend</text>
</a>
</g>
</g>
<!-- dir_a12c10b3e8a6cef69ec97b3594e428bc -->
<g id="node3" class="node">
<title>dir_a12c10b3e8a6cef69ec97b3594e428bc</title>
<g id="a_node3"><a xlink:href="dir_a12c10b3e8a6cef69ec97b3594e428bc.html" target="_top" xlink:title="logging">
<polygon fill="#a2b4d6" stroke="red" points="576.5,-35 529.5,-35 529.5,-16 576.5,-16 576.5,-35"/>
<text text-anchor="middle" x="553" y="-23" font-family="Helvetica,sans-Serif" font-size="10.00">logging</text>
</a>
</g>
</g>
<!-- dir_a2d99a8074d97da561b7fb6f8afb5301 -->
<g id="node4" class="node">
<title>dir_a2d99a8074d97da561b7fb6f8afb5301</title>
<g id="a_node4"><a xlink:href="dir_a2d99a8074d97da561b7fb6f8afb5301.html" target="_top" xlink:title="view">
<polygon fill="#a2b4d6" stroke="#404040" points="1204.5,-35 1167.5,-35 1167.5,-16 1204.5,-16 1204.5,-35"/>
<text text-anchor="middle" x="1186" y="-23" font-family="Helvetica,sans-Serif" font-size="10.00">view</text>
</a>
</g>
</g>
<!-- dir_cbd5181aa7335f7853461136929ffc5b -->
<g id="node5" class="node">
<title>dir_cbd5181aa7335f7853461136929ffc5b</title>
<g id="a_node5"><a xlink:href="dir_cbd5181aa7335f7853461136929ffc5b.html" target="_top" xlink:title="textures">
<polygon fill="#a2b4d6" stroke="red" points="1475,-35 1423,-35 1423,-16 1475,-16 1475,-35"/>
<text text-anchor="middle" x="1449" y="-23" font-family="Helvetica,sans-Serif" font-size="10.00">textures</text>
</a>
</g>
</g>
<!-- dir_79cb9064b670fb5f58fc52d27b952f67 -->
<g id="node6" class="node">
<title>dir_79cb9064b670fb5f58fc52d27b952f67</title>
<text text-anchor="middle" x="1553" y="-78" font-family="Helvetica,sans-Serif" font-size="10.00">static_plugins</text>
</g>
<!-- dir_550dad75a05703c4fc525b6956232966 -->
<g id="node7" class="node">
<title>dir_550dad75a05703c4fc525b6956232966</title>
<g id="a_node7"><a xlink:href="dir_550dad75a05703c4fc525b6956232966.html" target="_top" xlink:title="accessibility">
<polygon fill="#a2b4d6" stroke="#404040" points="541.5,-90 470.5,-90 470.5,-71 541.5,-71 541.5,-90"/>
<text text-anchor="middle" x="506" y="-78" font-family="Helvetica,sans-Serif" font-size="10.00">accessibility</text>
</a>
</g>
</g>
<!-- dir_550dad75a05703c4fc525b6956232966&#45;&gt;dir_a12c10b3e8a6cef69ec97b3594e428bc -->
<g id="edge1" class="edge">
<title>dir_550dad75a05703c4fc525b6956232966&#45;&gt;dir_a12c10b3e8a6cef69ec97b3594e428bc</title>
<path fill="none" stroke="#63b8ff" d="M513.76,-70.75C520.47,-63.18 530.34,-52.05 538.51,-42.84"/>
<polygon fill="#63b8ff" stroke="#63b8ff" points="541.37,-44.89 545.38,-35.09 536.13,-40.25 541.37,-44.89"/>
<g id="a_edge1&#45;headlabel"><a xlink:href="dir_000000_000011.html" target="_top" xlink:title="1">
<text text-anchor="middle" x="541.11" y="-46.97" font-family="Helvetica,sans-Serif" font-size="10.00" fill="#63b8ff">1</text>
</a>
</g>
</g>
<!-- dir_9221e4b7e8e411c0e85c3d9906816171 -->
<g id="node8" class="node">
<title>dir_9221e4b7e8e411c0e85c3d9906816171</title>
<g id="a_node8"><a xlink:href="dir_9221e4b7e8e411c0e85c3d9906816171.html" target="_top" xlink:title="comp_region">
<polygon fill="#a2b4d6" stroke="#404040" points="1222,-90 1150,-90 1150,-71 1222,-71 1222,-90"/>
<text text-anchor="middle" x="1186" y="-78" font-family="Helvetica,sans-Serif" font-size="10.00">comp_region</text>
</a>
</g>
</g>
<!-- dir_9221e4b7e8e411c0e85c3d9906816171&#45;&gt;dir_a2d99a8074d97da561b7fb6f8afb5301 -->
<g id="edge2" class="edge">
<title>dir_9221e4b7e8e411c0e85c3d9906816171&#45;&gt;dir_a2d99a8074d97da561b7fb6f8afb5301</title>
<path fill="none" stroke="#63b8ff" d="M1186,-70.75C1186,-63.8 1186,-53.85 1186,-45.13"/>
<polygon fill="#63b8ff" stroke="#63b8ff" points="1189.5,-45.09 1186,-35.09 1182.5,-45.09 1189.5,-45.09"/>
<g id="a_edge2&#45;headlabel"><a xlink:href="dir_000002_000027.html" target="_top" xlink:title="1">
<text text-anchor="middle" x="1192.34" y="-46.18" font-family="Helvetica,sans-Serif" font-size="10.00" fill="#63b8ff">1</text>
</a>
</g>
</g>
<!-- dir_d15c2689b526cae72776ec2a91550bbe -->
<g id="node9" class="node">
<title>dir_d15c2689b526cae72776ec2a91550bbe</title>
<g id="a_node9"><a xlink:href="dir_d15c2689b526cae72776ec2a91550bbe.html" target="_top" xlink:title="comp_surf">
<polygon fill="#a2b4d6" stroke="#404040" points="1302,-90 1240,-90 1240,-71 1302,-71 1302,-90"/>
<text text-anchor="middle" x="1271" y="-78" font-family="Helvetica,sans-Serif" font-size="10.00">comp_surf</text>
</a>
</g>
</g>
<!-- dir_eb37c4717de51140635b7842619532cb -->
<g id="node10" class="node">
<title>dir_eb37c4717de51140635b7842619532cb</title>
<g id="a_node10"><a xlink:href="dir_eb37c4717de51140635b7842619532cb.html" target="_top" xlink:title="desktop_window">
<polygon fill="#a2b4d6" stroke="#404040" points="371.5,-90 282.5,-90 282.5,-71 371.5,-71 371.5,-90"/>
<text text-anchor="middle" x="327" y="-78" font-family="Helvetica,sans-Serif" font-size="10.00">desktop_window</text>
</a>
</g>
</g>
<!-- dir_eb37c4717de51140635b7842619532cb&#45;&gt;dir_a12c10b3e8a6cef69ec97b3594e428bc -->
<g id="edge3" class="edge">
<title>dir_eb37c4717de51140635b7842619532cb&#45;&gt;dir_a12c10b3e8a6cef69ec97b3594e428bc</title>
<path fill="none" stroke="#63b8ff" d="M353.24,-70.98C362.02,-68.26 371.89,-65.35 381,-63 428.68,-50.68 484.56,-39.4 519.38,-32.73"/>
<polygon fill="#63b8ff" stroke="#63b8ff" points="520.31,-36.12 529.48,-30.82 519,-29.24 520.31,-36.12"/>
<g id="a_edge3&#45;headlabel"><a xlink:href="dir_000005_000011.html" target="_top" xlink:title="1">
<text text-anchor="middle" x="517.3" y="-37.08" font-family="Helvetica,sans-Serif" font-size="10.00" fill="#63b8ff">1</text>
</a>
</g>
</g>
<!-- dir_84db636a4db25019a7d330ed76dfb2ae -->
<g id="node11" class="node">
<title>dir_84db636a4db25019a7d330ed76dfb2ae</title>
<g id="a_node11"><a xlink:href="dir_84db636a4db25019a7d330ed76dfb2ae.html" target="_top" xlink:title="gstreamer_egl">
<polygon fill="#a2b4d6" stroke="#404040" points="1398,-90 1320,-90 1320,-71 1398,-71 1398,-90"/>
<text text-anchor="middle" x="1359" y="-78" font-family="Helvetica,sans-Serif" font-size="10.00">gstreamer_egl</text>
</a>
</g>
</g>
<!-- dir_84db636a4db25019a7d330ed76dfb2ae&#45;&gt;dir_29feba7cb98f5ae4aa6ed0ad4dfc7add -->
<g id="edge4" class="edge">
<title>dir_84db636a4db25019a7d330ed76dfb2ae&#45;&gt;dir_29feba7cb98f5ae4aa6ed0ad4dfc7add</title>
<path fill="none" stroke="#63b8ff" d="M1348.56,-70.98C1338.85,-63.07 1324.18,-51.11 1312.5,-41.58"/>
<polygon fill="#63b8ff" stroke="#63b8ff" points="1314.6,-38.78 1304.63,-35.17 1310.17,-44.2 1314.6,-38.78"/>
<g id="a_edge4&#45;headlabel"><a xlink:href="dir_000008_000028.html" target="_top" xlink:title="1">
<text text-anchor="middle" x="1319.18" y="-36.35" font-family="Helvetica,sans-Serif" font-size="10.00" fill="#63b8ff">1</text>
</a>
</g>
</g>
<!-- dir_84db636a4db25019a7d330ed76dfb2ae&#45;&gt;dir_35b1bce254f5b2507c468c8ff86af821 -->
<g id="edge5" class="edge">
<title>dir_84db636a4db25019a7d330ed76dfb2ae&#45;&gt;dir_35b1bce254f5b2507c468c8ff86af821</title>
<path fill="none" stroke="#63b8ff" d="M1359.99,-70.75C1360.78,-63.8 1361.9,-53.85 1362.89,-45.13"/>
<polygon fill="#63b8ff" stroke="#63b8ff" points="1366.38,-45.42 1364.03,-35.09 1359.42,-44.63 1366.38,-45.42"/>
<g id="a_edge5&#45;headlabel"><a xlink:href="dir_000008_000001.html" target="_top" xlink:title="1">
<text text-anchor="middle" x="1368.8" y="-46.81" font-family="Helvetica,sans-Serif" font-size="10.00" fill="#63b8ff">1</text>
</a>
</g>
</g>
<!-- dir_84db636a4db25019a7d330ed76dfb2ae&#45;&gt;dir_cbd5181aa7335f7853461136929ffc5b -->
<g id="edge6" class="edge">
<title>dir_84db636a4db25019a7d330ed76dfb2ae&#45;&gt;dir_cbd5181aa7335f7853461136929ffc5b</title>
<path fill="none" stroke="#63b8ff" d="M1373.46,-70.98C1387.42,-62.77 1408.79,-50.18 1425.25,-40.49"/>
<polygon fill="#63b8ff" stroke="#63b8ff" points="1427.44,-43.26 1434.28,-35.17 1423.88,-37.23 1427.44,-43.26"/>
<g id="a_edge6&#45;headlabel"><a xlink:href="dir_000008_000025.html" target="_top" xlink:title="1">
<text text-anchor="middle" x="1425.78" y="-45.03" font-family="Helvetica,sans-Serif" font-size="10.00" fill="#63b8ff">1</text>
</a>
</g>
</g>
<!-- dir_9c2f3d41d5b1d5da96b1eeade62418d9 -->
<g id="node12" class="node">
<title>dir_9c2f3d41d5b1d5da96b1eeade62418d9</title>
<g id="a_node12"><a xlink:href="dir_9c2f3d41d5b1d5da96b1eeade62418d9.html" target="_top" xlink:title="isolate">
<polygon fill="#a2b4d6" stroke="#404040" points="1035.5,-90 990.5,-90 990.5,-71 1035.5,-71 1035.5,-90"/>
<text text-anchor="middle" x="1013" y="-78" font-family="Helvetica,sans-Serif" font-size="10.00">isolate</text>
</a>
</g>
</g>
<!-- dir_c7659468fbc36105b1a4f638a14d03ae -->
<g id="node13" class="node">
<title>dir_c7659468fbc36105b1a4f638a14d03ae</title>
<g id="a_node13"><a xlink:href="dir_c7659468fbc36105b1a4f638a14d03ae.html" target="_top" xlink:title="key_event">
<polygon fill="#a2b4d6" stroke="#404040" points="86,-90 24,-90 24,-71 86,-71 86,-90"/>
<text text-anchor="middle" x="55" y="-78" font-family="Helvetica,sans-Serif" font-size="10.00">key_event</text>
</a>
</g>
</g>
<!-- dir_c7659468fbc36105b1a4f638a14d03ae&#45;&gt;dir_a12c10b3e8a6cef69ec97b3594e428bc -->
<g id="edge7" class="edge">
<title>dir_c7659468fbc36105b1a4f638a14d03ae&#45;&gt;dir_a12c10b3e8a6cef69ec97b3594e428bc</title>
<path fill="none" stroke="#63b8ff" d="M72.98,-70.89C80.01,-67.89 88.23,-64.83 96,-63 251.02,-26.51 442.89,-24.77 519.31,-25.74"/>
<polygon fill="#63b8ff" stroke="#63b8ff" points="519.26,-29.24 529.31,-25.89 519.36,-22.24 519.26,-29.24"/>
<g id="a_edge7&#45;headlabel"><a xlink:href="dir_000010_000011.html" target="_top" xlink:title="1">
<text text-anchor="middle" x="515.62" y="-29.53" font-family="Helvetica,sans-Serif" font-size="10.00" fill="#63b8ff">1</text>
</a>
</g>
</g>
<!-- dir_e7cbcca1f6354486f1fcda039116897d -->
<g id="node14" class="node">
<title>dir_e7cbcca1f6354486f1fcda039116897d</title>
<g id="a_node14"><a xlink:href="dir_e7cbcca1f6354486f1fcda039116897d.html" target="_top" xlink:title="mouse_cursor">
<polygon fill="#a2b4d6" stroke="#404040" points="1132,-90 1054,-90 1054,-71 1132,-71 1132,-90"/>
<text text-anchor="middle" x="1093" y="-78" font-family="Helvetica,sans-Serif" font-size="10.00">mouse_cursor</text>
</a>
</g>
</g>
<!-- dir_e7cbcca1f6354486f1fcda039116897d&#45;&gt;dir_a12c10b3e8a6cef69ec97b3594e428bc -->
<g id="edge8" class="edge">
<title>dir_e7cbcca1f6354486f1fcda039116897d&#45;&gt;dir_a12c10b3e8a6cef69ec97b3594e428bc</title>
<path fill="none" stroke="#63b8ff" d="M1071.82,-70.91C1063.58,-67.91 1053.98,-64.84 1045,-63 875.38,-28.16 666.82,-25.58 586.61,-26.04"/>
<polygon fill="#63b8ff" stroke="#63b8ff" points="586.57,-22.54 576.6,-26.12 586.62,-29.54 586.57,-22.54"/>
<g id="a_edge8&#45;headlabel"><a xlink:href="dir_000012_000011.html" target="_top" xlink:title="1">
<text text-anchor="middle" x="590.14" y="-17.17" font-family="Helvetica,sans-Serif" font-size="10.00" fill="#63b8ff">1</text>
</a>
</g>
</g>
<!-- dir_f3157a5c91034e72bd2d16d24c31686a -->
<g id="node15" class="node">
<title>dir_f3157a5c91034e72bd2d16d24c31686a</title>
<g id="a_node15"><a xlink:href="dir_f3157a5c91034e72bd2d16d24c31686a.html" target="_top" xlink:title="navigation">
<polygon fill="#a2b4d6" stroke="#404040" points="792.5,-90 731.5,-90 731.5,-71 792.5,-71 792.5,-90"/>
<text text-anchor="middle" x="762" y="-78" font-family="Helvetica,sans-Serif" font-size="10.00">navigation</text>
</a>
</g>
</g>
<!-- dir_3bc78b495b43d144b3cfcf1505da4112 -->
<g id="node16" class="node">
<title>dir_3bc78b495b43d144b3cfcf1505da4112</title>
<g id="a_node16"><a xlink:href="dir_3bc78b495b43d144b3cfcf1505da4112.html" target="_top" xlink:title="opengl_texture">
<polygon fill="#a2b4d6" stroke="#404040" points="1496,-90 1416,-90 1416,-71 1496,-71 1496,-90"/>
<text text-anchor="middle" x="1456" y="-78" font-family="Helvetica,sans-Serif" font-size="10.00">opengl_texture</text>
</a>
</g>
</g>
<!-- dir_3bc78b495b43d144b3cfcf1505da4112&#45;&gt;dir_cbd5181aa7335f7853461136929ffc5b -->
<g id="edge9" class="edge">
<title>dir_3bc78b495b43d144b3cfcf1505da4112&#45;&gt;dir_cbd5181aa7335f7853461136929ffc5b</title>
<path fill="none" stroke="#63b8ff" d="M1454.84,-70.75C1453.93,-63.8 1452.61,-53.85 1451.46,-45.13"/>
<polygon fill="#63b8ff" stroke="#63b8ff" points="1454.91,-44.54 1450.13,-35.09 1447.97,-45.46 1454.91,-44.54"/>
<g id="a_edge9&#45;headlabel"><a xlink:href="dir_000015_000025.html" target="_top" xlink:title="1">
<text text-anchor="middle" x="1458.2" y="-45.24" font-family="Helvetica,sans-Serif" font-size="10.00" fill="#63b8ff">1</text>
</a>
</g>
</g>
<!-- dir_ea144bd76ac85b4dc4797190240ee4f3 -->
<g id="node17" class="node">
<title>dir_ea144bd76ac85b4dc4797190240ee4f3</title>
<g id="a_node17"><a xlink:href="dir_ea144bd76ac85b4dc4797190240ee4f3.html" target="_top" xlink:title="package_info">
<polygon fill="#a2b4d6" stroke="#404040" points="885,-90 811,-90 811,-71 885,-71 885,-90"/>
<text text-anchor="middle" x="848" y="-78" font-family="Helvetica,sans-Serif" font-size="10.00">package_info</text>
</a>
</g>
</g>
<!-- dir_ea144bd76ac85b4dc4797190240ee4f3&#45;&gt;dir_a12c10b3e8a6cef69ec97b3594e428bc -->
<g id="edge10" class="edge">
<title>dir_ea144bd76ac85b4dc4797190240ee4f3&#45;&gt;dir_a12c10b3e8a6cef69ec97b3594e428bc</title>
<path fill="none" stroke="#63b8ff" d="M826.74,-70.88C819.05,-68.03 810.23,-65.06 802,-63 726.34,-44.09 635.13,-33.8 586.84,-29.31"/>
<polygon fill="#63b8ff" stroke="#63b8ff" points="586.92,-25.8 576.65,-28.39 586.29,-32.77 586.92,-25.8"/>
<g id="a_edge10&#45;headlabel"><a xlink:href="dir_000016_000011.html" target="_top" xlink:title="1">
<text text-anchor="middle" x="590.76" y="-20.8" font-family="Helvetica,sans-Serif" font-size="10.00" fill="#63b8ff">1</text>
</a>
</g>
</g>
<!-- dir_f6795e9bc0fae27dd08aa28032a6ff1c -->
<g id="node18" class="node">
<title>dir_f6795e9bc0fae27dd08aa28032a6ff1c</title>
<g id="a_node18"><a xlink:href="dir_f6795e9bc0fae27dd08aa28032a6ff1c.html" target="_top" xlink:title="platform">
<polygon fill="#a2b4d6" stroke="#404040" points="713,-90 661,-90 661,-71 713,-71 713,-90"/>
<text text-anchor="middle" x="687" y="-78" font-family="Helvetica,sans-Serif" font-size="10.00">platform</text>
</a>
</g>
</g>
<!-- dir_f6795e9bc0fae27dd08aa28032a6ff1c&#45;&gt;dir_a12c10b3e8a6cef69ec97b3594e428bc -->
<g id="edge11" class="edge">
<title>dir_f6795e9bc0fae27dd08aa28032a6ff1c&#45;&gt;dir_a12c10b3e8a6cef69ec97b3594e428bc</title>
<path fill="none" stroke="#63b8ff" d="M669.69,-70.97C664.09,-68.31 657.82,-65.44 652,-63 630.42,-53.96 605.73,-44.85 586.4,-38"/>
<polygon fill="#63b8ff" stroke="#63b8ff" points="587.42,-34.64 576.83,-34.63 585.1,-41.25 587.42,-34.64"/>
<g id="a_edge11&#45;headlabel"><a xlink:href="dir_000017_000011.html" target="_top" xlink:title="1">
<text text-anchor="middle" x="591.76" y="-30.66" font-family="Helvetica,sans-Serif" font-size="10.00" fill="#63b8ff">1</text>
</a>
</g>
</g>
<!-- dir_258d5d99ba8dcb17c865b7835783c37e -->
<g id="node19" class="node">
<title>dir_258d5d99ba8dcb17c865b7835783c37e</title>
<g id="a_node19"><a xlink:href="dir_258d5d99ba8dcb17c865b7835783c37e.html" target="_top" xlink:title="platform_views">
<polygon fill="#a2b4d6" stroke="#404040" points="642.5,-90 559.5,-90 559.5,-71 642.5,-71 642.5,-90"/>
<text text-anchor="middle" x="601" y="-78" font-family="Helvetica,sans-Serif" font-size="10.00">platform_views</text>
</a>
</g>
</g>
<!-- dir_258d5d99ba8dcb17c865b7835783c37e&#45;&gt;dir_a12c10b3e8a6cef69ec97b3594e428bc -->
<g id="edge12" class="edge">
<title>dir_258d5d99ba8dcb17c865b7835783c37e&#45;&gt;dir_a12c10b3e8a6cef69ec97b3594e428bc</title>
<path fill="none" stroke="#63b8ff" d="M593.07,-70.75C586.15,-63.11 575.93,-51.82 567.55,-42.56"/>
<polygon fill="#63b8ff" stroke="#63b8ff" points="570.09,-40.15 560.78,-35.09 564.9,-44.85 570.09,-40.15"/>
<g id="a_edge12&#45;headlabel"><a xlink:href="dir_000018_000011.html" target="_top" xlink:title="1">
<text text-anchor="middle" x="574.6" y="-38.41" font-family="Helvetica,sans-Serif" font-size="10.00" fill="#63b8ff">1</text>
</a>
</g>
</g>
<!-- dir_45a92ff5b77a5d3ed8aaac323a188a80 -->
<g id="node20" class="node">
<title>dir_45a92ff5b77a5d3ed8aaac323a188a80</title>
<g id="a_node20"><a xlink:href="dir_45a92ff5b77a5d3ed8aaac323a188a80.html" target="_top" xlink:title="restoration">
<polygon fill="#a2b4d6" stroke="#404040" points="452,-90 390,-90 390,-71 452,-71 452,-90"/>
<text text-anchor="middle" x="421" y="-78" font-family="Helvetica,sans-Serif" font-size="10.00">restoration</text>
</a>
</g>
</g>
<!-- dir_45a92ff5b77a5d3ed8aaac323a188a80&#45;&gt;dir_a12c10b3e8a6cef69ec97b3594e428bc -->
<g id="edge13" class="edge">
<title>dir_45a92ff5b77a5d3ed8aaac323a188a80&#45;&gt;dir_a12c10b3e8a6cef69ec97b3594e428bc</title>
<path fill="none" stroke="#63b8ff" d="M442.28,-70.93C448.62,-68.38 455.59,-65.57 462,-63 481.94,-54.99 504.34,-46 521.92,-38.95"/>
<polygon fill="#63b8ff" stroke="#63b8ff" points="523.69,-42.02 531.67,-35.05 521.08,-35.52 523.69,-42.02"/>
<g id="a_edge13&#45;headlabel"><a xlink:href="dir_000019_000011.html" target="_top" xlink:title="1">
<text text-anchor="middle" x="521.41" y="-43.49" font-family="Helvetica,sans-Serif" font-size="10.00" fill="#63b8ff">1</text>
</a>
</g>
</g>
<!-- dir_9e7c465d19b79abef65e02dc03538835 -->
<g id="node21" class="node">
<title>dir_9e7c465d19b79abef65e02dc03538835</title>
<g id="a_node21"><a xlink:href="dir_9e7c465d19b79abef65e02dc03538835.html" target="_top" xlink:title="secure_storage">
<polygon fill="#a2b4d6" stroke="#404040" points="264.5,-90 181.5,-90 181.5,-71 264.5,-71 264.5,-90"/>
<text text-anchor="middle" x="223" y="-78" font-family="Helvetica,sans-Serif" font-size="10.00">secure_storage</text>
</a>
</g>
</g>
<!-- dir_9e7c465d19b79abef65e02dc03538835&#45;&gt;dir_a12c10b3e8a6cef69ec97b3594e428bc -->
<g id="edge14" class="edge">
<title>dir_9e7c465d19b79abef65e02dc03538835&#45;&gt;dir_a12c10b3e8a6cef69ec97b3594e428bc</title>
<path fill="none" stroke="#63b8ff" d="M246.36,-70.95C254.96,-68.07 264.83,-65.06 274,-63 361.16,-43.37 466.19,-33.16 519.07,-28.93"/>
<polygon fill="#63b8ff" stroke="#63b8ff" points="519.53,-32.4 529.23,-28.14 518.99,-25.42 519.53,-32.4"/>
<g id="a_edge14&#45;headlabel"><a xlink:href="dir_000020_000011.html" target="_top" xlink:title="2">
<text text-anchor="middle" x="516.17" y="-33.01" font-family="Helvetica,sans-Serif" font-size="10.00" fill="#63b8ff">2</text>
</a>
</g>
</g>
<!-- dir_06b1c224081b49f6ece928cdd733a10f -->
<g id="node22" class="node">
<title>dir_06b1c224081b49f6ece928cdd733a10f</title>
<g id="a_node22"><a xlink:href="dir_06b1c224081b49f6ece928cdd733a10f.html" target="_top" xlink:title="text_input">
<polygon fill="#a2b4d6" stroke="#404040" points="163.5,-90 104.5,-90 104.5,-71 163.5,-71 163.5,-90"/>
<text text-anchor="middle" x="134" y="-78" font-family="Helvetica,sans-Serif" font-size="10.00">text_input</text>
</a>
</g>
</g>
<!-- dir_474a281e1fa1f0e9fee98a4179830dab -->
<g id="node23" class="node">
<title>dir_474a281e1fa1f0e9fee98a4179830dab</title>
<g id="a_node23"><a xlink:href="dir_474a281e1fa1f0e9fee98a4179830dab.html" target="_top" xlink:title="url_launcher">
<polygon fill="#a2b4d6" stroke="#404040" points="972.5,-90 903.5,-90 903.5,-71 972.5,-71 972.5,-90"/>
<text text-anchor="middle" x="938" y="-78" font-family="Helvetica,sans-Serif" font-size="10.00">url_launcher</text>
</a>
</g>
</g>
<!-- dir_474a281e1fa1f0e9fee98a4179830dab&#45;&gt;dir_a12c10b3e8a6cef69ec97b3594e428bc -->
<g id="edge15" class="edge">
<title>dir_474a281e1fa1f0e9fee98a4179830dab&#45;&gt;dir_a12c10b3e8a6cef69ec97b3594e428bc</title>
<path fill="none" stroke="#63b8ff" d="M918.18,-70.85C910.73,-67.93 902.1,-64.92 894,-63 783.87,-36.9 649.28,-29.44 587.27,-27.32"/>
<polygon fill="#63b8ff" stroke="#63b8ff" points="587.02,-23.81 576.91,-27 586.8,-30.81 587.02,-23.81"/>
<g id="a_edge15&#45;headlabel"><a xlink:href="dir_000026_000011.html" target="_top" xlink:title="1">
<text text-anchor="middle" x="590.7" y="-18.59" font-family="Helvetica,sans-Serif" font-size="10.00" fill="#63b8ff">1</text>
</a>
</g>
</g>
</g>
</svg>
