<?xml version="1.0" encoding="UTF-8" standalone="no"?>
<!DOCTYPE svg PUBLIC "-//W3C//DTD SVG 1.1//EN"
 "http://www.w3.org/Graphics/SVG/1.1/DTD/svg11.dtd">
<!-- Generated by graphviz version 2.43.0 (0)
 -->
<!-- Title: /home/joel.winarske@toyotaconnected.com/development/workspace&#45;automation&#45;configs/app/ivi&#45;homescreen/shell/textures Pages: 1 -->
<svg width="300pt" height="247pt"
 viewBox="0.00 0.00 300.00 247.00" xmlns="http://www.w3.org/2000/svg" xmlns:xlink="http://www.w3.org/1999/xlink">
<g id="graph0" class="graph" transform="scale(1 1) rotate(0) translate(4 243)">
<title>/home/joel.winarske@toyotaconnected.com/development/workspace&#45;automation&#45;configs/app/ivi&#45;homescreen/shell/textures</title>
<polygon fill="white" stroke="transparent" points="-4,4 -4,-243 296,-243 296,4 -4,4"/>
<g id="clust1" class="cluster">
<title>clusterdir_71eb729dfe620fdc00a342f30f6592a7</title>
<g id="a_clust1"><a xlink:href="dir_71eb729dfe620fdc00a342f30f6592a7.html" target="_top" xlink:title="shell">
<polygon fill="#ddddee" stroke="black" points="8,-8 8,-231 284,-231 284,-8 8,-8"/>
<text text-anchor="middle" x="146" y="-219" font-family="Helvetica,sans-Serif" font-size="10.00">shell</text>
</a>
</g>
</g>
<g id="clust2" class="cluster">
<title>clusterdir_cbd5181aa7335f7853461136929ffc5b</title>
<g id="a_clust2"><a xlink:href="dir_cbd5181aa7335f7853461136929ffc5b.html" target="_top">
<polygon fill="#eeeeff" stroke="black" points="16,-80 16,-204 276,-204 276,-80 16,-80"/>
</a>
</g>
</g>
<!-- dir_35b1bce254f5b2507c468c8ff86af821 -->
<g id="node1" class="node">
<title>dir_35b1bce254f5b2507c468c8ff86af821</title>
<g id="a_node1"><a xlink:href="dir_35b1bce254f5b2507c468c8ff86af821.html" target="_top" xlink:title="backend">
<polygon fill="none" stroke="black" points="99.5,-52 42.5,-52 42.5,-16 99.5,-16 99.5,-52"/>
<text text-anchor="middle" x="71" y="-31.5" font-family="Helvetica,sans-Serif" font-size="10.00">backend</text>
</a>
</g>
</g>
<!-- dir_a2d99a8074d97da561b7fb6f8afb5301 -->
<g id="node2" class="node">
<title>dir_a2d99a8074d97da561b7fb6f8afb5301</title>
<g id="a_node2"><a xlink:href="dir_a2d99a8074d97da561b7fb6f8afb5301.html" target="_top" xlink:title="view">
<polygon fill="none" stroke="black" points="182,-52 128,-52 128,-16 182,-16 182,-52"/>
<text text-anchor="middle" x="155" y="-31.5" font-family="Helvetica,sans-Serif" font-size="10.00">view</text>
</a>
</g>
</g>
<!-- dir_cbd5181aa7335f7853461136929ffc5b -->
<g id="node3" class="node">
<title>dir_cbd5181aa7335f7853461136929ffc5b</title>
<text text-anchor="middle" x="239" y="-175.5" font-family="Helvetica,sans-Serif" font-size="10.00">textures</text>
</g>
<!-- dir_450a1e92fb0b97c093fde235babe0ff2 -->
<g id="node4" class="node">
<title>dir_450a1e92fb0b97c093fde235babe0ff2</title>
<g id="a_node4"><a xlink:href="dir_450a1e92fb0b97c093fde235babe0ff2.html" target="_top" xlink:title="egl">
<polygon fill="white" stroke="black" points="192,-196 138,-196 138,-160 192,-160 192,-196"/>
<text text-anchor="middle" x="165" y="-175.5" font-family="Helvetica,sans-Serif" font-size="10.00">egl</text>
</a>
</g>
</g>
<!-- dir_450a1e92fb0b97c093fde235babe0ff2&#45;&gt;dir_a2d99a8074d97da561b7fb6f8afb5301 -->
<g id="edge6" class="edge">
<title>dir_450a1e92fb0b97c093fde235babe0ff2&#45;&gt;dir_a2d99a8074d97da561b7fb6f8afb5301</title>
<path fill="none" stroke="black" d="M164.42,-159.81C163.7,-140.4 162.27,-107.9 160,-80 159.53,-74.22 158.92,-68.04 158.28,-62.16"/>
<polygon fill="black" stroke="black" points="161.74,-61.61 157.14,-52.07 154.79,-62.4 161.74,-61.61"/>
<g id="a_edge6&#45;headlabel"><a xlink:href="dir_000022_000025.html" target="_top" xlink:title="1">
<text text-anchor="middle" x="164.97" y="-62.37" font-family="Helvetica,sans-Serif" font-size="10.00">1</text>
</a>
</g>
</g>
<!-- dir_9f23322903599d4a0d252f0039a5cb38 -->
<g id="node6" class="node">
<title>dir_9f23322903599d4a0d252f0039a5cb38</title>
<g id="a_node6"><a xlink:href="dir_9f23322903599d4a0d252f0039a5cb38.html" target="_top" xlink:title="test_egl">
<polygon fill="white" stroke="black" points="136,-124 80,-124 80,-88 136,-88 136,-124"/>
<text text-anchor="middle" x="108" y="-103.5" font-family="Helvetica,sans-Serif" font-size="10.00">test_egl</text>
</a>
</g>
</g>
<!-- dir_450a1e92fb0b97c093fde235babe0ff2&#45;&gt;dir_9f23322903599d4a0d252f0039a5cb38 -->
<g id="edge5" class="edge">
<title>dir_450a1e92fb0b97c093fde235babe0ff2&#45;&gt;dir_9f23322903599d4a0d252f0039a5cb38</title>
<path fill="none" stroke="black" d="M150.91,-159.7C144.08,-151.3 135.74,-141.07 128.24,-131.86"/>
<polygon fill="black" stroke="black" points="130.96,-129.65 121.93,-124.1 125.53,-134.07 130.96,-129.65"/>
<g id="a_edge5&#45;headlabel"><a xlink:href="dir_000022_000024.html" target="_top" xlink:title="1">
<text text-anchor="middle" x="135.43" y="-128.14" font-family="Helvetica,sans-Serif" font-size="10.00">1</text>
</a>
</g>
</g>
<!-- dir_6992419951a4d6f5d3a31fc48a6b0aed -->
<g id="node5" class="node">
<title>dir_6992419951a4d6f5d3a31fc48a6b0aed</title>
<g id="a_node5"><a xlink:href="dir_6992419951a4d6f5d3a31fc48a6b0aed.html" target="_top" xlink:title="navi_render_egl">
<polygon fill="white" stroke="black" points="119.5,-196 24.5,-196 24.5,-160 119.5,-160 119.5,-196"/>
<text text-anchor="middle" x="72" y="-175.5" font-family="Helvetica,sans-Serif" font-size="10.00">navi_render_egl</text>
</a>
</g>
</g>
<!-- dir_6992419951a4d6f5d3a31fc48a6b0aed&#45;&gt;dir_35b1bce254f5b2507c468c8ff86af821 -->
<g id="edge3" class="edge">
<title>dir_6992419951a4d6f5d3a31fc48a6b0aed&#45;&gt;dir_35b1bce254f5b2507c468c8ff86af821</title>
<path fill="none" stroke="black" d="M71.59,-159.82C71.37,-149.44 71.11,-135.96 71,-124 70.8,-103.27 70.81,-79.83 70.87,-62.21"/>
<polygon fill="black" stroke="black" points="74.37,-62.08 70.9,-52.06 67.37,-62.05 74.37,-62.08"/>
<g id="a_edge3&#45;headlabel"><a xlink:href="dir_000023_000001.html" target="_top" xlink:title="1">
<text text-anchor="middle" x="77.19" y="-63.18" font-family="Helvetica,sans-Serif" font-size="10.00">1</text>
</a>
</g>
</g>
<!-- dir_6992419951a4d6f5d3a31fc48a6b0aed&#45;&gt;dir_a2d99a8074d97da561b7fb6f8afb5301 -->
<g id="edge4" class="edge">
<title>dir_6992419951a4d6f5d3a31fc48a6b0aed&#45;&gt;dir_a2d99a8074d97da561b7fb6f8afb5301</title>
<path fill="none" stroke="black" d="M106.93,-159.95C121.1,-151.2 136.17,-139.16 145,-124 155.79,-105.47 157.86,-81.07 157.47,-62.51"/>
<polygon fill="black" stroke="black" points="160.96,-62.17 157,-52.34 153.96,-62.49 160.96,-62.17"/>
<g id="a_edge4&#45;headlabel"><a xlink:href="dir_000023_000025.html" target="_top" xlink:title="1">
<text text-anchor="middle" x="163.96" y="-63.13" font-family="Helvetica,sans-Serif" font-size="10.00">1</text>
</a>
</g>
</g>
<!-- dir_9f23322903599d4a0d252f0039a5cb38&#45;&gt;dir_35b1bce254f5b2507c468c8ff86af821 -->
<g id="edge1" class="edge">
<title>dir_9f23322903599d4a0d252f0039a5cb38&#45;&gt;dir_35b1bce254f5b2507c468c8ff86af821</title>
<path fill="none" stroke="black" d="M98.85,-87.7C94.6,-79.64 89.44,-69.89 84.73,-60.98"/>
<polygon fill="black" stroke="black" points="87.81,-59.31 80.04,-52.1 81.62,-62.58 87.81,-59.31"/>
<g id="a_edge1&#45;headlabel"><a xlink:href="dir_000024_000001.html" target="_top" xlink:title="1">
<text text-anchor="middle" x="92" y="-58.66" font-family="Helvetica,sans-Serif" font-size="10.00">1</text>
</a>
</g>
</g>
<!-- dir_9f23322903599d4a0d252f0039a5cb38&#45;&gt;dir_a2d99a8074d97da561b7fb6f8afb5301 -->
<g id="edge2" class="edge">
<title>dir_9f23322903599d4a0d252f0039a5cb38&#45;&gt;dir_a2d99a8074d97da561b7fb6f8afb5301</title>
<path fill="none" stroke="black" d="M119.62,-87.7C125.14,-79.47 131.85,-69.48 137.93,-60.42"/>
<polygon fill="black" stroke="black" points="140.85,-62.36 143.52,-52.1 135.04,-58.46 140.85,-62.36"/>
<g id="a_edge2&#45;headlabel"><a xlink:href="dir_000024_000025.html" target="_top" xlink:title="1">
<text text-anchor="middle" x="141.2" y="-64.42" font-family="Helvetica,sans-Serif" font-size="10.00">1</text>
</a>
</g>
</g>
</g>
</svg>
