<?xml version="1.0" encoding="UTF-8" standalone="no"?>
<!DOCTYPE svg PUBLIC "-//W3C//DTD SVG 1.1//EN"
 "http://www.w3.org/Graphics/SVG/1.1/DTD/svg11.dtd">
<!-- Generated by graphviz version 5.0.0 (0)
 -->
<!-- Title: /mnt/raid10/stargate/ivi&#45;homescreen/shell Pages: 1 -->
<svg width="272pt" height="389pt"
 viewBox="0.00 0.00 272.00 389.00" xmlns="http://www.w3.org/2000/svg" xmlns:xlink="http://www.w3.org/1999/xlink">
<g id="graph0" class="graph" transform="scale(1 1) rotate(0) translate(4 385)">
<title>/mnt/raid10/stargate/ivi&#45;homescreen/shell</title>
<g id="clust1" class="cluster">
<title>clusterdir_71eb729dfe620fdc00a342f30f6592a7</title>
<g id="a_clust1"><a xlink:href="dir_71eb729dfe620fdc00a342f30f6592a7.html" target="_top">
<polygon fill="#edf0f7" stroke="#404040" stroke-width="2" points="8,-8 8,-373 256,-373 256,-8 8,-8"/>
</a>
</g>
</g>
<!-- dir_71eb729dfe620fdc00a342f30f6592a7 -->
<g id="node1" class="node">
<title>dir_71eb729dfe620fdc00a342f30f6592a7</title>
<text text-anchor="middle" x="91" y="-353" font-family="Helvetica,sans-Serif" font-size="10.00">shell</text>
</g>
<!-- dir_35b1bce254f5b2507c468c8ff86af821 -->
<g id="node2" class="node">
<title>dir_35b1bce254f5b2507c468c8ff86af821</title>
<g id="a_node2"><a xlink:href="dir_35b1bce254f5b2507c468c8ff86af821.html" target="_top" xlink:title="backend">
<polygon fill="#a2b4d6" stroke="#404040" points="199.5,-90 146.5,-90 146.5,-71 199.5,-71 199.5,-90"/>
<text text-anchor="middle" x="173" y="-78" font-family="Helvetica,sans-Serif" font-size="10.00">backend</text>
</a>
</g>
</g>
<!-- dir_71eb729dfe620fdc00a342f30f6592a7&#45;&gt;dir_35b1bce254f5b2507c468c8ff86af821 -->
<g id="edge2" class="edge">
<title>dir_71eb729dfe620fdc00a342f30f6592a7&#45;&gt;dir_35b1bce254f5b2507c468c8ff86af821</title>
<path fill="none" stroke="#63b8ff" d="M109.54,-353.03C135.57,-349.91 182.38,-340.18 206,-310 233.1,-275.38 202.29,-126.83 202,-126 198.48,-116.02 192.29,-106.04 186.53,-98.07"/>
<polygon fill="#63b8ff" stroke="#63b8ff" points="189.23,-95.84 180.37,-90.03 183.67,-100.1 189.23,-95.84"/>
<g id="a_edge2&#45;headlabel"><a xlink:href="dir_000021_000001.html" target="_top" xlink:title="5">
<text text-anchor="middle" x="193.67" y="-94.47" font-family="Helvetica,sans-Serif" font-size="10.00" fill="#63b8ff">5</text>
</a>
</g>
</g>
<!-- dir_c9c0daff397b3190feb779cec5a4ac58 -->
<g id="node3" class="node">
<title>dir_c9c0daff397b3190feb779cec5a4ac58</title>
<g id="a_node3"><a xlink:href="dir_c9c0daff397b3190feb779cec5a4ac58.html" target="_top" xlink:title="configuration">
<polygon fill="#a2b4d6" stroke="#404040" points="108,-90 36,-90 36,-71 108,-71 108,-90"/>
<text text-anchor="middle" x="72" y="-78" font-family="Helvetica,sans-Serif" font-size="10.00">configuration</text>
</a>
</g>
</g>
<!-- dir_71eb729dfe620fdc00a342f30f6592a7&#45;&gt;dir_c9c0daff397b3190feb779cec5a4ac58 -->
<g id="edge6" class="edge">
<title>dir_71eb729dfe620fdc00a342f30f6592a7&#45;&gt;dir_c9c0daff397b3190feb779cec5a4ac58</title>
<path fill="none" stroke="#63b8ff" d="M83.26,-345.99C68.33,-328.64 37,-287.38 37,-246.5 37,-246.5 37,-246.5 37,-189.5 37,-156.3 52.15,-120.03 62.52,-99.11"/>
<polygon fill="#63b8ff" stroke="#63b8ff" points="65.66,-100.64 67.13,-90.15 59.44,-97.44 65.66,-100.64"/>
<g id="a_edge6&#45;headlabel"><a xlink:href="dir_000021_000004.html" target="_top" xlink:title="6">
<text text-anchor="middle" x="66.54" y="-102.64" font-family="Helvetica,sans-Serif" font-size="10.00" fill="#63b8ff">6</text>
</a>
</g>
</g>
<!-- dir_a12c10b3e8a6cef69ec97b3594e428bc -->
<g id="node4" class="node">
<title>dir_a12c10b3e8a6cef69ec97b3594e428bc</title>
<g id="a_node4"><a xlink:href="dir_a12c10b3e8a6cef69ec97b3594e428bc.html" target="_top" xlink:title="logging">
<polygon fill="#a2b4d6" stroke="#404040" points="150.5,-35 103.5,-35 103.5,-16 150.5,-16 150.5,-35"/>
<text text-anchor="middle" x="127" y="-23" font-family="Helvetica,sans-Serif" font-size="10.00">logging</text>
</a>
</g>
</g>
<!-- dir_71eb729dfe620fdc00a342f30f6592a7&#45;&gt;dir_a12c10b3e8a6cef69ec97b3594e428bc -->
<g id="edge4" class="edge">
<title>dir_71eb729dfe620fdc00a342f30f6592a7&#45;&gt;dir_a12c10b3e8a6cef69ec97b3594e428bc</title>
<path fill="none" stroke="#63b8ff" d="M79.44,-345.81C58.62,-329.07 17,-290.14 17,-246.5 17,-246.5 17,-246.5 17,-134.5 17,-105.93 9.62,-93.67 27,-71 43.04,-50.08 71.07,-38.76 93.38,-32.79"/>
<polygon fill="#63b8ff" stroke="#63b8ff" points="94.28,-36.17 103.16,-30.4 92.62,-29.37 94.28,-36.17"/>
<g id="a_edge4&#45;headlabel"><a xlink:href="dir_000021_000011.html" target="_top" xlink:title="21">
<text text-anchor="middle" x="91.46" y="-37.28" font-family="Helvetica,sans-Serif" font-size="10.00" fill="#63b8ff">21</text>
</a>
</g>
</g>
<!-- dir_79cb9064b670fb5f58fc52d27b952f67 -->
<g id="node5" class="node">
<title>dir_79cb9064b670fb5f58fc52d27b952f67</title>
<g id="a_node5"><a xlink:href="dir_79cb9064b670fb5f58fc52d27b952f67.html" target="_top" xlink:title="static_plugins">
<polygon fill="#a2b4d6" stroke="#404040" points="187.5,-310 110.5,-310 110.5,-291 187.5,-291 187.5,-310"/>
<text text-anchor="middle" x="149" y="-298" font-family="Helvetica,sans-Serif" font-size="10.00">static_plugins</text>
</a>
</g>
</g>
<!-- dir_71eb729dfe620fdc00a342f30f6592a7&#45;&gt;dir_79cb9064b670fb5f58fc52d27b952f67 -->
<g id="edge3" class="edge">
<title>dir_71eb729dfe620fdc00a342f30f6592a7&#45;&gt;dir_79cb9064b670fb5f58fc52d27b952f67</title>
<path fill="none" stroke="#63b8ff" d="M100.32,-345.98C108.81,-338.23 121.56,-326.58 131.88,-317.14"/>
<polygon fill="#63b8ff" stroke="#63b8ff" points="134.49,-319.5 139.51,-310.17 129.77,-314.33 134.49,-319.5"/>
<g id="a_edge3&#45;headlabel"><a xlink:href="dir_000021_000022.html" target="_top" xlink:title="4">
<text text-anchor="middle" x="133.75" y="-321.52" font-family="Helvetica,sans-Serif" font-size="10.00" fill="#63b8ff">4</text>
</a>
</g>
</g>
<!-- dir_cbd5181aa7335f7853461136929ffc5b -->
<g id="node6" class="node">
<title>dir_cbd5181aa7335f7853461136929ffc5b</title>
<g id="a_node6"><a xlink:href="dir_cbd5181aa7335f7853461136929ffc5b.html" target="_top" xlink:title="textures">
<polygon fill="#a2b4d6" stroke="#404040" points="148,-255 96,-255 96,-236 148,-236 148,-255"/>
<text text-anchor="middle" x="122" y="-243" font-family="Helvetica,sans-Serif" font-size="10.00">textures</text>
</a>
</g>
</g>
<!-- dir_71eb729dfe620fdc00a342f30f6592a7&#45;&gt;dir_cbd5181aa7335f7853461136929ffc5b -->
<g id="edge7" class="edge">
<title>dir_71eb729dfe620fdc00a342f30f6592a7&#45;&gt;dir_cbd5181aa7335f7853461136929ffc5b</title>
<path fill="none" stroke="#63b8ff" d="M91.82,-345.71C93.13,-333.3 96.17,-310.04 102,-291 104.79,-281.89 108.99,-272.19 112.82,-264.18"/>
<polygon fill="#63b8ff" stroke="#63b8ff" points="116.01,-265.62 117.34,-255.11 109.75,-262.5 116.01,-265.62"/>
<g id="a_edge7&#45;headlabel"><a xlink:href="dir_000021_000025.html" target="_top" xlink:title="4">
<text text-anchor="middle" x="116.95" y="-267.61" font-family="Helvetica,sans-Serif" font-size="10.00" fill="#63b8ff">4</text>
</a>
</g>
</g>
<!-- dir_a2d99a8074d97da561b7fb6f8afb5301 -->
<g id="node7" class="node">
<title>dir_a2d99a8074d97da561b7fb6f8afb5301</title>
<g id="a_node7"><a xlink:href="dir_a2d99a8074d97da561b7fb6f8afb5301.html" target="_top" xlink:title="view">
<polygon fill="#a2b4d6" stroke="#404040" points="93.5,-200 56.5,-200 56.5,-181 93.5,-181 93.5,-200"/>
<text text-anchor="middle" x="75" y="-188" font-family="Helvetica,sans-Serif" font-size="10.00">view</text>
</a>
</g>
</g>
<!-- dir_71eb729dfe620fdc00a342f30f6592a7&#45;&gt;dir_a2d99a8074d97da561b7fb6f8afb5301 -->
<g id="edge5" class="edge">
<title>dir_71eb729dfe620fdc00a342f30f6592a7&#45;&gt;dir_a2d99a8074d97da561b7fb6f8afb5301</title>
<path fill="none" stroke="#63b8ff" d="M89.11,-345.77C85.5,-328.53 77.7,-288.83 75,-255 73.8,-240.02 73.88,-223 74.22,-210.35"/>
<polygon fill="#63b8ff" stroke="#63b8ff" points="77.72,-210.26 74.56,-200.14 70.72,-210.02 77.72,-210.26"/>
<g id="a_edge5&#45;headlabel"><a xlink:href="dir_000021_000027.html" target="_top" xlink:title="7">
<text text-anchor="middle" x="80.43" y="-211.45" font-family="Helvetica,sans-Serif" font-size="10.00" fill="#63b8ff">7</text>
</a>
</g>
</g>
<!-- dir_29feba7cb98f5ae4aa6ed0ad4dfc7add -->
<g id="node8" class="node">
<title>dir_29feba7cb98f5ae4aa6ed0ad4dfc7add</title>
<g id="a_node8"><a xlink:href="dir_29feba7cb98f5ae4aa6ed0ad4dfc7add.html" target="_top" xlink:title="wayland">
<polygon fill="#a2b4d6" stroke="#404040" points="187.5,-145 134.5,-145 134.5,-126 187.5,-126 187.5,-145"/>
<text text-anchor="middle" x="161" y="-133" font-family="Helvetica,sans-Serif" font-size="10.00">wayland</text>
</a>
</g>
</g>
<!-- dir_71eb729dfe620fdc00a342f30f6592a7&#45;&gt;dir_29feba7cb98f5ae4aa6ed0ad4dfc7add -->
<g id="edge1" class="edge">
<title>dir_71eb729dfe620fdc00a342f30f6592a7&#45;&gt;dir_29feba7cb98f5ae4aa6ed0ad4dfc7add</title>
<path fill="none" stroke="#63b8ff" d="M109.89,-352.75C134.74,-349.32 177.55,-339.25 197,-310 229.86,-260.57 192.73,-187.09 172.45,-153.89"/>
<polygon fill="#63b8ff" stroke="#63b8ff" points="175.33,-151.88 167.02,-145.3 169.41,-155.62 175.33,-151.88"/>
<g id="a_edge1&#45;headlabel"><a xlink:href="dir_000021_000028.html" target="_top" xlink:title="6">
<text text-anchor="middle" x="179.65" y="-150.91" font-family="Helvetica,sans-Serif" font-size="10.00" fill="#63b8ff">6</text>
</a>
</g>
</g>
<!-- dir_35b1bce254f5b2507c468c8ff86af821&#45;&gt;dir_a12c10b3e8a6cef69ec97b3594e428bc -->
<g id="edge8" class="edge">
<title>dir_35b1bce254f5b2507c468c8ff86af821&#45;&gt;dir_a12c10b3e8a6cef69ec97b3594e428bc</title>
<path fill="none" stroke="#63b8ff" d="M165.4,-70.75C158.84,-63.18 149.18,-52.05 141.19,-42.84"/>
<polygon fill="#63b8ff" stroke="#63b8ff" points="143.65,-40.35 134.45,-35.09 138.37,-44.94 143.65,-40.35"/>
<g id="a_edge8&#45;headlabel"><a xlink:href="dir_000001_000011.html" target="_top" xlink:title="2">
<text text-anchor="middle" x="148.15" y="-38.7" font-family="Helvetica,sans-Serif" font-size="10.00" fill="#63b8ff">2</text>
</a>
</g>
</g>
<!-- dir_c9c0daff397b3190feb779cec5a4ac58&#45;&gt;dir_a12c10b3e8a6cef69ec97b3594e428bc -->
<g id="edge9" class="edge">
<title>dir_c9c0daff397b3190feb779cec5a4ac58&#45;&gt;dir_a12c10b3e8a6cef69ec97b3594e428bc</title>
<path fill="none" stroke="#63b8ff" d="M81.08,-70.75C89.09,-63.03 100.96,-51.6 110.62,-42.28"/>
<polygon fill="#63b8ff" stroke="#63b8ff" points="113.31,-44.55 118.09,-35.09 108.46,-39.51 113.31,-44.55"/>
<g id="a_edge9&#45;headlabel"><a xlink:href="dir_000004_000011.html" target="_top" xlink:title="1">
<text text-anchor="middle" x="112.7" y="-46.59" font-family="Helvetica,sans-Serif" font-size="10.00" fill="#63b8ff">1</text>
</a>
</g>
</g>
<!-- dir_79cb9064b670fb5f58fc52d27b952f67&#45;&gt;dir_35b1bce254f5b2507c468c8ff86af821 -->
<g id="edge11" class="edge">
<title>dir_79cb9064b670fb5f58fc52d27b952f67&#45;&gt;dir_35b1bce254f5b2507c468c8ff86af821</title>
<path fill="none" stroke="#63b8ff" d="M152.78,-290.67C162.53,-267.39 188.32,-202.21 197,-145 198.27,-136.65 199.07,-134.19 197,-126 194.59,-116.44 189.67,-106.7 184.91,-98.78"/>
<polygon fill="#63b8ff" stroke="#63b8ff" points="187.72,-96.68 179.37,-90.16 181.83,-100.46 187.72,-96.68"/>
<g id="a_edge11&#45;headlabel"><a xlink:href="dir_000022_000001.html" target="_top" xlink:title="1">
<text text-anchor="middle" x="192.05" y="-95.66" font-family="Helvetica,sans-Serif" font-size="10.00" fill="#63b8ff">1</text>
</a>
</g>
</g>
<!-- dir_79cb9064b670fb5f58fc52d27b952f67&#45;&gt;dir_a12c10b3e8a6cef69ec97b3594e428bc -->
<g id="edge12" class="edge">
<title>dir_79cb9064b670fb5f58fc52d27b952f67&#45;&gt;dir_a12c10b3e8a6cef69ec97b3594e428bc</title>
<path fill="none" stroke="#63b8ff" d="M155.6,-290.97C179.06,-259.51 254.72,-147.84 209,-71 198.45,-53.27 178.09,-42.16 160.3,-35.48"/>
<polygon fill="#63b8ff" stroke="#63b8ff" points="161.35,-32.14 150.76,-32.21 159.08,-38.76 161.35,-32.14"/>
<g id="a_edge12&#45;headlabel"><a xlink:href="dir_000022_000011.html" target="_top" xlink:title="11">
<text text-anchor="middle" x="165.67" y="-28.12" font-family="Helvetica,sans-Serif" font-size="10.00" fill="#63b8ff">11</text>
</a>
</g>
</g>
<!-- dir_79cb9064b670fb5f58fc52d27b952f67&#45;&gt;dir_cbd5181aa7335f7853461136929ffc5b -->
<g id="edge14" class="edge">
<title>dir_79cb9064b670fb5f58fc52d27b952f67&#45;&gt;dir_cbd5181aa7335f7853461136929ffc5b</title>
<path fill="none" stroke="#63b8ff" d="M144.54,-290.75C140.88,-283.57 135.59,-273.18 131.05,-264.27"/>
<polygon fill="#63b8ff" stroke="#63b8ff" points="134.03,-262.41 126.38,-255.09 127.8,-265.59 134.03,-262.41"/>
<g id="a_edge14&#45;headlabel"><a xlink:href="dir_000022_000025.html" target="_top" xlink:title="2">
<text text-anchor="middle" x="138.2" y="-261.82" font-family="Helvetica,sans-Serif" font-size="10.00" fill="#63b8ff">2</text>
</a>
</g>
</g>
<!-- dir_79cb9064b670fb5f58fc52d27b952f67&#45;&gt;dir_a2d99a8074d97da561b7fb6f8afb5301 -->
<g id="edge13" class="edge">
<title>dir_79cb9064b670fb5f58fc52d27b952f67&#45;&gt;dir_a2d99a8074d97da561b7fb6f8afb5301</title>
<path fill="none" stroke="#63b8ff" d="M130.26,-290.95C116.1,-283.49 97.4,-271.31 87,-255 78.51,-241.68 75.73,-223.81 74.94,-210.42"/>
<polygon fill="#63b8ff" stroke="#63b8ff" points="78.43,-209.94 74.68,-200.03 71.44,-210.12 78.43,-209.94"/>
<g id="a_edge13&#45;headlabel"><a xlink:href="dir_000022_000027.html" target="_top" xlink:title="1">
<text text-anchor="middle" x="81.36" y="-210.96" font-family="Helvetica,sans-Serif" font-size="10.00" fill="#63b8ff">1</text>
</a>
</g>
</g>
<!-- dir_79cb9064b670fb5f58fc52d27b952f67&#45;&gt;dir_29feba7cb98f5ae4aa6ed0ad4dfc7add -->
<g id="edge10" class="edge">
<title>dir_79cb9064b670fb5f58fc52d27b952f67&#45;&gt;dir_29feba7cb98f5ae4aa6ed0ad4dfc7add</title>
<path fill="none" stroke="#63b8ff" d="M144.17,-290.69C143.88,-281.75 146.67,-267.49 148,-255 151.74,-219.82 152.26,-178.46 154.92,-155.08"/>
<polygon fill="#63b8ff" stroke="#63b8ff" points="158.39,-155.56 156.43,-145.15 151.47,-154.52 158.39,-155.56"/>
<g id="a_edge10&#45;headlabel"><a xlink:href="dir_000022_000028.html" target="_top" xlink:title="1">
<text text-anchor="middle" x="160.66" y="-157.04" font-family="Helvetica,sans-Serif" font-size="10.00" fill="#63b8ff">1</text>
</a>
</g>
</g>
<!-- dir_cbd5181aa7335f7853461136929ffc5b&#45;&gt;dir_35b1bce254f5b2507c468c8ff86af821 -->
<g id="edge15" class="edge">
<title>dir_cbd5181aa7335f7853461136929ffc5b&#45;&gt;dir_35b1bce254f5b2507c468c8ff86af821</title>
<path fill="none" stroke="#63b8ff" d="M121.46,-235.97C120.09,-212.18 117.17,-145.61 126,-126 131.35,-114.11 141.51,-103.86 151.01,-96.2"/>
<polygon fill="#63b8ff" stroke="#63b8ff" points="153.16,-98.97 159.06,-90.17 148.96,-93.37 153.16,-98.97"/>
<g id="a_edge15&#45;headlabel"><a xlink:href="dir_000025_000001.html" target="_top" xlink:title="2">
<text text-anchor="middle" x="151.99" y="-100.9" font-family="Helvetica,sans-Serif" font-size="10.00" fill="#63b8ff">2</text>
</a>
</g>
</g>
<!-- dir_cbd5181aa7335f7853461136929ffc5b&#45;&gt;dir_a12c10b3e8a6cef69ec97b3594e428bc -->
<g id="edge16" class="edge">
<title>dir_cbd5181aa7335f7853461136929ffc5b&#45;&gt;dir_a12c10b3e8a6cef69ec97b3594e428bc</title>
<path fill="none" stroke="#63b8ff" d="M121.05,-235.98C120.1,-227.03 118.68,-212.55 118,-200 116.68,-175.59 117.22,-169.45 117,-145 116.92,-136.56 116.58,-134.43 117,-126 118.42,-97.75 122.08,-65.15 124.56,-45.19"/>
<polygon fill="#63b8ff" stroke="#63b8ff" points="128.03,-45.62 125.82,-35.26 121.09,-44.74 128.03,-45.62"/>
<g id="a_edge16&#45;headlabel"><a xlink:href="dir_000025_000011.html" target="_top" xlink:title="2">
<text text-anchor="middle" x="130.39" y="-47.05" font-family="Helvetica,sans-Serif" font-size="10.00" fill="#63b8ff">2</text>
</a>
</g>
</g>
<!-- dir_cbd5181aa7335f7853461136929ffc5b&#45;&gt;dir_a2d99a8074d97da561b7fb6f8afb5301 -->
<g id="edge17" class="edge">
<title>dir_cbd5181aa7335f7853461136929ffc5b&#45;&gt;dir_a2d99a8074d97da561b7fb6f8afb5301</title>
<path fill="none" stroke="#63b8ff" d="M114.24,-235.75C107.53,-228.18 97.66,-217.05 89.49,-207.84"/>
<polygon fill="#63b8ff" stroke="#63b8ff" points="91.87,-205.25 82.62,-200.09 86.63,-209.89 91.87,-205.25"/>
<g id="a_edge17&#45;headlabel"><a xlink:href="dir_000025_000027.html" target="_top" xlink:title="3">
<text text-anchor="middle" x="96.38" y="-203.55" font-family="Helvetica,sans-Serif" font-size="10.00" fill="#63b8ff">3</text>
</a>
</g>
</g>
<!-- dir_a2d99a8074d97da561b7fb6f8afb5301&#45;&gt;dir_c9c0daff397b3190feb779cec5a4ac58 -->
<g id="edge19" class="edge">
<title>dir_a2d99a8074d97da561b7fb6f8afb5301&#45;&gt;dir_c9c0daff397b3190feb779cec5a4ac58</title>
<path fill="none" stroke="#63b8ff" d="M74.75,-180.66C74.27,-163.17 73.18,-123.8 72.52,-100.27"/>
<polygon fill="#63b8ff" stroke="#63b8ff" points="76.02,-100.06 72.24,-90.16 69.02,-100.25 76.02,-100.06"/>
<g id="a_edge19&#45;headlabel"><a xlink:href="dir_000027_000004.html" target="_top" xlink:title="3">
<text text-anchor="middle" x="78.95" y="-101.07" font-family="Helvetica,sans-Serif" font-size="10.00" fill="#63b8ff">3</text>
</a>
</g>
</g>
<!-- dir_a2d99a8074d97da561b7fb6f8afb5301&#45;&gt;dir_29feba7cb98f5ae4aa6ed0ad4dfc7add -->
<g id="edge18" class="edge">
<title>dir_a2d99a8074d97da561b7fb6f8afb5301&#45;&gt;dir_29feba7cb98f5ae4aa6ed0ad4dfc7add</title>
<path fill="none" stroke="#63b8ff" d="M88.82,-180.98C102.15,-172.77 122.58,-160.18 138.31,-150.49"/>
<polygon fill="#63b8ff" stroke="#63b8ff" points="140.25,-153.4 146.93,-145.17 136.58,-147.44 140.25,-153.4"/>
<g id="a_edge18&#45;headlabel"><a xlink:href="dir_000027_000028.html" target="_top" xlink:title="4">
<text text-anchor="middle" x="138.68" y="-155.2" font-family="Helvetica,sans-Serif" font-size="10.00" fill="#63b8ff">4</text>
</a>
</g>
</g>
<!-- dir_29feba7cb98f5ae4aa6ed0ad4dfc7add&#45;&gt;dir_35b1bce254f5b2507c468c8ff86af821 -->
<g id="edge20" class="edge">
<title>dir_29feba7cb98f5ae4aa6ed0ad4dfc7add&#45;&gt;dir_35b1bce254f5b2507c468c8ff86af821</title>
<path fill="none" stroke="#63b8ff" d="M162.98,-125.75C164.57,-118.72 166.86,-108.62 168.85,-99.84"/>
<polygon fill="#63b8ff" stroke="#63b8ff" points="172.26,-100.62 171.06,-90.09 165.43,-99.07 172.26,-100.62"/>
<g id="a_edge20&#45;headlabel"><a xlink:href="dir_000028_000001.html" target="_top" xlink:title="1">
<text text-anchor="middle" x="174.24" y="-102.25" font-family="Helvetica,sans-Serif" font-size="10.00" fill="#63b8ff">1</text>
</a>
</g>
</g>
<!-- dir_29feba7cb98f5ae4aa6ed0ad4dfc7add&#45;&gt;dir_c9c0daff397b3190feb779cec5a4ac58 -->
<g id="edge22" class="edge">
<title>dir_29feba7cb98f5ae4aa6ed0ad4dfc7add&#45;&gt;dir_c9c0daff397b3190feb779cec5a4ac58</title>
<path fill="none" stroke="#63b8ff" d="M146.7,-125.98C132.9,-117.77 111.76,-105.18 95.49,-95.49"/>
<polygon fill="#63b8ff" stroke="#63b8ff" points="96.94,-92.28 86.56,-90.17 93.36,-98.29 96.94,-92.28"/>
<g id="a_edge22&#45;headlabel"><a xlink:href="dir_000028_000004.html" target="_top" xlink:title="1">
<text text-anchor="middle" x="101.48" y="-89.18" font-family="Helvetica,sans-Serif" font-size="10.00" fill="#63b8ff">1</text>
</a>
</g>
</g>
<!-- dir_29feba7cb98f5ae4aa6ed0ad4dfc7add&#45;&gt;dir_79cb9064b670fb5f58fc52d27b952f67 -->
<g id="edge21" class="edge">
<title>dir_29feba7cb98f5ae4aa6ed0ad4dfc7add&#45;&gt;dir_79cb9064b670fb5f58fc52d27b952f67</title>
<path fill="none" stroke="#63b8ff" d="M165.84,-145.15C170.34,-164.76 170.35,-214.06 166,-255 165.08,-263.68 163.45,-273.22 161.16,-281.24"/>
<polygon fill="#63b8ff" stroke="#63b8ff" points="157.85,-280.09 157.77,-290.69 164.44,-282.45 157.85,-280.09"/>
<g id="a_edge21&#45;headlabel"><a xlink:href="dir_000028_000022.html" target="_top" xlink:title="2">
<text text-anchor="middle" x="156.39" y="-273.25" font-family="Helvetica,sans-Serif" font-size="10.00" fill="#63b8ff">2</text>
</a>
</g>
</g>
</g>
</svg>
