<?xml version="1.0" encoding="UTF-8" standalone="no"?>
<!DOCTYPE svg PUBLIC "-//W3C//DTD SVG 1.1//EN"
 "http://www.w3.org/Graphics/SVG/1.1/DTD/svg11.dtd">
<!-- Generated by graphviz version 2.43.0 (0)
 -->
<!-- Title: /home/joel.winarske@toyotaconnected.com/development/workspace&#45;automation&#45;configs/app/ivi&#45;homescreen/shell/static_plugins/opengl_texture Pages: 1 -->
<svg width="130pt" height="151pt"
 viewBox="0.00 0.00 130.00 151.00" xmlns="http://www.w3.org/2000/svg" xmlns:xlink="http://www.w3.org/1999/xlink">
<g id="graph0" class="graph" transform="scale(1 1) rotate(0) translate(4 147)">
<title>/home/joel.winarske@toyotaconnected.com/development/workspace&#45;automation&#45;configs/app/ivi&#45;homescreen/shell/static_plugins/opengl_texture</title>
<polygon fill="white" stroke="transparent" points="-4,4 -4,-147 126,-147 126,4 -4,4"/>
<g id="clust1" class="cluster">
<title>clusterdir_79cb9064b670fb5f58fc52d27b952f67</title>
<g id="a_clust1"><a xlink:href="dir_79cb9064b670fb5f58fc52d27b952f67.html" target="_top" xlink:title="static_plugins">
<polygon fill="#ddddee" stroke="black" points="8,-64 8,-135 114,-135 114,-64 8,-64"/>
<text text-anchor="middle" x="61" y="-123" font-family="Helvetica,sans-Serif" font-size="10.00">static_plugins</text>
</a>
</g>
</g>
<!-- dir_3bc78b495b43d144b3cfcf1505da4112 -->
<g id="node1" class="node">
<title>dir_3bc78b495b43d144b3cfcf1505da4112</title>
<g id="a_node1"><a xlink:href="dir_3bc78b495b43d144b3cfcf1505da4112.html" target="_top" xlink:title="opengl_texture">
<polygon fill="#eeeeff" stroke="black" points="106,-108 16,-108 16,-72 106,-72 106,-108"/>
<text text-anchor="middle" x="61" y="-87.5" font-family="Helvetica,sans-Serif" font-size="10.00">opengl_texture</text>
</a>
</g>
</g>
<!-- dir_cbd5181aa7335f7853461136929ffc5b -->
<g id="node2" class="node">
<title>dir_cbd5181aa7335f7853461136929ffc5b</title>
<g id="a_node2"><a xlink:href="dir_cbd5181aa7335f7853461136929ffc5b.html" target="_top" xlink:title="textures">
<polygon fill="white" stroke="red" points="89.5,-36 32.5,-36 32.5,0 89.5,0 89.5,-36"/>
<text text-anchor="middle" x="61" y="-15.5" font-family="Helvetica,sans-Serif" font-size="10.00">textures</text>
</a>
</g>
</g>
<!-- dir_3bc78b495b43d144b3cfcf1505da4112&#45;&gt;dir_cbd5181aa7335f7853461136929ffc5b -->
<g id="edge1" class="edge">
<title>dir_3bc78b495b43d144b3cfcf1505da4112&#45;&gt;dir_cbd5181aa7335f7853461136929ffc5b</title>
<path fill="none" stroke="black" d="M61,-71.7C61,-63.98 61,-54.71 61,-46.11"/>
<polygon fill="black" stroke="black" points="64.5,-46.1 61,-36.1 57.5,-46.1 64.5,-46.1"/>
<g id="a_edge1&#45;headlabel"><a xlink:href="dir_000013_000021.html" target="_top" xlink:title="1">
<text text-anchor="middle" x="67.34" y="-47.2" font-family="Helvetica,sans-Serif" font-size="10.00">1</text>
</a>
</g>
</g>
</g>
</svg>
