<?xml version="1.0" encoding="UTF-8" standalone="no"?>
<!DOCTYPE svg PUBLIC "-//W3C//DTD SVG 1.1//EN"
 "http://www.w3.org/Graphics/SVG/1.1/DTD/svg11.dtd">
<!-- Generated by graphviz version 2.43.0 (0)
 -->
<!-- Title: /home/joel.winarske@toyotaconnected.com/development/workspace&#45;automation&#45;configs/app/ivi&#45;homescreen/shell/view Pages: 1 -->
<svg width="120pt" height="239pt"
 viewBox="0.00 0.00 120.00 239.00" xmlns="http://www.w3.org/2000/svg" xmlns:xlink="http://www.w3.org/1999/xlink">
<g id="graph0" class="graph" transform="scale(1 1) rotate(0) translate(4 235)">
<title>/home/joel.winarske@toyotaconnected.com/development/workspace&#45;automation&#45;configs/app/ivi&#45;homescreen/shell/view</title>
<polygon fill="white" stroke="transparent" points="-4,4 -4,-235 116,-235 116,4 -4,4"/>
<g id="clust1" class="cluster">
<title>clusterdir_71eb729dfe620fdc00a342f30f6592a7</title>
<g id="a_clust1"><a xlink:href="dir_71eb729dfe620fdc00a342f30f6592a7.html" target="_top" xlink:title="shell">
<polygon fill="#ddddee" stroke="black" points="8,-8 8,-223 104,-223 104,-8 8,-8"/>
<text text-anchor="middle" x="56" y="-211" font-family="Helvetica,sans-Serif" font-size="10.00">shell</text>
</a>
</g>
</g>
<!-- dir_29feba7cb98f5ae4aa6ed0ad4dfc7add -->
<g id="node1" class="node">
<title>dir_29feba7cb98f5ae4aa6ed0ad4dfc7add</title>
<g id="a_node1"><a xlink:href="dir_29feba7cb98f5ae4aa6ed0ad4dfc7add.html" target="_top" xlink:title="wayland">
<polygon fill="none" stroke="black" points="75,-124 17,-124 17,-88 75,-88 75,-124"/>
<text text-anchor="middle" x="46" y="-103.5" font-family="Helvetica,sans-Serif" font-size="10.00">wayland</text>
</a>
</g>
</g>
<!-- dir_c9c0daff397b3190feb779cec5a4ac58 -->
<g id="node2" class="node">
<title>dir_c9c0daff397b3190feb779cec5a4ac58</title>
<g id="a_node2"><a xlink:href="dir_c9c0daff397b3190feb779cec5a4ac58.html" target="_top" xlink:title="configuration">
<polygon fill="none" stroke="black" points="96,-52 16,-52 16,-16 96,-16 96,-52"/>
<text text-anchor="middle" x="56" y="-31.5" font-family="Helvetica,sans-Serif" font-size="10.00">configuration</text>
</a>
</g>
</g>
<!-- dir_29feba7cb98f5ae4aa6ed0ad4dfc7add&#45;&gt;dir_c9c0daff397b3190feb779cec5a4ac58 -->
<g id="edge1" class="edge">
<title>dir_29feba7cb98f5ae4aa6ed0ad4dfc7add&#45;&gt;dir_c9c0daff397b3190feb779cec5a4ac58</title>
<path fill="none" stroke="black" d="M48.47,-87.7C49.57,-79.98 50.9,-70.71 52.13,-62.11"/>
<polygon fill="black" stroke="black" points="55.61,-62.5 53.56,-52.1 48.68,-61.51 55.61,-62.5"/>
<g id="a_edge1&#45;headlabel"><a xlink:href="dir_000026_000002.html" target="_top" xlink:title="1">
<text text-anchor="middle" x="57.91" y="-63.96" font-family="Helvetica,sans-Serif" font-size="10.00">1</text>
</a>
</g>
</g>
<!-- dir_a2d99a8074d97da561b7fb6f8afb5301 -->
<g id="node3" class="node">
<title>dir_a2d99a8074d97da561b7fb6f8afb5301</title>
<g id="a_node3"><a xlink:href="dir_a2d99a8074d97da561b7fb6f8afb5301.html" target="_top" xlink:title="view">
<polygon fill="#eeeeff" stroke="black" points="84,-196 30,-196 30,-160 84,-160 84,-196"/>
<text text-anchor="middle" x="57" y="-175.5" font-family="Helvetica,sans-Serif" font-size="10.00">view</text>
</a>
</g>
</g>
<!-- dir_a2d99a8074d97da561b7fb6f8afb5301&#45;&gt;dir_29feba7cb98f5ae4aa6ed0ad4dfc7add -->
<g id="edge2" class="edge">
<title>dir_a2d99a8074d97da561b7fb6f8afb5301&#45;&gt;dir_29feba7cb98f5ae4aa6ed0ad4dfc7add</title>
<path fill="none" stroke="black" d="M54.28,-159.7C53.07,-151.98 51.61,-142.71 50.26,-134.11"/>
<polygon fill="black" stroke="black" points="53.7,-133.44 48.69,-124.1 46.78,-134.53 53.7,-133.44"/>
<g id="a_edge2&#45;headlabel"><a xlink:href="dir_000025_000026.html" target="_top" xlink:title="4">
<text text-anchor="middle" x="57.06" y="-134.05" font-family="Helvetica,sans-Serif" font-size="10.00">4</text>
</a>
</g>
</g>
<!-- dir_a2d99a8074d97da561b7fb6f8afb5301&#45;&gt;dir_c9c0daff397b3190feb779cec5a4ac58 -->
<g id="edge3" class="edge">
<title>dir_a2d99a8074d97da561b7fb6f8afb5301&#45;&gt;dir_c9c0daff397b3190feb779cec5a4ac58</title>
<path fill="none" stroke="black" d="M68.47,-159.67C74.37,-149.69 80.96,-136.65 84,-124 87.73,-108.44 87.85,-103.53 84,-88 81.71,-78.75 77.47,-69.34 72.98,-61.07"/>
<polygon fill="black" stroke="black" points="75.93,-59.17 67.89,-52.28 69.87,-62.68 75.93,-59.17"/>
<g id="a_edge3&#45;headlabel"><a xlink:href="dir_000025_000002.html" target="_top" xlink:title="3">
<text text-anchor="middle" x="80.19" y="-58.36" font-family="Helvetica,sans-Serif" font-size="10.00">3</text>
</a>
</g>
</g>
</g>
</svg>
