<?xml version="1.0" encoding="UTF-8" standalone="no"?>
<!DOCTYPE svg PUBLIC "-//W3C//DTD SVG 1.1//EN"
 "http://www.w3.org/Graphics/SVG/1.1/DTD/svg11.dtd">
<!-- Generated by graphviz version 2.43.0 (0)
 -->
<!-- Title: /home/joel.winarske@toyotaconnected.com/development/workspace&#45;automation&#45;configs/app/ivi&#45;homescreen/shell/wayland Pages: 1 -->
<svg width="242pt" height="239pt"
 viewBox="0.00 0.00 242.00 239.00" xmlns="http://www.w3.org/2000/svg" xmlns:xlink="http://www.w3.org/1999/xlink">
<g id="graph0" class="graph" transform="scale(1 1) rotate(0) translate(4 235)">
<title>/home/joel.winarske@toyotaconnected.com/development/workspace&#45;automation&#45;configs/app/ivi&#45;homescreen/shell/wayland</title>
<polygon fill="white" stroke="transparent" points="-4,4 -4,-235 238,-235 238,4 -4,4"/>
<g id="clust1" class="cluster">
<title>clusterdir_71eb729dfe620fdc00a342f30f6592a7</title>
<g id="a_clust1"><a xlink:href="dir_71eb729dfe620fdc00a342f30f6592a7.html" target="_top" xlink:title="shell">
<polygon fill="#ddddee" stroke="black" points="8,-8 8,-223 226,-223 226,-8 8,-8"/>
<text text-anchor="middle" x="117" y="-211" font-family="Helvetica,sans-Serif" font-size="10.00">shell</text>
</a>
</g>
</g>
<!-- dir_35b1bce254f5b2507c468c8ff86af821 -->
<g id="node1" class="node">
<title>dir_35b1bce254f5b2507c468c8ff86af821</title>
<g id="a_node1"><a xlink:href="dir_35b1bce254f5b2507c468c8ff86af821.html" target="_top" xlink:title="backend">
<polygon fill="none" stroke="black" points="89.5,-52 32.5,-52 32.5,-16 89.5,-16 89.5,-52"/>
<text text-anchor="middle" x="61" y="-31.5" font-family="Helvetica,sans-Serif" font-size="10.00">backend</text>
</a>
</g>
</g>
<!-- dir_79cb9064b670fb5f58fc52d27b952f67 -->
<g id="node2" class="node">
<title>dir_79cb9064b670fb5f58fc52d27b952f67</title>
<g id="a_node2"><a xlink:href="dir_79cb9064b670fb5f58fc52d27b952f67.html" target="_top" xlink:title="static_plugins">
<polygon fill="white" stroke="red" points="120,-124 36,-124 36,-88 120,-88 120,-124"/>
<text text-anchor="middle" x="78" y="-103.5" font-family="Helvetica,sans-Serif" font-size="10.00">static_plugins</text>
</a>
</g>
</g>
<!-- dir_79cb9064b670fb5f58fc52d27b952f67&#45;&gt;dir_35b1bce254f5b2507c468c8ff86af821 -->
<g id="edge1" class="edge">
<title>dir_79cb9064b670fb5f58fc52d27b952f67&#45;&gt;dir_35b1bce254f5b2507c468c8ff86af821</title>
<path fill="none" stroke="black" d="M73.8,-87.7C71.9,-79.9 69.62,-70.51 67.52,-61.83"/>
<polygon fill="black" stroke="black" points="70.92,-61 65.15,-52.1 64.11,-62.65 70.92,-61"/>
<g id="a_edge1&#45;headlabel"><a xlink:href="dir_000003_000001.html" target="_top" xlink:title="1">
<text text-anchor="middle" x="74.52" y="-61.32" font-family="Helvetica,sans-Serif" font-size="10.00">1</text>
</a>
</g>
</g>
<!-- dir_c9c0daff397b3190feb779cec5a4ac58 -->
<g id="node3" class="node">
<title>dir_c9c0daff397b3190feb779cec5a4ac58</title>
<g id="a_node3"><a xlink:href="dir_c9c0daff397b3190feb779cec5a4ac58.html" target="_top" xlink:title="configuration">
<polygon fill="none" stroke="black" points="218,-124 138,-124 138,-88 218,-88 218,-124"/>
<text text-anchor="middle" x="178" y="-103.5" font-family="Helvetica,sans-Serif" font-size="10.00">configuration</text>
</a>
</g>
</g>
<!-- dir_29feba7cb98f5ae4aa6ed0ad4dfc7add -->
<g id="node4" class="node">
<title>dir_29feba7cb98f5ae4aa6ed0ad4dfc7add</title>
<g id="a_node4"><a xlink:href="dir_29feba7cb98f5ae4aa6ed0ad4dfc7add.html" target="_top" xlink:title="wayland">
<polygon fill="#eeeeff" stroke="black" points="107,-196 49,-196 49,-160 107,-160 107,-196"/>
<text text-anchor="middle" x="78" y="-175.5" font-family="Helvetica,sans-Serif" font-size="10.00">wayland</text>
</a>
</g>
</g>
<!-- dir_29feba7cb98f5ae4aa6ed0ad4dfc7add&#45;&gt;dir_35b1bce254f5b2507c468c8ff86af821 -->
<g id="edge2" class="edge">
<title>dir_29feba7cb98f5ae4aa6ed0ad4dfc7add&#45;&gt;dir_35b1bce254f5b2507c468c8ff86af821</title>
<path fill="none" stroke="black" d="M54.7,-159.82C44.1,-150.54 32.68,-138.09 27,-124 21.02,-109.16 22.5,-103.35 27,-88 29.8,-78.45 34.91,-68.98 40.33,-60.76"/>
<polygon fill="black" stroke="black" points="43.35,-62.56 46.25,-52.37 37.62,-58.52 43.35,-62.56"/>
<g id="a_edge2&#45;headlabel"><a xlink:href="dir_000026_000001.html" target="_top" xlink:title="1">
<text text-anchor="middle" x="43.6" y="-64.63" font-family="Helvetica,sans-Serif" font-size="10.00">1</text>
</a>
</g>
</g>
<!-- dir_29feba7cb98f5ae4aa6ed0ad4dfc7add&#45;&gt;dir_79cb9064b670fb5f58fc52d27b952f67 -->
<g id="edge3" class="edge">
<title>dir_29feba7cb98f5ae4aa6ed0ad4dfc7add&#45;&gt;dir_79cb9064b670fb5f58fc52d27b952f67</title>
<path fill="none" stroke="black" d="M78,-159.7C78,-151.98 78,-142.71 78,-134.11"/>
<polygon fill="black" stroke="black" points="81.5,-134.1 78,-124.1 74.5,-134.1 81.5,-134.1"/>
<g id="a_edge3&#45;headlabel"><a xlink:href="dir_000026_000003.html" target="_top" xlink:title="2">
<text text-anchor="middle" x="84.34" y="-135.2" font-family="Helvetica,sans-Serif" font-size="10.00">2</text>
</a>
</g>
</g>
<!-- dir_29feba7cb98f5ae4aa6ed0ad4dfc7add&#45;&gt;dir_c9c0daff397b3190feb779cec5a4ac58 -->
<g id="edge4" class="edge">
<title>dir_29feba7cb98f5ae4aa6ed0ad4dfc7add&#45;&gt;dir_c9c0daff397b3190feb779cec5a4ac58</title>
<path fill="none" stroke="black" d="M102.46,-159.88C115.3,-150.89 131.2,-139.76 145.09,-130.03"/>
<polygon fill="black" stroke="black" points="147.26,-132.79 153.44,-124.19 143.24,-127.06 147.26,-132.79"/>
<g id="a_edge4&#45;headlabel"><a xlink:href="dir_000026_000002.html" target="_top" xlink:title="1">
<text text-anchor="middle" x="145.94" y="-134.68" font-family="Helvetica,sans-Serif" font-size="10.00">1</text>
</a>
</g>
</g>
</g>
</svg>
