<?xml version="1.0" encoding="UTF-8" standalone="no"?>
<!DOCTYPE svg PUBLIC "-//W3C//DTD SVG 1.1//EN"
 "http://www.w3.org/Graphics/SVG/1.1/DTD/svg11.dtd">
<!-- Generated by graphviz version 2.43.0 (0)
 -->
<!-- Title: /home/joel.winarske@toyotaconnected.com/development/workspace&#45;automation&#45;configs/app/ivi&#45;homescreen/shell/textures/navi_render_egl Pages: 1 -->
<svg width="138pt" height="151pt"
 viewBox="0.00 0.00 137.50 151.00" xmlns="http://www.w3.org/2000/svg" xmlns:xlink="http://www.w3.org/1999/xlink">
<g id="graph0" class="graph" transform="scale(1 1) rotate(0) translate(4 147)">
<title>/home/joel.winarske@toyotaconnected.com/development/workspace&#45;automation&#45;configs/app/ivi&#45;homescreen/shell/textures/navi_render_egl</title>
<polygon fill="white" stroke="transparent" points="-4,4 -4,-147 133.5,-147 133.5,4 -4,4"/>
<g id="clust1" class="cluster">
<title>clusterdir_cbd5181aa7335f7853461136929ffc5b</title>
<g id="a_clust1"><a xlink:href="dir_cbd5181aa7335f7853461136929ffc5b.html" target="_top" xlink:title="textures">
<polygon fill="#ddddee" stroke="black" points="9.5,-64 9.5,-135 121.5,-135 121.5,-64 9.5,-64"/>
<text text-anchor="middle" x="65.5" y="-123" font-family="Helvetica,sans-Serif" font-size="10.00">textures</text>
</a>
</g>
</g>
<!-- dir_6992419951a4d6f5d3a31fc48a6b0aed -->
<g id="node1" class="node">
<title>dir_6992419951a4d6f5d3a31fc48a6b0aed</title>
<g id="a_node1"><a xlink:href="dir_6992419951a4d6f5d3a31fc48a6b0aed.html" target="_top" xlink:title="navi_render_egl">
<polygon fill="#eeeeff" stroke="black" points="113,-108 18,-108 18,-72 113,-72 113,-108"/>
<text text-anchor="middle" x="65.5" y="-87.5" font-family="Helvetica,sans-Serif" font-size="10.00">navi_render_egl</text>
</a>
</g>
</g>
<!-- dir_35b1bce254f5b2507c468c8ff86af821 -->
<g id="node2" class="node">
<title>dir_35b1bce254f5b2507c468c8ff86af821</title>
<g id="a_node2"><a xlink:href="dir_35b1bce254f5b2507c468c8ff86af821.html" target="_top" xlink:title="backend">
<polygon fill="none" stroke="black" points="57,-36 0,-36 0,0 57,0 57,-36"/>
<text text-anchor="middle" x="28.5" y="-15.5" font-family="Helvetica,sans-Serif" font-size="10.00">backend</text>
</a>
</g>
</g>
<!-- dir_6992419951a4d6f5d3a31fc48a6b0aed&#45;&gt;dir_35b1bce254f5b2507c468c8ff86af821 -->
<g id="edge1" class="edge">
<title>dir_6992419951a4d6f5d3a31fc48a6b0aed&#45;&gt;dir_35b1bce254f5b2507c468c8ff86af821</title>
<path fill="none" stroke="black" d="M56.35,-71.7C52.1,-63.64 46.94,-53.89 42.23,-44.98"/>
<polygon fill="black" stroke="black" points="45.31,-43.31 37.54,-36.1 39.12,-46.58 45.31,-43.31"/>
<g id="a_edge1&#45;headlabel"><a xlink:href="dir_000023_000001.html" target="_top" xlink:title="1">
<text text-anchor="middle" x="49.5" y="-42.66" font-family="Helvetica,sans-Serif" font-size="10.00">1</text>
</a>
</g>
</g>
<!-- dir_a2d99a8074d97da561b7fb6f8afb5301 -->
<g id="node3" class="node">
<title>dir_a2d99a8074d97da561b7fb6f8afb5301</title>
<g id="a_node3"><a xlink:href="dir_a2d99a8074d97da561b7fb6f8afb5301.html" target="_top" xlink:title="view">
<polygon fill="none" stroke="black" points="129.5,-36 75.5,-36 75.5,0 129.5,0 129.5,-36"/>
<text text-anchor="middle" x="102.5" y="-15.5" font-family="Helvetica,sans-Serif" font-size="10.00">view</text>
</a>
</g>
</g>
<!-- dir_6992419951a4d6f5d3a31fc48a6b0aed&#45;&gt;dir_a2d99a8074d97da561b7fb6f8afb5301 -->
<g id="edge2" class="edge">
<title>dir_6992419951a4d6f5d3a31fc48a6b0aed&#45;&gt;dir_a2d99a8074d97da561b7fb6f8afb5301</title>
<path fill="none" stroke="black" d="M74.65,-71.7C78.9,-63.64 84.06,-53.89 88.77,-44.98"/>
<polygon fill="black" stroke="black" points="91.88,-46.58 93.46,-36.1 85.69,-43.31 91.88,-46.58"/>
<g id="a_edge2&#45;headlabel"><a xlink:href="dir_000023_000025.html" target="_top" xlink:title="1">
<text text-anchor="middle" x="92.71" y="-48.59" font-family="Helvetica,sans-Serif" font-size="10.00">1</text>
</a>
</g>
</g>
</g>
</svg>
