<?xml version="1.0" encoding="UTF-8" standalone="no"?>
<!DOCTYPE svg PUBLIC "-//W3C//DTD SVG 1.1//EN"
 "http://www.w3.org/Graphics/SVG/1.1/DTD/svg11.dtd">
<!-- Generated by graphviz version 2.43.0 (0)
 -->
<!-- Title: /home/joel.winarske@toyotaconnected.com/development/stargate/ivi&#45;homescreen/shell/static_plugins/gstreamer_egl Pages: 1 -->
<svg width="180pt" height="223pt"
 viewBox="0.00 0.00 179.50 223.00" xmlns="http://www.w3.org/2000/svg" xmlns:xlink="http://www.w3.org/1999/xlink">
<g id="graph0" class="graph" transform="scale(1 1) rotate(0) translate(4 219)">
<title>/home/joel.winarske@toyotaconnected.com/development/stargate/ivi&#45;homescreen/shell/static_plugins/gstreamer_egl</title>
<polygon fill="white" stroke="transparent" points="-4,4 -4,-219 175.5,-219 175.5,4 -4,4"/>
<g id="clust1" class="cluster">
<title>clusterdir_79cb9064b670fb5f58fc52d27b952f67</title>
<g id="a_clust1"><a xlink:href="dir_79cb9064b670fb5f58fc52d27b952f67.html" target="_top" xlink:title="static_plugins">
<polygon fill="#ddddee" stroke="black" points="34,-136 34,-207 138,-207 138,-136 34,-136"/>
<text text-anchor="middle" x="86" y="-195" font-family="Helvetica,sans-Serif" font-size="10.00">static_plugins</text>
</a>
</g>
</g>
<!-- dir_84db636a4db25019a7d330ed76dfb2ae -->
<g id="node1" class="node">
<title>dir_84db636a4db25019a7d330ed76dfb2ae</title>
<g id="a_node1"><a xlink:href="dir_84db636a4db25019a7d330ed76dfb2ae.html" target="_top" xlink:title="gstreamer_egl">
<polygon fill="#eeeeff" stroke="black" points="129.5,-180 42.5,-180 42.5,-144 129.5,-144 129.5,-180"/>
<text text-anchor="middle" x="86" y="-159.5" font-family="Helvetica,sans-Serif" font-size="10.00">gstreamer_egl</text>
</a>
</g>
</g>
<!-- dir_29feba7cb98f5ae4aa6ed0ad4dfc7add -->
<g id="node2" class="node">
<title>dir_29feba7cb98f5ae4aa6ed0ad4dfc7add</title>
<g id="a_node2"><a xlink:href="dir_29feba7cb98f5ae4aa6ed0ad4dfc7add.html" target="_top" xlink:title="wayland">
<polygon fill="none" stroke="black" points="58,-108 0,-108 0,-72 58,-72 58,-108"/>
<text text-anchor="middle" x="29" y="-87.5" font-family="Helvetica,sans-Serif" font-size="10.00">wayland</text>
</a>
</g>
</g>
<!-- dir_84db636a4db25019a7d330ed76dfb2ae&#45;&gt;dir_29feba7cb98f5ae4aa6ed0ad4dfc7add -->
<g id="edge2" class="edge">
<title>dir_84db636a4db25019a7d330ed76dfb2ae&#45;&gt;dir_29feba7cb98f5ae4aa6ed0ad4dfc7add</title>
<path fill="none" stroke="black" d="M71.91,-143.7C65.08,-135.3 56.74,-125.07 49.24,-115.86"/>
<polygon fill="black" stroke="black" points="51.96,-113.65 42.93,-108.1 46.53,-118.07 51.96,-113.65"/>
<g id="a_edge2&#45;headlabel"><a xlink:href="dir_000008_000026.html" target="_top" xlink:title="1">
<text text-anchor="middle" x="56.43" y="-112.14" font-family="Helvetica,sans-Serif" font-size="10.00">1</text>
</a>
</g>
</g>
<!-- dir_35b1bce254f5b2507c468c8ff86af821 -->
<g id="node3" class="node">
<title>dir_35b1bce254f5b2507c468c8ff86af821</title>
<g id="a_node3"><a xlink:href="dir_35b1bce254f5b2507c468c8ff86af821.html" target="_top" xlink:title="backend">
<polygon fill="none" stroke="black" points="114.5,-36 57.5,-36 57.5,0 114.5,0 114.5,-36"/>
<text text-anchor="middle" x="86" y="-15.5" font-family="Helvetica,sans-Serif" font-size="10.00">backend</text>
</a>
</g>
</g>
<!-- dir_84db636a4db25019a7d330ed76dfb2ae&#45;&gt;dir_35b1bce254f5b2507c468c8ff86af821 -->
<g id="edge3" class="edge">
<title>dir_84db636a4db25019a7d330ed76dfb2ae&#45;&gt;dir_35b1bce254f5b2507c468c8ff86af821</title>
<path fill="none" stroke="black" d="M86,-143.87C86,-119.67 86,-75.21 86,-46.39"/>
<polygon fill="black" stroke="black" points="89.5,-46.19 86,-36.19 82.5,-46.19 89.5,-46.19"/>
<g id="a_edge3&#45;headlabel"><a xlink:href="dir_000008_000001.html" target="_top" xlink:title="1">
<text text-anchor="middle" x="92.34" y="-47.28" font-family="Helvetica,sans-Serif" font-size="10.00">1</text>
</a>
</g>
</g>
<!-- dir_cbd5181aa7335f7853461136929ffc5b -->
<g id="node4" class="node">
<title>dir_cbd5181aa7335f7853461136929ffc5b</title>
<g id="a_node4"><a xlink:href="dir_cbd5181aa7335f7853461136929ffc5b.html" target="_top" xlink:title="textures">
<polygon fill="white" stroke="red" points="171.5,-108 114.5,-108 114.5,-72 171.5,-72 171.5,-108"/>
<text text-anchor="middle" x="143" y="-87.5" font-family="Helvetica,sans-Serif" font-size="10.00">textures</text>
</a>
</g>
</g>
<!-- dir_84db636a4db25019a7d330ed76dfb2ae&#45;&gt;dir_cbd5181aa7335f7853461136929ffc5b -->
<g id="edge4" class="edge">
<title>dir_84db636a4db25019a7d330ed76dfb2ae&#45;&gt;dir_cbd5181aa7335f7853461136929ffc5b</title>
<path fill="none" stroke="black" d="M100.09,-143.7C106.92,-135.3 115.26,-125.07 122.76,-115.86"/>
<polygon fill="black" stroke="black" points="125.47,-118.07 129.07,-108.1 120.04,-113.65 125.47,-118.07"/>
<g id="a_edge4&#45;headlabel"><a xlink:href="dir_000008_000021.html" target="_top" xlink:title="1">
<text text-anchor="middle" x="125.4" y="-120.15" font-family="Helvetica,sans-Serif" font-size="10.00">1</text>
</a>
</g>
</g>
<!-- dir_29feba7cb98f5ae4aa6ed0ad4dfc7add&#45;&gt;dir_35b1bce254f5b2507c468c8ff86af821 -->
<g id="edge5" class="edge">
<title>dir_29feba7cb98f5ae4aa6ed0ad4dfc7add&#45;&gt;dir_35b1bce254f5b2507c468c8ff86af821</title>
<path fill="none" stroke="black" d="M43.09,-71.7C49.92,-63.3 58.26,-53.07 65.76,-43.86"/>
<polygon fill="black" stroke="black" points="68.47,-46.07 72.07,-36.1 63.04,-41.65 68.47,-46.07"/>
<g id="a_edge5&#45;headlabel"><a xlink:href="dir_000026_000001.html" target="_top" xlink:title="1">
<text text-anchor="middle" x="68.4" y="-48.15" font-family="Helvetica,sans-Serif" font-size="10.00">1</text>
</a>
</g>
</g>
<!-- dir_cbd5181aa7335f7853461136929ffc5b&#45;&gt;dir_35b1bce254f5b2507c468c8ff86af821 -->
<g id="edge1" class="edge">
<title>dir_cbd5181aa7335f7853461136929ffc5b&#45;&gt;dir_35b1bce254f5b2507c468c8ff86af821</title>
<path fill="none" stroke="black" d="M128.91,-71.7C122.08,-63.3 113.74,-53.07 106.24,-43.86"/>
<polygon fill="black" stroke="black" points="108.96,-41.65 99.93,-36.1 103.53,-46.07 108.96,-41.65"/>
<g id="a_edge1&#45;headlabel"><a xlink:href="dir_000021_000001.html" target="_top" xlink:title="2">
<text text-anchor="middle" x="113.43" y="-40.14" font-family="Helvetica,sans-Serif" font-size="10.00">2</text>
</a>
</g>
</g>
</g>
</svg>
