<?xml version="1.0" encoding="UTF-8" standalone="no"?>
<!DOCTYPE svg PUBLIC "-//W3C//DTD SVG 1.1//EN"
 "http://www.w3.org/Graphics/SVG/1.1/DTD/svg11.dtd">
<!-- Generated by graphviz version 2.43.0 (0)
 -->
<!-- Title: /home/joel.winarske@toyotaconnected.com/development/stargate/ivi&#45;homescreen/shell/static_plugins/comp_region Pages: 1 -->
<svg width="120pt" height="151pt"
 viewBox="0.00 0.00 120.00 151.00" xmlns="http://www.w3.org/2000/svg" xmlns:xlink="http://www.w3.org/1999/xlink">
<g id="graph0" class="graph" transform="scale(1 1) rotate(0) translate(4 147)">
<title>/home/joel.winarske@toyotaconnected.com/development/stargate/ivi&#45;homescreen/shell/static_plugins/comp_region</title>
<polygon fill="white" stroke="transparent" points="-4,4 -4,-147 116,-147 116,4 -4,4"/>
<g id="clust1" class="cluster">
<title>clusterdir_79cb9064b670fb5f58fc52d27b952f67</title>
<g id="a_clust1"><a xlink:href="dir_79cb9064b670fb5f58fc52d27b952f67.html" target="_top" xlink:title="static_plugins">
<polygon fill="#ddddee" stroke="black" points="8,-64 8,-135 104,-135 104,-64 8,-64"/>
<text text-anchor="middle" x="56" y="-123" font-family="Helvetica,sans-Serif" font-size="10.00">static_plugins</text>
</a>
</g>
</g>
<!-- dir_9221e4b7e8e411c0e85c3d9906816171 -->
<g id="node1" class="node">
<title>dir_9221e4b7e8e411c0e85c3d9906816171</title>
<g id="a_node1"><a xlink:href="dir_9221e4b7e8e411c0e85c3d9906816171.html" target="_top" xlink:title="comp_region">
<polygon fill="#eeeeff" stroke="black" points="96,-108 16,-108 16,-72 96,-72 96,-108"/>
<text text-anchor="middle" x="56" y="-87.5" font-family="Helvetica,sans-Serif" font-size="10.00">comp_region</text>
</a>
</g>
</g>
<!-- dir_a2d99a8074d97da561b7fb6f8afb5301 -->
<g id="node2" class="node">
<title>dir_a2d99a8074d97da561b7fb6f8afb5301</title>
<g id="a_node2"><a xlink:href="dir_a2d99a8074d97da561b7fb6f8afb5301.html" target="_top" xlink:title="view">
<polygon fill="none" stroke="black" points="83,-36 29,-36 29,0 83,0 83,-36"/>
<text text-anchor="middle" x="56" y="-15.5" font-family="Helvetica,sans-Serif" font-size="10.00">view</text>
</a>
</g>
</g>
<!-- dir_9221e4b7e8e411c0e85c3d9906816171&#45;&gt;dir_a2d99a8074d97da561b7fb6f8afb5301 -->
<g id="edge1" class="edge">
<title>dir_9221e4b7e8e411c0e85c3d9906816171&#45;&gt;dir_a2d99a8074d97da561b7fb6f8afb5301</title>
<path fill="none" stroke="black" d="M56,-71.7C56,-63.98 56,-54.71 56,-46.11"/>
<polygon fill="black" stroke="black" points="59.5,-46.1 56,-36.1 52.5,-46.1 59.5,-46.1"/>
<g id="a_edge1&#45;headlabel"><a xlink:href="dir_000005_000025.html" target="_top" xlink:title="1">
<text text-anchor="middle" x="62.34" y="-47.2" font-family="Helvetica,sans-Serif" font-size="10.00">1</text>
</a>
</g>
</g>
</g>
</svg>
