<?xml version="1.0" encoding="UTF-8" standalone="no"?>
<!DOCTYPE svg PUBLIC "-//W3C//DTD SVG 1.1//EN"
 "http://www.w3.org/Graphics/SVG/1.1/DTD/svg11.dtd">
<!-- Generated by graphviz version 5.0.0 (0)
 -->
<!-- Title: /mnt/raid10/stargate/ivi&#45;homescreen/shell/wayland/display.h Pages: 1 -->
<svg width="2837pt" height="247pt"
 viewBox="0.00 0.00 2837.00 247.00" xmlns="http://www.w3.org/2000/svg" xmlns:xlink="http://www.w3.org/1999/xlink">
<g id="graph0" class="graph" transform="scale(1 1) rotate(0) translate(4 243)">
<title>/mnt/raid10/stargate/ivi&#45;homescreen/shell/wayland/display.h</title>
<!-- Node1 -->
<g id="node1" class="node">
<title>Node1</title>
<g id="a_node1"><a xlink:title=" ">
<polygon fill="#999999" stroke="#666666" points="1965.5,-239 1856.5,-239 1856.5,-198 1965.5,-198 1965.5,-239"/>
<text text-anchor="start" x="1864.5" y="-227" font-family="Helvetica,sans-Serif" font-size="10.00">/mnt/raid10/stargate</text>
<text text-anchor="start" x="1864.5" y="-216" font-family="Helvetica,sans-Serif" font-size="10.00">/ivi&#45;homescreen/shell</text>
<text text-anchor="middle" x="1911" y="-205" font-family="Helvetica,sans-Serif" font-size="10.00">/wayland/display.h</text>
</a>
</g>
</g>
<!-- Node2 -->
<g id="node2" class="node">
<title>Node2</title>
<g id="a_node2"><a xlink:title=" ">
<polygon fill="#e0e0e0" stroke="#999999" points="668,-156.5 622,-156.5 622,-137.5 668,-137.5 668,-156.5"/>
<text text-anchor="middle" x="645" y="-144.5" font-family="Helvetica,sans-Serif" font-size="10.00">chrono</text>
</a>
</g>
</g>
<!-- Node1&#45;&gt;Node2 -->
<g id="edge1" class="edge">
<title>Node1&#45;&gt;Node2</title>
<path fill="none" stroke="#63b8ff" d="M1856.47,-217.32C1649.31,-216.29 911.31,-209.3 682,-162 679.32,-161.45 676.57,-160.73 673.85,-159.9"/>
<polygon fill="#63b8ff" stroke="#63b8ff" points="674.84,-156.54 664.24,-156.6 672.56,-163.16 674.84,-156.54"/>
</g>
<!-- Node3 -->
<g id="node3" class="node">
<title>Node3</title>
<g id="a_node3"><a xlink:title=" ">
<polygon fill="#e0e0e0" stroke="#999999" points="863,-90.5 811,-90.5 811,-71.5 863,-71.5 863,-90.5"/>
<text text-anchor="middle" x="837" y="-78.5" font-family="Helvetica,sans-Serif" font-size="10.00">memory</text>
</a>
</g>
</g>
<!-- Node1&#45;&gt;Node3 -->
<g id="edge2" class="edge">
<title>Node1&#45;&gt;Node3</title>
<path fill="none" stroke="#63b8ff" d="M1856.23,-217.22C1683.78,-215.87 1153.68,-207.99 989,-162 938.42,-147.88 885.51,-115.33 857.4,-96.39"/>
<polygon fill="#63b8ff" stroke="#63b8ff" points="859.08,-93.3 848.86,-90.53 855.13,-99.07 859.08,-93.3"/>
</g>
<!-- Node4 -->
<g id="node4" class="node">
<title>Node4</title>
<g id="a_node4"><a xlink:title=" ">
<polygon fill="#e0e0e0" stroke="#999999" points="1808.5,-90.5 1767.5,-90.5 1767.5,-71.5 1808.5,-71.5 1808.5,-90.5"/>
<text text-anchor="middle" x="1788" y="-78.5" font-family="Helvetica,sans-Serif" font-size="10.00">string</text>
</a>
</g>
</g>
<!-- Node1&#45;&gt;Node4 -->
<g id="edge3" class="edge">
<title>Node1&#45;&gt;Node4</title>
<path fill="none" stroke="#63b8ff" d="M1856.4,-198.97C1838.29,-190.34 1819.56,-178.29 1807,-162 1793.34,-144.29 1789.29,-118.29 1788.19,-100.78"/>
<polygon fill="#63b8ff" stroke="#63b8ff" points="1791.69,-100.55 1787.83,-90.68 1784.69,-100.8 1791.69,-100.55"/>
</g>
<!-- Node5 -->
<g id="node5" class="node">
<title>Node5</title>
<g id="a_node5"><a xlink:title=" ">
<polygon fill="#e0e0e0" stroke="#999999" points="2002,-156.5 1958,-156.5 1958,-137.5 2002,-137.5 2002,-156.5"/>
<text text-anchor="middle" x="1980" y="-144.5" font-family="Helvetica,sans-Serif" font-size="10.00">thread</text>
</a>
</g>
</g>
<!-- Node1&#45;&gt;Node5 -->
<g id="edge4" class="edge">
<title>Node1&#45;&gt;Node5</title>
<path fill="none" stroke="#63b8ff" d="M1930.59,-197.77C1941.15,-187.13 1954.02,-174.16 1963.98,-164.13"/>
<polygon fill="#63b8ff" stroke="#63b8ff" points="1966.68,-166.38 1971.24,-156.82 1961.71,-161.45 1966.68,-166.38"/>
</g>
<!-- Node6 -->
<g id="node6" class="node">
<title>Node6</title>
<g id="a_node6"><a xlink:title=" ">
<polygon fill="#e0e0e0" stroke="#999999" points="1871,-90.5 1827,-90.5 1827,-71.5 1871,-71.5 1871,-90.5"/>
<text text-anchor="middle" x="1849" y="-78.5" font-family="Helvetica,sans-Serif" font-size="10.00">vector</text>
</a>
</g>
</g>
<!-- Node1&#45;&gt;Node6 -->
<g id="edge5" class="edge">
<title>Node1&#45;&gt;Node6</title>
<path fill="none" stroke="#63b8ff" d="M1902.41,-197.73C1894.81,-180.35 1883.36,-154.41 1873,-132 1868.08,-121.34 1862.4,-109.5 1857.8,-100.01"/>
<polygon fill="#63b8ff" stroke="#63b8ff" points="1860.85,-98.27 1853.33,-90.81 1854.56,-101.34 1860.85,-98.27"/>
</g>
<!-- Node7 -->
<g id="node7" class="node">
<title>Node7</title>
<g id="a_node7"><a xlink:title=" ">
<polygon fill="#e0e0e0" stroke="#999999" points="719.5,-30 598.5,-30 598.5,0 719.5,0 719.5,-30"/>
<text text-anchor="start" x="606.5" y="-18" font-family="Helvetica,sans-Serif" font-size="10.00">shell/platform/embedder</text>
<text text-anchor="middle" x="659" y="-7" font-family="Helvetica,sans-Serif" font-size="10.00">/embedder.h</text>
</a>
</g>
</g>
<!-- Node1&#45;&gt;Node7 -->
<g id="edge6" class="edge">
<title>Node1&#45;&gt;Node7</title>
<path fill="none" stroke="#63b8ff" d="M1914.94,-197.85C1919.78,-178.56 1929.83,-149.55 1949,-132 1985.38,-98.68 2025.33,-136.14 2054,-96 2061.75,-85.15 2063.26,-75.6 2054,-66 2007.67,-17.98 1008.09,-15.58 730.15,-15.84"/>
<polygon fill="#63b8ff" stroke="#63b8ff" points="729.78,-12.34 719.79,-15.86 729.79,-19.34 729.78,-12.34"/>
</g>
<!-- Node8 -->
<g id="node8" class="node">
<title>Node8</title>
<g id="a_node8"><a xlink:title=" ">
<polygon fill="#e0e0e0" stroke="#999999" points="2107.5,-156.5 2020.5,-156.5 2020.5,-137.5 2107.5,-137.5 2107.5,-156.5"/>
<text text-anchor="middle" x="2064" y="-144.5" font-family="Helvetica,sans-Serif" font-size="10.00">wayland&#45;client.h</text>
</a>
</g>
</g>
<!-- Node1&#45;&gt;Node8 -->
<g id="edge7" class="edge">
<title>Node1&#45;&gt;Node8</title>
<path fill="none" stroke="#63b8ff" d="M1954.03,-197.96C1980.32,-186.01 2013.19,-171.08 2036.11,-160.67"/>
<polygon fill="#63b8ff" stroke="#63b8ff" points="2037.62,-163.83 2045.28,-156.5 2034.73,-157.45 2037.62,-163.83"/>
</g>
<!-- Node9 -->
<g id="node9" class="node">
<title>Node9</title>
<g id="a_node9"><a xlink:title=" ">
<polygon fill="#e0e0e0" stroke="#999999" points="2216.5,-156.5 2125.5,-156.5 2125.5,-137.5 2216.5,-137.5 2216.5,-156.5"/>
<text text-anchor="middle" x="2171" y="-144.5" font-family="Helvetica,sans-Serif" font-size="10.00">wayland&#45;cursor.h</text>
</a>
</g>
</g>
<!-- Node1&#45;&gt;Node9 -->
<g id="edge8" class="edge">
<title>Node1&#45;&gt;Node9</title>
<path fill="none" stroke="#63b8ff" d="M1965.5,-202.93C2014.27,-189.9 2084.73,-171.06 2129.17,-159.18"/>
<polygon fill="#63b8ff" stroke="#63b8ff" points="2130.31,-162.5 2139.06,-156.54 2128.5,-155.74 2130.31,-162.5"/>
</g>
<!-- Node10 -->
<g id="node10" class="node">
<title>Node10</title>
<g id="a_node10"><a xlink:title=" ">
<polygon fill="#e0e0e0" stroke="#999999" points="2283.5,-156.5 2234.5,-156.5 2234.5,-137.5 2283.5,-137.5 2283.5,-156.5"/>
<text text-anchor="middle" x="2259" y="-144.5" font-family="Helvetica,sans-Serif" font-size="10.00">cassert</text>
</a>
</g>
</g>
<!-- Node1&#45;&gt;Node10 -->
<g id="edge9" class="edge">
<title>Node1&#45;&gt;Node10</title>
<path fill="none" stroke="#63b8ff" d="M1965.65,-211.69C2029.16,-204.06 2136.68,-188.44 2226,-162 2227.68,-161.5 2229.39,-160.94 2231.11,-160.35"/>
<polygon fill="#63b8ff" stroke="#63b8ff" points="2232.71,-163.48 2240.77,-156.6 2230.18,-156.95 2232.71,-163.48"/>
</g>
<!-- Node11 -->
<g id="node11" class="node">
<title>Node11</title>
<g id="a_node11"><a xlink:title=" ">
<polygon fill="#e0e0e0" stroke="#999999" points="2426.5,-156.5 2301.5,-156.5 2301.5,-137.5 2426.5,-137.5 2426.5,-156.5"/>
<text text-anchor="middle" x="2364" y="-144.5" font-family="Helvetica,sans-Serif" font-size="10.00">agl&#45;shell&#45;client&#45;protocol.h</text>
</a>
</g>
</g>
<!-- Node1&#45;&gt;Node11 -->
<g id="edge10" class="edge">
<title>Node1&#45;&gt;Node11</title>
<path fill="none" stroke="#63b8ff" d="M1965.54,-210.46C2039.78,-200.67 2176.74,-181.89 2293,-162 2299.26,-160.93 2305.81,-159.74 2312.3,-158.51"/>
<polygon fill="#63b8ff" stroke="#63b8ff" points="2313.23,-161.89 2322.39,-156.57 2311.91,-155.02 2313.23,-161.89"/>
</g>
<!-- Node12 -->
<g id="node12" class="node">
<title>Node12</title>
<g id="a_node12"><a xlink:href="constants_8h.html" target="_top" xlink:title=" ">
<polygon fill="white" stroke="#666666" points="86,-90.5 18,-90.5 18,-71.5 86,-71.5 86,-90.5"/>
<text text-anchor="middle" x="52" y="-78.5" font-family="Helvetica,sans-Serif" font-size="10.00">constants.h</text>
</a>
</g>
</g>
<!-- Node1&#45;&gt;Node12 -->
<g id="edge11" class="edge">
<title>Node1&#45;&gt;Node12</title>
<path fill="none" stroke="#63b8ff" d="M1856.45,-216.93C1636.66,-214.36 822.65,-202.19 715,-162 694.84,-154.47 697.1,-139.68 677,-132 555.96,-85.74 222.29,-120.25 95,-96 91.5,-95.33 87.89,-94.46 84.32,-93.48"/>
<polygon fill="#63b8ff" stroke="#63b8ff" points="85.07,-90.05 74.48,-90.5 83.04,-96.75 85.07,-90.05"/>
</g>
<!-- Node15 -->
<g id="node15" class="node">
<title>Node15</title>
<g id="a_node15"><a xlink:title=" ">
<polygon fill="#e0e0e0" stroke="#999999" points="2547,-162 2445,-162 2445,-132 2547,-132 2547,-162"/>
<text text-anchor="start" x="2453" y="-150" font-family="Helvetica,sans-Serif" font-size="10.00">ivi&#45;application&#45;client</text>
<text text-anchor="middle" x="2496" y="-139" font-family="Helvetica,sans-Serif" font-size="10.00">&#45;protocol.h</text>
</a>
</g>
</g>
<!-- Node1&#45;&gt;Node15 -->
<g id="edge15" class="edge">
<title>Node1&#45;&gt;Node15</title>
<path fill="none" stroke="#63b8ff" d="M1965.72,-213.96C2059.74,-207.38 2258.11,-191.37 2434.71,-162.09"/>
<polygon fill="#63b8ff" stroke="#63b8ff" points="2435.41,-165.52 2444.7,-160.41 2434.26,-158.61 2435.41,-165.52"/>
</g>
<!-- Node16 -->
<g id="node16" class="node">
<title>Node16</title>
<g id="a_node16"><a xlink:title=" ">
<polygon fill="#e0e0e0" stroke="#999999" points="2682.5,-156.5 2565.5,-156.5 2565.5,-137.5 2682.5,-137.5 2682.5,-156.5"/>
<text text-anchor="middle" x="2624" y="-144.5" font-family="Helvetica,sans-Serif" font-size="10.00">ivi&#45;wm&#45;client&#45;protocol.h</text>
</a>
</g>
</g>
<!-- Node1&#45;&gt;Node16 -->
<g id="edge16" class="edge">
<title>Node1&#45;&gt;Node16</title>
<path fill="none" stroke="#63b8ff" d="M1965.61,-214.97C2077.06,-209.32 2338.56,-193.63 2556,-162 2562.65,-161.03 2569.63,-159.82 2576.48,-158.52"/>
<polygon fill="#63b8ff" stroke="#63b8ff" points="2577.24,-161.94 2586.37,-156.57 2575.88,-155.07 2577.24,-161.94"/>
</g>
<!-- Node17 -->
<g id="node17" class="node">
<title>Node17</title>
<g id="a_node17"><a xlink:href="key__event_8h.html" target="_top" xlink:title=" ">
<polygon fill="white" stroke="#666666" points="826,-162 724,-162 724,-132 826,-132 826,-162"/>
<text text-anchor="start" x="732" y="-150" font-family="Helvetica,sans-Serif" font-size="10.00">static_plugins/key</text>
<text text-anchor="middle" x="775" y="-139" font-family="Helvetica,sans-Serif" font-size="10.00">_event/key_event.h</text>
</a>
</g>
</g>
<!-- Node1&#45;&gt;Node17 -->
<g id="edge17" class="edge">
<title>Node1&#45;&gt;Node17</title>
<path fill="none" stroke="#63b8ff" d="M1856.24,-215.03C1707.45,-208.19 1283.24,-187.77 931,-162 899.84,-159.72 865.23,-156.67 836.54,-153.99"/>
<polygon fill="#63b8ff" stroke="#63b8ff" points="836.54,-150.48 826.26,-153.03 835.89,-157.45 836.54,-150.48"/>
</g>
<!-- Node25 -->
<g id="node25" class="node">
<title>Node25</title>
<g id="a_node25"><a xlink:href="text__input_8h.html" target="_top" xlink:title=" ">
<polygon fill="white" stroke="#666666" points="1095.5,-162 998.5,-162 998.5,-132 1095.5,-132 1095.5,-162"/>
<text text-anchor="start" x="1006.5" y="-150" font-family="Helvetica,sans-Serif" font-size="10.00">static_plugins/text</text>
<text text-anchor="middle" x="1047" y="-139" font-family="Helvetica,sans-Serif" font-size="10.00">_input/text_input.h</text>
</a>
</g>
</g>
<!-- Node1&#45;&gt;Node25 -->
<g id="edge29" class="edge">
<title>Node1&#45;&gt;Node25</title>
<path fill="none" stroke="#63b8ff" d="M1856.3,-213.1C1702.03,-200.69 1264.44,-165.49 1105.56,-152.71"/>
<polygon fill="#63b8ff" stroke="#63b8ff" points="1105.75,-149.21 1095.5,-151.9 1105.19,-156.19 1105.75,-149.21"/>
</g>
<!-- Node30 -->
<g id="node30" class="node">
<title>Node30</title>
<g id="a_node30"><a xlink:href="timer_8h.html" target="_top" xlink:title=" ">
<polygon fill="white" stroke="#666666" points="1863.5,-156.5 1816.5,-156.5 1816.5,-137.5 1863.5,-137.5 1863.5,-156.5"/>
<text text-anchor="middle" x="1840" y="-144.5" font-family="Helvetica,sans-Serif" font-size="10.00">timer.h</text>
</a>
</g>
</g>
<!-- Node1&#45;&gt;Node30 -->
<g id="edge43" class="edge">
<title>Node1&#45;&gt;Node30</title>
<path fill="none" stroke="#63b8ff" d="M1890.84,-197.77C1879.87,-187.02 1866.47,-173.91 1856.18,-163.84"/>
<polygon fill="#63b8ff" stroke="#63b8ff" points="1858.6,-161.31 1849.01,-156.82 1853.71,-166.32 1858.6,-161.31"/>
</g>
<!-- Node33 -->
<g id="node33" class="node">
<title>Node33</title>
<g id="a_node33"><a xlink:title=" ">
<polygon fill="#e0e0e0" stroke="#999999" points="2829,-156.5 2701,-156.5 2701,-137.5 2829,-137.5 2829,-156.5"/>
<text text-anchor="middle" x="2765" y="-144.5" font-family="Helvetica,sans-Serif" font-size="10.00">xdg&#45;shell&#45;client&#45;protocol.h</text>
</a>
</g>
</g>
<!-- Node1&#45;&gt;Node33 -->
<g id="edge48" class="edge">
<title>Node1&#45;&gt;Node33</title>
<path fill="none" stroke="#63b8ff" d="M1965.67,-215.84C2093.32,-211.49 2420.75,-197.52 2692,-162 2699.47,-161.02 2707.34,-159.76 2715.02,-158.4"/>
<polygon fill="#63b8ff" stroke="#63b8ff" points="2715.78,-161.82 2724.98,-156.56 2714.51,-154.93 2715.78,-161.82"/>
</g>
<!-- Node34 -->
<g id="node34" class="node">
<title>Node34</title>
<g id="a_node34"><a xlink:href="configuration_8h.html" target="_top" xlink:title=" ">
<polygon fill="white" stroke="#666666" points="1759.5,-156.5 1620.5,-156.5 1620.5,-137.5 1759.5,-137.5 1759.5,-156.5"/>
<text text-anchor="middle" x="1690" y="-144.5" font-family="Helvetica,sans-Serif" font-size="10.00">configuration/configuration.h</text>
</a>
</g>
</g>
<!-- Node1&#45;&gt;Node34 -->
<g id="edge49" class="edge">
<title>Node1&#45;&gt;Node34</title>
<path fill="none" stroke="#63b8ff" d="M1856.37,-200.32C1816.12,-187.66 1762.44,-170.78 1727.08,-159.66"/>
<polygon fill="#63b8ff" stroke="#63b8ff" points="1727.77,-156.21 1717.18,-156.55 1725.67,-162.89 1727.77,-156.21"/>
</g>
<!-- Node12&#45;&gt;Node7 -->
<g id="edge13" class="edge">
<title>Node12&#45;&gt;Node7</title>
<path fill="none" stroke="#63b8ff" d="M74.95,-71.47C81.36,-69.38 88.38,-67.35 95,-66 269.94,-30.25 480.57,-20.06 588.17,-17.16"/>
<polygon fill="#63b8ff" stroke="#63b8ff" points="588.35,-20.65 598.25,-16.9 588.17,-13.65 588.35,-20.65"/>
</g>
<!-- Node13 -->
<g id="node13" class="node">
<title>Node13</title>
<g id="a_node13"><a xlink:title=" ">
<polygon fill="#e0e0e0" stroke="#999999" points="116,-24.5 56,-24.5 56,-5.5 116,-5.5 116,-24.5"/>
<text text-anchor="middle" x="86" y="-12.5" font-family="Helvetica,sans-Serif" font-size="10.00">EGL/egl.h</text>
</a>
</g>
</g>
<!-- Node12&#45;&gt;Node13 -->
<g id="edge12" class="edge">
<title>Node12&#45;&gt;Node13</title>
<path fill="none" stroke="#63b8ff" d="M56.59,-71.37C61.68,-61.78 70.04,-46.05 76.54,-33.8"/>
<polygon fill="#63b8ff" stroke="#63b8ff" points="79.67,-35.38 81.27,-24.91 73.49,-32.09 79.67,-35.38"/>
</g>
<!-- Node14 -->
<g id="node14" class="node">
<title>Node14</title>
<g id="a_node14"><a xlink:title=" ">
<polygon fill="#e0e0e0" stroke="#999999" points="38,-24.5 0,-24.5 0,-5.5 38,-5.5 38,-24.5"/>
<text text-anchor="middle" x="19" y="-12.5" font-family="Helvetica,sans-Serif" font-size="10.00">array</text>
</a>
</g>
</g>
<!-- Node12&#45;&gt;Node14 -->
<g id="edge14" class="edge">
<title>Node12&#45;&gt;Node14</title>
<path fill="none" stroke="#63b8ff" d="M47.55,-71.37C42.61,-61.78 34.49,-46.05 28.18,-33.8"/>
<polygon fill="#63b8ff" stroke="#63b8ff" points="31.29,-32.19 23.59,-24.91 25.06,-35.4 31.29,-32.19"/>
</g>
<!-- Node17&#45;&gt;Node3 -->
<g id="edge19" class="edge">
<title>Node17&#45;&gt;Node3</title>
<path fill="none" stroke="#63b8ff" d="M788.76,-131.8C798.43,-121.82 811.37,-108.46 821.42,-98.09"/>
<polygon fill="#63b8ff" stroke="#63b8ff" points="823.99,-100.46 828.43,-90.84 818.96,-95.59 823.99,-100.46"/>
</g>
<!-- Node17&#45;&gt;Node4 -->
<g id="edge20" class="edge">
<title>Node17&#45;&gt;Node4</title>
<path fill="none" stroke="#63b8ff" d="M826.01,-142.4C869.35,-139.4 933.24,-135.13 989,-132 1159.81,-122.42 1591.9,-136.95 1758,-96 1759.69,-95.58 1761.4,-95.07 1763.1,-94.49"/>
<polygon fill="#63b8ff" stroke="#63b8ff" points="1764.62,-97.65 1772.54,-90.61 1761.96,-91.17 1764.62,-97.65"/>
</g>
<!-- Node17&#45;&gt;Node7 -->
<g id="edge26" class="edge">
<title>Node17&#45;&gt;Node7</title>
<path fill="none" stroke="#63b8ff" d="M723.98,-134.62C719.26,-133.69 714.55,-132.8 710,-132 651.68,-121.76 484.94,-140.61 446,-96 401.87,-45.45 510.1,-26.76 587.91,-19.91"/>
<polygon fill="#63b8ff" stroke="#63b8ff" points="588.52,-23.37 598.19,-19.05 587.94,-16.39 588.52,-23.37"/>
</g>
<!-- Node17&#45;&gt;Node12 -->
<g id="edge28" class="edge">
<title>Node17&#45;&gt;Node12</title>
<path fill="none" stroke="#63b8ff" d="M723.68,-134.18C719.07,-133.35 714.46,-132.61 710,-132 438.7,-95.07 364.05,-146.8 95,-96 91.5,-95.34 87.89,-94.47 84.32,-93.49"/>
<polygon fill="#63b8ff" stroke="#63b8ff" points="85.06,-90.06 74.48,-90.52 83.04,-96.76 85.06,-90.06"/>
</g>
<!-- Node18 -->
<g id="node18" class="node">
<title>Node18</title>
<g id="a_node18"><a xlink:title=" ">
<polygon fill="#e0e0e0" stroke="#999999" points="792.5,-90.5 757.5,-90.5 757.5,-71.5 792.5,-71.5 792.5,-90.5"/>
<text text-anchor="middle" x="775" y="-78.5" font-family="Helvetica,sans-Serif" font-size="10.00">map</text>
</a>
</g>
</g>
<!-- Node17&#45;&gt;Node18 -->
<g id="edge18" class="edge">
<title>Node17&#45;&gt;Node18</title>
<path fill="none" stroke="#63b8ff" d="M775,-131.8C775,-122.7 775,-110.79 775,-100.9"/>
<polygon fill="#63b8ff" stroke="#63b8ff" points="778.5,-100.84 775,-90.84 771.5,-100.84 778.5,-100.84"/>
</g>
<!-- Node19 -->
<g id="node19" class="node">
<title>Node19</title>
<g id="a_node19"><a xlink:title=" ">
<polygon fill="#e0e0e0" stroke="#999999" points="398.5,-96 285.5,-96 285.5,-66 398.5,-66 398.5,-96"/>
<text text-anchor="start" x="293.5" y="-84" font-family="Helvetica,sans-Serif" font-size="10.00">flutter/basic_message</text>
<text text-anchor="middle" x="342" y="-73" font-family="Helvetica,sans-Serif" font-size="10.00">_channel.h</text>
</a>
</g>
</g>
<!-- Node17&#45;&gt;Node19 -->
<g id="edge21" class="edge">
<title>Node17&#45;&gt;Node19</title>
<path fill="none" stroke="#63b8ff" d="M723.99,-134.55C719.27,-133.63 714.55,-132.76 710,-132 578.87,-109.98 544.32,-116.88 413,-96 411.53,-95.77 410.04,-95.52 408.54,-95.27"/>
<polygon fill="#63b8ff" stroke="#63b8ff" points="408.96,-91.8 398.51,-93.54 407.77,-98.69 408.96,-91.8"/>
</g>
<!-- Node20 -->
<g id="node20" class="node">
<title>Node20</title>
<g id="a_node20"><a xlink:title=" ">
<polygon fill="#e0e0e0" stroke="#999999" points="587,-90.5 455,-90.5 455,-71.5 587,-71.5 587,-90.5"/>
<text text-anchor="middle" x="521" y="-78.5" font-family="Helvetica,sans-Serif" font-size="10.00">flutter/binary_messenger.h</text>
</a>
</g>
</g>
<!-- Node17&#45;&gt;Node20 -->
<g id="edge22" class="edge">
<title>Node17&#45;&gt;Node20</title>
<path fill="none" stroke="#63b8ff" d="M723.9,-133.13C677.27,-121.37 609.06,-104.19 564.85,-93.05"/>
<polygon fill="#63b8ff" stroke="#63b8ff" points="565.53,-89.61 554.97,-90.56 563.82,-96.4 565.53,-89.61"/>
</g>
<!-- Node21 -->
<g id="node21" class="node">
<title>Node21</title>
<g id="a_node21"><a xlink:title=" ">
<polygon fill="#e0e0e0" stroke="#999999" points="267.5,-96 104.5,-96 104.5,-66 267.5,-66 267.5,-96"/>
<text text-anchor="start" x="112.5" y="-84" font-family="Helvetica,sans-Serif" font-size="10.00">flutter/shell/platform</text>
<text text-anchor="middle" x="186" y="-73" font-family="Helvetica,sans-Serif" font-size="10.00">/common/json_message_codec.h</text>
</a>
</g>
</g>
<!-- Node17&#45;&gt;Node21 -->
<g id="edge23" class="edge">
<title>Node17&#45;&gt;Node21</title>
<path fill="none" stroke="#63b8ff" d="M723.67,-134.3C719.06,-133.45 714.45,-132.66 710,-132 521.82,-104.05 469.96,-118.38 278.02,-96.18"/>
<polygon fill="#63b8ff" stroke="#63b8ff" points="278.22,-92.68 267.88,-94.99 277.41,-99.63 278.22,-92.68"/>
</g>
<!-- Node22 -->
<g id="node22" class="node">
<title>Node22</title>
<g id="a_node22"><a xlink:title=" ">
<polygon fill="#e0e0e0" stroke="#999999" points="1459.5,-90.5 1358.5,-90.5 1358.5,-71.5 1459.5,-71.5 1459.5,-90.5"/>
<text text-anchor="middle" x="1409" y="-78.5" font-family="Helvetica,sans-Serif" font-size="10.00">flutter/fml/macros.h</text>
</a>
</g>
</g>
<!-- Node17&#45;&gt;Node22 -->
<g id="edge24" class="edge">
<title>Node17&#45;&gt;Node22</title>
<path fill="none" stroke="#63b8ff" d="M826.18,-142.48C947.3,-134 1248.86,-111.96 1349,-96 1354.55,-95.12 1360.34,-94.01 1366.05,-92.8"/>
<polygon fill="#63b8ff" stroke="#63b8ff" points="1367.15,-96.14 1376.16,-90.55 1365.64,-89.31 1367.15,-96.14"/>
</g>
<!-- Node23 -->
<g id="node23" class="node">
<title>Node23</title>
<g id="a_node23"><a xlink:title=" ">
<polygon fill="#e0e0e0" stroke="#999999" points="1749,-90.5 1639,-90.5 1639,-71.5 1749,-71.5 1749,-90.5"/>
<text text-anchor="middle" x="1694" y="-78.5" font-family="Helvetica,sans-Serif" font-size="10.00">rapidjson/document.h</text>
</a>
</g>
</g>
<!-- Node17&#45;&gt;Node23 -->
<g id="edge25" class="edge">
<title>Node17&#45;&gt;Node23</title>
<path fill="none" stroke="#63b8ff" d="M826.01,-142.53C869.36,-139.61 933.25,-135.39 989,-132 1273.37,-114.7 1346.67,-134.11 1629,-96 1635.46,-95.13 1642.23,-93.96 1648.85,-92.67"/>
<polygon fill="#63b8ff" stroke="#63b8ff" points="1650,-96.01 1659.09,-90.56 1648.59,-89.15 1650,-96.01"/>
</g>
<!-- Node24 -->
<g id="node24" class="node">
<title>Node24</title>
<g id="a_node24"><a xlink:title=" ">
<polygon fill="#e0e0e0" stroke="#999999" points="739,-90.5 605,-90.5 605,-71.5 739,-71.5 739,-90.5"/>
<text text-anchor="middle" x="672" y="-78.5" font-family="Helvetica,sans-Serif" font-size="10.00">xkbcommon/xkbcommon.h</text>
</a>
</g>
</g>
<!-- Node17&#45;&gt;Node24 -->
<g id="edge27" class="edge">
<title>Node17&#45;&gt;Node24</title>
<path fill="none" stroke="#63b8ff" d="M752.4,-131.95C735.21,-121.27 711.67,-106.65 694.51,-95.98"/>
<polygon fill="#63b8ff" stroke="#63b8ff" points="696.05,-92.82 685.71,-90.52 692.35,-98.77 696.05,-92.82"/>
</g>
<!-- Node25&#45;&gt;Node3 -->
<g id="edge31" class="edge">
<title>Node25&#45;&gt;Node3</title>
<path fill="none" stroke="#63b8ff" d="M998.44,-132.42C964.33,-122.72 917.71,-109.1 877,-96 874.89,-95.32 872.73,-94.61 870.55,-93.88"/>
<polygon fill="#63b8ff" stroke="#63b8ff" points="871.64,-90.56 861.05,-90.64 869.38,-97.18 871.64,-90.56"/>
</g>
<!-- Node25&#45;&gt;Node4 -->
<g id="edge32" class="edge">
<title>Node25&#45;&gt;Node4</title>
<path fill="none" stroke="#63b8ff" d="M1095.93,-144.88C1235.3,-141.32 1632.37,-128.54 1758,-96 1759.68,-95.56 1761.39,-95.04 1763.08,-94.44"/>
<polygon fill="#63b8ff" stroke="#63b8ff" points="1764.62,-97.59 1772.52,-90.54 1761.95,-91.13 1764.62,-97.59"/>
</g>
<!-- Node25&#45;&gt;Node7 -->
<g id="edge40" class="edge">
<title>Node25&#45;&gt;Node7</title>
<path fill="none" stroke="#63b8ff" d="M998.44,-132.44C971.48,-123.9 937.86,-111.55 910,-96 891.21,-85.51 891.38,-75.35 872,-66 827.18,-44.38 772.46,-31.8 729.7,-24.66"/>
<polygon fill="#63b8ff" stroke="#63b8ff" points="730.09,-21.18 719.66,-23.05 728.98,-28.09 730.09,-21.18"/>
</g>
<!-- Node25&#45;&gt;Node12 -->
<g id="edge42" class="edge">
<title>Node25&#45;&gt;Node12</title>
<path fill="none" stroke="#63b8ff" d="M998.18,-142.53C955.22,-139.54 890.97,-135.21 835,-132 506.26,-113.15 418.86,-155.5 95,-96 91.5,-95.36 87.88,-94.5 84.31,-93.53"/>
<polygon fill="#63b8ff" stroke="#63b8ff" points="85.06,-90.1 74.47,-90.56 83.03,-96.8 85.06,-90.1"/>
</g>
<!-- Node25&#45;&gt;Node18 -->
<g id="edge30" class="edge">
<title>Node25&#45;&gt;Node18</title>
<path fill="none" stroke="#63b8ff" d="M998.05,-140.08C947.81,-133.07 867.9,-119.3 802,-96 800.98,-95.64 799.95,-95.25 798.92,-94.83"/>
<polygon fill="#63b8ff" stroke="#63b8ff" points="800.35,-91.64 789.81,-90.61 797.41,-97.99 800.35,-91.64"/>
</g>
<!-- Node25&#45;&gt;Node20 -->
<g id="edge33" class="edge">
<title>Node25&#45;&gt;Node20</title>
<path fill="none" stroke="#63b8ff" d="M998.46,-141.81C915.66,-134.39 741.91,-117.68 596,-96 588.79,-94.93 581.22,-93.67 573.77,-92.36"/>
<polygon fill="#63b8ff" stroke="#63b8ff" points="574.21,-88.88 563.74,-90.54 572.96,-95.77 574.21,-88.88"/>
</g>
<!-- Node25&#45;&gt;Node22 -->
<g id="edge36" class="edge">
<title>Node25&#45;&gt;Node22</title>
<path fill="none" stroke="#63b8ff" d="M1095.56,-138.96C1155.37,-130.05 1260.01,-113.73 1349,-96 1353.99,-95.01 1359.19,-93.9 1364.36,-92.76"/>
<polygon fill="#63b8ff" stroke="#63b8ff" points="1365.2,-96.15 1374.18,-90.53 1363.66,-89.32 1365.2,-96.15"/>
</g>
<!-- Node25&#45;&gt;Node23 -->
<g id="edge39" class="edge">
<title>Node25&#45;&gt;Node23</title>
<path fill="none" stroke="#63b8ff" d="M1095.53,-143.91C1195.7,-139.13 1432.43,-125.49 1629,-96 1635.29,-95.06 1641.89,-93.87 1648.37,-92.59"/>
<polygon fill="#63b8ff" stroke="#63b8ff" points="1649.3,-95.97 1658.39,-90.52 1647.89,-89.11 1649.3,-95.97"/>
</g>
<!-- Node25&#45;&gt;Node24 -->
<g id="edge41" class="edge">
<title>Node25&#45;&gt;Node24</title>
<path fill="none" stroke="#63b8ff" d="M998.28,-138.11C939.06,-128.45 836.12,-111.48 748,-96 741.43,-94.85 734.55,-93.61 727.72,-92.37"/>
<polygon fill="#63b8ff" stroke="#63b8ff" points="728.26,-88.91 717.79,-90.56 727,-95.8 728.26,-88.91"/>
</g>
<!-- Node26 -->
<g id="node26" class="node">
<title>Node26</title>
<g id="a_node26"><a xlink:title=" ">
<polygon fill="#e0e0e0" stroke="#999999" points="1043,-90.5 919,-90.5 919,-71.5 1043,-71.5 1043,-90.5"/>
<text text-anchor="middle" x="981" y="-78.5" font-family="Helvetica,sans-Serif" font-size="10.00">flutter/method_channel.h</text>
</a>
</g>
</g>
<!-- Node25&#45;&gt;Node26 -->
<g id="edge34" class="edge">
<title>Node25&#45;&gt;Node26</title>
<path fill="none" stroke="#63b8ff" d="M1032.35,-131.8C1022.06,-121.82 1008.28,-108.46 997.59,-98.09"/>
<polygon fill="#63b8ff" stroke="#63b8ff" points="999.74,-95.29 990.12,-90.84 994.86,-100.32 999.74,-95.29"/>
</g>
<!-- Node27 -->
<g id="node27" class="node">
<title>Node27</title>
<g id="a_node27"><a xlink:title=" ">
<polygon fill="#e0e0e0" stroke="#999999" points="1167,-96 1061,-96 1061,-66 1167,-66 1167,-96"/>
<text text-anchor="start" x="1069" y="-84" font-family="Helvetica,sans-Serif" font-size="10.00">flutter/method_result</text>
<text text-anchor="middle" x="1114" y="-73" font-family="Helvetica,sans-Serif" font-size="10.00">_functions.h</text>
</a>
</g>
</g>
<!-- Node25&#45;&gt;Node27 -->
<g id="edge35" class="edge">
<title>Node25&#45;&gt;Node27</title>
<path fill="none" stroke="#63b8ff" d="M1061.87,-131.8C1070.63,-123.43 1081.88,-112.68 1091.69,-103.31"/>
<polygon fill="#63b8ff" stroke="#63b8ff" points="1094.36,-105.6 1099.17,-96.16 1089.52,-100.54 1094.36,-105.6"/>
</g>
<!-- Node28 -->
<g id="node28" class="node">
<title>Node28</title>
<g id="a_node28"><a xlink:title=" ">
<polygon fill="#e0e0e0" stroke="#999999" points="1340.5,-96 1185.5,-96 1185.5,-66 1340.5,-66 1340.5,-96"/>
<text text-anchor="start" x="1193.5" y="-84" font-family="Helvetica,sans-Serif" font-size="10.00">flutter/shell/platform</text>
<text text-anchor="middle" x="1263" y="-73" font-family="Helvetica,sans-Serif" font-size="10.00">/common/json_method_codec.h</text>
</a>
</g>
</g>
<!-- Node25&#45;&gt;Node28 -->
<g id="edge37" class="edge">
<title>Node25&#45;&gt;Node28</title>
<path fill="none" stroke="#63b8ff" d="M1094.4,-131.95C1127.18,-122.24 1170.97,-109.27 1205.71,-98.98"/>
<polygon fill="#63b8ff" stroke="#63b8ff" points="1207.11,-102.21 1215.71,-96.01 1205.13,-95.5 1207.11,-102.21"/>
</g>
<!-- Node29 -->
<g id="node29" class="node">
<title>Node29</title>
<g id="a_node29"><a xlink:title=" ">
<polygon fill="#e0e0e0" stroke="#999999" points="1620.5,-96 1477.5,-96 1477.5,-66 1620.5,-66 1620.5,-96"/>
<text text-anchor="start" x="1485.5" y="-84" font-family="Helvetica,sans-Serif" font-size="10.00">flutter/shell/platform</text>
<text text-anchor="middle" x="1549" y="-73" font-family="Helvetica,sans-Serif" font-size="10.00">/common/text_input_model.h</text>
</a>
</g>
</g>
<!-- Node25&#45;&gt;Node29 -->
<g id="edge38" class="edge">
<title>Node25&#45;&gt;Node29</title>
<path fill="none" stroke="#63b8ff" d="M1095.73,-141.06C1172.42,-133.1 1326.19,-116.39 1467.34,-96.04"/>
<polygon fill="#63b8ff" stroke="#63b8ff" points="1468.09,-99.47 1477.48,-94.57 1467.08,-92.54 1468.09,-99.47"/>
</g>
<!-- Node30&#45;&gt;Node3 -->
<g id="edge44" class="edge">
<title>Node30&#45;&gt;Node3</title>
<path fill="none" stroke="#63b8ff" d="M1816.47,-140.5C1802.47,-137.46 1784.31,-133.92 1768,-132 1388.94,-87.45 1289.12,-140.06 910,-96 897.9,-94.59 884.81,-92.32 873.09,-90.01"/>
<polygon fill="#63b8ff" stroke="#63b8ff" points="873.71,-86.57 863.21,-88 872.31,-93.43 873.71,-86.57"/>
</g>
<!-- Node30&#45;&gt;Node4 -->
<g id="edge45" class="edge">
<title>Node30&#45;&gt;Node4</title>
<path fill="none" stroke="#63b8ff" d="M1832.99,-137.37C1824.97,-127.5 1811.65,-111.11 1801.58,-98.72"/>
<polygon fill="#63b8ff" stroke="#63b8ff" points="1804.26,-96.46 1795.24,-90.91 1798.83,-100.87 1804.26,-96.46"/>
</g>
<!-- Node31 -->
<g id="node31" class="node">
<title>Node31</title>
<g id="a_node31"><a xlink:title=" ">
<polygon fill="#e0e0e0" stroke="#999999" points="1953,-90.5 1889,-90.5 1889,-71.5 1953,-71.5 1953,-90.5"/>
<text text-anchor="middle" x="1921" y="-78.5" font-family="Helvetica,sans-Serif" font-size="10.00">sys/epoll.h</text>
</a>
</g>
</g>
<!-- Node30&#45;&gt;Node31 -->
<g id="edge46" class="edge">
<title>Node30&#45;&gt;Node31</title>
<path fill="none" stroke="#63b8ff" d="M1850.92,-137.37C1863.97,-127.06 1886.01,-109.65 1901.9,-97.09"/>
<polygon fill="#63b8ff" stroke="#63b8ff" points="1904.31,-99.64 1909.99,-90.7 1899.97,-94.15 1904.31,-99.64"/>
</g>
<!-- Node32 -->
<g id="node32" class="node">
<title>Node32</title>
<g id="a_node32"><a xlink:title=" ">
<polygon fill="#e0e0e0" stroke="#999999" points="2045,-90.5 1971,-90.5 1971,-71.5 2045,-71.5 2045,-90.5"/>
<text text-anchor="middle" x="2008" y="-78.5" font-family="Helvetica,sans-Serif" font-size="10.00">sys/timerfd.h</text>
</a>
</g>
</g>
<!-- Node30&#45;&gt;Node32 -->
<g id="edge47" class="edge">
<title>Node30&#45;&gt;Node32</title>
<path fill="none" stroke="#63b8ff" d="M1862.66,-137.37C1891.8,-126.27 1942.59,-106.92 1975.75,-94.28"/>
<polygon fill="#63b8ff" stroke="#63b8ff" points="1977.34,-97.43 1985.43,-90.6 1974.84,-90.89 1977.34,-97.43"/>
</g>
<!-- Node34&#45;&gt;Node4 -->
<g id="edge50" class="edge">
<title>Node34&#45;&gt;Node4</title>
<path fill="none" stroke="#63b8ff" d="M1703.22,-137.37C1719.36,-126.82 1746.91,-108.84 1766.21,-96.23"/>
<polygon fill="#63b8ff" stroke="#63b8ff" points="1768.22,-99.1 1774.68,-90.7 1764.39,-93.24 1768.22,-99.1"/>
</g>
<!-- Node34&#45;&gt;Node6 -->
<g id="edge51" class="edge">
<title>Node34&#45;&gt;Node6</title>
<path fill="none" stroke="#63b8ff" d="M1712.58,-137.4C1738.06,-127.63 1780.67,-111.09 1817,-96 1818.17,-95.52 1819.35,-95.02 1820.55,-94.51"/>
<polygon fill="#63b8ff" stroke="#63b8ff" points="1821.95,-97.72 1829.76,-90.56 1819.19,-91.29 1821.95,-97.72"/>
</g>
<!-- Node34&#45;&gt;Node22 -->
<g id="edge52" class="edge">
<title>Node34&#45;&gt;Node22</title>
<path fill="none" stroke="#63b8ff" d="M1651.47,-137.46C1607.17,-127.61 1532.28,-110.86 1468,-96 1463.61,-94.99 1459.04,-93.92 1454.48,-92.85"/>
<polygon fill="#63b8ff" stroke="#63b8ff" points="1455.09,-89.39 1444.55,-90.51 1453.48,-96.21 1455.09,-89.39"/>
</g>
<!-- Node34&#45;&gt;Node23 -->
<g id="edge53" class="edge">
<title>Node34&#45;&gt;Node23</title>
<path fill="none" stroke="#63b8ff" d="M1690.54,-137.37C1691.12,-128.07 1692.06,-112.98 1692.82,-100.9"/>
<polygon fill="#63b8ff" stroke="#63b8ff" points="1696.31,-101.1 1693.44,-90.91 1689.33,-100.67 1696.31,-101.1"/>
</g>
</g>
</svg>
