<?xml version="1.0" encoding="UTF-8" standalone="no"?>
<!DOCTYPE svg PUBLIC "-//W3C//DTD SVG 1.1//EN"
 "http://www.w3.org/Graphics/SVG/1.1/DTD/svg11.dtd">
<!-- Generated by graphviz version 2.43.0 (0)
 -->
<!-- Title: /home/joel.winarske@toyotaconnected.com/development/stargate/ivi&#45;homescreen/shell/wayland/display.h Pages: 1 -->
<svg width="2804pt" height="273pt"
 viewBox="0.00 0.00 2803.50 273.00" xmlns="http://www.w3.org/2000/svg" xmlns:xlink="http://www.w3.org/1999/xlink">
<g id="graph0" class="graph" transform="scale(1 1) rotate(0) translate(4 269)">
<title>/home/joel.winarske@toyotaconnected.com/development/stargate/ivi&#45;homescreen/shell/wayland/display.h</title>
<polygon fill="white" stroke="transparent" points="-4,4 -4,-269 2799.5,-269 2799.5,4 -4,4"/>
<!-- Node1 -->
<g id="node1" class="node">
<title>Node1</title>
<g id="a_node1"><a xlink:title=" ">
<polygon fill="#bfbfbf" stroke="black" points="1961,-201.5 1961,-264.5 2093,-264.5 2093,-201.5 1961,-201.5"/>
<text text-anchor="start" x="1969" y="-252.5" font-family="Helvetica,sans-Serif" font-size="10.00">/home/joel.winarske</text>
<text text-anchor="start" x="1969" y="-241.5" font-family="Helvetica,sans-Serif" font-size="10.00">@toyotaconnected.com</text>
<text text-anchor="start" x="1969" y="-230.5" font-family="Helvetica,sans-Serif" font-size="10.00">/development/stargate</text>
<text text-anchor="start" x="1969" y="-219.5" font-family="Helvetica,sans-Serif" font-size="10.00">/ivi&#45;homescreen/shell</text>
<text text-anchor="middle" x="2027" y="-208.5" font-family="Helvetica,sans-Serif" font-size="10.00">/wayland/display.h</text>
</a>
</g>
</g>
<!-- Node2 -->
<g id="node2" class="node">
<title>Node2</title>
<g id="a_node2"><a xlink:title=" ">
<polygon fill="white" stroke="#bfbfbf" points="678,-140 678,-159 728,-159 728,-140 678,-140"/>
<text text-anchor="middle" x="703" y="-147" font-family="Helvetica,sans-Serif" font-size="10.00">chrono</text>
</a>
</g>
</g>
<!-- Node1&#45;&gt;Node2 -->
<g id="edge1" class="edge">
<title>Node1&#45;&gt;Node2</title>
<path fill="none" stroke="midnightblue" d="M1960.79,-231.2C1732.38,-228.01 978.53,-213.94 742,-165 738.75,-164.33 735.4,-163.43 732.11,-162.4"/>
<polygon fill="midnightblue" stroke="midnightblue" points="733.09,-159.04 722.5,-159.07 730.8,-165.66 733.09,-159.04"/>
</g>
<!-- Node3 -->
<g id="node3" class="node">
<title>Node3</title>
<g id="a_node3"><a xlink:title=" ">
<polygon fill="white" stroke="#bfbfbf" points="877,-73 877,-92 935,-92 935,-73 877,-73"/>
<text text-anchor="middle" x="906" y="-80" font-family="Helvetica,sans-Serif" font-size="10.00">memory</text>
</a>
</g>
</g>
<!-- Node1&#45;&gt;Node3 -->
<g id="edge2" class="edge">
<title>Node1&#45;&gt;Node3</title>
<path fill="none" stroke="midnightblue" d="M1960.94,-230.12C1776.67,-224.42 1259.69,-205.2 1095,-165 1032.81,-149.82 965.1,-115.97 930.05,-97.02"/>
<polygon fill="midnightblue" stroke="midnightblue" points="931.52,-93.83 921.07,-92.09 928.16,-99.97 931.52,-93.83"/>
</g>
<!-- Node4 -->
<g id="node4" class="node">
<title>Node4</title>
<g id="a_node4"><a xlink:title=" ">
<polygon fill="white" stroke="#bfbfbf" points="1924,-73 1924,-92 1968,-92 1968,-73 1924,-73"/>
<text text-anchor="middle" x="1946" y="-80" font-family="Helvetica,sans-Serif" font-size="10.00">string</text>
</a>
</g>
</g>
<!-- Node1&#45;&gt;Node4 -->
<g id="edge3" class="edge">
<title>Node1&#45;&gt;Node4</title>
<path fill="none" stroke="midnightblue" d="M1992.33,-201.28C1982.2,-190.69 1971.98,-178.16 1965,-165 1954.49,-145.19 1949.74,-119.63 1947.64,-102.47"/>
<polygon fill="midnightblue" stroke="midnightblue" points="1951.07,-101.68 1946.56,-92.1 1944.11,-102.4 1951.07,-101.68"/>
</g>
<!-- Node5 -->
<g id="node5" class="node">
<title>Node5</title>
<g id="a_node5"><a xlink:title=" ">
<polygon fill="white" stroke="#bfbfbf" points="2120,-140 2120,-159 2168,-159 2168,-140 2120,-140"/>
<text text-anchor="middle" x="2144" y="-147" font-family="Helvetica,sans-Serif" font-size="10.00">thread</text>
</a>
</g>
</g>
<!-- Node1&#45;&gt;Node5 -->
<g id="edge4" class="edge">
<title>Node1&#45;&gt;Node5</title>
<path fill="none" stroke="midnightblue" d="M2070.9,-201.42C2088.94,-188.85 2108.96,-174.91 2123.48,-164.79"/>
<polygon fill="midnightblue" stroke="midnightblue" points="2125.54,-167.62 2131.75,-159.03 2121.54,-161.88 2125.54,-167.62"/>
</g>
<!-- Node6 -->
<g id="node6" class="node">
<title>Node6</title>
<g id="a_node6"><a xlink:title=" ">
<polygon fill="white" stroke="#bfbfbf" points="1986.5,-73 1986.5,-92 2033.5,-92 2033.5,-73 1986.5,-73"/>
<text text-anchor="middle" x="2010" y="-80" font-family="Helvetica,sans-Serif" font-size="10.00">vector</text>
</a>
</g>
</g>
<!-- Node1&#45;&gt;Node6 -->
<g id="edge5" class="edge">
<title>Node1&#45;&gt;Node6</title>
<path fill="none" stroke="midnightblue" d="M2034.35,-201.18C2037.81,-181.69 2040.17,-156.11 2035,-134 2032.29,-122.41 2026.5,-110.42 2021.18,-101.04"/>
<polygon fill="midnightblue" stroke="midnightblue" points="2024.1,-99.1 2015.95,-92.33 2018.1,-102.7 2024.1,-99.1"/>
</g>
<!-- Node7 -->
<g id="node7" class="node">
<title>Node7</title>
<g id="a_node7"><a xlink:title=" ">
<polygon fill="white" stroke="#bfbfbf" points="642.5,-0.5 642.5,-30.5 779.5,-30.5 779.5,-0.5 642.5,-0.5"/>
<text text-anchor="start" x="650.5" y="-18.5" font-family="Helvetica,sans-Serif" font-size="10.00">shell/platform/embedder</text>
<text text-anchor="middle" x="711" y="-7.5" font-family="Helvetica,sans-Serif" font-size="10.00">/embedder.h</text>
</a>
</g>
</g>
<!-- Node1&#45;&gt;Node7 -->
<g id="edge6" class="edge">
<title>Node1&#45;&gt;Node7</title>
<path fill="none" stroke="midnightblue" d="M2046.29,-201.37C2061.44,-179.66 2084.37,-151.42 2111,-134 2156.89,-103.99 2196.37,-142.07 2229,-98 2237.2,-86.93 2238.58,-76.9 2229,-67 2178.58,-14.88 1093.73,-15.05 789.62,-16.12"/>
<polygon fill="midnightblue" stroke="midnightblue" points="789.55,-12.62 779.56,-16.16 789.57,-19.62 789.55,-12.62"/>
</g>
<!-- Node8 -->
<g id="node8" class="node">
<title>Node8</title>
<g id="a_node8"><a xlink:title=" ">
<polygon fill="white" stroke="#bfbfbf" points="2186,-140 2186,-159 2284,-159 2284,-140 2186,-140"/>
<text text-anchor="middle" x="2235" y="-147" font-family="Helvetica,sans-Serif" font-size="10.00">wayland&#45;client.h</text>
</a>
</g>
</g>
<!-- Node1&#45;&gt;Node8 -->
<g id="edge7" class="edge">
<title>Node1&#45;&gt;Node8</title>
<path fill="none" stroke="midnightblue" d="M2093.1,-206.1C2129.92,-191.67 2174.08,-174.37 2203.25,-162.94"/>
<polygon fill="midnightblue" stroke="midnightblue" points="2204.87,-166.07 2212.9,-159.16 2202.32,-159.55 2204.87,-166.07"/>
</g>
<!-- Node9 -->
<g id="node9" class="node">
<title>Node9</title>
<g id="a_node9"><a xlink:title=" ">
<polygon fill="white" stroke="#bfbfbf" points="2302,-140 2302,-159 2402,-159 2402,-140 2302,-140"/>
<text text-anchor="middle" x="2352" y="-147" font-family="Helvetica,sans-Serif" font-size="10.00">wayland&#45;cursor.h</text>
</a>
</g>
</g>
<!-- Node1&#45;&gt;Node9 -->
<g id="edge8" class="edge">
<title>Node1&#45;&gt;Node9</title>
<path fill="none" stroke="midnightblue" d="M2093.16,-215.41C2157.28,-199.33 2252.73,-175.39 2308.03,-161.53"/>
<polygon fill="midnightblue" stroke="midnightblue" points="2309.02,-164.89 2317.87,-159.06 2307.32,-158.1 2309.02,-164.89"/>
</g>
<!-- Node10 -->
<g id="node10" class="node">
<title>Node10</title>
<g id="a_node10"><a xlink:title=" ">
<polygon fill="white" stroke="#bfbfbf" points="2420,-140 2420,-159 2472,-159 2472,-140 2420,-140"/>
<text text-anchor="middle" x="2446" y="-147" font-family="Helvetica,sans-Serif" font-size="10.00">cassert</text>
</a>
</g>
</g>
<!-- Node1&#45;&gt;Node10 -->
<g id="edge9" class="edge">
<title>Node1&#45;&gt;Node10</title>
<path fill="none" stroke="midnightblue" d="M2093.23,-224.94C2170.57,-215.66 2301.82,-196.72 2411,-165 2413.29,-164.33 2415.64,-163.57 2417.97,-162.74"/>
<polygon fill="midnightblue" stroke="midnightblue" points="2419.32,-165.97 2427.38,-159.1 2416.79,-159.44 2419.32,-165.97"/>
</g>
<!-- Node11 -->
<g id="node11" class="node">
<title>Node11</title>
<g id="a_node11"><a xlink:title=" ">
<polygon fill="white" stroke="#bfbfbf" points="2490,-140 2490,-159 2632,-159 2632,-140 2490,-140"/>
<text text-anchor="middle" x="2561" y="-147" font-family="Helvetica,sans-Serif" font-size="10.00">agl&#45;shell&#45;client&#45;protocol.h</text>
</a>
</g>
</g>
<!-- Node1&#45;&gt;Node11 -->
<g id="edge10" class="edge">
<title>Node1&#45;&gt;Node11</title>
<path fill="none" stroke="midnightblue" d="M2093.27,-222.91C2181.78,-210.62 2343.42,-187.61 2481,-165 2488.92,-163.7 2497.27,-162.26 2505.47,-160.81"/>
<polygon fill="midnightblue" stroke="midnightblue" points="2506.13,-164.25 2515.35,-159.04 2504.89,-157.35 2506.13,-164.25"/>
</g>
<!-- Node12 -->
<g id="node12" class="node">
<title>Node12</title>
<g id="a_node12"><a xlink:href="constants_8h.html" target="_top" xlink:title=" ">
<polygon fill="white" stroke="black" points="19.5,-73 19.5,-92 92.5,-92 92.5,-73 19.5,-73"/>
<text text-anchor="middle" x="56" y="-80" font-family="Helvetica,sans-Serif" font-size="10.00">constants.h</text>
</a>
</g>
</g>
<!-- Node1&#45;&gt;Node12 -->
<g id="edge11" class="edge">
<title>Node1&#45;&gt;Node12</title>
<path fill="none" stroke="midnightblue" d="M1961,-230.86C1718.61,-226.35 885.84,-207.85 775,-165 754.67,-157.14 757.32,-141.89 737,-134 605.25,-82.83 241.03,-123.44 102,-98 97.74,-97.22 93.32,-96.16 88.98,-94.97"/>
<polygon fill="midnightblue" stroke="midnightblue" points="89.7,-91.53 79.12,-92.02 87.69,-98.24 89.7,-91.53"/>
</g>
<!-- Node15 -->
<g id="node15" class="node">
<title>Node15</title>
<g id="a_node15"><a xlink:href="key__event_8h.html" target="_top" xlink:title=" ">
<polygon fill="white" stroke="black" points="784,-134.5 784,-164.5 896,-164.5 896,-134.5 784,-134.5"/>
<text text-anchor="start" x="792" y="-152.5" font-family="Helvetica,sans-Serif" font-size="10.00">static_plugins/key</text>
<text text-anchor="middle" x="840" y="-141.5" font-family="Helvetica,sans-Serif" font-size="10.00">_event/key_event.h</text>
</a>
</g>
</g>
<!-- Node1&#45;&gt;Node15 -->
<g id="edge15" class="edge">
<title>Node1&#45;&gt;Node15</title>
<path fill="none" stroke="midnightblue" d="M1960.78,-229.14C1793.19,-221.62 1338.64,-199.47 961,-165 943.3,-163.38 924.18,-161.27 906.49,-159.15"/>
<polygon fill="midnightblue" stroke="midnightblue" points="906.61,-155.64 896.26,-157.91 905.76,-162.59 906.61,-155.64"/>
</g>
<!-- Node23 -->
<g id="node23" class="node">
<title>Node23</title>
<g id="a_node23"><a xlink:href="text__input_8h.html" target="_top" xlink:title=" ">
<polygon fill="white" stroke="black" points="1104,-134.5 1104,-164.5 1212,-164.5 1212,-134.5 1104,-134.5"/>
<text text-anchor="start" x="1112" y="-152.5" font-family="Helvetica,sans-Serif" font-size="10.00">static_plugins/text</text>
<text text-anchor="middle" x="1158" y="-141.5" font-family="Helvetica,sans-Serif" font-size="10.00">_input/text_input.h</text>
</a>
</g>
</g>
<!-- Node1&#45;&gt;Node23 -->
<g id="edge27" class="edge">
<title>Node1&#45;&gt;Node23</title>
<path fill="none" stroke="midnightblue" d="M1960.97,-225.81C1798.87,-210.6 1382.86,-171.59 1222.44,-156.54"/>
<polygon fill="midnightblue" stroke="midnightblue" points="1222.53,-153.04 1212.24,-155.59 1221.87,-160.01 1222.53,-153.04"/>
</g>
<!-- Node28 -->
<g id="node28" class="node">
<title>Node28</title>
<g id="a_node28"><a xlink:href="timer_8h.html" target="_top" xlink:title=" ">
<polygon fill="white" stroke="black" points="1974.5,-140 1974.5,-159 2025.5,-159 2025.5,-140 1974.5,-140"/>
<text text-anchor="middle" x="2000" y="-147" font-family="Helvetica,sans-Serif" font-size="10.00">timer.h</text>
</a>
</g>
</g>
<!-- Node1&#45;&gt;Node28 -->
<g id="edge41" class="edge">
<title>Node1&#45;&gt;Node28</title>
<path fill="none" stroke="midnightblue" d="M2016.79,-201.19C2013.19,-190.31 2009.25,-178.44 2006.1,-168.91"/>
<polygon fill="midnightblue" stroke="midnightblue" points="2009.4,-167.73 2002.93,-159.34 2002.75,-169.93 2009.4,-167.73"/>
</g>
<!-- Node31 -->
<g id="node31" class="node">
<title>Node31</title>
<g id="a_node31"><a xlink:title=" ">
<polygon fill="white" stroke="#bfbfbf" points="2650.5,-140 2650.5,-159 2795.5,-159 2795.5,-140 2650.5,-140"/>
<text text-anchor="middle" x="2723" y="-147" font-family="Helvetica,sans-Serif" font-size="10.00">xdg&#45;shell&#45;client&#45;protocol.h</text>
</a>
</g>
</g>
<!-- Node1&#45;&gt;Node31 -->
<g id="edge46" class="edge">
<title>Node1&#45;&gt;Node31</title>
<path fill="none" stroke="midnightblue" d="M2093.06,-226.24C2205.74,-216.09 2442.23,-193.39 2641,-165 2649.73,-163.75 2658.97,-162.28 2667.96,-160.75"/>
<polygon fill="midnightblue" stroke="midnightblue" points="2668.72,-164.17 2677.97,-159.02 2667.52,-157.27 2668.72,-164.17"/>
</g>
<!-- Node32 -->
<g id="node32" class="node">
<title>Node32</title>
<g id="a_node32"><a xlink:href="configuration_8h.html" target="_top" xlink:title=" ">
<polygon fill="white" stroke="black" points="1762,-140 1762,-159 1918,-159 1918,-140 1762,-140"/>
<text text-anchor="middle" x="1840" y="-147" font-family="Helvetica,sans-Serif" font-size="10.00">configuration/configuration.h</text>
</a>
</g>
</g>
<!-- Node1&#45;&gt;Node32 -->
<g id="edge47" class="edge">
<title>Node1&#45;&gt;Node32</title>
<path fill="none" stroke="midnightblue" d="M1960.81,-203.15C1929.41,-189.47 1893.51,-173.82 1869.06,-163.16"/>
<polygon fill="midnightblue" stroke="midnightblue" points="1870.21,-159.85 1859.65,-159.06 1867.42,-166.27 1870.21,-159.85"/>
</g>
<!-- Node12&#45;&gt;Node7 -->
<g id="edge13" class="edge">
<title>Node12&#45;&gt;Node7</title>
<path fill="none" stroke="midnightblue" d="M79.61,-72.95C86.72,-70.68 94.61,-68.45 102,-67 289.7,-30.11 515.11,-20.14 631.99,-17.46"/>
<polygon fill="midnightblue" stroke="midnightblue" points="632.35,-20.95 642.27,-17.24 632.2,-13.95 632.35,-20.95"/>
</g>
<!-- Node13 -->
<g id="node13" class="node">
<title>Node13</title>
<g id="a_node13"><a xlink:title=" ">
<polygon fill="white" stroke="#bfbfbf" points="60,-6 60,-25 122,-25 122,-6 60,-6"/>
<text text-anchor="middle" x="91" y="-13" font-family="Helvetica,sans-Serif" font-size="10.00">EGL/egl.h</text>
</a>
</g>
</g>
<!-- Node12&#45;&gt;Node13 -->
<g id="edge12" class="edge">
<title>Node12&#45;&gt;Node13</title>
<path fill="none" stroke="midnightblue" d="M60.72,-72.73C66.02,-62.89 74.76,-46.66 81.49,-34.16"/>
<polygon fill="midnightblue" stroke="midnightblue" points="84.7,-35.59 86.35,-25.13 78.53,-32.27 84.7,-35.59"/>
</g>
<!-- Node14 -->
<g id="node14" class="node">
<title>Node14</title>
<g id="a_node14"><a xlink:title=" ">
<polygon fill="white" stroke="#bfbfbf" points="0,-6 0,-25 42,-25 42,-6 0,-6"/>
<text text-anchor="middle" x="21" y="-13" font-family="Helvetica,sans-Serif" font-size="10.00">array</text>
</a>
</g>
</g>
<!-- Node12&#45;&gt;Node14 -->
<g id="edge14" class="edge">
<title>Node12&#45;&gt;Node14</title>
<path fill="none" stroke="midnightblue" d="M51.28,-72.73C45.98,-62.89 37.24,-46.66 30.51,-34.16"/>
<polygon fill="midnightblue" stroke="midnightblue" points="33.47,-32.27 25.65,-25.13 27.3,-35.59 33.47,-32.27"/>
</g>
<!-- Node15&#45;&gt;Node3 -->
<g id="edge17" class="edge">
<title>Node15&#45;&gt;Node3</title>
<path fill="none" stroke="midnightblue" d="M854.32,-134.4C864.82,-124.06 879.07,-110.02 889.95,-99.31"/>
<polygon fill="midnightblue" stroke="midnightblue" points="892.5,-101.71 897.17,-92.19 887.59,-96.72 892.5,-101.71"/>
</g>
<!-- Node15&#45;&gt;Node4 -->
<g id="edge18" class="edge">
<title>Node15&#45;&gt;Node4</title>
<path fill="none" stroke="midnightblue" d="M896.2,-145.09C947.86,-142.01 1026.58,-137.45 1095,-134 1277.17,-124.82 1737.86,-141.48 1915,-98 1916.99,-97.51 1919.01,-96.89 1921.01,-96.18"/>
<polygon fill="midnightblue" stroke="midnightblue" points="1922.81,-99.22 1930.67,-92.12 1920.09,-92.77 1922.81,-99.22"/>
</g>
<!-- Node15&#45;&gt;Node7 -->
<g id="edge24" class="edge">
<title>Node15&#45;&gt;Node7</title>
<path fill="none" stroke="midnightblue" d="M783.91,-136.46C779.21,-135.58 774.53,-134.75 770,-134 705.49,-123.36 521.31,-146.98 478,-98 429.99,-43.71 547.11,-25.58 632.13,-19.53"/>
<polygon fill="midnightblue" stroke="midnightblue" points="632.58,-23.01 642.32,-18.85 632.11,-16.02 632.58,-23.01"/>
</g>
<!-- Node15&#45;&gt;Node12 -->
<g id="edge26" class="edge">
<title>Node15&#45;&gt;Node12</title>
<path fill="none" stroke="midnightblue" d="M783.96,-136.12C779.25,-135.31 774.55,-134.59 770,-134 475.15,-95.74 394.54,-151.11 102,-98 97.74,-97.23 93.32,-96.17 88.98,-94.98"/>
<polygon fill="midnightblue" stroke="midnightblue" points="89.7,-91.55 79.12,-92.03 87.69,-98.25 89.7,-91.55"/>
</g>
<!-- Node16 -->
<g id="node16" class="node">
<title>Node16</title>
<g id="a_node16"><a xlink:title=" ">
<polygon fill="white" stroke="#bfbfbf" points="821,-73 821,-92 859,-92 859,-73 821,-73"/>
<text text-anchor="middle" x="840" y="-80" font-family="Helvetica,sans-Serif" font-size="10.00">map</text>
</a>
</g>
</g>
<!-- Node15&#45;&gt;Node16 -->
<g id="edge16" class="edge">
<title>Node15&#45;&gt;Node16</title>
<path fill="none" stroke="midnightblue" d="M840,-134.4C840,-125.06 840,-112.71 840,-102.52"/>
<polygon fill="midnightblue" stroke="midnightblue" points="843.5,-102.19 840,-92.19 836.5,-102.19 843.5,-102.19"/>
</g>
<!-- Node17 -->
<g id="node17" class="node">
<title>Node17</title>
<g id="a_node17"><a xlink:title=" ">
<polygon fill="white" stroke="#bfbfbf" points="307,-67.5 307,-97.5 431,-97.5 431,-67.5 307,-67.5"/>
<text text-anchor="start" x="315" y="-85.5" font-family="Helvetica,sans-Serif" font-size="10.00">flutter/basic_message</text>
<text text-anchor="middle" x="369" y="-74.5" font-family="Helvetica,sans-Serif" font-size="10.00">_channel.h</text>
</a>
</g>
</g>
<!-- Node15&#45;&gt;Node17 -->
<g id="edge19" class="edge">
<title>Node15&#45;&gt;Node17</title>
<path fill="none" stroke="midnightblue" d="M783.92,-136.4C779.22,-135.53 774.54,-134.72 770,-134 626.47,-111.24 588.71,-119.63 445,-98 443.73,-97.81 442.45,-97.61 441.16,-97.41"/>
<polygon fill="midnightblue" stroke="midnightblue" points="441.58,-93.93 431.15,-95.77 440.45,-100.84 441.58,-93.93"/>
</g>
<!-- Node18 -->
<g id="node18" class="node">
<title>Node18</title>
<g id="a_node18"><a xlink:title=" ">
<polygon fill="white" stroke="#bfbfbf" points="487.5,-73 487.5,-92 634.5,-92 634.5,-73 487.5,-73"/>
<text text-anchor="middle" x="561" y="-80" font-family="Helvetica,sans-Serif" font-size="10.00">flutter/binary_messenger.h</text>
</a>
</g>
</g>
<!-- Node15&#45;&gt;Node18 -->
<g id="edge20" class="edge">
<title>Node15&#45;&gt;Node18</title>
<path fill="none" stroke="midnightblue" d="M783.88,-135.42C732.03,-123.35 655.91,-105.61 607.41,-94.31"/>
<polygon fill="midnightblue" stroke="midnightblue" points="608.03,-90.86 597.5,-92 606.44,-97.68 608.03,-90.86"/>
</g>
<!-- Node19 -->
<g id="node19" class="node">
<title>Node19</title>
<g id="a_node19"><a xlink:title=" ">
<polygon fill="white" stroke="#bfbfbf" points="111,-67.5 111,-97.5 289,-97.5 289,-67.5 111,-67.5"/>
<text text-anchor="start" x="119" y="-85.5" font-family="Helvetica,sans-Serif" font-size="10.00">flutter/shell/platform</text>
<text text-anchor="middle" x="200" y="-74.5" font-family="Helvetica,sans-Serif" font-size="10.00">/common/json_message_codec.h</text>
</a>
</g>
</g>
<!-- Node15&#45;&gt;Node19 -->
<g id="edge21" class="edge">
<title>Node15&#45;&gt;Node19</title>
<path fill="none" stroke="midnightblue" d="M783.95,-136.23C779.24,-135.4 774.55,-134.64 770,-134 564.93,-105.06 508.82,-120.9 299.26,-98.08"/>
<polygon fill="midnightblue" stroke="midnightblue" points="299.49,-94.59 289.16,-96.97 298.72,-101.54 299.49,-94.59"/>
</g>
<!-- Node20 -->
<g id="node20" class="node">
<title>Node20</title>
<g id="a_node20"><a xlink:title=" ">
<polygon fill="white" stroke="#bfbfbf" points="1474.5,-73 1474.5,-92 1587.5,-92 1587.5,-73 1474.5,-73"/>
<text text-anchor="middle" x="1531" y="-80" font-family="Helvetica,sans-Serif" font-size="10.00">flutter/fml/macros.h</text>
</a>
</g>
</g>
<!-- Node15&#45;&gt;Node20 -->
<g id="edge22" class="edge">
<title>Node15&#45;&gt;Node20</title>
<path fill="none" stroke="midnightblue" d="M896.2,-144.94C1028.37,-136.41 1355.99,-114.3 1465,-98 1471.86,-96.97 1479.07,-95.65 1486.11,-94.22"/>
<polygon fill="midnightblue" stroke="midnightblue" points="1487.17,-97.57 1496.23,-92.07 1485.72,-90.72 1487.17,-97.57"/>
</g>
<!-- Node21 -->
<g id="node21" class="node">
<title>Node21</title>
<g id="a_node21"><a xlink:title=" ">
<polygon fill="white" stroke="#bfbfbf" points="1784,-73 1784,-92 1906,-92 1906,-73 1784,-73"/>
<text text-anchor="middle" x="1845" y="-80" font-family="Helvetica,sans-Serif" font-size="10.00">rapidjson/document.h</text>
</a>
</g>
</g>
<!-- Node15&#45;&gt;Node21 -->
<g id="edge23" class="edge">
<title>Node15&#45;&gt;Node21</title>
<path fill="none" stroke="midnightblue" d="M896.21,-145.24C947.88,-142.26 1026.59,-137.76 1095,-134 1397.19,-117.41 1474.85,-136.8 1775,-98 1782.88,-96.98 1791.19,-95.57 1799.22,-94.02"/>
<polygon fill="midnightblue" stroke="midnightblue" points="1800.1,-97.41 1809.21,-92 1798.71,-90.55 1800.1,-97.41"/>
</g>
<!-- Node22 -->
<g id="node22" class="node">
<title>Node22</title>
<g id="a_node22"><a xlink:title=" ">
<polygon fill="white" stroke="#bfbfbf" points="653,-73 653,-92 803,-92 803,-73 653,-73"/>
<text text-anchor="middle" x="728" y="-80" font-family="Helvetica,sans-Serif" font-size="10.00">xkbcommon/xkbcommon.h</text>
</a>
</g>
</g>
<!-- Node15&#45;&gt;Node22 -->
<g id="edge25" class="edge">
<title>Node15&#45;&gt;Node22</title>
<path fill="none" stroke="midnightblue" d="M815.7,-134.4C796.65,-123.34 770.32,-108.06 751.49,-97.13"/>
<polygon fill="midnightblue" stroke="midnightblue" points="753.06,-94 742.66,-92.01 749.55,-100.05 753.06,-94"/>
</g>
<!-- Node23&#45;&gt;Node3 -->
<g id="edge29" class="edge">
<title>Node23&#45;&gt;Node3</title>
<path fill="none" stroke="midnightblue" d="M1103.96,-136.82C1061.56,-127.32 1001.18,-113.07 949,-98 945.99,-97.13 942.89,-96.18 939.78,-95.2"/>
<polygon fill="midnightblue" stroke="midnightblue" points="940.58,-91.78 929.99,-92.01 938.41,-98.44 940.58,-91.78"/>
</g>
<!-- Node23&#45;&gt;Node4 -->
<g id="edge30" class="edge">
<title>Node23&#45;&gt;Node4</title>
<path fill="none" stroke="midnightblue" d="M1212.24,-147.48C1362.51,-144.24 1781.87,-132.29 1915,-98 1916.99,-97.49 1919,-96.85 1921,-96.13"/>
<polygon fill="midnightblue" stroke="midnightblue" points="1922.8,-99.17 1930.65,-92.05 1920.08,-92.72 1922.8,-99.17"/>
</g>
<!-- Node23&#45;&gt;Node7 -->
<g id="edge38" class="edge">
<title>Node23&#45;&gt;Node7</title>
<path fill="none" stroke="midnightblue" d="M1103.89,-138.91C1067.93,-131.13 1020.45,-118.11 982,-98 962.69,-87.9 963.64,-76.46 944,-67 895.54,-43.66 836.23,-31 789.58,-24.19"/>
<polygon fill="midnightblue" stroke="midnightblue" points="789.91,-20.71 779.52,-22.79 788.94,-27.64 789.91,-20.71"/>
</g>
<!-- Node23&#45;&gt;Node12 -->
<g id="edge40" class="edge">
<title>Node23&#45;&gt;Node12</title>
<path fill="none" stroke="midnightblue" d="M1103.72,-145.19C1052.5,-142.12 973.54,-137.5 905,-134 548.22,-115.78 453.79,-160.23 102,-98 97.73,-97.25 93.31,-96.2 88.97,-95.02"/>
<polygon fill="midnightblue" stroke="midnightblue" points="89.69,-91.58 79.11,-92.08 87.69,-98.29 89.69,-91.58"/>
</g>
<!-- Node23&#45;&gt;Node16 -->
<g id="edge28" class="edge">
<title>Node23&#45;&gt;Node16</title>
<path fill="none" stroke="midnightblue" d="M1103.87,-144.05C1044.69,-138.05 947.66,-124.85 868,-98 866.57,-97.52 865.13,-96.97 863.69,-96.38"/>
<polygon fill="midnightblue" stroke="midnightblue" points="864.99,-93.13 854.45,-92.05 862.02,-99.47 864.99,-93.13"/>
</g>
<!-- Node23&#45;&gt;Node18 -->
<g id="edge31" class="edge">
<title>Node23&#45;&gt;Node18</title>
<path fill="none" stroke="midnightblue" d="M1103.82,-144.52C1009.94,-137.33 811.03,-120.76 644,-98 634.95,-96.77 625.38,-95.27 616.08,-93.72"/>
<polygon fill="midnightblue" stroke="midnightblue" points="616.58,-90.25 606.13,-92.02 615.4,-97.15 616.58,-90.25"/>
</g>
<!-- Node23&#45;&gt;Node20 -->
<g id="edge34" class="edge">
<title>Node23&#45;&gt;Node20</title>
<path fill="none" stroke="midnightblue" d="M1212.22,-140.47C1273.69,-131.17 1376.81,-114.93 1465,-98 1471.12,-96.82 1477.55,-95.51 1483.89,-94.17"/>
<polygon fill="midnightblue" stroke="midnightblue" points="1484.68,-97.58 1493.72,-92.05 1483.21,-90.74 1484.68,-97.58"/>
</g>
<!-- Node23&#45;&gt;Node21 -->
<g id="edge37" class="edge">
<title>Node23&#45;&gt;Node21</title>
<path fill="none" stroke="midnightblue" d="M1212.31,-146.29C1320.07,-141.43 1568.36,-127.74 1775,-98 1782.52,-96.92 1790.44,-95.52 1798.14,-94.03"/>
<polygon fill="midnightblue" stroke="midnightblue" points="1798.98,-97.43 1808.09,-92.03 1797.6,-90.57 1798.98,-97.43"/>
</g>
<!-- Node23&#45;&gt;Node22 -->
<g id="edge39" class="edge">
<title>Node23&#45;&gt;Node22</title>
<path fill="none" stroke="midnightblue" d="M1104,-141.06C1035.86,-131.57 915.11,-114.42 812,-98 803.7,-96.68 794.95,-95.23 786.36,-93.78"/>
<polygon fill="midnightblue" stroke="midnightblue" points="786.83,-90.3 776.38,-92.07 785.65,-97.2 786.83,-90.3"/>
</g>
<!-- Node24 -->
<g id="node24" class="node">
<title>Node24</title>
<g id="a_node24"><a xlink:title=" ">
<polygon fill="white" stroke="#bfbfbf" points="991.5,-73 991.5,-92 1130.5,-92 1130.5,-73 991.5,-73"/>
<text text-anchor="middle" x="1061" y="-80" font-family="Helvetica,sans-Serif" font-size="10.00">flutter/method_channel.h</text>
</a>
</g>
</g>
<!-- Node23&#45;&gt;Node24 -->
<g id="edge32" class="edge">
<title>Node23&#45;&gt;Node24</title>
<path fill="none" stroke="midnightblue" d="M1136.95,-134.4C1120.69,-123.5 1098.28,-108.48 1082.02,-97.58"/>
<polygon fill="midnightblue" stroke="midnightblue" points="1083.95,-94.67 1073.7,-92.01 1080.05,-100.48 1083.95,-94.67"/>
</g>
<!-- Node25 -->
<g id="node25" class="node">
<title>Node25</title>
<g id="a_node25"><a xlink:title=" ">
<polygon fill="white" stroke="#bfbfbf" points="1148.5,-67.5 1148.5,-97.5 1267.5,-97.5 1267.5,-67.5 1148.5,-67.5"/>
<text text-anchor="start" x="1156.5" y="-85.5" font-family="Helvetica,sans-Serif" font-size="10.00">flutter/method_result</text>
<text text-anchor="middle" x="1208" y="-74.5" font-family="Helvetica,sans-Serif" font-size="10.00">_functions.h</text>
</a>
</g>
</g>
<!-- Node23&#45;&gt;Node25 -->
<g id="edge33" class="edge">
<title>Node23&#45;&gt;Node25</title>
<path fill="none" stroke="midnightblue" d="M1168.85,-134.4C1175.34,-125.96 1183.72,-115.07 1191.06,-105.52"/>
<polygon fill="midnightblue" stroke="midnightblue" points="1193.85,-107.64 1197.17,-97.58 1188.3,-103.37 1193.85,-107.64"/>
</g>
<!-- Node26 -->
<g id="node26" class="node">
<title>Node26</title>
<g id="a_node26"><a xlink:title=" ">
<polygon fill="white" stroke="#bfbfbf" points="1285.5,-67.5 1285.5,-97.5 1456.5,-97.5 1456.5,-67.5 1285.5,-67.5"/>
<text text-anchor="start" x="1293.5" y="-85.5" font-family="Helvetica,sans-Serif" font-size="10.00">flutter/shell/platform</text>
<text text-anchor="middle" x="1371" y="-74.5" font-family="Helvetica,sans-Serif" font-size="10.00">/common/json_method_codec.h</text>
</a>
</g>
</g>
<!-- Node23&#45;&gt;Node26 -->
<g id="edge35" class="edge">
<title>Node23&#45;&gt;Node26</title>
<path fill="none" stroke="midnightblue" d="M1203.96,-134.48C1236.46,-124.56 1280.23,-111.2 1314.81,-100.65"/>
<polygon fill="midnightblue" stroke="midnightblue" points="1316.22,-103.88 1324.76,-97.61 1314.17,-97.18 1316.22,-103.88"/>
</g>
<!-- Node27 -->
<g id="node27" class="node">
<title>Node27</title>
<g id="a_node27"><a xlink:title=" ">
<polygon fill="white" stroke="#bfbfbf" points="1606,-67.5 1606,-97.5 1766,-97.5 1766,-67.5 1606,-67.5"/>
<text text-anchor="start" x="1614" y="-85.5" font-family="Helvetica,sans-Serif" font-size="10.00">flutter/shell/platform</text>
<text text-anchor="middle" x="1686" y="-74.5" font-family="Helvetica,sans-Serif" font-size="10.00">/common/text_input_model.h</text>
</a>
</g>
</g>
<!-- Node23&#45;&gt;Node27 -->
<g id="edge36" class="edge">
<title>Node23&#45;&gt;Node27</title>
<path fill="none" stroke="midnightblue" d="M1212.04,-143.06C1292.98,-134.74 1450.71,-117.84 1595.59,-98.02"/>
<polygon fill="midnightblue" stroke="midnightblue" points="1596.13,-101.47 1605.56,-96.64 1595.17,-94.54 1596.13,-101.47"/>
</g>
<!-- Node28&#45;&gt;Node3 -->
<g id="edge42" class="edge">
<title>Node28&#45;&gt;Node3</title>
<path fill="none" stroke="midnightblue" d="M1974.48,-142.4C1960.54,-139.33 1942.91,-135.87 1927,-134 1509.57,-84.9 1399.61,-145.52 982,-98 969.92,-96.63 956.89,-94.41 945.08,-92.12"/>
<polygon fill="midnightblue" stroke="midnightblue" points="945.57,-88.65 935.08,-90.11 944.19,-95.51 945.57,-88.65"/>
</g>
<!-- Node28&#45;&gt;Node4 -->
<g id="edge43" class="edge">
<title>Node28&#45;&gt;Node4</title>
<path fill="none" stroke="midnightblue" d="M1992.72,-139.73C1984.3,-129.6 1970.25,-112.69 1959.75,-100.06"/>
<polygon fill="midnightblue" stroke="midnightblue" points="1962.25,-97.58 1953.17,-92.13 1956.87,-102.06 1962.25,-97.58"/>
</g>
<!-- Node29 -->
<g id="node29" class="node">
<title>Node29</title>
<g id="a_node29"><a xlink:title=" ">
<polygon fill="white" stroke="#bfbfbf" points="2051.5,-73 2051.5,-92 2120.5,-92 2120.5,-73 2051.5,-73"/>
<text text-anchor="middle" x="2086" y="-80" font-family="Helvetica,sans-Serif" font-size="10.00">sys/epoll.h</text>
</a>
</g>
</g>
<!-- Node28&#45;&gt;Node29 -->
<g id="edge44" class="edge">
<title>Node28&#45;&gt;Node29</title>
<path fill="none" stroke="midnightblue" d="M2011.6,-139.73C2025.65,-129.11 2049.55,-111.05 2066.47,-98.26"/>
<polygon fill="midnightblue" stroke="midnightblue" points="2068.72,-100.95 2074.59,-92.13 2064.5,-95.36 2068.72,-100.95"/>
</g>
<!-- Node30 -->
<g id="node30" class="node">
<title>Node30</title>
<g id="a_node30"><a xlink:title=" ">
<polygon fill="white" stroke="#bfbfbf" points="2138.5,-73 2138.5,-92 2219.5,-92 2219.5,-73 2138.5,-73"/>
<text text-anchor="middle" x="2179" y="-80" font-family="Helvetica,sans-Serif" font-size="10.00">sys/timerfd.h</text>
</a>
</g>
</g>
<!-- Node28&#45;&gt;Node30 -->
<g id="edge45" class="edge">
<title>Node28&#45;&gt;Node30</title>
<path fill="none" stroke="midnightblue" d="M2023.77,-139.87C2055.15,-128.47 2110.56,-108.35 2145.99,-95.49"/>
<polygon fill="midnightblue" stroke="midnightblue" points="2147.21,-98.77 2155.42,-92.06 2144.82,-92.19 2147.21,-98.77"/>
</g>
<!-- Node32&#45;&gt;Node4 -->
<g id="edge48" class="edge">
<title>Node32&#45;&gt;Node4</title>
<path fill="none" stroke="midnightblue" d="M1854.3,-139.73C1872.02,-128.87 1902.43,-110.22 1923.34,-97.39"/>
<polygon fill="midnightblue" stroke="midnightblue" points="1925.24,-100.34 1931.93,-92.13 1921.58,-94.37 1925.24,-100.34"/>
</g>
<!-- Node32&#45;&gt;Node6 -->
<g id="edge49" class="edge">
<title>Node32&#45;&gt;Node6</title>
<path fill="none" stroke="midnightblue" d="M1864.92,-139.83C1892.51,-130.11 1938.21,-113.65 1977,-98 1978.41,-97.43 1979.86,-96.84 1981.31,-96.23"/>
<polygon fill="midnightblue" stroke="midnightblue" points="1983.07,-99.28 1990.89,-92.13 1980.32,-92.85 1983.07,-99.28"/>
</g>
<!-- Node32&#45;&gt;Node20 -->
<g id="edge50" class="edge">
<title>Node32&#45;&gt;Node20</title>
<path fill="none" stroke="midnightblue" d="M1798.26,-139.98C1749.83,-130.05 1667.58,-113.09 1597,-98 1591.27,-96.77 1585.26,-95.48 1579.3,-94.18"/>
<polygon fill="midnightblue" stroke="midnightblue" points="1579.89,-90.72 1569.37,-92.01 1578.4,-97.56 1579.89,-90.72"/>
</g>
<!-- Node32&#45;&gt;Node21 -->
<g id="edge51" class="edge">
<title>Node32&#45;&gt;Node21</title>
<path fill="none" stroke="midnightblue" d="M1840.67,-139.73C1841.41,-130.18 1842.61,-114.62 1843.56,-102.28"/>
<polygon fill="midnightblue" stroke="midnightblue" points="1847.06,-102.37 1844.34,-92.13 1840.08,-101.83 1847.06,-102.37"/>
</g>
</g>
</svg>
