<?xml version="1.0" encoding="UTF-8" standalone="no"?>
<!DOCTYPE svg PUBLIC "-//W3C//DTD SVG 1.1//EN"
 "http://www.w3.org/Graphics/SVG/1.1/DTD/svg11.dtd">
<!-- Generated by graphviz version 5.0.0 (0)
 -->
<!-- Title: /mnt/raid10/stargate/ivi&#45;homescreen/shell/logging/dlt/dlt.h Pages: 1 -->
<svg width="537pt" height="170pt"
 viewBox="0.00 0.00 537.00 170.00" xmlns="http://www.w3.org/2000/svg" xmlns:xlink="http://www.w3.org/1999/xlink">
<g id="graph0" class="graph" transform="scale(1 1) rotate(0) translate(4 166)">
<title>/mnt/raid10/stargate/ivi&#45;homescreen/shell/logging/dlt/dlt.h</title>
<!-- Node1 -->
<g id="node1" class="node">
<title>Node1</title>
<g id="a_node1"><a xlink:title=" ">
<polygon fill="#999999" stroke="#666666" points="293,-162 184,-162 184,-121 293,-121 293,-162"/>
<text text-anchor="start" x="192" y="-150" font-family="Helvetica,sans-Serif" font-size="10.00">/mnt/raid10/stargate</text>
<text text-anchor="start" x="192" y="-139" font-family="Helvetica,sans-Serif" font-size="10.00">/ivi&#45;homescreen/shell</text>
<text text-anchor="middle" x="238.5" y="-128" font-family="Helvetica,sans-Serif" font-size="10.00">/logging/dlt/dlt.h</text>
</a>
</g>
</g>
<!-- Node2 -->
<g id="node2" class="node">
<title>Node2</title>
<g id="a_node2"><a xlink:href="libdlt_8h.html" target="_top" xlink:title=" ">
<polygon fill="white" stroke="#666666" points="59,-79.5 0,-79.5 0,-60.5 59,-60.5 59,-79.5"/>
<text text-anchor="middle" x="29.5" y="-67.5" font-family="Helvetica,sans-Serif" font-size="10.00">dlt/libdlt.h</text>
</a>
</g>
</g>
<!-- Node1&#45;&gt;Node2 -->
<g id="edge1" class="edge">
<title>Node1&#45;&gt;Node2</title>
<path fill="none" stroke="#63b8ff" d="M183.62,-123.03C150.26,-112.3 106.83,-98.13 68.5,-85 66.61,-84.35 64.67,-83.68 62.72,-83"/>
<polygon fill="#63b8ff" stroke="#63b8ff" points="63.57,-79.59 52.97,-79.55 61.23,-86.18 63.57,-79.59"/>
</g>
<!-- Node4 -->
<g id="node4" class="node">
<title>Node4</title>
<g id="a_node4"><a xlink:title=" ">
<polygon fill="#e0e0e0" stroke="#999999" points="178,-79.5 77,-79.5 77,-60.5 178,-60.5 178,-79.5"/>
<text text-anchor="middle" x="127.5" y="-67.5" font-family="Helvetica,sans-Serif" font-size="10.00">flutter/fml/macros.h</text>
</a>
</g>
</g>
<!-- Node1&#45;&gt;Node4 -->
<g id="edge3" class="edge">
<title>Node1&#45;&gt;Node4</title>
<path fill="none" stroke="#63b8ff" d="M207.28,-120.96C189.06,-109.54 166.48,-95.41 150,-85.09"/>
<polygon fill="#63b8ff" stroke="#63b8ff" points="151.41,-81.84 141.08,-79.5 147.7,-87.78 151.41,-81.84"/>
</g>
<!-- Node5 -->
<g id="node5" class="node">
<title>Node5</title>
<g id="a_node5"><a xlink:title=" ">
<polygon fill="#e0e0e0" stroke="#999999" points="281,-79.5 196,-79.5 196,-60.5 281,-60.5 281,-79.5"/>
<text text-anchor="middle" x="238.5" y="-67.5" font-family="Helvetica,sans-Serif" font-size="10.00">spdlog/spdlog.h</text>
</a>
</g>
</g>
<!-- Node1&#45;&gt;Node5 -->
<g id="edge4" class="edge">
<title>Node1&#45;&gt;Node5</title>
<path fill="none" stroke="#63b8ff" d="M238.5,-120.77C238.5,-111.08 238.5,-99.46 238.5,-89.88"/>
<polygon fill="#63b8ff" stroke="#63b8ff" points="242,-89.82 238.5,-79.82 235,-89.82 242,-89.82"/>
</g>
<!-- Node6 -->
<g id="node6" class="node">
<title>Node6</title>
<g id="a_node6"><a xlink:title=" ">
<polygon fill="#e0e0e0" stroke="#999999" points="409.5,-85 299.5,-85 299.5,-55 409.5,-55 409.5,-85"/>
<text text-anchor="start" x="307.5" y="-73" font-family="Helvetica,sans-Serif" font-size="10.00">spdlog/sinks/callback</text>
<text text-anchor="middle" x="354.5" y="-62" font-family="Helvetica,sans-Serif" font-size="10.00">_sink.h</text>
</a>
</g>
</g>
<!-- Node1&#45;&gt;Node6 -->
<g id="edge5" class="edge">
<title>Node1&#45;&gt;Node6</title>
<path fill="none" stroke="#63b8ff" d="M271.12,-120.96C287.03,-111.42 306.11,-99.99 322,-90.47"/>
<polygon fill="#63b8ff" stroke="#63b8ff" points="324.17,-93.25 330.94,-85.11 320.57,-87.25 324.17,-93.25"/>
</g>
<!-- Node7 -->
<g id="node7" class="node">
<title>Node7</title>
<g id="a_node7"><a xlink:title=" ">
<polygon fill="#e0e0e0" stroke="#999999" points="529,-85 428,-85 428,-55 529,-55 529,-85"/>
<text text-anchor="start" x="436" y="-73" font-family="Helvetica,sans-Serif" font-size="10.00">spdlog/sinks/stdout</text>
<text text-anchor="middle" x="478.5" y="-62" font-family="Helvetica,sans-Serif" font-size="10.00">_color_sinks.h</text>
</a>
</g>
</g>
<!-- Node1&#45;&gt;Node7 -->
<g id="edge6" class="edge">
<title>Node1&#45;&gt;Node7</title>
<path fill="none" stroke="#63b8ff" d="M293.26,-124.64C331.11,-113.68 381.39,-99.12 420.02,-87.94"/>
<polygon fill="#63b8ff" stroke="#63b8ff" points="421.44,-91.17 430.08,-85.02 419.5,-84.44 421.44,-91.17"/>
</g>
<!-- Node3 -->
<g id="node3" class="node">
<title>Node3</title>
<g id="a_node3"><a xlink:title=" ">
<polygon fill="#e0e0e0" stroke="#999999" points="52.5,-19 6.5,-19 6.5,0 52.5,0 52.5,-19"/>
<text text-anchor="middle" x="29.5" y="-7" font-family="Helvetica,sans-Serif" font-size="10.00">cstdint</text>
</a>
</g>
</g>
<!-- Node2&#45;&gt;Node3 -->
<g id="edge2" class="edge">
<title>Node2&#45;&gt;Node3</title>
<path fill="none" stroke="#63b8ff" d="M29.5,-60.37C29.5,-52.25 29.5,-39.81 29.5,-29.39"/>
<polygon fill="#63b8ff" stroke="#63b8ff" points="33,-29.17 29.5,-19.17 26,-29.17 33,-29.17"/>
</g>
</g>
</svg>
