<?xml version="1.0" encoding="UTF-8" standalone="no"?>
<!DOCTYPE svg PUBLIC "-//W3C//DTD SVG 1.1//EN"
 "http://www.w3.org/Graphics/SVG/1.1/DTD/svg11.dtd">
<!-- Generated by graphviz version 5.0.0 (0)
 -->
<!-- Title: /mnt/raid10/stargate/ivi&#45;homescreen/shell/logging/dlt/dlt.cc Pages: 1 -->
<svg width="812pt" height="225pt"
 viewBox="0.00 0.00 811.50 225.00" xmlns="http://www.w3.org/2000/svg" xmlns:xlink="http://www.w3.org/1999/xlink">
<g id="graph0" class="graph" transform="scale(1 1) rotate(0) translate(4 221)">
<title>/mnt/raid10/stargate/ivi&#45;homescreen/shell/logging/dlt/dlt.cc</title>
<!-- Node1 -->
<g id="node1" class="node">
<title>Node1</title>
<g id="a_node1"><a xlink:title=" ">
<polygon fill="#999999" stroke="#666666" points="536,-217 427,-217 427,-176 536,-176 536,-217"/>
<text text-anchor="start" x="435" y="-205" font-family="Helvetica,sans-Serif" font-size="10.00">/mnt/raid10/stargate</text>
<text text-anchor="start" x="435" y="-194" font-family="Helvetica,sans-Serif" font-size="10.00">/ivi&#45;homescreen/shell</text>
<text text-anchor="middle" x="481.5" y="-183" font-family="Helvetica,sans-Serif" font-size="10.00">/logging/dlt/dlt.cc</text>
</a>
</g>
</g>
<!-- Node2 -->
<g id="node2" class="node">
<title>Node2</title>
<g id="a_node2"><a xlink:href="dlt_8h.html" target="_top" xlink:title=" ">
<polygon fill="white" stroke="#666666" points="314,-140 279,-140 279,-121 314,-121 314,-140"/>
<text text-anchor="middle" x="296.5" y="-128" font-family="Helvetica,sans-Serif" font-size="10.00">dlt.h</text>
</a>
</g>
</g>
<!-- Node1&#45;&gt;Node2 -->
<g id="edge1" class="edge">
<title>Node1&#45;&gt;Node2</title>
<path fill="none" stroke="#63b8ff" d="M426.99,-176.64C392.97,-164.87 350.65,-150.23 323.6,-140.87"/>
<polygon fill="#63b8ff" stroke="#63b8ff" points="324.62,-137.53 314.03,-137.56 322.34,-144.14 324.62,-137.53"/>
</g>
<!-- Node9 -->
<g id="node9" class="node">
<title>Node9</title>
<g id="a_node9"><a xlink:title=" ">
<polygon fill="#e0e0e0" stroke="#999999" points="470.5,-140 424.5,-140 424.5,-121 470.5,-121 470.5,-140"/>
<text text-anchor="middle" x="447.5" y="-128" font-family="Helvetica,sans-Serif" font-size="10.00">cstring</text>
</a>
</g>
</g>
<!-- Node1&#45;&gt;Node9 -->
<g id="edge8" class="edge">
<title>Node1&#45;&gt;Node9</title>
<path fill="none" stroke="#63b8ff" d="M471.11,-175.95C466.57,-167.39 461.27,-157.42 456.85,-149.1"/>
<polygon fill="#63b8ff" stroke="#63b8ff" points="459.94,-147.45 452.15,-140.26 453.75,-150.73 459.94,-147.45"/>
</g>
<!-- Node10 -->
<g id="node10" class="node">
<title>Node10</title>
<g id="a_node10"><a xlink:title=" ">
<polygon fill="#e0e0e0" stroke="#999999" points="542.5,-140 488.5,-140 488.5,-121 542.5,-121 542.5,-140"/>
<text text-anchor="middle" x="515.5" y="-128" font-family="Helvetica,sans-Serif" font-size="10.00">iostream</text>
</a>
</g>
</g>
<!-- Node1&#45;&gt;Node10 -->
<g id="edge9" class="edge">
<title>Node1&#45;&gt;Node10</title>
<path fill="none" stroke="#63b8ff" d="M491.89,-175.95C496.43,-167.39 501.73,-157.42 506.15,-149.1"/>
<polygon fill="#63b8ff" stroke="#63b8ff" points="509.25,-150.73 510.85,-140.26 503.06,-147.45 509.25,-150.73"/>
</g>
<!-- Node11 -->
<g id="node11" class="node">
<title>Node11</title>
<g id="a_node11"><a xlink:href="constants_8h.html" target="_top" xlink:title=" ">
<polygon fill="white" stroke="#666666" points="665.5,-140 597.5,-140 597.5,-121 665.5,-121 665.5,-140"/>
<text text-anchor="middle" x="631.5" y="-128" font-family="Helvetica,sans-Serif" font-size="10.00">constants.h</text>
</a>
</g>
</g>
<!-- Node1&#45;&gt;Node11 -->
<g id="edge10" class="edge">
<title>Node1&#45;&gt;Node11</title>
<path fill="none" stroke="#63b8ff" d="M527.32,-175.95C551.57,-165.6 580.63,-153.2 601.9,-144.13"/>
<polygon fill="#63b8ff" stroke="#63b8ff" points="603.54,-147.24 611.36,-140.09 600.79,-140.8 603.54,-147.24"/>
</g>
<!-- Node3 -->
<g id="node3" class="node">
<title>Node3</title>
<g id="a_node3"><a xlink:href="libdlt_8h.html" target="_top" xlink:title=" ">
<polygon fill="white" stroke="#666666" points="59,-79.5 0,-79.5 0,-60.5 59,-60.5 59,-79.5"/>
<text text-anchor="middle" x="29.5" y="-67.5" font-family="Helvetica,sans-Serif" font-size="10.00">dlt/libdlt.h</text>
</a>
</g>
</g>
<!-- Node2&#45;&gt;Node3 -->
<g id="edge2" class="edge">
<title>Node2&#45;&gt;Node3</title>
<path fill="none" stroke="#63b8ff" d="M278.75,-127.05C239.96,-121.47 144.93,-106.63 67.5,-85 65.21,-84.36 62.87,-83.65 60.53,-82.89"/>
<polygon fill="#63b8ff" stroke="#63b8ff" points="61.6,-79.56 51.01,-79.61 59.32,-86.18 61.6,-79.56"/>
</g>
<!-- Node5 -->
<g id="node5" class="node">
<title>Node5</title>
<g id="a_node5"><a xlink:title=" ">
<polygon fill="#e0e0e0" stroke="#999999" points="178,-79.5 77,-79.5 77,-60.5 178,-60.5 178,-79.5"/>
<text text-anchor="middle" x="127.5" y="-67.5" font-family="Helvetica,sans-Serif" font-size="10.00">flutter/fml/macros.h</text>
</a>
</g>
</g>
<!-- Node2&#45;&gt;Node5 -->
<g id="edge4" class="edge">
<title>Node2&#45;&gt;Node5</title>
<path fill="none" stroke="#63b8ff" d="M278.73,-123.35C251,-113.75 196.94,-95.04 161.54,-82.78"/>
<polygon fill="#63b8ff" stroke="#63b8ff" points="162.68,-79.47 152.08,-79.51 160.39,-86.09 162.68,-79.47"/>
</g>
<!-- Node6 -->
<g id="node6" class="node">
<title>Node6</title>
<g id="a_node6"><a xlink:title=" ">
<polygon fill="#e0e0e0" stroke="#999999" points="281,-79.5 196,-79.5 196,-60.5 281,-60.5 281,-79.5"/>
<text text-anchor="middle" x="238.5" y="-67.5" font-family="Helvetica,sans-Serif" font-size="10.00">spdlog/spdlog.h</text>
</a>
</g>
</g>
<!-- Node2&#45;&gt;Node6 -->
<g id="edge5" class="edge">
<title>Node2&#45;&gt;Node6</title>
<path fill="none" stroke="#63b8ff" d="M287.94,-120.87C279.12,-111.97 265.16,-97.89 254.32,-86.95"/>
<polygon fill="#63b8ff" stroke="#63b8ff" points="256.62,-84.3 247.09,-79.67 251.65,-89.23 256.62,-84.3"/>
</g>
<!-- Node7 -->
<g id="node7" class="node">
<title>Node7</title>
<g id="a_node7"><a xlink:title=" ">
<polygon fill="#e0e0e0" stroke="#999999" points="409.5,-85 299.5,-85 299.5,-55 409.5,-55 409.5,-85"/>
<text text-anchor="start" x="307.5" y="-73" font-family="Helvetica,sans-Serif" font-size="10.00">spdlog/sinks/callback</text>
<text text-anchor="middle" x="354.5" y="-62" font-family="Helvetica,sans-Serif" font-size="10.00">_sink.h</text>
</a>
</g>
</g>
<!-- Node2&#45;&gt;Node7 -->
<g id="edge6" class="edge">
<title>Node2&#45;&gt;Node7</title>
<path fill="none" stroke="#63b8ff" d="M305.06,-120.87C312.49,-113.37 323.57,-102.2 333.36,-92.33"/>
<polygon fill="#63b8ff" stroke="#63b8ff" points="335.95,-94.68 340.51,-85.11 330.98,-89.75 335.95,-94.68"/>
</g>
<!-- Node8 -->
<g id="node8" class="node">
<title>Node8</title>
<g id="a_node8"><a xlink:title=" ">
<polygon fill="#e0e0e0" stroke="#999999" points="529,-85 428,-85 428,-55 529,-55 529,-85"/>
<text text-anchor="start" x="436" y="-73" font-family="Helvetica,sans-Serif" font-size="10.00">spdlog/sinks/stdout</text>
<text text-anchor="middle" x="478.5" y="-62" font-family="Helvetica,sans-Serif" font-size="10.00">_color_sinks.h</text>
</a>
</g>
</g>
<!-- Node2&#45;&gt;Node8 -->
<g id="edge7" class="edge">
<title>Node2&#45;&gt;Node8</title>
<path fill="none" stroke="#63b8ff" d="M314.28,-123.78C339.74,-115.6 387.62,-100.21 425.15,-88.15"/>
<polygon fill="#63b8ff" stroke="#63b8ff" points="426.48,-91.4 434.93,-85 424.34,-84.73 426.48,-91.4"/>
</g>
<!-- Node4 -->
<g id="node4" class="node">
<title>Node4</title>
<g id="a_node4"><a xlink:title=" ">
<polygon fill="#e0e0e0" stroke="#999999" points="52.5,-19 6.5,-19 6.5,0 52.5,0 52.5,-19"/>
<text text-anchor="middle" x="29.5" y="-7" font-family="Helvetica,sans-Serif" font-size="10.00">cstdint</text>
</a>
</g>
</g>
<!-- Node3&#45;&gt;Node4 -->
<g id="edge3" class="edge">
<title>Node3&#45;&gt;Node4</title>
<path fill="none" stroke="#63b8ff" d="M29.5,-60.37C29.5,-52.25 29.5,-39.81 29.5,-29.39"/>
<polygon fill="#63b8ff" stroke="#63b8ff" points="33,-29.17 29.5,-19.17 26,-29.17 33,-29.17"/>
</g>
<!-- Node12 -->
<g id="node12" class="node">
<title>Node12</title>
<g id="a_node12"><a xlink:title=" ">
<polygon fill="#e0e0e0" stroke="#999999" points="607.5,-79.5 547.5,-79.5 547.5,-60.5 607.5,-60.5 607.5,-79.5"/>
<text text-anchor="middle" x="577.5" y="-67.5" font-family="Helvetica,sans-Serif" font-size="10.00">EGL/egl.h</text>
</a>
</g>
</g>
<!-- Node11&#45;&gt;Node12 -->
<g id="edge11" class="edge">
<title>Node11&#45;&gt;Node12</title>
<path fill="none" stroke="#63b8ff" d="M623.53,-120.87C615.4,-112.05 602.57,-98.16 592.52,-87.27"/>
<polygon fill="#63b8ff" stroke="#63b8ff" points="594.86,-84.64 585.5,-79.67 589.71,-89.39 594.86,-84.64"/>
</g>
<!-- Node13 -->
<g id="node13" class="node">
<title>Node13</title>
<g id="a_node13"><a xlink:title=" ">
<polygon fill="#e0e0e0" stroke="#999999" points="747,-85 626,-85 626,-55 747,-55 747,-85"/>
<text text-anchor="start" x="634" y="-73" font-family="Helvetica,sans-Serif" font-size="10.00">shell/platform/embedder</text>
<text text-anchor="middle" x="686.5" y="-62" font-family="Helvetica,sans-Serif" font-size="10.00">/embedder.h</text>
</a>
</g>
</g>
<!-- Node11&#45;&gt;Node13 -->
<g id="edge12" class="edge">
<title>Node11&#45;&gt;Node13</title>
<path fill="none" stroke="#63b8ff" d="M639.62,-120.87C646.59,-113.44 656.96,-102.42 666.18,-92.62"/>
<polygon fill="#63b8ff" stroke="#63b8ff" points="668.93,-94.8 673.23,-85.11 663.83,-90 668.93,-94.8"/>
</g>
<!-- Node14 -->
<g id="node14" class="node">
<title>Node14</title>
<g id="a_node14"><a xlink:title=" ">
<polygon fill="#e0e0e0" stroke="#999999" points="803.5,-79.5 765.5,-79.5 765.5,-60.5 803.5,-60.5 803.5,-79.5"/>
<text text-anchor="middle" x="784.5" y="-67.5" font-family="Helvetica,sans-Serif" font-size="10.00">array</text>
</a>
</g>
</g>
<!-- Node11&#45;&gt;Node14 -->
<g id="edge13" class="edge">
<title>Node11&#45;&gt;Node14</title>
<path fill="none" stroke="#63b8ff" d="M658.69,-120.88C684.26,-112.53 723.44,-99.09 756.5,-85 757.33,-84.65 758.17,-84.28 759.02,-83.9"/>
<polygon fill="#63b8ff" stroke="#63b8ff" points="760.52,-87.06 768.07,-79.63 757.54,-80.73 760.52,-87.06"/>
</g>
</g>
</svg>
