<?xml version="1.0" encoding="UTF-8" standalone="no"?>
<!DOCTYPE svg PUBLIC "-//W3C//DTD SVG 1.1//EN"
 "http://www.w3.org/Graphics/SVG/1.1/DTD/svg11.dtd">
<!-- Generated by graphviz version 5.0.0 (0)
 -->
<!-- Title: /mnt/raid10/stargate/ivi&#45;homescreen/shell/logging/dlt/dlt.cc Pages: 1 -->
<svg width="461pt" height="225pt"
 viewBox="0.00 0.00 460.50 225.00" xmlns="http://www.w3.org/2000/svg" xmlns:xlink="http://www.w3.org/1999/xlink">
<g id="graph0" class="graph" transform="scale(1 1) rotate(0) translate(4 221)">
<title>/mnt/raid10/stargate/ivi&#45;homescreen/shell/logging/dlt/dlt.cc</title>
<!-- Node1 -->
<g id="node1" class="node">
<title>Node1</title>
<g id="a_node1"><a xlink:title=" ">
<polygon fill="#999999" stroke="#666666" points="276,-217 167,-217 167,-176 276,-176 276,-217"/>
<text text-anchor="start" x="175" y="-205" font-family="Helvetica,sans-Serif" font-size="10.00">/mnt/raid10/stargate</text>
<text text-anchor="start" x="175" y="-194" font-family="Helvetica,sans-Serif" font-size="10.00">/ivi&#45;homescreen/shell</text>
<text text-anchor="middle" x="221.5" y="-183" font-family="Helvetica,sans-Serif" font-size="10.00">/logging/dlt/dlt.cc</text>
</a>
</g>
</g>
<!-- Node2 -->
<g id="node2" class="node">
<title>Node2</title>
<g id="a_node2"><a xlink:href="dlt_8h.html" target="_top" xlink:title=" ">
<polygon fill="white" stroke="#666666" points="145,-140 110,-140 110,-121 145,-121 145,-140"/>
<text text-anchor="middle" x="127.5" y="-128" font-family="Helvetica,sans-Serif" font-size="10.00">dlt.h</text>
</a>
</g>
</g>
<!-- Node1&#45;&gt;Node2 -->
<g id="edge1" class="edge">
<title>Node1&#45;&gt;Node2</title>
<path fill="none" stroke="#63b8ff" d="M192.79,-175.95C178.57,-166.27 161.72,-154.8 148.69,-145.93"/>
<polygon fill="#63b8ff" stroke="#63b8ff" points="150.6,-143 140.37,-140.26 146.66,-148.78 150.6,-143"/>
</g>
<!-- Node6 -->
<g id="node6" class="node">
<title>Node6</title>
<g id="a_node6"><a xlink:title=" ">
<polygon fill="#e0e0e0" stroke="#999999" points="210.5,-140 164.5,-140 164.5,-121 210.5,-121 210.5,-140"/>
<text text-anchor="middle" x="187.5" y="-128" font-family="Helvetica,sans-Serif" font-size="10.00">cstring</text>
</a>
</g>
</g>
<!-- Node1&#45;&gt;Node6 -->
<g id="edge5" class="edge">
<title>Node1&#45;&gt;Node6</title>
<path fill="none" stroke="#63b8ff" d="M211.11,-175.95C206.57,-167.39 201.27,-157.42 196.85,-149.1"/>
<polygon fill="#63b8ff" stroke="#63b8ff" points="199.94,-147.45 192.15,-140.26 193.75,-150.73 199.94,-147.45"/>
</g>
<!-- Node7 -->
<g id="node7" class="node">
<title>Node7</title>
<g id="a_node7"><a xlink:title=" ">
<polygon fill="#e0e0e0" stroke="#999999" points="282.5,-140 228.5,-140 228.5,-121 282.5,-121 282.5,-140"/>
<text text-anchor="middle" x="255.5" y="-128" font-family="Helvetica,sans-Serif" font-size="10.00">iostream</text>
</a>
</g>
</g>
<!-- Node1&#45;&gt;Node7 -->
<g id="edge6" class="edge">
<title>Node1&#45;&gt;Node7</title>
<path fill="none" stroke="#63b8ff" d="M231.89,-175.95C236.43,-167.39 241.73,-157.42 246.15,-149.1"/>
<polygon fill="#63b8ff" stroke="#63b8ff" points="249.25,-150.73 250.85,-140.26 243.06,-147.45 249.25,-150.73"/>
</g>
<!-- Node8 -->
<g id="node8" class="node">
<title>Node8</title>
<g id="a_node8"><a xlink:href="constants_8h.html" target="_top" xlink:title=" ">
<polygon fill="white" stroke="#666666" points="368.5,-140 300.5,-140 300.5,-121 368.5,-121 368.5,-140"/>
<text text-anchor="middle" x="334.5" y="-128" font-family="Helvetica,sans-Serif" font-size="10.00">constants.h</text>
</a>
</g>
</g>
<!-- Node1&#45;&gt;Node8 -->
<g id="edge7" class="edge">
<title>Node1&#45;&gt;Node8</title>
<path fill="none" stroke="#63b8ff" d="M256.02,-175.95C273.54,-166.03 294.4,-154.21 310.21,-145.25"/>
<polygon fill="#63b8ff" stroke="#63b8ff" points="312.35,-148.07 319.33,-140.09 308.9,-141.97 312.35,-148.07"/>
</g>
<!-- Node3 -->
<g id="node3" class="node">
<title>Node3</title>
<g id="a_node3"><a xlink:href="libdlt_8h.html" target="_top" xlink:title=" ">
<polygon fill="white" stroke="#666666" points="59,-79.5 0,-79.5 0,-60.5 59,-60.5 59,-79.5"/>
<text text-anchor="middle" x="29.5" y="-67.5" font-family="Helvetica,sans-Serif" font-size="10.00">dlt/libdlt.h</text>
</a>
</g>
</g>
<!-- Node2&#45;&gt;Node3 -->
<g id="edge2" class="edge">
<title>Node2&#45;&gt;Node3</title>
<path fill="none" stroke="#63b8ff" d="M113.04,-120.87C97.19,-111.41 71.53,-96.09 52.82,-84.92"/>
<polygon fill="#63b8ff" stroke="#63b8ff" points="54.4,-81.79 44.02,-79.67 50.81,-87.8 54.4,-81.79"/>
</g>
<!-- Node5 -->
<g id="node5" class="node">
<title>Node5</title>
<g id="a_node5"><a xlink:title=" ">
<polygon fill="#e0e0e0" stroke="#999999" points="178,-79.5 77,-79.5 77,-60.5 178,-60.5 178,-79.5"/>
<text text-anchor="middle" x="127.5" y="-67.5" font-family="Helvetica,sans-Serif" font-size="10.00">flutter/fml/macros.h</text>
</a>
</g>
</g>
<!-- Node2&#45;&gt;Node5 -->
<g id="edge4" class="edge">
<title>Node2&#45;&gt;Node5</title>
<path fill="none" stroke="#63b8ff" d="M127.5,-120.87C127.5,-112.75 127.5,-100.31 127.5,-89.89"/>
<polygon fill="#63b8ff" stroke="#63b8ff" points="131,-89.67 127.5,-79.67 124,-89.67 131,-89.67"/>
</g>
<!-- Node4 -->
<g id="node4" class="node">
<title>Node4</title>
<g id="a_node4"><a xlink:title=" ">
<polygon fill="#e0e0e0" stroke="#999999" points="52.5,-19 6.5,-19 6.5,0 52.5,0 52.5,-19"/>
<text text-anchor="middle" x="29.5" y="-7" font-family="Helvetica,sans-Serif" font-size="10.00">cstdint</text>
</a>
</g>
</g>
<!-- Node3&#45;&gt;Node4 -->
<g id="edge3" class="edge">
<title>Node3&#45;&gt;Node4</title>
<path fill="none" stroke="#63b8ff" d="M29.5,-60.37C29.5,-52.25 29.5,-39.81 29.5,-29.39"/>
<polygon fill="#63b8ff" stroke="#63b8ff" points="33,-29.17 29.5,-19.17 26,-29.17 33,-29.17"/>
</g>
<!-- Node9 -->
<g id="node9" class="node">
<title>Node9</title>
<g id="a_node9"><a xlink:title=" ">
<polygon fill="#e0e0e0" stroke="#999999" points="256.5,-79.5 196.5,-79.5 196.5,-60.5 256.5,-60.5 256.5,-79.5"/>
<text text-anchor="middle" x="226.5" y="-67.5" font-family="Helvetica,sans-Serif" font-size="10.00">EGL/egl.h</text>
</a>
</g>
</g>
<!-- Node8&#45;&gt;Node9 -->
<g id="edge8" class="edge">
<title>Node8&#45;&gt;Node9</title>
<path fill="none" stroke="#63b8ff" d="M318.56,-120.87C300.86,-111.28 272.04,-95.67 251.36,-84.47"/>
<polygon fill="#63b8ff" stroke="#63b8ff" points="252.96,-81.35 242.5,-79.67 249.63,-87.51 252.96,-81.35"/>
</g>
<!-- Node10 -->
<g id="node10" class="node">
<title>Node10</title>
<g id="a_node10"><a xlink:title=" ">
<polygon fill="#e0e0e0" stroke="#999999" points="396,-85 275,-85 275,-55 396,-55 396,-85"/>
<text text-anchor="start" x="283" y="-73" font-family="Helvetica,sans-Serif" font-size="10.00">shell/platform/embedder</text>
<text text-anchor="middle" x="335.5" y="-62" font-family="Helvetica,sans-Serif" font-size="10.00">/embedder.h</text>
</a>
</g>
</g>
<!-- Node8&#45;&gt;Node10 -->
<g id="edge9" class="edge">
<title>Node8&#45;&gt;Node10</title>
<path fill="none" stroke="#63b8ff" d="M334.65,-120.87C334.76,-114.11 334.93,-104.35 335.09,-95.26"/>
<polygon fill="#63b8ff" stroke="#63b8ff" points="338.59,-95.17 335.26,-85.11 331.59,-95.05 338.59,-95.17"/>
</g>
<!-- Node11 -->
<g id="node11" class="node">
<title>Node11</title>
<g id="a_node11"><a xlink:title=" ">
<polygon fill="#e0e0e0" stroke="#999999" points="452.5,-79.5 414.5,-79.5 414.5,-60.5 452.5,-60.5 452.5,-79.5"/>
<text text-anchor="middle" x="433.5" y="-67.5" font-family="Helvetica,sans-Serif" font-size="10.00">array</text>
</a>
</g>
</g>
<!-- Node8&#45;&gt;Node11 -->
<g id="edge10" class="edge">
<title>Node8&#45;&gt;Node11</title>
<path fill="none" stroke="#63b8ff" d="M349.11,-120.87C365.19,-111.36 391.28,-95.95 410.2,-84.77"/>
<polygon fill="#63b8ff" stroke="#63b8ff" points="412,-87.77 418.83,-79.67 408.44,-81.74 412,-87.77"/>
</g>
</g>
</svg>
