<?xml version="1.0" encoding="UTF-8" standalone="no"?>
<!DOCTYPE svg PUBLIC "-//W3C//DTD SVG 1.1//EN"
 "http://www.w3.org/Graphics/SVG/1.1/DTD/svg11.dtd">
<!-- Generated by graphviz version 5.0.0 (0)
 -->
<!-- Title: /mnt/raid10/stargate/ivi&#45;homescreen/shell/logging/dlt/dlt_sink.h Pages: 1 -->
<svg width="1017pt" height="236pt"
 viewBox="0.00 0.00 1016.50 236.00" xmlns="http://www.w3.org/2000/svg" xmlns:xlink="http://www.w3.org/1999/xlink">
<g id="graph0" class="graph" transform="scale(1 1) rotate(0) translate(4 232)">
<title>/mnt/raid10/stargate/ivi&#45;homescreen/shell/logging/dlt/dlt_sink.h</title>
<!-- Node1 -->
<g id="node1" class="node">
<title>Node1</title>
<g id="a_node1"><a xlink:title=" ">
<polygon fill="#999999" stroke="#666666" points="367.5,-228 258.5,-228 258.5,-187 367.5,-187 367.5,-228"/>
<text text-anchor="start" x="266.5" y="-216" font-family="Helvetica,sans-Serif" font-size="10.00">/mnt/raid10/stargate</text>
<text text-anchor="start" x="266.5" y="-205" font-family="Helvetica,sans-Serif" font-size="10.00">/ivi&#45;homescreen/shell</text>
<text text-anchor="middle" x="313" y="-194" font-family="Helvetica,sans-Serif" font-size="10.00">/logging/dlt/dlt_sink.h</text>
</a>
</g>
</g>
<!-- Node2 -->
<g id="node2" class="node">
<title>Node2</title>
<g id="a_node2"><a xlink:title=" ">
<polygon fill="#e0e0e0" stroke="#999999" points="44,-145.5 0,-145.5 0,-126.5 44,-126.5 44,-145.5"/>
<text text-anchor="middle" x="22" y="-133.5" font-family="Helvetica,sans-Serif" font-size="10.00">mutex</text>
</a>
</g>
</g>
<!-- Node1&#45;&gt;Node2 -->
<g id="edge1" class="edge">
<title>Node1&#45;&gt;Node2</title>
<path fill="none" stroke="#63b8ff" d="M258.33,-198.33C205.09,-189.56 122.29,-173.75 53,-151 51.56,-150.53 50.1,-150.01 48.64,-149.46"/>
<polygon fill="#63b8ff" stroke="#63b8ff" points="49.7,-146.11 39.12,-145.52 47.02,-152.58 49.7,-146.11"/>
</g>
<!-- Node3 -->
<g id="node3" class="node">
<title>Node3</title>
<g id="a_node3"><a xlink:title=" ">
<polygon fill="#e0e0e0" stroke="#999999" points="103.5,-145.5 62.5,-145.5 62.5,-126.5 103.5,-126.5 103.5,-145.5"/>
<text text-anchor="middle" x="83" y="-133.5" font-family="Helvetica,sans-Serif" font-size="10.00">string</text>
</a>
</g>
</g>
<!-- Node1&#45;&gt;Node3 -->
<g id="edge2" class="edge">
<title>Node1&#45;&gt;Node3</title>
<path fill="none" stroke="#63b8ff" d="M258.33,-193.93C217.68,-183.97 161.17,-168.78 113,-151 111.95,-150.61 110.88,-150.2 109.81,-149.77"/>
<polygon fill="#63b8ff" stroke="#63b8ff" points="110.81,-146.39 100.24,-145.64 108.03,-152.82 110.81,-146.39"/>
</g>
<!-- Node4 -->
<g id="node4" class="node">
<title>Node4</title>
<g id="a_node4"><a xlink:title=" ">
<polygon fill="#e0e0e0" stroke="#999999" points="166,-145.5 122,-145.5 122,-126.5 166,-126.5 166,-145.5"/>
<text text-anchor="middle" x="144" y="-133.5" font-family="Helvetica,sans-Serif" font-size="10.00">vector</text>
</a>
</g>
</g>
<!-- Node1&#45;&gt;Node4 -->
<g id="edge3" class="edge">
<title>Node1&#45;&gt;Node4</title>
<path fill="none" stroke="#63b8ff" d="M262.97,-186.96C236.68,-176.55 203.98,-163.36 175,-151 174,-150.57 172.97,-150.13 171.94,-149.68"/>
<polygon fill="#63b8ff" stroke="#63b8ff" points="173.19,-146.41 162.63,-145.57 170.36,-152.81 173.19,-146.41"/>
</g>
<!-- Node5 -->
<g id="node5" class="node">
<title>Node5</title>
<g id="a_node5"><a xlink:title=" ">
<polygon fill="#e0e0e0" stroke="#999999" points="314,-145.5 184,-145.5 184,-126.5 314,-126.5 314,-145.5"/>
<text text-anchor="middle" x="249" y="-133.5" font-family="Helvetica,sans-Serif" font-size="10.00">spdlog/details/circular_q.h</text>
</a>
</g>
</g>
<!-- Node1&#45;&gt;Node5 -->
<g id="edge4" class="edge">
<title>Node1&#45;&gt;Node5</title>
<path fill="none" stroke="#63b8ff" d="M294.83,-186.77C285.13,-176.24 273.33,-163.42 264.13,-153.43"/>
<polygon fill="#63b8ff" stroke="#63b8ff" points="266.47,-150.81 257.12,-145.82 261.32,-155.55 266.47,-150.81"/>
</g>
<!-- Node6 -->
<g id="node6" class="node">
<title>Node6</title>
<g id="a_node6"><a xlink:title=" ">
<polygon fill="#e0e0e0" stroke="#999999" points="424,-151 332,-151 332,-121 424,-121 424,-151"/>
<text text-anchor="start" x="340" y="-139" font-family="Helvetica,sans-Serif" font-size="10.00">spdlog/details/log</text>
<text text-anchor="middle" x="378" y="-128" font-family="Helvetica,sans-Serif" font-size="10.00">_msg_buffer.h</text>
</a>
</g>
</g>
<!-- Node1&#45;&gt;Node6 -->
<g id="edge5" class="edge">
<title>Node1&#45;&gt;Node6</title>
<path fill="none" stroke="#63b8ff" d="M331.45,-186.77C339.7,-177.95 349.43,-167.54 357.87,-158.53"/>
<polygon fill="#63b8ff" stroke="#63b8ff" points="360.6,-160.73 364.87,-151.04 355.48,-155.95 360.6,-160.73"/>
</g>
<!-- Node7 -->
<g id="node7" class="node">
<title>Node7</title>
<g id="a_node7"><a xlink:title=" ">
<polygon fill="#e0e0e0" stroke="#999999" points="537.5,-151 442.5,-151 442.5,-121 537.5,-121 537.5,-151"/>
<text text-anchor="start" x="450.5" y="-139" font-family="Helvetica,sans-Serif" font-size="10.00">spdlog/details/null</text>
<text text-anchor="middle" x="490" y="-128" font-family="Helvetica,sans-Serif" font-size="10.00">_mutex.h</text>
</a>
</g>
</g>
<!-- Node1&#45;&gt;Node7 -->
<g id="edge6" class="edge">
<title>Node1&#45;&gt;Node7</title>
<path fill="none" stroke="#63b8ff" d="M362.78,-186.96C388.5,-176.85 419.67,-164.62 444.71,-154.78"/>
<polygon fill="#63b8ff" stroke="#63b8ff" points="446.31,-157.92 454.34,-151 443.75,-151.4 446.31,-157.92"/>
</g>
<!-- Node8 -->
<g id="node8" class="node">
<title>Node8</title>
<g id="a_node8"><a xlink:title=" ">
<polygon fill="#e0e0e0" stroke="#999999" points="682.5,-145.5 555.5,-145.5 555.5,-126.5 682.5,-126.5 682.5,-145.5"/>
<text text-anchor="middle" x="619" y="-133.5" font-family="Helvetica,sans-Serif" font-size="10.00">spdlog/sinks/base_sink.h</text>
</a>
</g>
</g>
<!-- Node1&#45;&gt;Node8 -->
<g id="edge7" class="edge">
<title>Node1&#45;&gt;Node8</title>
<path fill="none" stroke="#63b8ff" d="M367.71,-194.07C425.64,-180.92 516.19,-160.35 571.31,-147.83"/>
<polygon fill="#63b8ff" stroke="#63b8ff" points="572.2,-151.22 581.18,-145.59 570.65,-144.39 572.2,-151.22"/>
</g>
<!-- Node9 -->
<g id="node9" class="node">
<title>Node9</title>
<g id="a_node9"><a xlink:href="dlt_8h.html" target="_top" xlink:title=" ">
<polygon fill="white" stroke="#666666" points="735.5,-145.5 700.5,-145.5 700.5,-126.5 735.5,-126.5 735.5,-145.5"/>
<text text-anchor="middle" x="718" y="-133.5" font-family="Helvetica,sans-Serif" font-size="10.00">dlt.h</text>
</a>
</g>
</g>
<!-- Node1&#45;&gt;Node9 -->
<g id="edge8" class="edge">
<title>Node1&#45;&gt;Node9</title>
<path fill="none" stroke="#63b8ff" d="M367.71,-204.44C442.64,-200.29 580.57,-187.89 692,-151 692.89,-150.7 693.79,-150.38 694.69,-150.03"/>
<polygon fill="#63b8ff" stroke="#63b8ff" points="696.52,-153.04 704.1,-145.63 693.56,-146.7 696.52,-153.04"/>
</g>
<!-- Node10 -->
<g id="node10" class="node">
<title>Node10</title>
<g id="a_node10"><a xlink:href="libdlt_8h.html" target="_top" xlink:title=" ">
<polygon fill="white" stroke="#666666" points="538.5,-79.5 479.5,-79.5 479.5,-60.5 538.5,-60.5 538.5,-79.5"/>
<text text-anchor="middle" x="509" y="-67.5" font-family="Helvetica,sans-Serif" font-size="10.00">dlt/libdlt.h</text>
</a>
</g>
</g>
<!-- Node9&#45;&gt;Node10 -->
<g id="edge9" class="edge">
<title>Node9&#45;&gt;Node10</title>
<path fill="none" stroke="#63b8ff" d="M703.73,-126.49C700,-124.5 695.92,-122.51 692,-121 630.06,-97.07 610.47,-104.51 547,-85 544.87,-84.35 542.69,-83.64 540.49,-82.9"/>
<polygon fill="#63b8ff" stroke="#63b8ff" points="541.56,-79.57 530.96,-79.56 539.24,-86.17 541.56,-79.57"/>
</g>
<!-- Node12 -->
<g id="node12" class="node">
<title>Node12</title>
<g id="a_node12"><a xlink:title=" ">
<polygon fill="#e0e0e0" stroke="#999999" points="657.5,-79.5 556.5,-79.5 556.5,-60.5 657.5,-60.5 657.5,-79.5"/>
<text text-anchor="middle" x="607" y="-67.5" font-family="Helvetica,sans-Serif" font-size="10.00">flutter/fml/macros.h</text>
</a>
</g>
</g>
<!-- Node9&#45;&gt;Node12 -->
<g id="edge11" class="edge">
<title>Node9&#45;&gt;Node12</title>
<path fill="none" stroke="#63b8ff" d="M703.03,-126.37C684.49,-115.68 652.69,-97.35 630.8,-84.72"/>
<polygon fill="#63b8ff" stroke="#63b8ff" points="632.5,-81.66 622.09,-79.7 629,-87.73 632.5,-81.66"/>
</g>
<!-- Node13 -->
<g id="node13" class="node">
<title>Node13</title>
<g id="a_node13"><a xlink:title=" ">
<polygon fill="#e0e0e0" stroke="#999999" points="760.5,-79.5 675.5,-79.5 675.5,-60.5 760.5,-60.5 760.5,-79.5"/>
<text text-anchor="middle" x="718" y="-67.5" font-family="Helvetica,sans-Serif" font-size="10.00">spdlog/spdlog.h</text>
</a>
</g>
</g>
<!-- Node9&#45;&gt;Node13 -->
<g id="edge12" class="edge">
<title>Node9&#45;&gt;Node13</title>
<path fill="none" stroke="#63b8ff" d="M718,-126.37C718,-117.16 718,-102.29 718,-90.27"/>
<polygon fill="#63b8ff" stroke="#63b8ff" points="721.5,-89.91 718,-79.91 714.5,-89.91 721.5,-89.91"/>
</g>
<!-- Node14 -->
<g id="node14" class="node">
<title>Node14</title>
<g id="a_node14"><a xlink:title=" ">
<polygon fill="#e0e0e0" stroke="#999999" points="889,-85 779,-85 779,-55 889,-55 889,-85"/>
<text text-anchor="start" x="787" y="-73" font-family="Helvetica,sans-Serif" font-size="10.00">spdlog/sinks/callback</text>
<text text-anchor="middle" x="834" y="-62" font-family="Helvetica,sans-Serif" font-size="10.00">_sink.h</text>
</a>
</g>
</g>
<!-- Node9&#45;&gt;Node14 -->
<g id="edge13" class="edge">
<title>Node9&#45;&gt;Node14</title>
<path fill="none" stroke="#63b8ff" d="M733.64,-126.37C750.42,-117.11 777.59,-102.12 799.43,-90.07"/>
<polygon fill="#63b8ff" stroke="#63b8ff" points="801.35,-93.01 808.42,-85.12 797.97,-86.88 801.35,-93.01"/>
</g>
<!-- Node15 -->
<g id="node15" class="node">
<title>Node15</title>
<g id="a_node15"><a xlink:title=" ">
<polygon fill="#e0e0e0" stroke="#999999" points="1008.5,-85 907.5,-85 907.5,-55 1008.5,-55 1008.5,-85"/>
<text text-anchor="start" x="915.5" y="-73" font-family="Helvetica,sans-Serif" font-size="10.00">spdlog/sinks/stdout</text>
<text text-anchor="middle" x="958" y="-62" font-family="Helvetica,sans-Serif" font-size="10.00">_color_sinks.h</text>
</a>
</g>
</g>
<!-- Node9&#45;&gt;Node15 -->
<g id="edge14" class="edge">
<title>Node9&#45;&gt;Node15</title>
<path fill="none" stroke="#63b8ff" d="M735.65,-130.29C769.28,-121.33 843.96,-101.41 897.49,-87.14"/>
<polygon fill="#63b8ff" stroke="#63b8ff" points="898.47,-90.5 907.23,-84.54 896.66,-83.73 898.47,-90.5"/>
</g>
<!-- Node11 -->
<g id="node11" class="node">
<title>Node11</title>
<g id="a_node11"><a xlink:title=" ">
<polygon fill="#e0e0e0" stroke="#999999" points="532,-19 486,-19 486,0 532,0 532,-19"/>
<text text-anchor="middle" x="509" y="-7" font-family="Helvetica,sans-Serif" font-size="10.00">cstdint</text>
</a>
</g>
</g>
<!-- Node10&#45;&gt;Node11 -->
<g id="edge10" class="edge">
<title>Node10&#45;&gt;Node11</title>
<path fill="none" stroke="#63b8ff" d="M509,-60.37C509,-52.25 509,-39.81 509,-29.39"/>
<polygon fill="#63b8ff" stroke="#63b8ff" points="512.5,-29.17 509,-19.17 505.5,-29.17 512.5,-29.17"/>
</g>
</g>
</svg>
