<?xml version="1.0" encoding="UTF-8" standalone="no"?>
<!DOCTYPE svg PUBLIC "-//W3C//DTD SVG 1.1//EN"
 "http://www.w3.org/Graphics/SVG/1.1/DTD/svg11.dtd">
<!-- Generated by graphviz version 5.0.0 (0)
 -->
<!-- Title: /mnt/raid10/stargate/ivi&#45;homescreen/shell/backend/egl.cc Pages: 1 -->
<svg width="1110pt" height="236pt"
 viewBox="0.00 0.00 1109.50 236.00" xmlns="http://www.w3.org/2000/svg" xmlns:xlink="http://www.w3.org/1999/xlink">
<g id="graph0" class="graph" transform="scale(1 1) rotate(0) translate(4 232)">
<title>/mnt/raid10/stargate/ivi&#45;homescreen/shell/backend/egl.cc</title>
<!-- Node1 -->
<g id="node1" class="node">
<title>Node1</title>
<g id="a_node1"><a xlink:title=" ">
<polygon fill="#999999" stroke="#666666" points="405.5,-228 296.5,-228 296.5,-187 405.5,-187 405.5,-228"/>
<text text-anchor="start" x="304.5" y="-216" font-family="Helvetica,sans-Serif" font-size="10.00">/mnt/raid10/stargate</text>
<text text-anchor="start" x="304.5" y="-205" font-family="Helvetica,sans-Serif" font-size="10.00">/ivi&#45;homescreen/shell</text>
<text text-anchor="middle" x="351" y="-194" font-family="Helvetica,sans-Serif" font-size="10.00">/backend/egl.cc</text>
</a>
</g>
</g>
<!-- Node2 -->
<g id="node2" class="node">
<title>Node2</title>
<g id="a_node2"><a xlink:href="egl_8h.html" target="_top" xlink:title=" ">
<polygon fill="white" stroke="#666666" points="188,-151 150,-151 150,-132 188,-132 188,-151"/>
<text text-anchor="middle" x="169" y="-139" font-family="Helvetica,sans-Serif" font-size="10.00">egl.h</text>
</a>
</g>
</g>
<!-- Node1&#45;&gt;Node2 -->
<g id="edge1" class="edge">
<title>Node1&#45;&gt;Node2</title>
<path fill="none" stroke="#63b8ff" d="M296.39,-187.3C264.04,-175.92 224.34,-161.96 197.94,-152.68"/>
<polygon fill="#63b8ff" stroke="#63b8ff" points="198.78,-149.26 188.18,-149.25 196.46,-155.87 198.78,-149.26"/>
</g>
<!-- Node10 -->
<g id="node10" class="node">
<title>Node10</title>
<g id="a_node10"><a xlink:title=" ">
<polygon fill="#e0e0e0" stroke="#999999" points="342.5,-151 293.5,-151 293.5,-132 342.5,-132 342.5,-151"/>
<text text-anchor="middle" x="318" y="-139" font-family="Helvetica,sans-Serif" font-size="10.00">cassert</text>
</a>
</g>
</g>
<!-- Node1&#45;&gt;Node10 -->
<g id="edge10" class="edge">
<title>Node1&#45;&gt;Node10</title>
<path fill="none" stroke="#63b8ff" d="M340.92,-186.95C336.55,-178.48 331.48,-168.64 327.21,-160.37"/>
<polygon fill="#63b8ff" stroke="#63b8ff" points="330.21,-158.54 322.52,-151.26 323.99,-161.75 330.21,-158.54"/>
</g>
<!-- Node11 -->
<g id="node11" class="node">
<title>Node11</title>
<g id="a_node11"><a xlink:title=" ">
<polygon fill="#e0e0e0" stroke="#999999" points="407,-151 361,-151 361,-132 407,-132 407,-151"/>
<text text-anchor="middle" x="384" y="-139" font-family="Helvetica,sans-Serif" font-size="10.00">cstring</text>
</a>
</g>
</g>
<!-- Node1&#45;&gt;Node11 -->
<g id="edge11" class="edge">
<title>Node1&#45;&gt;Node11</title>
<path fill="none" stroke="#63b8ff" d="M361.08,-186.95C365.45,-178.48 370.52,-168.64 374.79,-160.37"/>
<polygon fill="#63b8ff" stroke="#63b8ff" points="378.01,-161.75 379.48,-151.26 371.79,-158.54 378.01,-161.75"/>
</g>
<!-- Node12 -->
<g id="node12" class="node">
<title>Node12</title>
<g id="a_node12"><a xlink:href="logging_8h.html" target="_top" xlink:title=" ">
<polygon fill="white" stroke="#666666" points="601,-151 545,-151 545,-132 601,-132 601,-151"/>
<text text-anchor="middle" x="573" y="-139" font-family="Helvetica,sans-Serif" font-size="10.00">logging.h</text>
</a>
</g>
</g>
<!-- Node1&#45;&gt;Node12 -->
<g id="edge12" class="edge">
<title>Node1&#45;&gt;Node12</title>
<path fill="none" stroke="#63b8ff" d="M405.59,-190.76C445.67,-179.21 499.11,-163.8 534.72,-153.54"/>
<polygon fill="#63b8ff" stroke="#63b8ff" points="536.08,-156.79 544.72,-150.65 534.14,-150.06 536.08,-156.79"/>
</g>
<!-- Node3 -->
<g id="node3" class="node">
<title>Node3</title>
<g id="a_node3"><a xlink:title=" ">
<polygon fill="#e0e0e0" stroke="#999999" points="46,-90.5 0,-90.5 0,-71.5 46,-71.5 46,-90.5"/>
<text text-anchor="middle" x="23" y="-78.5" font-family="Helvetica,sans-Serif" font-size="10.00">cstdint</text>
</a>
</g>
</g>
<!-- Node2&#45;&gt;Node3 -->
<g id="edge2" class="edge">
<title>Node2&#45;&gt;Node3</title>
<path fill="none" stroke="#63b8ff" d="M149.95,-133.33C127.23,-124.72 88.18,-109.73 55,-96 53.83,-95.52 52.65,-95.02 51.45,-94.52"/>
<polygon fill="#63b8ff" stroke="#63b8ff" points="52.81,-91.29 42.24,-90.57 50.05,-97.72 52.81,-91.29"/>
</g>
<!-- Node4 -->
<g id="node4" class="node">
<title>Node4</title>
<g id="a_node4"><a xlink:title=" ">
<polygon fill="#e0e0e0" stroke="#999999" points="108,-90.5 64,-90.5 64,-71.5 108,-71.5 108,-90.5"/>
<text text-anchor="middle" x="86" y="-78.5" font-family="Helvetica,sans-Serif" font-size="10.00">vector</text>
</a>
</g>
</g>
<!-- Node2&#45;&gt;Node4 -->
<g id="edge3" class="edge">
<title>Node2&#45;&gt;Node4</title>
<path fill="none" stroke="#63b8ff" d="M156.75,-131.87C143.64,-122.62 122.58,-107.78 106.85,-96.69"/>
<polygon fill="#63b8ff" stroke="#63b8ff" points="108.49,-93.57 98.3,-90.67 104.45,-99.29 108.49,-93.57"/>
</g>
<!-- Node5 -->
<g id="node5" class="node">
<title>Node5</title>
<g id="a_node5"><a xlink:title=" ">
<polygon fill="#e0e0e0" stroke="#999999" points="188,-24.5 128,-24.5 128,-5.5 188,-5.5 188,-24.5"/>
<text text-anchor="middle" x="158" y="-12.5" font-family="Helvetica,sans-Serif" font-size="10.00">EGL/egl.h</text>
</a>
</g>
</g>
<!-- Node2&#45;&gt;Node5 -->
<g id="edge4" class="edge">
<title>Node2&#45;&gt;Node5</title>
<path fill="none" stroke="#63b8ff" d="M165.4,-131.82C161.94,-122.99 156.97,-108.81 155,-96 151.84,-75.44 153.4,-51.57 155.24,-35.3"/>
<polygon fill="#63b8ff" stroke="#63b8ff" points="158.77,-35.31 156.57,-24.94 151.83,-34.42 158.77,-35.31"/>
</g>
<!-- Node6 -->
<g id="node6" class="node">
<title>Node6</title>
<g id="a_node6"><a xlink:title=" ">
<polygon fill="#e0e0e0" stroke="#999999" points="238,-90.5 164,-90.5 164,-71.5 238,-71.5 238,-90.5"/>
<text text-anchor="middle" x="201" y="-78.5" font-family="Helvetica,sans-Serif" font-size="10.00">EGL/eglext.h</text>
</a>
</g>
</g>
<!-- Node2&#45;&gt;Node6 -->
<g id="edge5" class="edge">
<title>Node2&#45;&gt;Node6</title>
<path fill="none" stroke="#63b8ff" d="M173.72,-131.87C178.35,-123.4 185.55,-110.24 191.39,-99.57"/>
<polygon fill="#63b8ff" stroke="#63b8ff" points="194.53,-101.12 196.26,-90.67 188.39,-97.76 194.53,-101.12"/>
</g>
<!-- Node7 -->
<g id="node7" class="node">
<title>Node7</title>
<g id="a_node7"><a xlink:href="constants_8h.html" target="_top" xlink:title=" ">
<polygon fill="white" stroke="#666666" points="324,-90.5 256,-90.5 256,-71.5 324,-71.5 324,-90.5"/>
<text text-anchor="middle" x="290" y="-78.5" font-family="Helvetica,sans-Serif" font-size="10.00">constants.h</text>
</a>
</g>
</g>
<!-- Node2&#45;&gt;Node7 -->
<g id="edge6" class="edge">
<title>Node2&#45;&gt;Node7</title>
<path fill="none" stroke="#63b8ff" d="M186.59,-131.99C206.76,-122.25 240.02,-106.16 263.36,-94.88"/>
<polygon fill="#63b8ff" stroke="#63b8ff" points="264.9,-98.02 272.38,-90.52 261.86,-91.72 264.9,-98.02"/>
</g>
<!-- Node7&#45;&gt;Node5 -->
<g id="edge7" class="edge">
<title>Node7&#45;&gt;Node5</title>
<path fill="none" stroke="#63b8ff" d="M272.2,-71.37C249.86,-60.54 211.32,-41.85 185.26,-29.22"/>
<polygon fill="#63b8ff" stroke="#63b8ff" points="186.47,-25.91 175.94,-24.7 183.41,-32.21 186.47,-25.91"/>
</g>
<!-- Node8 -->
<g id="node8" class="node">
<title>Node8</title>
<g id="a_node8"><a xlink:title=" ">
<polygon fill="#e0e0e0" stroke="#999999" points="338.5,-30 217.5,-30 217.5,0 338.5,0 338.5,-30"/>
<text text-anchor="start" x="225.5" y="-18" font-family="Helvetica,sans-Serif" font-size="10.00">shell/platform/embedder</text>
<text text-anchor="middle" x="278" y="-7" font-family="Helvetica,sans-Serif" font-size="10.00">/embedder.h</text>
</a>
</g>
</g>
<!-- Node7&#45;&gt;Node8 -->
<g id="edge8" class="edge">
<title>Node7&#45;&gt;Node8</title>
<path fill="none" stroke="#63b8ff" d="M288.38,-71.37C286.89,-63.4 284.6,-51.2 282.55,-40.27"/>
<polygon fill="#63b8ff" stroke="#63b8ff" points="285.98,-39.54 280.69,-30.36 279.1,-40.83 285.98,-39.54"/>
</g>
<!-- Node9 -->
<g id="node9" class="node">
<title>Node9</title>
<g id="a_node9"><a xlink:title=" ">
<polygon fill="#e0e0e0" stroke="#999999" points="395,-24.5 357,-24.5 357,-5.5 395,-5.5 395,-24.5"/>
<text text-anchor="middle" x="376" y="-12.5" font-family="Helvetica,sans-Serif" font-size="10.00">array</text>
</a>
</g>
</g>
<!-- Node7&#45;&gt;Node9 -->
<g id="edge9" class="edge">
<title>Node7&#45;&gt;Node9</title>
<path fill="none" stroke="#63b8ff" d="M301.6,-71.37C315.58,-60.97 339.29,-43.32 356.18,-30.75"/>
<polygon fill="#63b8ff" stroke="#63b8ff" points="358.38,-33.48 364.31,-24.7 354.2,-27.86 358.38,-33.48"/>
</g>
<!-- Node12&#45;&gt;Node7 -->
<g id="edge20" class="edge">
<title>Node12&#45;&gt;Node7</title>
<path fill="none" stroke="#63b8ff" d="M544.66,-136.48C499.49,-129.8 408.57,-115.22 333,-96 330.05,-95.25 327.01,-94.41 323.97,-93.51"/>
<polygon fill="#63b8ff" stroke="#63b8ff" points="324.98,-90.16 314.4,-90.56 322.92,-96.85 324.98,-90.16"/>
</g>
<!-- Node13 -->
<g id="node13" class="node">
<title>Node13</title>
<g id="a_node13"><a xlink:title=" ">
<polygon fill="#e0e0e0" stroke="#999999" points="394,-90.5 342,-90.5 342,-71.5 394,-71.5 394,-90.5"/>
<text text-anchor="middle" x="368" y="-78.5" font-family="Helvetica,sans-Serif" font-size="10.00">sstream</text>
</a>
</g>
</g>
<!-- Node12&#45;&gt;Node13 -->
<g id="edge13" class="edge">
<title>Node12&#45;&gt;Node13</title>
<path fill="none" stroke="#63b8ff" d="M544.71,-134.23C510.72,-126.44 452.11,-112.18 403,-96 401.33,-95.45 399.63,-94.86 397.92,-94.25"/>
<polygon fill="#63b8ff" stroke="#63b8ff" points="398.79,-90.84 388.2,-90.58 396.32,-97.39 398.79,-90.84"/>
</g>
<!-- Node14 -->
<g id="node14" class="node">
<title>Node14</title>
<g id="a_node14"><a xlink:title=" ">
<polygon fill="#e0e0e0" stroke="#999999" points="500,-90.5 412,-90.5 412,-71.5 500,-71.5 500,-90.5"/>
<text text-anchor="middle" x="456" y="-78.5" font-family="Helvetica,sans-Serif" font-size="10.00">spdlog/cfg/env.h</text>
</a>
</g>
</g>
<!-- Node12&#45;&gt;Node14 -->
<g id="edge14" class="edge">
<title>Node12&#45;&gt;Node14</title>
<path fill="none" stroke="#63b8ff" d="M555.99,-131.99C536.58,-122.29 504.61,-106.31 482.06,-95.03"/>
<polygon fill="#63b8ff" stroke="#63b8ff" points="483.54,-91.86 473.03,-90.52 480.41,-98.12 483.54,-91.86"/>
</g>
<!-- Node15 -->
<g id="node15" class="node">
<title>Node15</title>
<g id="a_node15"><a xlink:title=" ">
<polygon fill="#e0e0e0" stroke="#999999" points="628,-96 518,-96 518,-66 628,-66 628,-96"/>
<text text-anchor="start" x="526" y="-84" font-family="Helvetica,sans-Serif" font-size="10.00">spdlog/sinks/callback</text>
<text text-anchor="middle" x="573" y="-73" font-family="Helvetica,sans-Serif" font-size="10.00">_sink.h</text>
</a>
</g>
</g>
<!-- Node12&#45;&gt;Node15 -->
<g id="edge15" class="edge">
<title>Node12&#45;&gt;Node15</title>
<path fill="none" stroke="#63b8ff" d="M573,-131.87C573,-125.11 573,-115.35 573,-106.26"/>
<polygon fill="#63b8ff" stroke="#63b8ff" points="576.5,-106.11 573,-96.11 569.5,-106.11 576.5,-106.11"/>
</g>
<!-- Node16 -->
<g id="node16" class="node">
<title>Node16</title>
<g id="a_node16"><a xlink:title=" ">
<polygon fill="#e0e0e0" stroke="#999999" points="760,-96 646,-96 646,-66 760,-66 760,-96"/>
<text text-anchor="start" x="654" y="-84" font-family="Helvetica,sans-Serif" font-size="10.00">spdlog/sinks/ringbuffer</text>
<text text-anchor="middle" x="703" y="-73" font-family="Helvetica,sans-Serif" font-size="10.00">_sink.h</text>
</a>
</g>
</g>
<!-- Node12&#45;&gt;Node16 -->
<g id="edge16" class="edge">
<title>Node12&#45;&gt;Node16</title>
<path fill="none" stroke="#63b8ff" d="M591.9,-131.99C610.29,-123.72 638.8,-110.89 662.34,-100.3"/>
<polygon fill="#63b8ff" stroke="#63b8ff" points="664.06,-103.36 671.75,-96.06 661.19,-96.98 664.06,-103.36"/>
</g>
<!-- Node17 -->
<g id="node17" class="node">
<title>Node17</title>
<g id="a_node17"><a xlink:title=" ">
<polygon fill="#e0e0e0" stroke="#999999" points="879.5,-96 778.5,-96 778.5,-66 879.5,-66 879.5,-96"/>
<text text-anchor="start" x="786.5" y="-84" font-family="Helvetica,sans-Serif" font-size="10.00">spdlog/sinks/stdout</text>
<text text-anchor="middle" x="829" y="-73" font-family="Helvetica,sans-Serif" font-size="10.00">_color_sinks.h</text>
</a>
</g>
</g>
<!-- Node12&#45;&gt;Node17 -->
<g id="edge17" class="edge">
<title>Node12&#45;&gt;Node17</title>
<path fill="none" stroke="#63b8ff" d="M601.25,-134.14C637.49,-125.97 702.57,-111.26 768.16,-96.18"/>
<polygon fill="#63b8ff" stroke="#63b8ff" points="769.31,-99.51 778.27,-93.86 767.74,-92.69 769.31,-99.51"/>
</g>
<!-- Node18 -->
<g id="node18" class="node">
<title>Node18</title>
<g id="a_node18"><a xlink:title=" ">
<polygon fill="#e0e0e0" stroke="#999999" points="998.5,-96 897.5,-96 897.5,-66 998.5,-66 998.5,-96"/>
<text text-anchor="start" x="905.5" y="-84" font-family="Helvetica,sans-Serif" font-size="10.00">spdlog/sinks/stdout</text>
<text text-anchor="middle" x="948" y="-73" font-family="Helvetica,sans-Serif" font-size="10.00">_sinks.h</text>
</a>
</g>
</g>
<!-- Node12&#45;&gt;Node18 -->
<g id="edge18" class="edge">
<title>Node12&#45;&gt;Node18</title>
<path fill="none" stroke="#63b8ff" d="M601.04,-137.44C654.75,-131.39 776,-116.81 887.18,-96.25"/>
<polygon fill="#63b8ff" stroke="#63b8ff" points="888.03,-99.65 897.22,-94.37 886.74,-92.77 888.03,-99.65"/>
</g>
<!-- Node19 -->
<g id="node19" class="node">
<title>Node19</title>
<g id="a_node19"><a xlink:title=" ">
<polygon fill="#e0e0e0" stroke="#999999" points="1101.5,-90.5 1016.5,-90.5 1016.5,-71.5 1101.5,-71.5 1101.5,-90.5"/>
<text text-anchor="middle" x="1059" y="-78.5" font-family="Helvetica,sans-Serif" font-size="10.00">spdlog/spdlog.h</text>
</a>
</g>
</g>
<!-- Node12&#45;&gt;Node19 -->
<g id="edge19" class="edge">
<title>Node12&#45;&gt;Node19</title>
<path fill="none" stroke="#63b8ff" d="M601.22,-139.24C670.84,-135.77 856.15,-124.41 1008,-96 1012.38,-95.18 1016.94,-94.17 1021.44,-93.06"/>
<polygon fill="#63b8ff" stroke="#63b8ff" points="1022.34,-96.45 1031.14,-90.55 1020.58,-89.67 1022.34,-96.45"/>
</g>
</g>
</svg>
