<?xml version="1.0" encoding="UTF-8" standalone="no"?>
<!DOCTYPE svg PUBLIC "-//W3C//DTD SVG 1.1//EN"
 "http://www.w3.org/Graphics/SVG/1.1/DTD/svg11.dtd">
<!-- Generated by graphviz version 5.0.0 (0)
 -->
<!-- Title: /mnt/raid10/stargate/ivi&#45;homescreen/shell/backend/egl.cc Pages: 1 -->
<svg width="511pt" height="280pt"
 viewBox="0.00 0.00 511.48 280.00" xmlns="http://www.w3.org/2000/svg" xmlns:xlink="http://www.w3.org/1999/xlink">
<g id="graph0" class="graph" transform="scale(1 1) rotate(0) translate(4 276)">
<title>/mnt/raid10/stargate/ivi&#45;homescreen/shell/backend/egl.cc</title>
<!-- Node1 -->
<g id="node1" class="node">
<title>Node1</title>
<g id="a_node1"><a xlink:title=" ">
<polygon fill="#999999" stroke="#666666" points="291.48,-272 182.48,-272 182.48,-231 291.48,-231 291.48,-272"/>
<text text-anchor="start" x="190.48" y="-260" font-family="Helvetica,sans-Serif" font-size="10.00">/mnt/raid10/stargate</text>
<text text-anchor="start" x="190.48" y="-249" font-family="Helvetica,sans-Serif" font-size="10.00">/ivi&#45;homescreen/shell</text>
<text text-anchor="middle" x="236.98" y="-238" font-family="Helvetica,sans-Serif" font-size="10.00">/backend/egl.cc</text>
</a>
</g>
</g>
<!-- Node2 -->
<g id="node2" class="node">
<title>Node2</title>
<g id="a_node2"><a xlink:href="egl_8h.html" target="_top" xlink:title=" ">
<polygon fill="white" stroke="#666666" points="143.98,-195 105.98,-195 105.98,-176 143.98,-176 143.98,-195"/>
<text text-anchor="middle" x="124.98" y="-183" font-family="Helvetica,sans-Serif" font-size="10.00">egl.h</text>
</a>
</g>
</g>
<!-- Node1&#45;&gt;Node2 -->
<g id="edge1" class="edge">
<title>Node1&#45;&gt;Node2</title>
<path fill="none" stroke="#63b8ff" d="M202.77,-230.95C185.4,-221.03 164.72,-209.21 149.05,-200.25"/>
<polygon fill="#63b8ff" stroke="#63b8ff" points="150.43,-197.01 140.01,-195.09 146.96,-203.09 150.43,-197.01"/>
</g>
<!-- Node10 -->
<g id="node10" class="node">
<title>Node10</title>
<g id="a_node10"><a xlink:title=" ">
<polygon fill="#e0e0e0" stroke="#999999" points="228.48,-195 179.48,-195 179.48,-176 228.48,-176 228.48,-195"/>
<text text-anchor="middle" x="203.98" y="-183" font-family="Helvetica,sans-Serif" font-size="10.00">cassert</text>
</a>
</g>
</g>
<!-- Node1&#45;&gt;Node10 -->
<g id="edge10" class="edge">
<title>Node1&#45;&gt;Node10</title>
<path fill="none" stroke="#63b8ff" d="M226.9,-230.95C222.53,-222.48 217.45,-212.64 213.19,-204.37"/>
<polygon fill="#63b8ff" stroke="#63b8ff" points="216.19,-202.54 208.49,-195.26 209.97,-205.75 216.19,-202.54"/>
</g>
<!-- Node11 -->
<g id="node11" class="node">
<title>Node11</title>
<g id="a_node11"><a xlink:title=" ">
<polygon fill="#e0e0e0" stroke="#999999" points="292.98,-195 246.98,-195 246.98,-176 292.98,-176 292.98,-195"/>
<text text-anchor="middle" x="269.98" y="-183" font-family="Helvetica,sans-Serif" font-size="10.00">cstring</text>
</a>
</g>
</g>
<!-- Node1&#45;&gt;Node11 -->
<g id="edge11" class="edge">
<title>Node1&#45;&gt;Node11</title>
<path fill="none" stroke="#63b8ff" d="M247.06,-230.95C251.42,-222.48 256.5,-212.64 260.76,-204.37"/>
<polygon fill="#63b8ff" stroke="#63b8ff" points="263.99,-205.75 265.46,-195.26 257.77,-202.54 263.99,-205.75"/>
</g>
<!-- Node12 -->
<g id="node12" class="node">
<title>Node12</title>
<g id="a_node12"><a xlink:href="logging_8h.html" target="_top" xlink:title=" ">
<polygon fill="white" stroke="#666666" points="375.98,-195 319.98,-195 319.98,-176 375.98,-176 375.98,-195"/>
<text text-anchor="middle" x="347.98" y="-183" font-family="Helvetica,sans-Serif" font-size="10.00">logging.h</text>
</a>
</g>
</g>
<!-- Node1&#45;&gt;Node12 -->
<g id="edge12" class="edge">
<title>Node1&#45;&gt;Node12</title>
<path fill="none" stroke="#63b8ff" d="M270.88,-230.95C288.1,-221.03 308.59,-209.21 324.12,-200.25"/>
<polygon fill="#63b8ff" stroke="#63b8ff" points="326.16,-203.12 333.08,-195.09 322.66,-197.05 326.16,-203.12"/>
</g>
<!-- Node3 -->
<g id="node3" class="node">
<title>Node3</title>
<g id="a_node3"><a xlink:title=" ">
<polygon fill="#e0e0e0" stroke="#999999" points="184.98,-19 138.98,-19 138.98,0 184.98,0 184.98,-19"/>
<text text-anchor="middle" x="161.98" y="-7" font-family="Helvetica,sans-Serif" font-size="10.00">cstdint</text>
</a>
</g>
</g>
<!-- Node2&#45;&gt;Node3 -->
<g id="edge2" class="edge">
<title>Node2&#45;&gt;Node3</title>
<path fill="none" stroke="#63b8ff" d="M105.72,-183.89C77.67,-181.84 26.37,-173.44 2.98,-140 -1.86,-133.08 0.75,-129.15 2.98,-121 11.96,-88.13 15.83,-76.85 41.98,-55 67.11,-33.99 103.1,-22.42 129.1,-16.39"/>
<polygon fill="#63b8ff" stroke="#63b8ff" points="129.84,-19.81 138.88,-14.27 128.36,-12.97 129.84,-19.81"/>
</g>
<!-- Node4 -->
<g id="node4" class="node">
<title>Node4</title>
<g id="a_node4"><a xlink:title=" ">
<polygon fill="#e0e0e0" stroke="#999999" points="55.98,-140 11.98,-140 11.98,-121 55.98,-121 55.98,-140"/>
<text text-anchor="middle" x="33.98" y="-128" font-family="Helvetica,sans-Serif" font-size="10.00">vector</text>
</a>
</g>
</g>
<!-- Node2&#45;&gt;Node4 -->
<g id="edge3" class="edge">
<title>Node2&#45;&gt;Node4</title>
<path fill="none" stroke="#63b8ff" d="M110.36,-175.98C96.11,-167.69 74.23,-154.94 57.53,-145.22"/>
<polygon fill="#63b8ff" stroke="#63b8ff" points="59.27,-142.18 48.86,-140.17 55.74,-148.23 59.27,-142.18"/>
</g>
<!-- Node5 -->
<g id="node5" class="node">
<title>Node5</title>
<g id="a_node5"><a xlink:title=" ">
<polygon fill="#e0e0e0" stroke="#999999" points="110.98,-79.5 50.98,-79.5 50.98,-60.5 110.98,-60.5 110.98,-79.5"/>
<text text-anchor="middle" x="80.98" y="-67.5" font-family="Helvetica,sans-Serif" font-size="10.00">EGL/egl.h</text>
</a>
</g>
</g>
<!-- Node2&#45;&gt;Node5 -->
<g id="edge4" class="edge">
<title>Node2&#45;&gt;Node5</title>
<path fill="none" stroke="#63b8ff" d="M120.2,-175.81C115.44,-166.97 108.14,-152.79 102.98,-140 96.21,-123.26 90.12,-103.59 86.06,-89.54"/>
<polygon fill="#63b8ff" stroke="#63b8ff" points="89.36,-88.32 83.28,-79.64 82.62,-90.22 89.36,-88.32"/>
</g>
<!-- Node6 -->
<g id="node6" class="node">
<title>Node6</title>
<g id="a_node6"><a xlink:title=" ">
<polygon fill="#e0e0e0" stroke="#999999" points="185.98,-140 111.98,-140 111.98,-121 185.98,-121 185.98,-140"/>
<text text-anchor="middle" x="148.98" y="-128" font-family="Helvetica,sans-Serif" font-size="10.00">EGL/eglext.h</text>
</a>
</g>
</g>
<!-- Node2&#45;&gt;Node6 -->
<g id="edge5" class="edge">
<title>Node2&#45;&gt;Node6</title>
<path fill="none" stroke="#63b8ff" d="M128.94,-175.75C132.19,-168.57 136.9,-158.18 140.93,-149.27"/>
<polygon fill="#63b8ff" stroke="#63b8ff" points="144.15,-150.64 145.09,-140.09 137.77,-147.75 144.15,-150.64"/>
</g>
<!-- Node7 -->
<g id="node7" class="node">
<title>Node7</title>
<g id="a_node7"><a xlink:href="constants_8h.html" target="_top" xlink:title=" ">
<polygon fill="white" stroke="#666666" points="271.98,-140 203.98,-140 203.98,-121 271.98,-121 271.98,-140"/>
<text text-anchor="middle" x="237.98" y="-128" font-family="Helvetica,sans-Serif" font-size="10.00">constants.h</text>
</a>
</g>
</g>
<!-- Node2&#45;&gt;Node7 -->
<g id="edge6" class="edge">
<title>Node2&#45;&gt;Node7</title>
<path fill="none" stroke="#63b8ff" d="M143.13,-175.98C161.23,-167.5 189.26,-154.35 210.16,-144.54"/>
<polygon fill="#63b8ff" stroke="#63b8ff" points="211.92,-147.59 219.49,-140.17 208.95,-141.25 211.92,-147.59"/>
</g>
<!-- Node7&#45;&gt;Node5 -->
<g id="edge7" class="edge">
<title>Node7&#45;&gt;Node5</title>
<path fill="none" stroke="#63b8ff" d="M215.15,-120.99C188.41,-111.03 143.9,-94.45 113.54,-83.13"/>
<polygon fill="#63b8ff" stroke="#63b8ff" points="114.43,-79.73 103.83,-79.52 111.98,-86.29 114.43,-79.73"/>
</g>
<!-- Node8 -->
<g id="node8" class="node">
<title>Node8</title>
<g id="a_node8"><a xlink:title=" ">
<polygon fill="#e0e0e0" stroke="#999999" points="250.48,-85 129.48,-85 129.48,-55 250.48,-55 250.48,-85"/>
<text text-anchor="start" x="137.48" y="-73" font-family="Helvetica,sans-Serif" font-size="10.00">shell/platform/embedder</text>
<text text-anchor="middle" x="189.98" y="-62" font-family="Helvetica,sans-Serif" font-size="10.00">/embedder.h</text>
</a>
</g>
</g>
<!-- Node7&#45;&gt;Node8 -->
<g id="edge8" class="edge">
<title>Node7&#45;&gt;Node8</title>
<path fill="none" stroke="#63b8ff" d="M230.89,-120.87C224.86,-113.52 215.93,-102.63 207.95,-92.91"/>
<polygon fill="#63b8ff" stroke="#63b8ff" points="210.61,-90.63 201.56,-85.11 205.2,-95.07 210.61,-90.63"/>
</g>
<!-- Node9 -->
<g id="node9" class="node">
<title>Node9</title>
<g id="a_node9"><a xlink:title=" ">
<polygon fill="#e0e0e0" stroke="#999999" points="306.98,-79.5 268.98,-79.5 268.98,-60.5 306.98,-60.5 306.98,-79.5"/>
<text text-anchor="middle" x="287.98" y="-67.5" font-family="Helvetica,sans-Serif" font-size="10.00">array</text>
</a>
</g>
</g>
<!-- Node7&#45;&gt;Node9 -->
<g id="edge9" class="edge">
<title>Node7&#45;&gt;Node9</title>
<path fill="none" stroke="#63b8ff" d="M245.35,-120.87C252.89,-112.05 264.76,-98.16 274.07,-87.27"/>
<polygon fill="#63b8ff" stroke="#63b8ff" points="276.73,-89.54 280.57,-79.67 271.41,-85 276.73,-89.54"/>
</g>
<!-- Node13 -->
<g id="node13" class="node">
<title>Node13</title>
<g id="a_node13"><a xlink:title=" ">
<polygon fill="#e0e0e0" stroke="#999999" points="350.98,-140 298.98,-140 298.98,-121 350.98,-121 350.98,-140"/>
<text text-anchor="middle" x="324.98" y="-128" font-family="Helvetica,sans-Serif" font-size="10.00">sstream</text>
</a>
</g>
</g>
<!-- Node12&#45;&gt;Node13 -->
<g id="edge13" class="edge">
<title>Node12&#45;&gt;Node13</title>
<path fill="none" stroke="#63b8ff" d="M344.18,-175.75C341.06,-168.57 336.55,-158.18 332.69,-149.27"/>
<polygon fill="#63b8ff" stroke="#63b8ff" points="335.9,-147.87 328.7,-140.09 329.47,-150.66 335.9,-147.87"/>
</g>
<!-- Node14 -->
<g id="node14" class="node">
<title>Node14</title>
<g id="a_node14"><a xlink:href="dlt_8h.html" target="_top" xlink:title=" ">
<polygon fill="white" stroke="#666666" points="418.48,-140 369.48,-140 369.48,-121 418.48,-121 418.48,-140"/>
<text text-anchor="middle" x="393.98" y="-128" font-family="Helvetica,sans-Serif" font-size="10.00">dlt/dlt.h</text>
</a>
</g>
</g>
<!-- Node12&#45;&gt;Node14 -->
<g id="edge14" class="edge">
<title>Node12&#45;&gt;Node14</title>
<path fill="none" stroke="#63b8ff" d="M355.57,-175.75C362.14,-168.18 371.8,-157.05 379.79,-147.84"/>
<polygon fill="#63b8ff" stroke="#63b8ff" points="382.61,-149.94 386.52,-140.09 377.32,-145.35 382.61,-149.94"/>
</g>
<!-- Node16 -->
<g id="node16" class="node">
<title>Node16</title>
<g id="a_node16"><a xlink:title=" ">
<polygon fill="#e0e0e0" stroke="#999999" points="503.48,-79.5 402.48,-79.5 402.48,-60.5 503.48,-60.5 503.48,-79.5"/>
<text text-anchor="middle" x="452.98" y="-67.5" font-family="Helvetica,sans-Serif" font-size="10.00">flutter/fml/macros.h</text>
</a>
</g>
</g>
<!-- Node12&#45;&gt;Node16 -->
<g id="edge18" class="edge">
<title>Node12&#45;&gt;Node16</title>
<path fill="none" stroke="#63b8ff" d="M373.11,-175.96C390.66,-168.83 413.45,-157.06 427.98,-140 440.22,-125.62 446.67,-104.76 449.93,-89.75"/>
<polygon fill="#63b8ff" stroke="#63b8ff" points="453.42,-90.08 451.84,-79.61 446.54,-88.79 453.42,-90.08"/>
</g>
<!-- Node15 -->
<g id="node15" class="node">
<title>Node15</title>
<g id="a_node15"><a xlink:href="libdlt_8h.html" target="_top" xlink:title=" ">
<polygon fill="white" stroke="#666666" points="384.48,-79.5 325.48,-79.5 325.48,-60.5 384.48,-60.5 384.48,-79.5"/>
<text text-anchor="middle" x="354.98" y="-67.5" font-family="Helvetica,sans-Serif" font-size="10.00">dlt/libdlt.h</text>
</a>
</g>
</g>
<!-- Node14&#45;&gt;Node15 -->
<g id="edge15" class="edge">
<title>Node14&#45;&gt;Node15</title>
<path fill="none" stroke="#63b8ff" d="M388.22,-120.87C382.52,-112.31 373.63,-98.97 366.47,-88.24"/>
<polygon fill="#63b8ff" stroke="#63b8ff" points="369.21,-86.05 360.76,-79.67 363.39,-89.93 369.21,-86.05"/>
</g>
<!-- Node14&#45;&gt;Node16 -->
<g id="edge17" class="edge">
<title>Node14&#45;&gt;Node16</title>
<path fill="none" stroke="#63b8ff" d="M402.68,-120.87C411.66,-111.97 425.86,-97.89 436.89,-86.95"/>
<polygon fill="#63b8ff" stroke="#63b8ff" points="439.6,-89.19 444.24,-79.67 434.67,-84.22 439.6,-89.19"/>
</g>
<!-- Node15&#45;&gt;Node3 -->
<g id="edge16" class="edge">
<title>Node15&#45;&gt;Node3</title>
<path fill="none" stroke="#63b8ff" d="M331.96,-60.47C326.73,-58.6 321.18,-56.68 315.98,-55 274.58,-41.6 226.32,-27.98 195.01,-19.39"/>
<polygon fill="#63b8ff" stroke="#63b8ff" points="195.64,-15.94 185.08,-16.68 193.8,-22.69 195.64,-15.94"/>
</g>
</g>
</svg>
