<?xml version="1.0" encoding="UTF-8" standalone="no"?>
<!DOCTYPE svg PUBLIC "-//W3C//DTD SVG 1.1//EN"
 "http://www.w3.org/Graphics/SVG/1.1/DTD/svg11.dtd">
<!-- Generated by graphviz version 2.43.0 (0)
 -->
<!-- Title: /home/joel.winarske@toyotaconnected.com/development/workspace&#45;automation&#45;configs/app/ivi&#45;homescreen/shell/backend/egl.h Pages: 1 -->
<svg width="870pt" height="305pt"
 viewBox="0.00 0.00 870.00 305.00" xmlns="http://www.w3.org/2000/svg" xmlns:xlink="http://www.w3.org/1999/xlink">
<g id="graph0" class="graph" transform="scale(1 1) rotate(0) translate(4 301)">
<title>/home/joel.winarske@toyotaconnected.com/development/workspace&#45;automation&#45;configs/app/ivi&#45;homescreen/shell/backend/egl.h</title>
<polygon fill="white" stroke="transparent" points="-4,4 -4,-301 866,-301 866,4 -4,4"/>
<!-- Node1 -->
<g id="node1" class="node">
<title>Node1</title>
<g id="a_node1"><a xlink:title=" ">
<polygon fill="#bfbfbf" stroke="black" points="129.5,-233.5 129.5,-296.5 321.5,-296.5 321.5,-233.5 129.5,-233.5"/>
<text text-anchor="start" x="137.5" y="-284.5" font-family="Helvetica,sans-Serif" font-size="10.00">/home/joel.winarske</text>
<text text-anchor="start" x="137.5" y="-273.5" font-family="Helvetica,sans-Serif" font-size="10.00">@toyotaconnected.com</text>
<text text-anchor="start" x="137.5" y="-262.5" font-family="Helvetica,sans-Serif" font-size="10.00">/development/workspace</text>
<text text-anchor="start" x="137.5" y="-251.5" font-family="Helvetica,sans-Serif" font-size="10.00">&#45;automation&#45;configs/app</text>
<text text-anchor="middle" x="225.5" y="-240.5" font-family="Helvetica,sans-Serif" font-size="10.00">/ivi&#45;homescreen/shell/backend/egl.h</text>
</a>
</g>
</g>
<!-- Node2 -->
<g id="node2" class="node">
<title>Node2</title>
<g id="a_node2"><a xlink:href="egl_8cc.html" target="_top" xlink:title=" ">
<polygon fill="white" stroke="black" points="0,-128 0,-191 197,-191 197,-128 0,-128"/>
<text text-anchor="start" x="8" y="-179" font-family="Helvetica,sans-Serif" font-size="10.00">/home/joel.winarske</text>
<text text-anchor="start" x="8" y="-168" font-family="Helvetica,sans-Serif" font-size="10.00">@toyotaconnected.com</text>
<text text-anchor="start" x="8" y="-157" font-family="Helvetica,sans-Serif" font-size="10.00">/development/workspace</text>
<text text-anchor="start" x="8" y="-146" font-family="Helvetica,sans-Serif" font-size="10.00">&#45;automation&#45;configs/app</text>
<text text-anchor="middle" x="98.5" y="-135" font-family="Helvetica,sans-Serif" font-size="10.00">/ivi&#45;homescreen/shell/backend/egl.cc</text>
</a>
</g>
</g>
<!-- Node1&#45;&gt;Node2 -->
<g id="edge1" class="edge">
<title>Node1&#45;&gt;Node2</title>
<path fill="none" stroke="midnightblue" d="M179.95,-226.88C165.66,-215.23 150.04,-202.5 136.33,-191.33"/>
<polygon fill="midnightblue" stroke="midnightblue" points="177.78,-229.62 187.74,-233.23 182.2,-224.2 177.78,-229.62"/>
</g>
<!-- Node3 -->
<g id="node3" class="node">
<title>Node3</title>
<g id="a_node3"><a xlink:href="wayland__egl_8cc.html" target="_top" xlink:title=" ">
<polygon fill="white" stroke="black" points="94,-6 94,-80 259,-80 259,-6 94,-6"/>
<text text-anchor="start" x="102" y="-68" font-family="Helvetica,sans-Serif" font-size="10.00">/home/joel.winarske</text>
<text text-anchor="start" x="102" y="-57" font-family="Helvetica,sans-Serif" font-size="10.00">@toyotaconnected.com</text>
<text text-anchor="start" x="102" y="-46" font-family="Helvetica,sans-Serif" font-size="10.00">/development/workspace</text>
<text text-anchor="start" x="102" y="-35" font-family="Helvetica,sans-Serif" font-size="10.00">&#45;automation&#45;configs/app</text>
<text text-anchor="start" x="102" y="-24" font-family="Helvetica,sans-Serif" font-size="10.00">/ivi&#45;homescreen/shell/backend</text>
<text text-anchor="middle" x="176.5" y="-13" font-family="Helvetica,sans-Serif" font-size="10.00">/wayland_egl.cc</text>
</a>
</g>
</g>
<!-- Node1&#45;&gt;Node3 -->
<g id="edge2" class="edge">
<title>Node1&#45;&gt;Node3</title>
<path fill="none" stroke="midnightblue" d="M222.13,-223.39C219.19,-194.74 214.02,-155.64 205.5,-122 201.99,-108.13 196.86,-93.33 191.88,-80.38"/>
<polygon fill="midnightblue" stroke="midnightblue" points="218.66,-223.83 223.12,-233.44 225.62,-223.14 218.66,-223.83"/>
</g>
<!-- Node4 -->
<g id="node4" class="node">
<title>Node4</title>
<g id="a_node4"><a xlink:href="wayland__egl_8h.html" target="_top" xlink:title=" ">
<polygon fill="white" stroke="black" points="304,-122.5 304,-196.5 469,-196.5 469,-122.5 304,-122.5"/>
<text text-anchor="start" x="312" y="-184.5" font-family="Helvetica,sans-Serif" font-size="10.00">/home/joel.winarske</text>
<text text-anchor="start" x="312" y="-173.5" font-family="Helvetica,sans-Serif" font-size="10.00">@toyotaconnected.com</text>
<text text-anchor="start" x="312" y="-162.5" font-family="Helvetica,sans-Serif" font-size="10.00">/development/workspace</text>
<text text-anchor="start" x="312" y="-151.5" font-family="Helvetica,sans-Serif" font-size="10.00">&#45;automation&#45;configs/app</text>
<text text-anchor="start" x="312" y="-140.5" font-family="Helvetica,sans-Serif" font-size="10.00">/ivi&#45;homescreen/shell/backend</text>
<text text-anchor="middle" x="386.5" y="-129.5" font-family="Helvetica,sans-Serif" font-size="10.00">/wayland_egl.h</text>
</a>
</g>
</g>
<!-- Node1&#45;&gt;Node4 -->
<g id="edge3" class="edge">
<title>Node1&#45;&gt;Node4</title>
<path fill="none" stroke="midnightblue" d="M281.93,-227.73C297.61,-217.64 314.64,-206.7 330.31,-196.62"/>
<polygon fill="midnightblue" stroke="midnightblue" points="279.89,-224.88 273.37,-233.23 283.67,-230.76 279.89,-224.88"/>
</g>
<!-- Node4&#45;&gt;Node3 -->
<g id="edge4" class="edge">
<title>Node4&#45;&gt;Node3</title>
<path fill="none" stroke="midnightblue" d="M311.51,-117.61C289.03,-105.36 264.55,-92.01 242.69,-80.09"/>
<polygon fill="midnightblue" stroke="midnightblue" points="309.89,-120.71 320.34,-122.43 313.24,-114.57 309.89,-120.71"/>
</g>
<!-- Node5 -->
<g id="node5" class="node">
<title>Node5</title>
<g id="a_node5"><a xlink:href="gstreamer__egl_8cc.html" target="_top" xlink:title=" ">
<polygon fill="white" stroke="black" points="277.5,-6 277.5,-80 495.5,-80 495.5,-6 277.5,-6"/>
<text text-anchor="start" x="285.5" y="-68" font-family="Helvetica,sans-Serif" font-size="10.00">/home/joel.winarske</text>
<text text-anchor="start" x="285.5" y="-57" font-family="Helvetica,sans-Serif" font-size="10.00">@toyotaconnected.com</text>
<text text-anchor="start" x="285.5" y="-46" font-family="Helvetica,sans-Serif" font-size="10.00">/development/workspace</text>
<text text-anchor="start" x="285.5" y="-35" font-family="Helvetica,sans-Serif" font-size="10.00">&#45;automation&#45;configs/app</text>
<text text-anchor="start" x="285.5" y="-24" font-family="Helvetica,sans-Serif" font-size="10.00">/ivi&#45;homescreen/shell/static</text>
<text text-anchor="middle" x="386.5" y="-13" font-family="Helvetica,sans-Serif" font-size="10.00">_plugins/gstreamer_egl/gstreamer_egl.cc</text>
</a>
</g>
</g>
<!-- Node4&#45;&gt;Node5 -->
<g id="edge5" class="edge">
<title>Node4&#45;&gt;Node5</title>
<path fill="none" stroke="midnightblue" d="M386.5,-111.97C386.5,-101.45 386.5,-90.42 386.5,-80.39"/>
<polygon fill="midnightblue" stroke="midnightblue" points="383,-112.27 386.5,-122.27 390,-112.27 383,-112.27"/>
</g>
<!-- Node6 -->
<g id="node6" class="node">
<title>Node6</title>
<g id="a_node6"><a xlink:href="texture__navi__render__egl_8cc.html" target="_top" xlink:title=" ">
<polygon fill="white" stroke="black" points="514,-0.5 514,-85.5 679,-85.5 679,-0.5 514,-0.5"/>
<text text-anchor="start" x="522" y="-73.5" font-family="Helvetica,sans-Serif" font-size="10.00">/home/joel.winarske</text>
<text text-anchor="start" x="522" y="-62.5" font-family="Helvetica,sans-Serif" font-size="10.00">@toyotaconnected.com</text>
<text text-anchor="start" x="522" y="-51.5" font-family="Helvetica,sans-Serif" font-size="10.00">/development/workspace</text>
<text text-anchor="start" x="522" y="-40.5" font-family="Helvetica,sans-Serif" font-size="10.00">&#45;automation&#45;configs/app</text>
<text text-anchor="start" x="522" y="-29.5" font-family="Helvetica,sans-Serif" font-size="10.00">/ivi&#45;homescreen/shell/textures</text>
<text text-anchor="start" x="522" y="-18.5" font-family="Helvetica,sans-Serif" font-size="10.00">/navi_render_egl/texture_navi</text>
<text text-anchor="middle" x="596.5" y="-7.5" font-family="Helvetica,sans-Serif" font-size="10.00">_render_egl.cc</text>
</a>
</g>
</g>
<!-- Node4&#45;&gt;Node6 -->
<g id="edge6" class="edge">
<title>Node4&#45;&gt;Node6</title>
<path fill="none" stroke="midnightblue" d="M461.56,-117.57C480.56,-107.22 500.98,-96.08 520.05,-85.69"/>
<polygon fill="midnightblue" stroke="midnightblue" points="459.76,-114.57 452.66,-122.43 463.11,-120.71 459.76,-114.57"/>
</g>
<!-- Node7 -->
<g id="node7" class="node">
<title>Node7</title>
<g id="a_node7"><a xlink:href="texture__test__egl_8cc.html" target="_top" xlink:title=" ">
<polygon fill="white" stroke="black" points="697,-6 697,-80 862,-80 862,-6 697,-6"/>
<text text-anchor="start" x="705" y="-68" font-family="Helvetica,sans-Serif" font-size="10.00">/home/joel.winarske</text>
<text text-anchor="start" x="705" y="-57" font-family="Helvetica,sans-Serif" font-size="10.00">@toyotaconnected.com</text>
<text text-anchor="start" x="705" y="-46" font-family="Helvetica,sans-Serif" font-size="10.00">/development/workspace</text>
<text text-anchor="start" x="705" y="-35" font-family="Helvetica,sans-Serif" font-size="10.00">&#45;automation&#45;configs/app</text>
<text text-anchor="start" x="705" y="-24" font-family="Helvetica,sans-Serif" font-size="10.00">/ivi&#45;homescreen/shell/textures</text>
<text text-anchor="middle" x="779.5" y="-13" font-family="Helvetica,sans-Serif" font-size="10.00">/test_egl/texture_test_egl.cc</text>
</a>
</g>
</g>
<!-- Node4&#45;&gt;Node7 -->
<g id="edge7" class="edge">
<title>Node4&#45;&gt;Node7</title>
<path fill="none" stroke="midnightblue" d="M479.06,-141.21C539.53,-128.72 619.74,-109.86 688.5,-86 693.76,-84.17 699.13,-82.15 704.49,-80"/>
<polygon fill="midnightblue" stroke="midnightblue" points="478.24,-137.8 469.15,-143.24 479.64,-144.66 478.24,-137.8"/>
</g>
</g>
</svg>
