<?xml version="1.0" encoding="UTF-8" standalone="no"?>
<!DOCTYPE svg PUBLIC "-//W3C//DTD SVG 1.1//EN"
 "http://www.w3.org/Graphics/SVG/1.1/DTD/svg11.dtd">
<!-- Generated by graphviz version 5.0.0 (0)
 -->
<!-- Title: /mnt/raid10/stargate/ivi&#45;homescreen/shell/backend/egl.h Pages: 1 -->
<svg width="403pt" height="170pt"
 viewBox="0.00 0.00 403.00 170.00" xmlns="http://www.w3.org/2000/svg" xmlns:xlink="http://www.w3.org/1999/xlink">
<g id="graph0" class="graph" transform="scale(1 1) rotate(0) translate(4 166)">
<title>/mnt/raid10/stargate/ivi&#45;homescreen/shell/backend/egl.h</title>
<!-- Node1 -->
<g id="node1" class="node">
<title>Node1</title>
<g id="a_node1"><a xlink:title=" ">
<polygon fill="#999999" stroke="#666666" points="190.5,-162 81.5,-162 81.5,-121 190.5,-121 190.5,-162"/>
<text text-anchor="start" x="89.5" y="-150" font-family="Helvetica,sans-Serif" font-size="10.00">/mnt/raid10/stargate</text>
<text text-anchor="start" x="89.5" y="-139" font-family="Helvetica,sans-Serif" font-size="10.00">/ivi&#45;homescreen/shell</text>
<text text-anchor="middle" x="136" y="-128" font-family="Helvetica,sans-Serif" font-size="10.00">/backend/egl.h</text>
</a>
</g>
</g>
<!-- Node2 -->
<g id="node2" class="node">
<title>Node2</title>
<g id="a_node2"><a xlink:title=" ">
<polygon fill="#e0e0e0" stroke="#999999" points="46,-85 0,-85 0,-66 46,-66 46,-85"/>
<text text-anchor="middle" x="23" y="-73" font-family="Helvetica,sans-Serif" font-size="10.00">cstdint</text>
</a>
</g>
</g>
<!-- Node1&#45;&gt;Node2 -->
<g id="edge1" class="edge">
<title>Node1&#45;&gt;Node2</title>
<path fill="none" stroke="#63b8ff" d="M101.48,-120.95C83.96,-111.03 63.1,-99.21 47.29,-90.25"/>
<polygon fill="#63b8ff" stroke="#63b8ff" points="48.6,-86.97 38.17,-85.09 45.15,-93.07 48.6,-86.97"/>
</g>
<!-- Node3 -->
<g id="node3" class="node">
<title>Node3</title>
<g id="a_node3"><a xlink:title=" ">
<polygon fill="#e0e0e0" stroke="#999999" points="108,-85 64,-85 64,-66 108,-66 108,-85"/>
<text text-anchor="middle" x="86" y="-73" font-family="Helvetica,sans-Serif" font-size="10.00">vector</text>
</a>
</g>
</g>
<!-- Node1&#45;&gt;Node3 -->
<g id="edge2" class="edge">
<title>Node1&#45;&gt;Node3</title>
<path fill="none" stroke="#63b8ff" d="M120.73,-120.95C113.82,-112.11 105.74,-101.77 99.11,-93.29"/>
<polygon fill="#63b8ff" stroke="#63b8ff" points="101.76,-90.99 92.84,-85.26 96.24,-95.3 101.76,-90.99"/>
</g>
<!-- Node4 -->
<g id="node4" class="node">
<title>Node4</title>
<g id="a_node4"><a xlink:title=" ">
<polygon fill="#e0e0e0" stroke="#999999" points="188,-24.5 128,-24.5 128,-5.5 188,-5.5 188,-24.5"/>
<text text-anchor="middle" x="158" y="-12.5" font-family="Helvetica,sans-Serif" font-size="10.00">EGL/egl.h</text>
</a>
</g>
</g>
<!-- Node1&#45;&gt;Node4 -->
<g id="edge3" class="edge">
<title>Node1&#45;&gt;Node4</title>
<path fill="none" stroke="#63b8ff" d="M139.49,-120.77C143.67,-97.09 150.64,-57.66 154.73,-34.52"/>
<polygon fill="#63b8ff" stroke="#63b8ff" points="158.18,-35.07 156.48,-24.61 151.29,-33.85 158.18,-35.07"/>
</g>
<!-- Node5 -->
<g id="node5" class="node">
<title>Node5</title>
<g id="a_node5"><a xlink:title=" ">
<polygon fill="#e0e0e0" stroke="#999999" points="238,-85 164,-85 164,-66 238,-66 238,-85"/>
<text text-anchor="middle" x="201" y="-73" font-family="Helvetica,sans-Serif" font-size="10.00">EGL/eglext.h</text>
</a>
</g>
</g>
<!-- Node1&#45;&gt;Node5 -->
<g id="edge4" class="edge">
<title>Node1&#45;&gt;Node5</title>
<path fill="none" stroke="#63b8ff" d="M155.86,-120.95C165.12,-111.83 176,-101.11 184.76,-92.49"/>
<polygon fill="#63b8ff" stroke="#63b8ff" points="187.43,-94.77 192.1,-85.26 182.52,-89.78 187.43,-94.77"/>
</g>
<!-- Node6 -->
<g id="node6" class="node">
<title>Node6</title>
<g id="a_node6"><a xlink:href="constants_8h.html" target="_top" xlink:title=" ">
<polygon fill="white" stroke="#666666" points="324,-85 256,-85 256,-66 324,-66 324,-85"/>
<text text-anchor="middle" x="290" y="-73" font-family="Helvetica,sans-Serif" font-size="10.00">constants.h</text>
</a>
</g>
</g>
<!-- Node1&#45;&gt;Node6 -->
<g id="edge5" class="edge">
<title>Node1&#45;&gt;Node6</title>
<path fill="none" stroke="#63b8ff" d="M183.04,-120.95C208.05,-110.56 238.05,-98.09 259.9,-89.01"/>
<polygon fill="#63b8ff" stroke="#63b8ff" points="261.43,-92.16 269.33,-85.09 258.75,-85.7 261.43,-92.16"/>
</g>
<!-- Node6&#45;&gt;Node4 -->
<g id="edge6" class="edge">
<title>Node6&#45;&gt;Node4</title>
<path fill="none" stroke="#63b8ff" d="M270.81,-65.99C248.61,-56.16 211.88,-39.88 186.38,-28.58"/>
<polygon fill="#63b8ff" stroke="#63b8ff" points="187.78,-25.37 177.22,-24.52 184.94,-31.77 187.78,-25.37"/>
</g>
<!-- Node7 -->
<g id="node7" class="node">
<title>Node7</title>
<g id="a_node7"><a xlink:title=" ">
<polygon fill="#e0e0e0" stroke="#999999" points="338.5,-30 217.5,-30 217.5,0 338.5,0 338.5,-30"/>
<text text-anchor="start" x="225.5" y="-18" font-family="Helvetica,sans-Serif" font-size="10.00">shell/platform/embedder</text>
<text text-anchor="middle" x="278" y="-7" font-family="Helvetica,sans-Serif" font-size="10.00">/embedder.h</text>
</a>
</g>
</g>
<!-- Node6&#45;&gt;Node7 -->
<g id="edge7" class="edge">
<title>Node6&#45;&gt;Node7</title>
<path fill="none" stroke="#63b8ff" d="M288.23,-65.87C286.83,-59.03 284.8,-49.14 282.92,-39.97"/>
<polygon fill="#63b8ff" stroke="#63b8ff" points="286.33,-39.21 280.9,-30.11 279.48,-40.61 286.33,-39.21"/>
</g>
<!-- Node8 -->
<g id="node8" class="node">
<title>Node8</title>
<g id="a_node8"><a xlink:title=" ">
<polygon fill="#e0e0e0" stroke="#999999" points="395,-24.5 357,-24.5 357,-5.5 395,-5.5 395,-24.5"/>
<text text-anchor="middle" x="376" y="-12.5" font-family="Helvetica,sans-Serif" font-size="10.00">array</text>
</a>
</g>
</g>
<!-- Node6&#45;&gt;Node8 -->
<g id="edge8" class="edge">
<title>Node6&#45;&gt;Node8</title>
<path fill="none" stroke="#63b8ff" d="M302.69,-65.87C316.41,-56.54 338.5,-41.51 354.85,-30.38"/>
<polygon fill="#63b8ff" stroke="#63b8ff" points="356.96,-33.19 363.26,-24.67 353.02,-27.4 356.96,-33.19"/>
</g>
</g>
</svg>
