<?xml version="1.0" encoding="UTF-8" standalone="no"?>
<!DOCTYPE svg PUBLIC "-//W3C//DTD SVG 1.1//EN"
 "http://www.w3.org/Graphics/SVG/1.1/DTD/svg11.dtd">
<!-- Generated by graphviz version 5.0.0 (0)
 -->
<!-- Title: /mnt/raid10/stargate/ivi&#45;homescreen/shell/backend/egl.h Pages: 1 -->
<svg width="642pt" height="214pt"
 viewBox="0.00 0.00 642.00 214.00" xmlns="http://www.w3.org/2000/svg" xmlns:xlink="http://www.w3.org/1999/xlink">
<g id="graph0" class="graph" transform="scale(1 1) rotate(0) translate(4 210)">
<title>/mnt/raid10/stargate/ivi&#45;homescreen/shell/backend/egl.h</title>
<!-- Node1 -->
<g id="node1" class="node">
<title>Node1</title>
<g id="a_node1"><a xlink:title=" ">
<polygon fill="#999999" stroke="#666666" points="192,-206 83,-206 83,-165 192,-165 192,-206"/>
<text text-anchor="start" x="91" y="-194" font-family="Helvetica,sans-Serif" font-size="10.00">/mnt/raid10/stargate</text>
<text text-anchor="start" x="91" y="-183" font-family="Helvetica,sans-Serif" font-size="10.00">/ivi&#45;homescreen/shell</text>
<text text-anchor="middle" x="137.5" y="-172" font-family="Helvetica,sans-Serif" font-size="10.00">/backend/egl.h</text>
</a>
</g>
</g>
<!-- Node2 -->
<g id="node2" class="node">
<title>Node2</title>
<g id="a_node2"><a xlink:href="egl_8cc.html" target="_top" xlink:title=" ">
<polygon fill="white" stroke="#666666" points="109,-129 0,-129 0,-88 109,-88 109,-129"/>
<text text-anchor="start" x="8" y="-117" font-family="Helvetica,sans-Serif" font-size="10.00">/mnt/raid10/stargate</text>
<text text-anchor="start" x="8" y="-106" font-family="Helvetica,sans-Serif" font-size="10.00">/ivi&#45;homescreen/shell</text>
<text text-anchor="middle" x="54.5" y="-95" font-family="Helvetica,sans-Serif" font-size="10.00">/backend/egl.cc</text>
</a>
</g>
</g>
<!-- Node1&#45;&gt;Node2 -->
<g id="edge1" class="edge">
<title>Node1&#45;&gt;Node2</title>
<path fill="none" stroke="#63b8ff" d="M108.25,-158.07C97.69,-148.52 85.96,-137.93 76.16,-129.07"/>
<polygon fill="#63b8ff" stroke="#63b8ff" points="105.93,-160.69 115.69,-164.79 110.62,-155.49 105.93,-160.69"/>
</g>
<!-- Node3 -->
<g id="node3" class="node">
<title>Node3</title>
<g id="a_node3"><a xlink:href="wayland__egl_8cc.html" target="_top" xlink:title=" ">
<polygon fill="white" stroke="#666666" points="173,-46.5 46,-46.5 46,-5.5 173,-5.5 173,-46.5"/>
<text text-anchor="start" x="54" y="-34.5" font-family="Helvetica,sans-Serif" font-size="10.00">/mnt/raid10/stargate</text>
<text text-anchor="start" x="54" y="-23.5" font-family="Helvetica,sans-Serif" font-size="10.00">/ivi&#45;homescreen/shell</text>
<text text-anchor="middle" x="109.5" y="-12.5" font-family="Helvetica,sans-Serif" font-size="10.00">/backend/wayland_egl.cc</text>
</a>
</g>
</g>
<!-- Node1&#45;&gt;Node3 -->
<g id="edge2" class="edge">
<title>Node1&#45;&gt;Node3</title>
<path fill="none" stroke="#63b8ff" d="M132.24,-154.89C126.62,-123.29 117.88,-74.13 113.03,-46.88"/>
<polygon fill="#63b8ff" stroke="#63b8ff" points="128.81,-155.64 134.01,-164.87 135.71,-154.41 128.81,-155.64"/>
</g>
<!-- Node4 -->
<g id="node4" class="node">
<title>Node4</title>
<g id="a_node4"><a xlink:href="wayland__egl_8h.html" target="_top" xlink:title=" ">
<polygon fill="white" stroke="#666666" points="315.5,-129 193.5,-129 193.5,-88 315.5,-88 315.5,-129"/>
<text text-anchor="start" x="201.5" y="-117" font-family="Helvetica,sans-Serif" font-size="10.00">/mnt/raid10/stargate</text>
<text text-anchor="start" x="201.5" y="-106" font-family="Helvetica,sans-Serif" font-size="10.00">/ivi&#45;homescreen/shell</text>
<text text-anchor="middle" x="254.5" y="-95" font-family="Helvetica,sans-Serif" font-size="10.00">/backend/wayland_egl.h</text>
</a>
</g>
</g>
<!-- Node1&#45;&gt;Node4 -->
<g id="edge3" class="edge">
<title>Node1&#45;&gt;Node4</title>
<path fill="none" stroke="#63b8ff" d="M176.7,-159.37C192.05,-149.53 209.4,-138.41 223.81,-129.17"/>
<polygon fill="#63b8ff" stroke="#63b8ff" points="174.46,-156.65 167.93,-164.99 178.24,-162.54 174.46,-156.65"/>
</g>
<!-- Node4&#45;&gt;Node3 -->
<g id="edge4" class="edge">
<title>Node4&#45;&gt;Node3</title>
<path fill="none" stroke="#63b8ff" d="M210.01,-82.8C189.09,-71.18 164.48,-57.52 144.86,-46.63"/>
<polygon fill="#63b8ff" stroke="#63b8ff" points="208.59,-86.01 219.03,-87.81 211.98,-79.89 208.59,-86.01"/>
</g>
<!-- Node5 -->
<g id="node5" class="node">
<title>Node5</title>
<g id="a_node5"><a xlink:href="gstreamer__egl_8cc.html" target="_top" xlink:title=" ">
<polygon fill="white" stroke="#666666" points="317.5,-52 191.5,-52 191.5,0 317.5,0 317.5,-52"/>
<text text-anchor="start" x="199.5" y="-40" font-family="Helvetica,sans-Serif" font-size="10.00">/mnt/raid10/stargate</text>
<text text-anchor="start" x="199.5" y="-29" font-family="Helvetica,sans-Serif" font-size="10.00">/ivi&#45;homescreen/shell</text>
<text text-anchor="start" x="199.5" y="-18" font-family="Helvetica,sans-Serif" font-size="10.00">/static_plugins/gstreamer</text>
<text text-anchor="middle" x="254.5" y="-7" font-family="Helvetica,sans-Serif" font-size="10.00">_egl/gstreamer_egl.cc</text>
</a>
</g>
</g>
<!-- Node4&#45;&gt;Node5 -->
<g id="edge5" class="edge">
<title>Node4&#45;&gt;Node5</title>
<path fill="none" stroke="#63b8ff" d="M254.5,-77.49C254.5,-69.15 254.5,-60.19 254.5,-52.16"/>
<polygon fill="#63b8ff" stroke="#63b8ff" points="251,-77.6 254.5,-87.6 258,-77.6 251,-77.6"/>
</g>
<!-- Node6 -->
<g id="node6" class="node">
<title>Node6</title>
<g id="a_node6"><a xlink:href="texture__navi__render__egl_8cc.html" target="_top" xlink:title=" ">
<polygon fill="white" stroke="#666666" points="491,-52 336,-52 336,0 491,0 491,-52"/>
<text text-anchor="start" x="344" y="-40" font-family="Helvetica,sans-Serif" font-size="10.00">/mnt/raid10/stargate</text>
<text text-anchor="start" x="344" y="-29" font-family="Helvetica,sans-Serif" font-size="10.00">/ivi&#45;homescreen/shell</text>
<text text-anchor="start" x="344" y="-18" font-family="Helvetica,sans-Serif" font-size="10.00">/textures/navi_render</text>
<text text-anchor="middle" x="413.5" y="-7" font-family="Helvetica,sans-Serif" font-size="10.00">_egl/texture_navi_render_egl.cc</text>
</a>
</g>
</g>
<!-- Node4&#45;&gt;Node6 -->
<g id="edge6" class="edge">
<title>Node4&#45;&gt;Node6</title>
<path fill="none" stroke="#63b8ff" d="M302.38,-83.26C321.81,-73.42 344.26,-62.06 363.87,-52.13"/>
<polygon fill="#63b8ff" stroke="#63b8ff" points="300.74,-80.17 293.4,-87.81 303.9,-86.41 300.74,-80.17"/>
</g>
<!-- Node7 -->
<g id="node7" class="node">
<title>Node7</title>
<g id="a_node7"><a xlink:href="texture__test__egl_8cc.html" target="_top" xlink:title=" ">
<polygon fill="white" stroke="#666666" points="634,-52 509,-52 509,0 634,0 634,-52"/>
<text text-anchor="start" x="517" y="-40" font-family="Helvetica,sans-Serif" font-size="10.00">/mnt/raid10/stargate</text>
<text text-anchor="start" x="517" y="-29" font-family="Helvetica,sans-Serif" font-size="10.00">/ivi&#45;homescreen/shell</text>
<text text-anchor="start" x="517" y="-18" font-family="Helvetica,sans-Serif" font-size="10.00">/textures/test_egl/texture</text>
<text text-anchor="middle" x="571.5" y="-7" font-family="Helvetica,sans-Serif" font-size="10.00">_test_egl.cc</text>
</a>
</g>
</g>
<!-- Node4&#45;&gt;Node7 -->
<g id="edge7" class="edge">
<title>Node4&#45;&gt;Node7</title>
<path fill="none" stroke="#63b8ff" d="M325.61,-93.75C375.04,-83.63 442.24,-68.77 500.5,-52 503.26,-51.2 506.08,-50.36 508.91,-49.48"/>
<polygon fill="#63b8ff" stroke="#63b8ff" points="324.76,-90.35 315.66,-95.77 326.16,-97.21 324.76,-90.35"/>
</g>
</g>
</svg>
