<?xml version="1.0" encoding="UTF-8" standalone="no"?>
<!DOCTYPE svg PUBLIC "-//W3C//DTD SVG 1.1//EN"
 "http://www.w3.org/Graphics/SVG/1.1/DTD/svg11.dtd">
<!-- Generated by graphviz version 2.43.0 (0)
 -->
<!-- Title: /home/joel.winarske@toyotaconnected.com/development/stargate/ivi&#45;homescreen/shell/backend/egl.cc Pages: 1 -->
<svg width="680pt" height="251pt"
 viewBox="0.00 0.00 679.50 251.00" xmlns="http://www.w3.org/2000/svg" xmlns:xlink="http://www.w3.org/1999/xlink">
<g id="graph0" class="graph" transform="scale(1 1) rotate(0) translate(4 247)">
<title>/home/joel.winarske@toyotaconnected.com/development/stargate/ivi&#45;homescreen/shell/backend/egl.cc</title>
<polygon fill="white" stroke="transparent" points="-4,4 -4,-247 675.5,-247 675.5,4 -4,4"/>
<!-- Node1 -->
<g id="node1" class="node">
<title>Node1</title>
<g id="a_node1"><a xlink:title=" ">
<polygon fill="#bfbfbf" stroke="black" points="371,-179.5 371,-242.5 503,-242.5 503,-179.5 371,-179.5"/>
<text text-anchor="start" x="379" y="-230.5" font-family="Helvetica,sans-Serif" font-size="10.00">/home/joel.winarske</text>
<text text-anchor="start" x="379" y="-219.5" font-family="Helvetica,sans-Serif" font-size="10.00">@toyotaconnected.com</text>
<text text-anchor="start" x="379" y="-208.5" font-family="Helvetica,sans-Serif" font-size="10.00">/development/stargate</text>
<text text-anchor="start" x="379" y="-197.5" font-family="Helvetica,sans-Serif" font-size="10.00">/ivi&#45;homescreen/shell</text>
<text text-anchor="middle" x="437" y="-186.5" font-family="Helvetica,sans-Serif" font-size="10.00">/backend/egl.cc</text>
</a>
</g>
</g>
<!-- Node2 -->
<g id="node2" class="node">
<title>Node2</title>
<g id="a_node2"><a xlink:href="egl_8h.html" target="_top" xlink:title=" ">
<polygon fill="white" stroke="black" points="160.5,-123.5 160.5,-142.5 201.5,-142.5 201.5,-123.5 160.5,-123.5"/>
<text text-anchor="middle" x="181" y="-130.5" font-family="Helvetica,sans-Serif" font-size="10.00">egl.h</text>
</a>
</g>
</g>
<!-- Node1&#45;&gt;Node2 -->
<g id="edge1" class="edge">
<title>Node1&#45;&gt;Node2</title>
<path fill="none" stroke="midnightblue" d="M370.74,-190.33C319.33,-175.07 250.46,-154.62 211.4,-143.03"/>
<polygon fill="midnightblue" stroke="midnightblue" points="212.26,-139.63 201.68,-140.14 210.27,-146.34 212.26,-139.63"/>
</g>
<!-- Node10 -->
<g id="node10" class="node">
<title>Node10</title>
<g id="a_node10"><a xlink:title=" ">
<polygon fill="white" stroke="#bfbfbf" points="378,-123.5 378,-142.5 428,-142.5 428,-123.5 378,-123.5"/>
<text text-anchor="middle" x="403" y="-130.5" font-family="Helvetica,sans-Serif" font-size="10.00">dlfcn.h</text>
</a>
</g>
</g>
<!-- Node1&#45;&gt;Node10 -->
<g id="edge10" class="edge">
<title>Node1&#45;&gt;Node10</title>
<path fill="none" stroke="midnightblue" d="M423.17,-179.09C419.03,-169.84 414.64,-160.01 411.01,-151.9"/>
<polygon fill="midnightblue" stroke="midnightblue" points="414.18,-150.42 406.9,-142.72 407.79,-153.28 414.18,-150.42"/>
</g>
<!-- Node11 -->
<g id="node11" class="node">
<title>Node11</title>
<g id="a_node11"><a xlink:title=" ">
<polygon fill="white" stroke="#bfbfbf" points="446,-123.5 446,-142.5 498,-142.5 498,-123.5 446,-123.5"/>
<text text-anchor="middle" x="472" y="-130.5" font-family="Helvetica,sans-Serif" font-size="10.00">cassert</text>
</a>
</g>
</g>
<!-- Node1&#45;&gt;Node11 -->
<g id="edge11" class="edge">
<title>Node1&#45;&gt;Node11</title>
<path fill="none" stroke="midnightblue" d="M451.24,-179.09C455.49,-169.84 460.02,-160.01 463.76,-151.9"/>
<polygon fill="midnightblue" stroke="midnightblue" points="466.98,-153.27 467.99,-142.72 460.62,-150.34 466.98,-153.27"/>
</g>
<!-- Node12 -->
<g id="node12" class="node">
<title>Node12</title>
<g id="a_node12"><a xlink:title=" ">
<polygon fill="white" stroke="#bfbfbf" points="516,-123.5 516,-142.5 566,-142.5 566,-123.5 516,-123.5"/>
<text text-anchor="middle" x="541" y="-130.5" font-family="Helvetica,sans-Serif" font-size="10.00">cstring</text>
</a>
</g>
</g>
<!-- Node1&#45;&gt;Node12 -->
<g id="edge12" class="edge">
<title>Node1&#45;&gt;Node12</title>
<path fill="none" stroke="midnightblue" d="M479,-179.31C493.38,-168.8 508.81,-157.52 520.68,-148.85"/>
<polygon fill="midnightblue" stroke="midnightblue" points="522.98,-151.5 528.99,-142.77 518.85,-145.85 522.98,-151.5"/>
</g>
<!-- Node13 -->
<g id="node13" class="node">
<title>Node13</title>
<g id="a_node13"><a xlink:href="gl__process__resolver_8h.html" target="_top" xlink:title=" ">
<polygon fill="white" stroke="black" points="238,-123.5 238,-142.5 360,-142.5 360,-123.5 238,-123.5"/>
<text text-anchor="middle" x="299" y="-130.5" font-family="Helvetica,sans-Serif" font-size="10.00">gl_process_resolver.h</text>
</a>
</g>
</g>
<!-- Node1&#45;&gt;Node13 -->
<g id="edge13" class="edge">
<title>Node1&#45;&gt;Node13</title>
<path fill="none" stroke="midnightblue" d="M381.27,-179.31C361.32,-168.32 339.84,-156.49 323.83,-147.67"/>
<polygon fill="midnightblue" stroke="midnightblue" points="325.08,-144.36 314.63,-142.61 321.7,-150.5 325.08,-144.36"/>
</g>
<!-- Node15 -->
<g id="node15" class="node">
<title>Node15</title>
<g id="a_node15"><a xlink:href="logging_8h.html" target="_top" xlink:title=" ">
<polygon fill="white" stroke="black" points="584,-123.5 584,-142.5 646,-142.5 646,-123.5 584,-123.5"/>
<text text-anchor="middle" x="615" y="-130.5" font-family="Helvetica,sans-Serif" font-size="10.00">logging.h</text>
</a>
</g>
</g>
<!-- Node1&#45;&gt;Node15 -->
<g id="edge17" class="edge">
<title>Node1&#45;&gt;Node15</title>
<path fill="none" stroke="midnightblue" d="M503.03,-181.81C531.47,-169.66 563.27,-156.09 585.69,-146.51"/>
<polygon fill="midnightblue" stroke="midnightblue" points="587.17,-149.69 594.99,-142.54 584.42,-143.25 587.17,-149.69"/>
</g>
<!-- Node3 -->
<g id="node3" class="node">
<title>Node3</title>
<g id="a_node3"><a xlink:title=" ">
<polygon fill="white" stroke="#bfbfbf" points="0,-67.5 0,-86.5 50,-86.5 50,-67.5 0,-67.5"/>
<text text-anchor="middle" x="25" y="-74.5" font-family="Helvetica,sans-Serif" font-size="10.00">cstdint</text>
</a>
</g>
</g>
<!-- Node2&#45;&gt;Node3 -->
<g id="edge2" class="edge">
<title>Node2&#45;&gt;Node3</title>
<path fill="none" stroke="midnightblue" d="M160.28,-124.83C134.48,-115.9 90.04,-100.52 59.17,-89.83"/>
<polygon fill="midnightblue" stroke="midnightblue" points="60.26,-86.5 49.66,-86.54 57.97,-93.12 60.26,-86.5"/>
</g>
<!-- Node4 -->
<g id="node4" class="node">
<title>Node4</title>
<g id="a_node4"><a xlink:title=" ">
<polygon fill="white" stroke="#bfbfbf" points="293.5,-67.5 293.5,-86.5 340.5,-86.5 340.5,-67.5 293.5,-67.5"/>
<text text-anchor="middle" x="317" y="-74.5" font-family="Helvetica,sans-Serif" font-size="10.00">vector</text>
</a>
</g>
</g>
<!-- Node2&#45;&gt;Node4 -->
<g id="edge3" class="edge">
<title>Node2&#45;&gt;Node4</title>
<path fill="none" stroke="midnightblue" d="M201.66,-123.8C224.06,-114.9 260.07,-100.6 285.9,-90.35"/>
<polygon fill="midnightblue" stroke="midnightblue" points="287.25,-93.58 295.25,-86.64 284.66,-87.07 287.25,-93.58"/>
</g>
<!-- Node5 -->
<g id="node5" class="node">
<title>Node5</title>
<g id="a_node5"><a xlink:title=" ">
<polygon fill="white" stroke="#bfbfbf" points="92,-6 92,-25 154,-25 154,-6 92,-6"/>
<text text-anchor="middle" x="123" y="-13" font-family="Helvetica,sans-Serif" font-size="10.00">EGL/egl.h</text>
</a>
</g>
</g>
<!-- Node2&#45;&gt;Node5 -->
<g id="edge4" class="edge">
<title>Node2&#45;&gt;Node5</title>
<path fill="none" stroke="midnightblue" d="M160.16,-127.34C140.01,-121.61 110.6,-109.71 97,-87 86.79,-69.95 97.94,-48.22 108.65,-33.42"/>
<polygon fill="midnightblue" stroke="midnightblue" points="111.67,-35.24 115.06,-25.21 106.15,-30.93 111.67,-35.24"/>
</g>
<!-- Node6 -->
<g id="node6" class="node">
<title>Node6</title>
<g id="a_node6"><a xlink:title=" ">
<polygon fill="white" stroke="#bfbfbf" points="106,-67.5 106,-86.5 184,-86.5 184,-67.5 106,-67.5"/>
<text text-anchor="middle" x="145" y="-74.5" font-family="Helvetica,sans-Serif" font-size="10.00">EGL/eglext.h</text>
</a>
</g>
</g>
<!-- Node2&#45;&gt;Node6 -->
<g id="edge5" class="edge">
<title>Node2&#45;&gt;Node6</title>
<path fill="none" stroke="midnightblue" d="M175.06,-123.08C170.02,-115.53 162.66,-104.49 156.49,-95.23"/>
<polygon fill="midnightblue" stroke="midnightblue" points="159.29,-93.13 150.83,-86.75 153.47,-97.01 159.29,-93.13"/>
</g>
<!-- Node7 -->
<g id="node7" class="node">
<title>Node7</title>
<g id="a_node7"><a xlink:href="constants_8h.html" target="_top" xlink:title=" ">
<polygon fill="white" stroke="black" points="202.5,-67.5 202.5,-86.5 275.5,-86.5 275.5,-67.5 202.5,-67.5"/>
<text text-anchor="middle" x="239" y="-74.5" font-family="Helvetica,sans-Serif" font-size="10.00">constants.h</text>
</a>
</g>
</g>
<!-- Node2&#45;&gt;Node7 -->
<g id="edge6" class="edge">
<title>Node2&#45;&gt;Node7</title>
<path fill="none" stroke="midnightblue" d="M190.32,-123.32C198.89,-115.34 211.81,-103.31 222.19,-93.65"/>
<polygon fill="midnightblue" stroke="midnightblue" points="224.58,-96.21 229.51,-86.83 219.81,-91.09 224.58,-96.21"/>
</g>
<!-- Node7&#45;&gt;Node5 -->
<g id="edge7" class="edge">
<title>Node7&#45;&gt;Node5</title>
<path fill="none" stroke="midnightblue" d="M222.38,-67.48C203.08,-57.58 171.04,-41.14 148.57,-29.62"/>
<polygon fill="midnightblue" stroke="midnightblue" points="150.08,-26.46 139.59,-25.01 146.89,-32.69 150.08,-26.46"/>
</g>
<!-- Node8 -->
<g id="node8" class="node">
<title>Node8</title>
<g id="a_node8"><a xlink:title=" ">
<polygon fill="white" stroke="#bfbfbf" points="255.5,-0.5 255.5,-30.5 392.5,-30.5 392.5,-0.5 255.5,-0.5"/>
<text text-anchor="start" x="263.5" y="-18.5" font-family="Helvetica,sans-Serif" font-size="10.00">shell/platform/embedder</text>
<text text-anchor="middle" x="324" y="-7.5" font-family="Helvetica,sans-Serif" font-size="10.00">/embedder.h</text>
</a>
</g>
</g>
<!-- Node7&#45;&gt;Node8 -->
<g id="edge8" class="edge">
<title>Node7&#45;&gt;Node8</title>
<path fill="none" stroke="midnightblue" d="M251.18,-67.48C262.69,-59.42 280.4,-47.02 295.47,-36.47"/>
<polygon fill="midnightblue" stroke="midnightblue" points="297.78,-39.12 303.97,-30.52 293.77,-33.39 297.78,-39.12"/>
</g>
<!-- Node9 -->
<g id="node9" class="node">
<title>Node9</title>
<g id="a_node9"><a xlink:title=" ">
<polygon fill="white" stroke="#bfbfbf" points="195,-6 195,-25 237,-25 237,-6 195,-6"/>
<text text-anchor="middle" x="216" y="-13" font-family="Helvetica,sans-Serif" font-size="10.00">array</text>
</a>
</g>
</g>
<!-- Node7&#45;&gt;Node9 -->
<g id="edge9" class="edge">
<title>Node7&#45;&gt;Node9</title>
<path fill="none" stroke="midnightblue" d="M235.7,-67.48C232.39,-58.9 227.18,-45.43 222.95,-34.48"/>
<polygon fill="midnightblue" stroke="midnightblue" points="226.16,-33.07 219.29,-25.01 219.63,-35.6 226.16,-33.07"/>
</g>
<!-- Node13&#45;&gt;Node4 -->
<g id="edge15" class="edge">
<title>Node13&#45;&gt;Node4</title>
<path fill="none" stroke="midnightblue" d="M301.97,-123.08C304.38,-115.85 307.86,-105.41 310.87,-96.4"/>
<polygon fill="midnightblue" stroke="midnightblue" points="314.24,-97.34 314.08,-86.75 307.6,-95.13 314.24,-97.34"/>
</g>
<!-- Node13&#45;&gt;Node7 -->
<g id="edge16" class="edge">
<title>Node13&#45;&gt;Node7</title>
<path fill="none" stroke="midnightblue" d="M289.36,-123.32C280.49,-115.34 267.13,-103.31 256.39,-93.65"/>
<polygon fill="midnightblue" stroke="midnightblue" points="258.59,-90.92 248.82,-86.83 253.91,-96.13 258.59,-90.92"/>
</g>
<!-- Node14 -->
<g id="node14" class="node">
<title>Node14</title>
<g id="a_node14"><a xlink:title=" ">
<polygon fill="white" stroke="#bfbfbf" points="359,-67.5 359,-86.5 417,-86.5 417,-67.5 359,-67.5"/>
<text text-anchor="middle" x="388" y="-74.5" font-family="Helvetica,sans-Serif" font-size="10.00">memory</text>
</a>
</g>
</g>
<!-- Node13&#45;&gt;Node14 -->
<g id="edge14" class="edge">
<title>Node13&#45;&gt;Node14</title>
<path fill="none" stroke="midnightblue" d="M313.3,-123.32C327.18,-114.9 348.49,-101.97 364.8,-92.07"/>
<polygon fill="midnightblue" stroke="midnightblue" points="367,-94.83 373.74,-86.65 363.37,-88.85 367,-94.83"/>
</g>
<!-- Node16 -->
<g id="node16" class="node">
<title>Node16</title>
<g id="a_node16"><a xlink:title=" ">
<polygon fill="white" stroke="#bfbfbf" points="558.5,-67.5 558.5,-86.5 671.5,-86.5 671.5,-67.5 558.5,-67.5"/>
<text text-anchor="middle" x="615" y="-74.5" font-family="Helvetica,sans-Serif" font-size="10.00">flutter/fml/logging.h</text>
</a>
</g>
</g>
<!-- Node15&#45;&gt;Node16 -->
<g id="edge18" class="edge">
<title>Node15&#45;&gt;Node16</title>
<path fill="none" stroke="midnightblue" d="M615,-123.08C615,-116.01 615,-105.86 615,-96.99"/>
<polygon fill="midnightblue" stroke="midnightblue" points="618.5,-96.75 615,-86.75 611.5,-96.75 618.5,-96.75"/>
</g>
</g>
</svg>
