<?xml version="1.0" encoding="UTF-8" standalone="no"?>
<!DOCTYPE svg PUBLIC "-//W3C//DTD SVG 1.1//EN"
 "http://www.w3.org/Graphics/SVG/1.1/DTD/svg11.dtd">
<!-- Generated by graphviz version 2.43.0 (0)
 -->
<!-- Title: /home/joel.winarske@toyotaconnected.com/development/workspace&#45;automation&#45;configs/app/ivi&#45;homescreen/shell/backend/egl.h Pages: 1 -->
<svg width="431pt" height="195pt"
 viewBox="0.00 0.00 431.00 195.00" xmlns="http://www.w3.org/2000/svg" xmlns:xlink="http://www.w3.org/1999/xlink">
<g id="graph0" class="graph" transform="scale(1 1) rotate(0) translate(4 191)">
<title>/home/joel.winarske@toyotaconnected.com/development/workspace&#45;automation&#45;configs/app/ivi&#45;homescreen/shell/backend/egl.h</title>
<polygon fill="white" stroke="transparent" points="-4,4 -4,-191 427,-191 427,4 -4,4"/>
<!-- Node1 -->
<g id="node1" class="node">
<title>Node1</title>
<g id="a_node1"><a xlink:title=" ">
<polygon fill="#bfbfbf" stroke="black" points="48,-123.5 48,-186.5 240,-186.5 240,-123.5 48,-123.5"/>
<text text-anchor="start" x="56" y="-174.5" font-family="Helvetica,sans-Serif" font-size="10.00">/home/joel.winarske</text>
<text text-anchor="start" x="56" y="-163.5" font-family="Helvetica,sans-Serif" font-size="10.00">@toyotaconnected.com</text>
<text text-anchor="start" x="56" y="-152.5" font-family="Helvetica,sans-Serif" font-size="10.00">/development/workspace</text>
<text text-anchor="start" x="56" y="-141.5" font-family="Helvetica,sans-Serif" font-size="10.00">&#45;automation&#45;configs/app</text>
<text text-anchor="middle" x="144" y="-130.5" font-family="Helvetica,sans-Serif" font-size="10.00">/ivi&#45;homescreen/shell/backend/egl.h</text>
</a>
</g>
</g>
<!-- Node2 -->
<g id="node2" class="node">
<title>Node2</title>
<g id="a_node2"><a xlink:title=" ">
<polygon fill="white" stroke="#bfbfbf" points="0,-67.5 0,-86.5 50,-86.5 50,-67.5 0,-67.5"/>
<text text-anchor="middle" x="25" y="-74.5" font-family="Helvetica,sans-Serif" font-size="10.00">cstdint</text>
</a>
</g>
</g>
<!-- Node1&#45;&gt;Node2 -->
<g id="edge1" class="edge">
<title>Node1&#45;&gt;Node2</title>
<path fill="none" stroke="midnightblue" d="M95.94,-123.31C79.06,-112.53 60.91,-100.94 47.19,-92.17"/>
<polygon fill="midnightblue" stroke="midnightblue" points="48.79,-89.04 38.48,-86.61 45.02,-94.94 48.79,-89.04"/>
</g>
<!-- Node3 -->
<g id="node3" class="node">
<title>Node3</title>
<g id="a_node3"><a xlink:title=" ">
<polygon fill="white" stroke="#bfbfbf" points="68.5,-67.5 68.5,-86.5 115.5,-86.5 115.5,-67.5 68.5,-67.5"/>
<text text-anchor="middle" x="92" y="-74.5" font-family="Helvetica,sans-Serif" font-size="10.00">vector</text>
</a>
</g>
</g>
<!-- Node1&#45;&gt;Node3 -->
<g id="edge2" class="edge">
<title>Node1&#45;&gt;Node3</title>
<path fill="none" stroke="midnightblue" d="M122.85,-123.09C116.31,-113.53 109.35,-103.36 103.7,-95.1"/>
<polygon fill="midnightblue" stroke="midnightblue" points="106.5,-92.99 97.97,-86.72 100.72,-96.95 106.5,-92.99"/>
</g>
<!-- Node4 -->
<g id="node4" class="node">
<title>Node4</title>
<g id="a_node4"><a xlink:title=" ">
<polygon fill="white" stroke="#bfbfbf" points="134,-6 134,-25 196,-25 196,-6 134,-6"/>
<text text-anchor="middle" x="165" y="-13" font-family="Helvetica,sans-Serif" font-size="10.00">EGL/egl.h</text>
</a>
</g>
</g>
<!-- Node1&#45;&gt;Node4 -->
<g id="edge3" class="edge">
<title>Node1&#45;&gt;Node4</title>
<path fill="none" stroke="midnightblue" d="M148.66,-123.48C152.8,-96.41 158.7,-57.74 162.16,-35.06"/>
<polygon fill="midnightblue" stroke="midnightblue" points="165.64,-35.49 163.69,-25.08 158.72,-34.43 165.64,-35.49"/>
</g>
<!-- Node5 -->
<g id="node5" class="node">
<title>Node5</title>
<g id="a_node5"><a xlink:title=" ">
<polygon fill="white" stroke="#bfbfbf" points="172,-67.5 172,-86.5 250,-86.5 250,-67.5 172,-67.5"/>
<text text-anchor="middle" x="211" y="-74.5" font-family="Helvetica,sans-Serif" font-size="10.00">EGL/eglext.h</text>
</a>
</g>
</g>
<!-- Node1&#45;&gt;Node5 -->
<g id="edge4" class="edge">
<title>Node1&#45;&gt;Node5</title>
<path fill="none" stroke="midnightblue" d="M171.25,-123.09C179.95,-113.22 189.22,-102.7 196.63,-94.3"/>
<polygon fill="midnightblue" stroke="midnightblue" points="199.33,-96.53 203.31,-86.72 194.08,-91.9 199.33,-96.53"/>
</g>
<!-- Node6 -->
<g id="node6" class="node">
<title>Node6</title>
<g id="a_node6"><a xlink:href="constants_8h.html" target="_top" xlink:title=" ">
<polygon fill="white" stroke="black" points="268.5,-67.5 268.5,-86.5 341.5,-86.5 341.5,-67.5 268.5,-67.5"/>
<text text-anchor="middle" x="305" y="-74.5" font-family="Helvetica,sans-Serif" font-size="10.00">constants.h</text>
</a>
</g>
</g>
<!-- Node1&#45;&gt;Node6 -->
<g id="edge5" class="edge">
<title>Node1&#45;&gt;Node6</title>
<path fill="none" stroke="midnightblue" d="M209.02,-123.31C232.95,-112.01 258.78,-99.82 277.61,-90.93"/>
<polygon fill="midnightblue" stroke="midnightblue" points="279.22,-94.04 286.77,-86.61 276.23,-87.71 279.22,-94.04"/>
</g>
<!-- Node6&#45;&gt;Node4 -->
<g id="edge6" class="edge">
<title>Node6&#45;&gt;Node4</title>
<path fill="none" stroke="midnightblue" d="M284.94,-67.48C261.24,-57.4 221.59,-40.55 194.42,-29"/>
<polygon fill="midnightblue" stroke="midnightblue" points="195.59,-25.7 185.02,-25.01 192.86,-32.14 195.59,-25.7"/>
</g>
<!-- Node7 -->
<g id="node7" class="node">
<title>Node7</title>
<g id="a_node7"><a xlink:title=" ">
<polygon fill="white" stroke="#bfbfbf" points="225.5,-0.5 225.5,-30.5 362.5,-30.5 362.5,-0.5 225.5,-0.5"/>
<text text-anchor="start" x="233.5" y="-18.5" font-family="Helvetica,sans-Serif" font-size="10.00">shell/platform/embedder</text>
<text text-anchor="middle" x="294" y="-7.5" font-family="Helvetica,sans-Serif" font-size="10.00">/embedder.h</text>
</a>
</g>
</g>
<!-- Node6&#45;&gt;Node7 -->
<g id="edge7" class="edge">
<title>Node6&#45;&gt;Node7</title>
<path fill="none" stroke="midnightblue" d="M303.42,-67.48C302.12,-60.4 300.19,-49.97 298.42,-40.39"/>
<polygon fill="midnightblue" stroke="midnightblue" points="301.85,-39.72 296.59,-30.52 294.97,-40.99 301.85,-39.72"/>
</g>
<!-- Node8 -->
<g id="node8" class="node">
<title>Node8</title>
<g id="a_node8"><a xlink:title=" ">
<polygon fill="white" stroke="#bfbfbf" points="381,-6 381,-25 423,-25 423,-6 381,-6"/>
<text text-anchor="middle" x="402" y="-13" font-family="Helvetica,sans-Serif" font-size="10.00">array</text>
</a>
</g>
</g>
<!-- Node6&#45;&gt;Node8 -->
<g id="edge8" class="edge">
<title>Node6&#45;&gt;Node8</title>
<path fill="none" stroke="midnightblue" d="M318.9,-67.48C334.67,-57.8 360.64,-41.87 379.35,-30.39"/>
<polygon fill="midnightblue" stroke="midnightblue" points="381.43,-33.22 388.13,-25.01 377.77,-27.25 381.43,-33.22"/>
</g>
</g>
</svg>
