<?xml version="1.0" encoding="UTF-8" standalone="no"?>
<!DOCTYPE svg PUBLIC "-//W3C//DTD SVG 1.1//EN"
 "http://www.w3.org/Graphics/SVG/1.1/DTD/svg11.dtd">
<!-- Generated by graphviz version 2.43.0 (0)
 -->
<!-- Title: /home/joel.winarske@toyotaconnected.com/development/stargate/ivi&#45;homescreen/shell/backend/egl.h Pages: 1 -->
<svg width="692pt" height="283pt"
 viewBox="0.00 0.00 692.00 283.00" xmlns="http://www.w3.org/2000/svg" xmlns:xlink="http://www.w3.org/1999/xlink">
<g id="graph0" class="graph" transform="scale(1 1) rotate(0) translate(4 279)">
<title>/home/joel.winarske@toyotaconnected.com/development/stargate/ivi&#45;homescreen/shell/backend/egl.h</title>
<polygon fill="white" stroke="transparent" points="-4,4 -4,-279 688,-279 688,4 -4,4"/>
<!-- Node1 -->
<g id="node1" class="node">
<title>Node1</title>
<g id="a_node1"><a xlink:title=" ">
<polygon fill="#bfbfbf" stroke="black" points="94,-211.5 94,-274.5 226,-274.5 226,-211.5 94,-211.5"/>
<text text-anchor="start" x="102" y="-262.5" font-family="Helvetica,sans-Serif" font-size="10.00">/home/joel.winarske</text>
<text text-anchor="start" x="102" y="-251.5" font-family="Helvetica,sans-Serif" font-size="10.00">@toyotaconnected.com</text>
<text text-anchor="start" x="102" y="-240.5" font-family="Helvetica,sans-Serif" font-size="10.00">/development/stargate</text>
<text text-anchor="start" x="102" y="-229.5" font-family="Helvetica,sans-Serif" font-size="10.00">/ivi&#45;homescreen/shell</text>
<text text-anchor="middle" x="160" y="-218.5" font-family="Helvetica,sans-Serif" font-size="10.00">/backend/egl.h</text>
</a>
</g>
</g>
<!-- Node2 -->
<g id="node2" class="node">
<title>Node2</title>
<g id="a_node2"><a xlink:href="egl_8cc.html" target="_top" xlink:title=" ">
<polygon fill="white" stroke="black" points="0,-111.5 0,-174.5 132,-174.5 132,-111.5 0,-111.5"/>
<text text-anchor="start" x="8" y="-162.5" font-family="Helvetica,sans-Serif" font-size="10.00">/home/joel.winarske</text>
<text text-anchor="start" x="8" y="-151.5" font-family="Helvetica,sans-Serif" font-size="10.00">@toyotaconnected.com</text>
<text text-anchor="start" x="8" y="-140.5" font-family="Helvetica,sans-Serif" font-size="10.00">/development/stargate</text>
<text text-anchor="start" x="8" y="-129.5" font-family="Helvetica,sans-Serif" font-size="10.00">/ivi&#45;homescreen/shell</text>
<text text-anchor="middle" x="66" y="-118.5" font-family="Helvetica,sans-Serif" font-size="10.00">/backend/egl.cc</text>
</a>
</g>
</g>
<!-- Node1&#45;&gt;Node2 -->
<g id="edge1" class="edge">
<title>Node1&#45;&gt;Node2</title>
<path fill="none" stroke="midnightblue" d="M123.53,-203.97C114.2,-194.25 104.3,-183.93 95.38,-174.63"/>
<polygon fill="midnightblue" stroke="midnightblue" points="121.07,-206.47 130.52,-211.26 126.12,-201.62 121.07,-206.47"/>
</g>
<!-- Node3 -->
<g id="node3" class="node">
<title>Node3</title>
<g id="a_node3"><a xlink:href="wayland__egl_8cc.html" target="_top" xlink:title=" ">
<polygon fill="white" stroke="black" points="60,-6 60,-69 198,-69 198,-6 60,-6"/>
<text text-anchor="start" x="68" y="-57" font-family="Helvetica,sans-Serif" font-size="10.00">/home/joel.winarske</text>
<text text-anchor="start" x="68" y="-46" font-family="Helvetica,sans-Serif" font-size="10.00">@toyotaconnected.com</text>
<text text-anchor="start" x="68" y="-35" font-family="Helvetica,sans-Serif" font-size="10.00">/development/stargate</text>
<text text-anchor="start" x="68" y="-24" font-family="Helvetica,sans-Serif" font-size="10.00">/ivi&#45;homescreen/shell</text>
<text text-anchor="middle" x="129" y="-13" font-family="Helvetica,sans-Serif" font-size="10.00">/backend/wayland_egl.cc</text>
</a>
</g>
</g>
<!-- Node1&#45;&gt;Node3 -->
<g id="edge2" class="edge">
<title>Node1&#45;&gt;Node3</title>
<path fill="none" stroke="midnightblue" d="M154.28,-201.09C150.61,-175.24 145.68,-141.14 141,-111 138.87,-97.26 136.37,-82.08 134.22,-69.17"/>
<polygon fill="midnightblue" stroke="midnightblue" points="150.85,-201.86 155.72,-211.27 157.79,-200.88 150.85,-201.86"/>
</g>
<!-- Node4 -->
<g id="node4" class="node">
<title>Node4</title>
<g id="a_node4"><a xlink:href="wayland__egl_8h.html" target="_top" xlink:title=" ">
<polygon fill="white" stroke="black" points="219,-111.5 219,-174.5 353,-174.5 353,-111.5 219,-111.5"/>
<text text-anchor="start" x="227" y="-162.5" font-family="Helvetica,sans-Serif" font-size="10.00">/home/joel.winarske</text>
<text text-anchor="start" x="227" y="-151.5" font-family="Helvetica,sans-Serif" font-size="10.00">@toyotaconnected.com</text>
<text text-anchor="start" x="227" y="-140.5" font-family="Helvetica,sans-Serif" font-size="10.00">/development/stargate</text>
<text text-anchor="start" x="227" y="-129.5" font-family="Helvetica,sans-Serif" font-size="10.00">/ivi&#45;homescreen/shell</text>
<text text-anchor="middle" x="286" y="-118.5" font-family="Helvetica,sans-Serif" font-size="10.00">/backend/wayland_egl.h</text>
</a>
</g>
</g>
<!-- Node1&#45;&gt;Node4 -->
<g id="edge3" class="edge">
<title>Node1&#45;&gt;Node4</title>
<path fill="none" stroke="midnightblue" d="M207.42,-205.11C220.35,-195.06 234.2,-184.29 246.62,-174.63"/>
<polygon fill="midnightblue" stroke="midnightblue" points="205.27,-202.36 199.52,-211.26 209.56,-207.88 205.27,-202.36"/>
</g>
<!-- Node4&#45;&gt;Node3 -->
<g id="edge4" class="edge">
<title>Node4&#45;&gt;Node3</title>
<path fill="none" stroke="midnightblue" d="M230.64,-105.5C212.61,-93.62 192.81,-80.56 175.5,-69.15"/>
<polygon fill="midnightblue" stroke="midnightblue" points="229.04,-108.64 239.32,-111.23 232.9,-102.8 229.04,-108.64"/>
</g>
<!-- Node5 -->
<g id="node5" class="node">
<title>Node5</title>
<g id="a_node5"><a xlink:href="gstreamer__egl_8cc.html" target="_top" xlink:title=" ">
<polygon fill="white" stroke="black" points="216,-0.5 216,-74.5 356,-74.5 356,-0.5 216,-0.5"/>
<text text-anchor="start" x="224" y="-62.5" font-family="Helvetica,sans-Serif" font-size="10.00">/home/joel.winarske</text>
<text text-anchor="start" x="224" y="-51.5" font-family="Helvetica,sans-Serif" font-size="10.00">@toyotaconnected.com</text>
<text text-anchor="start" x="224" y="-40.5" font-family="Helvetica,sans-Serif" font-size="10.00">/development/stargate</text>
<text text-anchor="start" x="224" y="-29.5" font-family="Helvetica,sans-Serif" font-size="10.00">/ivi&#45;homescreen/shell</text>
<text text-anchor="start" x="224" y="-18.5" font-family="Helvetica,sans-Serif" font-size="10.00">/static_plugins/gstreamer</text>
<text text-anchor="middle" x="286" y="-7.5" font-family="Helvetica,sans-Serif" font-size="10.00">_egl/gstreamer_egl.cc</text>
</a>
</g>
</g>
<!-- Node4&#45;&gt;Node5 -->
<g id="edge5" class="edge">
<title>Node4&#45;&gt;Node5</title>
<path fill="none" stroke="midnightblue" d="M286,-100.96C286,-92.32 286,-83.26 286,-74.81"/>
<polygon fill="midnightblue" stroke="midnightblue" points="282.5,-101.23 286,-111.23 289.5,-101.23 282.5,-101.23"/>
</g>
<!-- Node6 -->
<g id="node6" class="node">
<title>Node6</title>
<g id="a_node6"><a xlink:href="texture__navi__render__egl_8cc.html" target="_top" xlink:title=" ">
<polygon fill="white" stroke="black" points="374,-0.5 374,-74.5 526,-74.5 526,-0.5 374,-0.5"/>
<text text-anchor="start" x="382" y="-62.5" font-family="Helvetica,sans-Serif" font-size="10.00">/home/joel.winarske</text>
<text text-anchor="start" x="382" y="-51.5" font-family="Helvetica,sans-Serif" font-size="10.00">@toyotaconnected.com</text>
<text text-anchor="start" x="382" y="-40.5" font-family="Helvetica,sans-Serif" font-size="10.00">/development/stargate</text>
<text text-anchor="start" x="382" y="-29.5" font-family="Helvetica,sans-Serif" font-size="10.00">/ivi&#45;homescreen/shell</text>
<text text-anchor="start" x="382" y="-18.5" font-family="Helvetica,sans-Serif" font-size="10.00">/textures/navi_render_egl</text>
<text text-anchor="middle" x="450" y="-7.5" font-family="Helvetica,sans-Serif" font-size="10.00">/texture_navi_render_egl.cc</text>
</a>
</g>
</g>
<!-- Node4&#45;&gt;Node6 -->
<g id="edge6" class="edge">
<title>Node4&#45;&gt;Node6</title>
<path fill="none" stroke="midnightblue" d="M343.48,-105.73C359.46,-95.64 376.8,-84.7 392.76,-74.62"/>
<polygon fill="midnightblue" stroke="midnightblue" points="341.35,-102.93 334.76,-111.23 345.09,-108.85 341.35,-102.93"/>
</g>
<!-- Node7 -->
<g id="node7" class="node">
<title>Node7</title>
<g id="a_node7"><a xlink:href="texture__test__egl_8cc.html" target="_top" xlink:title=" ">
<polygon fill="white" stroke="black" points="544,-0.5 544,-74.5 684,-74.5 684,-0.5 544,-0.5"/>
<text text-anchor="start" x="552" y="-62.5" font-family="Helvetica,sans-Serif" font-size="10.00">/home/joel.winarske</text>
<text text-anchor="start" x="552" y="-51.5" font-family="Helvetica,sans-Serif" font-size="10.00">@toyotaconnected.com</text>
<text text-anchor="start" x="552" y="-40.5" font-family="Helvetica,sans-Serif" font-size="10.00">/development/stargate</text>
<text text-anchor="start" x="552" y="-29.5" font-family="Helvetica,sans-Serif" font-size="10.00">/ivi&#45;homescreen/shell</text>
<text text-anchor="start" x="552" y="-18.5" font-family="Helvetica,sans-Serif" font-size="10.00">/textures/test_egl/texture</text>
<text text-anchor="middle" x="614" y="-7.5" font-family="Helvetica,sans-Serif" font-size="10.00">_test_egl.cc</text>
</a>
</g>
</g>
<!-- Node4&#45;&gt;Node7 -->
<g id="edge7" class="edge">
<title>Node4&#45;&gt;Node7</title>
<path fill="none" stroke="midnightblue" d="M362.74,-124.93C412.51,-112.98 478.38,-95.53 535,-75 537.84,-73.97 540.72,-72.88 543.61,-71.74"/>
<polygon fill="midnightblue" stroke="midnightblue" points="361.93,-121.52 353.01,-127.24 363.55,-128.33 361.93,-121.52"/>
</g>
</g>
</svg>
