<?xml version="1.0" encoding="UTF-8" standalone="no"?>
<!DOCTYPE svg PUBLIC "-//W3C//DTD SVG 1.1//EN"
 "http://www.w3.org/Graphics/SVG/1.1/DTD/svg11.dtd">
<!-- Generated by graphviz version 5.0.0 (0)
 -->
<!-- Title: /mnt/raid10/stargate/ivi&#45;homescreen/shell/engine.h Pages: 1 -->
<svg width="2918pt" height="357pt"
 viewBox="0.00 0.00 2917.50 357.00" xmlns="http://www.w3.org/2000/svg" xmlns:xlink="http://www.w3.org/1999/xlink">
<g id="graph0" class="graph" transform="scale(1 1) rotate(0) translate(4 353)">
<title>/mnt/raid10/stargate/ivi&#45;homescreen/shell/engine.h</title>
<!-- Node1 -->
<g id="node1" class="node">
<title>Node1</title>
<g id="a_node1"><a xlink:title=" ">
<polygon fill="#999999" stroke="#666666" points="937,-349 828,-349 828,-308 937,-308 937,-349"/>
<text text-anchor="start" x="836" y="-337" font-family="Helvetica,sans-Serif" font-size="10.00">/mnt/raid10/stargate</text>
<text text-anchor="start" x="836" y="-326" font-family="Helvetica,sans-Serif" font-size="10.00">/ivi&#45;homescreen/shell</text>
<text text-anchor="middle" x="882.5" y="-315" font-family="Helvetica,sans-Serif" font-size="10.00">/engine.h</text>
</a>
</g>
</g>
<!-- Node2 -->
<g id="node2" class="node">
<title>Node2</title>
<g id="a_node2"><a xlink:title=" ">
<polygon fill="#e0e0e0" stroke="#999999" points="59,-272 0,-272 0,-253 59,-253 59,-272"/>
<text text-anchor="middle" x="29.5" y="-260" font-family="Helvetica,sans-Serif" font-size="10.00">functional</text>
</a>
</g>
</g>
<!-- Node1&#45;&gt;Node2 -->
<g id="edge1" class="edge">
<title>Node1&#45;&gt;Node2</title>
<path fill="none" stroke="#63b8ff" d="M827.82,-326.06C697.01,-322.1 355.84,-308.82 73.5,-272 72.2,-271.83 70.88,-271.65 69.54,-271.45"/>
<polygon fill="#63b8ff" stroke="#63b8ff" points="69.68,-267.92 59.24,-269.76 68.54,-274.83 69.68,-267.92"/>
</g>
<!-- Node3 -->
<g id="node3" class="node">
<title>Node3</title>
<g id="a_node3"><a xlink:title=" ">
<polygon fill="#e0e0e0" stroke="#999999" points="572.5,-24.5 512.5,-24.5 512.5,-5.5 572.5,-5.5 572.5,-24.5"/>
<text text-anchor="middle" x="542.5" y="-12.5" font-family="Helvetica,sans-Serif" font-size="10.00">EGL/egl.h</text>
</a>
</g>
</g>
<!-- Node1&#45;&gt;Node3 -->
<g id="edge2" class="edge">
<title>Node1&#45;&gt;Node3</title>
<path fill="none" stroke="#63b8ff" d="M828,-327.18C660.63,-325.71 162.02,-317.52 106.5,-272 81.9,-251.83 87.5,-234.81 87.5,-203 87.5,-203 87.5,-203 87.5,-135 87.5,-49.67 390.79,-24.35 502.13,-17.93"/>
<polygon fill="#63b8ff" stroke="#63b8ff" points="502.5,-21.42 512.29,-17.37 502.12,-14.43 502.5,-21.42"/>
</g>
<!-- Node4 -->
<g id="node4" class="node">
<title>Node4</title>
<g id="a_node4"><a xlink:title=" ">
<polygon fill="#e0e0e0" stroke="#999999" points="187.5,-272 115.5,-272 115.5,-253 187.5,-253 187.5,-272"/>
<text text-anchor="middle" x="151.5" y="-260" font-family="Helvetica,sans-Serif" font-size="10.00">GLES2/gl2.h</text>
</a>
</g>
</g>
<!-- Node1&#45;&gt;Node4 -->
<g id="edge3" class="edge">
<title>Node1&#45;&gt;Node4</title>
<path fill="none" stroke="#63b8ff" d="M827.6,-325.04C712.57,-319.45 437.73,-303.85 197.75,-272.03"/>
<polygon fill="#63b8ff" stroke="#63b8ff" points="198.17,-268.56 187.8,-270.7 197.24,-275.49 198.17,-268.56"/>
</g>
<!-- Node5 -->
<g id="node5" class="node">
<title>Node5</title>
<g id="a_node5"><a xlink:title=" ">
<polygon fill="#e0e0e0" stroke="#999999" points="331,-272 206,-272 206,-253 331,-253 331,-272"/>
<text text-anchor="middle" x="268.5" y="-260" font-family="Helvetica,sans-Serif" font-size="10.00">flutter/encodable_value.h</text>
</a>
</g>
</g>
<!-- Node1&#45;&gt;Node5 -->
<g id="edge4" class="edge">
<title>Node1&#45;&gt;Node5</title>
<path fill="none" stroke="#63b8ff" d="M827.99,-321.99C730.95,-312.16 521.87,-290.85 345.5,-272 344.04,-271.84 342.56,-271.69 341.07,-271.53"/>
<polygon fill="#63b8ff" stroke="#63b8ff" points="341.43,-268.04 331.11,-270.45 340.68,-275 341.43,-268.04"/>
</g>
<!-- Node6 -->
<g id="node6" class="node">
<title>Node6</title>
<g id="a_node6"><a xlink:title=" ">
<polygon fill="#e0e0e0" stroke="#999999" points="1667,-30 1546,-30 1546,0 1667,0 1667,-30"/>
<text text-anchor="start" x="1554" y="-18" font-family="Helvetica,sans-Serif" font-size="10.00">shell/platform/embedder</text>
<text text-anchor="middle" x="1606.5" y="-7" font-family="Helvetica,sans-Serif" font-size="10.00">/embedder.h</text>
</a>
</g>
</g>
<!-- Node1&#45;&gt;Node6 -->
<g id="edge5" class="edge">
<title>Node1&#45;&gt;Node6</title>
<path fill="none" stroke="#63b8ff" d="M937.24,-327.08C1260.85,-324.23 2909.5,-304.75 2909.5,-203 2909.5,-203 2909.5,-203 2909.5,-135 2909.5,-72.59 1948.96,-29.63 1677.3,-18.72"/>
<polygon fill="#63b8ff" stroke="#63b8ff" points="1677.3,-15.22 1667.17,-18.32 1677.02,-22.21 1677.3,-15.22"/>
</g>
<!-- Node7 -->
<g id="node7" class="node">
<title>Node7</title>
<g id="a_node7"><a xlink:title=" ">
<polygon fill="#e0e0e0" stroke="#999999" points="663.5,-272 601.5,-272 601.5,-253 663.5,-253 663.5,-272"/>
<text text-anchor="middle" x="632.5" y="-260" font-family="Helvetica,sans-Serif" font-size="10.00">filesystem</text>
</a>
</g>
</g>
<!-- Node1&#45;&gt;Node7 -->
<g id="edge6" class="edge">
<title>Node1&#45;&gt;Node7</title>
<path fill="none" stroke="#63b8ff" d="M827.95,-313.53C781.49,-301.64 715.76,-284.82 673.63,-274.03"/>
<polygon fill="#63b8ff" stroke="#63b8ff" points="674.27,-270.58 663.72,-271.49 672.53,-277.36 674.27,-270.58"/>
</g>
<!-- Node8 -->
<g id="node8" class="node">
<title>Node8</title>
<g id="a_node8"><a xlink:title=" ">
<polygon fill="#e0e0e0" stroke="#999999" points="1385,-145.5 1350,-145.5 1350,-126.5 1385,-126.5 1385,-145.5"/>
<text text-anchor="middle" x="1367.5" y="-133.5" font-family="Helvetica,sans-Serif" font-size="10.00">map</text>
</a>
</g>
</g>
<!-- Node1&#45;&gt;Node8 -->
<g id="edge7" class="edge">
<title>Node1&#45;&gt;Node8</title>
<path fill="none" stroke="#63b8ff" d="M937.06,-325C1013.68,-320.31 1156.84,-307.26 1273.5,-272 1327.73,-255.61 1358.29,-264.93 1388.5,-217 1400.66,-197.71 1389.65,-171.56 1379.54,-154.49"/>
<polygon fill="#63b8ff" stroke="#63b8ff" points="1382.2,-152.15 1373.87,-145.61 1376.3,-155.92 1382.2,-152.15"/>
</g>
<!-- Node9 -->
<g id="node9" class="node">
<title>Node9</title>
<g id="a_node9"><a xlink:title=" ">
<polygon fill="#e0e0e0" stroke="#999999" points="918.5,-145.5 866.5,-145.5 866.5,-126.5 918.5,-126.5 918.5,-145.5"/>
<text text-anchor="middle" x="892.5" y="-133.5" font-family="Helvetica,sans-Serif" font-size="10.00">memory</text>
</a>
</g>
</g>
<!-- Node1&#45;&gt;Node9 -->
<g id="edge8" class="edge">
<title>Node1&#45;&gt;Node9</title>
<path fill="none" stroke="#63b8ff" d="M890.12,-307.94C895,-291.96 898.71,-269.42 888.5,-253 869.4,-222.28 834.6,-247.72 815.5,-217 808.46,-205.68 809.14,-198.72 815.5,-187 821.18,-176.54 846.44,-161.27 866.5,-150.36"/>
<polygon fill="#63b8ff" stroke="#63b8ff" points="868.36,-153.33 875.54,-145.54 865.07,-147.15 868.36,-153.33"/>
</g>
<!-- Node10 -->
<g id="node10" class="node">
<title>Node10</title>
<g id="a_node10"><a xlink:title=" ">
<polygon fill="#e0e0e0" stroke="#999999" points="817.5,-272 773.5,-272 773.5,-253 817.5,-253 817.5,-272"/>
<text text-anchor="middle" x="795.5" y="-260" font-family="Helvetica,sans-Serif" font-size="10.00">mutex</text>
</a>
</g>
</g>
<!-- Node1&#45;&gt;Node10 -->
<g id="edge9" class="edge">
<title>Node1&#45;&gt;Node10</title>
<path fill="none" stroke="#63b8ff" d="M855.92,-307.95C843.02,-298.46 827.77,-287.24 815.81,-278.44"/>
<polygon fill="#63b8ff" stroke="#63b8ff" points="817.54,-275.37 807.41,-272.26 813.39,-281.01 817.54,-275.37"/>
</g>
<!-- Node11 -->
<g id="node11" class="node">
<title>Node11</title>
<g id="a_node11"><a xlink:title=" ">
<polygon fill="#e0e0e0" stroke="#999999" points="879,-272 836,-272 836,-253 879,-253 879,-272"/>
<text text-anchor="middle" x="857.5" y="-260" font-family="Helvetica,sans-Serif" font-size="10.00">queue</text>
</a>
</g>
</g>
<!-- Node1&#45;&gt;Node11 -->
<g id="edge10" class="edge">
<title>Node1&#45;&gt;Node11</title>
<path fill="none" stroke="#63b8ff" d="M874.86,-307.95C871.59,-299.58 867.79,-289.85 864.59,-281.64"/>
<polygon fill="#63b8ff" stroke="#63b8ff" points="867.82,-280.3 860.92,-272.26 861.3,-282.85 867.82,-280.3"/>
</g>
<!-- Node12 -->
<g id="node12" class="node">
<title>Node12</title>
<g id="a_node12"><a xlink:title=" ">
<polygon fill="#e0e0e0" stroke="#999999" points="1174,-145.5 1133,-145.5 1133,-126.5 1174,-126.5 1174,-145.5"/>
<text text-anchor="middle" x="1153.5" y="-133.5" font-family="Helvetica,sans-Serif" font-size="10.00">string</text>
</a>
</g>
</g>
<!-- Node1&#45;&gt;Node12 -->
<g id="edge11" class="edge">
<title>Node1&#45;&gt;Node12</title>
<path fill="none" stroke="#63b8ff" d="M827.85,-315.75C804.12,-307.65 778.57,-294.17 764.5,-272 738.25,-230.65 788.4,-205.95 825.5,-187 944.7,-126.11 996.04,-188.61 1124.5,-151 1125.94,-150.58 1127.4,-150.09 1128.86,-149.56"/>
<polygon fill="#63b8ff" stroke="#63b8ff" points="1130.42,-152.7 1138.22,-145.53 1127.65,-146.26 1130.42,-152.7"/>
</g>
<!-- Node13 -->
<g id="node13" class="node">
<title>Node13</title>
<g id="a_node13"><a xlink:title=" ">
<polygon fill="#e0e0e0" stroke="#999999" points="848.5,-145.5 804.5,-145.5 804.5,-126.5 848.5,-126.5 848.5,-145.5"/>
<text text-anchor="middle" x="826.5" y="-133.5" font-family="Helvetica,sans-Serif" font-size="10.00">vector</text>
</a>
</g>
</g>
<!-- Node1&#45;&gt;Node13 -->
<g id="edge12" class="edge">
<title>Node1&#45;&gt;Node13</title>
<path fill="none" stroke="#63b8ff" d="M827.65,-322.75C793.89,-316.66 753.08,-302.92 731.5,-272 700.66,-227.8 766.4,-175.69 803.46,-151.14"/>
<polygon fill="#63b8ff" stroke="#63b8ff" points="805.68,-153.87 812.19,-145.51 801.89,-147.99 805.68,-153.87"/>
</g>
<!-- Node14 -->
<g id="node14" class="node">
<title>Node14</title>
<g id="a_node14"><a xlink:href="backend_8h.html" target="_top" xlink:title=" ">
<polygon fill="white" stroke="#666666" points="1115,-145.5 1014,-145.5 1014,-126.5 1115,-126.5 1115,-145.5"/>
<text text-anchor="middle" x="1064.5" y="-133.5" font-family="Helvetica,sans-Serif" font-size="10.00">backend/backend.h</text>
</a>
</g>
</g>
<!-- Node1&#45;&gt;Node14 -->
<g id="edge13" class="edge">
<title>Node1&#45;&gt;Node14</title>
<path fill="none" stroke="#63b8ff" d="M937.25,-321.21C1001.3,-313.2 1101.98,-297.29 1130.5,-272 1159.46,-246.32 1169.43,-220.18 1149.5,-187 1138.66,-168.95 1118.85,-157.07 1101,-149.43"/>
<polygon fill="#63b8ff" stroke="#63b8ff" points="1101.94,-146.04 1091.36,-145.61 1099.37,-152.55 1101.94,-146.04"/>
</g>
<!-- Node15 -->
<g id="node15" class="node">
<title>Node15</title>
<g id="a_node15"><a xlink:href="constants_8h.html" target="_top" xlink:title=" ">
<polygon fill="white" stroke="#666666" points="1098.5,-85 1030.5,-85 1030.5,-66 1098.5,-66 1098.5,-85"/>
<text text-anchor="middle" x="1064.5" y="-73" font-family="Helvetica,sans-Serif" font-size="10.00">constants.h</text>
</a>
</g>
</g>
<!-- Node1&#45;&gt;Node15 -->
<g id="edge20" class="edge">
<title>Node1&#45;&gt;Node15</title>
<path fill="none" stroke="#63b8ff" d="M827.95,-321.17C646.02,-299.03 76.79,-220.97 172.5,-121 204.26,-87.82 952.74,-88.94 998.5,-85 1005.54,-84.39 1012.99,-83.59 1020.24,-82.72"/>
<polygon fill="#63b8ff" stroke="#63b8ff" points="1020.82,-86.18 1030.3,-81.46 1019.95,-79.23 1020.82,-86.18"/>
</g>
<!-- Node17 -->
<g id="node17" class="node">
<title>Node17</title>
<g id="a_node17"><a xlink:href="logging_8h.html" target="_top" xlink:title=" ">
<polygon fill="white" stroke="#666666" points="1130.5,-272 1074.5,-272 1074.5,-253 1130.5,-253 1130.5,-272"/>
<text text-anchor="middle" x="1102.5" y="-260" font-family="Helvetica,sans-Serif" font-size="10.00">logging.h</text>
</a>
</g>
</g>
<!-- Node1&#45;&gt;Node17 -->
<g id="edge21" class="edge">
<title>Node1&#45;&gt;Node17</title>
<path fill="none" stroke="#63b8ff" d="M937.16,-311.6C976.78,-300.07 1029.33,-284.78 1064.45,-274.57"/>
<polygon fill="#63b8ff" stroke="#63b8ff" points="1065.69,-277.85 1074.32,-271.7 1063.74,-271.13 1065.69,-277.85"/>
</g>
<!-- Node23 -->
<g id="node23" class="node">
<title>Node23</title>
<g id="a_node23"><a xlink:href="platform__channel_8h.html" target="_top" xlink:title=" ">
<polygon fill="white" stroke="#666666" points="1361,-211.5 1262,-211.5 1262,-192.5 1361,-192.5 1361,-211.5"/>
<text text-anchor="middle" x="1311.5" y="-199.5" font-family="Helvetica,sans-Serif" font-size="10.00">platform_channel.h</text>
</a>
</g>
</g>
<!-- Node1&#45;&gt;Node23 -->
<g id="edge28" class="edge">
<title>Node1&#45;&gt;Node23</title>
<path fill="none" stroke="#63b8ff" d="M937.27,-323.61C1025.55,-316.6 1194.75,-299.93 1247.5,-272 1270.19,-259.98 1289.14,-236.72 1300.39,-220.54"/>
<polygon fill="#63b8ff" stroke="#63b8ff" points="1303.47,-222.24 1306.1,-211.98 1297.64,-218.36 1303.47,-222.24"/>
</g>
<!-- Node24 -->
<g id="node24" class="node">
<title>Node24</title>
<g id="a_node24"><a xlink:href="key__event_8h.html" target="_top" xlink:title=" ">
<polygon fill="white" stroke="#666666" points="1557.5,-217 1455.5,-217 1455.5,-187 1557.5,-187 1557.5,-217"/>
<text text-anchor="start" x="1463.5" y="-205" font-family="Helvetica,sans-Serif" font-size="10.00">static_plugins/key</text>
<text text-anchor="middle" x="1506.5" y="-194" font-family="Helvetica,sans-Serif" font-size="10.00">_event/key_event.h</text>
</a>
</g>
</g>
<!-- Node1&#45;&gt;Node24 -->
<g id="edge32" class="edge">
<title>Node1&#45;&gt;Node24</title>
<path fill="none" stroke="#63b8ff" d="M937.1,-326.9C1059.83,-324.78 1353.66,-315.2 1441.5,-272 1462.56,-261.64 1480.32,-241.42 1491.93,-225.53"/>
<polygon fill="#63b8ff" stroke="#63b8ff" points="1494.87,-227.44 1497.73,-217.24 1489.13,-223.43 1494.87,-227.44"/>
</g>
<!-- Node30 -->
<g id="node30" class="node">
<title>Node30</title>
<g id="a_node30"><a xlink:href="text__input_8h.html" target="_top" xlink:title=" ">
<polygon fill="white" stroke="#666666" points="2111,-217 2014,-217 2014,-187 2111,-187 2111,-217"/>
<text text-anchor="start" x="2022" y="-205" font-family="Helvetica,sans-Serif" font-size="10.00">static_plugins/text</text>
<text text-anchor="middle" x="2062.5" y="-194" font-family="Helvetica,sans-Serif" font-size="10.00">_input/text_input.h</text>
</a>
</g>
</g>
<!-- Node1&#45;&gt;Node30 -->
<g id="edge44" class="edge">
<title>Node1&#45;&gt;Node30</title>
<path fill="none" stroke="#63b8ff" d="M937.38,-322.68C1041.04,-313.49 1272.7,-292.53 1467.5,-272 1664.17,-251.27 1896.98,-223.26 2003.71,-210.23"/>
<polygon fill="#63b8ff" stroke="#63b8ff" points="2004.45,-213.67 2013.95,-208.98 2003.6,-206.72 2004.45,-213.67"/>
</g>
<!-- Node35 -->
<g id="node35" class="node">
<title>Node35</title>
<g id="a_node35"><a xlink:href="flutter__view_8h.html" target="_top" xlink:title=" ">
<polygon fill="white" stroke="#666666" points="1033.5,-272 935.5,-272 935.5,-253 1033.5,-253 1033.5,-272"/>
<text text-anchor="middle" x="984.5" y="-260" font-family="Helvetica,sans-Serif" font-size="10.00">view/flutter_view.h</text>
</a>
</g>
</g>
<!-- Node1&#45;&gt;Node35 -->
<g id="edge58" class="edge">
<title>Node1&#45;&gt;Node35</title>
<path fill="none" stroke="#63b8ff" d="M913.66,-307.95C929.32,-298.12 947.95,-286.43 962.17,-277.51"/>
<polygon fill="#63b8ff" stroke="#63b8ff" points="964.2,-280.37 970.81,-272.09 960.48,-274.44 964.2,-280.37"/>
</g>
<!-- Node14&#45;&gt;Node1 -->
<g id="edge19" class="edge">
<title>Node14&#45;&gt;Node1</title>
<path fill="none" stroke="#63b8ff" d="M1106.47,-145.53C1129.02,-152.78 1154.6,-165.53 1167.5,-187 1187.43,-220.18 1177.46,-246.32 1148.5,-272 1119.59,-297.64 1016.51,-313.64 947.4,-321.54"/>
<polygon fill="#63b8ff" stroke="#63b8ff" points="946.6,-318.11 937.05,-322.69 947.37,-325.06 946.6,-318.11"/>
</g>
<!-- Node14&#45;&gt;Node6 -->
<g id="edge14" class="edge">
<title>Node14&#45;&gt;Node6</title>
<path fill="none" stroke="#63b8ff" d="M1090.86,-126.47C1135.2,-112.36 1227.7,-83.94 1307.5,-66 1384.92,-48.59 1474.86,-34.34 1535.72,-25.57"/>
<polygon fill="#63b8ff" stroke="#63b8ff" points="1536.58,-28.99 1545.99,-24.11 1535.59,-22.06 1536.58,-28.99"/>
</g>
<!-- Node14&#45;&gt;Node15 -->
<g id="edge15" class="edge">
<title>Node14&#45;&gt;Node15</title>
<path fill="none" stroke="#63b8ff" d="M1064.5,-126.37C1064.5,-118.25 1064.5,-105.81 1064.5,-95.39"/>
<polygon fill="#63b8ff" stroke="#63b8ff" points="1068,-95.17 1064.5,-85.17 1061,-95.17 1068,-95.17"/>
</g>
<!-- Node15&#45;&gt;Node3 -->
<g id="edge16" class="edge">
<title>Node15&#45;&gt;Node3</title>
<path fill="none" stroke="#63b8ff" d="M1030.26,-69.97C1020.05,-68.65 1008.82,-67.23 998.5,-66 845.05,-47.71 662.25,-28.42 582.74,-20.15"/>
<polygon fill="#63b8ff" stroke="#63b8ff" points="582.98,-16.66 572.67,-19.11 582.25,-23.62 582.98,-16.66"/>
</g>
<!-- Node15&#45;&gt;Node6 -->
<g id="edge17" class="edge">
<title>Node15&#45;&gt;Node6</title>
<path fill="none" stroke="#63b8ff" d="M1098.82,-70.8C1186.09,-61.38 1417.94,-36.35 1535.71,-23.64"/>
<polygon fill="#63b8ff" stroke="#63b8ff" points="1536.15,-27.11 1545.71,-22.56 1535.4,-20.15 1536.15,-27.11"/>
</g>
<!-- Node16 -->
<g id="node16" class="node">
<title>Node16</title>
<g id="a_node16"><a xlink:title=" ">
<polygon fill="#e0e0e0" stroke="#999999" points="1083.5,-24.5 1045.5,-24.5 1045.5,-5.5 1083.5,-5.5 1083.5,-24.5"/>
<text text-anchor="middle" x="1064.5" y="-12.5" font-family="Helvetica,sans-Serif" font-size="10.00">array</text>
</a>
</g>
</g>
<!-- Node15&#45;&gt;Node16 -->
<g id="edge18" class="edge">
<title>Node15&#45;&gt;Node16</title>
<path fill="none" stroke="#63b8ff" d="M1064.5,-65.87C1064.5,-57.75 1064.5,-45.31 1064.5,-34.89"/>
<polygon fill="#63b8ff" stroke="#63b8ff" points="1068,-34.67 1064.5,-24.67 1061,-34.67 1068,-34.67"/>
</g>
<!-- Node18 -->
<g id="node18" class="node">
<title>Node18</title>
<g id="a_node18"><a xlink:title=" ">
<polygon fill="#e0e0e0" stroke="#999999" points="1081.5,-211.5 1029.5,-211.5 1029.5,-192.5 1081.5,-192.5 1081.5,-211.5"/>
<text text-anchor="middle" x="1055.5" y="-199.5" font-family="Helvetica,sans-Serif" font-size="10.00">sstream</text>
</a>
</g>
</g>
<!-- Node17&#45;&gt;Node18 -->
<g id="edge22" class="edge">
<title>Node17&#45;&gt;Node18</title>
<path fill="none" stroke="#63b8ff" d="M1095.56,-252.87C1088.55,-244.14 1077.54,-230.43 1068.83,-219.59"/>
<polygon fill="#63b8ff" stroke="#63b8ff" points="1071.46,-217.27 1062.46,-211.67 1066,-221.66 1071.46,-217.27"/>
</g>
<!-- Node19 -->
<g id="node19" class="node">
<title>Node19</title>
<g id="a_node19"><a xlink:href="dlt_8h.html" target="_top" xlink:title=" ">
<polygon fill="white" stroke="#666666" points="1149,-211.5 1100,-211.5 1100,-192.5 1149,-192.5 1149,-211.5"/>
<text text-anchor="middle" x="1124.5" y="-199.5" font-family="Helvetica,sans-Serif" font-size="10.00">dlt/dlt.h</text>
</a>
</g>
</g>
<!-- Node17&#45;&gt;Node19 -->
<g id="edge23" class="edge">
<title>Node17&#45;&gt;Node19</title>
<path fill="none" stroke="#63b8ff" d="M1105.75,-252.87C1108.87,-244.57 1113.68,-231.78 1117.65,-221.22"/>
<polygon fill="#63b8ff" stroke="#63b8ff" points="1121,-222.26 1121.24,-211.67 1114.44,-219.8 1121,-222.26"/>
</g>
<!-- Node22 -->
<g id="node22" class="node">
<title>Node22</title>
<g id="a_node22"><a xlink:title=" ">
<polygon fill="#e0e0e0" stroke="#999999" points="1293,-145.5 1192,-145.5 1192,-126.5 1293,-126.5 1293,-145.5"/>
<text text-anchor="middle" x="1242.5" y="-133.5" font-family="Helvetica,sans-Serif" font-size="10.00">flutter/fml/macros.h</text>
</a>
</g>
</g>
<!-- Node17&#45;&gt;Node22 -->
<g id="edge27" class="edge">
<title>Node17&#45;&gt;Node22</title>
<path fill="none" stroke="#63b8ff" d="M1113.9,-252.92C1125.38,-244.17 1143.51,-230.04 1158.5,-217 1183.04,-195.64 1210.06,-169.38 1226.66,-152.91"/>
<polygon fill="#63b8ff" stroke="#63b8ff" points="1229.3,-155.21 1233.91,-145.67 1224.36,-150.26 1229.3,-155.21"/>
</g>
<!-- Node20 -->
<g id="node20" class="node">
<title>Node20</title>
<g id="a_node20"><a xlink:href="libdlt_8h.html" target="_top" xlink:title=" ">
<polygon fill="white" stroke="#666666" points="996,-145.5 937,-145.5 937,-126.5 996,-126.5 996,-145.5"/>
<text text-anchor="middle" x="966.5" y="-133.5" font-family="Helvetica,sans-Serif" font-size="10.00">dlt/libdlt.h</text>
</a>
</g>
</g>
<!-- Node19&#45;&gt;Node20 -->
<g id="edge24" class="edge">
<title>Node19&#45;&gt;Node20</title>
<path fill="none" stroke="#63b8ff" d="M1103.65,-192.39C1099.31,-190.6 1094.76,-188.73 1090.5,-187 1058.81,-174.09 1022.49,-159.46 997.39,-149.38"/>
<polygon fill="#63b8ff" stroke="#63b8ff" points="998.61,-146.1 988.02,-145.62 996,-152.6 998.61,-146.1"/>
</g>
<!-- Node19&#45;&gt;Node22 -->
<g id="edge26" class="edge">
<title>Node19&#45;&gt;Node22</title>
<path fill="none" stroke="#63b8ff" d="M1140.41,-192.37C1160.21,-181.63 1194.23,-163.18 1217.51,-150.55"/>
<polygon fill="#63b8ff" stroke="#63b8ff" points="1219.34,-153.54 1226.46,-145.7 1216,-147.39 1219.34,-153.54"/>
</g>
<!-- Node21 -->
<g id="node21" class="node">
<title>Node21</title>
<g id="a_node21"><a xlink:title=" ">
<polygon fill="#e0e0e0" stroke="#999999" points="989.5,-85 943.5,-85 943.5,-66 989.5,-66 989.5,-85"/>
<text text-anchor="middle" x="966.5" y="-73" font-family="Helvetica,sans-Serif" font-size="10.00">cstdint</text>
</a>
</g>
</g>
<!-- Node20&#45;&gt;Node21 -->
<g id="edge25" class="edge">
<title>Node20&#45;&gt;Node21</title>
<path fill="none" stroke="#63b8ff" d="M966.5,-126.37C966.5,-118.25 966.5,-105.81 966.5,-95.39"/>
<polygon fill="#63b8ff" stroke="#63b8ff" points="970,-95.17 966.5,-85.17 963,-95.17 970,-95.17"/>
</g>
<!-- Node23&#45;&gt;Node6 -->
<g id="edge31" class="edge">
<title>Node23&#45;&gt;Node6</title>
<path fill="none" stroke="#63b8ff" d="M1312.45,-192.31C1314.65,-176.16 1321.55,-141.32 1341.5,-121 1393.85,-67.67 1476.65,-40.72 1535.76,-27.59"/>
<polygon fill="#63b8ff" stroke="#63b8ff" points="1536.73,-30.96 1545.77,-25.44 1535.26,-24.11 1536.73,-30.96"/>
</g>
<!-- Node23&#45;&gt;Node8 -->
<g id="edge29" class="edge">
<title>Node23&#45;&gt;Node8</title>
<path fill="none" stroke="#63b8ff" d="M1319.05,-192.37C1327.69,-182.5 1342.03,-166.11 1352.87,-153.72"/>
<polygon fill="#63b8ff" stroke="#63b8ff" points="1355.76,-155.74 1359.71,-145.91 1350.49,-151.13 1355.76,-155.74"/>
</g>
<!-- Node23&#45;&gt;Node12 -->
<g id="edge30" class="edge">
<title>Node23&#45;&gt;Node12</title>
<path fill="none" stroke="#63b8ff" d="M1288.19,-192.41C1262.4,-182.79 1219.69,-166.49 1183.5,-151 1182.64,-150.63 1181.78,-150.26 1180.9,-149.88"/>
<polygon fill="#63b8ff" stroke="#63b8ff" points="1182.05,-146.55 1171.5,-145.63 1179.17,-152.93 1182.05,-146.55"/>
</g>
<!-- Node24&#45;&gt;Node6 -->
<g id="edge41" class="edge">
<title>Node24&#45;&gt;Node6</title>
<path fill="none" stroke="#63b8ff" d="M1557.65,-201.91C1648.7,-202.33 1833.11,-197.26 1873.5,-151 1935.42,-80.07 1775.77,-41.9 1677.3,-25.66"/>
<polygon fill="#63b8ff" stroke="#63b8ff" points="1677.81,-22.2 1667.38,-24.07 1676.69,-29.11 1677.81,-22.2"/>
</g>
<!-- Node24&#45;&gt;Node8 -->
<g id="edge33" class="edge">
<title>Node24&#45;&gt;Node8</title>
<path fill="none" stroke="#63b8ff" d="M1476,-186.95C1451.66,-175.75 1417.9,-160.2 1394.53,-149.44"/>
<polygon fill="#63b8ff" stroke="#63b8ff" points="1395.75,-146.15 1385.2,-145.15 1392.82,-152.51 1395.75,-146.15"/>
</g>
<!-- Node24&#45;&gt;Node9 -->
<g id="edge34" class="edge">
<title>Node24&#45;&gt;Node9</title>
<path fill="none" stroke="#63b8ff" d="M1455.18,-195.46C1429.73,-192.77 1398.51,-189.58 1370.5,-187 1174.24,-168.91 1120.58,-195.18 928.5,-151 926.13,-150.45 923.71,-149.78 921.3,-149.03"/>
<polygon fill="#63b8ff" stroke="#63b8ff" points="922.2,-145.64 911.61,-145.61 919.87,-152.24 922.2,-145.64"/>
</g>
<!-- Node24&#45;&gt;Node12 -->
<g id="edge35" class="edge">
<title>Node24&#45;&gt;Node12</title>
<path fill="none" stroke="#63b8ff" d="M1455.44,-194.88C1377.67,-185.27 1233.31,-166.14 1183.5,-151 1182.06,-150.56 1180.59,-150.07 1179.13,-149.53"/>
<polygon fill="#63b8ff" stroke="#63b8ff" points="1180.25,-146.2 1169.67,-145.57 1177.54,-152.66 1180.25,-146.2"/>
</g>
<!-- Node24&#45;&gt;Node15 -->
<g id="edge43" class="edge">
<title>Node24&#45;&gt;Node15</title>
<path fill="none" stroke="#63b8ff" d="M1484.84,-186.97C1469.93,-177.17 1449.77,-163.63 1432.5,-151 1415.13,-138.3 1414.31,-129.4 1394.5,-121 1343.99,-99.57 1186.95,-85.46 1109.13,-79.59"/>
<polygon fill="#63b8ff" stroke="#63b8ff" points="1108.93,-76.06 1098.69,-78.82 1108.41,-83.04 1108.93,-76.06"/>
</g>
<!-- Node24&#45;&gt;Node22 -->
<g id="edge39" class="edge">
<title>Node24&#45;&gt;Node22</title>
<path fill="none" stroke="#63b8ff" d="M1455.29,-188.58C1406.67,-176.8 1334.3,-159.26 1287.76,-147.97"/>
<polygon fill="#63b8ff" stroke="#63b8ff" points="1288.49,-144.55 1277.95,-145.59 1286.84,-151.35 1288.49,-144.55"/>
</g>
<!-- Node25 -->
<g id="node25" class="node">
<title>Node25</title>
<g id="a_node25"><a xlink:title=" ">
<polygon fill="#e0e0e0" stroke="#999999" points="1683,-151 1570,-151 1570,-121 1683,-121 1683,-151"/>
<text text-anchor="start" x="1578" y="-139" font-family="Helvetica,sans-Serif" font-size="10.00">flutter/basic_message</text>
<text text-anchor="middle" x="1626.5" y="-128" font-family="Helvetica,sans-Serif" font-size="10.00">_channel.h</text>
</a>
</g>
</g>
<!-- Node24&#45;&gt;Node25 -->
<g id="edge36" class="edge">
<title>Node24&#45;&gt;Node25</title>
<path fill="none" stroke="#63b8ff" d="M1532.83,-186.95C1550.03,-177.78 1572.68,-165.71 1591.39,-155.72"/>
<polygon fill="#63b8ff" stroke="#63b8ff" points="1593.05,-158.81 1600.23,-151.01 1589.76,-152.63 1593.05,-158.81"/>
</g>
<!-- Node26 -->
<g id="node26" class="node">
<title>Node26</title>
<g id="a_node26"><a xlink:title=" ">
<polygon fill="#e0e0e0" stroke="#999999" points="2204.5,-145.5 2072.5,-145.5 2072.5,-126.5 2204.5,-126.5 2204.5,-145.5"/>
<text text-anchor="middle" x="2138.5" y="-133.5" font-family="Helvetica,sans-Serif" font-size="10.00">flutter/binary_messenger.h</text>
</a>
</g>
</g>
<!-- Node24&#45;&gt;Node26 -->
<g id="edge37" class="edge">
<title>Node24&#45;&gt;Node26</title>
<path fill="none" stroke="#63b8ff" d="M1557.75,-198.03C1656.13,-191.98 1878.11,-176.56 2063.5,-151 2070.98,-149.97 2078.85,-148.7 2086.56,-147.36"/>
<polygon fill="#63b8ff" stroke="#63b8ff" points="2087.35,-150.77 2096.57,-145.55 2086.11,-143.88 2087.35,-150.77"/>
</g>
<!-- Node27 -->
<g id="node27" class="node">
<title>Node27</title>
<g id="a_node27"><a xlink:title=" ">
<polygon fill="#e0e0e0" stroke="#999999" points="1864,-151 1701,-151 1701,-121 1864,-121 1864,-151"/>
<text text-anchor="start" x="1709" y="-139" font-family="Helvetica,sans-Serif" font-size="10.00">flutter/shell/platform</text>
<text text-anchor="middle" x="1782.5" y="-128" font-family="Helvetica,sans-Serif" font-size="10.00">/common/json_message_codec.h</text>
</a>
</g>
</g>
<!-- Node24&#45;&gt;Node27 -->
<g id="edge38" class="edge">
<title>Node24&#45;&gt;Node27</title>
<path fill="none" stroke="#63b8ff" d="M1557.77,-189.11C1601.14,-179.06 1663.73,-164.54 1711.85,-153.38"/>
<polygon fill="#63b8ff" stroke="#63b8ff" points="1712.93,-156.72 1721.89,-151.06 1711.35,-149.91 1712.93,-156.72"/>
</g>
<!-- Node28 -->
<g id="node28" class="node">
<title>Node28</title>
<g id="a_node28"><a xlink:title=" ">
<polygon fill="#e0e0e0" stroke="#999999" points="1551.5,-145.5 1441.5,-145.5 1441.5,-126.5 1551.5,-126.5 1551.5,-145.5"/>
<text text-anchor="middle" x="1496.5" y="-133.5" font-family="Helvetica,sans-Serif" font-size="10.00">rapidjson/document.h</text>
</a>
</g>
</g>
<!-- Node24&#45;&gt;Node28 -->
<g id="edge40" class="edge">
<title>Node24&#45;&gt;Node28</title>
<path fill="none" stroke="#63b8ff" d="M1504.28,-186.8C1502.86,-177.7 1501,-165.79 1499.45,-155.9"/>
<polygon fill="#63b8ff" stroke="#63b8ff" points="1502.88,-155.18 1497.88,-145.84 1495.97,-156.26 1502.88,-155.18"/>
</g>
<!-- Node29 -->
<g id="node29" class="node">
<title>Node29</title>
<g id="a_node29"><a xlink:title=" ">
<polygon fill="#e0e0e0" stroke="#999999" points="2054.5,-145.5 1920.5,-145.5 1920.5,-126.5 2054.5,-126.5 2054.5,-145.5"/>
<text text-anchor="middle" x="1987.5" y="-133.5" font-family="Helvetica,sans-Serif" font-size="10.00">xkbcommon/xkbcommon.h</text>
</a>
</g>
</g>
<!-- Node24&#45;&gt;Node29 -->
<g id="edge42" class="edge">
<title>Node24&#45;&gt;Node29</title>
<path fill="none" stroke="#63b8ff" d="M1557.75,-195.37C1633.95,-186.83 1781.55,-169.6 1906.5,-151 1914.24,-149.85 1922.38,-148.55 1930.4,-147.21"/>
<polygon fill="#63b8ff" stroke="#63b8ff" points="1931.17,-150.63 1940.45,-145.52 1930,-143.73 1931.17,-150.63"/>
</g>
<!-- Node30&#45;&gt;Node6 -->
<g id="edge55" class="edge">
<title>Node30&#45;&gt;Node6</title>
<path fill="none" stroke="#63b8ff" d="M2111.19,-195.42C2173.35,-186.38 2268.66,-164.93 2231.5,-121 2161.15,-37.84 1825.75,-20.51 1677.38,-16.92"/>
<polygon fill="#63b8ff" stroke="#63b8ff" points="1677.1,-13.41 1667.03,-16.69 1676.94,-20.41 1677.1,-13.41"/>
</g>
<!-- Node30&#45;&gt;Node8 -->
<g id="edge45" class="edge">
<title>Node30&#45;&gt;Node8</title>
<path fill="none" stroke="#63b8ff" d="M2013.64,-199.33C1907.42,-195.23 1647.71,-182.57 1432.5,-151 1420.08,-149.18 1406.49,-146.38 1394.96,-143.76"/>
<polygon fill="#63b8ff" stroke="#63b8ff" points="1395.58,-140.31 1385.04,-141.44 1393.98,-147.13 1395.58,-140.31"/>
</g>
<!-- Node30&#45;&gt;Node9 -->
<g id="edge46" class="edge">
<title>Node30&#45;&gt;Node9</title>
<path fill="none" stroke="#63b8ff" d="M2013.81,-199.79C1810.58,-194.61 1035.59,-173.54 928.5,-151 925.97,-150.47 923.39,-149.78 920.83,-148.99"/>
<polygon fill="#63b8ff" stroke="#63b8ff" points="921.8,-145.62 911.2,-145.6 919.47,-152.23 921.8,-145.62"/>
</g>
<!-- Node30&#45;&gt;Node12 -->
<g id="edge47" class="edge">
<title>Node30&#45;&gt;Node12</title>
<path fill="none" stroke="#63b8ff" d="M2013.71,-199.3C1840.91,-193.15 1264,-171.28 1183.5,-151 1181.81,-150.58 1180.11,-150.06 1178.41,-149.47"/>
<polygon fill="#63b8ff" stroke="#63b8ff" points="1179.54,-146.15 1168.97,-145.58 1176.88,-152.62 1179.54,-146.15"/>
</g>
<!-- Node30&#45;&gt;Node15 -->
<g id="edge57" class="edge">
<title>Node30&#45;&gt;Node15</title>
<path fill="none" stroke="#63b8ff" d="M2111.05,-192.89C2167.61,-181.52 2249.08,-157.99 2213.5,-121 2174.54,-80.5 1314.9,-76.82 1108.68,-76.52"/>
<polygon fill="#63b8ff" stroke="#63b8ff" points="1108.52,-73.02 1098.52,-76.51 1108.52,-80.02 1108.52,-73.02"/>
</g>
<!-- Node30&#45;&gt;Node22 -->
<g id="edge51" class="edge">
<title>Node30&#45;&gt;Node22</title>
<path fill="none" stroke="#63b8ff" d="M2013.87,-198.83C1897.5,-193.36 1593.88,-177.56 1341.5,-151 1329.04,-149.69 1315.73,-148 1303.04,-146.26"/>
<polygon fill="#63b8ff" stroke="#63b8ff" points="1303.42,-142.78 1293.03,-144.85 1302.45,-149.71 1303.42,-142.78"/>
</g>
<!-- Node30&#45;&gt;Node26 -->
<g id="edge48" class="edge">
<title>Node30&#45;&gt;Node26</title>
<path fill="none" stroke="#63b8ff" d="M2079.37,-186.8C2091.45,-176.62 2107.71,-162.93 2120.12,-152.48"/>
<polygon fill="#63b8ff" stroke="#63b8ff" points="2122.6,-154.96 2128,-145.84 2118.09,-149.61 2122.6,-154.96"/>
</g>
<!-- Node30&#45;&gt;Node28 -->
<g id="edge54" class="edge">
<title>Node30&#45;&gt;Node28</title>
<path fill="none" stroke="#63b8ff" d="M2013.9,-197.98C1924.14,-191.99 1726.43,-176.91 1561.5,-151 1555.29,-150.02 1548.78,-148.83 1542.38,-147.55"/>
<polygon fill="#63b8ff" stroke="#63b8ff" points="1542.97,-144.1 1532.47,-145.5 1541.55,-150.96 1542.97,-144.1"/>
</g>
<!-- Node30&#45;&gt;Node29 -->
<g id="edge56" class="edge">
<title>Node30&#45;&gt;Node29</title>
<path fill="none" stroke="#63b8ff" d="M2045.86,-186.8C2033.93,-176.62 2017.89,-162.93 2005.64,-152.48"/>
<polygon fill="#63b8ff" stroke="#63b8ff" points="2007.74,-149.67 1997.86,-145.84 2003.2,-155 2007.74,-149.67"/>
</g>
<!-- Node31 -->
<g id="node31" class="node">
<title>Node31</title>
<g id="a_node31"><a xlink:title=" ">
<polygon fill="#e0e0e0" stroke="#999999" points="2422.5,-145.5 2298.5,-145.5 2298.5,-126.5 2422.5,-126.5 2422.5,-145.5"/>
<text text-anchor="middle" x="2360.5" y="-133.5" font-family="Helvetica,sans-Serif" font-size="10.00">flutter/method_channel.h</text>
</a>
</g>
</g>
<!-- Node30&#45;&gt;Node31 -->
<g id="edge49" class="edge">
<title>Node30&#45;&gt;Node31</title>
<path fill="none" stroke="#63b8ff" d="M2111.04,-190.57C2166,-178.77 2255.1,-159.64 2310.62,-147.71"/>
<polygon fill="#63b8ff" stroke="#63b8ff" points="2311.53,-151.1 2320.57,-145.57 2310.06,-144.25 2311.53,-151.1"/>
</g>
<!-- Node32 -->
<g id="node32" class="node">
<title>Node32</title>
<g id="a_node32"><a xlink:title=" ">
<polygon fill="#e0e0e0" stroke="#999999" points="2546.5,-151 2440.5,-151 2440.5,-121 2546.5,-121 2546.5,-151"/>
<text text-anchor="start" x="2448.5" y="-139" font-family="Helvetica,sans-Serif" font-size="10.00">flutter/method_result</text>
<text text-anchor="middle" x="2493.5" y="-128" font-family="Helvetica,sans-Serif" font-size="10.00">_functions.h</text>
</a>
</g>
</g>
<!-- Node30&#45;&gt;Node32 -->
<g id="edge50" class="edge">
<title>Node30&#45;&gt;Node32</title>
<path fill="none" stroke="#63b8ff" d="M2111.07,-195.79C2179.9,-188.1 2309.94,-172.48 2430.33,-151.11"/>
<polygon fill="#63b8ff" stroke="#63b8ff" points="2431.24,-154.51 2440.46,-149.3 2430,-147.62 2431.24,-154.51"/>
</g>
<!-- Node33 -->
<g id="node33" class="node">
<title>Node33</title>
<g id="a_node33"><a xlink:title=" ">
<polygon fill="#e0e0e0" stroke="#999999" points="2720,-151 2565,-151 2565,-121 2720,-121 2720,-151"/>
<text text-anchor="start" x="2573" y="-139" font-family="Helvetica,sans-Serif" font-size="10.00">flutter/shell/platform</text>
<text text-anchor="middle" x="2642.5" y="-128" font-family="Helvetica,sans-Serif" font-size="10.00">/common/json_method_codec.h</text>
</a>
</g>
</g>
<!-- Node30&#45;&gt;Node33 -->
<g id="edge52" class="edge">
<title>Node30&#45;&gt;Node33</title>
<path fill="none" stroke="#63b8ff" d="M2111.24,-197.01C2198.13,-189.69 2385.7,-172.94 2554.67,-151.06"/>
<polygon fill="#63b8ff" stroke="#63b8ff" points="2555.28,-154.51 2564.74,-149.74 2554.38,-147.57 2555.28,-154.51"/>
</g>
<!-- Node34 -->
<g id="node34" class="node">
<title>Node34</title>
<g id="a_node34"><a xlink:title=" ">
<polygon fill="#e0e0e0" stroke="#999999" points="2881,-151 2738,-151 2738,-121 2881,-121 2881,-151"/>
<text text-anchor="start" x="2746" y="-139" font-family="Helvetica,sans-Serif" font-size="10.00">flutter/shell/platform</text>
<text text-anchor="middle" x="2809.5" y="-128" font-family="Helvetica,sans-Serif" font-size="10.00">/common/text_input_model.h</text>
</a>
</g>
</g>
<!-- Node30&#45;&gt;Node34 -->
<g id="edge53" class="edge">
<title>Node30&#45;&gt;Node34</title>
<path fill="none" stroke="#63b8ff" d="M2111.2,-198.99C2220.01,-194.16 2491.21,-180.14 2727.44,-151.18"/>
<polygon fill="#63b8ff" stroke="#63b8ff" points="2728.1,-154.63 2737.59,-149.93 2727.24,-147.68 2728.1,-154.63"/>
</g>
<!-- Node35&#45;&gt;Node8 -->
<g id="edge59" class="edge">
<title>Node35&#45;&gt;Node8</title>
<path fill="none" stroke="#63b8ff" d="M1033.75,-256.25C1137.17,-245.16 1367.72,-220.12 1370.5,-217 1385.27,-200.43 1380.44,-173.38 1374.72,-155.39"/>
<polygon fill="#63b8ff" stroke="#63b8ff" points="1377.94,-154.02 1371.3,-145.76 1371.35,-156.36 1377.94,-154.02"/>
</g>
<!-- Node35&#45;&gt;Node9 -->
<g id="edge60" class="edge">
<title>Node35&#45;&gt;Node9</title>
<path fill="none" stroke="#63b8ff" d="M935.24,-254.31C893.67,-247.12 838.84,-234.59 825.5,-217 807.28,-192.98 841.05,-166.39 866.92,-150.72"/>
<polygon fill="#63b8ff" stroke="#63b8ff" points="868.75,-153.7 875.64,-145.65 865.24,-147.65 868.75,-153.7"/>
</g>
<!-- Node35&#45;&gt;Node22 -->
<g id="edge66" class="edge">
<title>Node35&#45;&gt;Node22</title>
<path fill="none" stroke="#63b8ff" d="M986.12,-252.82C989.53,-237.11 998.98,-204.02 1020.5,-187 1078.7,-140.99 1111.18,-167.56 1183.5,-151 1187.89,-149.99 1192.46,-148.93 1197.03,-147.87"/>
<polygon fill="#63b8ff" stroke="#63b8ff" points="1198.02,-151.23 1206.95,-145.53 1196.42,-144.41 1198.02,-151.23"/>
</g>
<!-- Node36 -->
<g id="node36" class="node">
<title>Node36</title>
<g id="a_node36"><a xlink:href="configuration_8h.html" target="_top" xlink:title=" ">
<polygon fill="white" stroke="#666666" points="973,-211.5 834,-211.5 834,-192.5 973,-192.5 973,-211.5"/>
<text text-anchor="middle" x="903.5" y="-199.5" font-family="Helvetica,sans-Serif" font-size="10.00">configuration/configuration.h</text>
</a>
</g>
</g>
<!-- Node35&#45;&gt;Node36 -->
<g id="edge61" class="edge">
<title>Node35&#45;&gt;Node36</title>
<path fill="none" stroke="#63b8ff" d="M972.55,-252.87C959.75,-243.62 939.2,-228.78 923.85,-217.69"/>
<polygon fill="#63b8ff" stroke="#63b8ff" points="925.66,-214.68 915.5,-211.67 921.56,-220.36 925.66,-214.68"/>
</g>
<!-- Node37 -->
<g id="node37" class="node">
<title>Node37</title>
<g id="a_node37"><a xlink:href="window_8h.html" target="_top" xlink:title=" ">
<polygon fill="white" stroke="#666666" points="651.5,-211.5 555.5,-211.5 555.5,-192.5 651.5,-192.5 651.5,-211.5"/>
<text text-anchor="middle" x="603.5" y="-199.5" font-family="Helvetica,sans-Serif" font-size="10.00">wayland/window.h</text>
</a>
</g>
</g>
<!-- Node35&#45;&gt;Node37 -->
<g id="edge67" class="edge">
<title>Node35&#45;&gt;Node37</title>
<path fill="none" stroke="#63b8ff" d="M935.47,-253.97C865.41,-243.21 736.86,-223.48 661.94,-211.97"/>
<polygon fill="#63b8ff" stroke="#63b8ff" points="662.16,-208.47 651.74,-210.41 661.09,-215.38 662.16,-208.47"/>
</g>
<!-- Node36&#45;&gt;Node12 -->
<g id="edge62" class="edge">
<title>Node36&#45;&gt;Node12</title>
<path fill="none" stroke="#63b8ff" d="M956.69,-192.47C1002.05,-184.38 1068.61,-170.53 1124.5,-151 1125.72,-150.57 1126.95,-150.11 1128.19,-149.62"/>
<polygon fill="#63b8ff" stroke="#63b8ff" points="1129.78,-152.75 1137.52,-145.52 1126.96,-146.34 1129.78,-152.75"/>
</g>
<!-- Node36&#45;&gt;Node13 -->
<g id="edge63" class="edge">
<title>Node36&#45;&gt;Node13</title>
<path fill="none" stroke="#63b8ff" d="M893.12,-192.37C880.78,-182.12 859.99,-164.84 844.91,-152.31"/>
<polygon fill="#63b8ff" stroke="#63b8ff" points="847.14,-149.61 837.21,-145.91 842.67,-154.99 847.14,-149.61"/>
</g>
<!-- Node36&#45;&gt;Node22 -->
<g id="edge64" class="edge">
<title>Node36&#45;&gt;Node22</title>
<path fill="none" stroke="#63b8ff" d="M953.08,-192.49C1021.24,-180.74 1140.35,-159.96 1183.5,-151 1188.21,-150.02 1193.12,-148.95 1198.01,-147.84"/>
<polygon fill="#63b8ff" stroke="#63b8ff" points="1198.99,-151.21 1207.94,-145.54 1197.41,-144.38 1198.99,-151.21"/>
</g>
<!-- Node36&#45;&gt;Node28 -->
<g id="edge65" class="edge">
<title>Node36&#45;&gt;Node28</title>
<path fill="none" stroke="#63b8ff" d="M972.45,-192.48C988.23,-190.61 1004.94,-188.68 1020.5,-187 1186.53,-169.08 1228.64,-170.36 1394.5,-151 1406.43,-149.61 1419.12,-147.98 1431.36,-146.34"/>
<polygon fill="#63b8ff" stroke="#63b8ff" points="1432.06,-149.78 1441.5,-144.96 1431.12,-142.84 1432.06,-149.78"/>
</g>
<!-- Node37&#45;&gt;Node9 -->
<g id="edge68" class="edge">
<title>Node37&#45;&gt;Node9</title>
<path fill="none" stroke="#63b8ff" d="M651.89,-194.22C703.48,-186.36 787.25,-171.77 857.5,-151 859.43,-150.43 861.4,-149.79 863.38,-149.12"/>
<polygon fill="#63b8ff" stroke="#63b8ff" points="864.95,-152.27 873.1,-145.5 862.51,-145.7 864.95,-152.27"/>
</g>
<!-- Node37&#45;&gt;Node12 -->
<g id="edge69" class="edge">
<title>Node37&#45;&gt;Node12</title>
<path fill="none" stroke="#63b8ff" d="M651.51,-197.36C771.79,-188.12 1079.6,-163.56 1124.5,-151 1125.95,-150.6 1127.41,-150.12 1128.87,-149.6"/>
<polygon fill="#63b8ff" stroke="#63b8ff" points="1130.41,-152.74 1138.25,-145.61 1127.67,-146.3 1130.41,-152.74"/>
</g>
<!-- Node37&#45;&gt;Node14 -->
<g id="edge73" class="edge">
<title>Node37&#45;&gt;Node14</title>
<path fill="none" stroke="#63b8ff" d="M651.71,-196.72C727.43,-189.62 878.67,-173.87 1005.5,-151 1010.61,-150.08 1015.95,-148.99 1021.23,-147.84"/>
<polygon fill="#63b8ff" stroke="#63b8ff" points="1022.27,-151.19 1031.25,-145.56 1020.72,-144.36 1022.27,-151.19"/>
</g>
<!-- Node37&#45;&gt;Node15 -->
<g id="edge72" class="edge">
<title>Node37&#45;&gt;Node15</title>
<path fill="none" stroke="#63b8ff" d="M555.39,-198.82C450.15,-193.56 206.94,-178.51 182.5,-151 173.65,-141.03 173.28,-130.63 182.5,-121 213.87,-88.21 953.29,-88.9 998.5,-85 1005.54,-84.39 1012.99,-83.59 1020.24,-82.72"/>
<polygon fill="#63b8ff" stroke="#63b8ff" points="1020.82,-86.18 1030.3,-81.46 1019.95,-79.23 1020.82,-86.18"/>
</g>
<!-- Node38 -->
<g id="node38" class="node">
<title>Node38</title>
<g id="a_node38"><a xlink:title=" ">
<polygon fill="#e0e0e0" stroke="#999999" points="241,-145.5 192,-145.5 192,-126.5 241,-126.5 241,-145.5"/>
<text text-anchor="middle" x="216.5" y="-133.5" font-family="Helvetica,sans-Serif" font-size="10.00">cassert</text>
</a>
</g>
</g>
<!-- Node37&#45;&gt;Node38 -->
<g id="edge70" class="edge">
<title>Node37&#45;&gt;Node38</title>
<path fill="none" stroke="#63b8ff" d="M555.34,-198C486.67,-192.87 357.11,-180.01 250.5,-151 248.56,-150.47 246.58,-149.86 244.61,-149.2"/>
<polygon fill="#63b8ff" stroke="#63b8ff" points="245.51,-145.8 234.91,-145.56 243.05,-152.35 245.51,-145.8"/>
</g>
<!-- Node39 -->
<g id="node39" class="node">
<title>Node39</title>
<g id="a_node39"><a xlink:title=" ">
<polygon fill="#e0e0e0" stroke="#999999" points="384,-145.5 259,-145.5 259,-126.5 384,-126.5 384,-145.5"/>
<text text-anchor="middle" x="321.5" y="-133.5" font-family="Helvetica,sans-Serif" font-size="10.00">agl&#45;shell&#45;client&#45;protocol.h</text>
</a>
</g>
</g>
<!-- Node37&#45;&gt;Node39 -->
<g id="edge71" class="edge">
<title>Node37&#45;&gt;Node39</title>
<path fill="none" stroke="#63b8ff" d="M565.76,-192.44C514.9,-180.89 424.35,-160.34 368.94,-147.77"/>
<polygon fill="#63b8ff" stroke="#63b8ff" points="369.54,-144.31 359.02,-145.51 367.99,-151.14 369.54,-144.31"/>
</g>
<!-- Node40 -->
<g id="node40" class="node">
<title>Node40</title>
<g id="a_node40"><a xlink:title=" ">
<polygon fill="#e0e0e0" stroke="#999999" points="504.5,-151 402.5,-151 402.5,-121 504.5,-121 504.5,-151"/>
<text text-anchor="start" x="410.5" y="-139" font-family="Helvetica,sans-Serif" font-size="10.00">ivi&#45;application&#45;client</text>
<text text-anchor="middle" x="453.5" y="-128" font-family="Helvetica,sans-Serif" font-size="10.00">&#45;protocol.h</text>
</a>
</g>
</g>
<!-- Node37&#45;&gt;Node40 -->
<g id="edge74" class="edge">
<title>Node37&#45;&gt;Node40</title>
<path fill="none" stroke="#63b8ff" d="M583.27,-192.37C561,-182.87 524.56,-167.32 495.95,-155.11"/>
<polygon fill="#63b8ff" stroke="#63b8ff" points="497.15,-151.82 486.58,-151.12 494.41,-158.26 497.15,-151.82"/>
</g>
<!-- Node41 -->
<g id="node41" class="node">
<title>Node41</title>
<g id="a_node41"><a xlink:title=" ">
<polygon fill="#e0e0e0" stroke="#999999" points="640,-145.5 523,-145.5 523,-126.5 640,-126.5 640,-145.5"/>
<text text-anchor="middle" x="581.5" y="-133.5" font-family="Helvetica,sans-Serif" font-size="10.00">ivi&#45;wm&#45;client&#45;protocol.h</text>
</a>
</g>
</g>
<!-- Node37&#45;&gt;Node41 -->
<g id="edge75" class="edge">
<title>Node37&#45;&gt;Node41</title>
<path fill="none" stroke="#63b8ff" d="M600.53,-192.37C597.3,-182.97 592.04,-167.67 587.87,-155.53"/>
<polygon fill="#63b8ff" stroke="#63b8ff" points="591.12,-154.22 584.56,-145.91 584.5,-156.5 591.12,-154.22"/>
</g>
<!-- Node42 -->
<g id="node42" class="node">
<title>Node42</title>
<g id="a_node42"><a xlink:title=" ">
<polygon fill="#e0e0e0" stroke="#999999" points="786.5,-145.5 658.5,-145.5 658.5,-126.5 786.5,-126.5 786.5,-145.5"/>
<text text-anchor="middle" x="722.5" y="-133.5" font-family="Helvetica,sans-Serif" font-size="10.00">xdg&#45;shell&#45;client&#45;protocol.h</text>
</a>
</g>
</g>
<!-- Node37&#45;&gt;Node42 -->
<g id="edge76" class="edge">
<title>Node37&#45;&gt;Node42</title>
<path fill="none" stroke="#63b8ff" d="M619.55,-192.37C639.51,-181.63 673.82,-163.18 697.3,-150.55"/>
<polygon fill="#63b8ff" stroke="#63b8ff" points="699.18,-153.52 706.33,-145.7 695.86,-147.35 699.18,-153.52"/>
</g>
</g>
</svg>
