<?xml version="1.0" encoding="UTF-8" standalone="no"?>
<!DOCTYPE svg PUBLIC "-//W3C//DTD SVG 1.1//EN"
 "http://www.w3.org/Graphics/SVG/1.1/DTD/svg11.dtd">
<!-- Generated by graphviz version 2.43.0 (0)
 -->
<!-- Title: /home/joel.winarske@toyotaconnected.com/development/stargate/ivi&#45;homescreen/shell/engine.h Pages: 1 -->
<svg width="3031pt" height="385pt"
 viewBox="0.00 0.00 3030.50 385.00" xmlns="http://www.w3.org/2000/svg" xmlns:xlink="http://www.w3.org/1999/xlink">
<g id="graph0" class="graph" transform="scale(1 1) rotate(0) translate(4 381)">
<title>/home/joel.winarske@toyotaconnected.com/development/stargate/ivi&#45;homescreen/shell/engine.h</title>
<polygon fill="white" stroke="transparent" points="-4,4 -4,-381 3026.5,-381 3026.5,4 -4,4"/>
<!-- Node1 -->
<g id="node1" class="node">
<title>Node1</title>
<g id="a_node1"><a xlink:title=" ">
<polygon fill="#bfbfbf" stroke="black" points="561.5,-313.5 561.5,-376.5 693.5,-376.5 693.5,-313.5 561.5,-313.5"/>
<text text-anchor="start" x="569.5" y="-364.5" font-family="Helvetica,sans-Serif" font-size="10.00">/home/joel.winarske</text>
<text text-anchor="start" x="569.5" y="-353.5" font-family="Helvetica,sans-Serif" font-size="10.00">@toyotaconnected.com</text>
<text text-anchor="start" x="569.5" y="-342.5" font-family="Helvetica,sans-Serif" font-size="10.00">/development/stargate</text>
<text text-anchor="start" x="569.5" y="-331.5" font-family="Helvetica,sans-Serif" font-size="10.00">/ivi&#45;homescreen/shell</text>
<text text-anchor="middle" x="627.5" y="-320.5" font-family="Helvetica,sans-Serif" font-size="10.00">/engine.h</text>
</a>
</g>
</g>
<!-- Node2 -->
<g id="node2" class="node">
<title>Node2</title>
<g id="a_node2"><a xlink:title=" ">
<polygon fill="white" stroke="#bfbfbf" points="0,-257.5 0,-276.5 65,-276.5 65,-257.5 0,-257.5"/>
<text text-anchor="middle" x="32.5" y="-264.5" font-family="Helvetica,sans-Serif" font-size="10.00">functional</text>
</a>
</g>
</g>
<!-- Node1&#45;&gt;Node2 -->
<g id="edge1" class="edge">
<title>Node1&#45;&gt;Node2</title>
<path fill="none" stroke="midnightblue" d="M561.08,-337.34C457.79,-326.66 252.55,-304.12 79.5,-277 78.04,-276.77 76.55,-276.53 75.05,-276.28"/>
<polygon fill="midnightblue" stroke="midnightblue" points="75.52,-272.81 65.07,-274.53 74.31,-279.7 75.52,-272.81"/>
</g>
<!-- Node3 -->
<g id="node3" class="node">
<title>Node3</title>
<g id="a_node3"><a xlink:title=" ">
<polygon fill="white" stroke="#bfbfbf" points="520.5,-6 520.5,-25 582.5,-25 582.5,-6 520.5,-6"/>
<text text-anchor="middle" x="551.5" y="-13" font-family="Helvetica,sans-Serif" font-size="10.00">EGL/egl.h</text>
</a>
</g>
</g>
<!-- Node1&#45;&gt;Node3 -->
<g id="edge2" class="edge">
<title>Node1&#45;&gt;Node3</title>
<path fill="none" stroke="midnightblue" d="M561.18,-344.23C437.45,-343.27 178,-334.27 112.5,-277 88.07,-255.64 93.5,-238.95 93.5,-206.5 93.5,-206.5 93.5,-206.5 93.5,-137.5 93.5,-51.75 397.38,-25.41 510.09,-18.59"/>
<polygon fill="midnightblue" stroke="midnightblue" points="510.6,-22.07 520.38,-17.99 510.19,-15.08 510.6,-22.07"/>
</g>
<!-- Node4 -->
<g id="node4" class="node">
<title>Node4</title>
<g id="a_node4"><a xlink:title=" ">
<polygon fill="white" stroke="#bfbfbf" points="121.5,-257.5 121.5,-276.5 195.5,-276.5 195.5,-257.5 121.5,-257.5"/>
<text text-anchor="middle" x="158.5" y="-264.5" font-family="Helvetica,sans-Serif" font-size="10.00">GLES2/gl2.h</text>
</a>
</g>
</g>
<!-- Node1&#45;&gt;Node4 -->
<g id="edge3" class="edge">
<title>Node1&#45;&gt;Node4</title>
<path fill="none" stroke="midnightblue" d="M561.43,-334.29C480.13,-322.17 337.6,-300.38 205.53,-277.13"/>
<polygon fill="midnightblue" stroke="midnightblue" points="206.09,-273.68 195.64,-275.39 204.87,-280.57 206.09,-273.68"/>
</g>
<!-- Node5 -->
<g id="node5" class="node">
<title>Node5</title>
<g id="a_node5"><a xlink:title=" ">
<polygon fill="white" stroke="#bfbfbf" points="213.5,-257.5 213.5,-276.5 353.5,-276.5 353.5,-257.5 213.5,-257.5"/>
<text text-anchor="middle" x="283.5" y="-264.5" font-family="Helvetica,sans-Serif" font-size="10.00">flutter/encodable_value.h</text>
</a>
</g>
</g>
<!-- Node1&#45;&gt;Node5 -->
<g id="edge4" class="edge">
<title>Node1&#45;&gt;Node5</title>
<path fill="none" stroke="midnightblue" d="M561.17,-329.35C494.18,-314.54 392.26,-292.03 332.32,-278.79"/>
<polygon fill="midnightblue" stroke="midnightblue" points="332.87,-275.32 322.35,-276.58 331.36,-282.16 332.87,-275.32"/>
</g>
<!-- Node6 -->
<g id="node6" class="node">
<title>Node6</title>
<g id="a_node6"><a xlink:title=" ">
<polygon fill="white" stroke="#bfbfbf" points="1620,-0.5 1620,-30.5 1757,-30.5 1757,-0.5 1620,-0.5"/>
<text text-anchor="start" x="1628" y="-18.5" font-family="Helvetica,sans-Serif" font-size="10.00">shell/platform/embedder</text>
<text text-anchor="middle" x="1688.5" y="-7.5" font-family="Helvetica,sans-Serif" font-size="10.00">/embedder.h</text>
</a>
</g>
</g>
<!-- Node1&#45;&gt;Node6 -->
<g id="edge5" class="edge">
<title>Node1&#45;&gt;Node6</title>
<path fill="none" stroke="midnightblue" d="M693.74,-343.75C1079.81,-341.89 3022.5,-326.53 3022.5,-206.5 3022.5,-206.5 3022.5,-206.5 3022.5,-137.5 3022.5,-74.11 2054.65,-30.92 1767.73,-19.51"/>
<polygon fill="midnightblue" stroke="midnightblue" points="1767.54,-16 1757.41,-19.1 1767.27,-22.99 1767.54,-16"/>
</g>
<!-- Node7 -->
<g id="node7" class="node">
<title>Node7</title>
<g id="a_node7"><a xlink:title=" ">
<polygon fill="white" stroke="#bfbfbf" points="499.5,-129 499.5,-148 537.5,-148 537.5,-129 499.5,-129"/>
<text text-anchor="middle" x="518.5" y="-136" font-family="Helvetica,sans-Serif" font-size="10.00">map</text>
</a>
</g>
</g>
<!-- Node1&#45;&gt;Node7 -->
<g id="edge6" class="edge">
<title>Node1&#45;&gt;Node7</title>
<path fill="none" stroke="midnightblue" d="M561.21,-331.91C529.9,-322.51 495.34,-305.97 476.5,-277 451.32,-238.27 484.5,-183.67 504.82,-156.4"/>
<polygon fill="midnightblue" stroke="midnightblue" points="507.76,-158.31 511.11,-148.25 502.23,-154.02 507.76,-158.31"/>
</g>
<!-- Node8 -->
<g id="node8" class="node">
<title>Node8</title>
<g id="a_node8"><a xlink:title=" ">
<polygon fill="white" stroke="#bfbfbf" points="2376.5,-129 2376.5,-148 2434.5,-148 2434.5,-129 2376.5,-129"/>
<text text-anchor="middle" x="2405.5" y="-136" font-family="Helvetica,sans-Serif" font-size="10.00">memory</text>
</a>
</g>
</g>
<!-- Node1&#45;&gt;Node8 -->
<g id="edge7" class="edge">
<title>Node1&#45;&gt;Node8</title>
<path fill="none" stroke="midnightblue" d="M693.73,-339.01C884.82,-324.34 1453.54,-278.72 1923.5,-221 2121.58,-196.67 2174.49,-204.75 2367.5,-154 2370.16,-153.3 2372.89,-152.48 2375.61,-151.59"/>
<polygon fill="midnightblue" stroke="midnightblue" points="2377.01,-154.8 2385.25,-148.15 2374.66,-148.21 2377.01,-154.8"/>
</g>
<!-- Node9 -->
<g id="node9" class="node">
<title>Node9</title>
<g id="a_node9"><a xlink:title=" ">
<polygon fill="white" stroke="#bfbfbf" points="485.5,-257.5 485.5,-276.5 533.5,-276.5 533.5,-257.5 485.5,-257.5"/>
<text text-anchor="middle" x="509.5" y="-264.5" font-family="Helvetica,sans-Serif" font-size="10.00">mutex</text>
</a>
</g>
</g>
<!-- Node1&#45;&gt;Node9 -->
<g id="edge8" class="edge">
<title>Node1&#45;&gt;Node9</title>
<path fill="none" stroke="midnightblue" d="M579.85,-313.31C563.11,-302.53 545.11,-290.94 531.51,-282.17"/>
<polygon fill="midnightblue" stroke="midnightblue" points="533.17,-279.08 522.86,-276.61 529.38,-284.96 533.17,-279.08"/>
</g>
<!-- Node10 -->
<g id="node10" class="node">
<title>Node10</title>
<g id="a_node10"><a xlink:title=" ">
<polygon fill="white" stroke="#bfbfbf" points="552,-257.5 552,-276.5 599,-276.5 599,-257.5 552,-257.5"/>
<text text-anchor="middle" x="575.5" y="-264.5" font-family="Helvetica,sans-Serif" font-size="10.00">queue</text>
</a>
</g>
</g>
<!-- Node1&#45;&gt;Node10 -->
<g id="edge9" class="edge">
<title>Node1&#45;&gt;Node10</title>
<path fill="none" stroke="midnightblue" d="M606.35,-313.09C599.81,-303.53 592.85,-293.36 587.2,-285.1"/>
<polygon fill="midnightblue" stroke="midnightblue" points="590,-282.99 581.47,-276.72 584.22,-286.95 590,-282.99"/>
</g>
<!-- Node11 -->
<g id="node11" class="node">
<title>Node11</title>
<g id="a_node11"><a xlink:title=" ">
<polygon fill="white" stroke="#bfbfbf" points="555.5,-129 555.5,-148 599.5,-148 599.5,-129 555.5,-129"/>
<text text-anchor="middle" x="577.5" y="-136" font-family="Helvetica,sans-Serif" font-size="10.00">string</text>
</a>
</g>
</g>
<!-- Node1&#45;&gt;Node11 -->
<g id="edge10" class="edge">
<title>Node1&#45;&gt;Node11</title>
<path fill="none" stroke="midnightblue" d="M630.15,-313.42C631.71,-281.33 630.71,-230.09 613.5,-190 608.17,-177.58 599.41,-165.19 591.86,-155.8"/>
<polygon fill="midnightblue" stroke="midnightblue" points="594.51,-153.51 585.41,-148.09 589.15,-158.01 594.51,-153.51"/>
</g>
<!-- Node12 -->
<g id="node12" class="node">
<title>Node12</title>
<g id="a_node12"><a xlink:title=" ">
<polygon fill="white" stroke="#bfbfbf" points="396,-129 396,-148 443,-148 443,-129 396,-129"/>
<text text-anchor="middle" x="419.5" y="-136" font-family="Helvetica,sans-Serif" font-size="10.00">vector</text>
</a>
</g>
</g>
<!-- Node1&#45;&gt;Node12 -->
<g id="edge11" class="edge">
<title>Node1&#45;&gt;Node12</title>
<path fill="none" stroke="midnightblue" d="M561.15,-330.63C528.11,-320.85 489.9,-304.35 464.5,-277 433.11,-243.21 423.6,-187.15 420.73,-158.15"/>
<polygon fill="midnightblue" stroke="midnightblue" points="424.22,-157.83 419.9,-148.15 417.24,-158.41 424.22,-157.83"/>
</g>
<!-- Node13 -->
<g id="node13" class="node">
<title>Node13</title>
<g id="a_node13"><a xlink:href="backend_8h.html" target="_top" xlink:title=" ">
<polygon fill="white" stroke="black" points="2452.5,-129 2452.5,-148 2562.5,-148 2562.5,-129 2452.5,-129"/>
<text text-anchor="middle" x="2507.5" y="-136" font-family="Helvetica,sans-Serif" font-size="10.00">backend/backend.h</text>
</a>
</g>
</g>
<!-- Node1&#45;&gt;Node13 -->
<g id="edge12" class="edge">
<title>Node1&#45;&gt;Node13</title>
<path fill="none" stroke="midnightblue" d="M693.54,-340.81C898.27,-330.66 1539.69,-295.32 2066.5,-221 2231.11,-197.78 2271.62,-187.26 2434.5,-154 2440.22,-152.83 2446.22,-151.55 2452.22,-150.25"/>
<polygon fill="midnightblue" stroke="midnightblue" points="2453.26,-153.6 2462.28,-148.05 2451.76,-146.76 2453.26,-153.6"/>
</g>
<!-- Node14 -->
<g id="node14" class="node">
<title>Node14</title>
<g id="a_node14"><a xlink:href="constants_8h.html" target="_top" xlink:title=" ">
<polygon fill="white" stroke="black" points="1042,-67.5 1042,-86.5 1115,-86.5 1115,-67.5 1042,-67.5"/>
<text text-anchor="middle" x="1078.5" y="-74.5" font-family="Helvetica,sans-Serif" font-size="10.00">constants.h</text>
</a>
</g>
</g>
<!-- Node1&#45;&gt;Node14 -->
<g id="edge19" class="edge">
<title>Node1&#45;&gt;Node14</title>
<path fill="none" stroke="midnightblue" d="M561.28,-332.2C523.9,-322.67 478.42,-305.9 446.5,-277 392.04,-227.7 336.27,-176.6 386.5,-123 430.46,-76.08 882.92,-76.13 1031.51,-77.43"/>
<polygon fill="midnightblue" stroke="midnightblue" points="1031.64,-80.94 1041.67,-77.53 1031.7,-73.94 1031.64,-80.94"/>
</g>
<!-- Node16 -->
<g id="node16" class="node">
<title>Node16</title>
<g id="a_node16"><a xlink:href="logging_8h.html" target="_top" xlink:title=" ">
<polygon fill="white" stroke="black" points="693.5,-257.5 693.5,-276.5 755.5,-276.5 755.5,-257.5 693.5,-257.5"/>
<text text-anchor="middle" x="724.5" y="-264.5" font-family="Helvetica,sans-Serif" font-size="10.00">logging.h</text>
</a>
</g>
</g>
<!-- Node1&#45;&gt;Node16 -->
<g id="edge20" class="edge">
<title>Node1&#45;&gt;Node16</title>
<path fill="none" stroke="midnightblue" d="M666.67,-313.31C679.95,-302.9 694.2,-291.74 705.23,-283.1"/>
<polygon fill="midnightblue" stroke="midnightblue" points="707.59,-285.7 713.3,-276.77 703.27,-280.19 707.59,-285.7"/>
</g>
<!-- Node18 -->
<g id="node18" class="node">
<title>Node18</title>
<g id="a_node18"><a xlink:href="platform__channel_8h.html" target="_top" xlink:title=" ">
<polygon fill="white" stroke="black" points="493,-196 493,-215 604,-215 604,-196 493,-196"/>
<text text-anchor="middle" x="548.5" y="-203" font-family="Helvetica,sans-Serif" font-size="10.00">platform_channel.h</text>
</a>
</g>
</g>
<!-- Node1&#45;&gt;Node18 -->
<g id="edge22" class="edge">
<title>Node1&#45;&gt;Node18</title>
<path fill="none" stroke="midnightblue" d="M625.67,-313.21C623.48,-295.69 618.73,-273.94 608.5,-257 599.52,-242.13 584.6,-229.54 571.88,-220.65"/>
<polygon fill="midnightblue" stroke="midnightblue" points="573.79,-217.72 563.52,-215.11 569.92,-223.55 573.79,-217.72"/>
</g>
<!-- Node19 -->
<g id="node19" class="node">
<title>Node19</title>
<g id="a_node19"><a xlink:href="key__event_8h.html" target="_top" xlink:title=" ">
<polygon fill="white" stroke="black" points="1011.5,-190.5 1011.5,-220.5 1123.5,-220.5 1123.5,-190.5 1011.5,-190.5"/>
<text text-anchor="start" x="1019.5" y="-208.5" font-family="Helvetica,sans-Serif" font-size="10.00">static_plugins/key</text>
<text text-anchor="middle" x="1067.5" y="-197.5" font-family="Helvetica,sans-Serif" font-size="10.00">_event/key_event.h</text>
</a>
</g>
</g>
<!-- Node1&#45;&gt;Node19 -->
<g id="edge26" class="edge">
<title>Node1&#45;&gt;Node19</title>
<path fill="none" stroke="midnightblue" d="M693.85,-323.27C780.76,-296.11 931.57,-248.98 1012.47,-223.7"/>
<polygon fill="midnightblue" stroke="midnightblue" points="1013.95,-226.9 1022.45,-220.58 1011.87,-220.22 1013.95,-226.9"/>
</g>
<!-- Node26 -->
<g id="node26" class="node">
<title>Node26</title>
<g id="a_node26"><a xlink:href="text__input_8h.html" target="_top" xlink:title=" ">
<polygon fill="white" stroke="black" points="1528.5,-190.5 1528.5,-220.5 1636.5,-220.5 1636.5,-190.5 1528.5,-190.5"/>
<text text-anchor="start" x="1536.5" y="-208.5" font-family="Helvetica,sans-Serif" font-size="10.00">static_plugins/text</text>
<text text-anchor="middle" x="1582.5" y="-197.5" font-family="Helvetica,sans-Serif" font-size="10.00">_input/text_input.h</text>
</a>
</g>
</g>
<!-- Node1&#45;&gt;Node26 -->
<g id="edge38" class="edge">
<title>Node1&#45;&gt;Node26</title>
<path fill="none" stroke="midnightblue" d="M693.86,-336.97C797.07,-325.78 1002.22,-302.58 1175.5,-277 1297.11,-259.04 1438.34,-233.53 1518.4,-218.62"/>
<polygon fill="midnightblue" stroke="midnightblue" points="1519.14,-222.04 1528.33,-216.77 1517.85,-215.16 1519.14,-222.04"/>
</g>
<!-- Node31 -->
<g id="node31" class="node">
<title>Node31</title>
<g id="a_node31"><a xlink:href="flutter__view_8h.html" target="_top" xlink:title=" ">
<polygon fill="white" stroke="black" points="1057,-257.5 1057,-276.5 1166,-276.5 1166,-257.5 1057,-257.5"/>
<text text-anchor="middle" x="1111.5" y="-264.5" font-family="Helvetica,sans-Serif" font-size="10.00">view/flutter_view.h</text>
</a>
</g>
</g>
<!-- Node1&#45;&gt;Node31 -->
<g id="edge52" class="edge">
<title>Node1&#45;&gt;Node31</title>
<path fill="none" stroke="midnightblue" d="M693.53,-333.63C786.53,-319.03 955.01,-292.57 1047.12,-278.11"/>
<polygon fill="midnightblue" stroke="midnightblue" points="1047.81,-281.54 1057.14,-276.54 1046.72,-274.63 1047.81,-281.54"/>
</g>
<!-- Node13&#45;&gt;Node1 -->
<g id="edge18" class="edge">
<title>Node13&#45;&gt;Node1</title>
<path fill="none" stroke="midnightblue" d="M2479.73,-148.05C2471.03,-150.08 2461.43,-152.18 2452.5,-154 2289.62,-187.26 2249.11,-197.78 2084.5,-221 1559.47,-295.07 920.59,-330.42 703.66,-340.71"/>
<polygon fill="midnightblue" stroke="midnightblue" points="703.48,-337.21 693.65,-341.18 703.81,-344.2 703.48,-337.21"/>
</g>
<!-- Node13&#45;&gt;Node6 -->
<g id="edge13" class="edge">
<title>Node13&#45;&gt;Node6</title>
<path fill="none" stroke="midnightblue" d="M2476.8,-128.95C2422.38,-114.1 2305.22,-83.57 2204.5,-67 2050.8,-41.71 1869.1,-27.53 1767.5,-21"/>
<polygon fill="midnightblue" stroke="midnightblue" points="1767.52,-17.5 1757.32,-20.36 1767.07,-24.48 1767.52,-17.5"/>
</g>
<!-- Node13&#45;&gt;Node14 -->
<g id="edge14" class="edge">
<title>Node13&#45;&gt;Node14</title>
<path fill="none" stroke="midnightblue" d="M2475.48,-128.99C2465.33,-126.63 2454.01,-124.35 2443.5,-123 2180.29,-89.16 1333.74,-80.09 1125.24,-78.35"/>
<polygon fill="midnightblue" stroke="midnightblue" points="1125.26,-74.85 1115.23,-78.27 1125.2,-81.85 1125.26,-74.85"/>
</g>
<!-- Node14&#45;&gt;Node3 -->
<g id="edge15" class="edge">
<title>Node14&#45;&gt;Node3</title>
<path fill="none" stroke="midnightblue" d="M1041.86,-71.86C946.84,-61.13 692.92,-32.47 592.86,-21.17"/>
<polygon fill="midnightblue" stroke="midnightblue" points="593.15,-17.68 582.82,-20.04 592.37,-24.64 593.15,-17.68"/>
</g>
<!-- Node14&#45;&gt;Node6 -->
<g id="edge16" class="edge">
<title>Node14&#45;&gt;Node6</title>
<path fill="none" stroke="midnightblue" d="M1115.21,-69.14C1120.01,-68.35 1124.87,-67.62 1129.5,-67 1300.04,-44.29 1501.23,-28.89 1609.68,-21.51"/>
<polygon fill="midnightblue" stroke="midnightblue" points="1610.14,-24.99 1619.88,-20.82 1609.67,-18 1610.14,-24.99"/>
</g>
<!-- Node15 -->
<g id="node15" class="node">
<title>Node15</title>
<g id="a_node15"><a xlink:title=" ">
<polygon fill="white" stroke="#bfbfbf" points="1057.5,-6 1057.5,-25 1099.5,-25 1099.5,-6 1057.5,-6"/>
<text text-anchor="middle" x="1078.5" y="-13" font-family="Helvetica,sans-Serif" font-size="10.00">array</text>
</a>
</g>
</g>
<!-- Node14&#45;&gt;Node15 -->
<g id="edge17" class="edge">
<title>Node14&#45;&gt;Node15</title>
<path fill="none" stroke="midnightblue" d="M1078.5,-67.48C1078.5,-59.08 1078.5,-45.98 1078.5,-35.16"/>
<polygon fill="midnightblue" stroke="midnightblue" points="1082,-35.01 1078.5,-25.01 1075,-35.01 1082,-35.01"/>
</g>
<!-- Node17 -->
<g id="node17" class="node">
<title>Node17</title>
<g id="a_node17"><a xlink:title=" ">
<polygon fill="white" stroke="#bfbfbf" points="668,-196 668,-215 781,-215 781,-196 668,-196"/>
<text text-anchor="middle" x="724.5" y="-203" font-family="Helvetica,sans-Serif" font-size="10.00">flutter/fml/logging.h</text>
</a>
</g>
</g>
<!-- Node16&#45;&gt;Node17 -->
<g id="edge21" class="edge">
<title>Node16&#45;&gt;Node17</title>
<path fill="none" stroke="midnightblue" d="M724.5,-257.48C724.5,-249.08 724.5,-235.98 724.5,-225.16"/>
<polygon fill="midnightblue" stroke="midnightblue" points="728,-225.01 724.5,-215.01 721,-225.01 728,-225.01"/>
</g>
<!-- Node18&#45;&gt;Node6 -->
<g id="edge25" class="edge">
<title>Node18&#45;&gt;Node6</title>
<path fill="none" stroke="midnightblue" d="M534.52,-195.93C511.05,-180.53 468.4,-147.5 490.5,-123 565.43,-39.95 1354.26,-21.31 1609.39,-17.45"/>
<polygon fill="midnightblue" stroke="midnightblue" points="1609.74,-20.94 1619.69,-17.29 1609.63,-13.94 1609.74,-20.94"/>
</g>
<!-- Node18&#45;&gt;Node7 -->
<g id="edge23" class="edge">
<title>Node18&#45;&gt;Node7</title>
<path fill="none" stroke="midnightblue" d="M544.45,-195.73C539.96,-185.99 532.57,-169.98 526.82,-157.53"/>
<polygon fill="midnightblue" stroke="midnightblue" points="529.85,-155.74 522.48,-148.13 523.49,-158.67 529.85,-155.74"/>
</g>
<!-- Node18&#45;&gt;Node11 -->
<g id="edge24" class="edge">
<title>Node18&#45;&gt;Node11</title>
<path fill="none" stroke="midnightblue" d="M552.41,-195.73C556.76,-185.99 563.9,-169.98 569.46,-157.53"/>
<polygon fill="midnightblue" stroke="midnightblue" points="572.77,-158.69 573.65,-148.13 566.38,-155.83 572.77,-158.69"/>
</g>
<!-- Node19&#45;&gt;Node6 -->
<g id="edge35" class="edge">
<title>Node19&#45;&gt;Node6</title>
<path fill="none" stroke="midnightblue" d="M1083.46,-190.19C1108.32,-168.01 1154.4,-127.42 1163.5,-123 1310.8,-51.48 1503.83,-27.96 1610,-20.25"/>
<polygon fill="midnightblue" stroke="midnightblue" points="1610.27,-23.74 1620,-19.55 1609.78,-16.75 1610.27,-23.74"/>
</g>
<!-- Node19&#45;&gt;Node7 -->
<g id="edge27" class="edge">
<title>Node19&#45;&gt;Node7</title>
<path fill="none" stroke="midnightblue" d="M1011.22,-191.44C1008.28,-190.91 1005.36,-190.43 1002.5,-190 801.46,-159.79 741.97,-209.85 546.5,-154 544.84,-153.52 543.15,-152.94 541.49,-152.29"/>
<polygon fill="midnightblue" stroke="midnightblue" points="542.83,-149.06 532.29,-148.02 539.89,-155.41 542.83,-149.06"/>
</g>
<!-- Node19&#45;&gt;Node8 -->
<g id="edge28" class="edge">
<title>Node19&#45;&gt;Node8</title>
<path fill="none" stroke="midnightblue" d="M1123.54,-202.57C1368.78,-194.1 2336.59,-160.32 2367.5,-154 2370.58,-153.37 2373.74,-152.52 2376.86,-151.54"/>
<polygon fill="midnightblue" stroke="midnightblue" points="2378.27,-154.76 2386.53,-148.13 2375.94,-148.16 2378.27,-154.76"/>
</g>
<!-- Node19&#45;&gt;Node11 -->
<g id="edge29" class="edge">
<title>Node19&#45;&gt;Node11</title>
<path fill="none" stroke="midnightblue" d="M1011.21,-191.48C1008.27,-190.95 1005.36,-190.45 1002.5,-190 830.98,-163.04 782.25,-194.87 613.5,-154 610.83,-153.35 608.1,-152.54 605.39,-151.64"/>
<polygon fill="midnightblue" stroke="midnightblue" points="606.44,-148.3 595.85,-148.08 603.99,-154.86 606.44,-148.3"/>
</g>
<!-- Node19&#45;&gt;Node14 -->
<g id="edge37" class="edge">
<title>Node19&#45;&gt;Node14</title>
<path fill="none" stroke="midnightblue" d="M1011.21,-191.51C1008.27,-190.97 1005.35,-190.46 1002.5,-190 924,-177.32 699.82,-212.99 646.5,-154 637.26,-143.78 637.28,-133.23 646.5,-123 671.94,-94.78 925.07,-83.1 1031.62,-79.41"/>
<polygon fill="midnightblue" stroke="midnightblue" points="1031.88,-82.9 1041.76,-79.07 1031.65,-75.91 1031.88,-82.9"/>
</g>
<!-- Node20 -->
<g id="node20" class="node">
<title>Node20</title>
<g id="a_node20"><a xlink:title=" ">
<polygon fill="white" stroke="#bfbfbf" points="655.5,-123.5 655.5,-153.5 779.5,-153.5 779.5,-123.5 655.5,-123.5"/>
<text text-anchor="start" x="663.5" y="-141.5" font-family="Helvetica,sans-Serif" font-size="10.00">flutter/basic_message</text>
<text text-anchor="middle" x="717.5" y="-130.5" font-family="Helvetica,sans-Serif" font-size="10.00">_channel.h</text>
</a>
</g>
</g>
<!-- Node19&#45;&gt;Node20 -->
<g id="edge30" class="edge">
<title>Node19&#45;&gt;Node20</title>
<path fill="none" stroke="midnightblue" d="M1011.17,-191.74C1008.24,-191.14 1005.34,-190.55 1002.5,-190 910.99,-172.11 885.02,-171.66 789.87,-154.21"/>
<polygon fill="midnightblue" stroke="midnightblue" points="790.28,-150.73 779.81,-152.35 789.01,-157.61 790.28,-150.73"/>
</g>
<!-- Node21 -->
<g id="node21" class="node">
<title>Node21</title>
<g id="a_node21"><a xlink:title=" ">
<polygon fill="white" stroke="#bfbfbf" points="1472,-129 1472,-148 1619,-148 1619,-129 1472,-129"/>
<text text-anchor="middle" x="1545.5" y="-136" font-family="Helvetica,sans-Serif" font-size="10.00">flutter/binary_messenger.h</text>
</a>
</g>
</g>
<!-- Node19&#45;&gt;Node21 -->
<g id="edge31" class="edge">
<title>Node19&#45;&gt;Node21</title>
<path fill="none" stroke="midnightblue" d="M1123.54,-198.15C1200.21,-189.29 1342.02,-172.22 1462.5,-154 1471.12,-152.7 1480.22,-151.22 1489.11,-149.71"/>
<polygon fill="midnightblue" stroke="midnightblue" points="1489.77,-153.15 1499.03,-148 1488.58,-146.25 1489.77,-153.15"/>
</g>
<!-- Node22 -->
<g id="node22" class="node">
<title>Node22</title>
<g id="a_node22"><a xlink:title=" ">
<polygon fill="white" stroke="#bfbfbf" points="937.5,-123.5 937.5,-153.5 1115.5,-153.5 1115.5,-123.5 937.5,-123.5"/>
<text text-anchor="start" x="945.5" y="-141.5" font-family="Helvetica,sans-Serif" font-size="10.00">flutter/shell/platform</text>
<text text-anchor="middle" x="1026.5" y="-130.5" font-family="Helvetica,sans-Serif" font-size="10.00">/common/json_message_codec.h</text>
</a>
</g>
</g>
<!-- Node19&#45;&gt;Node22 -->
<g id="edge32" class="edge">
<title>Node19&#45;&gt;Node22</title>
<path fill="none" stroke="midnightblue" d="M1058.6,-190.4C1053.39,-182.13 1046.69,-171.51 1040.76,-162.1"/>
<polygon fill="midnightblue" stroke="midnightblue" points="1043.67,-160.17 1035.38,-153.58 1037.75,-163.9 1043.67,-160.17"/>
</g>
<!-- Node23 -->
<g id="node23" class="node">
<title>Node23</title>
<g id="a_node23"><a xlink:title=" ">
<polygon fill="white" stroke="#bfbfbf" points="1172,-129 1172,-148 1285,-148 1285,-129 1172,-129"/>
<text text-anchor="middle" x="1228.5" y="-136" font-family="Helvetica,sans-Serif" font-size="10.00">flutter/fml/macros.h</text>
</a>
</g>
</g>
<!-- Node19&#45;&gt;Node23 -->
<g id="edge33" class="edge">
<title>Node19&#45;&gt;Node23</title>
<path fill="none" stroke="midnightblue" d="M1102.43,-190.4C1130.93,-178.89 1170.79,-162.8 1198.02,-151.81"/>
<polygon fill="midnightblue" stroke="midnightblue" points="1199.47,-155 1207.43,-148.01 1196.85,-148.51 1199.47,-155"/>
</g>
<!-- Node24 -->
<g id="node24" class="node">
<title>Node24</title>
<g id="a_node24"><a xlink:title=" ">
<polygon fill="white" stroke="#bfbfbf" points="797.5,-129 797.5,-148 919.5,-148 919.5,-129 797.5,-129"/>
<text text-anchor="middle" x="858.5" y="-136" font-family="Helvetica,sans-Serif" font-size="10.00">rapidjson/document.h</text>
</a>
</g>
</g>
<!-- Node19&#45;&gt;Node24 -->
<g id="edge34" class="edge">
<title>Node19&#45;&gt;Node24</title>
<path fill="none" stroke="midnightblue" d="M1022.41,-190.48C984.62,-178.72 931.31,-162.14 895.86,-151.12"/>
<polygon fill="midnightblue" stroke="midnightblue" points="896.51,-147.66 885.92,-148.03 894.43,-154.34 896.51,-147.66"/>
</g>
<!-- Node25 -->
<g id="node25" class="node">
<title>Node25</title>
<g id="a_node25"><a xlink:title=" ">
<polygon fill="white" stroke="#bfbfbf" points="1303.5,-129 1303.5,-148 1453.5,-148 1453.5,-129 1303.5,-129"/>
<text text-anchor="middle" x="1378.5" y="-136" font-family="Helvetica,sans-Serif" font-size="10.00">xkbcommon/xkbcommon.h</text>
</a>
</g>
</g>
<!-- Node19&#45;&gt;Node25 -->
<g id="edge36" class="edge">
<title>Node19&#45;&gt;Node25</title>
<path fill="none" stroke="midnightblue" d="M1123.82,-192.73C1181.82,-180.61 1271.43,-161.88 1327.43,-150.17"/>
<polygon fill="midnightblue" stroke="midnightblue" points="1328.41,-153.54 1337.48,-148.07 1326.98,-146.69 1328.41,-153.54"/>
</g>
<!-- Node26&#45;&gt;Node6 -->
<g id="edge49" class="edge">
<title>Node26&#45;&gt;Node6</title>
<path fill="none" stroke="midnightblue" d="M1636.76,-190.79C1638.35,-190.51 1639.94,-190.24 1641.5,-190 1699.82,-180.92 2131.2,-197.13 2171.5,-154 2180.91,-143.93 2180.13,-133.74 2171.5,-123 2121.67,-60.99 1890.94,-32.95 1767.28,-22.19"/>
<polygon fill="midnightblue" stroke="midnightblue" points="1767.38,-18.69 1757.12,-21.33 1766.78,-25.66 1767.38,-18.69"/>
</g>
<!-- Node26&#45;&gt;Node7 -->
<g id="edge39" class="edge">
<title>Node26&#45;&gt;Node7</title>
<path fill="none" stroke="midnightblue" d="M1528.23,-202.5C1321.74,-194.79 594.21,-166.86 546.5,-154 544.83,-153.55 543.14,-152.99 541.47,-152.35"/>
<polygon fill="midnightblue" stroke="midnightblue" points="542.81,-149.12 532.26,-148.11 539.88,-155.47 542.81,-149.12"/>
</g>
<!-- Node26&#45;&gt;Node8 -->
<g id="edge40" class="edge">
<title>Node26&#45;&gt;Node8</title>
<path fill="none" stroke="midnightblue" d="M1636.68,-203.13C1790.48,-198.89 2227.64,-184.45 2367.5,-154 2370.57,-153.33 2373.73,-152.45 2376.85,-151.46"/>
<polygon fill="midnightblue" stroke="midnightblue" points="2378.26,-154.68 2386.51,-148.03 2375.92,-148.08 2378.26,-154.68"/>
</g>
<!-- Node26&#45;&gt;Node11 -->
<g id="edge41" class="edge">
<title>Node26&#45;&gt;Node11</title>
<path fill="none" stroke="midnightblue" d="M1528.22,-202.67C1355.33,-196.65 818.84,-176.62 646.5,-154 634.42,-152.41 621.3,-149.87 609.78,-147.35"/>
<polygon fill="midnightblue" stroke="midnightblue" points="610.25,-143.87 599.73,-145.07 608.71,-150.7 610.25,-143.87"/>
</g>
<!-- Node26&#45;&gt;Node14 -->
<g id="edge51" class="edge">
<title>Node26&#45;&gt;Node14</title>
<path fill="none" stroke="midnightblue" d="M1600.57,-190.27C1620.48,-172.93 1647.33,-143.43 1628.5,-123 1594.72,-86.34 1252.27,-79.55 1125.42,-78.29"/>
<polygon fill="midnightblue" stroke="midnightblue" points="1125.28,-74.78 1115.25,-78.19 1125.22,-81.78 1125.28,-74.78"/>
</g>
<!-- Node26&#45;&gt;Node21 -->
<g id="edge42" class="edge">
<title>Node26&#45;&gt;Node21</title>
<path fill="none" stroke="midnightblue" d="M1574.47,-190.4C1568.87,-180.56 1561.37,-167.38 1555.4,-156.89"/>
<polygon fill="midnightblue" stroke="midnightblue" points="1558.44,-155.15 1550.45,-148.19 1552.35,-158.62 1558.44,-155.15"/>
</g>
<!-- Node26&#45;&gt;Node23 -->
<g id="edge45" class="edge">
<title>Node26&#45;&gt;Node23</title>
<path fill="none" stroke="midnightblue" d="M1528.5,-195.74C1470.53,-186.17 1375.8,-170.05 1294.5,-154 1288.6,-152.84 1282.42,-151.56 1276.3,-150.25"/>
<polygon fill="midnightblue" stroke="midnightblue" points="1276.65,-146.75 1266.14,-148.06 1275.17,-153.59 1276.65,-146.75"/>
</g>
<!-- Node26&#45;&gt;Node24 -->
<g id="edge48" class="edge">
<title>Node26&#45;&gt;Node24</title>
<path fill="none" stroke="midnightblue" d="M1528.41,-202.65C1416.13,-198.3 1149.78,-185.33 928.5,-154 920.98,-152.94 913.06,-151.55 905.35,-150.06"/>
<polygon fill="midnightblue" stroke="midnightblue" points="905.89,-146.6 895.4,-148.06 904.51,-153.46 905.89,-146.6"/>
</g>
<!-- Node26&#45;&gt;Node25 -->
<g id="edge50" class="edge">
<title>Node26&#45;&gt;Node25</title>
<path fill="none" stroke="midnightblue" d="M1538.49,-190.48C1501.6,-178.72 1449.57,-162.14 1414.97,-151.12"/>
<polygon fill="midnightblue" stroke="midnightblue" points="1415.86,-147.73 1405.27,-148.03 1413.73,-154.4 1415.86,-147.73"/>
</g>
<!-- Node27 -->
<g id="node27" class="node">
<title>Node27</title>
<g id="a_node27"><a xlink:title=" ">
<polygon fill="white" stroke="#bfbfbf" points="2219,-129 2219,-148 2358,-148 2358,-129 2219,-129"/>
<text text-anchor="middle" x="2288.5" y="-136" font-family="Helvetica,sans-Serif" font-size="10.00">flutter/method_channel.h</text>
</a>
</g>
</g>
<!-- Node26&#45;&gt;Node27 -->
<g id="edge43" class="edge">
<title>Node26&#45;&gt;Node27</title>
<path fill="none" stroke="midnightblue" d="M1636.75,-201.74C1745.01,-195.87 1995.45,-180.48 2204.5,-154 2213.87,-152.81 2223.79,-151.32 2233.4,-149.74"/>
<polygon fill="midnightblue" stroke="midnightblue" points="2233.99,-153.19 2243.27,-148.07 2232.83,-146.29 2233.99,-153.19"/>
</g>
<!-- Node28 -->
<g id="node28" class="node">
<title>Node28</title>
<g id="a_node28"><a xlink:title=" ">
<polygon fill="white" stroke="#bfbfbf" points="1676,-123.5 1676,-153.5 1795,-153.5 1795,-123.5 1676,-123.5"/>
<text text-anchor="start" x="1684" y="-141.5" font-family="Helvetica,sans-Serif" font-size="10.00">flutter/method_result</text>
<text text-anchor="middle" x="1735.5" y="-130.5" font-family="Helvetica,sans-Serif" font-size="10.00">_functions.h</text>
</a>
</g>
</g>
<!-- Node26&#45;&gt;Node28 -->
<g id="edge44" class="edge">
<title>Node26&#45;&gt;Node28</title>
<path fill="none" stroke="midnightblue" d="M1615.7,-190.4C1638.35,-180.77 1668.57,-167.94 1692.98,-157.56"/>
<polygon fill="midnightblue" stroke="midnightblue" points="1694.53,-160.71 1702.37,-153.58 1691.79,-154.27 1694.53,-160.71"/>
</g>
<!-- Node29 -->
<g id="node29" class="node">
<title>Node29</title>
<g id="a_node29"><a xlink:title=" ">
<polygon fill="white" stroke="#bfbfbf" points="1813,-123.5 1813,-153.5 1984,-153.5 1984,-123.5 1813,-123.5"/>
<text text-anchor="start" x="1821" y="-141.5" font-family="Helvetica,sans-Serif" font-size="10.00">flutter/shell/platform</text>
<text text-anchor="middle" x="1898.5" y="-130.5" font-family="Helvetica,sans-Serif" font-size="10.00">/common/json_method_codec.h</text>
</a>
</g>
</g>
<!-- Node26&#45;&gt;Node29 -->
<g id="edge46" class="edge">
<title>Node26&#45;&gt;Node29</title>
<path fill="none" stroke="midnightblue" d="M1636.82,-193.33C1687.35,-182.93 1763.19,-167.33 1820.24,-155.6"/>
<polygon fill="midnightblue" stroke="midnightblue" points="1821.21,-158.97 1830.3,-153.53 1819.8,-152.11 1821.21,-158.97"/>
</g>
<!-- Node30 -->
<g id="node30" class="node">
<title>Node30</title>
<g id="a_node30"><a xlink:title=" ">
<polygon fill="white" stroke="#bfbfbf" points="2002.5,-123.5 2002.5,-153.5 2162.5,-153.5 2162.5,-123.5 2002.5,-123.5"/>
<text text-anchor="start" x="2010.5" y="-141.5" font-family="Helvetica,sans-Serif" font-size="10.00">flutter/shell/platform</text>
<text text-anchor="middle" x="2082.5" y="-130.5" font-family="Helvetica,sans-Serif" font-size="10.00">/common/text_input_model.h</text>
</a>
</g>
</g>
<!-- Node26&#45;&gt;Node30 -->
<g id="edge47" class="edge">
<title>Node26&#45;&gt;Node30</title>
<path fill="none" stroke="midnightblue" d="M1636.78,-198.52C1713.58,-189.9 1858.63,-173.07 1992.45,-154.12"/>
<polygon fill="midnightblue" stroke="midnightblue" points="1993.06,-157.57 2002.47,-152.69 1992.08,-150.63 1993.06,-157.57"/>
</g>
<!-- Node31&#45;&gt;Node7 -->
<g id="edge53" class="edge">
<title>Node31&#45;&gt;Node7</title>
<path fill="none" stroke="midnightblue" d="M1056.97,-265.66C998.16,-263.43 902.96,-254.34 828.5,-221 808.61,-212.09 810.44,-198.8 790.5,-190 690.2,-145.76 650.82,-187.67 546.5,-154 545.07,-153.54 543.62,-153.01 542.18,-152.43"/>
<polygon fill="midnightblue" stroke="midnightblue" points="543.47,-149.17 532.93,-148.13 540.52,-155.52 543.47,-149.17"/>
</g>
<!-- Node31&#45;&gt;Node8 -->
<g id="edge54" class="edge">
<title>Node31&#45;&gt;Node8</title>
<path fill="none" stroke="midnightblue" d="M1166.09,-261.55C1262.76,-253.64 1470.35,-236.51 1645.5,-221 1966.51,-192.58 2053.61,-227.01 2367.5,-154 2370.5,-153.3 2373.58,-152.42 2376.62,-151.44"/>
<polygon fill="midnightblue" stroke="midnightblue" points="2377.85,-154.72 2386.1,-148.07 2375.5,-148.13 2377.85,-154.72"/>
</g>
<!-- Node31&#45;&gt;Node23 -->
<g id="edge60" class="edge">
<title>Node31&#45;&gt;Node23</title>
<path fill="none" stroke="midnightblue" d="M1119.54,-257.31C1138.91,-236.36 1188.4,-182.85 1213.47,-155.75"/>
<polygon fill="midnightblue" stroke="midnightblue" points="1216.18,-157.97 1220.4,-148.26 1211.04,-153.22 1216.18,-157.97"/>
</g>
<!-- Node32 -->
<g id="node32" class="node">
<title>Node32</title>
<g id="a_node32"><a xlink:href="configuration_8h.html" target="_top" xlink:title=" ">
<polygon fill="white" stroke="black" points="837.5,-196 837.5,-215 993.5,-215 993.5,-196 837.5,-196"/>
<text text-anchor="middle" x="915.5" y="-203" font-family="Helvetica,sans-Serif" font-size="10.00">configuration/configuration.h</text>
</a>
</g>
</g>
<!-- Node31&#45;&gt;Node32 -->
<g id="edge55" class="edge">
<title>Node31&#45;&gt;Node32</title>
<path fill="none" stroke="midnightblue" d="M1083.42,-257.48C1049.21,-247.09 991.3,-229.51 953.23,-217.95"/>
<polygon fill="midnightblue" stroke="midnightblue" points="954.12,-214.56 943.53,-215.01 952.08,-221.26 954.12,-214.56"/>
</g>
<!-- Node33 -->
<g id="node33" class="node">
<title>Node33</title>
<g id="a_node33"><a xlink:href="window_8h.html" target="_top" xlink:title=" ">
<polygon fill="white" stroke="black" points="2496,-196 2496,-215 2603,-215 2603,-196 2496,-196"/>
<text text-anchor="middle" x="2549.5" y="-203" font-family="Helvetica,sans-Serif" font-size="10.00">wayland/window.h</text>
</a>
</g>
</g>
<!-- Node31&#45;&gt;Node33 -->
<g id="edge61" class="edge">
<title>Node31&#45;&gt;Node33</title>
<path fill="none" stroke="midnightblue" d="M1166.12,-263.74C1390.94,-254.44 2244.38,-219.12 2485.63,-209.14"/>
<polygon fill="midnightblue" stroke="midnightblue" points="2486.13,-212.63 2495.98,-208.71 2485.84,-205.63 2486.13,-212.63"/>
</g>
<!-- Node32&#45;&gt;Node11 -->
<g id="edge56" class="edge">
<title>Node32&#45;&gt;Node11</title>
<path fill="none" stroke="midnightblue" d="M862.78,-195.99C779.43,-182.49 625.4,-157.35 613.5,-154 611.06,-153.31 608.56,-152.52 606.07,-151.65"/>
<polygon fill="midnightblue" stroke="midnightblue" points="607.25,-148.36 596.66,-148.11 604.79,-154.91 607.25,-148.36"/>
</g>
<!-- Node32&#45;&gt;Node12 -->
<g id="edge57" class="edge">
<title>Node32&#45;&gt;Node12</title>
<path fill="none" stroke="midnightblue" d="M842.32,-195.96C725.35,-182.3 507.6,-156.76 490.5,-154 478.2,-152.02 464.8,-149.4 452.98,-146.93"/>
<polygon fill="midnightblue" stroke="midnightblue" points="453.59,-143.48 443.08,-144.83 452.13,-150.33 453.59,-143.48"/>
</g>
<!-- Node32&#45;&gt;Node23 -->
<g id="edge58" class="edge">
<title>Node32&#45;&gt;Node23</title>
<path fill="none" stroke="midnightblue" d="M956.74,-195.94C1013.51,-184.15 1115.67,-162.93 1177.27,-150.14"/>
<polygon fill="midnightblue" stroke="midnightblue" points="1178.09,-153.54 1187.17,-148.08 1176.66,-146.69 1178.09,-153.54"/>
</g>
<!-- Node32&#45;&gt;Node24 -->
<g id="edge59" class="edge">
<title>Node32&#45;&gt;Node24</title>
<path fill="none" stroke="midnightblue" d="M907.81,-195.73C898.84,-185.5 883.81,-168.36 872.7,-155.69"/>
<polygon fill="midnightblue" stroke="midnightblue" points="875.29,-153.34 866.07,-148.13 870.03,-157.95 875.29,-153.34"/>
</g>
<!-- Node33&#45;&gt;Node8 -->
<g id="edge62" class="edge">
<title>Node33&#45;&gt;Node8</title>
<path fill="none" stroke="midnightblue" d="M2530.38,-195.87C2505.74,-184.75 2462.69,-165.32 2434.14,-152.43"/>
<polygon fill="midnightblue" stroke="midnightblue" points="2435.26,-149.09 2424.7,-148.17 2432.38,-155.47 2435.26,-149.09"/>
</g>
<!-- Node33&#45;&gt;Node11 -->
<g id="edge63" class="edge">
<title>Node33&#45;&gt;Node11</title>
<path fill="none" stroke="midnightblue" d="M2495.78,-203.65C2205.89,-199.01 834.22,-176.03 646.5,-154 634.4,-152.58 621.28,-150.07 609.76,-147.54"/>
<polygon fill="midnightblue" stroke="midnightblue" points="610.23,-144.06 599.71,-145.23 608.67,-150.88 610.23,-144.06"/>
</g>
<!-- Node33&#45;&gt;Node13 -->
<g id="edge67" class="edge">
<title>Node33&#45;&gt;Node13</title>
<path fill="none" stroke="midnightblue" d="M2543.84,-195.73C2537.41,-185.79 2526.78,-169.34 2518.67,-156.79"/>
<polygon fill="midnightblue" stroke="midnightblue" points="2521.44,-154.63 2513.07,-148.13 2515.56,-158.43 2521.44,-154.63"/>
</g>
<!-- Node33&#45;&gt;Node14 -->
<g id="edge66" class="edge">
<title>Node33&#45;&gt;Node14</title>
<path fill="none" stroke="midnightblue" d="M2556.42,-195.81C2568.69,-179.31 2591.2,-143.3 2571.5,-123 2545.7,-96.41 1375.55,-81.43 1125.29,-78.52"/>
<polygon fill="midnightblue" stroke="midnightblue" points="1125.12,-75.02 1115.08,-78.41 1125.04,-82.02 1125.12,-75.02"/>
</g>
<!-- Node34 -->
<g id="node34" class="node">
<title>Node34</title>
<g id="a_node34"><a xlink:title=" ">
<polygon fill="white" stroke="#bfbfbf" points="2618.5,-129 2618.5,-148 2670.5,-148 2670.5,-129 2618.5,-129"/>
<text text-anchor="middle" x="2644.5" y="-136" font-family="Helvetica,sans-Serif" font-size="10.00">cassert</text>
</a>
</g>
</g>
<!-- Node33&#45;&gt;Node34 -->
<g id="edge64" class="edge">
<title>Node33&#45;&gt;Node34</title>
<path fill="none" stroke="midnightblue" d="M2562.31,-195.73C2577.98,-185.01 2604.72,-166.72 2623.43,-153.91"/>
<polygon fill="midnightblue" stroke="midnightblue" points="2625.61,-156.66 2631.89,-148.13 2621.66,-150.89 2625.61,-156.66"/>
</g>
<!-- Node35 -->
<g id="node35" class="node">
<title>Node35</title>
<g id="a_node35"><a xlink:title=" ">
<polygon fill="white" stroke="#bfbfbf" points="2688.5,-129 2688.5,-148 2830.5,-148 2830.5,-129 2688.5,-129"/>
<text text-anchor="middle" x="2759.5" y="-136" font-family="Helvetica,sans-Serif" font-size="10.00">agl&#45;shell&#45;client&#45;protocol.h</text>
</a>
</g>
</g>
<!-- Node33&#45;&gt;Node35 -->
<g id="edge65" class="edge">
<title>Node33&#45;&gt;Node35</title>
<path fill="none" stroke="midnightblue" d="M2577.39,-195.87C2614.6,-184.35 2680.6,-163.92 2722.1,-151.08"/>
<polygon fill="midnightblue" stroke="midnightblue" points="2723.31,-154.36 2731.83,-148.06 2721.24,-147.68 2723.31,-154.36"/>
</g>
<!-- Node36 -->
<g id="node36" class="node">
<title>Node36</title>
<g id="a_node36"><a xlink:title=" ">
<polygon fill="white" stroke="#bfbfbf" points="2849,-129 2849,-148 2994,-148 2994,-129 2849,-129"/>
<text text-anchor="middle" x="2921.5" y="-136" font-family="Helvetica,sans-Serif" font-size="10.00">xdg&#45;shell&#45;client&#45;protocol.h</text>
</a>
</g>
</g>
<!-- Node33&#45;&gt;Node36 -->
<g id="edge68" class="edge">
<title>Node33&#45;&gt;Node36</title>
<path fill="none" stroke="midnightblue" d="M2598.77,-195.96C2656.47,-185.95 2754.94,-168.84 2839.5,-154 2847.21,-152.65 2855.33,-151.22 2863.33,-149.81"/>
<polygon fill="midnightblue" stroke="midnightblue" points="2864.14,-153.22 2873.37,-148.03 2862.92,-146.32 2864.14,-153.22"/>
</g>
</g>
</svg>
