<?xml version="1.0" encoding="UTF-8" standalone="no"?>
<!DOCTYPE svg PUBLIC "-//W3C//DTD SVG 1.1//EN"
 "http://www.w3.org/Graphics/SVG/1.1/DTD/svg11.dtd">
<!-- Generated by graphviz version 5.0.0 (0)
 -->
<!-- Title: /mnt/raid10/stargate/ivi&#45;homescreen/shell/engine.h Pages: 1 -->
<svg width="3395pt" height="478pt"
 viewBox="0.00 0.00 3394.92 478.00" xmlns="http://www.w3.org/2000/svg" xmlns:xlink="http://www.w3.org/1999/xlink">
<g id="graph0" class="graph" transform="scale(1 1) rotate(0) translate(4 474)">
<title>/mnt/raid10/stargate/ivi&#45;homescreen/shell/engine.h</title>
<!-- Node1 -->
<g id="node1" class="node">
<title>Node1</title>
<g id="a_node1"><a xlink:title=" ">
<polygon fill="#999999" stroke="#666666" points="1643,-470 1534,-470 1534,-429 1643,-429 1643,-470"/>
<text text-anchor="start" x="1542" y="-458" font-family="Helvetica,sans-Serif" font-size="10.00">/mnt/raid10/stargate</text>
<text text-anchor="start" x="1542" y="-447" font-family="Helvetica,sans-Serif" font-size="10.00">/ivi&#45;homescreen/shell</text>
<text text-anchor="middle" x="1588.5" y="-436" font-family="Helvetica,sans-Serif" font-size="10.00">/engine.h</text>
</a>
</g>
</g>
<!-- Node2 -->
<g id="node2" class="node">
<title>Node2</title>
<g id="a_node2"><a xlink:href="backend_8h.html" target="_top" xlink:title=" ">
<polygon fill="white" stroke="#666666" points="616,-387.5 507,-387.5 507,-346.5 616,-346.5 616,-387.5"/>
<text text-anchor="start" x="515" y="-375.5" font-family="Helvetica,sans-Serif" font-size="10.00">/mnt/raid10/stargate</text>
<text text-anchor="start" x="515" y="-364.5" font-family="Helvetica,sans-Serif" font-size="10.00">/ivi&#45;homescreen/shell</text>
<text text-anchor="middle" x="561.5" y="-353.5" font-family="Helvetica,sans-Serif" font-size="10.00">/backend/backend.h</text>
</a>
</g>
</g>
<!-- Node1&#45;&gt;Node2 -->
<g id="edge1" class="edge">
<title>Node1&#45;&gt;Node2</title>
<path fill="none" stroke="#63b8ff" d="M1523.72,-447.27C1335.93,-443.23 794.16,-428.49 621.5,-393 614.76,-391.61 607.79,-389.7 601.08,-387.54"/>
<polygon fill="#63b8ff" stroke="#63b8ff" points="1523.65,-450.77 1533.73,-447.49 1523.8,-443.77 1523.65,-450.77"/>
</g>
<!-- Node4 -->
<g id="node4" class="node">
<title>Node4</title>
<g id="a_node4"><a xlink:href="wayland__egl_8cc.html" target="_top" xlink:title=" ">
<polygon fill="white" stroke="#666666" points="127,-134.5 0,-134.5 0,-93.5 127,-93.5 127,-134.5"/>
<text text-anchor="start" x="8" y="-122.5" font-family="Helvetica,sans-Serif" font-size="10.00">/mnt/raid10/stargate</text>
<text text-anchor="start" x="8" y="-111.5" font-family="Helvetica,sans-Serif" font-size="10.00">/ivi&#45;homescreen/shell</text>
<text text-anchor="middle" x="63.5" y="-100.5" font-family="Helvetica,sans-Serif" font-size="10.00">/backend/wayland_egl.cc</text>
</a>
</g>
</g>
<!-- Node1&#45;&gt;Node4 -->
<g id="edge29" class="edge">
<title>Node1&#45;&gt;Node4</title>
<path fill="none" stroke="#63b8ff" d="M1523.72,-448.76C1269.88,-449.41 351,-447.88 233.5,-393 126.37,-342.96 80.86,-189.33 67.75,-134.61"/>
<polygon fill="#63b8ff" stroke="#63b8ff" points="1523.9,-452.26 1533.89,-448.74 1523.88,-445.26 1523.9,-452.26"/>
</g>
<!-- Node5 -->
<g id="node5" class="node">
<title>Node5</title>
<g id="a_node5"><a xlink:href="gstreamer__egl_8cc.html" target="_top" xlink:title=" ">
<polygon fill="white" stroke="#666666" points="271.5,-140 145.5,-140 145.5,-88 271.5,-88 271.5,-140"/>
<text text-anchor="start" x="153.5" y="-128" font-family="Helvetica,sans-Serif" font-size="10.00">/mnt/raid10/stargate</text>
<text text-anchor="start" x="153.5" y="-117" font-family="Helvetica,sans-Serif" font-size="10.00">/ivi&#45;homescreen/shell</text>
<text text-anchor="start" x="153.5" y="-106" font-family="Helvetica,sans-Serif" font-size="10.00">/static_plugins/gstreamer</text>
<text text-anchor="middle" x="208.5" y="-95" font-family="Helvetica,sans-Serif" font-size="10.00">_egl/gstreamer_egl.cc</text>
</a>
</g>
</g>
<!-- Node1&#45;&gt;Node5 -->
<g id="edge36" class="edge">
<title>Node1&#45;&gt;Node5</title>
<path fill="none" stroke="#63b8ff" d="M1523.71,-447.57C1288.56,-443.92 488.23,-428.95 379.5,-393 254.85,-351.79 196.17,-343.89 134.5,-228 123.64,-207.6 124.64,-196.9 134.5,-176 141.25,-161.69 153.18,-149.61 165.51,-140.06"/>
<polygon fill="#63b8ff" stroke="#63b8ff" points="1523.76,-451.07 1533.82,-447.73 1523.87,-444.07 1523.76,-451.07"/>
</g>
<!-- Node9 -->
<g id="node9" class="node">
<title>Node9</title>
<g id="a_node9"><a xlink:href="wayland__vulkan_8cc.html" target="_top" xlink:title=" ">
<polygon fill="white" stroke="#666666" points="287,-222.5 144,-222.5 144,-181.5 287,-181.5 287,-222.5"/>
<text text-anchor="start" x="152" y="-210.5" font-family="Helvetica,sans-Serif" font-size="10.00">/mnt/raid10/stargate</text>
<text text-anchor="start" x="152" y="-199.5" font-family="Helvetica,sans-Serif" font-size="10.00">/ivi&#45;homescreen/shell</text>
<text text-anchor="middle" x="215.5" y="-188.5" font-family="Helvetica,sans-Serif" font-size="10.00">/backend/wayland_vulkan.cc</text>
</a>
</g>
</g>
<!-- Node1&#45;&gt;Node9 -->
<g id="edge30" class="edge">
<title>Node1&#45;&gt;Node9</title>
<path fill="none" stroke="#63b8ff" d="M1523.53,-448.83C1319.47,-449.29 693.32,-446.22 498.5,-393 385.18,-362.04 277.45,-264.86 234.77,-222.76"/>
<polygon fill="#63b8ff" stroke="#63b8ff" points="1523.8,-452.33 1533.79,-448.8 1523.78,-445.33 1523.8,-452.33"/>
</g>
<!-- Node12 -->
<g id="node12" class="node">
<title>Node12</title>
<g id="a_node12"><a xlink:href="flutter__view_8cc.html" target="_top" xlink:title=" ">
<polygon fill="white" stroke="#666666" points="1216,-134.5 1107,-134.5 1107,-93.5 1216,-93.5 1216,-134.5"/>
<text text-anchor="start" x="1115" y="-122.5" font-family="Helvetica,sans-Serif" font-size="10.00">/mnt/raid10/stargate</text>
<text text-anchor="start" x="1115" y="-111.5" font-family="Helvetica,sans-Serif" font-size="10.00">/ivi&#45;homescreen/shell</text>
<text text-anchor="middle" x="1161.5" y="-100.5" font-family="Helvetica,sans-Serif" font-size="10.00">/view/flutter_view.cc</text>
</a>
</g>
</g>
<!-- Node1&#45;&gt;Node12 -->
<g id="edge50" class="edge">
<title>Node1&#45;&gt;Node12</title>
<path fill="none" stroke="#63b8ff" d="M1523.67,-448C1363.64,-446.08 959.9,-436.89 919.5,-393 832.18,-298.13 1032.25,-180.38 1121.39,-134.54"/>
<polygon fill="#63b8ff" stroke="#63b8ff" points="1523.81,-451.5 1533.85,-448.11 1523.89,-444.5 1523.81,-451.5"/>
</g>
<!-- Node17 -->
<g id="node17" class="node">
<title>Node17</title>
<g id="a_node17"><a xlink:href="comp__region_8cc.html" target="_top" xlink:title=" ">
<polygon fill="white" stroke="#666666" points="1372.5,-140 1234.5,-140 1234.5,-88 1372.5,-88 1372.5,-140"/>
<text text-anchor="start" x="1242.5" y="-128" font-family="Helvetica,sans-Serif" font-size="10.00">/mnt/raid10/stargate</text>
<text text-anchor="start" x="1242.5" y="-117" font-family="Helvetica,sans-Serif" font-size="10.00">/ivi&#45;homescreen/shell</text>
<text text-anchor="start" x="1242.5" y="-106" font-family="Helvetica,sans-Serif" font-size="10.00">/static_plugins/comp_region</text>
<text text-anchor="middle" x="1303.5" y="-95" font-family="Helvetica,sans-Serif" font-size="10.00">/comp_region.cc</text>
</a>
</g>
</g>
<!-- Node1&#45;&gt;Node17 -->
<g id="edge33" class="edge">
<title>Node1&#45;&gt;Node17</title>
<path fill="none" stroke="#63b8ff" d="M1523.99,-447.87C1366.79,-445.65 973.87,-435.85 934.5,-393 918.86,-375.98 923.2,-361.16 934.5,-341 969.33,-278.82 1155.26,-184.65 1249.15,-140.08"/>
<polygon fill="#63b8ff" stroke="#63b8ff" points="1523.95,-451.37 1534,-448 1524.05,-444.37 1523.95,-451.37"/>
</g>
<!-- Node19 -->
<g id="node19" class="node">
<title>Node19</title>
<g id="a_node19"><a xlink:href="opengl__texture_8cc.html" target="_top" xlink:title=" ">
<polygon fill="white" stroke="#666666" points="2247.5,-52 2115.5,-52 2115.5,0 2247.5,0 2247.5,-52"/>
<text text-anchor="start" x="2123.5" y="-40" font-family="Helvetica,sans-Serif" font-size="10.00">/mnt/raid10/stargate</text>
<text text-anchor="start" x="2123.5" y="-29" font-family="Helvetica,sans-Serif" font-size="10.00">/ivi&#45;homescreen/shell</text>
<text text-anchor="start" x="2123.5" y="-18" font-family="Helvetica,sans-Serif" font-size="10.00">/static_plugins/opengl</text>
<text text-anchor="middle" x="2181.5" y="-7" font-family="Helvetica,sans-Serif" font-size="10.00">_texture/opengl_texture.cc</text>
</a>
</g>
</g>
<!-- Node1&#45;&gt;Node19 -->
<g id="edge41" class="edge">
<title>Node1&#45;&gt;Node19</title>
<path fill="none" stroke="#63b8ff" d="M1653.48,-448.74C1965.49,-449.62 3297.67,-449.99 3363.5,-393 3400.18,-361.24 3382.5,-334.02 3382.5,-285.5 3382.5,-285.5 3382.5,-285.5 3382.5,-201 3382.5,-85.39 2499.56,-40.11 2247.78,-29.55"/>
<polygon fill="#63b8ff" stroke="#63b8ff" points="1653.25,-445.24 1643.24,-448.71 1653.23,-452.24 1653.25,-445.24"/>
</g>
<!-- Node22 -->
<g id="node22" class="node">
<title>Node22</title>
<g id="a_node22"><a xlink:href="window_8cc.html" target="_top" xlink:title=" ">
<polygon fill="white" stroke="#666666" points="865,-222.5 756,-222.5 756,-181.5 865,-181.5 865,-222.5"/>
<text text-anchor="start" x="764" y="-210.5" font-family="Helvetica,sans-Serif" font-size="10.00">/mnt/raid10/stargate</text>
<text text-anchor="start" x="764" y="-199.5" font-family="Helvetica,sans-Serif" font-size="10.00">/ivi&#45;homescreen/shell</text>
<text text-anchor="middle" x="810.5" y="-188.5" font-family="Helvetica,sans-Serif" font-size="10.00">/wayland/window.cc</text>
</a>
</g>
</g>
<!-- Node1&#45;&gt;Node22 -->
<g id="edge52" class="edge">
<title>Node1&#45;&gt;Node22</title>
<path fill="none" stroke="#63b8ff" d="M1523.64,-447.74C1355.09,-445.19 912.87,-434.57 862.5,-393 810.93,-350.44 807.8,-262.08 809.2,-222.69"/>
<polygon fill="#63b8ff" stroke="#63b8ff" points="1523.81,-451.25 1533.86,-447.89 1523.91,-444.25 1523.81,-451.25"/>
</g>
<!-- Node23 -->
<g id="node23" class="node">
<title>Node23</title>
<g id="a_node23"><a xlink:href="engine_8cc.html" target="_top" xlink:title=" ">
<polygon fill="white" stroke="#666666" points="1052,-387.5 943,-387.5 943,-346.5 1052,-346.5 1052,-387.5"/>
<text text-anchor="start" x="951" y="-375.5" font-family="Helvetica,sans-Serif" font-size="10.00">/mnt/raid10/stargate</text>
<text text-anchor="start" x="951" y="-364.5" font-family="Helvetica,sans-Serif" font-size="10.00">/ivi&#45;homescreen/shell</text>
<text text-anchor="middle" x="997.5" y="-353.5" font-family="Helvetica,sans-Serif" font-size="10.00">/engine.cc</text>
</a>
</g>
</g>
<!-- Node1&#45;&gt;Node23 -->
<g id="edge31" class="edge">
<title>Node1&#45;&gt;Node23</title>
<path fill="none" stroke="#63b8ff" d="M1523.53,-447.22C1423.09,-444 1224.67,-432.7 1061.5,-393 1055.47,-391.53 1049.25,-389.63 1043.17,-387.53"/>
<polygon fill="#63b8ff" stroke="#63b8ff" points="1523.72,-450.73 1533.82,-447.53 1523.93,-443.73 1523.72,-450.73"/>
</g>
<!-- Node24 -->
<g id="node24" class="node">
<title>Node24</title>
<g id="a_node24"><a xlink:href="accessibility_8cc.html" target="_top" xlink:title=" ">
<polygon fill="white" stroke="#666666" points="1207,-393 1070,-393 1070,-341 1207,-341 1207,-393"/>
<text text-anchor="start" x="1078" y="-381" font-family="Helvetica,sans-Serif" font-size="10.00">/mnt/raid10/stargate</text>
<text text-anchor="start" x="1078" y="-370" font-family="Helvetica,sans-Serif" font-size="10.00">/ivi&#45;homescreen/shell</text>
<text text-anchor="start" x="1078" y="-359" font-family="Helvetica,sans-Serif" font-size="10.00">/static_plugins/accessibility</text>
<text text-anchor="middle" x="1138.5" y="-348" font-family="Helvetica,sans-Serif" font-size="10.00">/accessibility.cc</text>
</a>
</g>
</g>
<!-- Node1&#45;&gt;Node24 -->
<g id="edge32" class="edge">
<title>Node1&#45;&gt;Node24</title>
<path fill="none" stroke="#63b8ff" d="M1523.57,-442.04C1448.86,-433.87 1322.79,-417.79 1216.5,-393 1213.45,-392.29 1210.35,-391.52 1207.23,-390.7"/>
<polygon fill="#63b8ff" stroke="#63b8ff" points="1523.45,-445.55 1533.76,-443.14 1524.2,-438.59 1523.45,-445.55"/>
</g>
<!-- Node25 -->
<g id="node25" class="node">
<title>Node25</title>
<g id="a_node25"><a xlink:href="comp__surf_8cc.html" target="_top" xlink:title=" ">
<polygon fill="white" stroke="#666666" points="1353.5,-393 1225.5,-393 1225.5,-341 1353.5,-341 1353.5,-393"/>
<text text-anchor="start" x="1233.5" y="-381" font-family="Helvetica,sans-Serif" font-size="10.00">/mnt/raid10/stargate</text>
<text text-anchor="start" x="1233.5" y="-370" font-family="Helvetica,sans-Serif" font-size="10.00">/ivi&#45;homescreen/shell</text>
<text text-anchor="start" x="1233.5" y="-359" font-family="Helvetica,sans-Serif" font-size="10.00">/static_plugins/comp_surf</text>
<text text-anchor="middle" x="1289.5" y="-348" font-family="Helvetica,sans-Serif" font-size="10.00">/comp_surf.cc</text>
</a>
</g>
</g>
<!-- Node1&#45;&gt;Node25 -->
<g id="edge34" class="edge">
<title>Node1&#45;&gt;Node25</title>
<path fill="none" stroke="#63b8ff" d="M1523.64,-434.02C1478.48,-423.57 1417,-408.61 1363.5,-393 1360.25,-392.05 1356.92,-391.05 1353.57,-390.01"/>
<polygon fill="#63b8ff" stroke="#63b8ff" points="1523.07,-437.48 1533.6,-436.32 1524.64,-430.66 1523.07,-437.48"/>
</g>
<!-- Node26 -->
<g id="node26" class="node">
<title>Node26</title>
<g id="a_node26"><a xlink:href="desktop__window_8cc.html" target="_top" xlink:title=" ">
<polygon fill="white" stroke="#666666" points="1515,-393 1372,-393 1372,-341 1515,-341 1515,-393"/>
<text text-anchor="start" x="1380" y="-381" font-family="Helvetica,sans-Serif" font-size="10.00">/mnt/raid10/stargate</text>
<text text-anchor="start" x="1380" y="-370" font-family="Helvetica,sans-Serif" font-size="10.00">/ivi&#45;homescreen/shell</text>
<text text-anchor="start" x="1380" y="-359" font-family="Helvetica,sans-Serif" font-size="10.00">/static_plugins/desktop</text>
<text text-anchor="middle" x="1443.5" y="-348" font-family="Helvetica,sans-Serif" font-size="10.00">_window/desktop_window.cc</text>
</a>
</g>
</g>
<!-- Node1&#45;&gt;Node26 -->
<g id="edge35" class="edge">
<title>Node1&#45;&gt;Node26</title>
<path fill="none" stroke="#63b8ff" d="M1544.11,-423.86C1526.56,-414.11 1506.4,-402.92 1488.76,-393.13"/>
<polygon fill="#63b8ff" stroke="#63b8ff" points="1542.59,-427.01 1553.03,-428.81 1545.98,-420.89 1542.59,-427.01"/>
</g>
<!-- Node27 -->
<g id="node27" class="node">
<title>Node27</title>
<g id="a_node27"><a xlink:href="isolate_8cc.html" target="_top" xlink:title=" ">
<polygon fill="white" stroke="#666666" points="1644,-393 1533,-393 1533,-341 1644,-341 1644,-393"/>
<text text-anchor="start" x="1541" y="-381" font-family="Helvetica,sans-Serif" font-size="10.00">/mnt/raid10/stargate</text>
<text text-anchor="start" x="1541" y="-370" font-family="Helvetica,sans-Serif" font-size="10.00">/ivi&#45;homescreen/shell</text>
<text text-anchor="start" x="1541" y="-359" font-family="Helvetica,sans-Serif" font-size="10.00">/static_plugins/isolate</text>
<text text-anchor="middle" x="1588.5" y="-348" font-family="Helvetica,sans-Serif" font-size="10.00">/isolate.cc</text>
</a>
</g>
</g>
<!-- Node1&#45;&gt;Node27 -->
<g id="edge37" class="edge">
<title>Node1&#45;&gt;Node27</title>
<path fill="none" stroke="#63b8ff" d="M1588.5,-418.49C1588.5,-410.15 1588.5,-401.19 1588.5,-393.16"/>
<polygon fill="#63b8ff" stroke="#63b8ff" points="1585,-418.6 1588.5,-428.6 1592,-418.6 1585,-418.6"/>
</g>
<!-- Node28 -->
<g id="node28" class="node">
<title>Node28</title>
<g id="a_node28"><a xlink:href="key__event_8cc.html" target="_top" xlink:title=" ">
<polygon fill="white" stroke="#666666" points="1790.5,-393 1662.5,-393 1662.5,-341 1790.5,-341 1790.5,-393"/>
<text text-anchor="start" x="1670.5" y="-381" font-family="Helvetica,sans-Serif" font-size="10.00">/mnt/raid10/stargate</text>
<text text-anchor="start" x="1670.5" y="-370" font-family="Helvetica,sans-Serif" font-size="10.00">/ivi&#45;homescreen/shell</text>
<text text-anchor="start" x="1670.5" y="-359" font-family="Helvetica,sans-Serif" font-size="10.00">/static_plugins/key_event</text>
<text text-anchor="middle" x="1726.5" y="-348" font-family="Helvetica,sans-Serif" font-size="10.00">/key_event.cc</text>
</a>
</g>
</g>
<!-- Node1&#45;&gt;Node28 -->
<g id="edge38" class="edge">
<title>Node1&#45;&gt;Node28</title>
<path fill="none" stroke="#63b8ff" d="M1631.2,-423.59C1647.8,-413.91 1666.79,-402.83 1683.42,-393.13"/>
<polygon fill="#63b8ff" stroke="#63b8ff" points="1629.13,-420.75 1622.26,-428.81 1632.66,-426.79 1629.13,-420.75"/>
</g>
<!-- Node29 -->
<g id="node29" class="node">
<title>Node29</title>
<g id="a_node29"><a xlink:href="mouse__cursor_8cc.html" target="_top" xlink:title=" ">
<polygon fill="white" stroke="#666666" points="1936,-393 1809,-393 1809,-341 1936,-341 1936,-393"/>
<text text-anchor="start" x="1817" y="-381" font-family="Helvetica,sans-Serif" font-size="10.00">/mnt/raid10/stargate</text>
<text text-anchor="start" x="1817" y="-370" font-family="Helvetica,sans-Serif" font-size="10.00">/ivi&#45;homescreen/shell</text>
<text text-anchor="start" x="1817" y="-359" font-family="Helvetica,sans-Serif" font-size="10.00">/static_plugins/mouse</text>
<text text-anchor="middle" x="1872.5" y="-348" font-family="Helvetica,sans-Serif" font-size="10.00">_cursor/mouse_cursor.cc</text>
</a>
</g>
</g>
<!-- Node1&#45;&gt;Node29 -->
<g id="edge39" class="edge">
<title>Node1&#45;&gt;Node29</title>
<path fill="none" stroke="#63b8ff" d="M1652.83,-432.87C1694.8,-422.36 1750.66,-407.76 1799.5,-393 1802.58,-392.07 1805.72,-391.09 1808.89,-390.09"/>
<polygon fill="#63b8ff" stroke="#63b8ff" points="1651.87,-429.5 1643.01,-435.32 1653.56,-436.3 1651.87,-429.5"/>
</g>
<!-- Node30 -->
<g id="node30" class="node">
<title>Node30</title>
<g id="a_node30"><a xlink:href="navigation_8cc.html" target="_top" xlink:title=" ">
<polygon fill="white" stroke="#666666" points="2081,-393 1954,-393 1954,-341 2081,-341 2081,-393"/>
<text text-anchor="start" x="1962" y="-381" font-family="Helvetica,sans-Serif" font-size="10.00">/mnt/raid10/stargate</text>
<text text-anchor="start" x="1962" y="-370" font-family="Helvetica,sans-Serif" font-size="10.00">/ivi&#45;homescreen/shell</text>
<text text-anchor="start" x="1962" y="-359" font-family="Helvetica,sans-Serif" font-size="10.00">/static_plugins/navigation</text>
<text text-anchor="middle" x="2017.5" y="-348" font-family="Helvetica,sans-Serif" font-size="10.00">/navigation.cc</text>
</a>
</g>
</g>
<!-- Node1&#45;&gt;Node30 -->
<g id="edge40" class="edge">
<title>Node1&#45;&gt;Node30</title>
<path fill="none" stroke="#63b8ff" d="M1653.52,-441.95C1725.61,-433.87 1845,-418.04 1945.5,-393 1948.2,-392.33 1950.93,-391.6 1953.69,-390.82"/>
<polygon fill="#63b8ff" stroke="#63b8ff" points="1652.79,-438.51 1643.24,-443.09 1653.56,-445.47 1652.79,-438.51"/>
</g>
<!-- Node31 -->
<g id="node31" class="node">
<title>Node31</title>
<g id="a_node31"><a xlink:href="package__info_8cc.html" target="_top" xlink:title=" ">
<polygon fill="white" stroke="#666666" points="2218,-393 2099,-393 2099,-341 2218,-341 2218,-393"/>
<text text-anchor="start" x="2107" y="-381" font-family="Helvetica,sans-Serif" font-size="10.00">/mnt/raid10/stargate</text>
<text text-anchor="start" x="2107" y="-370" font-family="Helvetica,sans-Serif" font-size="10.00">/ivi&#45;homescreen/shell</text>
<text text-anchor="start" x="2107" y="-359" font-family="Helvetica,sans-Serif" font-size="10.00">/static_plugins/package</text>
<text text-anchor="middle" x="2158.5" y="-348" font-family="Helvetica,sans-Serif" font-size="10.00">_info/package_info.cc</text>
</a>
</g>
</g>
<!-- Node1&#45;&gt;Node31 -->
<g id="edge42" class="edge">
<title>Node1&#45;&gt;Node31</title>
<path fill="none" stroke="#63b8ff" d="M1653.27,-446.34C1749.72,-442.01 1936.3,-429.3 2090.5,-393 2093.19,-392.37 2095.93,-391.66 2098.67,-390.89"/>
<polygon fill="#63b8ff" stroke="#63b8ff" points="1652.93,-442.85 1643.09,-446.78 1653.23,-449.85 1652.93,-442.85"/>
</g>
<!-- Node32 -->
<g id="node32" class="node">
<title>Node32</title>
<g id="a_node32"><a xlink:href="platform_8cc.html" target="_top" xlink:title=" ">
<polygon fill="white" stroke="#666666" points="2354.5,-393 2236.5,-393 2236.5,-341 2354.5,-341 2354.5,-393"/>
<text text-anchor="start" x="2244.5" y="-381" font-family="Helvetica,sans-Serif" font-size="10.00">/mnt/raid10/stargate</text>
<text text-anchor="start" x="2244.5" y="-370" font-family="Helvetica,sans-Serif" font-size="10.00">/ivi&#45;homescreen/shell</text>
<text text-anchor="start" x="2244.5" y="-359" font-family="Helvetica,sans-Serif" font-size="10.00">/static_plugins/platform</text>
<text text-anchor="middle" x="2295.5" y="-348" font-family="Helvetica,sans-Serif" font-size="10.00">/platform.cc</text>
</a>
</g>
</g>
<!-- Node1&#45;&gt;Node32 -->
<g id="edge43" class="edge">
<title>Node1&#45;&gt;Node32</title>
<path fill="none" stroke="#63b8ff" d="M1653.26,-448.52C1769.64,-447.3 2021.25,-439.01 2227.5,-393 2230.45,-392.34 2233.44,-391.59 2236.44,-390.76"/>
<polygon fill="#63b8ff" stroke="#63b8ff" points="1653.06,-445.02 1643.1,-448.61 1653.13,-452.02 1653.06,-445.02"/>
</g>
<!-- Node33 -->
<g id="node33" class="node">
<title>Node33</title>
<g id="a_node33"><a xlink:href="platform__views_8cc.html" target="_top" xlink:title=" ">
<polygon fill="white" stroke="#666666" points="2502.5,-393 2372.5,-393 2372.5,-341 2502.5,-341 2502.5,-393"/>
<text text-anchor="start" x="2380.5" y="-381" font-family="Helvetica,sans-Serif" font-size="10.00">/mnt/raid10/stargate</text>
<text text-anchor="start" x="2380.5" y="-370" font-family="Helvetica,sans-Serif" font-size="10.00">/ivi&#45;homescreen/shell</text>
<text text-anchor="start" x="2380.5" y="-359" font-family="Helvetica,sans-Serif" font-size="10.00">/static_plugins/platform</text>
<text text-anchor="middle" x="2437.5" y="-348" font-family="Helvetica,sans-Serif" font-size="10.00">_views/platform_views.cc</text>
</a>
</g>
</g>
<!-- Node1&#45;&gt;Node33 -->
<g id="edge44" class="edge">
<title>Node1&#45;&gt;Node33</title>
<path fill="none" stroke="#63b8ff" d="M1653.26,-449.38C1787.26,-450 2104.12,-445.21 2363.5,-393 2366.42,-392.41 2369.39,-391.74 2372.38,-391"/>
<polygon fill="#63b8ff" stroke="#63b8ff" points="1653.18,-445.88 1643.16,-449.32 1653.14,-452.88 1653.18,-445.88"/>
</g>
<!-- Node34 -->
<g id="node34" class="node">
<title>Node34</title>
<g id="a_node34"><a xlink:href="restoration_8cc.html" target="_top" xlink:title=" ">
<polygon fill="white" stroke="#666666" points="2648.5,-393 2520.5,-393 2520.5,-341 2648.5,-341 2648.5,-393"/>
<text text-anchor="start" x="2528.5" y="-381" font-family="Helvetica,sans-Serif" font-size="10.00">/mnt/raid10/stargate</text>
<text text-anchor="start" x="2528.5" y="-370" font-family="Helvetica,sans-Serif" font-size="10.00">/ivi&#45;homescreen/shell</text>
<text text-anchor="start" x="2528.5" y="-359" font-family="Helvetica,sans-Serif" font-size="10.00">/static_plugins/restoration</text>
<text text-anchor="middle" x="2584.5" y="-348" font-family="Helvetica,sans-Serif" font-size="10.00">/restoration.cc</text>
</a>
</g>
</g>
<!-- Node1&#45;&gt;Node34 -->
<g id="edge45" class="edge">
<title>Node1&#45;&gt;Node34</title>
<path fill="none" stroke="#63b8ff" d="M1653.27,-446.88C1834.95,-441.96 2346.77,-425.54 2511.5,-393 2514.39,-392.43 2517.32,-391.77 2520.27,-391.05"/>
<polygon fill="#63b8ff" stroke="#63b8ff" points="1652.98,-443.38 1643.07,-447.15 1653.16,-450.38 1652.98,-443.38"/>
</g>
<!-- Node35 -->
<g id="node35" class="node">
<title>Node35</title>
<g id="a_node35"><a xlink:href="secure__storage_8cc.html" target="_top" xlink:title=" ">
<polygon fill="white" stroke="#666666" points="2804,-393 2667,-393 2667,-341 2804,-341 2804,-393"/>
<text text-anchor="start" x="2675" y="-381" font-family="Helvetica,sans-Serif" font-size="10.00">/mnt/raid10/stargate</text>
<text text-anchor="start" x="2675" y="-370" font-family="Helvetica,sans-Serif" font-size="10.00">/ivi&#45;homescreen/shell</text>
<text text-anchor="start" x="2675" y="-359" font-family="Helvetica,sans-Serif" font-size="10.00">/static_plugins/secure</text>
<text text-anchor="middle" x="2735.5" y="-348" font-family="Helvetica,sans-Serif" font-size="10.00">_storage/secure_storage.cc</text>
</a>
</g>
</g>
<!-- Node1&#45;&gt;Node35 -->
<g id="edge46" class="edge">
<title>Node1&#45;&gt;Node35</title>
<path fill="none" stroke="#63b8ff" d="M1653.28,-447.33C1853.9,-443.35 2463.11,-428.58 2657.5,-393 2660.58,-392.44 2663.7,-391.79 2666.84,-391.07"/>
<polygon fill="#63b8ff" stroke="#63b8ff" points="1653.12,-443.83 1643.19,-447.52 1653.26,-450.83 1653.12,-443.83"/>
</g>
<!-- Node36 -->
<g id="node36" class="node">
<title>Node36</title>
<g id="a_node36"><a xlink:href="text__input_8cc.html" target="_top" xlink:title=" ">
<polygon fill="white" stroke="#666666" points="2947,-393 2822,-393 2822,-341 2947,-341 2947,-393"/>
<text text-anchor="start" x="2830" y="-381" font-family="Helvetica,sans-Serif" font-size="10.00">/mnt/raid10/stargate</text>
<text text-anchor="start" x="2830" y="-370" font-family="Helvetica,sans-Serif" font-size="10.00">/ivi&#45;homescreen/shell</text>
<text text-anchor="start" x="2830" y="-359" font-family="Helvetica,sans-Serif" font-size="10.00">/static_plugins/text_input</text>
<text text-anchor="middle" x="2884.5" y="-348" font-family="Helvetica,sans-Serif" font-size="10.00">/text_input.cc</text>
</a>
</g>
</g>
<!-- Node1&#45;&gt;Node36 -->
<g id="edge47" class="edge">
<title>Node1&#45;&gt;Node36</title>
<path fill="none" stroke="#63b8ff" d="M1653.25,-448.06C1872.86,-446.19 2588.11,-436.79 2813.5,-393 2816.19,-392.48 2818.92,-391.87 2821.67,-391.2"/>
<polygon fill="#63b8ff" stroke="#63b8ff" points="1653.15,-444.56 1643.18,-448.15 1653.2,-451.56 1653.15,-444.56"/>
</g>
<!-- Node37 -->
<g id="node37" class="node">
<title>Node37</title>
<g id="a_node37"><a xlink:href="url__launcher_8cc.html" target="_top" xlink:title=" ">
<polygon fill="white" stroke="#666666" points="3100,-393 2965,-393 2965,-341 3100,-341 3100,-393"/>
<text text-anchor="start" x="2973" y="-381" font-family="Helvetica,sans-Serif" font-size="10.00">/mnt/raid10/stargate</text>
<text text-anchor="start" x="2973" y="-370" font-family="Helvetica,sans-Serif" font-size="10.00">/ivi&#45;homescreen/shell</text>
<text text-anchor="start" x="2973" y="-359" font-family="Helvetica,sans-Serif" font-size="10.00">/static_plugins/url_launcher</text>
<text text-anchor="middle" x="3032.5" y="-348" font-family="Helvetica,sans-Serif" font-size="10.00">/url_launcher.cc</text>
</a>
</g>
</g>
<!-- Node1&#45;&gt;Node37 -->
<g id="edge48" class="edge">
<title>Node1&#45;&gt;Node37</title>
<path fill="none" stroke="#63b8ff" d="M1653.5,-448.24C1889.65,-446.95 2701.69,-439.15 2956.5,-393 2959.23,-392.5 2962,-391.93 2964.79,-391.3"/>
<polygon fill="#63b8ff" stroke="#63b8ff" points="1653.33,-444.75 1643.35,-448.3 1653.37,-451.75 1653.33,-444.75"/>
</g>
<!-- Node38 -->
<g id="node38" class="node">
<title>Node38</title>
<g id="a_node38"><a xlink:href="texture_8cc.html" target="_top" xlink:title=" ">
<polygon fill="white" stroke="#666666" points="3227,-387.5 3118,-387.5 3118,-346.5 3227,-346.5 3227,-387.5"/>
<text text-anchor="start" x="3126" y="-375.5" font-family="Helvetica,sans-Serif" font-size="10.00">/mnt/raid10/stargate</text>
<text text-anchor="start" x="3126" y="-364.5" font-family="Helvetica,sans-Serif" font-size="10.00">/ivi&#45;homescreen/shell</text>
<text text-anchor="middle" x="3172.5" y="-353.5" font-family="Helvetica,sans-Serif" font-size="10.00">/textures/texture.cc</text>
</a>
</g>
</g>
<!-- Node1&#45;&gt;Node38 -->
<g id="edge49" class="edge">
<title>Node1&#45;&gt;Node38</title>
<path fill="none" stroke="#63b8ff" d="M1653.28,-447.44C1925.07,-442.79 2965.81,-423.19 3109.5,-393 3115.83,-391.67 3122.35,-389.76 3128.69,-387.57"/>
<polygon fill="#63b8ff" stroke="#63b8ff" points="1653.12,-443.94 1643.18,-447.61 1653.24,-450.94 1653.12,-443.94"/>
</g>
<!-- Node39 -->
<g id="node39" class="node">
<title>Node39</title>
<g id="a_node39"><a xlink:href="display_8cc.html" target="_top" xlink:title=" ">
<polygon fill="white" stroke="#666666" points="3354,-387.5 3245,-387.5 3245,-346.5 3354,-346.5 3354,-387.5"/>
<text text-anchor="start" x="3253" y="-375.5" font-family="Helvetica,sans-Serif" font-size="10.00">/mnt/raid10/stargate</text>
<text text-anchor="start" x="3253" y="-364.5" font-family="Helvetica,sans-Serif" font-size="10.00">/ivi&#45;homescreen/shell</text>
<text text-anchor="middle" x="3299.5" y="-353.5" font-family="Helvetica,sans-Serif" font-size="10.00">/wayland/display.cc</text>
</a>
</g>
</g>
<!-- Node1&#45;&gt;Node39 -->
<g id="edge51" class="edge">
<title>Node1&#45;&gt;Node39</title>
<path fill="none" stroke="#63b8ff" d="M1653.44,-447.63C1939.48,-443.62 3079.84,-425.69 3236.5,-393 3242.84,-391.68 3249.36,-389.77 3255.69,-387.59"/>
<polygon fill="#63b8ff" stroke="#63b8ff" points="1653.18,-444.13 1643.23,-447.77 1653.28,-451.13 1653.18,-444.13"/>
</g>
<!-- Node2&#45;&gt;Node1 -->
<g id="edge9" class="edge">
<title>Node2&#45;&gt;Node1</title>
<path fill="none" stroke="#63b8ff" d="M626.09,-389.69C630.6,-390.97 635.1,-392.1 639.5,-393 812.89,-428.64 1358.51,-443.35 1533.79,-447.32"/>
<polygon fill="#63b8ff" stroke="#63b8ff" points="626.83,-386.25 616.24,-386.69 624.79,-392.95 626.83,-386.25"/>
</g>
<!-- Node3 -->
<g id="node3" class="node">
<title>Node3</title>
<g id="a_node3"><a xlink:href="wayland__egl_8h.html" target="_top" xlink:title=" ">
<polygon fill="white" stroke="#666666" points="571.5,-222.5 449.5,-222.5 449.5,-181.5 571.5,-181.5 571.5,-222.5"/>
<text text-anchor="start" x="457.5" y="-210.5" font-family="Helvetica,sans-Serif" font-size="10.00">/mnt/raid10/stargate</text>
<text text-anchor="start" x="457.5" y="-199.5" font-family="Helvetica,sans-Serif" font-size="10.00">/ivi&#45;homescreen/shell</text>
<text text-anchor="middle" x="510.5" y="-188.5" font-family="Helvetica,sans-Serif" font-size="10.00">/backend/wayland_egl.h</text>
</a>
</g>
</g>
<!-- Node2&#45;&gt;Node3 -->
<g id="edge2" class="edge">
<title>Node2&#45;&gt;Node3</title>
<path fill="none" stroke="#63b8ff" d="M552.23,-336.37C541.91,-303.4 525.53,-251.04 516.67,-222.73"/>
<polygon fill="#63b8ff" stroke="#63b8ff" points="549.02,-337.84 555.35,-346.34 555.7,-335.75 549.02,-337.84"/>
</g>
<!-- Node8 -->
<g id="node8" class="node">
<title>Node8</title>
<g id="a_node8"><a xlink:href="wayland__vulkan_8h.html" target="_top" xlink:title=" ">
<polygon fill="white" stroke="#666666" points="476,-305 339,-305 339,-264 476,-264 476,-305"/>
<text text-anchor="start" x="347" y="-293" font-family="Helvetica,sans-Serif" font-size="10.00">/mnt/raid10/stargate</text>
<text text-anchor="start" x="347" y="-282" font-family="Helvetica,sans-Serif" font-size="10.00">/ivi&#45;homescreen/shell</text>
<text text-anchor="middle" x="407.5" y="-271" font-family="Helvetica,sans-Serif" font-size="10.00">/backend/wayland_vulkan.h</text>
</a>
</g>
</g>
<!-- Node2&#45;&gt;Node8 -->
<g id="edge7" class="edge">
<title>Node2&#45;&gt;Node8</title>
<path fill="none" stroke="#63b8ff" d="M514.84,-341.61C492.49,-329.93 466.08,-316.12 445.05,-305.13"/>
<polygon fill="#63b8ff" stroke="#63b8ff" points="513.34,-344.78 523.83,-346.31 516.59,-338.57 513.34,-344.78"/>
</g>
<!-- Node10 -->
<g id="node10" class="node">
<title>Node10</title>
<g id="a_node10"><a xlink:href="window_8h.html" target="_top" xlink:title=" ">
<polygon fill="white" stroke="#666666" points="782,-305 673,-305 673,-264 782,-264 782,-305"/>
<text text-anchor="start" x="681" y="-293" font-family="Helvetica,sans-Serif" font-size="10.00">/mnt/raid10/stargate</text>
<text text-anchor="start" x="681" y="-282" font-family="Helvetica,sans-Serif" font-size="10.00">/ivi&#45;homescreen/shell</text>
<text text-anchor="middle" x="727.5" y="-271" font-family="Helvetica,sans-Serif" font-size="10.00">/wayland/window.h</text>
</a>
</g>
</g>
<!-- Node2&#45;&gt;Node10 -->
<g id="edge10" class="edge">
<title>Node2&#45;&gt;Node10</title>
<path fill="none" stroke="#63b8ff" d="M611.15,-341.92C635.38,-330.17 664.15,-316.22 687.02,-305.13"/>
<polygon fill="#63b8ff" stroke="#63b8ff" points="609.58,-338.79 602.11,-346.31 612.63,-345.09 609.58,-338.79"/>
</g>
<!-- Node3&#45;&gt;Node4 -->
<g id="edge3" class="edge">
<title>Node3&#45;&gt;Node4</title>
<path fill="none" stroke="#63b8ff" d="M450.24,-178.52C446.96,-177.6 443.7,-176.75 440.5,-176 308.04,-144.92 269.16,-170.21 136.5,-140 129.84,-138.48 122.93,-136.58 116.15,-134.5"/>
<polygon fill="#63b8ff" stroke="#63b8ff" points="449.47,-181.95 460.05,-181.47 451.48,-175.24 449.47,-181.95"/>
</g>
<!-- Node3&#45;&gt;Node5 -->
<g id="edge4" class="edge">
<title>Node3&#45;&gt;Node5</title>
<path fill="none" stroke="#63b8ff" d="M448.35,-178.37C445.71,-177.54 443.08,-176.75 440.5,-176 370.92,-155.78 351.21,-159.77 281.5,-140 278.28,-139.09 274.99,-138.11 271.68,-137.1"/>
<polygon fill="#63b8ff" stroke="#63b8ff" points="447.38,-181.73 457.98,-181.48 449.53,-175.07 447.38,-181.73"/>
</g>
<!-- Node6 -->
<g id="node6" class="node">
<title>Node6</title>
<g id="a_node6"><a xlink:href="texture__navi__render__egl_8cc.html" target="_top" xlink:title=" ">
<polygon fill="white" stroke="#666666" points="588,-140 433,-140 433,-88 588,-88 588,-140"/>
<text text-anchor="start" x="441" y="-128" font-family="Helvetica,sans-Serif" font-size="10.00">/mnt/raid10/stargate</text>
<text text-anchor="start" x="441" y="-117" font-family="Helvetica,sans-Serif" font-size="10.00">/ivi&#45;homescreen/shell</text>
<text text-anchor="start" x="441" y="-106" font-family="Helvetica,sans-Serif" font-size="10.00">/textures/navi_render</text>
<text text-anchor="middle" x="510.5" y="-95" font-family="Helvetica,sans-Serif" font-size="10.00">_egl/texture_navi_render_egl.cc</text>
</a>
</g>
</g>
<!-- Node3&#45;&gt;Node6 -->
<g id="edge5" class="edge">
<title>Node3&#45;&gt;Node6</title>
<path fill="none" stroke="#63b8ff" d="M510.5,-171.44C510.5,-161.31 510.5,-150.08 510.5,-140.32"/>
<polygon fill="#63b8ff" stroke="#63b8ff" points="507,-171.49 510.5,-181.49 514,-171.49 507,-171.49"/>
</g>
<!-- Node7 -->
<g id="node7" class="node">
<title>Node7</title>
<g id="a_node7"><a xlink:href="texture__test__egl_8cc.html" target="_top" xlink:title=" ">
<polygon fill="white" stroke="#666666" points="415,-140 290,-140 290,-88 415,-88 415,-140"/>
<text text-anchor="start" x="298" y="-128" font-family="Helvetica,sans-Serif" font-size="10.00">/mnt/raid10/stargate</text>
<text text-anchor="start" x="298" y="-117" font-family="Helvetica,sans-Serif" font-size="10.00">/ivi&#45;homescreen/shell</text>
<text text-anchor="start" x="298" y="-106" font-family="Helvetica,sans-Serif" font-size="10.00">/textures/test_egl/texture</text>
<text text-anchor="middle" x="352.5" y="-95" font-family="Helvetica,sans-Serif" font-size="10.00">_test_egl.cc</text>
</a>
</g>
</g>
<!-- Node3&#45;&gt;Node7 -->
<g id="edge6" class="edge">
<title>Node3&#45;&gt;Node7</title>
<path fill="none" stroke="#63b8ff" d="M465.64,-176.58C444.71,-165.19 419.82,-151.64 398.72,-140.16"/>
<polygon fill="#63b8ff" stroke="#63b8ff" points="464.19,-179.78 474.65,-181.49 467.54,-173.63 464.19,-179.78"/>
</g>
<!-- Node8&#45;&gt;Node9 -->
<g id="edge8" class="edge">
<title>Node8&#45;&gt;Node9</title>
<path fill="none" stroke="#63b8ff" d="M351.18,-259.89C322.93,-248.04 289.12,-233.87 262.32,-222.63"/>
<polygon fill="#63b8ff" stroke="#63b8ff" points="349.96,-263.17 360.53,-263.81 352.66,-256.71 349.96,-263.17"/>
</g>
<!-- Node11 -->
<g id="node11" class="node">
<title>Node11</title>
<g id="a_node11"><a xlink:href="nv12_8h.html" target="_top" xlink:title=" ">
<polygon fill="white" stroke="#666666" points="431.5,-228 305.5,-228 305.5,-176 431.5,-176 431.5,-228"/>
<text text-anchor="start" x="313.5" y="-216" font-family="Helvetica,sans-Serif" font-size="10.00">/mnt/raid10/stargate</text>
<text text-anchor="start" x="313.5" y="-205" font-family="Helvetica,sans-Serif" font-size="10.00">/ivi&#45;homescreen/shell</text>
<text text-anchor="start" x="313.5" y="-194" font-family="Helvetica,sans-Serif" font-size="10.00">/static_plugins/gstreamer</text>
<text text-anchor="middle" x="368.5" y="-183" font-family="Helvetica,sans-Serif" font-size="10.00">_egl/nv12.h</text>
</a>
</g>
</g>
<!-- Node10&#45;&gt;Node11 -->
<g id="edge11" class="edge">
<title>Node10&#45;&gt;Node11</title>
<path fill="none" stroke="#63b8ff" d="M662.53,-273.66C603.96,-264.15 515.75,-248.23 440.5,-228 437.56,-227.21 434.57,-226.36 431.56,-225.47"/>
<polygon fill="#63b8ff" stroke="#63b8ff" points="662.32,-277.18 672.75,-275.31 663.43,-270.26 662.32,-277.18"/>
</g>
<!-- Node10&#45;&gt;Node12 -->
<g id="edge13" class="edge">
<title>Node10&#45;&gt;Node12</title>
<path fill="none" stroke="#63b8ff" d="M724.19,-253.74C723.26,-229.2 726.46,-195.39 747.5,-176 804.99,-123.01 1021.51,-158.39 1097.5,-140 1103.53,-138.54 1109.75,-136.64 1115.83,-134.54"/>
<polygon fill="#63b8ff" stroke="#63b8ff" points="720.71,-254.18 724.83,-263.95 727.7,-253.75 720.71,-254.18"/>
</g>
<!-- Node13 -->
<g id="node13" class="node">
<title>Node13</title>
<g id="a_node13"><a xlink:href="flutter__view_8h.html" target="_top" xlink:title=" ">
<polygon fill="white" stroke="#666666" points="699,-222.5 590,-222.5 590,-181.5 699,-181.5 699,-222.5"/>
<text text-anchor="start" x="598" y="-210.5" font-family="Helvetica,sans-Serif" font-size="10.00">/mnt/raid10/stargate</text>
<text text-anchor="start" x="598" y="-199.5" font-family="Helvetica,sans-Serif" font-size="10.00">/ivi&#45;homescreen/shell</text>
<text text-anchor="middle" x="644.5" y="-188.5" font-family="Helvetica,sans-Serif" font-size="10.00">/view/flutter_view.h</text>
</a>
</g>
</g>
<!-- Node10&#45;&gt;Node13 -->
<g id="edge14" class="edge">
<title>Node10&#45;&gt;Node13</title>
<path fill="none" stroke="#63b8ff" d="M699.74,-256.57C688.3,-245.48 675.3,-232.87 664.78,-222.67"/>
<polygon fill="#63b8ff" stroke="#63b8ff" points="697.37,-259.15 706.98,-263.6 702.24,-254.13 697.37,-259.15"/>
</g>
<!-- Node10&#45;&gt;Node22 -->
<g id="edge28" class="edge">
<title>Node10&#45;&gt;Node22</title>
<path fill="none" stroke="#63b8ff" d="M755.26,-256.57C766.7,-245.48 779.7,-232.87 790.22,-222.67"/>
<polygon fill="#63b8ff" stroke="#63b8ff" points="752.76,-254.13 748.02,-263.6 757.63,-259.15 752.76,-254.13"/>
</g>
<!-- Node11&#45;&gt;Node5 -->
<g id="edge12" class="edge">
<title>Node11&#45;&gt;Node5</title>
<path fill="none" stroke="#63b8ff" d="M312.76,-171.04C294,-160.95 273.27,-149.81 255.27,-140.14"/>
<polygon fill="#63b8ff" stroke="#63b8ff" points="311.33,-174.24 321.79,-175.89 314.64,-168.08 311.33,-174.24"/>
</g>
<!-- Node13&#45;&gt;Node1 -->
<g id="edge19" class="edge">
<title>Node13&#45;&gt;Node1</title>
<path fill="none" stroke="#63b8ff" d="M643.88,-232.64C644.84,-254.53 649.28,-284.04 664.5,-305 711.73,-370.04 745.48,-370 822.5,-393 955.93,-432.85 1381.57,-444.62 1533.75,-447.6"/>
<polygon fill="#63b8ff" stroke="#63b8ff" points="647.37,-232.49 643.65,-222.57 640.38,-232.65 647.37,-232.49"/>
</g>
<!-- Node13&#45;&gt;Node6 -->
<g id="edge24" class="edge">
<title>Node13&#45;&gt;Node6</title>
<path fill="none" stroke="#63b8ff" d="M605.26,-175.81C587.76,-164.58 567.19,-151.38 549.7,-140.16"/>
<polygon fill="#63b8ff" stroke="#63b8ff" points="603.79,-179.03 614.09,-181.49 607.57,-173.14 603.79,-179.03"/>
</g>
<!-- Node13&#45;&gt;Node7 -->
<g id="edge25" class="edge">
<title>Node13&#45;&gt;Node7</title>
<path fill="none" stroke="#63b8ff" d="M586.96,-178.08C584.79,-177.35 582.63,-176.66 580.5,-176 512.51,-155 492.87,-159.7 424.5,-140 421.45,-139.12 418.34,-138.19 415.2,-137.22"/>
<polygon fill="#63b8ff" stroke="#63b8ff" points="585.95,-181.43 596.54,-181.4 588.24,-174.81 585.95,-181.43"/>
</g>
<!-- Node13&#45;&gt;Node12 -->
<g id="edge27" class="edge">
<title>Node13&#45;&gt;Node12</title>
<path fill="none" stroke="#63b8ff" d="M703.68,-178.48C706.98,-177.56 710.27,-176.72 713.5,-176 880.76,-138.5 930.71,-179.57 1097.5,-140 1103.54,-138.57 1109.76,-136.69 1115.85,-134.6"/>
<polygon fill="#63b8ff" stroke="#63b8ff" points="702.37,-175.21 693.8,-181.44 704.38,-181.92 702.37,-175.21"/>
</g>
<!-- Node14 -->
<g id="node14" class="node">
<title>Node14</title>
<g id="a_node14"><a xlink:href="app_8cc.html" target="_top" xlink:title=" ">
<polygon fill="white" stroke="#666666" points="667,-46.5 558,-46.5 558,-5.5 667,-5.5 667,-46.5"/>
<text text-anchor="start" x="566" y="-34.5" font-family="Helvetica,sans-Serif" font-size="10.00">/mnt/raid10/stargate</text>
<text text-anchor="start" x="566" y="-23.5" font-family="Helvetica,sans-Serif" font-size="10.00">/ivi&#45;homescreen/shell</text>
<text text-anchor="middle" x="612.5" y="-12.5" font-family="Helvetica,sans-Serif" font-size="10.00">/app.cc</text>
</a>
</g>
</g>
<!-- Node13&#45;&gt;Node14 -->
<g id="edge15" class="edge">
<title>Node13&#45;&gt;Node14</title>
<path fill="none" stroke="#63b8ff" d="M639,-171.11C632.44,-135.45 621.67,-76.87 616.1,-46.55"/>
<polygon fill="#63b8ff" stroke="#63b8ff" points="635.64,-172.18 640.89,-181.38 642.52,-170.91 635.64,-172.18"/>
</g>
<!-- Node15 -->
<g id="node15" class="node">
<title>Node15</title>
<g id="a_node15"><a xlink:href="app_8h.html" target="_top" xlink:title=" ">
<polygon fill="white" stroke="#666666" points="780.5,-129 644.5,-129 644.5,-99 780.5,-99 780.5,-129"/>
<text text-anchor="start" x="652.5" y="-117" font-family="Helvetica,sans-Serif" font-size="10.00">/mnt/raid10/stargate</text>
<text text-anchor="middle" x="712.5" y="-106" font-family="Helvetica,sans-Serif" font-size="10.00">/ivi&#45;homescreen/shell/app.h</text>
</a>
</g>
</g>
<!-- Node13&#45;&gt;Node15 -->
<g id="edge16" class="edge">
<title>Node13&#45;&gt;Node15</title>
<path fill="none" stroke="#63b8ff" d="M666.16,-173.6C677.88,-158.79 691.85,-141.12 701.37,-129.08"/>
<polygon fill="#63b8ff" stroke="#63b8ff" points="663.39,-171.47 659.93,-181.49 668.88,-175.81 663.39,-171.47"/>
</g>
<!-- Node13&#45;&gt;Node17 -->
<g id="edge20" class="edge">
<title>Node13&#45;&gt;Node17</title>
<path fill="none" stroke="#63b8ff" d="M709.2,-183.6C721.83,-180.68 735.02,-177.97 747.5,-176 957.94,-142.76 1016.4,-180.79 1225.5,-140 1228.43,-139.43 1231.41,-138.78 1234.4,-138.08"/>
<polygon fill="#63b8ff" stroke="#63b8ff" points="708.14,-180.25 699.22,-185.96 709.76,-187.06 708.14,-180.25"/>
</g>
<!-- Node18 -->
<g id="node18" class="node">
<title>Node18</title>
<g id="a_node18"><a xlink:href="texture__egl_8h.html" target="_top" xlink:title=" ">
<polygon fill="white" stroke="#666666" points="928.5,-134.5 798.5,-134.5 798.5,-93.5 928.5,-93.5 928.5,-134.5"/>
<text text-anchor="start" x="806.5" y="-122.5" font-family="Helvetica,sans-Serif" font-size="10.00">/mnt/raid10/stargate</text>
<text text-anchor="start" x="806.5" y="-111.5" font-family="Helvetica,sans-Serif" font-size="10.00">/ivi&#45;homescreen/shell</text>
<text text-anchor="middle" x="863.5" y="-100.5" font-family="Helvetica,sans-Serif" font-size="10.00">/textures/egl/texture_egl.h</text>
</a>
</g>
</g>
<!-- Node13&#45;&gt;Node18 -->
<g id="edge21" class="edge">
<title>Node13&#45;&gt;Node18</title>
<path fill="none" stroke="#63b8ff" d="M703.66,-177.77C738.06,-164.26 780.94,-147.42 813.62,-134.59"/>
<polygon fill="#63b8ff" stroke="#63b8ff" points="702.22,-174.57 694.19,-181.49 704.78,-181.09 702.22,-174.57"/>
</g>
<!-- Node21 -->
<g id="node21" class="node">
<title>Node21</title>
<g id="a_node21"><a xlink:href="compositor__surface_8cc.html" target="_top" xlink:title=" ">
<polygon fill="white" stroke="#666666" points="1088.5,-134.5 946.5,-134.5 946.5,-93.5 1088.5,-93.5 1088.5,-134.5"/>
<text text-anchor="start" x="954.5" y="-122.5" font-family="Helvetica,sans-Serif" font-size="10.00">/mnt/raid10/stargate</text>
<text text-anchor="start" x="954.5" y="-111.5" font-family="Helvetica,sans-Serif" font-size="10.00">/ivi&#45;homescreen/shell</text>
<text text-anchor="middle" x="1017.5" y="-100.5" font-family="Helvetica,sans-Serif" font-size="10.00">/view/compositor_surface.cc</text>
</a>
</g>
</g>
<!-- Node13&#45;&gt;Node21 -->
<g id="edge26" class="edge">
<title>Node13&#45;&gt;Node21</title>
<path fill="none" stroke="#63b8ff" d="M704.6,-178.48C707.59,-177.59 710.57,-176.76 713.5,-176 811.11,-150.71 839.35,-163.1 937.5,-140 944.3,-138.4 951.36,-136.52 958.35,-134.52"/>
<polygon fill="#63b8ff" stroke="#63b8ff" points="703.53,-175.15 695.03,-181.47 705.62,-181.83 703.53,-175.15"/>
</g>
<!-- Node15&#45;&gt;Node14 -->
<g id="edge17" class="edge">
<title>Node15&#45;&gt;Node14</title>
<path fill="none" stroke="#63b8ff" d="M688.08,-92C672.02,-78.19 651.14,-60.23 635.4,-46.69"/>
<polygon fill="#63b8ff" stroke="#63b8ff" points="686.12,-94.93 695.99,-98.8 690.69,-89.62 686.12,-94.93"/>
</g>
<!-- Node16 -->
<g id="node16" class="node">
<title>Node16</title>
<g id="a_node16"><a xlink:href="main_8cc.html" target="_top" xlink:title=" ">
<polygon fill="white" stroke="#666666" points="794,-46.5 685,-46.5 685,-5.5 794,-5.5 794,-46.5"/>
<text text-anchor="start" x="693" y="-34.5" font-family="Helvetica,sans-Serif" font-size="10.00">/mnt/raid10/stargate</text>
<text text-anchor="start" x="693" y="-23.5" font-family="Helvetica,sans-Serif" font-size="10.00">/ivi&#45;homescreen/shell</text>
<text text-anchor="middle" x="739.5" y="-12.5" font-family="Helvetica,sans-Serif" font-size="10.00">/main.cc</text>
</a>
</g>
</g>
<!-- Node15&#45;&gt;Node16 -->
<g id="edge18" class="edge">
<title>Node15&#45;&gt;Node16</title>
<path fill="none" stroke="#63b8ff" d="M720.07,-88.89C724.25,-75.58 729.38,-59.24 733.32,-46.69"/>
<polygon fill="#63b8ff" stroke="#63b8ff" points="716.61,-88.21 716.96,-98.8 723.29,-90.31 716.61,-88.21"/>
</g>
<!-- Node18&#45;&gt;Node19 -->
<g id="edge22" class="edge">
<title>Node18&#45;&gt;Node19</title>
<path fill="none" stroke="#63b8ff" d="M925.54,-90.67C929.55,-89.65 933.57,-88.75 937.5,-88 1166.41,-44.59 1891.45,-31.04 2115.13,-27.84"/>
<polygon fill="#63b8ff" stroke="#63b8ff" points="924.29,-87.39 915.57,-93.42 926.14,-94.14 924.29,-87.39"/>
</g>
<!-- Node20 -->
<g id="node20" class="node">
<title>Node20</title>
<g id="a_node20"><a xlink:href="texture__egl_8cc.html" target="_top" xlink:title=" ">
<polygon fill="white" stroke="#666666" points="921,-52 812,-52 812,0 921,0 921,-52"/>
<text text-anchor="start" x="820" y="-40" font-family="Helvetica,sans-Serif" font-size="10.00">/mnt/raid10/stargate</text>
<text text-anchor="start" x="820" y="-29" font-family="Helvetica,sans-Serif" font-size="10.00">/ivi&#45;homescreen/shell</text>
<text text-anchor="start" x="820" y="-18" font-family="Helvetica,sans-Serif" font-size="10.00">/textures/egl/texture</text>
<text text-anchor="middle" x="866.5" y="-7" font-family="Helvetica,sans-Serif" font-size="10.00">_egl.cc</text>
</a>
</g>
</g>
<!-- Node18&#45;&gt;Node20 -->
<g id="edge23" class="edge">
<title>Node18&#45;&gt;Node20</title>
<path fill="none" stroke="#63b8ff" d="M864.53,-83.44C864.88,-73.31 865.28,-62.08 865.62,-52.32"/>
<polygon fill="#63b8ff" stroke="#63b8ff" points="861.03,-83.37 864.18,-93.49 868.03,-83.61 861.03,-83.37"/>
</g>
</g>
</svg>
