<?xml version="1.0" encoding="UTF-8" standalone="no"?>
<!DOCTYPE svg PUBLIC "-//W3C//DTD SVG 1.1//EN"
 "http://www.w3.org/Graphics/SVG/1.1/DTD/svg11.dtd">
<!-- Generated by graphviz version 5.0.0 (0)
 -->
<!-- Title: /mnt/raid10/stargate/ivi&#45;homescreen/shell/engine.cc Pages: 1 -->
<svg width="2814pt" height="302pt"
 viewBox="0.00 0.00 2814.00 302.00" xmlns="http://www.w3.org/2000/svg" xmlns:xlink="http://www.w3.org/1999/xlink">
<g id="graph0" class="graph" transform="scale(1 1) rotate(0) translate(4 298)">
<title>/mnt/raid10/stargate/ivi&#45;homescreen/shell/engine.cc</title>
<!-- Node1 -->
<g id="node1" class="node">
<title>Node1</title>
<g id="a_node1"><a xlink:title=" ">
<polygon fill="#999999" stroke="#666666" points="2318,-294 2209,-294 2209,-253 2318,-253 2318,-294"/>
<text text-anchor="start" x="2217" y="-282" font-family="Helvetica,sans-Serif" font-size="10.00">/mnt/raid10/stargate</text>
<text text-anchor="start" x="2217" y="-271" font-family="Helvetica,sans-Serif" font-size="10.00">/ivi&#45;homescreen/shell</text>
<text text-anchor="middle" x="2263.5" y="-260" font-family="Helvetica,sans-Serif" font-size="10.00">/engine.cc</text>
</a>
</g>
</g>
<!-- Node2 -->
<g id="node2" class="node">
<title>Node2</title>
<g id="a_node2"><a xlink:title=" ">
<polygon fill="#e0e0e0" stroke="#999999" points="1128.5,-217 1088.5,-217 1088.5,-198 1128.5,-198 1128.5,-217"/>
<text text-anchor="middle" x="1108.5" y="-205" font-family="Helvetica,sans-Serif" font-size="10.00">utility</text>
</a>
</g>
</g>
<!-- Node1&#45;&gt;Node2 -->
<g id="edge1" class="edge">
<title>Node1&#45;&gt;Node2</title>
<path fill="none" stroke="#63b8ff" d="M2208.95,-271.21C2013.96,-266.39 1351.99,-248.07 1142.5,-217 1141.21,-216.81 1139.9,-216.59 1138.59,-216.35"/>
<polygon fill="#63b8ff" stroke="#63b8ff" points="1139.02,-212.86 1128.51,-214.19 1137.55,-219.71 1139.02,-212.86"/>
</g>
<!-- Node3 -->
<g id="node3" class="node">
<title>Node3</title>
<g id="a_node3"><a xlink:title=" ">
<polygon fill="#e0e0e0" stroke="#999999" points="1559.5,-156.5 1515.5,-156.5 1515.5,-137.5 1559.5,-137.5 1559.5,-156.5"/>
<text text-anchor="middle" x="1537.5" y="-144.5" font-family="Helvetica,sans-Serif" font-size="10.00">vector</text>
</a>
</g>
</g>
<!-- Node1&#45;&gt;Node3 -->
<g id="edge2" class="edge">
<title>Node1&#45;&gt;Node3</title>
<path fill="none" stroke="#63b8ff" d="M2208.69,-269.06C2089.73,-260.47 1799.96,-233.36 1568.5,-162 1567.05,-161.55 1565.59,-161.06 1564.12,-160.52"/>
<polygon fill="#63b8ff" stroke="#63b8ff" points="1565.16,-157.17 1554.58,-156.63 1562.52,-163.65 1565.16,-157.17"/>
</g>
<!-- Node4 -->
<g id="node4" class="node">
<title>Node4</title>
<g id="a_node4"><a xlink:title=" ">
<polygon fill="#e0e0e0" stroke="#999999" points="2421.5,-217 2375.5,-217 2375.5,-198 2421.5,-198 2421.5,-217"/>
<text text-anchor="middle" x="2398.5" y="-205" font-family="Helvetica,sans-Serif" font-size="10.00">dlfcn.h</text>
</a>
</g>
</g>
<!-- Node1&#45;&gt;Node4 -->
<g id="edge3" class="edge">
<title>Node1&#45;&gt;Node4</title>
<path fill="none" stroke="#63b8ff" d="M2304.74,-252.95C2326.36,-242.7 2352.25,-230.43 2371.34,-221.38"/>
<polygon fill="#63b8ff" stroke="#63b8ff" points="2372.84,-224.54 2380.38,-217.09 2369.84,-218.21 2372.84,-224.54"/>
</g>
<!-- Node5 -->
<g id="node5" class="node">
<title>Node5</title>
<g id="a_node5"><a xlink:title=" ">
<polygon fill="#e0e0e0" stroke="#999999" points="2489,-217 2440,-217 2440,-198 2489,-198 2489,-217"/>
<text text-anchor="middle" x="2464.5" y="-205" font-family="Helvetica,sans-Serif" font-size="10.00">cassert</text>
</a>
</g>
</g>
<!-- Node1&#45;&gt;Node5 -->
<g id="edge4" class="edge">
<title>Node1&#45;&gt;Node5</title>
<path fill="none" stroke="#63b8ff" d="M2318.16,-255.1C2353.88,-243.72 2399.43,-229.22 2430.15,-219.44"/>
<polygon fill="#63b8ff" stroke="#63b8ff" points="2431.5,-222.68 2439.96,-216.31 2429.37,-216.01 2431.5,-222.68"/>
</g>
<!-- Node6 -->
<g id="node6" class="node">
<title>Node6</title>
<g id="a_node6"><a xlink:title=" ">
<polygon fill="#e0e0e0" stroke="#999999" points="2589.5,-217 2507.5,-217 2507.5,-198 2589.5,-198 2589.5,-217"/>
<text text-anchor="middle" x="2548.5" y="-205" font-family="Helvetica,sans-Serif" font-size="10.00">flutter/fml/file.h</text>
</a>
</g>
</g>
<!-- Node1&#45;&gt;Node6 -->
<g id="edge5" class="edge">
<title>Node1&#45;&gt;Node6</title>
<path fill="none" stroke="#63b8ff" d="M2318.11,-260.24C2370.89,-248.39 2450.04,-230.61 2500.47,-219.29"/>
<polygon fill="#63b8ff" stroke="#63b8ff" points="2501.48,-222.65 2510.47,-217.04 2499.94,-215.82 2501.48,-222.65"/>
</g>
<!-- Node7 -->
<g id="node7" class="node">
<title>Node7</title>
<g id="a_node7"><a xlink:title=" ">
<polygon fill="#e0e0e0" stroke="#999999" points="2701,-217 2608,-217 2608,-198 2701,-198 2701,-217"/>
<text text-anchor="middle" x="2654.5" y="-205" font-family="Helvetica,sans-Serif" font-size="10.00">flutter/fml/paths.h</text>
</a>
</g>
</g>
<!-- Node1&#45;&gt;Node7 -->
<g id="edge6" class="edge">
<title>Node1&#45;&gt;Node7</title>
<path fill="none" stroke="#63b8ff" d="M2318.28,-263.53C2392.05,-251.46 2522.68,-230.08 2597.55,-217.82"/>
<polygon fill="#63b8ff" stroke="#63b8ff" points="2598.43,-221.22 2607.73,-216.16 2597.3,-214.32 2598.43,-221.22"/>
</g>
<!-- Node8 -->
<g id="node8" class="node">
<title>Node8</title>
<g id="a_node8"><a xlink:href="constants_8h.html" target="_top" xlink:title=" ">
<polygon fill="white" stroke="#666666" points="1500.5,-90.5 1432.5,-90.5 1432.5,-71.5 1500.5,-71.5 1500.5,-90.5"/>
<text text-anchor="middle" x="1466.5" y="-78.5" font-family="Helvetica,sans-Serif" font-size="10.00">constants.h</text>
</a>
</g>
</g>
<!-- Node1&#45;&gt;Node8 -->
<g id="edge7" class="edge">
<title>Node1&#45;&gt;Node8</title>
<path fill="none" stroke="#63b8ff" d="M2246.5,-252.99C2217.4,-221.15 2154.57,-158.85 2086.5,-132 1981.57,-90.61 1635.01,-83.48 1511.06,-82.25"/>
<polygon fill="#63b8ff" stroke="#63b8ff" points="1510.84,-78.75 1500.81,-82.16 1510.77,-85.75 1510.84,-78.75"/>
</g>
<!-- Node12 -->
<g id="node12" class="node">
<title>Node12</title>
<g id="a_node12"><a xlink:href="engine_8h.html" target="_top" xlink:title=" ">
<polygon fill="white" stroke="#666666" points="1238,-217 1185,-217 1185,-198 1238,-198 1238,-217"/>
<text text-anchor="middle" x="1211.5" y="-205" font-family="Helvetica,sans-Serif" font-size="10.00">engine.h</text>
</a>
</g>
</g>
<!-- Node1&#45;&gt;Node12 -->
<g id="edge11" class="edge">
<title>Node1&#45;&gt;Node12</title>
<path fill="none" stroke="#63b8ff" d="M2208.79,-269.17C2020.99,-257.75 1405.57,-220.31 1248.34,-210.74"/>
<polygon fill="#63b8ff" stroke="#63b8ff" points="1248.43,-207.24 1238.23,-210.13 1248,-214.23 1248.43,-207.24"/>
</g>
<!-- Node31 -->
<g id="node31" class="node">
<title>Node31</title>
<g id="a_node31"><a xlink:href="platform__channel_8h.html" target="_top" xlink:title=" ">
<polygon fill="white" stroke="#666666" points="593,-156.5 494,-156.5 494,-137.5 593,-137.5 593,-156.5"/>
<text text-anchor="middle" x="543.5" y="-144.5" font-family="Helvetica,sans-Serif" font-size="10.00">platform_channel.h</text>
</a>
</g>
</g>
<!-- Node1&#45;&gt;Node31 -->
<g id="edge60" class="edge">
<title>Node1&#45;&gt;Node31</title>
<path fill="none" stroke="#63b8ff" d="M2208.93,-272.66C2016.98,-272.79 1373.84,-269.19 1175.5,-217 1157.24,-212.19 1155.72,-202.95 1137.5,-198 907.53,-135.49 838.14,-197.63 602.5,-162 596.91,-161.15 591.06,-160.05 585.31,-158.82"/>
<polygon fill="#63b8ff" stroke="#63b8ff" points="585.68,-155.32 575.16,-156.53 584.14,-162.15 585.68,-155.32"/>
</g>
<!-- Node51 -->
<g id="node37" class="node">
<title>Node51</title>
<g id="a_node37"><a xlink:href="texture_8h.html" target="_top" xlink:title=" ">
<polygon fill="white" stroke="#666666" points="1984,-217 1891,-217 1891,-198 1984,-198 1984,-217"/>
<text text-anchor="middle" x="1937.5" y="-205" font-family="Helvetica,sans-Serif" font-size="10.00">textures/texture.h</text>
</a>
</g>
</g>
<!-- Node1&#45;&gt;Node51 -->
<g id="edge61" class="edge">
<title>Node1&#45;&gt;Node51</title>
<path fill="none" stroke="#63b8ff" d="M2208.93,-261.79C2148.45,-249.91 2051.51,-230.88 1991.32,-219.07"/>
<polygon fill="#63b8ff" stroke="#63b8ff" points="1991.75,-215.58 1981.26,-217.09 1990.4,-222.45 1991.75,-215.58"/>
</g>
<!-- Node53 -->
<g id="node39" class="node">
<title>Node53</title>
<g id="a_node39"><a xlink:href="hexdump_8h.html" target="_top" xlink:title=" ">
<polygon fill="white" stroke="#666666" points="2296,-217 2231,-217 2231,-198 2296,-198 2296,-217"/>
<text text-anchor="middle" x="2263.5" y="-205" font-family="Helvetica,sans-Serif" font-size="10.00">hexdump.h</text>
</a>
</g>
</g>
<!-- Node1&#45;&gt;Node53 -->
<g id="edge70" class="edge">
<title>Node1&#45;&gt;Node53</title>
<path fill="none" stroke="#63b8ff" d="M2263.5,-252.95C2263.5,-244.85 2263.5,-235.5 2263.5,-227.47"/>
<polygon fill="#63b8ff" stroke="#63b8ff" points="2267,-227.26 2263.5,-217.26 2260,-227.26 2267,-227.26"/>
</g>
<!-- Node57 -->
<g id="node43" class="node">
<title>Node57</title>
<g id="a_node43"><a xlink:href="utils_8h.html" target="_top" xlink:title=" ">
<polygon fill="white" stroke="#666666" points="2357,-217 2314,-217 2314,-198 2357,-198 2357,-217"/>
<text text-anchor="middle" x="2335.5" y="-205" font-family="Helvetica,sans-Serif" font-size="10.00">utils.h</text>
</a>
</g>
</g>
<!-- Node1&#45;&gt;Node57 -->
<g id="edge74" class="edge">
<title>Node1&#45;&gt;Node57</title>
<path fill="none" stroke="#63b8ff" d="M2285.49,-252.95C2295.96,-243.65 2308.3,-232.68 2318.1,-223.96"/>
<polygon fill="#63b8ff" stroke="#63b8ff" points="2320.5,-226.52 2325.64,-217.26 2315.84,-221.29 2320.5,-226.52"/>
</g>
<!-- Node64 -->
<g id="node50" class="node">
<title>Node64</title>
<g id="a_node50"><a xlink:title=" ">
<polygon fill="#e0e0e0" stroke="#999999" points="2806,-217 2719,-217 2719,-198 2806,-198 2806,-217"/>
<text text-anchor="middle" x="2762.5" y="-205" font-family="Helvetica,sans-Serif" font-size="10.00">wayland&#45;client.h</text>
</a>
</g>
</g>
<!-- Node1&#45;&gt;Node64 -->
<g id="edge84" class="edge">
<title>Node1&#45;&gt;Node64</title>
<path fill="none" stroke="#63b8ff" d="M2318.3,-266.38C2400.78,-257.03 2561.98,-238.15 2708.73,-217.21"/>
<polygon fill="#63b8ff" stroke="#63b8ff" points="2709.42,-220.65 2718.83,-215.76 2708.43,-213.72 2709.42,-220.65"/>
</g>
<!-- Node9 -->
<g id="node9" class="node">
<title>Node9</title>
<g id="a_node9"><a xlink:title=" ">
<polygon fill="#e0e0e0" stroke="#999999" points="1560.5,-24.5 1500.5,-24.5 1500.5,-5.5 1560.5,-5.5 1560.5,-24.5"/>
<text text-anchor="middle" x="1530.5" y="-12.5" font-family="Helvetica,sans-Serif" font-size="10.00">EGL/egl.h</text>
</a>
</g>
</g>
<!-- Node8&#45;&gt;Node9 -->
<g id="edge8" class="edge">
<title>Node8&#45;&gt;Node9</title>
<path fill="none" stroke="#63b8ff" d="M1475.13,-71.37C1485.19,-61.31 1502.02,-44.48 1514.49,-32.01"/>
<polygon fill="#63b8ff" stroke="#63b8ff" points="1517,-34.45 1521.59,-24.91 1512.05,-29.5 1517,-34.45"/>
</g>
<!-- Node10 -->
<g id="node10" class="node">
<title>Node10</title>
<g id="a_node10"><a xlink:title=" ">
<polygon fill="#e0e0e0" stroke="#999999" points="1295,-30 1174,-30 1174,0 1295,0 1295,-30"/>
<text text-anchor="start" x="1182" y="-18" font-family="Helvetica,sans-Serif" font-size="10.00">shell/platform/embedder</text>
<text text-anchor="middle" x="1234.5" y="-7" font-family="Helvetica,sans-Serif" font-size="10.00">/embedder.h</text>
</a>
</g>
</g>
<!-- Node8&#45;&gt;Node10 -->
<g id="edge9" class="edge">
<title>Node8&#45;&gt;Node10</title>
<path fill="none" stroke="#63b8ff" d="M1437.59,-71.47C1431.3,-69.65 1424.68,-67.74 1418.5,-66 1378.16,-54.64 1332.72,-42.29 1297.09,-32.7"/>
<polygon fill="#63b8ff" stroke="#63b8ff" points="1297.88,-29.29 1287.31,-30.07 1296.06,-36.05 1297.88,-29.29"/>
</g>
<!-- Node11 -->
<g id="node11" class="node">
<title>Node11</title>
<g id="a_node11"><a xlink:title=" ">
<polygon fill="#e0e0e0" stroke="#999999" points="1482.5,-24.5 1444.5,-24.5 1444.5,-5.5 1482.5,-5.5 1482.5,-24.5"/>
<text text-anchor="middle" x="1463.5" y="-12.5" font-family="Helvetica,sans-Serif" font-size="10.00">array</text>
</a>
</g>
</g>
<!-- Node8&#45;&gt;Node11 -->
<g id="edge10" class="edge">
<title>Node8&#45;&gt;Node11</title>
<path fill="none" stroke="#63b8ff" d="M1466.1,-71.37C1465.66,-62.07 1464.95,-46.98 1464.39,-34.9"/>
<polygon fill="#63b8ff" stroke="#63b8ff" points="1467.88,-34.73 1463.92,-24.91 1460.89,-35.06 1467.88,-34.73"/>
</g>
<!-- Node12&#45;&gt;Node3 -->
<g id="edge23" class="edge">
<title>Node12&#45;&gt;Node3</title>
<path fill="none" stroke="#63b8ff" d="M1238.29,-204.36C1289.93,-199.81 1406.54,-187.42 1501.5,-162 1503.66,-161.42 1505.86,-160.76 1508.07,-160.04"/>
<polygon fill="#63b8ff" stroke="#63b8ff" points="1509.34,-163.3 1517.58,-156.64 1506.98,-156.71 1509.34,-163.3"/>
</g>
<!-- Node12&#45;&gt;Node8 -->
<g id="edge28" class="edge">
<title>Node12&#45;&gt;Node8</title>
<path fill="none" stroke="#63b8ff" d="M1238.1,-204.07C1289.51,-198.89 1400.04,-185.31 1429.5,-162 1448.87,-146.67 1458.52,-118.87 1463.01,-100.42"/>
<polygon fill="#63b8ff" stroke="#63b8ff" points="1466.45,-101.08 1465.14,-90.56 1459.61,-99.6 1466.45,-101.08"/>
</g>
<!-- Node12&#45;&gt;Node9 -->
<g id="edge13" class="edge">
<title>Node12&#45;&gt;Node9</title>
<path fill="none" stroke="#63b8ff" d="M1238.34,-207.35C1285.41,-207.65 1384.5,-202.88 1454.5,-162 1487.47,-142.74 1492.01,-129.94 1509.5,-96 1519.55,-76.5 1525.08,-51.79 1527.91,-35.03"/>
<polygon fill="#63b8ff" stroke="#63b8ff" points="1531.41,-35.27 1529.46,-24.86 1524.49,-34.21 1531.41,-35.27"/>
</g>
<!-- Node12&#45;&gt;Node10 -->
<g id="edge16" class="edge">
<title>Node12&#45;&gt;Node10</title>
<path fill="none" stroke="#63b8ff" d="M1184.66,-200.59C1179.95,-199.65 1175.09,-198.75 1170.5,-198 1103.13,-187.06 918.13,-205.45 865.5,-162 831.82,-134.19 815.65,-98.79 844.5,-66 865.22,-42.45 1057.27,-26.94 1163.91,-20.07"/>
<polygon fill="#63b8ff" stroke="#63b8ff" points="1164.2,-23.56 1173.96,-19.43 1163.76,-16.57 1164.2,-23.56"/>
</g>
<!-- Node13 -->
<g id="node13" class="node">
<title>Node13</title>
<g id="a_node13"><a xlink:title=" ">
<polygon fill="#e0e0e0" stroke="#999999" points="1909,-156.5 1850,-156.5 1850,-137.5 1909,-137.5 1909,-156.5"/>
<text text-anchor="middle" x="1879.5" y="-144.5" font-family="Helvetica,sans-Serif" font-size="10.00">functional</text>
</a>
</g>
</g>
<!-- Node12&#45;&gt;Node13 -->
<g id="edge12" class="edge">
<title>Node12&#45;&gt;Node13</title>
<path fill="none" stroke="#63b8ff" d="M1238.06,-205.47C1321.38,-202.02 1584.96,-189.53 1801.5,-162 1814.08,-160.4 1827.72,-158.14 1840.02,-155.9"/>
<polygon fill="#63b8ff" stroke="#63b8ff" points="1840.79,-159.31 1849.98,-154.03 1839.51,-152.43 1840.79,-159.31"/>
</g>
<!-- Node14 -->
<g id="node14" class="node">
<title>Node14</title>
<g id="a_node14"><a xlink:title=" ">
<polygon fill="#e0e0e0" stroke="#999999" points="1649.5,-156.5 1577.5,-156.5 1577.5,-137.5 1649.5,-137.5 1649.5,-156.5"/>
<text text-anchor="middle" x="1613.5" y="-144.5" font-family="Helvetica,sans-Serif" font-size="10.00">GLES2/gl2.h</text>
</a>
</g>
</g>
<!-- Node12&#45;&gt;Node14 -->
<g id="edge14" class="edge">
<title>Node12&#45;&gt;Node14</title>
<path fill="none" stroke="#63b8ff" d="M1238.19,-204.8C1297.93,-200.64 1446.71,-188.32 1568.5,-162 1571.96,-161.25 1575.54,-160.36 1579.1,-159.38"/>
<polygon fill="#63b8ff" stroke="#63b8ff" points="1580.34,-162.67 1588.95,-156.5 1578.37,-155.95 1580.34,-162.67"/>
</g>
<!-- Node15 -->
<g id="node15" class="node">
<title>Node15</title>
<g id="a_node15"><a xlink:title=" ">
<polygon fill="#e0e0e0" stroke="#999999" points="1793,-156.5 1668,-156.5 1668,-137.5 1793,-137.5 1793,-156.5"/>
<text text-anchor="middle" x="1730.5" y="-144.5" font-family="Helvetica,sans-Serif" font-size="10.00">flutter/encodable_value.h</text>
</a>
</g>
</g>
<!-- Node12&#45;&gt;Node15 -->
<g id="edge15" class="edge">
<title>Node12&#45;&gt;Node15</title>
<path fill="none" stroke="#63b8ff" d="M1238.06,-204.72C1307.43,-199.89 1499.74,-185.29 1658.5,-162 1665.6,-160.96 1673.07,-159.7 1680.39,-158.36"/>
<polygon fill="#63b8ff" stroke="#63b8ff" points="1681.07,-161.8 1690.25,-156.51 1679.77,-154.92 1681.07,-161.8"/>
</g>
<!-- Node16 -->
<g id="node16" class="node">
<title>Node16</title>
<g id="a_node16"><a xlink:title=" ">
<polygon fill="#e0e0e0" stroke="#999999" points="673.5,-156.5 611.5,-156.5 611.5,-137.5 673.5,-137.5 673.5,-156.5"/>
<text text-anchor="middle" x="642.5" y="-144.5" font-family="Helvetica,sans-Serif" font-size="10.00">filesystem</text>
</a>
</g>
</g>
<!-- Node12&#45;&gt;Node16 -->
<g id="edge17" class="edge">
<title>Node12&#45;&gt;Node16</title>
<path fill="none" stroke="#63b8ff" d="M1184.68,-200.42C1179.97,-199.5 1175.11,-198.64 1170.5,-198 955.12,-167.86 895.42,-206.3 682.5,-162 679.5,-161.38 676.42,-160.58 673.36,-159.7"/>
<polygon fill="#63b8ff" stroke="#63b8ff" points="674.39,-156.35 663.8,-156.62 672.24,-163.01 674.39,-156.35"/>
</g>
<!-- Node17 -->
<g id="node17" class="node">
<title>Node17</title>
<g id="a_node17"><a xlink:title=" ">
<polygon fill="#e0e0e0" stroke="#999999" points="889,-90.5 854,-90.5 854,-71.5 889,-71.5 889,-90.5"/>
<text text-anchor="middle" x="871.5" y="-78.5" font-family="Helvetica,sans-Serif" font-size="10.00">map</text>
</a>
</g>
</g>
<!-- Node12&#45;&gt;Node17 -->
<g id="edge18" class="edge">
<title>Node12&#45;&gt;Node17</title>
<path fill="none" stroke="#63b8ff" d="M1184.65,-200.61C1179.95,-199.67 1175.09,-198.76 1170.5,-198 1106.87,-187.44 928.39,-207.33 882.5,-162 866.64,-146.33 866.24,-119.27 868.21,-101.01"/>
<polygon fill="#63b8ff" stroke="#63b8ff" points="871.7,-101.34 869.63,-90.95 864.77,-100.37 871.7,-101.34"/>
</g>
<!-- Node18 -->
<g id="node18" class="node">
<title>Node18</title>
<g id="a_node18"><a xlink:title=" ">
<polygon fill="#e0e0e0" stroke="#999999" points="1206.5,-90.5 1154.5,-90.5 1154.5,-71.5 1206.5,-71.5 1206.5,-90.5"/>
<text text-anchor="middle" x="1180.5" y="-78.5" font-family="Helvetica,sans-Serif" font-size="10.00">memory</text>
</a>
</g>
</g>
<!-- Node12&#45;&gt;Node18 -->
<g id="edge19" class="edge">
<title>Node12&#45;&gt;Node18</title>
<path fill="none" stroke="#63b8ff" d="M1206.46,-197.96C1201.56,-189.23 1194.31,-175.13 1190.5,-162 1184.59,-141.67 1182.18,-117.43 1181.19,-101"/>
<polygon fill="#63b8ff" stroke="#63b8ff" points="1184.66,-100.41 1180.69,-90.59 1177.67,-100.74 1184.66,-100.41"/>
</g>
<!-- Node19 -->
<g id="node19" class="node">
<title>Node19</title>
<g id="a_node19"><a xlink:title=" ">
<polygon fill="#e0e0e0" stroke="#999999" points="735.5,-156.5 691.5,-156.5 691.5,-137.5 735.5,-137.5 735.5,-156.5"/>
<text text-anchor="middle" x="713.5" y="-144.5" font-family="Helvetica,sans-Serif" font-size="10.00">mutex</text>
</a>
</g>
</g>
<!-- Node12&#45;&gt;Node19 -->
<g id="edge20" class="edge">
<title>Node12&#45;&gt;Node19</title>
<path fill="none" stroke="#63b8ff" d="M1184.68,-200.46C1179.97,-199.54 1175.1,-198.67 1170.5,-198 982.47,-170.66 928.4,-209.79 744.5,-162 742.81,-161.56 741.1,-161.04 739.39,-160.45"/>
<polygon fill="#63b8ff" stroke="#63b8ff" points="740.44,-157.1 729.85,-156.63 737.83,-163.6 740.44,-157.1"/>
</g>
<!-- Node20 -->
<g id="node20" class="node">
<title>Node20</title>
<g id="a_node20"><a xlink:title=" ">
<polygon fill="#e0e0e0" stroke="#999999" points="797,-156.5 754,-156.5 754,-137.5 797,-137.5 797,-156.5"/>
<text text-anchor="middle" x="775.5" y="-144.5" font-family="Helvetica,sans-Serif" font-size="10.00">queue</text>
</a>
</g>
</g>
<!-- Node12&#45;&gt;Node20 -->
<g id="edge21" class="edge">
<title>Node12&#45;&gt;Node20</title>
<path fill="none" stroke="#63b8ff" d="M1184.67,-200.52C1179.96,-199.59 1175.1,-198.71 1170.5,-198 1012,-173.69 967.43,-199.4 811.5,-162 809.13,-161.43 806.72,-160.74 804.31,-159.98"/>
<polygon fill="#63b8ff" stroke="#63b8ff" points="805.22,-156.59 794.62,-156.54 802.87,-163.19 805.22,-156.59"/>
</g>
<!-- Node21 -->
<g id="node21" class="node">
<title>Node21</title>
<g id="a_node21"><a xlink:title=" ">
<polygon fill="#e0e0e0" stroke="#999999" points="948,-90.5 907,-90.5 907,-71.5 948,-71.5 948,-90.5"/>
<text text-anchor="middle" x="927.5" y="-78.5" font-family="Helvetica,sans-Serif" font-size="10.00">string</text>
</a>
</g>
</g>
<!-- Node12&#45;&gt;Node21 -->
<g id="edge22" class="edge">
<title>Node12&#45;&gt;Node21</title>
<path fill="none" stroke="#63b8ff" d="M1184.9,-200.38C1139.31,-189.8 1049.82,-168.58 1036.5,-162 1017.21,-152.47 1015.75,-144.87 998.5,-132 982.04,-119.72 963.01,-106.36 948.79,-96.54"/>
<polygon fill="#63b8ff" stroke="#63b8ff" points="950.44,-93.43 940.22,-90.65 946.47,-99.2 950.44,-93.43"/>
</g>
<!-- Node22 -->
<g id="node22" class="node">
<title>Node22</title>
<g id="a_node22"><a xlink:href="backend_8h.html" target="_top" xlink:title=" ">
<polygon fill="white" stroke="#666666" points="1421,-156.5 1320,-156.5 1320,-137.5 1421,-137.5 1421,-156.5"/>
<text text-anchor="middle" x="1370.5" y="-144.5" font-family="Helvetica,sans-Serif" font-size="10.00">backend/backend.h</text>
</a>
</g>
</g>
<!-- Node12&#45;&gt;Node22 -->
<g id="edge24" class="edge">
<title>Node12&#45;&gt;Node22</title>
<path fill="none" stroke="#63b8ff" d="M1229.69,-197.99C1254.81,-187.94 1300.22,-171.16 1332.77,-159.84"/>
<polygon fill="#63b8ff" stroke="#63b8ff" points="1334.11,-163.08 1342.42,-156.52 1331.83,-156.46 1334.11,-163.08"/>
</g>
<!-- Node23 -->
<g id="node23" class="node">
<title>Node23</title>
<g id="a_node23"><a xlink:href="logging_8h.html" target="_top" xlink:title=" ">
<polygon fill="white" stroke="#666666" points="475.5,-156.5 419.5,-156.5 419.5,-137.5 475.5,-137.5 475.5,-156.5"/>
<text text-anchor="middle" x="447.5" y="-144.5" font-family="Helvetica,sans-Serif" font-size="10.00">logging.h</text>
</a>
</g>
</g>
<!-- Node12&#45;&gt;Node23 -->
<g id="edge29" class="edge">
<title>Node12&#45;&gt;Node23</title>
<path fill="none" stroke="#63b8ff" d="M1184.82,-203.05C1170.76,-201.33 1153.22,-199.33 1137.5,-198 847.88,-173.4 768.87,-222.14 484.5,-162 481.82,-161.43 479.08,-160.7 476.36,-159.88"/>
<polygon fill="#63b8ff" stroke="#63b8ff" points="477.34,-156.51 466.75,-156.56 475.06,-163.13 477.34,-156.51"/>
</g>
<!-- Node12&#45;&gt;Node31 -->
<g id="edge38" class="edge">
<title>Node12&#45;&gt;Node31</title>
<path fill="none" stroke="#63b8ff" d="M1184.69,-200.38C1179.98,-199.46 1175.11,-198.62 1170.5,-198 919.81,-164.24 852.68,-199.33 602.5,-162 596.9,-161.16 591.06,-160.06 585.31,-158.84"/>
<polygon fill="#63b8ff" stroke="#63b8ff" points="585.68,-155.34 575.15,-156.55 584.14,-162.17 585.68,-155.34"/>
</g>
<!-- Node32 -->
<g id="node32" class="node">
<title>Node32</title>
<g id="a_node32"><a xlink:href="key__event_8h.html" target="_top" xlink:title=" ">
<polygon fill="#fff0f0" stroke="red" points="1301.5,-162 1199.5,-162 1199.5,-132 1301.5,-132 1301.5,-162"/>
<text text-anchor="start" x="1207.5" y="-150" font-family="Helvetica,sans-Serif" font-size="10.00">static_plugins/key</text>
<text text-anchor="middle" x="1250.5" y="-139" font-family="Helvetica,sans-Serif" font-size="10.00">_event/key_event.h</text>
</a>
</g>
</g>
<!-- Node12&#45;&gt;Node32 -->
<g id="edge42" class="edge">
<title>Node12&#45;&gt;Node32</title>
<path fill="none" stroke="#63b8ff" d="M1217.25,-197.87C1222.06,-190.67 1229.12,-180.07 1235.5,-170.49"/>
<polygon fill="#63b8ff" stroke="#63b8ff" points="1238.46,-172.38 1241.09,-162.11 1232.63,-168.49 1238.46,-172.38"/>
</g>
<!-- Node39 -->
<g id="node35" class="node">
<title>Node39</title>
<g id="a_node35"><a xlink:href="text__input_8h.html" target="_top" xlink:title=" ">
<polygon fill="#fff0f0" stroke="red" points="1143,-162 1046,-162 1046,-132 1143,-132 1143,-162"/>
<text text-anchor="start" x="1054" y="-150" font-family="Helvetica,sans-Serif" font-size="10.00">static_plugins/text</text>
<text text-anchor="middle" x="1094.5" y="-139" font-family="Helvetica,sans-Serif" font-size="10.00">_input/text_input.h</text>
</a>
</g>
</g>
<!-- Node12&#45;&gt;Node39 -->
<g id="edge50" class="edge">
<title>Node12&#45;&gt;Node39</title>
<path fill="none" stroke="#63b8ff" d="M1194.49,-197.99C1178.15,-189.82 1152.91,-177.2 1131.87,-166.69"/>
<polygon fill="#63b8ff" stroke="#63b8ff" points="1133.36,-163.52 1122.86,-162.18 1130.23,-169.78 1133.36,-163.52"/>
</g>
<!-- Node44 -->
<g id="node36" class="node">
<title>Node44</title>
<g id="a_node36"><a xlink:href="flutter__view_8h.html" target="_top" xlink:title=" ">
<polygon fill="#fff0f0" stroke="red" points="989.5,-156.5 891.5,-156.5 891.5,-137.5 989.5,-137.5 989.5,-156.5"/>
<text text-anchor="middle" x="940.5" y="-144.5" font-family="Helvetica,sans-Serif" font-size="10.00">view/flutter_view.h</text>
</a>
</g>
</g>
<!-- Node12&#45;&gt;Node44 -->
<g id="edge57" class="edge">
<title>Node12&#45;&gt;Node44</title>
<path fill="none" stroke="#63b8ff" d="M1184.89,-200.88C1145.32,-192.5 1068.62,-176.2 1003.5,-162 998.76,-160.97 993.81,-159.88 988.87,-158.79"/>
<polygon fill="#63b8ff" stroke="#63b8ff" points="989.32,-155.31 978.8,-156.56 987.81,-162.14 989.32,-155.31"/>
</g>
<!-- Node22&#45;&gt;Node8 -->
<g id="edge26" class="edge">
<title>Node22&#45;&gt;Node8</title>
<path fill="none" stroke="#63b8ff" d="M1383.45,-137.37C1399.19,-126.87 1426,-109 1444.9,-96.4"/>
<polygon fill="#63b8ff" stroke="#63b8ff" points="1447.07,-99.16 1453.45,-90.7 1443.19,-93.33 1447.07,-99.16"/>
</g>
<!-- Node22&#45;&gt;Node10 -->
<g id="edge25" class="edge">
<title>Node22&#45;&gt;Node10</title>
<path fill="none" stroke="#63b8ff" d="M1375.79,-137.37C1384.7,-121.63 1400.25,-87.85 1384.5,-66 1366.26,-40.69 1334.65,-28 1305.14,-21.71"/>
<polygon fill="#63b8ff" stroke="#63b8ff" points="1305.71,-18.26 1295.23,-19.81 1304.39,-25.13 1305.71,-18.26"/>
</g>
<!-- Node22&#45;&gt;Node12 -->
<g id="edge27" class="edge">
<title>Node22&#45;&gt;Node12</title>
<path fill="none" stroke="#63b8ff" d="M1351.88,-156.68C1326.28,-166.91 1280.15,-183.94 1247.69,-195.19"/>
<polygon fill="#63b8ff" stroke="#63b8ff" points="1246.41,-191.93 1238.09,-198.49 1248.69,-198.55 1246.41,-191.93"/>
</g>
<!-- Node23&#45;&gt;Node8 -->
<g id="edge37" class="edge">
<title>Node23&#45;&gt;Node8</title>
<path fill="none" stroke="#63b8ff" d="M466.74,-137.38C472.35,-135.24 478.58,-133.21 484.5,-132 876.77,-52.13 986.37,-137.77 1384.5,-96 1396.84,-94.7 1410.14,-92.7 1422.36,-90.61"/>
<polygon fill="#63b8ff" stroke="#63b8ff" points="1423.09,-94.04 1432.33,-88.85 1421.87,-87.14 1423.09,-94.04"/>
</g>
<!-- Node24 -->
<g id="node24" class="node">
<title>Node24</title>
<g id="a_node24"><a xlink:title=" ">
<polygon fill="#e0e0e0" stroke="#999999" points="393.5,-90.5 341.5,-90.5 341.5,-71.5 393.5,-71.5 393.5,-90.5"/>
<text text-anchor="middle" x="367.5" y="-78.5" font-family="Helvetica,sans-Serif" font-size="10.00">sstream</text>
</a>
</g>
</g>
<!-- Node23&#45;&gt;Node24 -->
<g id="edge30" class="edge">
<title>Node23&#45;&gt;Node24</title>
<path fill="none" stroke="#63b8ff" d="M436.71,-137.37C423.83,-127.06 402.06,-109.65 386.37,-97.09"/>
<polygon fill="#63b8ff" stroke="#63b8ff" points="388.37,-94.21 378.37,-90.7 384,-99.68 388.37,-94.21"/>
</g>
<!-- Node25 -->
<g id="node25" class="node">
<title>Node25</title>
<g id="a_node25"><a xlink:title=" ">
<polygon fill="#e0e0e0" stroke="#999999" points="499.5,-90.5 411.5,-90.5 411.5,-71.5 499.5,-71.5 499.5,-90.5"/>
<text text-anchor="middle" x="455.5" y="-78.5" font-family="Helvetica,sans-Serif" font-size="10.00">spdlog/cfg/env.h</text>
</a>
</g>
</g>
<!-- Node23&#45;&gt;Node25 -->
<g id="edge31" class="edge">
<title>Node23&#45;&gt;Node25</title>
<path fill="none" stroke="#63b8ff" d="M448.58,-137.37C449.74,-128.07 451.63,-112.98 453.14,-100.9"/>
<polygon fill="#63b8ff" stroke="#63b8ff" points="456.62,-101.26 454.39,-90.91 449.67,-100.39 456.62,-101.26"/>
</g>
<!-- Node26 -->
<g id="node26" class="node">
<title>Node26</title>
<g id="a_node26"><a xlink:title=" ">
<polygon fill="#e0e0e0" stroke="#999999" points="627.5,-96 517.5,-96 517.5,-66 627.5,-66 627.5,-96"/>
<text text-anchor="start" x="525.5" y="-84" font-family="Helvetica,sans-Serif" font-size="10.00">spdlog/sinks/callback</text>
<text text-anchor="middle" x="572.5" y="-73" font-family="Helvetica,sans-Serif" font-size="10.00">_sink.h</text>
</a>
</g>
</g>
<!-- Node23&#45;&gt;Node26 -->
<g id="edge32" class="edge">
<title>Node23&#45;&gt;Node26</title>
<path fill="none" stroke="#63b8ff" d="M464.36,-137.37C482.6,-128.03 512.23,-112.86 535.87,-100.75"/>
<polygon fill="#63b8ff" stroke="#63b8ff" points="537.62,-103.79 544.93,-96.12 534.43,-97.56 537.62,-103.79"/>
</g>
<!-- Node27 -->
<g id="node27" class="node">
<title>Node27</title>
<g id="a_node27"><a xlink:title=" ">
<polygon fill="#e0e0e0" stroke="#999999" points="759.5,-96 645.5,-96 645.5,-66 759.5,-66 759.5,-96"/>
<text text-anchor="start" x="653.5" y="-84" font-family="Helvetica,sans-Serif" font-size="10.00">spdlog/sinks/ringbuffer</text>
<text text-anchor="middle" x="702.5" y="-73" font-family="Helvetica,sans-Serif" font-size="10.00">_sink.h</text>
</a>
</g>
</g>
<!-- Node23&#45;&gt;Node27 -->
<g id="edge33" class="edge">
<title>Node23&#45;&gt;Node27</title>
<path fill="none" stroke="#63b8ff" d="M468.85,-137.36C473.93,-135.46 479.37,-133.55 484.5,-132 512.3,-123.59 582.06,-107.94 635.25,-96.37"/>
<polygon fill="#63b8ff" stroke="#63b8ff" points="636.27,-99.73 645.31,-94.19 634.79,-92.89 636.27,-99.73"/>
</g>
<!-- Node28 -->
<g id="node28" class="node">
<title>Node28</title>
<g id="a_node28"><a xlink:title=" ">
<polygon fill="#e0e0e0" stroke="#999999" points="101,-96 0,-96 0,-66 101,-66 101,-96"/>
<text text-anchor="start" x="8" y="-84" font-family="Helvetica,sans-Serif" font-size="10.00">spdlog/sinks/stdout</text>
<text text-anchor="middle" x="50.5" y="-73" font-family="Helvetica,sans-Serif" font-size="10.00">_color_sinks.h</text>
</a>
</g>
</g>
<!-- Node23&#45;&gt;Node28 -->
<g id="edge34" class="edge">
<title>Node23&#45;&gt;Node28</title>
<path fill="none" stroke="#63b8ff" d="M419.32,-142.66C362.74,-135.79 231.13,-118.91 111.36,-96.27"/>
<polygon fill="#63b8ff" stroke="#63b8ff" points="111.77,-92.78 101.29,-94.34 110.46,-99.66 111.77,-92.78"/>
</g>
<!-- Node29 -->
<g id="node29" class="node">
<title>Node29</title>
<g id="a_node29"><a xlink:title=" ">
<polygon fill="#e0e0e0" stroke="#999999" points="220,-96 119,-96 119,-66 220,-66 220,-96"/>
<text text-anchor="start" x="127" y="-84" font-family="Helvetica,sans-Serif" font-size="10.00">spdlog/sinks/stdout</text>
<text text-anchor="middle" x="169.5" y="-73" font-family="Helvetica,sans-Serif" font-size="10.00">_sinks.h</text>
</a>
</g>
</g>
<!-- Node23&#45;&gt;Node29 -->
<g id="edge35" class="edge">
<title>Node23&#45;&gt;Node29</title>
<path fill="none" stroke="#63b8ff" d="M419.48,-139.68C379.6,-130.68 303.93,-113.52 229.97,-96.33"/>
<polygon fill="#63b8ff" stroke="#63b8ff" points="230.56,-92.88 220.02,-94.02 228.97,-99.69 230.56,-92.88"/>
</g>
<!-- Node30 -->
<g id="node30" class="node">
<title>Node30</title>
<g id="a_node30"><a xlink:title=" ">
<polygon fill="#e0e0e0" stroke="#999999" points="323,-90.5 238,-90.5 238,-71.5 323,-71.5 323,-90.5"/>
<text text-anchor="middle" x="280.5" y="-78.5" font-family="Helvetica,sans-Serif" font-size="10.00">spdlog/spdlog.h</text>
</a>
</g>
</g>
<!-- Node23&#45;&gt;Node30 -->
<g id="edge36" class="edge">
<title>Node23&#45;&gt;Node30</title>
<path fill="none" stroke="#63b8ff" d="M424.98,-137.37C396.01,-126.27 345.52,-106.92 312.56,-94.28"/>
<polygon fill="#63b8ff" stroke="#63b8ff" points="313.52,-90.91 302.93,-90.6 311.02,-97.44 313.52,-90.91"/>
</g>
<!-- Node31&#45;&gt;Node10 -->
<g id="edge41" class="edge">
<title>Node31&#45;&gt;Node10</title>
<path fill="none" stroke="#63b8ff" d="M579.04,-137.45C586.77,-135.62 594.9,-133.72 602.5,-132 676.12,-115.28 699.31,-126.19 768.5,-96 789.86,-86.68 789.72,-74.28 811.5,-66 874.21,-42.15 1060.55,-26.99 1163.74,-20.18"/>
<polygon fill="#63b8ff" stroke="#63b8ff" points="1164.02,-23.67 1173.77,-19.53 1163.56,-16.69 1164.02,-23.67"/>
</g>
<!-- Node31&#45;&gt;Node17 -->
<g id="edge39" class="edge">
<title>Node31&#45;&gt;Node17</title>
<path fill="none" stroke="#63b8ff" d="M578.06,-137.47C586.07,-135.59 594.57,-133.66 602.5,-132 690.48,-113.62 713.21,-112.81 801.5,-96 815.48,-93.34 831.01,-90.25 843.88,-87.65"/>
<polygon fill="#63b8ff" stroke="#63b8ff" points="844.86,-91.02 853.97,-85.6 843.47,-84.16 844.86,-91.02"/>
</g>
<!-- Node31&#45;&gt;Node21 -->
<g id="edge40" class="edge">
<title>Node31&#45;&gt;Node21</title>
<path fill="none" stroke="#63b8ff" d="M576.44,-137.5C584.9,-135.51 594,-133.52 602.5,-132 732.52,-108.72 770.52,-132.38 897.5,-96 899.13,-95.53 900.79,-94.99 902.44,-94.38"/>
<polygon fill="#63b8ff" stroke="#63b8ff" points="903.8,-97.61 911.67,-90.52 901.09,-91.16 903.8,-97.61"/>
</g>
<!-- Node32&#45;&gt;Node8 -->
<g id="edge49" class="edge">
<title>Node32&#45;&gt;Node8</title>
<path fill="none" stroke="#63b8ff" d="M1297.9,-131.95C1336.95,-120.38 1391.63,-104.18 1428.01,-93.41"/>
<polygon fill="#63b8ff" stroke="#63b8ff" points="1429.16,-96.71 1437.75,-90.52 1427.17,-90 1429.16,-96.71"/>
</g>
<!-- Node32&#45;&gt;Node10 -->
<g id="edge48" class="edge">
<title>Node32&#45;&gt;Node10</title>
<path fill="none" stroke="#63b8ff" d="M1248.76,-131.84C1246.05,-109.86 1240.81,-67.27 1237.49,-40.3"/>
<polygon fill="#63b8ff" stroke="#63b8ff" points="1240.94,-39.64 1236.24,-30.14 1233.99,-40.49 1240.94,-39.64"/>
</g>
<!-- Node32&#45;&gt;Node17 -->
<g id="edge43" class="edge">
<title>Node32&#45;&gt;Node17</title>
<path fill="none" stroke="#63b8ff" d="M1199.25,-138.75C1101.48,-124.93 897.95,-96.15 897.5,-96 896.45,-95.66 895.4,-95.27 894.34,-94.85"/>
<polygon fill="#63b8ff" stroke="#63b8ff" points="895.66,-91.61 885.13,-90.5 892.68,-97.94 895.66,-91.61"/>
</g>
<!-- Node32&#45;&gt;Node18 -->
<g id="edge44" class="edge">
<title>Node32&#45;&gt;Node18</title>
<path fill="none" stroke="#63b8ff" d="M1234.96,-131.8C1223.94,-121.72 1209.15,-108.19 1197.76,-97.78"/>
<polygon fill="#63b8ff" stroke="#63b8ff" points="1199.92,-95.01 1190.17,-90.84 1195.19,-100.18 1199.92,-95.01"/>
</g>
<!-- Node32&#45;&gt;Node21 -->
<g id="edge45" class="edge">
<title>Node32&#45;&gt;Node21</title>
<path fill="none" stroke="#63b8ff" d="M1199.19,-136.09C1147.67,-126.1 1066.05,-110.18 995.5,-96 983.29,-93.55 969.85,-90.79 958.17,-88.38"/>
<polygon fill="#63b8ff" stroke="#63b8ff" points="958.52,-84.88 948.02,-86.28 957.1,-91.73 958.52,-84.88"/>
</g>
<!-- Node33 -->
<g id="node33" class="node">
<title>Node33</title>
<g id="a_node33"><a xlink:title=" ">
<polygon fill="#e0e0e0" stroke="#999999" points="1376,-96 1263,-96 1263,-66 1376,-66 1376,-96"/>
<text text-anchor="start" x="1271" y="-84" font-family="Helvetica,sans-Serif" font-size="10.00">flutter/basic_message</text>
<text text-anchor="middle" x="1319.5" y="-73" font-family="Helvetica,sans-Serif" font-size="10.00">_channel.h</text>
</a>
</g>
</g>
<!-- Node32&#45;&gt;Node33 -->
<g id="edge46" class="edge">
<title>Node32&#45;&gt;Node33</title>
<path fill="none" stroke="#63b8ff" d="M1265.81,-131.8C1274.93,-123.34 1286.66,-112.46 1296.83,-103.03"/>
<polygon fill="#63b8ff" stroke="#63b8ff" points="1299.28,-105.53 1304.23,-96.16 1294.52,-100.4 1299.28,-105.53"/>
</g>
<!-- Node34 -->
<g id="node34" class="node">
<title>Node34</title>
<g id="a_node34"><a xlink:title=" ">
<polygon fill="#e0e0e0" stroke="#999999" points="1136.5,-90.5 1004.5,-90.5 1004.5,-71.5 1136.5,-71.5 1136.5,-90.5"/>
<text text-anchor="middle" x="1070.5" y="-78.5" font-family="Helvetica,sans-Serif" font-size="10.00">flutter/binary_messenger.h</text>
</a>
</g>
</g>
<!-- Node32&#45;&gt;Node34 -->
<g id="edge47" class="edge">
<title>Node32&#45;&gt;Node34</title>
<path fill="none" stroke="#63b8ff" d="M1211,-131.95C1179.01,-120.58 1134.45,-104.74 1104.15,-93.96"/>
<polygon fill="#63b8ff" stroke="#63b8ff" points="1105.05,-90.57 1094.45,-90.52 1102.7,-97.17 1105.05,-90.57"/>
</g>
<!-- Node39&#45;&gt;Node8 -->
<g id="edge56" class="edge">
<title>Node39&#45;&gt;Node8</title>
<path fill="none" stroke="#63b8ff" d="M1143.13,-137.63C1215.91,-125.11 1352.08,-101.69 1422.23,-89.62"/>
<polygon fill="#63b8ff" stroke="#63b8ff" points="1423.23,-93 1432.49,-87.85 1422.04,-86.1 1423.23,-93"/>
</g>
<!-- Node39&#45;&gt;Node10 -->
<g id="edge55" class="edge">
<title>Node39&#45;&gt;Node10</title>
<path fill="none" stroke="#63b8ff" d="M1053.09,-131.99C1016.9,-117.53 973.34,-93.27 995.5,-66 1016.39,-40.29 1100.86,-27.33 1163.49,-21.14"/>
<polygon fill="#63b8ff" stroke="#63b8ff" points="1164.11,-24.6 1173.73,-20.17 1163.44,-17.63 1164.11,-24.6"/>
</g>
<!-- Node39&#45;&gt;Node17 -->
<g id="edge51" class="edge">
<title>Node39&#45;&gt;Node17</title>
<path fill="none" stroke="#63b8ff" d="M1045.7,-137.09C1005.19,-128.88 946.49,-115.07 897.5,-96 896.78,-95.72 896.06,-95.43 895.34,-95.12"/>
<polygon fill="#63b8ff" stroke="#63b8ff" points="896.58,-91.83 886.05,-90.64 893.54,-98.14 896.58,-91.83"/>
</g>
<!-- Node39&#45;&gt;Node18 -->
<g id="edge52" class="edge">
<title>Node39&#45;&gt;Node18</title>
<path fill="none" stroke="#63b8ff" d="M1113.59,-131.8C1127.52,-121.43 1146.36,-107.4 1160.5,-96.88"/>
<polygon fill="#63b8ff" stroke="#63b8ff" points="1162.68,-99.62 1168.62,-90.84 1158.5,-94.01 1162.68,-99.62"/>
</g>
<!-- Node39&#45;&gt;Node21 -->
<g id="edge53" class="edge">
<title>Node39&#45;&gt;Node21</title>
<path fill="none" stroke="#63b8ff" d="M1056.88,-131.96C1030.43,-122.04 994.24,-108.36 962.5,-96 960.91,-95.38 959.27,-94.74 957.63,-94.09"/>
<polygon fill="#63b8ff" stroke="#63b8ff" points="958.79,-90.79 948.2,-90.35 956.21,-97.29 958.79,-90.79"/>
</g>
<!-- Node39&#45;&gt;Node34 -->
<g id="edge54" class="edge">
<title>Node39&#45;&gt;Node34</title>
<path fill="none" stroke="#63b8ff" d="M1089.17,-131.8C1085.69,-122.5 1081.1,-110.27 1077.35,-100.26"/>
<polygon fill="#63b8ff" stroke="#63b8ff" points="1080.61,-98.98 1073.82,-90.84 1074.05,-101.44 1080.61,-98.98"/>
</g>
<!-- Node44&#45;&gt;Node17 -->
<g id="edge58" class="edge">
<title>Node44&#45;&gt;Node17</title>
<path fill="none" stroke="#63b8ff" d="M931.19,-137.37C920.35,-127.31 902.2,-110.48 888.76,-98.01"/>
<polygon fill="#63b8ff" stroke="#63b8ff" points="890.81,-95.14 881.1,-90.91 886.05,-100.27 890.81,-95.14"/>
</g>
<!-- Node44&#45;&gt;Node18 -->
<g id="edge59" class="edge">
<title>Node44&#45;&gt;Node18</title>
<path fill="none" stroke="#63b8ff" d="M982.99,-137.47C1024.79,-128.65 1090.2,-113.71 1145.5,-96 1147.17,-95.46 1148.88,-94.89 1150.59,-94.28"/>
<polygon fill="#63b8ff" stroke="#63b8ff" points="1152.19,-97.42 1160.32,-90.64 1149.73,-90.87 1152.19,-97.42"/>
</g>
<!-- Node51&#45;&gt;Node3 -->
<g id="edge63" class="edge">
<title>Node51&#45;&gt;Node3</title>
<path fill="none" stroke="#63b8ff" d="M1890.89,-205.4C1820.02,-202.71 1681.46,-193.52 1568.5,-162 1566.82,-161.53 1565.11,-160.98 1563.41,-160.38"/>
<polygon fill="#63b8ff" stroke="#63b8ff" points="1564.47,-157.03 1553.88,-156.52 1561.83,-163.52 1564.47,-157.03"/>
</g>
<!-- Node51&#45;&gt;Node8 -->
<g id="edge69" class="edge">
<title>Node51&#45;&gt;Node8</title>
<path fill="none" stroke="#63b8ff" d="M1938.03,-198C1938.5,-182.28 1937.01,-148.75 1917.5,-132 1887.02,-105.83 1618.84,-89.62 1511.06,-84.11"/>
<polygon fill="#63b8ff" stroke="#63b8ff" points="1511,-80.61 1500.84,-83.6 1510.65,-87.6 1511,-80.61"/>
</g>
<!-- Node51&#45;&gt;Node9 -->
<g id="edge64" class="edge">
<title>Node51&#45;&gt;Node9</title>
<path fill="none" stroke="#63b8ff" d="M1984.06,-206.36C2018.42,-203.5 2063.11,-193.39 2086.5,-162 2094.47,-151.31 2092.74,-143.79 2086.5,-132 2062.11,-85.91 2038.43,-84.03 1989.5,-66 1912.94,-37.79 1667.87,-22.83 1570.72,-17.88"/>
<polygon fill="#63b8ff" stroke="#63b8ff" points="1570.87,-14.39 1560.71,-17.38 1570.52,-21.38 1570.87,-14.39"/>
</g>
<!-- Node51&#45;&gt;Node10 -->
<g id="edge68" class="edge">
<title>Node51&#45;&gt;Node10</title>
<path fill="none" stroke="#63b8ff" d="M1941.17,-197.94C1947.06,-182.7 1956.42,-150.75 1940.5,-132 1899.53,-83.75 1476.21,-38.79 1305.39,-22.48"/>
<polygon fill="#63b8ff" stroke="#63b8ff" points="1305.53,-18.97 1295.24,-21.51 1304.87,-25.94 1305.53,-18.97"/>
</g>
<!-- Node51&#45;&gt;Node14 -->
<g id="edge66" class="edge">
<title>Node51&#45;&gt;Node14</title>
<path fill="none" stroke="#63b8ff" d="M1890.7,-201.12C1834.95,-194.23 1739.21,-180.89 1658.5,-162 1655.31,-161.25 1652.02,-160.4 1648.74,-159.49"/>
<polygon fill="#63b8ff" stroke="#63b8ff" points="1649.61,-156.1 1639.03,-156.64 1647.64,-162.81 1649.61,-156.1"/>
</g>
<!-- Node51&#45;&gt;Node15 -->
<g id="edge67" class="edge">
<title>Node51&#45;&gt;Node15</title>
<path fill="none" stroke="#63b8ff" d="M1907.4,-197.99C1871.22,-187.77 1810.39,-170.58 1770.34,-159.26"/>
<polygon fill="#63b8ff" stroke="#63b8ff" points="1771.21,-155.87 1760.64,-156.52 1769.31,-162.6 1771.21,-155.87"/>
</g>
<!-- Node51&#45;&gt;Node18 -->
<g id="edge62" class="edge">
<title>Node51&#45;&gt;Node18</title>
<path fill="none" stroke="#63b8ff" d="M1915.21,-197.96C1895.07,-189.85 1864.93,-176.74 1840.5,-162 1821.78,-150.7 1821.96,-139.72 1801.5,-132 1687.31,-88.93 1374.55,-111.52 1253.5,-96 1241.42,-94.45 1228.33,-92.14 1216.61,-89.84"/>
<polygon fill="#63b8ff" stroke="#63b8ff" points="1217.22,-86.4 1206.73,-87.85 1215.84,-93.26 1217.22,-86.4"/>
</g>
<!-- Node52 -->
<g id="node38" class="node">
<title>Node52</title>
<g id="a_node38"><a xlink:title=" ">
<polygon fill="#e0e0e0" stroke="#999999" points="2077.5,-156.5 2003.5,-156.5 2003.5,-137.5 2077.5,-137.5 2077.5,-156.5"/>
<text text-anchor="middle" x="2040.5" y="-144.5" font-family="Helvetica,sans-Serif" font-size="10.00">EGL/eglext.h</text>
</a>
</g>
</g>
<!-- Node51&#45;&gt;Node52 -->
<g id="edge65" class="edge">
<title>Node51&#45;&gt;Node52</title>
<path fill="none" stroke="#63b8ff" d="M1952.7,-197.87C1969.51,-188.32 1996.82,-172.81 2016.52,-161.62"/>
<polygon fill="#63b8ff" stroke="#63b8ff" points="2018.27,-164.65 2025.24,-156.67 2014.82,-158.56 2018.27,-164.65"/>
</g>
<!-- Node54 -->
<g id="node40" class="node">
<title>Node54</title>
<g id="a_node40"><a xlink:title=" ">
<polygon fill="#e0e0e0" stroke="#999999" points="2355.5,-156.5 2309.5,-156.5 2309.5,-137.5 2355.5,-137.5 2355.5,-156.5"/>
<text text-anchor="middle" x="2332.5" y="-144.5" font-family="Helvetica,sans-Serif" font-size="10.00">cctype</text>
</a>
</g>
</g>
<!-- Node53&#45;&gt;Node54 -->
<g id="edge71" class="edge">
<title>Node53&#45;&gt;Node54</title>
<path fill="none" stroke="#63b8ff" d="M2273.68,-197.87C2284.38,-188.8 2301.44,-174.34 2314.43,-163.32"/>
<polygon fill="#63b8ff" stroke="#63b8ff" points="2316.91,-165.8 2322.28,-156.67 2312.39,-160.46 2316.91,-165.8"/>
</g>
<!-- Node55 -->
<g id="node41" class="node">
<title>Node55</title>
<g id="a_node41"><a xlink:title=" ">
<polygon fill="#e0e0e0" stroke="#999999" points="2291.5,-156.5 2241.5,-156.5 2241.5,-137.5 2291.5,-137.5 2291.5,-156.5"/>
<text text-anchor="middle" x="2266.5" y="-144.5" font-family="Helvetica,sans-Serif" font-size="10.00">iomanip</text>
</a>
</g>
</g>
<!-- Node53&#45;&gt;Node55 -->
<g id="edge72" class="edge">
<title>Node53&#45;&gt;Node55</title>
<path fill="none" stroke="#63b8ff" d="M2263.94,-197.87C2264.36,-189.75 2265,-177.31 2265.53,-166.89"/>
<polygon fill="#63b8ff" stroke="#63b8ff" points="2269.04,-166.83 2266.06,-156.67 2262.05,-166.47 2269.04,-166.83"/>
</g>
<!-- Node56 -->
<g id="node42" class="node">
<title>Node56</title>
<g id="a_node42"><a xlink:title=" ">
<polygon fill="#e0e0e0" stroke="#999999" points="2223.5,-156.5 2171.5,-156.5 2171.5,-137.5 2223.5,-137.5 2223.5,-156.5"/>
<text text-anchor="middle" x="2197.5" y="-144.5" font-family="Helvetica,sans-Serif" font-size="10.00">ostream</text>
</a>
</g>
</g>
<!-- Node53&#45;&gt;Node56 -->
<g id="edge73" class="edge">
<title>Node53&#45;&gt;Node56</title>
<path fill="none" stroke="#63b8ff" d="M2253.76,-197.87C2243.53,-188.8 2227.21,-174.34 2214.78,-163.32"/>
<polygon fill="#63b8ff" stroke="#63b8ff" points="2217.08,-160.68 2207.28,-156.67 2212.44,-165.92 2217.08,-160.68"/>
</g>
<!-- Node57&#45;&gt;Node8 -->
<g id="edge83" class="edge">
<title>Node57&#45;&gt;Node8</title>
<path fill="none" stroke="#63b8ff" d="M2344.35,-197.54C2358.39,-182.25 2382.43,-150.96 2364.5,-132 2334.88,-100.68 1687.96,-86.19 1510.93,-82.8"/>
<polygon fill="#63b8ff" stroke="#63b8ff" points="1510.75,-79.29 1500.68,-82.6 1510.61,-86.29 1510.75,-79.29"/>
</g>
<!-- Node57&#45;&gt;Node13 -->
<g id="edge77" class="edge">
<title>Node57&#45;&gt;Node13</title>
<path fill="none" stroke="#63b8ff" d="M2313.97,-199.95C2311.14,-199.22 2308.26,-198.55 2305.5,-198 2169.01,-170.95 2132.67,-178.41 1994.5,-162 1969.5,-159.03 1941.45,-155.62 1919.32,-152.91"/>
<polygon fill="#63b8ff" stroke="#63b8ff" points="1919.63,-149.42 1909.28,-151.67 1918.78,-156.37 1919.63,-149.42"/>
</g>
<!-- Node57&#45;&gt;Node54 -->
<g id="edge76" class="edge">
<title>Node57&#45;&gt;Node54</title>
<path fill="none" stroke="#63b8ff" d="M2335.06,-197.87C2334.64,-189.75 2334,-177.31 2333.47,-166.89"/>
<polygon fill="#63b8ff" stroke="#63b8ff" points="2336.95,-166.47 2332.94,-156.67 2329.96,-166.83 2336.95,-166.47"/>
</g>
<!-- Node58 -->
<g id="node44" class="node">
<title>Node58</title>
<g id="a_node44"><a xlink:title=" ">
<polygon fill="#e0e0e0" stroke="#999999" points="2467.5,-156.5 2411.5,-156.5 2411.5,-137.5 2467.5,-137.5 2467.5,-156.5"/>
<text text-anchor="middle" x="2439.5" y="-144.5" font-family="Helvetica,sans-Serif" font-size="10.00">algorithm</text>
</a>
</g>
</g>
<!-- Node57&#45;&gt;Node58 -->
<g id="edge75" class="edge">
<title>Node57&#45;&gt;Node58</title>
<path fill="none" stroke="#63b8ff" d="M2350.85,-197.87C2367.82,-188.32 2395.4,-172.81 2415.29,-161.62"/>
<polygon fill="#63b8ff" stroke="#63b8ff" points="2417.09,-164.62 2424.09,-156.67 2413.66,-158.52 2417.09,-164.62"/>
</g>
<!-- Node59 -->
<g id="node45" class="node">
<title>Node59</title>
<g id="a_node45"><a xlink:title=" ">
<polygon fill="#e0e0e0" stroke="#999999" points="2527.5,-156.5 2485.5,-156.5 2485.5,-137.5 2527.5,-137.5 2527.5,-156.5"/>
<text text-anchor="middle" x="2506.5" y="-144.5" font-family="Helvetica,sans-Serif" font-size="10.00">locale</text>
</a>
</g>
</g>
<!-- Node57&#45;&gt;Node59 -->
<g id="edge78" class="edge">
<title>Node57&#45;&gt;Node59</title>
<path fill="none" stroke="#63b8ff" d="M2357.3,-200.58C2385.27,-192.77 2435.12,-178.11 2476.5,-162 2477.54,-161.59 2478.6,-161.17 2479.67,-160.73"/>
<polygon fill="#63b8ff" stroke="#63b8ff" points="2481.47,-163.76 2489.22,-156.53 2478.65,-157.35 2481.47,-163.76"/>
</g>
<!-- Node60 -->
<g id="node46" class="node">
<title>Node60</title>
<g id="a_node46"><a xlink:title=" ">
<polygon fill="#e0e0e0" stroke="#999999" points="2589,-156.5 2546,-156.5 2546,-137.5 2589,-137.5 2589,-156.5"/>
<text text-anchor="middle" x="2567.5" y="-144.5" font-family="Helvetica,sans-Serif" font-size="10.00">pwd.h</text>
</a>
</g>
</g>
<!-- Node57&#45;&gt;Node60 -->
<g id="edge79" class="edge">
<title>Node57&#45;&gt;Node60</title>
<path fill="none" stroke="#63b8ff" d="M2357.14,-200.39C2360.27,-199.56 2363.46,-198.74 2366.5,-198 2441.55,-179.78 2463.1,-186.03 2536.5,-162 2537.94,-161.53 2539.4,-161.01 2540.86,-160.46"/>
<polygon fill="#63b8ff" stroke="#63b8ff" points="2542.48,-163.58 2550.38,-156.52 2539.8,-157.11 2542.48,-163.58"/>
</g>
<!-- Node61 -->
<g id="node47" class="node">
<title>Node61</title>
<g id="a_node47"><a xlink:title=" ">
<polygon fill="#e0e0e0" stroke="#999999" points="2658,-156.5 2607,-156.5 2607,-137.5 2658,-137.5 2658,-156.5"/>
<text text-anchor="middle" x="2632.5" y="-144.5" font-family="Helvetica,sans-Serif" font-size="10.00">unistd.h</text>
</a>
</g>
</g>
<!-- Node57&#45;&gt;Node61 -->
<g id="edge80" class="edge">
<title>Node57&#45;&gt;Node61</title>
<path fill="none" stroke="#63b8ff" d="M2357.1,-200.24C2360.24,-199.43 2363.44,-198.65 2366.5,-198 2468.54,-176.17 2498,-190.06 2598.5,-162 2600.44,-161.46 2602.41,-160.84 2604.39,-160.17"/>
<polygon fill="#63b8ff" stroke="#63b8ff" points="2605.95,-163.32 2614.07,-156.51 2603.48,-156.77 2605.95,-163.32"/>
</g>
<!-- Node62 -->
<g id="node48" class="node">
<title>Node62</title>
<g id="a_node48"><a xlink:title=" ">
<polygon fill="#e0e0e0" stroke="#999999" points="2721,-156.5 2676,-156.5 2676,-137.5 2721,-137.5 2721,-156.5"/>
<text text-anchor="middle" x="2698.5" y="-144.5" font-family="Helvetica,sans-Serif" font-size="10.00">cstdlib</text>
</a>
</g>
</g>
<!-- Node57&#45;&gt;Node62 -->
<g id="edge81" class="edge">
<title>Node57&#45;&gt;Node62</title>
<path fill="none" stroke="#63b8ff" d="M2357.08,-200.14C2360.22,-199.34 2363.43,-198.6 2366.5,-198 2498.72,-172.11 2537.71,-198.15 2667.5,-162 2669.18,-161.53 2670.89,-160.98 2672.59,-160.38"/>
<polygon fill="#63b8ff" stroke="#63b8ff" points="2674.17,-163.52 2682.12,-156.52 2671.53,-157.04 2674.17,-163.52"/>
</g>
<!-- Node63 -->
<g id="node49" class="node">
<title>Node63</title>
<g id="a_node49"><a xlink:title=" ">
<polygon fill="#e0e0e0" stroke="#999999" points="2785.5,-156.5 2739.5,-156.5 2739.5,-137.5 2785.5,-137.5 2785.5,-156.5"/>
<text text-anchor="middle" x="2762.5" y="-144.5" font-family="Helvetica,sans-Serif" font-size="10.00">cstring</text>
</a>
</g>
</g>
<!-- Node57&#45;&gt;Node63 -->
<g id="edge82" class="edge">
<title>Node57&#45;&gt;Node63</title>
<path fill="none" stroke="#63b8ff" d="M2357.07,-200.08C2360.22,-199.3 2363.43,-198.57 2366.5,-198 2526.35,-168.4 2573.21,-203.08 2730.5,-162 2732.39,-161.51 2734.32,-160.91 2736.23,-160.26"/>
<polygon fill="#63b8ff" stroke="#63b8ff" points="2737.56,-163.5 2745.58,-156.58 2735,-156.98 2737.56,-163.5"/>
</g>
</g>
</svg>
