<?xml version="1.0" encoding="UTF-8" standalone="no"?>
<!DOCTYPE svg PUBLIC "-//W3C//DTD SVG 1.1//EN"
 "http://www.w3.org/Graphics/SVG/1.1/DTD/svg11.dtd">
<!-- Generated by graphviz version 5.0.0 (0)
 -->
<!-- Title: /mnt/raid10/stargate/ivi&#45;homescreen/shell/engine.h Pages: 1 -->
<svg width="3667pt" height="357pt"
 viewBox="0.00 0.00 3667.00 357.00" xmlns="http://www.w3.org/2000/svg" xmlns:xlink="http://www.w3.org/1999/xlink">
<g id="graph0" class="graph" transform="scale(1 1) rotate(0) translate(4 353)">
<title>/mnt/raid10/stargate/ivi&#45;homescreen/shell/engine.h</title>
<!-- Node1 -->
<g id="node1" class="node">
<title>Node1</title>
<g id="a_node1"><a xlink:title=" ">
<polygon fill="#999999" stroke="#666666" points="2096,-349 1987,-349 1987,-308 2096,-308 2096,-349"/>
<text text-anchor="start" x="1995" y="-337" font-family="Helvetica,sans-Serif" font-size="10.00">/mnt/raid10/stargate</text>
<text text-anchor="start" x="1995" y="-326" font-family="Helvetica,sans-Serif" font-size="10.00">/ivi&#45;homescreen/shell</text>
<text text-anchor="middle" x="2041.5" y="-315" font-family="Helvetica,sans-Serif" font-size="10.00">/engine.h</text>
</a>
</g>
</g>
<!-- Node2 -->
<g id="node2" class="node">
<title>Node2</title>
<g id="a_node2"><a xlink:title=" ">
<polygon fill="#e0e0e0" stroke="#999999" points="59,-272 0,-272 0,-253 59,-253 59,-272"/>
<text text-anchor="middle" x="29.5" y="-260" font-family="Helvetica,sans-Serif" font-size="10.00">functional</text>
</a>
</g>
</g>
<!-- Node1&#45;&gt;Node2 -->
<g id="edge1" class="edge">
<title>Node1&#45;&gt;Node2</title>
<path fill="none" stroke="#63b8ff" d="M1986.76,-327.16C1709.62,-325.26 459.33,-314.42 73.5,-272 72.19,-271.86 70.87,-271.7 69.54,-271.52"/>
<polygon fill="#63b8ff" stroke="#63b8ff" points="69.64,-267.99 59.22,-269.92 68.57,-274.91 69.64,-267.99"/>
</g>
<!-- Node3 -->
<g id="node3" class="node">
<title>Node3</title>
<g id="a_node3"><a xlink:title=" ">
<polygon fill="#e0e0e0" stroke="#999999" points="838.5,-24.5 778.5,-24.5 778.5,-5.5 838.5,-5.5 838.5,-24.5"/>
<text text-anchor="middle" x="808.5" y="-12.5" font-family="Helvetica,sans-Serif" font-size="10.00">EGL/egl.h</text>
</a>
</g>
</g>
<!-- Node1&#45;&gt;Node3 -->
<g id="edge2" class="edge">
<title>Node1&#45;&gt;Node3</title>
<path fill="none" stroke="#63b8ff" d="M1986.94,-326.95C1670.76,-323.43 87.5,-300.91 87.5,-203 87.5,-203 87.5,-203 87.5,-135 87.5,-82.82 133.55,-84.09 182.5,-66 290.58,-26.06 646.94,-17.99 767.91,-16.39"/>
<polygon fill="#63b8ff" stroke="#63b8ff" points="768.25,-19.88 778.21,-16.26 768.17,-12.88 768.25,-19.88"/>
</g>
<!-- Node4 -->
<g id="node4" class="node">
<title>Node4</title>
<g id="a_node4"><a xlink:title=" ">
<polygon fill="#e0e0e0" stroke="#999999" points="3045.5,-272 2973.5,-272 2973.5,-253 3045.5,-253 3045.5,-272"/>
<text text-anchor="middle" x="3009.5" y="-260" font-family="Helvetica,sans-Serif" font-size="10.00">GLES2/gl2.h</text>
</a>
</g>
</g>
<!-- Node1&#45;&gt;Node4 -->
<g id="edge3" class="edge">
<title>Node1&#45;&gt;Node4</title>
<path fill="none" stroke="#63b8ff" d="M2096.08,-326.63C2237.66,-323.85 2628.39,-312.9 2962.84,-272.04"/>
<polygon fill="#63b8ff" stroke="#63b8ff" points="2963.72,-275.46 2973.21,-270.76 2962.86,-268.51 2963.72,-275.46"/>
</g>
<!-- Node5 -->
<g id="node5" class="node">
<title>Node5</title>
<g id="a_node5"><a xlink:title=" ">
<polygon fill="#e0e0e0" stroke="#999999" points="3189,-272 3064,-272 3064,-253 3189,-253 3189,-272"/>
<text text-anchor="middle" x="3126.5" y="-260" font-family="Helvetica,sans-Serif" font-size="10.00">flutter/encodable_value.h</text>
</a>
</g>
</g>
<!-- Node1&#45;&gt;Node5 -->
<g id="edge4" class="edge">
<title>Node1&#45;&gt;Node5</title>
<path fill="none" stroke="#63b8ff" d="M2096.21,-325.71C2246.98,-320.52 2681.34,-303.84 3053.53,-272.02"/>
<polygon fill="#63b8ff" stroke="#63b8ff" points="3054.03,-275.49 3063.7,-271.15 3053.43,-268.52 3054.03,-275.49"/>
</g>
<!-- Node6 -->
<g id="node6" class="node">
<title>Node6</title>
<g id="a_node6"><a xlink:title=" ">
<polygon fill="#e0e0e0" stroke="#999999" points="1790,-30 1669,-30 1669,0 1790,0 1790,-30"/>
<text text-anchor="start" x="1677" y="-18" font-family="Helvetica,sans-Serif" font-size="10.00">shell/platform/embedder</text>
<text text-anchor="middle" x="1729.5" y="-7" font-family="Helvetica,sans-Serif" font-size="10.00">/embedder.h</text>
</a>
</g>
</g>
<!-- Node1&#45;&gt;Node6 -->
<g id="edge5" class="edge">
<title>Node1&#45;&gt;Node6</title>
<path fill="none" stroke="#63b8ff" d="M2096.28,-325.08C2281.3,-316.18 2871.5,-281.64 2871.5,-203 2871.5,-203 2871.5,-203 2871.5,-135 2871.5,-108.91 2840.22,-125.38 2814.5,-121 2714.82,-104.03 2025.4,-42.21 1800.37,-22.26"/>
<polygon fill="#63b8ff" stroke="#63b8ff" points="1800.59,-18.76 1790.32,-21.37 1799.98,-25.74 1800.59,-18.76"/>
</g>
<!-- Node7 -->
<g id="node7" class="node">
<title>Node7</title>
<g id="a_node7"><a xlink:title=" ">
<polygon fill="#e0e0e0" stroke="#999999" points="3269.5,-272 3207.5,-272 3207.5,-253 3269.5,-253 3269.5,-272"/>
<text text-anchor="middle" x="3238.5" y="-260" font-family="Helvetica,sans-Serif" font-size="10.00">filesystem</text>
</a>
</g>
</g>
<!-- Node1&#45;&gt;Node7 -->
<g id="edge6" class="edge">
<title>Node1&#45;&gt;Node7</title>
<path fill="none" stroke="#63b8ff" d="M2096.28,-328C2261.44,-328.84 2768.93,-326.57 3197.04,-271.96"/>
<polygon fill="#63b8ff" stroke="#63b8ff" points="3197.67,-275.41 3207.14,-270.66 3196.77,-268.47 3197.67,-275.41"/>
</g>
<!-- Node8 -->
<g id="node8" class="node">
<title>Node8</title>
<g id="a_node8"><a xlink:title=" ">
<polygon fill="#e0e0e0" stroke="#999999" points="189,-145.5 154,-145.5 154,-126.5 189,-126.5 189,-145.5"/>
<text text-anchor="middle" x="171.5" y="-133.5" font-family="Helvetica,sans-Serif" font-size="10.00">map</text>
</a>
</g>
</g>
<!-- Node1&#45;&gt;Node8 -->
<g id="edge7" class="edge">
<title>Node1&#45;&gt;Node8</title>
<path fill="none" stroke="#63b8ff" d="M1986.95,-325.66C1741.09,-317.07 734.53,-278.73 425.5,-217 340.78,-200.08 244.4,-165.23 198.53,-147.65"/>
<polygon fill="#63b8ff" stroke="#63b8ff" points="199.61,-144.31 189.02,-143.97 197.08,-150.84 199.61,-144.31"/>
</g>
<!-- Node9 -->
<g id="node9" class="node">
<title>Node9</title>
<g id="a_node9"><a xlink:title=" ">
<polygon fill="#e0e0e0" stroke="#999999" points="1934.5,-145.5 1882.5,-145.5 1882.5,-126.5 1934.5,-126.5 1934.5,-145.5"/>
<text text-anchor="middle" x="1908.5" y="-133.5" font-family="Helvetica,sans-Serif" font-size="10.00">memory</text>
</a>
</g>
</g>
<!-- Node1&#45;&gt;Node9 -->
<g id="edge8" class="edge">
<title>Node1&#45;&gt;Node9</title>
<path fill="none" stroke="#63b8ff" d="M2027.77,-307.83C2001.57,-270.31 1944.88,-189.11 1920.28,-153.88"/>
<polygon fill="#63b8ff" stroke="#63b8ff" points="1923.1,-151.79 1914.5,-145.6 1917.36,-155.8 1923.1,-151.79"/>
</g>
<!-- Node10 -->
<g id="node10" class="node">
<title>Node10</title>
<g id="a_node10"><a xlink:title=" ">
<polygon fill="#e0e0e0" stroke="#999999" points="3331.5,-272 3287.5,-272 3287.5,-253 3331.5,-253 3331.5,-272"/>
<text text-anchor="middle" x="3309.5" y="-260" font-family="Helvetica,sans-Serif" font-size="10.00">mutex</text>
</a>
</g>
</g>
<!-- Node1&#45;&gt;Node10 -->
<g id="edge9" class="edge">
<title>Node1&#45;&gt;Node10</title>
<path fill="none" stroke="#63b8ff" d="M2096.26,-326.66C2301.48,-323.28 3025.53,-309.06 3277.09,-271.79"/>
<polygon fill="#63b8ff" stroke="#63b8ff" points="3277.93,-275.21 3287.28,-270.23 3276.86,-268.29 3277.93,-275.21"/>
</g>
<!-- Node11 -->
<g id="node11" class="node">
<title>Node11</title>
<g id="a_node11"><a xlink:title=" ">
<polygon fill="#e0e0e0" stroke="#999999" points="3393,-272 3350,-272 3350,-253 3393,-253 3393,-272"/>
<text text-anchor="middle" x="3371.5" y="-260" font-family="Helvetica,sans-Serif" font-size="10.00">queue</text>
</a>
</g>
</g>
<!-- Node1&#45;&gt;Node11 -->
<g id="edge10" class="edge">
<title>Node1&#45;&gt;Node11</title>
<path fill="none" stroke="#63b8ff" d="M2096.05,-326.8C2307.66,-323.85 3075.08,-310.75 3339.99,-271.6"/>
<polygon fill="#63b8ff" stroke="#63b8ff" points="3340.6,-275.04 3349.95,-270.07 3339.54,-268.12 3340.6,-275.04"/>
</g>
<!-- Node12 -->
<g id="node12" class="node">
<title>Node12</title>
<g id="a_node12"><a xlink:title=" ">
<polygon fill="#e0e0e0" stroke="#999999" points="1745,-145.5 1704,-145.5 1704,-126.5 1745,-126.5 1745,-145.5"/>
<text text-anchor="middle" x="1724.5" y="-133.5" font-family="Helvetica,sans-Serif" font-size="10.00">string</text>
</a>
</g>
</g>
<!-- Node1&#45;&gt;Node12 -->
<g id="edge11" class="edge">
<title>Node1&#45;&gt;Node12</title>
<path fill="none" stroke="#63b8ff" d="M1986.75,-326.95C1912.58,-322.84 1783,-302.97 1726.5,-217 1714.54,-198.81 1716.47,-172.92 1719.77,-155.57"/>
<polygon fill="#63b8ff" stroke="#63b8ff" points="1723.24,-156.09 1722,-145.56 1716.41,-154.56 1723.24,-156.09"/>
</g>
<!-- Node13 -->
<g id="node13" class="node">
<title>Node13</title>
<g id="a_node13"><a xlink:title=" ">
<polygon fill="#e0e0e0" stroke="#999999" points="1996.5,-145.5 1952.5,-145.5 1952.5,-126.5 1996.5,-126.5 1996.5,-145.5"/>
<text text-anchor="middle" x="1974.5" y="-133.5" font-family="Helvetica,sans-Serif" font-size="10.00">vector</text>
</a>
</g>
</g>
<!-- Node1&#45;&gt;Node13 -->
<g id="edge12" class="edge">
<title>Node1&#45;&gt;Node13</title>
<path fill="none" stroke="#63b8ff" d="M2035.32,-307.83C2026.65,-280.54 2010.18,-229.74 1994.5,-187 1990.62,-176.41 1985.95,-164.7 1982.11,-155.28"/>
<polygon fill="#63b8ff" stroke="#63b8ff" points="1985.24,-153.7 1978.2,-145.79 1978.77,-156.37 1985.24,-153.7"/>
</g>
<!-- Node14 -->
<g id="node14" class="node">
<title>Node14</title>
<g id="a_node14"><a xlink:href="backend_8h.html" target="_top" xlink:title=" ">
<polygon fill="white" stroke="#666666" points="2116,-145.5 2015,-145.5 2015,-126.5 2116,-126.5 2116,-145.5"/>
<text text-anchor="middle" x="2065.5" y="-133.5" font-family="Helvetica,sans-Serif" font-size="10.00">backend/backend.h</text>
</a>
</g>
</g>
<!-- Node1&#45;&gt;Node14 -->
<g id="edge13" class="edge">
<title>Node1&#45;&gt;Node14</title>
<path fill="none" stroke="#63b8ff" d="M2039.67,-307.83C2041.03,-270.95 2051.02,-191.86 2058.92,-155.71"/>
<polygon fill="#63b8ff" stroke="#63b8ff" points="2062.42,-156.14 2061.4,-145.6 2055.62,-154.48 2062.42,-156.14"/>
</g>
<!-- Node15 -->
<g id="node15" class="node">
<title>Node15</title>
<g id="a_node15"><a xlink:href="constants_8h.html" target="_top" xlink:title=" ">
<polygon fill="white" stroke="#666666" points="1953.5,-85 1885.5,-85 1885.5,-66 1953.5,-66 1953.5,-85"/>
<text text-anchor="middle" x="1919.5" y="-73" font-family="Helvetica,sans-Serif" font-size="10.00">constants.h</text>
</a>
</g>
</g>
<!-- Node1&#45;&gt;Node15 -->
<g id="edge20" class="edge">
<title>Node1&#45;&gt;Node15</title>
<path fill="none" stroke="#63b8ff" d="M2061.45,-307.9C2098.88,-268.77 2171.79,-179.66 2124.5,-121 2104.69,-96.43 2017.73,-84.73 1963.63,-79.74"/>
<polygon fill="#63b8ff" stroke="#63b8ff" points="1963.88,-76.25 1953.61,-78.85 1963.26,-83.22 1963.88,-76.25"/>
</g>
<!-- Node17 -->
<g id="node17" class="node">
<title>Node17</title>
<g id="a_node17"><a xlink:href="logging_8h.html" target="_top" xlink:title=" ">
<polygon fill="white" stroke="#666666" points="2955.5,-272 2899.5,-272 2899.5,-253 2955.5,-253 2955.5,-272"/>
<text text-anchor="middle" x="2927.5" y="-260" font-family="Helvetica,sans-Serif" font-size="10.00">logging.h</text>
</a>
</g>
</g>
<!-- Node1&#45;&gt;Node17 -->
<g id="edge21" class="edge">
<title>Node1&#45;&gt;Node17</title>
<path fill="none" stroke="#63b8ff" d="M2096.06,-326.44C2230.69,-323.28 2589.3,-311.53 2885.5,-272 2886.61,-271.85 2887.73,-271.69 2888.86,-271.52"/>
<polygon fill="#63b8ff" stroke="#63b8ff" points="2889.85,-274.91 2899.12,-269.78 2888.68,-268 2889.85,-274.91"/>
</g>
<!-- Node25 -->
<g id="node25" class="node">
<title>Node25</title>
<g id="a_node25"><a xlink:href="platform__channel_8h.html" target="_top" xlink:title=" ">
<polygon fill="white" stroke="#666666" points="534,-211.5 435,-211.5 435,-192.5 534,-192.5 534,-211.5"/>
<text text-anchor="middle" x="484.5" y="-199.5" font-family="Helvetica,sans-Serif" font-size="10.00">platform_channel.h</text>
</a>
</g>
</g>
<!-- Node1&#45;&gt;Node25 -->
<g id="edge30" class="edge">
<title>Node1&#45;&gt;Node25</title>
<path fill="none" stroke="#63b8ff" d="M1986.92,-324.03C1797.01,-311.8 1147.49,-268.64 612.5,-217 590.12,-214.84 565.57,-212.22 544.01,-209.83"/>
<polygon fill="#63b8ff" stroke="#63b8ff" points="544.34,-206.34 534.01,-208.71 543.56,-213.3 544.34,-206.34"/>
</g>
<!-- Node26 -->
<g id="node26" class="node">
<title>Node26</title>
<g id="a_node26"><a xlink:href="key__event_8h.html" target="_top" xlink:title=" ">
<polygon fill="white" stroke="#666666" points="788.5,-217 686.5,-217 686.5,-187 788.5,-187 788.5,-217"/>
<text text-anchor="start" x="694.5" y="-205" font-family="Helvetica,sans-Serif" font-size="10.00">static_plugins/key</text>
<text text-anchor="middle" x="737.5" y="-194" font-family="Helvetica,sans-Serif" font-size="10.00">_event/key_event.h</text>
</a>
</g>
</g>
<!-- Node1&#45;&gt;Node26 -->
<g id="edge34" class="edge">
<title>Node1&#45;&gt;Node26</title>
<path fill="none" stroke="#63b8ff" d="M1986.72,-322.27C1776.28,-302.18 1020.56,-230.03 798.98,-208.87"/>
<polygon fill="#63b8ff" stroke="#63b8ff" points="799.12,-205.37 788.83,-207.9 798.45,-212.34 799.12,-205.37"/>
</g>
<!-- Node33 -->
<g id="node33" class="node">
<title>Node33</title>
<g id="a_node33"><a xlink:href="text__input_8h.html" target="_top" xlink:title=" ">
<polygon fill="white" stroke="#666666" points="1523,-217 1426,-217 1426,-187 1523,-187 1523,-217"/>
<text text-anchor="start" x="1434" y="-205" font-family="Helvetica,sans-Serif" font-size="10.00">static_plugins/text</text>
<text text-anchor="middle" x="1474.5" y="-194" font-family="Helvetica,sans-Serif" font-size="10.00">_input/text_input.h</text>
</a>
</g>
</g>
<!-- Node1&#45;&gt;Node33 -->
<g id="edge46" class="edge">
<title>Node1&#45;&gt;Node33</title>
<path fill="none" stroke="#63b8ff" d="M1986.77,-321.3C1917.8,-312.91 1795.92,-296.16 1693.5,-272 1633.8,-257.92 1566.76,-235.84 1522.76,-220.46"/>
<polygon fill="#63b8ff" stroke="#63b8ff" points="1523.78,-217.11 1513.18,-217.09 1521.45,-223.71 1523.78,-217.11"/>
</g>
<!-- Node38 -->
<g id="node38" class="node">
<title>Node38</title>
<g id="a_node38"><a xlink:href="flutter__view_8h.html" target="_top" xlink:title=" ">
<polygon fill="white" stroke="#666666" points="1952.5,-272 1854.5,-272 1854.5,-253 1952.5,-253 1952.5,-272"/>
<text text-anchor="middle" x="1903.5" y="-260" font-family="Helvetica,sans-Serif" font-size="10.00">view/flutter_view.h</text>
</a>
</g>
</g>
<!-- Node1&#45;&gt;Node38 -->
<g id="edge60" class="edge">
<title>Node1&#45;&gt;Node38</title>
<path fill="none" stroke="#63b8ff" d="M1999.35,-307.95C1977.24,-297.7 1950.78,-285.43 1931.27,-276.38"/>
<polygon fill="#63b8ff" stroke="#63b8ff" points="1932.57,-273.12 1922.03,-272.09 1929.63,-279.47 1932.57,-273.12"/>
</g>
<!-- Node14&#45;&gt;Node1 -->
<g id="edge19" class="edge">
<title>Node14&#45;&gt;Node1</title>
<path fill="none" stroke="#63b8ff" d="M2067.44,-145.6C2068.26,-172.12 2058.68,-253.54 2050.28,-297.92"/>
<polygon fill="#63b8ff" stroke="#63b8ff" points="2046.82,-297.34 2048.29,-307.83 2053.69,-298.72 2046.82,-297.34"/>
</g>
<!-- Node14&#45;&gt;Node6 -->
<g id="edge14" class="edge">
<title>Node14&#45;&gt;Node6</title>
<path fill="none" stroke="#63b8ff" d="M2030.28,-126.49C1983.82,-115.12 1904.65,-95.24 1876.5,-85 1837.17,-70.7 1794.03,-49.79 1764.72,-34.73"/>
<polygon fill="#63b8ff" stroke="#63b8ff" points="1766.2,-31.56 1755.71,-30.07 1762.98,-37.78 1766.2,-31.56"/>
</g>
<!-- Node14&#45;&gt;Node15 -->
<g id="edge15" class="edge">
<title>Node14&#45;&gt;Node15</title>
<path fill="none" stroke="#63b8ff" d="M2044.27,-126.49C2019.51,-116.57 1978.38,-100.09 1950.15,-88.78"/>
<polygon fill="#63b8ff" stroke="#63b8ff" points="1951.34,-85.49 1940.76,-85.02 1948.74,-91.99 1951.34,-85.49"/>
</g>
<!-- Node15&#45;&gt;Node3 -->
<g id="edge16" class="edge">
<title>Node15&#45;&gt;Node3</title>
<path fill="none" stroke="#63b8ff" d="M1885.34,-72.7C1722.34,-64.12 1024.31,-27.36 848.71,-18.12"/>
<polygon fill="#63b8ff" stroke="#63b8ff" points="848.78,-14.62 838.61,-17.59 848.42,-21.61 848.78,-14.62"/>
</g>
<!-- Node15&#45;&gt;Node6 -->
<g id="edge17" class="edge">
<title>Node15&#45;&gt;Node6</title>
<path fill="none" stroke="#63b8ff" d="M1891.87,-65.99C1863.93,-57.39 1819.97,-43.86 1784.83,-33.04"/>
<polygon fill="#63b8ff" stroke="#63b8ff" points="1785.77,-29.66 1775.18,-30.06 1783.71,-36.35 1785.77,-29.66"/>
</g>
<!-- Node16 -->
<g id="node16" class="node">
<title>Node16</title>
<g id="a_node16"><a xlink:title=" ">
<polygon fill="#e0e0e0" stroke="#999999" points="1938.5,-24.5 1900.5,-24.5 1900.5,-5.5 1938.5,-5.5 1938.5,-24.5"/>
<text text-anchor="middle" x="1919.5" y="-12.5" font-family="Helvetica,sans-Serif" font-size="10.00">array</text>
</a>
</g>
</g>
<!-- Node15&#45;&gt;Node16 -->
<g id="edge18" class="edge">
<title>Node15&#45;&gt;Node16</title>
<path fill="none" stroke="#63b8ff" d="M1919.5,-65.87C1919.5,-57.75 1919.5,-45.31 1919.5,-34.89"/>
<polygon fill="#63b8ff" stroke="#63b8ff" points="1923,-34.67 1919.5,-24.67 1916,-34.67 1923,-34.67"/>
</g>
<!-- Node17&#45;&gt;Node15 -->
<g id="edge29" class="edge">
<title>Node17&#45;&gt;Node15</title>
<path fill="none" stroke="#63b8ff" d="M2920.07,-252.69C2912.55,-243.75 2900.63,-229.48 2890.5,-217 2856.21,-174.74 2862.88,-145.91 2814.5,-121 2738.5,-81.88 2133.37,-77.13 1963.63,-76.57"/>
<polygon fill="#63b8ff" stroke="#63b8ff" points="1963.56,-73.07 1953.55,-76.54 1963.54,-80.07 1963.56,-73.07"/>
</g>
<!-- Node18 -->
<g id="node18" class="node">
<title>Node18</title>
<g id="a_node18"><a xlink:title=" ">
<polygon fill="#e0e0e0" stroke="#999999" points="2951.5,-211.5 2899.5,-211.5 2899.5,-192.5 2951.5,-192.5 2951.5,-211.5"/>
<text text-anchor="middle" x="2925.5" y="-199.5" font-family="Helvetica,sans-Serif" font-size="10.00">sstream</text>
</a>
</g>
</g>
<!-- Node17&#45;&gt;Node18 -->
<g id="edge22" class="edge">
<title>Node17&#45;&gt;Node18</title>
<path fill="none" stroke="#63b8ff" d="M2927.2,-252.87C2926.93,-244.75 2926.5,-232.31 2926.15,-221.89"/>
<polygon fill="#63b8ff" stroke="#63b8ff" points="2929.64,-221.54 2925.8,-211.67 2922.64,-221.78 2929.64,-221.54"/>
</g>
<!-- Node19 -->
<g id="node19" class="node">
<title>Node19</title>
<g id="a_node19"><a xlink:title=" ">
<polygon fill="#e0e0e0" stroke="#999999" points="3057.5,-211.5 2969.5,-211.5 2969.5,-192.5 3057.5,-192.5 3057.5,-211.5"/>
<text text-anchor="middle" x="3013.5" y="-199.5" font-family="Helvetica,sans-Serif" font-size="10.00">spdlog/cfg/env.h</text>
</a>
</g>
</g>
<!-- Node17&#45;&gt;Node19 -->
<g id="edge23" class="edge">
<title>Node17&#45;&gt;Node19</title>
<path fill="none" stroke="#63b8ff" d="M2940.19,-252.87C2953.91,-243.54 2976,-228.51 2992.35,-217.38"/>
<polygon fill="#63b8ff" stroke="#63b8ff" points="2994.46,-220.19 3000.76,-211.67 2990.52,-214.4 2994.46,-220.19"/>
</g>
<!-- Node20 -->
<g id="node20" class="node">
<title>Node20</title>
<g id="a_node20"><a xlink:title=" ">
<polygon fill="#e0e0e0" stroke="#999999" points="3185.5,-217 3075.5,-217 3075.5,-187 3185.5,-187 3185.5,-217"/>
<text text-anchor="start" x="3083.5" y="-205" font-family="Helvetica,sans-Serif" font-size="10.00">spdlog/sinks/callback</text>
<text text-anchor="middle" x="3130.5" y="-194" font-family="Helvetica,sans-Serif" font-size="10.00">_sink.h</text>
</a>
</g>
</g>
<!-- Node17&#45;&gt;Node20 -->
<g id="edge24" class="edge">
<title>Node17&#45;&gt;Node20</title>
<path fill="none" stroke="#63b8ff" d="M2955.73,-253.37C2985.63,-244.75 3033.7,-230.9 3071.86,-219.9"/>
<polygon fill="#63b8ff" stroke="#63b8ff" points="3073.2,-223.16 3081.84,-217.02 3071.26,-216.43 3073.2,-223.16"/>
</g>
<!-- Node21 -->
<g id="node21" class="node">
<title>Node21</title>
<g id="a_node21"><a xlink:title=" ">
<polygon fill="#e0e0e0" stroke="#999999" points="3317.5,-217 3203.5,-217 3203.5,-187 3317.5,-187 3317.5,-217"/>
<text text-anchor="start" x="3211.5" y="-205" font-family="Helvetica,sans-Serif" font-size="10.00">spdlog/sinks/ringbuffer</text>
<text text-anchor="middle" x="3260.5" y="-194" font-family="Helvetica,sans-Serif" font-size="10.00">_sink.h</text>
</a>
</g>
</g>
<!-- Node17&#45;&gt;Node21 -->
<g id="edge25" class="edge">
<title>Node17&#45;&gt;Node21</title>
<path fill="none" stroke="#63b8ff" d="M2955.74,-254.8C2958.69,-254.16 2961.65,-253.55 2964.5,-253 3062.92,-234.02 3091.01,-235.62 3193.18,-217.18"/>
<polygon fill="#63b8ff" stroke="#63b8ff" points="3194.09,-220.57 3203.3,-215.33 3192.83,-213.68 3194.09,-220.57"/>
</g>
<!-- Node22 -->
<g id="node22" class="node">
<title>Node22</title>
<g id="a_node22"><a xlink:title=" ">
<polygon fill="#e0e0e0" stroke="#999999" points="3437,-217 3336,-217 3336,-187 3437,-187 3437,-217"/>
<text text-anchor="start" x="3344" y="-205" font-family="Helvetica,sans-Serif" font-size="10.00">spdlog/sinks/stdout</text>
<text text-anchor="middle" x="3386.5" y="-194" font-family="Helvetica,sans-Serif" font-size="10.00">_color_sinks.h</text>
</a>
</g>
</g>
<!-- Node17&#45;&gt;Node22 -->
<g id="edge26" class="edge">
<title>Node17&#45;&gt;Node22</title>
<path fill="none" stroke="#63b8ff" d="M2955.71,-254.63C2958.67,-254.03 2961.64,-253.47 2964.5,-253 3120.78,-227.38 3165.18,-242.76 3325.62,-216.98"/>
<polygon fill="#63b8ff" stroke="#63b8ff" points="3326.55,-220.37 3335.85,-215.31 3325.42,-213.47 3326.55,-220.37"/>
</g>
<!-- Node23 -->
<g id="node23" class="node">
<title>Node23</title>
<g id="a_node23"><a xlink:title=" ">
<polygon fill="#e0e0e0" stroke="#999999" points="3556,-217 3455,-217 3455,-187 3556,-187 3556,-217"/>
<text text-anchor="start" x="3463" y="-205" font-family="Helvetica,sans-Serif" font-size="10.00">spdlog/sinks/stdout</text>
<text text-anchor="middle" x="3505.5" y="-194" font-family="Helvetica,sans-Serif" font-size="10.00">_sinks.h</text>
</a>
</g>
</g>
<!-- Node17&#45;&gt;Node23 -->
<g id="edge27" class="edge">
<title>Node17&#45;&gt;Node23</title>
<path fill="none" stroke="#63b8ff" d="M2955.7,-254.56C2958.66,-253.97 2961.63,-253.43 2964.5,-253 3173.69,-221.35 3232.44,-249.04 3444.85,-217.1"/>
<polygon fill="#63b8ff" stroke="#63b8ff" points="3445.4,-220.55 3454.75,-215.58 3444.34,-213.63 3445.4,-220.55"/>
</g>
<!-- Node24 -->
<g id="node24" class="node">
<title>Node24</title>
<g id="a_node24"><a xlink:title=" ">
<polygon fill="#e0e0e0" stroke="#999999" points="3659,-211.5 3574,-211.5 3574,-192.5 3659,-192.5 3659,-211.5"/>
<text text-anchor="middle" x="3616.5" y="-199.5" font-family="Helvetica,sans-Serif" font-size="10.00">spdlog/spdlog.h</text>
</a>
</g>
</g>
<!-- Node17&#45;&gt;Node24 -->
<g id="edge28" class="edge">
<title>Node17&#45;&gt;Node24</title>
<path fill="none" stroke="#63b8ff" d="M2955.69,-254.52C2958.65,-253.93 2961.63,-253.41 2964.5,-253 3229.37,-214.91 3301.49,-260.65 3565.5,-217 3570.06,-216.25 3574.79,-215.25 3579.46,-214.13"/>
<polygon fill="#63b8ff" stroke="#63b8ff" points="3580.66,-217.44 3589.47,-211.54 3578.91,-210.66 3580.66,-217.44"/>
</g>
<!-- Node25&#45;&gt;Node6 -->
<g id="edge33" class="edge">
<title>Node25&#45;&gt;Node6</title>
<path fill="none" stroke="#63b8ff" d="M434.73,-201.29C349.55,-200.61 181.4,-193.73 144.5,-151 135.78,-140.91 136.32,-131.53 144.5,-121 204.99,-43.09 261.88,-80.1 359.5,-66 614.08,-29.23 1415.4,-18.91 1658.74,-16.58"/>
<polygon fill="#63b8ff" stroke="#63b8ff" points="1658.91,-20.08 1668.87,-16.49 1658.84,-13.08 1658.91,-20.08"/>
</g>
<!-- Node25&#45;&gt;Node8 -->
<g id="edge31" class="edge">
<title>Node25&#45;&gt;Node8</title>
<path fill="none" stroke="#63b8ff" d="M434.94,-195.77C378.14,-188.96 282.69,-175 203.5,-151 201.86,-150.5 200.2,-149.95 198.54,-149.35"/>
<polygon fill="#63b8ff" stroke="#63b8ff" points="199.74,-146.06 189.16,-145.61 197.15,-152.57 199.74,-146.06"/>
</g>
<!-- Node25&#45;&gt;Node12 -->
<g id="edge32" class="edge">
<title>Node25&#45;&gt;Node12</title>
<path fill="none" stroke="#63b8ff" d="M534.05,-196.94C573.02,-193.86 628.69,-189.7 677.5,-187 1095.39,-163.86 1201.47,-186.44 1618.5,-151 1643.97,-148.84 1672.72,-144.95 1693.84,-141.82"/>
<polygon fill="#63b8ff" stroke="#63b8ff" points="1694.48,-145.26 1703.84,-140.31 1693.43,-138.34 1694.48,-145.26"/>
</g>
<!-- Node26&#45;&gt;Node6 -->
<g id="edge43" class="edge">
<title>Node26&#45;&gt;Node6</title>
<path fill="none" stroke="#63b8ff" d="M686.34,-194.4C666.98,-191.97 644.73,-189.26 624.5,-187 584.55,-182.53 291.47,-180.81 264.5,-151 255.55,-141.11 255.42,-130.76 264.5,-121 360.34,-18.05 1379.29,-14.56 1658.89,-15.56"/>
<polygon fill="#63b8ff" stroke="#63b8ff" points="1658.9,-19.06 1668.91,-15.6 1658.93,-12.06 1658.9,-19.06"/>
</g>
<!-- Node26&#45;&gt;Node8 -->
<g id="edge35" class="edge">
<title>Node26&#45;&gt;Node8</title>
<path fill="none" stroke="#63b8ff" d="M686.48,-193.04C671.67,-190.89 655.46,-188.69 640.5,-187 446.86,-165.07 392.45,-198.7 203.5,-151 201.6,-150.52 199.68,-149.94 197.76,-149.29"/>
<polygon fill="#63b8ff" stroke="#63b8ff" points="198.99,-146.02 188.4,-145.63 196.44,-152.54 198.99,-146.02"/>
</g>
<!-- Node26&#45;&gt;Node9 -->
<g id="edge36" class="edge">
<title>Node26&#45;&gt;Node9</title>
<path fill="none" stroke="#63b8ff" d="M788.66,-199.73C995.74,-194.45 1765.74,-173.47 1872.5,-151 1875.03,-150.47 1877.61,-149.78 1880.17,-148.99"/>
<polygon fill="#63b8ff" stroke="#63b8ff" points="1881.53,-152.23 1889.8,-145.6 1879.2,-145.62 1881.53,-152.23"/>
</g>
<!-- Node26&#45;&gt;Node12 -->
<g id="edge37" class="edge">
<title>Node26&#45;&gt;Node12</title>
<path fill="none" stroke="#63b8ff" d="M788.74,-199.43C924.38,-194.98 1303.93,-180.66 1618.5,-151 1643.95,-148.6 1672.7,-144.73 1693.83,-141.67"/>
<polygon fill="#63b8ff" stroke="#63b8ff" points="1694.45,-145.11 1703.83,-140.19 1693.43,-138.19 1694.45,-145.11"/>
</g>
<!-- Node26&#45;&gt;Node15 -->
<g id="edge45" class="edge">
<title>Node26&#45;&gt;Node15</title>
<path fill="none" stroke="#63b8ff" d="M686.46,-193.19C671.65,-191.05 655.45,-188.81 640.5,-187 599.93,-182.08 301.94,-181.28 274.5,-151 265.55,-141.12 265.2,-130.55 274.5,-121 303.23,-91.48 1615.85,-79.03 1875.24,-76.85"/>
<polygon fill="#63b8ff" stroke="#63b8ff" points="1875.44,-80.35 1885.41,-76.77 1875.39,-73.35 1875.44,-80.35"/>
</g>
<!-- Node27 -->
<g id="node27" class="node">
<title>Node27</title>
<g id="a_node27"><a xlink:title=" ">
<polygon fill="#e0e0e0" stroke="#999999" points="397,-151 284,-151 284,-121 397,-121 397,-151"/>
<text text-anchor="start" x="292" y="-139" font-family="Helvetica,sans-Serif" font-size="10.00">flutter/basic_message</text>
<text text-anchor="middle" x="340.5" y="-128" font-family="Helvetica,sans-Serif" font-size="10.00">_channel.h</text>
</a>
</g>
</g>
<!-- Node26&#45;&gt;Node27 -->
<g id="edge38" class="edge">
<title>Node26&#45;&gt;Node27</title>
<path fill="none" stroke="#63b8ff" d="M686.41,-193.49C606.59,-181.72 456.99,-159.57 407.15,-151.17"/>
<polygon fill="#63b8ff" stroke="#63b8ff" points="407.63,-147.7 397.18,-149.43 406.43,-154.59 407.63,-147.7"/>
</g>
<!-- Node28 -->
<g id="node28" class="node">
<title>Node28</title>
<g id="a_node28"><a xlink:title=" ">
<polygon fill="#e0e0e0" stroke="#999999" points="728.5,-145.5 596.5,-145.5 596.5,-126.5 728.5,-126.5 728.5,-145.5"/>
<text text-anchor="middle" x="662.5" y="-133.5" font-family="Helvetica,sans-Serif" font-size="10.00">flutter/binary_messenger.h</text>
</a>
</g>
</g>
<!-- Node26&#45;&gt;Node28 -->
<g id="edge39" class="edge">
<title>Node26&#45;&gt;Node28</title>
<path fill="none" stroke="#63b8ff" d="M720.86,-186.8C708.93,-176.62 692.89,-162.93 680.64,-152.48"/>
<polygon fill="#63b8ff" stroke="#63b8ff" points="682.74,-149.67 672.86,-145.84 678.2,-155 682.74,-149.67"/>
</g>
<!-- Node29 -->
<g id="node29" class="node">
<title>Node29</title>
<g id="a_node29"><a xlink:title=" ">
<polygon fill="#e0e0e0" stroke="#999999" points="578,-151 415,-151 415,-121 578,-121 578,-151"/>
<text text-anchor="start" x="423" y="-139" font-family="Helvetica,sans-Serif" font-size="10.00">flutter/shell/platform</text>
<text text-anchor="middle" x="496.5" y="-128" font-family="Helvetica,sans-Serif" font-size="10.00">/common/json_message_codec.h</text>
</a>
</g>
</g>
<!-- Node26&#45;&gt;Node29 -->
<g id="edge40" class="edge">
<title>Node26&#45;&gt;Node29</title>
<path fill="none" stroke="#63b8ff" d="M686.39,-187.43C649.32,-177.58 598.97,-164.21 559.43,-153.71"/>
<polygon fill="#63b8ff" stroke="#63b8ff" points="560.18,-150.29 549.62,-151.11 558.39,-157.06 560.18,-150.29"/>
</g>
<!-- Node30 -->
<g id="node30" class="node">
<title>Node30</title>
<g id="a_node30"><a xlink:title=" ">
<polygon fill="#e0e0e0" stroke="#999999" points="1864,-145.5 1763,-145.5 1763,-126.5 1864,-126.5 1864,-145.5"/>
<text text-anchor="middle" x="1813.5" y="-133.5" font-family="Helvetica,sans-Serif" font-size="10.00">flutter/fml/macros.h</text>
</a>
</g>
</g>
<!-- Node26&#45;&gt;Node30 -->
<g id="edge41" class="edge">
<title>Node26&#45;&gt;Node30</title>
<path fill="none" stroke="#63b8ff" d="M788.77,-199.7C967.73,-194.97 1564.07,-177.54 1753.5,-151 1759.4,-150.17 1765.58,-149.04 1771.63,-147.78"/>
<polygon fill="#63b8ff" stroke="#63b8ff" points="1772.62,-151.14 1781.63,-145.56 1771.11,-144.31 1772.62,-151.14"/>
</g>
<!-- Node31 -->
<g id="node31" class="node">
<title>Node31</title>
<g id="a_node31"><a xlink:title=" ">
<polygon fill="#e0e0e0" stroke="#999999" points="1609.5,-145.5 1499.5,-145.5 1499.5,-126.5 1609.5,-126.5 1609.5,-145.5"/>
<text text-anchor="middle" x="1554.5" y="-133.5" font-family="Helvetica,sans-Serif" font-size="10.00">rapidjson/document.h</text>
</a>
</g>
</g>
<!-- Node26&#45;&gt;Node31 -->
<g id="edge42" class="edge">
<title>Node26&#45;&gt;Node31</title>
<path fill="none" stroke="#63b8ff" d="M788.83,-200.16C910.87,-197.61 1227.75,-187.69 1489.5,-151 1495.88,-150.11 1502.56,-148.94 1509.12,-147.66"/>
<polygon fill="#63b8ff" stroke="#63b8ff" points="1510.16,-151.01 1519.25,-145.57 1508.75,-144.16 1510.16,-151.01"/>
</g>
<!-- Node32 -->
<g id="node32" class="node">
<title>Node32</title>
<g id="a_node32"><a xlink:title=" ">
<polygon fill="#e0e0e0" stroke="#999999" points="880.5,-145.5 746.5,-145.5 746.5,-126.5 880.5,-126.5 880.5,-145.5"/>
<text text-anchor="middle" x="813.5" y="-133.5" font-family="Helvetica,sans-Serif" font-size="10.00">xkbcommon/xkbcommon.h</text>
</a>
</g>
</g>
<!-- Node26&#45;&gt;Node32 -->
<g id="edge44" class="edge">
<title>Node26&#45;&gt;Node32</title>
<path fill="none" stroke="#63b8ff" d="M754.37,-186.8C766.45,-176.62 782.71,-162.93 795.12,-152.48"/>
<polygon fill="#63b8ff" stroke="#63b8ff" points="797.6,-154.96 803,-145.84 793.09,-149.61 797.6,-154.96"/>
</g>
<!-- Node33&#45;&gt;Node6 -->
<g id="edge57" class="edge">
<title>Node33&#45;&gt;Node6</title>
<path fill="none" stroke="#63b8ff" d="M1523.29,-191.14C1552.73,-183.54 1589.94,-170.89 1618.5,-151 1641.36,-135.08 1688.52,-72.56 1713.37,-38.47"/>
<polygon fill="#63b8ff" stroke="#63b8ff" points="1716.43,-40.21 1719.46,-30.06 1710.76,-36.11 1716.43,-40.21"/>
</g>
<!-- Node33&#45;&gt;Node8 -->
<g id="edge47" class="edge">
<title>Node33&#45;&gt;Node8</title>
<path fill="none" stroke="#63b8ff" d="M1425.81,-200.6C1262.68,-198.92 720.54,-190.52 274.5,-151 248.94,-148.74 219.99,-144.67 199.31,-141.5"/>
<polygon fill="#63b8ff" stroke="#63b8ff" points="199.73,-138.02 189.31,-139.94 198.65,-144.94 199.73,-138.02"/>
</g>
<!-- Node33&#45;&gt;Node9 -->
<g id="edge48" class="edge">
<title>Node33&#45;&gt;Node9</title>
<path fill="none" stroke="#63b8ff" d="M1523.3,-198.73C1599.07,-194.35 1749.12,-182.23 1872.5,-151 1874.8,-150.42 1877.16,-149.73 1879.51,-148.97"/>
<polygon fill="#63b8ff" stroke="#63b8ff" points="1880.74,-152.25 1888.98,-145.6 1878.38,-145.66 1880.74,-152.25"/>
</g>
<!-- Node33&#45;&gt;Node12 -->
<g id="edge49" class="edge">
<title>Node33&#45;&gt;Node12</title>
<path fill="none" stroke="#63b8ff" d="M1523.31,-191.85C1567.26,-183.1 1633.38,-168.64 1689.5,-151 1691.37,-150.41 1693.29,-149.77 1695.21,-149.09"/>
<polygon fill="#63b8ff" stroke="#63b8ff" points="1696.57,-152.32 1704.7,-145.53 1694.11,-145.77 1696.57,-152.32"/>
</g>
<!-- Node33&#45;&gt;Node15 -->
<g id="edge59" class="edge">
<title>Node33&#45;&gt;Node15</title>
<path fill="none" stroke="#63b8ff" d="M1523.01,-191.88C1559.49,-183.95 1610.09,-170.61 1651.5,-151 1672.56,-141.03 1673.06,-130.12 1694.5,-121 1754.11,-95.64 1828.83,-84.54 1875.38,-79.82"/>
<polygon fill="#63b8ff" stroke="#63b8ff" points="1875.82,-83.29 1885.44,-78.85 1875.15,-76.32 1875.82,-83.29"/>
</g>
<!-- Node33&#45;&gt;Node28 -->
<g id="edge50" class="edge">
<title>Node33&#45;&gt;Node28</title>
<path fill="none" stroke="#63b8ff" d="M1425.58,-199.66C1307.1,-195.97 995.45,-183.71 737.5,-151 729.74,-150.02 721.57,-148.74 713.59,-147.36"/>
<polygon fill="#63b8ff" stroke="#63b8ff" points="714.09,-143.89 703.63,-145.57 712.85,-150.78 714.09,-143.89"/>
</g>
<!-- Node33&#45;&gt;Node30 -->
<g id="edge53" class="edge">
<title>Node33&#45;&gt;Node30</title>
<path fill="none" stroke="#63b8ff" d="M1523.03,-193.09C1578.81,-183.81 1673.01,-167.59 1753.5,-151 1758.29,-150.01 1763.28,-148.93 1768.25,-147.82"/>
<polygon fill="#63b8ff" stroke="#63b8ff" points="1769.38,-151.16 1778.35,-145.52 1767.82,-144.33 1769.38,-151.16"/>
</g>
<!-- Node33&#45;&gt;Node31 -->
<g id="edge56" class="edge">
<title>Node33&#45;&gt;Node31</title>
<path fill="none" stroke="#63b8ff" d="M1492.25,-186.8C1505.09,-176.53 1522.42,-162.67 1535.53,-152.18"/>
<polygon fill="#63b8ff" stroke="#63b8ff" points="1537.82,-154.82 1543.44,-145.84 1533.45,-149.36 1537.82,-154.82"/>
</g>
<!-- Node33&#45;&gt;Node32 -->
<g id="edge58" class="edge">
<title>Node33&#45;&gt;Node32</title>
<path fill="none" stroke="#63b8ff" d="M1425.79,-198.44C1325.23,-192.79 1087.5,-177.64 889.5,-151 881.74,-149.96 873.57,-148.66 865.58,-147.28"/>
<polygon fill="#63b8ff" stroke="#63b8ff" points="866.05,-143.81 855.59,-145.51 864.83,-150.7 866.05,-143.81"/>
</g>
<!-- Node34 -->
<g id="node34" class="node">
<title>Node34</title>
<g id="a_node34"><a xlink:title=" ">
<polygon fill="#e0e0e0" stroke="#999999" points="1022.5,-145.5 898.5,-145.5 898.5,-126.5 1022.5,-126.5 1022.5,-145.5"/>
<text text-anchor="middle" x="960.5" y="-133.5" font-family="Helvetica,sans-Serif" font-size="10.00">flutter/method_channel.h</text>
</a>
</g>
</g>
<!-- Node33&#45;&gt;Node34 -->
<g id="edge51" class="edge">
<title>Node33&#45;&gt;Node34</title>
<path fill="none" stroke="#63b8ff" d="M1425.82,-196.83C1344.07,-189.52 1174.15,-173.08 1031.5,-151 1024.74,-149.95 1017.65,-148.72 1010.67,-147.43"/>
<polygon fill="#63b8ff" stroke="#63b8ff" points="1011.05,-143.94 1000.58,-145.5 1009.74,-150.81 1011.05,-143.94"/>
</g>
<!-- Node35 -->
<g id="node35" class="node">
<title>Node35</title>
<g id="a_node35"><a xlink:title=" ">
<polygon fill="#e0e0e0" stroke="#999999" points="1146.5,-151 1040.5,-151 1040.5,-121 1146.5,-121 1146.5,-151"/>
<text text-anchor="start" x="1048.5" y="-139" font-family="Helvetica,sans-Serif" font-size="10.00">flutter/method_result</text>
<text text-anchor="middle" x="1093.5" y="-128" font-family="Helvetica,sans-Serif" font-size="10.00">_functions.h</text>
</a>
</g>
</g>
<!-- Node33&#45;&gt;Node35 -->
<g id="edge52" class="edge">
<title>Node33&#45;&gt;Node35</title>
<path fill="none" stroke="#63b8ff" d="M1425.96,-194.42C1365.29,-185.96 1258.09,-170.28 1156.66,-151.15"/>
<polygon fill="#63b8ff" stroke="#63b8ff" points="1157.03,-147.65 1146.55,-149.22 1155.72,-154.53 1157.03,-147.65"/>
</g>
<!-- Node36 -->
<g id="node36" class="node">
<title>Node36</title>
<g id="a_node36"><a xlink:title=" ">
<polygon fill="#e0e0e0" stroke="#999999" points="1320,-151 1165,-151 1165,-121 1320,-121 1320,-151"/>
<text text-anchor="start" x="1173" y="-139" font-family="Helvetica,sans-Serif" font-size="10.00">flutter/shell/platform</text>
<text text-anchor="middle" x="1242.5" y="-128" font-family="Helvetica,sans-Serif" font-size="10.00">/common/json_method_codec.h</text>
</a>
</g>
</g>
<!-- Node33&#45;&gt;Node36 -->
<g id="edge54" class="edge">
<title>Node33&#45;&gt;Node36</title>
<path fill="none" stroke="#63b8ff" d="M1425.87,-187.58C1390.25,-177.76 1341.67,-164.36 1303.46,-153.82"/>
<polygon fill="#63b8ff" stroke="#63b8ff" points="1304.05,-150.35 1293.48,-151.06 1302.19,-157.1 1304.05,-150.35"/>
</g>
<!-- Node37 -->
<g id="node37" class="node">
<title>Node37</title>
<g id="a_node37"><a xlink:title=" ">
<polygon fill="#e0e0e0" stroke="#999999" points="1481,-151 1338,-151 1338,-121 1481,-121 1481,-151"/>
<text text-anchor="start" x="1346" y="-139" font-family="Helvetica,sans-Serif" font-size="10.00">flutter/shell/platform</text>
<text text-anchor="middle" x="1409.5" y="-128" font-family="Helvetica,sans-Serif" font-size="10.00">/common/text_input_model.h</text>
</a>
</g>
</g>
<!-- Node33&#45;&gt;Node37 -->
<g id="edge55" class="edge">
<title>Node33&#45;&gt;Node37</title>
<path fill="none" stroke="#63b8ff" d="M1460.07,-186.8C1451.57,-178.43 1440.66,-167.68 1431.14,-158.31"/>
<polygon fill="#63b8ff" stroke="#63b8ff" points="1433.47,-155.69 1423.89,-151.16 1428.56,-160.67 1433.47,-155.69"/>
</g>
<!-- Node38&#45;&gt;Node8 -->
<g id="edge61" class="edge">
<title>Node38&#45;&gt;Node8</title>
<path fill="none" stroke="#63b8ff" d="M1854.44,-260.91C1655.86,-258.36 911.07,-246.94 677.5,-217 616.54,-209.19 603.16,-196.93 542.5,-187 392.98,-162.53 349.96,-189.82 203.5,-151 201.61,-150.5 199.69,-149.9 197.77,-149.24"/>
<polygon fill="#63b8ff" stroke="#63b8ff" points="199.01,-145.97 188.42,-145.55 196.44,-152.48 199.01,-145.97"/>
</g>
<!-- Node38&#45;&gt;Node9 -->
<g id="edge62" class="edge">
<title>Node38&#45;&gt;Node9</title>
<path fill="none" stroke="#63b8ff" d="M1907.1,-252.82C1910.56,-243.99 1915.53,-229.81 1917.5,-217 1920.71,-196.12 1916.99,-172.02 1913.41,-155.77"/>
<polygon fill="#63b8ff" stroke="#63b8ff" points="1916.78,-154.81 1911.04,-145.91 1909.97,-156.45 1916.78,-154.81"/>
</g>
<!-- Node38&#45;&gt;Node30 -->
<g id="edge68" class="edge">
<title>Node38&#45;&gt;Node30</title>
<path fill="none" stroke="#63b8ff" d="M1903.05,-252.9C1901.91,-238.17 1897.85,-207.69 1883.5,-187 1872.82,-171.6 1855.78,-159.28 1841.2,-150.72"/>
<polygon fill="#63b8ff" stroke="#63b8ff" points="1842.49,-147.44 1832.05,-145.65 1839.1,-153.56 1842.49,-147.44"/>
</g>
<!-- Node39 -->
<g id="node39" class="node">
<title>Node39</title>
<g id="a_node39"><a xlink:href="configuration_8h.html" target="_top" xlink:title=" ">
<polygon fill="white" stroke="#666666" points="1875,-211.5 1736,-211.5 1736,-192.5 1875,-192.5 1875,-211.5"/>
<text text-anchor="middle" x="1805.5" y="-199.5" font-family="Helvetica,sans-Serif" font-size="10.00">configuration/configuration.h</text>
</a>
</g>
</g>
<!-- Node38&#45;&gt;Node39 -->
<g id="edge63" class="edge">
<title>Node38&#45;&gt;Node39</title>
<path fill="none" stroke="#63b8ff" d="M1889.04,-252.87C1873.19,-243.41 1847.53,-228.09 1828.82,-216.92"/>
<polygon fill="#63b8ff" stroke="#63b8ff" points="1830.4,-213.79 1820.02,-211.67 1826.81,-219.8 1830.4,-213.79"/>
</g>
<!-- Node40 -->
<g id="node40" class="node">
<title>Node40</title>
<g id="a_node40"><a xlink:href="window_8h.html" target="_top" xlink:title=" ">
<polygon fill="white" stroke="#666666" points="2293.5,-211.5 2197.5,-211.5 2197.5,-192.5 2293.5,-192.5 2293.5,-211.5"/>
<text text-anchor="middle" x="2245.5" y="-199.5" font-family="Helvetica,sans-Serif" font-size="10.00">wayland/window.h</text>
</a>
</g>
</g>
<!-- Node38&#45;&gt;Node40 -->
<g id="edge69" class="edge">
<title>Node38&#45;&gt;Node40</title>
<path fill="none" stroke="#63b8ff" d="M1952.5,-253.12C2014.48,-242.52 2121.06,-224.29 2187.17,-212.98"/>
<polygon fill="#63b8ff" stroke="#63b8ff" points="2188.15,-216.36 2197.42,-211.22 2186.97,-209.46 2188.15,-216.36"/>
</g>
<!-- Node39&#45;&gt;Node12 -->
<g id="edge64" class="edge">
<title>Node39&#45;&gt;Node12</title>
<path fill="none" stroke="#63b8ff" d="M1794.58,-192.37C1781.53,-182.06 1759.49,-164.65 1743.6,-152.09"/>
<polygon fill="#63b8ff" stroke="#63b8ff" points="1745.53,-149.15 1735.51,-145.7 1741.19,-154.64 1745.53,-149.15"/>
</g>
<!-- Node39&#45;&gt;Node13 -->
<g id="edge65" class="edge">
<title>Node39&#45;&gt;Node13</title>
<path fill="none" stroke="#63b8ff" d="M1830.9,-192.45C1858.76,-182.92 1904.66,-166.78 1943.5,-151 1944.67,-150.52 1945.86,-150.03 1947.06,-149.53"/>
<polygon fill="#63b8ff" stroke="#63b8ff" points="1948.47,-152.73 1956.24,-145.53 1945.68,-146.31 1948.47,-152.73"/>
</g>
<!-- Node39&#45;&gt;Node30 -->
<g id="edge66" class="edge">
<title>Node39&#45;&gt;Node30</title>
<path fill="none" stroke="#63b8ff" d="M1806.58,-192.37C1807.74,-183.07 1809.63,-167.98 1811.14,-155.9"/>
<polygon fill="#63b8ff" stroke="#63b8ff" points="1814.62,-156.26 1812.39,-145.91 1807.67,-155.39 1814.62,-156.26"/>
</g>
<!-- Node39&#45;&gt;Node31 -->
<g id="edge67" class="edge">
<title>Node39&#45;&gt;Node31</title>
<path fill="none" stroke="#63b8ff" d="M1771.91,-192.44C1726.92,-180.96 1647.04,-160.6 1597.65,-148"/>
<polygon fill="#63b8ff" stroke="#63b8ff" points="1598.45,-144.59 1587.89,-145.51 1596.72,-151.38 1598.45,-144.59"/>
</g>
<!-- Node40&#45;&gt;Node9 -->
<g id="edge70" class="edge">
<title>Node40&#45;&gt;Node9</title>
<path fill="none" stroke="#63b8ff" d="M2197.47,-196.29C2137.3,-189.66 2031.41,-175.55 1943.5,-151 1941.56,-150.46 1939.58,-149.85 1937.6,-149.19"/>
<polygon fill="#63b8ff" stroke="#63b8ff" points="1938.46,-145.77 1927.86,-145.61 1936.05,-152.34 1938.46,-145.77"/>
</g>
<!-- Node40&#45;&gt;Node12 -->
<g id="edge71" class="edge">
<title>Node40&#45;&gt;Node12</title>
<path fill="none" stroke="#63b8ff" d="M2197.32,-201.6C2108.02,-201.5 1911.51,-195.67 1753.5,-151 1752.05,-150.59 1750.59,-150.11 1749.13,-149.59"/>
<polygon fill="#63b8ff" stroke="#63b8ff" points="1750.33,-146.29 1739.76,-145.59 1747.59,-152.73 1750.33,-146.29"/>
</g>
<!-- Node40&#45;&gt;Node14 -->
<g id="edge75" class="edge">
<title>Node40&#45;&gt;Node14</title>
<path fill="none" stroke="#63b8ff" d="M2221.22,-192.37C2189.73,-181.17 2134.64,-161.58 2099.14,-148.96"/>
<polygon fill="#63b8ff" stroke="#63b8ff" points="2100.27,-145.65 2089.68,-145.6 2097.93,-152.24 2100.27,-145.65"/>
</g>
<!-- Node40&#45;&gt;Node15 -->
<g id="edge74" class="edge">
<title>Node40&#45;&gt;Node15</title>
<path fill="none" stroke="#63b8ff" d="M2238.93,-192.33C2225.71,-175.57 2194.1,-138.81 2158.5,-121 2095.77,-89.62 2013.77,-80.23 1963.95,-77.5"/>
<polygon fill="#63b8ff" stroke="#63b8ff" points="1963.99,-74 1953.83,-77.02 1963.65,-80.99 1963.99,-74"/>
</g>
<!-- Node41 -->
<g id="node41" class="node">
<title>Node41</title>
<g id="a_node41"><a xlink:title=" ">
<polygon fill="#e0e0e0" stroke="#999999" points="2542,-145.5 2493,-145.5 2493,-126.5 2542,-126.5 2542,-145.5"/>
<text text-anchor="middle" x="2517.5" y="-133.5" font-family="Helvetica,sans-Serif" font-size="10.00">cassert</text>
</a>
</g>
</g>
<!-- Node40&#45;&gt;Node41 -->
<g id="edge72" class="edge">
<title>Node40&#45;&gt;Node41</title>
<path fill="none" stroke="#63b8ff" d="M2293.57,-193.57C2342.11,-185.45 2418.94,-170.89 2483.5,-151 2485.18,-150.48 2486.89,-149.92 2488.6,-149.31"/>
<polygon fill="#63b8ff" stroke="#63b8ff" points="2490.21,-152.45 2498.31,-145.62 2487.72,-145.91 2490.21,-152.45"/>
</g>
<!-- Node42 -->
<g id="node42" class="node">
<title>Node42</title>
<g id="a_node42"><a xlink:title=" ">
<polygon fill="#e0e0e0" stroke="#999999" points="2685,-145.5 2560,-145.5 2560,-126.5 2685,-126.5 2685,-145.5"/>
<text text-anchor="middle" x="2622.5" y="-133.5" font-family="Helvetica,sans-Serif" font-size="10.00">agl&#45;shell&#45;client&#45;protocol.h</text>
</a>
</g>
</g>
<!-- Node40&#45;&gt;Node42 -->
<g id="edge73" class="edge">
<title>Node40&#45;&gt;Node42</title>
<path fill="none" stroke="#63b8ff" d="M2293.65,-193.56C2353.82,-184.15 2459.92,-167.23 2550.5,-151 2556.67,-149.89 2563.13,-148.7 2569.54,-147.48"/>
<polygon fill="#63b8ff" stroke="#63b8ff" points="2570.35,-150.89 2579.52,-145.57 2569.04,-144.02 2570.35,-150.89"/>
</g>
<!-- Node43 -->
<g id="node43" class="node">
<title>Node43</title>
<g id="a_node43"><a xlink:title=" ">
<polygon fill="#e0e0e0" stroke="#999999" points="2805.5,-151 2703.5,-151 2703.5,-121 2805.5,-121 2805.5,-151"/>
<text text-anchor="start" x="2711.5" y="-139" font-family="Helvetica,sans-Serif" font-size="10.00">ivi&#45;application&#45;client</text>
<text text-anchor="middle" x="2754.5" y="-128" font-family="Helvetica,sans-Serif" font-size="10.00">&#45;protocol.h</text>
</a>
</g>
</g>
<!-- Node40&#45;&gt;Node43 -->
<g id="edge76" class="edge">
<title>Node40&#45;&gt;Node43</title>
<path fill="none" stroke="#63b8ff" d="M2293.82,-197.43C2374.45,-191.08 2541.65,-176.21 2693.36,-150.88"/>
<polygon fill="#63b8ff" stroke="#63b8ff" points="2694.05,-154.31 2703.33,-149.19 2692.89,-147.41 2694.05,-154.31"/>
</g>
<!-- Node44 -->
<g id="node44" class="node">
<title>Node44</title>
<g id="a_node44"><a xlink:title=" ">
<polygon fill="#e0e0e0" stroke="#999999" points="2328,-145.5 2211,-145.5 2211,-126.5 2328,-126.5 2328,-145.5"/>
<text text-anchor="middle" x="2269.5" y="-133.5" font-family="Helvetica,sans-Serif" font-size="10.00">ivi&#45;wm&#45;client&#45;protocol.h</text>
</a>
</g>
</g>
<!-- Node40&#45;&gt;Node44 -->
<g id="edge77" class="edge">
<title>Node40&#45;&gt;Node44</title>
<path fill="none" stroke="#63b8ff" d="M2248.74,-192.37C2252.26,-182.97 2258,-167.67 2262.55,-155.53"/>
<polygon fill="#63b8ff" stroke="#63b8ff" points="2265.93,-156.5 2266.16,-145.91 2259.37,-154.04 2265.93,-156.5"/>
</g>
<!-- Node45 -->
<g id="node45" class="node">
<title>Node45</title>
<g id="a_node45"><a xlink:title=" ">
<polygon fill="#e0e0e0" stroke="#999999" points="2474.5,-145.5 2346.5,-145.5 2346.5,-126.5 2474.5,-126.5 2474.5,-145.5"/>
<text text-anchor="middle" x="2410.5" y="-133.5" font-family="Helvetica,sans-Serif" font-size="10.00">xdg&#45;shell&#45;client&#45;protocol.h</text>
</a>
</g>
</g>
<!-- Node40&#45;&gt;Node45 -->
<g id="edge78" class="edge">
<title>Node40&#45;&gt;Node45</title>
<path fill="none" stroke="#63b8ff" d="M2267.75,-192.37C2296.37,-181.27 2346.26,-161.92 2378.83,-149.28"/>
<polygon fill="#63b8ff" stroke="#63b8ff" points="2380.28,-152.48 2388.34,-145.6 2377.75,-145.95 2380.28,-152.48"/>
</g>
</g>
</svg>
