<?xml version="1.0" encoding="UTF-8" standalone="no"?>
<!DOCTYPE svg PUBLIC "-//W3C//DTD SVG 1.1//EN"
 "http://www.w3.org/Graphics/SVG/1.1/DTD/svg11.dtd">
<!-- Generated by graphviz version 5.0.0 (0)
 -->
<!-- Title: /mnt/raid10/stargate/ivi&#45;homescreen/shell/view/flutter_view.h Pages: 1 -->
<svg width="2789pt" height="423pt"
 viewBox="0.00 0.00 2789.20 423.00" xmlns="http://www.w3.org/2000/svg" xmlns:xlink="http://www.w3.org/1999/xlink">
<g id="graph0" class="graph" transform="scale(1 1) rotate(0) translate(4 419)">
<title>/mnt/raid10/stargate/ivi&#45;homescreen/shell/view/flutter_view.h</title>
<!-- Node1 -->
<g id="node1" class="node">
<title>Node1</title>
<g id="a_node1"><a xlink:title=" ">
<polygon fill="#999999" stroke="#666666" points="422.47,-415 313.47,-415 313.47,-374 422.47,-374 422.47,-415"/>
<text text-anchor="start" x="321.47" y="-403" font-family="Helvetica,sans-Serif" font-size="10.00">/mnt/raid10/stargate</text>
<text text-anchor="start" x="321.47" y="-392" font-family="Helvetica,sans-Serif" font-size="10.00">/ivi&#45;homescreen/shell</text>
<text text-anchor="middle" x="367.97" y="-381" font-family="Helvetica,sans-Serif" font-size="10.00">/view/flutter_view.h</text>
</a>
</g>
</g>
<!-- Node2 -->
<g id="node2" class="node">
<title>Node2</title>
<g id="a_node2"><a xlink:title=" ">
<polygon fill="#e0e0e0" stroke="#999999" points="466.47,-90.5 431.47,-90.5 431.47,-71.5 466.47,-71.5 466.47,-90.5"/>
<text text-anchor="middle" x="448.97" y="-78.5" font-family="Helvetica,sans-Serif" font-size="10.00">map</text>
</a>
</g>
</g>
<!-- Node1&#45;&gt;Node2 -->
<g id="edge1" class="edge">
<title>Node1&#45;&gt;Node2</title>
<path fill="none" stroke="#63b8ff" d="M376.63,-373.86C383.55,-358.63 393.74,-337.14 403.97,-319 421.18,-288.51 423.38,-278.87 446.97,-253 490.89,-204.84 533.58,-220.67 561.97,-162 567.78,-150 569.38,-143.08 561.97,-132 538.72,-97.21 512.78,-113.94 474.97,-96 474.42,-95.74 473.87,-95.47 473.31,-95.2"/>
<polygon fill="#63b8ff" stroke="#63b8ff" points="474.73,-92 464.24,-90.55 471.54,-98.23 474.73,-92"/>
</g>
<!-- Node3 -->
<g id="node3" class="node">
<title>Node3</title>
<g id="a_node3"><a xlink:title=" ">
<polygon fill="#e0e0e0" stroke="#999999" points="374.97,-90.5 322.97,-90.5 322.97,-71.5 374.97,-71.5 374.97,-90.5"/>
<text text-anchor="middle" x="348.97" y="-78.5" font-family="Helvetica,sans-Serif" font-size="10.00">memory</text>
</a>
</g>
</g>
<!-- Node1&#45;&gt;Node3 -->
<g id="edge2" class="edge">
<title>Node1&#45;&gt;Node3</title>
<path fill="none" stroke="#63b8ff" d="M363.08,-373.8C357.45,-349.38 348.97,-306.39 348.97,-269 348.97,-269 348.97,-269 348.97,-206.5 348.97,-168.99 348.97,-125.13 348.97,-100.76"/>
<polygon fill="#63b8ff" stroke="#63b8ff" points="352.47,-100.75 348.97,-90.75 345.47,-100.75 352.47,-100.75"/>
</g>
<!-- Node4 -->
<g id="node4" class="node">
<title>Node4</title>
<g id="a_node4"><a xlink:href="configuration_8h.html" target="_top" xlink:title=" ">
<polygon fill="white" stroke="#666666" points="168.47,-156.5 29.47,-156.5 29.47,-137.5 168.47,-137.5 168.47,-156.5"/>
<text text-anchor="middle" x="98.97" y="-144.5" font-family="Helvetica,sans-Serif" font-size="10.00">configuration/configuration.h</text>
</a>
</g>
</g>
<!-- Node1&#45;&gt;Node4 -->
<g id="edge3" class="edge">
<title>Node1&#45;&gt;Node4</title>
<path fill="none" stroke="#63b8ff" d="M346.41,-373.82C294.43,-326.38 163.01,-206.44 116.01,-163.55"/>
<polygon fill="#63b8ff" stroke="#63b8ff" points="118.24,-160.84 108.49,-156.69 113.52,-166.02 118.24,-160.84"/>
</g>
<!-- Node7 -->
<g id="node7" class="node">
<title>Node7</title>
<g id="a_node7"><a xlink:title=" ">
<polygon fill="#e0e0e0" stroke="#999999" points="206.47,-90.5 105.47,-90.5 105.47,-71.5 206.47,-71.5 206.47,-90.5"/>
<text text-anchor="middle" x="155.97" y="-78.5" font-family="Helvetica,sans-Serif" font-size="10.00">flutter/fml/macros.h</text>
</a>
</g>
</g>
<!-- Node1&#45;&gt;Node7 -->
<g id="edge8" class="edge">
<title>Node1&#45;&gt;Node7</title>
<path fill="none" stroke="#63b8ff" d="M313.43,-386.56C211.19,-372.01 0.97,-334.18 0.97,-269 0.97,-269 0.97,-269 0.97,-206.5 0.97,-172.33 -2.92,-157.37 19.97,-132 32.67,-117.93 77.51,-103.11 112.27,-93.29"/>
<polygon fill="#63b8ff" stroke="#63b8ff" points="113.53,-96.57 122.23,-90.53 111.66,-89.83 113.53,-96.57"/>
</g>
<!-- Node9 -->
<g id="node9" class="node">
<title>Node9</title>
<g id="a_node9"><a xlink:href="window_8h.html" target="_top" xlink:title=" ">
<polygon fill="white" stroke="#666666" points="798.97,-338 702.97,-338 702.97,-319 798.97,-319 798.97,-338"/>
<text text-anchor="middle" x="750.97" y="-326" font-family="Helvetica,sans-Serif" font-size="10.00">wayland/window.h</text>
</a>
</g>
</g>
<!-- Node1&#45;&gt;Node9 -->
<g id="edge9" class="edge">
<title>Node1&#45;&gt;Node9</title>
<path fill="none" stroke="#63b8ff" d="M422.85,-384.33C494.56,-372.35 619.6,-351.45 692.87,-339.21"/>
<polygon fill="#63b8ff" stroke="#63b8ff" points="693.57,-342.64 702.86,-337.54 692.42,-335.74 693.57,-342.64"/>
</g>
<!-- Node5 -->
<g id="node5" class="node">
<title>Node5</title>
<g id="a_node5"><a xlink:title=" ">
<polygon fill="#e0e0e0" stroke="#999999" points="304.47,-90.5 263.47,-90.5 263.47,-71.5 304.47,-71.5 304.47,-90.5"/>
<text text-anchor="middle" x="283.97" y="-78.5" font-family="Helvetica,sans-Serif" font-size="10.00">string</text>
</a>
</g>
</g>
<!-- Node4&#45;&gt;Node5 -->
<g id="edge4" class="edge">
<title>Node4&#45;&gt;Node5</title>
<path fill="none" stroke="#63b8ff" d="M123.92,-137.37C157.64,-125.7 217.68,-104.93 253.87,-92.41"/>
<polygon fill="#63b8ff" stroke="#63b8ff" points="255.09,-95.69 263.4,-89.12 252.8,-89.08 255.09,-95.69"/>
</g>
<!-- Node6 -->
<g id="node6" class="node">
<title>Node6</title>
<g id="a_node6"><a xlink:title=" ">
<polygon fill="#e0e0e0" stroke="#999999" points="86.97,-90.5 42.97,-90.5 42.97,-71.5 86.97,-71.5 86.97,-90.5"/>
<text text-anchor="middle" x="64.97" y="-78.5" font-family="Helvetica,sans-Serif" font-size="10.00">vector</text>
</a>
</g>
</g>
<!-- Node4&#45;&gt;Node6 -->
<g id="edge5" class="edge">
<title>Node4&#45;&gt;Node6</title>
<path fill="none" stroke="#63b8ff" d="M94.39,-137.37C89.3,-127.78 80.94,-112.05 74.43,-99.8"/>
<polygon fill="#63b8ff" stroke="#63b8ff" points="77.49,-98.09 69.7,-90.91 71.3,-101.38 77.49,-98.09"/>
</g>
<!-- Node4&#45;&gt;Node7 -->
<g id="edge6" class="edge">
<title>Node4&#45;&gt;Node7</title>
<path fill="none" stroke="#63b8ff" d="M106.66,-137.37C115.45,-127.5 130.05,-111.11 141.08,-98.72"/>
<polygon fill="#63b8ff" stroke="#63b8ff" points="144,-100.7 148.04,-90.91 138.78,-96.05 144,-100.7"/>
</g>
<!-- Node8 -->
<g id="node8" class="node">
<title>Node8</title>
<g id="a_node8"><a xlink:title=" ">
<polygon fill="#e0e0e0" stroke="#999999" points="906.97,-90.5 796.97,-90.5 796.97,-71.5 906.97,-71.5 906.97,-90.5"/>
<text text-anchor="middle" x="851.97" y="-78.5" font-family="Helvetica,sans-Serif" font-size="10.00">rapidjson/document.h</text>
</a>
</g>
</g>
<!-- Node4&#45;&gt;Node8 -->
<g id="edge7" class="edge">
<title>Node4&#45;&gt;Node8</title>
<path fill="none" stroke="#63b8ff" d="M168.76,-144.23C293.58,-140.33 563.05,-128.59 787.97,-96 794.25,-95.09 800.83,-93.91 807.29,-92.63"/>
<polygon fill="#63b8ff" stroke="#63b8ff" points="808.19,-96.01 817.26,-90.54 806.76,-89.16 808.19,-96.01"/>
</g>
<!-- Node9&#45;&gt;Node3 -->
<g id="edge10" class="edge">
<title>Node9&#45;&gt;Node3</title>
<path fill="none" stroke="#63b8ff" d="M746.5,-318.73C738.12,-303.18 718.58,-270.73 692.97,-253 581.22,-175.61 509.33,-244.08 400.97,-162 379.68,-145.87 364.58,-118.32 356.32,-100.14"/>
<polygon fill="#63b8ff" stroke="#63b8ff" points="359.51,-98.7 352.34,-90.9 353.08,-101.47 359.51,-98.7"/>
</g>
<!-- Node9&#45;&gt;Node5 -->
<g id="edge11" class="edge">
<title>Node9&#45;&gt;Node5</title>
<path fill="none" stroke="#63b8ff" d="M702.97,-327.35C647.28,-325.46 553.92,-316.88 481.97,-283 392.13,-240.69 320.4,-139.32 294.45,-98.98"/>
<polygon fill="#63b8ff" stroke="#63b8ff" points="297.4,-97.1 289.1,-90.52 291.48,-100.84 297.4,-97.1"/>
</g>
<!-- Node10 -->
<g id="node10" class="node">
<title>Node10</title>
<g id="a_node10"><a xlink:title=" ">
<polygon fill="#e0e0e0" stroke="#999999" points="540.47,-277.5 491.47,-277.5 491.47,-258.5 540.47,-258.5 540.47,-277.5"/>
<text text-anchor="middle" x="515.97" y="-265.5" font-family="Helvetica,sans-Serif" font-size="10.00">cassert</text>
</a>
</g>
</g>
<!-- Node9&#45;&gt;Node10 -->
<g id="edge12" class="edge">
<title>Node9&#45;&gt;Node10</title>
<path fill="none" stroke="#63b8ff" d="M702.85,-319.27C661.74,-311.66 601.29,-299.11 549.97,-283 548.3,-282.47 546.59,-281.9 544.88,-281.29"/>
<polygon fill="#63b8ff" stroke="#63b8ff" points="545.77,-277.89 535.18,-277.58 543.27,-284.43 545.77,-277.89"/>
</g>
<!-- Node11 -->
<g id="node11" class="node">
<title>Node11</title>
<g id="a_node11"><a xlink:title=" ">
<polygon fill="#e0e0e0" stroke="#999999" points="683.47,-277.5 558.47,-277.5 558.47,-258.5 683.47,-258.5 683.47,-277.5"/>
<text text-anchor="middle" x="620.97" y="-265.5" font-family="Helvetica,sans-Serif" font-size="10.00">agl&#45;shell&#45;client&#45;protocol.h</text>
</a>
</g>
</g>
<!-- Node9&#45;&gt;Node11 -->
<g id="edge13" class="edge">
<title>Node9&#45;&gt;Node11</title>
<path fill="none" stroke="#63b8ff" d="M732.07,-318.99C710.31,-309.2 674.35,-293.02 649.26,-281.73"/>
<polygon fill="#63b8ff" stroke="#63b8ff" points="650.45,-278.43 639.9,-277.52 647.58,-284.81 650.45,-278.43"/>
</g>
<!-- Node12 -->
<g id="node12" class="node">
<title>Node12</title>
<g id="a_node12"><a xlink:href="constants_8h.html" target="_top" xlink:title=" ">
<polygon fill="white" stroke="#666666" points="1971.97,-90.5 1903.97,-90.5 1903.97,-71.5 1971.97,-71.5 1971.97,-90.5"/>
<text text-anchor="middle" x="1937.97" y="-78.5" font-family="Helvetica,sans-Serif" font-size="10.00">constants.h</text>
</a>
</g>
</g>
<!-- Node9&#45;&gt;Node12 -->
<g id="edge14" class="edge">
<title>Node9&#45;&gt;Node12</title>
<path fill="none" stroke="#63b8ff" d="M799.23,-327.72C1083.21,-328.46 2527.52,-324.22 2622.97,-162 2629.73,-150.51 2632.13,-141.69 2622.97,-132 2573.97,-80.16 2052.13,-108.92 1981.97,-96 1978.29,-95.32 1974.48,-94.42 1970.72,-93.41"/>
<polygon fill="#63b8ff" stroke="#63b8ff" points="1971.57,-90.01 1960.99,-90.52 1969.58,-96.72 1971.57,-90.01"/>
</g>
<!-- Node16 -->
<g id="node16" class="node">
<title>Node16</title>
<g id="a_node16"><a xlink:href="backend_8h.html" target="_top" xlink:title=" ">
<polygon fill="white" stroke="#666666" points="1988.47,-277.5 1887.47,-277.5 1887.47,-258.5 1988.47,-258.5 1988.47,-277.5"/>
<text text-anchor="middle" x="1937.97" y="-265.5" font-family="Helvetica,sans-Serif" font-size="10.00">backend/backend.h</text>
</a>
</g>
</g>
<!-- Node9&#45;&gt;Node16 -->
<g id="edge18" class="edge">
<title>Node9&#45;&gt;Node16</title>
<path fill="none" stroke="#63b8ff" d="M798.97,-325.13C986.43,-315.9 1669.04,-282.25 1877.26,-271.99"/>
<polygon fill="#63b8ff" stroke="#63b8ff" points="1877.58,-275.48 1887.39,-271.49 1877.23,-268.49 1877.58,-275.48"/>
</g>
<!-- Node43 -->
<g id="node43" class="node">
<title>Node43</title>
<g id="a_node43"><a xlink:title=" ">
<polygon fill="#e0e0e0" stroke="#999999" points="841.97,-283 739.97,-283 739.97,-253 841.97,-253 841.97,-283"/>
<text text-anchor="start" x="747.97" y="-271" font-family="Helvetica,sans-Serif" font-size="10.00">ivi&#45;application&#45;client</text>
<text text-anchor="middle" x="790.97" y="-260" font-family="Helvetica,sans-Serif" font-size="10.00">&#45;protocol.h</text>
</a>
</g>
</g>
<!-- Node9&#45;&gt;Node43 -->
<g id="edge76" class="edge">
<title>Node9&#45;&gt;Node43</title>
<path fill="none" stroke="#63b8ff" d="M756.88,-318.87C761.8,-311.67 769.05,-301.07 775.59,-291.49"/>
<polygon fill="#63b8ff" stroke="#63b8ff" points="778.57,-293.34 781.32,-283.11 772.79,-289.39 778.57,-293.34"/>
</g>
<!-- Node44 -->
<g id="node44" class="node">
<title>Node44</title>
<g id="a_node44"><a xlink:title=" ">
<polygon fill="#e0e0e0" stroke="#999999" points="977.47,-277.5 860.47,-277.5 860.47,-258.5 977.47,-258.5 977.47,-277.5"/>
<text text-anchor="middle" x="918.97" y="-265.5" font-family="Helvetica,sans-Serif" font-size="10.00">ivi&#45;wm&#45;client&#45;protocol.h</text>
</a>
</g>
</g>
<!-- Node9&#45;&gt;Node44 -->
<g id="edge77" class="edge">
<title>Node9&#45;&gt;Node44</title>
<path fill="none" stroke="#63b8ff" d="M775.4,-318.99C804.27,-308.94 852.47,-292.16 884.97,-280.84"/>
<polygon fill="#63b8ff" stroke="#63b8ff" points="886.22,-284.11 894.51,-277.52 883.92,-277.5 886.22,-284.11"/>
</g>
<!-- Node45 -->
<g id="node45" class="node">
<title>Node45</title>
<g id="a_node45"><a xlink:title=" ">
<polygon fill="#e0e0e0" stroke="#999999" points="1123.97,-277.5 995.97,-277.5 995.97,-258.5 1123.97,-258.5 1123.97,-277.5"/>
<text text-anchor="middle" x="1059.97" y="-265.5" font-family="Helvetica,sans-Serif" font-size="10.00">xdg&#45;shell&#45;client&#45;protocol.h</text>
</a>
</g>
</g>
<!-- Node9&#45;&gt;Node45 -->
<g id="edge78" class="edge">
<title>Node9&#45;&gt;Node45</title>
<path fill="none" stroke="#63b8ff" d="M796.66,-318.93C844.21,-310 920.82,-295.58 986.97,-283 993.05,-281.85 999.4,-280.63 1005.72,-279.42"/>
<polygon fill="#63b8ff" stroke="#63b8ff" points="1006.42,-282.85 1015.58,-277.54 1005.1,-275.98 1006.42,-282.85"/>
</g>
<!-- Node13 -->
<g id="node13" class="node">
<title>Node13</title>
<g id="a_node13"><a xlink:title=" ">
<polygon fill="#e0e0e0" stroke="#999999" points="2440.97,-24.5 2380.97,-24.5 2380.97,-5.5 2440.97,-5.5 2440.97,-24.5"/>
<text text-anchor="middle" x="2410.97" y="-12.5" font-family="Helvetica,sans-Serif" font-size="10.00">EGL/egl.h</text>
</a>
</g>
</g>
<!-- Node12&#45;&gt;Node13 -->
<g id="edge15" class="edge">
<title>Node12&#45;&gt;Node13</title>
<path fill="none" stroke="#63b8ff" d="M1961.96,-71.45C1968.39,-69.41 1975.39,-67.42 1981.97,-66 2122.87,-35.67 2294.03,-22.7 2370.58,-18.12"/>
<polygon fill="#63b8ff" stroke="#63b8ff" points="2370.96,-21.6 2380.74,-17.52 2370.56,-14.61 2370.96,-21.6"/>
</g>
<!-- Node14 -->
<g id="node14" class="node">
<title>Node14</title>
<g id="a_node14"><a xlink:title=" ">
<polygon fill="#e0e0e0" stroke="#999999" points="1165.47,-30 1044.47,-30 1044.47,0 1165.47,0 1165.47,-30"/>
<text text-anchor="start" x="1052.47" y="-18" font-family="Helvetica,sans-Serif" font-size="10.00">shell/platform/embedder</text>
<text text-anchor="middle" x="1104.97" y="-7" font-family="Helvetica,sans-Serif" font-size="10.00">/embedder.h</text>
</a>
</g>
</g>
<!-- Node12&#45;&gt;Node14 -->
<g id="edge16" class="edge">
<title>Node12&#45;&gt;Node14</title>
<path fill="none" stroke="#63b8ff" d="M1915.04,-71.36C1908.63,-69.26 1901.6,-67.27 1894.97,-66 1758.22,-39.84 1343,-23.77 1175.83,-18.2"/>
<polygon fill="#63b8ff" stroke="#63b8ff" points="1175.77,-14.7 1165.66,-17.87 1175.54,-21.7 1175.77,-14.7"/>
</g>
<!-- Node15 -->
<g id="node15" class="node">
<title>Node15</title>
<g id="a_node15"><a xlink:title=" ">
<polygon fill="#e0e0e0" stroke="#999999" points="1956.97,-24.5 1918.97,-24.5 1918.97,-5.5 1956.97,-5.5 1956.97,-24.5"/>
<text text-anchor="middle" x="1937.97" y="-12.5" font-family="Helvetica,sans-Serif" font-size="10.00">array</text>
</a>
</g>
</g>
<!-- Node12&#45;&gt;Node15 -->
<g id="edge17" class="edge">
<title>Node12&#45;&gt;Node15</title>
<path fill="none" stroke="#63b8ff" d="M1937.97,-71.37C1937.97,-62.16 1937.97,-47.29 1937.97,-35.27"/>
<polygon fill="#63b8ff" stroke="#63b8ff" points="1941.47,-34.91 1937.97,-24.91 1934.47,-34.91 1941.47,-34.91"/>
</g>
<!-- Node16&#45;&gt;Node12 -->
<g id="edge20" class="edge">
<title>Node16&#45;&gt;Node12</title>
<path fill="none" stroke="#63b8ff" d="M1988.74,-264.91C2158.73,-257.03 2692.46,-224.68 2604.97,-132 2557.38,-81.58 2050.15,-108.61 1981.97,-96 1978.29,-95.32 1974.48,-94.42 1970.72,-93.4"/>
<polygon fill="#63b8ff" stroke="#63b8ff" points="1971.57,-90.01 1960.99,-90.52 1969.58,-96.72 1971.57,-90.01"/>
</g>
<!-- Node16&#45;&gt;Node14 -->
<g id="edge19" class="edge">
<title>Node16&#45;&gt;Node14</title>
<path fill="none" stroke="#63b8ff" d="M1988.75,-265.19C2111.95,-260.38 2423.99,-245.69 2523.97,-217 2643.66,-182.65 2846.68,-155.37 2759.97,-66 2745.97,-51.57 1491.24,-24.15 1176.13,-17.49"/>
<polygon fill="#63b8ff" stroke="#63b8ff" points="1175.84,-13.98 1165.76,-17.27 1175.69,-20.98 1175.84,-13.98"/>
</g>
<!-- Node17 -->
<g id="node17" class="node">
<title>Node17</title>
<g id="a_node17"><a xlink:href="engine_8h.html" target="_top" xlink:title=" ">
<polygon fill="white" stroke="#666666" points="1964.47,-217 1911.47,-217 1911.47,-198 1964.47,-198 1964.47,-217"/>
<text text-anchor="middle" x="1937.97" y="-205" font-family="Helvetica,sans-Serif" font-size="10.00">engine.h</text>
</a>
</g>
</g>
<!-- Node16&#45;&gt;Node17 -->
<g id="edge21" class="edge">
<title>Node16&#45;&gt;Node17</title>
<path fill="none" stroke="#63b8ff" d="M1933.02,-258.37C1931.26,-250.25 1930.79,-237.81 1931.61,-227.39"/>
<polygon fill="#63b8ff" stroke="#63b8ff" points="1935.12,-227.55 1933.01,-217.17 1928.19,-226.6 1935.12,-227.55"/>
</g>
<!-- Node17&#45;&gt;Node1 -->
<g id="edge75" class="edge">
<title>Node17&#45;&gt;Node1</title>
<path fill="none" stroke="#63b8ff" d="M1911.22,-208.69C1718.57,-210.1 548.51,-220.05 481.97,-253 457.02,-265.36 411.96,-327.98 386.6,-365.32"/>
<polygon fill="#63b8ff" stroke="#63b8ff" points="383.59,-363.53 380.9,-373.78 389.39,-367.44 383.59,-363.53"/>
</g>
<!-- Node17&#45;&gt;Node2 -->
<g id="edge28" class="edge">
<title>Node17&#45;&gt;Node2</title>
<path fill="none" stroke="#63b8ff" d="M1911.46,-206.32C1756.52,-205.12 966.85,-197.38 726.97,-162 698.34,-157.78 501.91,-106.6 474.97,-96 474.26,-95.72 473.54,-95.42 472.81,-95.11"/>
<polygon fill="#63b8ff" stroke="#63b8ff" points="474.06,-91.83 463.53,-90.62 471.01,-98.13 474.06,-91.83"/>
</g>
<!-- Node17&#45;&gt;Node3 -->
<g id="edge29" class="edge">
<title>Node17&#45;&gt;Node3</title>
<path fill="none" stroke="#63b8ff" d="M1911.21,-206.2C1715.88,-203.98 515.22,-189.21 443.97,-162 426.03,-155.15 387.07,-119.1 365.02,-97.8"/>
<polygon fill="#63b8ff" stroke="#63b8ff" points="367.34,-95.18 357.73,-90.71 362.45,-100.19 367.34,-95.18"/>
</g>
<!-- Node17&#45;&gt;Node5 -->
<g id="edge32" class="edge">
<title>Node17&#45;&gt;Node5</title>
<path fill="none" stroke="#63b8ff" d="M1911.35,-206.63C1719.38,-207.46 550.04,-210.47 400.97,-162 360.48,-148.84 321.28,-116.92 300.12,-97.61"/>
<polygon fill="#63b8ff" stroke="#63b8ff" points="302.38,-94.94 292.68,-90.67 297.6,-100.05 302.38,-94.94"/>
</g>
<!-- Node17&#45;&gt;Node6 -->
<g id="edge33" class="edge">
<title>Node17&#45;&gt;Node6</title>
<path fill="none" stroke="#63b8ff" d="M1911.28,-206.37C1709.47,-205.29 427.21,-197.09 258.97,-162 220.72,-154.02 131.9,-111.38 95.97,-96 94.97,-95.57 93.95,-95.13 92.92,-94.68"/>
<polygon fill="#63b8ff" stroke="#63b8ff" points="94.17,-91.41 83.61,-90.56 91.33,-97.81 94.17,-91.41"/>
</g>
<!-- Node17&#45;&gt;Node12 -->
<g id="edge35" class="edge">
<title>Node17&#45;&gt;Node12</title>
<path fill="none" stroke="#63b8ff" d="M1937.97,-197.94C1937.97,-178.04 1937.97,-128.26 1937.97,-100.85"/>
<polygon fill="#63b8ff" stroke="#63b8ff" points="1941.47,-100.62 1937.97,-90.62 1934.47,-100.62 1941.47,-100.62"/>
</g>
<!-- Node17&#45;&gt;Node13 -->
<g id="edge23" class="edge">
<title>Node17&#45;&gt;Node13</title>
<path fill="none" stroke="#63b8ff" d="M1964.5,-198.41C1988.02,-190.69 2022.9,-177.9 2050.97,-162 2070,-151.22 2069.47,-139.59 2089.97,-132 2159.88,-106.11 2708.69,-150.11 2759.97,-96 2769.14,-86.32 2768.71,-76.07 2759.97,-66 2720.37,-20.32 2534.06,-15.37 2451.05,-15.49"/>
<polygon fill="#63b8ff" stroke="#63b8ff" points="2450.97,-11.99 2440.99,-15.53 2451,-18.99 2450.97,-11.99"/>
</g>
<!-- Node17&#45;&gt;Node14 -->
<g id="edge26" class="edge">
<title>Node17&#45;&gt;Node14</title>
<path fill="none" stroke="#63b8ff" d="M1911.38,-206.21C1709.19,-203.98 420.16,-188.7 342.97,-162 296.43,-145.9 276.12,-139.99 253.97,-96 247.98,-84.09 244.83,-75.7 253.97,-66 280.59,-37.77 834.76,-22.24 1034.23,-17.54"/>
<polygon fill="#63b8ff" stroke="#63b8ff" points="1034.39,-21.04 1044.3,-17.31 1034.22,-14.04 1034.39,-21.04"/>
</g>
<!-- Node17&#45;&gt;Node16 -->
<g id="edge34" class="edge">
<title>Node17&#45;&gt;Node16</title>
<path fill="none" stroke="#63b8ff" d="M1942.94,-217.17C1944.69,-225.3 1945.15,-237.74 1944.33,-248.16"/>
<polygon fill="#63b8ff" stroke="#63b8ff" points="1940.82,-247.99 1942.93,-258.37 1947.75,-248.94 1940.82,-247.99"/>
</g>
<!-- Node18 -->
<g id="node18" class="node">
<title>Node18</title>
<g id="a_node18"><a xlink:title=" ">
<polygon fill="#e0e0e0" stroke="#999999" points="2157.47,-156.5 2098.47,-156.5 2098.47,-137.5 2157.47,-137.5 2157.47,-156.5"/>
<text text-anchor="middle" x="2127.97" y="-144.5" font-family="Helvetica,sans-Serif" font-size="10.00">functional</text>
</a>
</g>
</g>
<!-- Node17&#45;&gt;Node18 -->
<g id="edge22" class="edge">
<title>Node17&#45;&gt;Node18</title>
<path fill="none" stroke="#63b8ff" d="M1964.64,-198.48C1993.94,-189.64 2042.36,-174.96 2083.97,-162 2086.38,-161.25 2088.87,-160.47 2091.37,-159.68"/>
<polygon fill="#63b8ff" stroke="#63b8ff" points="2092.52,-162.99 2101,-156.64 2090.41,-156.32 2092.52,-162.99"/>
</g>
<!-- Node19 -->
<g id="node19" class="node">
<title>Node19</title>
<g id="a_node19"><a xlink:title=" ">
<polygon fill="#e0e0e0" stroke="#999999" points="2247.97,-156.5 2175.97,-156.5 2175.97,-137.5 2247.97,-137.5 2247.97,-156.5"/>
<text text-anchor="middle" x="2211.97" y="-144.5" font-family="Helvetica,sans-Serif" font-size="10.00">GLES2/gl2.h</text>
</a>
</g>
</g>
<!-- Node17&#45;&gt;Node19 -->
<g id="edge24" class="edge">
<title>Node17&#45;&gt;Node19</title>
<path fill="none" stroke="#63b8ff" d="M1964.63,-202.3C2007.55,-195.31 2094.51,-180.25 2166.97,-162 2169.97,-161.24 2173.06,-160.41 2176.16,-159.53"/>
<polygon fill="#63b8ff" stroke="#63b8ff" points="2177.34,-162.83 2185.94,-156.63 2175.35,-156.12 2177.34,-162.83"/>
</g>
<!-- Node20 -->
<g id="node20" class="node">
<title>Node20</title>
<g id="a_node20"><a xlink:title=" ">
<polygon fill="#e0e0e0" stroke="#999999" points="2391.47,-156.5 2266.47,-156.5 2266.47,-137.5 2391.47,-137.5 2391.47,-156.5"/>
<text text-anchor="middle" x="2328.97" y="-144.5" font-family="Helvetica,sans-Serif" font-size="10.00">flutter/encodable_value.h</text>
</a>
</g>
</g>
<!-- Node17&#45;&gt;Node20 -->
<g id="edge25" class="edge">
<title>Node17&#45;&gt;Node20</title>
<path fill="none" stroke="#63b8ff" d="M1964.51,-203.28C2019.31,-196.54 2148.87,-180.04 2256.97,-162 2263.56,-160.9 2270.46,-159.67 2277.28,-158.4"/>
<polygon fill="#63b8ff" stroke="#63b8ff" points="2277.99,-161.82 2287.16,-156.52 2276.68,-154.95 2277.99,-161.82"/>
</g>
<!-- Node21 -->
<g id="node21" class="node">
<title>Node21</title>
<g id="a_node21"><a xlink:title=" ">
<polygon fill="#e0e0e0" stroke="#999999" points="2471.97,-156.5 2409.97,-156.5 2409.97,-137.5 2471.97,-137.5 2471.97,-156.5"/>
<text text-anchor="middle" x="2440.97" y="-144.5" font-family="Helvetica,sans-Serif" font-size="10.00">filesystem</text>
</a>
</g>
</g>
<!-- Node17&#45;&gt;Node21 -->
<g id="edge27" class="edge">
<title>Node17&#45;&gt;Node21</title>
<path fill="none" stroke="#63b8ff" d="M1964.68,-206.17C2036.24,-204.81 2237.91,-197.82 2400.97,-162 2403.97,-161.34 2407.04,-160.53 2410.1,-159.63"/>
<polygon fill="#63b8ff" stroke="#63b8ff" points="2411.23,-162.94 2419.66,-156.53 2409.07,-156.28 2411.23,-162.94"/>
</g>
<!-- Node22 -->
<g id="node22" class="node">
<title>Node22</title>
<g id="a_node22"><a xlink:title=" ">
<polygon fill="#e0e0e0" stroke="#999999" points="2533.97,-156.5 2489.97,-156.5 2489.97,-137.5 2533.97,-137.5 2533.97,-156.5"/>
<text text-anchor="middle" x="2511.97" y="-144.5" font-family="Helvetica,sans-Serif" font-size="10.00">mutex</text>
</a>
</g>
</g>
<!-- Node17&#45;&gt;Node22 -->
<g id="edge30" class="edge">
<title>Node17&#45;&gt;Node22</title>
<path fill="none" stroke="#63b8ff" d="M1964.69,-205.52C2059.8,-201.83 2381.5,-187.72 2480.97,-162 2482.66,-161.56 2484.38,-161.04 2486.08,-160.46"/>
<polygon fill="#63b8ff" stroke="#63b8ff" points="2487.64,-163.61 2495.62,-156.64 2485.04,-157.11 2487.64,-163.61"/>
</g>
<!-- Node23 -->
<g id="node23" class="node">
<title>Node23</title>
<g id="a_node23"><a xlink:title=" ">
<polygon fill="#e0e0e0" stroke="#999999" points="2595.47,-156.5 2552.47,-156.5 2552.47,-137.5 2595.47,-137.5 2595.47,-156.5"/>
<text text-anchor="middle" x="2573.97" y="-144.5" font-family="Helvetica,sans-Serif" font-size="10.00">queue</text>
</a>
</g>
</g>
<!-- Node17&#45;&gt;Node23 -->
<g id="edge31" class="edge">
<title>Node17&#45;&gt;Node23</title>
<path fill="none" stroke="#63b8ff" d="M1964.53,-205.78C2066.25,-202.83 2430.95,-190.46 2542.97,-162 2544.7,-161.56 2546.46,-161.03 2548.21,-160.43"/>
<polygon fill="#63b8ff" stroke="#63b8ff" points="2549.98,-163.5 2557.95,-156.52 2547.37,-157 2549.98,-163.5"/>
</g>
<!-- Node24 -->
<g id="node24" class="node">
<title>Node24</title>
<g id="a_node24"><a xlink:href="logging_8h.html" target="_top" xlink:title=" ">
<polygon fill="white" stroke="#666666" points="2041.97,-156.5 1985.97,-156.5 1985.97,-137.5 2041.97,-137.5 2041.97,-156.5"/>
<text text-anchor="middle" x="2013.97" y="-144.5" font-family="Helvetica,sans-Serif" font-size="10.00">logging.h</text>
</a>
</g>
</g>
<!-- Node17&#45;&gt;Node24 -->
<g id="edge36" class="edge">
<title>Node17&#45;&gt;Node24</title>
<path fill="none" stroke="#63b8ff" d="M1949.19,-197.87C1961.09,-188.71 1980.12,-174.06 1994.48,-163.01"/>
<polygon fill="#63b8ff" stroke="#63b8ff" points="1996.92,-165.54 2002.71,-156.67 1992.65,-159.99 1996.92,-165.54"/>
</g>
<!-- Node32 -->
<g id="node32" class="node">
<title>Node32</title>
<g id="a_node32"><a xlink:href="platform__channel_8h.html" target="_top" xlink:title=" ">
<polygon fill="white" stroke="#666666" points="552.47,-156.5 453.47,-156.5 453.47,-137.5 552.47,-137.5 552.47,-156.5"/>
<text text-anchor="middle" x="502.97" y="-144.5" font-family="Helvetica,sans-Serif" font-size="10.00">platform_channel.h</text>
</a>
</g>
</g>
<!-- Node17&#45;&gt;Node32 -->
<g id="edge45" class="edge">
<title>Node17&#45;&gt;Node32</title>
<path fill="none" stroke="#63b8ff" d="M1911.2,-206.18C1776.15,-204.41 1156.25,-194.82 649.97,-162 621.16,-160.13 589.25,-157.2 562.55,-154.5"/>
<polygon fill="#63b8ff" stroke="#63b8ff" points="562.89,-151.01 552.58,-153.48 562.18,-157.98 562.89,-151.01"/>
</g>
<!-- Node33 -->
<g id="node33" class="node">
<title>Node33</title>
<g id="a_node33"><a xlink:href="key__event_8h.html" target="_top" xlink:title=" ">
<polygon fill="white" stroke="#666666" points="837.97,-162 735.97,-162 735.97,-132 837.97,-132 837.97,-162"/>
<text text-anchor="start" x="743.97" y="-150" font-family="Helvetica,sans-Serif" font-size="10.00">static_plugins/key</text>
<text text-anchor="middle" x="786.97" y="-139" font-family="Helvetica,sans-Serif" font-size="10.00">_event/key_event.h</text>
</a>
</g>
</g>
<!-- Node17&#45;&gt;Node33 -->
<g id="edge49" class="edge">
<title>Node17&#45;&gt;Node33</title>
<path fill="none" stroke="#63b8ff" d="M1911.22,-205.14C1765.01,-197.71 1061.53,-161.95 848.34,-151.12"/>
<polygon fill="#63b8ff" stroke="#63b8ff" points="848.43,-147.62 838.26,-150.61 848.07,-154.61 848.43,-147.62"/>
</g>
<!-- Node38 -->
<g id="node38" class="node">
<title>Node38</title>
<g id="a_node38"><a xlink:href="text__input_8h.html" target="_top" xlink:title=" ">
<polygon fill="white" stroke="#666666" points="1276.47,-162 1179.47,-162 1179.47,-132 1276.47,-132 1276.47,-162"/>
<text text-anchor="start" x="1187.47" y="-150" font-family="Helvetica,sans-Serif" font-size="10.00">static_plugins/text</text>
<text text-anchor="middle" x="1227.97" y="-139" font-family="Helvetica,sans-Serif" font-size="10.00">_input/text_input.h</text>
</a>
</g>
</g>
<!-- Node17&#45;&gt;Node38 -->
<g id="edge61" class="edge">
<title>Node17&#45;&gt;Node38</title>
<path fill="none" stroke="#63b8ff" d="M1911.44,-204.31C1808.3,-195.82 1432.65,-164.86 1286.61,-152.83"/>
<polygon fill="#63b8ff" stroke="#63b8ff" points="1286.75,-149.33 1276.5,-152 1286.17,-156.31 1286.75,-149.33"/>
</g>
<!-- Node24&#45;&gt;Node12 -->
<g id="edge44" class="edge">
<title>Node24&#45;&gt;Node12</title>
<path fill="none" stroke="#63b8ff" d="M2003.72,-137.37C1991.67,-127.21 1971.41,-110.16 1956.56,-97.65"/>
<polygon fill="#63b8ff" stroke="#63b8ff" points="1958.45,-94.67 1948.55,-90.91 1953.94,-100.02 1958.45,-94.67"/>
</g>
<!-- Node25 -->
<g id="node25" class="node">
<title>Node25</title>
<g id="a_node25"><a xlink:title=" ">
<polygon fill="#e0e0e0" stroke="#999999" points="2145.97,-90.5 2093.97,-90.5 2093.97,-71.5 2145.97,-71.5 2145.97,-90.5"/>
<text text-anchor="middle" x="2119.97" y="-78.5" font-family="Helvetica,sans-Serif" font-size="10.00">sstream</text>
</a>
</g>
</g>
<!-- Node24&#45;&gt;Node25 -->
<g id="edge37" class="edge">
<title>Node24&#45;&gt;Node25</title>
<path fill="none" stroke="#63b8ff" d="M2028.27,-137.37C2045.89,-126.73 2076.07,-108.51 2096.97,-95.89"/>
<polygon fill="#63b8ff" stroke="#63b8ff" points="2098.81,-98.86 2105.57,-90.7 2095.2,-92.87 2098.81,-98.86"/>
</g>
<!-- Node26 -->
<g id="node26" class="node">
<title>Node26</title>
<g id="a_node26"><a xlink:title=" ">
<polygon fill="#e0e0e0" stroke="#999999" points="2251.97,-90.5 2163.97,-90.5 2163.97,-71.5 2251.97,-71.5 2251.97,-90.5"/>
<text text-anchor="middle" x="2207.97" y="-78.5" font-family="Helvetica,sans-Serif" font-size="10.00">spdlog/cfg/env.h</text>
</a>
</g>
</g>
<!-- Node24&#45;&gt;Node26 -->
<g id="edge38" class="edge">
<title>Node24&#45;&gt;Node26</title>
<path fill="none" stroke="#63b8ff" d="M2039.73,-137.4C2045.1,-135.61 2050.72,-133.74 2055.97,-132 2095.66,-118.86 2141.21,-103.89 2172.02,-93.78"/>
<polygon fill="#63b8ff" stroke="#63b8ff" points="2173.46,-96.99 2181.87,-90.55 2171.28,-90.34 2173.46,-96.99"/>
</g>
<!-- Node27 -->
<g id="node27" class="node">
<title>Node27</title>
<g id="a_node27"><a xlink:title=" ">
<polygon fill="#e0e0e0" stroke="#999999" points="2379.97,-96 2269.97,-96 2269.97,-66 2379.97,-66 2379.97,-96"/>
<text text-anchor="start" x="2277.97" y="-84" font-family="Helvetica,sans-Serif" font-size="10.00">spdlog/sinks/callback</text>
<text text-anchor="middle" x="2324.97" y="-73" font-family="Helvetica,sans-Serif" font-size="10.00">_sink.h</text>
</a>
</g>
</g>
<!-- Node24&#45;&gt;Node27 -->
<g id="edge39" class="edge">
<title>Node24&#45;&gt;Node27</title>
<path fill="none" stroke="#63b8ff" d="M2037.78,-137.39C2043.67,-135.44 2050.01,-133.51 2055.97,-132 2142.59,-110.09 2168.46,-113.61 2259.89,-96.15"/>
<polygon fill="#63b8ff" stroke="#63b8ff" points="2260.7,-99.55 2269.85,-94.21 2259.36,-92.68 2260.7,-99.55"/>
</g>
<!-- Node28 -->
<g id="node28" class="node">
<title>Node28</title>
<g id="a_node28"><a xlink:title=" ">
<polygon fill="#e0e0e0" stroke="#999999" points="2511.97,-96 2397.97,-96 2397.97,-66 2511.97,-66 2511.97,-96"/>
<text text-anchor="start" x="2405.97" y="-84" font-family="Helvetica,sans-Serif" font-size="10.00">spdlog/sinks/ringbuffer</text>
<text text-anchor="middle" x="2454.97" y="-73" font-family="Helvetica,sans-Serif" font-size="10.00">_sink.h</text>
</a>
</g>
</g>
<!-- Node24&#45;&gt;Node28 -->
<g id="edge40" class="edge">
<title>Node24&#45;&gt;Node28</title>
<path fill="none" stroke="#63b8ff" d="M2036.83,-137.4C2042.97,-135.36 2049.66,-133.38 2055.97,-132 2198.29,-100.96 2240.18,-118.67 2387.92,-96.05"/>
<polygon fill="#63b8ff" stroke="#63b8ff" points="2388.46,-99.5 2397.8,-94.5 2387.38,-92.59 2388.46,-99.5"/>
</g>
<!-- Node29 -->
<g id="node29" class="node">
<title>Node29</title>
<g id="a_node29"><a xlink:title=" ">
<polygon fill="#e0e0e0" stroke="#999999" points="2631.47,-96 2530.47,-96 2530.47,-66 2631.47,-66 2631.47,-96"/>
<text text-anchor="start" x="2538.47" y="-84" font-family="Helvetica,sans-Serif" font-size="10.00">spdlog/sinks/stdout</text>
<text text-anchor="middle" x="2580.97" y="-73" font-family="Helvetica,sans-Serif" font-size="10.00">_color_sinks.h</text>
</a>
</g>
</g>
<!-- Node24&#45;&gt;Node29 -->
<g id="edge41" class="edge">
<title>Node24&#45;&gt;Node29</title>
<path fill="none" stroke="#63b8ff" d="M2036.37,-137.41C2042.63,-135.32 2049.49,-133.31 2055.97,-132 2255.97,-91.56 2314.3,-126.51 2520.41,-95.89"/>
<polygon fill="#63b8ff" stroke="#63b8ff" points="2520.98,-99.35 2530.34,-94.38 2519.93,-92.43 2520.98,-99.35"/>
</g>
<!-- Node30 -->
<g id="node30" class="node">
<title>Node30</title>
<g id="a_node30"><a xlink:title=" ">
<polygon fill="#e0e0e0" stroke="#999999" points="2750.47,-96 2649.47,-96 2649.47,-66 2750.47,-66 2750.47,-96"/>
<text text-anchor="start" x="2657.47" y="-84" font-family="Helvetica,sans-Serif" font-size="10.00">spdlog/sinks/stdout</text>
<text text-anchor="middle" x="2699.97" y="-73" font-family="Helvetica,sans-Serif" font-size="10.00">_sinks.h</text>
</a>
</g>
</g>
<!-- Node24&#45;&gt;Node30 -->
<g id="edge42" class="edge">
<title>Node24&#45;&gt;Node30</title>
<path fill="none" stroke="#63b8ff" d="M2035.92,-137.49C2042.3,-135.34 2049.33,-133.29 2055.97,-132 2308.45,-83.02 2381.45,-132.91 2639.2,-96.09"/>
<polygon fill="#63b8ff" stroke="#63b8ff" points="2639.84,-99.53 2649.23,-94.62 2638.83,-92.6 2639.84,-99.53"/>
</g>
<!-- Node31 -->
<g id="node31" class="node">
<title>Node31</title>
<g id="a_node31"><a xlink:title=" ">
<polygon fill="#e0e0e0" stroke="#999999" points="2075.47,-90.5 1990.47,-90.5 1990.47,-71.5 2075.47,-71.5 2075.47,-90.5"/>
<text text-anchor="middle" x="2032.97" y="-78.5" font-family="Helvetica,sans-Serif" font-size="10.00">spdlog/spdlog.h</text>
</a>
</g>
</g>
<!-- Node24&#45;&gt;Node31 -->
<g id="edge43" class="edge">
<title>Node24&#45;&gt;Node31</title>
<path fill="none" stroke="#63b8ff" d="M2016.54,-137.37C2019.32,-127.97 2023.87,-112.67 2027.47,-100.53"/>
<polygon fill="#63b8ff" stroke="#63b8ff" points="2030.84,-101.49 2030.33,-90.91 2024.13,-99.5 2030.84,-101.49"/>
</g>
<!-- Node32&#45;&gt;Node2 -->
<g id="edge46" class="edge">
<title>Node32&#45;&gt;Node2</title>
<path fill="none" stroke="#63b8ff" d="M495.69,-137.37C487.36,-127.5 473.53,-111.11 463.08,-98.72"/>
<polygon fill="#63b8ff" stroke="#63b8ff" points="465.61,-96.29 456.49,-90.91 460.26,-100.81 465.61,-96.29"/>
</g>
<!-- Node32&#45;&gt;Node5 -->
<g id="edge47" class="edge">
<title>Node32&#45;&gt;Node5</title>
<path fill="none" stroke="#63b8ff" d="M462.52,-137.5C423.81,-128.85 364.07,-114.15 313.97,-96 312.76,-95.56 311.52,-95.09 310.28,-94.6"/>
<polygon fill="#63b8ff" stroke="#63b8ff" points="311.45,-91.29 300.89,-90.53 308.68,-97.71 311.45,-91.29"/>
</g>
<!-- Node32&#45;&gt;Node14 -->
<g id="edge48" class="edge">
<title>Node32&#45;&gt;Node14</title>
<path fill="none" stroke="#63b8ff" d="M482.76,-137.48C451.34,-123.12 396.88,-93 421.97,-66 463.03,-21.83 867.96,-16.27 1034.25,-15.86"/>
<polygon fill="#63b8ff" stroke="#63b8ff" points="1034.38,-19.36 1044.38,-15.84 1034.37,-12.36 1034.38,-19.36"/>
</g>
<!-- Node33&#45;&gt;Node2 -->
<g id="edge50" class="edge">
<title>Node33&#45;&gt;Node2</title>
<path fill="none" stroke="#63b8ff" d="M735.83,-138.76C653.72,-126.99 499.2,-104.2 474.97,-96 474.08,-95.7 473.18,-95.37 472.28,-95.01"/>
<polygon fill="#63b8ff" stroke="#63b8ff" points="473.43,-91.68 462.89,-90.6 470.45,-98.02 473.43,-91.68"/>
</g>
<!-- Node33&#45;&gt;Node3 -->
<g id="edge51" class="edge">
<title>Node33&#45;&gt;Node3</title>
<path fill="none" stroke="#63b8ff" d="M735.76,-139.86C665.03,-131.18 533.53,-114.32 421.97,-96 409.96,-94.03 396.88,-91.61 385.16,-89.34"/>
<polygon fill="#63b8ff" stroke="#63b8ff" points="385.75,-85.89 375.27,-87.39 384.41,-92.75 385.75,-85.89"/>
</g>
<!-- Node33&#45;&gt;Node5 -->
<g id="edge52" class="edge">
<title>Node33&#45;&gt;Node5</title>
<path fill="none" stroke="#63b8ff" d="M735.67,-142.73C630.2,-135.64 392.34,-117.77 313.97,-96 312.34,-95.55 310.68,-95.01 309.02,-94.42"/>
<polygon fill="#63b8ff" stroke="#63b8ff" points="310.37,-91.18 299.79,-90.57 307.68,-97.65 310.37,-91.18"/>
</g>
<!-- Node33&#45;&gt;Node7 -->
<g id="edge56" class="edge">
<title>Node33&#45;&gt;Node7</title>
<path fill="none" stroke="#63b8ff" d="M735.81,-142.03C640.74,-134.47 430.49,-116.88 253.97,-96 241.91,-94.57 229.03,-92.87 216.71,-91.14"/>
<polygon fill="#63b8ff" stroke="#63b8ff" points="216.92,-87.64 206.52,-89.7 215.93,-94.57 216.92,-87.64"/>
</g>
<!-- Node33&#45;&gt;Node8 -->
<g id="edge57" class="edge">
<title>Node33&#45;&gt;Node8</title>
<path fill="none" stroke="#63b8ff" d="M801.4,-131.8C811.53,-121.82 825.1,-108.46 835.64,-98.09"/>
<polygon fill="#63b8ff" stroke="#63b8ff" points="838.32,-100.35 842.99,-90.84 833.41,-95.37 838.32,-100.35"/>
</g>
<!-- Node33&#45;&gt;Node12 -->
<g id="edge60" class="edge">
<title>Node33&#45;&gt;Node12</title>
<path fill="none" stroke="#63b8ff" d="M837.99,-144.08C1048.67,-136.11 1842.43,-105.56 1894.97,-96 1898.48,-95.36 1902.09,-94.51 1905.66,-93.54"/>
<polygon fill="#63b8ff" stroke="#63b8ff" points="1906.94,-96.81 1915.5,-90.58 1904.92,-90.11 1906.94,-96.81"/>
</g>
<!-- Node33&#45;&gt;Node14 -->
<g id="edge58" class="edge">
<title>Node33&#45;&gt;Node14</title>
<path fill="none" stroke="#63b8ff" d="M832.96,-131.92C858.28,-123.26 889.8,-110.95 915.97,-96 934.66,-85.33 935.03,-76.2 953.97,-66 979.96,-52.01 1010.56,-40.98 1037.4,-32.89"/>
<polygon fill="#63b8ff" stroke="#63b8ff" points="1038.5,-36.21 1047.11,-30.04 1036.53,-29.5 1038.5,-36.21"/>
</g>
<!-- Node34 -->
<g id="node34" class="node">
<title>Node34</title>
<g id="a_node34"><a xlink:title=" ">
<polygon fill="#e0e0e0" stroke="#999999" points="778.47,-96 665.47,-96 665.47,-66 778.47,-66 778.47,-96"/>
<text text-anchor="start" x="673.47" y="-84" font-family="Helvetica,sans-Serif" font-size="10.00">flutter/basic_message</text>
<text text-anchor="middle" x="721.97" y="-73" font-family="Helvetica,sans-Serif" font-size="10.00">_channel.h</text>
</a>
</g>
</g>
<!-- Node33&#45;&gt;Node34 -->
<g id="edge53" class="edge">
<title>Node33&#45;&gt;Node34</title>
<path fill="none" stroke="#63b8ff" d="M772.55,-131.8C764.05,-123.43 753.13,-112.68 743.62,-103.31"/>
<polygon fill="#63b8ff" stroke="#63b8ff" points="745.94,-100.69 736.36,-96.16 741.03,-105.67 745.94,-100.69"/>
</g>
<!-- Node35 -->
<g id="node35" class="node">
<title>Node35</title>
<g id="a_node35"><a xlink:title=" ">
<polygon fill="#e0e0e0" stroke="#999999" points="1246.97,-90.5 1114.97,-90.5 1114.97,-71.5 1246.97,-71.5 1246.97,-90.5"/>
<text text-anchor="middle" x="1180.97" y="-78.5" font-family="Helvetica,sans-Serif" font-size="10.00">flutter/binary_messenger.h</text>
</a>
</g>
</g>
<!-- Node33&#45;&gt;Node35 -->
<g id="edge54" class="edge">
<title>Node33&#45;&gt;Node35</title>
<path fill="none" stroke="#63b8ff" d="M838.15,-138.45C901.23,-129.03 1011.63,-112.19 1105.97,-96 1112.64,-94.86 1119.63,-93.61 1126.55,-92.35"/>
<polygon fill="#63b8ff" stroke="#63b8ff" points="1127.39,-95.76 1136.59,-90.5 1126.13,-88.87 1127.39,-95.76"/>
</g>
<!-- Node36 -->
<g id="node36" class="node">
<title>Node36</title>
<g id="a_node36"><a xlink:title=" ">
<polygon fill="#e0e0e0" stroke="#999999" points="647.47,-96 484.47,-96 484.47,-66 647.47,-66 647.47,-96"/>
<text text-anchor="start" x="492.47" y="-84" font-family="Helvetica,sans-Serif" font-size="10.00">flutter/shell/platform</text>
<text text-anchor="middle" x="565.97" y="-73" font-family="Helvetica,sans-Serif" font-size="10.00">/common/json_message_codec.h</text>
</a>
</g>
</g>
<!-- Node33&#45;&gt;Node36 -->
<g id="edge55" class="edge">
<title>Node33&#45;&gt;Node36</title>
<path fill="none" stroke="#63b8ff" d="M738.47,-131.95C704.79,-122.2 659.75,-109.16 624.14,-98.84"/>
<polygon fill="#63b8ff" stroke="#63b8ff" points="624.94,-95.43 614.36,-96.01 622.99,-102.16 624.94,-95.43"/>
</g>
<!-- Node37 -->
<g id="node37" class="node">
<title>Node37</title>
<g id="a_node37"><a xlink:title=" ">
<polygon fill="#e0e0e0" stroke="#999999" points="1096.97,-90.5 962.97,-90.5 962.97,-71.5 1096.97,-71.5 1096.97,-90.5"/>
<text text-anchor="middle" x="1029.97" y="-78.5" font-family="Helvetica,sans-Serif" font-size="10.00">xkbcommon/xkbcommon.h</text>
</a>
</g>
</g>
<!-- Node33&#45;&gt;Node37 -->
<g id="edge59" class="edge">
<title>Node33&#45;&gt;Node37</title>
<path fill="none" stroke="#63b8ff" d="M838.21,-132.51C882.59,-120.82 946.03,-104.11 987.6,-93.16"/>
<polygon fill="#63b8ff" stroke="#63b8ff" points="988.63,-96.51 997.41,-90.58 986.85,-89.74 988.63,-96.51"/>
</g>
<!-- Node38&#45;&gt;Node2 -->
<g id="edge62" class="edge">
<title>Node38&#45;&gt;Node2</title>
<path fill="none" stroke="#63b8ff" d="M1179.26,-143.97C1023.27,-137.3 542.33,-115.38 474.97,-96 473.89,-95.69 472.8,-95.33 471.71,-94.93"/>
<polygon fill="#63b8ff" stroke="#63b8ff" points="472.81,-91.58 462.27,-90.56 469.88,-97.93 472.81,-91.58"/>
</g>
<!-- Node38&#45;&gt;Node3 -->
<g id="edge63" class="edge">
<title>Node38&#45;&gt;Node3</title>
<path fill="none" stroke="#63b8ff" d="M1179.4,-143.8C1028.63,-136.85 569.93,-114.7 421.97,-96 409.89,-94.47 396.8,-92.17 385.08,-89.87"/>
<polygon fill="#63b8ff" stroke="#63b8ff" points="385.69,-86.42 375.2,-87.87 384.31,-93.28 385.69,-86.42"/>
</g>
<!-- Node38&#45;&gt;Node5 -->
<g id="edge64" class="edge">
<title>Node38&#45;&gt;Node5</title>
<path fill="none" stroke="#63b8ff" d="M1179.39,-144.42C1002.4,-138.54 398.03,-117.07 313.97,-96 312.29,-95.58 310.58,-95.06 308.88,-94.47"/>
<polygon fill="#63b8ff" stroke="#63b8ff" points="310.02,-91.16 299.44,-90.59 307.35,-97.63 310.02,-91.16"/>
</g>
<!-- Node38&#45;&gt;Node7 -->
<g id="edge68" class="edge">
<title>Node38&#45;&gt;Node7</title>
<path fill="none" stroke="#63b8ff" d="M1179.19,-144.08C1008.21,-137.27 436.62,-113.7 253.97,-96 241.88,-94.83 228.99,-93.24 216.67,-91.54"/>
<polygon fill="#63b8ff" stroke="#63b8ff" points="216.87,-88.04 206.48,-90.11 215.89,-94.97 216.87,-88.04"/>
</g>
<!-- Node38&#45;&gt;Node8 -->
<g id="edge71" class="edge">
<title>Node38&#45;&gt;Node8</title>
<path fill="none" stroke="#63b8ff" d="M1179.2,-137.7C1110.79,-126.05 986.41,-104.88 912.27,-92.26"/>
<polygon fill="#63b8ff" stroke="#63b8ff" points="912.6,-88.77 902.15,-90.54 911.43,-95.67 912.6,-88.77"/>
</g>
<!-- Node38&#45;&gt;Node12 -->
<g id="edge74" class="edge">
<title>Node38&#45;&gt;Node12</title>
<path fill="none" stroke="#63b8ff" d="M1276.63,-146.32C1387.48,-146.2 1666.83,-141.01 1894.97,-96 1898.39,-95.33 1901.91,-94.47 1905.4,-93.5"/>
<polygon fill="#63b8ff" stroke="#63b8ff" points="1906.47,-96.84 1915.03,-90.59 1904.45,-90.13 1906.47,-96.84"/>
</g>
<!-- Node38&#45;&gt;Node14 -->
<g id="edge72" class="edge">
<title>Node38&#45;&gt;Node14</title>
<path fill="none" stroke="#63b8ff" d="M1240.29,-131.85C1253.47,-114.9 1270.62,-86.28 1255.97,-66 1237.52,-40.46 1205.52,-27.75 1175.72,-21.51"/>
<polygon fill="#63b8ff" stroke="#63b8ff" points="1176.19,-18.04 1165.72,-19.64 1174.9,-24.92 1176.19,-18.04"/>
</g>
<!-- Node38&#45;&gt;Node35 -->
<g id="edge65" class="edge">
<title>Node38&#45;&gt;Node35</title>
<path fill="none" stroke="#63b8ff" d="M1217.54,-131.8C1210.43,-122.11 1200.98,-109.24 1193.46,-99.01"/>
<polygon fill="#63b8ff" stroke="#63b8ff" points="1196.21,-96.83 1187.47,-90.84 1190.57,-100.98 1196.21,-96.83"/>
</g>
<!-- Node38&#45;&gt;Node37 -->
<g id="edge73" class="edge">
<title>Node38&#45;&gt;Node37</title>
<path fill="none" stroke="#63b8ff" d="M1184.52,-131.95C1149.03,-120.48 1099.46,-104.46 1066.12,-93.68"/>
<polygon fill="#63b8ff" stroke="#63b8ff" points="1066.92,-90.26 1056.32,-90.52 1064.76,-96.92 1066.92,-90.26"/>
</g>
<!-- Node39 -->
<g id="node39" class="node">
<title>Node39</title>
<g id="a_node39"><a xlink:title=" ">
<polygon fill="#e0e0e0" stroke="#999999" points="1761.97,-90.5 1637.97,-90.5 1637.97,-71.5 1761.97,-71.5 1761.97,-90.5"/>
<text text-anchor="middle" x="1699.97" y="-78.5" font-family="Helvetica,sans-Serif" font-size="10.00">flutter/method_channel.h</text>
</a>
</g>
</g>
<!-- Node38&#45;&gt;Node39 -->
<g id="edge66" class="edge">
<title>Node38&#45;&gt;Node39</title>
<path fill="none" stroke="#63b8ff" d="M1276.59,-141.06C1352.18,-133.12 1502.39,-116.35 1628.97,-96 1635.56,-94.94 1642.46,-93.72 1649.27,-92.45"/>
<polygon fill="#63b8ff" stroke="#63b8ff" points="1649.97,-95.88 1659.14,-90.56 1648.66,-89 1649.97,-95.88"/>
</g>
<!-- Node40 -->
<g id="node40" class="node">
<title>Node40</title>
<g id="a_node40"><a xlink:title=" ">
<polygon fill="#e0e0e0" stroke="#999999" points="1885.97,-96 1779.97,-96 1779.97,-66 1885.97,-66 1885.97,-96"/>
<text text-anchor="start" x="1787.97" y="-84" font-family="Helvetica,sans-Serif" font-size="10.00">flutter/method_result</text>
<text text-anchor="middle" x="1832.97" y="-73" font-family="Helvetica,sans-Serif" font-size="10.00">_functions.h</text>
</a>
</g>
</g>
<!-- Node38&#45;&gt;Node40 -->
<g id="edge67" class="edge">
<title>Node38&#45;&gt;Node40</title>
<path fill="none" stroke="#63b8ff" d="M1276.54,-143.65C1370.16,-138.67 1582.18,-125.16 1769.91,-96.03"/>
<polygon fill="#63b8ff" stroke="#63b8ff" points="1770.62,-99.46 1779.96,-94.45 1769.54,-92.54 1770.62,-99.46"/>
</g>
<!-- Node41 -->
<g id="node41" class="node">
<title>Node41</title>
<g id="a_node41"><a xlink:title=" ">
<polygon fill="#e0e0e0" stroke="#999999" points="1458.47,-96 1303.47,-96 1303.47,-66 1458.47,-66 1458.47,-96"/>
<text text-anchor="start" x="1311.47" y="-84" font-family="Helvetica,sans-Serif" font-size="10.00">flutter/shell/platform</text>
<text text-anchor="middle" x="1380.97" y="-73" font-family="Helvetica,sans-Serif" font-size="10.00">/common/json_method_codec.h</text>
</a>
</g>
</g>
<!-- Node38&#45;&gt;Node41 -->
<g id="edge69" class="edge">
<title>Node38&#45;&gt;Node41</title>
<path fill="none" stroke="#63b8ff" d="M1261.55,-131.95C1284.07,-122.53 1313.93,-110.04 1338.15,-99.91"/>
<polygon fill="#63b8ff" stroke="#63b8ff" points="1339.6,-103.1 1347.47,-96.01 1336.9,-96.64 1339.6,-103.1"/>
</g>
<!-- Node42 -->
<g id="node42" class="node">
<title>Node42</title>
<g id="a_node42"><a xlink:title=" ">
<polygon fill="#e0e0e0" stroke="#999999" points="1619.47,-96 1476.47,-96 1476.47,-66 1619.47,-66 1619.47,-96"/>
<text text-anchor="start" x="1484.47" y="-84" font-family="Helvetica,sans-Serif" font-size="10.00">flutter/shell/platform</text>
<text text-anchor="middle" x="1547.97" y="-73" font-family="Helvetica,sans-Serif" font-size="10.00">/common/text_input_model.h</text>
</a>
</g>
</g>
<!-- Node38&#45;&gt;Node42 -->
<g id="edge70" class="edge">
<title>Node38&#45;&gt;Node42</title>
<path fill="none" stroke="#63b8ff" d="M1276.57,-136.28C1327.34,-126.13 1407.8,-110.03 1467.96,-98"/>
<polygon fill="#63b8ff" stroke="#63b8ff" points="1468.69,-101.43 1477.8,-96.03 1467.31,-94.56 1468.69,-101.43"/>
</g>
</g>
</svg>
