<?xml version="1.0" encoding="UTF-8" standalone="no"?>
<!DOCTYPE svg PUBLIC "-//W3C//DTD SVG 1.1//EN"
 "http://www.w3.org/Graphics/SVG/1.1/DTD/svg11.dtd">
<!-- Generated by graphviz version 5.0.0 (0)
 -->
<!-- Title: /mnt/raid10/stargate/ivi&#45;homescreen/shell/view/flutter_view.h Pages: 1 -->
<svg width="2242pt" height="478pt"
 viewBox="0.00 0.00 2242.28 478.00" xmlns="http://www.w3.org/2000/svg" xmlns:xlink="http://www.w3.org/1999/xlink">
<g id="graph0" class="graph" transform="scale(1 1) rotate(0) translate(4 474)">
<title>/mnt/raid10/stargate/ivi&#45;homescreen/shell/view/flutter_view.h</title>
<!-- Node1 -->
<g id="node1" class="node">
<title>Node1</title>
<g id="a_node1"><a xlink:title=" ">
<polygon fill="#999999" stroke="#666666" points="505.78,-470 396.78,-470 396.78,-429 505.78,-429 505.78,-470"/>
<text text-anchor="start" x="404.78" y="-458" font-family="Helvetica,sans-Serif" font-size="10.00">/mnt/raid10/stargate</text>
<text text-anchor="start" x="404.78" y="-447" font-family="Helvetica,sans-Serif" font-size="10.00">/ivi&#45;homescreen/shell</text>
<text text-anchor="middle" x="451.28" y="-436" font-family="Helvetica,sans-Serif" font-size="10.00">/view/flutter_view.h</text>
</a>
</g>
</g>
<!-- Node2 -->
<g id="node2" class="node">
<title>Node2</title>
<g id="a_node2"><a xlink:title=" ">
<polygon fill="#e0e0e0" stroke="#999999" points="927.78,-145.5 892.78,-145.5 892.78,-126.5 927.78,-126.5 927.78,-145.5"/>
<text text-anchor="middle" x="910.28" y="-133.5" font-family="Helvetica,sans-Serif" font-size="10.00">map</text>
</a>
</g>
</g>
<!-- Node1&#45;&gt;Node2 -->
<g id="edge1" class="edge">
<title>Node1&#45;&gt;Node2</title>
<path fill="none" stroke="#63b8ff" d="M454.99,-428.99C465.57,-379.18 500.92,-247 587.28,-187 694.31,-112.65 752.6,-185.48 878.28,-151 879.97,-150.54 881.68,-150 883.4,-149.41"/>
<polygon fill="#63b8ff" stroke="#63b8ff" points="884.98,-152.55 893.01,-145.64 882.42,-146.04 884.98,-152.55"/>
</g>
<!-- Node3 -->
<g id="node3" class="node">
<title>Node3</title>
<g id="a_node3"><a xlink:title=" ">
<polygon fill="#e0e0e0" stroke="#999999" points="357.28,-145.5 305.28,-145.5 305.28,-126.5 357.28,-126.5 357.28,-145.5"/>
<text text-anchor="middle" x="331.28" y="-133.5" font-family="Helvetica,sans-Serif" font-size="10.00">memory</text>
</a>
</g>
</g>
<!-- Node1&#45;&gt;Node3 -->
<g id="edge2" class="edge">
<title>Node1&#45;&gt;Node3</title>
<path fill="none" stroke="#63b8ff" d="M412.97,-428.9C378.19,-408.05 332.28,-371.54 332.28,-324 332.28,-324 332.28,-324 332.28,-261.5 332.28,-223.99 331.82,-180.13 331.53,-155.76"/>
<polygon fill="#63b8ff" stroke="#63b8ff" points="335.02,-155.71 331.4,-145.75 328.03,-155.8 335.02,-155.71"/>
</g>
<!-- Node4 -->
<g id="node4" class="node">
<title>Node4</title>
<g id="a_node4"><a xlink:href="configuration_8h.html" target="_top" xlink:title=" ">
<polygon fill="white" stroke="#666666" points="218.78,-211.5 79.78,-211.5 79.78,-192.5 218.78,-192.5 218.78,-211.5"/>
<text text-anchor="middle" x="149.28" y="-199.5" font-family="Helvetica,sans-Serif" font-size="10.00">configuration/configuration.h</text>
</a>
</g>
</g>
<!-- Node1&#45;&gt;Node4 -->
<g id="edge3" class="edge">
<title>Node1&#45;&gt;Node4</title>
<path fill="none" stroke="#63b8ff" d="M396.66,-431.98C371.43,-422.83 341.91,-409.85 318.28,-393 247.35,-342.4 185.34,-256.89 160.65,-220.37"/>
<polygon fill="#63b8ff" stroke="#63b8ff" points="163.41,-218.2 154.95,-211.82 157.58,-222.08 163.41,-218.2"/>
</g>
<!-- Node7 -->
<g id="node7" class="node">
<title>Node7</title>
<g id="a_node7"><a xlink:title=" ">
<polygon fill="#e0e0e0" stroke="#999999" points="202.78,-79.5 101.78,-79.5 101.78,-60.5 202.78,-60.5 202.78,-79.5"/>
<text text-anchor="middle" x="152.28" y="-67.5" font-family="Helvetica,sans-Serif" font-size="10.00">flutter/fml/macros.h</text>
</a>
</g>
</g>
<!-- Node1&#45;&gt;Node7 -->
<g id="edge8" class="edge">
<title>Node1&#45;&gt;Node7</title>
<path fill="none" stroke="#63b8ff" d="M396.55,-444.91C276.63,-435.53 1.28,-405.16 1.28,-324 1.28,-324 1.28,-324 1.28,-201 1.28,-164.46 -3.84,-148.45 20.28,-121 38.49,-100.28 66.2,-88.11 91.54,-80.99"/>
<polygon fill="#63b8ff" stroke="#63b8ff" points="92.68,-84.31 101.48,-78.41 90.92,-77.53 92.68,-84.31"/>
</g>
<!-- Node9 -->
<g id="node9" class="node">
<title>Node9</title>
<g id="a_node9"><a xlink:href="window_8h.html" target="_top" xlink:title=" ">
<polygon fill="white" stroke="#666666" points="1317.28,-393 1221.28,-393 1221.28,-374 1317.28,-374 1317.28,-393"/>
<text text-anchor="middle" x="1269.28" y="-381" font-family="Helvetica,sans-Serif" font-size="10.00">wayland/window.h</text>
</a>
</g>
</g>
<!-- Node1&#45;&gt;Node9 -->
<g id="edge9" class="edge">
<title>Node1&#45;&gt;Node9</title>
<path fill="none" stroke="#63b8ff" d="M505.9,-444.23C653.48,-432.68 1059.25,-400.93 1211,-389.06"/>
<polygon fill="#63b8ff" stroke="#63b8ff" points="1211.35,-392.54 1221.05,-388.27 1210.81,-385.56 1211.35,-392.54"/>
</g>
<!-- Node5 -->
<g id="node5" class="node">
<title>Node5</title>
<g id="a_node5"><a xlink:title=" ">
<polygon fill="#e0e0e0" stroke="#999999" points="1025.78,-145.5 984.78,-145.5 984.78,-126.5 1025.78,-126.5 1025.78,-145.5"/>
<text text-anchor="middle" x="1005.28" y="-133.5" font-family="Helvetica,sans-Serif" font-size="10.00">string</text>
</a>
</g>
</g>
<!-- Node4&#45;&gt;Node5 -->
<g id="edge4" class="edge">
<title>Node4&#45;&gt;Node5</title>
<path fill="none" stroke="#63b8ff" d="M191.78,-192.47C203.56,-190.37 216.38,-188.35 228.28,-187 541.78,-151.4 624.3,-190.93 937.28,-151 949.55,-149.44 962.9,-146.88 974.51,-144.37"/>
<polygon fill="#63b8ff" stroke="#63b8ff" points="975.59,-147.71 984.59,-142.12 974.06,-140.88 975.59,-147.71"/>
</g>
<!-- Node6 -->
<g id="node6" class="node">
<title>Node6</title>
<g id="a_node6"><a xlink:title=" ">
<polygon fill="#e0e0e0" stroke="#999999" points="73.28,-145.5 29.28,-145.5 29.28,-126.5 73.28,-126.5 73.28,-145.5"/>
<text text-anchor="middle" x="51.28" y="-133.5" font-family="Helvetica,sans-Serif" font-size="10.00">vector</text>
</a>
</g>
</g>
<!-- Node4&#45;&gt;Node6 -->
<g id="edge5" class="edge">
<title>Node4&#45;&gt;Node6</title>
<path fill="none" stroke="#63b8ff" d="M136.06,-192.37C119.92,-181.82 92.37,-163.84 73.07,-151.23"/>
<polygon fill="#63b8ff" stroke="#63b8ff" points="74.89,-148.24 64.6,-145.7 71.06,-154.1 74.89,-148.24"/>
</g>
<!-- Node4&#45;&gt;Node7 -->
<g id="edge6" class="edge">
<title>Node4&#45;&gt;Node7</title>
<path fill="none" stroke="#63b8ff" d="M143.57,-192.23C137.65,-182.59 128.78,-166.4 125.28,-151 122.32,-138 122.01,-133.93 125.28,-121 128.22,-109.36 134.47,-97.48 140.22,-88.23"/>
<polygon fill="#63b8ff" stroke="#63b8ff" points="143.29,-89.93 145.86,-79.65 137.44,-86.08 143.29,-89.93"/>
</g>
<!-- Node8 -->
<g id="node8" class="node">
<title>Node8</title>
<g id="a_node8"><a xlink:title=" ">
<polygon fill="#e0e0e0" stroke="#999999" points="485.28,-145.5 375.28,-145.5 375.28,-126.5 485.28,-126.5 485.28,-145.5"/>
<text text-anchor="middle" x="430.28" y="-133.5" font-family="Helvetica,sans-Serif" font-size="10.00">rapidjson/document.h</text>
</a>
</g>
</g>
<!-- Node4&#45;&gt;Node8 -->
<g id="edge7" class="edge">
<title>Node4&#45;&gt;Node8</title>
<path fill="none" stroke="#63b8ff" d="M186.89,-192.44C237.57,-180.89 327.8,-160.34 383.01,-147.77"/>
<polygon fill="#63b8ff" stroke="#63b8ff" points="383.92,-151.15 392.9,-145.51 382.37,-144.32 383.92,-151.15"/>
</g>
<!-- Node9&#45;&gt;Node3 -->
<g id="edge10" class="edge">
<title>Node9&#45;&gt;Node3</title>
<path fill="none" stroke="#63b8ff" d="M1221.07,-378.57C1149.43,-372.33 1010.8,-358.69 894.28,-338 665.34,-297.34 576.51,-349.29 385.28,-217 362.83,-201.47 347.08,-173.3 338.6,-154.87"/>
<polygon fill="#63b8ff" stroke="#63b8ff" points="341.74,-153.32 334.54,-145.55 335.32,-156.12 341.74,-153.32"/>
</g>
<!-- Node9&#45;&gt;Node5 -->
<g id="edge11" class="edge">
<title>Node9&#45;&gt;Node5</title>
<path fill="none" stroke="#63b8ff" d="M1276.43,-373.97C1283.05,-365.48 1292.44,-351.75 1296.28,-338 1309.06,-292.32 1302.03,-211.55 1277.28,-187 1238.68,-148.71 1087.35,-166.66 1035.28,-151 1033.84,-150.57 1032.37,-150.07 1030.91,-149.54"/>
<polygon fill="#63b8ff" stroke="#63b8ff" points="1032.03,-146.21 1021.45,-145.58 1029.33,-152.67 1032.03,-146.21"/>
</g>
<!-- Node10 -->
<g id="node10" class="node">
<title>Node10</title>
<g id="a_node10"><a xlink:title=" ">
<polygon fill="#e0e0e0" stroke="#999999" points="1392.78,-332.5 1343.78,-332.5 1343.78,-313.5 1392.78,-313.5 1392.78,-332.5"/>
<text text-anchor="middle" x="1368.28" y="-320.5" font-family="Helvetica,sans-Serif" font-size="10.00">cassert</text>
</a>
</g>
</g>
<!-- Node9&#45;&gt;Node10 -->
<g id="edge12" class="edge">
<title>Node9&#45;&gt;Node10</title>
<path fill="none" stroke="#63b8ff" d="M1283.89,-373.87C1299.97,-364.36 1326.06,-348.95 1344.98,-337.77"/>
<polygon fill="#63b8ff" stroke="#63b8ff" points="1346.78,-340.77 1353.61,-332.67 1343.22,-334.74 1346.78,-340.77"/>
</g>
<!-- Node11 -->
<g id="node11" class="node">
<title>Node11</title>
<g id="a_node11"><a xlink:title=" ">
<polygon fill="#e0e0e0" stroke="#999999" points="1535.78,-332.5 1410.78,-332.5 1410.78,-313.5 1535.78,-313.5 1535.78,-332.5"/>
<text text-anchor="middle" x="1473.28" y="-320.5" font-family="Helvetica,sans-Serif" font-size="10.00">agl&#45;shell&#45;client&#45;protocol.h</text>
</a>
</g>
</g>
<!-- Node9&#45;&gt;Node11 -->
<g id="edge13" class="edge">
<title>Node9&#45;&gt;Node11</title>
<path fill="none" stroke="#63b8ff" d="M1298.94,-373.99C1334.52,-363.79 1394.3,-346.65 1433.77,-335.33"/>
<polygon fill="#63b8ff" stroke="#63b8ff" points="1434.93,-338.64 1443.58,-332.52 1433,-331.91 1434.93,-338.64"/>
</g>
<!-- Node12 -->
<g id="node12" class="node">
<title>Node12</title>
<g id="a_node12"><a xlink:href="constants_8h.html" target="_top" xlink:title=" ">
<polygon fill="white" stroke="#666666" points="2167.28,-145.5 2099.28,-145.5 2099.28,-126.5 2167.28,-126.5 2167.28,-145.5"/>
<text text-anchor="middle" x="2133.28" y="-133.5" font-family="Helvetica,sans-Serif" font-size="10.00">constants.h</text>
</a>
</g>
</g>
<!-- Node9&#45;&gt;Node12 -->
<g id="edge14" class="edge">
<title>Node9&#45;&gt;Node12</title>
<path fill="none" stroke="#63b8ff" d="M1317.4,-381.44C1474.46,-377.19 1969.47,-357.17 2100.28,-272 2124.56,-256.19 2127.18,-244.82 2135.28,-217 2139.01,-204.2 2135.55,-200.33 2135.28,-187 2135.08,-176.75 2134.63,-165.32 2134.22,-155.99"/>
<polygon fill="#63b8ff" stroke="#63b8ff" points="2137.71,-155.67 2133.74,-145.85 2130.72,-156 2137.71,-155.67"/>
</g>
<!-- Node16 -->
<g id="node16" class="node">
<title>Node16</title>
<g id="a_node16"><a xlink:href="backend_8h.html" target="_top" xlink:title=" ">
<polygon fill="white" stroke="#666666" points="1654.78,-332.5 1553.78,-332.5 1553.78,-313.5 1654.78,-313.5 1654.78,-332.5"/>
<text text-anchor="middle" x="1604.28" y="-320.5" font-family="Helvetica,sans-Serif" font-size="10.00">backend/backend.h</text>
</a>
</g>
</g>
<!-- Node9&#45;&gt;Node16 -->
<g id="edge18" class="edge">
<title>Node9&#45;&gt;Node16</title>
<path fill="none" stroke="#63b8ff" d="M1317.34,-375.84C1372.55,-367.94 1465.78,-353.82 1545.28,-338 1550.06,-337.05 1555.05,-335.98 1560,-334.88"/>
<polygon fill="#63b8ff" stroke="#63b8ff" points="1561.09,-338.22 1570.06,-332.57 1559.53,-331.39 1561.09,-338.22"/>
</g>
<!-- Node40 -->
<g id="node40" class="node">
<title>Node40</title>
<g id="a_node40"><a xlink:title=" ">
<polygon fill="#e0e0e0" stroke="#999999" points="1005.28,-338 903.28,-338 903.28,-308 1005.28,-308 1005.28,-338"/>
<text text-anchor="start" x="911.28" y="-326" font-family="Helvetica,sans-Serif" font-size="10.00">ivi&#45;application&#45;client</text>
<text text-anchor="middle" x="954.28" y="-315" font-family="Helvetica,sans-Serif" font-size="10.00">&#45;protocol.h</text>
</a>
</g>
</g>
<!-- Node9&#45;&gt;Node40 -->
<g id="edge74" class="edge">
<title>Node9&#45;&gt;Node40</title>
<path fill="none" stroke="#63b8ff" d="M1220.92,-374.8C1171.81,-366.8 1093.35,-353.56 1015.48,-337.97"/>
<polygon fill="#63b8ff" stroke="#63b8ff" points="1015.99,-334.5 1005.49,-335.96 1014.6,-341.36 1015.99,-334.5"/>
</g>
<!-- Node41 -->
<g id="node41" class="node">
<title>Node41</title>
<g id="a_node41"><a xlink:title=" ">
<polygon fill="#e0e0e0" stroke="#999999" points="1140.78,-332.5 1023.78,-332.5 1023.78,-313.5 1140.78,-313.5 1140.78,-332.5"/>
<text text-anchor="middle" x="1082.28" y="-320.5" font-family="Helvetica,sans-Serif" font-size="10.00">ivi&#45;wm&#45;client&#45;protocol.h</text>
</a>
</g>
</g>
<!-- Node9&#45;&gt;Node41 -->
<g id="edge75" class="edge">
<title>Node9&#45;&gt;Node41</title>
<path fill="none" stroke="#63b8ff" d="M1242.09,-373.99C1209.68,-363.86 1155.38,-346.87 1119.2,-335.55"/>
<polygon fill="#63b8ff" stroke="#63b8ff" points="1120.09,-332.16 1109.5,-332.52 1118,-338.84 1120.09,-332.16"/>
</g>
<!-- Node42 -->
<g id="node42" class="node">
<title>Node42</title>
<g id="a_node42"><a xlink:title=" ">
<polygon fill="#e0e0e0" stroke="#999999" points="1287.28,-332.5 1159.28,-332.5 1159.28,-313.5 1287.28,-313.5 1287.28,-332.5"/>
<text text-anchor="middle" x="1223.28" y="-320.5" font-family="Helvetica,sans-Serif" font-size="10.00">xdg&#45;shell&#45;client&#45;protocol.h</text>
</a>
</g>
</g>
<!-- Node9&#45;&gt;Node42 -->
<g id="edge76" class="edge">
<title>Node9&#45;&gt;Node42</title>
<path fill="none" stroke="#63b8ff" d="M1262.49,-373.87C1255.63,-365.14 1244.85,-351.43 1236.33,-340.59"/>
<polygon fill="#63b8ff" stroke="#63b8ff" points="1239.03,-338.36 1230.1,-332.67 1233.53,-342.69 1239.03,-338.36"/>
</g>
<!-- Node13 -->
<g id="node13" class="node">
<title>Node13</title>
<g id="a_node13"><a xlink:title=" ">
<polygon fill="#e0e0e0" stroke="#999999" points="2234.28,-79.5 2174.28,-79.5 2174.28,-60.5 2234.28,-60.5 2234.28,-79.5"/>
<text text-anchor="middle" x="2204.28" y="-67.5" font-family="Helvetica,sans-Serif" font-size="10.00">EGL/egl.h</text>
</a>
</g>
</g>
<!-- Node12&#45;&gt;Node13 -->
<g id="edge15" class="edge">
<title>Node12&#45;&gt;Node13</title>
<path fill="none" stroke="#63b8ff" d="M2142.86,-126.37C2154.12,-116.21 2173.04,-99.16 2186.91,-86.65"/>
<polygon fill="#63b8ff" stroke="#63b8ff" points="2189.32,-89.2 2194.4,-79.91 2184.63,-84 2189.32,-89.2"/>
</g>
<!-- Node14 -->
<g id="node14" class="node">
<title>Node14</title>
<g id="a_node14"><a xlink:title=" ">
<polygon fill="#e0e0e0" stroke="#999999" points="1773.78,-85 1652.78,-85 1652.78,-55 1773.78,-55 1773.78,-85"/>
<text text-anchor="start" x="1660.78" y="-73" font-family="Helvetica,sans-Serif" font-size="10.00">shell/platform/embedder</text>
<text text-anchor="middle" x="1713.28" y="-62" font-family="Helvetica,sans-Serif" font-size="10.00">/embedder.h</text>
</a>
</g>
</g>
<!-- Node12&#45;&gt;Node14 -->
<g id="edge16" class="edge">
<title>Node12&#45;&gt;Node14</title>
<path fill="none" stroke="#63b8ff" d="M2106.55,-126.43C2099.67,-124.44 2092.24,-122.47 2085.28,-121 1981.62,-99.05 1859.57,-84.81 1784.3,-77.34"/>
<polygon fill="#63b8ff" stroke="#63b8ff" points="1784.29,-73.83 1774,-76.33 1783.61,-80.79 1784.29,-73.83"/>
</g>
<!-- Node15 -->
<g id="node15" class="node">
<title>Node15</title>
<g id="a_node15"><a xlink:title=" ">
<polygon fill="#e0e0e0" stroke="#999999" points="2152.28,-79.5 2114.28,-79.5 2114.28,-60.5 2152.28,-60.5 2152.28,-79.5"/>
<text text-anchor="middle" x="2133.28" y="-67.5" font-family="Helvetica,sans-Serif" font-size="10.00">array</text>
</a>
</g>
</g>
<!-- Node12&#45;&gt;Node15 -->
<g id="edge17" class="edge">
<title>Node12&#45;&gt;Node15</title>
<path fill="none" stroke="#63b8ff" d="M2133.28,-126.37C2133.28,-117.16 2133.28,-102.29 2133.28,-90.27"/>
<polygon fill="#63b8ff" stroke="#63b8ff" points="2136.78,-89.91 2133.28,-79.91 2129.78,-89.91 2136.78,-89.91"/>
</g>
<!-- Node16&#45;&gt;Node12 -->
<g id="edge20" class="edge">
<title>Node16&#45;&gt;Node12</title>
<path fill="none" stroke="#63b8ff" d="M1655.05,-319.57C1770.43,-313.64 2044.96,-297.04 2078.28,-272 2115.77,-243.82 2127.81,-185.69 2131.59,-155.74"/>
<polygon fill="#63b8ff" stroke="#63b8ff" points="2135.08,-156.09 2132.68,-145.77 2128.12,-155.33 2135.08,-156.09"/>
</g>
<!-- Node16&#45;&gt;Node14 -->
<g id="edge19" class="edge">
<title>Node16&#45;&gt;Node14</title>
<path fill="none" stroke="#63b8ff" d="M1654.89,-319.09C1748.13,-310.68 1945.35,-277.98 2031.28,-151 2038.75,-139.96 2039.95,-131.13 2031.28,-121 2000.12,-84.56 1867.86,-74.5 1784.03,-71.84"/>
<polygon fill="#63b8ff" stroke="#63b8ff" points="1783.9,-68.33 1773.81,-71.54 1783.7,-75.33 1783.9,-68.33"/>
</g>
<!-- Node17 -->
<g id="node17" class="node">
<title>Node17</title>
<g id="a_node17"><a xlink:href="engine_8h.html" target="_top" xlink:title=" ">
<polygon fill="white" stroke="#666666" points="1066.78,-272 1013.78,-272 1013.78,-253 1066.78,-253 1066.78,-272"/>
<text text-anchor="middle" x="1040.28" y="-260" font-family="Helvetica,sans-Serif" font-size="10.00">engine.h</text>
</a>
</g>
</g>
<!-- Node16&#45;&gt;Node17 -->
<g id="edge21" class="edge">
<title>Node16&#45;&gt;Node17</title>
<path fill="none" stroke="#63b8ff" d="M1563.31,-313.45C1554.36,-311.41 1545.01,-309.41 1536.28,-308 1365.65,-280.39 1159.61,-268.95 1076.98,-265.12"/>
<polygon fill="#63b8ff" stroke="#63b8ff" points="1076.99,-261.62 1066.84,-264.66 1076.67,-268.61 1076.99,-261.62"/>
</g>
<!-- Node17&#45;&gt;Node1 -->
<g id="edge73" class="edge">
<title>Node17&#45;&gt;Node1</title>
<path fill="none" stroke="#63b8ff" d="M1013.61,-271.53C984.32,-280.37 935.9,-295.06 894.28,-308 759.45,-349.93 601.93,-400.19 515.76,-427.8"/>
<polygon fill="#63b8ff" stroke="#63b8ff" points="514.58,-424.5 506.12,-430.89 516.71,-431.17 514.58,-424.5"/>
</g>
<!-- Node17&#45;&gt;Node2 -->
<g id="edge28" class="edge">
<title>Node17&#45;&gt;Node2</title>
<path fill="none" stroke="#63b8ff" d="M1060.8,-253C1075.3,-245.77 1093.63,-233.86 1102.28,-217 1108.37,-205.14 1110.61,-197.41 1102.28,-187 1056.75,-130.08 1011.54,-173.71 942.28,-151 940.66,-150.47 939,-149.88 937.34,-149.26"/>
<polygon fill="#63b8ff" stroke="#63b8ff" points="938.57,-145.98 927.99,-145.46 935.93,-152.47 938.57,-145.98"/>
</g>
<!-- Node17&#45;&gt;Node3 -->
<g id="edge29" class="edge">
<title>Node17&#45;&gt;Node3</title>
<path fill="none" stroke="#63b8ff" d="M1013.48,-261.69C910,-262.12 536.93,-260.54 428.28,-217 410.23,-209.77 370.34,-173.87 347.74,-152.7"/>
<polygon fill="#63b8ff" stroke="#63b8ff" points="349.94,-149.96 340.27,-145.64 345.14,-155.05 349.94,-149.96"/>
</g>
<!-- Node17&#45;&gt;Node5 -->
<g id="edge32" class="edge">
<title>Node17&#45;&gt;Node5</title>
<path fill="none" stroke="#63b8ff" d="M1067.08,-261.28C1136.29,-259.84 1311.96,-250.04 1258.28,-187 1225.74,-148.78 1083.26,-165.75 1035.28,-151 1033.84,-150.56 1032.38,-150.06 1030.91,-149.52"/>
<polygon fill="#63b8ff" stroke="#63b8ff" points="1032.04,-146.19 1021.46,-145.55 1029.32,-152.65 1032.04,-146.19"/>
</g>
<!-- Node17&#45;&gt;Node6 -->
<g id="edge33" class="edge">
<title>Node17&#45;&gt;Node6</title>
<path fill="none" stroke="#63b8ff" d="M1013.45,-261.17C860.84,-259.2 107.61,-247.92 70.28,-217 52.62,-202.37 49.64,-174.6 49.87,-155.94"/>
<polygon fill="#63b8ff" stroke="#63b8ff" points="53.38,-155.84 50.33,-145.7 46.39,-155.53 53.38,-155.84"/>
</g>
<!-- Node17&#45;&gt;Node12 -->
<g id="edge35" class="edge">
<title>Node17&#45;&gt;Node12</title>
<path fill="none" stroke="#63b8ff" d="M1067.23,-261.35C1217.41,-260.37 1947.59,-253.75 2040.28,-217 2073.93,-203.66 2103.89,-172.77 2120.23,-153.51"/>
<polygon fill="#63b8ff" stroke="#63b8ff" points="2123.1,-155.54 2126.74,-145.59 2117.69,-151.09 2123.1,-155.54"/>
</g>
<!-- Node17&#45;&gt;Node13 -->
<g id="edge23" class="edge">
<title>Node17&#45;&gt;Node13</title>
<path fill="none" stroke="#63b8ff" d="M1067.12,-261.2C1220.03,-259.4 1977.8,-248.89 2076.28,-217 2126.94,-200.6 2143.55,-193 2176.28,-151 2190.45,-132.82 2197.77,-106.92 2201.31,-89.57"/>
<polygon fill="#63b8ff" stroke="#63b8ff" points="2204.78,-90.03 2203.12,-79.57 2197.89,-88.78 2204.78,-90.03"/>
</g>
<!-- Node17&#45;&gt;Node14 -->
<g id="edge26" class="edge">
<title>Node17&#45;&gt;Node14</title>
<path fill="none" stroke="#63b8ff" d="M1066.85,-260.56C1216.46,-254.98 1949.3,-224.02 2014.28,-151 2023.14,-141.04 2022.9,-131.17 2014.28,-121 1985.39,-86.92 1863.9,-76.04 1784.37,-72.59"/>
<polygon fill="#63b8ff" stroke="#63b8ff" points="1784.06,-69.07 1773.93,-72.17 1783.78,-76.07 1784.06,-69.07"/>
</g>
<!-- Node17&#45;&gt;Node16 -->
<g id="edge34" class="edge">
<title>Node17&#45;&gt;Node16</title>
<path fill="none" stroke="#63b8ff" d="M1066.93,-264.33C1143.58,-267.18 1369.65,-278.12 1554.28,-308 1559.6,-308.86 1565.15,-309.94 1570.56,-311.11"/>
<polygon fill="#63b8ff" stroke="#63b8ff" points="1570.14,-314.6 1580.67,-313.45 1571.72,-307.78 1570.14,-314.6"/>
</g>
<!-- Node18 -->
<g id="node18" class="node">
<title>Node18</title>
<g id="a_node18"><a xlink:title=" ">
<polygon fill="#e0e0e0" stroke="#999999" points="654.78,-211.5 595.78,-211.5 595.78,-192.5 654.78,-192.5 654.78,-211.5"/>
<text text-anchor="middle" x="625.28" y="-199.5" font-family="Helvetica,sans-Serif" font-size="10.00">functional</text>
</a>
</g>
</g>
<!-- Node17&#45;&gt;Node18 -->
<g id="edge22" class="edge">
<title>Node17&#45;&gt;Node18</title>
<path fill="none" stroke="#63b8ff" d="M1013.48,-260.41C951.33,-257.44 792.89,-247.28 664.28,-217 661.62,-216.37 658.88,-215.62 656.16,-214.8"/>
<polygon fill="#63b8ff" stroke="#63b8ff" points="657.07,-211.41 646.47,-211.59 654.87,-218.06 657.07,-211.41"/>
</g>
<!-- Node19 -->
<g id="node19" class="node">
<title>Node19</title>
<g id="a_node19"><a xlink:title=" ">
<polygon fill="#e0e0e0" stroke="#999999" points="745.28,-211.5 673.28,-211.5 673.28,-192.5 745.28,-192.5 745.28,-211.5"/>
<text text-anchor="middle" x="709.28" y="-199.5" font-family="Helvetica,sans-Serif" font-size="10.00">GLES2/gl2.h</text>
</a>
</g>
</g>
<!-- Node17&#45;&gt;Node19 -->
<g id="edge24" class="edge">
<title>Node17&#45;&gt;Node19</title>
<path fill="none" stroke="#63b8ff" d="M1013.72,-258.62C963.05,-252.84 849.25,-238.52 755.28,-217 751.92,-216.23 748.46,-215.35 745,-214.4"/>
<polygon fill="#63b8ff" stroke="#63b8ff" points="745.96,-211.04 735.38,-211.64 744.02,-217.77 745.96,-211.04"/>
</g>
<!-- Node20 -->
<g id="node20" class="node">
<title>Node20</title>
<g id="a_node20"><a xlink:title=" ">
<polygon fill="#e0e0e0" stroke="#999999" points="888.78,-211.5 763.78,-211.5 763.78,-192.5 888.78,-192.5 888.78,-211.5"/>
<text text-anchor="middle" x="826.28" y="-199.5" font-family="Helvetica,sans-Serif" font-size="10.00">flutter/encodable_value.h</text>
</a>
</g>
</g>
<!-- Node17&#45;&gt;Node20 -->
<g id="edge25" class="edge">
<title>Node17&#45;&gt;Node20</title>
<path fill="none" stroke="#63b8ff" d="M1013.61,-254.21C976.89,-244.17 910.43,-226 867.34,-214.22"/>
<polygon fill="#63b8ff" stroke="#63b8ff" points="868.03,-210.78 857.46,-211.52 866.18,-217.54 868.03,-210.78"/>
</g>
<!-- Node21 -->
<g id="node21" class="node">
<title>Node21</title>
<g id="a_node21"><a xlink:title=" ">
<polygon fill="#e0e0e0" stroke="#999999" points="969.28,-211.5 907.28,-211.5 907.28,-192.5 969.28,-192.5 969.28,-211.5"/>
<text text-anchor="middle" x="938.28" y="-199.5" font-family="Helvetica,sans-Serif" font-size="10.00">filesystem</text>
</a>
</g>
</g>
<!-- Node17&#45;&gt;Node21 -->
<g id="edge27" class="edge">
<title>Node17&#45;&gt;Node21</title>
<path fill="none" stroke="#63b8ff" d="M1025.23,-252.87C1008.66,-243.36 981.78,-227.95 962.29,-216.77"/>
<polygon fill="#63b8ff" stroke="#63b8ff" points="963.81,-213.61 953.39,-211.67 960.33,-219.68 963.81,-213.61"/>
</g>
<!-- Node22 -->
<g id="node22" class="node">
<title>Node22</title>
<g id="a_node22"><a xlink:title=" ">
<polygon fill="#e0e0e0" stroke="#999999" points="1031.28,-211.5 987.28,-211.5 987.28,-192.5 1031.28,-192.5 1031.28,-211.5"/>
<text text-anchor="middle" x="1009.28" y="-199.5" font-family="Helvetica,sans-Serif" font-size="10.00">mutex</text>
</a>
</g>
</g>
<!-- Node17&#45;&gt;Node22 -->
<g id="edge30" class="edge">
<title>Node17&#45;&gt;Node22</title>
<path fill="none" stroke="#63b8ff" d="M1035.71,-252.87C1031.22,-244.4 1024.25,-231.24 1018.59,-220.57"/>
<polygon fill="#63b8ff" stroke="#63b8ff" points="1021.65,-218.86 1013.87,-211.67 1015.46,-222.14 1021.65,-218.86"/>
</g>
<!-- Node23 -->
<g id="node23" class="node">
<title>Node23</title>
<g id="a_node23"><a xlink:title=" ">
<polygon fill="#e0e0e0" stroke="#999999" points="1092.78,-211.5 1049.78,-211.5 1049.78,-192.5 1092.78,-192.5 1092.78,-211.5"/>
<text text-anchor="middle" x="1071.28" y="-199.5" font-family="Helvetica,sans-Serif" font-size="10.00">queue</text>
</a>
</g>
</g>
<!-- Node17&#45;&gt;Node23 -->
<g id="edge31" class="edge">
<title>Node17&#45;&gt;Node23</title>
<path fill="none" stroke="#63b8ff" d="M1044.85,-252.87C1049.34,-244.4 1056.32,-231.24 1061.97,-220.57"/>
<polygon fill="#63b8ff" stroke="#63b8ff" points="1065.1,-222.14 1066.69,-211.67 1058.91,-218.86 1065.1,-222.14"/>
</g>
<!-- Node24 -->
<g id="node24" class="node">
<title>Node24</title>
<g id="a_node24"><a xlink:href="logging_8h.html" target="_top" xlink:title=" ">
<polygon fill="white" stroke="#666666" points="293.28,-211.5 237.28,-211.5 237.28,-192.5 293.28,-192.5 293.28,-211.5"/>
<text text-anchor="middle" x="265.28" y="-199.5" font-family="Helvetica,sans-Serif" font-size="10.00">logging.h</text>
</a>
</g>
</g>
<!-- Node17&#45;&gt;Node24 -->
<g id="edge36" class="edge">
<title>Node17&#45;&gt;Node24</title>
<path fill="none" stroke="#63b8ff" d="M1013.53,-260.02C925.19,-255.07 634.83,-238.15 395.28,-217 364.38,-214.27 329.42,-210.47 303.54,-207.51"/>
<polygon fill="#63b8ff" stroke="#63b8ff" points="303.73,-204.01 293.4,-206.34 302.93,-210.96 303.73,-204.01"/>
</g>
<!-- Node29 -->
<g id="node29" class="node">
<title>Node29</title>
<g id="a_node29"><a xlink:href="platform__channel_8h.html" target="_top" xlink:title=" ">
<polygon fill="white" stroke="#666666" points="1248.78,-211.5 1149.78,-211.5 1149.78,-192.5 1248.78,-192.5 1248.78,-211.5"/>
<text text-anchor="middle" x="1199.28" y="-199.5" font-family="Helvetica,sans-Serif" font-size="10.00">platform_channel.h</text>
</a>
</g>
</g>
<!-- Node17&#45;&gt;Node29 -->
<g id="edge43" class="edge">
<title>Node17&#45;&gt;Node29</title>
<path fill="none" stroke="#63b8ff" d="M1063.4,-252.99C1090.6,-242.99 1135.95,-226.3 1166.7,-214.99"/>
<polygon fill="#63b8ff" stroke="#63b8ff" points="1167.96,-218.25 1176.13,-211.52 1165.54,-211.68 1167.96,-218.25"/>
</g>
<!-- Node30 -->
<g id="node30" class="node">
<title>Node30</title>
<g id="a_node30"><a xlink:href="key__event_8h.html" target="_top" xlink:title=" ">
<polygon fill="white" stroke="#666666" points="539.28,-217 437.28,-217 437.28,-187 539.28,-187 539.28,-217"/>
<text text-anchor="start" x="445.28" y="-205" font-family="Helvetica,sans-Serif" font-size="10.00">static_plugins/key</text>
<text text-anchor="middle" x="488.28" y="-194" font-family="Helvetica,sans-Serif" font-size="10.00">_event/key_event.h</text>
</a>
</g>
</g>
<!-- Node17&#45;&gt;Node30 -->
<g id="edge47" class="edge">
<title>Node17&#45;&gt;Node30</title>
<path fill="none" stroke="#63b8ff" d="M1013.69,-259.29C943.75,-253.38 748.92,-236.36 587.28,-217 574.97,-215.53 561.83,-213.78 549.27,-212.04"/>
<polygon fill="#63b8ff" stroke="#63b8ff" points="549.74,-208.57 539.35,-210.65 548.77,-215.5 549.74,-208.57"/>
</g>
<!-- Node35 -->
<g id="node35" class="node">
<title>Node35</title>
<g id="a_node35"><a xlink:href="text__input_8h.html" target="_top" xlink:title=" ">
<polygon fill="white" stroke="#666666" points="1440.78,-217 1343.78,-217 1343.78,-187 1440.78,-187 1440.78,-217"/>
<text text-anchor="start" x="1351.78" y="-205" font-family="Helvetica,sans-Serif" font-size="10.00">static_plugins/text</text>
<text text-anchor="middle" x="1392.28" y="-194" font-family="Helvetica,sans-Serif" font-size="10.00">_input/text_input.h</text>
</a>
</g>
</g>
<!-- Node17&#45;&gt;Node35 -->
<g id="edge59" class="edge">
<title>Node17&#45;&gt;Node35</title>
<path fill="none" stroke="#63b8ff" d="M1067.03,-257.05C1123.53,-247.66 1256.2,-225.62 1333.51,-212.77"/>
<polygon fill="#63b8ff" stroke="#63b8ff" points="1334.29,-216.19 1343.58,-211.09 1333.14,-209.28 1334.29,-216.19"/>
</g>
<!-- Node24&#45;&gt;Node7 -->
<g id="edge42" class="edge">
<title>Node24&#45;&gt;Node7</title>
<path fill="none" stroke="#63b8ff" d="M243.97,-192.4C214.29,-180.23 163.52,-158.59 158.28,-151 145.88,-133.04 146.41,-107.1 148.69,-89.67"/>
<polygon fill="#63b8ff" stroke="#63b8ff" points="152.17,-90.05 150.32,-79.62 145.27,-88.93 152.17,-90.05"/>
</g>
<!-- Node25 -->
<g id="node25" class="node">
<title>Node25</title>
<g id="a_node25"><a xlink:title=" ">
<polygon fill="#e0e0e0" stroke="#999999" points="219.28,-145.5 167.28,-145.5 167.28,-126.5 219.28,-126.5 219.28,-145.5"/>
<text text-anchor="middle" x="193.28" y="-133.5" font-family="Helvetica,sans-Serif" font-size="10.00">sstream</text>
</a>
</g>
</g>
<!-- Node24&#45;&gt;Node25 -->
<g id="edge37" class="edge">
<title>Node24&#45;&gt;Node25</title>
<path fill="none" stroke="#63b8ff" d="M255.57,-192.37C244.15,-182.21 224.96,-165.16 210.89,-152.65"/>
<polygon fill="#63b8ff" stroke="#63b8ff" points="213.1,-149.93 203.3,-145.91 208.45,-155.16 213.1,-149.93"/>
</g>
<!-- Node26 -->
<g id="node26" class="node">
<title>Node26</title>
<g id="a_node26"><a xlink:href="dlt_8h.html" target="_top" xlink:title=" ">
<polygon fill="white" stroke="#666666" points="286.78,-145.5 237.78,-145.5 237.78,-126.5 286.78,-126.5 286.78,-145.5"/>
<text text-anchor="middle" x="262.28" y="-133.5" font-family="Helvetica,sans-Serif" font-size="10.00">dlt/dlt.h</text>
</a>
</g>
</g>
<!-- Node24&#45;&gt;Node26 -->
<g id="edge38" class="edge">
<title>Node24&#45;&gt;Node26</title>
<path fill="none" stroke="#63b8ff" d="M264.88,-192.37C264.44,-183.07 263.73,-167.98 263.17,-155.9"/>
<polygon fill="#63b8ff" stroke="#63b8ff" points="266.66,-155.73 262.7,-145.91 259.67,-156.06 266.66,-155.73"/>
</g>
<!-- Node26&#45;&gt;Node7 -->
<g id="edge41" class="edge">
<title>Node26&#45;&gt;Node7</title>
<path fill="none" stroke="#63b8ff" d="M247.45,-126.37C229.16,-115.73 197.84,-97.51 176.15,-84.89"/>
<polygon fill="#63b8ff" stroke="#63b8ff" points="177.64,-81.7 167.23,-79.7 174.12,-87.75 177.64,-81.7"/>
</g>
<!-- Node27 -->
<g id="node27" class="node">
<title>Node27</title>
<g id="a_node27"><a xlink:href="libdlt_8h.html" target="_top" xlink:title=" ">
<polygon fill="white" stroke="#666666" points="291.78,-79.5 232.78,-79.5 232.78,-60.5 291.78,-60.5 291.78,-79.5"/>
<text text-anchor="middle" x="262.28" y="-67.5" font-family="Helvetica,sans-Serif" font-size="10.00">dlt/libdlt.h</text>
</a>
</g>
</g>
<!-- Node26&#45;&gt;Node27 -->
<g id="edge39" class="edge">
<title>Node26&#45;&gt;Node27</title>
<path fill="none" stroke="#63b8ff" d="M262.28,-126.37C262.28,-117.16 262.28,-102.29 262.28,-90.27"/>
<polygon fill="#63b8ff" stroke="#63b8ff" points="265.78,-89.91 262.28,-79.91 258.78,-89.91 265.78,-89.91"/>
</g>
<!-- Node28 -->
<g id="node28" class="node">
<title>Node28</title>
<g id="a_node28"><a xlink:title=" ">
<polygon fill="#e0e0e0" stroke="#999999" points="285.28,-19 239.28,-19 239.28,0 285.28,0 285.28,-19"/>
<text text-anchor="middle" x="262.28" y="-7" font-family="Helvetica,sans-Serif" font-size="10.00">cstdint</text>
</a>
</g>
</g>
<!-- Node27&#45;&gt;Node28 -->
<g id="edge40" class="edge">
<title>Node27&#45;&gt;Node28</title>
<path fill="none" stroke="#63b8ff" d="M262.28,-60.37C262.28,-52.25 262.28,-39.81 262.28,-29.39"/>
<polygon fill="#63b8ff" stroke="#63b8ff" points="265.78,-29.17 262.28,-19.17 258.78,-29.17 265.78,-29.17"/>
</g>
<!-- Node29&#45;&gt;Node2 -->
<g id="edge44" class="edge">
<title>Node29&#45;&gt;Node2</title>
<path fill="none" stroke="#63b8ff" d="M1161.08,-192.44C1152.6,-190.6 1143.64,-188.69 1135.28,-187 1049.76,-169.67 1025.68,-176.65 942.28,-151 940.65,-150.5 938.99,-149.94 937.32,-149.33"/>
<polygon fill="#63b8ff" stroke="#63b8ff" points="938.53,-146.05 927.95,-145.58 935.93,-152.55 938.53,-146.05"/>
</g>
<!-- Node29&#45;&gt;Node5 -->
<g id="edge45" class="edge">
<title>Node29&#45;&gt;Node5</title>
<path fill="none" stroke="#63b8ff" d="M1166.46,-192.46C1133.02,-183.42 1079.89,-168.11 1035.28,-151 1034.23,-150.6 1033.17,-150.18 1032.11,-149.74"/>
<polygon fill="#63b8ff" stroke="#63b8ff" points="1033.12,-146.36 1022.55,-145.56 1030.31,-152.78 1033.12,-146.36"/>
</g>
<!-- Node29&#45;&gt;Node14 -->
<g id="edge46" class="edge">
<title>Node29&#45;&gt;Node14</title>
<path fill="none" stroke="#63b8ff" d="M1154.78,-192.5C1091.35,-180.16 981.9,-158.02 976.28,-151 967.95,-140.59 967.18,-130.74 976.28,-121 1021.14,-73 1466.41,-69.81 1642.32,-70.44"/>
<polygon fill="#63b8ff" stroke="#63b8ff" points="1642.49,-73.94 1652.5,-70.49 1642.52,-66.94 1642.49,-73.94"/>
</g>
<!-- Node30&#45;&gt;Node2 -->
<g id="edge48" class="edge">
<title>Node30&#45;&gt;Node2</title>
<path fill="none" stroke="#63b8ff" d="M539.28,-189.5C544,-188.59 548.72,-187.74 553.28,-187 696.72,-163.67 737.89,-188.55 878.28,-151 880.17,-150.49 882.09,-149.89 884.01,-149.23"/>
<polygon fill="#63b8ff" stroke="#63b8ff" points="885.34,-152.47 893.35,-145.54 882.77,-145.96 885.34,-152.47"/>
</g>
<!-- Node30&#45;&gt;Node3 -->
<g id="edge49" class="edge">
<title>Node30&#45;&gt;Node3</title>
<path fill="none" stroke="#63b8ff" d="M453.83,-186.95C426.29,-175.73 388.07,-160.15 361.67,-149.39"/>
<polygon fill="#63b8ff" stroke="#63b8ff" points="362.76,-146.05 352.17,-145.52 360.11,-152.53 362.76,-146.05"/>
</g>
<!-- Node30&#45;&gt;Node5 -->
<g id="edge50" class="edge">
<title>Node30&#45;&gt;Node5</title>
<path fill="none" stroke="#63b8ff" d="M539.36,-193.4C554.75,-191.21 571.69,-188.9 587.28,-187 742.5,-168.05 782.73,-174.8 937.28,-151 949.5,-149.12 962.85,-146.5 974.46,-144.03"/>
<polygon fill="#63b8ff" stroke="#63b8ff" points="975.52,-147.38 984.55,-141.83 974.03,-140.54 975.52,-147.38"/>
</g>
<!-- Node30&#45;&gt;Node7 -->
<g id="edge54" class="edge">
<title>Node30&#45;&gt;Node7</title>
<path fill="none" stroke="#63b8ff" d="M494.77,-186.94C501.84,-169.29 510.16,-139.13 494.28,-121 454.25,-75.3 283.22,-94.88 223.28,-85 216.7,-83.92 209.8,-82.68 202.99,-81.4"/>
<polygon fill="#63b8ff" stroke="#63b8ff" points="203.61,-77.95 193.13,-79.51 202.29,-84.83 203.61,-77.95"/>
</g>
<!-- Node30&#45;&gt;Node8 -->
<g id="edge55" class="edge">
<title>Node30&#45;&gt;Node8</title>
<path fill="none" stroke="#63b8ff" d="M475.41,-186.8C466.46,-176.92 454.49,-163.72 445.14,-153.39"/>
<polygon fill="#63b8ff" stroke="#63b8ff" points="447.6,-150.9 438.3,-145.84 442.42,-155.6 447.6,-150.9"/>
</g>
<!-- Node30&#45;&gt;Node12 -->
<g id="edge58" class="edge">
<title>Node30&#45;&gt;Node12</title>
<path fill="none" stroke="#63b8ff" d="M539.28,-192.64C554.67,-190.43 571.63,-188.3 587.28,-187 1219.53,-134.5 1381.46,-196.11 2014.28,-151 2039.09,-149.23 2066.68,-146.06 2089.05,-143.18"/>
<polygon fill="#63b8ff" stroke="#63b8ff" points="2089.79,-146.62 2099.25,-141.85 2088.88,-139.68 2089.79,-146.62"/>
</g>
<!-- Node30&#45;&gt;Node14 -->
<g id="edge56" class="edge">
<title>Node30&#45;&gt;Node14</title>
<path fill="none" stroke="#63b8ff" d="M539.29,-189.56C544.01,-188.64 548.73,-187.77 553.28,-187 682.21,-165.21 724.3,-200.61 845.28,-151 865.51,-142.7 863.8,-128.66 884.28,-121 954.31,-94.8 1455.15,-78.23 1642.65,-72.89"/>
<polygon fill="#63b8ff" stroke="#63b8ff" points="1642.78,-76.38 1652.68,-72.6 1642.59,-69.39 1642.78,-76.38"/>
</g>
<!-- Node31 -->
<g id="node31" class="node">
<title>Node31</title>
<g id="a_node31"><a xlink:title=" ">
<polygon fill="#e0e0e0" stroke="#999999" points="654.78,-151 541.78,-151 541.78,-121 654.78,-121 654.78,-151"/>
<text text-anchor="start" x="549.78" y="-139" font-family="Helvetica,sans-Serif" font-size="10.00">flutter/basic_message</text>
<text text-anchor="middle" x="598.28" y="-128" font-family="Helvetica,sans-Serif" font-size="10.00">_channel.h</text>
</a>
</g>
</g>
<!-- Node30&#45;&gt;Node31 -->
<g id="edge51" class="edge">
<title>Node30&#45;&gt;Node31</title>
<path fill="none" stroke="#63b8ff" d="M512.42,-186.95C527.9,-177.95 548.19,-166.14 565.16,-156.27"/>
<polygon fill="#63b8ff" stroke="#63b8ff" points="567.31,-159.07 574.2,-151.01 563.79,-153.02 567.31,-159.07"/>
</g>
<!-- Node32 -->
<g id="node32" class="node">
<title>Node32</title>
<g id="a_node32"><a xlink:title=" ">
<polygon fill="#e0e0e0" stroke="#999999" points="1176.28,-145.5 1044.28,-145.5 1044.28,-126.5 1176.28,-126.5 1176.28,-145.5"/>
<text text-anchor="middle" x="1110.28" y="-133.5" font-family="Helvetica,sans-Serif" font-size="10.00">flutter/binary_messenger.h</text>
</a>
</g>
</g>
<!-- Node30&#45;&gt;Node32 -->
<g id="edge52" class="edge">
<title>Node30&#45;&gt;Node32</title>
<path fill="none" stroke="#63b8ff" d="M539.33,-193.18C554.72,-190.99 571.67,-188.73 587.28,-187 785.82,-165.01 837.28,-177.36 1035.28,-151 1042.94,-149.98 1051.01,-148.7 1058.9,-147.32"/>
<polygon fill="#63b8ff" stroke="#63b8ff" points="1059.53,-150.77 1068.75,-145.55 1058.29,-143.88 1059.53,-150.77"/>
</g>
<!-- Node33 -->
<g id="node33" class="node">
<title>Node33</title>
<g id="a_node33"><a xlink:title=" ">
<polygon fill="#e0e0e0" stroke="#999999" points="835.78,-151 672.78,-151 672.78,-121 835.78,-121 835.78,-151"/>
<text text-anchor="start" x="680.78" y="-139" font-family="Helvetica,sans-Serif" font-size="10.00">flutter/shell/platform</text>
<text text-anchor="middle" x="754.28" y="-128" font-family="Helvetica,sans-Serif" font-size="10.00">/common/json_message_codec.h</text>
</a>
</g>
</g>
<!-- Node30&#45;&gt;Node33 -->
<g id="edge53" class="edge">
<title>Node30&#45;&gt;Node33</title>
<path fill="none" stroke="#63b8ff" d="M539.57,-188.66C581.2,-178.64 640.27,-164.43 685.92,-153.45"/>
<polygon fill="#63b8ff" stroke="#63b8ff" points="686.84,-156.83 695.74,-151.08 685.2,-150.02 686.84,-156.83"/>
</g>
<!-- Node34 -->
<g id="node34" class="node">
<title>Node34</title>
<g id="a_node34"><a xlink:title=" ">
<polygon fill="#e0e0e0" stroke="#999999" points="1328.28,-145.5 1194.28,-145.5 1194.28,-126.5 1328.28,-126.5 1328.28,-145.5"/>
<text text-anchor="middle" x="1261.28" y="-133.5" font-family="Helvetica,sans-Serif" font-size="10.00">xkbcommon/xkbcommon.h</text>
</a>
</g>
</g>
<!-- Node30&#45;&gt;Node34 -->
<g id="edge57" class="edge">
<title>Node30&#45;&gt;Node34</title>
<path fill="none" stroke="#63b8ff" d="M539.31,-192.98C554.7,-190.78 571.65,-188.57 587.28,-187 852.2,-160.34 920.97,-183.18 1185.28,-151 1193.33,-150.02 1201.81,-148.72 1210.08,-147.31"/>
<polygon fill="#63b8ff" stroke="#63b8ff" points="1210.77,-150.74 1220.01,-145.55 1209.55,-143.85 1210.77,-150.74"/>
</g>
<!-- Node35&#45;&gt;Node2 -->
<g id="edge60" class="edge">
<title>Node35&#45;&gt;Node2</title>
<path fill="none" stroke="#63b8ff" d="M1343.51,-195.69C1249.42,-185.36 1045.98,-162.56 976.28,-151 963.63,-148.9 949.73,-146.04 937.96,-143.45"/>
<polygon fill="#63b8ff" stroke="#63b8ff" points="938.37,-139.95 927.85,-141.17 936.84,-146.78 938.37,-139.95"/>
</g>
<!-- Node35&#45;&gt;Node3 -->
<g id="edge61" class="edge">
<title>Node35&#45;&gt;Node3</title>
<path fill="none" stroke="#63b8ff" d="M1343.65,-195.17C1318.25,-192.31 1286.63,-189.05 1258.28,-187 1060.41,-172.69 560.29,-192.44 366.28,-151 363.9,-150.49 361.48,-149.84 359.08,-149.09"/>
<polygon fill="#63b8ff" stroke="#63b8ff" points="360.03,-145.71 349.44,-145.62 357.66,-152.3 360.03,-145.71"/>
</g>
<!-- Node35&#45;&gt;Node5 -->
<g id="edge62" class="edge">
<title>Node35&#45;&gt;Node5</title>
<path fill="none" stroke="#63b8ff" d="M1343.53,-189.68C1338.73,-188.71 1333.92,-187.8 1329.28,-187 1199.54,-164.7 1161.82,-187.28 1035.28,-151 1033.65,-150.53 1031.99,-149.98 1030.34,-149.38"/>
<polygon fill="#63b8ff" stroke="#63b8ff" points="1031.69,-146.15 1021.11,-145.52 1028.98,-152.61 1031.69,-146.15"/>
</g>
<!-- Node35&#45;&gt;Node7 -->
<g id="edge66" class="edge">
<title>Node35&#45;&gt;Node7</title>
<path fill="none" stroke="#63b8ff" d="M1387.28,-186.94C1379.73,-168.08 1363.46,-135.31 1337.28,-121 1228.62,-61.58 346.33,-99.03 223.28,-85 215.56,-84.12 207.42,-82.85 199.52,-81.42"/>
<polygon fill="#63b8ff" stroke="#63b8ff" points="200.16,-77.98 189.69,-79.56 198.86,-84.86 200.16,-77.98"/>
</g>
<!-- Node35&#45;&gt;Node8 -->
<g id="edge69" class="edge">
<title>Node35&#45;&gt;Node8</title>
<path fill="none" stroke="#63b8ff" d="M1343.65,-195.27C1318.24,-192.45 1286.62,-189.18 1258.28,-187 936.17,-162.21 853.95,-180.99 532.28,-151 520.39,-149.89 507.76,-148.41 495.59,-146.82"/>
<polygon fill="#63b8ff" stroke="#63b8ff" points="495.87,-143.33 485.5,-145.47 494.95,-150.27 495.87,-143.33"/>
</g>
<!-- Node35&#45;&gt;Node12 -->
<g id="edge72" class="edge">
<title>Node35&#45;&gt;Node12</title>
<path fill="none" stroke="#63b8ff" d="M1441.12,-197.69C1546.12,-190.44 1801.09,-172.1 2014.28,-151 2039.03,-148.55 2066.62,-145.33 2089,-142.6"/>
<polygon fill="#63b8ff" stroke="#63b8ff" points="2089.71,-146.04 2099.21,-141.35 2088.85,-139.09 2089.71,-146.04"/>
</g>
<!-- Node35&#45;&gt;Node14 -->
<g id="edge70" class="edge">
<title>Node35&#45;&gt;Node14</title>
<path fill="none" stroke="#63b8ff" d="M1391.68,-186.82C1391.75,-168.75 1394.82,-137.84 1413.28,-121 1445.99,-91.16 1564.61,-78.96 1642.53,-74.09"/>
<polygon fill="#63b8ff" stroke="#63b8ff" points="1642.99,-77.57 1652.77,-73.48 1642.58,-70.58 1642.99,-77.57"/>
</g>
<!-- Node35&#45;&gt;Node32 -->
<g id="edge63" class="edge">
<title>Node35&#45;&gt;Node32</title>
<path fill="none" stroke="#63b8ff" d="M1343.48,-189.93C1291.46,-178.12 1209.62,-159.55 1158.01,-147.83"/>
<polygon fill="#63b8ff" stroke="#63b8ff" points="1158.64,-144.39 1148.11,-145.59 1157.09,-151.21 1158.64,-144.39"/>
</g>
<!-- Node35&#45;&gt;Node34 -->
<g id="edge71" class="edge">
<title>Node35&#45;&gt;Node34</title>
<path fill="none" stroke="#63b8ff" d="M1363.53,-186.95C1340.96,-175.93 1309.79,-160.7 1287.81,-149.96"/>
<polygon fill="#63b8ff" stroke="#63b8ff" points="1289.24,-146.76 1278.71,-145.52 1286.16,-153.05 1289.24,-146.76"/>
</g>
<!-- Node36 -->
<g id="node36" class="node">
<title>Node36</title>
<g id="a_node36"><a xlink:title=" ">
<polygon fill="#e0e0e0" stroke="#999999" points="2005.28,-145.5 1881.28,-145.5 1881.28,-126.5 2005.28,-126.5 2005.28,-145.5"/>
<text text-anchor="middle" x="1943.28" y="-133.5" font-family="Helvetica,sans-Serif" font-size="10.00">flutter/method_channel.h</text>
</a>
</g>
</g>
<!-- Node35&#45;&gt;Node36 -->
<g id="edge64" class="edge">
<title>Node35&#45;&gt;Node36</title>
<path fill="none" stroke="#63b8ff" d="M1440.84,-197.41C1527.7,-190.66 1715.27,-174.61 1872.28,-151 1879.04,-149.98 1886.14,-148.77 1893.12,-147.48"/>
<polygon fill="#63b8ff" stroke="#63b8ff" points="1894.04,-150.87 1903.21,-145.56 1892.74,-143.99 1894.04,-150.87"/>
</g>
<!-- Node37 -->
<g id="node37" class="node">
<title>Node37</title>
<g id="a_node37"><a xlink:title=" ">
<polygon fill="#e0e0e0" stroke="#999999" points="1528.28,-151 1422.28,-151 1422.28,-121 1528.28,-121 1528.28,-151"/>
<text text-anchor="start" x="1430.28" y="-139" font-family="Helvetica,sans-Serif" font-size="10.00">flutter/method_result</text>
<text text-anchor="middle" x="1475.28" y="-128" font-family="Helvetica,sans-Serif" font-size="10.00">_functions.h</text>
</a>
</g>
</g>
<!-- Node35&#45;&gt;Node37 -->
<g id="edge65" class="edge">
<title>Node35&#45;&gt;Node37</title>
<path fill="none" stroke="#63b8ff" d="M1410.7,-186.8C1421.88,-178.18 1436.33,-167.04 1448.72,-157.48"/>
<polygon fill="#63b8ff" stroke="#63b8ff" points="1451.13,-160.04 1456.91,-151.16 1446.86,-154.5 1451.13,-160.04"/>
</g>
<!-- Node38 -->
<g id="node38" class="node">
<title>Node38</title>
<g id="a_node38"><a xlink:title=" ">
<polygon fill="#e0e0e0" stroke="#999999" points="1701.78,-151 1546.78,-151 1546.78,-121 1701.78,-121 1701.78,-151"/>
<text text-anchor="start" x="1554.78" y="-139" font-family="Helvetica,sans-Serif" font-size="10.00">flutter/shell/platform</text>
<text text-anchor="middle" x="1624.28" y="-128" font-family="Helvetica,sans-Serif" font-size="10.00">/common/json_method_codec.h</text>
</a>
</g>
</g>
<!-- Node35&#45;&gt;Node38 -->
<g id="edge67" class="edge">
<title>Node35&#45;&gt;Node38</title>
<path fill="none" stroke="#63b8ff" d="M1440.92,-187.58C1476.53,-177.76 1525.11,-164.36 1563.32,-153.82"/>
<polygon fill="#63b8ff" stroke="#63b8ff" points="1564.59,-157.1 1573.3,-151.06 1562.73,-150.35 1564.59,-157.1"/>
</g>
<!-- Node39 -->
<g id="node39" class="node">
<title>Node39</title>
<g id="a_node39"><a xlink:title=" ">
<polygon fill="#e0e0e0" stroke="#999999" points="1862.78,-151 1719.78,-151 1719.78,-121 1862.78,-121 1862.78,-151"/>
<text text-anchor="start" x="1727.78" y="-139" font-family="Helvetica,sans-Serif" font-size="10.00">flutter/shell/platform</text>
<text text-anchor="middle" x="1791.28" y="-128" font-family="Helvetica,sans-Serif" font-size="10.00">/common/text_input_model.h</text>
</a>
</g>
</g>
<!-- Node35&#45;&gt;Node39 -->
<g id="edge68" class="edge">
<title>Node35&#45;&gt;Node39</title>
<path fill="none" stroke="#63b8ff" d="M1440.96,-193.64C1501.54,-184.43 1608.44,-167.97 1709.67,-151.25"/>
<polygon fill="#63b8ff" stroke="#63b8ff" points="1710.47,-154.67 1719.76,-149.58 1709.32,-147.76 1710.47,-154.67"/>
</g>
</g>
</svg>
