<?xml version="1.0" encoding="UTF-8" standalone="no"?>
<!DOCTYPE svg PUBLIC "-//W3C//DTD SVG 1.1//EN"
 "http://www.w3.org/Graphics/SVG/1.1/DTD/svg11.dtd">
<!-- Generated by graphviz version 2.43.0 (0)
 -->
<!-- Title: /home/joel.winarske@toyotaconnected.com/development/workspace&#45;automation&#45;configs/app/ivi&#45;homescreen/shell/view/flutter_view.h Pages: 1 -->
<svg width="2746pt" height="452pt"
 viewBox="0.00 0.00 2746.00 452.00" xmlns="http://www.w3.org/2000/svg" xmlns:xlink="http://www.w3.org/1999/xlink">
<g id="graph0" class="graph" transform="scale(1 1) rotate(0) translate(4 448)">
<title>/home/joel.winarske@toyotaconnected.com/development/workspace&#45;automation&#45;configs/app/ivi&#45;homescreen/shell/view/flutter_view.h</title>
<polygon fill="white" stroke="transparent" points="-4,4 -4,-448 2742,-448 2742,4 -4,4"/>
<!-- Node1 -->
<g id="node1" class="node">
<title>Node1</title>
<g id="a_node1"><a xlink:title=" ">
<polygon fill="#bfbfbf" stroke="black" points="312,-369.5 312,-443.5 460,-443.5 460,-369.5 312,-369.5"/>
<text text-anchor="start" x="320" y="-431.5" font-family="Helvetica,sans-Serif" font-size="10.00">/home/joel.winarske</text>
<text text-anchor="start" x="320" y="-420.5" font-family="Helvetica,sans-Serif" font-size="10.00">@toyotaconnected.com</text>
<text text-anchor="start" x="320" y="-409.5" font-family="Helvetica,sans-Serif" font-size="10.00">/development/workspace</text>
<text text-anchor="start" x="320" y="-398.5" font-family="Helvetica,sans-Serif" font-size="10.00">&#45;automation&#45;configs/app</text>
<text text-anchor="start" x="320" y="-387.5" font-family="Helvetica,sans-Serif" font-size="10.00">/ivi&#45;homescreen/shell/view</text>
<text text-anchor="middle" x="386" y="-376.5" font-family="Helvetica,sans-Serif" font-size="10.00">/flutter_view.h</text>
</a>
</g>
</g>
<!-- Node2 -->
<g id="node2" class="node">
<title>Node2</title>
<g id="a_node2"><a xlink:title=" ">
<polygon fill="white" stroke="#bfbfbf" points="263,-73 263,-92 301,-92 301,-73 263,-73"/>
<text text-anchor="middle" x="282" y="-80" font-family="Helvetica,sans-Serif" font-size="10.00">map</text>
</a>
</g>
</g>
<!-- Node1&#45;&gt;Node2 -->
<g id="edge1" class="edge">
<title>Node1&#45;&gt;Node2</title>
<path fill="none" stroke="midnightblue" d="M348.91,-369.4C326.41,-343.54 302,-306.6 302,-268 302,-268 302,-268 302,-210 302,-171.05 292.64,-126.18 286.72,-101.72"/>
<polygon fill="midnightblue" stroke="midnightblue" points="290.12,-100.87 284.29,-92.02 283.33,-102.57 290.12,-100.87"/>
</g>
<!-- Node3 -->
<g id="node3" class="node">
<title>Node3</title>
<g id="a_node3"><a xlink:title=" ">
<polygon fill="white" stroke="#bfbfbf" points="2102,-73 2102,-92 2160,-92 2160,-73 2102,-73"/>
<text text-anchor="middle" x="2131" y="-80" font-family="Helvetica,sans-Serif" font-size="10.00">memory</text>
</a>
</g>
</g>
<!-- Node1&#45;&gt;Node3 -->
<g id="edge2" class="edge">
<title>Node1&#45;&gt;Node3</title>
<path fill="none" stroke="midnightblue" d="M460,-402.89C769.23,-391.5 1942,-343.34 1942,-268 1942,-268 1942,-268 1942,-210 1942,-172.09 2048.36,-119.87 2101.51,-96.14"/>
<polygon fill="midnightblue" stroke="midnightblue" points="2103.04,-99.29 2110.77,-92.05 2100.21,-92.89 2103.04,-99.29"/>
</g>
<!-- Node4 -->
<g id="node4" class="node">
<title>Node4</title>
<g id="a_node4"><a xlink:href="configuration_8h.html" target="_top" xlink:title=" ">
<polygon fill="white" stroke="black" points="118,-140 118,-159 274,-159 274,-140 118,-140"/>
<text text-anchor="middle" x="196" y="-147" font-family="Helvetica,sans-Serif" font-size="10.00">configuration/configuration.h</text>
</a>
</g>
</g>
<!-- Node1&#45;&gt;Node4 -->
<g id="edge3" class="edge">
<title>Node1&#45;&gt;Node4</title>
<path fill="none" stroke="midnightblue" d="M327.74,-369.32C313.6,-358.77 299.32,-346.43 288,-333 244.05,-280.86 214.23,-204.14 202.1,-169.14"/>
<polygon fill="midnightblue" stroke="midnightblue" points="205.31,-167.68 198.79,-159.33 198.67,-169.92 205.31,-167.68"/>
</g>
<!-- Node7 -->
<g id="node7" class="node">
<title>Node7</title>
<g id="a_node7"><a xlink:title=" ">
<polygon fill="white" stroke="#bfbfbf" points="131.5,-73 131.5,-92 244.5,-92 244.5,-73 131.5,-73"/>
<text text-anchor="middle" x="188" y="-80" font-family="Helvetica,sans-Serif" font-size="10.00">flutter/fml/macros.h</text>
</a>
</g>
</g>
<!-- Node1&#45;&gt;Node7 -->
<g id="edge8" class="edge">
<title>Node1&#45;&gt;Node7</title>
<path fill="none" stroke="midnightblue" d="M311.58,-394.52C199.41,-375.85 0,-333.45 0,-268 0,-268 0,-268 0,-210 0,-143.94 80.89,-110.12 136.55,-94.66"/>
<polygon fill="midnightblue" stroke="midnightblue" points="137.51,-98.03 146.28,-92.07 135.71,-91.26 137.51,-98.03"/>
</g>
<!-- Node9 -->
<g id="node9" class="node">
<title>Node9</title>
<g id="a_node9"><a xlink:href="window_8h.html" target="_top" xlink:title=" ">
<polygon fill="white" stroke="black" points="2261.5,-313.5 2261.5,-332.5 2368.5,-332.5 2368.5,-313.5 2261.5,-313.5"/>
<text text-anchor="middle" x="2315" y="-320.5" font-family="Helvetica,sans-Serif" font-size="10.00">wayland/window.h</text>
</a>
</g>
</g>
<!-- Node1&#45;&gt;Node9 -->
<g id="edge9" class="edge">
<title>Node1&#45;&gt;Node9</title>
<path fill="none" stroke="midnightblue" d="M460.14,-402.37C770.18,-389.27 1960.13,-338.99 2250.71,-326.72"/>
<polygon fill="midnightblue" stroke="midnightblue" points="2251.22,-330.2 2261.07,-326.28 2250.93,-323.2 2251.22,-330.2"/>
</g>
<!-- Node5 -->
<g id="node5" class="node">
<title>Node5</title>
<g id="a_node5"><a xlink:title=" ">
<polygon fill="white" stroke="#bfbfbf" points="357,-73 357,-92 401,-92 401,-73 357,-73"/>
<text text-anchor="middle" x="379" y="-80" font-family="Helvetica,sans-Serif" font-size="10.00">string</text>
</a>
</g>
</g>
<!-- Node4&#45;&gt;Node5 -->
<g id="edge4" class="edge">
<title>Node4&#45;&gt;Node5</title>
<path fill="none" stroke="midnightblue" d="M220.3,-139.87C253.01,-128.25 311.24,-107.57 347.34,-94.75"/>
<polygon fill="midnightblue" stroke="midnightblue" points="348.64,-98 356.89,-91.35 346.3,-91.4 348.64,-98"/>
</g>
<!-- Node6 -->
<g id="node6" class="node">
<title>Node6</title>
<g id="a_node6"><a xlink:title=" ">
<polygon fill="white" stroke="#bfbfbf" points="66.5,-73 66.5,-92 113.5,-92 113.5,-73 66.5,-73"/>
<text text-anchor="middle" x="90" y="-80" font-family="Helvetica,sans-Serif" font-size="10.00">vector</text>
</a>
</g>
</g>
<!-- Node4&#45;&gt;Node6 -->
<g id="edge5" class="edge">
<title>Node4&#45;&gt;Node6</title>
<path fill="none" stroke="midnightblue" d="M181.7,-139.73C163.98,-128.87 133.57,-110.22 112.66,-97.39"/>
<polygon fill="midnightblue" stroke="midnightblue" points="114.42,-94.37 104.07,-92.13 110.76,-100.34 114.42,-94.37"/>
</g>
<!-- Node4&#45;&gt;Node7 -->
<g id="edge6" class="edge">
<title>Node4&#45;&gt;Node7</title>
<path fill="none" stroke="midnightblue" d="M194.92,-139.73C193.75,-130.18 191.83,-114.62 190.31,-102.28"/>
<polygon fill="midnightblue" stroke="midnightblue" points="193.76,-101.62 189.06,-92.13 186.81,-102.48 193.76,-101.62"/>
</g>
<!-- Node8 -->
<g id="node8" class="node">
<title>Node8</title>
<g id="a_node8"><a xlink:title=" ">
<polygon fill="white" stroke="#bfbfbf" points="714,-73 714,-92 836,-92 836,-73 714,-73"/>
<text text-anchor="middle" x="775" y="-80" font-family="Helvetica,sans-Serif" font-size="10.00">rapidjson/document.h</text>
</a>
</g>
</g>
<!-- Node4&#45;&gt;Node8 -->
<g id="edge7" class="edge">
<title>Node4&#45;&gt;Node8</title>
<path fill="none" stroke="midnightblue" d="M274.08,-141.21C406.19,-128.81 663.55,-104.33 705,-98 712.25,-96.89 719.89,-95.52 727.35,-94.07"/>
<polygon fill="midnightblue" stroke="midnightblue" points="728.24,-97.46 737.35,-92.06 726.86,-90.6 728.24,-97.46"/>
</g>
<!-- Node9&#45;&gt;Node3 -->
<g id="edge10" class="edge">
<title>Node9&#45;&gt;Node3</title>
<path fill="none" stroke="midnightblue" d="M2310.53,-313.3C2303.84,-300.55 2290.56,-276.23 2277,-257 2233.65,-195.54 2173.7,-129.19 2146.06,-99.47"/>
<polygon fill="midnightblue" stroke="midnightblue" points="2148.55,-97.01 2139.16,-92.1 2143.44,-101.79 2148.55,-97.01"/>
</g>
<!-- Node9&#45;&gt;Node5 -->
<g id="edge11" class="edge">
<title>Node9&#45;&gt;Node5</title>
<path fill="none" stroke="midnightblue" d="M2261.26,-318.07C2102.98,-306.27 1624.85,-268.95 1230,-221 864.17,-176.57 762.79,-204.51 410,-98 408.12,-97.43 406.21,-96.77 404.31,-96.05"/>
<polygon fill="midnightblue" stroke="midnightblue" points="405.63,-92.81 395.06,-92.09 402.88,-99.24 405.63,-92.81"/>
</g>
<!-- Node10 -->
<g id="node10" class="node">
<title>Node10</title>
<g id="a_node10"><a xlink:title=" ">
<polygon fill="white" stroke="#bfbfbf" points="2526,-257.5 2526,-276.5 2578,-276.5 2578,-257.5 2526,-257.5"/>
<text text-anchor="middle" x="2552" y="-264.5" font-family="Helvetica,sans-Serif" font-size="10.00">cassert</text>
</a>
</g>
</g>
<!-- Node9&#45;&gt;Node10 -->
<g id="edge12" class="edge">
<title>Node9&#45;&gt;Node10</title>
<path fill="none" stroke="midnightblue" d="M2355.33,-313.42C2394.09,-305.08 2454.57,-291.84 2515.82,-277.23"/>
<polygon fill="midnightblue" stroke="midnightblue" points="2516.74,-280.61 2525.65,-274.87 2515.11,-273.8 2516.74,-280.61"/>
</g>
<!-- Node11 -->
<g id="node11" class="node">
<title>Node11</title>
<g id="a_node11"><a xlink:title=" ">
<polygon fill="white" stroke="#bfbfbf" points="2596,-257.5 2596,-276.5 2738,-276.5 2738,-257.5 2596,-257.5"/>
<text text-anchor="middle" x="2667" y="-264.5" font-family="Helvetica,sans-Serif" font-size="10.00">agl&#45;shell&#45;client&#45;protocol.h</text>
</a>
</g>
</g>
<!-- Node9&#45;&gt;Node11 -->
<g id="edge13" class="edge">
<title>Node9&#45;&gt;Node11</title>
<path fill="none" stroke="midnightblue" d="M2368.84,-313.74C2431.31,-304.16 2534.29,-288.36 2601.38,-278.07"/>
<polygon fill="midnightblue" stroke="midnightblue" points="2602.06,-281.5 2611.42,-276.53 2601,-274.58 2602.06,-281.5"/>
</g>
<!-- Node12 -->
<g id="node12" class="node">
<title>Node12</title>
<g id="a_node12"><a xlink:href="constants_8h.html" target="_top" xlink:title=" ">
<polygon fill="white" stroke="black" points="2254.5,-73 2254.5,-92 2327.5,-92 2327.5,-73 2254.5,-73"/>
<text text-anchor="middle" x="2291" y="-80" font-family="Helvetica,sans-Serif" font-size="10.00">constants.h</text>
</a>
</g>
</g>
<!-- Node9&#45;&gt;Node12 -->
<g id="edge14" class="edge">
<title>Node9&#45;&gt;Node12</title>
<path fill="none" stroke="midnightblue" d="M2315,-313.47C2314.91,-293.66 2314.25,-243.05 2310,-201 2306.44,-165.82 2299.15,-125.18 2294.71,-102.09"/>
<polygon fill="midnightblue" stroke="midnightblue" points="2298.09,-101.15 2292.73,-92.01 2291.22,-102.49 2298.09,-101.15"/>
</g>
<!-- Node16 -->
<g id="node16" class="node">
<title>Node16</title>
<g id="a_node16"><a xlink:href="backend_8h.html" target="_top" xlink:title=" ">
<polygon fill="white" stroke="black" points="2158,-257.5 2158,-276.5 2268,-276.5 2268,-257.5 2158,-257.5"/>
<text text-anchor="middle" x="2213" y="-264.5" font-family="Helvetica,sans-Serif" font-size="10.00">backend/backend.h</text>
</a>
</g>
</g>
<!-- Node9&#45;&gt;Node16 -->
<g id="edge18" class="edge">
<title>Node9&#45;&gt;Node16</title>
<path fill="none" stroke="midnightblue" d="M2298.61,-313.32C2282.33,-304.7 2257.13,-291.36 2238.28,-281.39"/>
<polygon fill="midnightblue" stroke="midnightblue" points="2239.82,-278.24 2229.35,-276.65 2236.55,-284.43 2239.82,-278.24"/>
</g>
<!-- Node36 -->
<g id="node36" class="node">
<title>Node36</title>
<g id="a_node36"><a xlink:title=" ">
<polygon fill="white" stroke="#bfbfbf" points="2362.5,-257.5 2362.5,-276.5 2507.5,-276.5 2507.5,-257.5 2362.5,-257.5"/>
<text text-anchor="middle" x="2435" y="-264.5" font-family="Helvetica,sans-Serif" font-size="10.00">xdg&#45;shell&#45;client&#45;protocol.h</text>
</a>
</g>
</g>
<!-- Node9&#45;&gt;Node36 -->
<g id="edge68" class="edge">
<title>Node9&#45;&gt;Node36</title>
<path fill="none" stroke="midnightblue" d="M2334.01,-313.44C2353.59,-304.64 2384.31,-290.81 2406.73,-280.72"/>
<polygon fill="midnightblue" stroke="midnightblue" points="2408.39,-283.81 2416.07,-276.52 2405.52,-277.43 2408.39,-283.81"/>
</g>
<!-- Node13 -->
<g id="node13" class="node">
<title>Node13</title>
<g id="a_node13"><a xlink:title=" ">
<polygon fill="white" stroke="#bfbfbf" points="2173,-6 2173,-25 2235,-25 2235,-6 2173,-6"/>
<text text-anchor="middle" x="2204" y="-13" font-family="Helvetica,sans-Serif" font-size="10.00">EGL/egl.h</text>
</a>
</g>
</g>
<!-- Node12&#45;&gt;Node13 -->
<g id="edge15" class="edge">
<title>Node12&#45;&gt;Node13</title>
<path fill="none" stroke="midnightblue" d="M2279.27,-72.73C2265.05,-62.11 2240.87,-44.05 2223.76,-31.26"/>
<polygon fill="midnightblue" stroke="midnightblue" points="2225.65,-28.31 2215.55,-25.13 2221.46,-33.92 2225.65,-28.31"/>
</g>
<!-- Node14 -->
<g id="node14" class="node">
<title>Node14</title>
<g id="a_node14"><a xlink:title=" ">
<polygon fill="white" stroke="#bfbfbf" points="1415.5,-0.5 1415.5,-30.5 1552.5,-30.5 1552.5,-0.5 1415.5,-0.5"/>
<text text-anchor="start" x="1423.5" y="-18.5" font-family="Helvetica,sans-Serif" font-size="10.00">shell/platform/embedder</text>
<text text-anchor="middle" x="1484" y="-7.5" font-family="Helvetica,sans-Serif" font-size="10.00">/embedder.h</text>
</a>
</g>
</g>
<!-- Node12&#45;&gt;Node14 -->
<g id="edge16" class="edge">
<title>Node12&#45;&gt;Node14</title>
<path fill="none" stroke="midnightblue" d="M2265.04,-72.98C2257.08,-70.68 2248.25,-68.43 2240,-67 1995.5,-24.56 1700.8,-17.25 1562.67,-16.34"/>
<polygon fill="midnightblue" stroke="midnightblue" points="1562.62,-12.83 1552.6,-16.28 1562.58,-19.83 1562.62,-12.83"/>
</g>
<!-- Node15 -->
<g id="node15" class="node">
<title>Node15</title>
<g id="a_node15"><a xlink:title=" ">
<polygon fill="white" stroke="#bfbfbf" points="2270,-6 2270,-25 2312,-25 2312,-6 2270,-6"/>
<text text-anchor="middle" x="2291" y="-13" font-family="Helvetica,sans-Serif" font-size="10.00">array</text>
</a>
</g>
</g>
<!-- Node12&#45;&gt;Node15 -->
<g id="edge17" class="edge">
<title>Node12&#45;&gt;Node15</title>
<path fill="none" stroke="midnightblue" d="M2291,-72.73C2291,-63.18 2291,-47.62 2291,-35.28"/>
<polygon fill="midnightblue" stroke="midnightblue" points="2294.5,-35.13 2291,-25.13 2287.5,-35.13 2294.5,-35.13"/>
</g>
<!-- Node16&#45;&gt;Node12 -->
<g id="edge20" class="edge">
<title>Node16&#45;&gt;Node12</title>
<path fill="none" stroke="midnightblue" d="M2217.14,-257.42C2221.46,-248.41 2228.37,-233.78 2234,-221 2252.67,-178.6 2273.15,-128.14 2283.74,-101.71"/>
<polygon fill="midnightblue" stroke="midnightblue" points="2287.07,-102.83 2287.53,-92.24 2280.57,-100.23 2287.07,-102.83"/>
</g>
<!-- Node16&#45;&gt;Node14 -->
<g id="edge19" class="edge">
<title>Node16&#45;&gt;Node14</title>
<path fill="none" stroke="midnightblue" d="M2214.23,-257.48C2218.22,-226.29 2227.33,-117.48 2169,-67 2124.02,-28.07 1732.96,-19.15 1562.67,-17.1"/>
<polygon fill="midnightblue" stroke="midnightblue" points="1562.56,-13.6 1552.52,-16.99 1562.48,-20.6 1562.56,-13.6"/>
</g>
<!-- Node17 -->
<g id="node17" class="node">
<title>Node17</title>
<g id="a_node17"><a xlink:href="engine_8h.html" target="_top" xlink:title=" ">
<polygon fill="white" stroke="black" points="1238.5,-201.5 1238.5,-220.5 1297.5,-220.5 1297.5,-201.5 1238.5,-201.5"/>
<text text-anchor="middle" x="1268" y="-208.5" font-family="Helvetica,sans-Serif" font-size="10.00">engine.h</text>
</a>
</g>
</g>
<!-- Node16&#45;&gt;Node17 -->
<g id="edge21" class="edge">
<title>Node16&#45;&gt;Node17</title>
<path fill="none" stroke="midnightblue" d="M2157.89,-263.04C1985.24,-253.44 1457.9,-223.3 1308.04,-214.46"/>
<polygon fill="midnightblue" stroke="midnightblue" points="1308.1,-210.96 1297.91,-213.86 1307.69,-217.95 1308.1,-210.96"/>
</g>
<!-- Node17&#45;&gt;Node1 -->
<g id="edge67" class="edge">
<title>Node17&#45;&gt;Node1</title>
<path fill="none" stroke="midnightblue" d="M1238.36,-218.5C1117.64,-244.99 660.43,-345.29 470.02,-387.07"/>
<polygon fill="midnightblue" stroke="midnightblue" points="469.08,-383.69 460.06,-389.25 470.58,-390.53 469.08,-383.69"/>
</g>
<!-- Node17&#45;&gt;Node2 -->
<g id="edge27" class="edge">
<title>Node17&#45;&gt;Node2</title>
<path fill="none" stroke="midnightblue" d="M1238.3,-209.84C1090.74,-208.87 440.35,-202.47 359,-165 329.22,-151.28 305.29,-120.33 292.41,-100.77"/>
<polygon fill="midnightblue" stroke="midnightblue" points="295.3,-98.78 287,-92.2 289.38,-102.52 295.3,-98.78"/>
</g>
<!-- Node17&#45;&gt;Node3 -->
<g id="edge28" class="edge">
<title>Node17&#45;&gt;Node3</title>
<path fill="none" stroke="midnightblue" d="M1297.67,-206.18C1333.08,-200.74 1393.36,-188.7 1440,-165 1459.43,-155.13 1457.69,-141.91 1478,-134 1605.57,-84.32 1959.15,-126.74 2093,-98 2096.08,-97.34 2099.23,-96.47 2102.35,-95.48"/>
<polygon fill="midnightblue" stroke="midnightblue" points="2103.76,-98.69 2112.02,-92.05 2101.42,-92.1 2103.76,-98.69"/>
</g>
<!-- Node17&#45;&gt;Node5 -->
<g id="edge31" class="edge">
<title>Node17&#45;&gt;Node5</title>
<path fill="none" stroke="midnightblue" d="M1238.32,-209.36C1190.29,-207.3 1093.52,-198.89 1020,-165 1000.21,-155.88 1002.29,-141.95 982,-134 863.42,-87.52 533.4,-129.53 410,-98 408.01,-97.49 406,-96.86 404,-96.14"/>
<polygon fill="midnightblue" stroke="midnightblue" points="404.92,-92.73 394.35,-92.06 402.2,-99.18 404.92,-92.73"/>
</g>
<!-- Node17&#45;&gt;Node6 -->
<g id="edge32" class="edge">
<title>Node17&#45;&gt;Node6</title>
<path fill="none" stroke="midnightblue" d="M1238.28,-209.86C1061.44,-208.87 153.83,-202.02 109,-165 90.82,-149.99 88.06,-121.27 88.47,-102.25"/>
<polygon fill="midnightblue" stroke="midnightblue" points="91.97,-102.28 89,-92.1 84.98,-101.91 91.97,-102.28"/>
</g>
<!-- Node17&#45;&gt;Node12 -->
<g id="edge34" class="edge">
<title>Node17&#45;&gt;Node12</title>
<path fill="none" stroke="midnightblue" d="M1297.88,-209.37C1443.41,-206.16 2074.4,-190.87 2158,-165 2203.16,-151.02 2248.57,-118.21 2272.9,-98.75"/>
<polygon fill="midnightblue" stroke="midnightblue" points="2275.33,-101.28 2280.86,-92.25 2270.9,-95.86 2275.33,-101.28"/>
</g>
<!-- Node17&#45;&gt;Node13 -->
<g id="edge23" class="edge">
<title>Node17&#45;&gt;Node13</title>
<path fill="none" stroke="midnightblue" d="M1297.86,-210.32C1438.05,-211.23 2029.96,-208.38 2169,-98 2188.47,-82.55 2197.3,-54.18 2201.17,-35.33"/>
<polygon fill="midnightblue" stroke="midnightblue" points="2204.66,-35.71 2202.95,-25.26 2197.76,-34.49 2204.66,-35.71"/>
</g>
<!-- Node17&#45;&gt;Node14 -->
<g id="edge26" class="edge">
<title>Node17&#45;&gt;Node14</title>
<path fill="none" stroke="midnightblue" d="M1238.43,-209.74C1060.4,-208.07 137.32,-197.86 88,-165 49.98,-139.67 25.27,-99.87 57,-67 104.08,-18.22 1112.92,-15.93 1405.27,-16.3"/>
<polygon fill="midnightblue" stroke="midnightblue" points="1405.36,-19.8 1415.36,-16.31 1405.37,-12.8 1405.36,-19.8"/>
</g>
<!-- Node17&#45;&gt;Node16 -->
<g id="edge33" class="edge">
<title>Node17&#45;&gt;Node16</title>
<path fill="none" stroke="midnightblue" d="M1297.9,-213.57C1429.8,-220.8 1960.53,-251.11 2147.49,-262.04"/>
<polygon fill="midnightblue" stroke="midnightblue" points="2147.53,-265.55 2157.72,-262.64 2147.94,-258.56 2147.53,-265.55"/>
</g>
<!-- Node18 -->
<g id="node18" class="node">
<title>Node18</title>
<g id="a_node18"><a xlink:title=" ">
<polygon fill="white" stroke="#bfbfbf" points="1235.5,-140 1235.5,-159 1300.5,-159 1300.5,-140 1235.5,-140"/>
<text text-anchor="middle" x="1268" y="-147" font-family="Helvetica,sans-Serif" font-size="10.00">functional</text>
</a>
</g>
</g>
<!-- Node17&#45;&gt;Node18 -->
<g id="edge22" class="edge">
<title>Node17&#45;&gt;Node18</title>
<path fill="none" stroke="midnightblue" d="M1268,-201.48C1268,-193.08 1268,-179.98 1268,-169.16"/>
<polygon fill="midnightblue" stroke="midnightblue" points="1271.5,-169.01 1268,-159.01 1264.5,-169.01 1271.5,-169.01"/>
</g>
<!-- Node19 -->
<g id="node19" class="node">
<title>Node19</title>
<g id="a_node19"><a xlink:title=" ">
<polygon fill="white" stroke="#bfbfbf" points="1487,-140 1487,-159 1561,-159 1561,-140 1487,-140"/>
<text text-anchor="middle" x="1524" y="-147" font-family="Helvetica,sans-Serif" font-size="10.00">GLES2/gl2.h</text>
</a>
</g>
</g>
<!-- Node17&#45;&gt;Node19 -->
<g id="edge24" class="edge">
<title>Node17&#45;&gt;Node19</title>
<path fill="none" stroke="midnightblue" d="M1297.67,-204.08C1337.65,-195.96 1410.99,-180.61 1473,-165 1477.07,-163.98 1481.3,-162.86 1485.52,-161.71"/>
<polygon fill="midnightblue" stroke="midnightblue" points="1486.53,-165.06 1495.22,-159.01 1484.65,-158.32 1486.53,-165.06"/>
</g>
<!-- Node20 -->
<g id="node20" class="node">
<title>Node20</title>
<g id="a_node20"><a xlink:title=" ">
<polygon fill="white" stroke="#bfbfbf" points="1579,-140 1579,-159 1719,-159 1719,-140 1579,-140"/>
<text text-anchor="middle" x="1649" y="-147" font-family="Helvetica,sans-Serif" font-size="10.00">flutter/encodable_value.h</text>
</a>
</g>
</g>
<!-- Node17&#45;&gt;Node20 -->
<g id="edge25" class="edge">
<title>Node17&#45;&gt;Node20</title>
<path fill="none" stroke="midnightblue" d="M1297.63,-205.92C1351.79,-198.39 1470.38,-181.56 1570,-165 1577.74,-163.71 1585.89,-162.29 1593.9,-160.86"/>
<polygon fill="midnightblue" stroke="midnightblue" points="1594.71,-164.27 1603.93,-159.04 1593.46,-157.38 1594.71,-164.27"/>
</g>
<!-- Node21 -->
<g id="node21" class="node">
<title>Node21</title>
<g id="a_node21"><a xlink:title=" ">
<polygon fill="white" stroke="#bfbfbf" points="1737,-140 1737,-159 1785,-159 1785,-140 1737,-140"/>
<text text-anchor="middle" x="1761" y="-147" font-family="Helvetica,sans-Serif" font-size="10.00">mutex</text>
</a>
</g>
</g>
<!-- Node17&#45;&gt;Node21 -->
<g id="edge29" class="edge">
<title>Node17&#45;&gt;Node21</title>
<path fill="none" stroke="midnightblue" d="M1297.63,-210.31C1371.56,-210.4 1569.63,-206.41 1728,-165 1730.3,-164.4 1732.64,-163.66 1734.96,-162.83"/>
<polygon fill="midnightblue" stroke="midnightblue" points="1736.28,-166.07 1744.24,-159.09 1733.66,-159.58 1736.28,-166.07"/>
</g>
<!-- Node22 -->
<g id="node22" class="node">
<title>Node22</title>
<g id="a_node22"><a xlink:title=" ">
<polygon fill="white" stroke="#bfbfbf" points="925.5,-140 925.5,-159 972.5,-159 972.5,-140 925.5,-140"/>
<text text-anchor="middle" x="949" y="-147" font-family="Helvetica,sans-Serif" font-size="10.00">queue</text>
</a>
</g>
</g>
<!-- Node17&#45;&gt;Node22 -->
<g id="edge30" class="edge">
<title>Node17&#45;&gt;Node22</title>
<path fill="none" stroke="midnightblue" d="M1238.46,-207.29C1186.79,-202.1 1076.96,-189.09 987,-165 984.34,-164.29 981.61,-163.46 978.9,-162.56"/>
<polygon fill="midnightblue" stroke="midnightblue" points="979.85,-159.18 969.26,-159.11 977.49,-165.78 979.85,-159.18"/>
</g>
<!-- Node23 -->
<g id="node23" class="node">
<title>Node23</title>
<g id="a_node23"><a xlink:href="logging_8h.html" target="_top" xlink:title=" ">
<polygon fill="white" stroke="black" points="1155,-140 1155,-159 1217,-159 1217,-140 1155,-140"/>
<text text-anchor="middle" x="1186" y="-147" font-family="Helvetica,sans-Serif" font-size="10.00">logging.h</text>
</a>
</g>
</g>
<!-- Node17&#45;&gt;Node23 -->
<g id="edge35" class="edge">
<title>Node17&#45;&gt;Node23</title>
<path fill="none" stroke="midnightblue" d="M1256.25,-201.48C1243.22,-192.02 1221.96,-176.6 1206.24,-165.19"/>
<polygon fill="midnightblue" stroke="midnightblue" points="1207.88,-162.05 1197.73,-159.01 1203.77,-167.71 1207.88,-162.05"/>
</g>
<!-- Node25 -->
<g id="node25" class="node">
<title>Node25</title>
<g id="a_node25"><a xlink:href="platform__channel_8h.html" target="_top" xlink:title=" ">
<polygon fill="white" stroke="black" points="368.5,-140 368.5,-159 479.5,-159 479.5,-140 368.5,-140"/>
<text text-anchor="middle" x="424" y="-147" font-family="Helvetica,sans-Serif" font-size="10.00">platform_channel.h</text>
</a>
</g>
</g>
<!-- Node17&#45;&gt;Node25 -->
<g id="edge37" class="edge">
<title>Node17&#45;&gt;Node25</title>
<path fill="none" stroke="midnightblue" d="M1238.46,-207.92C1117.87,-199.42 661.24,-167.22 489.68,-155.13"/>
<polygon fill="midnightblue" stroke="midnightblue" points="489.75,-151.63 479.53,-154.41 489.26,-158.61 489.75,-151.63"/>
</g>
<!-- Node26 -->
<g id="node26" class="node">
<title>Node26</title>
<g id="a_node26"><a xlink:href="key__event_8h.html" target="_top" xlink:title=" ">
<polygon fill="white" stroke="black" points="1319,-134.5 1319,-164.5 1431,-164.5 1431,-134.5 1319,-134.5"/>
<text text-anchor="start" x="1327" y="-152.5" font-family="Helvetica,sans-Serif" font-size="10.00">static_plugins/key</text>
<text text-anchor="middle" x="1375" y="-141.5" font-family="Helvetica,sans-Serif" font-size="10.00">_event/key_event.h</text>
</a>
</g>
</g>
<!-- Node17&#45;&gt;Node26 -->
<g id="edge41" class="edge">
<title>Node17&#45;&gt;Node26</title>
<path fill="none" stroke="midnightblue" d="M1283.33,-201.48C1298.3,-193.15 1321.58,-180.21 1340.93,-169.45"/>
<polygon fill="midnightblue" stroke="midnightblue" points="1342.74,-172.44 1349.78,-164.52 1339.34,-166.32 1342.74,-172.44"/>
</g>
<!-- Node31 -->
<g id="node31" class="node">
<title>Node31</title>
<g id="a_node31"><a xlink:href="text__input_8h.html" target="_top" xlink:title=" ">
<polygon fill="white" stroke="black" points="1029,-134.5 1029,-164.5 1137,-164.5 1137,-134.5 1029,-134.5"/>
<text text-anchor="start" x="1037" y="-152.5" font-family="Helvetica,sans-Serif" font-size="10.00">static_plugins/text</text>
<text text-anchor="middle" x="1083" y="-141.5" font-family="Helvetica,sans-Serif" font-size="10.00">_input/text_input.h</text>
</a>
</g>
</g>
<!-- Node17&#45;&gt;Node31 -->
<g id="edge53" class="edge">
<title>Node17&#45;&gt;Node31</title>
<path fill="none" stroke="midnightblue" d="M1241.49,-201.48C1214.21,-192.7 1170.95,-178.79 1136.52,-167.71"/>
<polygon fill="midnightblue" stroke="midnightblue" points="1137.19,-164.25 1126.6,-164.52 1135.05,-170.92 1137.19,-164.25"/>
</g>
<!-- Node24 -->
<g id="node24" class="node">
<title>Node24</title>
<g id="a_node24"><a xlink:title=" ">
<polygon fill="white" stroke="#bfbfbf" points="1594.5,-73 1594.5,-92 1707.5,-92 1707.5,-73 1594.5,-73"/>
<text text-anchor="middle" x="1651" y="-80" font-family="Helvetica,sans-Serif" font-size="10.00">flutter/fml/logging.h</text>
</a>
</g>
</g>
<!-- Node23&#45;&gt;Node24 -->
<g id="edge36" class="edge">
<title>Node23&#45;&gt;Node24</title>
<path fill="none" stroke="midnightblue" d="M1207,-139.99C1213.33,-137.72 1220.37,-135.48 1227,-134 1383.06,-99.09 1427.08,-123.2 1585,-98 1591.77,-96.92 1598.89,-95.58 1605.85,-94.15"/>
<polygon fill="midnightblue" stroke="midnightblue" points="1606.81,-97.52 1615.86,-92.01 1605.35,-90.67 1606.81,-97.52"/>
</g>
<!-- Node25&#45;&gt;Node2 -->
<g id="edge38" class="edge">
<title>Node25&#45;&gt;Node2</title>
<path fill="none" stroke="midnightblue" d="M405.14,-139.87C380.85,-128.75 338.4,-109.32 310.24,-96.43"/>
<polygon fill="midnightblue" stroke="midnightblue" points="311.48,-93.15 300.93,-92.17 308.57,-99.51 311.48,-93.15"/>
</g>
<!-- Node25&#45;&gt;Node5 -->
<g id="edge39" class="edge">
<title>Node25&#45;&gt;Node5</title>
<path fill="none" stroke="midnightblue" d="M417.93,-139.73C410.98,-129.7 399.43,-113.01 390.71,-100.42"/>
<polygon fill="midnightblue" stroke="midnightblue" points="393.54,-98.36 384.97,-92.13 387.79,-102.34 393.54,-98.36"/>
</g>
<!-- Node25&#45;&gt;Node14 -->
<g id="edge40" class="edge">
<title>Node25&#45;&gt;Node14</title>
<path fill="none" stroke="midnightblue" d="M405.44,-139.87C375.63,-124.92 322.86,-93.28 348,-67 384.49,-28.85 1153.16,-19.2 1404.93,-17.05"/>
<polygon fill="midnightblue" stroke="midnightblue" points="1405.13,-20.55 1415.1,-16.97 1405.07,-13.55 1405.13,-20.55"/>
</g>
<!-- Node26&#45;&gt;Node2 -->
<g id="edge42" class="edge">
<title>Node26&#45;&gt;Node2</title>
<path fill="none" stroke="midnightblue" d="M1318.74,-135.29C1315.79,-134.81 1312.87,-134.37 1310,-134 885.67,-79.2 772.42,-152.12 348,-98 335.79,-96.44 322.51,-93.73 311.08,-91.07"/>
<polygon fill="midnightblue" stroke="midnightblue" points="311.73,-87.62 301.19,-88.67 310.08,-94.43 311.73,-87.62"/>
</g>
<!-- Node26&#45;&gt;Node3 -->
<g id="edge43" class="edge">
<title>Node26&#45;&gt;Node3</title>
<path fill="none" stroke="midnightblue" d="M1431.04,-136.13C1435.75,-135.32 1440.45,-134.59 1445,-134 1731.01,-96.64 1810.89,-158.13 2093,-98 2096.08,-97.34 2099.24,-96.48 2102.35,-95.49"/>
<polygon fill="midnightblue" stroke="midnightblue" points="2103.77,-98.7 2112.02,-92.06 2101.42,-92.11 2103.77,-98.7"/>
</g>
<!-- Node26&#45;&gt;Node5 -->
<g id="edge44" class="edge">
<title>Node26&#45;&gt;Node5</title>
<path fill="none" stroke="midnightblue" d="M1318.74,-135.3C1315.79,-134.81 1312.87,-134.37 1310,-134 1111.52,-108.11 604.48,-145.33 410,-98 408.01,-97.52 405.99,-96.9 403.99,-96.19"/>
<polygon fill="midnightblue" stroke="midnightblue" points="404.9,-92.78 394.33,-92.14 402.19,-99.23 404.9,-92.78"/>
</g>
<!-- Node26&#45;&gt;Node7 -->
<g id="edge48" class="edge">
<title>Node26&#45;&gt;Node7</title>
<path fill="none" stroke="midnightblue" d="M1318.74,-135.28C1315.79,-134.8 1312.87,-134.37 1310,-134 844.16,-74.62 719.93,-156.63 254,-98 246.64,-97.07 238.88,-95.72 231.38,-94.21"/>
<polygon fill="midnightblue" stroke="midnightblue" points="231.88,-90.73 221.37,-92.07 230.42,-97.58 231.88,-90.73"/>
</g>
<!-- Node26&#45;&gt;Node8 -->
<g id="edge49" class="edge">
<title>Node26&#45;&gt;Node8</title>
<path fill="none" stroke="midnightblue" d="M1318.72,-135.43C1315.78,-134.91 1312.86,-134.43 1310,-134 1105.43,-103.41 1050.83,-126.75 846,-98 838.29,-96.92 830.16,-95.51 822.26,-94"/>
<polygon fill="midnightblue" stroke="midnightblue" points="822.92,-90.56 812.43,-92.05 821.56,-97.43 822.92,-90.56"/>
</g>
<!-- Node26&#45;&gt;Node12 -->
<g id="edge52" class="edge">
<title>Node26&#45;&gt;Node12</title>
<path fill="none" stroke="midnightblue" d="M1431.02,-139.7C1446.23,-137.56 1462.72,-135.47 1478,-134 1784.11,-104.54 1862.59,-124.16 2169,-98 2193.97,-95.87 2221.72,-92.64 2244.44,-89.77"/>
<polygon fill="midnightblue" stroke="midnightblue" points="2245.02,-93.22 2254.5,-88.48 2244.13,-86.28 2245.02,-93.22"/>
</g>
<!-- Node26&#45;&gt;Node14 -->
<g id="edge50" class="edge">
<title>Node26&#45;&gt;Node14</title>
<path fill="none" stroke="midnightblue" d="M1431.1,-136.51C1435.79,-135.62 1440.47,-134.77 1445,-134 1505.11,-123.81 1676.81,-143.85 1717,-98 1764.77,-43.49 1647.73,-25.43 1562.79,-19.46"/>
<polygon fill="midnightblue" stroke="midnightblue" points="1562.81,-15.95 1552.6,-18.78 1562.35,-22.93 1562.81,-15.95"/>
</g>
<!-- Node27 -->
<g id="node27" class="node">
<title>Node27</title>
<g id="a_node27"><a xlink:title=" ">
<polygon fill="white" stroke="#bfbfbf" points="1960,-67.5 1960,-97.5 2084,-97.5 2084,-67.5 1960,-67.5"/>
<text text-anchor="start" x="1968" y="-85.5" font-family="Helvetica,sans-Serif" font-size="10.00">flutter/basic_message</text>
<text text-anchor="middle" x="2022" y="-74.5" font-family="Helvetica,sans-Serif" font-size="10.00">_channel.h</text>
</a>
</g>
</g>
<!-- Node26&#45;&gt;Node27 -->
<g id="edge45" class="edge">
<title>Node26&#45;&gt;Node27</title>
<path fill="none" stroke="midnightblue" d="M1431.05,-136.2C1435.76,-135.38 1440.45,-134.63 1445,-134 1665.05,-103.52 1725.86,-127.88 1949.65,-98.06"/>
<polygon fill="midnightblue" stroke="midnightblue" points="1950.3,-101.5 1959.74,-96.69 1949.36,-94.57 1950.3,-101.5"/>
</g>
<!-- Node28 -->
<g id="node28" class="node">
<title>Node28</title>
<g id="a_node28"><a xlink:title=" ">
<polygon fill="white" stroke="#bfbfbf" points="1260.5,-73 1260.5,-92 1407.5,-92 1407.5,-73 1260.5,-73"/>
<text text-anchor="middle" x="1334" y="-80" font-family="Helvetica,sans-Serif" font-size="10.00">flutter/binary_messenger.h</text>
</a>
</g>
</g>
<!-- Node26&#45;&gt;Node28 -->
<g id="edge46" class="edge">
<title>Node26&#45;&gt;Node28</title>
<path fill="none" stroke="midnightblue" d="M1366.1,-134.4C1359.9,-124.56 1351.58,-111.38 1344.97,-100.89"/>
<polygon fill="midnightblue" stroke="midnightblue" points="1347.78,-98.79 1339.48,-92.19 1341.86,-102.52 1347.78,-98.79"/>
</g>
<!-- Node29 -->
<g id="node29" class="node">
<title>Node29</title>
<g id="a_node29"><a xlink:title=" ">
<polygon fill="white" stroke="#bfbfbf" points="1764,-67.5 1764,-97.5 1942,-97.5 1942,-67.5 1764,-67.5"/>
<text text-anchor="start" x="1772" y="-85.5" font-family="Helvetica,sans-Serif" font-size="10.00">flutter/shell/platform</text>
<text text-anchor="middle" x="1853" y="-74.5" font-family="Helvetica,sans-Serif" font-size="10.00">/common/json_message_codec.h</text>
</a>
</g>
</g>
<!-- Node26&#45;&gt;Node29 -->
<g id="edge47" class="edge">
<title>Node26&#45;&gt;Node29</title>
<path fill="none" stroke="midnightblue" d="M1431.08,-136.44C1435.78,-135.56 1440.47,-134.74 1445,-134 1579.73,-112.14 1614.63,-115.52 1750,-98 1751.28,-97.83 1752.58,-97.67 1753.88,-97.5"/>
<polygon fill="midnightblue" stroke="midnightblue" points="1754.51,-100.94 1763.97,-96.16 1753.6,-94 1754.51,-100.94"/>
</g>
<!-- Node30 -->
<g id="node30" class="node">
<title>Node30</title>
<g id="a_node30"><a xlink:title=" ">
<polygon fill="white" stroke="#bfbfbf" points="1426,-73 1426,-92 1576,-92 1576,-73 1426,-73"/>
<text text-anchor="middle" x="1501" y="-80" font-family="Helvetica,sans-Serif" font-size="10.00">xkbcommon/xkbcommon.h</text>
</a>
</g>
</g>
<!-- Node26&#45;&gt;Node30 -->
<g id="edge51" class="edge">
<title>Node26&#45;&gt;Node30</title>
<path fill="none" stroke="midnightblue" d="M1402.34,-134.4C1424.06,-123.19 1454.2,-107.64 1475.44,-96.69"/>
<polygon fill="midnightblue" stroke="midnightblue" points="1477.23,-99.7 1484.51,-92.01 1474.02,-93.48 1477.23,-99.7"/>
</g>
<!-- Node31&#45;&gt;Node2 -->
<g id="edge54" class="edge">
<title>Node31&#45;&gt;Node2</title>
<path fill="none" stroke="midnightblue" d="M1028.85,-139.85C1013.72,-137.67 997.25,-135.52 982,-134 701.17,-105.92 627.61,-136.4 348,-98 335.81,-96.33 322.53,-93.59 311.1,-90.94"/>
<polygon fill="midnightblue" stroke="midnightblue" points="311.74,-87.5 301.2,-88.57 310.11,-94.3 311.74,-87.5"/>
</g>
<!-- Node31&#45;&gt;Node3 -->
<g id="edge55" class="edge">
<title>Node31&#45;&gt;Node3</title>
<path fill="none" stroke="midnightblue" d="M1137.18,-135.35C1140.15,-134.84 1143.11,-134.38 1146,-134 1563.52,-78.52 1680.31,-182.2 2093,-98 2096.08,-97.37 2099.24,-96.52 2102.36,-95.55"/>
<polygon fill="midnightblue" stroke="midnightblue" points="2103.77,-98.76 2112.03,-92.13 2101.44,-92.16 2103.77,-98.76"/>
</g>
<!-- Node31&#45;&gt;Node5 -->
<g id="edge56" class="edge">
<title>Node31&#45;&gt;Node5</title>
<path fill="none" stroke="midnightblue" d="M1028.94,-136.2C1024.24,-135.37 1019.55,-134.62 1015,-134 748.08,-97.81 671.09,-164.24 410,-98 408.01,-97.5 406,-96.86 404,-96.15"/>
<polygon fill="midnightblue" stroke="midnightblue" points="404.92,-92.74 394.34,-92.07 402.2,-99.19 404.92,-92.74"/>
</g>
<!-- Node31&#45;&gt;Node7 -->
<g id="edge60" class="edge">
<title>Node31&#45;&gt;Node7</title>
<path fill="none" stroke="midnightblue" d="M1028.86,-139.78C1013.73,-137.6 997.25,-135.47 982,-134 659.54,-102.95 575.1,-140.91 254,-98 246.73,-97.03 239.06,-95.66 231.64,-94.16"/>
<polygon fill="midnightblue" stroke="midnightblue" points="232.23,-90.71 221.72,-92.04 230.77,-97.55 232.23,-90.71"/>
</g>
<!-- Node31&#45;&gt;Node8 -->
<g id="edge63" class="edge">
<title>Node31&#45;&gt;Node8</title>
<path fill="none" stroke="midnightblue" d="M1028.81,-136.93C1024.14,-135.94 1019.49,-134.95 1015,-134 949.67,-120.16 874.3,-104.32 825.72,-94.13"/>
<polygon fill="midnightblue" stroke="midnightblue" points="826.28,-90.67 815.77,-92.04 824.84,-97.52 826.28,-90.67"/>
</g>
<!-- Node31&#45;&gt;Node12 -->
<g id="edge66" class="edge">
<title>Node31&#45;&gt;Node12</title>
<path fill="none" stroke="midnightblue" d="M1137.18,-135.34C1140.15,-134.83 1143.11,-134.38 1146,-134 1597.07,-74.71 1715.39,-132.88 2169,-98 2193.9,-96.09 2221.54,-92.89 2244.2,-89.98"/>
<polygon fill="midnightblue" stroke="midnightblue" points="2244.78,-93.44 2254.24,-88.68 2243.87,-86.5 2244.78,-93.44"/>
</g>
<!-- Node31&#45;&gt;Node14 -->
<g id="edge64" class="edge">
<title>Node31&#45;&gt;Node14</title>
<path fill="none" stroke="midnightblue" d="M1129.05,-134.41C1154.64,-125.66 1186.54,-113.19 1213,-98 1232.2,-86.98 1231.99,-76.49 1252,-67 1300.23,-44.12 1359.03,-31.47 1405.37,-24.55"/>
<polygon fill="midnightblue" stroke="midnightblue" points="1405.95,-28 1415.36,-23.11 1404.96,-21.07 1405.95,-28"/>
</g>
<!-- Node31&#45;&gt;Node28 -->
<g id="edge57" class="edge">
<title>Node31&#45;&gt;Node28</title>
<path fill="none" stroke="midnightblue" d="M1137.15,-134.48C1183.32,-122.52 1248.77,-105.57 1291.3,-94.56"/>
<polygon fill="midnightblue" stroke="midnightblue" points="1292.26,-97.92 1301.07,-92.03 1290.51,-91.15 1292.26,-97.92"/>
</g>
<!-- Node31&#45;&gt;Node30 -->
<g id="edge65" class="edge">
<title>Node31&#45;&gt;Node30</title>
<path fill="none" stroke="midnightblue" d="M1137.23,-135.68C1140.19,-135.08 1143.13,-134.52 1146,-134 1265.56,-112.35 1296.89,-116.34 1417,-98 1425.61,-96.69 1434.7,-95.21 1443.6,-93.71"/>
<polygon fill="midnightblue" stroke="midnightblue" points="1444.25,-97.15 1453.52,-92.03 1443.07,-90.25 1444.25,-97.15"/>
</g>
<!-- Node32 -->
<g id="node32" class="node">
<title>Node32</title>
<g id="a_node32"><a xlink:title=" ">
<polygon fill="white" stroke="#bfbfbf" points="419.5,-73 419.5,-92 558.5,-92 558.5,-73 419.5,-73"/>
<text text-anchor="middle" x="489" y="-80" font-family="Helvetica,sans-Serif" font-size="10.00">flutter/method_channel.h</text>
</a>
</g>
</g>
<!-- Node31&#45;&gt;Node32 -->
<g id="edge58" class="edge">
<title>Node31&#45;&gt;Node32</title>
<path fill="none" stroke="midnightblue" d="M1028.92,-136.31C1024.23,-135.45 1019.54,-134.66 1015,-134 817.79,-105.16 765.6,-124.02 568,-98 559.26,-96.85 550.02,-95.38 541.06,-93.83"/>
<polygon fill="midnightblue" stroke="midnightblue" points="541.56,-90.36 531.1,-92.04 540.33,-97.25 541.56,-90.36"/>
</g>
<!-- Node33 -->
<g id="node33" class="node">
<title>Node33</title>
<g id="a_node33"><a xlink:title=" ">
<polygon fill="white" stroke="#bfbfbf" points="576.5,-67.5 576.5,-97.5 695.5,-97.5 695.5,-67.5 576.5,-67.5"/>
<text text-anchor="start" x="584.5" y="-85.5" font-family="Helvetica,sans-Serif" font-size="10.00">flutter/method_result</text>
<text text-anchor="middle" x="636" y="-74.5" font-family="Helvetica,sans-Serif" font-size="10.00">_functions.h</text>
</a>
</g>
</g>
<!-- Node31&#45;&gt;Node33 -->
<g id="edge59" class="edge">
<title>Node31&#45;&gt;Node33</title>
<path fill="none" stroke="midnightblue" d="M1028.9,-136.48C1024.21,-135.59 1019.53,-134.74 1015,-134 881.34,-112.04 843.66,-119.89 705.87,-98.04"/>
<polygon fill="midnightblue" stroke="midnightblue" points="706.21,-94.55 695.78,-96.41 705.09,-101.46 706.21,-94.55"/>
</g>
<!-- Node34 -->
<g id="node34" class="node">
<title>Node34</title>
<g id="a_node34"><a xlink:title=" ">
<polygon fill="white" stroke="#bfbfbf" points="854.5,-67.5 854.5,-97.5 1025.5,-97.5 1025.5,-67.5 854.5,-67.5"/>
<text text-anchor="start" x="862.5" y="-85.5" font-family="Helvetica,sans-Serif" font-size="10.00">flutter/shell/platform</text>
<text text-anchor="middle" x="940" y="-74.5" font-family="Helvetica,sans-Serif" font-size="10.00">/common/json_method_codec.h</text>
</a>
</g>
</g>
<!-- Node31&#45;&gt;Node34 -->
<g id="edge61" class="edge">
<title>Node31&#45;&gt;Node34</title>
<path fill="none" stroke="midnightblue" d="M1051.97,-134.4C1030.98,-124.86 1003.06,-112.16 980.35,-101.84"/>
<polygon fill="midnightblue" stroke="midnightblue" points="981.52,-98.53 970.97,-97.58 978.62,-104.9 981.52,-98.53"/>
</g>
<!-- Node35 -->
<g id="node35" class="node">
<title>Node35</title>
<g id="a_node35"><a xlink:title=" ">
<polygon fill="white" stroke="#bfbfbf" points="1044,-67.5 1044,-97.5 1204,-97.5 1204,-67.5 1044,-67.5"/>
<text text-anchor="start" x="1052" y="-85.5" font-family="Helvetica,sans-Serif" font-size="10.00">flutter/shell/platform</text>
<text text-anchor="middle" x="1124" y="-74.5" font-family="Helvetica,sans-Serif" font-size="10.00">/common/text_input_model.h</text>
</a>
</g>
</g>
<!-- Node31&#45;&gt;Node35 -->
<g id="edge62" class="edge">
<title>Node31&#45;&gt;Node35</title>
<path fill="none" stroke="midnightblue" d="M1091.9,-134.4C1097.11,-126.13 1103.81,-115.51 1109.74,-106.1"/>
<polygon fill="midnightblue" stroke="midnightblue" points="1112.75,-107.9 1115.12,-97.58 1106.83,-104.17 1112.75,-107.9"/>
</g>
</g>
</svg>
