<?xml version="1.0" encoding="UTF-8" standalone="no"?>
<!DOCTYPE svg PUBLIC "-//W3C//DTD SVG 1.1//EN"
 "http://www.w3.org/Graphics/SVG/1.1/DTD/svg11.dtd">
<!-- Generated by graphviz version 5.0.0 (0)
 -->
<!-- Title: /mnt/raid10/stargate/ivi&#45;homescreen/shell/view/flutter_view.h Pages: 1 -->
<svg width="3738pt" height="467pt"
 viewBox="0.00 0.00 3737.50 467.00" xmlns="http://www.w3.org/2000/svg" xmlns:xlink="http://www.w3.org/1999/xlink">
<g id="graph0" class="graph" transform="scale(1 1) rotate(0) translate(4 463)">
<title>/mnt/raid10/stargate/ivi&#45;homescreen/shell/view/flutter_view.h</title>
<!-- Node1 -->
<g id="node1" class="node">
<title>Node1</title>
<g id="a_node1"><a xlink:title=" ">
<polygon fill="#999999" stroke="#666666" points="1599,-459 1490,-459 1490,-418 1599,-418 1599,-459"/>
<text text-anchor="start" x="1498" y="-447" font-family="Helvetica,sans-Serif" font-size="10.00">/mnt/raid10/stargate</text>
<text text-anchor="start" x="1498" y="-436" font-family="Helvetica,sans-Serif" font-size="10.00">/ivi&#45;homescreen/shell</text>
<text text-anchor="middle" x="1544.5" y="-425" font-family="Helvetica,sans-Serif" font-size="10.00">/view/flutter_view.h</text>
</a>
</g>
</g>
<!-- Node2 -->
<g id="node2" class="node">
<title>Node2</title>
<g id="a_node2"><a xlink:href="app_8cc.html" target="_top" xlink:title=" ">
<polygon fill="white" stroke="#666666" points="109,-299.5 0,-299.5 0,-258.5 109,-258.5 109,-299.5"/>
<text text-anchor="start" x="8" y="-287.5" font-family="Helvetica,sans-Serif" font-size="10.00">/mnt/raid10/stargate</text>
<text text-anchor="start" x="8" y="-276.5" font-family="Helvetica,sans-Serif" font-size="10.00">/ivi&#45;homescreen/shell</text>
<text text-anchor="middle" x="54.5" y="-265.5" font-family="Helvetica,sans-Serif" font-size="10.00">/app.cc</text>
</a>
</g>
</g>
<!-- Node1&#45;&gt;Node2 -->
<g id="edge1" class="edge">
<title>Node1&#45;&gt;Node2</title>
<path fill="none" stroke="#63b8ff" d="M1479.79,-437.03C1205.25,-434.77 148.25,-423.42 91.5,-382 65.33,-362.9 57.62,-323.42 55.38,-299.57"/>
<polygon fill="#63b8ff" stroke="#63b8ff" points="1479.96,-440.53 1489.99,-437.11 1480.02,-433.53 1479.96,-440.53"/>
</g>
<!-- Node3 -->
<g id="node3" class="node">
<title>Node3</title>
<g id="a_node3"><a xlink:href="app_8h.html" target="_top" xlink:title=" ">
<polygon fill="white" stroke="#666666" points="236.5,-376.5 100.5,-376.5 100.5,-346.5 236.5,-346.5 236.5,-376.5"/>
<text text-anchor="start" x="108.5" y="-364.5" font-family="Helvetica,sans-Serif" font-size="10.00">/mnt/raid10/stargate</text>
<text text-anchor="middle" x="168.5" y="-353.5" font-family="Helvetica,sans-Serif" font-size="10.00">/ivi&#45;homescreen/shell/app.h</text>
</a>
</g>
</g>
<!-- Node1&#45;&gt;Node3 -->
<g id="edge2" class="edge">
<title>Node1&#45;&gt;Node3</title>
<path fill="none" stroke="#63b8ff" d="M1479.73,-436.36C1252.44,-432.08 491.92,-415.57 250.5,-382 240.93,-380.67 230.85,-378.73 221.15,-376.58"/>
<polygon fill="#63b8ff" stroke="#63b8ff" points="1479.76,-439.86 1489.83,-436.54 1479.9,-432.86 1479.76,-439.86"/>
</g>
<!-- Node5 -->
<g id="node5" class="node">
<title>Node5</title>
<g id="a_node5"><a xlink:href="engine_8h.html" target="_top" xlink:title=" ">
<polygon fill="white" stroke="#666666" points="1981,-382 1872,-382 1872,-341 1981,-341 1981,-382"/>
<text text-anchor="start" x="1880" y="-370" font-family="Helvetica,sans-Serif" font-size="10.00">/mnt/raid10/stargate</text>
<text text-anchor="start" x="1880" y="-359" font-family="Helvetica,sans-Serif" font-size="10.00">/ivi&#45;homescreen/shell</text>
<text text-anchor="middle" x="1926.5" y="-348" font-family="Helvetica,sans-Serif" font-size="10.00">/engine.h</text>
</a>
</g>
</g>
<!-- Node1&#45;&gt;Node5 -->
<g id="edge5" class="edge">
<title>Node1&#45;&gt;Node5</title>
<path fill="none" stroke="#63b8ff" d="M1609.34,-424.77C1683.19,-410.27 1802.56,-386.83 1871.87,-373.23"/>
<polygon fill="#63b8ff" stroke="#63b8ff" points="1608.37,-421.39 1599.23,-426.75 1609.72,-428.26 1608.37,-421.39"/>
</g>
<!-- Node10 -->
<g id="node10" class="node">
<title>Node10</title>
<g id="a_node10"><a xlink:href="texture__navi__render__egl_8cc.html" target="_top" xlink:title=" ">
<polygon fill="white" stroke="#666666" points="3104,-140 2949,-140 2949,-88 3104,-88 3104,-140"/>
<text text-anchor="start" x="2957" y="-128" font-family="Helvetica,sans-Serif" font-size="10.00">/mnt/raid10/stargate</text>
<text text-anchor="start" x="2957" y="-117" font-family="Helvetica,sans-Serif" font-size="10.00">/ivi&#45;homescreen/shell</text>
<text text-anchor="start" x="2957" y="-106" font-family="Helvetica,sans-Serif" font-size="10.00">/textures/navi_render</text>
<text text-anchor="middle" x="3026.5" y="-95" font-family="Helvetica,sans-Serif" font-size="10.00">_egl/texture_navi_render_egl.cc</text>
</a>
</g>
</g>
<!-- Node1&#45;&gt;Node10 -->
<g id="edge49" class="edge">
<title>Node1&#45;&gt;Node10</title>
<path fill="none" stroke="#63b8ff" d="M1609.12,-437.46C1914.08,-437.03 3201.64,-432.21 3373.5,-382 3437.59,-363.28 3469.54,-363.07 3502.5,-305 3589.09,-152.47 3260.09,-122.18 3104.19,-116.32"/>
<polygon fill="#63b8ff" stroke="#63b8ff" points="1609.11,-433.96 1599.12,-437.48 1609.12,-440.96 1609.11,-433.96"/>
</g>
<!-- Node11 -->
<g id="node11" class="node">
<title>Node11</title>
<g id="a_node11"><a xlink:href="texture__test__egl_8cc.html" target="_top" xlink:title=" ">
<polygon fill="white" stroke="#666666" points="3491,-140 3366,-140 3366,-88 3491,-88 3491,-140"/>
<text text-anchor="start" x="3374" y="-128" font-family="Helvetica,sans-Serif" font-size="10.00">/mnt/raid10/stargate</text>
<text text-anchor="start" x="3374" y="-117" font-family="Helvetica,sans-Serif" font-size="10.00">/ivi&#45;homescreen/shell</text>
<text text-anchor="start" x="3374" y="-106" font-family="Helvetica,sans-Serif" font-size="10.00">/textures/test_egl/texture</text>
<text text-anchor="middle" x="3428.5" y="-95" font-family="Helvetica,sans-Serif" font-size="10.00">_test_egl.cc</text>
</a>
</g>
</g>
<!-- Node1&#45;&gt;Node11 -->
<g id="edge50" class="edge">
<title>Node1&#45;&gt;Node11</title>
<path fill="none" stroke="#63b8ff" d="M1609.44,-436.85C1932.12,-433.44 3350.94,-416.55 3437.5,-382 3501.5,-356.46 3543.96,-318.8 3523.5,-253 3509.77,-208.84 3476.45,-166.3 3453.17,-140.4"/>
<polygon fill="#63b8ff" stroke="#63b8ff" points="1609.28,-433.35 1599.32,-436.95 1609.36,-440.35 1609.28,-433.35"/>
</g>
<!-- Node16 -->
<g id="node16" class="node">
<title>Node16</title>
<g id="a_node16"><a xlink:href="flutter__view_8cc.html" target="_top" xlink:title=" ">
<polygon fill="white" stroke="#666666" points="551,-134.5 442,-134.5 442,-93.5 551,-93.5 551,-134.5"/>
<text text-anchor="start" x="450" y="-122.5" font-family="Helvetica,sans-Serif" font-size="10.00">/mnt/raid10/stargate</text>
<text text-anchor="start" x="450" y="-111.5" font-family="Helvetica,sans-Serif" font-size="10.00">/ivi&#45;homescreen/shell</text>
<text text-anchor="middle" x="496.5" y="-100.5" font-family="Helvetica,sans-Serif" font-size="10.00">/view/flutter_view.cc</text>
</a>
</g>
</g>
<!-- Node1&#45;&gt;Node16 -->
<g id="edge52" class="edge">
<title>Node1&#45;&gt;Node16</title>
<path fill="none" stroke="#63b8ff" d="M1479.56,-436.76C1252.01,-433.86 499.11,-421.33 398.5,-382 332.91,-356.36 274.53,-315.74 306.5,-253 335.93,-195.25 402.1,-156 448.01,-134.55"/>
<polygon fill="#63b8ff" stroke="#63b8ff" points="1479.63,-440.27 1489.67,-436.89 1479.72,-433.27 1479.63,-440.27"/>
</g>
<!-- Node20 -->
<g id="node20" class="node">
<title>Node20</title>
<g id="a_node20"><a xlink:href="comp__region_8cc.html" target="_top" xlink:title=" ">
<polygon fill="white" stroke="#666666" points="468.5,-305 330.5,-305 330.5,-253 468.5,-253 468.5,-305"/>
<text text-anchor="start" x="338.5" y="-293" font-family="Helvetica,sans-Serif" font-size="10.00">/mnt/raid10/stargate</text>
<text text-anchor="start" x="338.5" y="-282" font-family="Helvetica,sans-Serif" font-size="10.00">/ivi&#45;homescreen/shell</text>
<text text-anchor="start" x="338.5" y="-271" font-family="Helvetica,sans-Serif" font-size="10.00">/static_plugins/comp_region</text>
<text text-anchor="middle" x="399.5" y="-260" font-family="Helvetica,sans-Serif" font-size="10.00">/comp_region.cc</text>
</a>
</g>
</g>
<!-- Node1&#45;&gt;Node20 -->
<g id="edge45" class="edge">
<title>Node1&#45;&gt;Node20</title>
<path fill="none" stroke="#63b8ff" d="M1479.72,-433.23C1312.9,-421.43 855.53,-383.86 482.5,-305 477.94,-304.04 473.26,-302.94 468.57,-301.75"/>
<polygon fill="#63b8ff" stroke="#63b8ff" points="1479.59,-436.73 1489.81,-433.94 1480.08,-429.75 1479.59,-436.73"/>
</g>
<!-- Node37 -->
<g id="node37" class="node">
<title>Node37</title>
<g id="a_node37"><a xlink:href="texture__egl_8h.html" target="_top" xlink:title=" ">
<polygon fill="white" stroke="#666666" points="3364.5,-382 3234.5,-382 3234.5,-341 3364.5,-341 3364.5,-382"/>
<text text-anchor="start" x="3242.5" y="-370" font-family="Helvetica,sans-Serif" font-size="10.00">/mnt/raid10/stargate</text>
<text text-anchor="start" x="3242.5" y="-359" font-family="Helvetica,sans-Serif" font-size="10.00">/ivi&#45;homescreen/shell</text>
<text text-anchor="middle" x="3299.5" y="-348" font-family="Helvetica,sans-Serif" font-size="10.00">/textures/egl/texture_egl.h</text>
</a>
</g>
</g>
<!-- Node1&#45;&gt;Node37 -->
<g id="edge46" class="edge">
<title>Node1&#45;&gt;Node37</title>
<path fill="none" stroke="#63b8ff" d="M1609.69,-434.71C1885.96,-422.91 2958.53,-377.07 3234.47,-365.28"/>
<polygon fill="#63b8ff" stroke="#63b8ff" points="1609.28,-431.23 1599.43,-435.15 1609.57,-438.22 1609.28,-431.23"/>
</g>
<!-- Node39 -->
<g id="node39" class="node">
<title>Node39</title>
<g id="a_node39"><a xlink:href="compositor__surface_8cc.html" target="_top" xlink:title=" ">
<polygon fill="white" stroke="#666666" points="3729.5,-382 3587.5,-382 3587.5,-341 3729.5,-341 3729.5,-382"/>
<text text-anchor="start" x="3595.5" y="-370" font-family="Helvetica,sans-Serif" font-size="10.00">/mnt/raid10/stargate</text>
<text text-anchor="start" x="3595.5" y="-359" font-family="Helvetica,sans-Serif" font-size="10.00">/ivi&#45;homescreen/shell</text>
<text text-anchor="middle" x="3658.5" y="-348" font-family="Helvetica,sans-Serif" font-size="10.00">/view/compositor_surface.cc</text>
</a>
</g>
</g>
<!-- Node1&#45;&gt;Node39 -->
<g id="edge51" class="edge">
<title>Node1&#45;&gt;Node39</title>
<path fill="none" stroke="#63b8ff" d="M1609.42,-437.45C1911.38,-436.98 3180.3,-431.98 3573.5,-382 3578.01,-381.43 3582.62,-380.72 3587.26,-379.92"/>
<polygon fill="#63b8ff" stroke="#63b8ff" points="1609.09,-433.95 1599.09,-437.47 1609.1,-440.95 1609.09,-433.95"/>
</g>
<!-- Node3&#45;&gt;Node2 -->
<g id="edge3" class="edge">
<title>Node3&#45;&gt;Node2</title>
<path fill="none" stroke="#63b8ff" d="M140.4,-340.65C122.68,-328.14 99.89,-312.05 82.24,-299.59"/>
<polygon fill="#63b8ff" stroke="#63b8ff" points="138.46,-343.57 148.64,-346.48 142.49,-337.85 138.46,-343.57"/>
</g>
<!-- Node4 -->
<g id="node4" class="node">
<title>Node4</title>
<g id="a_node4"><a xlink:href="main_8cc.html" target="_top" xlink:title=" ">
<polygon fill="white" stroke="#666666" points="236,-299.5 127,-299.5 127,-258.5 236,-258.5 236,-299.5"/>
<text text-anchor="start" x="135" y="-287.5" font-family="Helvetica,sans-Serif" font-size="10.00">/mnt/raid10/stargate</text>
<text text-anchor="start" x="135" y="-276.5" font-family="Helvetica,sans-Serif" font-size="10.00">/ivi&#45;homescreen/shell</text>
<text text-anchor="middle" x="181.5" y="-265.5" font-family="Helvetica,sans-Serif" font-size="10.00">/main.cc</text>
</a>
</g>
</g>
<!-- Node3&#45;&gt;Node4 -->
<g id="edge4" class="edge">
<title>Node3&#45;&gt;Node4</title>
<path fill="none" stroke="#63b8ff" d="M172.39,-336.44C174.29,-324.67 176.54,-310.69 178.34,-299.59"/>
<polygon fill="#63b8ff" stroke="#63b8ff" points="168.9,-336.05 170.76,-346.48 175.81,-337.16 168.9,-336.05"/>
</g>
<!-- Node6 -->
<g id="node6" class="node">
<title>Node6</title>
<g id="a_node6"><a xlink:href="backend_8h.html" target="_top" xlink:title=" ">
<polygon fill="white" stroke="#666666" points="2235,-299.5 2126,-299.5 2126,-258.5 2235,-258.5 2235,-299.5"/>
<text text-anchor="start" x="2134" y="-287.5" font-family="Helvetica,sans-Serif" font-size="10.00">/mnt/raid10/stargate</text>
<text text-anchor="start" x="2134" y="-276.5" font-family="Helvetica,sans-Serif" font-size="10.00">/ivi&#45;homescreen/shell</text>
<text text-anchor="middle" x="2180.5" y="-265.5" font-family="Helvetica,sans-Serif" font-size="10.00">/backend/backend.h</text>
</a>
</g>
</g>
<!-- Node5&#45;&gt;Node6 -->
<g id="edge6" class="edge">
<title>Node5&#45;&gt;Node6</title>
<path fill="none" stroke="#63b8ff" d="M1991.15,-340.87C2025.85,-330.86 2069.16,-318.06 2107.5,-305 2113.48,-302.96 2119.73,-300.7 2125.96,-298.38"/>
<polygon fill="#63b8ff" stroke="#63b8ff" points="1989.78,-337.62 1981.14,-343.75 1991.72,-344.35 1989.78,-337.62"/>
</g>
<!-- Node8 -->
<g id="node8" class="node">
<title>Node8</title>
<g id="a_node8"><a xlink:href="wayland__egl_8cc.html" target="_top" xlink:title=" ">
<polygon fill="white" stroke="#666666" points="2710,-134.5 2583,-134.5 2583,-93.5 2710,-93.5 2710,-134.5"/>
<text text-anchor="start" x="2591" y="-122.5" font-family="Helvetica,sans-Serif" font-size="10.00">/mnt/raid10/stargate</text>
<text text-anchor="start" x="2591" y="-111.5" font-family="Helvetica,sans-Serif" font-size="10.00">/ivi&#45;homescreen/shell</text>
<text text-anchor="middle" x="2646.5" y="-100.5" font-family="Helvetica,sans-Serif" font-size="10.00">/backend/wayland_egl.cc</text>
</a>
</g>
</g>
<!-- Node5&#45;&gt;Node8 -->
<g id="edge21" class="edge">
<title>Node5&#45;&gt;Node8</title>
<path fill="none" stroke="#63b8ff" d="M1991.19,-354.78C2076.47,-346.42 2221.23,-329.2 2268.5,-305 2297.59,-290.11 2293.39,-271.26 2320.5,-253 2404.09,-196.68 2514.37,-155.88 2582.84,-133.84"/>
<polygon fill="#63b8ff" stroke="#63b8ff" points="1990.71,-351.31 1981.09,-355.75 1991.38,-358.27 1990.71,-351.31"/>
</g>
<!-- Node9 -->
<g id="node9" class="node">
<title>Node9</title>
<g id="a_node9"><a xlink:href="gstreamer__egl_8cc.html" target="_top" xlink:title=" ">
<polygon fill="white" stroke="#666666" points="2946.5,-52 2820.5,-52 2820.5,0 2946.5,0 2946.5,-52"/>
<text text-anchor="start" x="2828.5" y="-40" font-family="Helvetica,sans-Serif" font-size="10.00">/mnt/raid10/stargate</text>
<text text-anchor="start" x="2828.5" y="-29" font-family="Helvetica,sans-Serif" font-size="10.00">/ivi&#45;homescreen/shell</text>
<text text-anchor="start" x="2828.5" y="-18" font-family="Helvetica,sans-Serif" font-size="10.00">/static_plugins/gstreamer</text>
<text text-anchor="middle" x="2883.5" y="-7" font-family="Helvetica,sans-Serif" font-size="10.00">_egl/gstreamer_egl.cc</text>
</a>
</g>
</g>
<!-- Node5&#45;&gt;Node9 -->
<g id="edge28" class="edge">
<title>Node5&#45;&gt;Node9</title>
<path fill="none" stroke="#63b8ff" d="M1991.09,-360.1C2242.63,-358.24 3144.83,-348.54 3186.5,-305 3242.86,-246.11 3200.36,-162.72 3112.5,-88 3066.11,-48.55 2996.82,-34.33 2946.62,-29.35"/>
<polygon fill="#63b8ff" stroke="#63b8ff" points="1990.99,-356.6 1981.01,-360.18 1991.04,-363.6 1990.99,-356.6"/>
</g>
<!-- Node13 -->
<g id="node13" class="node">
<title>Node13</title>
<g id="a_node13"><a xlink:href="wayland__vulkan_8cc.html" target="_top" xlink:title=" ">
<polygon fill="white" stroke="#666666" points="2274,-134.5 2131,-134.5 2131,-93.5 2274,-93.5 2274,-134.5"/>
<text text-anchor="start" x="2139" y="-122.5" font-family="Helvetica,sans-Serif" font-size="10.00">/mnt/raid10/stargate</text>
<text text-anchor="start" x="2139" y="-111.5" font-family="Helvetica,sans-Serif" font-size="10.00">/ivi&#45;homescreen/shell</text>
<text text-anchor="middle" x="2202.5" y="-100.5" font-family="Helvetica,sans-Serif" font-size="10.00">/backend/wayland_vulkan.cc</text>
</a>
</g>
</g>
<!-- Node5&#45;&gt;Node13 -->
<g id="edge22" class="edge">
<title>Node5&#45;&gt;Node13</title>
<path fill="none" stroke="#63b8ff" d="M1991.22,-358.63C2074.41,-354.72 2211.93,-342.58 2243.5,-305 2280.38,-261.1 2260.22,-230.84 2243.5,-176 2238.85,-160.74 2228.96,-145.84 2220.07,-134.59"/>
<polygon fill="#63b8ff" stroke="#63b8ff" points="1990.94,-355.14 1981.11,-359.08 1991.25,-362.14 1990.94,-355.14"/>
</g>
<!-- Node5&#45;&gt;Node16 -->
<g id="edge42" class="edge">
<title>Node5&#45;&gt;Node16</title>
<path fill="none" stroke="#63b8ff" d="M1861.59,-360.29C1591.08,-359.13 565.07,-351.66 515.5,-305 468.43,-260.69 482.04,-173.64 491.2,-134.67"/>
<polygon fill="#63b8ff" stroke="#63b8ff" points="1861.63,-363.79 1871.65,-360.33 1861.66,-356.79 1861.63,-363.79"/>
</g>
<!-- Node17 -->
<g id="node17" class="node">
<title>Node17</title>
<g id="a_node17"><a xlink:href="window_8cc.html" target="_top" xlink:title=" ">
<polygon fill="white" stroke="#666666" points="1301,-134.5 1192,-134.5 1192,-93.5 1301,-93.5 1301,-134.5"/>
<text text-anchor="start" x="1200" y="-122.5" font-family="Helvetica,sans-Serif" font-size="10.00">/mnt/raid10/stargate</text>
<text text-anchor="start" x="1200" y="-111.5" font-family="Helvetica,sans-Serif" font-size="10.00">/ivi&#45;homescreen/shell</text>
<text text-anchor="middle" x="1246.5" y="-100.5" font-family="Helvetica,sans-Serif" font-size="10.00">/wayland/window.cc</text>
</a>
</g>
</g>
<!-- Node5&#45;&gt;Node17 -->
<g id="edge44" class="edge">
<title>Node5&#45;&gt;Node17</title>
<path fill="none" stroke="#63b8ff" d="M1861.84,-359.68C1703.75,-357.02 1307.44,-346.28 1265.5,-305 1219.55,-259.77 1232.45,-173.59 1241.31,-134.8"/>
<polygon fill="#63b8ff" stroke="#63b8ff" points="1861.85,-363.18 1871.91,-359.84 1861.97,-356.18 1861.85,-363.18"/>
</g>
<!-- Node18 -->
<g id="node18" class="node">
<title>Node18</title>
<g id="a_node18"><a xlink:href="engine_8cc.html" target="_top" xlink:title=" ">
<polygon fill="white" stroke="#666666" points="2439,-299.5 2330,-299.5 2330,-258.5 2439,-258.5 2439,-299.5"/>
<text text-anchor="start" x="2338" y="-287.5" font-family="Helvetica,sans-Serif" font-size="10.00">/mnt/raid10/stargate</text>
<text text-anchor="start" x="2338" y="-276.5" font-family="Helvetica,sans-Serif" font-size="10.00">/ivi&#45;homescreen/shell</text>
<text text-anchor="middle" x="2384.5" y="-265.5" font-family="Helvetica,sans-Serif" font-size="10.00">/engine.cc</text>
</a>
</g>
</g>
<!-- Node5&#45;&gt;Node18 -->
<g id="edge23" class="edge">
<title>Node5&#45;&gt;Node18</title>
<path fill="none" stroke="#63b8ff" d="M1991.44,-355.35C2069.32,-348.24 2203.38,-332.99 2315.5,-305 2321.68,-303.46 2328.08,-301.56 2334.38,-299.51"/>
<polygon fill="#63b8ff" stroke="#63b8ff" points="1990.95,-351.88 1981.3,-356.26 1991.57,-358.86 1990.95,-351.88"/>
</g>
<!-- Node19 -->
<g id="node19" class="node">
<title>Node19</title>
<g id="a_node19"><a xlink:href="accessibility_8cc.html" target="_top" xlink:title=" ">
<polygon fill="white" stroke="#666666" points="2594,-305 2457,-305 2457,-253 2594,-253 2594,-305"/>
<text text-anchor="start" x="2465" y="-293" font-family="Helvetica,sans-Serif" font-size="10.00">/mnt/raid10/stargate</text>
<text text-anchor="start" x="2465" y="-282" font-family="Helvetica,sans-Serif" font-size="10.00">/ivi&#45;homescreen/shell</text>
<text text-anchor="start" x="2465" y="-271" font-family="Helvetica,sans-Serif" font-size="10.00">/static_plugins/accessibility</text>
<text text-anchor="middle" x="2525.5" y="-260" font-family="Helvetica,sans-Serif" font-size="10.00">/accessibility.cc</text>
</a>
</g>
</g>
<!-- Node5&#45;&gt;Node19 -->
<g id="edge24" class="edge">
<title>Node5&#45;&gt;Node19</title>
<path fill="none" stroke="#63b8ff" d="M1991.24,-357.85C2090.4,-352.84 2285.47,-339.22 2447.5,-305 2450.56,-304.35 2453.67,-303.63 2456.8,-302.86"/>
<polygon fill="#63b8ff" stroke="#63b8ff" points="1990.89,-354.36 1981.07,-358.35 1991.23,-361.35 1990.89,-354.36"/>
</g>
<!-- Node5&#45;&gt;Node20 -->
<g id="edge25" class="edge">
<title>Node5&#45;&gt;Node20</title>
<path fill="none" stroke="#63b8ff" d="M1861.64,-360.19C1617.42,-358.7 753.43,-350.25 482.5,-305 478.05,-304.26 473.5,-303.34 468.94,-302.31"/>
<polygon fill="#63b8ff" stroke="#63b8ff" points="1861.76,-363.69 1871.78,-360.25 1861.8,-356.69 1861.76,-363.69"/>
</g>
<!-- Node21 -->
<g id="node21" class="node">
<title>Node21</title>
<g id="a_node21"><a xlink:href="comp__surf_8cc.html" target="_top" xlink:title=" ">
<polygon fill="white" stroke="#666666" points="2740.5,-305 2612.5,-305 2612.5,-253 2740.5,-253 2740.5,-305"/>
<text text-anchor="start" x="2620.5" y="-293" font-family="Helvetica,sans-Serif" font-size="10.00">/mnt/raid10/stargate</text>
<text text-anchor="start" x="2620.5" y="-282" font-family="Helvetica,sans-Serif" font-size="10.00">/ivi&#45;homescreen/shell</text>
<text text-anchor="start" x="2620.5" y="-271" font-family="Helvetica,sans-Serif" font-size="10.00">/static_plugins/comp_surf</text>
<text text-anchor="middle" x="2676.5" y="-260" font-family="Helvetica,sans-Serif" font-size="10.00">/comp_surf.cc</text>
</a>
</g>
</g>
<!-- Node5&#45;&gt;Node21 -->
<g id="edge26" class="edge">
<title>Node5&#45;&gt;Node21</title>
<path fill="none" stroke="#63b8ff" d="M1991.25,-360.4C2112.49,-359.08 2381.48,-350.69 2602.5,-305 2605.69,-304.34 2608.93,-303.59 2612.18,-302.76"/>
<polygon fill="#63b8ff" stroke="#63b8ff" points="1990.99,-356.91 1981.03,-360.5 1991.06,-363.91 1990.99,-356.91"/>
</g>
<!-- Node22 -->
<g id="node22" class="node">
<title>Node22</title>
<g id="a_node22"><a xlink:href="desktop__window_8cc.html" target="_top" xlink:title=" ">
<polygon fill="white" stroke="#666666" points="2902,-305 2759,-305 2759,-253 2902,-253 2902,-305"/>
<text text-anchor="start" x="2767" y="-293" font-family="Helvetica,sans-Serif" font-size="10.00">/mnt/raid10/stargate</text>
<text text-anchor="start" x="2767" y="-282" font-family="Helvetica,sans-Serif" font-size="10.00">/ivi&#45;homescreen/shell</text>
<text text-anchor="start" x="2767" y="-271" font-family="Helvetica,sans-Serif" font-size="10.00">/static_plugins/desktop</text>
<text text-anchor="middle" x="2830.5" y="-260" font-family="Helvetica,sans-Serif" font-size="10.00">_window/desktop_window.cc</text>
</a>
</g>
</g>
<!-- Node5&#45;&gt;Node22 -->
<g id="edge27" class="edge">
<title>Node5&#45;&gt;Node22</title>
<path fill="none" stroke="#63b8ff" d="M1991.58,-361.21C2131.53,-361.62 2470.99,-356.65 2749.5,-305 2752.54,-304.44 2755.62,-303.8 2758.73,-303.1"/>
<polygon fill="#63b8ff" stroke="#63b8ff" points="1991.47,-357.71 1981.46,-361.17 1991.44,-364.71 1991.47,-357.71"/>
</g>
<!-- Node23 -->
<g id="node23" class="node">
<title>Node23</title>
<g id="a_node23"><a xlink:href="isolate_8cc.html" target="_top" xlink:title=" ">
<polygon fill="white" stroke="#666666" points="3031,-305 2920,-305 2920,-253 3031,-253 3031,-305"/>
<text text-anchor="start" x="2928" y="-293" font-family="Helvetica,sans-Serif" font-size="10.00">/mnt/raid10/stargate</text>
<text text-anchor="start" x="2928" y="-282" font-family="Helvetica,sans-Serif" font-size="10.00">/ivi&#45;homescreen/shell</text>
<text text-anchor="start" x="2928" y="-271" font-family="Helvetica,sans-Serif" font-size="10.00">/static_plugins/isolate</text>
<text text-anchor="middle" x="2975.5" y="-260" font-family="Helvetica,sans-Serif" font-size="10.00">/isolate.cc</text>
</a>
</g>
</g>
<!-- Node5&#45;&gt;Node23 -->
<g id="edge29" class="edge">
<title>Node5&#45;&gt;Node23</title>
<path fill="none" stroke="#63b8ff" d="M1991.35,-359.46C2181.31,-356.01 2734.23,-342.9 2910.5,-305 2913.57,-304.34 2916.69,-303.55 2919.82,-302.68"/>
<polygon fill="#63b8ff" stroke="#63b8ff" points="1991.17,-355.97 1981.23,-359.64 1991.3,-362.96 1991.17,-355.97"/>
</g>
<!-- Node24 -->
<g id="node24" class="node">
<title>Node24</title>
<g id="a_node24"><a xlink:href="key__event_8cc.html" target="_top" xlink:title=" ">
<polygon fill="white" stroke="#666666" points="3177.5,-305 3049.5,-305 3049.5,-253 3177.5,-253 3177.5,-305"/>
<text text-anchor="start" x="3057.5" y="-293" font-family="Helvetica,sans-Serif" font-size="10.00">/mnt/raid10/stargate</text>
<text text-anchor="start" x="3057.5" y="-282" font-family="Helvetica,sans-Serif" font-size="10.00">/ivi&#45;homescreen/shell</text>
<text text-anchor="start" x="3057.5" y="-271" font-family="Helvetica,sans-Serif" font-size="10.00">/static_plugins/key_event</text>
<text text-anchor="middle" x="3113.5" y="-260" font-family="Helvetica,sans-Serif" font-size="10.00">/key_event.cc</text>
</a>
</g>
</g>
<!-- Node5&#45;&gt;Node24 -->
<g id="edge30" class="edge">
<title>Node5&#45;&gt;Node24</title>
<path fill="none" stroke="#63b8ff" d="M1991.15,-359.61C2197.15,-356.42 2836.47,-343.59 3039.5,-305 3042.7,-304.39 3045.95,-303.68 3049.21,-302.88"/>
<polygon fill="#63b8ff" stroke="#63b8ff" points="1991.04,-356.11 1981.09,-359.77 1991.14,-363.11 1991.04,-356.11"/>
</g>
<!-- Node25 -->
<g id="node25" class="node">
<title>Node25</title>
<g id="a_node25"><a xlink:href="mouse__cursor_8cc.html" target="_top" xlink:title=" ">
<polygon fill="white" stroke="#666666" points="652,-305 525,-305 525,-253 652,-253 652,-305"/>
<text text-anchor="start" x="533" y="-293" font-family="Helvetica,sans-Serif" font-size="10.00">/mnt/raid10/stargate</text>
<text text-anchor="start" x="533" y="-282" font-family="Helvetica,sans-Serif" font-size="10.00">/ivi&#45;homescreen/shell</text>
<text text-anchor="start" x="533" y="-271" font-family="Helvetica,sans-Serif" font-size="10.00">/static_plugins/mouse</text>
<text text-anchor="middle" x="588.5" y="-260" font-family="Helvetica,sans-Serif" font-size="10.00">_cursor/mouse_cursor.cc</text>
</a>
</g>
</g>
<!-- Node5&#45;&gt;Node25 -->
<g id="edge31" class="edge">
<title>Node5&#45;&gt;Node25</title>
<path fill="none" stroke="#63b8ff" d="M1861.52,-360.14C1636.88,-358.49 894.21,-349.71 660.5,-305 657.77,-304.48 655,-303.87 652.23,-303.2"/>
<polygon fill="#63b8ff" stroke="#63b8ff" points="1861.79,-363.64 1871.82,-360.21 1861.84,-356.64 1861.79,-363.64"/>
</g>
<!-- Node26 -->
<g id="node26" class="node">
<title>Node26</title>
<g id="a_node26"><a xlink:href="navigation_8cc.html" target="_top" xlink:title=" ">
<polygon fill="white" stroke="#666666" points="797,-305 670,-305 670,-253 797,-253 797,-305"/>
<text text-anchor="start" x="678" y="-293" font-family="Helvetica,sans-Serif" font-size="10.00">/mnt/raid10/stargate</text>
<text text-anchor="start" x="678" y="-282" font-family="Helvetica,sans-Serif" font-size="10.00">/ivi&#45;homescreen/shell</text>
<text text-anchor="start" x="678" y="-271" font-family="Helvetica,sans-Serif" font-size="10.00">/static_plugins/navigation</text>
<text text-anchor="middle" x="733.5" y="-260" font-family="Helvetica,sans-Serif" font-size="10.00">/navigation.cc</text>
</a>
</g>
</g>
<!-- Node5&#45;&gt;Node26 -->
<g id="edge32" class="edge">
<title>Node5&#45;&gt;Node26</title>
<path fill="none" stroke="#63b8ff" d="M1861.73,-359.71C1654.59,-356.8 1009.95,-344.71 805.5,-305 802.77,-304.47 800.01,-303.86 797.23,-303.18"/>
<polygon fill="#63b8ff" stroke="#63b8ff" points="1861.79,-363.21 1871.84,-359.85 1861.89,-356.21 1861.79,-363.21"/>
</g>
<!-- Node27 -->
<g id="node27" class="node">
<title>Node27</title>
<g id="a_node27"><a xlink:href="opengl__texture_8cc.html" target="_top" xlink:title=" ">
<polygon fill="white" stroke="#666666" points="3365.5,-305 3233.5,-305 3233.5,-253 3365.5,-253 3365.5,-305"/>
<text text-anchor="start" x="3241.5" y="-293" font-family="Helvetica,sans-Serif" font-size="10.00">/mnt/raid10/stargate</text>
<text text-anchor="start" x="3241.5" y="-282" font-family="Helvetica,sans-Serif" font-size="10.00">/ivi&#45;homescreen/shell</text>
<text text-anchor="start" x="3241.5" y="-271" font-family="Helvetica,sans-Serif" font-size="10.00">/static_plugins/opengl</text>
<text text-anchor="middle" x="3299.5" y="-260" font-family="Helvetica,sans-Serif" font-size="10.00">_texture/opengl_texture.cc</text>
</a>
</g>
</g>
<!-- Node5&#45;&gt;Node27 -->
<g id="edge33" class="edge">
<title>Node5&#45;&gt;Node27</title>
<path fill="none" stroke="#63b8ff" d="M1991.31,-359.94C2218.73,-357.64 2979.58,-346.9 3219.5,-305 3224.09,-304.2 3228.78,-303.21 3233.47,-302.09"/>
<polygon fill="#63b8ff" stroke="#63b8ff" points="1991.17,-356.44 1981.21,-360.04 1991.24,-363.44 1991.17,-356.44"/>
</g>
<!-- Node28 -->
<g id="node28" class="node">
<title>Node28</title>
<g id="a_node28"><a xlink:href="package__info_8cc.html" target="_top" xlink:title=" ">
<polygon fill="white" stroke="#666666" points="934,-305 815,-305 815,-253 934,-253 934,-305"/>
<text text-anchor="start" x="823" y="-293" font-family="Helvetica,sans-Serif" font-size="10.00">/mnt/raid10/stargate</text>
<text text-anchor="start" x="823" y="-282" font-family="Helvetica,sans-Serif" font-size="10.00">/ivi&#45;homescreen/shell</text>
<text text-anchor="start" x="823" y="-271" font-family="Helvetica,sans-Serif" font-size="10.00">/static_plugins/package</text>
<text text-anchor="middle" x="874.5" y="-260" font-family="Helvetica,sans-Serif" font-size="10.00">_info/package_info.cc</text>
</a>
</g>
</g>
<!-- Node5&#45;&gt;Node28 -->
<g id="edge34" class="edge">
<title>Node5&#45;&gt;Node28</title>
<path fill="none" stroke="#63b8ff" d="M1861.75,-359.3C1672.07,-355.39 1119.95,-341.14 943.5,-305 940.38,-304.36 937.21,-303.61 934.03,-302.77"/>
<polygon fill="#63b8ff" stroke="#63b8ff" points="1861.78,-362.8 1871.85,-359.5 1861.92,-355.8 1861.78,-362.8"/>
</g>
<!-- Node29 -->
<g id="node29" class="node">
<title>Node29</title>
<g id="a_node29"><a xlink:href="platform_8cc.html" target="_top" xlink:title=" ">
<polygon fill="white" stroke="#666666" points="1070.5,-305 952.5,-305 952.5,-253 1070.5,-253 1070.5,-305"/>
<text text-anchor="start" x="960.5" y="-293" font-family="Helvetica,sans-Serif" font-size="10.00">/mnt/raid10/stargate</text>
<text text-anchor="start" x="960.5" y="-282" font-family="Helvetica,sans-Serif" font-size="10.00">/ivi&#45;homescreen/shell</text>
<text text-anchor="start" x="960.5" y="-271" font-family="Helvetica,sans-Serif" font-size="10.00">/static_plugins/platform</text>
<text text-anchor="middle" x="1011.5" y="-260" font-family="Helvetica,sans-Serif" font-size="10.00">/platform.cc</text>
</a>
</g>
</g>
<!-- Node5&#45;&gt;Node29 -->
<g id="edge35" class="edge">
<title>Node5&#45;&gt;Node29</title>
<path fill="none" stroke="#63b8ff" d="M1861.74,-358.66C1690.5,-353.4 1228.72,-336.63 1079.5,-305 1076.55,-304.37 1073.55,-303.65 1070.54,-302.84"/>
<polygon fill="#63b8ff" stroke="#63b8ff" points="1861.76,-362.16 1871.86,-358.96 1861.97,-355.16 1861.76,-362.16"/>
</g>
<!-- Node30 -->
<g id="node30" class="node">
<title>Node30</title>
<g id="a_node30"><a xlink:href="platform__views_8cc.html" target="_top" xlink:title=" ">
<polygon fill="white" stroke="#666666" points="1218.5,-305 1088.5,-305 1088.5,-253 1218.5,-253 1218.5,-305"/>
<text text-anchor="start" x="1096.5" y="-293" font-family="Helvetica,sans-Serif" font-size="10.00">/mnt/raid10/stargate</text>
<text text-anchor="start" x="1096.5" y="-282" font-family="Helvetica,sans-Serif" font-size="10.00">/ivi&#45;homescreen/shell</text>
<text text-anchor="start" x="1096.5" y="-271" font-family="Helvetica,sans-Serif" font-size="10.00">/static_plugins/platform</text>
<text text-anchor="middle" x="1153.5" y="-260" font-family="Helvetica,sans-Serif" font-size="10.00">_views/platform_views.cc</text>
</a>
</g>
</g>
<!-- Node5&#45;&gt;Node30 -->
<g id="edge36" class="edge">
<title>Node5&#45;&gt;Node30</title>
<path fill="none" stroke="#63b8ff" d="M1861.9,-360.2C1738.44,-358.55 1460.95,-349.68 1232.5,-305 1227.98,-304.12 1223.36,-303.06 1218.73,-301.9"/>
<polygon fill="#63b8ff" stroke="#63b8ff" points="1861.9,-363.7 1871.94,-360.32 1861.98,-356.7 1861.9,-363.7"/>
</g>
<!-- Node31 -->
<g id="node31" class="node">
<title>Node31</title>
<g id="a_node31"><a xlink:href="restoration_8cc.html" target="_top" xlink:title=" ">
<polygon fill="white" stroke="#666666" points="1402.5,-305 1274.5,-305 1274.5,-253 1402.5,-253 1402.5,-305"/>
<text text-anchor="start" x="1282.5" y="-293" font-family="Helvetica,sans-Serif" font-size="10.00">/mnt/raid10/stargate</text>
<text text-anchor="start" x="1282.5" y="-282" font-family="Helvetica,sans-Serif" font-size="10.00">/ivi&#45;homescreen/shell</text>
<text text-anchor="start" x="1282.5" y="-271" font-family="Helvetica,sans-Serif" font-size="10.00">/static_plugins/restoration</text>
<text text-anchor="middle" x="1338.5" y="-260" font-family="Helvetica,sans-Serif" font-size="10.00">/restoration.cc</text>
</a>
</g>
</g>
<!-- Node5&#45;&gt;Node31 -->
<g id="edge37" class="edge">
<title>Node5&#45;&gt;Node31</title>
<path fill="none" stroke="#63b8ff" d="M1861.64,-358.14C1763.26,-353.51 1570.9,-340.42 1411.5,-305 1408.62,-304.36 1405.7,-303.65 1402.76,-302.88"/>
<polygon fill="#63b8ff" stroke="#63b8ff" points="1861.58,-361.64 1871.73,-358.59 1861.9,-354.64 1861.58,-361.64"/>
</g>
<!-- Node32 -->
<g id="node32" class="node">
<title>Node32</title>
<g id="a_node32"><a xlink:href="secure__storage_8cc.html" target="_top" xlink:title=" ">
<polygon fill="white" stroke="#666666" points="1558,-305 1421,-305 1421,-253 1558,-253 1558,-305"/>
<text text-anchor="start" x="1429" y="-293" font-family="Helvetica,sans-Serif" font-size="10.00">/mnt/raid10/stargate</text>
<text text-anchor="start" x="1429" y="-282" font-family="Helvetica,sans-Serif" font-size="10.00">/ivi&#45;homescreen/shell</text>
<text text-anchor="start" x="1429" y="-271" font-family="Helvetica,sans-Serif" font-size="10.00">/static_plugins/secure</text>
<text text-anchor="middle" x="1489.5" y="-260" font-family="Helvetica,sans-Serif" font-size="10.00">_storage/secure_storage.cc</text>
</a>
</g>
</g>
<!-- Node5&#45;&gt;Node32 -->
<g id="edge38" class="edge">
<title>Node5&#45;&gt;Node32</title>
<path fill="none" stroke="#63b8ff" d="M1861.65,-353.69C1789.1,-345.33 1668.39,-329.23 1566.5,-305 1563.77,-304.35 1560.99,-303.65 1558.19,-302.91"/>
<polygon fill="#63b8ff" stroke="#63b8ff" points="1861.67,-357.21 1872,-354.87 1862.46,-350.26 1861.67,-357.21"/>
</g>
<!-- Node33 -->
<g id="node33" class="node">
<title>Node33</title>
<g id="a_node33"><a xlink:href="text__input_8cc.html" target="_top" xlink:title=" ">
<polygon fill="white" stroke="#666666" points="1701,-305 1576,-305 1576,-253 1701,-253 1701,-305"/>
<text text-anchor="start" x="1584" y="-293" font-family="Helvetica,sans-Serif" font-size="10.00">/mnt/raid10/stargate</text>
<text text-anchor="start" x="1584" y="-282" font-family="Helvetica,sans-Serif" font-size="10.00">/ivi&#45;homescreen/shell</text>
<text text-anchor="start" x="1584" y="-271" font-family="Helvetica,sans-Serif" font-size="10.00">/static_plugins/text_input</text>
<text text-anchor="middle" x="1638.5" y="-260" font-family="Helvetica,sans-Serif" font-size="10.00">/text_input.cc</text>
</a>
</g>
</g>
<!-- Node5&#45;&gt;Node33 -->
<g id="edge39" class="edge">
<title>Node5&#45;&gt;Node33</title>
<path fill="none" stroke="#63b8ff" d="M1861.88,-345.55C1818.51,-335.14 1760.25,-320.39 1709.5,-305 1706.75,-304.17 1703.95,-303.29 1701.12,-302.39"/>
<polygon fill="#63b8ff" stroke="#63b8ff" points="1861.19,-348.99 1871.73,-347.91 1862.82,-342.18 1861.19,-348.99"/>
</g>
<!-- Node34 -->
<g id="node34" class="node">
<title>Node34</title>
<g id="a_node34"><a xlink:href="url__launcher_8cc.html" target="_top" xlink:title=" ">
<polygon fill="white" stroke="#666666" points="1854,-305 1719,-305 1719,-253 1854,-253 1854,-305"/>
<text text-anchor="start" x="1727" y="-293" font-family="Helvetica,sans-Serif" font-size="10.00">/mnt/raid10/stargate</text>
<text text-anchor="start" x="1727" y="-282" font-family="Helvetica,sans-Serif" font-size="10.00">/ivi&#45;homescreen/shell</text>
<text text-anchor="start" x="1727" y="-271" font-family="Helvetica,sans-Serif" font-size="10.00">/static_plugins/url_launcher</text>
<text text-anchor="middle" x="1786.5" y="-260" font-family="Helvetica,sans-Serif" font-size="10.00">/url_launcher.cc</text>
</a>
</g>
</g>
<!-- Node5&#45;&gt;Node34 -->
<g id="edge40" class="edge">
<title>Node5&#45;&gt;Node34</title>
<path fill="none" stroke="#63b8ff" d="M1883.18,-335.59C1866.34,-325.91 1847.07,-314.83 1830.2,-305.13"/>
<polygon fill="#63b8ff" stroke="#63b8ff" points="1881.84,-338.86 1892.25,-340.81 1885.33,-332.79 1881.84,-338.86"/>
</g>
<!-- Node35 -->
<g id="node35" class="node">
<title>Node35</title>
<g id="a_node35"><a xlink:href="texture_8cc.html" target="_top" xlink:title=" ">
<polygon fill="white" stroke="#666666" points="1981,-299.5 1872,-299.5 1872,-258.5 1981,-258.5 1981,-299.5"/>
<text text-anchor="start" x="1880" y="-287.5" font-family="Helvetica,sans-Serif" font-size="10.00">/mnt/raid10/stargate</text>
<text text-anchor="start" x="1880" y="-276.5" font-family="Helvetica,sans-Serif" font-size="10.00">/ivi&#45;homescreen/shell</text>
<text text-anchor="middle" x="1926.5" y="-265.5" font-family="Helvetica,sans-Serif" font-size="10.00">/textures/texture.cc</text>
</a>
</g>
</g>
<!-- Node5&#45;&gt;Node35 -->
<g id="edge41" class="edge">
<title>Node5&#45;&gt;Node35</title>
<path fill="none" stroke="#63b8ff" d="M1926.5,-330.37C1926.5,-320.1 1926.5,-308.9 1926.5,-299.67"/>
<polygon fill="#63b8ff" stroke="#63b8ff" points="1923,-330.6 1926.5,-340.6 1930,-330.6 1923,-330.6"/>
</g>
<!-- Node36 -->
<g id="node36" class="node">
<title>Node36</title>
<g id="a_node36"><a xlink:href="display_8cc.html" target="_top" xlink:title=" ">
<polygon fill="white" stroke="#666666" points="2108,-299.5 1999,-299.5 1999,-258.5 2108,-258.5 2108,-299.5"/>
<text text-anchor="start" x="2007" y="-287.5" font-family="Helvetica,sans-Serif" font-size="10.00">/mnt/raid10/stargate</text>
<text text-anchor="start" x="2007" y="-276.5" font-family="Helvetica,sans-Serif" font-size="10.00">/ivi&#45;homescreen/shell</text>
<text text-anchor="middle" x="2053.5" y="-265.5" font-family="Helvetica,sans-Serif" font-size="10.00">/wayland/display.cc</text>
</a>
</g>
</g>
<!-- Node5&#45;&gt;Node36 -->
<g id="edge43" class="edge">
<title>Node5&#45;&gt;Node36</title>
<path fill="none" stroke="#63b8ff" d="M1966.18,-335.35C1984.27,-323.88 2005.38,-310.5 2022.31,-299.77"/>
<polygon fill="#63b8ff" stroke="#63b8ff" points="1964.14,-332.5 1957.57,-340.81 1967.89,-338.41 1964.14,-332.5"/>
</g>
<!-- Node6&#45;&gt;Node5 -->
<g id="edge14" class="edge">
<title>Node6&#45;&gt;Node5</title>
<path fill="none" stroke="#63b8ff" d="M2131.15,-303.04C2129.25,-303.71 2127.36,-304.37 2125.5,-305 2077.52,-321.34 2021.75,-337.28 1981.38,-347.85"/>
<polygon fill="#63b8ff" stroke="#63b8ff" points="2132.5,-306.27 2140.7,-299.56 2130.1,-299.69 2132.5,-306.27"/>
</g>
<!-- Node7 -->
<g id="node7" class="node">
<title>Node7</title>
<g id="a_node7"><a xlink:href="wayland__egl_8h.html" target="_top" xlink:title=" ">
<polygon fill="white" stroke="#666666" points="2944.5,-217 2822.5,-217 2822.5,-176 2944.5,-176 2944.5,-217"/>
<text text-anchor="start" x="2830.5" y="-205" font-family="Helvetica,sans-Serif" font-size="10.00">/mnt/raid10/stargate</text>
<text text-anchor="start" x="2830.5" y="-194" font-family="Helvetica,sans-Serif" font-size="10.00">/ivi&#45;homescreen/shell</text>
<text text-anchor="middle" x="2883.5" y="-183" font-family="Helvetica,sans-Serif" font-size="10.00">/backend/wayland_egl.h</text>
</a>
</g>
</g>
<!-- Node6&#45;&gt;Node7 -->
<g id="edge7" class="edge">
<title>Node6&#45;&gt;Node7</title>
<path fill="none" stroke="#63b8ff" d="M2245.11,-265.37C2268.76,-261.04 2295.78,-256.42 2320.5,-253 2502.43,-227.83 2718.98,-209.82 2822.5,-201.94"/>
<polygon fill="#63b8ff" stroke="#63b8ff" points="2244.39,-261.94 2235.2,-267.21 2245.67,-268.83 2244.39,-261.94"/>
</g>
<!-- Node12 -->
<g id="node12" class="node">
<title>Node12</title>
<g id="a_node12"><a xlink:href="wayland__vulkan_8h.html" target="_top" xlink:title=" ">
<polygon fill="white" stroke="#666666" points="2235,-217 2098,-217 2098,-176 2235,-176 2235,-217"/>
<text text-anchor="start" x="2106" y="-205" font-family="Helvetica,sans-Serif" font-size="10.00">/mnt/raid10/stargate</text>
<text text-anchor="start" x="2106" y="-194" font-family="Helvetica,sans-Serif" font-size="10.00">/ivi&#45;homescreen/shell</text>
<text text-anchor="middle" x="2166.5" y="-183" font-family="Helvetica,sans-Serif" font-size="10.00">/backend/wayland_vulkan.h</text>
</a>
</g>
</g>
<!-- Node6&#45;&gt;Node12 -->
<g id="edge12" class="edge">
<title>Node6&#45;&gt;Node12</title>
<path fill="none" stroke="#63b8ff" d="M2175.32,-248.19C2173.52,-237.84 2171.54,-226.5 2169.92,-217.17"/>
<polygon fill="#63b8ff" stroke="#63b8ff" points="2171.88,-248.85 2177.04,-258.1 2178.77,-247.65 2171.88,-248.85"/>
</g>
<!-- Node14 -->
<g id="node14" class="node">
<title>Node14</title>
<g id="a_node14"><a xlink:href="window_8h.html" target="_top" xlink:title=" ">
<polygon fill="white" stroke="#666666" points="1165,-217 1056,-217 1056,-176 1165,-176 1165,-217"/>
<text text-anchor="start" x="1064" y="-205" font-family="Helvetica,sans-Serif" font-size="10.00">/mnt/raid10/stargate</text>
<text text-anchor="start" x="1064" y="-194" font-family="Helvetica,sans-Serif" font-size="10.00">/ivi&#45;homescreen/shell</text>
<text text-anchor="middle" x="1110.5" y="-183" font-family="Helvetica,sans-Serif" font-size="10.00">/wayland/window.h</text>
</a>
</g>
</g>
<!-- Node6&#45;&gt;Node14 -->
<g id="edge15" class="edge">
<title>Node6&#45;&gt;Node14</title>
<path fill="none" stroke="#63b8ff" d="M2126.04,-255.42C2122.84,-254.5 2119.65,-253.68 2116.5,-253 1932.64,-213.09 1347.39,-201.06 1165.19,-198.24"/>
<polygon fill="#63b8ff" stroke="#63b8ff" points="2125.01,-258.76 2135.6,-258.42 2127.11,-252.08 2125.01,-258.76"/>
</g>
<!-- Node7&#45;&gt;Node8 -->
<g id="edge8" class="edge">
<title>Node7&#45;&gt;Node8</title>
<path fill="none" stroke="#63b8ff" d="M2816.06,-172.59C2780.69,-160.58 2737.81,-146.01 2704.02,-134.54"/>
<polygon fill="#63b8ff" stroke="#63b8ff" points="2815.23,-176.01 2825.83,-175.91 2817.48,-169.38 2815.23,-176.01"/>
</g>
<!-- Node7&#45;&gt;Node9 -->
<g id="edge9" class="edge">
<title>Node7&#45;&gt;Node9</title>
<path fill="none" stroke="#63b8ff" d="M2883.5,-165.68C2883.5,-133.44 2883.5,-82.63 2883.5,-52.28"/>
<polygon fill="#63b8ff" stroke="#63b8ff" points="2880,-165.84 2883.5,-175.84 2887,-165.84 2880,-165.84"/>
</g>
<!-- Node7&#45;&gt;Node10 -->
<g id="edge10" class="edge">
<title>Node7&#45;&gt;Node10</title>
<path fill="none" stroke="#63b8ff" d="M2927.27,-170.86C2944.59,-161.11 2964.47,-149.92 2981.86,-140.13"/>
<polygon fill="#63b8ff" stroke="#63b8ff" points="2925.48,-167.85 2918.48,-175.81 2928.91,-173.95 2925.48,-167.85"/>
</g>
<!-- Node7&#45;&gt;Node11 -->
<g id="edge11" class="edge">
<title>Node7&#45;&gt;Node11</title>
<path fill="none" stroke="#63b8ff" d="M2954.79,-184.97C3062.23,-169.1 3263.89,-139.31 3365.94,-124.24"/>
<polygon fill="#63b8ff" stroke="#63b8ff" points="2954.08,-181.54 2944.7,-186.46 2955.1,-188.46 2954.08,-181.54"/>
</g>
<!-- Node12&#45;&gt;Node13 -->
<g id="edge13" class="edge">
<title>Node12&#45;&gt;Node13</title>
<path fill="none" stroke="#63b8ff" d="M2179.54,-166.34C2184.25,-155.81 2189.45,-144.19 2193.7,-134.67"/>
<polygon fill="#63b8ff" stroke="#63b8ff" points="2176.29,-165.04 2175.4,-175.6 2182.68,-167.9 2176.29,-165.04"/>
</g>
<!-- Node14&#45;&gt;Node1 -->
<g id="edge19" class="edge">
<title>Node14&#45;&gt;Node1</title>
<path fill="none" stroke="#63b8ff" d="M1045.6,-197.12C865.66,-196.73 370.44,-200.5 321.5,-253 305.74,-269.91 306.97,-287.03 321.5,-305 396.05,-397.24 1261.98,-429.16 1489.84,-436"/>
<polygon fill="#63b8ff" stroke="#63b8ff" points="1045.71,-200.62 1055.72,-197.15 1045.73,-193.62 1045.71,-200.62"/>
</g>
<!-- Node15 -->
<g id="node15" class="node">
<title>Node15</title>
<g id="a_node15"><a xlink:href="nv12_8h.html" target="_top" xlink:title=" ">
<polygon fill="white" stroke="#666666" points="1173.5,-140 1047.5,-140 1047.5,-88 1173.5,-88 1173.5,-140"/>
<text text-anchor="start" x="1055.5" y="-128" font-family="Helvetica,sans-Serif" font-size="10.00">/mnt/raid10/stargate</text>
<text text-anchor="start" x="1055.5" y="-117" font-family="Helvetica,sans-Serif" font-size="10.00">/ivi&#45;homescreen/shell</text>
<text text-anchor="start" x="1055.5" y="-106" font-family="Helvetica,sans-Serif" font-size="10.00">/static_plugins/gstreamer</text>
<text text-anchor="middle" x="1110.5" y="-95" font-family="Helvetica,sans-Serif" font-size="10.00">_egl/nv12.h</text>
</a>
</g>
</g>
<!-- Node14&#45;&gt;Node15 -->
<g id="edge16" class="edge">
<title>Node14&#45;&gt;Node15</title>
<path fill="none" stroke="#63b8ff" d="M1110.5,-165.49C1110.5,-157.15 1110.5,-148.19 1110.5,-140.16"/>
<polygon fill="#63b8ff" stroke="#63b8ff" points="1107,-165.6 1110.5,-175.6 1114,-165.6 1107,-165.6"/>
</g>
<!-- Node14&#45;&gt;Node16 -->
<g id="edge18" class="edge">
<title>Node14&#45;&gt;Node16</title>
<path fill="none" stroke="#63b8ff" d="M1045.47,-186.97C923.95,-171.04 664.48,-137.02 551.25,-122.18"/>
<polygon fill="#63b8ff" stroke="#63b8ff" points="1045.37,-190.49 1055.74,-188.32 1046.28,-183.55 1045.37,-190.49"/>
</g>
<!-- Node14&#45;&gt;Node17 -->
<g id="edge20" class="edge">
<title>Node14&#45;&gt;Node17</title>
<path fill="none" stroke="#63b8ff" d="M1152.46,-170.66C1171.95,-159.13 1194.81,-145.6 1213.1,-134.77"/>
<polygon fill="#63b8ff" stroke="#63b8ff" points="1150.59,-167.7 1143.77,-175.81 1154.16,-173.73 1150.59,-167.7"/>
</g>
<!-- Node15&#45;&gt;Node9 -->
<g id="edge17" class="edge">
<title>Node15&#45;&gt;Node9</title>
<path fill="none" stroke="#63b8ff" d="M1183.75,-88.06C1526,-27.49 2554.64,-26.1 2820.34,-26.75"/>
<polygon fill="#63b8ff" stroke="#63b8ff" points="1183.03,-84.63 1173.82,-89.86 1184.29,-91.51 1183.03,-84.63"/>
</g>
<!-- Node37&#45;&gt;Node27 -->
<g id="edge47" class="edge">
<title>Node37&#45;&gt;Node27</title>
<path fill="none" stroke="#63b8ff" d="M3299.5,-330.49C3299.5,-322.15 3299.5,-313.19 3299.5,-305.16"/>
<polygon fill="#63b8ff" stroke="#63b8ff" points="3296,-330.6 3299.5,-340.6 3303,-330.6 3296,-330.6"/>
</g>
<!-- Node38 -->
<g id="node38" class="node">
<title>Node38</title>
<g id="a_node38"><a xlink:href="texture__egl_8cc.html" target="_top" xlink:title=" ">
<polygon fill="white" stroke="#666666" points="3493,-305 3384,-305 3384,-253 3493,-253 3493,-305"/>
<text text-anchor="start" x="3392" y="-293" font-family="Helvetica,sans-Serif" font-size="10.00">/mnt/raid10/stargate</text>
<text text-anchor="start" x="3392" y="-282" font-family="Helvetica,sans-Serif" font-size="10.00">/ivi&#45;homescreen/shell</text>
<text text-anchor="start" x="3392" y="-271" font-family="Helvetica,sans-Serif" font-size="10.00">/textures/egl/texture</text>
<text text-anchor="middle" x="3438.5" y="-260" font-family="Helvetica,sans-Serif" font-size="10.00">_egl.cc</text>
</a>
</g>
</g>
<!-- Node37&#45;&gt;Node38 -->
<g id="edge48" class="edge">
<title>Node37&#45;&gt;Node38</title>
<path fill="none" stroke="#63b8ff" d="M3342.51,-335.59C3359.23,-325.91 3378.36,-314.83 3395.11,-305.13"/>
<polygon fill="#63b8ff" stroke="#63b8ff" points="3340.4,-332.77 3333.5,-340.81 3343.91,-338.82 3340.4,-332.77"/>
</g>
</g>
</svg>
