<?xml version="1.0" encoding="UTF-8" standalone="no"?>
<!DOCTYPE svg PUBLIC "-//W3C//DTD SVG 1.1//EN"
 "http://www.w3.org/Graphics/SVG/1.1/DTD/svg11.dtd">
<!-- Generated by graphviz version 2.43.0 (0)
 -->
<!-- Title: /home/joel.winarske@toyotaconnected.com/development/workspace&#45;automation&#45;configs/app/ivi&#45;homescreen/shell/static_plugins/secure_storage/g_hash_table.h Pages: 1 -->
<svg width="219pt" height="438pt"
 viewBox="0.00 0.00 219.00 438.00" xmlns="http://www.w3.org/2000/svg" xmlns:xlink="http://www.w3.org/1999/xlink">
<g id="graph0" class="graph" transform="scale(1 1) rotate(0) translate(4 434)">
<title>/home/joel.winarske@toyotaconnected.com/development/workspace&#45;automation&#45;configs/app/ivi&#45;homescreen/shell/static_plugins/secure_storage/g_hash_table.h</title>
<polygon fill="white" stroke="transparent" points="-4,4 -4,-434 215,-434 215,4 -4,4"/>
<!-- Node1 -->
<g id="node1" class="node">
<title>Node1</title>
<g id="a_node1"><a xlink:title=" ">
<polygon fill="#bfbfbf" stroke="black" points="0,-355.5 0,-429.5 211,-429.5 211,-355.5 0,-355.5"/>
<text text-anchor="start" x="8" y="-417.5" font-family="Helvetica,sans-Serif" font-size="10.00">/home/joel.winarske</text>
<text text-anchor="start" x="8" y="-406.5" font-family="Helvetica,sans-Serif" font-size="10.00">@toyotaconnected.com</text>
<text text-anchor="start" x="8" y="-395.5" font-family="Helvetica,sans-Serif" font-size="10.00">/development/workspace</text>
<text text-anchor="start" x="8" y="-384.5" font-family="Helvetica,sans-Serif" font-size="10.00">&#45;automation&#45;configs/app</text>
<text text-anchor="start" x="8" y="-373.5" font-family="Helvetica,sans-Serif" font-size="10.00">/ivi&#45;homescreen/shell/static</text>
<text text-anchor="middle" x="105.5" y="-362.5" font-family="Helvetica,sans-Serif" font-size="10.00">_plugins/secure_storage/g_hash_table.h</text>
</a>
</g>
</g>
<!-- Node2 -->
<g id="node2" class="node">
<title>Node2</title>
<g id="a_node2"><a xlink:href="keyring_8h.html" target="_top" xlink:title=" ">
<polygon fill="white" stroke="black" points="14.5,-244.5 14.5,-318.5 196.5,-318.5 196.5,-244.5 14.5,-244.5"/>
<text text-anchor="start" x="22.5" y="-306.5" font-family="Helvetica,sans-Serif" font-size="10.00">/home/joel.winarske</text>
<text text-anchor="start" x="22.5" y="-295.5" font-family="Helvetica,sans-Serif" font-size="10.00">@toyotaconnected.com</text>
<text text-anchor="start" x="22.5" y="-284.5" font-family="Helvetica,sans-Serif" font-size="10.00">/development/workspace</text>
<text text-anchor="start" x="22.5" y="-273.5" font-family="Helvetica,sans-Serif" font-size="10.00">&#45;automation&#45;configs/app</text>
<text text-anchor="start" x="22.5" y="-262.5" font-family="Helvetica,sans-Serif" font-size="10.00">/ivi&#45;homescreen/shell/static</text>
<text text-anchor="middle" x="105.5" y="-251.5" font-family="Helvetica,sans-Serif" font-size="10.00">_plugins/secure_storage/keyring.h</text>
</a>
</g>
</g>
<!-- Node1&#45;&gt;Node2 -->
<g id="edge1" class="edge">
<title>Node1&#45;&gt;Node2</title>
<path fill="none" stroke="midnightblue" d="M105.5,-345.03C105.5,-336.2 105.5,-327.09 105.5,-318.64"/>
<polygon fill="midnightblue" stroke="midnightblue" points="102,-345.2 105.5,-355.2 109,-345.2 102,-345.2"/>
</g>
<!-- Node3 -->
<g id="node3" class="node">
<title>Node3</title>
<g id="a_node3"><a xlink:href="secure__storage_8h.html" target="_top" xlink:title=" ">
<polygon fill="white" stroke="black" points="20.5,-122.5 20.5,-207.5 190.5,-207.5 190.5,-122.5 20.5,-122.5"/>
<text text-anchor="start" x="28.5" y="-195.5" font-family="Helvetica,sans-Serif" font-size="10.00">/home/joel.winarske</text>
<text text-anchor="start" x="28.5" y="-184.5" font-family="Helvetica,sans-Serif" font-size="10.00">@toyotaconnected.com</text>
<text text-anchor="start" x="28.5" y="-173.5" font-family="Helvetica,sans-Serif" font-size="10.00">/development/workspace</text>
<text text-anchor="start" x="28.5" y="-162.5" font-family="Helvetica,sans-Serif" font-size="10.00">&#45;automation&#45;configs/app</text>
<text text-anchor="start" x="28.5" y="-151.5" font-family="Helvetica,sans-Serif" font-size="10.00">/ivi&#45;homescreen/shell/static</text>
<text text-anchor="start" x="28.5" y="-140.5" font-family="Helvetica,sans-Serif" font-size="10.00">_plugins/secure_storage/secure</text>
<text text-anchor="middle" x="105.5" y="-129.5" font-family="Helvetica,sans-Serif" font-size="10.00">_storage.h</text>
</a>
</g>
</g>
<!-- Node2&#45;&gt;Node3 -->
<g id="edge2" class="edge">
<title>Node2&#45;&gt;Node3</title>
<path fill="none" stroke="midnightblue" d="M105.5,-234.16C105.5,-225.37 105.5,-216.22 105.5,-207.58"/>
<polygon fill="midnightblue" stroke="midnightblue" points="102,-234.27 105.5,-244.27 109,-234.27 102,-234.27"/>
</g>
<!-- Node4 -->
<g id="node4" class="node">
<title>Node4</title>
<g id="a_node4"><a xlink:href="secure__storage_8cc.html" target="_top" xlink:title=" ">
<polygon fill="white" stroke="black" points="20.5,-0.5 20.5,-85.5 190.5,-85.5 190.5,-0.5 20.5,-0.5"/>
<text text-anchor="start" x="28.5" y="-73.5" font-family="Helvetica,sans-Serif" font-size="10.00">/home/joel.winarske</text>
<text text-anchor="start" x="28.5" y="-62.5" font-family="Helvetica,sans-Serif" font-size="10.00">@toyotaconnected.com</text>
<text text-anchor="start" x="28.5" y="-51.5" font-family="Helvetica,sans-Serif" font-size="10.00">/development/workspace</text>
<text text-anchor="start" x="28.5" y="-40.5" font-family="Helvetica,sans-Serif" font-size="10.00">&#45;automation&#45;configs/app</text>
<text text-anchor="start" x="28.5" y="-29.5" font-family="Helvetica,sans-Serif" font-size="10.00">/ivi&#45;homescreen/shell/static</text>
<text text-anchor="start" x="28.5" y="-18.5" font-family="Helvetica,sans-Serif" font-size="10.00">_plugins/secure_storage/secure</text>
<text text-anchor="middle" x="105.5" y="-7.5" font-family="Helvetica,sans-Serif" font-size="10.00">_storage.cc</text>
</a>
</g>
</g>
<!-- Node3&#45;&gt;Node4 -->
<g id="edge3" class="edge">
<title>Node3&#45;&gt;Node4</title>
<path fill="none" stroke="midnightblue" d="M105.5,-112.11C105.5,-103.23 105.5,-94.12 105.5,-85.56"/>
<polygon fill="midnightblue" stroke="midnightblue" points="102,-112.37 105.5,-122.37 109,-112.37 102,-112.37"/>
</g>
</g>
</svg>
