<?xml version="1.0" encoding="UTF-8" standalone="no"?>
<!DOCTYPE svg PUBLIC "-//W3C//DTD SVG 1.1//EN"
 "http://www.w3.org/Graphics/SVG/1.1/DTD/svg11.dtd">
<!-- Generated by graphviz version 5.0.0 (0)
 -->
<!-- Title: /mnt/raid10/stargate/ivi&#45;homescreen/shell/static_plugins/secure_storage/g_hash_table.h Pages: 1 -->
<svg width="145pt" height="324pt"
 viewBox="0.00 0.00 145.00 324.00" xmlns="http://www.w3.org/2000/svg" xmlns:xlink="http://www.w3.org/1999/xlink">
<g id="graph0" class="graph" transform="scale(1 1) rotate(0) translate(4 320)">
<title>/mnt/raid10/stargate/ivi&#45;homescreen/shell/static_plugins/secure_storage/g_hash_table.h</title>
<!-- Node1 -->
<g id="node1" class="node">
<title>Node1</title>
<g id="a_node1"><a xlink:title=" ">
<polygon fill="#999999" stroke="#666666" points="130,-316 7,-316 7,-264 130,-264 130,-316"/>
<text text-anchor="start" x="15" y="-304" font-family="Helvetica,sans-Serif" font-size="10.00">/mnt/raid10/stargate</text>
<text text-anchor="start" x="15" y="-293" font-family="Helvetica,sans-Serif" font-size="10.00">/ivi&#45;homescreen/shell</text>
<text text-anchor="start" x="15" y="-282" font-family="Helvetica,sans-Serif" font-size="10.00">/static_plugins/secure</text>
<text text-anchor="middle" x="68.5" y="-271" font-family="Helvetica,sans-Serif" font-size="10.00">_storage/g_hash_table.h</text>
</a>
</g>
</g>
<!-- Node2 -->
<g id="node2" class="node">
<title>Node2</title>
<g id="a_node2"><a xlink:href="keyring_8h.html" target="_top" xlink:title=" ">
<polygon fill="white" stroke="#666666" points="124.5,-228 12.5,-228 12.5,-176 124.5,-176 124.5,-228"/>
<text text-anchor="start" x="20.5" y="-216" font-family="Helvetica,sans-Serif" font-size="10.00">/mnt/raid10/stargate</text>
<text text-anchor="start" x="20.5" y="-205" font-family="Helvetica,sans-Serif" font-size="10.00">/ivi&#45;homescreen/shell</text>
<text text-anchor="start" x="20.5" y="-194" font-family="Helvetica,sans-Serif" font-size="10.00">/static_plugins/secure</text>
<text text-anchor="middle" x="68.5" y="-183" font-family="Helvetica,sans-Serif" font-size="10.00">_storage/keyring.h</text>
</a>
</g>
</g>
<!-- Node1&#45;&gt;Node2 -->
<g id="edge1" class="edge">
<title>Node1&#45;&gt;Node2</title>
<path fill="none" stroke="#63b8ff" d="M68.5,-253.56C68.5,-245.04 68.5,-236.1 68.5,-228.16"/>
<polygon fill="#63b8ff" stroke="#63b8ff" points="65,-253.66 68.5,-263.66 72,-253.66 65,-253.66"/>
</g>
<!-- Node3 -->
<g id="node3" class="node">
<title>Node3</title>
<g id="a_node3"><a xlink:href="secure__storage_8h.html" target="_top" xlink:title=" ">
<polygon fill="white" stroke="#666666" points="134.5,-140 2.5,-140 2.5,-88 134.5,-88 134.5,-140"/>
<text text-anchor="start" x="10.5" y="-128" font-family="Helvetica,sans-Serif" font-size="10.00">/mnt/raid10/stargate</text>
<text text-anchor="start" x="10.5" y="-117" font-family="Helvetica,sans-Serif" font-size="10.00">/ivi&#45;homescreen/shell</text>
<text text-anchor="start" x="10.5" y="-106" font-family="Helvetica,sans-Serif" font-size="10.00">/static_plugins/secure</text>
<text text-anchor="middle" x="68.5" y="-95" font-family="Helvetica,sans-Serif" font-size="10.00">_storage/secure_storage.h</text>
</a>
</g>
</g>
<!-- Node2&#45;&gt;Node3 -->
<g id="edge2" class="edge">
<title>Node2&#45;&gt;Node3</title>
<path fill="none" stroke="#63b8ff" d="M68.5,-165.56C68.5,-157.04 68.5,-148.1 68.5,-140.16"/>
<polygon fill="#63b8ff" stroke="#63b8ff" points="65,-165.66 68.5,-175.66 72,-165.66 65,-165.66"/>
</g>
<!-- Node4 -->
<g id="node4" class="node">
<title>Node4</title>
<g id="a_node4"><a xlink:href="secure__storage_8cc.html" target="_top" xlink:title=" ">
<polygon fill="white" stroke="#666666" points="137,-52 0,-52 0,0 137,0 137,-52"/>
<text text-anchor="start" x="8" y="-40" font-family="Helvetica,sans-Serif" font-size="10.00">/mnt/raid10/stargate</text>
<text text-anchor="start" x="8" y="-29" font-family="Helvetica,sans-Serif" font-size="10.00">/ivi&#45;homescreen/shell</text>
<text text-anchor="start" x="8" y="-18" font-family="Helvetica,sans-Serif" font-size="10.00">/static_plugins/secure</text>
<text text-anchor="middle" x="68.5" y="-7" font-family="Helvetica,sans-Serif" font-size="10.00">_storage/secure_storage.cc</text>
</a>
</g>
</g>
<!-- Node3&#45;&gt;Node4 -->
<g id="edge3" class="edge">
<title>Node3&#45;&gt;Node4</title>
<path fill="none" stroke="#63b8ff" d="M68.5,-77.56C68.5,-69.04 68.5,-60.1 68.5,-52.16"/>
<polygon fill="#63b8ff" stroke="#63b8ff" points="65,-77.66 68.5,-87.66 72,-77.66 65,-77.66"/>
</g>
</g>
</svg>
