<?xml version="1.0" encoding="UTF-8" standalone="no"?>
<!DOCTYPE svg PUBLIC "-//W3C//DTD SVG 1.1//EN"
 "http://www.w3.org/Graphics/SVG/1.1/DTD/svg11.dtd">
<!-- Generated by graphviz version 5.0.0 (0)
 -->
<!-- Title: /mnt/raid10/stargate/ivi&#45;homescreen/shell/backend/gl_process_resolver.cc Pages: 1 -->
<svg width="487pt" height="280pt"
 viewBox="0.00 0.00 486.50 280.00" xmlns="http://www.w3.org/2000/svg" xmlns:xlink="http://www.w3.org/1999/xlink">
<g id="graph0" class="graph" transform="scale(1 1) rotate(0) translate(4 276)">
<title>/mnt/raid10/stargate/ivi&#45;homescreen/shell/backend/gl_process_resolver.cc</title>
<!-- Node1 -->
<g id="node1" class="node">
<title>Node1</title>
<g id="a_node1"><a xlink:title=" ">
<polygon fill="#999999" stroke="#666666" points="311,-272 151,-272 151,-231 311,-231 311,-272"/>
<text text-anchor="start" x="159" y="-260" font-family="Helvetica,sans-Serif" font-size="10.00">/mnt/raid10/stargate</text>
<text text-anchor="start" x="159" y="-249" font-family="Helvetica,sans-Serif" font-size="10.00">/ivi&#45;homescreen/shell</text>
<text text-anchor="middle" x="231" y="-238" font-family="Helvetica,sans-Serif" font-size="10.00">/backend/gl_process_resolver.cc</text>
</a>
</g>
</g>
<!-- Node2 -->
<g id="node2" class="node">
<title>Node2</title>
<g id="a_node2"><a xlink:href="gl__process__resolver_8h.html" target="_top" xlink:title=" ">
<polygon fill="white" stroke="#666666" points="154,-195 42,-195 42,-176 154,-176 154,-195"/>
<text text-anchor="middle" x="98" y="-183" font-family="Helvetica,sans-Serif" font-size="10.00">gl_process_resolver.h</text>
</a>
</g>
</g>
<!-- Node1&#45;&gt;Node2 -->
<g id="edge1" class="edge">
<title>Node1&#45;&gt;Node2</title>
<path fill="none" stroke="#63b8ff" d="M190.37,-230.95C169.17,-220.75 143.8,-208.54 125.02,-199.5"/>
<polygon fill="#63b8ff" stroke="#63b8ff" points="126.38,-196.27 115.85,-195.09 123.35,-202.58 126.38,-196.27"/>
</g>
<!-- Node9 -->
<g id="node9" class="node">
<title>Node9</title>
<g id="a_node9"><a xlink:title=" ">
<polygon fill="#e0e0e0" stroke="#999999" points="221,-195 175,-195 175,-176 221,-176 221,-195"/>
<text text-anchor="middle" x="198" y="-183" font-family="Helvetica,sans-Serif" font-size="10.00">dlfcn.h</text>
</a>
</g>
</g>
<!-- Node1&#45;&gt;Node9 -->
<g id="edge8" class="edge">
<title>Node1&#45;&gt;Node9</title>
<path fill="none" stroke="#63b8ff" d="M220.92,-230.95C216.55,-222.48 211.48,-212.64 207.21,-204.37"/>
<polygon fill="#63b8ff" stroke="#63b8ff" points="210.21,-202.54 202.52,-195.26 203.99,-205.75 210.21,-202.54"/>
</g>
<!-- Node10 -->
<g id="node10" class="node">
<title>Node10</title>
<g id="a_node10"><a xlink:title=" ">
<polygon fill="#e0e0e0" stroke="#999999" points="288.5,-195 239.5,-195 239.5,-176 288.5,-176 288.5,-195"/>
<text text-anchor="middle" x="264" y="-183" font-family="Helvetica,sans-Serif" font-size="10.00">cassert</text>
</a>
</g>
</g>
<!-- Node1&#45;&gt;Node10 -->
<g id="edge9" class="edge">
<title>Node1&#45;&gt;Node10</title>
<path fill="none" stroke="#63b8ff" d="M241.08,-230.95C245.45,-222.48 250.52,-212.64 254.79,-204.37"/>
<polygon fill="#63b8ff" stroke="#63b8ff" points="258.01,-205.75 259.48,-195.26 251.79,-202.54 258.01,-205.75"/>
</g>
<!-- Node11 -->
<g id="node11" class="node">
<title>Node11</title>
<g id="a_node11"><a xlink:href="logging_8h.html" target="_top" xlink:title=" ">
<polygon fill="white" stroke="#666666" points="365,-195 309,-195 309,-176 365,-176 365,-195"/>
<text text-anchor="middle" x="337" y="-183" font-family="Helvetica,sans-Serif" font-size="10.00">logging.h</text>
</a>
</g>
</g>
<!-- Node1&#45;&gt;Node11 -->
<g id="edge10" class="edge">
<title>Node1&#45;&gt;Node11</title>
<path fill="none" stroke="#63b8ff" d="M263.38,-230.95C279.66,-221.12 299.02,-209.43 313.8,-200.51"/>
<polygon fill="#63b8ff" stroke="#63b8ff" points="316.02,-203.26 322.77,-195.09 312.4,-197.26 316.02,-203.26"/>
</g>
<!-- Node3 -->
<g id="node3" class="node">
<title>Node3</title>
<g id="a_node3"><a xlink:title=" ">
<polygon fill="#e0e0e0" stroke="#999999" points="52,-140 0,-140 0,-121 52,-121 52,-140"/>
<text text-anchor="middle" x="26" y="-128" font-family="Helvetica,sans-Serif" font-size="10.00">memory</text>
</a>
</g>
</g>
<!-- Node2&#45;&gt;Node3 -->
<g id="edge2" class="edge">
<title>Node2&#45;&gt;Node3</title>
<path fill="none" stroke="#63b8ff" d="M86.43,-175.98C75.58,-168 59.12,-155.88 46.12,-146.31"/>
<polygon fill="#63b8ff" stroke="#63b8ff" points="47.91,-143.28 37.78,-140.17 43.76,-148.92 47.91,-143.28"/>
</g>
<!-- Node4 -->
<g id="node4" class="node">
<title>Node4</title>
<g id="a_node4"><a xlink:title=" ">
<polygon fill="#e0e0e0" stroke="#999999" points="114,-140 70,-140 70,-121 114,-121 114,-140"/>
<text text-anchor="middle" x="92" y="-128" font-family="Helvetica,sans-Serif" font-size="10.00">vector</text>
</a>
</g>
</g>
<!-- Node2&#45;&gt;Node4 -->
<g id="edge3" class="edge">
<title>Node2&#45;&gt;Node4</title>
<path fill="none" stroke="#63b8ff" d="M97.01,-175.75C96.22,-168.8 95.1,-158.85 94.11,-150.13"/>
<polygon fill="#63b8ff" stroke="#63b8ff" points="97.58,-149.63 92.97,-140.09 90.62,-150.42 97.58,-149.63"/>
</g>
<!-- Node5 -->
<g id="node5" class="node">
<title>Node5</title>
<g id="a_node5"><a xlink:href="constants_8h.html" target="_top" xlink:title=" ">
<polygon fill="white" stroke="#666666" points="200,-140 132,-140 132,-121 200,-121 200,-140"/>
<text text-anchor="middle" x="166" y="-128" font-family="Helvetica,sans-Serif" font-size="10.00">constants.h</text>
</a>
</g>
</g>
<!-- Node2&#45;&gt;Node5 -->
<g id="edge4" class="edge">
<title>Node2&#45;&gt;Node5</title>
<path fill="none" stroke="#63b8ff" d="M108.93,-175.98C119.08,-168.07 134.42,-156.11 146.65,-146.58"/>
<polygon fill="#63b8ff" stroke="#63b8ff" points="149.14,-149.08 154.88,-140.17 144.84,-143.56 149.14,-149.08"/>
</g>
<!-- Node6 -->
<g id="node6" class="node">
<title>Node6</title>
<g id="a_node6"><a xlink:title=" ">
<polygon fill="#e0e0e0" stroke="#999999" points="86,-79.5 26,-79.5 26,-60.5 86,-60.5 86,-79.5"/>
<text text-anchor="middle" x="56" y="-67.5" font-family="Helvetica,sans-Serif" font-size="10.00">EGL/egl.h</text>
</a>
</g>
</g>
<!-- Node5&#45;&gt;Node6 -->
<g id="edge5" class="edge">
<title>Node5&#45;&gt;Node6</title>
<path fill="none" stroke="#63b8ff" d="M149.77,-120.87C131.73,-111.28 102.38,-95.67 81.32,-84.47"/>
<polygon fill="#63b8ff" stroke="#63b8ff" points="82.77,-81.27 72.3,-79.67 79.48,-87.45 82.77,-81.27"/>
</g>
<!-- Node7 -->
<g id="node7" class="node">
<title>Node7</title>
<g id="a_node7"><a xlink:title=" ">
<polygon fill="#e0e0e0" stroke="#999999" points="225.5,-85 104.5,-85 104.5,-55 225.5,-55 225.5,-85"/>
<text text-anchor="start" x="112.5" y="-73" font-family="Helvetica,sans-Serif" font-size="10.00">shell/platform/embedder</text>
<text text-anchor="middle" x="165" y="-62" font-family="Helvetica,sans-Serif" font-size="10.00">/embedder.h</text>
</a>
</g>
</g>
<!-- Node5&#45;&gt;Node7 -->
<g id="edge6" class="edge">
<title>Node5&#45;&gt;Node7</title>
<path fill="none" stroke="#63b8ff" d="M165.85,-120.87C165.74,-114.11 165.57,-104.35 165.41,-95.26"/>
<polygon fill="#63b8ff" stroke="#63b8ff" points="168.91,-95.05 165.24,-85.11 161.91,-95.17 168.91,-95.05"/>
</g>
<!-- Node8 -->
<g id="node8" class="node">
<title>Node8</title>
<g id="a_node8"><a xlink:title=" ">
<polygon fill="#e0e0e0" stroke="#999999" points="282,-79.5 244,-79.5 244,-60.5 282,-60.5 282,-79.5"/>
<text text-anchor="middle" x="263" y="-67.5" font-family="Helvetica,sans-Serif" font-size="10.00">array</text>
</a>
</g>
</g>
<!-- Node5&#45;&gt;Node8 -->
<g id="edge7" class="edge">
<title>Node5&#45;&gt;Node8</title>
<path fill="none" stroke="#63b8ff" d="M180.31,-120.87C196,-111.41 221.4,-96.09 239.91,-84.92"/>
<polygon fill="#63b8ff" stroke="#63b8ff" points="241.87,-87.83 248.63,-79.67 238.26,-81.83 241.87,-87.83"/>
</g>
<!-- Node12 -->
<g id="node12" class="node">
<title>Node12</title>
<g id="a_node12"><a xlink:title=" ">
<polygon fill="#e0e0e0" stroke="#999999" points="319,-140 267,-140 267,-121 319,-121 319,-140"/>
<text text-anchor="middle" x="293" y="-128" font-family="Helvetica,sans-Serif" font-size="10.00">sstream</text>
</a>
</g>
</g>
<!-- Node11&#45;&gt;Node12 -->
<g id="edge11" class="edge">
<title>Node11&#45;&gt;Node12</title>
<path fill="none" stroke="#63b8ff" d="M329.73,-175.75C323.46,-168.18 314.21,-157.05 306.57,-147.84"/>
<polygon fill="#63b8ff" stroke="#63b8ff" points="309.21,-145.55 300.13,-140.09 303.83,-150.02 309.21,-145.55"/>
</g>
<!-- Node13 -->
<g id="node13" class="node">
<title>Node13</title>
<g id="a_node13"><a xlink:href="dlt_8h.html" target="_top" xlink:title=" ">
<polygon fill="white" stroke="#666666" points="386.5,-140 337.5,-140 337.5,-121 386.5,-121 386.5,-140"/>
<text text-anchor="middle" x="362" y="-128" font-family="Helvetica,sans-Serif" font-size="10.00">dlt/dlt.h</text>
</a>
</g>
</g>
<!-- Node11&#45;&gt;Node13 -->
<g id="edge12" class="edge">
<title>Node11&#45;&gt;Node13</title>
<path fill="none" stroke="#63b8ff" d="M341.13,-175.75C344.51,-168.57 349.42,-158.18 353.62,-149.27"/>
<polygon fill="#63b8ff" stroke="#63b8ff" points="356.85,-150.63 357.95,-140.09 350.52,-147.64 356.85,-150.63"/>
</g>
<!-- Node16 -->
<g id="node16" class="node">
<title>Node16</title>
<g id="a_node16"><a xlink:title=" ">
<polygon fill="#e0e0e0" stroke="#999999" points="478.5,-79.5 377.5,-79.5 377.5,-60.5 478.5,-60.5 478.5,-79.5"/>
<text text-anchor="middle" x="428" y="-67.5" font-family="Helvetica,sans-Serif" font-size="10.00">flutter/fml/macros.h</text>
</a>
</g>
</g>
<!-- Node11&#45;&gt;Node16 -->
<g id="edge16" class="edge">
<title>Node11&#45;&gt;Node16</title>
<path fill="none" stroke="#63b8ff" d="M352.23,-175.95C365.24,-168.01 383.75,-155.17 396,-140 408.28,-124.79 417.06,-104.09 422.28,-89.34"/>
<polygon fill="#63b8ff" stroke="#63b8ff" points="425.62,-90.41 425.45,-79.82 418.97,-88.2 425.62,-90.41"/>
</g>
<!-- Node14 -->
<g id="node14" class="node">
<title>Node14</title>
<g id="a_node14"><a xlink:href="libdlt_8h.html" target="_top" xlink:title=" ">
<polygon fill="white" stroke="#666666" points="359.5,-79.5 300.5,-79.5 300.5,-60.5 359.5,-60.5 359.5,-79.5"/>
<text text-anchor="middle" x="330" y="-67.5" font-family="Helvetica,sans-Serif" font-size="10.00">dlt/libdlt.h</text>
</a>
</g>
</g>
<!-- Node13&#45;&gt;Node14 -->
<g id="edge13" class="edge">
<title>Node13&#45;&gt;Node14</title>
<path fill="none" stroke="#63b8ff" d="M357.28,-120.87C352.65,-112.4 345.45,-99.24 339.61,-88.57"/>
<polygon fill="#63b8ff" stroke="#63b8ff" points="342.61,-86.76 334.74,-79.67 336.47,-90.12 342.61,-86.76"/>
</g>
<!-- Node13&#45;&gt;Node16 -->
<g id="edge15" class="edge">
<title>Node13&#45;&gt;Node16</title>
<path fill="none" stroke="#63b8ff" d="M371.74,-120.87C381.97,-111.8 398.29,-97.34 410.72,-86.32"/>
<polygon fill="#63b8ff" stroke="#63b8ff" points="413.06,-88.92 418.22,-79.67 408.42,-83.68 413.06,-88.92"/>
</g>
<!-- Node15 -->
<g id="node15" class="node">
<title>Node15</title>
<g id="a_node15"><a xlink:title=" ">
<polygon fill="#e0e0e0" stroke="#999999" points="353,-19 307,-19 307,0 353,0 353,-19"/>
<text text-anchor="middle" x="330" y="-7" font-family="Helvetica,sans-Serif" font-size="10.00">cstdint</text>
</a>
</g>
</g>
<!-- Node14&#45;&gt;Node15 -->
<g id="edge14" class="edge">
<title>Node14&#45;&gt;Node15</title>
<path fill="none" stroke="#63b8ff" d="M330,-60.37C330,-52.25 330,-39.81 330,-29.39"/>
<polygon fill="#63b8ff" stroke="#63b8ff" points="333.5,-29.17 330,-19.17 326.5,-29.17 333.5,-29.17"/>
</g>
</g>
</svg>
