<?xml version="1.0" encoding="UTF-8" standalone="no"?>
<!DOCTYPE svg PUBLIC "-//W3C//DTD SVG 1.1//EN"
 "http://www.w3.org/Graphics/SVG/1.1/DTD/svg11.dtd">
<!-- Generated by graphviz version 2.43.0 (0)
 -->
<!-- Title: /home/joel.winarske@toyotaconnected.com/development/stargate/ivi&#45;homescreen/shell/backend/gl_process_resolver.h Pages: 1 -->
<svg width="315pt" height="195pt"
 viewBox="0.00 0.00 315.00 195.00" xmlns="http://www.w3.org/2000/svg" xmlns:xlink="http://www.w3.org/1999/xlink">
<g id="graph0" class="graph" transform="scale(1 1) rotate(0) translate(4 191)">
<title>/home/joel.winarske@toyotaconnected.com/development/stargate/ivi&#45;homescreen/shell/backend/gl_process_resolver.h</title>
<polygon fill="white" stroke="transparent" points="-4,4 -4,-191 311,-191 311,4 -4,4"/>
<!-- Node1 -->
<g id="node1" class="node">
<title>Node1</title>
<g id="a_node1"><a xlink:title=" ">
<polygon fill="#bfbfbf" stroke="black" points="16,-123.5 16,-186.5 184,-186.5 184,-123.5 16,-123.5"/>
<text text-anchor="start" x="24" y="-174.5" font-family="Helvetica,sans-Serif" font-size="10.00">/home/joel.winarske</text>
<text text-anchor="start" x="24" y="-163.5" font-family="Helvetica,sans-Serif" font-size="10.00">@toyotaconnected.com</text>
<text text-anchor="start" x="24" y="-152.5" font-family="Helvetica,sans-Serif" font-size="10.00">/development/stargate</text>
<text text-anchor="start" x="24" y="-141.5" font-family="Helvetica,sans-Serif" font-size="10.00">/ivi&#45;homescreen/shell</text>
<text text-anchor="middle" x="100" y="-130.5" font-family="Helvetica,sans-Serif" font-size="10.00">/backend/gl_process_resolver.h</text>
</a>
</g>
</g>
<!-- Node2 -->
<g id="node2" class="node">
<title>Node2</title>
<g id="a_node2"><a xlink:title=" ">
<polygon fill="white" stroke="#bfbfbf" points="0,-67.5 0,-86.5 58,-86.5 58,-67.5 0,-67.5"/>
<text text-anchor="middle" x="29" y="-74.5" font-family="Helvetica,sans-Serif" font-size="10.00">memory</text>
</a>
</g>
</g>
<!-- Node1&#45;&gt;Node2 -->
<g id="edge1" class="edge">
<title>Node1&#45;&gt;Node2</title>
<path fill="none" stroke="midnightblue" d="M71.12,-123.09C61.81,-113.12 51.87,-102.48 43.99,-94.04"/>
<polygon fill="midnightblue" stroke="midnightblue" points="46.53,-91.64 37.14,-86.72 41.41,-96.41 46.53,-91.64"/>
</g>
<!-- Node3 -->
<g id="node3" class="node">
<title>Node3</title>
<g id="a_node3"><a xlink:title=" ">
<polygon fill="white" stroke="#bfbfbf" points="76.5,-67.5 76.5,-86.5 123.5,-86.5 123.5,-67.5 76.5,-67.5"/>
<text text-anchor="middle" x="100" y="-74.5" font-family="Helvetica,sans-Serif" font-size="10.00">vector</text>
</a>
</g>
</g>
<!-- Node1&#45;&gt;Node3 -->
<g id="edge2" class="edge">
<title>Node1&#45;&gt;Node3</title>
<path fill="none" stroke="midnightblue" d="M100,-123.09C100,-114.15 100,-104.67 100,-96.72"/>
<polygon fill="midnightblue" stroke="midnightblue" points="103.5,-96.72 100,-86.72 96.5,-96.72 103.5,-96.72"/>
</g>
<!-- Node4 -->
<g id="node4" class="node">
<title>Node4</title>
<g id="a_node4"><a xlink:href="constants_8h.html" target="_top" xlink:title=" ">
<polygon fill="white" stroke="black" points="141.5,-67.5 141.5,-86.5 214.5,-86.5 214.5,-67.5 141.5,-67.5"/>
<text text-anchor="middle" x="178" y="-74.5" font-family="Helvetica,sans-Serif" font-size="10.00">constants.h</text>
</a>
</g>
</g>
<!-- Node1&#45;&gt;Node4 -->
<g id="edge3" class="edge">
<title>Node1&#45;&gt;Node4</title>
<path fill="none" stroke="midnightblue" d="M131.73,-123.09C142.06,-113.02 153.1,-102.26 161.8,-93.78"/>
<polygon fill="midnightblue" stroke="midnightblue" points="164.33,-96.2 169.05,-86.72 159.45,-91.19 164.33,-96.2"/>
</g>
<!-- Node5 -->
<g id="node5" class="node">
<title>Node5</title>
<g id="a_node5"><a xlink:title=" ">
<polygon fill="white" stroke="#bfbfbf" points="29,-6 29,-25 91,-25 91,-6 29,-6"/>
<text text-anchor="middle" x="60" y="-13" font-family="Helvetica,sans-Serif" font-size="10.00">EGL/egl.h</text>
</a>
</g>
</g>
<!-- Node4&#45;&gt;Node5 -->
<g id="edge4" class="edge">
<title>Node4&#45;&gt;Node5</title>
<path fill="none" stroke="midnightblue" d="M161.09,-67.48C141.47,-57.58 108.87,-41.14 86.01,-29.62"/>
<polygon fill="midnightblue" stroke="midnightblue" points="87.38,-26.39 76.88,-25.01 84.23,-32.64 87.38,-26.39"/>
</g>
<!-- Node6 -->
<g id="node6" class="node">
<title>Node6</title>
<g id="a_node6"><a xlink:title=" ">
<polygon fill="white" stroke="#bfbfbf" points="109.5,-0.5 109.5,-30.5 246.5,-30.5 246.5,-0.5 109.5,-0.5"/>
<text text-anchor="start" x="117.5" y="-18.5" font-family="Helvetica,sans-Serif" font-size="10.00">shell/platform/embedder</text>
<text text-anchor="middle" x="178" y="-7.5" font-family="Helvetica,sans-Serif" font-size="10.00">/embedder.h</text>
</a>
</g>
</g>
<!-- Node4&#45;&gt;Node6 -->
<g id="edge5" class="edge">
<title>Node4&#45;&gt;Node6</title>
<path fill="none" stroke="midnightblue" d="M178,-67.48C178,-60.47 178,-50.19 178,-40.7"/>
<polygon fill="midnightblue" stroke="midnightblue" points="181.5,-40.52 178,-30.52 174.5,-40.52 181.5,-40.52"/>
</g>
<!-- Node7 -->
<g id="node7" class="node">
<title>Node7</title>
<g id="a_node7"><a xlink:title=" ">
<polygon fill="white" stroke="#bfbfbf" points="265,-6 265,-25 307,-25 307,-6 265,-6"/>
<text text-anchor="middle" x="286" y="-13" font-family="Helvetica,sans-Serif" font-size="10.00">array</text>
</a>
</g>
</g>
<!-- Node4&#45;&gt;Node7 -->
<g id="edge6" class="edge">
<title>Node4&#45;&gt;Node7</title>
<path fill="none" stroke="midnightblue" d="M193.47,-67.48C211.28,-57.67 240.74,-41.43 261.63,-29.92"/>
<polygon fill="midnightblue" stroke="midnightblue" points="263.49,-32.9 270.55,-25.01 260.11,-26.77 263.49,-32.9"/>
</g>
</g>
</svg>
