<?xml version="1.0" encoding="UTF-8" standalone="no"?>
<!DOCTYPE svg PUBLIC "-//W3C//DTD SVG 1.1//EN"
 "http://www.w3.org/Graphics/SVG/1.1/DTD/svg11.dtd">
<!-- Generated by graphviz version 2.43.0 (0)
 -->
<!-- Title: /home/joel.winarske@toyotaconnected.com/development/workspace&#45;automation&#45;configs/app/ivi&#45;homescreen/shell/backend/gl_process_resolver.cc Pages: 1 -->
<svg width="413pt" height="262pt"
 viewBox="0.00 0.00 412.50 262.00" xmlns="http://www.w3.org/2000/svg" xmlns:xlink="http://www.w3.org/1999/xlink">
<g id="graph0" class="graph" transform="scale(1 1) rotate(0) translate(4 258)">
<title>/home/joel.winarske@toyotaconnected.com/development/workspace&#45;automation&#45;configs/app/ivi&#45;homescreen/shell/backend/gl_process_resolver.cc</title>
<polygon fill="white" stroke="transparent" points="-4,4 -4,-258 408.5,-258 408.5,4 -4,4"/>
<!-- Node1 -->
<g id="node1" class="node">
<title>Node1</title>
<g id="a_node1"><a xlink:title=" ">
<polygon fill="#bfbfbf" stroke="black" points="155.5,-179.5 155.5,-253.5 320.5,-253.5 320.5,-179.5 155.5,-179.5"/>
<text text-anchor="start" x="163.5" y="-241.5" font-family="Helvetica,sans-Serif" font-size="10.00">/home/joel.winarske</text>
<text text-anchor="start" x="163.5" y="-230.5" font-family="Helvetica,sans-Serif" font-size="10.00">@toyotaconnected.com</text>
<text text-anchor="start" x="163.5" y="-219.5" font-family="Helvetica,sans-Serif" font-size="10.00">/development/workspace</text>
<text text-anchor="start" x="163.5" y="-208.5" font-family="Helvetica,sans-Serif" font-size="10.00">&#45;automation&#45;configs/app</text>
<text text-anchor="start" x="163.5" y="-197.5" font-family="Helvetica,sans-Serif" font-size="10.00">/ivi&#45;homescreen/shell/backend</text>
<text text-anchor="middle" x="238" y="-186.5" font-family="Helvetica,sans-Serif" font-size="10.00">/gl_process_resolver.cc</text>
</a>
</g>
</g>
<!-- Node2 -->
<g id="node2" class="node">
<title>Node2</title>
<g id="a_node2"><a xlink:href="gl__process__resolver_8h.html" target="_top" xlink:title=" ">
<polygon fill="white" stroke="black" points="39,-123.5 39,-142.5 161,-142.5 161,-123.5 39,-123.5"/>
<text text-anchor="middle" x="100" y="-130.5" font-family="Helvetica,sans-Serif" font-size="10.00">gl_process_resolver.h</text>
</a>
</g>
</g>
<!-- Node1&#45;&gt;Node2 -->
<g id="edge1" class="edge">
<title>Node1&#45;&gt;Node2</title>
<path fill="none" stroke="midnightblue" d="M176.67,-179.28C157.77,-168.12 138.1,-156.5 123.41,-147.83"/>
<polygon fill="midnightblue" stroke="midnightblue" points="124.93,-144.66 114.54,-142.59 121.37,-150.69 124.93,-144.66"/>
</g>
<!-- Node9 -->
<g id="node9" class="node">
<title>Node9</title>
<g id="a_node9"><a xlink:title=" ">
<polygon fill="white" stroke="#bfbfbf" points="179,-123.5 179,-142.5 229,-142.5 229,-123.5 179,-123.5"/>
<text text-anchor="middle" x="204" y="-130.5" font-family="Helvetica,sans-Serif" font-size="10.00">dlfcn.h</text>
</a>
</g>
</g>
<!-- Node1&#45;&gt;Node9 -->
<g id="edge8" class="edge">
<title>Node1&#45;&gt;Node9</title>
<path fill="none" stroke="midnightblue" d="M222.79,-179.04C218.86,-169.61 214.79,-159.87 211.46,-151.87"/>
<polygon fill="midnightblue" stroke="midnightblue" points="214.64,-150.41 207.56,-142.53 208.18,-153.11 214.64,-150.41"/>
</g>
<!-- Node10 -->
<g id="node10" class="node">
<title>Node10</title>
<g id="a_node10"><a xlink:title=" ">
<polygon fill="white" stroke="#bfbfbf" points="247,-123.5 247,-142.5 299,-142.5 299,-123.5 247,-123.5"/>
<text text-anchor="middle" x="273" y="-130.5" font-family="Helvetica,sans-Serif" font-size="10.00">cassert</text>
</a>
</g>
</g>
<!-- Node1&#45;&gt;Node10 -->
<g id="edge9" class="edge">
<title>Node1&#45;&gt;Node10</title>
<path fill="none" stroke="midnightblue" d="M253.66,-179.04C257.71,-169.61 261.89,-159.87 265.33,-151.87"/>
<polygon fill="midnightblue" stroke="midnightblue" points="268.61,-153.1 269.34,-142.53 262.17,-150.34 268.61,-153.1"/>
</g>
<!-- Node11 -->
<g id="node11" class="node">
<title>Node11</title>
<g id="a_node11"><a xlink:href="logging_8h.html" target="_top" xlink:title=" ">
<polygon fill="white" stroke="black" points="317,-123.5 317,-142.5 379,-142.5 379,-123.5 317,-123.5"/>
<text text-anchor="middle" x="348" y="-130.5" font-family="Helvetica,sans-Serif" font-size="10.00">logging.h</text>
</a>
</g>
</g>
<!-- Node1&#45;&gt;Node11 -->
<g id="edge10" class="edge">
<title>Node1&#45;&gt;Node11</title>
<path fill="none" stroke="midnightblue" d="M286.89,-179.28C301.52,-168.44 316.74,-157.16 328.32,-148.58"/>
<polygon fill="midnightblue" stroke="midnightblue" points="330.46,-151.35 336.41,-142.59 326.29,-145.73 330.46,-151.35"/>
</g>
<!-- Node3 -->
<g id="node3" class="node">
<title>Node3</title>
<g id="a_node3"><a xlink:title=" ">
<polygon fill="white" stroke="#bfbfbf" points="0,-67.5 0,-86.5 58,-86.5 58,-67.5 0,-67.5"/>
<text text-anchor="middle" x="29" y="-74.5" font-family="Helvetica,sans-Serif" font-size="10.00">memory</text>
</a>
</g>
</g>
<!-- Node2&#45;&gt;Node3 -->
<g id="edge2" class="edge">
<title>Node2&#45;&gt;Node3</title>
<path fill="none" stroke="midnightblue" d="M88.59,-123.32C77.89,-115.18 61.66,-102.84 48.84,-93.09"/>
<polygon fill="midnightblue" stroke="midnightblue" points="50.69,-90.1 40.61,-86.83 46.46,-95.67 50.69,-90.1"/>
</g>
<!-- Node4 -->
<g id="node4" class="node">
<title>Node4</title>
<g id="a_node4"><a xlink:title=" ">
<polygon fill="white" stroke="#bfbfbf" points="76.5,-67.5 76.5,-86.5 123.5,-86.5 123.5,-67.5 76.5,-67.5"/>
<text text-anchor="middle" x="100" y="-74.5" font-family="Helvetica,sans-Serif" font-size="10.00">vector</text>
</a>
</g>
</g>
<!-- Node2&#45;&gt;Node4 -->
<g id="edge3" class="edge">
<title>Node2&#45;&gt;Node4</title>
<path fill="none" stroke="midnightblue" d="M100,-123.08C100,-116.01 100,-105.86 100,-96.99"/>
<polygon fill="midnightblue" stroke="midnightblue" points="103.5,-96.75 100,-86.75 96.5,-96.75 103.5,-96.75"/>
</g>
<!-- Node5 -->
<g id="node5" class="node">
<title>Node5</title>
<g id="a_node5"><a xlink:href="constants_8h.html" target="_top" xlink:title=" ">
<polygon fill="white" stroke="black" points="141.5,-67.5 141.5,-86.5 214.5,-86.5 214.5,-67.5 141.5,-67.5"/>
<text text-anchor="middle" x="178" y="-74.5" font-family="Helvetica,sans-Serif" font-size="10.00">constants.h</text>
</a>
</g>
</g>
<!-- Node2&#45;&gt;Node5 -->
<g id="edge4" class="edge">
<title>Node2&#45;&gt;Node5</title>
<path fill="none" stroke="midnightblue" d="M112.53,-123.32C124.59,-114.98 143.03,-102.21 157.27,-92.35"/>
<polygon fill="midnightblue" stroke="midnightblue" points="159.27,-95.22 165.5,-86.65 155.28,-89.47 159.27,-95.22"/>
</g>
<!-- Node6 -->
<g id="node6" class="node">
<title>Node6</title>
<g id="a_node6"><a xlink:title=" ">
<polygon fill="white" stroke="#bfbfbf" points="29,-6 29,-25 91,-25 91,-6 29,-6"/>
<text text-anchor="middle" x="60" y="-13" font-family="Helvetica,sans-Serif" font-size="10.00">EGL/egl.h</text>
</a>
</g>
</g>
<!-- Node5&#45;&gt;Node6 -->
<g id="edge5" class="edge">
<title>Node5&#45;&gt;Node6</title>
<path fill="none" stroke="midnightblue" d="M161.09,-67.48C141.47,-57.58 108.87,-41.14 86.01,-29.62"/>
<polygon fill="midnightblue" stroke="midnightblue" points="87.38,-26.39 76.88,-25.01 84.23,-32.64 87.38,-26.39"/>
</g>
<!-- Node7 -->
<g id="node7" class="node">
<title>Node7</title>
<g id="a_node7"><a xlink:title=" ">
<polygon fill="white" stroke="#bfbfbf" points="109.5,-0.5 109.5,-30.5 246.5,-30.5 246.5,-0.5 109.5,-0.5"/>
<text text-anchor="start" x="117.5" y="-18.5" font-family="Helvetica,sans-Serif" font-size="10.00">shell/platform/embedder</text>
<text text-anchor="middle" x="178" y="-7.5" font-family="Helvetica,sans-Serif" font-size="10.00">/embedder.h</text>
</a>
</g>
</g>
<!-- Node5&#45;&gt;Node7 -->
<g id="edge6" class="edge">
<title>Node5&#45;&gt;Node7</title>
<path fill="none" stroke="midnightblue" d="M178,-67.48C178,-60.47 178,-50.19 178,-40.7"/>
<polygon fill="midnightblue" stroke="midnightblue" points="181.5,-40.52 178,-30.52 174.5,-40.52 181.5,-40.52"/>
</g>
<!-- Node8 -->
<g id="node8" class="node">
<title>Node8</title>
<g id="a_node8"><a xlink:title=" ">
<polygon fill="white" stroke="#bfbfbf" points="265,-6 265,-25 307,-25 307,-6 265,-6"/>
<text text-anchor="middle" x="286" y="-13" font-family="Helvetica,sans-Serif" font-size="10.00">array</text>
</a>
</g>
</g>
<!-- Node5&#45;&gt;Node8 -->
<g id="edge7" class="edge">
<title>Node5&#45;&gt;Node8</title>
<path fill="none" stroke="midnightblue" d="M193.47,-67.48C211.28,-57.67 240.74,-41.43 261.63,-29.92"/>
<polygon fill="midnightblue" stroke="midnightblue" points="263.49,-32.9 270.55,-25.01 260.11,-26.77 263.49,-32.9"/>
</g>
<!-- Node12 -->
<g id="node12" class="node">
<title>Node12</title>
<g id="a_node12"><a xlink:title=" ">
<polygon fill="white" stroke="#bfbfbf" points="291.5,-67.5 291.5,-86.5 404.5,-86.5 404.5,-67.5 291.5,-67.5"/>
<text text-anchor="middle" x="348" y="-74.5" font-family="Helvetica,sans-Serif" font-size="10.00">flutter/fml/logging.h</text>
</a>
</g>
</g>
<!-- Node11&#45;&gt;Node12 -->
<g id="edge11" class="edge">
<title>Node11&#45;&gt;Node12</title>
<path fill="none" stroke="midnightblue" d="M348,-123.08C348,-116.01 348,-105.86 348,-96.99"/>
<polygon fill="midnightblue" stroke="midnightblue" points="351.5,-96.75 348,-86.75 344.5,-96.75 351.5,-96.75"/>
</g>
</g>
</svg>
