<?xml version="1.0" encoding="UTF-8" standalone="no"?>
<!DOCTYPE svg PUBLIC "-//W3C//DTD SVG 1.1//EN"
 "http://www.w3.org/Graphics/SVG/1.1/DTD/svg11.dtd">
<!-- Generated by graphviz version 5.0.0 (0)
 -->
<!-- Title: /mnt/raid10/stargate/ivi&#45;homescreen/shell/backend/gl_process_resolver.cc Pages: 1 -->
<svg width="986pt" height="236pt"
 viewBox="0.00 0.00 985.50 236.00" xmlns="http://www.w3.org/2000/svg" xmlns:xlink="http://www.w3.org/1999/xlink">
<g id="graph0" class="graph" transform="scale(1 1) rotate(0) translate(4 232)">
<title>/mnt/raid10/stargate/ivi&#45;homescreen/shell/backend/gl_process_resolver.cc</title>
<!-- Node1 -->
<g id="node1" class="node">
<title>Node1</title>
<g id="a_node1"><a xlink:title=" ">
<polygon fill="#999999" stroke="#666666" points="401,-228 241,-228 241,-187 401,-187 401,-228"/>
<text text-anchor="start" x="249" y="-216" font-family="Helvetica,sans-Serif" font-size="10.00">/mnt/raid10/stargate</text>
<text text-anchor="start" x="249" y="-205" font-family="Helvetica,sans-Serif" font-size="10.00">/ivi&#45;homescreen/shell</text>
<text text-anchor="middle" x="321" y="-194" font-family="Helvetica,sans-Serif" font-size="10.00">/backend/gl_process_resolver.cc</text>
</a>
</g>
</g>
<!-- Node2 -->
<g id="node2" class="node">
<title>Node2</title>
<g id="a_node2"><a xlink:href="gl__process__resolver_8h.html" target="_top" xlink:title=" ">
<polygon fill="white" stroke="#666666" points="185,-151 73,-151 73,-132 185,-132 185,-151"/>
<text text-anchor="middle" x="129" y="-139" font-family="Helvetica,sans-Serif" font-size="10.00">gl_process_resolver.h</text>
</a>
</g>
</g>
<!-- Node1&#45;&gt;Node2 -->
<g id="edge1" class="edge">
<title>Node1&#45;&gt;Node2</title>
<path fill="none" stroke="#63b8ff" d="M262.35,-186.95C230.23,-176.24 191.51,-163.34 164.08,-154.19"/>
<polygon fill="#63b8ff" stroke="#63b8ff" points="165.12,-150.85 154.52,-151.01 162.9,-157.49 165.12,-150.85"/>
</g>
<!-- Node9 -->
<g id="node9" class="node">
<title>Node9</title>
<g id="a_node9"><a xlink:title=" ">
<polygon fill="#e0e0e0" stroke="#999999" points="311,-151 265,-151 265,-132 311,-132 311,-151"/>
<text text-anchor="middle" x="288" y="-139" font-family="Helvetica,sans-Serif" font-size="10.00">dlfcn.h</text>
</a>
</g>
</g>
<!-- Node1&#45;&gt;Node9 -->
<g id="edge8" class="edge">
<title>Node1&#45;&gt;Node9</title>
<path fill="none" stroke="#63b8ff" d="M310.92,-186.95C306.55,-178.48 301.48,-168.64 297.21,-160.37"/>
<polygon fill="#63b8ff" stroke="#63b8ff" points="300.21,-158.54 292.52,-151.26 293.99,-161.75 300.21,-158.54"/>
</g>
<!-- Node10 -->
<g id="node10" class="node">
<title>Node10</title>
<g id="a_node10"><a xlink:title=" ">
<polygon fill="#e0e0e0" stroke="#999999" points="378.5,-151 329.5,-151 329.5,-132 378.5,-132 378.5,-151"/>
<text text-anchor="middle" x="354" y="-139" font-family="Helvetica,sans-Serif" font-size="10.00">cassert</text>
</a>
</g>
</g>
<!-- Node1&#45;&gt;Node10 -->
<g id="edge9" class="edge">
<title>Node1&#45;&gt;Node10</title>
<path fill="none" stroke="#63b8ff" d="M331.08,-186.95C335.45,-178.48 340.52,-168.64 344.79,-160.37"/>
<polygon fill="#63b8ff" stroke="#63b8ff" points="348.01,-161.75 349.48,-151.26 341.79,-158.54 348.01,-161.75"/>
</g>
<!-- Node11 -->
<g id="node11" class="node">
<title>Node11</title>
<g id="a_node11"><a xlink:href="logging_8h.html" target="_top" xlink:title=" ">
<polygon fill="white" stroke="#666666" points="477,-151 421,-151 421,-132 477,-132 477,-151"/>
<text text-anchor="middle" x="449" y="-139" font-family="Helvetica,sans-Serif" font-size="10.00">logging.h</text>
</a>
</g>
</g>
<!-- Node1&#45;&gt;Node11 -->
<g id="edge10" class="edge">
<title>Node1&#45;&gt;Node11</title>
<path fill="none" stroke="#63b8ff" d="M360.1,-186.95C380.32,-176.84 404.47,-164.76 422.5,-155.75"/>
<polygon fill="#63b8ff" stroke="#63b8ff" points="424.44,-158.69 431.82,-151.09 421.31,-152.43 424.44,-158.69"/>
</g>
<!-- Node3 -->
<g id="node3" class="node">
<title>Node3</title>
<g id="a_node3"><a xlink:title=" ">
<polygon fill="#e0e0e0" stroke="#999999" points="52,-90.5 0,-90.5 0,-71.5 52,-71.5 52,-90.5"/>
<text text-anchor="middle" x="26" y="-78.5" font-family="Helvetica,sans-Serif" font-size="10.00">memory</text>
</a>
</g>
</g>
<!-- Node2&#45;&gt;Node3 -->
<g id="edge2" class="edge">
<title>Node2&#45;&gt;Node3</title>
<path fill="none" stroke="#63b8ff" d="M113.8,-131.87C96.99,-122.32 69.68,-106.81 49.98,-95.62"/>
<polygon fill="#63b8ff" stroke="#63b8ff" points="51.68,-92.56 41.26,-90.67 48.23,-98.65 51.68,-92.56"/>
</g>
<!-- Node4 -->
<g id="node4" class="node">
<title>Node4</title>
<g id="a_node4"><a xlink:title=" ">
<polygon fill="#e0e0e0" stroke="#999999" points="114,-90.5 70,-90.5 70,-71.5 114,-71.5 114,-90.5"/>
<text text-anchor="middle" x="92" y="-78.5" font-family="Helvetica,sans-Serif" font-size="10.00">vector</text>
</a>
</g>
</g>
<!-- Node2&#45;&gt;Node4 -->
<g id="edge3" class="edge">
<title>Node2&#45;&gt;Node4</title>
<path fill="none" stroke="#63b8ff" d="M123.54,-131.87C118.13,-123.31 109.69,-109.97 102.9,-99.24"/>
<polygon fill="#63b8ff" stroke="#63b8ff" points="105.79,-97.25 97.48,-90.67 99.87,-100.99 105.79,-97.25"/>
</g>
<!-- Node5 -->
<g id="node5" class="node">
<title>Node5</title>
<g id="a_node5"><a xlink:href="constants_8h.html" target="_top" xlink:title=" ">
<polygon fill="white" stroke="#666666" points="200,-90.5 132,-90.5 132,-71.5 200,-71.5 200,-90.5"/>
<text text-anchor="middle" x="166" y="-78.5" font-family="Helvetica,sans-Serif" font-size="10.00">constants.h</text>
</a>
</g>
</g>
<!-- Node2&#45;&gt;Node5 -->
<g id="edge4" class="edge">
<title>Node2&#45;&gt;Node5</title>
<path fill="none" stroke="#63b8ff" d="M134.46,-131.87C139.87,-123.31 148.31,-109.97 155.1,-99.24"/>
<polygon fill="#63b8ff" stroke="#63b8ff" points="158.13,-100.99 160.52,-90.67 152.21,-97.25 158.13,-100.99"/>
</g>
<!-- Node6 -->
<g id="node6" class="node">
<title>Node6</title>
<g id="a_node6"><a xlink:title=" ">
<polygon fill="#e0e0e0" stroke="#999999" points="87,-24.5 27,-24.5 27,-5.5 87,-5.5 87,-24.5"/>
<text text-anchor="middle" x="57" y="-12.5" font-family="Helvetica,sans-Serif" font-size="10.00">EGL/egl.h</text>
</a>
</g>
</g>
<!-- Node5&#45;&gt;Node6 -->
<g id="edge5" class="edge">
<title>Node5&#45;&gt;Node6</title>
<path fill="none" stroke="#63b8ff" d="M151.3,-71.37C133.18,-60.73 102.15,-42.51 80.66,-29.89"/>
<polygon fill="#63b8ff" stroke="#63b8ff" points="82.21,-26.74 71.82,-24.7 78.67,-32.78 82.21,-26.74"/>
</g>
<!-- Node7 -->
<g id="node7" class="node">
<title>Node7</title>
<g id="a_node7"><a xlink:title=" ">
<polygon fill="#e0e0e0" stroke="#999999" points="226.5,-30 105.5,-30 105.5,0 226.5,0 226.5,-30"/>
<text text-anchor="start" x="113.5" y="-18" font-family="Helvetica,sans-Serif" font-size="10.00">shell/platform/embedder</text>
<text text-anchor="middle" x="166" y="-7" font-family="Helvetica,sans-Serif" font-size="10.00">/embedder.h</text>
</a>
</g>
</g>
<!-- Node5&#45;&gt;Node7 -->
<g id="edge6" class="edge">
<title>Node5&#45;&gt;Node7</title>
<path fill="none" stroke="#63b8ff" d="M166,-71.37C166,-63.49 166,-51.45 166,-40.6"/>
<polygon fill="#63b8ff" stroke="#63b8ff" points="169.5,-40.36 166,-30.36 162.5,-40.36 169.5,-40.36"/>
</g>
<!-- Node8 -->
<g id="node8" class="node">
<title>Node8</title>
<g id="a_node8"><a xlink:title=" ">
<polygon fill="#e0e0e0" stroke="#999999" points="283,-24.5 245,-24.5 245,-5.5 283,-5.5 283,-24.5"/>
<text text-anchor="middle" x="264" y="-12.5" font-family="Helvetica,sans-Serif" font-size="10.00">array</text>
</a>
</g>
</g>
<!-- Node5&#45;&gt;Node8 -->
<g id="edge7" class="edge">
<title>Node5&#45;&gt;Node8</title>
<path fill="none" stroke="#63b8ff" d="M179.22,-71.37C195.36,-60.82 222.91,-42.84 242.21,-30.23"/>
<polygon fill="#63b8ff" stroke="#63b8ff" points="244.22,-33.1 250.68,-24.7 240.39,-27.24 244.22,-33.1"/>
</g>
<!-- Node11&#45;&gt;Node5 -->
<g id="edge18" class="edge">
<title>Node11&#45;&gt;Node5</title>
<path fill="none" stroke="#63b8ff" d="M420.66,-136.48C375.49,-129.8 284.57,-115.22 209,-96 206.05,-95.25 203.01,-94.41 199.97,-93.51"/>
<polygon fill="#63b8ff" stroke="#63b8ff" points="200.98,-90.16 190.4,-90.56 198.92,-96.85 200.98,-90.16"/>
</g>
<!-- Node12 -->
<g id="node12" class="node">
<title>Node12</title>
<g id="a_node12"><a xlink:title=" ">
<polygon fill="#e0e0e0" stroke="#999999" points="270,-90.5 218,-90.5 218,-71.5 270,-71.5 270,-90.5"/>
<text text-anchor="middle" x="244" y="-78.5" font-family="Helvetica,sans-Serif" font-size="10.00">sstream</text>
</a>
</g>
</g>
<!-- Node11&#45;&gt;Node12 -->
<g id="edge11" class="edge">
<title>Node11&#45;&gt;Node12</title>
<path fill="none" stroke="#63b8ff" d="M420.71,-134.23C386.72,-126.44 328.11,-112.18 279,-96 277.33,-95.45 275.63,-94.86 273.92,-94.25"/>
<polygon fill="#63b8ff" stroke="#63b8ff" points="274.79,-90.84 264.2,-90.58 272.32,-97.39 274.79,-90.84"/>
</g>
<!-- Node13 -->
<g id="node13" class="node">
<title>Node13</title>
<g id="a_node13"><a xlink:title=" ">
<polygon fill="#e0e0e0" stroke="#999999" points="376,-90.5 288,-90.5 288,-71.5 376,-71.5 376,-90.5"/>
<text text-anchor="middle" x="332" y="-78.5" font-family="Helvetica,sans-Serif" font-size="10.00">spdlog/cfg/env.h</text>
</a>
</g>
</g>
<!-- Node11&#45;&gt;Node13 -->
<g id="edge12" class="edge">
<title>Node11&#45;&gt;Node13</title>
<path fill="none" stroke="#63b8ff" d="M431.99,-131.99C412.58,-122.29 380.61,-106.31 358.06,-95.03"/>
<polygon fill="#63b8ff" stroke="#63b8ff" points="359.54,-91.86 349.03,-90.52 356.41,-98.12 359.54,-91.86"/>
</g>
<!-- Node14 -->
<g id="node14" class="node">
<title>Node14</title>
<g id="a_node14"><a xlink:title=" ">
<polygon fill="#e0e0e0" stroke="#999999" points="504,-96 394,-96 394,-66 504,-66 504,-96"/>
<text text-anchor="start" x="402" y="-84" font-family="Helvetica,sans-Serif" font-size="10.00">spdlog/sinks/callback</text>
<text text-anchor="middle" x="449" y="-73" font-family="Helvetica,sans-Serif" font-size="10.00">_sink.h</text>
</a>
</g>
</g>
<!-- Node11&#45;&gt;Node14 -->
<g id="edge13" class="edge">
<title>Node11&#45;&gt;Node14</title>
<path fill="none" stroke="#63b8ff" d="M449,-131.87C449,-125.11 449,-115.35 449,-106.26"/>
<polygon fill="#63b8ff" stroke="#63b8ff" points="452.5,-106.11 449,-96.11 445.5,-106.11 452.5,-106.11"/>
</g>
<!-- Node15 -->
<g id="node15" class="node">
<title>Node15</title>
<g id="a_node15"><a xlink:title=" ">
<polygon fill="#e0e0e0" stroke="#999999" points="636,-96 522,-96 522,-66 636,-66 636,-96"/>
<text text-anchor="start" x="530" y="-84" font-family="Helvetica,sans-Serif" font-size="10.00">spdlog/sinks/ringbuffer</text>
<text text-anchor="middle" x="579" y="-73" font-family="Helvetica,sans-Serif" font-size="10.00">_sink.h</text>
</a>
</g>
</g>
<!-- Node11&#45;&gt;Node15 -->
<g id="edge14" class="edge">
<title>Node11&#45;&gt;Node15</title>
<path fill="none" stroke="#63b8ff" d="M467.9,-131.99C486.29,-123.72 514.8,-110.89 538.34,-100.3"/>
<polygon fill="#63b8ff" stroke="#63b8ff" points="540.06,-103.36 547.75,-96.06 537.19,-96.98 540.06,-103.36"/>
</g>
<!-- Node16 -->
<g id="node16" class="node">
<title>Node16</title>
<g id="a_node16"><a xlink:title=" ">
<polygon fill="#e0e0e0" stroke="#999999" points="755.5,-96 654.5,-96 654.5,-66 755.5,-66 755.5,-96"/>
<text text-anchor="start" x="662.5" y="-84" font-family="Helvetica,sans-Serif" font-size="10.00">spdlog/sinks/stdout</text>
<text text-anchor="middle" x="705" y="-73" font-family="Helvetica,sans-Serif" font-size="10.00">_color_sinks.h</text>
</a>
</g>
</g>
<!-- Node11&#45;&gt;Node16 -->
<g id="edge15" class="edge">
<title>Node11&#45;&gt;Node16</title>
<path fill="none" stroke="#63b8ff" d="M477.25,-134.14C513.49,-125.97 578.57,-111.26 644.16,-96.18"/>
<polygon fill="#63b8ff" stroke="#63b8ff" points="645.31,-99.51 654.27,-93.86 643.74,-92.69 645.31,-99.51"/>
</g>
<!-- Node17 -->
<g id="node17" class="node">
<title>Node17</title>
<g id="a_node17"><a xlink:title=" ">
<polygon fill="#e0e0e0" stroke="#999999" points="874.5,-96 773.5,-96 773.5,-66 874.5,-66 874.5,-96"/>
<text text-anchor="start" x="781.5" y="-84" font-family="Helvetica,sans-Serif" font-size="10.00">spdlog/sinks/stdout</text>
<text text-anchor="middle" x="824" y="-73" font-family="Helvetica,sans-Serif" font-size="10.00">_sinks.h</text>
</a>
</g>
</g>
<!-- Node11&#45;&gt;Node17 -->
<g id="edge16" class="edge">
<title>Node11&#45;&gt;Node17</title>
<path fill="none" stroke="#63b8ff" d="M477.04,-137.44C530.75,-131.39 652,-116.81 763.18,-96.25"/>
<polygon fill="#63b8ff" stroke="#63b8ff" points="764.03,-99.65 773.22,-94.37 762.74,-92.77 764.03,-99.65"/>
</g>
<!-- Node18 -->
<g id="node18" class="node">
<title>Node18</title>
<g id="a_node18"><a xlink:title=" ">
<polygon fill="#e0e0e0" stroke="#999999" points="977.5,-90.5 892.5,-90.5 892.5,-71.5 977.5,-71.5 977.5,-90.5"/>
<text text-anchor="middle" x="935" y="-78.5" font-family="Helvetica,sans-Serif" font-size="10.00">spdlog/spdlog.h</text>
</a>
</g>
</g>
<!-- Node11&#45;&gt;Node18 -->
<g id="edge17" class="edge">
<title>Node11&#45;&gt;Node18</title>
<path fill="none" stroke="#63b8ff" d="M477.22,-139.24C546.84,-135.77 732.15,-124.41 884,-96 888.38,-95.18 892.94,-94.17 897.44,-93.06"/>
<polygon fill="#63b8ff" stroke="#63b8ff" points="898.34,-96.45 907.14,-90.55 896.58,-89.67 898.34,-96.45"/>
</g>
</g>
</svg>
