<?xml version="1.0" encoding="UTF-8" standalone="no"?>
<!DOCTYPE svg PUBLIC "-//W3C//DTD SVG 1.1//EN"
 "http://www.w3.org/Graphics/SVG/1.1/DTD/svg11.dtd">
<!-- Generated by graphviz version 2.43.0 (0)
 -->
<!-- Title: /home/joel.winarske@toyotaconnected.com/development/stargate/ivi&#45;homescreen/shell/backend/gl_process_resolver.h Pages: 1 -->
<svg width="488pt" height="172pt"
 viewBox="0.00 0.00 488.00 172.00" xmlns="http://www.w3.org/2000/svg" xmlns:xlink="http://www.w3.org/1999/xlink">
<g id="graph0" class="graph" transform="scale(1 1) rotate(0) translate(4 168)">
<title>/home/joel.winarske@toyotaconnected.com/development/stargate/ivi&#45;homescreen/shell/backend/gl_process_resolver.h</title>
<polygon fill="white" stroke="transparent" points="-4,4 -4,-168 484,-168 484,4 -4,4"/>
<!-- Node1 -->
<g id="node1" class="node">
<title>Node1</title>
<g id="a_node1"><a xlink:title=" ">
<polygon fill="#bfbfbf" stroke="black" points="153,-100.5 153,-163.5 321,-163.5 321,-100.5 153,-100.5"/>
<text text-anchor="start" x="161" y="-151.5" font-family="Helvetica,sans-Serif" font-size="10.00">/home/joel.winarske</text>
<text text-anchor="start" x="161" y="-140.5" font-family="Helvetica,sans-Serif" font-size="10.00">@toyotaconnected.com</text>
<text text-anchor="start" x="161" y="-129.5" font-family="Helvetica,sans-Serif" font-size="10.00">/development/stargate</text>
<text text-anchor="start" x="161" y="-118.5" font-family="Helvetica,sans-Serif" font-size="10.00">/ivi&#45;homescreen/shell</text>
<text text-anchor="middle" x="237" y="-107.5" font-family="Helvetica,sans-Serif" font-size="10.00">/backend/gl_process_resolver.h</text>
</a>
</g>
</g>
<!-- Node2 -->
<g id="node2" class="node">
<title>Node2</title>
<g id="a_node2"><a xlink:href="egl_8cc.html" target="_top" xlink:title=" ">
<polygon fill="white" stroke="black" points="0,-0.5 0,-63.5 132,-63.5 132,-0.5 0,-0.5"/>
<text text-anchor="start" x="8" y="-51.5" font-family="Helvetica,sans-Serif" font-size="10.00">/home/joel.winarske</text>
<text text-anchor="start" x="8" y="-40.5" font-family="Helvetica,sans-Serif" font-size="10.00">@toyotaconnected.com</text>
<text text-anchor="start" x="8" y="-29.5" font-family="Helvetica,sans-Serif" font-size="10.00">/development/stargate</text>
<text text-anchor="start" x="8" y="-18.5" font-family="Helvetica,sans-Serif" font-size="10.00">/ivi&#45;homescreen/shell</text>
<text text-anchor="middle" x="66" y="-7.5" font-family="Helvetica,sans-Serif" font-size="10.00">/backend/egl.cc</text>
</a>
</g>
</g>
<!-- Node1&#45;&gt;Node2 -->
<g id="edge1" class="edge">
<title>Node1&#45;&gt;Node2</title>
<path fill="none" stroke="midnightblue" d="M174.62,-95.25C156.52,-84.88 136.94,-73.65 119.45,-63.63"/>
<polygon fill="midnightblue" stroke="midnightblue" points="172.95,-98.33 183.36,-100.26 176.43,-92.25 172.95,-98.33"/>
</g>
<!-- Node3 -->
<g id="node3" class="node">
<title>Node3</title>
<g id="a_node3"><a xlink:href="gl__process__resolver_8cc.html" target="_top" xlink:title=" ">
<polygon fill="white" stroke="black" points="150.5,-0.5 150.5,-63.5 323.5,-63.5 323.5,-0.5 150.5,-0.5"/>
<text text-anchor="start" x="158.5" y="-51.5" font-family="Helvetica,sans-Serif" font-size="10.00">/home/joel.winarske</text>
<text text-anchor="start" x="158.5" y="-40.5" font-family="Helvetica,sans-Serif" font-size="10.00">@toyotaconnected.com</text>
<text text-anchor="start" x="158.5" y="-29.5" font-family="Helvetica,sans-Serif" font-size="10.00">/development/stargate</text>
<text text-anchor="start" x="158.5" y="-18.5" font-family="Helvetica,sans-Serif" font-size="10.00">/ivi&#45;homescreen/shell</text>
<text text-anchor="middle" x="237" y="-7.5" font-family="Helvetica,sans-Serif" font-size="10.00">/backend/gl_process_resolver.cc</text>
</a>
</g>
</g>
<!-- Node1&#45;&gt;Node3 -->
<g id="edge2" class="edge">
<title>Node1&#45;&gt;Node3</title>
<path fill="none" stroke="midnightblue" d="M237,-90.1C237,-81.24 237,-72.01 237,-63.63"/>
<polygon fill="midnightblue" stroke="midnightblue" points="233.5,-90.26 237,-100.26 240.5,-90.26 233.5,-90.26"/>
</g>
<!-- Node4 -->
<g id="node4" class="node">
<title>Node4</title>
<g id="a_node4"><a xlink:href="wayland__egl_8cc.html" target="_top" xlink:title=" ">
<polygon fill="white" stroke="black" points="342,-0.5 342,-63.5 480,-63.5 480,-0.5 342,-0.5"/>
<text text-anchor="start" x="350" y="-51.5" font-family="Helvetica,sans-Serif" font-size="10.00">/home/joel.winarske</text>
<text text-anchor="start" x="350" y="-40.5" font-family="Helvetica,sans-Serif" font-size="10.00">@toyotaconnected.com</text>
<text text-anchor="start" x="350" y="-29.5" font-family="Helvetica,sans-Serif" font-size="10.00">/development/stargate</text>
<text text-anchor="start" x="350" y="-18.5" font-family="Helvetica,sans-Serif" font-size="10.00">/ivi&#45;homescreen/shell</text>
<text text-anchor="middle" x="411" y="-7.5" font-family="Helvetica,sans-Serif" font-size="10.00">/backend/wayland_egl.cc</text>
</a>
</g>
</g>
<!-- Node1&#45;&gt;Node4 -->
<g id="edge3" class="edge">
<title>Node1&#45;&gt;Node4</title>
<path fill="none" stroke="midnightblue" d="M300.48,-95.25C318.89,-84.88 338.82,-73.65 356.62,-63.63"/>
<polygon fill="midnightblue" stroke="midnightblue" points="298.57,-92.3 291.58,-100.26 302.01,-98.4 298.57,-92.3"/>
</g>
</g>
</svg>
