<?xml version="1.0" encoding="UTF-8" standalone="no"?>
<!DOCTYPE svg PUBLIC "-//W3C//DTD SVG 1.1//EN"
 "http://www.w3.org/Graphics/SVG/1.1/DTD/svg11.dtd">
<!-- Generated by graphviz version 2.43.0 (0)
 -->
<!-- Title: /home/joel.winarske@toyotaconnected.com/development/workspace&#45;automation&#45;configs/app/ivi&#45;homescreen/shell/hexdump.h Pages: 1 -->
<svg width="640pt" height="183pt"
 viewBox="0.00 0.00 639.50 183.00" xmlns="http://www.w3.org/2000/svg" xmlns:xlink="http://www.w3.org/1999/xlink">
<g id="graph0" class="graph" transform="scale(1 1) rotate(0) translate(4 179)">
<title>/home/joel.winarske@toyotaconnected.com/development/workspace&#45;automation&#45;configs/app/ivi&#45;homescreen/shell/hexdump.h</title>
<polygon fill="white" stroke="transparent" points="-4,4 -4,-179 635.5,-179 635.5,4 -4,4"/>
<!-- Node1 -->
<g id="node1" class="node">
<title>Node1</title>
<g id="a_node1"><a xlink:title=" ">
<polygon fill="#bfbfbf" stroke="black" points="209,-111.5 209,-174.5 388,-174.5 388,-111.5 209,-111.5"/>
<text text-anchor="start" x="217" y="-162.5" font-family="Helvetica,sans-Serif" font-size="10.00">/home/joel.winarske</text>
<text text-anchor="start" x="217" y="-151.5" font-family="Helvetica,sans-Serif" font-size="10.00">@toyotaconnected.com</text>
<text text-anchor="start" x="217" y="-140.5" font-family="Helvetica,sans-Serif" font-size="10.00">/development/workspace</text>
<text text-anchor="start" x="217" y="-129.5" font-family="Helvetica,sans-Serif" font-size="10.00">&#45;automation&#45;configs/app</text>
<text text-anchor="middle" x="298.5" y="-118.5" font-family="Helvetica,sans-Serif" font-size="10.00">/ivi&#45;homescreen/shell/hexdump.h</text>
</a>
</g>
</g>
<!-- Node2 -->
<g id="node2" class="node">
<title>Node2</title>
<g id="a_node2"><a xlink:href="engine_8cc.html" target="_top" xlink:title=" ">
<polygon fill="white" stroke="black" points="0,-6 0,-69 171,-69 171,-6 0,-6"/>
<text text-anchor="start" x="8" y="-57" font-family="Helvetica,sans-Serif" font-size="10.00">/home/joel.winarske</text>
<text text-anchor="start" x="8" y="-46" font-family="Helvetica,sans-Serif" font-size="10.00">@toyotaconnected.com</text>
<text text-anchor="start" x="8" y="-35" font-family="Helvetica,sans-Serif" font-size="10.00">/development/workspace</text>
<text text-anchor="start" x="8" y="-24" font-family="Helvetica,sans-Serif" font-size="10.00">&#45;automation&#45;configs/app</text>
<text text-anchor="middle" x="85.5" y="-13" font-family="Helvetica,sans-Serif" font-size="10.00">/ivi&#45;homescreen/shell/engine.cc</text>
</a>
</g>
</g>
<!-- Node1&#45;&gt;Node2 -->
<g id="edge1" class="edge">
<title>Node1&#45;&gt;Node2</title>
<path fill="none" stroke="midnightblue" d="M226.29,-106.91C201,-94.63 172.84,-80.94 148.38,-69.05"/>
<polygon fill="midnightblue" stroke="midnightblue" points="224.93,-110.14 235.46,-111.37 227.99,-103.85 224.93,-110.14"/>
</g>
<!-- Node3 -->
<g id="node3" class="node">
<title>Node3</title>
<g id="a_node3"><a xlink:href="gstreamer__egl_8cc.html" target="_top" xlink:title=" ">
<polygon fill="white" stroke="black" points="189.5,-0.5 189.5,-74.5 407.5,-74.5 407.5,-0.5 189.5,-0.5"/>
<text text-anchor="start" x="197.5" y="-62.5" font-family="Helvetica,sans-Serif" font-size="10.00">/home/joel.winarske</text>
<text text-anchor="start" x="197.5" y="-51.5" font-family="Helvetica,sans-Serif" font-size="10.00">@toyotaconnected.com</text>
<text text-anchor="start" x="197.5" y="-40.5" font-family="Helvetica,sans-Serif" font-size="10.00">/development/workspace</text>
<text text-anchor="start" x="197.5" y="-29.5" font-family="Helvetica,sans-Serif" font-size="10.00">&#45;automation&#45;configs/app</text>
<text text-anchor="start" x="197.5" y="-18.5" font-family="Helvetica,sans-Serif" font-size="10.00">/ivi&#45;homescreen/shell/static</text>
<text text-anchor="middle" x="298.5" y="-7.5" font-family="Helvetica,sans-Serif" font-size="10.00">_plugins/gstreamer_egl/gstreamer_egl.cc</text>
</a>
</g>
</g>
<!-- Node1&#45;&gt;Node3 -->
<g id="edge2" class="edge">
<title>Node1&#45;&gt;Node3</title>
<path fill="none" stroke="midnightblue" d="M298.5,-100.96C298.5,-92.32 298.5,-83.26 298.5,-74.81"/>
<polygon fill="midnightblue" stroke="midnightblue" points="295,-101.23 298.5,-111.23 302,-101.23 295,-101.23"/>
</g>
<!-- Node4 -->
<g id="node4" class="node">
<title>Node4</title>
<g id="a_node4"><a xlink:href="package__info_8cc.html" target="_top" xlink:title=" ">
<polygon fill="white" stroke="black" points="425.5,-0.5 425.5,-74.5 631.5,-74.5 631.5,-0.5 425.5,-0.5"/>
<text text-anchor="start" x="433.5" y="-62.5" font-family="Helvetica,sans-Serif" font-size="10.00">/home/joel.winarske</text>
<text text-anchor="start" x="433.5" y="-51.5" font-family="Helvetica,sans-Serif" font-size="10.00">@toyotaconnected.com</text>
<text text-anchor="start" x="433.5" y="-40.5" font-family="Helvetica,sans-Serif" font-size="10.00">/development/workspace</text>
<text text-anchor="start" x="433.5" y="-29.5" font-family="Helvetica,sans-Serif" font-size="10.00">&#45;automation&#45;configs/app</text>
<text text-anchor="start" x="433.5" y="-18.5" font-family="Helvetica,sans-Serif" font-size="10.00">/ivi&#45;homescreen/shell/static</text>
<text text-anchor="middle" x="528.5" y="-7.5" font-family="Helvetica,sans-Serif" font-size="10.00">_plugins/package_info/package_info.cc</text>
</a>
</g>
</g>
<!-- Node1&#45;&gt;Node4 -->
<g id="edge3" class="edge">
<title>Node1&#45;&gt;Node4</title>
<path fill="none" stroke="midnightblue" d="M375.75,-107.24C399.14,-96.71 424.87,-85.13 448.44,-74.53"/>
<polygon fill="midnightblue" stroke="midnightblue" points="374.26,-104.07 366.57,-111.37 377.13,-110.45 374.26,-104.07"/>
</g>
</g>
</svg>
