<?xml version="1.0" encoding="UTF-8" standalone="no"?>
<!DOCTYPE svg PUBLIC "-//W3C//DTD SVG 1.1//EN"
 "http://www.w3.org/Graphics/SVG/1.1/DTD/svg11.dtd">
<!-- Generated by graphviz version 2.43.0 (0)
 -->
<!-- Title: Graphical Class Hierarchy Pages: 1 -->
<svg width="201pt" height="294pt"
 viewBox="0.00 0.00 201.00 294.00" xmlns="http://www.w3.org/2000/svg" xmlns:xlink="http://www.w3.org/1999/xlink">
<g id="graph0" class="graph" transform="scale(1 1) rotate(0) translate(4 290)">
<title>Graphical Class Hierarchy</title>
<polygon fill="white" stroke="transparent" points="-4,4 -4,-290 197,-290 197,4 -4,4"/>
<!-- Node3 -->
<g id="node1" class="node">
<title>Node3</title>
<g id="a_node1"><a xlink:title=" ">
<polygon fill="white" stroke="#bfbfbf" points="1,-266.5 1,-285.5 103,-285.5 103,-266.5 1,-266.5"/>
<text text-anchor="middle" x="52" y="-273.5" font-family="Helvetica,sans-Serif" font-size="10.00">agl_shell_listener</text>
</a>
</g>
</g>
<!-- Node0 -->
<g id="node2" class="node">
<title>Node0</title>
<g id="a_node2"><a xlink:href="struct_display.html" target="_top" xlink:title=" ">
<polygon fill="white" stroke="black" points="140,-133.5 140,-152.5 193,-152.5 193,-133.5 140,-133.5"/>
<text text-anchor="middle" x="166.5" y="-140.5" font-family="Helvetica,sans-Serif" font-size="10.00">Display</text>
</a>
</g>
</g>
<!-- Node3&#45;&gt;Node0 -->
<g id="edge1" class="edge">
<title>Node3&#45;&gt;Node0</title>
<path fill="none" stroke="midnightblue" d="M97.77,-261.63C99.97,-260.22 102.07,-258.68 104,-257 137.92,-227.47 156.38,-174.5 162.83,-152.74"/>
<polygon fill="midnightblue" stroke="midnightblue" points="96,-258.6 88.86,-266.43 99.33,-264.77 96,-258.6"/>
</g>
<!-- Node35 -->
<g id="node3" class="node">
<title>Node35</title>
<g id="a_node3"><a xlink:title=" ">
<polygon fill="white" stroke="#bfbfbf" points="0,-228.5 0,-247.5 104,-247.5 104,-228.5 0,-228.5"/>
<text text-anchor="middle" x="52" y="-235.5" font-family="Helvetica,sans-Serif" font-size="10.00">keyboard_listener</text>
</a>
</g>
</g>
<!-- Node35&#45;&gt;Node0 -->
<g id="edge2" class="edge">
<title>Node35&#45;&gt;Node0</title>
<path fill="none" stroke="midnightblue" d="M95.53,-224.22C98.49,-222.64 101.35,-220.9 104,-219 129.77,-200.47 150.71,-168.46 160.12,-152.55"/>
<polygon fill="midnightblue" stroke="midnightblue" points="93.98,-221.08 86.41,-228.49 96.95,-227.42 93.98,-221.08"/>
</g>
<!-- Node45 -->
<g id="node4" class="node">
<title>Node45</title>
<g id="a_node4"><a xlink:title=" ">
<polygon fill="white" stroke="#bfbfbf" points="7,-190.5 7,-209.5 97,-209.5 97,-190.5 7,-190.5"/>
<text text-anchor="middle" x="52" y="-197.5" font-family="Helvetica,sans-Serif" font-size="10.00">output_listener</text>
</a>
</g>
</g>
<!-- Node45&#45;&gt;Node0 -->
<g id="edge3" class="edge">
<title>Node45&#45;&gt;Node0</title>
<path fill="none" stroke="midnightblue" d="M91.23,-186.7C95.59,-184.91 99.93,-182.99 104,-181 121.14,-172.62 139.6,-160.79 151.78,-152.57"/>
<polygon fill="midnightblue" stroke="midnightblue" points="89.77,-183.51 81.74,-190.42 92.33,-190.03 89.77,-183.51"/>
</g>
<!-- Node52 -->
<g id="node5" class="node">
<title>Node52</title>
<g id="a_node5"><a xlink:title=" ">
<polygon fill="white" stroke="#bfbfbf" points="5.5,-152.5 5.5,-171.5 98.5,-171.5 98.5,-152.5 5.5,-152.5"/>
<text text-anchor="middle" x="52" y="-159.5" font-family="Helvetica,sans-Serif" font-size="10.00">pointer_listener</text>
</a>
</g>
</g>
<!-- Node52&#45;&gt;Node0 -->
<g id="edge4" class="edge">
<title>Node52&#45;&gt;Node0</title>
<path fill="none" stroke="midnightblue" d="M108.7,-152.59C119.58,-150.76 130.49,-148.91 139.8,-147.34"/>
<polygon fill="midnightblue" stroke="midnightblue" points="108.04,-149.16 98.76,-154.27 109.2,-156.06 108.04,-149.16"/>
</g>
<!-- Node54 -->
<g id="node6" class="node">
<title>Node54</title>
<g id="a_node6"><a xlink:title=" ">
<polygon fill="white" stroke="#bfbfbf" points="4,-114.5 4,-133.5 100,-133.5 100,-114.5 4,-114.5"/>
<text text-anchor="middle" x="52" y="-121.5" font-family="Helvetica,sans-Serif" font-size="10.00">registry_listener</text>
</a>
</g>
</g>
<!-- Node54&#45;&gt;Node0 -->
<g id="edge5" class="edge">
<title>Node54&#45;&gt;Node0</title>
<path fill="none" stroke="midnightblue" d="M110.03,-133.63C120.46,-135.39 130.86,-137.15 139.79,-138.66"/>
<polygon fill="midnightblue" stroke="midnightblue" points="110.5,-130.16 100.06,-131.95 109.34,-137.06 110.5,-130.16"/>
</g>
<!-- Node57 -->
<g id="node7" class="node">
<title>Node57</title>
<g id="a_node7"><a xlink:title=" ">
<polygon fill="white" stroke="#bfbfbf" points="12,-76.5 12,-95.5 92,-95.5 92,-76.5 12,-76.5"/>
<text text-anchor="middle" x="52" y="-83.5" font-family="Helvetica,sans-Serif" font-size="10.00">seat_listener</text>
</a>
</g>
</g>
<!-- Node57&#45;&gt;Node0 -->
<g id="edge6" class="edge">
<title>Node57&#45;&gt;Node0</title>
<path fill="none" stroke="midnightblue" d="M91.23,-99.3C95.59,-101.09 99.93,-103.01 104,-105 121.14,-113.38 139.6,-125.21 151.78,-133.43"/>
<polygon fill="midnightblue" stroke="midnightblue" points="92.33,-95.97 81.74,-95.58 89.77,-102.49 92.33,-95.97"/>
</g>
<!-- Node60 -->
<g id="node8" class="node">
<title>Node60</title>
<g id="a_node8"><a xlink:title=" ">
<polygon fill="white" stroke="#bfbfbf" points="12,-38.5 12,-57.5 92,-57.5 92,-38.5 12,-38.5"/>
<text text-anchor="middle" x="52" y="-45.5" font-family="Helvetica,sans-Serif" font-size="10.00">shm_listener</text>
</a>
</g>
</g>
<!-- Node60&#45;&gt;Node0 -->
<g id="edge7" class="edge">
<title>Node60&#45;&gt;Node0</title>
<path fill="none" stroke="midnightblue" d="M95.53,-61.78C98.49,-63.36 101.35,-65.1 104,-67 129.77,-85.53 150.71,-117.54 160.12,-133.45"/>
<polygon fill="midnightblue" stroke="midnightblue" points="96.95,-58.58 86.41,-57.51 93.98,-64.92 96.95,-58.58"/>
</g>
<!-- Node69 -->
<g id="node9" class="node">
<title>Node69</title>
<g id="a_node9"><a xlink:title=" ">
<polygon fill="white" stroke="#bfbfbf" points="9,-0.5 9,-19.5 95,-19.5 95,-0.5 9,-0.5"/>
<text text-anchor="middle" x="52" y="-7.5" font-family="Helvetica,sans-Serif" font-size="10.00">touch_listener</text>
</a>
</g>
</g>
<!-- Node69&#45;&gt;Node0 -->
<g id="edge8" class="edge">
<title>Node69&#45;&gt;Node0</title>
<path fill="none" stroke="midnightblue" d="M97.77,-24.37C99.97,-25.78 102.07,-27.32 104,-29 137.92,-58.53 156.38,-111.5 162.83,-133.26"/>
<polygon fill="midnightblue" stroke="midnightblue" points="99.33,-21.23 88.86,-19.57 96,-27.4 99.33,-21.23"/>
</g>
</g>
</svg>
