<?xml version="1.0" encoding="UTF-8" standalone="no"?>
<!DOCTYPE svg PUBLIC "-//W3C//DTD SVG 1.1//EN"
 "http://www.w3.org/Graphics/SVG/1.1/DTD/svg11.dtd">
<!-- Generated by graphviz version 2.43.0 (0)
 -->
<!-- Title: Graphical Class Hierarchy Pages: 1 -->
<svg width="234pt" height="66pt"
 viewBox="0.00 0.00 234.00 66.00" xmlns="http://www.w3.org/2000/svg" xmlns:xlink="http://www.w3.org/1999/xlink">
<g id="graph0" class="graph" transform="scale(1 1) rotate(0) translate(4 62)">
<title>Graphical Class Hierarchy</title>
<polygon fill="white" stroke="transparent" points="-4,4 -4,-62 230,-62 230,4 -4,4"/>
<!-- Node0 -->
<g id="node1" class="node">
<title>Node0</title>
<g id="a_node1"><a xlink:href="class_backend.html" target="_top" xlink:title=" ">
<polygon fill="white" stroke="black" points="0,-0.5 0,-19.5 58,-19.5 58,-0.5 0,-0.5"/>
<text text-anchor="middle" x="29" y="-7.5" font-family="Helvetica,sans-Serif" font-size="10.00">Backend</text>
</a>
</g>
</g>
<!-- Node1 -->
<g id="node2" class="node">
<title>Node1</title>
<g id="a_node2"><a xlink:href="class_wayland_egl_backend.html" target="_top" xlink:title=" ">
<polygon fill="white" stroke="black" points="102.5,-38.5 102.5,-57.5 217.5,-57.5 217.5,-38.5 102.5,-38.5"/>
<text text-anchor="middle" x="160" y="-45.5" font-family="Helvetica,sans-Serif" font-size="10.00">WaylandEglBackend</text>
</a>
</g>
</g>
<!-- Node0&#45;&gt;Node1 -->
<g id="edge1" class="edge">
<title>Node0&#45;&gt;Node1</title>
<path fill="none" stroke="midnightblue" d="M67.83,-21.26C76.43,-23.81 85.53,-26.5 94,-29 104.49,-32.09 115.93,-35.44 126.26,-38.46"/>
<polygon fill="midnightblue" stroke="midnightblue" points="68.61,-17.84 58.03,-18.35 66.62,-24.55 68.61,-17.84"/>
</g>
<!-- Node2 -->
<g id="node3" class="node">
<title>Node2</title>
<g id="a_node3"><a xlink:href="class_wayland_vulkan_backend.html" target="_top" xlink:title=" ">
<polygon fill="white" stroke="black" points="94,-0.5 94,-19.5 226,-19.5 226,-0.5 94,-0.5"/>
<text text-anchor="middle" x="160" y="-7.5" font-family="Helvetica,sans-Serif" font-size="10.00">WaylandVulkanBackend</text>
</a>
</g>
</g>
<!-- Node0&#45;&gt;Node2 -->
<g id="edge2" class="edge">
<title>Node0&#45;&gt;Node2</title>
<path fill="none" stroke="midnightblue" d="M68.41,-10C76.42,-10 85.08,-10 93.75,-10"/>
<polygon fill="midnightblue" stroke="midnightblue" points="68.31,-6.5 58.31,-10 68.31,-13.5 68.31,-6.5"/>
</g>
<!-- Node21 -->
<g id="node4" class="node">
<title>Node21</title>
<g id="a_node4"><a xlink:href="class_egl.html" target="_top" xlink:title=" ">
<polygon fill="white" stroke="black" points="13,-38.5 13,-57.5 45,-57.5 45,-38.5 13,-38.5"/>
<text text-anchor="middle" x="29" y="-45.5" font-family="Helvetica,sans-Serif" font-size="10.00">Egl</text>
</a>
</g>
</g>
<!-- Node21&#45;&gt;Node1 -->
<g id="edge3" class="edge">
<title>Node21&#45;&gt;Node1</title>
<path fill="none" stroke="midnightblue" d="M55.39,-48C68.82,-48 85.9,-48 102.29,-48"/>
<polygon fill="midnightblue" stroke="midnightblue" points="55.05,-44.5 45.05,-48 55.05,-51.5 55.05,-44.5"/>
</g>
</g>
</svg>
