<?xml version="1.0" encoding="UTF-8" standalone="no"?>
<!DOCTYPE svg PUBLIC "-//W3C//DTD SVG 1.1//EN"
 "http://www.w3.org/Graphics/SVG/1.1/DTD/svg11.dtd">
<!-- Generated by graphviz version 5.0.0 (0)
 -->
<!-- Title: Graphical Class Hierarchy Pages: 1 -->
<svg width="194pt" height="64pt"
 viewBox="0.00 0.00 194.00 64.00" xmlns="http://www.w3.org/2000/svg" xmlns:xlink="http://www.w3.org/1999/xlink">
<g id="graph0" class="graph" transform="scale(1 1) rotate(0) translate(4 60)">
<title>Graphical Class Hierarchy</title>
<!-- Node0 -->
<g id="node1" class="node">
<title>Node0</title>
<g id="a_node1"><a xlink:href="class_texture.html" target="_top" xlink:title=" ">
<polygon fill="white" stroke="#666666" points="49,-37 0,-37 0,-18 49,-18 49,-37"/>
<text text-anchor="middle" x="24.5" y="-25" font-family="Helvetica,sans-Serif" font-size="10.00">Texture</text>
</a>
</g>
</g>
<!-- Node1 -->
<g id="node2" class="node">
<title>Node1</title>
<g id="a_node2"><a xlink:href="class_texture_navi_render.html" target="_top" xlink:title=" ">
<polygon fill="white" stroke="#666666" points="186,-56 85,-56 85,-37 186,-37 186,-56"/>
<text text-anchor="middle" x="135.5" y="-44" font-family="Helvetica,sans-Serif" font-size="10.00">TextureNaviRender</text>
</a>
</g>
</g>
<!-- Node0&#45;&gt;Node1 -->
<g id="edge1" class="edge">
<title>Node0&#45;&gt;Node1</title>
<path fill="none" stroke="#63b8ff" d="M59.06,-33.35C67.24,-34.78 76.17,-36.33 84.93,-37.86"/>
<polygon fill="#63b8ff" stroke="#63b8ff" points="59.6,-29.89 49.15,-31.62 58.4,-36.79 59.6,-29.89"/>
</g>
<!-- Node2 -->
<g id="node3" class="node">
<title>Node2</title>
<g id="a_node3"><a xlink:href="class_texture_test_egl.html" target="_top" xlink:title=" ">
<polygon fill="white" stroke="#666666" points="176.5,-19 94.5,-19 94.5,0 176.5,0 176.5,-19"/>
<text text-anchor="middle" x="135.5" y="-7" font-family="Helvetica,sans-Serif" font-size="10.00">TextureTestEgl</text>
</a>
</g>
</g>
<!-- Node0&#45;&gt;Node2 -->
<g id="edge2" class="edge">
<title>Node0&#45;&gt;Node2</title>
<path fill="none" stroke="#63b8ff" d="M59.26,-21.92C70.31,-20.1 82.69,-18.06 94.17,-16.16"/>
<polygon fill="#63b8ff" stroke="#63b8ff" points="58.45,-18.51 49.15,-23.59 59.59,-25.42 58.45,-18.51"/>
</g>
</g>
</svg>
