<?xml version="1.0" encoding="UTF-8" standalone="no"?>
<!DOCTYPE svg PUBLIC "-//W3C//DTD SVG 1.1//EN"
 "http://www.w3.org/Graphics/SVG/1.1/DTD/svg11.dtd">
<!-- Generated by graphviz version 5.0.0 (0)
 -->
<!-- Title: Graphical Class Hierarchy Pages: 1 -->
<svg width="187pt" height="323pt"
 viewBox="0.00 0.00 187.00 323.00" xmlns="http://www.w3.org/2000/svg" xmlns:xlink="http://www.w3.org/1999/xlink">
<g id="graph0" class="graph" transform="scale(1 1) rotate(0) translate(4 319)">
<title>Graphical Class Hierarchy</title>
<!-- Node0 -->
<g id="node1" class="node">
<title>Node0</title>
<g id="a_node1"><a xlink:title=" ">
<polygon fill="#e0e0e0" stroke="#999999" points="92.5,-315 0.5,-315 0.5,-296 92.5,-296 92.5,-315"/>
<text text-anchor="middle" x="46.5" y="-303" font-family="Helvetica,sans-Serif" font-size="10.00">agl_shell_listener</text>
</a>
</g>
</g>
<!-- Node1 -->
<g id="node2" class="node">
<title>Node1</title>
<g id="a_node2"><a xlink:href="struct_display.html" target="_top" xlink:title=" ">
<polygon fill="white" stroke="#666666" points="179,-167 129,-167 129,-148 179,-148 179,-167"/>
<text text-anchor="middle" x="154" y="-155" font-family="Helvetica,sans-Serif" font-size="10.00">Display</text>
</a>
</g>
</g>
<!-- Node0&#45;&gt;Node1 -->
<g id="edge1" class="edge">
<title>Node0&#45;&gt;Node1</title>
<path fill="none" stroke="#63b8ff" d="M89.45,-290.5C90.69,-289.56 91.88,-288.56 93,-287.5 129.84,-252.66 146.07,-190.79 151.14,-167.1"/>
<polygon fill="#63b8ff" stroke="#63b8ff" points="87.31,-287.71 80.63,-295.93 90.98,-293.67 87.31,-287.71"/>
</g>
<!-- Node2 -->
<g id="node3" class="node">
<title>Node2</title>
<g id="a_node3"><a xlink:title=" ">
<polygon fill="#e0e0e0" stroke="#999999" points="88.5,-278 4.5,-278 4.5,-259 88.5,-259 88.5,-278"/>
<text text-anchor="middle" x="46.5" y="-266" font-family="Helvetica,sans-Serif" font-size="10.00">ivi_wm_listener</text>
</a>
</g>
</g>
<!-- Node2&#45;&gt;Node1 -->
<g id="edge2" class="edge">
<title>Node2&#45;&gt;Node1</title>
<path fill="none" stroke="#63b8ff" d="M88.16,-254.03C89.85,-252.93 91.47,-251.75 93,-250.5 121.81,-226.85 141.41,-185.64 149.22,-167.06"/>
<polygon fill="#63b8ff" stroke="#63b8ff" points="86.35,-251.03 79.27,-258.91 89.72,-257.16 86.35,-251.03"/>
</g>
<!-- Node3 -->
<g id="node4" class="node">
<title>Node3</title>
<g id="a_node4"><a xlink:title=" ">
<polygon fill="#e0e0e0" stroke="#999999" points="93,-241 0,-241 0,-222 93,-222 93,-241"/>
<text text-anchor="middle" x="46.5" y="-229" font-family="Helvetica,sans-Serif" font-size="10.00">keyboard_listener</text>
</a>
</g>
</g>
<!-- Node3&#45;&gt;Node1 -->
<g id="edge3" class="edge">
<title>Node3&#45;&gt;Node1</title>
<path fill="none" stroke="#63b8ff" d="M85.83,-217.58C88.31,-216.3 90.72,-214.94 93,-213.5 113.71,-200.4 133.68,-179.63 144.55,-167.4"/>
<polygon fill="#63b8ff" stroke="#63b8ff" points="84.28,-214.44 76.69,-221.83 87.24,-220.78 84.28,-214.44"/>
</g>
<!-- Node4 -->
<g id="node5" class="node">
<title>Node4</title>
<g id="a_node5"><a xlink:title=" ">
<polygon fill="#e0e0e0" stroke="#999999" points="86.5,-204 6.5,-204 6.5,-185 86.5,-185 86.5,-204"/>
<text text-anchor="middle" x="46.5" y="-192" font-family="Helvetica,sans-Serif" font-size="10.00">output_listener</text>
</a>
</g>
</g>
<!-- Node4&#45;&gt;Node1 -->
<g id="edge4" class="edge">
<title>Node4&#45;&gt;Node1</title>
<path fill="none" stroke="#63b8ff" d="M84.49,-181.53C99.19,-176.37 115.68,-170.59 128.8,-165.99"/>
<polygon fill="#63b8ff" stroke="#63b8ff" points="82.95,-178.36 74.67,-184.97 85.26,-184.96 82.95,-178.36"/>
</g>
<!-- Node5 -->
<g id="node6" class="node">
<title>Node5</title>
<g id="a_node6"><a xlink:title=" ">
<polygon fill="#e0e0e0" stroke="#999999" points="88,-167 5,-167 5,-148 88,-148 88,-167"/>
<text text-anchor="middle" x="46.5" y="-155" font-family="Helvetica,sans-Serif" font-size="10.00">pointer_listener</text>
</a>
</g>
</g>
<!-- Node5&#45;&gt;Node1 -->
<g id="edge5" class="edge">
<title>Node5&#45;&gt;Node1</title>
<path fill="none" stroke="#63b8ff" d="M98.37,-157.5C108.99,-157.5 119.7,-157.5 128.79,-157.5"/>
<polygon fill="#63b8ff" stroke="#63b8ff" points="98.29,-154 88.29,-157.5 98.29,-161 98.29,-154"/>
</g>
<!-- Node6 -->
<g id="node7" class="node">
<title>Node6</title>
<g id="a_node7"><a xlink:title=" ">
<polygon fill="#e0e0e0" stroke="#999999" points="89.5,-130 3.5,-130 3.5,-111 89.5,-111 89.5,-130"/>
<text text-anchor="middle" x="46.5" y="-118" font-family="Helvetica,sans-Serif" font-size="10.00">registry_listener</text>
</a>
</g>
</g>
<!-- Node6&#45;&gt;Node1 -->
<g id="edge6" class="edge">
<title>Node6&#45;&gt;Node1</title>
<path fill="none" stroke="#63b8ff" d="M84.49,-133.47C99.19,-138.63 115.68,-144.41 128.8,-149.01"/>
<polygon fill="#63b8ff" stroke="#63b8ff" points="85.26,-130.04 74.67,-130.03 82.95,-136.64 85.26,-130.04"/>
</g>
<!-- Node7 -->
<g id="node8" class="node">
<title>Node7</title>
<g id="a_node8"><a xlink:title=" ">
<polygon fill="#e0e0e0" stroke="#999999" points="82.5,-93 10.5,-93 10.5,-74 82.5,-74 82.5,-93"/>
<text text-anchor="middle" x="46.5" y="-81" font-family="Helvetica,sans-Serif" font-size="10.00">seat_listener</text>
</a>
</g>
</g>
<!-- Node7&#45;&gt;Node1 -->
<g id="edge7" class="edge">
<title>Node7&#45;&gt;Node1</title>
<path fill="none" stroke="#63b8ff" d="M84.09,-97.44C87.18,-99.01 90.19,-100.7 93,-102.5 113.48,-115.59 133.52,-135.92 144.47,-147.85"/>
<polygon fill="#63b8ff" stroke="#63b8ff" points="85.28,-94.13 74.74,-93.07 82.32,-100.47 85.28,-94.13"/>
</g>
<!-- Node8 -->
<g id="node9" class="node">
<title>Node8</title>
<g id="a_node9"><a xlink:title=" ">
<polygon fill="#e0e0e0" stroke="#999999" points="82.5,-56 10.5,-56 10.5,-37 82.5,-37 82.5,-56"/>
<text text-anchor="middle" x="46.5" y="-44" font-family="Helvetica,sans-Serif" font-size="10.00">shm_listener</text>
</a>
</g>
</g>
<!-- Node8&#45;&gt;Node1 -->
<g id="edge8" class="edge">
<title>Node8&#45;&gt;Node1</title>
<path fill="none" stroke="#63b8ff" d="M86.71,-60.97C88.93,-62.36 91.04,-63.87 93,-65.5 121.28,-89.05 141.02,-129.38 149.03,-147.81"/>
<polygon fill="#63b8ff" stroke="#63b8ff" points="88.3,-57.85 77.84,-56.16 84.96,-64 88.3,-57.85"/>
</g>
<!-- Node9 -->
<g id="node10" class="node">
<title>Node9</title>
<g id="a_node10"><a xlink:title=" ">
<polygon fill="#e0e0e0" stroke="#999999" points="85,-19 8,-19 8,0 85,0 85,-19"/>
<text text-anchor="middle" x="46.5" y="-7" font-family="Helvetica,sans-Serif" font-size="10.00">touch_listener</text>
</a>
</g>
</g>
<!-- Node9&#45;&gt;Node1 -->
<g id="edge9" class="edge">
<title>Node9&#45;&gt;Node1</title>
<path fill="none" stroke="#63b8ff" d="M88.23,-24.52C89.92,-25.75 91.52,-27.08 93,-28.5 129.15,-63.24 145.7,-124 151,-147.67"/>
<polygon fill="#63b8ff" stroke="#63b8ff" points="89.6,-21.27 79.22,-19.13 86,-27.27 89.6,-21.27"/>
</g>
</g>
</svg>
