<?xml version="1.0" encoding="UTF-8" standalone="no"?>
<!DOCTYPE svg PUBLIC "-//W3C//DTD SVG 1.1//EN"
 "http://www.w3.org/Graphics/SVG/1.1/DTD/svg11.dtd">
<!-- Generated by graphviz version 5.0.0 (0)
 -->
<!-- Title: Graphical Class Hierarchy Pages: 1 -->
<svg width="221pt" height="64pt"
 viewBox="0.00 0.00 221.00 64.00" xmlns="http://www.w3.org/2000/svg" xmlns:xlink="http://www.w3.org/1999/xlink">
<g id="graph0" class="graph" transform="scale(1 1) rotate(0) translate(4 60)">
<title>Graphical Class Hierarchy</title>
<!-- Node0 -->
<g id="node1" class="node">
<title>Node0</title>
<g id="a_node1"><a xlink:href="class_backend.html" target="_top" xlink:title=" ">
<polygon fill="white" stroke="#666666" points="55,-19 0,-19 0,0 55,0 55,-19"/>
<text text-anchor="middle" x="27.5" y="-7" font-family="Helvetica,sans-Serif" font-size="10.00">Backend</text>
</a>
</g>
</g>
<!-- Node1 -->
<g id="node2" class="node">
<title>Node1</title>
<g id="a_node2"><a xlink:href="class_wayland_egl_backend.html" target="_top" xlink:title=" ">
<polygon fill="white" stroke="#666666" points="205.5,-56 98.5,-56 98.5,-37 205.5,-37 205.5,-56"/>
<text text-anchor="middle" x="152" y="-44" font-family="Helvetica,sans-Serif" font-size="10.00">WaylandEglBackend</text>
</a>
</g>
</g>
<!-- Node0&#45;&gt;Node1 -->
<g id="edge1" class="edge">
<title>Node0&#45;&gt;Node1</title>
<path fill="none" stroke="#63b8ff" d="M64.97,-20.61C73.51,-23.21 82.57,-25.95 91,-28.5 100.16,-31.27 110.11,-34.26 119.23,-36.99"/>
<polygon fill="#63b8ff" stroke="#63b8ff" points="65.84,-17.22 55.26,-17.66 63.81,-23.92 65.84,-17.22"/>
</g>
<!-- Node3 -->
<g id="node3" class="node">
<title>Node3</title>
<g id="a_node3"><a xlink:href="class_wayland_vulkan_backend.html" target="_top" xlink:title=" ">
<polygon fill="white" stroke="#666666" points="213,-19 91,-19 91,0 213,0 213,-19"/>
<text text-anchor="middle" x="152" y="-7" font-family="Helvetica,sans-Serif" font-size="10.00">WaylandVulkanBackend</text>
</a>
</g>
</g>
<!-- Node0&#45;&gt;Node3 -->
<g id="edge2" class="edge">
<title>Node0&#45;&gt;Node3</title>
<path fill="none" stroke="#63b8ff" d="M65.24,-9.5C73.31,-9.5 82.06,-9.5 90.78,-9.5"/>
<polygon fill="#63b8ff" stroke="#63b8ff" points="65.08,-6 55.08,-9.5 65.08,-13 65.08,-6"/>
</g>
<!-- Node2 -->
<g id="node4" class="node">
<title>Node2</title>
<g id="a_node4"><a xlink:href="class_egl.html" target="_top" xlink:title=" ">
<polygon fill="white" stroke="#666666" points="43,-56 12,-56 12,-37 43,-37 43,-56"/>
<text text-anchor="middle" x="27.5" y="-44" font-family="Helvetica,sans-Serif" font-size="10.00">Egl</text>
</a>
</g>
</g>
<!-- Node2&#45;&gt;Node1 -->
<g id="edge3" class="edge">
<title>Node2&#45;&gt;Node1</title>
<path fill="none" stroke="#63b8ff" d="M53.07,-46.5C66.13,-46.5 82.69,-46.5 98.47,-46.5"/>
<polygon fill="#63b8ff" stroke="#63b8ff" points="53.03,-43 43.03,-46.5 53.03,-50 53.03,-43"/>
</g>
</g>
</svg>
