<?xml version="1.0" encoding="UTF-8" standalone="no"?>
<!DOCTYPE svg PUBLIC "-//W3C//DTD SVG 1.1//EN"
 "http://www.w3.org/Graphics/SVG/1.1/DTD/svg11.dtd">
<!-- Generated by graphviz version 5.0.0 (0)
 -->
<!-- Title: Graphical Class Hierarchy Pages: 1 -->
<svg width="258pt" height="187pt"
 viewBox="0.00 0.00 258.00 187.00" xmlns="http://www.w3.org/2000/svg" xmlns:xlink="http://www.w3.org/1999/xlink">
<g id="graph0" class="graph" transform="scale(1 1) rotate(0) translate(4 183)">
<title>Graphical Class Hierarchy</title>
<!-- Node0 -->
<g id="node1" class="node">
<title>Node0</title>
<g id="a_node1"><a xlink:title=" ">
<polygon fill="#e0e0e0" stroke="#999999" points="113,-179 12,-179 12,-160 113,-160 113,-179"/>
<text text-anchor="middle" x="62.5" y="-167" font-family="Helvetica,sans-Serif" font-size="10.00">ivi_surface_listener</text>
</a>
</g>
</g>
<!-- Node1 -->
<g id="node2" class="node">
<title>Node1</title>
<g id="a_node2"><a xlink:href="struct_wayland_window.html" target="_top" xlink:title=" ">
<polygon fill="white" stroke="#666666" points="250,-93 161,-93 161,-74 250,-74 250,-93"/>
<text text-anchor="middle" x="205.5" y="-81" font-family="Helvetica,sans-Serif" font-size="10.00">WaylandWindow</text>
</a>
</g>
</g>
<!-- Node0&#45;&gt;Node1 -->
<g id="edge1" class="edge">
<title>Node0&#45;&gt;Node1</title>
<path fill="none" stroke="#63b8ff" d="M112.44,-156.38C116.78,-154.63 121.03,-152.67 125,-150.5 153.83,-134.75 181.85,-107.53 195.64,-93.11"/>
<polygon fill="#63b8ff" stroke="#63b8ff" points="111.02,-153.18 102.85,-159.92 113.44,-159.74 111.02,-153.18"/>
</g>
<!-- Node2 -->
<g id="node3" class="node">
<title>Node2</title>
<g id="a_node3"><a xlink:title=" ">
<polygon fill="#e0e0e0" stroke="#999999" points="122,-141.5 3,-141.5 3,-111.5 122,-111.5 122,-141.5"/>
<text text-anchor="start" x="11" y="-129.5" font-family="Helvetica,sans-Serif" font-size="10.00">m_base_surface_frame</text>
<text text-anchor="middle" x="62.5" y="-118.5" font-family="Helvetica,sans-Serif" font-size="10.00">_listener</text>
</a>
</g>
</g>
<!-- Node2&#45;&gt;Node1 -->
<g id="edge2" class="edge">
<title>Node2&#45;&gt;Node1</title>
<path fill="none" stroke="#63b8ff" d="M122.84,-108.4C140.09,-103.14 158.26,-97.6 173.07,-93.09"/>
<polygon fill="#63b8ff" stroke="#63b8ff" points="121.36,-105.2 112.81,-111.46 123.4,-111.89 121.36,-105.2"/>
</g>
<!-- Node3 -->
<g id="node4" class="node">
<title>Node3</title>
<g id="a_node4"><a xlink:title=" ">
<polygon fill="#e0e0e0" stroke="#999999" points="125,-93 0,-93 0,-74 125,-74 125,-93"/>
<text text-anchor="middle" x="62.5" y="-81" font-family="Helvetica,sans-Serif" font-size="10.00">m_base_surface_listener</text>
</a>
</g>
</g>
<!-- Node3&#45;&gt;Node1 -->
<g id="edge3" class="edge">
<title>Node3&#45;&gt;Node1</title>
<path fill="none" stroke="#63b8ff" d="M135.51,-83.5C144.18,-83.5 152.82,-83.5 160.91,-83.5"/>
<polygon fill="#63b8ff" stroke="#63b8ff" points="135.34,-80 125.34,-83.5 135.34,-87 135.34,-80"/>
</g>
<!-- Node4 -->
<g id="node5" class="node">
<title>Node4</title>
<g id="a_node5"><a xlink:title=" ">
<polygon fill="#e0e0e0" stroke="#999999" points="116,-56 9,-56 9,-37 116,-37 116,-56"/>
<text text-anchor="middle" x="62.5" y="-44" font-family="Helvetica,sans-Serif" font-size="10.00">xdg_surface_listener</text>
</a>
</g>
</g>
<!-- Node4&#45;&gt;Node1 -->
<g id="edge4" class="edge">
<title>Node4&#45;&gt;Node1</title>
<path fill="none" stroke="#63b8ff" d="M109.69,-58.62C128.55,-63.57 150.06,-69.22 167.82,-73.88"/>
<polygon fill="#63b8ff" stroke="#63b8ff" points="110.37,-55.18 99.81,-56.03 108.6,-61.95 110.37,-55.18"/>
</g>
<!-- Node5 -->
<g id="node6" class="node">
<title>Node5</title>
<g id="a_node6"><a xlink:title=" ">
<polygon fill="#e0e0e0" stroke="#999999" points="116.5,-19 8.5,-19 8.5,0 116.5,0 116.5,-19"/>
<text text-anchor="middle" x="62.5" y="-7" font-family="Helvetica,sans-Serif" font-size="10.00">xdg_toplevel_listener</text>
</a>
</g>
</g>
<!-- Node5&#45;&gt;Node1 -->
<g id="edge5" class="edge">
<title>Node5&#45;&gt;Node1</title>
<path fill="none" stroke="#63b8ff" d="M110.52,-22.38C115.49,-24.23 120.41,-26.27 125,-28.5 151.11,-41.19 178.24,-61.85 193.08,-73.91"/>
<polygon fill="#63b8ff" stroke="#63b8ff" points="111.55,-19.03 100.95,-19.07 109.26,-25.65 111.55,-19.03"/>
</g>
</g>
</svg>
