<?xml version="1.0" encoding="UTF-8" standalone="no"?>
<!DOCTYPE svg PUBLIC "-//W3C//DTD SVG 1.1//EN"
 "http://www.w3.org/Graphics/SVG/1.1/DTD/svg11.dtd">
<!-- Generated by graphviz version 2.43.0 (0)
 -->
<!-- Title: Graphical Class Hierarchy Pages: 1 -->
<svg width="280pt" height="154pt"
 viewBox="0.00 0.00 280.00 153.50" xmlns="http://www.w3.org/2000/svg" xmlns:xlink="http://www.w3.org/1999/xlink">
<g id="graph0" class="graph" transform="scale(1 1) rotate(0) translate(4 149.5)">
<title>Graphical Class Hierarchy</title>
<polygon fill="white" stroke="transparent" points="-4,4 -4,-149.5 276,-149.5 276,4 -4,4"/>
<!-- Node37 -->
<g id="node1" class="node">
<title>Node37</title>
<g id="a_node1"><a xlink:title=" ">
<polygon fill="white" stroke="#bfbfbf" points="3.5,-115 3.5,-145 134.5,-145 134.5,-115 3.5,-115"/>
<text text-anchor="start" x="11.5" y="-133" font-family="Helvetica,sans-Serif" font-size="10.00">m_base_surface_frame</text>
<text text-anchor="middle" x="69" y="-122" font-family="Helvetica,sans-Serif" font-size="10.00">_listener</text>
</a>
</g>
</g>
<!-- Node0 -->
<g id="node2" class="node">
<title>Node0</title>
<g id="a_node2"><a xlink:href="struct_wayland_window.html" target="_top" xlink:title=" ">
<polygon fill="white" stroke="black" points="174,-57.5 174,-76.5 272,-76.5 272,-57.5 174,-57.5"/>
<text text-anchor="middle" x="223" y="-64.5" font-family="Helvetica,sans-Serif" font-size="10.00">WaylandWindow</text>
</a>
</g>
</g>
<!-- Node37&#45;&gt;Node0 -->
<g id="edge1" class="edge">
<title>Node37&#45;&gt;Node0</title>
<path fill="none" stroke="midnightblue" d="M122.22,-111.24C127.57,-109.19 132.91,-107.08 138,-105 160.07,-95.96 184.91,-84.57 201.81,-76.63"/>
<polygon fill="midnightblue" stroke="midnightblue" points="120.74,-108.06 112.62,-114.87 123.22,-114.61 120.74,-108.06"/>
</g>
<!-- Node39 -->
<g id="node3" class="node">
<title>Node39</title>
<g id="a_node3"><a xlink:title=" ">
<polygon fill="white" stroke="#bfbfbf" points="0,-76.5 0,-95.5 138,-95.5 138,-76.5 0,-76.5"/>
<text text-anchor="middle" x="69" y="-83.5" font-family="Helvetica,sans-Serif" font-size="10.00">m_base_surface_listener</text>
</a>
</g>
</g>
<!-- Node39&#45;&gt;Node0 -->
<g id="edge2" class="edge">
<title>Node39&#45;&gt;Node0</title>
<path fill="none" stroke="midnightblue" d="M148.58,-76.18C157.22,-75.1 165.82,-74.02 173.93,-73.01"/>
<polygon fill="midnightblue" stroke="midnightblue" points="147.93,-72.73 138.44,-77.44 148.8,-79.68 147.93,-72.73"/>
</g>
<!-- Node74 -->
<g id="node4" class="node">
<title>Node74</title>
<g id="a_node4"><a xlink:title=" ">
<polygon fill="white" stroke="#bfbfbf" points="10,-38.5 10,-57.5 128,-57.5 128,-38.5 10,-38.5"/>
<text text-anchor="middle" x="69" y="-45.5" font-family="Helvetica,sans-Serif" font-size="10.00">xdg_surface_listener</text>
</a>
</g>
</g>
<!-- Node74&#45;&gt;Node0 -->
<g id="edge3" class="edge">
<title>Node74&#45;&gt;Node0</title>
<path fill="none" stroke="midnightblue" d="M138.34,-56.54C150.35,-58.04 162.62,-59.58 173.93,-60.99"/>
<polygon fill="midnightblue" stroke="midnightblue" points="138.69,-53.06 128.33,-55.29 137.82,-60 138.69,-53.06"/>
</g>
<!-- Node75 -->
<g id="node5" class="node">
<title>Node75</title>
<g id="a_node5"><a xlink:title=" ">
<polygon fill="white" stroke="#bfbfbf" points="8,-0.5 8,-19.5 130,-19.5 130,-0.5 8,-0.5"/>
<text text-anchor="middle" x="69" y="-7.5" font-family="Helvetica,sans-Serif" font-size="10.00">xdg_toplevel_listener</text>
</a>
</g>
</g>
<!-- Node75&#45;&gt;Node0 -->
<g id="edge4" class="edge">
<title>Node75&#45;&gt;Node0</title>
<path fill="none" stroke="midnightblue" d="M117.93,-22.4C124.72,-24.45 131.58,-26.66 138,-29 160.87,-37.31 186.19,-49.15 203,-57.4"/>
<polygon fill="midnightblue" stroke="midnightblue" points="118.67,-18.97 108.09,-19.54 116.72,-25.69 118.67,-18.97"/>
</g>
</g>
</svg>
