<?xml version="1.0" encoding="UTF-8" standalone="no"?>
<!DOCTYPE svg PUBLIC "-//W3C//DTD SVG 1.1//EN"
 "http://www.w3.org/Graphics/SVG/1.1/DTD/svg11.dtd">
<!-- Generated by graphviz version 2.43.0 (0)
 -->
<!-- Title: /home/joel.winarske@toyotaconnected.com/development/workspace&#45;automation&#45;configs/app/ivi&#45;homescreen/shell/static_plugins/isolate/isolate.cc Pages: 1 -->
<svg width="2838pt" height="463pt"
 viewBox="0.00 0.00 2838.08 463.00" xmlns="http://www.w3.org/2000/svg" xmlns:xlink="http://www.w3.org/1999/xlink">
<g id="graph0" class="graph" transform="scale(1 1) rotate(0) translate(4 459)">
<title>/home/joel.winarske@toyotaconnected.com/development/workspace&#45;automation&#45;configs/app/ivi&#45;homescreen/shell/static_plugins/isolate/isolate.cc</title>
<polygon fill="white" stroke="transparent" points="-4,4 -4,-459 2834.08,-459 2834.08,4 -4,4"/>
<!-- Node1 -->
<g id="node1" class="node">
<title>Node1</title>
<g id="a_node1"><a xlink:title=" ">
<polygon fill="#bfbfbf" stroke="black" points="2592.08,-380.5 2592.08,-454.5 2744.08,-454.5 2744.08,-380.5 2592.08,-380.5"/>
<text text-anchor="start" x="2600.08" y="-442.5" font-family="Helvetica,sans-Serif" font-size="10.00">/home/joel.winarske</text>
<text text-anchor="start" x="2600.08" y="-431.5" font-family="Helvetica,sans-Serif" font-size="10.00">@toyotaconnected.com</text>
<text text-anchor="start" x="2600.08" y="-420.5" font-family="Helvetica,sans-Serif" font-size="10.00">/development/workspace</text>
<text text-anchor="start" x="2600.08" y="-409.5" font-family="Helvetica,sans-Serif" font-size="10.00">&#45;automation&#45;configs/app</text>
<text text-anchor="start" x="2600.08" y="-398.5" font-family="Helvetica,sans-Serif" font-size="10.00">/ivi&#45;homescreen/shell/static</text>
<text text-anchor="middle" x="2668.08" y="-387.5" font-family="Helvetica,sans-Serif" font-size="10.00">_plugins/isolate/isolate.cc</text>
</a>
</g>
</g>
<!-- Node2 -->
<g id="node2" class="node">
<title>Node2</title>
<g id="a_node2"><a xlink:href="isolate_8h.html" target="_top" xlink:title=" ">
<polygon fill="white" stroke="black" points="2638.58,-67.5 2638.58,-86.5 2697.58,-86.5 2697.58,-67.5 2638.58,-67.5"/>
<text text-anchor="middle" x="2668.08" y="-74.5" font-family="Helvetica,sans-Serif" font-size="10.00">isolate.h</text>
</a>
</g>
</g>
<!-- Node1&#45;&gt;Node2 -->
<g id="edge1" class="edge">
<title>Node1&#45;&gt;Node2</title>
<path fill="none" stroke="midnightblue" d="M2668.08,-380.49C2668.08,-350.42 2668.08,-306.41 2668.08,-268 2668.08,-268 2668.08,-268 2668.08,-204.5 2668.08,-166.2 2668.08,-121.38 2668.08,-96.7"/>
<polygon fill="midnightblue" stroke="midnightblue" points="2671.58,-96.59 2668.08,-86.59 2664.58,-96.59 2671.58,-96.59"/>
</g>
<!-- Node4 -->
<g id="node4" class="node">
<title>Node4</title>
<g id="a_node4"><a xlink:title=" ">
<polygon fill="white" stroke="#bfbfbf" points="2696.08,-313.5 2696.08,-343.5 2830.08,-343.5 2830.08,-313.5 2696.08,-313.5"/>
<text text-anchor="start" x="2704.08" y="-331.5" font-family="Helvetica,sans-Serif" font-size="10.00">flutter/standard_method</text>
<text text-anchor="middle" x="2763.08" y="-320.5" font-family="Helvetica,sans-Serif" font-size="10.00">_codec.h</text>
</a>
</g>
</g>
<!-- Node1&#45;&gt;Node4 -->
<g id="edge3" class="edge">
<title>Node1&#45;&gt;Node4</title>
<path fill="none" stroke="midnightblue" d="M2707.54,-380.36C2718.64,-370.19 2730.35,-359.47 2740.14,-350.51"/>
<polygon fill="midnightblue" stroke="midnightblue" points="2742.52,-353.08 2747.53,-343.74 2737.79,-347.92 2742.52,-353.08"/>
</g>
<!-- Node5 -->
<g id="node5" class="node">
<title>Node5</title>
<g id="a_node5"><a xlink:href="engine_8h.html" target="_top" xlink:title=" ">
<polygon fill="white" stroke="black" points="2066.58,-319 2066.58,-338 2125.58,-338 2125.58,-319 2066.58,-319"/>
<text text-anchor="middle" x="2096.08" y="-326" font-family="Helvetica,sans-Serif" font-size="10.00">engine.h</text>
</a>
</g>
</g>
<!-- Node1&#45;&gt;Node5 -->
<g id="edge4" class="edge">
<title>Node1&#45;&gt;Node5</title>
<path fill="none" stroke="midnightblue" d="M2591.83,-404.9C2468.55,-386.15 2229.79,-349.84 2135.63,-335.52"/>
<polygon fill="midnightblue" stroke="midnightblue" points="2136.08,-332.04 2125.66,-334 2135.02,-338.96 2136.08,-332.04"/>
</g>
<!-- Node3 -->
<g id="node3" class="node">
<title>Node3</title>
<g id="a_node3"><a xlink:title=" ">
<polygon fill="white" stroke="#bfbfbf" points="1621.58,-0.5 1621.58,-30.5 1758.58,-30.5 1758.58,-0.5 1621.58,-0.5"/>
<text text-anchor="start" x="1629.58" y="-18.5" font-family="Helvetica,sans-Serif" font-size="10.00">shell/platform/embedder</text>
<text text-anchor="middle" x="1690.08" y="-7.5" font-family="Helvetica,sans-Serif" font-size="10.00">/embedder.h</text>
</a>
</g>
</g>
<!-- Node2&#45;&gt;Node3 -->
<g id="edge2" class="edge">
<title>Node2&#45;&gt;Node3</title>
<path fill="none" stroke="midnightblue" d="M2638.36,-69.3C2633.6,-68.41 2628.72,-67.6 2624.08,-67 2309.07,-26.49 1930.23,-18.4 1768.96,-16.84"/>
<polygon fill="midnightblue" stroke="midnightblue" points="1768.68,-13.34 1758.65,-16.75 1768.62,-20.34 1768.68,-13.34"/>
</g>
<!-- Node5&#45;&gt;Node3 -->
<g id="edge9" class="edge">
<title>Node5&#45;&gt;Node3</title>
<path fill="none" stroke="midnightblue" d="M2104.55,-318.69C2119.43,-303.73 2151.85,-273.4 2185.08,-257 2227.11,-236.27 2565.27,-190.96 2594.08,-154 2602.55,-143.13 2603.12,-133.39 2594.08,-123 2540.21,-61.09 1978.57,-29.53 1768.65,-19.83"/>
<polygon fill="midnightblue" stroke="midnightblue" points="1768.78,-16.33 1758.63,-19.37 1768.46,-23.32 1768.78,-16.33"/>
</g>
<!-- Node6 -->
<g id="node6" class="node">
<title>Node6</title>
<g id="a_node6"><a xlink:title=" ">
<polygon fill="white" stroke="#bfbfbf" points="1936.58,-257.5 1936.58,-276.5 2001.58,-276.5 2001.58,-257.5 1936.58,-257.5"/>
<text text-anchor="middle" x="1969.08" y="-264.5" font-family="Helvetica,sans-Serif" font-size="10.00">functional</text>
</a>
</g>
</g>
<!-- Node5&#45;&gt;Node6 -->
<g id="edge5" class="edge">
<title>Node5&#45;&gt;Node6</title>
<path fill="none" stroke="midnightblue" d="M2077.88,-318.98C2056.57,-308.99 2021.05,-292.35 1996.42,-280.81"/>
<polygon fill="midnightblue" stroke="midnightblue" points="1997.78,-277.58 1987.24,-276.51 1994.81,-283.92 1997.78,-277.58"/>
</g>
<!-- Node7 -->
<g id="node7" class="node">
<title>Node7</title>
<g id="a_node7"><a xlink:title=" ">
<polygon fill="white" stroke="#bfbfbf" points="2241.08,-6 2241.08,-25 2303.08,-25 2303.08,-6 2241.08,-6"/>
<text text-anchor="middle" x="2272.08" y="-13" font-family="Helvetica,sans-Serif" font-size="10.00">EGL/egl.h</text>
</a>
</g>
</g>
<!-- Node5&#45;&gt;Node7 -->
<g id="edge6" class="edge">
<title>Node5&#45;&gt;Node7</title>
<path fill="none" stroke="midnightblue" d="M2125.61,-327.21C2225.84,-325.86 2552.04,-318.31 2647.08,-277 2690.24,-258.24 2726.08,-253.56 2726.08,-206.5 2726.08,-206.5 2726.08,-206.5 2726.08,-137.5 2726.08,-105.05 2731.66,-88.19 2707.08,-67 2677.54,-41.53 2415.86,-24.45 2313.18,-18.67"/>
<polygon fill="midnightblue" stroke="midnightblue" points="2313.35,-15.17 2303.17,-18.11 2312.96,-22.16 2313.35,-15.17"/>
</g>
<!-- Node8 -->
<g id="node8" class="node">
<title>Node8</title>
<g id="a_node8"><a xlink:title=" ">
<polygon fill="white" stroke="#bfbfbf" points="2194.08,-257.5 2194.08,-276.5 2268.08,-276.5 2268.08,-257.5 2194.08,-257.5"/>
<text text-anchor="middle" x="2231.08" y="-264.5" font-family="Helvetica,sans-Serif" font-size="10.00">GLES2/gl2.h</text>
</a>
</g>
</g>
<!-- Node5&#45;&gt;Node8 -->
<g id="edge7" class="edge">
<title>Node5&#45;&gt;Node8</title>
<path fill="none" stroke="midnightblue" d="M2115.42,-318.98C2138.18,-308.95 2176.17,-292.2 2202.37,-280.65"/>
<polygon fill="midnightblue" stroke="midnightblue" points="2204.03,-283.74 2211.77,-276.51 2201.21,-277.34 2204.03,-283.74"/>
</g>
<!-- Node9 -->
<g id="node9" class="node">
<title>Node9</title>
<g id="a_node9"><a xlink:title=" ">
<polygon fill="white" stroke="#bfbfbf" points="2286.08,-257.5 2286.08,-276.5 2426.08,-276.5 2426.08,-257.5 2286.08,-257.5"/>
<text text-anchor="middle" x="2356.08" y="-264.5" font-family="Helvetica,sans-Serif" font-size="10.00">flutter/encodable_value.h</text>
</a>
</g>
</g>
<!-- Node5&#45;&gt;Node9 -->
<g id="edge8" class="edge">
<title>Node5&#45;&gt;Node9</title>
<path fill="none" stroke="midnightblue" d="M2125.65,-320.73C2170.29,-310.52 2255.32,-291.06 2308.67,-278.85"/>
<polygon fill="midnightblue" stroke="midnightblue" points="2309.61,-282.23 2318.58,-276.58 2308.05,-275.4 2309.61,-282.23"/>
</g>
<!-- Node10 -->
<g id="node10" class="node">
<title>Node10</title>
<g id="a_node10"><a xlink:title=" ">
<polygon fill="white" stroke="#bfbfbf" points="24.08,-129 24.08,-148 62.08,-148 62.08,-129 24.08,-129"/>
<text text-anchor="middle" x="43.08" y="-136" font-family="Helvetica,sans-Serif" font-size="10.00">map</text>
</a>
</g>
</g>
<!-- Node5&#45;&gt;Node10 -->
<g id="edge10" class="edge">
<title>Node5&#45;&gt;Node10</title>
<path fill="none" stroke="midnightblue" d="M2066.34,-327.22C1901.04,-325.36 1078.93,-311.7 415.08,-221 285.66,-203.32 134.43,-164.39 72.14,-147.54"/>
<polygon fill="midnightblue" stroke="midnightblue" points="72.82,-144.09 62.25,-144.84 70.98,-150.85 72.82,-144.09"/>
</g>
<!-- Node11 -->
<g id="node11" class="node">
<title>Node11</title>
<g id="a_node11"><a xlink:title=" ">
<polygon fill="white" stroke="#bfbfbf" points="1901.08,-129 1901.08,-148 1959.08,-148 1959.08,-129 1901.08,-129"/>
<text text-anchor="middle" x="1930.08" y="-136" font-family="Helvetica,sans-Serif" font-size="10.00">memory</text>
</a>
</g>
</g>
<!-- Node5&#45;&gt;Node11 -->
<g id="edge11" class="edge">
<title>Node5&#45;&gt;Node11</title>
<path fill="none" stroke="midnightblue" d="M2088.52,-318.93C2062.81,-289.82 1978.5,-194.34 1944.49,-155.82"/>
<polygon fill="midnightblue" stroke="midnightblue" points="1946.93,-153.3 1937.69,-148.12 1941.68,-157.93 1946.93,-153.3"/>
</g>
<!-- Node12 -->
<g id="node12" class="node">
<title>Node12</title>
<g id="a_node12"><a xlink:title=" ">
<polygon fill="white" stroke="#bfbfbf" points="2444.08,-257.5 2444.08,-276.5 2492.08,-276.5 2492.08,-257.5 2444.08,-257.5"/>
<text text-anchor="middle" x="2468.08" y="-264.5" font-family="Helvetica,sans-Serif" font-size="10.00">mutex</text>
</a>
</g>
</g>
<!-- Node5&#45;&gt;Node12 -->
<g id="edge12" class="edge">
<title>Node5&#45;&gt;Node12</title>
<path fill="none" stroke="midnightblue" d="M2125.76,-324.28C2183.36,-317.77 2314.39,-301.7 2433.95,-277.02"/>
<polygon fill="midnightblue" stroke="midnightblue" points="2434.94,-280.39 2444.01,-274.92 2433.5,-273.54 2434.94,-280.39"/>
</g>
<!-- Node13 -->
<g id="node13" class="node">
<title>Node13</title>
<g id="a_node13"><a xlink:title=" ">
<polygon fill="white" stroke="#bfbfbf" points="2510.58,-257.5 2510.58,-276.5 2557.58,-276.5 2557.58,-257.5 2510.58,-257.5"/>
<text text-anchor="middle" x="2534.08" y="-264.5" font-family="Helvetica,sans-Serif" font-size="10.00">queue</text>
</a>
</g>
</g>
<!-- Node5&#45;&gt;Node13 -->
<g id="edge13" class="edge">
<title>Node5&#45;&gt;Node13</title>
<path fill="none" stroke="midnightblue" d="M2125.78,-325.25C2191.55,-319.97 2354.52,-305.17 2500.36,-276.87"/>
<polygon fill="midnightblue" stroke="midnightblue" points="2501.25,-280.26 2510.38,-274.9 2499.89,-273.39 2501.25,-280.26"/>
</g>
<!-- Node14 -->
<g id="node14" class="node">
<title>Node14</title>
<g id="a_node14"><a xlink:title=" ">
<polygon fill="white" stroke="#bfbfbf" points="1839.08,-129 1839.08,-148 1883.08,-148 1883.08,-129 1839.08,-129"/>
<text text-anchor="middle" x="1861.08" y="-136" font-family="Helvetica,sans-Serif" font-size="10.00">string</text>
</a>
</g>
</g>
<!-- Node5&#45;&gt;Node14 -->
<g id="edge14" class="edge">
<title>Node5&#45;&gt;Node14</title>
<path fill="none" stroke="midnightblue" d="M2066.58,-325.72C2030.11,-322.07 1967.99,-310.93 1928.08,-277 1890.59,-245.12 1872.27,-187.34 1865.01,-157.86"/>
<polygon fill="midnightblue" stroke="midnightblue" points="1868.41,-157.03 1862.75,-148.07 1861.58,-158.6 1868.41,-157.03"/>
</g>
<!-- Node15 -->
<g id="node15" class="node">
<title>Node15</title>
<g id="a_node15"><a xlink:title=" ">
<polygon fill="white" stroke="#bfbfbf" points="1977.58,-129 1977.58,-148 2024.58,-148 2024.58,-129 1977.58,-129"/>
<text text-anchor="middle" x="2001.08" y="-136" font-family="Helvetica,sans-Serif" font-size="10.00">vector</text>
</a>
</g>
</g>
<!-- Node5&#45;&gt;Node15 -->
<g id="edge15" class="edge">
<title>Node5&#45;&gt;Node15</title>
<path fill="none" stroke="midnightblue" d="M2093.96,-318.99C2088.19,-296.72 2070.81,-235.27 2044.08,-190 2036.65,-177.42 2026.03,-164.91 2017.2,-155.49"/>
<polygon fill="midnightblue" stroke="midnightblue" points="2019.5,-152.83 2010.03,-148.08 2014.47,-157.7 2019.5,-152.83"/>
</g>
<!-- Node16 -->
<g id="node16" class="node">
<title>Node16</title>
<g id="a_node16"><a xlink:href="backend_8h.html" target="_top" xlink:title=" ">
<polygon fill="white" stroke="black" points="2475.08,-129 2475.08,-148 2585.08,-148 2585.08,-129 2475.08,-129"/>
<text text-anchor="middle" x="2530.08" y="-136" font-family="Helvetica,sans-Serif" font-size="10.00">backend/backend.h</text>
</a>
</g>
</g>
<!-- Node5&#45;&gt;Node16 -->
<g id="edge16" class="edge">
<title>Node5&#45;&gt;Node16</title>
<path fill="none" stroke="midnightblue" d="M2095.27,-318.73C2100,-303.84 2118.83,-273.6 2143.08,-257 2198.01,-219.39 2386.29,-171.41 2478.52,-150.3"/>
<polygon fill="midnightblue" stroke="midnightblue" points="2479.5,-153.66 2488.48,-148.04 2477.95,-146.84 2479.5,-153.66"/>
</g>
<!-- Node17 -->
<g id="node17" class="node">
<title>Node17</title>
<g id="a_node17"><a xlink:href="constants_8h.html" target="_top" xlink:title=" ">
<polygon fill="white" stroke="black" points="1556.58,-67.5 1556.58,-86.5 1629.58,-86.5 1629.58,-67.5 1556.58,-67.5"/>
<text text-anchor="middle" x="1593.08" y="-74.5" font-family="Helvetica,sans-Serif" font-size="10.00">constants.h</text>
</a>
</g>
</g>
<!-- Node5&#45;&gt;Node17 -->
<g id="edge23" class="edge">
<title>Node5&#45;&gt;Node17</title>
<path fill="none" stroke="midnightblue" d="M2066.45,-327.42C1860.48,-326.77 639.49,-321.09 271.08,-277 152.85,-262.85 83.96,-313.58 9.08,-221 -3.66,-205.25 -3.34,-140.33 15.08,-123 43.69,-96.08 1287.28,-81.28 1546.17,-78.49"/>
<polygon fill="midnightblue" stroke="midnightblue" points="1546.4,-81.99 1556.36,-78.38 1546.32,-74.99 1546.4,-81.99"/>
</g>
<!-- Node19 -->
<g id="node19" class="node">
<title>Node19</title>
<g id="a_node19"><a xlink:href="logging_8h.html" target="_top" xlink:title=" ">
<polygon fill="white" stroke="black" points="2576.08,-257.5 2576.08,-276.5 2638.08,-276.5 2638.08,-257.5 2576.08,-257.5"/>
<text text-anchor="middle" x="2607.08" y="-264.5" font-family="Helvetica,sans-Serif" font-size="10.00">logging.h</text>
</a>
</g>
</g>
<!-- Node5&#45;&gt;Node19 -->
<g id="edge24" class="edge">
<title>Node5&#45;&gt;Node19</title>
<path fill="none" stroke="midnightblue" d="M2125.72,-325.51C2198.84,-320.34 2393.75,-305.03 2565.71,-277.06"/>
<polygon fill="midnightblue" stroke="midnightblue" points="2566.4,-280.49 2575.7,-275.42 2565.27,-273.59 2566.4,-280.49"/>
</g>
<!-- Node21 -->
<g id="node21" class="node">
<title>Node21</title>
<g id="a_node21"><a xlink:href="platform__channel_8h.html" target="_top" xlink:title=" ">
<polygon fill="white" stroke="black" points="18.58,-196 18.58,-215 129.58,-215 129.58,-196 18.58,-196"/>
<text text-anchor="middle" x="74.08" y="-203" font-family="Helvetica,sans-Serif" font-size="10.00">platform_channel.h</text>
</a>
</g>
</g>
<!-- Node5&#45;&gt;Node21 -->
<g id="edge26" class="edge">
<title>Node5&#45;&gt;Node21</title>
<path fill="none" stroke="midnightblue" d="M2066.44,-327.4C1868.09,-326.63 730.72,-320.37 387.08,-277 286.98,-264.37 171.84,-234.32 113.06,-217.82"/>
<polygon fill="midnightblue" stroke="midnightblue" points="113.67,-214.36 103.09,-215 111.76,-221.09 113.67,-214.36"/>
</g>
<!-- Node22 -->
<g id="node22" class="node">
<title>Node22</title>
<g id="a_node22"><a xlink:href="key__event_8h.html" target="_top" xlink:title=" ">
<polygon fill="white" stroke="black" points="650.08,-190.5 650.08,-220.5 762.08,-220.5 762.08,-190.5 650.08,-190.5"/>
<text text-anchor="start" x="658.08" y="-208.5" font-family="Helvetica,sans-Serif" font-size="10.00">static_plugins/key</text>
<text text-anchor="middle" x="706.08" y="-197.5" font-family="Helvetica,sans-Serif" font-size="10.00">_event/key_event.h</text>
</a>
</g>
</g>
<!-- Node5&#45;&gt;Node22 -->
<g id="edge30" class="edge">
<title>Node5&#45;&gt;Node22</title>
<path fill="none" stroke="midnightblue" d="M2066.4,-324.92C1894.1,-309.92 1021.35,-233.94 772.43,-212.28"/>
<polygon fill="midnightblue" stroke="midnightblue" points="772.71,-208.79 762.45,-211.41 772.11,-215.76 772.71,-208.79"/>
</g>
<!-- Node29 -->
<g id="node29" class="node">
<title>Node29</title>
<g id="a_node29"><a xlink:href="text__input_8h.html" target="_top" xlink:title=" ">
<polygon fill="white" stroke="black" points="1277.08,-190.5 1277.08,-220.5 1385.08,-220.5 1385.08,-190.5 1277.08,-190.5"/>
<text text-anchor="start" x="1285.08" y="-208.5" font-family="Helvetica,sans-Serif" font-size="10.00">static_plugins/text</text>
<text text-anchor="middle" x="1331.08" y="-197.5" font-family="Helvetica,sans-Serif" font-size="10.00">_input/text_input.h</text>
</a>
</g>
</g>
<!-- Node5&#45;&gt;Node29 -->
<g id="edge42" class="edge">
<title>Node5&#45;&gt;Node29</title>
<path fill="none" stroke="midnightblue" d="M2066.22,-323.75C2003.85,-315.83 1855.26,-296.53 1731.08,-277 1612.41,-258.34 1474.56,-233.3 1395.59,-218.63"/>
<polygon fill="midnightblue" stroke="midnightblue" points="1395.79,-215.1 1385.32,-216.72 1394.51,-221.99 1395.79,-215.1"/>
</g>
<!-- Node34 -->
<g id="node34" class="node">
<title>Node34</title>
<g id="a_node34"><a xlink:href="flutter__view_8h.html" target="_top" xlink:title=" ">
<polygon fill="white" stroke="black" points="1739.58,-257.5 1739.58,-276.5 1848.58,-276.5 1848.58,-257.5 1739.58,-257.5"/>
<text text-anchor="middle" x="1794.08" y="-264.5" font-family="Helvetica,sans-Serif" font-size="10.00">view/flutter_view.h</text>
</a>
</g>
</g>
<!-- Node5&#45;&gt;Node34 -->
<g id="edge56" class="edge">
<title>Node5&#45;&gt;Node34</title>
<path fill="none" stroke="midnightblue" d="M2066.57,-321.69C2015.78,-311.68 1911.16,-291.07 1847.36,-278.5"/>
<polygon fill="midnightblue" stroke="midnightblue" points="1847.97,-275.05 1837.48,-276.55 1846.62,-281.92 1847.97,-275.05"/>
</g>
<!-- Node16&#45;&gt;Node3 -->
<g id="edge17" class="edge">
<title>Node16&#45;&gt;Node3</title>
<path fill="none" stroke="midnightblue" d="M2494.98,-128.97C2485.62,-126.86 2475.5,-124.71 2466.08,-123 2212.69,-77 1909.51,-40.77 1768.89,-25.04"/>
<polygon fill="midnightblue" stroke="midnightblue" points="1768.97,-21.52 1758.64,-23.89 1768.19,-28.48 1768.97,-21.52"/>
</g>
<!-- Node16&#45;&gt;Node5 -->
<g id="edge22" class="edge">
<title>Node16&#45;&gt;Node5</title>
<path fill="none" stroke="midnightblue" d="M2497.77,-148.04C2418.59,-167.8 2218.06,-217.98 2161.08,-257 2140.62,-271.01 2124.02,-294.73 2112.2,-310.74"/>
<polygon fill="midnightblue" stroke="midnightblue" points="2109.39,-308.65 2106.14,-318.73 2114.97,-312.88 2109.39,-308.65"/>
</g>
<!-- Node16&#45;&gt;Node17 -->
<g id="edge18" class="edge">
<title>Node16&#45;&gt;Node17</title>
<path fill="none" stroke="midnightblue" d="M2497.39,-128.96C2487.4,-126.66 2476.35,-124.42 2466.08,-123 2152.84,-79.77 1771.19,-77.1 1639.99,-77.6"/>
<polygon fill="midnightblue" stroke="midnightblue" points="1639.87,-74.1 1629.88,-77.65 1639.9,-81.1 1639.87,-74.1"/>
</g>
<!-- Node17&#45;&gt;Node3 -->
<g id="edge20" class="edge">
<title>Node17&#45;&gt;Node3</title>
<path fill="none" stroke="midnightblue" d="M1606.98,-67.48C1620.36,-59.27 1641.08,-46.56 1658.48,-35.88"/>
<polygon fill="midnightblue" stroke="midnightblue" points="1660.52,-38.74 1667.22,-30.52 1656.86,-32.77 1660.52,-38.74"/>
</g>
<!-- Node17&#45;&gt;Node7 -->
<g id="edge19" class="edge">
<title>Node17&#45;&gt;Node7</title>
<path fill="none" stroke="midnightblue" d="M1629.59,-72.8C1746.02,-62.6 2108.09,-30.87 2230.87,-20.11"/>
<polygon fill="midnightblue" stroke="midnightblue" points="2231.33,-23.58 2240.99,-19.22 2230.72,-16.61 2231.33,-23.58"/>
</g>
<!-- Node18 -->
<g id="node18" class="node">
<title>Node18</title>
<g id="a_node18"><a xlink:title=" ">
<polygon fill="white" stroke="#bfbfbf" points="1561.08,-6 1561.08,-25 1603.08,-25 1603.08,-6 1561.08,-6"/>
<text text-anchor="middle" x="1582.08" y="-13" font-family="Helvetica,sans-Serif" font-size="10.00">array</text>
</a>
</g>
</g>
<!-- Node17&#45;&gt;Node18 -->
<g id="edge21" class="edge">
<title>Node17&#45;&gt;Node18</title>
<path fill="none" stroke="midnightblue" d="M1591.5,-67.48C1589.95,-59.08 1587.53,-45.98 1585.53,-35.16"/>
<polygon fill="midnightblue" stroke="midnightblue" points="1588.91,-34.21 1583.65,-25.01 1582.03,-35.48 1588.91,-34.21"/>
</g>
<!-- Node20 -->
<g id="node20" class="node">
<title>Node20</title>
<g id="a_node20"><a xlink:title=" ">
<polygon fill="white" stroke="#bfbfbf" points="2526.58,-196 2526.58,-215 2639.58,-215 2639.58,-196 2526.58,-196"/>
<text text-anchor="middle" x="2583.08" y="-203" font-family="Helvetica,sans-Serif" font-size="10.00">flutter/fml/logging.h</text>
</a>
</g>
</g>
<!-- Node19&#45;&gt;Node20 -->
<g id="edge25" class="edge">
<title>Node19&#45;&gt;Node20</title>
<path fill="none" stroke="midnightblue" d="M2603.64,-257.48C2600.18,-248.9 2594.75,-235.43 2590.33,-224.48"/>
<polygon fill="midnightblue" stroke="midnightblue" points="2593.5,-222.97 2586.51,-215.01 2587.01,-225.59 2593.5,-222.97"/>
</g>
<!-- Node21&#45;&gt;Node3 -->
<g id="edge29" class="edge">
<title>Node21&#45;&gt;Node3</title>
<path fill="none" stroke="midnightblue" d="M59.66,-195.89C36.5,-180.96 -4.49,-149.37 15.08,-123 66.27,-54.01 115.27,-80.66 200.08,-67 506.79,-17.59 1283.77,-62.84 1611.23,-30.92"/>
<polygon fill="midnightblue" stroke="midnightblue" points="1611.67,-34.39 1621.26,-29.9 1610.96,-27.43 1611.67,-34.39"/>
</g>
<!-- Node21&#45;&gt;Node10 -->
<g id="edge27" class="edge">
<title>Node21&#45;&gt;Node10</title>
<path fill="none" stroke="midnightblue" d="M69.9,-195.73C65.2,-185.89 57.46,-169.66 51.5,-157.16"/>
<polygon fill="midnightblue" stroke="midnightblue" points="54.66,-155.65 47.19,-148.13 48.34,-158.66 54.66,-155.65"/>
</g>
<!-- Node21&#45;&gt;Node14 -->
<g id="edge28" class="edge">
<title>Node21&#45;&gt;Node14</title>
<path fill="none" stroke="midnightblue" d="M129.78,-203.05C426.53,-195.31 1808.89,-159.03 1830.08,-154 1832.29,-153.48 1834.53,-152.79 1836.74,-151.99"/>
<polygon fill="midnightblue" stroke="midnightblue" points="1838.24,-155.15 1846.08,-148.02 1835.5,-148.71 1838.24,-155.15"/>
</g>
<!-- Node22&#45;&gt;Node3 -->
<g id="edge39" class="edge">
<title>Node22&#45;&gt;Node3</title>
<path fill="none" stroke="midnightblue" d="M649.92,-199.46C618.25,-196.64 577.96,-193.08 542.08,-190 493.98,-185.87 141.77,-189.52 109.08,-154 99.75,-143.86 99.64,-133.04 109.08,-123 221.7,-3.27 1403.39,-49.72 1611.05,-30.85"/>
<polygon fill="midnightblue" stroke="midnightblue" points="1611.67,-34.3 1621.25,-29.77 1610.93,-27.34 1611.67,-34.3"/>
</g>
<!-- Node22&#45;&gt;Node10 -->
<g id="edge31" class="edge">
<title>Node22&#45;&gt;Node10</title>
<path fill="none" stroke="midnightblue" d="M650.03,-197.82C626.85,-195.18 599.69,-192.25 575.08,-190 353.65,-169.77 291.9,-207.5 76.08,-154 73.72,-153.42 71.32,-152.68 68.94,-151.84"/>
<polygon fill="midnightblue" stroke="midnightblue" points="70.06,-148.52 59.48,-148.02 67.44,-155.01 70.06,-148.52"/>
</g>
<!-- Node22&#45;&gt;Node11 -->
<g id="edge32" class="edge">
<title>Node22&#45;&gt;Node11</title>
<path fill="none" stroke="midnightblue" d="M762.13,-203.17C982.25,-197.81 1780.88,-176.95 1892.08,-154 1895.16,-153.36 1898.32,-152.51 1901.44,-151.53"/>
<polygon fill="midnightblue" stroke="midnightblue" points="1902.85,-154.75 1911.11,-148.11 1900.51,-148.15 1902.85,-154.75"/>
</g>
<!-- Node22&#45;&gt;Node14 -->
<g id="edge33" class="edge">
<title>Node22&#45;&gt;Node14</title>
<path fill="none" stroke="midnightblue" d="M762.13,-203.27C974.92,-198.41 1726.05,-179.59 1830.08,-154 1832.07,-153.51 1834.09,-152.89 1836.09,-152.18"/>
<polygon fill="midnightblue" stroke="midnightblue" points="1837.89,-155.22 1845.75,-148.12 1835.17,-148.77 1837.89,-155.22"/>
</g>
<!-- Node22&#45;&gt;Node17 -->
<g id="edge41" class="edge">
<title>Node22&#45;&gt;Node17</title>
<path fill="none" stroke="midnightblue" d="M649.83,-199.52C591.28,-193.03 505.32,-179.39 485.08,-154 476.49,-143.23 475.54,-132.94 485.08,-123 522.35,-84.18 1339.89,-78.84 1546.15,-78.11"/>
<polygon fill="midnightblue" stroke="midnightblue" points="1546.36,-81.61 1556.35,-78.08 1546.34,-74.61 1546.36,-81.61"/>
</g>
<!-- Node23 -->
<g id="node23" class="node">
<title>Node23</title>
<g id="a_node23"><a xlink:title=" ">
<polygon fill="white" stroke="#bfbfbf" points="118.08,-123.5 118.08,-153.5 242.08,-153.5 242.08,-123.5 118.08,-123.5"/>
<text text-anchor="start" x="126.08" y="-141.5" font-family="Helvetica,sans-Serif" font-size="10.00">flutter/basic_message</text>
<text text-anchor="middle" x="180.08" y="-130.5" font-family="Helvetica,sans-Serif" font-size="10.00">_channel.h</text>
</a>
</g>
</g>
<!-- Node22&#45;&gt;Node23 -->
<g id="edge34" class="edge">
<title>Node22&#45;&gt;Node23</title>
<path fill="none" stroke="midnightblue" d="M649.73,-198.26C540.09,-186.12 304.75,-160.06 252.45,-153.83"/>
<polygon fill="midnightblue" stroke="midnightblue" points="252.72,-150.33 242.36,-152.55 251.84,-157.28 252.72,-150.33"/>
</g>
<!-- Node24 -->
<g id="node24" class="node">
<title>Node24</title>
<g id="a_node24"><a xlink:title=" ">
<polygon fill="white" stroke="#bfbfbf" points="662.58,-129 662.58,-148 809.58,-148 809.58,-129 662.58,-129"/>
<text text-anchor="middle" x="736.08" y="-136" font-family="Helvetica,sans-Serif" font-size="10.00">flutter/binary_messenger.h</text>
</a>
</g>
</g>
<!-- Node22&#45;&gt;Node24 -->
<g id="edge35" class="edge">
<title>Node22&#45;&gt;Node24</title>
<path fill="none" stroke="midnightblue" d="M712.59,-190.4C717.03,-180.76 722.96,-167.91 727.75,-157.54"/>
<polygon fill="midnightblue" stroke="midnightblue" points="731.05,-158.74 732.07,-148.19 724.7,-155.81 731.05,-158.74"/>
</g>
<!-- Node25 -->
<g id="node25" class="node">
<title>Node25</title>
<g id="a_node25"><a xlink:title=" ">
<polygon fill="white" stroke="#bfbfbf" points="260.08,-123.5 260.08,-153.5 438.08,-153.5 438.08,-123.5 260.08,-123.5"/>
<text text-anchor="start" x="268.08" y="-141.5" font-family="Helvetica,sans-Serif" font-size="10.00">flutter/shell/platform</text>
<text text-anchor="middle" x="349.08" y="-130.5" font-family="Helvetica,sans-Serif" font-size="10.00">/common/json_message_codec.h</text>
</a>
</g>
</g>
<!-- Node22&#45;&gt;Node25 -->
<g id="edge36" class="edge">
<title>Node22&#45;&gt;Node25</title>
<path fill="none" stroke="midnightblue" d="M649.91,-194.27C592.57,-183.83 502.78,-167.48 436.21,-155.36"/>
<polygon fill="midnightblue" stroke="midnightblue" points="436.61,-151.88 426.15,-153.53 435.36,-158.77 436.61,-151.88"/>
</g>
<!-- Node26 -->
<g id="node26" class="node">
<title>Node26</title>
<g id="a_node26"><a xlink:title=" ">
<polygon fill="white" stroke="#bfbfbf" points="1707.58,-129 1707.58,-148 1820.58,-148 1820.58,-129 1707.58,-129"/>
<text text-anchor="middle" x="1764.08" y="-136" font-family="Helvetica,sans-Serif" font-size="10.00">flutter/fml/macros.h</text>
</a>
</g>
</g>
<!-- Node22&#45;&gt;Node26 -->
<g id="edge37" class="edge">
<title>Node22&#45;&gt;Node26</title>
<path fill="none" stroke="midnightblue" d="M762.33,-203.17C909.77,-199.34 1319.52,-186.38 1659.08,-154 1672,-152.77 1685.77,-151.11 1698.94,-149.36"/>
<polygon fill="midnightblue" stroke="midnightblue" points="1699.43,-152.83 1708.87,-148.01 1698.49,-145.89 1699.43,-152.83"/>
</g>
<!-- Node27 -->
<g id="node27" class="node">
<title>Node27</title>
<g id="a_node27"><a xlink:title=" ">
<polygon fill="white" stroke="#bfbfbf" points="1339.08,-129 1339.08,-148 1461.08,-148 1461.08,-129 1339.08,-129"/>
<text text-anchor="middle" x="1400.08" y="-136" font-family="Helvetica,sans-Serif" font-size="10.00">rapidjson/document.h</text>
</a>
</g>
</g>
<!-- Node22&#45;&gt;Node27 -->
<g id="edge38" class="edge">
<title>Node22&#45;&gt;Node27</title>
<path fill="none" stroke="midnightblue" d="M762.18,-202.22C871.64,-197.28 1121.19,-183.54 1329.08,-154 1336.79,-152.9 1344.92,-151.49 1352.81,-149.98"/>
<polygon fill="midnightblue" stroke="midnightblue" points="1353.52,-153.41 1362.64,-148.03 1352.15,-146.54 1353.52,-153.41"/>
</g>
<!-- Node28 -->
<g id="node28" class="node">
<title>Node28</title>
<g id="a_node28"><a xlink:title=" ">
<polygon fill="white" stroke="#bfbfbf" points="494.08,-129 494.08,-148 644.08,-148 644.08,-129 494.08,-129"/>
<text text-anchor="middle" x="569.08" y="-136" font-family="Helvetica,sans-Serif" font-size="10.00">xkbcommon/xkbcommon.h</text>
</a>
</g>
</g>
<!-- Node22&#45;&gt;Node28 -->
<g id="edge40" class="edge">
<title>Node22&#45;&gt;Node28</title>
<path fill="none" stroke="midnightblue" d="M676.35,-190.4C652.53,-179.09 619.37,-163.36 596.25,-152.39"/>
<polygon fill="midnightblue" stroke="midnightblue" points="597.54,-149.13 587.01,-148.01 594.54,-155.46 597.54,-149.13"/>
</g>
<!-- Node29&#45;&gt;Node3 -->
<g id="edge53" class="edge">
<title>Node29&#45;&gt;Node3</title>
<path fill="none" stroke="midnightblue" d="M1385.13,-203.35C1467.84,-200.43 1620.33,-190.17 1659.08,-154 1690.15,-125 1693.33,-72.07 1692.16,-41.02"/>
<polygon fill="midnightblue" stroke="midnightblue" points="1695.64,-40.44 1691.58,-30.65 1688.65,-40.84 1695.64,-40.44"/>
</g>
<!-- Node29&#45;&gt;Node10 -->
<g id="edge43" class="edge">
<title>Node29&#45;&gt;Node10</title>
<path fill="none" stroke="midnightblue" d="M1276.83,-202.82C1055.33,-195.88 225.69,-169.1 109.08,-154 96.88,-152.42 83.59,-149.7 72.16,-147.04"/>
<polygon fill="midnightblue" stroke="midnightblue" points="72.81,-143.6 62.27,-144.65 71.17,-150.4 72.81,-143.6"/>
</g>
<!-- Node29&#45;&gt;Node11 -->
<g id="edge44" class="edge">
<title>Node29&#45;&gt;Node11</title>
<path fill="none" stroke="midnightblue" d="M1385.22,-204.53C1486.22,-203.51 1709.62,-196.17 1892.08,-154 1895.08,-153.31 1898.16,-152.43 1901.2,-151.45"/>
<polygon fill="midnightblue" stroke="midnightblue" points="1902.43,-154.73 1910.68,-148.08 1900.08,-148.13 1902.43,-154.73"/>
</g>
<!-- Node29&#45;&gt;Node14 -->
<g id="edge45" class="edge">
<title>Node29&#45;&gt;Node14</title>
<path fill="none" stroke="midnightblue" d="M1385.34,-204.91C1478.17,-204.33 1672.69,-197.42 1830.08,-154 1832.01,-153.47 1833.97,-152.82 1835.92,-152.1"/>
<polygon fill="midnightblue" stroke="midnightblue" points="1837.54,-155.22 1845.38,-148.09 1834.81,-148.78 1837.54,-155.22"/>
</g>
<!-- Node29&#45;&gt;Node17 -->
<g id="edge55" class="edge">
<title>Node29&#45;&gt;Node17</title>
<path fill="none" stroke="midnightblue" d="M1276.93,-202.72C1158.49,-198.28 884.75,-184.77 857.08,-154 847.87,-143.75 847.64,-133.04 857.08,-123 880.74,-97.85 1387.47,-83.12 1546.06,-79.12"/>
<polygon fill="midnightblue" stroke="midnightblue" points="1546.53,-82.61 1556.44,-78.86 1546.35,-75.61 1546.53,-82.61"/>
</g>
<!-- Node29&#45;&gt;Node24 -->
<g id="edge46" class="edge">
<title>Node29&#45;&gt;Node24</title>
<path fill="none" stroke="midnightblue" d="M1276.92,-200.25C1184.05,-192.71 988.51,-175.71 824.08,-154 814.51,-152.74 804.38,-151.23 794.53,-149.67"/>
<polygon fill="midnightblue" stroke="midnightblue" points="794.84,-146.17 784.41,-148.04 793.73,-153.08 794.84,-146.17"/>
</g>
<!-- Node29&#45;&gt;Node26 -->
<g id="edge49" class="edge">
<title>Node29&#45;&gt;Node26</title>
<path fill="none" stroke="midnightblue" d="M1385.21,-198.03C1456.13,-189.3 1584.26,-172.68 1693.08,-154 1699.91,-152.83 1707.09,-151.49 1714.15,-150.11"/>
<polygon fill="midnightblue" stroke="midnightblue" points="1715.24,-153.46 1724.36,-148.07 1713.87,-146.6 1715.24,-153.46"/>
</g>
<!-- Node29&#45;&gt;Node27 -->
<g id="edge52" class="edge">
<title>Node29&#45;&gt;Node27</title>
<path fill="none" stroke="midnightblue" d="M1346.05,-190.4C1357.02,-180.06 1371.92,-166.02 1383.3,-155.31"/>
<polygon fill="midnightblue" stroke="midnightblue" points="1385.97,-157.6 1390.85,-148.19 1381.17,-152.5 1385.97,-157.6"/>
</g>
<!-- Node29&#45;&gt;Node28 -->
<g id="edge54" class="edge">
<title>Node29&#45;&gt;Node28</title>
<path fill="none" stroke="midnightblue" d="M1276.85,-202.24C1161.66,-197.05 884.15,-182.48 653.08,-154 643.6,-152.83 633.55,-151.33 623.83,-149.74"/>
<polygon fill="midnightblue" stroke="midnightblue" points="624.3,-146.27 613.86,-148.06 623.14,-153.17 624.3,-146.27"/>
</g>
<!-- Node30 -->
<g id="node30" class="node">
<title>Node30</title>
<g id="a_node30"><a xlink:title=" ">
<polygon fill="white" stroke="#bfbfbf" points="1044.58,-129 1044.58,-148 1183.58,-148 1183.58,-129 1044.58,-129"/>
<text text-anchor="middle" x="1114.08" y="-136" font-family="Helvetica,sans-Serif" font-size="10.00">flutter/method_channel.h</text>
</a>
</g>
</g>
<!-- Node29&#45;&gt;Node30 -->
<g id="edge47" class="edge">
<title>Node29&#45;&gt;Node30</title>
<path fill="none" stroke="midnightblue" d="M1284.26,-190.48C1244.86,-178.67 1189.2,-162 1152.4,-150.98"/>
<polygon fill="midnightblue" stroke="midnightblue" points="1153.14,-147.55 1142.55,-148.03 1151.13,-154.25 1153.14,-147.55"/>
</g>
<!-- Node31 -->
<g id="node31" class="node">
<title>Node31</title>
<g id="a_node31"><a xlink:title=" ">
<polygon fill="white" stroke="#bfbfbf" points="1201.58,-123.5 1201.58,-153.5 1320.58,-153.5 1320.58,-123.5 1201.58,-123.5"/>
<text text-anchor="start" x="1209.58" y="-141.5" font-family="Helvetica,sans-Serif" font-size="10.00">flutter/method_result</text>
<text text-anchor="middle" x="1261.08" y="-130.5" font-family="Helvetica,sans-Serif" font-size="10.00">_functions.h</text>
</a>
</g>
</g>
<!-- Node29&#45;&gt;Node31 -->
<g id="edge48" class="edge">
<title>Node29&#45;&gt;Node31</title>
<path fill="none" stroke="midnightblue" d="M1315.89,-190.4C1306.53,-181.71 1294.36,-170.4 1283.86,-160.66"/>
<polygon fill="midnightblue" stroke="midnightblue" points="1285.95,-157.82 1276.24,-153.58 1281.18,-162.95 1285.95,-157.82"/>
</g>
<!-- Node32 -->
<g id="node32" class="node">
<title>Node32</title>
<g id="a_node32"><a xlink:title=" ">
<polygon fill="white" stroke="#bfbfbf" points="1479.58,-123.5 1479.58,-153.5 1650.58,-153.5 1650.58,-123.5 1479.58,-123.5"/>
<text text-anchor="start" x="1487.58" y="-141.5" font-family="Helvetica,sans-Serif" font-size="10.00">flutter/shell/platform</text>
<text text-anchor="middle" x="1565.08" y="-130.5" font-family="Helvetica,sans-Serif" font-size="10.00">/common/json_method_codec.h</text>
</a>
</g>
</g>
<!-- Node29&#45;&gt;Node32 -->
<g id="edge50" class="edge">
<title>Node29&#45;&gt;Node32</title>
<path fill="none" stroke="midnightblue" d="M1381.57,-190.48C1417.58,-180.47 1466.18,-166.97 1504.32,-156.38"/>
<polygon fill="midnightblue" stroke="midnightblue" points="1505.58,-159.66 1514.28,-153.61 1503.71,-152.92 1505.58,-159.66"/>
</g>
<!-- Node33 -->
<g id="node33" class="node">
<title>Node33</title>
<g id="a_node33"><a xlink:title=" ">
<polygon fill="white" stroke="#bfbfbf" points="866.08,-123.5 866.08,-153.5 1026.08,-153.5 1026.08,-123.5 866.08,-123.5"/>
<text text-anchor="start" x="874.08" y="-141.5" font-family="Helvetica,sans-Serif" font-size="10.00">flutter/shell/platform</text>
<text text-anchor="middle" x="946.08" y="-130.5" font-family="Helvetica,sans-Serif" font-size="10.00">/common/text_input_model.h</text>
</a>
</g>
</g>
<!-- Node29&#45;&gt;Node33 -->
<g id="edge51" class="edge">
<title>Node29&#45;&gt;Node33</title>
<path fill="none" stroke="midnightblue" d="M1276.73,-195.32C1214.25,-184.78 1110.71,-167.3 1036.13,-154.7"/>
<polygon fill="midnightblue" stroke="midnightblue" points="1036.71,-151.25 1026.27,-153.04 1035.54,-158.15 1036.71,-151.25"/>
</g>
<!-- Node34&#45;&gt;Node10 -->
<g id="edge57" class="edge">
<title>Node34&#45;&gt;Node10</title>
<path fill="none" stroke="midnightblue" d="M1739.35,-265.75C1573.59,-264.6 1062.64,-258.05 641.08,-221 540.08,-212.12 515.72,-202.24 415.08,-190 264.67,-171.7 222.5,-192.94 76.08,-154 73.78,-153.39 71.44,-152.64 69.12,-151.81"/>
<polygon fill="midnightblue" stroke="midnightblue" points="70.43,-148.56 59.85,-148.06 67.8,-155.05 70.43,-148.56"/>
</g>
<!-- Node34&#45;&gt;Node11 -->
<g id="edge58" class="edge">
<title>Node34&#45;&gt;Node11</title>
<path fill="none" stroke="midnightblue" d="M1805.8,-257.47C1817.59,-248.72 1836.11,-234.52 1851.08,-221 1874.7,-199.66 1899.97,-172.79 1915.4,-155.88"/>
<polygon fill="midnightblue" stroke="midnightblue" points="1918.02,-158.2 1922.14,-148.44 1912.83,-153.5 1918.02,-158.2"/>
</g>
<!-- Node34&#45;&gt;Node26 -->
<g id="edge64" class="edge">
<title>Node34&#45;&gt;Node26</title>
<path fill="none" stroke="midnightblue" d="M1739.29,-258.78C1716.08,-252.71 1691.19,-241.54 1677.08,-221 1669.28,-209.64 1670.2,-201.94 1677.08,-190 1687.37,-172.12 1706.69,-159.99 1724.51,-152.11"/>
<polygon fill="midnightblue" stroke="midnightblue" points="1726.26,-155.18 1734.19,-148.16 1723.61,-148.7 1726.26,-155.18"/>
</g>
<!-- Node35 -->
<g id="node35" class="node">
<title>Node35</title>
<g id="a_node35"><a xlink:href="configuration_8h.html" target="_top" xlink:title=" ">
<polygon fill="white" stroke="black" points="1686.08,-196 1686.08,-215 1842.08,-215 1842.08,-196 1686.08,-196"/>
<text text-anchor="middle" x="1764.08" y="-203" font-family="Helvetica,sans-Serif" font-size="10.00">configuration/configuration.h</text>
</a>
</g>
</g>
<!-- Node34&#45;&gt;Node35 -->
<g id="edge59" class="edge">
<title>Node34&#45;&gt;Node35</title>
<path fill="none" stroke="midnightblue" d="M1789.78,-257.48C1785.41,-248.82 1778.52,-235.15 1772.98,-224.15"/>
<polygon fill="midnightblue" stroke="midnightblue" points="1776,-222.36 1768.37,-215.01 1769.75,-225.51 1776,-222.36"/>
</g>
<!-- Node36 -->
<g id="node36" class="node">
<title>Node36</title>
<g id="a_node36"><a xlink:href="window_8h.html" target="_top" xlink:title=" ">
<polygon fill="white" stroke="black" points="2096.58,-196 2096.58,-215 2203.58,-215 2203.58,-196 2096.58,-196"/>
<text text-anchor="middle" x="2150.08" y="-203" font-family="Helvetica,sans-Serif" font-size="10.00">wayland/window.h</text>
</a>
</g>
</g>
<!-- Node34&#45;&gt;Node36 -->
<g id="edge65" class="edge">
<title>Node34&#45;&gt;Node36</title>
<path fill="none" stroke="midnightblue" d="M1845.09,-257.48C1909.46,-246.72 2020.06,-228.23 2088.91,-216.72"/>
<polygon fill="midnightblue" stroke="midnightblue" points="2089.88,-220.11 2099.17,-215.01 2088.73,-213.21 2089.88,-220.11"/>
</g>
<!-- Node35&#45;&gt;Node14 -->
<g id="edge60" class="edge">
<title>Node35&#45;&gt;Node14</title>
<path fill="none" stroke="midnightblue" d="M1777.16,-195.73C1793.23,-184.96 1820.71,-166.55 1839.83,-153.74"/>
<polygon fill="midnightblue" stroke="midnightblue" points="1841.85,-156.6 1848.2,-148.13 1837.95,-150.79 1841.85,-156.6"/>
</g>
<!-- Node35&#45;&gt;Node15 -->
<g id="edge61" class="edge">
<title>Node35&#45;&gt;Node15</title>
<path fill="none" stroke="midnightblue" d="M1807.68,-195.97C1849.41,-187.28 1913.86,-172.47 1968.08,-154 1969.95,-153.36 1971.85,-152.67 1973.76,-151.93"/>
<polygon fill="midnightblue" stroke="midnightblue" points="1975.24,-155.1 1983.14,-148.05 1972.57,-148.64 1975.24,-155.1"/>
</g>
<!-- Node35&#45;&gt;Node26 -->
<g id="edge62" class="edge">
<title>Node35&#45;&gt;Node26</title>
<path fill="none" stroke="midnightblue" d="M1764.08,-195.73C1764.08,-186.18 1764.08,-170.62 1764.08,-158.28"/>
<polygon fill="midnightblue" stroke="midnightblue" points="1767.58,-158.13 1764.08,-148.13 1760.58,-158.13 1767.58,-158.13"/>
</g>
<!-- Node35&#45;&gt;Node27 -->
<g id="edge63" class="edge">
<title>Node35&#45;&gt;Node27</title>
<path fill="none" stroke="midnightblue" d="M1711.14,-195.97C1652.2,-186.33 1554.17,-169.93 1470.08,-154 1463.52,-152.76 1456.64,-151.4 1449.84,-150.03"/>
<polygon fill="midnightblue" stroke="midnightblue" points="1450.51,-146.59 1440.01,-148.02 1449.11,-153.45 1450.51,-146.59"/>
</g>
<!-- Node36&#45;&gt;Node11 -->
<g id="edge66" class="edge">
<title>Node36&#45;&gt;Node11</title>
<path fill="none" stroke="midnightblue" d="M2116.13,-195.94C2079.57,-186.51 2019.81,-170.48 1969.08,-154 1966.67,-153.22 1964.2,-152.38 1961.72,-151.51"/>
<polygon fill="midnightblue" stroke="midnightblue" points="1962.83,-148.2 1952.24,-148.11 1960.46,-154.78 1962.83,-148.2"/>
</g>
<!-- Node36&#45;&gt;Node14 -->
<g id="edge67" class="edge">
<title>Node36&#45;&gt;Node14</title>
<path fill="none" stroke="midnightblue" d="M2096.24,-197.87C2043.37,-190.45 1960.85,-176.44 1892.08,-154 1890.41,-153.46 1888.71,-152.84 1887.02,-152.19"/>
<polygon fill="midnightblue" stroke="midnightblue" points="1888.08,-148.83 1877.51,-148.09 1885.31,-155.26 1888.08,-148.83"/>
</g>
<!-- Node36&#45;&gt;Node16 -->
<g id="edge71" class="edge">
<title>Node36&#45;&gt;Node16</title>
<path fill="none" stroke="midnightblue" d="M2188.11,-195.93C2197.86,-193.86 2208.34,-191.74 2218.08,-190 2327.71,-170.38 2356.57,-174.32 2466.08,-154 2472.04,-152.89 2478.28,-151.62 2484.43,-150.3"/>
<polygon fill="midnightblue" stroke="midnightblue" points="2485.63,-153.62 2494.64,-148.05 2484.12,-146.79 2485.63,-153.62"/>
</g>
<!-- Node36&#45;&gt;Node17 -->
<g id="edge70" class="edge">
<title>Node36&#45;&gt;Node17</title>
<path fill="none" stroke="midnightblue" d="M2135.67,-195.83C2119.78,-186.12 2093.6,-169.67 2072.08,-154 2054.46,-141.17 2054.21,-131.35 2034.08,-123 1963.68,-93.82 1738.3,-82.86 1639.84,-79.39"/>
<polygon fill="midnightblue" stroke="midnightblue" points="1639.71,-75.88 1629.6,-79.04 1639.47,-82.88 1639.71,-75.88"/>
</g>
<!-- Node37 -->
<g id="node37" class="node">
<title>Node37</title>
<g id="a_node37"><a xlink:title=" ">
<polygon fill="white" stroke="#bfbfbf" points="2081.08,-129 2081.08,-148 2133.08,-148 2133.08,-129 2081.08,-129"/>
<text text-anchor="middle" x="2107.08" y="-136" font-family="Helvetica,sans-Serif" font-size="10.00">cassert</text>
</a>
</g>
</g>
<!-- Node36&#45;&gt;Node37 -->
<g id="edge68" class="edge">
<title>Node36&#45;&gt;Node37</title>
<path fill="none" stroke="midnightblue" d="M2144.28,-195.73C2137.7,-185.79 2126.82,-169.34 2118.52,-156.79"/>
<polygon fill="midnightblue" stroke="midnightblue" points="2121.22,-154.54 2112.79,-148.13 2115.38,-158.4 2121.22,-154.54"/>
</g>
<!-- Node38 -->
<g id="node38" class="node">
<title>Node38</title>
<g id="a_node38"><a xlink:title=" ">
<polygon fill="white" stroke="#bfbfbf" points="2151.08,-129 2151.08,-148 2293.08,-148 2293.08,-129 2151.08,-129"/>
<text text-anchor="middle" x="2222.08" y="-136" font-family="Helvetica,sans-Serif" font-size="10.00">agl&#45;shell&#45;client&#45;protocol.h</text>
</a>
</g>
</g>
<!-- Node36&#45;&gt;Node38 -->
<g id="edge69" class="edge">
<title>Node36&#45;&gt;Node38</title>
<path fill="none" stroke="midnightblue" d="M2159.79,-195.73C2171.34,-185.31 2190.83,-167.71 2204.94,-154.97"/>
<polygon fill="midnightblue" stroke="midnightblue" points="2207.45,-157.43 2212.52,-148.13 2202.75,-152.23 2207.45,-157.43"/>
</g>
<!-- Node39 -->
<g id="node39" class="node">
<title>Node39</title>
<g id="a_node39"><a xlink:title=" ">
<polygon fill="white" stroke="#bfbfbf" points="2311.58,-129 2311.58,-148 2456.58,-148 2456.58,-129 2311.58,-129"/>
<text text-anchor="middle" x="2384.08" y="-136" font-family="Helvetica,sans-Serif" font-size="10.00">xdg&#45;shell&#45;client&#45;protocol.h</text>
</a>
</g>
</g>
<!-- Node36&#45;&gt;Node39 -->
<g id="edge72" class="edge">
<title>Node36&#45;&gt;Node39</title>
<path fill="none" stroke="midnightblue" d="M2181.15,-195.87C2222.96,-184.25 2297.41,-163.58 2343.57,-150.75"/>
<polygon fill="midnightblue" stroke="midnightblue" points="2344.55,-154.11 2353.25,-148.06 2342.68,-147.37 2344.55,-154.11"/>
</g>
</g>
</svg>
