<?xml version="1.0" encoding="UTF-8" standalone="no"?>
<!DOCTYPE svg PUBLIC "-//W3C//DTD SVG 1.1//EN"
 "http://www.w3.org/Graphics/SVG/1.1/DTD/svg11.dtd">
<!-- Generated by graphviz version 5.0.0 (0)
 -->
<!-- Title: /mnt/raid10/stargate/ivi&#45;homescreen/shell/static_plugins/isolate/isolate.cc Pages: 1 -->
<svg width="2953pt" height="434pt"
 viewBox="0.00 0.00 2952.95 434.00" xmlns="http://www.w3.org/2000/svg" xmlns:xlink="http://www.w3.org/1999/xlink">
<g id="graph0" class="graph" transform="scale(1 1) rotate(0) translate(4 430)">
<title>/mnt/raid10/stargate/ivi&#45;homescreen/shell/static_plugins/isolate/isolate.cc</title>
<!-- Node1 -->
<g id="node1" class="node">
<title>Node1</title>
<g id="a_node1"><a xlink:title=" ">
<polygon fill="#999999" stroke="#666666" points="2023.95,-426 1912.95,-426 1912.95,-374 2023.95,-374 2023.95,-426"/>
<text text-anchor="start" x="1920.95" y="-414" font-family="Helvetica,sans-Serif" font-size="10.00">/mnt/raid10/stargate</text>
<text text-anchor="start" x="1920.95" y="-403" font-family="Helvetica,sans-Serif" font-size="10.00">/ivi&#45;homescreen/shell</text>
<text text-anchor="start" x="1920.95" y="-392" font-family="Helvetica,sans-Serif" font-size="10.00">/static_plugins/isolate</text>
<text text-anchor="middle" x="1968.45" y="-381" font-family="Helvetica,sans-Serif" font-size="10.00">/isolate.cc</text>
</a>
</g>
</g>
<!-- Node2 -->
<g id="node2" class="node">
<title>Node2</title>
<g id="a_node2"><a xlink:href="isolate_8h.html" target="_top" xlink:title=" ">
<polygon fill="white" stroke="#666666" points="2944.95,-85 2891.95,-85 2891.95,-66 2944.95,-66 2944.95,-85"/>
<text text-anchor="middle" x="2918.45" y="-73" font-family="Helvetica,sans-Serif" font-size="10.00">isolate.h</text>
</a>
</g>
</g>
<!-- Node1&#45;&gt;Node2 -->
<g id="edge1" class="edge">
<title>Node1&#45;&gt;Node2</title>
<path fill="none" stroke="#63b8ff" d="M2024.15,-396.89C2226.3,-388.5 2909.45,-353.51 2909.45,-263.5 2909.45,-263.5 2909.45,-263.5 2909.45,-201 2909.45,-163.4 2913.59,-119.57 2916.25,-95.23"/>
<polygon fill="#63b8ff" stroke="#63b8ff" points="2919.74,-95.57 2917.39,-85.24 2912.78,-94.78 2919.74,-95.57"/>
</g>
<!-- Node4 -->
<g id="node4" class="node">
<title>Node4</title>
<g id="a_node4"><a xlink:title=" ">
<polygon fill="#e0e0e0" stroke="#999999" points="2027.95,-338 1908.95,-338 1908.95,-308 2027.95,-308 2027.95,-338"/>
<text text-anchor="start" x="1916.95" y="-326" font-family="Helvetica,sans-Serif" font-size="10.00">flutter/standard_method</text>
<text text-anchor="middle" x="1968.45" y="-315" font-family="Helvetica,sans-Serif" font-size="10.00">_codec.h</text>
</a>
</g>
</g>
<!-- Node1&#45;&gt;Node4 -->
<g id="edge3" class="edge">
<title>Node1&#45;&gt;Node4</title>
<path fill="none" stroke="#63b8ff" d="M1968.45,-373.61C1968.45,-365.54 1968.45,-356.64 1968.45,-348.63"/>
<polygon fill="#63b8ff" stroke="#63b8ff" points="1971.95,-348.43 1968.45,-338.43 1964.95,-348.43 1971.95,-348.43"/>
</g>
<!-- Node5 -->
<g id="node5" class="node">
<title>Node5</title>
<g id="a_node5"><a xlink:href="engine_8h.html" target="_top" xlink:title=" ">
<polygon fill="white" stroke="#666666" points="1049.95,-332.5 996.95,-332.5 996.95,-313.5 1049.95,-313.5 1049.95,-332.5"/>
<text text-anchor="middle" x="1023.45" y="-320.5" font-family="Helvetica,sans-Serif" font-size="10.00">engine.h</text>
</a>
</g>
</g>
<!-- Node1&#45;&gt;Node5 -->
<g id="edge4" class="edge">
<title>Node1&#45;&gt;Node5</title>
<path fill="none" stroke="#63b8ff" d="M1912.87,-394.59C1738.6,-380.76 1205.9,-338.48 1060.47,-326.94"/>
<polygon fill="#63b8ff" stroke="#63b8ff" points="1060.54,-323.43 1050.29,-326.13 1059.98,-330.41 1060.54,-323.43"/>
</g>
<!-- Node3 -->
<g id="node3" class="node">
<title>Node3</title>
<g id="a_node3"><a xlink:title=" ">
<polygon fill="#e0e0e0" stroke="#999999" points="2193.95,-30 2072.95,-30 2072.95,0 2193.95,0 2193.95,-30"/>
<text text-anchor="start" x="2080.95" y="-18" font-family="Helvetica,sans-Serif" font-size="10.00">shell/platform/embedder</text>
<text text-anchor="middle" x="2133.45" y="-7" font-family="Helvetica,sans-Serif" font-size="10.00">/embedder.h</text>
</a>
</g>
</g>
<!-- Node2&#45;&gt;Node3 -->
<g id="edge2" class="edge">
<title>Node2&#45;&gt;Node3</title>
<path fill="none" stroke="#63b8ff" d="M2891.64,-68.39C2886.93,-67.48 2882.06,-66.63 2877.45,-66 2631.5,-32.4 2336.57,-21.08 2204.04,-17.52"/>
<polygon fill="#63b8ff" stroke="#63b8ff" points="2204.1,-14.02 2194.01,-17.26 2203.92,-21.02 2204.1,-14.02"/>
</g>
<!-- Node5&#45;&gt;Node3 -->
<g id="edge9" class="edge">
<title>Node5&#45;&gt;Node3</title>
<path fill="none" stroke="#63b8ff" d="M1050.17,-321.72C1276.45,-319.2 2863.45,-298.13 2863.45,-203 2863.45,-203 2863.45,-203 2863.45,-135 2863.45,-72.71 2800.99,-84.31 2741.45,-66 2642.82,-35.66 2342.04,-22.54 2204.02,-18"/>
<polygon fill="#63b8ff" stroke="#63b8ff" points="2204.08,-14.5 2193.97,-17.68 2203.85,-21.5 2204.08,-14.5"/>
</g>
<!-- Node6 -->
<g id="node6" class="node">
<title>Node6</title>
<g id="a_node6"><a xlink:title=" ">
<polygon fill="#e0e0e0" stroke="#999999" points="88.95,-272 29.95,-272 29.95,-253 88.95,-253 88.95,-272"/>
<text text-anchor="middle" x="59.45" y="-260" font-family="Helvetica,sans-Serif" font-size="10.00">functional</text>
</a>
</g>
</g>
<!-- Node5&#45;&gt;Node6 -->
<g id="edge5" class="edge">
<title>Node5&#45;&gt;Node6</title>
<path fill="none" stroke="#63b8ff" d="M996.62,-321.88C886,-321.09 454.71,-315.27 103.45,-272 102.15,-271.84 100.83,-271.66 99.49,-271.47"/>
<polygon fill="#63b8ff" stroke="#63b8ff" points="99.62,-267.95 89.19,-269.81 98.5,-274.86 99.62,-267.95"/>
</g>
<!-- Node7 -->
<g id="node7" class="node">
<title>Node7</title>
<g id="a_node7"><a xlink:title=" ">
<polygon fill="#e0e0e0" stroke="#999999" points="451.45,-24.5 391.45,-24.5 391.45,-5.5 451.45,-5.5 451.45,-24.5"/>
<text text-anchor="middle" x="421.45" y="-12.5" font-family="Helvetica,sans-Serif" font-size="10.00">EGL/egl.h</text>
</a>
</g>
</g>
<!-- Node5&#45;&gt;Node7 -->
<g id="edge6" class="edge">
<title>Node5&#45;&gt;Node7</title>
<path fill="none" stroke="#63b8ff" d="M996.75,-321.55C841.4,-318.8 59.64,-303.43 20.45,-272 -4.36,-252.1 1.45,-234.81 1.45,-203 1.45,-203 1.45,-203 1.45,-135 1.45,-56.6 275.78,-27.2 381.02,-18.8"/>
<polygon fill="#63b8ff" stroke="#63b8ff" points="381.55,-22.27 391.25,-18.01 381.01,-15.29 381.55,-22.27"/>
</g>
<!-- Node8 -->
<g id="node8" class="node">
<title>Node8</title>
<g id="a_node8"><a xlink:title=" ">
<polygon fill="#e0e0e0" stroke="#999999" points="487.45,-272 415.45,-272 415.45,-253 487.45,-253 487.45,-272"/>
<text text-anchor="middle" x="451.45" y="-260" font-family="Helvetica,sans-Serif" font-size="10.00">GLES2/gl2.h</text>
</a>
</g>
</g>
<!-- Node5&#45;&gt;Node8 -->
<g id="edge7" class="edge">
<title>Node5&#45;&gt;Node8</title>
<path fill="none" stroke="#63b8ff" d="M996.75,-320.34C920.49,-315.41 694.98,-299.56 497.72,-272.06"/>
<polygon fill="#63b8ff" stroke="#63b8ff" points="498.15,-268.58 487.76,-270.65 497.17,-275.51 498.15,-268.58"/>
</g>
<!-- Node9 -->
<g id="node9" class="node">
<title>Node9</title>
<g id="a_node9"><a xlink:title=" ">
<polygon fill="#e0e0e0" stroke="#999999" points="630.95,-272 505.95,-272 505.95,-253 630.95,-253 630.95,-272"/>
<text text-anchor="middle" x="568.45" y="-260" font-family="Helvetica,sans-Serif" font-size="10.00">flutter/encodable_value.h</text>
</a>
</g>
</g>
<!-- Node5&#45;&gt;Node9 -->
<g id="edge8" class="edge">
<title>Node5&#45;&gt;Node9</title>
<path fill="none" stroke="#63b8ff" d="M996.69,-318.56C928.11,-309.74 744.25,-286.1 641.13,-272.84"/>
<polygon fill="#63b8ff" stroke="#63b8ff" points="641.47,-269.36 631.1,-271.56 640.58,-276.3 641.47,-269.36"/>
</g>
<!-- Node10 -->
<g id="node10" class="node">
<title>Node10</title>
<g id="a_node10"><a xlink:title=" ">
<polygon fill="#e0e0e0" stroke="#999999" points="711.45,-272 649.45,-272 649.45,-253 711.45,-253 711.45,-272"/>
<text text-anchor="middle" x="680.45" y="-260" font-family="Helvetica,sans-Serif" font-size="10.00">filesystem</text>
</a>
</g>
</g>
<!-- Node5&#45;&gt;Node10 -->
<g id="edge10" class="edge">
<title>Node5&#45;&gt;Node10</title>
<path fill="none" stroke="#63b8ff" d="M996.71,-317.7C944.5,-309.27 825.39,-289.82 725.45,-272 724.36,-271.8 723.25,-271.61 722.13,-271.4"/>
<polygon fill="#63b8ff" stroke="#63b8ff" points="722.38,-267.89 711.91,-269.53 721.11,-274.78 722.38,-267.89"/>
</g>
<!-- Node11 -->
<g id="node11" class="node">
<title>Node11</title>
<g id="a_node11"><a xlink:title=" ">
<polygon fill="#e0e0e0" stroke="#999999" points="2796.95,-145.5 2761.95,-145.5 2761.95,-126.5 2796.95,-126.5 2796.95,-145.5"/>
<text text-anchor="middle" x="2779.45" y="-133.5" font-family="Helvetica,sans-Serif" font-size="10.00">map</text>
</a>
</g>
</g>
<!-- Node5&#45;&gt;Node11 -->
<g id="edge11" class="edge">
<title>Node5&#45;&gt;Node11</title>
<path fill="none" stroke="#63b8ff" d="M1050.09,-320.23C1179.34,-311.55 1753.9,-271.59 2222.45,-217 2314.35,-206.29 2336.68,-198.76 2428.45,-187 2572.6,-168.53 2614.71,-194.24 2753.45,-151 2754.51,-150.67 2755.56,-150.3 2756.62,-149.89"/>
<polygon fill="#63b8ff" stroke="#63b8ff" points="2758.27,-152.99 2765.85,-145.59 2755.31,-146.64 2758.27,-152.99"/>
</g>
<!-- Node12 -->
<g id="node12" class="node">
<title>Node12</title>
<g id="a_node12"><a xlink:title=" ">
<polygon fill="#e0e0e0" stroke="#999999" points="1069.45,-145.5 1017.45,-145.5 1017.45,-126.5 1069.45,-126.5 1069.45,-145.5"/>
<text text-anchor="middle" x="1043.45" y="-133.5" font-family="Helvetica,sans-Serif" font-size="10.00">memory</text>
</a>
</g>
</g>
<!-- Node5&#45;&gt;Node12 -->
<g id="edge12" class="edge">
<title>Node5&#45;&gt;Node12</title>
<path fill="none" stroke="#63b8ff" d="M996.69,-321.64C946.08,-319.68 843.08,-308.89 862.45,-253 888.38,-178.21 934.74,-179.85 1008.45,-151 1009.82,-150.46 1011.23,-149.91 1012.64,-149.35"/>
<polygon fill="#63b8ff" stroke="#63b8ff" points="1014,-152.58 1022,-145.64 1011.42,-146.07 1014,-152.58"/>
</g>
<!-- Node13 -->
<g id="node13" class="node">
<title>Node13</title>
<g id="a_node13"><a xlink:title=" ">
<polygon fill="#e0e0e0" stroke="#999999" points="915.45,-272 871.45,-272 871.45,-253 915.45,-253 915.45,-272"/>
<text text-anchor="middle" x="893.45" y="-260" font-family="Helvetica,sans-Serif" font-size="10.00">mutex</text>
</a>
</g>
</g>
<!-- Node5&#45;&gt;Node13 -->
<g id="edge13" class="edge">
<title>Node5&#45;&gt;Node13</title>
<path fill="none" stroke="#63b8ff" d="M1004.55,-313.49C982.79,-303.7 946.83,-287.52 921.74,-276.23"/>
<polygon fill="#63b8ff" stroke="#63b8ff" points="922.93,-272.93 912.38,-272.02 920.06,-279.31 922.93,-272.93"/>
</g>
<!-- Node14 -->
<g id="node14" class="node">
<title>Node14</title>
<g id="a_node14"><a xlink:title=" ">
<polygon fill="#e0e0e0" stroke="#999999" points="976.95,-272 933.95,-272 933.95,-253 976.95,-253 976.95,-272"/>
<text text-anchor="middle" x="955.45" y="-260" font-family="Helvetica,sans-Serif" font-size="10.00">queue</text>
</a>
</g>
</g>
<!-- Node5&#45;&gt;Node14 -->
<g id="edge14" class="edge">
<title>Node5&#45;&gt;Node14</title>
<path fill="none" stroke="#63b8ff" d="M1013.42,-313.37C1002.87,-304.3 986.07,-289.84 973.26,-278.82"/>
<polygon fill="#63b8ff" stroke="#63b8ff" points="975.39,-276.04 965.53,-272.17 970.83,-281.34 975.39,-276.04"/>
</g>
<!-- Node15 -->
<g id="node15" class="node">
<title>Node15</title>
<g id="a_node15"><a xlink:title=" ">
<polygon fill="#e0e0e0" stroke="#999999" points="1247.95,-145.5 1206.95,-145.5 1206.95,-126.5 1247.95,-126.5 1247.95,-145.5"/>
<text text-anchor="middle" x="1227.45" y="-133.5" font-family="Helvetica,sans-Serif" font-size="10.00">string</text>
</a>
</g>
</g>
<!-- Node5&#45;&gt;Node15 -->
<g id="edge15" class="edge">
<title>Node5&#45;&gt;Node15</title>
<path fill="none" stroke="#63b8ff" d="M1050.36,-322.69C1112.08,-322.59 1262.38,-312.2 1312.45,-217 1318.66,-205.2 1319.07,-198.57 1312.45,-187 1310.71,-183.95 1276.3,-164.28 1251.8,-150.54"/>
<polygon fill="#63b8ff" stroke="#63b8ff" points="1253.42,-147.44 1242.99,-145.61 1250.01,-153.55 1253.42,-147.44"/>
</g>
<!-- Node16 -->
<g id="node16" class="node">
<title>Node16</title>
<g id="a_node16"><a xlink:title=" ">
<polygon fill="#e0e0e0" stroke="#999999" points="597.45,-145.5 553.45,-145.5 553.45,-126.5 597.45,-126.5 597.45,-145.5"/>
<text text-anchor="middle" x="575.45" y="-133.5" font-family="Helvetica,sans-Serif" font-size="10.00">vector</text>
</a>
</g>
</g>
<!-- Node5&#45;&gt;Node16 -->
<g id="edge16" class="edge">
<title>Node5&#45;&gt;Node16</title>
<path fill="none" stroke="#63b8ff" d="M996.89,-316.64C939,-304.31 798.07,-270.84 690.45,-217 653.59,-198.56 615.12,-169.46 593.34,-151.91"/>
<polygon fill="#63b8ff" stroke="#63b8ff" points="595.55,-149.2 585.59,-145.58 591.12,-154.62 595.55,-149.2"/>
</g>
<!-- Node17 -->
<g id="node17" class="node">
<title>Node17</title>
<g id="a_node17"><a xlink:href="backend_8h.html" target="_top" xlink:title=" ">
<polygon fill="white" stroke="#666666" points="998.95,-145.5 897.95,-145.5 897.95,-126.5 998.95,-126.5 998.95,-145.5"/>
<text text-anchor="middle" x="948.45" y="-133.5" font-family="Helvetica,sans-Serif" font-size="10.00">backend/backend.h</text>
</a>
</g>
</g>
<!-- Node5&#45;&gt;Node17 -->
<g id="edge17" class="edge">
<title>Node5&#45;&gt;Node17</title>
<path fill="none" stroke="#63b8ff" d="M1027.85,-313.37C1038.6,-300.58 1060.62,-275.69 1051.45,-253 1033.43,-208.38 989.12,-171.38 964.67,-151.89"/>
<polygon fill="#63b8ff" stroke="#63b8ff" points="966.65,-149 956.64,-145.52 962.3,-154.48 966.65,-149"/>
</g>
<!-- Node18 -->
<g id="node18" class="node">
<title>Node18</title>
<g id="a_node18"><a xlink:href="constants_8h.html" target="_top" xlink:title=" ">
<polygon fill="white" stroke="#666666" points="982.45,-85 914.45,-85 914.45,-66 982.45,-66 982.45,-85"/>
<text text-anchor="middle" x="948.45" y="-73" font-family="Helvetica,sans-Serif" font-size="10.00">constants.h</text>
</a>
</g>
</g>
<!-- Node5&#45;&gt;Node18 -->
<g id="edge24" class="edge">
<title>Node5&#45;&gt;Node18</title>
<path fill="none" stroke="#63b8ff" d="M996.88,-321.84C856.38,-320.35 202.61,-305.11 97.45,-151 89.94,-139.99 88.27,-130.67 97.45,-121 125.45,-91.5 733.24,-79.85 904.12,-77.15"/>
<polygon fill="#63b8ff" stroke="#63b8ff" points="904.32,-80.64 914.27,-76.99 904.22,-73.64 904.32,-80.64"/>
</g>
<!-- Node20 -->
<g id="node20" class="node">
<title>Node20</title>
<g id="a_node20"><a xlink:href="logging_8h.html" target="_top" xlink:title=" ">
<polygon fill="white" stroke="#666666" points="1051.45,-272 995.45,-272 995.45,-253 1051.45,-253 1051.45,-272"/>
<text text-anchor="middle" x="1023.45" y="-260" font-family="Helvetica,sans-Serif" font-size="10.00">logging.h</text>
</a>
</g>
</g>
<!-- Node5&#45;&gt;Node20 -->
<g id="edge25" class="edge">
<title>Node5&#45;&gt;Node20</title>
<path fill="none" stroke="#63b8ff" d="M1023.45,-313.37C1023.45,-305.25 1023.45,-292.81 1023.45,-282.39"/>
<polygon fill="#63b8ff" stroke="#63b8ff" points="1026.95,-282.17 1023.45,-272.17 1019.95,-282.17 1026.95,-282.17"/>
</g>
<!-- Node26 -->
<g id="node26" class="node">
<title>Node26</title>
<g id="a_node26"><a xlink:href="platform__channel_8h.html" target="_top" xlink:title=" ">
<polygon fill="white" stroke="#666666" points="2535.95,-211.5 2436.95,-211.5 2436.95,-192.5 2535.95,-192.5 2535.95,-211.5"/>
<text text-anchor="middle" x="2486.45" y="-199.5" font-family="Helvetica,sans-Serif" font-size="10.00">platform_channel.h</text>
</a>
</g>
</g>
<!-- Node5&#45;&gt;Node26 -->
<g id="edge32" class="edge">
<title>Node5&#45;&gt;Node26</title>
<path fill="none" stroke="#63b8ff" d="M1050.21,-321.68C1226.6,-319.45 2219.43,-305.49 2349.45,-272 2393.32,-260.7 2439.38,-233.95 2465.35,-217.27"/>
<polygon fill="#63b8ff" stroke="#63b8ff" points="2467.52,-220.04 2473.97,-211.63 2463.68,-214.18 2467.52,-220.04"/>
</g>
<!-- Node27 -->
<g id="node27" class="node">
<title>Node27</title>
<g id="a_node27"><a xlink:href="key__event_8h.html" target="_top" xlink:title=" ">
<polygon fill="white" stroke="#666666" points="1502.45,-217 1400.45,-217 1400.45,-187 1502.45,-187 1502.45,-217"/>
<text text-anchor="start" x="1408.45" y="-205" font-family="Helvetica,sans-Serif" font-size="10.00">static_plugins/key</text>
<text text-anchor="middle" x="1451.45" y="-194" font-family="Helvetica,sans-Serif" font-size="10.00">_event/key_event.h</text>
</a>
</g>
</g>
<!-- Node5&#45;&gt;Node27 -->
<g id="edge36" class="edge">
<title>Node5&#45;&gt;Node27</title>
<path fill="none" stroke="#63b8ff" d="M1050.29,-321.6C1106.8,-319.97 1241.37,-311.84 1345.45,-272 1375.73,-260.41 1406.35,-239.24 1426.84,-223.39"/>
<polygon fill="#63b8ff" stroke="#63b8ff" points="1429.02,-226.12 1434.7,-217.18 1424.68,-220.63 1429.02,-226.12"/>
</g>
<!-- Node33 -->
<g id="node33" class="node">
<title>Node33</title>
<g id="a_node33"><a xlink:href="text__input_8h.html" target="_top" xlink:title=" ">
<polygon fill="white" stroke="#666666" points="2085.95,-217 1988.95,-217 1988.95,-187 2085.95,-187 2085.95,-217"/>
<text text-anchor="start" x="1996.95" y="-205" font-family="Helvetica,sans-Serif" font-size="10.00">static_plugins/text</text>
<text text-anchor="middle" x="2037.45" y="-194" font-family="Helvetica,sans-Serif" font-size="10.00">_input/text_input.h</text>
</a>
</g>
</g>
<!-- Node5&#45;&gt;Node33 -->
<g id="edge48" class="edge">
<title>Node5&#45;&gt;Node33</title>
<path fill="none" stroke="#63b8ff" d="M1050.05,-318.88C1184.14,-303.14 1787.03,-232.39 1978.73,-209.89"/>
<polygon fill="#63b8ff" stroke="#63b8ff" points="1979.37,-213.34 1988.89,-208.7 1978.55,-206.39 1979.37,-213.34"/>
</g>
<!-- Node38 -->
<g id="node38" class="node">
<title>Node38</title>
<g id="a_node38"><a xlink:href="flutter__view_8h.html" target="_top" xlink:title=" ">
<polygon fill="white" stroke="#666666" points="1223.45,-272 1125.45,-272 1125.45,-253 1223.45,-253 1223.45,-272"/>
<text text-anchor="middle" x="1174.45" y="-260" font-family="Helvetica,sans-Serif" font-size="10.00">view/flutter_view.h</text>
</a>
</g>
</g>
<!-- Node5&#45;&gt;Node38 -->
<g id="edge62" class="edge">
<title>Node5&#45;&gt;Node38</title>
<path fill="none" stroke="#63b8ff" d="M1045.41,-313.49C1071.13,-303.53 1113.93,-286.95 1143.13,-275.63"/>
<polygon fill="#63b8ff" stroke="#63b8ff" points="1144.41,-278.89 1152.47,-272.02 1141.88,-272.37 1144.41,-278.89"/>
</g>
<!-- Node17&#45;&gt;Node3 -->
<g id="edge18" class="edge">
<title>Node17&#45;&gt;Node3</title>
<path fill="none" stroke="#63b8ff" d="M981.3,-126.49C990.08,-124.44 999.58,-122.44 1008.45,-121 1403.99,-56.7 1884.64,-28.16 2062.69,-19.25"/>
<polygon fill="#63b8ff" stroke="#63b8ff" points="2062.9,-22.75 2072.72,-18.76 2062.56,-15.75 2062.9,-22.75"/>
</g>
<!-- Node17&#45;&gt;Node5 -->
<g id="edge23" class="edge">
<title>Node17&#45;&gt;Node5</title>
<path fill="none" stroke="#63b8ff" d="M966.93,-145.52C995.84,-162.41 1049.22,-202.9 1069.45,-253 1077.26,-272.32 1062.45,-293.24 1047.38,-306.92"/>
<polygon fill="#63b8ff" stroke="#63b8ff" points="1045.07,-304.29 1039.59,-313.37 1049.53,-309.68 1045.07,-304.29"/>
</g>
<!-- Node17&#45;&gt;Node18 -->
<g id="edge19" class="edge">
<title>Node17&#45;&gt;Node18</title>
<path fill="none" stroke="#63b8ff" d="M948.45,-126.37C948.45,-118.25 948.45,-105.81 948.45,-95.39"/>
<polygon fill="#63b8ff" stroke="#63b8ff" points="951.95,-95.17 948.45,-85.17 944.95,-95.17 951.95,-95.17"/>
</g>
<!-- Node18&#45;&gt;Node3 -->
<g id="edge21" class="edge">
<title>Node18&#45;&gt;Node3</title>
<path fill="none" stroke="#63b8ff" d="M982.64,-72.81C1144.84,-64.8 1838.26,-30.57 2062.91,-19.48"/>
<polygon fill="#63b8ff" stroke="#63b8ff" points="2063.12,-22.98 2072.93,-18.99 2062.77,-15.99 2063.12,-22.98"/>
</g>
<!-- Node18&#45;&gt;Node7 -->
<g id="edge20" class="edge">
<title>Node18&#45;&gt;Node7</title>
<path fill="none" stroke="#63b8ff" d="M914.28,-70.71C820.88,-60.34 561.62,-31.56 461.56,-20.45"/>
<polygon fill="#63b8ff" stroke="#63b8ff" points="461.88,-16.97 451.55,-19.34 461.11,-23.92 461.88,-16.97"/>
</g>
<!-- Node19 -->
<g id="node19" class="node">
<title>Node19</title>
<g id="a_node19"><a xlink:title=" ">
<polygon fill="#e0e0e0" stroke="#999999" points="967.45,-24.5 929.45,-24.5 929.45,-5.5 967.45,-5.5 967.45,-24.5"/>
<text text-anchor="middle" x="948.45" y="-12.5" font-family="Helvetica,sans-Serif" font-size="10.00">array</text>
</a>
</g>
</g>
<!-- Node18&#45;&gt;Node19 -->
<g id="edge22" class="edge">
<title>Node18&#45;&gt;Node19</title>
<path fill="none" stroke="#63b8ff" d="M948.45,-65.87C948.45,-57.75 948.45,-45.31 948.45,-34.89"/>
<polygon fill="#63b8ff" stroke="#63b8ff" points="951.95,-34.67 948.45,-24.67 944.95,-34.67 951.95,-34.67"/>
</g>
<!-- Node21 -->
<g id="node21" class="node">
<title>Node21</title>
<g id="a_node21"><a xlink:title=" ">
<polygon fill="#e0e0e0" stroke="#999999" points="975.45,-211.5 923.45,-211.5 923.45,-192.5 975.45,-192.5 975.45,-211.5"/>
<text text-anchor="middle" x="949.45" y="-199.5" font-family="Helvetica,sans-Serif" font-size="10.00">sstream</text>
</a>
</g>
</g>
<!-- Node20&#45;&gt;Node21 -->
<g id="edge26" class="edge">
<title>Node20&#45;&gt;Node21</title>
<path fill="none" stroke="#63b8ff" d="M1012.53,-252.87C1000.95,-243.71 982.42,-229.06 968.43,-218.01"/>
<polygon fill="#63b8ff" stroke="#63b8ff" points="970.43,-215.12 960.42,-211.67 966.09,-220.61 970.43,-215.12"/>
</g>
<!-- Node22 -->
<g id="node22" class="node">
<title>Node22</title>
<g id="a_node22"><a xlink:href="dlt_8h.html" target="_top" xlink:title=" ">
<polygon fill="white" stroke="#666666" points="748.95,-211.5 699.95,-211.5 699.95,-192.5 748.95,-192.5 748.95,-211.5"/>
<text text-anchor="middle" x="724.45" y="-199.5" font-family="Helvetica,sans-Serif" font-size="10.00">dlt/dlt.h</text>
</a>
</g>
</g>
<!-- Node20&#45;&gt;Node22 -->
<g id="edge27" class="edge">
<title>Node20&#45;&gt;Node22</title>
<path fill="none" stroke="#63b8ff" d="M995.21,-254.8C992.26,-254.16 989.3,-253.55 986.45,-253 885.73,-233.5 857.23,-244.72 758.45,-217 756.52,-216.46 754.54,-215.84 752.57,-215.16"/>
<polygon fill="#63b8ff" stroke="#63b8ff" points="753.47,-211.76 742.88,-211.51 751,-218.31 753.47,-211.76"/>
</g>
<!-- Node25 -->
<g id="node25" class="node">
<title>Node25</title>
<g id="a_node25"><a xlink:title=" ">
<polygon fill="#e0e0e0" stroke="#999999" points="1188.95,-145.5 1087.95,-145.5 1087.95,-126.5 1188.95,-126.5 1188.95,-145.5"/>
<text text-anchor="middle" x="1138.45" y="-133.5" font-family="Helvetica,sans-Serif" font-size="10.00">flutter/fml/macros.h</text>
</a>
</g>
</g>
<!-- Node20&#45;&gt;Node25 -->
<g id="edge31" class="edge">
<title>Node20&#45;&gt;Node25</title>
<path fill="none" stroke="#63b8ff" d="M1031.36,-252.94C1050.4,-232.33 1099.04,-179.67 1123.68,-153"/>
<polygon fill="#63b8ff" stroke="#63b8ff" points="1126.28,-155.34 1130.49,-145.62 1121.14,-150.59 1126.28,-155.34"/>
</g>
<!-- Node23 -->
<g id="node23" class="node">
<title>Node23</title>
<g id="a_node23"><a xlink:href="libdlt_8h.html" target="_top" xlink:title=" ">
<polygon fill="white" stroke="#666666" points="165.95,-145.5 106.95,-145.5 106.95,-126.5 165.95,-126.5 165.95,-145.5"/>
<text text-anchor="middle" x="136.45" y="-133.5" font-family="Helvetica,sans-Serif" font-size="10.00">dlt/libdlt.h</text>
</a>
</g>
</g>
<!-- Node22&#45;&gt;Node23 -->
<g id="edge28" class="edge">
<title>Node22&#45;&gt;Node23</title>
<path fill="none" stroke="#63b8ff" d="M699.78,-200.63C622.41,-199.05 377.98,-191.01 180.45,-151 176.97,-150.29 173.37,-149.41 169.81,-148.44"/>
<polygon fill="#63b8ff" stroke="#63b8ff" points="170.54,-145 159.95,-145.51 168.54,-151.71 170.54,-145"/>
</g>
<!-- Node22&#45;&gt;Node25 -->
<g id="edge30" class="edge">
<title>Node22&#45;&gt;Node25</title>
<path fill="none" stroke="#63b8ff" d="M742.49,-192.48C747.55,-190.39 753.14,-188.37 758.45,-187 897.08,-151.41 937.41,-175.3 1078.45,-151 1083.86,-150.07 1089.5,-148.95 1095.07,-147.76"/>
<polygon fill="#63b8ff" stroke="#63b8ff" points="1095.96,-151.14 1104.96,-145.55 1094.43,-144.31 1095.96,-151.14"/>
</g>
<!-- Node24 -->
<g id="node24" class="node">
<title>Node24</title>
<g id="a_node24"><a xlink:title=" ">
<polygon fill="#e0e0e0" stroke="#999999" points="159.45,-85 113.45,-85 113.45,-66 159.45,-66 159.45,-85"/>
<text text-anchor="middle" x="136.45" y="-73" font-family="Helvetica,sans-Serif" font-size="10.00">cstdint</text>
</a>
</g>
</g>
<!-- Node23&#45;&gt;Node24 -->
<g id="edge29" class="edge">
<title>Node23&#45;&gt;Node24</title>
<path fill="none" stroke="#63b8ff" d="M136.45,-126.37C136.45,-118.25 136.45,-105.81 136.45,-95.39"/>
<polygon fill="#63b8ff" stroke="#63b8ff" points="139.95,-95.17 136.45,-85.17 132.95,-95.17 139.95,-95.17"/>
</g>
<!-- Node26&#45;&gt;Node3 -->
<g id="edge35" class="edge">
<title>Node26&#45;&gt;Node3</title>
<path fill="none" stroke="#63b8ff" d="M2536.21,-200.77C2617.28,-199.21 2772.27,-190.94 2806.45,-151 2815.12,-140.87 2815.12,-131.13 2806.45,-121 2729.42,-31.01 2360.75,-17.56 2204.11,-15.97"/>
<polygon fill="#63b8ff" stroke="#63b8ff" points="2204.14,-12.47 2194.11,-15.88 2204.07,-19.47 2204.14,-12.47"/>
</g>
<!-- Node26&#45;&gt;Node11 -->
<g id="edge33" class="edge">
<title>Node26&#45;&gt;Node11</title>
<path fill="none" stroke="#63b8ff" d="M2536.36,-196.31C2590.92,-190.11 2680.3,-176.84 2753.45,-151 2754.34,-150.69 2755.24,-150.35 2756.13,-149.98"/>
<polygon fill="#63b8ff" stroke="#63b8ff" points="2757.98,-152.98 2765.51,-145.52 2754.98,-146.66 2757.98,-152.98"/>
</g>
<!-- Node26&#45;&gt;Node15 -->
<g id="edge34" class="edge">
<title>Node26&#45;&gt;Node15</title>
<path fill="none" stroke="#63b8ff" d="M2436.88,-199.14C2218.78,-190.94 1352.87,-158.07 1295.45,-151 1283.18,-149.49 1269.82,-146.94 1258.22,-144.43"/>
<polygon fill="#63b8ff" stroke="#63b8ff" points="1258.67,-140.94 1248.14,-142.16 1257.13,-147.77 1258.67,-140.94"/>
</g>
<!-- Node27&#45;&gt;Node3 -->
<g id="edge45" class="edge">
<title>Node27&#45;&gt;Node3</title>
<path fill="none" stroke="#63b8ff" d="M1502.55,-199.53C1561.35,-196.18 1659.66,-185.39 1736.45,-151 1756.09,-142.21 1755.33,-130.87 1774.45,-121 1868.29,-72.58 1987.75,-43.31 2062.43,-28.39"/>
<polygon fill="#63b8ff" stroke="#63b8ff" points="2063.53,-31.75 2072.67,-26.38 2062.18,-24.88 2063.53,-31.75"/>
</g>
<!-- Node27&#45;&gt;Node11 -->
<g id="edge37" class="edge">
<title>Node27&#45;&gt;Node11</title>
<path fill="none" stroke="#63b8ff" d="M1502.57,-199.68C1736.02,-193.59 2692.17,-167.71 2753.45,-151 2754.54,-150.7 2755.63,-150.35 2756.72,-149.96"/>
<polygon fill="#63b8ff" stroke="#63b8ff" points="2758.54,-152.98 2766.18,-145.64 2755.63,-146.62 2758.54,-152.98"/>
</g>
<!-- Node27&#45;&gt;Node12 -->
<g id="edge38" class="edge">
<title>Node27&#45;&gt;Node12</title>
<path fill="none" stroke="#63b8ff" d="M1400.26,-195.64C1312.97,-186.25 1139.01,-166.35 1079.45,-151 1077.15,-150.41 1074.8,-149.71 1072.45,-148.95"/>
<polygon fill="#63b8ff" stroke="#63b8ff" points="1073.58,-145.63 1062.98,-145.56 1071.22,-152.23 1073.58,-145.63"/>
</g>
<!-- Node27&#45;&gt;Node15 -->
<g id="edge39" class="edge">
<title>Node27&#45;&gt;Node15</title>
<path fill="none" stroke="#63b8ff" d="M1400.42,-189.29C1362.11,-180.06 1308.53,-166.25 1262.45,-151 1260.79,-150.45 1259.09,-149.86 1257.38,-149.25"/>
<polygon fill="#63b8ff" stroke="#63b8ff" points="1258.25,-145.83 1247.66,-145.57 1255.77,-152.38 1258.25,-145.83"/>
</g>
<!-- Node27&#45;&gt;Node18 -->
<g id="edge47" class="edge">
<title>Node27&#45;&gt;Node18</title>
<path fill="none" stroke="#63b8ff" d="M1400.43,-189.59C1369.03,-181.38 1328.59,-168.64 1295.45,-151 1276.46,-140.89 1277.22,-129.49 1257.45,-121 1168.95,-82.99 1054.41,-76.31 992.64,-75.78"/>
<polygon fill="#63b8ff" stroke="#63b8ff" points="992.47,-72.27 982.46,-75.74 992.45,-79.27 992.47,-72.27"/>
</g>
<!-- Node27&#45;&gt;Node25 -->
<g id="edge43" class="edge">
<title>Node27&#45;&gt;Node25</title>
<path fill="none" stroke="#63b8ff" d="M1399.98,-191.36C1348.79,-181.65 1268.05,-165.99 1198.45,-151 1193.8,-150 1188.95,-148.92 1184.11,-147.82"/>
<polygon fill="#63b8ff" stroke="#63b8ff" points="1184.79,-144.39 1174.26,-145.57 1183.23,-151.21 1184.79,-144.39"/>
</g>
<!-- Node28 -->
<g id="node28" class="node">
<title>Node28</title>
<g id="a_node28"><a xlink:title=" ">
<polygon fill="#e0e0e0" stroke="#999999" points="1545.95,-151 1432.95,-151 1432.95,-121 1545.95,-121 1545.95,-151"/>
<text text-anchor="start" x="1440.95" y="-139" font-family="Helvetica,sans-Serif" font-size="10.00">flutter/basic_message</text>
<text text-anchor="middle" x="1489.45" y="-128" font-family="Helvetica,sans-Serif" font-size="10.00">_channel.h</text>
</a>
</g>
</g>
<!-- Node27&#45;&gt;Node28 -->
<g id="edge40" class="edge">
<title>Node27&#45;&gt;Node28</title>
<path fill="none" stroke="#63b8ff" d="M1459.89,-186.8C1464.56,-178.92 1470.49,-168.95 1475.8,-159.99"/>
<polygon fill="#63b8ff" stroke="#63b8ff" points="1478.95,-161.55 1481.04,-151.16 1472.93,-157.98 1478.95,-161.55"/>
</g>
<!-- Node29 -->
<g id="node29" class="node">
<title>Node29</title>
<g id="a_node29"><a xlink:title=" ">
<polygon fill="#e0e0e0" stroke="#999999" points="1915.45,-145.5 1783.45,-145.5 1783.45,-126.5 1915.45,-126.5 1915.45,-145.5"/>
<text text-anchor="middle" x="1849.45" y="-133.5" font-family="Helvetica,sans-Serif" font-size="10.00">flutter/binary_messenger.h</text>
</a>
</g>
</g>
<!-- Node27&#45;&gt;Node29 -->
<g id="edge41" class="edge">
<title>Node27&#45;&gt;Node29</title>
<path fill="none" stroke="#63b8ff" d="M1502.72,-193.22C1565.61,-183.61 1675.45,-166.61 1769.45,-151 1776.63,-149.81 1784.15,-148.53 1791.6,-147.25"/>
<polygon fill="#63b8ff" stroke="#63b8ff" points="1792.42,-150.66 1801.67,-145.5 1791.22,-143.76 1792.42,-150.66"/>
</g>
<!-- Node30 -->
<g id="node30" class="node">
<title>Node30</title>
<g id="a_node30"><a xlink:title=" ">
<polygon fill="#e0e0e0" stroke="#999999" points="1726.95,-151 1563.95,-151 1563.95,-121 1726.95,-121 1726.95,-151"/>
<text text-anchor="start" x="1571.95" y="-139" font-family="Helvetica,sans-Serif" font-size="10.00">flutter/shell/platform</text>
<text text-anchor="middle" x="1645.45" y="-128" font-family="Helvetica,sans-Serif" font-size="10.00">/common/json_message_codec.h</text>
</a>
</g>
</g>
<!-- Node27&#45;&gt;Node30 -->
<g id="edge42" class="edge">
<title>Node27&#45;&gt;Node30</title>
<path fill="none" stroke="#63b8ff" d="M1494.03,-186.95C1523.21,-177.33 1562.12,-164.49 1593.19,-154.24"/>
<polygon fill="#63b8ff" stroke="#63b8ff" points="1594.58,-157.47 1602.98,-151.01 1592.39,-150.82 1594.58,-157.47"/>
</g>
<!-- Node31 -->
<g id="node31" class="node">
<title>Node31</title>
<g id="a_node31"><a xlink:title=" ">
<polygon fill="#e0e0e0" stroke="#999999" points="1414.45,-145.5 1304.45,-145.5 1304.45,-126.5 1414.45,-126.5 1414.45,-145.5"/>
<text text-anchor="middle" x="1359.45" y="-133.5" font-family="Helvetica,sans-Serif" font-size="10.00">rapidjson/document.h</text>
</a>
</g>
</g>
<!-- Node27&#45;&gt;Node31 -->
<g id="edge44" class="edge">
<title>Node27&#45;&gt;Node31</title>
<path fill="none" stroke="#63b8ff" d="M1431.04,-186.8C1415.9,-176.27 1395.35,-161.97 1380.15,-151.4"/>
<polygon fill="#63b8ff" stroke="#63b8ff" points="1382.11,-148.5 1371.9,-145.66 1378.11,-154.24 1382.11,-148.5"/>
</g>
<!-- Node32 -->
<g id="node32" class="node">
<title>Node32</title>
<g id="a_node32"><a xlink:title=" ">
<polygon fill="#e0e0e0" stroke="#999999" points="2067.45,-145.5 1933.45,-145.5 1933.45,-126.5 2067.45,-126.5 2067.45,-145.5"/>
<text text-anchor="middle" x="2000.45" y="-133.5" font-family="Helvetica,sans-Serif" font-size="10.00">xkbcommon/xkbcommon.h</text>
</a>
</g>
</g>
<!-- Node27&#45;&gt;Node32 -->
<g id="edge46" class="edge">
<title>Node27&#45;&gt;Node32</title>
<path fill="none" stroke="#63b8ff" d="M1502.71,-196.88C1589.69,-189.6 1771.63,-173.12 1924.45,-151 1931.84,-149.93 1939.6,-148.67 1947.23,-147.34"/>
<polygon fill="#63b8ff" stroke="#63b8ff" points="1947.91,-150.77 1957.14,-145.57 1946.68,-143.88 1947.91,-150.77"/>
</g>
<!-- Node33&#45;&gt;Node3 -->
<g id="edge59" class="edge">
<title>Node33&#45;&gt;Node3</title>
<path fill="none" stroke="#63b8ff" d="M2058.2,-186.99C2070.08,-177.98 2084.38,-165.31 2093.45,-151 2115.52,-116.19 2125.87,-68.67 2130.37,-40.28"/>
<polygon fill="#63b8ff" stroke="#63b8ff" points="2133.88,-40.46 2131.86,-30.06 2126.95,-39.45 2133.88,-40.46"/>
</g>
<!-- Node33&#45;&gt;Node11 -->
<g id="edge49" class="edge">
<title>Node33&#45;&gt;Node11</title>
<path fill="none" stroke="#63b8ff" d="M2086.19,-193.37C2102.46,-191.04 2120.71,-188.66 2137.45,-187 2273.91,-173.48 2621.53,-188.39 2753.45,-151 2754.54,-150.69 2755.63,-150.33 2756.72,-149.94"/>
<polygon fill="#63b8ff" stroke="#63b8ff" points="2758.55,-152.95 2766.17,-145.59 2755.62,-146.59 2758.55,-152.95"/>
</g>
<!-- Node33&#45;&gt;Node12 -->
<g id="edge50" class="edge">
<title>Node33&#45;&gt;Node12</title>
<path fill="none" stroke="#63b8ff" d="M1988.79,-199.37C1806.31,-193.13 1168.61,-170.14 1079.45,-151 1076.93,-150.46 1074.35,-149.76 1071.79,-148.97"/>
<polygon fill="#63b8ff" stroke="#63b8ff" points="1072.76,-145.6 1062.16,-145.57 1070.43,-152.2 1072.76,-145.6"/>
</g>
<!-- Node33&#45;&gt;Node15 -->
<g id="edge51" class="edge">
<title>Node33&#45;&gt;Node15</title>
<path fill="none" stroke="#63b8ff" d="M1988.61,-200C1869.56,-197.06 1555.16,-186.32 1295.45,-151 1283.2,-149.33 1269.85,-146.75 1258.24,-144.26"/>
<polygon fill="#63b8ff" stroke="#63b8ff" points="1258.68,-140.77 1248.16,-142.03 1257.17,-147.61 1258.68,-140.77"/>
</g>
<!-- Node33&#45;&gt;Node18 -->
<g id="edge61" class="edge">
<title>Node33&#45;&gt;Node18</title>
<path fill="none" stroke="#63b8ff" d="M2053.55,-186.7C2071.21,-169.34 2094.76,-140.05 2076.45,-121 2038.28,-81.29 1197.04,-77.01 992.82,-76.55"/>
<polygon fill="#63b8ff" stroke="#63b8ff" points="992.76,-73.05 982.76,-76.53 992.75,-80.05 992.76,-73.05"/>
</g>
<!-- Node33&#45;&gt;Node25 -->
<g id="edge55" class="edge">
<title>Node33&#45;&gt;Node25</title>
<path fill="none" stroke="#63b8ff" d="M1988.92,-200.98C1859.68,-200.3 1496.64,-194.35 1198.45,-151 1192.62,-150.15 1186.52,-149.02 1180.54,-147.77"/>
<polygon fill="#63b8ff" stroke="#63b8ff" points="1181.17,-144.32 1170.65,-145.57 1179.65,-151.16 1181.17,-144.32"/>
</g>
<!-- Node33&#45;&gt;Node29 -->
<g id="edge52" class="edge">
<title>Node33&#45;&gt;Node29</title>
<path fill="none" stroke="#63b8ff" d="M1996.2,-186.95C1962.64,-175.53 1915.84,-159.6 1884.18,-148.82"/>
<polygon fill="#63b8ff" stroke="#63b8ff" points="1885.07,-145.43 1874.47,-145.52 1882.81,-152.05 1885.07,-145.43"/>
</g>
<!-- Node33&#45;&gt;Node31 -->
<g id="edge58" class="edge">
<title>Node33&#45;&gt;Node31</title>
<path fill="none" stroke="#63b8ff" d="M1988.73,-199.19C1884.65,-194.85 1633.07,-181.84 1424.45,-151 1418.16,-150.07 1411.56,-148.89 1405.08,-147.61"/>
<polygon fill="#63b8ff" stroke="#63b8ff" points="1405.56,-144.14 1395.06,-145.55 1404.15,-150.99 1405.56,-144.14"/>
</g>
<!-- Node33&#45;&gt;Node32 -->
<g id="edge60" class="edge">
<title>Node33&#45;&gt;Node32</title>
<path fill="none" stroke="#63b8ff" d="M2029.24,-186.8C2023.76,-177.31 2016.5,-164.76 2010.65,-154.63"/>
<polygon fill="#63b8ff" stroke="#63b8ff" points="2013.6,-152.75 2005.57,-145.84 2007.54,-156.25 2013.6,-152.75"/>
</g>
<!-- Node34 -->
<g id="node34" class="node">
<title>Node34</title>
<g id="a_node34"><a xlink:title=" ">
<polygon fill="#e0e0e0" stroke="#999999" points="2285.45,-145.5 2161.45,-145.5 2161.45,-126.5 2285.45,-126.5 2285.45,-145.5"/>
<text text-anchor="middle" x="2223.45" y="-133.5" font-family="Helvetica,sans-Serif" font-size="10.00">flutter/method_channel.h</text>
</a>
</g>
</g>
<!-- Node33&#45;&gt;Node34 -->
<g id="edge53" class="edge">
<title>Node33&#45;&gt;Node34</title>
<path fill="none" stroke="#63b8ff" d="M2078.27,-186.95C2111.47,-175.53 2157.77,-159.6 2189.09,-148.82"/>
<polygon fill="#63b8ff" stroke="#63b8ff" points="2190.38,-152.08 2198.7,-145.52 2188.11,-145.46 2190.38,-152.08"/>
</g>
<!-- Node35 -->
<g id="node35" class="node">
<title>Node35</title>
<g id="a_node35"><a xlink:title=" ">
<polygon fill="#e0e0e0" stroke="#999999" points="2409.45,-151 2303.45,-151 2303.45,-121 2409.45,-121 2409.45,-151"/>
<text text-anchor="start" x="2311.45" y="-139" font-family="Helvetica,sans-Serif" font-size="10.00">flutter/method_result</text>
<text text-anchor="middle" x="2356.45" y="-128" font-family="Helvetica,sans-Serif" font-size="10.00">_functions.h</text>
</a>
</g>
</g>
<!-- Node33&#45;&gt;Node35 -->
<g id="edge54" class="edge">
<title>Node33&#45;&gt;Node35</title>
<path fill="none" stroke="#63b8ff" d="M2086.33,-191.94C2135.98,-182.64 2215.33,-167.5 2293.37,-151.19"/>
<polygon fill="#63b8ff" stroke="#63b8ff" points="2294.31,-154.57 2303.38,-149.09 2292.87,-147.72 2294.31,-154.57"/>
</g>
<!-- Node36 -->
<g id="node36" class="node">
<title>Node36</title>
<g id="a_node36"><a xlink:title=" ">
<polygon fill="#e0e0e0" stroke="#999999" points="2582.95,-151 2427.95,-151 2427.95,-121 2582.95,-121 2582.95,-151"/>
<text text-anchor="start" x="2435.95" y="-139" font-family="Helvetica,sans-Serif" font-size="10.00">flutter/shell/platform</text>
<text text-anchor="middle" x="2505.45" y="-128" font-family="Helvetica,sans-Serif" font-size="10.00">/common/json_method_codec.h</text>
</a>
</g>
</g>
<!-- Node33&#45;&gt;Node36 -->
<g id="edge56" class="edge">
<title>Node33&#45;&gt;Node36</title>
<path fill="none" stroke="#63b8ff" d="M2086.01,-194.09C2102.35,-191.79 2120.69,-189.25 2137.45,-187 2259.08,-170.7 2292.17,-169.08 2417.68,-151.08"/>
<polygon fill="#63b8ff" stroke="#63b8ff" points="2418.29,-154.53 2427.68,-149.64 2417.29,-147.6 2418.29,-154.53"/>
</g>
<!-- Node37 -->
<g id="node37" class="node">
<title>Node37</title>
<g id="a_node37"><a xlink:title=" ">
<polygon fill="#e0e0e0" stroke="#999999" points="2743.95,-151 2600.95,-151 2600.95,-121 2743.95,-121 2743.95,-151"/>
<text text-anchor="start" x="2608.95" y="-139" font-family="Helvetica,sans-Serif" font-size="10.00">flutter/shell/platform</text>
<text text-anchor="middle" x="2672.45" y="-128" font-family="Helvetica,sans-Serif" font-size="10.00">/common/text_input_model.h</text>
</a>
</g>
</g>
<!-- Node33&#45;&gt;Node37 -->
<g id="edge57" class="edge">
<title>Node33&#45;&gt;Node37</title>
<path fill="none" stroke="#63b8ff" d="M2085.95,-193.61C2102.29,-191.28 2120.64,-188.84 2137.45,-187 2335.85,-165.28 2389.49,-176.15 2590.55,-151.17"/>
<polygon fill="#63b8ff" stroke="#63b8ff" points="2591.06,-154.63 2600.54,-149.91 2590.19,-147.69 2591.06,-154.63"/>
</g>
<!-- Node38&#45;&gt;Node11 -->
<g id="edge63" class="edge">
<title>Node38&#45;&gt;Node11</title>
<path fill="none" stroke="#63b8ff" d="M1223.48,-260.58C1361.17,-257.67 1763.04,-247.04 2095.45,-217 2196.37,-207.88 2220.71,-197.88 2321.45,-187 2513.01,-166.32 2568.75,-205.82 2753.45,-151 2754.53,-150.68 2755.62,-150.31 2756.71,-149.9"/>
<polygon fill="#63b8ff" stroke="#63b8ff" points="2758.55,-152.9 2766.15,-145.52 2755.6,-146.56 2758.55,-152.9"/>
</g>
<!-- Node38&#45;&gt;Node12 -->
<g id="edge64" class="edge">
<title>Node38&#45;&gt;Node12</title>
<path fill="none" stroke="#63b8ff" d="M1165.45,-252.94C1143.67,-232.24 1087.87,-179.21 1059.92,-152.65"/>
<polygon fill="#63b8ff" stroke="#63b8ff" points="1062.18,-149.97 1052.52,-145.62 1057.36,-155.04 1062.18,-149.97"/>
</g>
<!-- Node38&#45;&gt;Node25 -->
<g id="edge70" class="edge">
<title>Node38&#45;&gt;Node25</title>
<path fill="none" stroke="#63b8ff" d="M1170.15,-252.83C1165.92,-243.99 1159.51,-229.81 1155.45,-217 1148.91,-196.32 1144.12,-171.84 1141.33,-155.45"/>
<polygon fill="#63b8ff" stroke="#63b8ff" points="1144.77,-154.85 1139.71,-145.55 1137.87,-155.98 1144.77,-154.85"/>
</g>
<!-- Node39 -->
<g id="node39" class="node">
<title>Node39</title>
<g id="a_node39"><a xlink:href="configuration_8h.html" target="_top" xlink:title=" ">
<polygon fill="white" stroke="#666666" points="1302.95,-211.5 1163.95,-211.5 1163.95,-192.5 1302.95,-192.5 1302.95,-211.5"/>
<text text-anchor="middle" x="1233.45" y="-199.5" font-family="Helvetica,sans-Serif" font-size="10.00">configuration/configuration.h</text>
</a>
</g>
</g>
<!-- Node38&#45;&gt;Node39 -->
<g id="edge65" class="edge">
<title>Node38&#45;&gt;Node39</title>
<path fill="none" stroke="#63b8ff" d="M1183.16,-252.87C1192.14,-243.97 1206.34,-229.89 1217.36,-218.95"/>
<polygon fill="#63b8ff" stroke="#63b8ff" points="1220.08,-221.19 1224.71,-211.67 1215.15,-216.22 1220.08,-221.19"/>
</g>
<!-- Node40 -->
<g id="node40" class="node">
<title>Node40</title>
<g id="a_node40"><a xlink:href="window_8h.html" target="_top" xlink:title=" ">
<polygon fill="white" stroke="#666666" points="863.45,-211.5 767.45,-211.5 767.45,-192.5 863.45,-192.5 863.45,-211.5"/>
<text text-anchor="middle" x="815.45" y="-199.5" font-family="Helvetica,sans-Serif" font-size="10.00">wayland/window.h</text>
</a>
</g>
</g>
<!-- Node38&#45;&gt;Node40 -->
<g id="edge71" class="edge">
<title>Node38&#45;&gt;Node40</title>
<path fill="none" stroke="#63b8ff" d="M1125.29,-253.49C1059.67,-242.8 943.64,-223.89 873.71,-212.49"/>
<polygon fill="#63b8ff" stroke="#63b8ff" points="874.17,-209.02 863.74,-210.87 873.04,-215.93 874.17,-209.02"/>
</g>
<!-- Node39&#45;&gt;Node15 -->
<g id="edge66" class="edge">
<title>Node39&#45;&gt;Node15</title>
<path fill="none" stroke="#63b8ff" d="M1232.64,-192.37C1231.77,-183.07 1230.36,-167.98 1229.23,-155.9"/>
<polygon fill="#63b8ff" stroke="#63b8ff" points="1232.71,-155.53 1228.29,-145.91 1225.74,-156.19 1232.71,-155.53"/>
</g>
<!-- Node39&#45;&gt;Node16 -->
<g id="edge67" class="edge">
<title>Node39&#45;&gt;Node16</title>
<path fill="none" stroke="#63b8ff" d="M1163.88,-196.8C1011.84,-187.44 659.3,-164.6 606.45,-151 604.72,-150.55 602.97,-150.02 601.22,-149.42"/>
<polygon fill="#63b8ff" stroke="#63b8ff" points="602.06,-145.99 591.48,-145.5 599.45,-152.48 602.06,-145.99"/>
</g>
<!-- Node39&#45;&gt;Node25 -->
<g id="edge68" class="edge">
<title>Node39&#45;&gt;Node25</title>
<path fill="none" stroke="#63b8ff" d="M1220.64,-192.37C1205.06,-181.87 1178.53,-164 1159.83,-151.4"/>
<polygon fill="#63b8ff" stroke="#63b8ff" points="1161.62,-148.38 1151.37,-145.7 1157.7,-154.19 1161.62,-148.38"/>
</g>
<!-- Node39&#45;&gt;Node31 -->
<g id="edge69" class="edge">
<title>Node39&#45;&gt;Node31</title>
<path fill="none" stroke="#63b8ff" d="M1250.45,-192.37C1271.68,-181.59 1308.23,-163.02 1333.1,-150.38"/>
<polygon fill="#63b8ff" stroke="#63b8ff" points="1335,-153.35 1342.33,-145.7 1331.83,-147.11 1335,-153.35"/>
</g>
<!-- Node40&#45;&gt;Node12 -->
<g id="edge72" class="edge">
<title>Node40&#45;&gt;Node12</title>
<path fill="none" stroke="#63b8ff" d="M850.53,-192.48C897.77,-180.91 979.26,-160.58 1008.45,-151 1010.12,-150.45 1011.82,-149.87 1013.53,-149.26"/>
<polygon fill="#63b8ff" stroke="#63b8ff" points="1015.14,-152.39 1023.26,-145.59 1012.66,-145.84 1015.14,-152.39"/>
</g>
<!-- Node40&#45;&gt;Node15 -->
<g id="edge73" class="edge">
<title>Node40&#45;&gt;Node15</title>
<path fill="none" stroke="#63b8ff" d="M863.52,-194.06C879.7,-191.76 897.85,-189.23 914.45,-187 1040.56,-170.09 1076.46,-187.13 1198.45,-151 1199.89,-150.57 1201.35,-150.08 1202.81,-149.54"/>
<polygon fill="#63b8ff" stroke="#63b8ff" points="1204.37,-152.68 1212.17,-145.52 1201.6,-146.25 1204.37,-152.68"/>
</g>
<!-- Node40&#45;&gt;Node17 -->
<g id="edge77" class="edge">
<title>Node40&#45;&gt;Node17</title>
<path fill="none" stroke="#63b8ff" d="M833.39,-192.37C856,-181.49 895.07,-162.69 921.33,-150.05"/>
<polygon fill="#63b8ff" stroke="#63b8ff" points="922.88,-153.19 930.38,-145.7 919.85,-146.88 922.88,-153.19"/>
</g>
<!-- Node40&#45;&gt;Node18 -->
<g id="edge76" class="edge">
<title>Node40&#45;&gt;Node18</title>
<path fill="none" stroke="#63b8ff" d="M784.34,-192.46C775.7,-190.37 766.26,-188.34 757.45,-187 637.07,-168.63 129.99,-209.67 213.45,-121 237.22,-95.75 748.87,-81.33 904.16,-77.52"/>
<polygon fill="#63b8ff" stroke="#63b8ff" points="904.38,-81.02 914.29,-77.28 904.21,-74.02 904.38,-81.02"/>
</g>
<!-- Node41 -->
<g id="node41" class="node">
<title>Node41</title>
<g id="a_node41"><a xlink:title=" ">
<polygon fill="#e0e0e0" stroke="#999999" points="271.95,-145.5 222.95,-145.5 222.95,-126.5 271.95,-126.5 271.95,-145.5"/>
<text text-anchor="middle" x="247.45" y="-133.5" font-family="Helvetica,sans-Serif" font-size="10.00">cassert</text>
</a>
</g>
</g>
<!-- Node40&#45;&gt;Node41 -->
<g id="edge74" class="edge">
<title>Node40&#45;&gt;Node41</title>
<path fill="none" stroke="#63b8ff" d="M784.03,-192.44C775.47,-190.37 766.15,-188.37 757.45,-187 547.44,-153.95 487.05,-201.18 280.45,-151 278.29,-150.47 276.09,-149.82 273.9,-149.09"/>
<polygon fill="#63b8ff" stroke="#63b8ff" points="275.15,-145.82 264.56,-145.5 272.64,-152.36 275.15,-145.82"/>
</g>
<!-- Node42 -->
<g id="node42" class="node">
<title>Node42</title>
<g id="a_node42"><a xlink:title=" ">
<polygon fill="#e0e0e0" stroke="#999999" points="414.95,-145.5 289.95,-145.5 289.95,-126.5 414.95,-126.5 414.95,-145.5"/>
<text text-anchor="middle" x="352.45" y="-133.5" font-family="Helvetica,sans-Serif" font-size="10.00">agl&#45;shell&#45;client&#45;protocol.h</text>
</a>
</g>
</g>
<!-- Node40&#45;&gt;Node42 -->
<g id="edge75" class="edge">
<title>Node40&#45;&gt;Node42</title>
<path fill="none" stroke="#63b8ff" d="M783.4,-192.48C775,-190.46 765.92,-188.47 757.45,-187 610.79,-161.48 571.65,-173.23 424.45,-151 417.6,-149.97 410.41,-148.74 403.33,-147.45"/>
<polygon fill="#63b8ff" stroke="#63b8ff" points="403.57,-143.93 393.09,-145.52 402.27,-150.81 403.57,-143.93"/>
</g>
<!-- Node43 -->
<g id="node43" class="node">
<title>Node43</title>
<g id="a_node43"><a xlink:title=" ">
<polygon fill="#e0e0e0" stroke="#999999" points="535.45,-151 433.45,-151 433.45,-121 535.45,-121 535.45,-151"/>
<text text-anchor="start" x="441.45" y="-139" font-family="Helvetica,sans-Serif" font-size="10.00">ivi&#45;application&#45;client</text>
<text text-anchor="middle" x="484.45" y="-128" font-family="Helvetica,sans-Serif" font-size="10.00">&#45;protocol.h</text>
</a>
</g>
</g>
<!-- Node40&#45;&gt;Node43 -->
<g id="edge78" class="edge">
<title>Node40&#45;&gt;Node43</title>
<path fill="none" stroke="#63b8ff" d="M781.81,-192.46C773.84,-190.56 765.37,-188.62 757.45,-187 666.52,-168.36 640.31,-169.8 545.49,-151.13"/>
<polygon fill="#63b8ff" stroke="#63b8ff" points="545.96,-147.65 535.47,-149.13 544.59,-154.52 545.96,-147.65"/>
</g>
<!-- Node44 -->
<g id="node44" class="node">
<title>Node44</title>
<g id="a_node44"><a xlink:title=" ">
<polygon fill="#e0e0e0" stroke="#999999" points="732.95,-145.5 615.95,-145.5 615.95,-126.5 732.95,-126.5 732.95,-145.5"/>
<text text-anchor="middle" x="674.45" y="-133.5" font-family="Helvetica,sans-Serif" font-size="10.00">ivi&#45;wm&#45;client&#45;protocol.h</text>
</a>
</g>
</g>
<!-- Node40&#45;&gt;Node44 -->
<g id="edge79" class="edge">
<title>Node40&#45;&gt;Node44</title>
<path fill="none" stroke="#63b8ff" d="M796.44,-192.37C772.37,-181.44 730.68,-162.52 702.84,-149.88"/>
<polygon fill="#63b8ff" stroke="#63b8ff" points="704.17,-146.65 693.62,-145.7 701.28,-153.02 704.17,-146.65"/>
</g>
<!-- Node45 -->
<g id="node45" class="node">
<title>Node45</title>
<g id="a_node45"><a xlink:title=" ">
<polygon fill="#e0e0e0" stroke="#999999" points="879.45,-145.5 751.45,-145.5 751.45,-126.5 879.45,-126.5 879.45,-145.5"/>
<text text-anchor="middle" x="815.45" y="-133.5" font-family="Helvetica,sans-Serif" font-size="10.00">xdg&#45;shell&#45;client&#45;protocol.h</text>
</a>
</g>
</g>
<!-- Node40&#45;&gt;Node45 -->
<g id="edge80" class="edge">
<title>Node40&#45;&gt;Node45</title>
<path fill="none" stroke="#63b8ff" d="M815.45,-192.37C815.45,-183.16 815.45,-168.29 815.45,-156.27"/>
<polygon fill="#63b8ff" stroke="#63b8ff" points="818.95,-155.91 815.45,-145.91 811.95,-155.91 818.95,-155.91"/>
</g>
</g>
</svg>
