<?xml version="1.0" encoding="UTF-8" standalone="no"?>
<!DOCTYPE svg PUBLIC "-//W3C//DTD SVG 1.1//EN"
 "http://www.w3.org/Graphics/SVG/1.1/DTD/svg11.dtd">
<!-- Generated by graphviz version 5.0.0 (0)
 -->
<!-- Title: /mnt/raid10/stargate/ivi&#45;homescreen/shell/static_plugins/isolate/isolate.cc Pages: 1 -->
<svg width="3113pt" height="434pt"
 viewBox="0.00 0.00 3112.50 434.00" xmlns="http://www.w3.org/2000/svg" xmlns:xlink="http://www.w3.org/1999/xlink">
<g id="graph0" class="graph" transform="scale(1 1) rotate(0) translate(4 430)">
<title>/mnt/raid10/stargate/ivi&#45;homescreen/shell/static_plugins/isolate/isolate.cc</title>
<!-- Node1 -->
<g id="node1" class="node">
<title>Node1</title>
<g id="a_node1"><a xlink:title=" ">
<polygon fill="#999999" stroke="#666666" points="2234,-426 2123,-426 2123,-374 2234,-374 2234,-426"/>
<text text-anchor="start" x="2131" y="-414" font-family="Helvetica,sans-Serif" font-size="10.00">/mnt/raid10/stargate</text>
<text text-anchor="start" x="2131" y="-403" font-family="Helvetica,sans-Serif" font-size="10.00">/ivi&#45;homescreen/shell</text>
<text text-anchor="start" x="2131" y="-392" font-family="Helvetica,sans-Serif" font-size="10.00">/static_plugins/isolate</text>
<text text-anchor="middle" x="2178.5" y="-381" font-family="Helvetica,sans-Serif" font-size="10.00">/isolate.cc</text>
</a>
</g>
</g>
<!-- Node2 -->
<g id="node2" class="node">
<title>Node2</title>
<g id="a_node2"><a xlink:href="isolate_8h.html" target="_top" xlink:title=" ">
<polygon fill="white" stroke="#666666" points="53,-85 0,-85 0,-66 53,-66 53,-85"/>
<text text-anchor="middle" x="26.5" y="-73" font-family="Helvetica,sans-Serif" font-size="10.00">isolate.h</text>
</a>
</g>
</g>
<!-- Node1&#45;&gt;Node2 -->
<g id="edge1" class="edge">
<title>Node1&#45;&gt;Node2</title>
<path fill="none" stroke="#63b8ff" d="M2122.83,-398.47C1786.05,-394.93 35.5,-371.32 35.5,-263.5 35.5,-263.5 35.5,-263.5 35.5,-201 35.5,-163.4 31.37,-119.57 28.7,-95.23"/>
<polygon fill="#63b8ff" stroke="#63b8ff" points="32.17,-94.78 27.57,-85.24 25.22,-95.57 32.17,-94.78"/>
</g>
<!-- Node4 -->
<g id="node4" class="node">
<title>Node4</title>
<g id="a_node4"><a xlink:title=" ">
<polygon fill="#e0e0e0" stroke="#999999" points="2342,-338 2223,-338 2223,-308 2342,-308 2342,-338"/>
<text text-anchor="start" x="2231" y="-326" font-family="Helvetica,sans-Serif" font-size="10.00">flutter/standard_method</text>
<text text-anchor="middle" x="2282.5" y="-315" font-family="Helvetica,sans-Serif" font-size="10.00">_codec.h</text>
</a>
</g>
</g>
<!-- Node1&#45;&gt;Node4 -->
<g id="edge3" class="edge">
<title>Node1&#45;&gt;Node4</title>
<path fill="none" stroke="#63b8ff" d="M2213.42,-373.82C2226.84,-364.14 2241.98,-353.22 2254.65,-344.08"/>
<polygon fill="#63b8ff" stroke="#63b8ff" points="2256.92,-346.76 2262.98,-338.08 2252.82,-341.09 2256.92,-346.76"/>
</g>
<!-- Node5 -->
<g id="node5" class="node">
<title>Node5</title>
<g id="a_node5"><a xlink:href="engine_8h.html" target="_top" xlink:title=" ">
<polygon fill="white" stroke="#666666" points="2205,-332.5 2152,-332.5 2152,-313.5 2205,-313.5 2205,-332.5"/>
<text text-anchor="middle" x="2178.5" y="-320.5" font-family="Helvetica,sans-Serif" font-size="10.00">engine.h</text>
</a>
</g>
</g>
<!-- Node1&#45;&gt;Node5 -->
<g id="edge4" class="edge">
<title>Node1&#45;&gt;Node5</title>
<path fill="none" stroke="#63b8ff" d="M2178.5,-373.61C2178.5,-363.58 2178.5,-352.25 2178.5,-342.96"/>
<polygon fill="#63b8ff" stroke="#63b8ff" points="2182,-342.85 2178.5,-332.85 2175,-342.85 2182,-342.85"/>
</g>
<!-- Node3 -->
<g id="node3" class="node">
<title>Node3</title>
<g id="a_node3"><a xlink:title=" ">
<polygon fill="#e0e0e0" stroke="#999999" points="1812,-30 1691,-30 1691,0 1812,0 1812,-30"/>
<text text-anchor="start" x="1699" y="-18" font-family="Helvetica,sans-Serif" font-size="10.00">shell/platform/embedder</text>
<text text-anchor="middle" x="1751.5" y="-7" font-family="Helvetica,sans-Serif" font-size="10.00">/embedder.h</text>
</a>
</g>
</g>
<!-- Node2&#45;&gt;Node3 -->
<g id="edge2" class="edge">
<title>Node2&#45;&gt;Node3</title>
<path fill="none" stroke="#63b8ff" d="M53.3,-68.24C58.01,-67.35 62.88,-66.54 67.5,-66 387.28,-28.4 1402.6,-18.49 1680.56,-16.45"/>
<polygon fill="#63b8ff" stroke="#63b8ff" points="1680.94,-19.95 1690.91,-16.38 1680.89,-12.95 1680.94,-19.95"/>
</g>
<!-- Node5&#45;&gt;Node3 -->
<g id="edge9" class="edge">
<title>Node5&#45;&gt;Node3</title>
<path fill="none" stroke="#63b8ff" d="M2151.77,-319.51C2100.24,-314.13 1990.03,-299.62 1965.5,-272 1920.66,-221.5 1986.44,-176.87 1948.5,-121 1917.87,-75.9 1861.41,-48.66 1816.77,-33.27"/>
<polygon fill="#63b8ff" stroke="#63b8ff" points="1817.74,-29.9 1807.14,-30.07 1815.53,-36.54 1817.74,-29.9"/>
</g>
<!-- Node6 -->
<g id="node6" class="node">
<title>Node6</title>
<g id="a_node6"><a xlink:title=" ">
<polygon fill="#e0e0e0" stroke="#999999" points="2034,-272 1975,-272 1975,-253 2034,-253 2034,-272"/>
<text text-anchor="middle" x="2004.5" y="-260" font-family="Helvetica,sans-Serif" font-size="10.00">functional</text>
</a>
</g>
</g>
<!-- Node5&#45;&gt;Node6 -->
<g id="edge5" class="edge">
<title>Node5&#45;&gt;Node6</title>
<path fill="none" stroke="#63b8ff" d="M2153.2,-313.49C2123.3,-303.44 2073.38,-286.66 2039.72,-275.34"/>
<polygon fill="#63b8ff" stroke="#63b8ff" points="2040.43,-271.89 2029.83,-272.02 2038.19,-278.52 2040.43,-271.89"/>
</g>
<!-- Node7 -->
<g id="node7" class="node">
<title>Node7</title>
<g id="a_node7"><a xlink:title=" ">
<polygon fill="#e0e0e0" stroke="#999999" points="2694.5,-24.5 2634.5,-24.5 2634.5,-5.5 2694.5,-5.5 2694.5,-24.5"/>
<text text-anchor="middle" x="2664.5" y="-12.5" font-family="Helvetica,sans-Serif" font-size="10.00">EGL/egl.h</text>
</a>
</g>
</g>
<!-- Node5&#45;&gt;Node7 -->
<g id="edge6" class="edge">
<title>Node5&#45;&gt;Node7</title>
<path fill="none" stroke="#63b8ff" d="M2196.66,-313.39C2201.97,-311.24 2207.87,-309.21 2213.5,-308 2306.47,-288.06 2988.24,-322.99 3068.5,-272 3097.7,-253.45 3104.5,-237.59 3104.5,-203 3104.5,-203 3104.5,-203 3104.5,-135 3104.5,-52.67 2813.83,-25.56 2704.99,-18.29"/>
<polygon fill="#63b8ff" stroke="#63b8ff" points="2704.95,-14.78 2694.74,-17.63 2704.5,-21.77 2704.95,-14.78"/>
</g>
<!-- Node8 -->
<g id="node8" class="node">
<title>Node8</title>
<g id="a_node8"><a xlink:title=" ">
<polygon fill="#e0e0e0" stroke="#999999" points="2690.5,-272 2618.5,-272 2618.5,-253 2690.5,-253 2690.5,-272"/>
<text text-anchor="middle" x="2654.5" y="-260" font-family="Helvetica,sans-Serif" font-size="10.00">GLES2/gl2.h</text>
</a>
</g>
</g>
<!-- Node5&#45;&gt;Node8 -->
<g id="edge7" class="edge">
<title>Node5&#45;&gt;Node8</title>
<path fill="none" stroke="#63b8ff" d="M2197.07,-313.42C2202.28,-311.33 2208.03,-309.32 2213.5,-308 2383.17,-267.17 2431.46,-294.64 2604.5,-272 2605.78,-271.83 2607.07,-271.66 2608.38,-271.47"/>
<polygon fill="#63b8ff" stroke="#63b8ff" points="2609.13,-274.9 2618.5,-269.96 2608.09,-267.98 2609.13,-274.9"/>
</g>
<!-- Node9 -->
<g id="node9" class="node">
<title>Node9</title>
<g id="a_node9"><a xlink:title=" ">
<polygon fill="#e0e0e0" stroke="#999999" points="2834,-272 2709,-272 2709,-253 2834,-253 2834,-272"/>
<text text-anchor="middle" x="2771.5" y="-260" font-family="Helvetica,sans-Serif" font-size="10.00">flutter/encodable_value.h</text>
</a>
</g>
</g>
<!-- Node5&#45;&gt;Node9 -->
<g id="edge8" class="edge">
<title>Node5&#45;&gt;Node9</title>
<path fill="none" stroke="#63b8ff" d="M2197.05,-313.36C2202.27,-311.26 2208.02,-309.27 2213.5,-308 2421.33,-259.95 2482.07,-291.71 2698.59,-272.02"/>
<polygon fill="#63b8ff" stroke="#63b8ff" points="2699.06,-275.49 2708.69,-271.08 2698.41,-268.53 2699.06,-275.49"/>
</g>
<!-- Node10 -->
<g id="node10" class="node">
<title>Node10</title>
<g id="a_node10"><a xlink:title=" ">
<polygon fill="#e0e0e0" stroke="#999999" points="2914.5,-272 2852.5,-272 2852.5,-253 2914.5,-253 2914.5,-272"/>
<text text-anchor="middle" x="2883.5" y="-260" font-family="Helvetica,sans-Serif" font-size="10.00">filesystem</text>
</a>
</g>
</g>
<!-- Node5&#45;&gt;Node10 -->
<g id="edge10" class="edge">
<title>Node5&#45;&gt;Node10</title>
<path fill="none" stroke="#63b8ff" d="M2196.67,-313.44C2201.99,-311.29 2207.88,-309.25 2213.5,-308 2484.06,-247.84 2563.67,-307.82 2842.15,-271.95"/>
<polygon fill="#63b8ff" stroke="#63b8ff" points="2842.68,-275.41 2852.14,-270.64 2841.76,-268.47 2842.68,-275.41"/>
</g>
<!-- Node11 -->
<g id="node11" class="node">
<title>Node11</title>
<g id="a_node11"><a xlink:title=" ">
<polygon fill="#e0e0e0" stroke="#999999" points="1604,-145.5 1569,-145.5 1569,-126.5 1604,-126.5 1604,-145.5"/>
<text text-anchor="middle" x="1586.5" y="-133.5" font-family="Helvetica,sans-Serif" font-size="10.00">map</text>
</a>
</g>
</g>
<!-- Node5&#45;&gt;Node11 -->
<g id="edge11" class="edge">
<title>Node5&#45;&gt;Node11</title>
<path fill="none" stroke="#63b8ff" d="M2151.77,-322.02C2041.55,-321.5 1624.49,-313.1 1547.5,-217 1531.58,-197.13 1552.31,-169.7 1569.11,-152.67"/>
<polygon fill="#63b8ff" stroke="#63b8ff" points="1571.63,-155.1 1576.4,-145.64 1566.77,-150.06 1571.63,-155.1"/>
</g>
<!-- Node12 -->
<g id="node12" class="node">
<title>Node12</title>
<g id="a_node12"><a xlink:title=" ">
<polygon fill="#e0e0e0" stroke="#999999" points="2048.5,-145.5 1996.5,-145.5 1996.5,-126.5 2048.5,-126.5 2048.5,-145.5"/>
<text text-anchor="middle" x="2022.5" y="-133.5" font-family="Helvetica,sans-Serif" font-size="10.00">memory</text>
</a>
</g>
</g>
<!-- Node5&#45;&gt;Node12 -->
<g id="edge12" class="edge">
<title>Node5&#45;&gt;Node12</title>
<path fill="none" stroke="#63b8ff" d="M2197.08,-313.49C2202.3,-311.4 2208.04,-309.37 2213.5,-308 2352.3,-273.11 2397.52,-316.64 2533.5,-272 2549.58,-266.72 2550.38,-258.16 2566.5,-253 2724.32,-202.43 3048.26,-306.57 2933.5,-187 2899.77,-151.86 2105.13,-161.19 2057.5,-151 2055.12,-150.49 2052.7,-149.84 2050.3,-149.09"/>
<polygon fill="#63b8ff" stroke="#63b8ff" points="2051.25,-145.71 2040.66,-145.62 2048.88,-152.3 2051.25,-145.71"/>
</g>
<!-- Node13 -->
<g id="node13" class="node">
<title>Node13</title>
<g id="a_node13"><a xlink:title=" ">
<polygon fill="#e0e0e0" stroke="#999999" points="2976.5,-272 2932.5,-272 2932.5,-253 2976.5,-253 2976.5,-272"/>
<text text-anchor="middle" x="2954.5" y="-260" font-family="Helvetica,sans-Serif" font-size="10.00">mutex</text>
</a>
</g>
</g>
<!-- Node5&#45;&gt;Node13 -->
<g id="edge13" class="edge">
<title>Node5&#45;&gt;Node13</title>
<path fill="none" stroke="#63b8ff" d="M2196.67,-313.42C2201.98,-311.27 2207.87,-309.23 2213.5,-308 2518.83,-241.14 2609.59,-320.33 2922.02,-271.84"/>
<polygon fill="#63b8ff" stroke="#63b8ff" points="2922.95,-275.24 2932.28,-270.21 2921.85,-268.32 2922.95,-275.24"/>
</g>
<!-- Node14 -->
<g id="node14" class="node">
<title>Node14</title>
<g id="a_node14"><a xlink:title=" ">
<polygon fill="#e0e0e0" stroke="#999999" points="3038,-272 2995,-272 2995,-253 3038,-253 3038,-272"/>
<text text-anchor="middle" x="3016.5" y="-260" font-family="Helvetica,sans-Serif" font-size="10.00">queue</text>
</a>
</g>
</g>
<!-- Node5&#45;&gt;Node14 -->
<g id="edge14" class="edge">
<title>Node5&#45;&gt;Node14</title>
<path fill="none" stroke="#63b8ff" d="M2196.66,-313.4C2201.98,-311.26 2207.87,-309.22 2213.5,-308 2545.99,-235.9 2644.38,-324.03 2985.06,-271.61"/>
<polygon fill="#63b8ff" stroke="#63b8ff" points="2985.62,-275.07 2994.95,-270.06 2984.53,-268.15 2985.62,-275.07"/>
</g>
<!-- Node15 -->
<g id="node15" class="node">
<title>Node15</title>
<g id="a_node15"><a xlink:title=" ">
<polygon fill="#e0e0e0" stroke="#999999" points="1821,-145.5 1780,-145.5 1780,-126.5 1821,-126.5 1821,-145.5"/>
<text text-anchor="middle" x="1800.5" y="-133.5" font-family="Helvetica,sans-Serif" font-size="10.00">string</text>
</a>
</g>
</g>
<!-- Node5&#45;&gt;Node15 -->
<g id="edge15" class="edge">
<title>Node5&#45;&gt;Node15</title>
<path fill="none" stroke="#63b8ff" d="M2178.63,-313.06C2178.34,-298.48 2175.62,-269.56 2159.5,-253 2121.26,-213.7 2093.9,-233.15 2041.5,-217 1947.19,-187.94 1921.3,-187.22 1829.5,-151 1828.49,-150.6 1827.46,-150.18 1826.42,-149.74"/>
<polygon fill="#63b8ff" stroke="#63b8ff" points="1827.74,-146.5 1817.18,-145.57 1824.86,-152.88 1827.74,-146.5"/>
</g>
<!-- Node16 -->
<g id="node16" class="node">
<title>Node16</title>
<g id="a_node16"><a xlink:title=" ">
<polygon fill="#e0e0e0" stroke="#999999" points="2110.5,-145.5 2066.5,-145.5 2066.5,-126.5 2110.5,-126.5 2110.5,-145.5"/>
<text text-anchor="middle" x="2088.5" y="-133.5" font-family="Helvetica,sans-Serif" font-size="10.00">vector</text>
</a>
</g>
</g>
<!-- Node5&#45;&gt;Node16 -->
<g id="edge16" class="edge">
<title>Node5&#45;&gt;Node16</title>
<path fill="none" stroke="#63b8ff" d="M2197.07,-313.46C2202.29,-311.36 2208.03,-309.34 2213.5,-308 2366.64,-270.35 2414.05,-312.37 2566.5,-272 2586.7,-266.65 2589.27,-258.24 2609.5,-253 2781.8,-208.37 3127.77,-315.39 3004.5,-187 2970.42,-151.51 2167.38,-162.33 2119.5,-151 2117.76,-150.59 2116,-150.08 2114.25,-149.5"/>
<polygon fill="#63b8ff" stroke="#63b8ff" points="2115.08,-146.06 2104.5,-145.63 2112.5,-152.57 2115.08,-146.06"/>
</g>
<!-- Node17 -->
<g id="node17" class="node">
<title>Node17</title>
<g id="a_node17"><a xlink:href="backend_8h.html" target="_top" xlink:title=" ">
<polygon fill="white" stroke="#666666" points="1940,-145.5 1839,-145.5 1839,-126.5 1940,-126.5 1940,-145.5"/>
<text text-anchor="middle" x="1889.5" y="-133.5" font-family="Helvetica,sans-Serif" font-size="10.00">backend/backend.h</text>
</a>
</g>
</g>
<!-- Node5&#45;&gt;Node17 -->
<g id="edge17" class="edge">
<title>Node5&#45;&gt;Node17</title>
<path fill="none" stroke="#63b8ff" d="M2151.82,-320.32C2093.15,-315.81 1956.58,-301.69 1923.5,-272 1889.73,-241.68 1882.3,-184.94 1884.15,-155.61"/>
<polygon fill="#63b8ff" stroke="#63b8ff" points="1887.65,-155.85 1885.34,-145.51 1880.7,-155.03 1887.65,-155.85"/>
</g>
<!-- Node18 -->
<g id="node18" class="node">
<title>Node18</title>
<g id="a_node18"><a xlink:href="constants_8h.html" target="_top" xlink:title=" ">
<polygon fill="white" stroke="#666666" points="2191.5,-85 2123.5,-85 2123.5,-66 2191.5,-66 2191.5,-85"/>
<text text-anchor="middle" x="2157.5" y="-73" font-family="Helvetica,sans-Serif" font-size="10.00">constants.h</text>
</a>
</g>
</g>
<!-- Node5&#45;&gt;Node18 -->
<g id="edge24" class="edge">
<title>Node5&#45;&gt;Node18</title>
<path fill="none" stroke="#63b8ff" d="M2196.66,-313.39C2201.97,-311.24 2207.87,-309.21 2213.5,-308 2258.84,-298.25 3015.42,-305.49 3047.5,-272 3171.77,-142.25 2949.37,-142.4 2847.5,-121 2723.4,-94.93 2334.16,-81.58 2201.95,-77.71"/>
<polygon fill="#63b8ff" stroke="#63b8ff" points="2201.88,-74.21 2191.79,-77.42 2201.68,-81.21 2201.88,-74.21"/>
</g>
<!-- Node20 -->
<g id="node20" class="node">
<title>Node20</title>
<g id="a_node20"><a xlink:href="logging_8h.html" target="_top" xlink:title=" ">
<polygon fill="white" stroke="#666666" points="2524.5,-272 2468.5,-272 2468.5,-253 2524.5,-253 2524.5,-272"/>
<text text-anchor="middle" x="2496.5" y="-260" font-family="Helvetica,sans-Serif" font-size="10.00">logging.h</text>
</a>
</g>
</g>
<!-- Node5&#45;&gt;Node20 -->
<g id="edge25" class="edge">
<title>Node5&#45;&gt;Node20</title>
<path fill="none" stroke="#63b8ff" d="M2197.86,-313.36C2202.87,-311.37 2208.33,-309.42 2213.5,-308 2299.33,-284.41 2403.46,-272.05 2458.36,-266.76"/>
<polygon fill="#63b8ff" stroke="#63b8ff" points="2458.71,-270.24 2468.34,-265.82 2458.06,-263.27 2458.71,-270.24"/>
</g>
<!-- Node28 -->
<g id="node28" class="node">
<title>Node28</title>
<g id="a_node28"><a xlink:href="platform__channel_8h.html" target="_top" xlink:title=" ">
<polygon fill="white" stroke="#666666" points="1666,-211.5 1567,-211.5 1567,-192.5 1666,-192.5 1666,-211.5"/>
<text text-anchor="middle" x="1616.5" y="-199.5" font-family="Helvetica,sans-Serif" font-size="10.00">platform_channel.h</text>
</a>
</g>
</g>
<!-- Node5&#45;&gt;Node28 -->
<g id="edge34" class="edge">
<title>Node5&#45;&gt;Node28</title>
<path fill="none" stroke="#63b8ff" d="M2151.68,-318.44C2098.76,-311.21 1977.3,-293.67 1876.5,-272 1797.05,-254.92 1705.48,-229.18 1654.98,-214.44"/>
<polygon fill="#63b8ff" stroke="#63b8ff" points="1655.72,-211.01 1645.14,-211.56 1653.75,-217.73 1655.72,-211.01"/>
</g>
<!-- Node29 -->
<g id="node29" class="node">
<title>Node29</title>
<g id="a_node29"><a xlink:href="key__event_8h.html" target="_top" xlink:title=" ">
<polygon fill="white" stroke="#666666" points="1472.5,-217 1370.5,-217 1370.5,-187 1472.5,-187 1472.5,-217"/>
<text text-anchor="start" x="1378.5" y="-205" font-family="Helvetica,sans-Serif" font-size="10.00">static_plugins/key</text>
<text text-anchor="middle" x="1421.5" y="-194" font-family="Helvetica,sans-Serif" font-size="10.00">_event/key_event.h</text>
</a>
</g>
</g>
<!-- Node5&#45;&gt;Node29 -->
<g id="edge38" class="edge">
<title>Node5&#45;&gt;Node29</title>
<path fill="none" stroke="#63b8ff" d="M2151.62,-321.21C2031.54,-317.52 1547.42,-300.96 1486.5,-272 1465.18,-261.87 1447.34,-241.43 1435.78,-225.41"/>
<polygon fill="#63b8ff" stroke="#63b8ff" points="1438.58,-223.31 1430.02,-217.06 1432.82,-227.28 1438.58,-223.31"/>
</g>
<!-- Node36 -->
<g id="node36" class="node">
<title>Node36</title>
<g id="a_node36"><a xlink:href="text__input_8h.html" target="_top" xlink:title=" ">
<polygon fill="white" stroke="#666666" points="939,-217 842,-217 842,-187 939,-187 939,-217"/>
<text text-anchor="start" x="850" y="-205" font-family="Helvetica,sans-Serif" font-size="10.00">static_plugins/text</text>
<text text-anchor="middle" x="890.5" y="-194" font-family="Helvetica,sans-Serif" font-size="10.00">_input/text_input.h</text>
</a>
</g>
</g>
<!-- Node5&#45;&gt;Node36 -->
<g id="edge50" class="edge">
<title>Node5&#45;&gt;Node36</title>
<path fill="none" stroke="#63b8ff" d="M2151.94,-320.66C2057.38,-315.77 1728.23,-297.84 1457.5,-272 1271.64,-254.26 1052.46,-225.29 949.52,-211.21"/>
<polygon fill="#63b8ff" stroke="#63b8ff" points="949.71,-207.7 939.33,-209.81 948.76,-214.63 949.71,-207.7"/>
</g>
<!-- Node41 -->
<g id="node41" class="node">
<title>Node41</title>
<g id="a_node41"><a xlink:href="flutter__view_8h.html" target="_top" xlink:title=" ">
<polygon fill="white" stroke="#666666" points="2150.5,-272 2052.5,-272 2052.5,-253 2150.5,-253 2150.5,-272"/>
<text text-anchor="middle" x="2101.5" y="-260" font-family="Helvetica,sans-Serif" font-size="10.00">view/flutter_view.h</text>
</a>
</g>
</g>
<!-- Node5&#45;&gt;Node41 -->
<g id="edge64" class="edge">
<title>Node5&#45;&gt;Node41</title>
<path fill="none" stroke="#63b8ff" d="M2167.14,-313.37C2155.08,-304.21 2135.8,-289.56 2121.25,-278.51"/>
<polygon fill="#63b8ff" stroke="#63b8ff" points="2122.99,-275.43 2112.91,-272.17 2118.75,-281 2122.99,-275.43"/>
</g>
<!-- Node17&#45;&gt;Node3 -->
<g id="edge18" class="edge">
<title>Node17&#45;&gt;Node3</title>
<path fill="none" stroke="#63b8ff" d="M1879.58,-126.44C1858.02,-107.85 1806.38,-63.33 1775.66,-36.84"/>
<polygon fill="#63b8ff" stroke="#63b8ff" points="1777.83,-34.08 1767.97,-30.2 1773.25,-39.38 1777.83,-34.08"/>
</g>
<!-- Node17&#45;&gt;Node5 -->
<g id="edge23" class="edge">
<title>Node17&#45;&gt;Node5</title>
<path fill="none" stroke="#63b8ff" d="M1893.55,-145.51C1898.79,-169.41 1903.24,-237.66 1941.5,-272 1971.02,-298.5 2082.98,-312.6 2141.95,-318.53"/>
<polygon fill="#63b8ff" stroke="#63b8ff" points="2141.67,-322.02 2151.97,-319.51 2142.36,-315.05 2141.67,-322.02"/>
</g>
<!-- Node17&#45;&gt;Node18 -->
<g id="edge19" class="edge">
<title>Node17&#45;&gt;Node18</title>
<path fill="none" stroke="#63b8ff" d="M1928.47,-126.49C1977.6,-115.77 2061.85,-97.38 2113.33,-86.14"/>
<polygon fill="#63b8ff" stroke="#63b8ff" points="2114.14,-89.55 2123.16,-84 2112.65,-82.71 2114.14,-89.55"/>
</g>
<!-- Node18&#45;&gt;Node3 -->
<g id="edge21" class="edge">
<title>Node18&#45;&gt;Node3</title>
<path fill="none" stroke="#63b8ff" d="M2123.23,-69.56C2056.97,-60.01 1910.04,-38.84 1822.04,-26.16"/>
<polygon fill="#63b8ff" stroke="#63b8ff" points="1822.54,-22.7 1812.14,-24.74 1821.54,-29.63 1822.54,-22.7"/>
</g>
<!-- Node18&#45;&gt;Node7 -->
<g id="edge20" class="edge">
<title>Node18&#45;&gt;Node7</title>
<path fill="none" stroke="#63b8ff" d="M2191.55,-70.57C2281.95,-60.14 2527.67,-31.79 2624.5,-20.61"/>
<polygon fill="#63b8ff" stroke="#63b8ff" points="2624.95,-24.09 2634.48,-19.46 2624.15,-17.13 2624.95,-24.09"/>
</g>
<!-- Node19 -->
<g id="node19" class="node">
<title>Node19</title>
<g id="a_node19"><a xlink:title=" ">
<polygon fill="#e0e0e0" stroke="#999999" points="2176.5,-24.5 2138.5,-24.5 2138.5,-5.5 2176.5,-5.5 2176.5,-24.5"/>
<text text-anchor="middle" x="2157.5" y="-12.5" font-family="Helvetica,sans-Serif" font-size="10.00">array</text>
</a>
</g>
</g>
<!-- Node18&#45;&gt;Node19 -->
<g id="edge22" class="edge">
<title>Node18&#45;&gt;Node19</title>
<path fill="none" stroke="#63b8ff" d="M2157.5,-65.87C2157.5,-57.75 2157.5,-45.31 2157.5,-34.89"/>
<polygon fill="#63b8ff" stroke="#63b8ff" points="2161,-34.67 2157.5,-24.67 2154,-34.67 2161,-34.67"/>
</g>
<!-- Node20&#45;&gt;Node18 -->
<g id="edge33" class="edge">
<title>Node20&#45;&gt;Node18</title>
<path fill="none" stroke="#63b8ff" d="M2524.67,-259.14C2620.24,-251.07 2926.6,-224.64 2933.5,-217 2942.44,-207.11 2940.95,-198.06 2933.5,-187 2889.82,-122.19 2846.62,-138.71 2770.5,-121 2662.19,-95.8 2323.91,-82.14 2201.92,-77.93"/>
<polygon fill="#63b8ff" stroke="#63b8ff" points="2201.93,-74.43 2191.82,-77.58 2201.69,-81.42 2201.93,-74.43"/>
</g>
<!-- Node21 -->
<g id="node21" class="node">
<title>Node21</title>
<g id="a_node21"><a xlink:title=" ">
<polygon fill="#e0e0e0" stroke="#999999" points="2558.5,-211.5 2506.5,-211.5 2506.5,-192.5 2558.5,-192.5 2558.5,-211.5"/>
<text text-anchor="middle" x="2532.5" y="-199.5" font-family="Helvetica,sans-Serif" font-size="10.00">sstream</text>
</a>
</g>
</g>
<!-- Node20&#45;&gt;Node21 -->
<g id="edge26" class="edge">
<title>Node20&#45;&gt;Node21</title>
<path fill="none" stroke="#63b8ff" d="M2501.81,-252.87C2507.08,-244.31 2515.29,-230.97 2521.89,-220.24"/>
<polygon fill="#63b8ff" stroke="#63b8ff" points="2524.91,-222.02 2527.17,-211.67 2518.94,-218.35 2524.91,-222.02"/>
</g>
<!-- Node22 -->
<g id="node22" class="node">
<title>Node22</title>
<g id="a_node22"><a xlink:title=" ">
<polygon fill="#e0e0e0" stroke="#999999" points="2664.5,-211.5 2576.5,-211.5 2576.5,-192.5 2664.5,-192.5 2664.5,-211.5"/>
<text text-anchor="middle" x="2620.5" y="-199.5" font-family="Helvetica,sans-Serif" font-size="10.00">spdlog/cfg/env.h</text>
</a>
</g>
</g>
<!-- Node20&#45;&gt;Node22 -->
<g id="edge27" class="edge">
<title>Node20&#45;&gt;Node22</title>
<path fill="none" stroke="#63b8ff" d="M2514.53,-252.99C2535.19,-243.25 2569.28,-227.16 2593.2,-215.88"/>
<polygon fill="#63b8ff" stroke="#63b8ff" points="2594.9,-218.95 2602.45,-211.52 2591.91,-212.62 2594.9,-218.95"/>
</g>
<!-- Node23 -->
<g id="node23" class="node">
<title>Node23</title>
<g id="a_node23"><a xlink:title=" ">
<polygon fill="#e0e0e0" stroke="#999999" points="2792.5,-217 2682.5,-217 2682.5,-187 2792.5,-187 2792.5,-217"/>
<text text-anchor="start" x="2690.5" y="-205" font-family="Helvetica,sans-Serif" font-size="10.00">spdlog/sinks/callback</text>
<text text-anchor="middle" x="2737.5" y="-194" font-family="Helvetica,sans-Serif" font-size="10.00">_sink.h</text>
</a>
</g>
</g>
<!-- Node20&#45;&gt;Node23 -->
<g id="edge28" class="edge">
<title>Node20&#45;&gt;Node23</title>
<path fill="none" stroke="#63b8ff" d="M2524.62,-254.67C2560.63,-245.93 2624.15,-230.51 2672.46,-218.79"/>
<polygon fill="#63b8ff" stroke="#63b8ff" points="2673.32,-222.18 2682.21,-216.42 2671.67,-215.38 2673.32,-222.18"/>
</g>
<!-- Node24 -->
<g id="node24" class="node">
<title>Node24</title>
<g id="a_node24"><a xlink:title=" ">
<polygon fill="#e0e0e0" stroke="#999999" points="2924.5,-217 2810.5,-217 2810.5,-187 2924.5,-187 2924.5,-217"/>
<text text-anchor="start" x="2818.5" y="-205" font-family="Helvetica,sans-Serif" font-size="10.00">spdlog/sinks/ringbuffer</text>
<text text-anchor="middle" x="2867.5" y="-194" font-family="Helvetica,sans-Serif" font-size="10.00">_sink.h</text>
</a>
</g>
</g>
<!-- Node20&#45;&gt;Node24 -->
<g id="edge29" class="edge">
<title>Node20&#45;&gt;Node24</title>
<path fill="none" stroke="#63b8ff" d="M2524.92,-255.49C2529.45,-254.61 2534.1,-253.75 2538.5,-253 2651.64,-233.83 2683.54,-237.05 2800.26,-217.13"/>
<polygon fill="#63b8ff" stroke="#63b8ff" points="2801.05,-220.55 2810.31,-215.4 2799.86,-213.65 2801.05,-220.55"/>
</g>
<!-- Node25 -->
<g id="node25" class="node">
<title>Node25</title>
<g id="a_node25"><a xlink:title=" ">
<polygon fill="#e0e0e0" stroke="#999999" points="2266,-217 2165,-217 2165,-187 2266,-187 2266,-217"/>
<text text-anchor="start" x="2173" y="-205" font-family="Helvetica,sans-Serif" font-size="10.00">spdlog/sinks/stdout</text>
<text text-anchor="middle" x="2215.5" y="-194" font-family="Helvetica,sans-Serif" font-size="10.00">_color_sinks.h</text>
</a>
</g>
</g>
<!-- Node20&#45;&gt;Node25 -->
<g id="edge30" class="edge">
<title>Node20&#45;&gt;Node25</title>
<path fill="none" stroke="#63b8ff" d="M2468.4,-256.2C2428.01,-248.5 2350.99,-233.56 2276.08,-217.3"/>
<polygon fill="#63b8ff" stroke="#63b8ff" points="2276.52,-213.82 2266,-215.11 2275.03,-220.66 2276.52,-213.82"/>
</g>
<!-- Node26 -->
<g id="node26" class="node">
<title>Node26</title>
<g id="a_node26"><a xlink:title=" ">
<polygon fill="#e0e0e0" stroke="#999999" points="2385,-217 2284,-217 2284,-187 2385,-187 2385,-217"/>
<text text-anchor="start" x="2292" y="-205" font-family="Helvetica,sans-Serif" font-size="10.00">spdlog/sinks/stdout</text>
<text text-anchor="middle" x="2334.5" y="-194" font-family="Helvetica,sans-Serif" font-size="10.00">_sinks.h</text>
</a>
</g>
</g>
<!-- Node20&#45;&gt;Node26 -->
<g id="edge31" class="edge">
<title>Node20&#45;&gt;Node26</title>
<path fill="none" stroke="#63b8ff" d="M2472.94,-252.99C2449.53,-244.54 2412.92,-231.32 2383.22,-220.59"/>
<polygon fill="#63b8ff" stroke="#63b8ff" points="2384.04,-217.17 2373.45,-217.06 2381.66,-223.75 2384.04,-217.17"/>
</g>
<!-- Node27 -->
<g id="node27" class="node">
<title>Node27</title>
<g id="a_node27"><a xlink:title=" ">
<polygon fill="#e0e0e0" stroke="#999999" points="2488,-211.5 2403,-211.5 2403,-192.5 2488,-192.5 2488,-211.5"/>
<text text-anchor="middle" x="2445.5" y="-199.5" font-family="Helvetica,sans-Serif" font-size="10.00">spdlog/spdlog.h</text>
</a>
</g>
</g>
<!-- Node20&#45;&gt;Node27 -->
<g id="edge32" class="edge">
<title>Node20&#45;&gt;Node27</title>
<path fill="none" stroke="#63b8ff" d="M2488.97,-252.87C2481.29,-244.05 2469.18,-230.16 2459.69,-219.27"/>
<polygon fill="#63b8ff" stroke="#63b8ff" points="2462.27,-216.91 2453.06,-211.67 2456.99,-221.51 2462.27,-216.91"/>
</g>
<!-- Node28&#45;&gt;Node3 -->
<g id="edge37" class="edge">
<title>Node28&#45;&gt;Node3</title>
<path fill="none" stroke="#63b8ff" d="M1661.86,-192.42C1686.25,-185.42 1714.68,-172.95 1731.5,-151 1756.04,-118.98 1756.78,-69.84 1754.53,-40.52"/>
<polygon fill="#63b8ff" stroke="#63b8ff" points="1757.99,-39.95 1753.56,-30.32 1751.02,-40.61 1757.99,-39.95"/>
</g>
<!-- Node28&#45;&gt;Node11 -->
<g id="edge35" class="edge">
<title>Node28&#45;&gt;Node11</title>
<path fill="none" stroke="#63b8ff" d="M1612.45,-192.37C1608.01,-182.88 1600.73,-167.36 1595.01,-155.16"/>
<polygon fill="#63b8ff" stroke="#63b8ff" points="1598.09,-153.47 1590.67,-145.91 1591.75,-156.45 1598.09,-153.47"/>
</g>
<!-- Node28&#45;&gt;Node15 -->
<g id="edge36" class="edge">
<title>Node28&#45;&gt;Node15</title>
<path fill="none" stroke="#63b8ff" d="M1643.58,-192.42C1673.56,-182.81 1723.24,-166.53 1765.5,-151 1767.1,-150.41 1768.75,-149.8 1770.4,-149.17"/>
<polygon fill="#63b8ff" stroke="#63b8ff" points="1771.8,-152.38 1779.85,-145.49 1769.26,-145.85 1771.8,-152.38"/>
</g>
<!-- Node29&#45;&gt;Node3 -->
<g id="edge47" class="edge">
<title>Node29&#45;&gt;Node3</title>
<path fill="none" stroke="#63b8ff" d="M1438.99,-186.94C1451.26,-177.01 1468,-163.33 1482.5,-151 1497.85,-137.94 1499.55,-131.9 1516.5,-121 1575.87,-82.81 1651.45,-51.77 1700.63,-33.6"/>
<polygon fill="#63b8ff" stroke="#63b8ff" points="1701.91,-36.86 1710.1,-30.14 1699.51,-30.28 1701.91,-36.86"/>
</g>
<!-- Node29&#45;&gt;Node11 -->
<g id="edge39" class="edge">
<title>Node29&#45;&gt;Node11</title>
<path fill="none" stroke="#63b8ff" d="M1460.41,-186.99C1487.04,-177.25 1523.08,-163.77 1554.5,-151 1556.12,-150.34 1557.79,-149.65 1559.46,-148.95"/>
<polygon fill="#63b8ff" stroke="#63b8ff" points="1561.16,-152.03 1568.97,-144.87 1558.4,-145.6 1561.16,-152.03"/>
</g>
<!-- Node29&#45;&gt;Node12 -->
<g id="edge40" class="edge">
<title>Node29&#45;&gt;Node12</title>
<path fill="none" stroke="#63b8ff" d="M1472.51,-195.62C1498.02,-192.96 1529.39,-189.74 1557.5,-187 1731.19,-170.06 1775.68,-175.25 1948.5,-151 1960.82,-149.27 1974.2,-146.89 1986.15,-144.59"/>
<polygon fill="#63b8ff" stroke="#63b8ff" points="1987.1,-147.97 1996.23,-142.6 1985.74,-141.1 1987.1,-147.97"/>
</g>
<!-- Node29&#45;&gt;Node15 -->
<g id="edge41" class="edge">
<title>Node29&#45;&gt;Node15</title>
<path fill="none" stroke="#63b8ff" d="M1472.62,-193.4C1534.16,-184.1 1640.59,-167.55 1731.5,-151 1744.06,-148.71 1757.85,-145.96 1769.78,-143.51"/>
<polygon fill="#63b8ff" stroke="#63b8ff" points="1770.63,-146.91 1779.71,-141.45 1769.2,-140.05 1770.63,-146.91"/>
</g>
<!-- Node29&#45;&gt;Node18 -->
<g id="edge49" class="edge">
<title>Node29&#45;&gt;Node18</title>
<path fill="none" stroke="#63b8ff" d="M1450.7,-186.82C1469.76,-177.27 1495.01,-164.08 1516.5,-151 1536.4,-138.88 1537.54,-128.81 1559.5,-121 1661.5,-84.72 1992.44,-78.02 2113.03,-76.78"/>
<polygon fill="#63b8ff" stroke="#63b8ff" points="2113.39,-80.28 2123.36,-76.68 2113.32,-73.28 2113.39,-80.28"/>
</g>
<!-- Node30 -->
<g id="node30" class="node">
<title>Node30</title>
<g id="a_node30"><a xlink:title=" ">
<polygon fill="#e0e0e0" stroke="#999999" points="1164,-151 1051,-151 1051,-121 1164,-121 1164,-151"/>
<text text-anchor="start" x="1059" y="-139" font-family="Helvetica,sans-Serif" font-size="10.00">flutter/basic_message</text>
<text text-anchor="middle" x="1107.5" y="-128" font-family="Helvetica,sans-Serif" font-size="10.00">_channel.h</text>
</a>
</g>
</g>
<!-- Node29&#45;&gt;Node30 -->
<g id="edge42" class="edge">
<title>Node29&#45;&gt;Node30</title>
<path fill="none" stroke="#63b8ff" d="M1370.17,-190.81C1322.15,-181.24 1248.16,-166.4 1174,-151.09"/>
<polygon fill="#63b8ff" stroke="#63b8ff" points="1174.52,-147.62 1164.02,-149.03 1173.1,-154.48 1174.52,-147.62"/>
</g>
<!-- Node31 -->
<g id="node31" class="node">
<title>Node31</title>
<g id="a_node31"><a xlink:title=" ">
<polygon fill="#e0e0e0" stroke="#999999" points="1032.5,-145.5 900.5,-145.5 900.5,-126.5 1032.5,-126.5 1032.5,-145.5"/>
<text text-anchor="middle" x="966.5" y="-133.5" font-family="Helvetica,sans-Serif" font-size="10.00">flutter/binary_messenger.h</text>
</a>
</g>
</g>
<!-- Node29&#45;&gt;Node31 -->
<g id="edge43" class="edge">
<title>Node29&#45;&gt;Node31</title>
<path fill="none" stroke="#63b8ff" d="M1370.36,-195.16C1297.27,-186.6 1158.8,-169.65 1041.5,-151 1034.64,-149.91 1027.45,-148.68 1020.35,-147.41"/>
<polygon fill="#63b8ff" stroke="#63b8ff" points="1020.52,-143.89 1010.06,-145.54 1019.27,-150.77 1020.52,-143.89"/>
</g>
<!-- Node32 -->
<g id="node32" class="node">
<title>Node32</title>
<g id="a_node32"><a xlink:title=" ">
<polygon fill="#e0e0e0" stroke="#999999" points="1474,-151 1311,-151 1311,-121 1474,-121 1474,-151"/>
<text text-anchor="start" x="1319" y="-139" font-family="Helvetica,sans-Serif" font-size="10.00">flutter/shell/platform</text>
<text text-anchor="middle" x="1392.5" y="-128" font-family="Helvetica,sans-Serif" font-size="10.00">/common/json_message_codec.h</text>
</a>
</g>
</g>
<!-- Node29&#45;&gt;Node32 -->
<g id="edge44" class="edge">
<title>Node29&#45;&gt;Node32</title>
<path fill="none" stroke="#63b8ff" d="M1415.06,-186.8C1411.53,-179.01 1407.07,-169.16 1403.05,-160.28"/>
<polygon fill="#63b8ff" stroke="#63b8ff" points="1406.23,-158.83 1398.92,-151.16 1399.86,-161.72 1406.23,-158.83"/>
</g>
<!-- Node33 -->
<g id="node33" class="node">
<title>Node33</title>
<g id="a_node33"><a xlink:title=" ">
<polygon fill="#e0e0e0" stroke="#999999" points="1723,-145.5 1622,-145.5 1622,-126.5 1723,-126.5 1723,-145.5"/>
<text text-anchor="middle" x="1672.5" y="-133.5" font-family="Helvetica,sans-Serif" font-size="10.00">flutter/fml/macros.h</text>
</a>
</g>
</g>
<!-- Node29&#45;&gt;Node33 -->
<g id="edge45" class="edge">
<title>Node29&#45;&gt;Node33</title>
<path fill="none" stroke="#63b8ff" d="M1472.6,-187.97C1518.74,-176.21 1585.89,-159.08 1629.38,-147.99"/>
<polygon fill="#63b8ff" stroke="#63b8ff" points="1630.27,-151.38 1639.09,-145.52 1628.54,-144.6 1630.27,-151.38"/>
</g>
<!-- Node34 -->
<g id="node34" class="node">
<title>Node34</title>
<g id="a_node34"><a xlink:title=" ">
<polygon fill="#e0e0e0" stroke="#999999" points="1292.5,-145.5 1182.5,-145.5 1182.5,-126.5 1292.5,-126.5 1292.5,-145.5"/>
<text text-anchor="middle" x="1237.5" y="-133.5" font-family="Helvetica,sans-Serif" font-size="10.00">rapidjson/document.h</text>
</a>
</g>
</g>
<!-- Node29&#45;&gt;Node34 -->
<g id="edge46" class="edge">
<title>Node29&#45;&gt;Node34</title>
<path fill="none" stroke="#63b8ff" d="M1381.12,-186.95C1348.28,-175.53 1302.47,-159.6 1271.49,-148.82"/>
<polygon fill="#63b8ff" stroke="#63b8ff" points="1272.58,-145.5 1261.99,-145.52 1270.28,-152.11 1272.58,-145.5"/>
</g>
<!-- Node35 -->
<g id="node35" class="node">
<title>Node35</title>
<g id="a_node35"><a xlink:title=" ">
<polygon fill="#e0e0e0" stroke="#999999" points="882.5,-145.5 748.5,-145.5 748.5,-126.5 882.5,-126.5 882.5,-145.5"/>
<text text-anchor="middle" x="815.5" y="-133.5" font-family="Helvetica,sans-Serif" font-size="10.00">xkbcommon/xkbcommon.h</text>
</a>
</g>
</g>
<!-- Node29&#45;&gt;Node35 -->
<g id="edge48" class="edge">
<title>Node29&#45;&gt;Node35</title>
<path fill="none" stroke="#63b8ff" d="M1370.16,-197.67C1275.32,-191.17 1066.35,-175.3 891.5,-151 883.84,-149.94 875.77,-148.64 867.87,-147.27"/>
<polygon fill="#63b8ff" stroke="#63b8ff" points="868.46,-143.82 858,-145.51 867.23,-150.71 868.46,-143.82"/>
</g>
<!-- Node36&#45;&gt;Node3 -->
<g id="edge61" class="edge">
<title>Node36&#45;&gt;Node3</title>
<path fill="none" stroke="#63b8ff" d="M841.99,-199.74C674.01,-195.15 125.97,-178.13 100.5,-151 91.37,-141.28 91.38,-130.72 100.5,-121 155.37,-62.53 1371.09,-26.16 1680.41,-17.84"/>
<polygon fill="#63b8ff" stroke="#63b8ff" points="1680.7,-21.33 1690.6,-17.56 1680.51,-14.33 1680.7,-21.33"/>
</g>
<!-- Node36&#45;&gt;Node11 -->
<g id="edge51" class="edge">
<title>Node36&#45;&gt;Node11</title>
<path fill="none" stroke="#63b8ff" d="M939.31,-197.7C1040.67,-190.67 1281.28,-173.03 1482.5,-151 1508.41,-148.16 1537.84,-144.13 1558.76,-141.11"/>
<polygon fill="#63b8ff" stroke="#63b8ff" points="1559.47,-144.55 1568.87,-139.64 1558.47,-137.62 1559.47,-144.55"/>
</g>
<!-- Node36&#45;&gt;Node12 -->
<g id="edge52" class="edge">
<title>Node36&#45;&gt;Node12</title>
<path fill="none" stroke="#63b8ff" d="M939.11,-199.61C1119.31,-194.3 1748.98,-174.47 1948.5,-151 1960.85,-149.55 1974.24,-147.24 1986.2,-144.92"/>
<polygon fill="#63b8ff" stroke="#63b8ff" points="1987.15,-148.29 1996.27,-142.89 1985.77,-141.43 1987.15,-148.29"/>
</g>
<!-- Node36&#45;&gt;Node15 -->
<g id="edge53" class="edge">
<title>Node36&#45;&gt;Node15</title>
<path fill="none" stroke="#63b8ff" d="M939.08,-200.5C1068.47,-198.65 1432,-190.09 1731.5,-151 1744.16,-149.35 1757.97,-146.71 1769.88,-144.18"/>
<polygon fill="#63b8ff" stroke="#63b8ff" points="1770.78,-147.56 1779.79,-142 1769.28,-140.73 1770.78,-147.56"/>
</g>
<!-- Node36&#45;&gt;Node18 -->
<g id="edge63" class="edge">
<title>Node36&#45;&gt;Node18</title>
<path fill="none" stroke="#63b8ff" d="M841.91,-192.85C785.3,-181.43 703.78,-157.86 739.5,-121 763.99,-95.73 1875.56,-80.1 2113.12,-77.05"/>
<polygon fill="#63b8ff" stroke="#63b8ff" points="2113.49,-80.55 2123.45,-76.92 2113.41,-73.55 2113.49,-80.55"/>
</g>
<!-- Node36&#45;&gt;Node31 -->
<g id="edge54" class="edge">
<title>Node36&#45;&gt;Node31</title>
<path fill="none" stroke="#63b8ff" d="M907.37,-186.8C919.45,-176.62 935.71,-162.93 948.12,-152.48"/>
<polygon fill="#63b8ff" stroke="#63b8ff" points="950.6,-154.96 956,-145.84 946.09,-149.61 950.6,-154.96"/>
</g>
<!-- Node36&#45;&gt;Node33 -->
<g id="edge57" class="edge">
<title>Node36&#45;&gt;Node33</title>
<path fill="none" stroke="#63b8ff" d="M939.39,-200.31C1056.33,-198.07 1361.2,-188.77 1612.5,-151 1618.33,-150.12 1624.43,-148.98 1630.41,-147.72"/>
<polygon fill="#63b8ff" stroke="#63b8ff" points="1631.3,-151.1 1640.3,-145.51 1629.78,-144.27 1631.3,-151.1"/>
</g>
<!-- Node36&#45;&gt;Node34 -->
<g id="edge60" class="edge">
<title>Node36&#45;&gt;Node34</title>
<path fill="none" stroke="#63b8ff" d="M939,-192.96C995.27,-183.5 1090.78,-167.04 1172.5,-151 1177.88,-149.94 1183.5,-148.8 1189.09,-147.63"/>
<polygon fill="#63b8ff" stroke="#63b8ff" points="1189.99,-151.02 1199.05,-145.52 1188.55,-144.17 1189.99,-151.02"/>
</g>
<!-- Node36&#45;&gt;Node35 -->
<g id="edge62" class="edge">
<title>Node36&#45;&gt;Node35</title>
<path fill="none" stroke="#63b8ff" d="M873.86,-186.8C861.93,-176.62 845.89,-162.93 833.64,-152.48"/>
<polygon fill="#63b8ff" stroke="#63b8ff" points="835.74,-149.67 825.86,-145.84 831.2,-155 835.74,-149.67"/>
</g>
<!-- Node37 -->
<g id="node37" class="node">
<title>Node37</title>
<g id="a_node37"><a xlink:title=" ">
<polygon fill="#e0e0e0" stroke="#999999" points="233.5,-145.5 109.5,-145.5 109.5,-126.5 233.5,-126.5 233.5,-145.5"/>
<text text-anchor="middle" x="171.5" y="-133.5" font-family="Helvetica,sans-Serif" font-size="10.00">flutter/method_channel.h</text>
</a>
</g>
</g>
<!-- Node36&#45;&gt;Node37 -->
<g id="edge55" class="edge">
<title>Node36&#45;&gt;Node37</title>
<path fill="none" stroke="#63b8ff" d="M841.93,-199.21C733.81,-194.79 465.25,-181.45 242.5,-151 235.31,-150.02 227.75,-148.77 220.36,-147.42"/>
<polygon fill="#63b8ff" stroke="#63b8ff" points="220.9,-143.96 210.42,-145.53 219.6,-150.83 220.9,-143.96"/>
</g>
<!-- Node38 -->
<g id="node38" class="node">
<title>Node38</title>
<g id="a_node38"><a xlink:title=" ">
<polygon fill="#e0e0e0" stroke="#999999" points="357.5,-151 251.5,-151 251.5,-121 357.5,-121 357.5,-151"/>
<text text-anchor="start" x="259.5" y="-139" font-family="Helvetica,sans-Serif" font-size="10.00">flutter/method_result</text>
<text text-anchor="middle" x="304.5" y="-128" font-family="Helvetica,sans-Serif" font-size="10.00">_functions.h</text>
</a>
</g>
</g>
<!-- Node36&#45;&gt;Node38 -->
<g id="edge56" class="edge">
<title>Node36&#45;&gt;Node38</title>
<path fill="none" stroke="#63b8ff" d="M841.84,-198.43C750.64,-193.15 547.71,-179.3 367.44,-151.01"/>
<polygon fill="#63b8ff" stroke="#63b8ff" points="367.94,-147.55 357.51,-149.44 366.84,-154.46 367.94,-147.55"/>
</g>
<!-- Node39 -->
<g id="node39" class="node">
<title>Node39</title>
<g id="a_node39"><a xlink:title=" ">
<polygon fill="#e0e0e0" stroke="#999999" points="531,-151 376,-151 376,-121 531,-121 531,-151"/>
<text text-anchor="start" x="384" y="-139" font-family="Helvetica,sans-Serif" font-size="10.00">flutter/shell/platform</text>
<text text-anchor="middle" x="453.5" y="-128" font-family="Helvetica,sans-Serif" font-size="10.00">/common/json_method_codec.h</text>
</a>
</g>
</g>
<!-- Node36&#45;&gt;Node39 -->
<g id="edge58" class="edge">
<title>Node36&#45;&gt;Node39</title>
<path fill="none" stroke="#63b8ff" d="M841.91,-194.39C776.11,-185.37 654.73,-168.49 541.53,-151.29"/>
<polygon fill="#63b8ff" stroke="#63b8ff" points="541.72,-147.78 531.3,-149.74 540.66,-154.7 541.72,-147.78"/>
</g>
<!-- Node40 -->
<g id="node40" class="node">
<title>Node40</title>
<g id="a_node40"><a xlink:title=" ">
<polygon fill="#e0e0e0" stroke="#999999" points="692,-151 549,-151 549,-121 692,-121 692,-151"/>
<text text-anchor="start" x="557" y="-139" font-family="Helvetica,sans-Serif" font-size="10.00">flutter/shell/platform</text>
<text text-anchor="middle" x="620.5" y="-128" font-family="Helvetica,sans-Serif" font-size="10.00">/common/text_input_model.h</text>
</a>
</g>
</g>
<!-- Node36&#45;&gt;Node40 -->
<g id="edge59" class="edge">
<title>Node36&#45;&gt;Node40</title>
<path fill="none" stroke="#63b8ff" d="M841.92,-189.48C799.54,-179.44 737.55,-164.75 689.94,-153.46"/>
<polygon fill="#63b8ff" stroke="#63b8ff" points="690.55,-150.01 680.01,-151.11 688.93,-156.82 690.55,-150.01"/>
</g>
<!-- Node41&#45;&gt;Node11 -->
<g id="edge65" class="edge">
<title>Node41&#45;&gt;Node11</title>
<path fill="none" stroke="#63b8ff" d="M2052.28,-254.15C2048.97,-253.74 2045.69,-253.35 2042.5,-253 1988.78,-247.14 1594.27,-256.6 1557.5,-217 1540.91,-199.14 1557.76,-171.07 1571.82,-153.37"/>
<polygon fill="#63b8ff" stroke="#63b8ff" points="1574.6,-155.51 1578.35,-145.6 1569.24,-151.01 1574.6,-155.51"/>
</g>
<!-- Node41&#45;&gt;Node12 -->
<g id="edge66" class="edge">
<title>Node41&#45;&gt;Node12</title>
<path fill="none" stroke="#63b8ff" d="M2084.12,-252.98C2070.47,-245.39 2052.07,-233.02 2041.5,-217 2029.37,-198.6 2024.96,-173.3 2023.37,-156.11"/>
<polygon fill="#63b8ff" stroke="#63b8ff" points="2026.83,-155.43 2022.66,-145.7 2019.85,-155.91 2026.83,-155.43"/>
</g>
<!-- Node41&#45;&gt;Node33 -->
<g id="edge72" class="edge">
<title>Node41&#45;&gt;Node33</title>
<path fill="none" stroke="#63b8ff" d="M2052.26,-254.28C2048.96,-253.83 2045.68,-253.4 2042.5,-253 1969.54,-243.75 1774.07,-258.72 1713.5,-217 1692.55,-202.57 1681.65,-174.08 1676.51,-155.29"/>
<polygon fill="#63b8ff" stroke="#63b8ff" points="1679.89,-154.4 1674.11,-145.52 1673.09,-156.07 1679.89,-154.4"/>
</g>
<!-- Node42 -->
<g id="node42" class="node">
<title>Node42</title>
<g id="a_node42"><a xlink:href="configuration_8h.html" target="_top" xlink:title=" ">
<polygon fill="white" stroke="#666666" points="1862,-211.5 1723,-211.5 1723,-192.5 1862,-192.5 1862,-211.5"/>
<text text-anchor="middle" x="1792.5" y="-199.5" font-family="Helvetica,sans-Serif" font-size="10.00">configuration/configuration.h</text>
</a>
</g>
</g>
<!-- Node41&#45;&gt;Node42 -->
<g id="edge67" class="edge">
<title>Node41&#45;&gt;Node42</title>
<path fill="none" stroke="#63b8ff" d="M2056.57,-252.99C2001.19,-242.51 1907.11,-224.7 1847.48,-213.41"/>
<polygon fill="#63b8ff" stroke="#63b8ff" points="1847.96,-209.94 1837.49,-211.52 1846.66,-216.82 1847.96,-209.94"/>
</g>
<!-- Node43 -->
<g id="node43" class="node">
<title>Node43</title>
<g id="a_node43"><a xlink:href="window_8h.html" target="_top" xlink:title=" ">
<polygon fill="white" stroke="#666666" points="2146.5,-211.5 2050.5,-211.5 2050.5,-192.5 2146.5,-192.5 2146.5,-211.5"/>
<text text-anchor="middle" x="2098.5" y="-199.5" font-family="Helvetica,sans-Serif" font-size="10.00">wayland/window.h</text>
</a>
</g>
</g>
<!-- Node41&#45;&gt;Node43 -->
<g id="edge73" class="edge">
<title>Node41&#45;&gt;Node43</title>
<path fill="none" stroke="#63b8ff" d="M2101.06,-252.87C2100.64,-244.75 2100,-232.31 2099.47,-221.89"/>
<polygon fill="#63b8ff" stroke="#63b8ff" points="2102.95,-221.47 2098.94,-211.67 2095.96,-221.83 2102.95,-221.47"/>
</g>
<!-- Node42&#45;&gt;Node15 -->
<g id="edge68" class="edge">
<title>Node42&#45;&gt;Node15</title>
<path fill="none" stroke="#63b8ff" d="M1793.58,-192.37C1794.74,-183.07 1796.63,-167.98 1798.14,-155.9"/>
<polygon fill="#63b8ff" stroke="#63b8ff" points="1801.62,-156.26 1799.39,-145.91 1794.67,-155.39 1801.62,-156.26"/>
</g>
<!-- Node42&#45;&gt;Node16 -->
<g id="edge69" class="edge">
<title>Node42&#45;&gt;Node16</title>
<path fill="none" stroke="#63b8ff" d="M1862.24,-192.46C1916.34,-184.74 1992.75,-171.41 2057.5,-151 2058.94,-150.55 2060.41,-150.04 2061.88,-149.5"/>
<polygon fill="#63b8ff" stroke="#63b8ff" points="2063.48,-152.63 2071.4,-145.59 2060.82,-146.15 2063.48,-152.63"/>
</g>
<!-- Node42&#45;&gt;Node33 -->
<g id="edge70" class="edge">
<title>Node42&#45;&gt;Node33</title>
<path fill="none" stroke="#63b8ff" d="M1776.32,-192.37C1756.19,-181.63 1721.59,-163.18 1697.91,-150.55"/>
<polygon fill="#63b8ff" stroke="#63b8ff" points="1699.28,-147.32 1688.81,-145.7 1695.99,-153.49 1699.28,-147.32"/>
</g>
<!-- Node42&#45;&gt;Node34 -->
<g id="edge71" class="edge">
<title>Node42&#45;&gt;Node34</title>
<path fill="none" stroke="#63b8ff" d="M1722.96,-192.49C1707.04,-190.62 1690.19,-188.69 1674.5,-187 1508.91,-169.19 1466.03,-176.84 1301.5,-151 1295.53,-150.06 1289.27,-148.91 1283.11,-147.67"/>
<polygon fill="#63b8ff" stroke="#63b8ff" points="1283.41,-144.16 1272.9,-145.53 1281.97,-151.01 1283.41,-144.16"/>
</g>
<!-- Node43&#45;&gt;Node12 -->
<g id="edge74" class="edge">
<title>Node43&#45;&gt;Node12</title>
<path fill="none" stroke="#63b8ff" d="M2088.25,-192.37C2076.19,-182.21 2055.94,-165.16 2041.09,-152.65"/>
<polygon fill="#63b8ff" stroke="#63b8ff" points="2042.98,-149.67 2033.07,-145.91 2038.47,-155.02 2042.98,-149.67"/>
</g>
<!-- Node43&#45;&gt;Node15 -->
<g id="edge75" class="edge">
<title>Node43&#45;&gt;Node15</title>
<path fill="none" stroke="#63b8ff" d="M2050.27,-193.61C1984.35,-183.25 1869.73,-164.19 1829.5,-151 1828.27,-150.6 1827.03,-150.16 1825.79,-149.68"/>
<polygon fill="#63b8ff" stroke="#63b8ff" points="1827.01,-146.39 1816.44,-145.63 1824.23,-152.82 1827.01,-146.39"/>
</g>
<!-- Node43&#45;&gt;Node17 -->
<g id="edge79" class="edge">
<title>Node43&#45;&gt;Node17</title>
<path fill="none" stroke="#63b8ff" d="M2070.31,-192.37C2033.36,-181.05 1968.41,-161.16 1927.24,-148.56"/>
<polygon fill="#63b8ff" stroke="#63b8ff" points="1928.16,-145.18 1917.57,-145.6 1926.11,-151.87 1928.16,-145.18"/>
</g>
<!-- Node43&#45;&gt;Node18 -->
<g id="edge78" class="edge">
<title>Node43&#45;&gt;Node18</title>
<path fill="none" stroke="#63b8ff" d="M2130.49,-192.48C2177.81,-179.72 2261.37,-156.55 2265.5,-151 2273.46,-140.3 2272.92,-132.08 2265.5,-121 2251.25,-99.72 2224.77,-88.6 2201.6,-82.8"/>
<polygon fill="#63b8ff" stroke="#63b8ff" points="2202.1,-79.33 2191.58,-80.56 2200.57,-86.16 2202.1,-79.33"/>
</g>
<!-- Node44 -->
<g id="node44" class="node">
<title>Node44</title>
<g id="a_node44"><a xlink:title=" ">
<polygon fill="#e0e0e0" stroke="#999999" points="2362,-145.5 2313,-145.5 2313,-126.5 2362,-126.5 2362,-145.5"/>
<text text-anchor="middle" x="2337.5" y="-133.5" font-family="Helvetica,sans-Serif" font-size="10.00">cassert</text>
</a>
</g>
</g>
<!-- Node43&#45;&gt;Node44 -->
<g id="edge76" class="edge">
<title>Node43&#45;&gt;Node44</title>
<path fill="none" stroke="#63b8ff" d="M2132.95,-192.48C2188.02,-178.85 2290.52,-153.42 2298.5,-151 2300.77,-150.31 2303.09,-149.57 2305.43,-148.8"/>
<polygon fill="#63b8ff" stroke="#63b8ff" points="2306.62,-152.09 2314.94,-145.53 2304.35,-145.47 2306.62,-152.09"/>
</g>
<!-- Node45 -->
<g id="node45" class="node">
<title>Node45</title>
<g id="a_node45"><a xlink:title=" ">
<polygon fill="#e0e0e0" stroke="#999999" points="2505,-145.5 2380,-145.5 2380,-126.5 2505,-126.5 2505,-145.5"/>
<text text-anchor="middle" x="2442.5" y="-133.5" font-family="Helvetica,sans-Serif" font-size="10.00">agl&#45;shell&#45;client&#45;protocol.h</text>
</a>
</g>
</g>
<!-- Node43&#45;&gt;Node45 -->
<g id="edge77" class="edge">
<title>Node43&#45;&gt;Node45</title>
<path fill="none" stroke="#63b8ff" d="M2131.56,-192.44C2139.38,-190.53 2147.72,-188.61 2155.5,-187 2250.39,-167.43 2275.16,-168.25 2370.5,-151 2376.67,-149.88 2383.12,-148.68 2389.53,-147.46"/>
<polygon fill="#63b8ff" stroke="#63b8ff" points="2390.35,-150.87 2399.51,-145.55 2389.03,-143.99 2390.35,-150.87"/>
</g>
<!-- Node46 -->
<g id="node46" class="node">
<title>Node46</title>
<g id="a_node46"><a xlink:title=" ">
<polygon fill="#e0e0e0" stroke="#999999" points="2625.5,-151 2523.5,-151 2523.5,-121 2625.5,-121 2625.5,-151"/>
<text text-anchor="start" x="2531.5" y="-139" font-family="Helvetica,sans-Serif" font-size="10.00">ivi&#45;application&#45;client</text>
<text text-anchor="middle" x="2574.5" y="-128" font-family="Helvetica,sans-Serif" font-size="10.00">&#45;protocol.h</text>
</a>
</g>
</g>
<!-- Node43&#45;&gt;Node46 -->
<g id="edge80" class="edge">
<title>Node43&#45;&gt;Node46</title>
<path fill="none" stroke="#63b8ff" d="M2129.69,-192.5C2138.03,-190.46 2147.06,-188.45 2155.5,-187 2310.29,-160.37 2354.51,-176.58 2513.09,-151.09"/>
<polygon fill="#63b8ff" stroke="#63b8ff" points="2513.9,-154.5 2523.2,-149.43 2512.77,-147.59 2513.9,-154.5"/>
</g>
<!-- Node47 -->
<g id="node47" class="node">
<title>Node47</title>
<g id="a_node47"><a xlink:title=" ">
<polygon fill="#e0e0e0" stroke="#999999" points="2761,-145.5 2644,-145.5 2644,-126.5 2761,-126.5 2761,-145.5"/>
<text text-anchor="middle" x="2702.5" y="-133.5" font-family="Helvetica,sans-Serif" font-size="10.00">ivi&#45;wm&#45;client&#45;protocol.h</text>
</a>
</g>
</g>
<!-- Node43&#45;&gt;Node47 -->
<g id="edge81" class="edge">
<title>Node43&#45;&gt;Node47</title>
<path fill="none" stroke="#63b8ff" d="M2129.37,-192.43C2137.79,-190.36 2146.95,-188.36 2155.5,-187 2366.33,-153.42 2423.07,-180.59 2634.5,-151 2641.24,-150.06 2648.31,-148.85 2655.24,-147.54"/>
<polygon fill="#63b8ff" stroke="#63b8ff" points="2656.11,-150.94 2665.24,-145.57 2654.75,-144.07 2656.11,-150.94"/>
</g>
<!-- Node48 -->
<g id="node48" class="node">
<title>Node48</title>
<g id="a_node48"><a xlink:title=" ">
<polygon fill="#e0e0e0" stroke="#999999" points="2256.5,-145.5 2128.5,-145.5 2128.5,-126.5 2256.5,-126.5 2256.5,-145.5"/>
<text text-anchor="middle" x="2192.5" y="-133.5" font-family="Helvetica,sans-Serif" font-size="10.00">xdg&#45;shell&#45;client&#45;protocol.h</text>
</a>
</g>
</g>
<!-- Node43&#45;&gt;Node48 -->
<g id="edge82" class="edge">
<title>Node43&#45;&gt;Node48</title>
<path fill="none" stroke="#63b8ff" d="M2111.18,-192.37C2126.59,-181.87 2152.85,-164 2171.35,-151.4"/>
<polygon fill="#63b8ff" stroke="#63b8ff" points="2173.43,-154.22 2179.72,-145.7 2169.49,-148.43 2173.43,-154.22"/>
</g>
</g>
</svg>
