<?xml version="1.0" encoding="UTF-8" standalone="no"?>
<!DOCTYPE svg PUBLIC "-//W3C//DTD SVG 1.1//EN"
 "http://www.w3.org/Graphics/SVG/1.1/DTD/svg11.dtd">
<!-- Generated by graphviz version 2.43.0 (0)
 -->
<!-- Title: /home/joel.winarske@toyotaconnected.com/development/workspace&#45;automation&#45;configs/app/ivi&#45;homescreen/shell/static_plugins/key_event/key_event.cc Pages: 1 -->
<svg width="2869pt" height="452pt"
 viewBox="0.00 0.00 2869.22 452.00" xmlns="http://www.w3.org/2000/svg" xmlns:xlink="http://www.w3.org/1999/xlink">
<g id="graph0" class="graph" transform="scale(1 1) rotate(0) translate(4 448)">
<title>/home/joel.winarske@toyotaconnected.com/development/workspace&#45;automation&#45;configs/app/ivi&#45;homescreen/shell/static_plugins/key_event/key_event.cc</title>
<polygon fill="white" stroke="transparent" points="-4,4 -4,-448 2865.22,-448 2865.22,4 -4,4"/>
<!-- Node1 -->
<g id="node1" class="node">
<title>Node1</title>
<g id="a_node1"><a xlink:title=" ">
<polygon fill="#bfbfbf" stroke="black" points="215.22,-369.5 215.22,-443.5 392.22,-443.5 392.22,-369.5 215.22,-369.5"/>
<text text-anchor="start" x="223.22" y="-431.5" font-family="Helvetica,sans-Serif" font-size="10.00">/home/joel.winarske</text>
<text text-anchor="start" x="223.22" y="-420.5" font-family="Helvetica,sans-Serif" font-size="10.00">@toyotaconnected.com</text>
<text text-anchor="start" x="223.22" y="-409.5" font-family="Helvetica,sans-Serif" font-size="10.00">/development/workspace</text>
<text text-anchor="start" x="223.22" y="-398.5" font-family="Helvetica,sans-Serif" font-size="10.00">&#45;automation&#45;configs/app</text>
<text text-anchor="start" x="223.22" y="-387.5" font-family="Helvetica,sans-Serif" font-size="10.00">/ivi&#45;homescreen/shell/static</text>
<text text-anchor="middle" x="303.72" y="-376.5" font-family="Helvetica,sans-Serif" font-size="10.00">_plugins/key_event/key_event.cc</text>
</a>
</g>
</g>
<!-- Node2 -->
<g id="node2" class="node">
<title>Node2</title>
<g id="a_node2"><a xlink:href="constants_8h.html" target="_top" xlink:title=" ">
<polygon fill="white" stroke="black" points="1447.22,-67.5 1447.22,-86.5 1520.22,-86.5 1520.22,-67.5 1447.22,-67.5"/>
<text text-anchor="middle" x="1483.72" y="-74.5" font-family="Helvetica,sans-Serif" font-size="10.00">constants.h</text>
</a>
</g>
</g>
<!-- Node1&#45;&gt;Node2 -->
<g id="edge1" class="edge">
<title>Node1&#45;&gt;Node2</title>
<path fill="none" stroke="midnightblue" d="M246.64,-369.28C148.02,-304.63 -39.45,-171.63 7.72,-123 33.21,-96.72 1188.8,-81.51 1437.07,-78.54"/>
<polygon fill="midnightblue" stroke="midnightblue" points="1437.24,-82.04 1447.2,-78.42 1437.16,-75.04 1437.24,-82.04"/>
</g>
<!-- Node6 -->
<g id="node6" class="node">
<title>Node6</title>
<g id="a_node6"><a xlink:title=" ">
<polygon fill="white" stroke="#bfbfbf" points="80.72,-313.5 80.72,-332.5 130.72,-332.5 130.72,-313.5 80.72,-313.5"/>
<text text-anchor="middle" x="105.72" y="-320.5" font-family="Helvetica,sans-Serif" font-size="10.00">cstring</text>
</a>
</g>
</g>
<!-- Node1&#45;&gt;Node6 -->
<g id="edge5" class="edge">
<title>Node1&#45;&gt;Node6</title>
<path fill="none" stroke="midnightblue" d="M216.01,-369.4C187.44,-357.63 157.59,-345.35 136.17,-336.53"/>
<polygon fill="midnightblue" stroke="midnightblue" points="137.24,-333.19 126.66,-332.62 134.57,-339.66 137.24,-333.19"/>
</g>
<!-- Node7 -->
<g id="node7" class="node">
<title>Node7</title>
<g id="a_node7"><a xlink:title=" ">
<polygon fill="white" stroke="#bfbfbf" points="2595.72,-129 2595.72,-148 2653.72,-148 2653.72,-129 2595.72,-129"/>
<text text-anchor="middle" x="2624.72" y="-136" font-family="Helvetica,sans-Serif" font-size="10.00">memory</text>
</a>
</g>
</g>
<!-- Node1&#45;&gt;Node7 -->
<g id="edge6" class="edge">
<title>Node1&#45;&gt;Node7</title>
<path fill="none" stroke="midnightblue" d="M392.44,-404.18C650.17,-399.84 1421.08,-383.3 2058.72,-333 2272.84,-316.11 2357.21,-391.82 2538.72,-277 2583.23,-248.85 2608.61,-188.44 2619.05,-157.93"/>
<polygon fill="midnightblue" stroke="midnightblue" points="2622.47,-158.75 2622.23,-148.16 2615.81,-156.59 2622.47,-158.75"/>
</g>
<!-- Node8 -->
<g id="node8" class="node">
<title>Node8</title>
<g id="a_node8"><a xlink:title=" ">
<polygon fill="white" stroke="#bfbfbf" points="16.72,-123.5 16.72,-153.5 140.72,-153.5 140.72,-123.5 16.72,-123.5"/>
<text text-anchor="start" x="24.72" y="-141.5" font-family="Helvetica,sans-Serif" font-size="10.00">flutter/basic_message</text>
<text text-anchor="middle" x="78.72" y="-130.5" font-family="Helvetica,sans-Serif" font-size="10.00">_channel.h</text>
</a>
</g>
</g>
<!-- Node1&#45;&gt;Node8 -->
<g id="edge7" class="edge">
<title>Node1&#45;&gt;Node8</title>
<path fill="none" stroke="midnightblue" d="M215.22,-402.38C164.45,-395.48 104.47,-377.54 71.72,-333 34.53,-282.41 55.34,-202.61 69.31,-163.18"/>
<polygon fill="midnightblue" stroke="midnightblue" points="72.66,-164.22 72.85,-153.62 66.1,-161.79 72.66,-164.22"/>
</g>
<!-- Node9 -->
<g id="node9" class="node">
<title>Node9</title>
<g id="a_node9"><a xlink:title=" ">
<polygon fill="white" stroke="#bfbfbf" points="196.72,-123.5 196.72,-153.5 374.72,-153.5 374.72,-123.5 196.72,-123.5"/>
<text text-anchor="start" x="204.72" y="-141.5" font-family="Helvetica,sans-Serif" font-size="10.00">flutter/shell/platform</text>
<text text-anchor="middle" x="285.72" y="-130.5" font-family="Helvetica,sans-Serif" font-size="10.00">/common/json_message_codec.h</text>
</a>
</g>
</g>
<!-- Node1&#45;&gt;Node9 -->
<g id="edge8" class="edge">
<title>Node1&#45;&gt;Node9</title>
<path fill="none" stroke="midnightblue" d="M295.46,-369.17C293.17,-357.67 290.98,-344.86 289.72,-333 283.3,-272.44 283.97,-200.64 284.91,-163.87"/>
<polygon fill="midnightblue" stroke="midnightblue" points="288.41,-163.73 285.2,-153.63 281.41,-163.53 288.41,-163.73"/>
</g>
<!-- Node10 -->
<g id="node10" class="node">
<title>Node10</title>
<g id="a_node10"><a xlink:title=" ">
<polygon fill="white" stroke="#bfbfbf" points="430.72,-129 430.72,-148 580.72,-148 580.72,-129 430.72,-129"/>
<text text-anchor="middle" x="505.72" y="-136" font-family="Helvetica,sans-Serif" font-size="10.00">xkbcommon/xkbcommon.h</text>
</a>
</g>
</g>
<!-- Node1&#45;&gt;Node10 -->
<g id="edge9" class="edge">
<title>Node1&#45;&gt;Node10</title>
<path fill="none" stroke="midnightblue" d="M331.18,-369.35C375.4,-311.12 460.7,-198.8 492.95,-156.32"/>
<polygon fill="midnightblue" stroke="midnightblue" points="495.9,-158.23 499.16,-148.15 490.32,-154 495.9,-158.23"/>
</g>
<!-- Node11 -->
<g id="node11" class="node">
<title>Node11</title>
<g id="a_node11"><a xlink:href="engine_8h.html" target="_top" xlink:title=" ">
<polygon fill="white" stroke="black" points="1991.22,-313.5 1991.22,-332.5 2050.22,-332.5 2050.22,-313.5 1991.22,-313.5"/>
<text text-anchor="middle" x="2020.72" y="-320.5" font-family="Helvetica,sans-Serif" font-size="10.00">engine.h</text>
</a>
</g>
</g>
<!-- Node1&#45;&gt;Node11 -->
<g id="edge10" class="edge">
<title>Node1&#45;&gt;Node11</title>
<path fill="none" stroke="midnightblue" d="M392.42,-401.29C707.1,-386.35 1762.84,-336.24 1981.05,-325.88"/>
<polygon fill="midnightblue" stroke="midnightblue" points="1981.27,-329.38 1991.09,-325.41 1980.94,-322.38 1981.27,-329.38"/>
</g>
<!-- Node21 -->
<g id="node21" class="node">
<title>Node21</title>
<g id="a_node21"><a xlink:href="logging_8h.html" target="_top" xlink:title=" ">
<polygon fill="white" stroke="black" points="2747.72,-257.5 2747.72,-276.5 2809.72,-276.5 2809.72,-257.5 2747.72,-257.5"/>
<text text-anchor="middle" x="2778.72" y="-264.5" font-family="Helvetica,sans-Serif" font-size="10.00">logging.h</text>
</a>
</g>
</g>
<!-- Node1&#45;&gt;Node21 -->
<g id="edge77" class="edge">
<title>Node1&#45;&gt;Node21</title>
<path fill="none" stroke="midnightblue" d="M392.48,-405.17C794.67,-403.36 2436.19,-392.38 2657.72,-333 2696.16,-322.7 2735.89,-298.21 2758.91,-282.41"/>
<polygon fill="midnightblue" stroke="midnightblue" points="2760.97,-285.24 2767.14,-276.63 2756.95,-279.51 2760.97,-285.24"/>
</g>
<!-- Node24 -->
<g id="node24" class="node">
<title>Node24</title>
<g id="a_node24"><a xlink:href="key__event_8h.html" target="_top" xlink:title=" ">
<polygon fill="white" stroke="black" points="654.72,-190.5 654.72,-220.5 766.72,-220.5 766.72,-190.5 654.72,-190.5"/>
<text text-anchor="start" x="662.72" y="-208.5" font-family="Helvetica,sans-Serif" font-size="10.00">static_plugins/key</text>
<text text-anchor="middle" x="710.72" y="-197.5" font-family="Helvetica,sans-Serif" font-size="10.00">_event/key_event.h</text>
</a>
</g>
</g>
<!-- Node1&#45;&gt;Node24 -->
<g id="edge76" class="edge">
<title>Node1&#45;&gt;Node24</title>
<path fill="none" stroke="midnightblue" d="M377.43,-369.46C464.33,-326.97 605.42,-257.99 672.7,-225.09"/>
<polygon fill="midnightblue" stroke="midnightblue" points="674.63,-228.05 682.07,-220.51 671.55,-221.76 674.63,-228.05"/>
</g>
<!-- Node3 -->
<g id="node3" class="node">
<title>Node3</title>
<g id="a_node3"><a xlink:title=" ">
<polygon fill="white" stroke="#bfbfbf" points="2270.72,-6 2270.72,-25 2332.72,-25 2332.72,-6 2270.72,-6"/>
<text text-anchor="middle" x="2301.72" y="-13" font-family="Helvetica,sans-Serif" font-size="10.00">EGL/egl.h</text>
</a>
</g>
</g>
<!-- Node2&#45;&gt;Node3 -->
<g id="edge2" class="edge">
<title>Node2&#45;&gt;Node3</title>
<path fill="none" stroke="midnightblue" d="M1520.46,-73.33C1654.82,-63.55 2119.02,-29.79 2260.48,-19.5"/>
<polygon fill="midnightblue" stroke="midnightblue" points="2260.77,-22.99 2270.49,-18.77 2260.26,-16.01 2260.77,-22.99"/>
</g>
<!-- Node4 -->
<g id="node4" class="node">
<title>Node4</title>
<g id="a_node4"><a xlink:title=" ">
<polygon fill="white" stroke="#bfbfbf" points="1698.22,-0.5 1698.22,-30.5 1835.22,-30.5 1835.22,-0.5 1698.22,-0.5"/>
<text text-anchor="start" x="1706.22" y="-18.5" font-family="Helvetica,sans-Serif" font-size="10.00">shell/platform/embedder</text>
<text text-anchor="middle" x="1766.72" y="-7.5" font-family="Helvetica,sans-Serif" font-size="10.00">/embedder.h</text>
</a>
</g>
</g>
<!-- Node2&#45;&gt;Node4 -->
<g id="edge3" class="edge">
<title>Node2&#45;&gt;Node4</title>
<path fill="none" stroke="midnightblue" d="M1520.43,-68.28C1563.16,-59.3 1634.9,-44.22 1689.96,-32.64"/>
<polygon fill="midnightblue" stroke="midnightblue" points="1690.97,-36 1700.04,-30.52 1689.53,-29.15 1690.97,-36"/>
</g>
<!-- Node5 -->
<g id="node5" class="node">
<title>Node5</title>
<g id="a_node5"><a xlink:title=" ">
<polygon fill="white" stroke="#bfbfbf" points="1462.72,-6 1462.72,-25 1504.72,-25 1504.72,-6 1462.72,-6"/>
<text text-anchor="middle" x="1483.72" y="-13" font-family="Helvetica,sans-Serif" font-size="10.00">array</text>
</a>
</g>
</g>
<!-- Node2&#45;&gt;Node5 -->
<g id="edge4" class="edge">
<title>Node2&#45;&gt;Node5</title>
<path fill="none" stroke="midnightblue" d="M1483.72,-67.48C1483.72,-59.08 1483.72,-45.98 1483.72,-35.16"/>
<polygon fill="midnightblue" stroke="midnightblue" points="1487.22,-35.01 1483.72,-25.01 1480.22,-35.01 1487.22,-35.01"/>
</g>
<!-- Node11&#45;&gt;Node2 -->
<g id="edge26" class="edge">
<title>Node11&#45;&gt;Node2</title>
<path fill="none" stroke="midnightblue" d="M1991.17,-321.7C1764.77,-319.06 311.02,-296.64 187.72,-154 178.72,-143.58 178.15,-132.91 187.72,-123 231.94,-77.22 1209.51,-77.21 1436.81,-77.83"/>
<polygon fill="midnightblue" stroke="midnightblue" points="1437.05,-81.33 1447.06,-77.86 1437.07,-74.33 1437.05,-81.33"/>
</g>
<!-- Node11&#45;&gt;Node3 -->
<g id="edge12" class="edge">
<title>Node11&#45;&gt;Node3</title>
<path fill="none" stroke="midnightblue" d="M2050.28,-321.75C2155.46,-320.54 2510.97,-313.76 2617.72,-277 2669.83,-259.06 2719.72,-261.61 2719.72,-206.5 2719.72,-206.5 2719.72,-206.5 2719.72,-137.5 2719.72,-59.62 2448.62,-28.7 2343.07,-19.62"/>
<polygon fill="midnightblue" stroke="midnightblue" points="2343.06,-16.1 2332.8,-18.76 2342.47,-23.08 2343.06,-16.1"/>
</g>
<!-- Node11&#45;&gt;Node4 -->
<g id="edge15" class="edge">
<title>Node11&#45;&gt;Node4</title>
<path fill="none" stroke="midnightblue" d="M2050.35,-322.54C2197.79,-324.34 2838.63,-321.05 2662.72,-123 2608.79,-62.28 2054.29,-30.05 1845.59,-20"/>
<polygon fill="midnightblue" stroke="midnightblue" points="1845.47,-16.49 1835.32,-19.51 1845.14,-23.48 1845.47,-16.49"/>
</g>
<!-- Node11&#45;&gt;Node7 -->
<g id="edge17" class="edge">
<title>Node11&#45;&gt;Node7</title>
<path fill="none" stroke="midnightblue" d="M2043.2,-313.44C2077.69,-300.45 2145.85,-275.33 2204.72,-257 2372.21,-204.86 2418.67,-207.51 2585.72,-154 2588.13,-153.23 2590.61,-152.4 2593.1,-151.54"/>
<polygon fill="midnightblue" stroke="midnightblue" points="2594.34,-154.81 2602.57,-148.14 2591.98,-148.22 2594.34,-154.81"/>
</g>
<!-- Node12 -->
<g id="node12" class="node">
<title>Node12</title>
<g id="a_node12"><a xlink:title=" ">
<polygon fill="white" stroke="#bfbfbf" points="2214.22,-257.5 2214.22,-276.5 2279.22,-276.5 2279.22,-257.5 2214.22,-257.5"/>
<text text-anchor="middle" x="2246.72" y="-264.5" font-family="Helvetica,sans-Serif" font-size="10.00">functional</text>
</a>
</g>
</g>
<!-- Node11&#45;&gt;Node12 -->
<g id="edge11" class="edge">
<title>Node11&#45;&gt;Node12</title>
<path fill="none" stroke="midnightblue" d="M2050.27,-314.94C2089.54,-305.56 2159.18,-288.92 2204.12,-278.18"/>
<polygon fill="midnightblue" stroke="midnightblue" points="2204.96,-281.58 2213.87,-275.85 2203.33,-274.77 2204.96,-281.58"/>
</g>
<!-- Node13 -->
<g id="node13" class="node">
<title>Node13</title>
<g id="a_node13"><a xlink:title=" ">
<polygon fill="white" stroke="#bfbfbf" points="2297.72,-257.5 2297.72,-276.5 2371.72,-276.5 2371.72,-257.5 2297.72,-257.5"/>
<text text-anchor="middle" x="2334.72" y="-264.5" font-family="Helvetica,sans-Serif" font-size="10.00">GLES2/gl2.h</text>
</a>
</g>
</g>
<!-- Node11&#45;&gt;Node13 -->
<g id="edge13" class="edge">
<title>Node11&#45;&gt;Node13</title>
<path fill="none" stroke="midnightblue" d="M2050.39,-317.22C2098.03,-309.5 2194.76,-293.62 2287.69,-276.97"/>
<polygon fill="midnightblue" stroke="midnightblue" points="2288.32,-280.41 2297.54,-275.2 2287.08,-273.52 2288.32,-280.41"/>
</g>
<!-- Node14 -->
<g id="node14" class="node">
<title>Node14</title>
<g id="a_node14"><a xlink:title=" ">
<polygon fill="white" stroke="#bfbfbf" points="2389.72,-257.5 2389.72,-276.5 2529.72,-276.5 2529.72,-257.5 2389.72,-257.5"/>
<text text-anchor="middle" x="2459.72" y="-264.5" font-family="Helvetica,sans-Serif" font-size="10.00">flutter/encodable_value.h</text>
</a>
</g>
</g>
<!-- Node11&#45;&gt;Node14 -->
<g id="edge14" class="edge">
<title>Node11&#45;&gt;Node14</title>
<path fill="none" stroke="midnightblue" d="M2050.55,-318.33C2117.53,-310.09 2281.73,-289.89 2380.56,-277.74"/>
<polygon fill="midnightblue" stroke="midnightblue" points="2381.01,-281.21 2390.51,-276.51 2380.15,-274.26 2381.01,-281.21"/>
</g>
<!-- Node15 -->
<g id="node15" class="node">
<title>Node15</title>
<g id="a_node15"><a xlink:title=" ">
<polygon fill="white" stroke="#bfbfbf" points="802.72,-129 802.72,-148 840.72,-148 840.72,-129 802.72,-129"/>
<text text-anchor="middle" x="821.72" y="-136" font-family="Helvetica,sans-Serif" font-size="10.00">map</text>
</a>
</g>
</g>
<!-- Node11&#45;&gt;Node15 -->
<g id="edge16" class="edge">
<title>Node11&#45;&gt;Node15</title>
<path fill="none" stroke="midnightblue" d="M1990.9,-318.58C1929.31,-311.43 1783.63,-294.19 1661.72,-277 1312.04,-227.7 1222.36,-226.44 876.72,-154 868.2,-152.21 859.03,-149.94 850.66,-147.72"/>
<polygon fill="midnightblue" stroke="midnightblue" points="851.52,-144.33 840.95,-145.09 849.69,-151.08 851.52,-144.33"/>
</g>
<!-- Node16 -->
<g id="node16" class="node">
<title>Node16</title>
<g id="a_node16"><a xlink:title=" ">
<polygon fill="white" stroke="#bfbfbf" points="1263.72,-257.5 1263.72,-276.5 1311.72,-276.5 1311.72,-257.5 1263.72,-257.5"/>
<text text-anchor="middle" x="1287.72" y="-264.5" font-family="Helvetica,sans-Serif" font-size="10.00">mutex</text>
</a>
</g>
</g>
<!-- Node11&#45;&gt;Node16 -->
<g id="edge18" class="edge">
<title>Node11&#45;&gt;Node16</title>
<path fill="none" stroke="midnightblue" d="M1991.14,-322.22C1895.46,-322.51 1585.78,-319.93 1321.91,-276.84"/>
<polygon fill="midnightblue" stroke="midnightblue" points="1322.19,-273.34 1311.75,-275.16 1321.04,-280.24 1322.19,-273.34"/>
</g>
<!-- Node17 -->
<g id="node17" class="node">
<title>Node17</title>
<g id="a_node17"><a xlink:title=" ">
<polygon fill="white" stroke="#bfbfbf" points="1330.22,-257.5 1330.22,-276.5 1377.22,-276.5 1377.22,-257.5 1330.22,-257.5"/>
<text text-anchor="middle" x="1353.72" y="-264.5" font-family="Helvetica,sans-Serif" font-size="10.00">queue</text>
</a>
</g>
</g>
<!-- Node11&#45;&gt;Node17 -->
<g id="edge19" class="edge">
<title>Node11&#45;&gt;Node17</title>
<path fill="none" stroke="midnightblue" d="M1991.06,-321.57C1900.63,-319.9 1620.61,-312.06 1391.72,-277 1390.26,-276.78 1388.77,-276.52 1387.26,-276.25"/>
<polygon fill="midnightblue" stroke="midnightblue" points="1387.83,-272.79 1377.33,-274.21 1386.42,-279.65 1387.83,-272.79"/>
</g>
<!-- Node18 -->
<g id="node18" class="node">
<title>Node18</title>
<g id="a_node18"><a xlink:title=" ">
<polygon fill="white" stroke="#bfbfbf" points="1869.72,-129 1869.72,-148 1913.72,-148 1913.72,-129 1869.72,-129"/>
<text text-anchor="middle" x="1891.72" y="-136" font-family="Helvetica,sans-Serif" font-size="10.00">string</text>
</a>
</g>
</g>
<!-- Node11&#45;&gt;Node18 -->
<g id="edge20" class="edge">
<title>Node11&#45;&gt;Node18</title>
<path fill="none" stroke="midnightblue" d="M2020.36,-313.26C2018.97,-290.5 2012.42,-228.48 1981.72,-190 1966.72,-171.19 1942.69,-158.22 1923.23,-150.13"/>
<polygon fill="midnightblue" stroke="midnightblue" points="1924.41,-146.84 1913.82,-146.45 1921.86,-153.36 1924.41,-146.84"/>
</g>
<!-- Node19 -->
<g id="node19" class="node">
<title>Node19</title>
<g id="a_node19"><a xlink:title=" ">
<polygon fill="white" stroke="#bfbfbf" points="1970.22,-129 1970.22,-148 2017.22,-148 2017.22,-129 1970.22,-129"/>
<text text-anchor="middle" x="1993.72" y="-136" font-family="Helvetica,sans-Serif" font-size="10.00">vector</text>
</a>
</g>
</g>
<!-- Node11&#45;&gt;Node19 -->
<g id="edge21" class="edge">
<title>Node11&#45;&gt;Node19</title>
<path fill="none" stroke="midnightblue" d="M2021.5,-313.21C2023.16,-291.79 2026.08,-235.39 2015.72,-190 2013.13,-178.63 2008.02,-166.64 2003.37,-157.2"/>
<polygon fill="midnightblue" stroke="midnightblue" points="2006.37,-155.37 1998.66,-148.1 2000.15,-158.59 2006.37,-155.37"/>
</g>
<!-- Node20 -->
<g id="node20" class="node">
<title>Node20</title>
<g id="a_node20"><a xlink:href="backend_8h.html" target="_top" xlink:title=" ">
<polygon fill="white" stroke="black" points="2035.72,-129 2035.72,-148 2145.72,-148 2145.72,-129 2035.72,-129"/>
<text text-anchor="middle" x="2090.72" y="-136" font-family="Helvetica,sans-Serif" font-size="10.00">backend/backend.h</text>
</a>
</g>
</g>
<!-- Node11&#45;&gt;Node20 -->
<g id="edge22" class="edge">
<title>Node11&#45;&gt;Node20</title>
<path fill="none" stroke="midnightblue" d="M2020.99,-313.2C2027.41,-284.83 2061.34,-195.44 2079.75,-157.17"/>
<polygon fill="midnightblue" stroke="midnightblue" points="2082.89,-158.72 2084.29,-148.21 2076.65,-155.55 2082.89,-158.72"/>
</g>
<!-- Node11&#45;&gt;Node21 -->
<g id="edge27" class="edge">
<title>Node11&#45;&gt;Node21</title>
<path fill="none" stroke="midnightblue" d="M2050.41,-321.55C2148.38,-319.77 2470.24,-311.5 2733.72,-277 2734.83,-276.86 2735.95,-276.7 2737.08,-276.53"/>
<polygon fill="midnightblue" stroke="midnightblue" points="2738.05,-279.92 2747.34,-274.84 2736.91,-273.02 2738.05,-279.92"/>
</g>
<!-- Node23 -->
<g id="node23" class="node">
<title>Node23</title>
<g id="a_node23"><a xlink:href="platform__channel_8h.html" target="_top" xlink:title=" ">
<polygon fill="white" stroke="black" points="1862.22,-196 1862.22,-215 1973.22,-215 1973.22,-196 1862.22,-196"/>
<text text-anchor="middle" x="1917.72" y="-203" font-family="Helvetica,sans-Serif" font-size="10.00">platform_channel.h</text>
</a>
</g>
</g>
<!-- Node11&#45;&gt;Node23 -->
<g id="edge29" class="edge">
<title>Node11&#45;&gt;Node23</title>
<path fill="none" stroke="midnightblue" d="M2012.98,-313.32C1995.83,-294.09 1954.41,-247.64 1932.27,-222.81"/>
<polygon fill="midnightblue" stroke="midnightblue" points="1934.82,-220.42 1925.56,-215.28 1929.6,-225.07 1934.82,-220.42"/>
</g>
<!-- Node11&#45;&gt;Node24 -->
<g id="edge33" class="edge">
<title>Node11&#45;&gt;Node24</title>
<path fill="none" stroke="midnightblue" d="M1991.09,-321.01C1888.77,-317.43 1540.87,-303.91 1254.72,-277 1081.93,-260.75 879.47,-231.91 777.15,-216.64"/>
<polygon fill="midnightblue" stroke="midnightblue" points="777.37,-213.13 766.96,-215.11 776.34,-220.06 777.37,-213.13"/>
</g>
<!-- Node28 -->
<g id="node28" class="node">
<title>Node28</title>
<g id="a_node28"><a xlink:href="text__input_8h.html" target="_top" xlink:title=" ">
<polygon fill="white" stroke="black" points="1471.72,-190.5 1471.72,-220.5 1579.72,-220.5 1579.72,-190.5 1471.72,-190.5"/>
<text text-anchor="start" x="1479.72" y="-208.5" font-family="Helvetica,sans-Serif" font-size="10.00">static_plugins/text</text>
<text text-anchor="middle" x="1525.72" y="-197.5" font-family="Helvetica,sans-Serif" font-size="10.00">_input/text_input.h</text>
</a>
</g>
</g>
<!-- Node11&#45;&gt;Node28 -->
<g id="edge45" class="edge">
<title>Node11&#45;&gt;Node28</title>
<path fill="none" stroke="midnightblue" d="M1990.86,-318.95C1938.61,-313.25 1827.44,-299.47 1735.72,-277 1677.85,-262.82 1613.11,-239.98 1571.01,-224.16"/>
<polygon fill="midnightblue" stroke="midnightblue" points="1572.19,-220.86 1561.6,-220.6 1569.72,-227.41 1572.19,-220.86"/>
</g>
<!-- Node33 -->
<g id="node33" class="node">
<title>Node33</title>
<g id="a_node33"><a xlink:href="flutter__view_8h.html" target="_top" xlink:title=" ">
<polygon fill="white" stroke="black" points="1745.22,-257.5 1745.22,-276.5 1854.22,-276.5 1854.22,-257.5 1745.22,-257.5"/>
<text text-anchor="middle" x="1799.72" y="-264.5" font-family="Helvetica,sans-Serif" font-size="10.00">view/flutter_view.h</text>
</a>
</g>
</g>
<!-- Node11&#45;&gt;Node33 -->
<g id="edge59" class="edge">
<title>Node11&#45;&gt;Node33</title>
<path fill="none" stroke="midnightblue" d="M1990.92,-314.72C1953.32,-305.53 1888.31,-289.64 1844.67,-278.98"/>
<polygon fill="midnightblue" stroke="midnightblue" points="1845.43,-275.56 1834.88,-276.59 1843.76,-282.36 1845.43,-275.56"/>
</g>
<!-- Node20&#45;&gt;Node2 -->
<g id="edge24" class="edge">
<title>Node20&#45;&gt;Node2</title>
<path fill="none" stroke="midnightblue" d="M2056.48,-128.94C2046.61,-126.72 2035.78,-124.53 2025.72,-123 1843.76,-95.28 1624.63,-83.68 1530.46,-79.73"/>
<polygon fill="midnightblue" stroke="midnightblue" points="1530.54,-76.23 1520.4,-79.32 1530.25,-83.22 1530.54,-76.23"/>
</g>
<!-- Node20&#45;&gt;Node4 -->
<g id="edge23" class="edge">
<title>Node20&#45;&gt;Node4</title>
<path fill="none" stroke="midnightblue" d="M2076.63,-128.8C2052.6,-114.29 2001.8,-84.93 1955.72,-67 1919.72,-52.98 1878.38,-41.45 1843.57,-32.96"/>
<polygon fill="midnightblue" stroke="midnightblue" points="1844.01,-29.47 1833.47,-30.54 1842.37,-36.28 1844.01,-29.47"/>
</g>
<!-- Node20&#45;&gt;Node11 -->
<g id="edge25" class="edge">
<title>Node20&#45;&gt;Node11</title>
<path fill="none" stroke="midnightblue" d="M2090.48,-148.21C2084.11,-176.45 2050.2,-265.83 2031.75,-304.21"/>
<polygon fill="midnightblue" stroke="midnightblue" points="2028.6,-302.69 2027.21,-313.2 2034.85,-305.85 2028.6,-302.69"/>
</g>
<!-- Node22 -->
<g id="node22" class="node">
<title>Node22</title>
<g id="a_node22"><a xlink:title=" ">
<polygon fill="white" stroke="#bfbfbf" points="2748.22,-196 2748.22,-215 2861.22,-215 2861.22,-196 2748.22,-196"/>
<text text-anchor="middle" x="2804.72" y="-203" font-family="Helvetica,sans-Serif" font-size="10.00">flutter/fml/logging.h</text>
</a>
</g>
</g>
<!-- Node21&#45;&gt;Node22 -->
<g id="edge28" class="edge">
<title>Node21&#45;&gt;Node22</title>
<path fill="none" stroke="midnightblue" d="M2782.45,-257.48C2786.2,-248.9 2792.08,-235.43 2796.87,-224.48"/>
<polygon fill="midnightblue" stroke="midnightblue" points="2800.21,-225.57 2801.01,-215.01 2793.8,-222.77 2800.21,-225.57"/>
</g>
<!-- Node23&#45;&gt;Node4 -->
<g id="edge32" class="edge">
<title>Node23&#45;&gt;Node4</title>
<path fill="none" stroke="midnightblue" d="M1921.06,-195.79C1926.46,-180.17 1935.3,-146.82 1922.72,-123 1900.23,-80.41 1852.2,-51.63 1815.34,-34.84"/>
<polygon fill="midnightblue" stroke="midnightblue" points="1816.31,-31.45 1805.75,-30.62 1813.49,-37.85 1816.31,-31.45"/>
</g>
<!-- Node23&#45;&gt;Node15 -->
<g id="edge30" class="edge">
<title>Node23&#45;&gt;Node15</title>
<path fill="none" stroke="midnightblue" d="M1884.86,-195.95C1874.64,-193.62 1863.27,-191.36 1852.72,-190 1427.07,-135.05 1313.47,-208.26 887.72,-154 875.52,-152.44 862.23,-149.73 850.81,-147.07"/>
<polygon fill="midnightblue" stroke="midnightblue" points="851.46,-143.62 840.91,-144.67 849.81,-150.43 851.46,-143.62"/>
</g>
<!-- Node23&#45;&gt;Node18 -->
<g id="edge31" class="edge">
<title>Node23&#45;&gt;Node18</title>
<path fill="none" stroke="midnightblue" d="M1914.22,-195.73C1910.32,-185.99 1903.92,-169.98 1898.94,-157.53"/>
<polygon fill="midnightblue" stroke="midnightblue" points="1902.14,-156.11 1895.18,-148.13 1895.64,-158.71 1902.14,-156.11"/>
</g>
<!-- Node24&#45;&gt;Node2 -->
<g id="edge44" class="edge">
<title>Node24&#45;&gt;Node2</title>
<path fill="none" stroke="midnightblue" d="M678.61,-190.38C646.4,-174.37 604.65,-147.32 627.72,-123 655.77,-93.44 1262.42,-81.52 1437.07,-78.7"/>
<polygon fill="midnightblue" stroke="midnightblue" points="1437.28,-82.19 1447.22,-78.53 1437.17,-75.19 1437.28,-82.19"/>
</g>
<!-- Node24&#45;&gt;Node4 -->
<g id="edge42" class="edge">
<title>Node24&#45;&gt;Node4</title>
<path fill="none" stroke="midnightblue" d="M654.71,-202.96C579.22,-199.56 450.89,-188.7 421.72,-154 412.86,-143.45 412.37,-133.12 421.72,-123 443.38,-99.57 1402.89,-38.85 1687.78,-21.31"/>
<polygon fill="midnightblue" stroke="midnightblue" points="1688.26,-24.79 1698.03,-20.68 1687.83,-17.8 1688.26,-24.79"/>
</g>
<!-- Node24&#45;&gt;Node7 -->
<g id="edge35" class="edge">
<title>Node24&#45;&gt;Node7</title>
<path fill="none" stroke="midnightblue" d="M766.83,-203.51C1069.19,-198.09 2494.31,-171.72 2585.72,-154 2589.16,-153.33 2592.7,-152.4 2596.17,-151.32"/>
<polygon fill="midnightblue" stroke="midnightblue" points="2597.36,-154.62 2605.65,-148.02 2595.05,-148.01 2597.36,-154.62"/>
</g>
<!-- Node24&#45;&gt;Node8 -->
<g id="edge37" class="edge">
<title>Node24&#45;&gt;Node8</title>
<path fill="none" stroke="midnightblue" d="M654.54,-199.74C558.68,-191.48 357.42,-173.47 187.72,-154 175.87,-152.64 163.31,-151.08 151.09,-149.5"/>
<polygon fill="midnightblue" stroke="midnightblue" points="151.3,-146 140.93,-148.17 150.39,-152.94 151.3,-146"/>
</g>
<!-- Node24&#45;&gt;Node9 -->
<g id="edge39" class="edge">
<title>Node24&#45;&gt;Node9</title>
<path fill="none" stroke="midnightblue" d="M654.29,-195.87C585.72,-185.38 468.85,-167.51 385.08,-154.7"/>
<polygon fill="midnightblue" stroke="midnightblue" points="385.45,-151.21 375.04,-153.16 384.39,-158.13 385.45,-151.21"/>
</g>
<!-- Node24&#45;&gt;Node10 -->
<g id="edge43" class="edge">
<title>Node24&#45;&gt;Node10</title>
<path fill="none" stroke="midnightblue" d="M666.5,-190.48C629.43,-178.72 577.14,-162.14 542.37,-151.12"/>
<polygon fill="midnightblue" stroke="midnightblue" points="543.21,-147.71 532.62,-148.03 541.1,-154.39 543.21,-147.71"/>
</g>
<!-- Node24&#45;&gt;Node15 -->
<g id="edge34" class="edge">
<title>Node24&#45;&gt;Node15</title>
<path fill="none" stroke="midnightblue" d="M734.81,-190.4C753.68,-179.34 779.78,-164.06 798.45,-153.13"/>
<polygon fill="midnightblue" stroke="midnightblue" points="800.34,-156.08 807.2,-148.01 796.8,-150.04 800.34,-156.08"/>
</g>
<!-- Node24&#45;&gt;Node18 -->
<g id="edge36" class="edge">
<title>Node24&#45;&gt;Node18</title>
<path fill="none" stroke="midnightblue" d="M766.9,-203.28C982.87,-198.43 1753.04,-179.51 1859.72,-154 1861.94,-153.47 1864.19,-152.79 1866.42,-152"/>
<polygon fill="midnightblue" stroke="midnightblue" points="1867.95,-155.16 1875.87,-148.12 1865.29,-148.68 1867.95,-155.16"/>
</g>
<!-- Node25 -->
<g id="node25" class="node">
<title>Node25</title>
<g id="a_node25"><a xlink:title=" ">
<polygon fill="white" stroke="#bfbfbf" points="637.22,-129 637.22,-148 784.22,-148 784.22,-129 637.22,-129"/>
<text text-anchor="middle" x="710.72" y="-136" font-family="Helvetica,sans-Serif" font-size="10.00">flutter/binary_messenger.h</text>
</a>
</g>
</g>
<!-- Node24&#45;&gt;Node25 -->
<g id="edge38" class="edge">
<title>Node24&#45;&gt;Node25</title>
<path fill="none" stroke="midnightblue" d="M710.72,-190.4C710.72,-181.06 710.72,-168.71 710.72,-158.52"/>
<polygon fill="midnightblue" stroke="midnightblue" points="714.22,-158.19 710.72,-148.19 707.22,-158.19 714.22,-158.19"/>
</g>
<!-- Node26 -->
<g id="node26" class="node">
<title>Node26</title>
<g id="a_node26"><a xlink:title=" ">
<polygon fill="white" stroke="#bfbfbf" points="1738.22,-129 1738.22,-148 1851.22,-148 1851.22,-129 1738.22,-129"/>
<text text-anchor="middle" x="1794.72" y="-136" font-family="Helvetica,sans-Serif" font-size="10.00">flutter/fml/macros.h</text>
</a>
</g>
</g>
<!-- Node24&#45;&gt;Node26 -->
<g id="edge40" class="edge">
<title>Node24&#45;&gt;Node26</title>
<path fill="none" stroke="midnightblue" d="M766.75,-204.99C920.95,-205.62 1364.35,-202.72 1728.72,-154 1736,-153.03 1743.66,-151.66 1751.08,-150.16"/>
<polygon fill="midnightblue" stroke="midnightblue" points="1751.95,-153.55 1761,-148.04 1750.49,-146.71 1751.95,-153.55"/>
</g>
<!-- Node27 -->
<g id="node27" class="node">
<title>Node27</title>
<g id="a_node27"><a xlink:title=" ">
<polygon fill="white" stroke="#bfbfbf" points="1597.72,-129 1597.72,-148 1719.72,-148 1719.72,-129 1597.72,-129"/>
<text text-anchor="middle" x="1658.72" y="-136" font-family="Helvetica,sans-Serif" font-size="10.00">rapidjson/document.h</text>
</a>
</g>
</g>
<!-- Node24&#45;&gt;Node27 -->
<g id="edge41" class="edge">
<title>Node24&#45;&gt;Node27</title>
<path fill="none" stroke="midnightblue" d="M766.8,-202.52C901.82,-197.46 1255.6,-182.38 1549.72,-154 1562.9,-152.73 1576.93,-151.08 1590.39,-149.36"/>
<polygon fill="midnightblue" stroke="midnightblue" points="1591.09,-152.8 1600.55,-148.03 1590.18,-145.86 1591.09,-152.8"/>
</g>
<!-- Node28&#45;&gt;Node2 -->
<g id="edge58" class="edge">
<title>Node28&#45;&gt;Node2</title>
<path fill="none" stroke="midnightblue" d="M1471.66,-192.22C1466.96,-191.38 1462.27,-190.62 1457.72,-190 1394.86,-181.36 931.16,-200.27 887.72,-154 878.29,-143.96 878.36,-133.1 887.72,-123 924.78,-83.04 1302.31,-78.36 1436.62,-77.97"/>
<polygon fill="midnightblue" stroke="midnightblue" points="1436.99,-81.47 1446.98,-77.94 1436.97,-74.47 1436.99,-81.47"/>
</g>
<!-- Node28&#45;&gt;Node4 -->
<g id="edge56" class="edge">
<title>Node28&#45;&gt;Node4</title>
<path fill="none" stroke="midnightblue" d="M1534.38,-190.23C1545.43,-172.85 1565.85,-143.3 1588.72,-123 1631.06,-85.42 1688.51,-53.84 1726.55,-35.06"/>
<polygon fill="midnightblue" stroke="midnightblue" points="1728.33,-38.09 1735.79,-30.56 1725.27,-31.79 1728.33,-38.09"/>
</g>
<!-- Node28&#45;&gt;Node7 -->
<g id="edge47" class="edge">
<title>Node28&#45;&gt;Node7</title>
<path fill="none" stroke="midnightblue" d="M1579.83,-198.64C1609.08,-195.66 1645.85,-192.21 1678.72,-190 1879.99,-176.48 2387.94,-193.64 2585.72,-154 2588.98,-153.35 2592.33,-152.46 2595.63,-151.45"/>
<polygon fill="midnightblue" stroke="midnightblue" points="2596.93,-154.7 2605.24,-148.12 2594.64,-148.08 2596.93,-154.7"/>
</g>
<!-- Node28&#45;&gt;Node10 -->
<g id="edge57" class="edge">
<title>Node28&#45;&gt;Node10</title>
<path fill="none" stroke="midnightblue" d="M1471.49,-202.63C1331.56,-197.53 947,-181.92 627.72,-154 612.56,-152.67 596.37,-150.96 580.9,-149.18"/>
<polygon fill="midnightblue" stroke="midnightblue" points="581.2,-145.69 570.86,-148 580.39,-152.64 581.2,-145.69"/>
</g>
<!-- Node28&#45;&gt;Node15 -->
<g id="edge46" class="edge">
<title>Node28&#45;&gt;Node15</title>
<path fill="none" stroke="midnightblue" d="M1471.66,-192.21C1466.96,-191.37 1462.27,-190.62 1457.72,-190 1191.69,-153.9 1115.71,-216.99 854.72,-154 852.36,-153.43 849.96,-152.7 847.58,-151.87"/>
<polygon fill="midnightblue" stroke="midnightblue" points="848.7,-148.55 838.11,-148.06 846.09,-155.04 848.7,-148.55"/>
</g>
<!-- Node28&#45;&gt;Node18 -->
<g id="edge48" class="edge">
<title>Node28&#45;&gt;Node18</title>
<path fill="none" stroke="midnightblue" d="M1579.82,-198.16C1660.52,-188.39 1808.41,-169.19 1859.72,-154 1861.65,-153.43 1863.62,-152.76 1865.58,-152.04"/>
<polygon fill="midnightblue" stroke="midnightblue" points="1867.23,-155.14 1875.12,-148.07 1864.54,-148.68 1867.23,-155.14"/>
</g>
<!-- Node28&#45;&gt;Node25 -->
<g id="edge49" class="edge">
<title>Node28&#45;&gt;Node25</title>
<path fill="none" stroke="midnightblue" d="M1471.36,-202.69C1349.63,-198.2 1046,-184.65 793.72,-154 784.24,-152.85 774.19,-151.34 764.49,-149.73"/>
<polygon fill="midnightblue" stroke="midnightblue" points="764.98,-146.27 754.53,-148.03 763.8,-153.17 764.98,-146.27"/>
</g>
<!-- Node28&#45;&gt;Node26 -->
<g id="edge52" class="edge">
<title>Node28&#45;&gt;Node26</title>
<path fill="none" stroke="midnightblue" d="M1579.84,-191.42C1629.72,-179.37 1702.91,-161.69 1749.68,-150.38"/>
<polygon fill="midnightblue" stroke="midnightblue" points="1750.64,-153.75 1759.53,-148 1748.99,-146.95 1750.64,-153.75"/>
</g>
<!-- Node28&#45;&gt;Node27 -->
<g id="edge55" class="edge">
<title>Node28&#45;&gt;Node27</title>
<path fill="none" stroke="midnightblue" d="M1554.58,-190.4C1577.61,-179.14 1609.61,-163.5 1632.05,-152.54"/>
<polygon fill="midnightblue" stroke="midnightblue" points="1633.87,-155.54 1641.32,-148.01 1630.8,-149.25 1633.87,-155.54"/>
</g>
<!-- Node29 -->
<g id="node29" class="node">
<title>Node29</title>
<g id="a_node29"><a xlink:title=" ">
<polygon fill="white" stroke="#bfbfbf" points="1265.22,-129 1265.22,-148 1404.22,-148 1404.22,-129 1265.22,-129"/>
<text text-anchor="middle" x="1334.72" y="-136" font-family="Helvetica,sans-Serif" font-size="10.00">flutter/method_channel.h</text>
</a>
</g>
</g>
<!-- Node28&#45;&gt;Node29 -->
<g id="edge50" class="edge">
<title>Node28&#45;&gt;Node29</title>
<path fill="none" stroke="midnightblue" d="M1484.28,-190.4C1449.88,-178.69 1401.52,-162.23 1369.2,-151.23"/>
<polygon fill="midnightblue" stroke="midnightblue" points="1370.32,-147.92 1359.72,-148.01 1368.06,-154.54 1370.32,-147.92"/>
</g>
<!-- Node30 -->
<g id="node30" class="node">
<title>Node30</title>
<g id="a_node30"><a xlink:title=" ">
<polygon fill="white" stroke="#bfbfbf" points="1422.22,-123.5 1422.22,-153.5 1541.22,-153.5 1541.22,-123.5 1422.22,-123.5"/>
<text text-anchor="start" x="1430.22" y="-141.5" font-family="Helvetica,sans-Serif" font-size="10.00">flutter/method_result</text>
<text text-anchor="middle" x="1481.72" y="-130.5" font-family="Helvetica,sans-Serif" font-size="10.00">_functions.h</text>
</a>
</g>
</g>
<!-- Node28&#45;&gt;Node30 -->
<g id="edge51" class="edge">
<title>Node28&#45;&gt;Node30</title>
<path fill="none" stroke="midnightblue" d="M1516.18,-190.4C1510.58,-182.13 1503.39,-171.51 1497.02,-162.1"/>
<polygon fill="midnightblue" stroke="midnightblue" points="1499.76,-159.9 1491.25,-153.58 1493.96,-163.82 1499.76,-159.9"/>
</g>
<!-- Node31 -->
<g id="node31" class="node">
<title>Node31</title>
<g id="a_node31"><a xlink:title=" ">
<polygon fill="white" stroke="#bfbfbf" points="897.22,-123.5 897.22,-153.5 1068.22,-153.5 1068.22,-123.5 897.22,-123.5"/>
<text text-anchor="start" x="905.22" y="-141.5" font-family="Helvetica,sans-Serif" font-size="10.00">flutter/shell/platform</text>
<text text-anchor="middle" x="982.72" y="-130.5" font-family="Helvetica,sans-Serif" font-size="10.00">/common/json_method_codec.h</text>
</a>
</g>
</g>
<!-- Node28&#45;&gt;Node31 -->
<g id="edge53" class="edge">
<title>Node28&#45;&gt;Node31</title>
<path fill="none" stroke="midnightblue" d="M1471.64,-192.38C1466.94,-191.5 1462.26,-190.7 1457.72,-190 1293.24,-164.76 1247.81,-174.42 1078.41,-154.03"/>
<polygon fill="midnightblue" stroke="midnightblue" points="1078.75,-150.54 1068.4,-152.81 1077.9,-157.49 1078.75,-150.54"/>
</g>
<!-- Node32 -->
<g id="node32" class="node">
<title>Node32</title>
<g id="a_node32"><a xlink:title=" ">
<polygon fill="white" stroke="#bfbfbf" points="1086.72,-123.5 1086.72,-153.5 1246.72,-153.5 1246.72,-123.5 1086.72,-123.5"/>
<text text-anchor="start" x="1094.72" y="-141.5" font-family="Helvetica,sans-Serif" font-size="10.00">flutter/shell/platform</text>
<text text-anchor="middle" x="1166.72" y="-130.5" font-family="Helvetica,sans-Serif" font-size="10.00">/common/text_input_model.h</text>
</a>
</g>
</g>
<!-- Node28&#45;&gt;Node32 -->
<g id="edge54" class="edge">
<title>Node28&#45;&gt;Node32</title>
<path fill="none" stroke="midnightblue" d="M1471.57,-192.76C1466.89,-191.8 1462.23,-190.87 1457.72,-190 1390.64,-177.03 1314.55,-163.88 1257.01,-154.25"/>
<polygon fill="midnightblue" stroke="midnightblue" points="1257.29,-150.75 1246.85,-152.56 1256.14,-157.66 1257.29,-150.75"/>
</g>
<!-- Node33&#45;&gt;Node7 -->
<g id="edge61" class="edge">
<title>Node33&#45;&gt;Node7</title>
<path fill="none" stroke="midnightblue" d="M1854.34,-263.86C1956.04,-259.32 2170.41,-246.92 2239.72,-221 2262.13,-212.62 2261.39,-198.57 2283.72,-190 2409.93,-141.6 2454.34,-185.78 2585.72,-154 2588.72,-153.28 2591.79,-152.39 2594.85,-151.42"/>
<polygon fill="midnightblue" stroke="midnightblue" points="2596.07,-154.7 2604.36,-148.11 2593.77,-148.09 2596.07,-154.7"/>
</g>
<!-- Node33&#45;&gt;Node15 -->
<g id="edge60" class="edge">
<title>Node33&#45;&gt;Node15</title>
<path fill="none" stroke="midnightblue" d="M1745.15,-266.77C1676.76,-265.95 1557.06,-258.53 1462.72,-221 1440.83,-212.29 1441.89,-197.98 1419.72,-190 1305.94,-149.05 996.07,-173.5 876.72,-154 868.13,-152.6 858.94,-150.44 850.57,-148.22"/>
<polygon fill="midnightblue" stroke="midnightblue" points="851.45,-144.83 840.87,-145.51 849.57,-151.57 851.45,-144.83"/>
</g>
<!-- Node33&#45;&gt;Node26 -->
<g id="edge67" class="edge">
<title>Node33&#45;&gt;Node26</title>
<path fill="none" stroke="midnightblue" d="M1744.99,-259.73C1720.48,-253.88 1693.75,-242.62 1678.72,-221 1670.86,-209.69 1671.17,-201.52 1678.72,-190 1687.76,-176.22 1726.05,-161.24 1756.2,-151.21"/>
<polygon fill="midnightblue" stroke="midnightblue" points="1757.63,-154.42 1766.06,-148 1755.47,-147.77 1757.63,-154.42"/>
</g>
<!-- Node34 -->
<g id="node34" class="node">
<title>Node34</title>
<g id="a_node34"><a xlink:href="configuration_8h.html" target="_top" xlink:title=" ">
<polygon fill="white" stroke="black" points="1687.72,-196 1687.72,-215 1843.72,-215 1843.72,-196 1687.72,-196"/>
<text text-anchor="middle" x="1765.72" y="-203" font-family="Helvetica,sans-Serif" font-size="10.00">configuration/configuration.h</text>
</a>
</g>
</g>
<!-- Node33&#45;&gt;Node34 -->
<g id="edge62" class="edge">
<title>Node33&#45;&gt;Node34</title>
<path fill="none" stroke="midnightblue" d="M1794.85,-257.48C1789.85,-248.73 1781.94,-234.87 1775.62,-223.81"/>
<polygon fill="midnightblue" stroke="midnightblue" points="1778.59,-221.96 1770.59,-215.01 1772.51,-225.43 1778.59,-221.96"/>
</g>
<!-- Node35 -->
<g id="node35" class="node">
<title>Node35</title>
<g id="a_node35"><a xlink:href="window_8h.html" target="_top" xlink:title=" ">
<polygon fill="white" stroke="black" points="2124.22,-196 2124.22,-215 2231.22,-215 2231.22,-196 2124.22,-196"/>
<text text-anchor="middle" x="2177.72" y="-203" font-family="Helvetica,sans-Serif" font-size="10.00">wayland/window.h</text>
</a>
</g>
</g>
<!-- Node33&#45;&gt;Node35 -->
<g id="edge68" class="edge">
<title>Node33&#45;&gt;Node35</title>
<path fill="none" stroke="midnightblue" d="M1853.88,-257.48C1922.61,-246.66 2040.97,-228.03 2113.98,-216.53"/>
<polygon fill="midnightblue" stroke="midnightblue" points="2114.64,-219.97 2123.97,-214.96 2113.55,-213.06 2114.64,-219.97"/>
</g>
<!-- Node34&#45;&gt;Node18 -->
<g id="edge63" class="edge">
<title>Node34&#45;&gt;Node18</title>
<path fill="none" stroke="midnightblue" d="M1782.46,-195.87C1803.83,-184.84 1841.02,-165.66 1866.01,-152.77"/>
<polygon fill="midnightblue" stroke="midnightblue" points="1867.64,-155.86 1874.92,-148.17 1864.43,-149.64 1867.64,-155.86"/>
</g>
<!-- Node34&#45;&gt;Node19 -->
<g id="edge64" class="edge">
<title>Node34&#45;&gt;Node19</title>
<path fill="none" stroke="midnightblue" d="M1796,-195.87C1838.59,-183.73 1915.93,-161.68 1960.21,-149.05"/>
<polygon fill="midnightblue" stroke="midnightblue" points="1961.27,-152.39 1969.92,-146.29 1959.35,-145.66 1961.27,-152.39"/>
</g>
<!-- Node34&#45;&gt;Node26 -->
<g id="edge65" class="edge">
<title>Node34&#45;&gt;Node26</title>
<path fill="none" stroke="midnightblue" d="M1769.64,-195.73C1773.98,-185.99 1781.13,-169.98 1786.68,-157.53"/>
<polygon fill="midnightblue" stroke="midnightblue" points="1790,-158.69 1790.88,-148.13 1783.6,-155.83 1790,-158.69"/>
</g>
<!-- Node34&#45;&gt;Node27 -->
<g id="edge66" class="edge">
<title>Node34&#45;&gt;Node27</title>
<path fill="none" stroke="midnightblue" d="M1751.29,-195.73C1733.41,-184.87 1702.7,-166.22 1681.59,-153.39"/>
<polygon fill="midnightblue" stroke="midnightblue" points="1683.29,-150.33 1672.93,-148.13 1679.66,-156.31 1683.29,-150.33"/>
</g>
<!-- Node35&#45;&gt;Node2 -->
<g id="edge73" class="edge">
<title>Node35&#45;&gt;Node2</title>
<path fill="none" stroke="midnightblue" d="M2178.22,-195.9C2178.68,-178.89 2176.99,-141.06 2154.72,-123 2106.51,-83.9 1675.29,-78.71 1530.73,-78.07"/>
<polygon fill="midnightblue" stroke="midnightblue" points="1530.44,-74.57 1520.42,-78.03 1530.41,-81.57 1530.44,-74.57"/>
</g>
<!-- Node35&#45;&gt;Node7 -->
<g id="edge69" class="edge">
<title>Node35&#45;&gt;Node7</title>
<path fill="none" stroke="midnightblue" d="M2214.3,-195.97C2224.43,-193.8 2235.47,-191.63 2245.72,-190 2395.79,-166.12 2437.8,-188.75 2585.72,-154 2588.79,-153.28 2591.94,-152.38 2595.06,-151.39"/>
<polygon fill="midnightblue" stroke="midnightblue" points="2596.49,-154.6 2604.78,-148.01 2594.18,-147.99 2596.49,-154.6"/>
</g>
<!-- Node35&#45;&gt;Node18 -->
<g id="edge70" class="edge">
<title>Node35&#45;&gt;Node18</title>
<path fill="none" stroke="midnightblue" d="M2140.04,-195.94C2083.3,-183.04 1976.93,-158.86 1923.73,-146.77"/>
<polygon fill="midnightblue" stroke="midnightblue" points="1924.36,-143.33 1913.83,-144.52 1922.8,-150.15 1924.36,-143.33"/>
</g>
<!-- Node35&#45;&gt;Node20 -->
<g id="edge74" class="edge">
<title>Node35&#45;&gt;Node20</title>
<path fill="none" stroke="midnightblue" d="M2165.99,-195.73C2151.77,-185.11 2127.6,-167.05 2110.49,-154.26"/>
<polygon fill="midnightblue" stroke="midnightblue" points="2112.38,-151.31 2102.27,-148.13 2108.19,-156.92 2112.38,-151.31"/>
</g>
<!-- Node36 -->
<g id="node36" class="node">
<title>Node36</title>
<g id="a_node36"><a xlink:title=" ">
<polygon fill="white" stroke="#bfbfbf" points="2201.72,-129 2201.72,-148 2253.72,-148 2253.72,-129 2201.72,-129"/>
<text text-anchor="middle" x="2227.72" y="-136" font-family="Helvetica,sans-Serif" font-size="10.00">cassert</text>
</a>
</g>
</g>
<!-- Node35&#45;&gt;Node36 -->
<g id="edge71" class="edge">
<title>Node35&#45;&gt;Node36</title>
<path fill="none" stroke="midnightblue" d="M2184.47,-195.73C2192.26,-185.6 2205.27,-168.69 2214.99,-156.06"/>
<polygon fill="midnightblue" stroke="midnightblue" points="2217.77,-158.19 2221.09,-148.13 2212.22,-153.92 2217.77,-158.19"/>
</g>
<!-- Node37 -->
<g id="node37" class="node">
<title>Node37</title>
<g id="a_node37"><a xlink:title=" ">
<polygon fill="white" stroke="#bfbfbf" points="2271.72,-129 2271.72,-148 2413.72,-148 2413.72,-129 2271.72,-129"/>
<text text-anchor="middle" x="2342.72" y="-136" font-family="Helvetica,sans-Serif" font-size="10.00">agl&#45;shell&#45;client&#45;protocol.h</text>
</a>
</g>
</g>
<!-- Node35&#45;&gt;Node37 -->
<g id="edge72" class="edge">
<title>Node35&#45;&gt;Node37</title>
<path fill="none" stroke="midnightblue" d="M2199.64,-195.87C2228.31,-184.57 2278.77,-164.7 2311.46,-151.82"/>
<polygon fill="midnightblue" stroke="midnightblue" points="2312.96,-154.99 2320.99,-148.06 2310.4,-148.47 2312.96,-154.99"/>
</g>
<!-- Node38 -->
<g id="node38" class="node">
<title>Node38</title>
<g id="a_node38"><a xlink:title=" ">
<polygon fill="white" stroke="#bfbfbf" points="2432.22,-129 2432.22,-148 2577.22,-148 2577.22,-129 2432.22,-129"/>
<text text-anchor="middle" x="2504.72" y="-136" font-family="Helvetica,sans-Serif" font-size="10.00">xdg&#45;shell&#45;client&#45;protocol.h</text>
</a>
</g>
</g>
<!-- Node35&#45;&gt;Node38 -->
<g id="edge75" class="edge">
<title>Node35&#45;&gt;Node38</title>
<path fill="none" stroke="midnightblue" d="M2217.25,-195.95C2226.58,-193.96 2236.5,-191.88 2245.72,-190 2316,-175.66 2397.19,-159.97 2449.66,-149.95"/>
<polygon fill="midnightblue" stroke="midnightblue" points="2450.59,-153.33 2459.76,-148.02 2449.28,-146.46 2450.59,-153.33"/>
</g>
</g>
</svg>
