<?xml version="1.0" encoding="UTF-8" standalone="no"?>
<!DOCTYPE svg PUBLIC "-//W3C//DTD SVG 1.1//EN"
 "http://www.w3.org/Graphics/SVG/1.1/DTD/svg11.dtd">
<!-- Generated by graphviz version 2.43.0 (0)
 -->
<!-- Title: /home/joel.winarske@toyotaconnected.com/development/workspace&#45;automation&#45;configs/app/ivi&#45;homescreen/shell/static_plugins/key_event/key_event.h Pages: 1 -->
<svg width="1277pt" height="217pt"
 viewBox="0.00 0.00 1277.00 217.00" xmlns="http://www.w3.org/2000/svg" xmlns:xlink="http://www.w3.org/1999/xlink">
<g id="graph0" class="graph" transform="scale(1 1) rotate(0) translate(4 213)">
<title>/home/joel.winarske@toyotaconnected.com/development/workspace&#45;automation&#45;configs/app/ivi&#45;homescreen/shell/static_plugins/key_event/key_event.h</title>
<polygon fill="white" stroke="transparent" points="-4,4 -4,-213 1273,-213 1273,4 -4,4"/>
<!-- Node1 -->
<g id="node1" class="node">
<title>Node1</title>
<g id="a_node1"><a xlink:title=" ">
<polygon fill="#bfbfbf" stroke="black" points="504.5,-134.5 504.5,-208.5 677.5,-208.5 677.5,-134.5 504.5,-134.5"/>
<text text-anchor="start" x="512.5" y="-196.5" font-family="Helvetica,sans-Serif" font-size="10.00">/home/joel.winarske</text>
<text text-anchor="start" x="512.5" y="-185.5" font-family="Helvetica,sans-Serif" font-size="10.00">@toyotaconnected.com</text>
<text text-anchor="start" x="512.5" y="-174.5" font-family="Helvetica,sans-Serif" font-size="10.00">/development/workspace</text>
<text text-anchor="start" x="512.5" y="-163.5" font-family="Helvetica,sans-Serif" font-size="10.00">&#45;automation&#45;configs/app</text>
<text text-anchor="start" x="512.5" y="-152.5" font-family="Helvetica,sans-Serif" font-size="10.00">/ivi&#45;homescreen/shell/static</text>
<text text-anchor="middle" x="591" y="-141.5" font-family="Helvetica,sans-Serif" font-size="10.00">_plugins/key_event/key_event.h</text>
</a>
</g>
</g>
<!-- Node2 -->
<g id="node2" class="node">
<title>Node2</title>
<g id="a_node2"><a xlink:title=" ">
<polygon fill="white" stroke="#bfbfbf" points="0,-73 0,-92 38,-92 38,-73 0,-73"/>
<text text-anchor="middle" x="19" y="-80" font-family="Helvetica,sans-Serif" font-size="10.00">map</text>
</a>
</g>
</g>
<!-- Node1&#45;&gt;Node2 -->
<g id="edge1" class="edge">
<title>Node1&#45;&gt;Node2</title>
<path fill="none" stroke="midnightblue" d="M504.21,-168.11C395.15,-163.04 203.31,-147.24 47,-98 45.53,-97.54 44.05,-97 42.57,-96.41"/>
<polygon fill="midnightblue" stroke="midnightblue" points="43.67,-93.06 33.12,-92.02 40.71,-99.41 43.67,-93.06"/>
</g>
<!-- Node3 -->
<g id="node3" class="node">
<title>Node3</title>
<g id="a_node3"><a xlink:title=" ">
<polygon fill="white" stroke="#bfbfbf" points="56,-73 56,-92 114,-92 114,-73 56,-73"/>
<text text-anchor="middle" x="85" y="-80" font-family="Helvetica,sans-Serif" font-size="10.00">memory</text>
</a>
</g>
</g>
<!-- Node1&#45;&gt;Node3 -->
<g id="edge2" class="edge">
<title>Node1&#45;&gt;Node3</title>
<path fill="none" stroke="midnightblue" d="M504.48,-162.62C409.7,-152.71 253.74,-132.65 123,-98 120.34,-97.29 117.61,-96.47 114.89,-95.57"/>
<polygon fill="midnightblue" stroke="midnightblue" points="115.85,-92.2 105.25,-92.13 113.49,-98.79 115.85,-92.2"/>
</g>
<!-- Node4 -->
<g id="node4" class="node">
<title>Node4</title>
<g id="a_node4"><a xlink:title=" ">
<polygon fill="white" stroke="#bfbfbf" points="132,-73 132,-92 176,-92 176,-73 132,-73"/>
<text text-anchor="middle" x="154" y="-80" font-family="Helvetica,sans-Serif" font-size="10.00">string</text>
</a>
</g>
</g>
<!-- Node1&#45;&gt;Node4 -->
<g id="edge3" class="edge">
<title>Node1&#45;&gt;Node4</title>
<path fill="none" stroke="midnightblue" d="M504.28,-161.65C420.99,-151.61 292.32,-132.04 185,-98 183.33,-97.47 181.62,-96.87 179.93,-96.22"/>
<polygon fill="midnightblue" stroke="midnightblue" points="180.98,-92.86 170.41,-92.15 178.23,-99.3 180.98,-92.86"/>
</g>
<!-- Node5 -->
<g id="node5" class="node">
<title>Node5</title>
<g id="a_node5"><a xlink:title=" ">
<polygon fill="white" stroke="#bfbfbf" points="194,-67.5 194,-97.5 318,-97.5 318,-67.5 194,-67.5"/>
<text text-anchor="start" x="202" y="-85.5" font-family="Helvetica,sans-Serif" font-size="10.00">flutter/basic_message</text>
<text text-anchor="middle" x="256" y="-74.5" font-family="Helvetica,sans-Serif" font-size="10.00">_channel.h</text>
</a>
</g>
</g>
<!-- Node1&#45;&gt;Node5 -->
<g id="edge4" class="edge">
<title>Node1&#45;&gt;Node5</title>
<path fill="none" stroke="midnightblue" d="M504.29,-147.98C446.74,-133.04 372.45,-113.74 320.19,-100.17"/>
<polygon fill="midnightblue" stroke="midnightblue" points="320.93,-96.75 310.37,-97.62 319.17,-103.52 320.93,-96.75"/>
</g>
<!-- Node6 -->
<g id="node6" class="node">
<title>Node6</title>
<g id="a_node6"><a xlink:title=" ">
<polygon fill="white" stroke="#bfbfbf" points="336.5,-73 336.5,-92 483.5,-92 483.5,-73 336.5,-73"/>
<text text-anchor="middle" x="410" y="-80" font-family="Helvetica,sans-Serif" font-size="10.00">flutter/binary_messenger.h</text>
</a>
</g>
</g>
<!-- Node1&#45;&gt;Node6 -->
<g id="edge5" class="edge">
<title>Node1&#45;&gt;Node6</title>
<path fill="none" stroke="midnightblue" d="M516.07,-134.49C488.03,-121.01 457.93,-106.54 436.99,-96.47"/>
<polygon fill="midnightblue" stroke="midnightblue" points="438.3,-93.22 427.77,-92.04 435.27,-99.53 438.3,-93.22"/>
</g>
<!-- Node7 -->
<g id="node7" class="node">
<title>Node7</title>
<g id="a_node7"><a xlink:title=" ">
<polygon fill="white" stroke="#bfbfbf" points="502,-67.5 502,-97.5 680,-97.5 680,-67.5 502,-67.5"/>
<text text-anchor="start" x="510" y="-85.5" font-family="Helvetica,sans-Serif" font-size="10.00">flutter/shell/platform</text>
<text text-anchor="middle" x="591" y="-74.5" font-family="Helvetica,sans-Serif" font-size="10.00">/common/json_message_codec.h</text>
</a>
</g>
</g>
<!-- Node1&#45;&gt;Node7 -->
<g id="edge6" class="edge">
<title>Node1&#45;&gt;Node7</title>
<path fill="none" stroke="midnightblue" d="M591,-134.36C591,-125.4 591,-116.01 591,-107.78"/>
<polygon fill="midnightblue" stroke="midnightblue" points="594.5,-107.74 591,-97.74 587.5,-107.74 594.5,-107.74"/>
</g>
<!-- Node8 -->
<g id="node8" class="node">
<title>Node8</title>
<g id="a_node8"><a xlink:title=" ">
<polygon fill="white" stroke="#bfbfbf" points="698.5,-73 698.5,-92 811.5,-92 811.5,-73 698.5,-73"/>
<text text-anchor="middle" x="755" y="-80" font-family="Helvetica,sans-Serif" font-size="10.00">flutter/fml/macros.h</text>
</a>
</g>
</g>
<!-- Node1&#45;&gt;Node8 -->
<g id="edge7" class="edge">
<title>Node1&#45;&gt;Node8</title>
<path fill="none" stroke="midnightblue" d="M659.13,-134.36C684.27,-121.02 711.21,-106.73 730.11,-96.7"/>
<polygon fill="midnightblue" stroke="midnightblue" points="731.76,-99.79 738.95,-92.01 728.48,-93.61 731.76,-99.79"/>
</g>
<!-- Node9 -->
<g id="node9" class="node">
<title>Node9</title>
<g id="a_node9"><a xlink:title=" ">
<polygon fill="white" stroke="#bfbfbf" points="830,-73 830,-92 952,-92 952,-73 830,-73"/>
<text text-anchor="middle" x="891" y="-80" font-family="Helvetica,sans-Serif" font-size="10.00">rapidjson/document.h</text>
</a>
</g>
</g>
<!-- Node1&#45;&gt;Node9 -->
<g id="edge8" class="edge">
<title>Node1&#45;&gt;Node9</title>
<path fill="none" stroke="midnightblue" d="M677.77,-145.34C735.25,-128.67 807.88,-107.6 851.82,-94.86"/>
<polygon fill="midnightblue" stroke="midnightblue" points="852.92,-98.19 861.55,-92.04 850.97,-91.47 852.92,-98.19"/>
</g>
<!-- Node10 -->
<g id="node10" class="node">
<title>Node10</title>
<g id="a_node10"><a xlink:title=" ">
<polygon fill="white" stroke="#bfbfbf" points="969.5,-0.5 969.5,-30.5 1106.5,-30.5 1106.5,-0.5 969.5,-0.5"/>
<text text-anchor="start" x="977.5" y="-18.5" font-family="Helvetica,sans-Serif" font-size="10.00">shell/platform/embedder</text>
<text text-anchor="middle" x="1038" y="-7.5" font-family="Helvetica,sans-Serif" font-size="10.00">/embedder.h</text>
</a>
</g>
</g>
<!-- Node1&#45;&gt;Node10 -->
<g id="edge9" class="edge">
<title>Node1&#45;&gt;Node10</title>
<path fill="none" stroke="midnightblue" d="M677.6,-168.36C756,-163.11 872.43,-146.81 961,-98 974.83,-90.38 1002.07,-59.67 1020.15,-38.21"/>
<polygon fill="midnightblue" stroke="midnightblue" points="1022.87,-40.42 1026.59,-30.5 1017.5,-35.94 1022.87,-40.42"/>
</g>
<!-- Node11 -->
<g id="node11" class="node">
<title>Node11</title>
<g id="a_node11"><a xlink:title=" ">
<polygon fill="white" stroke="#bfbfbf" points="1008,-73 1008,-92 1158,-92 1158,-73 1008,-73"/>
<text text-anchor="middle" x="1083" y="-80" font-family="Helvetica,sans-Serif" font-size="10.00">xkbcommon/xkbcommon.h</text>
</a>
</g>
</g>
<!-- Node1&#45;&gt;Node11 -->
<g id="edge10" class="edge">
<title>Node1&#45;&gt;Node11</title>
<path fill="none" stroke="midnightblue" d="M677.54,-155.2C777.3,-137.56 938.53,-109.05 1024.54,-93.84"/>
<polygon fill="midnightblue" stroke="midnightblue" points="1025.41,-97.24 1034.65,-92.05 1024.19,-90.34 1025.41,-97.24"/>
</g>
<!-- Node12 -->
<g id="node12" class="node">
<title>Node12</title>
<g id="a_node12"><a xlink:href="constants_8h.html" target="_top" xlink:title=" ">
<polygon fill="white" stroke="black" points="1176.5,-73 1176.5,-92 1249.5,-92 1249.5,-73 1176.5,-73"/>
<text text-anchor="middle" x="1213" y="-80" font-family="Helvetica,sans-Serif" font-size="10.00">constants.h</text>
</a>
</g>
</g>
<!-- Node1&#45;&gt;Node12 -->
<g id="edge11" class="edge">
<title>Node1&#45;&gt;Node12</title>
<path fill="none" stroke="midnightblue" d="M677.7,-164.48C791.15,-155.49 995.68,-135.46 1167,-98 1170.94,-97.14 1175.02,-96.09 1179.05,-94.95"/>
<polygon fill="midnightblue" stroke="midnightblue" points="1180.3,-98.23 1188.87,-92 1178.29,-91.53 1180.3,-98.23"/>
</g>
<!-- Node12&#45;&gt;Node10 -->
<g id="edge13" class="edge">
<title>Node12&#45;&gt;Node10</title>
<path fill="none" stroke="midnightblue" d="M1189.76,-72.87C1163.27,-63.03 1119.28,-46.69 1085.46,-34.13"/>
<polygon fill="midnightblue" stroke="midnightblue" points="1086.36,-30.73 1075.77,-30.53 1083.92,-37.29 1086.36,-30.73"/>
</g>
<!-- Node13 -->
<g id="node13" class="node">
<title>Node13</title>
<g id="a_node13"><a xlink:title=" ">
<polygon fill="white" stroke="#bfbfbf" points="1147,-6 1147,-25 1209,-25 1209,-6 1147,-6"/>
<text text-anchor="middle" x="1178" y="-13" font-family="Helvetica,sans-Serif" font-size="10.00">EGL/egl.h</text>
</a>
</g>
</g>
<!-- Node12&#45;&gt;Node13 -->
<g id="edge12" class="edge">
<title>Node12&#45;&gt;Node13</title>
<path fill="none" stroke="midnightblue" d="M1208.28,-72.73C1202.98,-62.89 1194.24,-46.66 1187.51,-34.16"/>
<polygon fill="midnightblue" stroke="midnightblue" points="1190.47,-32.27 1182.65,-25.13 1184.3,-35.59 1190.47,-32.27"/>
</g>
<!-- Node14 -->
<g id="node14" class="node">
<title>Node14</title>
<g id="a_node14"><a xlink:title=" ">
<polygon fill="white" stroke="#bfbfbf" points="1227,-6 1227,-25 1269,-25 1269,-6 1227,-6"/>
<text text-anchor="middle" x="1248" y="-13" font-family="Helvetica,sans-Serif" font-size="10.00">array</text>
</a>
</g>
</g>
<!-- Node12&#45;&gt;Node14 -->
<g id="edge14" class="edge">
<title>Node12&#45;&gt;Node14</title>
<path fill="none" stroke="midnightblue" d="M1217.72,-72.73C1223.02,-62.89 1231.76,-46.66 1238.49,-34.16"/>
<polygon fill="midnightblue" stroke="midnightblue" points="1241.7,-35.59 1243.35,-25.13 1235.53,-32.27 1241.7,-35.59"/>
</g>
</g>
</svg>
