<?xml version="1.0" encoding="UTF-8" standalone="no"?>
<!DOCTYPE svg PUBLIC "-//W3C//DTD SVG 1.1//EN"
 "http://www.w3.org/Graphics/SVG/1.1/DTD/svg11.dtd">
<!-- Generated by graphviz version 5.0.0 (0)
 -->
<!-- Title: /mnt/raid10/stargate/ivi&#45;homescreen/shell/static_plugins/key_event/key_event.h Pages: 1 -->
<svg width="1178pt" height="192pt"
 viewBox="0.00 0.00 1177.50 192.00" xmlns="http://www.w3.org/2000/svg" xmlns:xlink="http://www.w3.org/1999/xlink">
<g id="graph0" class="graph" transform="scale(1 1) rotate(0) translate(4 188)">
<title>/mnt/raid10/stargate/ivi&#45;homescreen/shell/static_plugins/key_event/key_event.h</title>
<!-- Node1 -->
<g id="node1" class="node">
<title>Node1</title>
<g id="a_node1"><a xlink:title=" ">
<polygon fill="#999999" stroke="#666666" points="610.5,-184 482.5,-184 482.5,-132 610.5,-132 610.5,-184"/>
<text text-anchor="start" x="490.5" y="-172" font-family="Helvetica,sans-Serif" font-size="10.00">/mnt/raid10/stargate</text>
<text text-anchor="start" x="490.5" y="-161" font-family="Helvetica,sans-Serif" font-size="10.00">/ivi&#45;homescreen/shell</text>
<text text-anchor="start" x="490.5" y="-150" font-family="Helvetica,sans-Serif" font-size="10.00">/static_plugins/key_event</text>
<text text-anchor="middle" x="546.5" y="-139" font-family="Helvetica,sans-Serif" font-size="10.00">/key_event.h</text>
</a>
</g>
</g>
<!-- Node2 -->
<g id="node2" class="node">
<title>Node2</title>
<g id="a_node2"><a xlink:title=" ">
<polygon fill="#e0e0e0" stroke="#999999" points="35,-90.5 0,-90.5 0,-71.5 35,-71.5 35,-90.5"/>
<text text-anchor="middle" x="17.5" y="-78.5" font-family="Helvetica,sans-Serif" font-size="10.00">map</text>
</a>
</g>
</g>
<!-- Node1&#45;&gt;Node2 -->
<g id="edge1" class="edge">
<title>Node1&#45;&gt;Node2</title>
<path fill="none" stroke="#63b8ff" d="M482.38,-156.46C385.45,-154.04 196.75,-143.03 44.5,-96 43.28,-95.62 42.05,-95.19 40.82,-94.72"/>
<polygon fill="#63b8ff" stroke="#63b8ff" points="42.22,-91.51 31.67,-90.55 39.31,-97.88 42.22,-91.51"/>
</g>
<!-- Node3 -->
<g id="node3" class="node">
<title>Node3</title>
<g id="a_node3"><a xlink:title=" ">
<polygon fill="#e0e0e0" stroke="#999999" points="105.5,-90.5 53.5,-90.5 53.5,-71.5 105.5,-71.5 105.5,-90.5"/>
<text text-anchor="middle" x="79.5" y="-78.5" font-family="Helvetica,sans-Serif" font-size="10.00">memory</text>
</a>
</g>
</g>
<!-- Node1&#45;&gt;Node3 -->
<g id="edge2" class="edge">
<title>Node1&#45;&gt;Node3</title>
<path fill="none" stroke="#63b8ff" d="M482.23,-152.76C396.98,-146.06 242.4,-130.08 114.5,-96 112.34,-95.43 110.14,-94.75 107.94,-94.02"/>
<polygon fill="#63b8ff" stroke="#63b8ff" points="109.07,-90.71 98.47,-90.55 106.66,-97.28 109.07,-90.71"/>
</g>
<!-- Node4 -->
<g id="node4" class="node">
<title>Node4</title>
<g id="a_node4"><a xlink:title=" ">
<polygon fill="#e0e0e0" stroke="#999999" points="165,-90.5 124,-90.5 124,-71.5 165,-71.5 165,-90.5"/>
<text text-anchor="middle" x="144.5" y="-78.5" font-family="Helvetica,sans-Serif" font-size="10.00">string</text>
</a>
</g>
</g>
<!-- Node1&#45;&gt;Node4 -->
<g id="edge3" class="edge">
<title>Node1&#45;&gt;Node4</title>
<path fill="none" stroke="#63b8ff" d="M482.18,-152.13C406.79,-145.14 278.77,-129.25 173.5,-96 172.24,-95.6 170.97,-95.16 169.69,-94.68"/>
<polygon fill="#63b8ff" stroke="#63b8ff" points="170.69,-91.3 160.12,-90.55 167.91,-97.73 170.69,-91.3"/>
</g>
<!-- Node5 -->
<g id="node5" class="node">
<title>Node5</title>
<g id="a_node5"><a xlink:title=" ">
<polygon fill="#e0e0e0" stroke="#999999" points="296,-96 183,-96 183,-66 296,-66 296,-96"/>
<text text-anchor="start" x="191" y="-84" font-family="Helvetica,sans-Serif" font-size="10.00">flutter/basic_message</text>
<text text-anchor="middle" x="239.5" y="-73" font-family="Helvetica,sans-Serif" font-size="10.00">_channel.h</text>
</a>
</g>
</g>
<!-- Node1&#45;&gt;Node5 -->
<g id="edge4" class="edge">
<title>Node1&#45;&gt;Node5</title>
<path fill="none" stroke="#63b8ff" d="M482.14,-141.28C430.44,-128.65 358.09,-110.97 305.87,-98.21"/>
<polygon fill="#63b8ff" stroke="#63b8ff" points="306.58,-94.78 296.03,-95.81 304.91,-101.58 306.58,-94.78"/>
</g>
<!-- Node6 -->
<g id="node6" class="node">
<title>Node6</title>
<g id="a_node6"><a xlink:title=" ">
<polygon fill="#e0e0e0" stroke="#999999" points="446.5,-90.5 314.5,-90.5 314.5,-71.5 446.5,-71.5 446.5,-90.5"/>
<text text-anchor="middle" x="380.5" y="-78.5" font-family="Helvetica,sans-Serif" font-size="10.00">flutter/binary_messenger.h</text>
</a>
</g>
</g>
<!-- Node1&#45;&gt;Node6 -->
<g id="edge5" class="edge">
<title>Node1&#45;&gt;Node6</title>
<path fill="none" stroke="#63b8ff" d="M490.76,-131.82C463.19,-119.36 431.11,-104.87 408.69,-94.73"/>
<polygon fill="#63b8ff" stroke="#63b8ff" points="409.97,-91.47 399.41,-90.54 407.08,-97.85 409.97,-91.47"/>
</g>
<!-- Node7 -->
<g id="node7" class="node">
<title>Node7</title>
<g id="a_node7"><a xlink:title=" ">
<polygon fill="#e0e0e0" stroke="#999999" points="628,-96 465,-96 465,-66 628,-66 628,-96"/>
<text text-anchor="start" x="473" y="-84" font-family="Helvetica,sans-Serif" font-size="10.00">flutter/shell/platform</text>
<text text-anchor="middle" x="546.5" y="-73" font-family="Helvetica,sans-Serif" font-size="10.00">/common/json_message_codec.h</text>
</a>
</g>
</g>
<!-- Node1&#45;&gt;Node7 -->
<g id="edge6" class="edge">
<title>Node1&#45;&gt;Node7</title>
<path fill="none" stroke="#63b8ff" d="M546.5,-131.61C546.5,-123.54 546.5,-114.64 546.5,-106.63"/>
<polygon fill="#63b8ff" stroke="#63b8ff" points="550,-106.43 546.5,-96.43 543,-106.43 550,-106.43"/>
</g>
<!-- Node8 -->
<g id="node8" class="node">
<title>Node8</title>
<g id="a_node8"><a xlink:title=" ">
<polygon fill="#e0e0e0" stroke="#999999" points="747,-90.5 646,-90.5 646,-71.5 747,-71.5 747,-90.5"/>
<text text-anchor="middle" x="696.5" y="-78.5" font-family="Helvetica,sans-Serif" font-size="10.00">flutter/fml/macros.h</text>
</a>
</g>
</g>
<!-- Node1&#45;&gt;Node8 -->
<g id="edge7" class="edge">
<title>Node1&#45;&gt;Node8</title>
<path fill="none" stroke="#63b8ff" d="M596.87,-131.82C621.44,-119.53 649.99,-105.26 670.21,-95.15"/>
<polygon fill="#63b8ff" stroke="#63b8ff" points="672.03,-98.15 679.41,-90.54 668.9,-91.89 672.03,-98.15"/>
</g>
<!-- Node9 -->
<g id="node9" class="node">
<title>Node9</title>
<g id="a_node9"><a xlink:title=" ">
<polygon fill="#e0e0e0" stroke="#999999" points="875.5,-90.5 765.5,-90.5 765.5,-71.5 875.5,-71.5 875.5,-90.5"/>
<text text-anchor="middle" x="820.5" y="-78.5" font-family="Helvetica,sans-Serif" font-size="10.00">rapidjson/document.h</text>
</a>
</g>
</g>
<!-- Node1&#45;&gt;Node9 -->
<g id="edge8" class="edge">
<title>Node1&#45;&gt;Node9</title>
<path fill="none" stroke="#63b8ff" d="M610.74,-139.42C662.84,-125.16 734.7,-105.48 779.35,-93.26"/>
<polygon fill="#63b8ff" stroke="#63b8ff" points="780.54,-96.57 789.27,-90.55 778.7,-89.81 780.54,-96.57"/>
</g>
<!-- Node10 -->
<g id="node10" class="node">
<title>Node10</title>
<g id="a_node10"><a xlink:title=" ">
<polygon fill="#e0e0e0" stroke="#999999" points="1016,-30 895,-30 895,0 1016,0 1016,-30"/>
<text text-anchor="start" x="903" y="-18" font-family="Helvetica,sans-Serif" font-size="10.00">shell/platform/embedder</text>
<text text-anchor="middle" x="955.5" y="-7" font-family="Helvetica,sans-Serif" font-size="10.00">/embedder.h</text>
</a>
</g>
</g>
<!-- Node1&#45;&gt;Node10 -->
<g id="edge9" class="edge">
<title>Node1&#45;&gt;Node10</title>
<path fill="none" stroke="#63b8ff" d="M610.78,-157.65C682.05,-155.7 798.33,-144.4 884.5,-96 908.85,-82.32 929.09,-57.11 941.65,-38.63"/>
<polygon fill="#63b8ff" stroke="#63b8ff" points="944.63,-40.46 947.18,-30.18 938.78,-36.63 944.63,-40.46"/>
</g>
<!-- Node11 -->
<g id="node11" class="node">
<title>Node11</title>
<g id="a_node11"><a xlink:title=" ">
<polygon fill="#e0e0e0" stroke="#999999" points="1065.5,-90.5 931.5,-90.5 931.5,-71.5 1065.5,-71.5 1065.5,-90.5"/>
<text text-anchor="middle" x="998.5" y="-78.5" font-family="Helvetica,sans-Serif" font-size="10.00">xkbcommon/xkbcommon.h</text>
</a>
</g>
</g>
<!-- Node1&#45;&gt;Node11 -->
<g id="edge10" class="edge">
<title>Node1&#45;&gt;Node11</title>
<path fill="none" stroke="#63b8ff" d="M610.54,-146.63C684.51,-134.62 809.85,-114.15 917.5,-96 924.66,-94.79 932.17,-93.51 939.62,-92.24"/>
<polygon fill="#63b8ff" stroke="#63b8ff" points="940.42,-95.65 949.68,-90.5 939.23,-88.75 940.42,-95.65"/>
</g>
<!-- Node12 -->
<g id="node12" class="node">
<title>Node12</title>
<g id="a_node12"><a xlink:href="constants_8h.html" target="_top" xlink:title=" ">
<polygon fill="white" stroke="#666666" points="1151.5,-90.5 1083.5,-90.5 1083.5,-71.5 1151.5,-71.5 1151.5,-90.5"/>
<text text-anchor="middle" x="1117.5" y="-78.5" font-family="Helvetica,sans-Serif" font-size="10.00">constants.h</text>
</a>
</g>
</g>
<!-- Node1&#45;&gt;Node12 -->
<g id="edge11" class="edge">
<title>Node1&#45;&gt;Node12</title>
<path fill="none" stroke="#63b8ff" d="M610.57,-153.73C710.6,-147.71 909.52,-132.01 1074.5,-96 1077.72,-95.3 1081.04,-94.45 1084.35,-93.52"/>
<polygon fill="#63b8ff" stroke="#63b8ff" points="1085.53,-96.82 1094.08,-90.56 1083.49,-90.12 1085.53,-96.82"/>
</g>
<!-- Node12&#45;&gt;Node10 -->
<g id="edge13" class="edge">
<title>Node12&#45;&gt;Node10</title>
<path fill="none" stroke="#63b8ff" d="M1095.65,-71.37C1071.39,-61.78 1031.56,-46.05 1000.54,-33.8"/>
<polygon fill="#63b8ff" stroke="#63b8ff" points="1001.82,-30.53 991.23,-30.12 999.24,-37.05 1001.82,-30.53"/>
</g>
<!-- Node13 -->
<g id="node13" class="node">
<title>Node13</title>
<g id="a_node13"><a xlink:title=" ">
<polygon fill="#e0e0e0" stroke="#999999" points="1113.5,-24.5 1053.5,-24.5 1053.5,-5.5 1113.5,-5.5 1113.5,-24.5"/>
<text text-anchor="middle" x="1083.5" y="-12.5" font-family="Helvetica,sans-Serif" font-size="10.00">EGL/egl.h</text>
</a>
</g>
</g>
<!-- Node12&#45;&gt;Node13 -->
<g id="edge12" class="edge">
<title>Node12&#45;&gt;Node13</title>
<path fill="none" stroke="#63b8ff" d="M1112.91,-71.37C1107.82,-61.78 1099.46,-46.05 1092.96,-33.8"/>
<polygon fill="#63b8ff" stroke="#63b8ff" points="1096.01,-32.09 1088.23,-24.91 1089.83,-35.38 1096.01,-32.09"/>
</g>
<!-- Node14 -->
<g id="node14" class="node">
<title>Node14</title>
<g id="a_node14"><a xlink:title=" ">
<polygon fill="#e0e0e0" stroke="#999999" points="1169.5,-24.5 1131.5,-24.5 1131.5,-5.5 1169.5,-5.5 1169.5,-24.5"/>
<text text-anchor="middle" x="1150.5" y="-12.5" font-family="Helvetica,sans-Serif" font-size="10.00">array</text>
</a>
</g>
</g>
<!-- Node12&#45;&gt;Node14 -->
<g id="edge14" class="edge">
<title>Node12&#45;&gt;Node14</title>
<path fill="none" stroke="#63b8ff" d="M1121.95,-71.37C1126.89,-61.78 1135.01,-46.05 1141.32,-33.8"/>
<polygon fill="#63b8ff" stroke="#63b8ff" points="1144.44,-35.4 1145.91,-24.91 1138.21,-32.19 1144.44,-35.4"/>
</g>
</g>
</svg>
