<?xml version="1.0" encoding="UTF-8" standalone="no"?>
<!DOCTYPE svg PUBLIC "-//W3C//DTD SVG 1.1//EN"
 "http://www.w3.org/Graphics/SVG/1.1/DTD/svg11.dtd">
<!-- Generated by graphviz version 5.0.0 (0)
 -->
<!-- Title: /mnt/raid10/stargate/ivi&#45;homescreen/shell/static_plugins/key_event/key_event.cc Pages: 1 -->
<svg width="2952pt" height="423pt"
 viewBox="0.00 0.00 2951.50 423.00" xmlns="http://www.w3.org/2000/svg" xmlns:xlink="http://www.w3.org/1999/xlink">
<g id="graph0" class="graph" transform="scale(1 1) rotate(0) translate(4 419)">
<title>/mnt/raid10/stargate/ivi&#45;homescreen/shell/static_plugins/key_event/key_event.cc</title>
<!-- Node1 -->
<g id="node1" class="node">
<title>Node1</title>
<g id="a_node1"><a xlink:title=" ">
<polygon fill="#999999" stroke="#666666" points="1314.5,-415 1186.5,-415 1186.5,-363 1314.5,-363 1314.5,-415"/>
<text text-anchor="start" x="1194.5" y="-403" font-family="Helvetica,sans-Serif" font-size="10.00">/mnt/raid10/stargate</text>
<text text-anchor="start" x="1194.5" y="-392" font-family="Helvetica,sans-Serif" font-size="10.00">/ivi&#45;homescreen/shell</text>
<text text-anchor="start" x="1194.5" y="-381" font-family="Helvetica,sans-Serif" font-size="10.00">/static_plugins/key_event</text>
<text text-anchor="middle" x="1250.5" y="-370" font-family="Helvetica,sans-Serif" font-size="10.00">/key_event.cc</text>
</a>
</g>
</g>
<!-- Node2 -->
<g id="node2" class="node">
<title>Node2</title>
<g id="a_node2"><a xlink:href="constants_8h.html" target="_top" xlink:title=" ">
<polygon fill="white" stroke="#666666" points="1464.5,-85 1396.5,-85 1396.5,-66 1464.5,-66 1464.5,-85"/>
<text text-anchor="middle" x="1430.5" y="-73" font-family="Helvetica,sans-Serif" font-size="10.00">constants.h</text>
</a>
</g>
</g>
<!-- Node1&#45;&gt;Node2 -->
<g id="edge1" class="edge">
<title>Node1&#45;&gt;Node2</title>
<path fill="none" stroke="#63b8ff" d="M1314.73,-386.11C1602.18,-377.23 2756.5,-337 2756.5,-263.5 2756.5,-263.5 2756.5,-263.5 2756.5,-201 2756.5,-164.46 2765.78,-144.14 2737.5,-121 2687.61,-80.17 1697.29,-76.76 1474.67,-76.51"/>
<polygon fill="#63b8ff" stroke="#63b8ff" points="1474.66,-73.01 1464.66,-76.5 1474.65,-80.01 1474.66,-73.01"/>
</g>
<!-- Node6 -->
<g id="node6" class="node">
<title>Node6</title>
<g id="a_node6"><a xlink:title=" ">
<polygon fill="#e0e0e0" stroke="#999999" points="2868.5,-327 2822.5,-327 2822.5,-308 2868.5,-308 2868.5,-327"/>
<text text-anchor="middle" x="2845.5" y="-315" font-family="Helvetica,sans-Serif" font-size="10.00">cstring</text>
</a>
</g>
</g>
<!-- Node1&#45;&gt;Node6 -->
<g id="edge5" class="edge">
<title>Node1&#45;&gt;Node6</title>
<path fill="none" stroke="#63b8ff" d="M1314.57,-387.09C1569.53,-383.21 2512.51,-366.44 2808.5,-327 2809.75,-326.83 2811.02,-326.64 2812.3,-326.44"/>
<polygon fill="#63b8ff" stroke="#63b8ff" points="2812.97,-329.87 2822.13,-324.56 2811.65,-323 2812.97,-329.87"/>
</g>
<!-- Node7 -->
<g id="node7" class="node">
<title>Node7</title>
<g id="a_node7"><a xlink:title=" ">
<polygon fill="#e0e0e0" stroke="#999999" points="1624.5,-145.5 1572.5,-145.5 1572.5,-126.5 1624.5,-126.5 1624.5,-145.5"/>
<text text-anchor="middle" x="1598.5" y="-133.5" font-family="Helvetica,sans-Serif" font-size="10.00">memory</text>
</a>
</g>
</g>
<!-- Node1&#45;&gt;Node7 -->
<g id="edge6" class="edge">
<title>Node1&#45;&gt;Node7</title>
<path fill="none" stroke="#63b8ff" d="M1263.89,-362.98C1288.18,-320.07 1343.7,-232.69 1415.5,-187 1470.07,-152.28 1494.45,-169.24 1556.5,-151 1558.95,-150.28 1561.48,-149.51 1564.01,-148.72"/>
<polygon fill="#63b8ff" stroke="#63b8ff" points="1565.27,-151.99 1573.72,-145.59 1563.13,-145.32 1565.27,-151.99"/>
</g>
<!-- Node8 -->
<g id="node8" class="node">
<title>Node8</title>
<g id="a_node8"><a xlink:title=" ">
<polygon fill="#e0e0e0" stroke="#999999" points="113,-151 0,-151 0,-121 113,-121 113,-151"/>
<text text-anchor="start" x="8" y="-139" font-family="Helvetica,sans-Serif" font-size="10.00">flutter/basic_message</text>
<text text-anchor="middle" x="56.5" y="-128" font-family="Helvetica,sans-Serif" font-size="10.00">_channel.h</text>
</a>
</g>
</g>
<!-- Node1&#45;&gt;Node8 -->
<g id="edge7" class="edge">
<title>Node1&#45;&gt;Node8</title>
<path fill="none" stroke="#63b8ff" d="M1186.34,-385.86C1075.84,-381.19 842.95,-367.1 650.5,-327 440.17,-283.17 199.01,-193.13 101.19,-154.85"/>
<polygon fill="#63b8ff" stroke="#63b8ff" points="102.21,-151.49 91.63,-151.1 99.66,-158.01 102.21,-151.49"/>
</g>
<!-- Node9 -->
<g id="node9" class="node">
<title>Node9</title>
<g id="a_node9"><a xlink:title=" ">
<polygon fill="#e0e0e0" stroke="#999999" points="333,-151 170,-151 170,-121 333,-121 333,-151"/>
<text text-anchor="start" x="178" y="-139" font-family="Helvetica,sans-Serif" font-size="10.00">flutter/shell/platform</text>
<text text-anchor="middle" x="251.5" y="-128" font-family="Helvetica,sans-Serif" font-size="10.00">/common/json_message_codec.h</text>
</a>
</g>
</g>
<!-- Node1&#45;&gt;Node9 -->
<g id="edge8" class="edge">
<title>Node1&#45;&gt;Node9</title>
<path fill="none" stroke="#63b8ff" d="M1186.39,-386.16C1085.86,-382.03 885.67,-368.83 721.5,-327 553.42,-284.17 365.6,-194.69 288.03,-155.76"/>
<polygon fill="#63b8ff" stroke="#63b8ff" points="289.2,-152.43 278.69,-151.05 286.04,-158.68 289.2,-152.43"/>
</g>
<!-- Node10 -->
<g id="node10" class="node">
<title>Node10</title>
<g id="a_node10"><a xlink:title=" ">
<polygon fill="#e0e0e0" stroke="#999999" points="561.5,-145.5 427.5,-145.5 427.5,-126.5 561.5,-126.5 561.5,-145.5"/>
<text text-anchor="middle" x="494.5" y="-133.5" font-family="Helvetica,sans-Serif" font-size="10.00">xkbcommon/xkbcommon.h</text>
</a>
</g>
</g>
<!-- Node1&#45;&gt;Node10 -->
<g id="edge9" class="edge">
<title>Node1&#45;&gt;Node10</title>
<path fill="none" stroke="#63b8ff" d="M1186.15,-386.73C1093.11,-383.35 916.51,-371.1 773.5,-327 722.03,-311.13 711.79,-299.54 665.5,-272 628.42,-249.94 619.54,-243.51 585.5,-217 558.3,-195.81 528.63,-168.96 510.8,-152.39"/>
<polygon fill="#63b8ff" stroke="#63b8ff" points="513.19,-149.83 503.49,-145.55 508.4,-154.94 513.19,-149.83"/>
</g>
<!-- Node11 -->
<g id="node11" class="node">
<title>Node11</title>
<g id="a_node11"><a xlink:href="engine_8h.html" target="_top" xlink:title=" ">
<polygon fill="white" stroke="#666666" points="1762,-327 1709,-327 1709,-308 1762,-308 1762,-327"/>
<text text-anchor="middle" x="1735.5" y="-315" font-family="Helvetica,sans-Serif" font-size="10.00">engine.h</text>
</a>
</g>
</g>
<!-- Node1&#45;&gt;Node11 -->
<g id="edge10" class="edge">
<title>Node1&#45;&gt;Node11</title>
<path fill="none" stroke="#63b8ff" d="M1314.65,-378.81C1417.63,-364.05 1616.54,-335.55 1698.66,-323.78"/>
<polygon fill="#63b8ff" stroke="#63b8ff" points="1699.36,-327.21 1708.77,-322.33 1698.37,-320.28 1699.36,-327.21"/>
</g>
<!-- Node22 -->
<g id="node22" class="node">
<title>Node22</title>
<g id="a_node22"><a xlink:href="logging_8h.html" target="_top" xlink:title=" ">
<polygon fill="white" stroke="#666666" points="2878.5,-272 2822.5,-272 2822.5,-253 2878.5,-253 2878.5,-272"/>
<text text-anchor="middle" x="2850.5" y="-260" font-family="Helvetica,sans-Serif" font-size="10.00">logging.h</text>
</a>
</g>
</g>
<!-- Node1&#45;&gt;Node22 -->
<g id="edge85" class="edge">
<title>Node1&#45;&gt;Node22</title>
<path fill="none" stroke="#63b8ff" d="M1314.7,-387.77C1586.24,-386.46 2632.78,-378.13 2770.5,-327 2796.87,-317.21 2821.28,-295.17 2836.03,-279.82"/>
<polygon fill="#63b8ff" stroke="#63b8ff" points="2838.95,-281.82 2843.18,-272.1 2833.82,-277.06 2838.95,-281.82"/>
</g>
<!-- Node29 -->
<g id="node29" class="node">
<title>Node29</title>
<g id="a_node29"><a xlink:href="key__event_8h.html" target="_top" xlink:title=" ">
<polygon fill="white" stroke="#666666" points="696.5,-217 594.5,-217 594.5,-187 696.5,-187 696.5,-217"/>
<text text-anchor="start" x="602.5" y="-205" font-family="Helvetica,sans-Serif" font-size="10.00">static_plugins/key</text>
<text text-anchor="middle" x="645.5" y="-194" font-family="Helvetica,sans-Serif" font-size="10.00">_event/key_event.h</text>
</a>
</g>
</g>
<!-- Node1&#45;&gt;Node29 -->
<g id="edge84" class="edge">
<title>Node1&#45;&gt;Node29</title>
<path fill="none" stroke="#63b8ff" d="M1186.05,-381.13C1056.22,-366.26 768.71,-327.88 688.5,-272 672.54,-260.88 661.3,-241.74 654.33,-226.43"/>
<polygon fill="#63b8ff" stroke="#63b8ff" points="657.48,-224.89 650.35,-217.05 651.03,-227.62 657.48,-224.89"/>
</g>
<!-- Node3 -->
<g id="node3" class="node">
<title>Node3</title>
<g id="a_node3"><a xlink:title=" ">
<polygon fill="#e0e0e0" stroke="#999999" points="808.5,-24.5 748.5,-24.5 748.5,-5.5 808.5,-5.5 808.5,-24.5"/>
<text text-anchor="middle" x="778.5" y="-12.5" font-family="Helvetica,sans-Serif" font-size="10.00">EGL/egl.h</text>
</a>
</g>
</g>
<!-- Node2&#45;&gt;Node3 -->
<g id="edge2" class="edge">
<title>Node2&#45;&gt;Node3</title>
<path fill="none" stroke="#63b8ff" d="M1396.36,-71.44C1285.85,-61.52 938.13,-30.32 819.01,-19.63"/>
<polygon fill="#63b8ff" stroke="#63b8ff" points="819.13,-16.13 808.86,-18.72 818.51,-23.1 819.13,-16.13"/>
</g>
<!-- Node4 -->
<g id="node4" class="node">
<title>Node4</title>
<g id="a_node4"><a xlink:title=" ">
<polygon fill="#e0e0e0" stroke="#999999" points="1686,-30 1565,-30 1565,0 1686,0 1686,-30"/>
<text text-anchor="start" x="1573" y="-18" font-family="Helvetica,sans-Serif" font-size="10.00">shell/platform/embedder</text>
<text text-anchor="middle" x="1625.5" y="-7" font-family="Helvetica,sans-Serif" font-size="10.00">/embedder.h</text>
</a>
</g>
</g>
<!-- Node2&#45;&gt;Node4 -->
<g id="edge3" class="edge">
<title>Node2&#45;&gt;Node4</title>
<path fill="none" stroke="#63b8ff" d="M1458.85,-65.99C1487.53,-57.39 1532.65,-43.86 1568.71,-33.04"/>
<polygon fill="#63b8ff" stroke="#63b8ff" points="1570.05,-36.29 1578.62,-30.06 1568.04,-29.59 1570.05,-36.29"/>
</g>
<!-- Node5 -->
<g id="node5" class="node">
<title>Node5</title>
<g id="a_node5"><a xlink:title=" ">
<polygon fill="#e0e0e0" stroke="#999999" points="1449.5,-24.5 1411.5,-24.5 1411.5,-5.5 1449.5,-5.5 1449.5,-24.5"/>
<text text-anchor="middle" x="1430.5" y="-12.5" font-family="Helvetica,sans-Serif" font-size="10.00">array</text>
</a>
</g>
</g>
<!-- Node2&#45;&gt;Node5 -->
<g id="edge4" class="edge">
<title>Node2&#45;&gt;Node5</title>
<path fill="none" stroke="#63b8ff" d="M1430.5,-65.87C1430.5,-57.75 1430.5,-45.31 1430.5,-34.89"/>
<polygon fill="#63b8ff" stroke="#63b8ff" points="1434,-34.67 1430.5,-24.67 1427,-34.67 1434,-34.67"/>
</g>
<!-- Node11&#45;&gt;Node2 -->
<g id="edge27" class="edge">
<title>Node11&#45;&gt;Node2</title>
<path fill="none" stroke="#63b8ff" d="M1708.8,-316.52C1564.58,-315.98 880.66,-305.25 758.5,-151 750.22,-140.55 749.39,-130.73 758.5,-121 801.27,-75.3 1242.7,-74.92 1385.91,-76.01"/>
<polygon fill="#63b8ff" stroke="#63b8ff" points="1386.06,-79.52 1396.09,-76.1 1386.12,-72.52 1386.06,-79.52"/>
</g>
<!-- Node11&#45;&gt;Node3 -->
<g id="edge12" class="edge">
<title>Node11&#45;&gt;Node3</title>
<path fill="none" stroke="#63b8ff" d="M1708.98,-316.03C1566.9,-313.41 894.5,-299.74 688.5,-272 628.85,-263.97 198.01,-198.07 160.5,-151 85.65,-57.06 589.95,-25.09 738.3,-17.78"/>
<polygon fill="#63b8ff" stroke="#63b8ff" points="738.53,-21.27 748.35,-17.29 738.2,-14.28 738.53,-21.27"/>
</g>
<!-- Node11&#45;&gt;Node4 -->
<g id="edge15" class="edge">
<title>Node11&#45;&gt;Node4</title>
<path fill="none" stroke="#63b8ff" d="M1762.21,-316.52C1926.63,-316.31 2794.5,-310.13 2794.5,-203 2794.5,-203 2794.5,-203 2794.5,-135 2794.5,-24.02 1949.83,-15.73 1696.49,-15.74"/>
<polygon fill="#63b8ff" stroke="#63b8ff" points="1696.29,-12.24 1686.3,-15.74 1696.3,-19.24 1696.29,-12.24"/>
</g>
<!-- Node11&#45;&gt;Node7 -->
<g id="edge18" class="edge">
<title>Node11&#45;&gt;Node7</title>
<path fill="none" stroke="#63b8ff" d="M1708.72,-315.19C1629.18,-311.02 1398.49,-296.88 1376.5,-272 1346.82,-238.41 1497,-175.62 1565.68,-149.2"/>
<polygon fill="#63b8ff" stroke="#63b8ff" points="1567.09,-152.41 1575.19,-145.58 1564.6,-145.87 1567.09,-152.41"/>
</g>
<!-- Node12 -->
<g id="node12" class="node">
<title>Node12</title>
<g id="a_node12"><a xlink:title=" ">
<polygon fill="#e0e0e0" stroke="#999999" points="1452,-272 1393,-272 1393,-253 1452,-253 1452,-272"/>
<text text-anchor="middle" x="1422.5" y="-260" font-family="Helvetica,sans-Serif" font-size="10.00">functional</text>
</a>
</g>
</g>
<!-- Node11&#45;&gt;Node12 -->
<g id="edge11" class="edge">
<title>Node11&#45;&gt;Node12</title>
<path fill="none" stroke="#63b8ff" d="M1708.97,-312.67C1661.57,-305.74 1559.04,-290.26 1462.23,-272.05"/>
<polygon fill="#63b8ff" stroke="#63b8ff" points="1462.75,-268.58 1452.28,-270.16 1461.45,-275.46 1462.75,-268.58"/>
</g>
<!-- Node13 -->
<g id="node13" class="node">
<title>Node13</title>
<g id="a_node13"><a xlink:title=" ">
<polygon fill="#e0e0e0" stroke="#999999" points="1542.5,-272 1470.5,-272 1470.5,-253 1542.5,-253 1542.5,-272"/>
<text text-anchor="middle" x="1506.5" y="-260" font-family="Helvetica,sans-Serif" font-size="10.00">GLES2/gl2.h</text>
</a>
</g>
</g>
<!-- Node11&#45;&gt;Node13 -->
<g id="edge13" class="edge">
<title>Node11&#45;&gt;Node13</title>
<path fill="none" stroke="#63b8ff" d="M1708.78,-310.32C1670.53,-301.46 1599.61,-285.05 1552.74,-274.2"/>
<polygon fill="#63b8ff" stroke="#63b8ff" points="1553.36,-270.75 1542.83,-271.91 1551.78,-277.57 1553.36,-270.75"/>
</g>
<!-- Node14 -->
<g id="node14" class="node">
<title>Node14</title>
<g id="a_node14"><a xlink:title=" ">
<polygon fill="#e0e0e0" stroke="#999999" points="1686,-272 1561,-272 1561,-253 1686,-253 1686,-272"/>
<text text-anchor="middle" x="1623.5" y="-260" font-family="Helvetica,sans-Serif" font-size="10.00">flutter/encodable_value.h</text>
</a>
</g>
</g>
<!-- Node11&#45;&gt;Node14 -->
<g id="edge14" class="edge">
<title>Node11&#45;&gt;Node14</title>
<path fill="none" stroke="#63b8ff" d="M1717.51,-307.98C1699.57,-299.5 1671.78,-286.35 1651.07,-276.54"/>
<polygon fill="#63b8ff" stroke="#63b8ff" points="1652.36,-273.28 1641.82,-272.17 1649.36,-279.61 1652.36,-273.28"/>
</g>
<!-- Node15 -->
<g id="node15" class="node">
<title>Node15</title>
<g id="a_node15"><a xlink:title=" ">
<polygon fill="#e0e0e0" stroke="#999999" points="1766.5,-272 1704.5,-272 1704.5,-253 1766.5,-253 1766.5,-272"/>
<text text-anchor="middle" x="1735.5" y="-260" font-family="Helvetica,sans-Serif" font-size="10.00">filesystem</text>
</a>
</g>
</g>
<!-- Node11&#45;&gt;Node15 -->
<g id="edge16" class="edge">
<title>Node11&#45;&gt;Node15</title>
<path fill="none" stroke="#63b8ff" d="M1735.5,-307.75C1735.5,-300.8 1735.5,-290.85 1735.5,-282.13"/>
<polygon fill="#63b8ff" stroke="#63b8ff" points="1739,-282.09 1735.5,-272.09 1732,-282.09 1739,-282.09"/>
</g>
<!-- Node16 -->
<g id="node16" class="node">
<title>Node16</title>
<g id="a_node16"><a xlink:title=" ">
<polygon fill="#e0e0e0" stroke="#999999" points="1678,-145.5 1643,-145.5 1643,-126.5 1678,-126.5 1678,-145.5"/>
<text text-anchor="middle" x="1660.5" y="-133.5" font-family="Helvetica,sans-Serif" font-size="10.00">map</text>
</a>
</g>
</g>
<!-- Node11&#45;&gt;Node16 -->
<g id="edge17" class="edge">
<title>Node11&#45;&gt;Node16</title>
<path fill="none" stroke="#63b8ff" d="M1708.76,-315.11C1630.48,-310.78 1405.92,-296.31 1384.5,-272 1378.92,-265.66 1379.79,-260.01 1384.5,-253 1451.14,-153.69 1524.97,-201.24 1633.5,-151 1634.18,-150.68 1634.87,-150.36 1635.57,-150.03"/>
<polygon fill="#63b8ff" stroke="#63b8ff" points="1637.23,-153.11 1644.63,-145.53 1634.11,-146.84 1637.23,-153.11"/>
</g>
<!-- Node17 -->
<g id="node17" class="node">
<title>Node17</title>
<g id="a_node17"><a xlink:title=" ">
<polygon fill="#e0e0e0" stroke="#999999" points="1828.5,-272 1784.5,-272 1784.5,-253 1828.5,-253 1828.5,-272"/>
<text text-anchor="middle" x="1806.5" y="-260" font-family="Helvetica,sans-Serif" font-size="10.00">mutex</text>
</a>
</g>
</g>
<!-- Node11&#45;&gt;Node17 -->
<g id="edge19" class="edge">
<title>Node11&#45;&gt;Node17</title>
<path fill="none" stroke="#63b8ff" d="M1746.91,-307.98C1757.61,-300 1773.84,-287.88 1786.66,-278.31"/>
<polygon fill="#63b8ff" stroke="#63b8ff" points="1788.97,-280.96 1794.89,-272.17 1784.78,-275.35 1788.97,-280.96"/>
</g>
<!-- Node18 -->
<g id="node18" class="node">
<title>Node18</title>
<g id="a_node18"><a xlink:title=" ">
<polygon fill="#e0e0e0" stroke="#999999" points="1890,-272 1847,-272 1847,-253 1890,-253 1890,-272"/>
<text text-anchor="middle" x="1868.5" y="-260" font-family="Helvetica,sans-Serif" font-size="10.00">queue</text>
</a>
</g>
</g>
<!-- Node11&#45;&gt;Node18 -->
<g id="edge20" class="edge">
<title>Node11&#45;&gt;Node18</title>
<path fill="none" stroke="#63b8ff" d="M1756.87,-307.98C1778.65,-299.3 1812.66,-285.75 1837.42,-275.88"/>
<polygon fill="#63b8ff" stroke="#63b8ff" points="1838.75,-279.12 1846.74,-272.17 1836.16,-272.62 1838.75,-279.12"/>
</g>
<!-- Node19 -->
<g id="node19" class="node">
<title>Node19</title>
<g id="a_node19"><a xlink:title=" ">
<polygon fill="#e0e0e0" stroke="#999999" points="1776,-145.5 1735,-145.5 1735,-126.5 1776,-126.5 1776,-145.5"/>
<text text-anchor="middle" x="1755.5" y="-133.5" font-family="Helvetica,sans-Serif" font-size="10.00">string</text>
</a>
</g>
</g>
<!-- Node11&#45;&gt;Node19 -->
<g id="edge21" class="edge">
<title>Node11&#45;&gt;Node19</title>
<path fill="none" stroke="#63b8ff" d="M1762.03,-313.85C1807.18,-308.73 1895.86,-295.84 1914.5,-272 1919.7,-265.35 1918.58,-260.4 1914.5,-253 1900.04,-226.76 1881.99,-234.27 1857.5,-217 1827.08,-195.55 1793.4,-168.43 1773.36,-151.91"/>
<polygon fill="#63b8ff" stroke="#63b8ff" points="1775.59,-149.22 1765.66,-145.53 1771.13,-154.61 1775.59,-149.22"/>
</g>
<!-- Node20 -->
<g id="node20" class="node">
<title>Node20</title>
<g id="a_node20"><a xlink:title=" ">
<polygon fill="#e0e0e0" stroke="#999999" points="1957.5,-145.5 1913.5,-145.5 1913.5,-126.5 1957.5,-126.5 1957.5,-145.5"/>
<text text-anchor="middle" x="1935.5" y="-133.5" font-family="Helvetica,sans-Serif" font-size="10.00">vector</text>
</a>
</g>
</g>
<!-- Node11&#45;&gt;Node20 -->
<g id="edge22" class="edge">
<title>Node11&#45;&gt;Node20</title>
<path fill="none" stroke="#63b8ff" d="M1762.06,-315.17C1840.93,-310.96 2069.7,-296.69 2091.5,-272 2121.16,-238.4 2090.49,-230.16 2035.5,-187 2023.59,-177.65 1989.03,-161.12 1963.87,-149.64"/>
<polygon fill="#63b8ff" stroke="#63b8ff" points="1965.31,-146.44 1954.76,-145.51 1962.42,-152.82 1965.31,-146.44"/>
</g>
<!-- Node21 -->
<g id="node21" class="node">
<title>Node21</title>
<g id="a_node21"><a xlink:href="backend_8h.html" target="_top" xlink:title=" ">
<polygon fill="white" stroke="#666666" points="2728,-145.5 2627,-145.5 2627,-126.5 2728,-126.5 2728,-145.5"/>
<text text-anchor="middle" x="2677.5" y="-133.5" font-family="Helvetica,sans-Serif" font-size="10.00">backend/backend.h</text>
</a>
</g>
</g>
<!-- Node11&#45;&gt;Node21 -->
<g id="edge23" class="edge">
<title>Node11&#45;&gt;Node21</title>
<path fill="none" stroke="#63b8ff" d="M1762.3,-313.98C1823.16,-308.56 1975.31,-294.43 2101.5,-272 2301.64,-236.42 2536.83,-173.55 2633.16,-148.13"/>
<polygon fill="#63b8ff" stroke="#63b8ff" points="2634.08,-151.51 2642.86,-145.57 2632.3,-144.74 2634.08,-151.51"/>
</g>
<!-- Node11&#45;&gt;Node22 -->
<g id="edge28" class="edge">
<title>Node11&#45;&gt;Node22</title>
<path fill="none" stroke="#63b8ff" d="M1762.19,-315.97C1906.71,-312.99 2596.8,-297.65 2808.5,-272 2809.61,-271.87 2810.73,-271.72 2811.86,-271.56"/>
<polygon fill="#63b8ff" stroke="#63b8ff" points="2812.83,-274.95 2822.13,-269.87 2811.7,-268.04 2812.83,-274.95"/>
</g>
<!-- Node28 -->
<g id="node28" class="node">
<title>Node28</title>
<g id="a_node28"><a xlink:href="platform__channel_8h.html" target="_top" xlink:title=" ">
<polygon fill="white" stroke="#666666" points="1801,-211.5 1702,-211.5 1702,-192.5 1801,-192.5 1801,-211.5"/>
<text text-anchor="middle" x="1751.5" y="-199.5" font-family="Helvetica,sans-Serif" font-size="10.00">platform_channel.h</text>
</a>
</g>
</g>
<!-- Node11&#45;&gt;Node28 -->
<g id="edge35" class="edge">
<title>Node11&#45;&gt;Node28</title>
<path fill="none" stroke="#63b8ff" d="M1762.18,-313.18C1804.23,-307.34 1882.88,-293.73 1899.5,-272 1904.63,-265.29 1904.42,-259.86 1899.5,-253 1887.96,-236.92 1841.47,-222.92 1803.63,-213.86"/>
<polygon fill="#63b8ff" stroke="#63b8ff" points="1804.26,-210.41 1793.73,-211.55 1802.67,-217.23 1804.26,-210.41"/>
</g>
<!-- Node11&#45;&gt;Node29 -->
<g id="edge39" class="edge">
<title>Node11&#45;&gt;Node29</title>
<path fill="none" stroke="#63b8ff" d="M1708.78,-316.37C1558.21,-315.47 819.2,-309.19 725.5,-272 700.59,-262.11 678.06,-241.04 663.3,-224.77"/>
<polygon fill="#63b8ff" stroke="#63b8ff" points="665.93,-222.45 656.71,-217.23 660.66,-227.06 665.93,-222.45"/>
</g>
<!-- Node32 -->
<g id="node32" class="node">
<title>Node32</title>
<g id="a_node32"><a xlink:href="text__input_8h.html" target="_top" xlink:title=" ">
<polygon fill="white" stroke="#666666" points="1260,-217 1163,-217 1163,-187 1260,-187 1260,-217"/>
<text text-anchor="start" x="1171" y="-205" font-family="Helvetica,sans-Serif" font-size="10.00">static_plugins/text</text>
<text text-anchor="middle" x="1211.5" y="-194" font-family="Helvetica,sans-Serif" font-size="10.00">_input/text_input.h</text>
</a>
</g>
</g>
<!-- Node11&#45;&gt;Node32 -->
<g id="edge51" class="edge">
<title>Node11&#45;&gt;Node32</title>
<path fill="none" stroke="#63b8ff" d="M1708.82,-315.4C1627.85,-311.8 1385.97,-298.99 1312.5,-272 1283.02,-261.17 1253.9,-239.83 1234.56,-223.73"/>
<polygon fill="#63b8ff" stroke="#63b8ff" points="1236.78,-221.03 1226.89,-217.2 1232.23,-226.35 1236.78,-221.03"/>
</g>
<!-- Node37 -->
<g id="node37" class="node">
<title>Node37</title>
<g id="a_node37"><a xlink:href="flutter__view_8h.html" target="_top" xlink:title=" ">
<polygon fill="white" stroke="#666666" points="2082.5,-272 1984.5,-272 1984.5,-253 2082.5,-253 2082.5,-272"/>
<text text-anchor="middle" x="2033.5" y="-260" font-family="Helvetica,sans-Serif" font-size="10.00">view/flutter_view.h</text>
</a>
</g>
</g>
<!-- Node11&#45;&gt;Node37 -->
<g id="edge65" class="edge">
<title>Node11&#45;&gt;Node37</title>
<path fill="none" stroke="#63b8ff" d="M1762.21,-311.75C1810.01,-303.25 1911.2,-285.25 1975.58,-273.8"/>
<polygon fill="#63b8ff" stroke="#63b8ff" points="1976.35,-277.22 1985.58,-272.02 1975.12,-270.33 1976.35,-277.22"/>
</g>
<!-- Node21&#45;&gt;Node2 -->
<g id="edge25" class="edge">
<title>Node21&#45;&gt;Node2</title>
<path fill="none" stroke="#63b8ff" d="M2643.28,-126.46C2633.41,-124.32 2622.58,-122.27 2612.5,-121 2386.03,-92.57 1661.61,-79.96 1474.79,-77.13"/>
<polygon fill="#63b8ff" stroke="#63b8ff" points="1474.83,-73.63 1464.78,-76.98 1474.72,-80.63 1474.83,-73.63"/>
</g>
<!-- Node21&#45;&gt;Node4 -->
<g id="edge24" class="edge">
<title>Node21&#45;&gt;Node4</title>
<path fill="none" stroke="#63b8ff" d="M2631.32,-126.5C2619.96,-124.55 2607.81,-122.59 2596.5,-121 2260.7,-73.87 1856.99,-36.3 1696.39,-22.11"/>
<polygon fill="#63b8ff" stroke="#63b8ff" points="1696.44,-18.6 1686.17,-21.21 1695.82,-25.58 1696.44,-18.6"/>
</g>
<!-- Node21&#45;&gt;Node11 -->
<g id="edge26" class="edge">
<title>Node21&#45;&gt;Node11</title>
<path fill="none" stroke="#63b8ff" d="M2651.2,-145.57C2571.52,-169.06 2326.72,-235.16 2119.5,-272 1993.59,-294.38 1841.83,-308.49 1772.74,-313.94"/>
<polygon fill="#63b8ff" stroke="#63b8ff" points="1772.08,-310.48 1762.38,-314.74 1772.62,-317.46 1772.08,-310.48"/>
</g>
<!-- Node23 -->
<g id="node23" class="node">
<title>Node23</title>
<g id="a_node23"><a xlink:title=" ">
<polygon fill="#e0e0e0" stroke="#999999" points="2943.5,-211.5 2891.5,-211.5 2891.5,-192.5 2943.5,-192.5 2943.5,-211.5"/>
<text text-anchor="middle" x="2917.5" y="-199.5" font-family="Helvetica,sans-Serif" font-size="10.00">sstream</text>
</a>
</g>
</g>
<!-- Node22&#45;&gt;Node23 -->
<g id="edge29" class="edge">
<title>Node22&#45;&gt;Node23</title>
<path fill="none" stroke="#63b8ff" d="M2860.39,-252.87C2870.78,-243.8 2887.34,-229.34 2899.95,-218.32"/>
<polygon fill="#63b8ff" stroke="#63b8ff" points="2902.34,-220.88 2907.57,-211.67 2897.74,-215.61 2902.34,-220.88"/>
</g>
<!-- Node24 -->
<g id="node24" class="node">
<title>Node24</title>
<g id="a_node24"><a xlink:href="dlt_8h.html" target="_top" xlink:title=" ">
<polygon fill="white" stroke="#666666" points="2873,-211.5 2824,-211.5 2824,-192.5 2873,-192.5 2873,-211.5"/>
<text text-anchor="middle" x="2848.5" y="-199.5" font-family="Helvetica,sans-Serif" font-size="10.00">dlt/dlt.h</text>
</a>
</g>
</g>
<!-- Node22&#45;&gt;Node24 -->
<g id="edge30" class="edge">
<title>Node22&#45;&gt;Node24</title>
<path fill="none" stroke="#63b8ff" d="M2850.2,-252.87C2849.93,-244.75 2849.5,-232.31 2849.15,-221.89"/>
<polygon fill="#63b8ff" stroke="#63b8ff" points="2852.64,-221.54 2848.8,-211.67 2845.64,-221.78 2852.64,-221.54"/>
</g>
<!-- Node27 -->
<g id="node27" class="node">
<title>Node27</title>
<g id="a_node27"><a xlink:title=" ">
<polygon fill="#e0e0e0" stroke="#999999" points="1895,-145.5 1794,-145.5 1794,-126.5 1895,-126.5 1895,-145.5"/>
<text text-anchor="middle" x="1844.5" y="-133.5" font-family="Helvetica,sans-Serif" font-size="10.00">flutter/fml/macros.h</text>
</a>
</g>
</g>
<!-- Node22&#45;&gt;Node27 -->
<g id="edge34" class="edge">
<title>Node22&#45;&gt;Node27</title>
<path fill="none" stroke="#63b8ff" d="M2822.44,-261.6C2727.76,-261.52 2411.57,-258.01 2154.5,-217 2147.79,-215.93 1970.45,-169.81 1887.07,-148.1"/>
<polygon fill="#63b8ff" stroke="#63b8ff" points="1887.94,-144.71 1877.38,-145.57 1886.18,-151.48 1887.94,-144.71"/>
</g>
<!-- Node25 -->
<g id="node25" class="node">
<title>Node25</title>
<g id="a_node25"><a xlink:href="libdlt_8h.html" target="_top" xlink:title=" ">
<polygon fill="white" stroke="#666666" points="2882,-145.5 2823,-145.5 2823,-126.5 2882,-126.5 2882,-145.5"/>
<text text-anchor="middle" x="2852.5" y="-133.5" font-family="Helvetica,sans-Serif" font-size="10.00">dlt/libdlt.h</text>
</a>
</g>
</g>
<!-- Node24&#45;&gt;Node25 -->
<g id="edge31" class="edge">
<title>Node24&#45;&gt;Node25</title>
<path fill="none" stroke="#63b8ff" d="M2849.04,-192.37C2849.62,-183.07 2850.56,-167.98 2851.32,-155.9"/>
<polygon fill="#63b8ff" stroke="#63b8ff" points="2854.81,-156.1 2851.94,-145.91 2847.83,-155.67 2854.81,-156.1"/>
</g>
<!-- Node24&#45;&gt;Node27 -->
<g id="edge33" class="edge">
<title>Node24&#45;&gt;Node27</title>
<path fill="none" stroke="#63b8ff" d="M2823.91,-201.28C2715.23,-202.21 2267.25,-202.52 1904.5,-151 1898.6,-150.16 1892.42,-149.02 1886.37,-147.76"/>
<polygon fill="#63b8ff" stroke="#63b8ff" points="1886.9,-144.29 1876.38,-145.54 1885.38,-151.12 1886.9,-144.29"/>
</g>
<!-- Node26 -->
<g id="node26" class="node">
<title>Node26</title>
<g id="a_node26"><a xlink:title=" ">
<polygon fill="#e0e0e0" stroke="#999999" points="2875.5,-85 2829.5,-85 2829.5,-66 2875.5,-66 2875.5,-85"/>
<text text-anchor="middle" x="2852.5" y="-73" font-family="Helvetica,sans-Serif" font-size="10.00">cstdint</text>
</a>
</g>
</g>
<!-- Node25&#45;&gt;Node26 -->
<g id="edge32" class="edge">
<title>Node25&#45;&gt;Node26</title>
<path fill="none" stroke="#63b8ff" d="M2852.5,-126.37C2852.5,-118.25 2852.5,-105.81 2852.5,-95.39"/>
<polygon fill="#63b8ff" stroke="#63b8ff" points="2856,-95.17 2852.5,-85.17 2849,-95.17 2856,-95.17"/>
</g>
<!-- Node28&#45;&gt;Node4 -->
<g id="edge38" class="edge">
<title>Node28&#45;&gt;Node4</title>
<path fill="none" stroke="#63b8ff" d="M1745.42,-192.08C1726.59,-164.43 1668.82,-79.61 1640.91,-38.63"/>
<polygon fill="#63b8ff" stroke="#63b8ff" points="1643.64,-36.42 1635.12,-30.12 1637.86,-40.36 1643.64,-36.42"/>
</g>
<!-- Node28&#45;&gt;Node16 -->
<g id="edge36" class="edge">
<title>Node28&#45;&gt;Node16</title>
<path fill="none" stroke="#63b8ff" d="M1739.23,-192.37C1724.44,-181.97 1699.35,-164.32 1681.47,-151.75"/>
<polygon fill="#63b8ff" stroke="#63b8ff" points="1683.06,-148.59 1672.87,-145.7 1679.04,-154.31 1683.06,-148.59"/>
</g>
<!-- Node28&#45;&gt;Node19 -->
<g id="edge37" class="edge">
<title>Node28&#45;&gt;Node19</title>
<path fill="none" stroke="#63b8ff" d="M1752.04,-192.37C1752.62,-183.07 1753.56,-167.98 1754.32,-155.9"/>
<polygon fill="#63b8ff" stroke="#63b8ff" points="1757.81,-156.1 1754.94,-145.91 1750.83,-155.67 1757.81,-156.1"/>
</g>
<!-- Node29&#45;&gt;Node2 -->
<g id="edge50" class="edge">
<title>Node29&#45;&gt;Node2</title>
<path fill="none" stroke="#63b8ff" d="M594.46,-199.08C512.07,-194.3 364.19,-177.75 418.5,-121 452.4,-85.58 1195.37,-78.1 1386.16,-76.76"/>
<polygon fill="#63b8ff" stroke="#63b8ff" points="1386.41,-80.26 1396.38,-76.69 1386.36,-73.26 1386.41,-80.26"/>
</g>
<!-- Node29&#45;&gt;Node4 -->
<g id="edge48" class="edge">
<title>Node29&#45;&gt;Node4</title>
<path fill="none" stroke="#63b8ff" d="M594.2,-200.14C507.49,-197.01 346.65,-182.94 403.5,-121 404.73,-119.66 1294.72,-44.06 1554.88,-21.99"/>
<polygon fill="#63b8ff" stroke="#63b8ff" points="1555.3,-25.47 1564.97,-21.13 1554.71,-18.49 1555.3,-25.47"/>
</g>
<!-- Node29&#45;&gt;Node7 -->
<g id="edge41" class="edge">
<title>Node29&#45;&gt;Node7</title>
<path fill="none" stroke="#63b8ff" d="M696.8,-200.46C832.56,-198.52 1212.28,-189.76 1525.5,-151 1537.58,-149.5 1550.68,-147.21 1562.4,-144.91"/>
<polygon fill="#63b8ff" stroke="#63b8ff" points="1563.17,-148.32 1572.28,-142.9 1561.78,-141.46 1563.17,-148.32"/>
</g>
<!-- Node29&#45;&gt;Node8 -->
<g id="edge43" class="edge">
<title>Node29&#45;&gt;Node8</title>
<path fill="none" stroke="#63b8ff" d="M594.47,-196.27C506.01,-187.94 318.53,-169.78 160.5,-151 148.49,-149.57 135.71,-147.94 123.37,-146.31"/>
<polygon fill="#63b8ff" stroke="#63b8ff" points="123.51,-142.8 113.13,-144.95 122.58,-149.74 123.51,-142.8"/>
</g>
<!-- Node29&#45;&gt;Node9 -->
<g id="edge45" class="edge">
<title>Node29&#45;&gt;Node9</title>
<path fill="none" stroke="#63b8ff" d="M594.4,-192.7C531.03,-182.41 421.84,-164.67 343.69,-151.98"/>
<polygon fill="#63b8ff" stroke="#63b8ff" points="343.8,-148.45 333.36,-150.3 342.67,-155.36 343.8,-148.45"/>
</g>
<!-- Node29&#45;&gt;Node10 -->
<g id="edge49" class="edge">
<title>Node29&#45;&gt;Node10</title>
<path fill="none" stroke="#63b8ff" d="M612.36,-186.95C586,-175.78 549.44,-160.29 524.06,-149.53"/>
<polygon fill="#63b8ff" stroke="#63b8ff" points="525.17,-146.2 514.6,-145.52 522.44,-152.64 525.17,-146.2"/>
</g>
<!-- Node29&#45;&gt;Node16 -->
<g id="edge40" class="edge">
<title>Node29&#45;&gt;Node16</title>
<path fill="none" stroke="#63b8ff" d="M696.73,-199.68C886.47,-194.63 1542.89,-175.54 1633.5,-151 1634.76,-150.66 1636.03,-150.25 1637.3,-149.8"/>
<polygon fill="#63b8ff" stroke="#63b8ff" points="1638.97,-152.88 1646.67,-145.61 1636.11,-146.49 1638.97,-152.88"/>
</g>
<!-- Node29&#45;&gt;Node19 -->
<g id="edge42" class="edge">
<title>Node29&#45;&gt;Node19</title>
<path fill="none" stroke="#63b8ff" d="M696.79,-199.59C878.69,-194.44 1492.43,-175.61 1687.5,-151 1699.77,-149.45 1713.12,-146.9 1724.73,-144.39"/>
<polygon fill="#63b8ff" stroke="#63b8ff" points="1725.81,-147.73 1734.81,-142.13 1724.28,-140.9 1725.81,-147.73"/>
</g>
<!-- Node29&#45;&gt;Node27 -->
<g id="edge46" class="edge">
<title>Node29&#45;&gt;Node27</title>
<path fill="none" stroke="#63b8ff" d="M696.81,-199.32C904.52,-192.45 1676.97,-166.12 1785.5,-151 1791.38,-150.18 1797.53,-149.04 1803.55,-147.77"/>
<polygon fill="#63b8ff" stroke="#63b8ff" points="1804.49,-151.14 1813.48,-145.52 1802.95,-144.31 1804.49,-151.14"/>
</g>
<!-- Node30 -->
<g id="node30" class="node">
<title>Node30</title>
<g id="a_node30"><a xlink:title=" ">
<polygon fill="#e0e0e0" stroke="#999999" points="711.5,-145.5 579.5,-145.5 579.5,-126.5 711.5,-126.5 711.5,-145.5"/>
<text text-anchor="middle" x="645.5" y="-133.5" font-family="Helvetica,sans-Serif" font-size="10.00">flutter/binary_messenger.h</text>
</a>
</g>
</g>
<!-- Node29&#45;&gt;Node30 -->
<g id="edge44" class="edge">
<title>Node29&#45;&gt;Node30</title>
<path fill="none" stroke="#63b8ff" d="M645.5,-186.8C645.5,-177.7 645.5,-165.79 645.5,-155.9"/>
<polygon fill="#63b8ff" stroke="#63b8ff" points="649,-155.84 645.5,-145.84 642,-155.84 649,-155.84"/>
</g>
<!-- Node31 -->
<g id="node31" class="node">
<title>Node31</title>
<g id="a_node31"><a xlink:title=" ">
<polygon fill="#e0e0e0" stroke="#999999" points="1516.5,-145.5 1406.5,-145.5 1406.5,-126.5 1516.5,-126.5 1516.5,-145.5"/>
<text text-anchor="middle" x="1461.5" y="-133.5" font-family="Helvetica,sans-Serif" font-size="10.00">rapidjson/document.h</text>
</a>
</g>
</g>
<!-- Node29&#45;&gt;Node31 -->
<g id="edge47" class="edge">
<title>Node29&#45;&gt;Node31</title>
<path fill="none" stroke="#63b8ff" d="M696.68,-198.59C814.07,-192.79 1111.68,-176.66 1359.5,-151 1371.38,-149.77 1384,-148.23 1396.17,-146.62"/>
<polygon fill="#63b8ff" stroke="#63b8ff" points="1396.82,-150.07 1406.26,-145.26 1395.88,-143.13 1396.82,-150.07"/>
</g>
<!-- Node32&#45;&gt;Node2 -->
<g id="edge64" class="edge">
<title>Node32&#45;&gt;Node2</title>
<path fill="none" stroke="#63b8ff" d="M1260.1,-190.89C1290.33,-183.13 1329.09,-170.39 1359.5,-151 1383.65,-135.6 1405.4,-110.27 1418.28,-93.49"/>
<polygon fill="#63b8ff" stroke="#63b8ff" points="1421.32,-95.27 1424.48,-85.16 1415.7,-91.09 1421.32,-95.27"/>
</g>
<!-- Node32&#45;&gt;Node4 -->
<g id="edge62" class="edge">
<title>Node32&#45;&gt;Node4</title>
<path fill="none" stroke="#63b8ff" d="M1260.26,-189.78C1265.06,-188.79 1269.87,-187.85 1274.5,-187 1385.37,-166.76 1428.71,-208.73 1525.5,-151 1569.58,-124.71 1600.3,-70.78 1615.21,-39.63"/>
<polygon fill="#63b8ff" stroke="#63b8ff" points="1618.47,-40.92 1619.49,-30.38 1612.12,-37.98 1618.47,-40.92"/>
</g>
<!-- Node32&#45;&gt;Node7 -->
<g id="edge53" class="edge">
<title>Node32&#45;&gt;Node7</title>
<path fill="none" stroke="#63b8ff" d="M1260.25,-189.7C1265.05,-188.73 1269.86,-187.81 1274.5,-187 1399.85,-165.18 1434.66,-180.18 1558.5,-151 1561.32,-150.34 1564.22,-149.54 1567.11,-148.68"/>
<polygon fill="#63b8ff" stroke="#63b8ff" points="1568.31,-151.97 1576.74,-145.55 1566.15,-145.31 1568.31,-151.97"/>
</g>
<!-- Node32&#45;&gt;Node10 -->
<g id="edge63" class="edge">
<title>Node32&#45;&gt;Node10</title>
<path fill="none" stroke="#63b8ff" d="M1162.67,-198.93C1055.25,-194 790.48,-179.76 570.5,-151 562.74,-149.98 554.56,-148.71 546.57,-147.33"/>
<polygon fill="#63b8ff" stroke="#63b8ff" points="547.04,-143.86 536.59,-145.56 545.82,-150.76 547.04,-143.86"/>
</g>
<!-- Node32&#45;&gt;Node16 -->
<g id="edge52" class="edge">
<title>Node32&#45;&gt;Node16</title>
<path fill="none" stroke="#63b8ff" d="M1260.25,-197.44C1355.88,-190.08 1564.74,-172.13 1633.5,-151 1634.72,-150.62 1635.95,-150.2 1637.18,-149.73"/>
<polygon fill="#63b8ff" stroke="#63b8ff" points="1638.69,-152.89 1646.34,-145.56 1635.78,-146.52 1638.69,-152.89"/>
</g>
<!-- Node32&#45;&gt;Node19 -->
<g id="edge54" class="edge">
<title>Node32&#45;&gt;Node19</title>
<path fill="none" stroke="#63b8ff" d="M1260.01,-197.49C1346.33,-190.89 1532.1,-175.1 1687.5,-151 1699.72,-149.1 1713.07,-146.48 1724.67,-144.02"/>
<polygon fill="#63b8ff" stroke="#63b8ff" points="1725.74,-147.37 1734.76,-141.82 1724.25,-140.53 1725.74,-147.37"/>
</g>
<!-- Node32&#45;&gt;Node27 -->
<g id="edge58" class="edge">
<title>Node32&#45;&gt;Node27</title>
<path fill="none" stroke="#63b8ff" d="M1260.17,-199.16C1359.49,-194.88 1592.44,-182.14 1785.5,-151 1790.96,-150.12 1796.66,-149.01 1802.27,-147.81"/>
<polygon fill="#63b8ff" stroke="#63b8ff" points="1803.23,-151.18 1812.21,-145.56 1801.69,-144.35 1803.23,-151.18"/>
</g>
<!-- Node32&#45;&gt;Node30 -->
<g id="edge55" class="edge">
<title>Node32&#45;&gt;Node30</title>
<path fill="none" stroke="#63b8ff" d="M1162.87,-195.85C1079.9,-187.01 905.65,-168.24 758.5,-151 746.61,-149.61 734.03,-148.09 721.74,-146.59"/>
<polygon fill="#63b8ff" stroke="#63b8ff" points="721.86,-143.07 711.51,-145.33 721.01,-150.02 721.86,-143.07"/>
</g>
<!-- Node32&#45;&gt;Node31 -->
<g id="edge61" class="edge">
<title>Node32&#45;&gt;Node31</title>
<path fill="none" stroke="#63b8ff" d="M1260.3,-188.51C1306.17,-176.76 1374.19,-159.35 1418.19,-148.09"/>
<polygon fill="#63b8ff" stroke="#63b8ff" points="1419.2,-151.44 1428.01,-145.57 1417.46,-144.66 1419.2,-151.44"/>
</g>
<!-- Node33 -->
<g id="node33" class="node">
<title>Node33</title>
<g id="a_node33"><a xlink:title=" ">
<polygon fill="#e0e0e0" stroke="#999999" points="891.5,-145.5 767.5,-145.5 767.5,-126.5 891.5,-126.5 891.5,-145.5"/>
<text text-anchor="middle" x="829.5" y="-133.5" font-family="Helvetica,sans-Serif" font-size="10.00">flutter/method_channel.h</text>
</a>
</g>
</g>
<!-- Node32&#45;&gt;Node33 -->
<g id="edge56" class="edge">
<title>Node32&#45;&gt;Node33</title>
<path fill="none" stroke="#63b8ff" d="M1162.93,-193.73C1101.65,-184.44 993.09,-167.57 900.5,-151 894.33,-149.9 887.87,-148.69 881.47,-147.47"/>
<polygon fill="#63b8ff" stroke="#63b8ff" points="881.99,-144 871.5,-145.54 880.65,-150.87 881.99,-144"/>
</g>
<!-- Node34 -->
<g id="node34" class="node">
<title>Node34</title>
<g id="a_node34"><a xlink:title=" ">
<polygon fill="#e0e0e0" stroke="#999999" points="1015.5,-151 909.5,-151 909.5,-121 1015.5,-121 1015.5,-151"/>
<text text-anchor="start" x="917.5" y="-139" font-family="Helvetica,sans-Serif" font-size="10.00">flutter/method_result</text>
<text text-anchor="middle" x="962.5" y="-128" font-family="Helvetica,sans-Serif" font-size="10.00">_functions.h</text>
</a>
</g>
</g>
<!-- Node32&#45;&gt;Node34 -->
<g id="edge57" class="edge">
<title>Node32&#45;&gt;Node34</title>
<path fill="none" stroke="#63b8ff" d="M1162.9,-188.51C1123.64,-178.42 1068.1,-164.14 1025.44,-153.18"/>
<polygon fill="#63b8ff" stroke="#63b8ff" points="1026.28,-149.78 1015.72,-150.68 1024.53,-156.56 1026.28,-149.78"/>
</g>
<!-- Node35 -->
<g id="node35" class="node">
<title>Node35</title>
<g id="a_node35"><a xlink:title=" ">
<polygon fill="#e0e0e0" stroke="#999999" points="1189,-151 1034,-151 1034,-121 1189,-121 1189,-151"/>
<text text-anchor="start" x="1042" y="-139" font-family="Helvetica,sans-Serif" font-size="10.00">flutter/shell/platform</text>
<text text-anchor="middle" x="1111.5" y="-128" font-family="Helvetica,sans-Serif" font-size="10.00">/common/json_method_codec.h</text>
</a>
</g>
</g>
<!-- Node32&#45;&gt;Node35 -->
<g id="edge59" class="edge">
<title>Node32&#45;&gt;Node35</title>
<path fill="none" stroke="#63b8ff" d="M1189.31,-186.8C1175.45,-177.93 1157.43,-166.39 1142.21,-156.66"/>
<polygon fill="#63b8ff" stroke="#63b8ff" points="1143.94,-153.61 1133.63,-151.16 1140.17,-159.5 1143.94,-153.61"/>
</g>
<!-- Node36 -->
<g id="node36" class="node">
<title>Node36</title>
<g id="a_node36"><a xlink:title=" ">
<polygon fill="#e0e0e0" stroke="#999999" points="1350,-151 1207,-151 1207,-121 1350,-121 1350,-151"/>
<text text-anchor="start" x="1215" y="-139" font-family="Helvetica,sans-Serif" font-size="10.00">flutter/shell/platform</text>
<text text-anchor="middle" x="1278.5" y="-128" font-family="Helvetica,sans-Serif" font-size="10.00">/common/text_input_model.h</text>
</a>
</g>
</g>
<!-- Node32&#45;&gt;Node36 -->
<g id="edge60" class="edge">
<title>Node32&#45;&gt;Node36</title>
<path fill="none" stroke="#63b8ff" d="M1226.37,-186.8C1235.13,-178.43 1246.38,-167.68 1256.19,-158.31"/>
<polygon fill="#63b8ff" stroke="#63b8ff" points="1258.86,-160.6 1263.67,-151.16 1254.02,-155.54 1258.86,-160.6"/>
</g>
<!-- Node37&#45;&gt;Node7 -->
<g id="edge67" class="edge">
<title>Node37&#45;&gt;Node7</title>
<path fill="none" stroke="#63b8ff" d="M1984.32,-257.5C1890.95,-249.63 1694.89,-231.61 1667.5,-217 1640.63,-202.67 1619.59,-173.27 1608.12,-154.38"/>
<polygon fill="#63b8ff" stroke="#63b8ff" points="1611.06,-152.48 1603.01,-145.59 1605.01,-156 1611.06,-152.48"/>
</g>
<!-- Node37&#45;&gt;Node16 -->
<g id="edge66" class="edge">
<title>Node37&#45;&gt;Node16</title>
<path fill="none" stroke="#63b8ff" d="M1984.28,-257.78C1895.61,-250.69 1716.13,-234.38 1693.5,-217 1674.27,-202.23 1666.17,-174.28 1662.81,-155.64"/>
<polygon fill="#63b8ff" stroke="#63b8ff" points="1666.26,-155.04 1661.3,-145.68 1659.34,-156.09 1666.26,-155.04"/>
</g>
<!-- Node37&#45;&gt;Node27 -->
<g id="edge73" class="edge">
<title>Node37&#45;&gt;Node27</title>
<path fill="none" stroke="#63b8ff" d="M2033.87,-252.84C2034.04,-237.45 2032.1,-205.26 2014.5,-187 2005.68,-177.85 1937.41,-159.68 1890.12,-147.95"/>
<polygon fill="#63b8ff" stroke="#63b8ff" points="1890.92,-144.54 1880.38,-145.55 1889.25,-151.34 1890.92,-144.54"/>
</g>
<!-- Node38 -->
<g id="node38" class="node">
<title>Node38</title>
<g id="a_node38"><a xlink:href="configuration_8h.html" target="_top" xlink:title=" ">
<polygon fill="white" stroke="#666666" points="2005,-211.5 1866,-211.5 1866,-192.5 2005,-192.5 2005,-211.5"/>
<text text-anchor="middle" x="1935.5" y="-199.5" font-family="Helvetica,sans-Serif" font-size="10.00">configuration/configuration.h</text>
</a>
</g>
</g>
<!-- Node37&#45;&gt;Node38 -->
<g id="edge68" class="edge">
<title>Node37&#45;&gt;Node38</title>
<path fill="none" stroke="#63b8ff" d="M2019.04,-252.87C2003.19,-243.41 1977.53,-228.09 1958.82,-216.92"/>
<polygon fill="#63b8ff" stroke="#63b8ff" points="1960.4,-213.79 1950.02,-211.67 1956.81,-219.8 1960.4,-213.79"/>
</g>
<!-- Node39 -->
<g id="node39" class="node">
<title>Node39</title>
<g id="a_node39"><a xlink:href="window_8h.html" target="_top" xlink:title=" ">
<polygon fill="white" stroke="#666666" points="2259.5,-211.5 2163.5,-211.5 2163.5,-192.5 2259.5,-192.5 2259.5,-211.5"/>
<text text-anchor="middle" x="2211.5" y="-199.5" font-family="Helvetica,sans-Serif" font-size="10.00">wayland/window.h</text>
</a>
</g>
</g>
<!-- Node37&#45;&gt;Node39 -->
<g id="edge74" class="edge">
<title>Node37&#45;&gt;Node39</title>
<path fill="none" stroke="#63b8ff" d="M2059.38,-252.99C2090.1,-242.9 2141.48,-226.01 2175.92,-214.69"/>
<polygon fill="#63b8ff" stroke="#63b8ff" points="2177.18,-217.96 2185.59,-211.52 2174.99,-211.31 2177.18,-217.96"/>
</g>
<!-- Node38&#45;&gt;Node19 -->
<g id="edge69" class="edge">
<title>Node38&#45;&gt;Node19</title>
<path fill="none" stroke="#63b8ff" d="M1906.67,-192.47C1876.21,-183.21 1826.94,-167.51 1785.5,-151 1784.49,-150.6 1783.46,-150.17 1782.42,-149.74"/>
<polygon fill="#63b8ff" stroke="#63b8ff" points="1783.68,-146.47 1773.12,-145.63 1780.85,-152.87 1783.68,-146.47"/>
</g>
<!-- Node38&#45;&gt;Node20 -->
<g id="edge70" class="edge">
<title>Node38&#45;&gt;Node20</title>
<path fill="none" stroke="#63b8ff" d="M1935.5,-192.37C1935.5,-183.16 1935.5,-168.29 1935.5,-156.27"/>
<polygon fill="#63b8ff" stroke="#63b8ff" points="1939,-155.91 1935.5,-145.91 1932,-155.91 1939,-155.91"/>
</g>
<!-- Node38&#45;&gt;Node27 -->
<g id="edge71" class="edge">
<title>Node38&#45;&gt;Node27</title>
<path fill="none" stroke="#63b8ff" d="M1923.23,-192.37C1908.44,-181.97 1883.35,-164.32 1865.47,-151.75"/>
<polygon fill="#63b8ff" stroke="#63b8ff" points="1867.06,-148.59 1856.87,-145.7 1863.04,-154.31 1867.06,-148.59"/>
</g>
<!-- Node38&#45;&gt;Node31 -->
<g id="edge72" class="edge">
<title>Node38&#45;&gt;Node31</title>
<path fill="none" stroke="#63b8ff" d="M1871.64,-192.47C1797.54,-182.56 1671.66,-165.69 1563.5,-151 1551.6,-149.38 1538.92,-147.65 1526.69,-145.98"/>
<polygon fill="#63b8ff" stroke="#63b8ff" points="1526.93,-142.48 1516.55,-144.58 1525.98,-149.41 1526.93,-142.48"/>
</g>
<!-- Node39&#45;&gt;Node2 -->
<g id="edge79" class="edge">
<title>Node39&#45;&gt;Node2</title>
<path fill="none" stroke="#63b8ff" d="M2259.61,-197.94C2354.57,-191.42 2558.74,-174.77 2579.5,-151 2588.27,-140.96 2588.74,-130.61 2579.5,-121 2540.54,-80.5 1680.9,-76.82 1474.68,-76.52"/>
<polygon fill="#63b8ff" stroke="#63b8ff" points="1474.52,-73.02 1464.52,-76.51 1474.52,-80.02 1474.52,-73.02"/>
</g>
<!-- Node39&#45;&gt;Node7 -->
<g id="edge75" class="edge">
<title>Node39&#45;&gt;Node7</title>
<path fill="none" stroke="#63b8ff" d="M2163.16,-197.6C2033.67,-188.39 1685.36,-162.84 1634.5,-151 1632.13,-150.45 1629.71,-149.77 1627.3,-149.02"/>
<polygon fill="#63b8ff" stroke="#63b8ff" points="1628.21,-145.63 1617.61,-145.59 1625.87,-152.23 1628.21,-145.63"/>
</g>
<!-- Node39&#45;&gt;Node19 -->
<g id="edge76" class="edge">
<title>Node39&#45;&gt;Node19</title>
<path fill="none" stroke="#63b8ff" d="M2163.47,-197.3C2067.58,-189.61 1855.61,-170.91 1785.5,-151 1783.87,-150.54 1782.21,-149.99 1780.56,-149.39"/>
<polygon fill="#63b8ff" stroke="#63b8ff" points="1781.9,-146.16 1771.33,-145.54 1779.2,-152.62 1781.9,-146.16"/>
</g>
<!-- Node39&#45;&gt;Node21 -->
<g id="edge80" class="edge">
<title>Node39&#45;&gt;Node21</title>
<path fill="none" stroke="#63b8ff" d="M2259.54,-196.39C2334.99,-188.84 2485.75,-172.51 2612.5,-151 2618.33,-150.01 2624.44,-148.86 2630.47,-147.64"/>
<polygon fill="#63b8ff" stroke="#63b8ff" points="2631.41,-151.02 2640.49,-145.56 2629.98,-144.17 2631.41,-151.02"/>
</g>
<!-- Node40 -->
<g id="node40" class="node">
<title>Node40</title>
<g id="a_node40"><a xlink:title=" ">
<polygon fill="#e0e0e0" stroke="#999999" points="2025,-145.5 1976,-145.5 1976,-126.5 2025,-126.5 2025,-145.5"/>
<text text-anchor="middle" x="2000.5" y="-133.5" font-family="Helvetica,sans-Serif" font-size="10.00">cassert</text>
</a>
</g>
</g>
<!-- Node39&#45;&gt;Node40 -->
<g id="edge77" class="edge">
<title>Node39&#45;&gt;Node40</title>
<path fill="none" stroke="#63b8ff" d="M2176.87,-192.48C2140.93,-183.34 2083.24,-167.86 2034.5,-151 2032.88,-150.44 2031.23,-149.84 2029.57,-149.23"/>
<polygon fill="#63b8ff" stroke="#63b8ff" points="2030.72,-145.92 2020.13,-145.53 2028.17,-152.44 2030.72,-145.92"/>
</g>
<!-- Node41 -->
<g id="node41" class="node">
<title>Node41</title>
<g id="a_node41"><a xlink:title=" ">
<polygon fill="#e0e0e0" stroke="#999999" points="2168,-145.5 2043,-145.5 2043,-126.5 2168,-126.5 2168,-145.5"/>
<text text-anchor="middle" x="2105.5" y="-133.5" font-family="Helvetica,sans-Serif" font-size="10.00">agl&#45;shell&#45;client&#45;protocol.h</text>
</a>
</g>
</g>
<!-- Node39&#45;&gt;Node41 -->
<g id="edge78" class="edge">
<title>Node39&#45;&gt;Node41</title>
<path fill="none" stroke="#63b8ff" d="M2197.2,-192.37C2179.58,-181.73 2149.41,-163.51 2128.51,-150.89"/>
<polygon fill="#63b8ff" stroke="#63b8ff" points="2130.28,-147.87 2119.91,-145.7 2126.66,-153.86 2130.28,-147.87"/>
</g>
<!-- Node42 -->
<g id="node42" class="node">
<title>Node42</title>
<g id="a_node42"><a xlink:title=" ">
<polygon fill="#e0e0e0" stroke="#999999" points="2288.5,-151 2186.5,-151 2186.5,-121 2288.5,-121 2288.5,-151"/>
<text text-anchor="start" x="2194.5" y="-139" font-family="Helvetica,sans-Serif" font-size="10.00">ivi&#45;application&#45;client</text>
<text text-anchor="middle" x="2237.5" y="-128" font-family="Helvetica,sans-Serif" font-size="10.00">&#45;protocol.h</text>
</a>
</g>
</g>
<!-- Node39&#45;&gt;Node42 -->
<g id="edge81" class="edge">
<title>Node39&#45;&gt;Node42</title>
<path fill="none" stroke="#63b8ff" d="M2215.01,-192.37C2218.28,-184.32 2223.3,-171.94 2227.78,-160.93"/>
<polygon fill="#63b8ff" stroke="#63b8ff" points="2231.14,-161.94 2231.67,-151.36 2224.66,-159.31 2231.14,-161.94"/>
</g>
<!-- Node43 -->
<g id="node43" class="node">
<title>Node43</title>
<g id="a_node43"><a xlink:title=" ">
<polygon fill="#e0e0e0" stroke="#999999" points="2424,-145.5 2307,-145.5 2307,-126.5 2424,-126.5 2424,-145.5"/>
<text text-anchor="middle" x="2365.5" y="-133.5" font-family="Helvetica,sans-Serif" font-size="10.00">ivi&#45;wm&#45;client&#45;protocol.h</text>
</a>
</g>
</g>
<!-- Node39&#45;&gt;Node43 -->
<g id="edge82" class="edge">
<title>Node39&#45;&gt;Node43</title>
<path fill="none" stroke="#63b8ff" d="M2232.27,-192.37C2258.79,-181.35 2304.88,-162.19 2335.29,-149.55"/>
<polygon fill="#63b8ff" stroke="#63b8ff" points="2336.68,-152.77 2344.57,-145.7 2333.99,-146.3 2336.68,-152.77"/>
</g>
<!-- Node44 -->
<g id="node44" class="node">
<title>Node44</title>
<g id="a_node44"><a xlink:title=" ">
<polygon fill="#e0e0e0" stroke="#999999" points="2570.5,-145.5 2442.5,-145.5 2442.5,-126.5 2570.5,-126.5 2570.5,-145.5"/>
<text text-anchor="middle" x="2506.5" y="-133.5" font-family="Helvetica,sans-Serif" font-size="10.00">xdg&#45;shell&#45;client&#45;protocol.h</text>
</a>
</g>
</g>
<!-- Node39&#45;&gt;Node44 -->
<g id="edge83" class="edge">
<title>Node39&#45;&gt;Node44</title>
<path fill="none" stroke="#63b8ff" d="M2250.98,-192.44C2304.3,-180.87 2399.3,-160.26 2457.24,-147.69"/>
<polygon fill="#63b8ff" stroke="#63b8ff" points="2458.22,-151.05 2467.25,-145.51 2456.74,-144.21 2458.22,-151.05"/>
</g>
</g>
</svg>
