<?xml version="1.0" encoding="UTF-8" standalone="no"?>
<!DOCTYPE svg PUBLIC "-//W3C//DTD SVG 1.1//EN"
 "http://www.w3.org/Graphics/SVG/1.1/DTD/svg11.dtd">
<!-- Generated by graphviz version 5.0.0 (0)
 -->
<!-- Title: /mnt/raid10/stargate/ivi&#45;homescreen/shell/static_plugins/secure_storage/keyring.h Pages: 1 -->
<svg width="565pt" height="280pt"
 viewBox="0.00 0.00 564.89 280.00" xmlns="http://www.w3.org/2000/svg" xmlns:xlink="http://www.w3.org/1999/xlink">
<g id="graph0" class="graph" transform="scale(1 1) rotate(0) translate(4 276)">
<title>/mnt/raid10/stargate/ivi&#45;homescreen/shell/static_plugins/secure_storage/keyring.h</title>
<!-- Node1 -->
<g id="node1" class="node">
<title>Node1</title>
<g id="a_node1"><a xlink:title=" ">
<polygon fill="#999999" stroke="#666666" points="290.39,-272 178.39,-272 178.39,-220 290.39,-220 290.39,-272"/>
<text text-anchor="start" x="186.39" y="-260" font-family="Helvetica,sans-Serif" font-size="10.00">/mnt/raid10/stargate</text>
<text text-anchor="start" x="186.39" y="-249" font-family="Helvetica,sans-Serif" font-size="10.00">/ivi&#45;homescreen/shell</text>
<text text-anchor="start" x="186.39" y="-238" font-family="Helvetica,sans-Serif" font-size="10.00">/static_plugins/secure</text>
<text text-anchor="middle" x="234.39" y="-227" font-family="Helvetica,sans-Serif" font-size="10.00">_storage/keyring.h</text>
</a>
</g>
</g>
<!-- Node2 -->
<g id="node2" class="node">
<title>Node2</title>
<g id="a_node2"><a xlink:title=" ">
<polygon fill="#e0e0e0" stroke="#999999" points="187.39,-129 95.39,-129 95.39,-110 187.39,-110 187.39,-129"/>
<text text-anchor="middle" x="141.39" y="-117" font-family="Helvetica,sans-Serif" font-size="10.00">libsecret/secret.h</text>
</a>
</g>
</g>
<!-- Node1&#45;&gt;Node2 -->
<g id="edge1" class="edge">
<title>Node1&#45;&gt;Node2</title>
<path fill="none" stroke="#63b8ff" d="M178.16,-237.81C117.63,-228.78 27.2,-211.1 6.39,-184 -18.34,-151.78 37.9,-135.2 85.19,-127.2"/>
<polygon fill="#63b8ff" stroke="#63b8ff" points="85.79,-130.65 95.11,-125.62 84.68,-123.73 85.79,-130.65"/>
</g>
<!-- Node3 -->
<g id="node3" class="node">
<title>Node3</title>
<g id="a_node3"><a xlink:title=" ">
<polygon fill="#e0e0e0" stroke="#999999" points="125.39,-184 15.39,-184 15.39,-165 125.39,-165 125.39,-184"/>
<text text-anchor="middle" x="70.39" y="-172" font-family="Helvetica,sans-Serif" font-size="10.00">rapidjson/document.h</text>
</a>
</g>
</g>
<!-- Node1&#45;&gt;Node3 -->
<g id="edge2" class="edge">
<title>Node1&#45;&gt;Node3</title>
<path fill="none" stroke="#63b8ff" d="M177.95,-221.08C151.76,-209.98 121.7,-197.24 100.03,-188.06"/>
<polygon fill="#63b8ff" stroke="#63b8ff" points="101.28,-184.79 90.71,-184.11 98.55,-191.23 101.28,-184.79"/>
</g>
<!-- Node4 -->
<g id="node4" class="node">
<title>Node4</title>
<g id="a_node4"><a xlink:title=" ">
<polygon fill="#e0e0e0" stroke="#999999" points="234.89,-184 143.89,-184 143.89,-165 234.89,-165 234.89,-184"/>
<text text-anchor="middle" x="189.39" y="-172" font-family="Helvetica,sans-Serif" font-size="10.00">rapidjson/writer.h</text>
</a>
</g>
</g>
<!-- Node1&#45;&gt;Node4 -->
<g id="edge3" class="edge">
<title>Node1&#45;&gt;Node4</title>
<path fill="none" stroke="#63b8ff" d="M218.15,-219.91C212.36,-210.97 205.97,-201.1 200.68,-192.94"/>
<polygon fill="#63b8ff" stroke="#63b8ff" points="203.46,-190.79 195.09,-184.3 197.59,-194.6 203.46,-190.79"/>
</g>
<!-- Node5 -->
<g id="node5" class="node">
<title>Node5</title>
<g id="a_node5"><a xlink:title=" ">
<polygon fill="#e0e0e0" stroke="#999999" points="305.39,-184 253.39,-184 253.39,-165 305.39,-165 305.39,-184"/>
<text text-anchor="middle" x="279.39" y="-172" font-family="Helvetica,sans-Serif" font-size="10.00">memory</text>
</a>
</g>
</g>
<!-- Node1&#45;&gt;Node5 -->
<g id="edge4" class="edge">
<title>Node1&#45;&gt;Node5</title>
<path fill="none" stroke="#63b8ff" d="M250.64,-219.91C256.43,-210.97 262.82,-201.1 268.1,-192.94"/>
<polygon fill="#63b8ff" stroke="#63b8ff" points="271.2,-194.6 273.69,-184.3 265.32,-190.79 271.2,-194.6"/>
</g>
<!-- Node6 -->
<g id="node6" class="node">
<title>Node6</title>
<g id="a_node6"><a xlink:href="g__hash__table_8h.html" target="_top" xlink:title=" ">
<polygon fill="white" stroke="#666666" points="406.89,-184 323.89,-184 323.89,-165 406.89,-165 406.89,-184"/>
<text text-anchor="middle" x="365.39" y="-172" font-family="Helvetica,sans-Serif" font-size="10.00">g_hash_table.h</text>
</a>
</g>
</g>
<!-- Node1&#45;&gt;Node6 -->
<g id="edge5" class="edge">
<title>Node1&#45;&gt;Node6</title>
<path fill="none" stroke="#63b8ff" d="M281.69,-219.91C301.41,-209.44 323.53,-197.71 340.08,-188.93"/>
<polygon fill="#63b8ff" stroke="#63b8ff" points="341.92,-191.91 349.12,-184.14 338.64,-185.73 341.92,-191.91"/>
</g>
<!-- Node7 -->
<g id="node7" class="node">
<title>Node7</title>
<g id="a_node7"><a xlink:href="logging_8h.html" target="_top" xlink:title=" ">
<polygon fill="white" stroke="#666666" points="481.39,-184 425.39,-184 425.39,-165 481.39,-165 481.39,-184"/>
<text text-anchor="middle" x="453.39" y="-172" font-family="Helvetica,sans-Serif" font-size="10.00">logging.h</text>
</a>
</g>
</g>
<!-- Node1&#45;&gt;Node7 -->
<g id="edge7" class="edge">
<title>Node1&#45;&gt;Node7</title>
<path fill="none" stroke="#63b8ff" d="M290.51,-227.19C330.19,-214.6 382.25,-198.08 416.71,-187.14"/>
<polygon fill="#63b8ff" stroke="#63b8ff" points="417.9,-190.44 426.37,-184.08 415.78,-183.76 417.9,-190.44"/>
</g>
<!-- Node6&#45;&gt;Node2 -->
<g id="edge6" class="edge">
<title>Node6&#45;&gt;Node2</title>
<path fill="none" stroke="#63b8ff" d="M329.4,-164.98C290.9,-155.87 229.71,-141.4 187.65,-131.45"/>
<polygon fill="#63b8ff" stroke="#63b8ff" points="188.2,-127.98 177.66,-129.08 186.59,-134.79 188.2,-127.98"/>
</g>
<!-- Node8 -->
<g id="node8" class="node">
<title>Node8</title>
<g id="a_node8"><a xlink:title=" ">
<polygon fill="#e0e0e0" stroke="#999999" points="410.39,-129 358.39,-129 358.39,-110 410.39,-110 410.39,-129"/>
<text text-anchor="middle" x="384.39" y="-117" font-family="Helvetica,sans-Serif" font-size="10.00">sstream</text>
</a>
</g>
</g>
<!-- Node7&#45;&gt;Node8 -->
<g id="edge8" class="edge">
<title>Node7&#45;&gt;Node8</title>
<path fill="none" stroke="#63b8ff" d="M442.31,-164.98C431.91,-157 416.13,-144.88 403.67,-135.31"/>
<polygon fill="#63b8ff" stroke="#63b8ff" points="405.74,-132.49 395.68,-129.17 401.48,-138.04 405.74,-132.49"/>
</g>
<!-- Node9 -->
<g id="node9" class="node">
<title>Node9</title>
<g id="a_node9"><a xlink:href="dlt_8h.html" target="_top" xlink:title=" ">
<polygon fill="white" stroke="#666666" points="477.89,-129 428.89,-129 428.89,-110 477.89,-110 477.89,-129"/>
<text text-anchor="middle" x="453.39" y="-117" font-family="Helvetica,sans-Serif" font-size="10.00">dlt/dlt.h</text>
</a>
</g>
</g>
<!-- Node7&#45;&gt;Node9 -->
<g id="edge9" class="edge">
<title>Node7&#45;&gt;Node9</title>
<path fill="none" stroke="#63b8ff" d="M453.39,-164.75C453.39,-157.8 453.39,-147.85 453.39,-139.13"/>
<polygon fill="#63b8ff" stroke="#63b8ff" points="456.89,-139.09 453.39,-129.09 449.89,-139.09 456.89,-139.09"/>
</g>
<!-- Node12 -->
<g id="node12" class="node">
<title>Node12</title>
<g id="a_node12"><a xlink:title=" ">
<polygon fill="#e0e0e0" stroke="#999999" points="556.89,-74 455.89,-74 455.89,-55 556.89,-55 556.89,-74"/>
<text text-anchor="middle" x="506.39" y="-62" font-family="Helvetica,sans-Serif" font-size="10.00">flutter/fml/macros.h</text>
</a>
</g>
</g>
<!-- Node7&#45;&gt;Node12 -->
<g id="edge13" class="edge">
<title>Node7&#45;&gt;Node12</title>
<path fill="none" stroke="#63b8ff" d="M461.46,-164.95C469.1,-156.43 480.41,-142.69 487.39,-129 494.67,-114.73 499.65,-97.2 502.68,-84.18"/>
<polygon fill="#63b8ff" stroke="#63b8ff" points="506.17,-84.6 504.85,-74.09 499.33,-83.13 506.17,-84.6"/>
</g>
<!-- Node10 -->
<g id="node10" class="node">
<title>Node10</title>
<g id="a_node10"><a xlink:href="libdlt_8h.html" target="_top" xlink:title=" ">
<polygon fill="white" stroke="#666666" points="437.89,-74 378.89,-74 378.89,-55 437.89,-55 437.89,-74"/>
<text text-anchor="middle" x="408.39" y="-62" font-family="Helvetica,sans-Serif" font-size="10.00">dlt/libdlt.h</text>
</a>
</g>
</g>
<!-- Node9&#45;&gt;Node10 -->
<g id="edge10" class="edge">
<title>Node9&#45;&gt;Node10</title>
<path fill="none" stroke="#63b8ff" d="M445.96,-109.75C439.54,-102.18 430.09,-91.05 422.27,-81.84"/>
<polygon fill="#63b8ff" stroke="#63b8ff" points="424.83,-79.45 415.69,-74.09 419.49,-83.98 424.83,-79.45"/>
</g>
<!-- Node9&#45;&gt;Node12 -->
<g id="edge12" class="edge">
<title>Node9&#45;&gt;Node12</title>
<path fill="none" stroke="#63b8ff" d="M462.14,-109.75C469.86,-102.03 481.3,-90.6 490.61,-81.28"/>
<polygon fill="#63b8ff" stroke="#63b8ff" points="493.21,-83.64 497.8,-74.09 488.26,-78.69 493.21,-83.64"/>
</g>
<!-- Node11 -->
<g id="node11" class="node">
<title>Node11</title>
<g id="a_node11"><a xlink:title=" ">
<polygon fill="#e0e0e0" stroke="#999999" points="431.39,-19 385.39,-19 385.39,0 431.39,0 431.39,-19"/>
<text text-anchor="middle" x="408.39" y="-7" font-family="Helvetica,sans-Serif" font-size="10.00">cstdint</text>
</a>
</g>
</g>
<!-- Node10&#45;&gt;Node11 -->
<g id="edge11" class="edge">
<title>Node10&#45;&gt;Node11</title>
<path fill="none" stroke="#63b8ff" d="M408.39,-54.75C408.39,-47.8 408.39,-37.85 408.39,-29.13"/>
<polygon fill="#63b8ff" stroke="#63b8ff" points="411.89,-29.09 408.39,-19.09 404.89,-29.09 411.89,-29.09"/>
</g>
</g>
</svg>
