<?xml version="1.0" encoding="UTF-8" standalone="no"?>
<!DOCTYPE svg PUBLIC "-//W3C//DTD SVG 1.1//EN"
 "http://www.w3.org/Graphics/SVG/1.1/DTD/svg11.dtd">
<!-- Generated by graphviz version 5.0.0 (0)
 -->
<!-- Title: /mnt/raid10/stargate/ivi&#45;homescreen/shell/static_plugins/secure_storage/keyring.h Pages: 1 -->
<svg width="1057pt" height="247pt"
 viewBox="0.00 0.00 1057.00 247.00" xmlns="http://www.w3.org/2000/svg" xmlns:xlink="http://www.w3.org/1999/xlink">
<g id="graph0" class="graph" transform="scale(1 1) rotate(0) translate(4 243)">
<title>/mnt/raid10/stargate/ivi&#45;homescreen/shell/static_plugins/secure_storage/keyring.h</title>
<!-- Node1 -->
<g id="node1" class="node">
<title>Node1</title>
<g id="a_node1"><a xlink:title=" ">
<polygon fill="#999999" stroke="#666666" points="329,-239 217,-239 217,-187 329,-187 329,-239"/>
<text text-anchor="start" x="225" y="-227" font-family="Helvetica,sans-Serif" font-size="10.00">/mnt/raid10/stargate</text>
<text text-anchor="start" x="225" y="-216" font-family="Helvetica,sans-Serif" font-size="10.00">/ivi&#45;homescreen/shell</text>
<text text-anchor="start" x="225" y="-205" font-family="Helvetica,sans-Serif" font-size="10.00">/static_plugins/secure</text>
<text text-anchor="middle" x="273" y="-194" font-family="Helvetica,sans-Serif" font-size="10.00">_storage/keyring.h</text>
</a>
</g>
</g>
<!-- Node2 -->
<g id="node2" class="node">
<title>Node2</title>
<g id="a_node2"><a xlink:title=" ">
<polygon fill="#e0e0e0" stroke="#999999" points="92,-90.5 0,-90.5 0,-71.5 92,-71.5 92,-90.5"/>
<text text-anchor="middle" x="46" y="-78.5" font-family="Helvetica,sans-Serif" font-size="10.00">libsecret/secret.h</text>
</a>
</g>
</g>
<!-- Node1&#45;&gt;Node2 -->
<g id="edge1" class="edge">
<title>Node1&#45;&gt;Node2</title>
<path fill="none" stroke="#63b8ff" d="M216.77,-204.81C156.24,-195.78 65.8,-178.1 45,-151 34.08,-136.78 36.27,-115.6 39.98,-100.46"/>
<polygon fill="#63b8ff" stroke="#63b8ff" points="43.38,-101.27 42.77,-90.69 36.65,-99.34 43.38,-101.27"/>
</g>
<!-- Node3 -->
<g id="node3" class="node">
<title>Node3</title>
<g id="a_node3"><a xlink:title=" ">
<polygon fill="#e0e0e0" stroke="#999999" points="164,-151 54,-151 54,-132 164,-132 164,-151"/>
<text text-anchor="middle" x="109" y="-139" font-family="Helvetica,sans-Serif" font-size="10.00">rapidjson/document.h</text>
</a>
</g>
</g>
<!-- Node1&#45;&gt;Node3 -->
<g id="edge2" class="edge">
<title>Node1&#45;&gt;Node3</title>
<path fill="none" stroke="#63b8ff" d="M216.56,-188.08C190.37,-176.98 160.31,-164.24 138.64,-155.06"/>
<polygon fill="#63b8ff" stroke="#63b8ff" points="139.89,-151.79 129.31,-151.11 137.15,-158.23 139.89,-151.79"/>
</g>
<!-- Node4 -->
<g id="node4" class="node">
<title>Node4</title>
<g id="a_node4"><a xlink:title=" ">
<polygon fill="#e0e0e0" stroke="#999999" points="273.5,-151 182.5,-151 182.5,-132 273.5,-132 273.5,-151"/>
<text text-anchor="middle" x="228" y="-139" font-family="Helvetica,sans-Serif" font-size="10.00">rapidjson/writer.h</text>
</a>
</g>
</g>
<!-- Node1&#45;&gt;Node4 -->
<g id="edge3" class="edge">
<title>Node1&#45;&gt;Node4</title>
<path fill="none" stroke="#63b8ff" d="M256.75,-186.91C250.96,-177.97 244.57,-168.1 239.29,-159.94"/>
<polygon fill="#63b8ff" stroke="#63b8ff" points="242.07,-157.79 233.7,-151.3 236.2,-161.6 242.07,-157.79"/>
</g>
<!-- Node5 -->
<g id="node5" class="node">
<title>Node5</title>
<g id="a_node5"><a xlink:title=" ">
<polygon fill="#e0e0e0" stroke="#999999" points="344,-151 292,-151 292,-132 344,-132 344,-151"/>
<text text-anchor="middle" x="318" y="-139" font-family="Helvetica,sans-Serif" font-size="10.00">memory</text>
</a>
</g>
</g>
<!-- Node1&#45;&gt;Node5 -->
<g id="edge4" class="edge">
<title>Node1&#45;&gt;Node5</title>
<path fill="none" stroke="#63b8ff" d="M289.25,-186.91C295.04,-177.97 301.43,-168.1 306.71,-159.94"/>
<polygon fill="#63b8ff" stroke="#63b8ff" points="309.8,-161.6 312.3,-151.3 303.93,-157.79 309.8,-161.6"/>
</g>
<!-- Node6 -->
<g id="node6" class="node">
<title>Node6</title>
<g id="a_node6"><a xlink:href="g__hash__table_8h.html" target="_top" xlink:title=" ">
<polygon fill="white" stroke="#666666" points="445.5,-151 362.5,-151 362.5,-132 445.5,-132 445.5,-151"/>
<text text-anchor="middle" x="404" y="-139" font-family="Helvetica,sans-Serif" font-size="10.00">g_hash_table.h</text>
</a>
</g>
</g>
<!-- Node1&#45;&gt;Node6 -->
<g id="edge5" class="edge">
<title>Node1&#45;&gt;Node6</title>
<path fill="none" stroke="#63b8ff" d="M320.29,-186.91C340.02,-176.44 362.14,-164.71 378.69,-155.93"/>
<polygon fill="#63b8ff" stroke="#63b8ff" points="380.53,-158.91 387.72,-151.14 377.25,-152.73 380.53,-158.91"/>
</g>
<!-- Node7 -->
<g id="node7" class="node">
<title>Node7</title>
<g id="a_node7"><a xlink:href="logging_8h.html" target="_top" xlink:title=" ">
<polygon fill="white" stroke="#666666" points="520,-151 464,-151 464,-132 520,-132 520,-151"/>
<text text-anchor="middle" x="492" y="-139" font-family="Helvetica,sans-Serif" font-size="10.00">logging.h</text>
</a>
</g>
</g>
<!-- Node1&#45;&gt;Node7 -->
<g id="edge7" class="edge">
<title>Node1&#45;&gt;Node7</title>
<path fill="none" stroke="#63b8ff" d="M329.11,-194.19C368.79,-181.6 420.85,-165.08 455.32,-154.14"/>
<polygon fill="#63b8ff" stroke="#63b8ff" points="456.51,-157.44 464.98,-151.08 454.39,-150.76 456.51,-157.44"/>
</g>
<!-- Node6&#45;&gt;Node2 -->
<g id="edge6" class="edge">
<title>Node6&#45;&gt;Node2</title>
<path fill="none" stroke="#63b8ff" d="M362.26,-133.48C359.13,-132.97 356.01,-132.48 353,-132 245.59,-115.06 217.98,-115.46 111,-96 105.46,-94.99 99.68,-93.86 93.94,-92.69"/>
<polygon fill="#63b8ff" stroke="#63b8ff" points="94.23,-89.18 83.73,-90.56 92.8,-96.03 94.23,-89.18"/>
</g>
<!-- Node8 -->
<g id="node8" class="node">
<title>Node8</title>
<g id="a_node8"><a xlink:title=" ">
<polygon fill="#e0e0e0" stroke="#999999" points="172,-90.5 120,-90.5 120,-71.5 172,-71.5 172,-90.5"/>
<text text-anchor="middle" x="146" y="-78.5" font-family="Helvetica,sans-Serif" font-size="10.00">sstream</text>
</a>
</g>
</g>
<!-- Node7&#45;&gt;Node8 -->
<g id="edge8" class="edge">
<title>Node7&#45;&gt;Node8</title>
<path fill="none" stroke="#63b8ff" d="M463.83,-133.91C460.53,-133.22 457.2,-132.57 454,-132 333.5,-110.62 299.4,-126.97 181,-96 178.84,-95.43 176.63,-94.77 174.43,-94.05"/>
<polygon fill="#63b8ff" stroke="#63b8ff" points="175.56,-90.73 164.97,-90.58 173.15,-97.31 175.56,-90.73"/>
</g>
<!-- Node9 -->
<g id="node9" class="node">
<title>Node9</title>
<g id="a_node9"><a xlink:title=" ">
<polygon fill="#e0e0e0" stroke="#999999" points="278,-90.5 190,-90.5 190,-71.5 278,-71.5 278,-90.5"/>
<text text-anchor="middle" x="234" y="-78.5" font-family="Helvetica,sans-Serif" font-size="10.00">spdlog/cfg/env.h</text>
</a>
</g>
</g>
<!-- Node7&#45;&gt;Node9 -->
<g id="edge9" class="edge">
<title>Node7&#45;&gt;Node9</title>
<path fill="none" stroke="#63b8ff" d="M463.78,-134.16C460.49,-133.43 457.17,-132.7 454,-132 379.84,-115.71 360.84,-113.7 287,-96 283.15,-95.08 279.16,-94.09 275.17,-93.07"/>
<polygon fill="#63b8ff" stroke="#63b8ff" points="275.89,-89.64 265.33,-90.53 274.13,-96.42 275.89,-89.64"/>
</g>
<!-- Node10 -->
<g id="node10" class="node">
<title>Node10</title>
<g id="a_node10"><a xlink:title=" ">
<polygon fill="#e0e0e0" stroke="#999999" points="406,-96 296,-96 296,-66 406,-66 406,-96"/>
<text text-anchor="start" x="304" y="-84" font-family="Helvetica,sans-Serif" font-size="10.00">spdlog/sinks/callback</text>
<text text-anchor="middle" x="351" y="-73" font-family="Helvetica,sans-Serif" font-size="10.00">_sink.h</text>
</a>
</g>
</g>
<!-- Node7&#45;&gt;Node10 -->
<g id="edge10" class="edge">
<title>Node7&#45;&gt;Node10</title>
<path fill="none" stroke="#63b8ff" d="M471.5,-131.99C451.38,-123.65 420.08,-110.66 394.42,-100.02"/>
<polygon fill="#63b8ff" stroke="#63b8ff" points="395.48,-96.66 384.9,-96.06 392.79,-103.13 395.48,-96.66"/>
</g>
<!-- Node11 -->
<g id="node11" class="node">
<title>Node11</title>
<g id="a_node11"><a xlink:title=" ">
<polygon fill="#e0e0e0" stroke="#999999" points="538,-96 424,-96 424,-66 538,-66 538,-96"/>
<text text-anchor="start" x="432" y="-84" font-family="Helvetica,sans-Serif" font-size="10.00">spdlog/sinks/ringbuffer</text>
<text text-anchor="middle" x="481" y="-73" font-family="Helvetica,sans-Serif" font-size="10.00">_sink.h</text>
</a>
</g>
</g>
<!-- Node7&#45;&gt;Node11 -->
<g id="edge11" class="edge">
<title>Node7&#45;&gt;Node11</title>
<path fill="none" stroke="#63b8ff" d="M490.38,-131.87C489.09,-125.03 487.23,-115.14 485.51,-105.97"/>
<polygon fill="#63b8ff" stroke="#63b8ff" points="488.94,-105.3 483.65,-96.11 482.06,-106.59 488.94,-105.3"/>
</g>
<!-- Node12 -->
<g id="node12" class="node">
<title>Node12</title>
<g id="a_node12"><a xlink:title=" ">
<polygon fill="#e0e0e0" stroke="#999999" points="657.5,-96 556.5,-96 556.5,-66 657.5,-66 657.5,-96"/>
<text text-anchor="start" x="564.5" y="-84" font-family="Helvetica,sans-Serif" font-size="10.00">spdlog/sinks/stdout</text>
<text text-anchor="middle" x="607" y="-73" font-family="Helvetica,sans-Serif" font-size="10.00">_color_sinks.h</text>
</a>
</g>
</g>
<!-- Node7&#45;&gt;Node12 -->
<g id="edge12" class="edge">
<title>Node7&#45;&gt;Node12</title>
<path fill="none" stroke="#63b8ff" d="M508.97,-131.87C525.01,-123.71 549.6,-111.2 570.15,-100.75"/>
<polygon fill="#63b8ff" stroke="#63b8ff" points="571.93,-103.77 579.25,-96.11 568.75,-97.53 571.93,-103.77"/>
</g>
<!-- Node13 -->
<g id="node13" class="node">
<title>Node13</title>
<g id="a_node13"><a xlink:title=" ">
<polygon fill="#e0e0e0" stroke="#999999" points="776.5,-96 675.5,-96 675.5,-66 776.5,-66 776.5,-96"/>
<text text-anchor="start" x="683.5" y="-84" font-family="Helvetica,sans-Serif" font-size="10.00">spdlog/sinks/stdout</text>
<text text-anchor="middle" x="726" y="-73" font-family="Helvetica,sans-Serif" font-size="10.00">_sinks.h</text>
</a>
</g>
</g>
<!-- Node7&#45;&gt;Node13 -->
<g id="edge13" class="edge">
<title>Node7&#45;&gt;Node13</title>
<path fill="none" stroke="#63b8ff" d="M520.23,-133.44C555.97,-124.51 618.54,-108.86 665.33,-97.17"/>
<polygon fill="#63b8ff" stroke="#63b8ff" points="666.21,-100.56 675.06,-94.74 664.51,-93.77 666.21,-100.56"/>
</g>
<!-- Node14 -->
<g id="node14" class="node">
<title>Node14</title>
<g id="a_node14"><a xlink:title=" ">
<polygon fill="#e0e0e0" stroke="#999999" points="879.5,-90.5 794.5,-90.5 794.5,-71.5 879.5,-71.5 879.5,-90.5"/>
<text text-anchor="middle" x="837" y="-78.5" font-family="Helvetica,sans-Serif" font-size="10.00">spdlog/spdlog.h</text>
</a>
</g>
</g>
<!-- Node7&#45;&gt;Node14 -->
<g id="edge14" class="edge">
<title>Node7&#45;&gt;Node14</title>
<path fill="none" stroke="#63b8ff" d="M520.06,-137.3C572.45,-131.1 688.57,-116.24 785,-96 789.17,-95.13 793.5,-94.12 797.81,-93.05"/>
<polygon fill="#63b8ff" stroke="#63b8ff" points="798.9,-96.39 807.71,-90.5 797.16,-89.61 798.9,-96.39"/>
</g>
<!-- Node15 -->
<g id="node15" class="node">
<title>Node15</title>
<g id="a_node15"><a xlink:href="constants_8h.html" target="_top" xlink:title=" ">
<polygon fill="white" stroke="#666666" points="966,-90.5 898,-90.5 898,-71.5 966,-71.5 966,-90.5"/>
<text text-anchor="middle" x="932" y="-78.5" font-family="Helvetica,sans-Serif" font-size="10.00">constants.h</text>
</a>
</g>
</g>
<!-- Node7&#45;&gt;Node15 -->
<g id="edge15" class="edge">
<title>Node7&#45;&gt;Node15</title>
<path fill="none" stroke="#63b8ff" d="M520.23,-139.3C585.72,-136.11 752.75,-125.5 889,-96 892.22,-95.3 895.55,-94.46 898.85,-93.53"/>
<polygon fill="#63b8ff" stroke="#63b8ff" points="900.03,-96.83 908.58,-90.58 897.99,-90.13 900.03,-96.83"/>
</g>
<!-- Node16 -->
<g id="node16" class="node">
<title>Node16</title>
<g id="a_node16"><a xlink:title=" ">
<polygon fill="#e0e0e0" stroke="#999999" points="853,-24.5 793,-24.5 793,-5.5 853,-5.5 853,-24.5"/>
<text text-anchor="middle" x="823" y="-12.5" font-family="Helvetica,sans-Serif" font-size="10.00">EGL/egl.h</text>
</a>
</g>
</g>
<!-- Node15&#45;&gt;Node16 -->
<g id="edge16" class="edge">
<title>Node15&#45;&gt;Node16</title>
<path fill="none" stroke="#63b8ff" d="M917.3,-71.37C899.18,-60.73 868.15,-42.51 846.66,-29.89"/>
<polygon fill="#63b8ff" stroke="#63b8ff" points="848.21,-26.74 837.82,-24.7 844.67,-32.78 848.21,-26.74"/>
</g>
<!-- Node17 -->
<g id="node17" class="node">
<title>Node17</title>
<g id="a_node17"><a xlink:title=" ">
<polygon fill="#e0e0e0" stroke="#999999" points="992.5,-30 871.5,-30 871.5,0 992.5,0 992.5,-30"/>
<text text-anchor="start" x="879.5" y="-18" font-family="Helvetica,sans-Serif" font-size="10.00">shell/platform/embedder</text>
<text text-anchor="middle" x="932" y="-7" font-family="Helvetica,sans-Serif" font-size="10.00">/embedder.h</text>
</a>
</g>
</g>
<!-- Node15&#45;&gt;Node17 -->
<g id="edge17" class="edge">
<title>Node15&#45;&gt;Node17</title>
<path fill="none" stroke="#63b8ff" d="M932,-71.37C932,-63.49 932,-51.45 932,-40.6"/>
<polygon fill="#63b8ff" stroke="#63b8ff" points="935.5,-40.36 932,-30.36 928.5,-40.36 935.5,-40.36"/>
</g>
<!-- Node18 -->
<g id="node18" class="node">
<title>Node18</title>
<g id="a_node18"><a xlink:title=" ">
<polygon fill="#e0e0e0" stroke="#999999" points="1049,-24.5 1011,-24.5 1011,-5.5 1049,-5.5 1049,-24.5"/>
<text text-anchor="middle" x="1030" y="-12.5" font-family="Helvetica,sans-Serif" font-size="10.00">array</text>
</a>
</g>
</g>
<!-- Node15&#45;&gt;Node18 -->
<g id="edge18" class="edge">
<title>Node15&#45;&gt;Node18</title>
<path fill="none" stroke="#63b8ff" d="M945.22,-71.37C961.36,-60.82 988.91,-42.84 1008.21,-30.23"/>
<polygon fill="#63b8ff" stroke="#63b8ff" points="1010.22,-33.1 1016.68,-24.7 1006.39,-27.24 1010.22,-33.1"/>
</g>
</g>
</svg>
