<?xml version="1.0" encoding="UTF-8" standalone="no"?>
<!DOCTYPE svg PUBLIC "-//W3C//DTD SVG 1.1//EN"
 "http://www.w3.org/Graphics/SVG/1.1/DTD/svg11.dtd">
<!-- Generated by graphviz version 2.43.0 (0)
 -->
<!-- Title: /home/joel.winarske@toyotaconnected.com/development/workspace&#45;automation&#45;configs/app/ivi&#45;homescreen/shell/static_plugins/secure_storage/keyring.h Pages: 1 -->
<svg width="556pt" height="195pt"
 viewBox="0.00 0.00 555.98 195.00" xmlns="http://www.w3.org/2000/svg" xmlns:xlink="http://www.w3.org/1999/xlink">
<g id="graph0" class="graph" transform="scale(1 1) rotate(0) translate(4 191)">
<title>/home/joel.winarske@toyotaconnected.com/development/workspace&#45;automation&#45;configs/app/ivi&#45;homescreen/shell/static_plugins/secure_storage/keyring.h</title>
<polygon fill="white" stroke="transparent" points="-4,4 -4,-191 551.98,-191 551.98,4 -4,4"/>
<!-- Node1 -->
<g id="node1" class="node">
<title>Node1</title>
<g id="a_node1"><a xlink:title=" ">
<polygon fill="#bfbfbf" stroke="black" points="165.48,-112.5 165.48,-186.5 347.48,-186.5 347.48,-112.5 165.48,-112.5"/>
<text text-anchor="start" x="173.48" y="-174.5" font-family="Helvetica,sans-Serif" font-size="10.00">/home/joel.winarske</text>
<text text-anchor="start" x="173.48" y="-163.5" font-family="Helvetica,sans-Serif" font-size="10.00">@toyotaconnected.com</text>
<text text-anchor="start" x="173.48" y="-152.5" font-family="Helvetica,sans-Serif" font-size="10.00">/development/workspace</text>
<text text-anchor="start" x="173.48" y="-141.5" font-family="Helvetica,sans-Serif" font-size="10.00">&#45;automation&#45;configs/app</text>
<text text-anchor="start" x="173.48" y="-130.5" font-family="Helvetica,sans-Serif" font-size="10.00">/ivi&#45;homescreen/shell/static</text>
<text text-anchor="middle" x="256.48" y="-119.5" font-family="Helvetica,sans-Serif" font-size="10.00">_plugins/secure_storage/keyring.h</text>
</a>
</g>
</g>
<!-- Node2 -->
<g id="node2" class="node">
<title>Node2</title>
<g id="a_node2"><a xlink:title=" ">
<polygon fill="white" stroke="#bfbfbf" points="126.98,-0.5 126.98,-19.5 227.98,-19.5 227.98,-0.5 126.98,-0.5"/>
<text text-anchor="middle" x="177.48" y="-7.5" font-family="Helvetica,sans-Serif" font-size="10.00">libsecret/secret.h</text>
</a>
</g>
</g>
<!-- Node1&#45;&gt;Node2 -->
<g id="edge1" class="edge">
<title>Node1&#45;&gt;Node2</title>
<path fill="none" stroke="midnightblue" d="M165.39,-133.71C102.5,-121.42 26.84,-101.79 7.48,-76 -23.84,-34.25 56.05,-19.32 116.66,-13.97"/>
<polygon fill="midnightblue" stroke="midnightblue" points="117.28,-17.44 126.97,-13.14 116.72,-10.46 117.28,-17.44"/>
</g>
<!-- Node3 -->
<g id="node3" class="node">
<title>Node3</title>
<g id="a_node3"><a xlink:title=" ">
<polygon fill="white" stroke="#bfbfbf" points="16.48,-56.5 16.48,-75.5 138.48,-75.5 138.48,-56.5 16.48,-56.5"/>
<text text-anchor="middle" x="77.48" y="-63.5" font-family="Helvetica,sans-Serif" font-size="10.00">rapidjson/document.h</text>
</a>
</g>
</g>
<!-- Node1&#45;&gt;Node3 -->
<g id="edge2" class="edge">
<title>Node1&#45;&gt;Node3</title>
<path fill="none" stroke="midnightblue" d="M177.19,-112.4C151.59,-100.74 124.86,-88.57 105.53,-79.77"/>
<polygon fill="midnightblue" stroke="midnightblue" points="106.96,-76.57 96.41,-75.62 104.06,-82.95 106.96,-76.57"/>
</g>
<!-- Node4 -->
<g id="node4" class="node">
<title>Node4</title>
<g id="a_node4"><a xlink:title=" ">
<polygon fill="white" stroke="#bfbfbf" points="156.98,-56.5 156.98,-75.5 257.98,-75.5 257.98,-56.5 156.98,-56.5"/>
<text text-anchor="middle" x="207.48" y="-63.5" font-family="Helvetica,sans-Serif" font-size="10.00">rapidjson/writer.h</text>
</a>
</g>
</g>
<!-- Node1&#45;&gt;Node4 -->
<g id="edge3" class="edge">
<title>Node1&#45;&gt;Node4</title>
<path fill="none" stroke="midnightblue" d="M234.56,-112.04C228.77,-102.4 222.78,-92.43 217.91,-84.33"/>
<polygon fill="midnightblue" stroke="midnightblue" points="220.77,-82.3 212.61,-75.53 214.77,-85.9 220.77,-82.3"/>
</g>
<!-- Node5 -->
<g id="node5" class="node">
<title>Node5</title>
<g id="a_node5"><a xlink:title=" ">
<polygon fill="white" stroke="#bfbfbf" points="276.48,-56.5 276.48,-75.5 334.48,-75.5 334.48,-56.5 276.48,-56.5"/>
<text text-anchor="middle" x="305.48" y="-63.5" font-family="Helvetica,sans-Serif" font-size="10.00">memory</text>
</a>
</g>
</g>
<!-- Node1&#45;&gt;Node5 -->
<g id="edge4" class="edge">
<title>Node1&#45;&gt;Node5</title>
<path fill="none" stroke="midnightblue" d="M278.41,-112.04C284.2,-102.4 290.19,-92.43 295.06,-84.33"/>
<polygon fill="midnightblue" stroke="midnightblue" points="298.2,-85.9 300.36,-75.53 292.2,-82.3 298.2,-85.9"/>
</g>
<!-- Node6 -->
<g id="node6" class="node">
<title>Node6</title>
<g id="a_node6"><a xlink:href="g__hash__table_8h.html" target="_top" xlink:title=" ">
<polygon fill="white" stroke="black" points="352.48,-56.5 352.48,-75.5 442.48,-75.5 442.48,-56.5 352.48,-56.5"/>
<text text-anchor="middle" x="397.48" y="-63.5" font-family="Helvetica,sans-Serif" font-size="10.00">g_hash_table.h</text>
</a>
</g>
</g>
<!-- Node1&#45;&gt;Node6 -->
<g id="edge5" class="edge">
<title>Node1&#45;&gt;Node6</title>
<path fill="none" stroke="midnightblue" d="M319.15,-112.28C338.46,-101.12 358.56,-89.5 373.56,-80.83"/>
<polygon fill="midnightblue" stroke="midnightblue" points="375.72,-83.62 382.63,-75.59 372.22,-77.56 375.72,-83.62"/>
</g>
<!-- Node7 -->
<g id="node7" class="node">
<title>Node7</title>
<g id="a_node7"><a xlink:href="logging_8h.html" target="_top" xlink:title=" ">
<polygon fill="white" stroke="black" points="460.48,-56.5 460.48,-75.5 522.48,-75.5 522.48,-56.5 460.48,-56.5"/>
<text text-anchor="middle" x="491.48" y="-63.5" font-family="Helvetica,sans-Serif" font-size="10.00">logging.h</text>
</a>
</g>
</g>
<!-- Node1&#45;&gt;Node7 -->
<g id="edge7" class="edge">
<title>Node1&#45;&gt;Node7</title>
<path fill="none" stroke="midnightblue" d="M347.68,-116.87C386.11,-103.54 428.5,-88.84 457.23,-78.88"/>
<polygon fill="midnightblue" stroke="midnightblue" points="458.5,-82.15 466.8,-75.56 456.2,-75.53 458.5,-82.15"/>
</g>
<!-- Node6&#45;&gt;Node2 -->
<g id="edge6" class="edge">
<title>Node6&#45;&gt;Node2</title>
<path fill="none" stroke="midnightblue" d="M362.63,-56.44C324.57,-47.1 263.53,-32.12 222.02,-21.93"/>
<polygon fill="midnightblue" stroke="midnightblue" points="222.73,-18.5 212.18,-19.52 221.06,-25.3 222.73,-18.5"/>
</g>
<!-- Node8 -->
<g id="node8" class="node">
<title>Node8</title>
<g id="a_node8"><a xlink:title=" ">
<polygon fill="white" stroke="#bfbfbf" points="434.98,-0.5 434.98,-19.5 547.98,-19.5 547.98,-0.5 434.98,-0.5"/>
<text text-anchor="middle" x="491.48" y="-7.5" font-family="Helvetica,sans-Serif" font-size="10.00">flutter/fml/logging.h</text>
</a>
</g>
</g>
<!-- Node7&#45;&gt;Node8 -->
<g id="edge8" class="edge">
<title>Node7&#45;&gt;Node8</title>
<path fill="none" stroke="midnightblue" d="M491.48,-56.08C491.48,-49.01 491.48,-38.86 491.48,-29.99"/>
<polygon fill="midnightblue" stroke="midnightblue" points="494.98,-29.75 491.48,-19.75 487.98,-29.75 494.98,-29.75"/>
</g>
</g>
</svg>
