<?xml version="1.0" encoding="UTF-8" standalone="no"?>
<!DOCTYPE svg PUBLIC "-//W3C//DTD SVG 1.1//EN"
 "http://www.w3.org/Graphics/SVG/1.1/DTD/svg11.dtd">
<!-- Generated by graphviz version 5.0.0 (0)
 -->
<!-- Title: /mnt/raid10/stargate/ivi&#45;homescreen/shell/logging/dlt/libdlt.cc Pages: 1 -->
<svg width="937pt" height="291pt"
 viewBox="0.00 0.00 937.00 291.00" xmlns="http://www.w3.org/2000/svg" xmlns:xlink="http://www.w3.org/1999/xlink">
<g id="graph0" class="graph" transform="scale(1 1) rotate(0) translate(4 287)">
<title>/mnt/raid10/stargate/ivi&#45;homescreen/shell/logging/dlt/libdlt.cc</title>
<!-- Node1 -->
<g id="node1" class="node">
<title>Node1</title>
<g id="a_node1"><a xlink:title=" ">
<polygon fill="#999999" stroke="#666666" points="265.5,-283 156.5,-283 156.5,-242 265.5,-242 265.5,-283"/>
<text text-anchor="start" x="164.5" y="-271" font-family="Helvetica,sans-Serif" font-size="10.00">/mnt/raid10/stargate</text>
<text text-anchor="start" x="164.5" y="-260" font-family="Helvetica,sans-Serif" font-size="10.00">/ivi&#45;homescreen/shell</text>
<text text-anchor="middle" x="211" y="-249" font-family="Helvetica,sans-Serif" font-size="10.00">/logging/dlt/libdlt.cc</text>
</a>
</g>
</g>
<!-- Node2 -->
<g id="node2" class="node">
<title>Node2</title>
<g id="a_node2"><a xlink:href="libdlt_8h.html" target="_top" xlink:title=" ">
<polygon fill="white" stroke="#666666" points="179.5,-206 134.5,-206 134.5,-187 179.5,-187 179.5,-206"/>
<text text-anchor="middle" x="157" y="-194" font-family="Helvetica,sans-Serif" font-size="10.00">libdlt.h</text>
</a>
</g>
</g>
<!-- Node1&#45;&gt;Node2 -->
<g id="edge1" class="edge">
<title>Node1&#45;&gt;Node2</title>
<path fill="none" stroke="#63b8ff" d="M194.5,-241.95C186.97,-233.02 178.14,-222.55 170.94,-214.02"/>
<polygon fill="#63b8ff" stroke="#63b8ff" points="173.52,-211.65 164.39,-206.26 168.17,-216.16 173.52,-211.65"/>
</g>
<!-- Node4 -->
<g id="node4" class="node">
<title>Node4</title>
<g id="a_node4"><a xlink:href="shared__library_8h.html" target="_top" xlink:title=" ">
<polygon fill="white" stroke="#666666" points="342.5,-206 239.5,-206 239.5,-187 342.5,-187 342.5,-206"/>
<text text-anchor="middle" x="291" y="-194" font-family="Helvetica,sans-Serif" font-size="10.00">../../shared_library.h</text>
</a>
</g>
</g>
<!-- Node1&#45;&gt;Node4 -->
<g id="edge3" class="edge">
<title>Node1&#45;&gt;Node4</title>
<path fill="none" stroke="#63b8ff" d="M235.44,-241.95C247.18,-232.55 261.05,-221.46 272,-212.7"/>
<polygon fill="#63b8ff" stroke="#63b8ff" points="274.43,-215.24 280.05,-206.26 270.05,-209.77 274.43,-215.24"/>
</g>
<!-- Node5 -->
<g id="node5" class="node">
<title>Node5</title>
<g id="a_node5"><a xlink:title=" ">
<polygon fill="#e0e0e0" stroke="#999999" points="238,-151 192,-151 192,-132 238,-132 238,-151"/>
<text text-anchor="middle" x="215" y="-139" font-family="Helvetica,sans-Serif" font-size="10.00">dlfcn.h</text>
</a>
</g>
</g>
<!-- Node1&#45;&gt;Node5 -->
<g id="edge19" class="edge">
<title>Node1&#45;&gt;Node5</title>
<path fill="none" stroke="#63b8ff" d="M211.66,-241.85C212.41,-219.48 213.63,-183.19 214.37,-161.21"/>
<polygon fill="#63b8ff" stroke="#63b8ff" points="217.87,-161.29 214.71,-151.18 210.87,-161.05 217.87,-161.29"/>
</g>
<!-- Node3 -->
<g id="node3" class="node">
<title>Node3</title>
<g id="a_node3"><a xlink:title=" ">
<polygon fill="#e0e0e0" stroke="#999999" points="174,-151 128,-151 128,-132 174,-132 174,-151"/>
<text text-anchor="middle" x="151" y="-139" font-family="Helvetica,sans-Serif" font-size="10.00">cstdint</text>
</a>
</g>
</g>
<!-- Node2&#45;&gt;Node3 -->
<g id="edge2" class="edge">
<title>Node2&#45;&gt;Node3</title>
<path fill="none" stroke="#63b8ff" d="M156.01,-186.75C155.22,-179.8 154.1,-169.85 153.11,-161.13"/>
<polygon fill="#63b8ff" stroke="#63b8ff" points="156.58,-160.63 151.97,-151.09 149.62,-161.42 156.58,-160.63"/>
</g>
<!-- Node4&#45;&gt;Node5 -->
<g id="edge4" class="edge">
<title>Node4&#45;&gt;Node5</title>
<path fill="none" stroke="#63b8ff" d="M278.79,-186.98C267.22,-178.92 249.62,-166.65 235.84,-157.03"/>
<polygon fill="#63b8ff" stroke="#63b8ff" points="237.64,-154.02 227.43,-151.17 233.63,-159.76 237.64,-154.02"/>
</g>
<!-- Node6 -->
<g id="node6" class="node">
<title>Node6</title>
<g id="a_node6"><a xlink:title=" ">
<polygon fill="#e0e0e0" stroke="#999999" points="305.5,-151 256.5,-151 256.5,-132 305.5,-132 305.5,-151"/>
<text text-anchor="middle" x="281" y="-139" font-family="Helvetica,sans-Serif" font-size="10.00">cassert</text>
</a>
</g>
</g>
<!-- Node4&#45;&gt;Node6 -->
<g id="edge5" class="edge">
<title>Node4&#45;&gt;Node6</title>
<path fill="none" stroke="#63b8ff" d="M289.35,-186.75C288.04,-179.8 286.16,-169.85 284.52,-161.13"/>
<polygon fill="#63b8ff" stroke="#63b8ff" points="287.91,-160.27 282.62,-151.09 281.04,-161.56 287.91,-160.27"/>
</g>
<!-- Node7 -->
<g id="node7" class="node">
<title>Node7</title>
<g id="a_node7"><a xlink:title=" ">
<polygon fill="#e0e0e0" stroke="#999999" points="378,-151 324,-151 324,-132 378,-132 378,-151"/>
<text text-anchor="middle" x="351" y="-139" font-family="Helvetica,sans-Serif" font-size="10.00">iostream</text>
</a>
</g>
</g>
<!-- Node4&#45;&gt;Node7 -->
<g id="edge6" class="edge">
<title>Node4&#45;&gt;Node7</title>
<path fill="none" stroke="#63b8ff" d="M300.64,-186.98C309.51,-179.15 322.87,-167.34 333.61,-157.86"/>
<polygon fill="#63b8ff" stroke="#63b8ff" points="336.01,-160.41 341.18,-151.17 331.37,-155.17 336.01,-160.41"/>
</g>
<!-- Node8 -->
<g id="node8" class="node">
<title>Node8</title>
<g id="a_node8"><a xlink:href="logging_8h.html" target="_top" xlink:title=" ">
<polygon fill="white" stroke="#666666" points="452,-151 396,-151 396,-132 452,-132 452,-151"/>
<text text-anchor="middle" x="424" y="-139" font-family="Helvetica,sans-Serif" font-size="10.00">logging.h</text>
</a>
</g>
</g>
<!-- Node4&#45;&gt;Node8 -->
<g id="edge7" class="edge">
<title>Node4&#45;&gt;Node8</title>
<path fill="none" stroke="#63b8ff" d="M312.37,-186.98C334.15,-178.3 368.16,-164.75 392.92,-154.88"/>
<polygon fill="#63b8ff" stroke="#63b8ff" points="394.25,-158.12 402.24,-151.17 391.66,-151.62 394.25,-158.12"/>
</g>
<!-- Node9 -->
<g id="node9" class="node">
<title>Node9</title>
<g id="a_node9"><a xlink:title=" ">
<polygon fill="#e0e0e0" stroke="#999999" points="52,-90.5 0,-90.5 0,-71.5 52,-71.5 52,-90.5"/>
<text text-anchor="middle" x="26" y="-78.5" font-family="Helvetica,sans-Serif" font-size="10.00">sstream</text>
</a>
</g>
</g>
<!-- Node8&#45;&gt;Node9 -->
<g id="edge8" class="edge">
<title>Node8&#45;&gt;Node9</title>
<path fill="none" stroke="#63b8ff" d="M395.79,-133.66C392.83,-133.05 389.86,-132.48 387,-132 243.28,-107.64 202.41,-131.39 61,-96 58.7,-95.42 56.34,-94.73 54,-93.96"/>
<polygon fill="#63b8ff" stroke="#63b8ff" points="55.17,-90.67 44.58,-90.51 52.77,-97.24 55.17,-90.67"/>
</g>
<!-- Node10 -->
<g id="node10" class="node">
<title>Node10</title>
<g id="a_node10"><a xlink:title=" ">
<polygon fill="#e0e0e0" stroke="#999999" points="158,-90.5 70,-90.5 70,-71.5 158,-71.5 158,-90.5"/>
<text text-anchor="middle" x="114" y="-78.5" font-family="Helvetica,sans-Serif" font-size="10.00">spdlog/cfg/env.h</text>
</a>
</g>
</g>
<!-- Node8&#45;&gt;Node10 -->
<g id="edge9" class="edge">
<title>Node8&#45;&gt;Node10</title>
<path fill="none" stroke="#63b8ff" d="M395.76,-133.82C392.81,-133.18 389.85,-132.56 387,-132 289.78,-112.9 263.9,-116.68 167,-96 162.81,-95.11 158.46,-94.09 154.13,-93.03"/>
<polygon fill="#63b8ff" stroke="#63b8ff" points="154.7,-89.57 144.15,-90.5 152.98,-96.35 154.7,-89.57"/>
</g>
<!-- Node11 -->
<g id="node11" class="node">
<title>Node11</title>
<g id="a_node11"><a xlink:title=" ">
<polygon fill="#e0e0e0" stroke="#999999" points="286,-96 176,-96 176,-66 286,-66 286,-96"/>
<text text-anchor="start" x="184" y="-84" font-family="Helvetica,sans-Serif" font-size="10.00">spdlog/sinks/callback</text>
<text text-anchor="middle" x="231" y="-73" font-family="Helvetica,sans-Serif" font-size="10.00">_sink.h</text>
</a>
</g>
</g>
<!-- Node8&#45;&gt;Node11 -->
<g id="edge10" class="edge">
<title>Node8&#45;&gt;Node11</title>
<path fill="none" stroke="#63b8ff" d="M395.94,-131.99C367.55,-123.39 322.9,-109.86 287.21,-99.04"/>
<polygon fill="#63b8ff" stroke="#63b8ff" points="287.99,-95.62 277.4,-96.06 285.95,-102.31 287.99,-95.62"/>
</g>
<!-- Node12 -->
<g id="node12" class="node">
<title>Node12</title>
<g id="a_node12"><a xlink:title=" ">
<polygon fill="#e0e0e0" stroke="#999999" points="418,-96 304,-96 304,-66 418,-66 418,-96"/>
<text text-anchor="start" x="312" y="-84" font-family="Helvetica,sans-Serif" font-size="10.00">spdlog/sinks/ringbuffer</text>
<text text-anchor="middle" x="361" y="-73" font-family="Helvetica,sans-Serif" font-size="10.00">_sink.h</text>
</a>
</g>
</g>
<!-- Node8&#45;&gt;Node12 -->
<g id="edge11" class="edge">
<title>Node8&#45;&gt;Node12</title>
<path fill="none" stroke="#63b8ff" d="M414.7,-131.87C406.55,-124.3 394.36,-112.98 383.66,-103.04"/>
<polygon fill="#63b8ff" stroke="#63b8ff" points="385.91,-100.35 376.2,-96.11 381.15,-105.48 385.91,-100.35"/>
</g>
<!-- Node13 -->
<g id="node13" class="node">
<title>Node13</title>
<g id="a_node13"><a xlink:title=" ">
<polygon fill="#e0e0e0" stroke="#999999" points="537.5,-96 436.5,-96 436.5,-66 537.5,-66 537.5,-96"/>
<text text-anchor="start" x="444.5" y="-84" font-family="Helvetica,sans-Serif" font-size="10.00">spdlog/sinks/stdout</text>
<text text-anchor="middle" x="487" y="-73" font-family="Helvetica,sans-Serif" font-size="10.00">_color_sinks.h</text>
</a>
</g>
</g>
<!-- Node8&#45;&gt;Node13 -->
<g id="edge12" class="edge">
<title>Node8&#45;&gt;Node13</title>
<path fill="none" stroke="#63b8ff" d="M433.3,-131.87C441.45,-124.3 453.64,-112.98 464.34,-103.04"/>
<polygon fill="#63b8ff" stroke="#63b8ff" points="466.85,-105.48 471.8,-96.11 462.09,-100.35 466.85,-105.48"/>
</g>
<!-- Node14 -->
<g id="node14" class="node">
<title>Node14</title>
<g id="a_node14"><a xlink:title=" ">
<polygon fill="#e0e0e0" stroke="#999999" points="656.5,-96 555.5,-96 555.5,-66 656.5,-66 656.5,-96"/>
<text text-anchor="start" x="563.5" y="-84" font-family="Helvetica,sans-Serif" font-size="10.00">spdlog/sinks/stdout</text>
<text text-anchor="middle" x="606" y="-73" font-family="Helvetica,sans-Serif" font-size="10.00">_sinks.h</text>
</a>
</g>
</g>
<!-- Node8&#45;&gt;Node14 -->
<g id="edge13" class="edge">
<title>Node8&#45;&gt;Node14</title>
<path fill="none" stroke="#63b8ff" d="M450.46,-131.99C477.11,-123.43 518.98,-109.97 552.56,-99.18"/>
<polygon fill="#63b8ff" stroke="#63b8ff" points="553.8,-102.46 562.24,-96.06 551.65,-95.79 553.8,-102.46"/>
</g>
<!-- Node15 -->
<g id="node15" class="node">
<title>Node15</title>
<g id="a_node15"><a xlink:title=" ">
<polygon fill="#e0e0e0" stroke="#999999" points="759.5,-90.5 674.5,-90.5 674.5,-71.5 759.5,-71.5 759.5,-90.5"/>
<text text-anchor="middle" x="717" y="-78.5" font-family="Helvetica,sans-Serif" font-size="10.00">spdlog/spdlog.h</text>
</a>
</g>
</g>
<!-- Node8&#45;&gt;Node15 -->
<g id="edge14" class="edge">
<title>Node8&#45;&gt;Node15</title>
<path fill="none" stroke="#63b8ff" d="M452.35,-136.02C497.55,-128.72 588.65,-113.3 665,-96 668.89,-95.12 672.93,-94.14 676.95,-93.13"/>
<polygon fill="#63b8ff" stroke="#63b8ff" points="678.06,-96.46 686.86,-90.56 676.3,-89.68 678.06,-96.46"/>
</g>
<!-- Node16 -->
<g id="node16" class="node">
<title>Node16</title>
<g id="a_node16"><a xlink:href="constants_8h.html" target="_top" xlink:title=" ">
<polygon fill="white" stroke="#666666" points="846,-90.5 778,-90.5 778,-71.5 846,-71.5 846,-90.5"/>
<text text-anchor="middle" x="812" y="-78.5" font-family="Helvetica,sans-Serif" font-size="10.00">constants.h</text>
</a>
</g>
</g>
<!-- Node8&#45;&gt;Node16 -->
<g id="edge15" class="edge">
<title>Node8&#45;&gt;Node16</title>
<path fill="none" stroke="#63b8ff" d="M452.03,-138.66C511.2,-134.4 652.93,-122.14 769,-96 772.22,-95.28 775.54,-94.41 778.84,-93.47"/>
<polygon fill="#63b8ff" stroke="#63b8ff" points="780.02,-96.77 788.56,-90.5 777.98,-90.08 780.02,-96.77"/>
</g>
<!-- Node17 -->
<g id="node17" class="node">
<title>Node17</title>
<g id="a_node17"><a xlink:title=" ">
<polygon fill="#e0e0e0" stroke="#999999" points="733,-24.5 673,-24.5 673,-5.5 733,-5.5 733,-24.5"/>
<text text-anchor="middle" x="703" y="-12.5" font-family="Helvetica,sans-Serif" font-size="10.00">EGL/egl.h</text>
</a>
</g>
</g>
<!-- Node16&#45;&gt;Node17 -->
<g id="edge16" class="edge">
<title>Node16&#45;&gt;Node17</title>
<path fill="none" stroke="#63b8ff" d="M797.3,-71.37C779.18,-60.73 748.15,-42.51 726.66,-29.89"/>
<polygon fill="#63b8ff" stroke="#63b8ff" points="728.21,-26.74 717.82,-24.7 724.67,-32.78 728.21,-26.74"/>
</g>
<!-- Node18 -->
<g id="node18" class="node">
<title>Node18</title>
<g id="a_node18"><a xlink:title=" ">
<polygon fill="#e0e0e0" stroke="#999999" points="872.5,-30 751.5,-30 751.5,0 872.5,0 872.5,-30"/>
<text text-anchor="start" x="759.5" y="-18" font-family="Helvetica,sans-Serif" font-size="10.00">shell/platform/embedder</text>
<text text-anchor="middle" x="812" y="-7" font-family="Helvetica,sans-Serif" font-size="10.00">/embedder.h</text>
</a>
</g>
</g>
<!-- Node16&#45;&gt;Node18 -->
<g id="edge17" class="edge">
<title>Node16&#45;&gt;Node18</title>
<path fill="none" stroke="#63b8ff" d="M812,-71.37C812,-63.49 812,-51.45 812,-40.6"/>
<polygon fill="#63b8ff" stroke="#63b8ff" points="815.5,-40.36 812,-30.36 808.5,-40.36 815.5,-40.36"/>
</g>
<!-- Node19 -->
<g id="node19" class="node">
<title>Node19</title>
<g id="a_node19"><a xlink:title=" ">
<polygon fill="#e0e0e0" stroke="#999999" points="929,-24.5 891,-24.5 891,-5.5 929,-5.5 929,-24.5"/>
<text text-anchor="middle" x="910" y="-12.5" font-family="Helvetica,sans-Serif" font-size="10.00">array</text>
</a>
</g>
</g>
<!-- Node16&#45;&gt;Node19 -->
<g id="edge18" class="edge">
<title>Node16&#45;&gt;Node19</title>
<path fill="none" stroke="#63b8ff" d="M825.22,-71.37C841.36,-60.82 868.91,-42.84 888.21,-30.23"/>
<polygon fill="#63b8ff" stroke="#63b8ff" points="890.22,-33.1 896.68,-24.7 886.39,-27.24 890.22,-33.1"/>
</g>
</g>
</svg>
