<?xml version="1.0" encoding="UTF-8" standalone="no"?>
<!DOCTYPE svg PUBLIC "-//W3C//DTD SVG 1.1//EN"
 "http://www.w3.org/Graphics/SVG/1.1/DTD/svg11.dtd">
<!-- Generated by graphviz version 5.0.0 (0)
 -->
<!-- Title: /mnt/raid10/stargate/ivi&#45;homescreen/shell/logging/dlt/libdlt.h Pages: 1 -->
<svg width="307pt" height="203pt"
 viewBox="0.00 0.00 307.00 203.00" xmlns="http://www.w3.org/2000/svg" xmlns:xlink="http://www.w3.org/1999/xlink">
<g id="graph0" class="graph" transform="scale(1 1) rotate(0) translate(4 199)">
<title>/mnt/raid10/stargate/ivi&#45;homescreen/shell/logging/dlt/libdlt.h</title>
<!-- Node1 -->
<g id="node1" class="node">
<title>Node1</title>
<g id="a_node1"><a xlink:title=" ">
<polygon fill="#999999" stroke="#666666" points="235,-195 126,-195 126,-154 235,-154 235,-195"/>
<text text-anchor="start" x="134" y="-183" font-family="Helvetica,sans-Serif" font-size="10.00">/mnt/raid10/stargate</text>
<text text-anchor="start" x="134" y="-172" font-family="Helvetica,sans-Serif" font-size="10.00">/ivi&#45;homescreen/shell</text>
<text text-anchor="middle" x="180.5" y="-161" font-family="Helvetica,sans-Serif" font-size="10.00">/logging/dlt/libdlt.h</text>
</a>
</g>
</g>
<!-- Node2 -->
<g id="node2" class="node">
<title>Node2</title>
<g id="a_node2"><a xlink:href="dlt_8h.html" target="_top" xlink:title=" ">
<polygon fill="white" stroke="#666666" points="172,-118 63,-118 63,-77 172,-77 172,-118"/>
<text text-anchor="start" x="71" y="-106" font-family="Helvetica,sans-Serif" font-size="10.00">/mnt/raid10/stargate</text>
<text text-anchor="start" x="71" y="-95" font-family="Helvetica,sans-Serif" font-size="10.00">/ivi&#45;homescreen/shell</text>
<text text-anchor="middle" x="117.5" y="-84" font-family="Helvetica,sans-Serif" font-size="10.00">/logging/dlt/dlt.h</text>
</a>
</g>
</g>
<!-- Node1&#45;&gt;Node2 -->
<g id="edge1" class="edge">
<title>Node1&#45;&gt;Node2</title>
<path fill="none" stroke="#63b8ff" d="M157.36,-145.95C149.59,-136.7 141.09,-126.58 133.94,-118.07"/>
<polygon fill="#63b8ff" stroke="#63b8ff" points="154.84,-148.39 163.95,-153.79 160.2,-143.89 154.84,-148.39"/>
</g>
<!-- Node5 -->
<g id="node5" class="node">
<title>Node5</title>
<g id="a_node5"><a xlink:href="libdlt_8cc.html" target="_top" xlink:title=" ">
<polygon fill="white" stroke="#666666" points="299,-118 190,-118 190,-77 299,-77 299,-118"/>
<text text-anchor="start" x="198" y="-106" font-family="Helvetica,sans-Serif" font-size="10.00">/mnt/raid10/stargate</text>
<text text-anchor="start" x="198" y="-95" font-family="Helvetica,sans-Serif" font-size="10.00">/ivi&#45;homescreen/shell</text>
<text text-anchor="middle" x="244.5" y="-84" font-family="Helvetica,sans-Serif" font-size="10.00">/logging/dlt/libdlt.cc</text>
</a>
</g>
</g>
<!-- Node1&#45;&gt;Node5 -->
<g id="edge4" class="edge">
<title>Node1&#45;&gt;Node5</title>
<path fill="none" stroke="#63b8ff" d="M204.01,-145.95C211.9,-136.7 220.54,-126.58 227.8,-118.07"/>
<polygon fill="#63b8ff" stroke="#63b8ff" points="201.14,-143.92 197.32,-153.79 206.47,-148.46 201.14,-143.92"/>
</g>
<!-- Node3 -->
<g id="node3" class="node">
<title>Node3</title>
<g id="a_node3"><a xlink:href="dlt_8cc.html" target="_top" xlink:title=" ">
<polygon fill="white" stroke="#666666" points="109,-41 0,-41 0,0 109,0 109,-41"/>
<text text-anchor="start" x="8" y="-29" font-family="Helvetica,sans-Serif" font-size="10.00">/mnt/raid10/stargate</text>
<text text-anchor="start" x="8" y="-18" font-family="Helvetica,sans-Serif" font-size="10.00">/ivi&#45;homescreen/shell</text>
<text text-anchor="middle" x="54.5" y="-7" font-family="Helvetica,sans-Serif" font-size="10.00">/logging/dlt/dlt.cc</text>
</a>
</g>
</g>
<!-- Node2&#45;&gt;Node3 -->
<g id="edge2" class="edge">
<title>Node2&#45;&gt;Node3</title>
<path fill="none" stroke="#63b8ff" d="M94.36,-68.95C86.59,-59.7 78.09,-49.58 70.94,-41.07"/>
<polygon fill="#63b8ff" stroke="#63b8ff" points="91.84,-71.39 100.95,-76.79 97.2,-66.89 91.84,-71.39"/>
</g>
<!-- Node4 -->
<g id="node4" class="node">
<title>Node4</title>
<g id="a_node4"><a xlink:href="dlt__sink_8h.html" target="_top" xlink:title=" ">
<polygon fill="white" stroke="#666666" points="236,-41 127,-41 127,0 236,0 236,-41"/>
<text text-anchor="start" x="135" y="-29" font-family="Helvetica,sans-Serif" font-size="10.00">/mnt/raid10/stargate</text>
<text text-anchor="start" x="135" y="-18" font-family="Helvetica,sans-Serif" font-size="10.00">/ivi&#45;homescreen/shell</text>
<text text-anchor="middle" x="181.5" y="-7" font-family="Helvetica,sans-Serif" font-size="10.00">/logging/dlt/dlt_sink.h</text>
</a>
</g>
</g>
<!-- Node2&#45;&gt;Node4 -->
<g id="edge3" class="edge">
<title>Node2&#45;&gt;Node4</title>
<path fill="none" stroke="#63b8ff" d="M141.01,-68.95C148.9,-59.7 157.54,-49.58 164.8,-41.07"/>
<polygon fill="#63b8ff" stroke="#63b8ff" points="138.14,-66.92 134.32,-76.79 143.47,-71.46 138.14,-66.92"/>
</g>
</g>
</svg>
