<?xml version="1.0" encoding="UTF-8" standalone="no"?>
<!DOCTYPE svg PUBLIC "-//W3C//DTD SVG 1.1//EN"
 "http://www.w3.org/Graphics/SVG/1.1/DTD/svg11.dtd">
<!-- Generated by graphviz version 5.0.0 (0)
 -->
<!-- Title: /mnt/raid10/stargate/ivi&#45;homescreen/shell/logging/dlt/libdlt.cc Pages: 1 -->
<svg width="258pt" height="159pt"
 viewBox="0.00 0.00 258.00 159.00" xmlns="http://www.w3.org/2000/svg" xmlns:xlink="http://www.w3.org/1999/xlink">
<g id="graph0" class="graph" transform="scale(1 1) rotate(0) translate(4 155)">
<title>/mnt/raid10/stargate/ivi&#45;homescreen/shell/logging/dlt/libdlt.cc</title>
<!-- Node1 -->
<g id="node1" class="node">
<title>Node1</title>
<g id="a_node1"><a xlink:title=" ">
<polygon fill="#999999" stroke="#666666" points="128.5,-151 19.5,-151 19.5,-110 128.5,-110 128.5,-151"/>
<text text-anchor="start" x="27.5" y="-139" font-family="Helvetica,sans-Serif" font-size="10.00">/mnt/raid10/stargate</text>
<text text-anchor="start" x="27.5" y="-128" font-family="Helvetica,sans-Serif" font-size="10.00">/ivi&#45;homescreen/shell</text>
<text text-anchor="middle" x="74" y="-117" font-family="Helvetica,sans-Serif" font-size="10.00">/logging/dlt/libdlt.cc</text>
</a>
</g>
</g>
<!-- Node2 -->
<g id="node2" class="node">
<title>Node2</title>
<g id="a_node2"><a xlink:href="libdlt_8h.html" target="_top" xlink:title=" ">
<polygon fill="white" stroke="#666666" points="45.5,-74 0.5,-74 0.5,-55 45.5,-55 45.5,-74"/>
<text text-anchor="middle" x="23" y="-62" font-family="Helvetica,sans-Serif" font-size="10.00">libdlt.h</text>
</a>
</g>
</g>
<!-- Node1&#45;&gt;Node2 -->
<g id="edge1" class="edge">
<title>Node1&#45;&gt;Node2</title>
<path fill="none" stroke="#63b8ff" d="M58.42,-109.95C51.38,-101.11 43.14,-90.77 36.38,-82.29"/>
<polygon fill="#63b8ff" stroke="#63b8ff" points="38.95,-79.9 29.98,-74.26 33.48,-84.26 38.95,-79.9"/>
</g>
<!-- Node4 -->
<g id="node4" class="node">
<title>Node4</title>
<g id="a_node4"><a xlink:href="shared__library_8h.html" target="_top" xlink:title=" ">
<polygon fill="white" stroke="#666666" points="205.5,-74 102.5,-74 102.5,-55 205.5,-55 205.5,-74"/>
<text text-anchor="middle" x="154" y="-62" font-family="Helvetica,sans-Serif" font-size="10.00">../../shared_library.h</text>
</a>
</g>
</g>
<!-- Node1&#45;&gt;Node4 -->
<g id="edge3" class="edge">
<title>Node1&#45;&gt;Node4</title>
<path fill="none" stroke="#63b8ff" d="M98.44,-109.95C110.18,-100.55 124.05,-89.46 135,-80.7"/>
<polygon fill="#63b8ff" stroke="#63b8ff" points="137.43,-83.24 143.05,-74.26 133.05,-77.77 137.43,-83.24"/>
</g>
<!-- Node5 -->
<g id="node5" class="node">
<title>Node5</title>
<g id="a_node5"><a xlink:title=" ">
<polygon fill="#e0e0e0" stroke="#999999" points="110,-19 64,-19 64,0 110,0 110,-19"/>
<text text-anchor="middle" x="87" y="-7" font-family="Helvetica,sans-Serif" font-size="10.00">dlfcn.h</text>
</a>
</g>
</g>
<!-- Node1&#45;&gt;Node5 -->
<g id="edge7" class="edge">
<title>Node1&#45;&gt;Node5</title>
<path fill="none" stroke="#63b8ff" d="M76.15,-109.85C78.59,-87.48 82.55,-51.19 84.96,-29.21"/>
<polygon fill="#63b8ff" stroke="#63b8ff" points="88.45,-29.5 86.05,-19.18 81.49,-28.74 88.45,-29.5"/>
</g>
<!-- Node3 -->
<g id="node3" class="node">
<title>Node3</title>
<g id="a_node3"><a xlink:title=" ">
<polygon fill="#e0e0e0" stroke="#999999" points="46,-19 0,-19 0,0 46,0 46,-19"/>
<text text-anchor="middle" x="23" y="-7" font-family="Helvetica,sans-Serif" font-size="10.00">cstdint</text>
</a>
</g>
</g>
<!-- Node2&#45;&gt;Node3 -->
<g id="edge2" class="edge">
<title>Node2&#45;&gt;Node3</title>
<path fill="none" stroke="#63b8ff" d="M23,-54.75C23,-47.8 23,-37.85 23,-29.13"/>
<polygon fill="#63b8ff" stroke="#63b8ff" points="26.5,-29.09 23,-19.09 19.5,-29.09 26.5,-29.09"/>
</g>
<!-- Node4&#45;&gt;Node5 -->
<g id="edge4" class="edge">
<title>Node4&#45;&gt;Node5</title>
<path fill="none" stroke="#63b8ff" d="M143.24,-54.98C133.23,-47.07 118.11,-35.11 106.07,-25.58"/>
<polygon fill="#63b8ff" stroke="#63b8ff" points="107.97,-22.63 97.96,-19.17 103.63,-28.12 107.97,-22.63"/>
</g>
<!-- Node6 -->
<g id="node6" class="node">
<title>Node6</title>
<g id="a_node6"><a xlink:title=" ">
<polygon fill="#e0e0e0" stroke="#999999" points="177.5,-19 128.5,-19 128.5,0 177.5,0 177.5,-19"/>
<text text-anchor="middle" x="153" y="-7" font-family="Helvetica,sans-Serif" font-size="10.00">cassert</text>
</a>
</g>
</g>
<!-- Node4&#45;&gt;Node6 -->
<g id="edge5" class="edge">
<title>Node4&#45;&gt;Node6</title>
<path fill="none" stroke="#63b8ff" d="M153.83,-54.75C153.7,-47.8 153.52,-37.85 153.35,-29.13"/>
<polygon fill="#63b8ff" stroke="#63b8ff" points="156.85,-29.02 153.16,-19.09 149.85,-29.15 156.85,-29.02"/>
</g>
<!-- Node7 -->
<g id="node7" class="node">
<title>Node7</title>
<g id="a_node7"><a xlink:title=" ">
<polygon fill="#e0e0e0" stroke="#999999" points="250,-19 196,-19 196,0 250,0 250,-19"/>
<text text-anchor="middle" x="223" y="-7" font-family="Helvetica,sans-Serif" font-size="10.00">iostream</text>
</a>
</g>
</g>
<!-- Node4&#45;&gt;Node7 -->
<g id="edge6" class="edge">
<title>Node4&#45;&gt;Node7</title>
<path fill="none" stroke="#63b8ff" d="M165.09,-54.98C175.49,-47 191.26,-34.88 203.72,-25.31"/>
<polygon fill="#63b8ff" stroke="#63b8ff" points="205.91,-28.04 211.71,-19.17 201.65,-22.49 205.91,-28.04"/>
</g>
</g>
</svg>
