<?xml version="1.0" encoding="UTF-8" standalone="no"?>
<!DOCTYPE svg PUBLIC "-//W3C//DTD SVG 1.1//EN"
 "http://www.w3.org/Graphics/SVG/1.1/DTD/svg11.dtd">
<!-- Generated by graphviz version 5.0.0 (0)
 -->
<!-- Title: /mnt/raid10/stargate/ivi&#45;homescreen/shell/logging/logging.h Pages: 1 -->
<svg width="937pt" height="181pt"
 viewBox="0.00 0.00 937.00 181.00" xmlns="http://www.w3.org/2000/svg" xmlns:xlink="http://www.w3.org/1999/xlink">
<g id="graph0" class="graph" transform="scale(1 1) rotate(0) translate(4 177)">
<title>/mnt/raid10/stargate/ivi&#45;homescreen/shell/logging/logging.h</title>
<!-- Node1 -->
<g id="node1" class="node">
<title>Node1</title>
<g id="a_node1"><a xlink:title=" ">
<polygon fill="#999999" stroke="#666666" points="478.5,-173 369.5,-173 369.5,-132 478.5,-132 478.5,-173"/>
<text text-anchor="start" x="377.5" y="-161" font-family="Helvetica,sans-Serif" font-size="10.00">/mnt/raid10/stargate</text>
<text text-anchor="start" x="377.5" y="-150" font-family="Helvetica,sans-Serif" font-size="10.00">/ivi&#45;homescreen/shell</text>
<text text-anchor="middle" x="424" y="-139" font-family="Helvetica,sans-Serif" font-size="10.00">/logging/logging.h</text>
</a>
</g>
</g>
<!-- Node2 -->
<g id="node2" class="node">
<title>Node2</title>
<g id="a_node2"><a xlink:title=" ">
<polygon fill="#e0e0e0" stroke="#999999" points="52,-90.5 0,-90.5 0,-71.5 52,-71.5 52,-90.5"/>
<text text-anchor="middle" x="26" y="-78.5" font-family="Helvetica,sans-Serif" font-size="10.00">sstream</text>
</a>
</g>
</g>
<!-- Node1&#45;&gt;Node2 -->
<g id="edge1" class="edge">
<title>Node1&#45;&gt;Node2</title>
<path fill="none" stroke="#63b8ff" d="M369.38,-147.07C297.63,-140.37 168.18,-125.21 61,-96 58.85,-95.41 56.64,-94.73 54.44,-94"/>
<polygon fill="#63b8ff" stroke="#63b8ff" points="55.58,-90.68 44.99,-90.51 53.16,-97.25 55.58,-90.68"/>
</g>
<!-- Node3 -->
<g id="node3" class="node">
<title>Node3</title>
<g id="a_node3"><a xlink:title=" ">
<polygon fill="#e0e0e0" stroke="#999999" points="158,-90.5 70,-90.5 70,-71.5 158,-71.5 158,-90.5"/>
<text text-anchor="middle" x="114" y="-78.5" font-family="Helvetica,sans-Serif" font-size="10.00">spdlog/cfg/env.h</text>
</a>
</g>
</g>
<!-- Node1&#45;&gt;Node3 -->
<g id="edge2" class="edge">
<title>Node1&#45;&gt;Node3</title>
<path fill="none" stroke="#63b8ff" d="M369.19,-140.42C317.05,-129.7 236.47,-112.67 167,-96 163.15,-95.08 159.16,-94.08 155.17,-93.07"/>
<polygon fill="#63b8ff" stroke="#63b8ff" points="155.89,-89.64 145.33,-90.53 154.13,-96.42 155.89,-89.64"/>
</g>
<!-- Node4 -->
<g id="node4" class="node">
<title>Node4</title>
<g id="a_node4"><a xlink:title=" ">
<polygon fill="#e0e0e0" stroke="#999999" points="286,-96 176,-96 176,-66 286,-66 286,-96"/>
<text text-anchor="start" x="184" y="-84" font-family="Helvetica,sans-Serif" font-size="10.00">spdlog/sinks/callback</text>
<text text-anchor="middle" x="231" y="-73" font-family="Helvetica,sans-Serif" font-size="10.00">_sink.h</text>
</a>
</g>
</g>
<!-- Node1&#45;&gt;Node4 -->
<g id="edge3" class="edge">
<title>Node1&#45;&gt;Node4</title>
<path fill="none" stroke="#63b8ff" d="M369.73,-131.96C341.3,-121.72 306.79,-109.29 279.3,-99.39"/>
<polygon fill="#63b8ff" stroke="#63b8ff" points="280.48,-96.1 269.89,-96 278.11,-102.69 280.48,-96.1"/>
</g>
<!-- Node5 -->
<g id="node5" class="node">
<title>Node5</title>
<g id="a_node5"><a xlink:title=" ">
<polygon fill="#e0e0e0" stroke="#999999" points="418,-96 304,-96 304,-66 418,-66 418,-96"/>
<text text-anchor="start" x="312" y="-84" font-family="Helvetica,sans-Serif" font-size="10.00">spdlog/sinks/ringbuffer</text>
<text text-anchor="middle" x="361" y="-73" font-family="Helvetica,sans-Serif" font-size="10.00">_sink.h</text>
</a>
</g>
</g>
<!-- Node1&#45;&gt;Node5 -->
<g id="edge4" class="edge">
<title>Node1&#45;&gt;Node5</title>
<path fill="none" stroke="#63b8ff" d="M406.12,-131.77C398.12,-122.95 388.69,-112.54 380.51,-103.53"/>
<polygon fill="#63b8ff" stroke="#63b8ff" points="383.03,-101.1 373.73,-96.04 377.85,-105.8 383.03,-101.1"/>
</g>
<!-- Node6 -->
<g id="node6" class="node">
<title>Node6</title>
<g id="a_node6"><a xlink:title=" ">
<polygon fill="#e0e0e0" stroke="#999999" points="537.5,-96 436.5,-96 436.5,-66 537.5,-66 537.5,-96"/>
<text text-anchor="start" x="444.5" y="-84" font-family="Helvetica,sans-Serif" font-size="10.00">spdlog/sinks/stdout</text>
<text text-anchor="middle" x="487" y="-73" font-family="Helvetica,sans-Serif" font-size="10.00">_color_sinks.h</text>
</a>
</g>
</g>
<!-- Node1&#45;&gt;Node6 -->
<g id="edge5" class="edge">
<title>Node1&#45;&gt;Node6</title>
<path fill="none" stroke="#63b8ff" d="M441.88,-131.77C449.88,-122.95 459.31,-112.54 467.49,-103.53"/>
<polygon fill="#63b8ff" stroke="#63b8ff" points="470.15,-105.8 474.27,-96.04 464.97,-101.1 470.15,-105.8"/>
</g>
<!-- Node7 -->
<g id="node7" class="node">
<title>Node7</title>
<g id="a_node7"><a xlink:title=" ">
<polygon fill="#e0e0e0" stroke="#999999" points="656.5,-96 555.5,-96 555.5,-66 656.5,-66 656.5,-96"/>
<text text-anchor="start" x="563.5" y="-84" font-family="Helvetica,sans-Serif" font-size="10.00">spdlog/sinks/stdout</text>
<text text-anchor="middle" x="606" y="-73" font-family="Helvetica,sans-Serif" font-size="10.00">_sinks.h</text>
</a>
</g>
</g>
<!-- Node1&#45;&gt;Node7 -->
<g id="edge6" class="edge">
<title>Node1&#45;&gt;Node7</title>
<path fill="none" stroke="#63b8ff" d="M475.18,-131.96C501.75,-121.81 533.96,-109.51 559.77,-99.65"/>
<polygon fill="#63b8ff" stroke="#63b8ff" points="561.23,-102.84 569.33,-96 558.74,-96.3 561.23,-102.84"/>
</g>
<!-- Node8 -->
<g id="node8" class="node">
<title>Node8</title>
<g id="a_node8"><a xlink:title=" ">
<polygon fill="#e0e0e0" stroke="#999999" points="759.5,-90.5 674.5,-90.5 674.5,-71.5 759.5,-71.5 759.5,-90.5"/>
<text text-anchor="middle" x="717" y="-78.5" font-family="Helvetica,sans-Serif" font-size="10.00">spdlog/spdlog.h</text>
</a>
</g>
</g>
<!-- Node1&#45;&gt;Node8 -->
<g id="edge7" class="edge">
<title>Node1&#45;&gt;Node8</title>
<path fill="none" stroke="#63b8ff" d="M478.69,-139.5C527.63,-128.63 601.27,-111.91 665,-96 668.61,-95.1 672.36,-94.14 676.12,-93.16"/>
<polygon fill="#63b8ff" stroke="#63b8ff" points="677.2,-96.49 685.98,-90.55 675.41,-89.72 677.2,-96.49"/>
</g>
<!-- Node9 -->
<g id="node9" class="node">
<title>Node9</title>
<g id="a_node9"><a xlink:href="constants_8h.html" target="_top" xlink:title=" ">
<polygon fill="white" stroke="#666666" points="846,-90.5 778,-90.5 778,-71.5 846,-71.5 846,-90.5"/>
<text text-anchor="middle" x="812" y="-78.5" font-family="Helvetica,sans-Serif" font-size="10.00">constants.h</text>
</a>
</g>
</g>
<!-- Node1&#45;&gt;Node9 -->
<g id="edge8" class="edge">
<title>Node1&#45;&gt;Node9</title>
<path fill="none" stroke="#63b8ff" d="M478.6,-145.38C547.05,-137.09 667.72,-120.48 769,-96 772.03,-95.27 775.16,-94.43 778.27,-93.52"/>
<polygon fill="#63b8ff" stroke="#63b8ff" points="779.55,-96.8 788.08,-90.52 777.49,-90.1 779.55,-96.8"/>
</g>
<!-- Node10 -->
<g id="node10" class="node">
<title>Node10</title>
<g id="a_node10"><a xlink:title=" ">
<polygon fill="#e0e0e0" stroke="#999999" points="733,-24.5 673,-24.5 673,-5.5 733,-5.5 733,-24.5"/>
<text text-anchor="middle" x="703" y="-12.5" font-family="Helvetica,sans-Serif" font-size="10.00">EGL/egl.h</text>
</a>
</g>
</g>
<!-- Node9&#45;&gt;Node10 -->
<g id="edge9" class="edge">
<title>Node9&#45;&gt;Node10</title>
<path fill="none" stroke="#63b8ff" d="M797.3,-71.37C779.18,-60.73 748.15,-42.51 726.66,-29.89"/>
<polygon fill="#63b8ff" stroke="#63b8ff" points="728.21,-26.74 717.82,-24.7 724.67,-32.78 728.21,-26.74"/>
</g>
<!-- Node11 -->
<g id="node11" class="node">
<title>Node11</title>
<g id="a_node11"><a xlink:title=" ">
<polygon fill="#e0e0e0" stroke="#999999" points="872.5,-30 751.5,-30 751.5,0 872.5,0 872.5,-30"/>
<text text-anchor="start" x="759.5" y="-18" font-family="Helvetica,sans-Serif" font-size="10.00">shell/platform/embedder</text>
<text text-anchor="middle" x="812" y="-7" font-family="Helvetica,sans-Serif" font-size="10.00">/embedder.h</text>
</a>
</g>
</g>
<!-- Node9&#45;&gt;Node11 -->
<g id="edge10" class="edge">
<title>Node9&#45;&gt;Node11</title>
<path fill="none" stroke="#63b8ff" d="M812,-71.37C812,-63.49 812,-51.45 812,-40.6"/>
<polygon fill="#63b8ff" stroke="#63b8ff" points="815.5,-40.36 812,-30.36 808.5,-40.36 815.5,-40.36"/>
</g>
<!-- Node12 -->
<g id="node12" class="node">
<title>Node12</title>
<g id="a_node12"><a xlink:title=" ">
<polygon fill="#e0e0e0" stroke="#999999" points="929,-24.5 891,-24.5 891,-5.5 929,-5.5 929,-24.5"/>
<text text-anchor="middle" x="910" y="-12.5" font-family="Helvetica,sans-Serif" font-size="10.00">array</text>
</a>
</g>
</g>
<!-- Node9&#45;&gt;Node12 -->
<g id="edge11" class="edge">
<title>Node9&#45;&gt;Node12</title>
<path fill="none" stroke="#63b8ff" d="M825.22,-71.37C841.36,-60.82 868.91,-42.84 888.21,-30.23"/>
<polygon fill="#63b8ff" stroke="#63b8ff" points="890.22,-33.1 896.68,-24.7 886.39,-27.24 890.22,-33.1"/>
</g>
</g>
</svg>
