<?xml version="1.0" encoding="UTF-8" standalone="no"?>
<!DOCTYPE svg PUBLIC "-//W3C//DTD SVG 1.1//EN"
 "http://www.w3.org/Graphics/SVG/1.1/DTD/svg11.dtd">
<!-- Generated by graphviz version 5.0.0 (0)
 -->
<!-- Title: /mnt/raid10/stargate/ivi&#45;homescreen/shell/logging/logging.h Pages: 1 -->
<svg width="207pt" height="214pt"
 viewBox="0.00 0.00 206.50 214.00" xmlns="http://www.w3.org/2000/svg" xmlns:xlink="http://www.w3.org/1999/xlink">
<g id="graph0" class="graph" transform="scale(1 1) rotate(0) translate(4 210)">
<title>/mnt/raid10/stargate/ivi&#45;homescreen/shell/logging/logging.h</title>
<!-- Node1 -->
<g id="node1" class="node">
<title>Node1</title>
<g id="a_node1"><a xlink:title=" ">
<polygon fill="#999999" stroke="#666666" points="149.5,-206 40.5,-206 40.5,-165 149.5,-165 149.5,-206"/>
<text text-anchor="start" x="48.5" y="-194" font-family="Helvetica,sans-Serif" font-size="10.00">/mnt/raid10/stargate</text>
<text text-anchor="start" x="48.5" y="-183" font-family="Helvetica,sans-Serif" font-size="10.00">/ivi&#45;homescreen/shell</text>
<text text-anchor="middle" x="95" y="-172" font-family="Helvetica,sans-Serif" font-size="10.00">/logging/logging.h</text>
</a>
</g>
</g>
<!-- Node2 -->
<g id="node2" class="node">
<title>Node2</title>
<g id="a_node2"><a xlink:title=" ">
<polygon fill="#e0e0e0" stroke="#999999" points="52,-129 0,-129 0,-110 52,-110 52,-129"/>
<text text-anchor="middle" x="26" y="-117" font-family="Helvetica,sans-Serif" font-size="10.00">sstream</text>
</a>
</g>
</g>
<!-- Node1&#45;&gt;Node2 -->
<g id="edge1" class="edge">
<title>Node1&#45;&gt;Node2</title>
<path fill="none" stroke="#63b8ff" d="M73.92,-164.95C63.99,-155.74 52.3,-144.9 42.95,-136.23"/>
<polygon fill="#63b8ff" stroke="#63b8ff" points="45.16,-133.49 35.44,-129.26 40.4,-138.63 45.16,-133.49"/>
</g>
<!-- Node3 -->
<g id="node3" class="node">
<title>Node3</title>
<g id="a_node3"><a xlink:href="dlt_8h.html" target="_top" xlink:title=" ">
<polygon fill="white" stroke="#666666" points="119.5,-129 70.5,-129 70.5,-110 119.5,-110 119.5,-129"/>
<text text-anchor="middle" x="95" y="-117" font-family="Helvetica,sans-Serif" font-size="10.00">dlt/dlt.h</text>
</a>
</g>
</g>
<!-- Node1&#45;&gt;Node3 -->
<g id="edge2" class="edge">
<title>Node1&#45;&gt;Node3</title>
<path fill="none" stroke="#63b8ff" d="M95,-164.95C95,-156.85 95,-147.5 95,-139.47"/>
<polygon fill="#63b8ff" stroke="#63b8ff" points="98.5,-139.26 95,-129.26 91.5,-139.26 98.5,-139.26"/>
</g>
<!-- Node6 -->
<g id="node6" class="node">
<title>Node6</title>
<g id="a_node6"><a xlink:title=" ">
<polygon fill="#e0e0e0" stroke="#999999" points="198.5,-74 97.5,-74 97.5,-55 198.5,-55 198.5,-74"/>
<text text-anchor="middle" x="148" y="-62" font-family="Helvetica,sans-Serif" font-size="10.00">flutter/fml/macros.h</text>
</a>
</g>
</g>
<!-- Node1&#45;&gt;Node6 -->
<g id="edge6" class="edge">
<title>Node1&#45;&gt;Node6</title>
<path fill="none" stroke="#63b8ff" d="M108.74,-164.89C115.52,-154.56 123.42,-141.48 129,-129 135.46,-114.54 140.47,-97.26 143.72,-84.39"/>
<polygon fill="#63b8ff" stroke="#63b8ff" points="147.19,-84.92 146.11,-74.38 140.38,-83.3 147.19,-84.92"/>
</g>
<!-- Node4 -->
<g id="node4" class="node">
<title>Node4</title>
<g id="a_node4"><a xlink:href="libdlt_8h.html" target="_top" xlink:title=" ">
<polygon fill="white" stroke="#666666" points="79.5,-74 20.5,-74 20.5,-55 79.5,-55 79.5,-74"/>
<text text-anchor="middle" x="50" y="-62" font-family="Helvetica,sans-Serif" font-size="10.00">dlt/libdlt.h</text>
</a>
</g>
</g>
<!-- Node3&#45;&gt;Node4 -->
<g id="edge3" class="edge">
<title>Node3&#45;&gt;Node4</title>
<path fill="none" stroke="#63b8ff" d="M87.57,-109.75C81.15,-102.18 71.69,-91.05 63.88,-81.84"/>
<polygon fill="#63b8ff" stroke="#63b8ff" points="66.43,-79.45 57.29,-74.09 61.1,-83.98 66.43,-79.45"/>
</g>
<!-- Node3&#45;&gt;Node6 -->
<g id="edge5" class="edge">
<title>Node3&#45;&gt;Node6</title>
<path fill="none" stroke="#63b8ff" d="M103.75,-109.75C111.47,-102.03 122.9,-90.6 132.22,-81.28"/>
<polygon fill="#63b8ff" stroke="#63b8ff" points="134.81,-83.64 139.41,-74.09 129.86,-78.69 134.81,-83.64"/>
</g>
<!-- Node5 -->
<g id="node5" class="node">
<title>Node5</title>
<g id="a_node5"><a xlink:title=" ">
<polygon fill="#e0e0e0" stroke="#999999" points="73,-19 27,-19 27,0 73,0 73,-19"/>
<text text-anchor="middle" x="50" y="-7" font-family="Helvetica,sans-Serif" font-size="10.00">cstdint</text>
</a>
</g>
</g>
<!-- Node4&#45;&gt;Node5 -->
<g id="edge4" class="edge">
<title>Node4&#45;&gt;Node5</title>
<path fill="none" stroke="#63b8ff" d="M50,-54.75C50,-47.8 50,-37.85 50,-29.13"/>
<polygon fill="#63b8ff" stroke="#63b8ff" points="53.5,-29.09 50,-19.09 46.5,-29.09 53.5,-29.09"/>
</g>
</g>
</svg>
