<?xml version="1.0" encoding="UTF-8" standalone="no"?>
<!DOCTYPE svg PUBLIC "-//W3C//DTD SVG 1.1//EN"
 "http://www.w3.org/Graphics/SVG/1.1/DTD/svg11.dtd">
<!-- Generated by graphviz version 5.0.0 (0)
 -->
<!-- Title: /mnt/raid10/stargate/ivi&#45;homescreen/shell/logging/logging.cc Pages: 1 -->
<svg width="924pt" height="280pt"
 viewBox="0.00 0.00 924.00 280.00" xmlns="http://www.w3.org/2000/svg" xmlns:xlink="http://www.w3.org/1999/xlink">
<g id="graph0" class="graph" transform="scale(1 1) rotate(0) translate(4 276)">
<title>/mnt/raid10/stargate/ivi&#45;homescreen/shell/logging/logging.cc</title>
<!-- Node1 -->
<g id="node1" class="node">
<title>Node1</title>
<g id="a_node1"><a xlink:title=" ">
<polygon fill="#999999" stroke="#666666" points="588,-272 479,-272 479,-231 588,-231 588,-272"/>
<text text-anchor="start" x="487" y="-260" font-family="Helvetica,sans-Serif" font-size="10.00">/mnt/raid10/stargate</text>
<text text-anchor="start" x="487" y="-249" font-family="Helvetica,sans-Serif" font-size="10.00">/ivi&#45;homescreen/shell</text>
<text text-anchor="middle" x="533.5" y="-238" font-family="Helvetica,sans-Serif" font-size="10.00">/logging/logging.cc</text>
</a>
</g>
</g>
<!-- Node2 -->
<g id="node2" class="node">
<title>Node2</title>
<g id="a_node2"><a xlink:title=" ">
<polygon fill="#e0e0e0" stroke="#999999" points="452.5,-195 396.5,-195 396.5,-176 452.5,-176 452.5,-195"/>
<text text-anchor="middle" x="424.5" y="-183" font-family="Helvetica,sans-Serif" font-size="10.00">algorithm</text>
</a>
</g>
</g>
<!-- Node1&#45;&gt;Node2 -->
<g id="edge1" class="edge">
<title>Node1&#45;&gt;Node2</title>
<path fill="none" stroke="#63b8ff" d="M500.2,-230.95C483.3,-221.03 463.18,-209.21 447.93,-200.25"/>
<polygon fill="#63b8ff" stroke="#63b8ff" points="449.53,-197.14 439.13,-195.09 445.98,-203.17 449.53,-197.14"/>
</g>
<!-- Node3 -->
<g id="node3" class="node">
<title>Node3</title>
<g id="a_node3"><a xlink:title=" ">
<polygon fill="#e0e0e0" stroke="#999999" points="524.5,-195 470.5,-195 470.5,-176 524.5,-176 524.5,-195"/>
<text text-anchor="middle" x="497.5" y="-183" font-family="Helvetica,sans-Serif" font-size="10.00">iostream</text>
</a>
</g>
</g>
<!-- Node1&#45;&gt;Node3 -->
<g id="edge2" class="edge">
<title>Node1&#45;&gt;Node3</title>
<path fill="none" stroke="#63b8ff" d="M522.5,-230.95C517.69,-222.39 512.08,-212.42 507.4,-204.1"/>
<polygon fill="#63b8ff" stroke="#63b8ff" points="510.38,-202.26 502.43,-195.26 504.28,-205.69 510.38,-202.26"/>
</g>
<!-- Node4 -->
<g id="node4" class="node">
<title>Node4</title>
<g id="a_node4"><a xlink:href="logging_8h.html" target="_top" xlink:title=" ">
<polygon fill="white" stroke="#666666" points="598.5,-195 542.5,-195 542.5,-176 598.5,-176 598.5,-195"/>
<text text-anchor="middle" x="570.5" y="-183" font-family="Helvetica,sans-Serif" font-size="10.00">logging.h</text>
</a>
</g>
</g>
<!-- Node1&#45;&gt;Node4 -->
<g id="edge3" class="edge">
<title>Node1&#45;&gt;Node4</title>
<path fill="none" stroke="#63b8ff" d="M544.8,-230.95C549.75,-222.39 555.51,-212.42 560.33,-204.1"/>
<polygon fill="#63b8ff" stroke="#63b8ff" points="563.46,-205.67 565.44,-195.26 557.4,-202.17 563.46,-205.67"/>
</g>
<!-- Node12 -->
<g id="node12" class="node">
<title>Node12</title>
<g id="a_node12"><a xlink:href="dlt_8h.html" target="_top" xlink:title=" ">
<polygon fill="white" stroke="#666666" points="866,-134.5 817,-134.5 817,-115.5 866,-115.5 866,-134.5"/>
<text text-anchor="middle" x="841.5" y="-122.5" font-family="Helvetica,sans-Serif" font-size="10.00">dlt/dlt.h</text>
</a>
</g>
</g>
<!-- Node1&#45;&gt;Node12 -->
<g id="edge16" class="edge">
<title>Node1&#45;&gt;Node12</title>
<path fill="none" stroke="#63b8ff" d="M581.96,-230.91C646.08,-204.99 757.21,-160.07 810.82,-138.4"/>
<polygon fill="#63b8ff" stroke="#63b8ff" points="812.18,-141.63 820.14,-134.63 809.56,-135.14 812.18,-141.63"/>
</g>
<!-- Node5 -->
<g id="node5" class="node">
<title>Node5</title>
<g id="a_node5"><a xlink:title=" ">
<polygon fill="#e0e0e0" stroke="#999999" points="760.5,-134.5 708.5,-134.5 708.5,-115.5 760.5,-115.5 760.5,-134.5"/>
<text text-anchor="middle" x="734.5" y="-122.5" font-family="Helvetica,sans-Serif" font-size="10.00">sstream</text>
</a>
</g>
</g>
<!-- Node4&#45;&gt;Node5 -->
<g id="edge4" class="edge">
<title>Node4&#45;&gt;Node5</title>
<path fill="none" stroke="#63b8ff" d="M596.33,-176C622.47,-167.3 663.98,-153.22 699.5,-140 700.92,-139.47 702.37,-138.93 703.83,-138.37"/>
<polygon fill="#63b8ff" stroke="#63b8ff" points="705.42,-141.5 713.46,-134.61 702.88,-134.98 705.42,-141.5"/>
</g>
<!-- Node6 -->
<g id="node6" class="node">
<title>Node6</title>
<g id="a_node6"><a xlink:title=" ">
<polygon fill="#e0e0e0" stroke="#999999" points="85,-134.5 0,-134.5 0,-115.5 85,-115.5 85,-134.5"/>
<text text-anchor="middle" x="42.5" y="-122.5" font-family="Helvetica,sans-Serif" font-size="10.00">spdlog/spdlog.h</text>
</a>
</g>
</g>
<!-- Node4&#45;&gt;Node6 -->
<g id="edge5" class="edge">
<title>Node4&#45;&gt;Node6</title>
<path fill="none" stroke="#63b8ff" d="M542.3,-177.58C539.34,-176.99 536.37,-176.44 533.5,-176 340.05,-146.01 287.36,-173.58 94.5,-140 89.97,-139.21 85.27,-138.21 80.62,-137.11"/>
<polygon fill="#63b8ff" stroke="#63b8ff" points="81.18,-133.64 70.63,-134.57 79.46,-140.42 81.18,-133.64"/>
</g>
<!-- Node7 -->
<g id="node7" class="node">
<title>Node7</title>
<g id="a_node7"><a xlink:title=" ">
<polygon fill="#e0e0e0" stroke="#999999" points="191.5,-134.5 103.5,-134.5 103.5,-115.5 191.5,-115.5 191.5,-134.5"/>
<text text-anchor="middle" x="147.5" y="-122.5" font-family="Helvetica,sans-Serif" font-size="10.00">spdlog/cfg/env.h</text>
</a>
</g>
</g>
<!-- Node4&#45;&gt;Node7 -->
<g id="edge6" class="edge">
<title>Node4&#45;&gt;Node7</title>
<path fill="none" stroke="#63b8ff" d="M542.29,-177.66C539.33,-177.05 536.36,-176.48 533.5,-176 386.7,-151.29 346.88,-167.09 200.5,-140 196.01,-139.17 191.34,-138.16 186.72,-137.06"/>
<polygon fill="#63b8ff" stroke="#63b8ff" points="187.31,-133.6 176.76,-134.57 185.61,-140.39 187.31,-133.6"/>
</g>
<!-- Node8 -->
<g id="node8" class="node">
<title>Node8</title>
<g id="a_node8"><a xlink:title=" ">
<polygon fill="#e0e0e0" stroke="#999999" points="319.5,-140 209.5,-140 209.5,-110 319.5,-110 319.5,-140"/>
<text text-anchor="start" x="217.5" y="-128" font-family="Helvetica,sans-Serif" font-size="10.00">spdlog/sinks/callback</text>
<text text-anchor="middle" x="264.5" y="-117" font-family="Helvetica,sans-Serif" font-size="10.00">_sink.h</text>
</a>
</g>
</g>
<!-- Node4&#45;&gt;Node8 -->
<g id="edge7" class="edge">
<title>Node4&#45;&gt;Node8</title>
<path fill="none" stroke="#63b8ff" d="M542.25,-177.85C539.3,-177.2 536.34,-176.58 533.5,-176 445.93,-158.27 420.95,-157.89 329.58,-140.16"/>
<polygon fill="#63b8ff" stroke="#63b8ff" points="330.11,-136.7 319.63,-138.21 328.77,-143.57 330.11,-136.7"/>
</g>
<!-- Node9 -->
<g id="node9" class="node">
<title>Node9</title>
<g id="a_node9"><a xlink:title=" ">
<polygon fill="#e0e0e0" stroke="#999999" points="439,-140 338,-140 338,-110 439,-110 439,-140"/>
<text text-anchor="start" x="346" y="-128" font-family="Helvetica,sans-Serif" font-size="10.00">spdlog/sinks/stdout</text>
<text text-anchor="middle" x="388.5" y="-117" font-family="Helvetica,sans-Serif" font-size="10.00">_sinks.h</text>
</a>
</g>
</g>
<!-- Node4&#45;&gt;Node9 -->
<g id="edge8" class="edge">
<title>Node4&#45;&gt;Node9</title>
<path fill="none" stroke="#63b8ff" d="M544.04,-175.99C517.39,-167.43 475.52,-153.97 441.94,-143.18"/>
<polygon fill="#63b8ff" stroke="#63b8ff" points="442.85,-139.79 432.26,-140.06 440.7,-146.46 442.85,-139.79"/>
</g>
<!-- Node10 -->
<g id="node10" class="node">
<title>Node10</title>
<g id="a_node10"><a xlink:title=" ">
<polygon fill="#e0e0e0" stroke="#999999" points="558,-140 457,-140 457,-110 558,-110 558,-140"/>
<text text-anchor="start" x="465" y="-128" font-family="Helvetica,sans-Serif" font-size="10.00">spdlog/sinks/stdout</text>
<text text-anchor="middle" x="507.5" y="-117" font-family="Helvetica,sans-Serif" font-size="10.00">_color_sinks.h</text>
</a>
</g>
</g>
<!-- Node4&#45;&gt;Node10 -->
<g id="edge9" class="edge">
<title>Node4&#45;&gt;Node10</title>
<path fill="none" stroke="#63b8ff" d="M561.2,-175.87C553.05,-168.3 540.86,-156.98 530.16,-147.04"/>
<polygon fill="#63b8ff" stroke="#63b8ff" points="532.41,-144.35 522.7,-140.11 527.65,-149.48 532.41,-144.35"/>
</g>
<!-- Node11 -->
<g id="node11" class="node">
<title>Node11</title>
<g id="a_node11"><a xlink:title=" ">
<polygon fill="#e0e0e0" stroke="#999999" points="690.5,-140 576.5,-140 576.5,-110 690.5,-110 690.5,-140"/>
<text text-anchor="start" x="584.5" y="-128" font-family="Helvetica,sans-Serif" font-size="10.00">spdlog/sinks/ringbuffer</text>
<text text-anchor="middle" x="633.5" y="-117" font-family="Helvetica,sans-Serif" font-size="10.00">_sink.h</text>
</a>
</g>
</g>
<!-- Node4&#45;&gt;Node11 -->
<g id="edge10" class="edge">
<title>Node4&#45;&gt;Node11</title>
<path fill="none" stroke="#63b8ff" d="M579.8,-175.87C587.95,-168.3 600.14,-156.98 610.84,-147.04"/>
<polygon fill="#63b8ff" stroke="#63b8ff" points="613.35,-149.48 618.3,-140.11 608.59,-144.35 613.35,-149.48"/>
</g>
<!-- Node4&#45;&gt;Node12 -->
<g id="edge11" class="edge">
<title>Node4&#45;&gt;Node12</title>
<path fill="none" stroke="#63b8ff" d="M598.68,-180.54C642.66,-174.04 730.11,-159.81 802.5,-140 804.93,-139.34 807.42,-138.59 809.92,-137.8"/>
<polygon fill="#63b8ff" stroke="#63b8ff" points="811.06,-141.11 819.42,-134.6 808.82,-134.48 811.06,-141.11"/>
</g>
<!-- Node15 -->
<g id="node15" class="node">
<title>Node15</title>
<g id="a_node15"><a xlink:title=" ">
<polygon fill="#e0e0e0" stroke="#999999" points="839,-74 738,-74 738,-55 839,-55 839,-74"/>
<text text-anchor="middle" x="788.5" y="-62" font-family="Helvetica,sans-Serif" font-size="10.00">flutter/fml/macros.h</text>
</a>
</g>
</g>
<!-- Node4&#45;&gt;Node15 -->
<g id="edge15" class="edge">
<title>Node4&#45;&gt;Node15</title>
<path fill="none" stroke="#63b8ff" d="M598.55,-181.82C647.44,-176.59 745.37,-163.43 769.5,-140 784.29,-125.65 788.15,-101.51 788.88,-84.61"/>
<polygon fill="#63b8ff" stroke="#63b8ff" points="792.39,-84.32 788.99,-74.28 785.39,-84.24 792.39,-84.32"/>
</g>
<!-- Node13 -->
<g id="node13" class="node">
<title>Node13</title>
<g id="a_node13"><a xlink:href="libdlt_8h.html" target="_top" xlink:title=" ">
<polygon fill="white" stroke="#666666" points="916,-74 857,-74 857,-55 916,-55 916,-74"/>
<text text-anchor="middle" x="886.5" y="-62" font-family="Helvetica,sans-Serif" font-size="10.00">dlt/libdlt.h</text>
</a>
</g>
</g>
<!-- Node12&#45;&gt;Node13 -->
<g id="edge12" class="edge">
<title>Node12&#45;&gt;Node13</title>
<path fill="none" stroke="#63b8ff" d="M848.14,-115.37C854.79,-106.73 865.19,-93.2 873.49,-82.42"/>
<polygon fill="#63b8ff" stroke="#63b8ff" points="876.51,-84.23 879.83,-74.17 870.96,-79.96 876.51,-84.23"/>
</g>
<!-- Node12&#45;&gt;Node15 -->
<g id="edge14" class="edge">
<title>Node12&#45;&gt;Node15</title>
<path fill="none" stroke="#63b8ff" d="M833.68,-115.37C825.69,-106.55 813.11,-92.66 803.24,-81.77"/>
<polygon fill="#63b8ff" stroke="#63b8ff" points="805.66,-79.23 796.35,-74.17 800.47,-83.93 805.66,-79.23"/>
</g>
<!-- Node14 -->
<g id="node14" class="node">
<title>Node14</title>
<g id="a_node14"><a xlink:title=" ">
<polygon fill="#e0e0e0" stroke="#999999" points="909.5,-19 863.5,-19 863.5,0 909.5,0 909.5,-19"/>
<text text-anchor="middle" x="886.5" y="-7" font-family="Helvetica,sans-Serif" font-size="10.00">cstdint</text>
</a>
</g>
</g>
<!-- Node13&#45;&gt;Node14 -->
<g id="edge13" class="edge">
<title>Node13&#45;&gt;Node14</title>
<path fill="none" stroke="#63b8ff" d="M886.5,-54.75C886.5,-47.8 886.5,-37.85 886.5,-29.13"/>
<polygon fill="#63b8ff" stroke="#63b8ff" points="890,-29.09 886.5,-19.09 883,-29.09 890,-29.09"/>
</g>
</g>
</svg>
