<?xml version="1.0" encoding="UTF-8" standalone="no"?>
<!DOCTYPE svg PUBLIC "-//W3C//DTD SVG 1.1//EN"
 "http://www.w3.org/Graphics/SVG/1.1/DTD/svg11.dtd">
<!-- Generated by graphviz version 5.0.0 (0)
 -->
<!-- Title: /mnt/raid10/stargate/ivi&#45;homescreen/shell/logging/logging.cc Pages: 1 -->
<svg width="375pt" height="269pt"
 viewBox="0.00 0.00 374.50 269.00" xmlns="http://www.w3.org/2000/svg" xmlns:xlink="http://www.w3.org/1999/xlink">
<g id="graph0" class="graph" transform="scale(1 1) rotate(0) translate(4 265)">
<title>/mnt/raid10/stargate/ivi&#45;homescreen/shell/logging/logging.cc</title>
<!-- Node1 -->
<g id="node1" class="node">
<title>Node1</title>
<g id="a_node1"><a xlink:title=" ">
<polygon fill="#999999" stroke="#666666" points="219.5,-261 110.5,-261 110.5,-220 219.5,-220 219.5,-261"/>
<text text-anchor="start" x="118.5" y="-249" font-family="Helvetica,sans-Serif" font-size="10.00">/mnt/raid10/stargate</text>
<text text-anchor="start" x="118.5" y="-238" font-family="Helvetica,sans-Serif" font-size="10.00">/ivi&#45;homescreen/shell</text>
<text text-anchor="middle" x="165" y="-227" font-family="Helvetica,sans-Serif" font-size="10.00">/logging/logging.cc</text>
</a>
</g>
</g>
<!-- Node2 -->
<g id="node2" class="node">
<title>Node2</title>
<g id="a_node2"><a xlink:title=" ">
<polygon fill="#e0e0e0" stroke="#999999" points="56,-184 0,-184 0,-165 56,-165 56,-184"/>
<text text-anchor="middle" x="28" y="-172" font-family="Helvetica,sans-Serif" font-size="10.00">algorithm</text>
</a>
</g>
</g>
<!-- Node1&#45;&gt;Node2 -->
<g id="edge1" class="edge">
<title>Node1&#45;&gt;Node2</title>
<path fill="none" stroke="#63b8ff" d="M123.15,-219.95C101.21,-209.7 74.94,-197.43 55.57,-188.38"/>
<polygon fill="#63b8ff" stroke="#63b8ff" points="56.93,-185.15 46.39,-184.09 53.97,-191.5 56.93,-185.15"/>
</g>
<!-- Node3 -->
<g id="node3" class="node">
<title>Node3</title>
<g id="a_node3"><a xlink:title=" ">
<polygon fill="#e0e0e0" stroke="#999999" points="120,-184 74,-184 74,-165 120,-165 120,-184"/>
<text text-anchor="middle" x="97" y="-172" font-family="Helvetica,sans-Serif" font-size="10.00">cstring</text>
</a>
</g>
</g>
<!-- Node1&#45;&gt;Node3 -->
<g id="edge2" class="edge">
<title>Node1&#45;&gt;Node3</title>
<path fill="none" stroke="#63b8ff" d="M144.23,-219.95C134.44,-210.74 122.92,-199.9 113.71,-191.23"/>
<polygon fill="#63b8ff" stroke="#63b8ff" points="115.99,-188.57 106.31,-184.26 111.19,-193.66 115.99,-188.57"/>
</g>
<!-- Node4 -->
<g id="node4" class="node">
<title>Node4</title>
<g id="a_node4"><a xlink:title=" ">
<polygon fill="#e0e0e0" stroke="#999999" points="192,-184 138,-184 138,-165 192,-165 192,-184"/>
<text text-anchor="middle" x="165" y="-172" font-family="Helvetica,sans-Serif" font-size="10.00">iostream</text>
</a>
</g>
</g>
<!-- Node1&#45;&gt;Node4 -->
<g id="edge3" class="edge">
<title>Node1&#45;&gt;Node4</title>
<path fill="none" stroke="#63b8ff" d="M165,-219.95C165,-211.85 165,-202.5 165,-194.47"/>
<polygon fill="#63b8ff" stroke="#63b8ff" points="168.5,-194.26 165,-184.26 161.5,-194.26 168.5,-194.26"/>
</g>
<!-- Node5 -->
<g id="node5" class="node">
<title>Node5</title>
<g id="a_node5"><a xlink:href="logging_8h.html" target="_top" xlink:title=" ">
<polygon fill="white" stroke="#666666" points="266,-184 210,-184 210,-165 266,-165 266,-184"/>
<text text-anchor="middle" x="238" y="-172" font-family="Helvetica,sans-Serif" font-size="10.00">logging.h</text>
</a>
</g>
</g>
<!-- Node1&#45;&gt;Node5 -->
<g id="edge4" class="edge">
<title>Node1&#45;&gt;Node5</title>
<path fill="none" stroke="#63b8ff" d="M187.3,-219.95C197.91,-210.65 210.42,-199.68 220.36,-190.96"/>
<polygon fill="#63b8ff" stroke="#63b8ff" points="222.8,-193.48 228.01,-184.26 218.18,-188.22 222.8,-193.48"/>
</g>
<!-- Node7 -->
<g id="node7" class="node">
<title>Node7</title>
<g id="a_node7"><a xlink:href="dlt_8h.html" target="_top" xlink:title=" ">
<polygon fill="white" stroke="#666666" points="317.5,-129 268.5,-129 268.5,-110 317.5,-110 317.5,-129"/>
<text text-anchor="middle" x="293" y="-117" font-family="Helvetica,sans-Serif" font-size="10.00">dlt/dlt.h</text>
</a>
</g>
</g>
<!-- Node1&#45;&gt;Node7 -->
<g id="edge11" class="edge">
<title>Node1&#45;&gt;Node7</title>
<path fill="none" stroke="#63b8ff" d="M219.75,-222.43C239.63,-213.77 260.71,-201.32 275,-184 285.37,-171.43 289.77,-153.24 291.64,-139.54"/>
<polygon fill="#63b8ff" stroke="#63b8ff" points="295.15,-139.62 292.68,-129.32 288.18,-138.91 295.15,-139.62"/>
</g>
<!-- Node6 -->
<g id="node6" class="node">
<title>Node6</title>
<g id="a_node6"><a xlink:title=" ">
<polygon fill="#e0e0e0" stroke="#999999" points="211,-129 159,-129 159,-110 211,-110 211,-129"/>
<text text-anchor="middle" x="185" y="-117" font-family="Helvetica,sans-Serif" font-size="10.00">sstream</text>
</a>
</g>
</g>
<!-- Node5&#45;&gt;Node6 -->
<g id="edge5" class="edge">
<title>Node5&#45;&gt;Node6</title>
<path fill="none" stroke="#63b8ff" d="M229.25,-164.75C221.53,-157.03 210.1,-145.6 200.78,-136.28"/>
<polygon fill="#63b8ff" stroke="#63b8ff" points="203.14,-133.69 193.59,-129.09 198.19,-138.64 203.14,-133.69"/>
</g>
<!-- Node5&#45;&gt;Node7 -->
<g id="edge6" class="edge">
<title>Node5&#45;&gt;Node7</title>
<path fill="none" stroke="#63b8ff" d="M247.08,-164.75C255.09,-157.03 266.96,-145.6 276.62,-136.28"/>
<polygon fill="#63b8ff" stroke="#63b8ff" points="279.31,-138.55 284.09,-129.09 274.46,-133.51 279.31,-138.55"/>
</g>
<!-- Node10 -->
<g id="node10" class="node">
<title>Node10</title>
<g id="a_node10"><a xlink:title=" ">
<polygon fill="#e0e0e0" stroke="#999999" points="289.5,-74 188.5,-74 188.5,-55 289.5,-55 289.5,-74"/>
<text text-anchor="middle" x="239" y="-62" font-family="Helvetica,sans-Serif" font-size="10.00">flutter/fml/macros.h</text>
</a>
</g>
</g>
<!-- Node5&#45;&gt;Node10 -->
<g id="edge10" class="edge">
<title>Node5&#45;&gt;Node10</title>
<path fill="none" stroke="#63b8ff" d="M238.08,-164.66C238.24,-147.17 238.61,-107.8 238.83,-84.27"/>
<polygon fill="#63b8ff" stroke="#63b8ff" points="242.33,-84.19 238.92,-74.16 235.33,-84.13 242.33,-84.19"/>
</g>
<!-- Node8 -->
<g id="node8" class="node">
<title>Node8</title>
<g id="a_node8"><a xlink:href="libdlt_8h.html" target="_top" xlink:title=" ">
<polygon fill="white" stroke="#666666" points="366.5,-74 307.5,-74 307.5,-55 366.5,-55 366.5,-74"/>
<text text-anchor="middle" x="337" y="-62" font-family="Helvetica,sans-Serif" font-size="10.00">dlt/libdlt.h</text>
</a>
</g>
</g>
<!-- Node7&#45;&gt;Node8 -->
<g id="edge7" class="edge">
<title>Node7&#45;&gt;Node8</title>
<path fill="none" stroke="#63b8ff" d="M300.27,-109.75C306.54,-102.18 315.79,-91.05 323.43,-81.84"/>
<polygon fill="#63b8ff" stroke="#63b8ff" points="326.17,-84.02 329.87,-74.09 320.79,-79.55 326.17,-84.02"/>
</g>
<!-- Node7&#45;&gt;Node10 -->
<g id="edge9" class="edge">
<title>Node7&#45;&gt;Node10</title>
<path fill="none" stroke="#63b8ff" d="M284.08,-109.75C276.22,-102.03 264.57,-90.6 255.08,-81.28"/>
<polygon fill="#63b8ff" stroke="#63b8ff" points="257.34,-78.6 247.75,-74.09 252.44,-83.59 257.34,-78.6"/>
</g>
<!-- Node9 -->
<g id="node9" class="node">
<title>Node9</title>
<g id="a_node9"><a xlink:title=" ">
<polygon fill="#e0e0e0" stroke="#999999" points="360,-19 314,-19 314,0 360,0 360,-19"/>
<text text-anchor="middle" x="337" y="-7" font-family="Helvetica,sans-Serif" font-size="10.00">cstdint</text>
</a>
</g>
</g>
<!-- Node8&#45;&gt;Node9 -->
<g id="edge8" class="edge">
<title>Node8&#45;&gt;Node9</title>
<path fill="none" stroke="#63b8ff" d="M337,-54.75C337,-47.8 337,-37.85 337,-29.13"/>
<polygon fill="#63b8ff" stroke="#63b8ff" points="340.5,-29.09 337,-19.09 333.5,-29.09 340.5,-29.09"/>
</g>
</g>
</svg>
