<?xml version="1.0" encoding="UTF-8" standalone="no"?>
<!DOCTYPE svg PUBLIC "-//W3C//DTD SVG 1.1//EN"
 "http://www.w3.org/Graphics/SVG/1.1/DTD/svg11.dtd">
<!-- Generated by graphviz version 2.43.0 (0)
 -->
<!-- Title: /home/joel.winarske@toyotaconnected.com/development/stargate/ivi&#45;homescreen/shell/main.cc Pages: 1 -->
<svg width="2565pt" height="564pt"
 viewBox="0.00 0.00 2564.50 564.00" xmlns="http://www.w3.org/2000/svg" xmlns:xlink="http://www.w3.org/1999/xlink">
<g id="graph0" class="graph" transform="scale(1 1) rotate(0) translate(4 560)">
<title>/home/joel.winarske@toyotaconnected.com/development/stargate/ivi&#45;homescreen/shell/main.cc</title>
<polygon fill="white" stroke="transparent" points="-4,4 -4,-560 2560.5,-560 2560.5,4 -4,4"/>
<!-- Node1 -->
<g id="node1" class="node">
<title>Node1</title>
<g id="a_node1"><a xlink:title=" ">
<polygon fill="#bfbfbf" stroke="black" points="2133,-492.5 2133,-555.5 2265,-555.5 2265,-492.5 2133,-492.5"/>
<text text-anchor="start" x="2141" y="-543.5" font-family="Helvetica,sans-Serif" font-size="10.00">/home/joel.winarske</text>
<text text-anchor="start" x="2141" y="-532.5" font-family="Helvetica,sans-Serif" font-size="10.00">@toyotaconnected.com</text>
<text text-anchor="start" x="2141" y="-521.5" font-family="Helvetica,sans-Serif" font-size="10.00">/development/stargate</text>
<text text-anchor="start" x="2141" y="-510.5" font-family="Helvetica,sans-Serif" font-size="10.00">/ivi&#45;homescreen/shell</text>
<text text-anchor="middle" x="2199" y="-499.5" font-family="Helvetica,sans-Serif" font-size="10.00">/main.cc</text>
</a>
</g>
</g>
<!-- Node2 -->
<g id="node2" class="node">
<title>Node2</title>
<g id="a_node2"><a xlink:title=" ">
<polygon fill="white" stroke="#bfbfbf" points="1952,-431 1952,-450 2016,-450 2016,-431 1952,-431"/>
<text text-anchor="middle" x="1984" y="-438" font-family="Helvetica,sans-Serif" font-size="10.00">algorithm</text>
</a>
</g>
</g>
<!-- Node1&#45;&gt;Node2 -->
<g id="edge1" class="edge">
<title>Node1&#45;&gt;Node2</title>
<path fill="none" stroke="midnightblue" d="M2132.74,-497.88C2094.05,-483.22 2046.96,-465.37 2016.28,-453.74"/>
<polygon fill="midnightblue" stroke="midnightblue" points="2017.12,-450.31 2006.53,-450.04 2014.64,-456.86 2017.12,-450.31"/>
</g>
<!-- Node3 -->
<g id="node3" class="node">
<title>Node3</title>
<g id="a_node3"><a xlink:title=" ">
<polygon fill="white" stroke="#bfbfbf" points="2034.5,-431 2034.5,-450 2085.5,-450 2085.5,-431 2034.5,-431"/>
<text text-anchor="middle" x="2060" y="-438" font-family="Helvetica,sans-Serif" font-size="10.00">csignal</text>
</a>
</g>
</g>
<!-- Node1&#45;&gt;Node3 -->
<g id="edge2" class="edge">
<title>Node1&#45;&gt;Node3</title>
<path fill="none" stroke="midnightblue" d="M2146.85,-492.42C2125.01,-479.62 2100.73,-465.38 2083.4,-455.22"/>
<polygon fill="midnightblue" stroke="midnightblue" points="2084.95,-452.07 2074.56,-450.03 2081.41,-458.11 2084.95,-452.07"/>
</g>
<!-- Node4 -->
<g id="node4" class="node">
<title>Node4</title>
<g id="a_node4"><a xlink:title=" ">
<polygon fill="white" stroke="#bfbfbf" points="2103.5,-431 2103.5,-450 2152.5,-450 2152.5,-431 2103.5,-431"/>
<text text-anchor="middle" x="2128" y="-438" font-family="Helvetica,sans-Serif" font-size="10.00">cstdlib</text>
</a>
</g>
</g>
<!-- Node1&#45;&gt;Node4 -->
<g id="edge3" class="edge">
<title>Node1&#45;&gt;Node4</title>
<path fill="none" stroke="midnightblue" d="M2172.16,-492.19C2162.07,-480.61 2151,-467.9 2142.46,-458.1"/>
<polygon fill="midnightblue" stroke="midnightblue" points="2144.91,-455.58 2135.7,-450.34 2139.63,-460.18 2144.91,-455.58"/>
</g>
<!-- Node5 -->
<g id="node5" class="node">
<title>Node5</title>
<g id="a_node5"><a xlink:title=" ">
<polygon fill="white" stroke="#bfbfbf" points="2171,-431 2171,-450 2227,-450 2227,-431 2171,-431"/>
<text text-anchor="middle" x="2199" y="-438" font-family="Helvetica,sans-Serif" font-size="10.00">sstream</text>
</a>
</g>
</g>
<!-- Node1&#45;&gt;Node5 -->
<g id="edge4" class="edge">
<title>Node1&#45;&gt;Node5</title>
<path fill="none" stroke="midnightblue" d="M2199,-492.19C2199,-481.55 2199,-469.95 2199,-460.53"/>
<polygon fill="midnightblue" stroke="midnightblue" points="2202.5,-460.34 2199,-450.34 2195.5,-460.34 2202.5,-460.34"/>
</g>
<!-- Node6 -->
<g id="node6" class="node">
<title>Node6</title>
<g id="a_node6"><a xlink:href="app_8h.html" target="_top" xlink:title=" ">
<polygon fill="white" stroke="black" points="2245,-431 2245,-450 2289,-450 2289,-431 2245,-431"/>
<text text-anchor="middle" x="2267" y="-438" font-family="Helvetica,sans-Serif" font-size="10.00">app.h</text>
</a>
</g>
</g>
<!-- Node1&#45;&gt;Node6 -->
<g id="edge5" class="edge">
<title>Node1&#45;&gt;Node6</title>
<path fill="none" stroke="midnightblue" d="M2224.71,-492.19C2234.37,-480.61 2244.97,-467.9 2253.15,-458.1"/>
<polygon fill="midnightblue" stroke="midnightblue" points="2255.9,-460.26 2259.62,-450.34 2250.53,-455.78 2255.9,-460.26"/>
</g>
<!-- Node11 -->
<g id="node11" class="node">
<title>Node11</title>
<g id="a_node11"><a xlink:href="configuration_8h.html" target="_top" xlink:title=" ">
<polygon fill="white" stroke="black" points="2021,-201.5 2021,-220.5 2177,-220.5 2177,-201.5 2021,-201.5"/>
<text text-anchor="middle" x="2099" y="-208.5" font-family="Helvetica,sans-Serif" font-size="10.00">configuration/configuration.h</text>
</a>
</g>
</g>
<!-- Node1&#45;&gt;Node11 -->
<g id="edge80" class="edge">
<title>Node1&#45;&gt;Node11</title>
<path fill="none" stroke="midnightblue" d="M2265.21,-507.98C2327.41,-489.49 2411,-451.37 2411,-380 2411,-380 2411,-380 2411,-322 2411,-270.93 2260.44,-237.73 2168.5,-222.22"/>
<polygon fill="midnightblue" stroke="midnightblue" points="2168.86,-218.73 2158.42,-220.55 2167.71,-225.64 2168.86,-218.73"/>
</g>
<!-- Node44 -->
<g id="node44" class="node">
<title>Node44</title>
<g id="a_node44"><a xlink:title=" ">
<polygon fill="white" stroke="#bfbfbf" points="2439.5,-425.5 2439.5,-455.5 2556.5,-455.5 2556.5,-425.5 2439.5,-425.5"/>
<text text-anchor="start" x="2447.5" y="-443.5" font-family="Helvetica,sans-Serif" font-size="10.00">flutter/fml/command</text>
<text text-anchor="middle" x="2498" y="-432.5" font-family="Helvetica,sans-Serif" font-size="10.00">_line.h</text>
</a>
</g>
</g>
<!-- Node1&#45;&gt;Node44 -->
<g id="edge81" class="edge">
<title>Node1&#45;&gt;Node44</title>
<path fill="none" stroke="midnightblue" d="M2265.36,-504.91C2316.49,-490.98 2386.64,-471.85 2436.51,-458.26"/>
<polygon fill="midnightblue" stroke="midnightblue" points="2437.47,-461.63 2446.2,-455.62 2435.63,-454.87 2437.47,-461.63"/>
</g>
<!-- Node7 -->
<g id="node7" class="node">
<title>Node7</title>
<g id="a_node7"><a xlink:title=" ">
<polygon fill="white" stroke="#bfbfbf" points="2337,-6 2337,-25 2399,-25 2399,-6 2337,-6"/>
<text text-anchor="middle" x="2368" y="-13" font-family="Helvetica,sans-Serif" font-size="10.00">EGL/egl.h</text>
</a>
</g>
</g>
<!-- Node6&#45;&gt;Node7 -->
<g id="edge6" class="edge">
<title>Node6&#45;&gt;Node7</title>
<path fill="none" stroke="midnightblue" d="M2289.1,-431.51C2307.25,-423.68 2331.85,-409.86 2344,-389 2413.25,-270.09 2384.13,-92.16 2372.19,-34.93"/>
<polygon fill="midnightblue" stroke="midnightblue" points="2375.6,-34.18 2370.06,-25.15 2368.76,-35.66 2375.6,-34.18"/>
</g>
<!-- Node8 -->
<g id="node8" class="node">
<title>Node8</title>
<g id="a_node8"><a xlink:title=" ">
<polygon fill="white" stroke="#bfbfbf" points="1235.5,-0.5 1235.5,-30.5 1372.5,-30.5 1372.5,-0.5 1235.5,-0.5"/>
<text text-anchor="start" x="1243.5" y="-18.5" font-family="Helvetica,sans-Serif" font-size="10.00">shell/platform/embedder</text>
<text text-anchor="middle" x="1304" y="-7.5" font-family="Helvetica,sans-Serif" font-size="10.00">/embedder.h</text>
</a>
</g>
</g>
<!-- Node6&#45;&gt;Node8 -->
<g id="edge7" class="edge">
<title>Node6&#45;&gt;Node8</title>
<path fill="none" stroke="midnightblue" d="M2275.76,-430.82C2293.07,-412.69 2330,-368.77 2330,-324 2330,-324 2330,-324 2330,-148.5 2330,-111.31 2339.54,-90.84 2311,-67 2275.55,-37.39 1613.75,-22.27 1382.76,-17.88"/>
<polygon fill="midnightblue" stroke="midnightblue" points="1382.81,-14.38 1372.74,-17.69 1382.68,-21.38 1382.81,-14.38"/>
</g>
<!-- Node9 -->
<g id="node9" class="node">
<title>Node9</title>
<g id="a_node9"><a xlink:title=" ">
<polygon fill="white" stroke="#bfbfbf" points="0,-369.5 0,-388.5 98,-388.5 98,-369.5 0,-369.5"/>
<text text-anchor="middle" x="49" y="-376.5" font-family="Helvetica,sans-Serif" font-size="10.00">wayland&#45;client.h</text>
</a>
</g>
</g>
<!-- Node6&#45;&gt;Node9 -->
<g id="edge8" class="edge">
<title>Node6&#45;&gt;Node9</title>
<path fill="none" stroke="midnightblue" d="M2252.01,-430.94C2247.07,-428.55 2241.44,-426.26 2236,-425 2006.03,-371.83 347.29,-407.73 112,-389 110.73,-388.9 109.45,-388.79 108.15,-388.67"/>
<polygon fill="midnightblue" stroke="midnightblue" points="108.42,-385.18 98.11,-387.62 107.7,-392.14 108.42,-385.18"/>
</g>
<!-- Node10 -->
<g id="node10" class="node">
<title>Node10</title>
<g id="a_node10"><a xlink:title=" ">
<polygon fill="white" stroke="#bfbfbf" points="144,-73 144,-92 202,-92 202,-73 144,-73"/>
<text text-anchor="middle" x="173" y="-80" font-family="Helvetica,sans-Serif" font-size="10.00">memory</text>
</a>
</g>
</g>
<!-- Node6&#45;&gt;Node10 -->
<g id="edge9" class="edge">
<title>Node6&#45;&gt;Node10</title>
<path fill="none" stroke="midnightblue" d="M2251.67,-430.87C2246.81,-428.54 2241.31,-426.3 2236,-425 2054.31,-380.51 1581.85,-397.78 1395,-389 1253.97,-382.37 126,-465.18 126,-324 126,-324 126,-324 126,-210 126,-168.82 148.16,-124.55 162.05,-100.85"/>
<polygon fill="midnightblue" stroke="midnightblue" points="165.05,-102.65 167.24,-92.28 159.06,-99.02 165.05,-102.65"/>
</g>
<!-- Node6&#45;&gt;Node11 -->
<g id="edge10" class="edge">
<title>Node6&#45;&gt;Node11</title>
<path fill="none" stroke="midnightblue" d="M2260.62,-430.86C2235.72,-397.15 2144.85,-274.08 2111.43,-228.84"/>
<polygon fill="midnightblue" stroke="midnightblue" points="2114.14,-226.61 2105.39,-220.65 2108.51,-230.77 2114.14,-226.61"/>
</g>
<!-- Node16 -->
<g id="node16" class="node">
<title>Node16</title>
<g id="a_node16"><a xlink:href="flutter__view_8h.html" target="_top" xlink:title=" ">
<polygon fill="white" stroke="black" points="1403.5,-369.5 1403.5,-388.5 1512.5,-388.5 1512.5,-369.5 1403.5,-369.5"/>
<text text-anchor="middle" x="1458" y="-376.5" font-family="Helvetica,sans-Serif" font-size="10.00">view/flutter_view.h</text>
</a>
</g>
</g>
<!-- Node6&#45;&gt;Node16 -->
<g id="edge15" class="edge">
<title>Node6&#45;&gt;Node16</title>
<path fill="none" stroke="midnightblue" d="M2251.66,-430.92C2246.79,-428.59 2241.3,-426.34 2236,-425 2101.71,-391.05 1684.54,-382.62 1522.9,-380.61"/>
<polygon fill="midnightblue" stroke="midnightblue" points="1522.67,-377.1 1512.63,-380.48 1522.59,-384.1 1522.67,-377.1"/>
</g>
<!-- Node12 -->
<g id="node12" class="node">
<title>Node12</title>
<g id="a_node12"><a xlink:title=" ">
<polygon fill="white" stroke="#bfbfbf" points="2126,-73 2126,-92 2170,-92 2170,-73 2126,-73"/>
<text text-anchor="middle" x="2148" y="-80" font-family="Helvetica,sans-Serif" font-size="10.00">string</text>
</a>
</g>
</g>
<!-- Node11&#45;&gt;Node12 -->
<g id="edge11" class="edge">
<title>Node11&#45;&gt;Node12</title>
<path fill="none" stroke="midnightblue" d="M2113.66,-201.4C2125.41,-193.58 2141.03,-180.86 2148,-165 2156.87,-144.81 2154.94,-118.99 2152.07,-101.89"/>
<polygon fill="midnightblue" stroke="midnightblue" points="2155.5,-101.2 2150.16,-92.05 2148.63,-102.53 2155.5,-101.2"/>
</g>
<!-- Node13 -->
<g id="node13" class="node">
<title>Node13</title>
<g id="a_node13"><a xlink:title=" ">
<polygon fill="white" stroke="#bfbfbf" points="2091.5,-140 2091.5,-159 2138.5,-159 2138.5,-140 2091.5,-140"/>
<text text-anchor="middle" x="2115" y="-147" font-family="Helvetica,sans-Serif" font-size="10.00">vector</text>
</a>
</g>
</g>
<!-- Node11&#45;&gt;Node13 -->
<g id="edge12" class="edge">
<title>Node11&#45;&gt;Node13</title>
<path fill="none" stroke="midnightblue" d="M2101.29,-201.48C2103.57,-192.99 2107.15,-179.7 2110.07,-168.82"/>
<polygon fill="midnightblue" stroke="midnightblue" points="2113.49,-169.57 2112.71,-159.01 2106.74,-167.76 2113.49,-169.57"/>
</g>
<!-- Node14 -->
<g id="node14" class="node">
<title>Node14</title>
<g id="a_node14"><a xlink:title=" ">
<polygon fill="white" stroke="#bfbfbf" points="856.5,-73 856.5,-92 969.5,-92 969.5,-73 856.5,-73"/>
<text text-anchor="middle" x="913" y="-80" font-family="Helvetica,sans-Serif" font-size="10.00">flutter/fml/macros.h</text>
</a>
</g>
</g>
<!-- Node11&#45;&gt;Node14 -->
<g id="edge13" class="edge">
<title>Node11&#45;&gt;Node14</title>
<path fill="none" stroke="midnightblue" d="M2020.75,-209.83C1881.84,-208.57 1598.23,-201.45 1507,-165 1486.76,-156.91 1489.25,-142.06 1469,-134 1367.56,-93.62 1087.04,-113.75 979,-98 972.06,-96.99 964.76,-95.66 957.65,-94.21"/>
<polygon fill="midnightblue" stroke="midnightblue" points="957.93,-90.7 947.43,-92.04 956.48,-97.54 957.93,-90.7"/>
</g>
<!-- Node15 -->
<g id="node15" class="node">
<title>Node15</title>
<g id="a_node15"><a xlink:title=" ">
<polygon fill="white" stroke="#bfbfbf" points="988,-73 988,-92 1110,-92 1110,-73 988,-73"/>
<text text-anchor="middle" x="1049" y="-80" font-family="Helvetica,sans-Serif" font-size="10.00">rapidjson/document.h</text>
</a>
</g>
</g>
<!-- Node11&#45;&gt;Node15 -->
<g id="edge14" class="edge">
<title>Node11&#45;&gt;Node15</title>
<path fill="none" stroke="midnightblue" d="M2020.96,-208.74C1890.55,-205.78 1634.29,-196.07 1550,-165 1527.89,-156.85 1529.06,-142.27 1507,-134 1345.25,-73.36 1290.88,-123.32 1120,-98 1112.47,-96.88 1104.54,-95.49 1096.81,-94"/>
<polygon fill="midnightblue" stroke="midnightblue" points="1097.31,-90.53 1086.82,-92.02 1095.94,-97.4 1097.31,-90.53"/>
</g>
<!-- Node16&#45;&gt;Node10 -->
<g id="edge17" class="edge">
<title>Node16&#45;&gt;Node10</title>
<path fill="none" stroke="midnightblue" d="M1403.37,-378.19C1184.91,-378.24 386,-371.37 386,-268 386,-268 386,-268 386,-210 386,-188.66 257.92,-124.35 200.4,-96.54"/>
<polygon fill="midnightblue" stroke="midnightblue" points="201.69,-93.28 191.16,-92.1 198.65,-99.59 201.69,-93.28"/>
</g>
<!-- Node16&#45;&gt;Node11 -->
<g id="edge18" class="edge">
<title>Node16&#45;&gt;Node11</title>
<path fill="none" stroke="midnightblue" d="M1512.7,-374.65C1579.33,-369.64 1694.87,-357.99 1791,-333 1898.61,-305.03 2019.54,-250.2 2072.15,-225.1"/>
<polygon fill="midnightblue" stroke="midnightblue" points="2073.95,-228.12 2081.45,-220.64 2070.92,-221.81 2073.95,-228.12"/>
</g>
<!-- Node16&#45;&gt;Node14 -->
<g id="edge19" class="edge">
<title>Node16&#45;&gt;Node14</title>
<path fill="none" stroke="midnightblue" d="M1460.63,-369.27C1470.67,-333.91 1502.84,-200.09 1436,-134 1399.78,-98.19 1029.38,-105.48 979,-98 972.06,-96.97 964.76,-95.63 957.65,-94.18"/>
<polygon fill="midnightblue" stroke="midnightblue" points="957.94,-90.66 947.43,-92 956.48,-97.51 957.94,-90.66"/>
</g>
<!-- Node17 -->
<g id="node17" class="node">
<title>Node17</title>
<g id="a_node17"><a xlink:title=" ">
<polygon fill="white" stroke="#bfbfbf" points="2032,-73 2032,-92 2070,-92 2070,-73 2032,-73"/>
<text text-anchor="middle" x="2051" y="-80" font-family="Helvetica,sans-Serif" font-size="10.00">map</text>
</a>
</g>
</g>
<!-- Node16&#45;&gt;Node17 -->
<g id="edge16" class="edge">
<title>Node16&#45;&gt;Node17</title>
<path fill="none" stroke="midnightblue" d="M1512.84,-370.61C1604.04,-356.76 1777,-323.21 1777,-268 1777,-268 1777,-268 1777,-210 1777,-175.07 1771.29,-157.65 1797,-134 1865.08,-71.38 1911.95,-119.16 2002,-98 2008.46,-96.48 2015.33,-94.61 2021.82,-92.73"/>
<polygon fill="midnightblue" stroke="midnightblue" points="2023.01,-96.02 2031.58,-89.8 2021,-89.32 2023.01,-96.02"/>
</g>
<!-- Node18 -->
<g id="node18" class="node">
<title>Node18</title>
<g id="a_node18"><a xlink:href="window_8h.html" target="_top" xlink:title=" ">
<polygon fill="white" stroke="black" points="930.5,-313.5 930.5,-332.5 1037.5,-332.5 1037.5,-313.5 930.5,-313.5"/>
<text text-anchor="middle" x="984" y="-320.5" font-family="Helvetica,sans-Serif" font-size="10.00">wayland/window.h</text>
</a>
</g>
</g>
<!-- Node16&#45;&gt;Node18 -->
<g id="edge20" class="edge">
<title>Node16&#45;&gt;Node18</title>
<path fill="none" stroke="midnightblue" d="M1403.16,-371.75C1314.84,-361.69 1141.54,-341.95 1047.81,-331.27"/>
<polygon fill="midnightblue" stroke="midnightblue" points="1047.95,-327.76 1037.62,-330.11 1047.16,-334.72 1047.95,-327.76"/>
</g>
<!-- Node18&#45;&gt;Node10 -->
<g id="edge21" class="edge">
<title>Node18&#45;&gt;Node10</title>
<path fill="none" stroke="midnightblue" d="M930.35,-320.04C865.42,-316.43 753.43,-306.15 662,-277 558.97,-244.16 538.99,-220.2 446,-165 424.8,-152.42 422.8,-143.39 400,-134 320.93,-101.44 293.27,-121.33 211,-98 208.41,-97.27 205.76,-96.43 203.11,-95.54"/>
<polygon fill="midnightblue" stroke="midnightblue" points="204.28,-92.24 193.68,-92.15 201.91,-98.83 204.28,-92.24"/>
</g>
<!-- Node18&#45;&gt;Node12 -->
<g id="edge22" class="edge">
<title>Node18&#45;&gt;Node12</title>
<path fill="none" stroke="midnightblue" d="M1037.81,-321.66C1261.18,-319.68 2107.33,-306.56 2186,-221 2217.46,-186.78 2182.37,-128.83 2161.39,-100.34"/>
<polygon fill="midnightblue" stroke="midnightblue" points="2164.03,-98.02 2155.18,-92.19 2158.46,-102.26 2164.03,-98.02"/>
</g>
<!-- Node19 -->
<g id="node19" class="node">
<title>Node19</title>
<g id="a_node19"><a xlink:title=" ">
<polygon fill="white" stroke="#bfbfbf" points="1017,-257.5 1017,-276.5 1069,-276.5 1069,-257.5 1017,-257.5"/>
<text text-anchor="middle" x="1043" y="-264.5" font-family="Helvetica,sans-Serif" font-size="10.00">cassert</text>
</a>
</g>
</g>
<!-- Node18&#45;&gt;Node19 -->
<g id="edge23" class="edge">
<title>Node18&#45;&gt;Node19</title>
<path fill="none" stroke="midnightblue" d="M993.48,-313.32C1002.2,-305.34 1015.34,-293.31 1025.9,-283.65"/>
<polygon fill="midnightblue" stroke="midnightblue" points="1028.33,-286.17 1033.35,-276.83 1023.61,-281 1028.33,-286.17"/>
</g>
<!-- Node20 -->
<g id="node20" class="node">
<title>Node20</title>
<g id="a_node20"><a xlink:title=" ">
<polygon fill="white" stroke="#bfbfbf" points="1087,-257.5 1087,-276.5 1229,-276.5 1229,-257.5 1087,-257.5"/>
<text text-anchor="middle" x="1158" y="-264.5" font-family="Helvetica,sans-Serif" font-size="10.00">agl&#45;shell&#45;client&#45;protocol.h</text>
</a>
</g>
</g>
<!-- Node18&#45;&gt;Node20 -->
<g id="edge24" class="edge">
<title>Node18&#45;&gt;Node20</title>
<path fill="none" stroke="midnightblue" d="M1011.57,-313.44C1041.1,-304.28 1088.12,-289.69 1120.88,-279.52"/>
<polygon fill="midnightblue" stroke="midnightblue" points="1122.04,-282.82 1130.56,-276.52 1119.97,-276.14 1122.04,-282.82"/>
</g>
<!-- Node21 -->
<g id="node21" class="node">
<title>Node21</title>
<g id="a_node21"><a xlink:href="constants_8h.html" target="_top" xlink:title=" ">
<polygon fill="white" stroke="black" points="220.5,-73 220.5,-92 293.5,-92 293.5,-73 220.5,-73"/>
<text text-anchor="middle" x="257" y="-80" font-family="Helvetica,sans-Serif" font-size="10.00">constants.h</text>
</a>
</g>
</g>
<!-- Node18&#45;&gt;Node21 -->
<g id="edge25" class="edge">
<title>Node18&#45;&gt;Node21</title>
<path fill="none" stroke="midnightblue" d="M930.43,-317.97C875.46,-312.69 788.03,-301.11 716,-277 585.36,-233.28 569.57,-183.48 441,-134 381.84,-111.24 363.91,-115.53 303,-98 299.68,-97.04 296.24,-96.02 292.79,-94.97"/>
<polygon fill="midnightblue" stroke="midnightblue" points="293.79,-91.62 283.2,-92.01 291.72,-98.31 293.79,-91.62"/>
</g>
<!-- Node23 -->
<g id="node23" class="node">
<title>Node23</title>
<g id="a_node23"><a xlink:href="backend_8h.html" target="_top" xlink:title=" ">
<polygon fill="white" stroke="black" points="725,-257.5 725,-276.5 835,-276.5 835,-257.5 725,-257.5"/>
<text text-anchor="middle" x="780" y="-264.5" font-family="Helvetica,sans-Serif" font-size="10.00">backend/backend.h</text>
</a>
</g>
</g>
<!-- Node18&#45;&gt;Node23 -->
<g id="edge29" class="edge">
<title>Node18&#45;&gt;Node23</title>
<path fill="none" stroke="midnightblue" d="M951.68,-313.44C916.61,-304.16 860.5,-289.31 822.04,-279.13"/>
<polygon fill="midnightblue" stroke="midnightblue" points="822.74,-275.69 812.17,-276.52 820.94,-282.46 822.74,-275.69"/>
</g>
<!-- Node43 -->
<g id="node43" class="node">
<title>Node43</title>
<g id="a_node43"><a xlink:title=" ">
<polygon fill="white" stroke="#bfbfbf" points="853.5,-257.5 853.5,-276.5 998.5,-276.5 998.5,-257.5 853.5,-257.5"/>
<text text-anchor="middle" x="926" y="-264.5" font-family="Helvetica,sans-Serif" font-size="10.00">xdg&#45;shell&#45;client&#45;protocol.h</text>
</a>
</g>
</g>
<!-- Node18&#45;&gt;Node43 -->
<g id="edge79" class="edge">
<title>Node18&#45;&gt;Node43</title>
<path fill="none" stroke="midnightblue" d="M974.68,-313.32C966.11,-305.34 953.19,-293.31 942.81,-283.65"/>
<polygon fill="midnightblue" stroke="midnightblue" points="945.19,-281.09 935.49,-276.83 940.42,-286.21 945.19,-281.09"/>
</g>
<!-- Node21&#45;&gt;Node7 -->
<g id="edge26" class="edge">
<title>Node21&#45;&gt;Node7</title>
<path fill="none" stroke="midnightblue" d="M279.62,-72.98C286.97,-70.59 295.24,-68.29 303,-67 406.41,-49.79 2044.26,-21.88 2326.68,-17.18"/>
<polygon fill="midnightblue" stroke="midnightblue" points="2326.96,-20.68 2336.9,-17.01 2326.84,-13.68 2326.96,-20.68"/>
</g>
<!-- Node21&#45;&gt;Node8 -->
<g id="edge27" class="edge">
<title>Node21&#45;&gt;Node8</title>
<path fill="none" stroke="midnightblue" d="M280.11,-72.95C287.34,-70.62 295.42,-68.36 303,-67 479.63,-35.25 1021.48,-21.88 1225.34,-17.88"/>
<polygon fill="midnightblue" stroke="midnightblue" points="1225.45,-21.38 1235.38,-17.69 1225.31,-14.38 1225.45,-21.38"/>
</g>
<!-- Node22 -->
<g id="node22" class="node">
<title>Node22</title>
<g id="a_node22"><a xlink:title=" ">
<polygon fill="white" stroke="#bfbfbf" points="236,-6 236,-25 278,-25 278,-6 236,-6"/>
<text text-anchor="middle" x="257" y="-13" font-family="Helvetica,sans-Serif" font-size="10.00">array</text>
</a>
</g>
</g>
<!-- Node21&#45;&gt;Node22 -->
<g id="edge28" class="edge">
<title>Node21&#45;&gt;Node22</title>
<path fill="none" stroke="midnightblue" d="M257,-72.73C257,-63.18 257,-47.62 257,-35.28"/>
<polygon fill="midnightblue" stroke="midnightblue" points="260.5,-35.13 257,-25.13 253.5,-35.13 260.5,-35.13"/>
</g>
<!-- Node23&#45;&gt;Node8 -->
<g id="edge30" class="edge">
<title>Node23&#45;&gt;Node8</title>
<path fill="none" stroke="midnightblue" d="M724.86,-266.33C539.47,-265.8 -40.08,-249.81 135,-67 172.68,-27.66 968.12,-18.79 1224.86,-16.95"/>
<polygon fill="midnightblue" stroke="midnightblue" points="1225.25,-20.45 1235.23,-16.88 1225.2,-13.45 1225.25,-20.45"/>
</g>
<!-- Node23&#45;&gt;Node21 -->
<g id="edge31" class="edge">
<title>Node23&#45;&gt;Node21</title>
<path fill="none" stroke="midnightblue" d="M773.16,-257.33C751.67,-230.37 685.16,-148.84 655,-134 513.9,-64.57 457.01,-129.8 303,-98 299.05,-97.19 294.97,-96.16 290.93,-95.04"/>
<polygon fill="midnightblue" stroke="midnightblue" points="291.69,-91.62 281.11,-92.11 289.69,-98.33 291.69,-91.62"/>
</g>
<!-- Node24 -->
<g id="node24" class="node">
<title>Node24</title>
<g id="a_node24"><a xlink:href="engine_8h.html" target="_top" xlink:title=" ">
<polygon fill="white" stroke="black" points="1370.5,-201.5 1370.5,-220.5 1429.5,-220.5 1429.5,-201.5 1370.5,-201.5"/>
<text text-anchor="middle" x="1400" y="-208.5" font-family="Helvetica,sans-Serif" font-size="10.00">engine.h</text>
</a>
</g>
</g>
<!-- Node23&#45;&gt;Node24 -->
<g id="edge32" class="edge">
<title>Node23&#45;&gt;Node24</title>
<path fill="none" stroke="midnightblue" d="M831.88,-257.46C833.27,-257.3 834.64,-257.15 836,-257 1031.93,-235.51 1267.82,-219.71 1360.28,-214.16"/>
<polygon fill="midnightblue" stroke="midnightblue" points="1360.54,-217.65 1370.32,-213.57 1360.13,-210.67 1360.54,-217.65"/>
</g>
<!-- Node24&#45;&gt;Node7 -->
<g id="edge34" class="edge">
<title>Node24&#45;&gt;Node7</title>
<path fill="none" stroke="midnightblue" d="M1429.68,-210.24C1540.53,-210.78 1929.74,-209.41 2044,-165 2064.64,-156.98 2062.73,-142.91 2083,-134 2176.92,-92.72 2224,-152.37 2311,-98 2335.09,-82.94 2351.76,-53.58 2360.6,-34.51"/>
<polygon fill="midnightblue" stroke="midnightblue" points="2363.9,-35.7 2364.7,-25.14 2357.48,-32.9 2363.9,-35.7"/>
</g>
<!-- Node24&#45;&gt;Node8 -->
<g id="edge37" class="edge">
<title>Node24&#45;&gt;Node8</title>
<path fill="none" stroke="midnightblue" d="M1429.58,-210C1481.64,-208.96 1592.09,-202.13 1676,-165 1696.25,-156.04 1694.62,-142.66 1715,-134 1770.7,-110.31 1945.13,-143.54 1985,-98 1994.08,-87.63 1994.38,-77.1 1985,-67 1944.76,-23.66 1553.48,-17.2 1382.87,-16.46"/>
<polygon fill="midnightblue" stroke="midnightblue" points="1382.71,-12.96 1372.69,-16.42 1382.68,-19.96 1382.71,-12.96"/>
</g>
<!-- Node24&#45;&gt;Node10 -->
<g id="edge39" class="edge">
<title>Node24&#45;&gt;Node10</title>
<path fill="none" stroke="midnightblue" d="M1370.17,-208.92C1272.43,-205.2 952.96,-191.69 690,-165 636.53,-159.57 263.05,-111.39 211,-98 208.18,-97.27 205.28,-96.41 202.4,-95.46"/>
<polygon fill="midnightblue" stroke="midnightblue" points="203.44,-92.11 192.84,-92.04 201.08,-98.7 203.44,-92.11"/>
</g>
<!-- Node24&#45;&gt;Node12 -->
<g id="edge42" class="edge">
<title>Node24&#45;&gt;Node12</title>
<path fill="none" stroke="midnightblue" d="M1429.8,-209.74C1527.18,-208.56 1834.89,-201.9 1926,-165 1946.2,-156.82 1944.62,-143.97 1964,-134 2018.07,-106.17 2037.38,-114.17 2096,-98 2102.46,-96.22 2109.37,-94.3 2115.98,-92.46"/>
<polygon fill="midnightblue" stroke="midnightblue" points="2117.3,-95.72 2125.99,-89.67 2115.42,-88.98 2117.3,-95.72"/>
</g>
<!-- Node24&#45;&gt;Node13 -->
<g id="edge43" class="edge">
<title>Node24&#45;&gt;Node13</title>
<path fill="none" stroke="midnightblue" d="M1429.66,-209.2C1543.28,-205.96 1950.71,-192.64 2077,-165 2080.07,-164.33 2083.23,-163.45 2086.34,-162.46"/>
<polygon fill="midnightblue" stroke="midnightblue" points="2087.76,-165.67 2096.01,-159.02 2085.41,-159.07 2087.76,-165.67"/>
</g>
<!-- Node24&#45;&gt;Node16 -->
<g id="edge78" class="edge">
<title>Node24&#45;&gt;Node16</title>
<path fill="none" stroke="midnightblue" d="M1402.99,-220.57C1412,-246.34 1438.99,-323.59 1451.5,-359.39"/>
<polygon fill="midnightblue" stroke="midnightblue" points="1448.28,-360.79 1454.88,-369.08 1454.89,-358.48 1448.28,-360.79"/>
</g>
<!-- Node24&#45;&gt;Node17 -->
<g id="edge38" class="edge">
<title>Node24&#45;&gt;Node17</title>
<path fill="none" stroke="midnightblue" d="M1429.7,-209.95C1486.81,-208.95 1615.13,-202.33 1715,-165 1738.79,-156.11 1739.2,-142.87 1763,-134 1870.25,-94.02 1907.91,-129.31 2018,-98 2020.15,-97.39 2022.35,-96.66 2024.53,-95.87"/>
<polygon fill="midnightblue" stroke="midnightblue" points="2025.91,-99.09 2033.86,-92.09 2023.28,-92.6 2025.91,-99.09"/>
</g>
<!-- Node24&#45;&gt;Node21 -->
<g id="edge45" class="edge">
<title>Node24&#45;&gt;Node21</title>
<path fill="none" stroke="midnightblue" d="M1370.35,-209.22C1285.4,-206.66 1034.01,-196.75 828,-165 767.58,-155.69 754.35,-143.71 694,-134 521.7,-106.27 474.08,-132.43 303,-98 298.84,-97.16 294.53,-96.09 290.29,-94.91"/>
<polygon fill="midnightblue" stroke="midnightblue" points="291.21,-91.53 280.62,-92.01 289.19,-98.23 291.21,-91.53"/>
</g>
<!-- Node24&#45;&gt;Node23 -->
<g id="edge44" class="edge">
<title>Node24&#45;&gt;Node23</title>
<path fill="none" stroke="midnightblue" d="M1370.23,-214.09C1287.8,-219.57 1050.75,-235.42 854,-257 851.13,-257.31 848.2,-257.65 845.23,-258.01"/>
<polygon fill="midnightblue" stroke="midnightblue" points="844.53,-254.57 835.04,-259.29 845.39,-261.52 844.53,-254.57"/>
</g>
<!-- Node25 -->
<g id="node25" class="node">
<title>Node25</title>
<g id="a_node25"><a xlink:title=" ">
<polygon fill="white" stroke="#bfbfbf" points="979.5,-140 979.5,-159 1044.5,-159 1044.5,-140 979.5,-140"/>
<text text-anchor="middle" x="1012" y="-147" font-family="Helvetica,sans-Serif" font-size="10.00">functional</text>
</a>
</g>
</g>
<!-- Node24&#45;&gt;Node25 -->
<g id="edge33" class="edge">
<title>Node24&#45;&gt;Node25</title>
<path fill="none" stroke="midnightblue" d="M1370.48,-208.19C1310.27,-204.05 1169.28,-192.1 1054,-165 1050.59,-164.2 1047.07,-163.23 1043.59,-162.17"/>
<polygon fill="midnightblue" stroke="midnightblue" points="1044.58,-158.81 1033.99,-159.03 1042.4,-165.46 1044.58,-158.81"/>
</g>
<!-- Node26 -->
<g id="node26" class="node">
<title>Node26</title>
<g id="a_node26"><a xlink:title=" ">
<polygon fill="white" stroke="#bfbfbf" points="1063,-140 1063,-159 1137,-159 1137,-140 1063,-140"/>
<text text-anchor="middle" x="1100" y="-147" font-family="Helvetica,sans-Serif" font-size="10.00">GLES2/gl2.h</text>
</a>
</g>
</g>
<!-- Node24&#45;&gt;Node26 -->
<g id="edge35" class="edge">
<title>Node24&#45;&gt;Node26</title>
<path fill="none" stroke="midnightblue" d="M1370.41,-206.03C1322.76,-199.36 1226.25,-184.67 1146,-165 1142.37,-164.11 1138.61,-163.09 1134.87,-162.01"/>
<polygon fill="midnightblue" stroke="midnightblue" points="1135.73,-158.61 1125.14,-159.07 1133.7,-165.32 1135.73,-158.61"/>
</g>
<!-- Node27 -->
<g id="node27" class="node">
<title>Node27</title>
<g id="a_node27"><a xlink:title=" ">
<polygon fill="white" stroke="#bfbfbf" points="1155,-140 1155,-159 1295,-159 1295,-140 1155,-140"/>
<text text-anchor="middle" x="1225" y="-147" font-family="Helvetica,sans-Serif" font-size="10.00">flutter/encodable_value.h</text>
</a>
</g>
</g>
<!-- Node24&#45;&gt;Node27 -->
<g id="edge36" class="edge">
<title>Node24&#45;&gt;Node27</title>
<path fill="none" stroke="midnightblue" d="M1374.93,-201.48C1344.65,-191.18 1293.56,-173.81 1259.56,-162.25"/>
<polygon fill="midnightblue" stroke="midnightblue" points="1260.62,-158.91 1250.03,-159.01 1258.37,-165.54 1260.62,-158.91"/>
</g>
<!-- Node28 -->
<g id="node28" class="node">
<title>Node28</title>
<g id="a_node28"><a xlink:title=" ">
<polygon fill="white" stroke="#bfbfbf" points="1313,-140 1313,-159 1361,-159 1361,-140 1313,-140"/>
<text text-anchor="middle" x="1337" y="-147" font-family="Helvetica,sans-Serif" font-size="10.00">mutex</text>
</a>
</g>
</g>
<!-- Node24&#45;&gt;Node28 -->
<g id="edge40" class="edge">
<title>Node24&#45;&gt;Node28</title>
<path fill="none" stroke="midnightblue" d="M1390.97,-201.48C1381.24,-192.28 1365.54,-177.46 1353.58,-166.16"/>
<polygon fill="midnightblue" stroke="midnightblue" points="1355.68,-163.33 1346.01,-159.01 1350.88,-168.42 1355.68,-163.33"/>
</g>
<!-- Node29 -->
<g id="node29" class="node">
<title>Node29</title>
<g id="a_node29"><a xlink:title=" ">
<polygon fill="white" stroke="#bfbfbf" points="1379.5,-140 1379.5,-159 1426.5,-159 1426.5,-140 1379.5,-140"/>
<text text-anchor="middle" x="1403" y="-147" font-family="Helvetica,sans-Serif" font-size="10.00">queue</text>
</a>
</g>
</g>
<!-- Node24&#45;&gt;Node29 -->
<g id="edge41" class="edge">
<title>Node24&#45;&gt;Node29</title>
<path fill="none" stroke="midnightblue" d="M1400.43,-201.48C1400.85,-193.08 1401.51,-179.98 1402.06,-169.16"/>
<polygon fill="midnightblue" stroke="midnightblue" points="1405.56,-169.17 1402.57,-159.01 1398.57,-168.82 1405.56,-169.17"/>
</g>
<!-- Node30 -->
<g id="node30" class="node">
<title>Node30</title>
<g id="a_node30"><a xlink:href="logging_8h.html" target="_top" xlink:title=" ">
<polygon fill="white" stroke="black" points="1973,-140 1973,-159 2035,-159 2035,-140 1973,-140"/>
<text text-anchor="middle" x="2004" y="-147" font-family="Helvetica,sans-Serif" font-size="10.00">logging.h</text>
</a>
</g>
</g>
<!-- Node24&#45;&gt;Node30 -->
<g id="edge46" class="edge">
<title>Node24&#45;&gt;Node30</title>
<path fill="none" stroke="midnightblue" d="M1429.73,-210.01C1513.72,-209.53 1759.65,-204.59 1959,-165 1962.96,-164.21 1967.06,-163.19 1971.11,-162.06"/>
<polygon fill="midnightblue" stroke="midnightblue" points="1972.37,-165.33 1980.91,-159.07 1970.33,-158.64 1972.37,-165.33"/>
</g>
<!-- Node32 -->
<g id="node32" class="node">
<title>Node32</title>
<g id="a_node32"><a xlink:href="platform__channel_8h.html" target="_top" xlink:title=" ">
<polygon fill="white" stroke="black" points="1805.5,-140 1805.5,-159 1916.5,-159 1916.5,-140 1805.5,-140"/>
<text text-anchor="middle" x="1861" y="-147" font-family="Helvetica,sans-Serif" font-size="10.00">platform_channel.h</text>
</a>
</g>
</g>
<!-- Node24&#45;&gt;Node32 -->
<g id="edge48" class="edge">
<title>Node24&#45;&gt;Node32</title>
<path fill="none" stroke="midnightblue" d="M1429.76,-206.27C1490.53,-198.65 1633.24,-180.67 1753,-165 1766.66,-163.21 1781.29,-161.27 1795.23,-159.4"/>
<polygon fill="midnightblue" stroke="midnightblue" points="1795.79,-162.86 1805.23,-158.06 1794.86,-155.92 1795.79,-162.86"/>
</g>
<!-- Node33 -->
<g id="node33" class="node">
<title>Node33</title>
<g id="a_node33"><a xlink:href="key__event_8h.html" target="_top" xlink:title=" ">
<polygon fill="white" stroke="black" points="837,-134.5 837,-164.5 949,-164.5 949,-134.5 837,-134.5"/>
<text text-anchor="start" x="845" y="-152.5" font-family="Helvetica,sans-Serif" font-size="10.00">static_plugins/key</text>
<text text-anchor="middle" x="893" y="-141.5" font-family="Helvetica,sans-Serif" font-size="10.00">_event/key_event.h</text>
</a>
</g>
</g>
<!-- Node24&#45;&gt;Node33 -->
<g id="edge52" class="edge">
<title>Node24&#45;&gt;Node33</title>
<path fill="none" stroke="midnightblue" d="M1370.25,-207.7C1300.37,-202.11 1120.33,-186.68 971,-165 967.12,-164.44 963.15,-163.82 959.14,-163.17"/>
<polygon fill="midnightblue" stroke="midnightblue" points="959.59,-159.7 949.15,-161.49 958.43,-166.6 959.59,-159.7"/>
</g>
<!-- Node38 -->
<g id="node38" class="node">
<title>Node38</title>
<g id="a_node38"><a xlink:href="text__input_8h.html" target="_top" xlink:title=" ">
<polygon fill="white" stroke="black" points="1559,-134.5 1559,-164.5 1667,-164.5 1667,-134.5 1559,-134.5"/>
<text text-anchor="start" x="1567" y="-152.5" font-family="Helvetica,sans-Serif" font-size="10.00">static_plugins/text</text>
<text text-anchor="middle" x="1613" y="-141.5" font-family="Helvetica,sans-Serif" font-size="10.00">_input/text_input.h</text>
</a>
</g>
</g>
<!-- Node24&#45;&gt;Node38 -->
<g id="edge64" class="edge">
<title>Node24&#45;&gt;Node38</title>
<path fill="none" stroke="midnightblue" d="M1429.62,-201.73C1461.4,-192.85 1512.75,-178.5 1553.04,-167.25"/>
<polygon fill="midnightblue" stroke="midnightblue" points="1554.08,-170.59 1562.77,-164.53 1552.19,-163.85 1554.08,-170.59"/>
</g>
<!-- Node31 -->
<g id="node31" class="node">
<title>Node31</title>
<g id="a_node31"><a xlink:title=" ">
<polygon fill="white" stroke="#bfbfbf" points="2188.5,-73 2188.5,-92 2301.5,-92 2301.5,-73 2188.5,-73"/>
<text text-anchor="middle" x="2245" y="-80" font-family="Helvetica,sans-Serif" font-size="10.00">flutter/fml/logging.h</text>
</a>
</g>
</g>
<!-- Node30&#45;&gt;Node31 -->
<g id="edge47" class="edge">
<title>Node30&#45;&gt;Node31</title>
<path fill="none" stroke="midnightblue" d="M2029.62,-139.95C2035.93,-137.93 2042.69,-135.83 2049,-134 2100.08,-119.21 2159.25,-104.26 2199.11,-94.5"/>
<polygon fill="midnightblue" stroke="midnightblue" points="2200.17,-97.85 2209.06,-92.08 2198.52,-91.05 2200.17,-97.85"/>
</g>
<!-- Node32&#45;&gt;Node8 -->
<g id="edge51" class="edge">
<title>Node32&#45;&gt;Node8</title>
<path fill="none" stroke="midnightblue" d="M1900.6,-139.98C1962.69,-126.52 2076.19,-101.53 2079,-98 2087.57,-87.21 2088.42,-77.05 2079,-67 2055.44,-41.85 1575.13,-24.66 1382.71,-18.76"/>
<polygon fill="midnightblue" stroke="midnightblue" points="1382.76,-15.26 1372.66,-18.45 1382.55,-22.26 1382.76,-15.26"/>
</g>
<!-- Node32&#45;&gt;Node12 -->
<g id="edge50" class="edge">
<title>Node32&#45;&gt;Node12</title>
<path fill="none" stroke="midnightblue" d="M1902.07,-139.93C1911.57,-137.97 1921.63,-135.9 1931,-134 2011.38,-117.68 2033.4,-121.42 2112,-98 2114.43,-97.28 2116.92,-96.45 2119.41,-95.57"/>
<polygon fill="midnightblue" stroke="midnightblue" points="2120.7,-98.83 2128.81,-92 2118.21,-92.28 2120.7,-98.83"/>
</g>
<!-- Node32&#45;&gt;Node17 -->
<g id="edge49" class="edge">
<title>Node32&#45;&gt;Node17</title>
<path fill="none" stroke="midnightblue" d="M1890.54,-139.99C1922.33,-130.6 1974.23,-114.61 2018,-98 2019.61,-97.39 2021.25,-96.74 2022.91,-96.08"/>
<polygon fill="midnightblue" stroke="midnightblue" points="2024.44,-99.23 2032.29,-92.12 2021.72,-92.78 2024.44,-99.23"/>
</g>
<!-- Node33&#45;&gt;Node8 -->
<g id="edge61" class="edge">
<title>Node33&#45;&gt;Node8</title>
<path fill="none" stroke="midnightblue" d="M836.98,-138.96C776.95,-128.18 688.89,-110.5 679,-98 670.45,-87.2 669.66,-77.13 679,-67 715.32,-27.63 1065.17,-18.95 1225.03,-17.04"/>
<polygon fill="midnightblue" stroke="midnightblue" points="1225.31,-20.53 1235.27,-16.92 1225.24,-13.53 1225.31,-20.53"/>
</g>
<!-- Node33&#45;&gt;Node10 -->
<g id="edge54" class="edge">
<title>Node33&#45;&gt;Node10</title>
<path fill="none" stroke="midnightblue" d="M836.98,-146.45C696.11,-140.95 329.86,-124.48 211,-98 208,-97.33 204.91,-96.47 201.86,-95.5"/>
<polygon fill="midnightblue" stroke="midnightblue" points="202.98,-92.18 192.39,-92.14 200.64,-98.78 202.98,-92.18"/>
</g>
<!-- Node33&#45;&gt;Node12 -->
<g id="edge55" class="edge">
<title>Node33&#45;&gt;Node12</title>
<path fill="none" stroke="midnightblue" d="M949.09,-137.02C956.43,-135.83 963.88,-134.77 971,-134 1460.83,-80.82 1589.83,-156.89 2079,-98 2091.1,-96.54 2104.22,-94.03 2115.74,-91.5"/>
<polygon fill="midnightblue" stroke="midnightblue" points="2116.82,-94.84 2125.79,-89.2 2115.26,-88.02 2116.82,-94.84"/>
</g>
<!-- Node33&#45;&gt;Node14 -->
<g id="edge59" class="edge">
<title>Node33&#45;&gt;Node14</title>
<path fill="none" stroke="midnightblue" d="M897.34,-134.4C900.27,-124.86 904.17,-112.18 907.35,-101.86"/>
<polygon fill="midnightblue" stroke="midnightblue" points="910.73,-102.78 910.32,-92.19 904.04,-100.72 910.73,-102.78"/>
</g>
<!-- Node33&#45;&gt;Node15 -->
<g id="edge60" class="edge">
<title>Node33&#45;&gt;Node15</title>
<path fill="none" stroke="midnightblue" d="M926.85,-134.4C954.34,-122.94 992.75,-106.94 1019.11,-95.95"/>
<polygon fill="midnightblue" stroke="midnightblue" points="1020.7,-99.08 1028.58,-92.01 1018.01,-92.62 1020.7,-99.08"/>
</g>
<!-- Node33&#45;&gt;Node17 -->
<g id="edge53" class="edge">
<title>Node33&#45;&gt;Node17</title>
<path fill="none" stroke="midnightblue" d="M949.09,-137.04C956.44,-135.85 963.88,-134.78 971,-134 1419.24,-84.66 1537.62,-154.61 1985,-98 1997.21,-96.46 2010.49,-93.74 2021.92,-91.08"/>
<polygon fill="midnightblue" stroke="midnightblue" points="2022.92,-94.44 2031.81,-88.68 2021.27,-87.63 2022.92,-94.44"/>
</g>
<!-- Node33&#45;&gt;Node21 -->
<g id="edge63" class="edge">
<title>Node33&#45;&gt;Node21</title>
<path fill="none" stroke="midnightblue" d="M836.54,-138.94C824.51,-137.11 811.85,-135.35 800,-134 579.96,-108.92 520.53,-139.57 303,-98 298.84,-97.2 294.52,-96.16 290.28,-94.99"/>
<polygon fill="midnightblue" stroke="midnightblue" points="291.19,-91.61 280.6,-92.1 289.18,-98.31 291.19,-91.61"/>
</g>
<!-- Node34 -->
<g id="node34" class="node">
<title>Node34</title>
<g id="a_node34"><a xlink:title=" ">
<polygon fill="white" stroke="#bfbfbf" points="508,-67.5 508,-97.5 632,-97.5 632,-67.5 508,-67.5"/>
<text text-anchor="start" x="516" y="-85.5" font-family="Helvetica,sans-Serif" font-size="10.00">flutter/basic_message</text>
<text text-anchor="middle" x="570" y="-74.5" font-family="Helvetica,sans-Serif" font-size="10.00">_channel.h</text>
</a>
</g>
</g>
<!-- Node33&#45;&gt;Node34 -->
<g id="edge56" class="edge">
<title>Node33&#45;&gt;Node34</title>
<path fill="none" stroke="midnightblue" d="M836.74,-137.18C782.75,-126.31 700.96,-109.85 642.19,-98.03"/>
<polygon fill="midnightblue" stroke="midnightblue" points="642.72,-94.56 632.23,-96.02 641.34,-101.43 642.72,-94.56"/>
</g>
<!-- Node35 -->
<g id="node35" class="node">
<title>Node35</title>
<g id="a_node35"><a xlink:title=" ">
<polygon fill="white" stroke="#bfbfbf" points="1128.5,-73 1128.5,-92 1275.5,-92 1275.5,-73 1128.5,-73"/>
<text text-anchor="middle" x="1202" y="-80" font-family="Helvetica,sans-Serif" font-size="10.00">flutter/binary_messenger.h</text>
</a>
</g>
</g>
<!-- Node33&#45;&gt;Node35 -->
<g id="edge57" class="edge">
<title>Node33&#45;&gt;Node35</title>
<path fill="none" stroke="midnightblue" d="M949.32,-136.65C1007,-124.52 1095.86,-105.83 1151.38,-94.15"/>
<polygon fill="midnightblue" stroke="midnightblue" points="1152.28,-97.54 1161.35,-92.05 1150.84,-90.69 1152.28,-97.54"/>
</g>
<!-- Node36 -->
<g id="node36" class="node">
<title>Node36</title>
<g id="a_node36"><a xlink:title=" ">
<polygon fill="white" stroke="#bfbfbf" points="312,-67.5 312,-97.5 490,-97.5 490,-67.5 312,-67.5"/>
<text text-anchor="start" x="320" y="-85.5" font-family="Helvetica,sans-Serif" font-size="10.00">flutter/shell/platform</text>
<text text-anchor="middle" x="401" y="-74.5" font-family="Helvetica,sans-Serif" font-size="10.00">/common/json_message_codec.h</text>
</a>
</g>
</g>
<!-- Node33&#45;&gt;Node36 -->
<g id="edge58" class="edge">
<title>Node33&#45;&gt;Node36</title>
<path fill="none" stroke="midnightblue" d="M836.98,-139.44C824.8,-137.56 811.98,-135.65 800,-134 669.79,-116.07 634.26,-115.86 500.42,-98.17"/>
<polygon fill="midnightblue" stroke="midnightblue" points="500.56,-94.65 490.18,-96.8 499.63,-101.59 500.56,-94.65"/>
</g>
<!-- Node37 -->
<g id="node37" class="node">
<title>Node37</title>
<g id="a_node37"><a xlink:title=" ">
<polygon fill="white" stroke="#bfbfbf" points="688,-73 688,-92 838,-92 838,-73 688,-73"/>
<text text-anchor="middle" x="763" y="-80" font-family="Helvetica,sans-Serif" font-size="10.00">xkbcommon/xkbcommon.h</text>
</a>
</g>
</g>
<!-- Node33&#45;&gt;Node37 -->
<g id="edge62" class="edge">
<title>Node33&#45;&gt;Node37</title>
<path fill="none" stroke="midnightblue" d="M864.79,-134.4C842.28,-123.14 811,-107.5 789.08,-96.54"/>
<polygon fill="midnightblue" stroke="midnightblue" points="790.52,-93.35 780.01,-92.01 787.39,-99.61 790.52,-93.35"/>
</g>
<!-- Node38&#45;&gt;Node8 -->
<g id="edge75" class="edge">
<title>Node38&#45;&gt;Node8</title>
<path fill="none" stroke="midnightblue" d="M1558.86,-136.71C1554.18,-135.76 1549.51,-134.85 1545,-134 1496.1,-124.81 1360.55,-131.76 1324,-98 1308.42,-83.61 1304.09,-59.22 1303.26,-40.87"/>
<polygon fill="midnightblue" stroke="midnightblue" points="1306.75,-40.57 1303.12,-30.62 1299.75,-40.67 1306.75,-40.57"/>
</g>
<!-- Node38&#45;&gt;Node10 -->
<g id="edge66" class="edge">
<title>Node38&#45;&gt;Node10</title>
<path fill="none" stroke="midnightblue" d="M1558.82,-143.32C1523.81,-140.16 1477.25,-136.29 1436,-134 1164.08,-118.88 478.07,-151.29 211,-98 207.75,-97.35 204.4,-96.45 201.12,-95.41"/>
<polygon fill="midnightblue" stroke="midnightblue" points="202.17,-92.07 191.57,-92.01 199.82,-98.67 202.17,-92.07"/>
</g>
<!-- Node38&#45;&gt;Node12 -->
<g id="edge67" class="edge">
<title>Node38&#45;&gt;Node12</title>
<path fill="none" stroke="midnightblue" d="M1667.05,-144.39C1754.13,-137.39 1930.72,-121.56 2079,-98 2091.03,-96.09 2104.14,-93.47 2115.67,-90.99"/>
<polygon fill="midnightblue" stroke="midnightblue" points="2116.72,-94.34 2125.73,-88.77 2115.21,-87.5 2116.72,-94.34"/>
</g>
<!-- Node38&#45;&gt;Node14 -->
<g id="edge71" class="edge">
<title>Node38&#45;&gt;Node14</title>
<path fill="none" stroke="midnightblue" d="M1558.89,-140.38C1542.27,-138.08 1523.91,-135.73 1507,-134 1273.01,-110.05 1211.84,-131.33 979,-98 972.06,-97.01 964.75,-95.69 957.64,-94.24"/>
<polygon fill="midnightblue" stroke="midnightblue" points="957.93,-90.73 947.42,-92.07 956.47,-97.57 957.93,-90.73"/>
</g>
<!-- Node38&#45;&gt;Node15 -->
<g id="edge74" class="edge">
<title>Node38&#45;&gt;Node15</title>
<path fill="none" stroke="midnightblue" d="M1558.92,-136.33C1554.23,-135.47 1549.54,-134.67 1545,-134 1357.49,-106.18 1307.63,-125.01 1120,-98 1112.47,-96.92 1104.53,-95.53 1096.8,-94.06"/>
<polygon fill="midnightblue" stroke="midnightblue" points="1097.3,-90.59 1086.81,-92.08 1095.94,-97.45 1097.3,-90.59"/>
</g>
<!-- Node38&#45;&gt;Node17 -->
<g id="edge65" class="edge">
<title>Node38&#45;&gt;Node17</title>
<path fill="none" stroke="midnightblue" d="M1667.22,-141.39C1762.87,-128.81 1954.4,-103.43 1985,-98 1997.12,-95.85 2010.38,-93.03 2021.82,-90.45"/>
<polygon fill="midnightblue" stroke="midnightblue" points="2022.77,-93.82 2031.73,-88.17 2021.2,-87 2022.77,-93.82"/>
</g>
<!-- Node38&#45;&gt;Node21 -->
<g id="edge77" class="edge">
<title>Node38&#45;&gt;Node21</title>
<path fill="none" stroke="midnightblue" d="M1558.82,-143.36C1523.81,-140.21 1477.25,-136.34 1436,-134 1184.5,-119.71 551.33,-140.26 303,-98 298.73,-97.27 294.3,-96.25 289.96,-95.07"/>
<polygon fill="midnightblue" stroke="midnightblue" points="290.68,-91.64 280.1,-92.14 288.68,-98.34 290.68,-91.64"/>
</g>
<!-- Node38&#45;&gt;Node35 -->
<g id="edge68" class="edge">
<title>Node38&#45;&gt;Node35</title>
<path fill="none" stroke="midnightblue" d="M1558.88,-136.6C1554.19,-135.68 1549.52,-134.8 1545,-134 1432.29,-114.05 1403.14,-115.31 1290,-98 1281.21,-96.66 1271.95,-95.19 1262.85,-93.71"/>
<polygon fill="midnightblue" stroke="midnightblue" points="1263.12,-90.21 1252.69,-92.06 1262,-97.12 1263.12,-90.21"/>
</g>
<!-- Node38&#45;&gt;Node37 -->
<g id="edge76" class="edge">
<title>Node38&#45;&gt;Node37</title>
<path fill="none" stroke="midnightblue" d="M1558.8,-143.77C1523.77,-140.78 1477.21,-136.95 1436,-134 1174.85,-115.31 1108.09,-128.06 848,-98 838.07,-96.85 827.54,-95.32 817.4,-93.68"/>
<polygon fill="midnightblue" stroke="midnightblue" points="817.87,-90.2 807.43,-92.01 816.71,-97.11 817.87,-90.2"/>
</g>
<!-- Node39 -->
<g id="node39" class="node">
<title>Node39</title>
<g id="a_node39"><a xlink:title=" ">
<polygon fill="white" stroke="#bfbfbf" points="1332.5,-73 1332.5,-92 1471.5,-92 1471.5,-73 1332.5,-73"/>
<text text-anchor="middle" x="1402" y="-80" font-family="Helvetica,sans-Serif" font-size="10.00">flutter/method_channel.h</text>
</a>
</g>
</g>
<!-- Node38&#45;&gt;Node39 -->
<g id="edge69" class="edge">
<title>Node38&#45;&gt;Node39</title>
<path fill="none" stroke="midnightblue" d="M1567.48,-134.48C1529.16,-122.67 1475.04,-106 1439.26,-94.98"/>
<polygon fill="midnightblue" stroke="midnightblue" points="1440.27,-91.63 1429.69,-92.03 1438.21,-98.32 1440.27,-91.63"/>
</g>
<!-- Node40 -->
<g id="node40" class="node">
<title>Node40</title>
<g id="a_node40"><a xlink:title=" ">
<polygon fill="white" stroke="#bfbfbf" points="1489.5,-67.5 1489.5,-97.5 1608.5,-97.5 1608.5,-67.5 1489.5,-67.5"/>
<text text-anchor="start" x="1497.5" y="-85.5" font-family="Helvetica,sans-Serif" font-size="10.00">flutter/method_result</text>
<text text-anchor="middle" x="1549" y="-74.5" font-family="Helvetica,sans-Serif" font-size="10.00">_functions.h</text>
</a>
</g>
</g>
<!-- Node38&#45;&gt;Node40 -->
<g id="edge70" class="edge">
<title>Node38&#45;&gt;Node40</title>
<path fill="none" stroke="midnightblue" d="M1599.11,-134.4C1590.64,-125.79 1579.65,-114.63 1570.11,-104.94"/>
<polygon fill="midnightblue" stroke="midnightblue" points="1572.37,-102.25 1562.86,-97.58 1567.38,-107.16 1572.37,-102.25"/>
</g>
<!-- Node41 -->
<g id="node41" class="node">
<title>Node41</title>
<g id="a_node41"><a xlink:title=" ">
<polygon fill="white" stroke="#bfbfbf" points="1626.5,-67.5 1626.5,-97.5 1797.5,-97.5 1797.5,-67.5 1626.5,-67.5"/>
<text text-anchor="start" x="1634.5" y="-85.5" font-family="Helvetica,sans-Serif" font-size="10.00">flutter/shell/platform</text>
<text text-anchor="middle" x="1712" y="-74.5" font-family="Helvetica,sans-Serif" font-size="10.00">/common/json_method_codec.h</text>
</a>
</g>
</g>
<!-- Node38&#45;&gt;Node41 -->
<g id="edge72" class="edge">
<title>Node38&#45;&gt;Node41</title>
<path fill="none" stroke="midnightblue" d="M1634.48,-134.4C1648.36,-125.28 1666.63,-113.29 1681.94,-103.24"/>
<polygon fill="midnightblue" stroke="midnightblue" points="1684.12,-105.99 1690.56,-97.58 1680.28,-100.14 1684.12,-105.99"/>
</g>
<!-- Node42 -->
<g id="node42" class="node">
<title>Node42</title>
<g id="a_node42"><a xlink:title=" ">
<polygon fill="white" stroke="#bfbfbf" points="1816,-67.5 1816,-97.5 1976,-97.5 1976,-67.5 1816,-67.5"/>
<text text-anchor="start" x="1824" y="-85.5" font-family="Helvetica,sans-Serif" font-size="10.00">flutter/shell/platform</text>
<text text-anchor="middle" x="1896" y="-74.5" font-family="Helvetica,sans-Serif" font-size="10.00">/common/text_input_model.h</text>
</a>
</g>
</g>
<!-- Node38&#45;&gt;Node42 -->
<g id="edge73" class="edge">
<title>Node38&#45;&gt;Node42</title>
<path fill="none" stroke="midnightblue" d="M1667.23,-136.04C1712.05,-125.75 1776.04,-111.05 1824.95,-99.82"/>
<polygon fill="midnightblue" stroke="midnightblue" points="1825.87,-103.2 1834.83,-97.55 1824.3,-96.38 1825.87,-103.2"/>
</g>
</g>
</svg>
