<?xml version="1.0" encoding="UTF-8" standalone="no"?>
<!DOCTYPE svg PUBLIC "-//W3C//DTD SVG 1.1//EN"
 "http://www.w3.org/Graphics/SVG/1.1/DTD/svg11.dtd">
<!-- Generated by graphviz version 5.0.0 (0)
 -->
<!-- Title: /mnt/raid10/stargate/ivi&#45;homescreen/shell/static_plugins/navigation/navigation.cc Pages: 1 -->
<svg width="2867pt" height="423pt"
 viewBox="0.00 0.00 2866.62 423.00" xmlns="http://www.w3.org/2000/svg" xmlns:xlink="http://www.w3.org/1999/xlink">
<g id="graph0" class="graph" transform="scale(1 1) rotate(0) translate(4 419)">
<title>/mnt/raid10/stargate/ivi&#45;homescreen/shell/static_plugins/navigation/navigation.cc</title>
<!-- Node1 -->
<g id="node1" class="node">
<title>Node1</title>
<g id="a_node1"><a xlink:title=" ">
<polygon fill="#999999" stroke="#666666" points="1999,-415 1872,-415 1872,-363 1999,-363 1999,-415"/>
<text text-anchor="start" x="1880" y="-403" font-family="Helvetica,sans-Serif" font-size="10.00">/mnt/raid10/stargate</text>
<text text-anchor="start" x="1880" y="-392" font-family="Helvetica,sans-Serif" font-size="10.00">/ivi&#45;homescreen/shell</text>
<text text-anchor="start" x="1880" y="-381" font-family="Helvetica,sans-Serif" font-size="10.00">/static_plugins/navigation</text>
<text text-anchor="middle" x="1935.5" y="-370" font-family="Helvetica,sans-Serif" font-size="10.00">/navigation.cc</text>
</a>
</g>
</g>
<!-- Node2 -->
<g id="node2" class="node">
<title>Node2</title>
<g id="a_node2"><a xlink:href="navigation_8h.html" target="_top" xlink:title=" ">
<polygon fill="white" stroke="#666666" points="69,-211.5 0,-211.5 0,-192.5 69,-192.5 69,-211.5"/>
<text text-anchor="middle" x="34.5" y="-199.5" font-family="Helvetica,sans-Serif" font-size="10.00">navigation.h</text>
</a>
</g>
</g>
<!-- Node1&#45;&gt;Node2 -->
<g id="edge1" class="edge">
<title>Node1&#45;&gt;Node2</title>
<path fill="none" stroke="#63b8ff" d="M1871.91,-386.35C1568.98,-378.16 279.97,-339.57 114.5,-272 87.03,-260.78 62.32,-236.18 47.87,-219.6"/>
<polygon fill="#63b8ff" stroke="#63b8ff" points="50.39,-217.17 41.28,-211.77 45.04,-221.67 50.39,-217.17"/>
</g>
<!-- Node5 -->
<g id="node5" class="node">
<title>Node5</title>
<g id="a_node5"><a xlink:title=" ">
<polygon fill="#e0e0e0" stroke="#999999" points="2715,-151 2560,-151 2560,-121 2715,-121 2715,-151"/>
<text text-anchor="start" x="2568" y="-139" font-family="Helvetica,sans-Serif" font-size="10.00">flutter/shell/platform</text>
<text text-anchor="middle" x="2637.5" y="-128" font-family="Helvetica,sans-Serif" font-size="10.00">/common/json_method_codec.h</text>
</a>
</g>
</g>
<!-- Node1&#45;&gt;Node5 -->
<g id="edge4" class="edge">
<title>Node1&#45;&gt;Node5</title>
<path fill="none" stroke="#63b8ff" d="M1999.09,-387.5C2156.17,-384.8 2555.74,-368.38 2637.5,-272 2663.68,-241.14 2654.55,-190.51 2645.83,-160.8"/>
<polygon fill="#63b8ff" stroke="#63b8ff" points="2649.16,-159.73 2642.82,-151.24 2642.48,-161.83 2649.16,-159.73"/>
</g>
<!-- Node6 -->
<g id="node6" class="node">
<title>Node6</title>
<g id="a_node6"><a xlink:href="engine_8h.html" target="_top" xlink:title=" ">
<polygon fill="white" stroke="#666666" points="1962,-327 1909,-327 1909,-308 1962,-308 1962,-327"/>
<text text-anchor="middle" x="1935.5" y="-315" font-family="Helvetica,sans-Serif" font-size="10.00">engine.h</text>
</a>
</g>
</g>
<!-- Node1&#45;&gt;Node6 -->
<g id="edge5" class="edge">
<title>Node1&#45;&gt;Node6</title>
<path fill="none" stroke="#63b8ff" d="M1935.5,-362.91C1935.5,-354.55 1935.5,-345.38 1935.5,-337.55"/>
<polygon fill="#63b8ff" stroke="#63b8ff" points="1939,-337.3 1935.5,-327.3 1932,-337.3 1939,-337.3"/>
</g>
<!-- Node3 -->
<g id="node3" class="node">
<title>Node3</title>
<g id="a_node3"><a xlink:title=" ">
<polygon fill="#e0e0e0" stroke="#999999" points="1042,-30 921,-30 921,0 1042,0 1042,-30"/>
<text text-anchor="start" x="929" y="-18" font-family="Helvetica,sans-Serif" font-size="10.00">shell/platform/embedder</text>
<text text-anchor="middle" x="981.5" y="-7" font-family="Helvetica,sans-Serif" font-size="10.00">/embedder.h</text>
</a>
</g>
</g>
<!-- Node2&#45;&gt;Node3 -->
<g id="edge2" class="edge">
<title>Node2&#45;&gt;Node3</title>
<path fill="none" stroke="#63b8ff" d="M27.99,-192.38C16.71,-176.36 -3.57,-141.71 14.5,-121 56.12,-73.3 807.79,-37.46 910.68,-29.55"/>
<polygon fill="#63b8ff" stroke="#63b8ff" points="911.24,-33.02 920.87,-28.61 910.59,-26.05 911.24,-33.02"/>
</g>
<!-- Node4 -->
<g id="node4" class="node">
<title>Node4</title>
<g id="a_node4"><a xlink:title=" ">
<polygon fill="#e0e0e0" stroke="#999999" points="944,-145.5 903,-145.5 903,-126.5 944,-126.5 944,-145.5"/>
<text text-anchor="middle" x="923.5" y="-133.5" font-family="Helvetica,sans-Serif" font-size="10.00">string</text>
</a>
</g>
</g>
<!-- Node2&#45;&gt;Node4 -->
<g id="edge3" class="edge">
<title>Node2&#45;&gt;Node4</title>
<path fill="none" stroke="#63b8ff" d="M69.3,-200.72C209.56,-199.32 733.46,-191.42 893.5,-151 895.19,-150.57 896.89,-150.05 898.59,-149.47"/>
<polygon fill="#63b8ff" stroke="#63b8ff" points="900.12,-152.62 908.03,-145.57 897.45,-146.15 900.12,-152.62"/>
</g>
<!-- Node6&#45;&gt;Node3 -->
<g id="edge10" class="edge">
<title>Node6&#45;&gt;Node3</title>
<path fill="none" stroke="#63b8ff" d="M1962.03,-309.45C1991.37,-301.41 2039.86,-287.36 2080.5,-272 2099.67,-264.76 2102.85,-258.8 2122.5,-253 2268.84,-209.81 2701.94,-266.63 2801.5,-151 2812.73,-137.96 2804.23,-74.81 2794.5,-66 2778.07,-51.12 1386.28,-23.7 1052.74,-17.34"/>
<polygon fill="#63b8ff" stroke="#63b8ff" points="1052.32,-13.83 1042.25,-17.14 1052.19,-20.83 1052.32,-13.83"/>
</g>
<!-- Node6&#45;&gt;Node4 -->
<g id="edge16" class="edge">
<title>Node6&#45;&gt;Node4</title>
<path fill="none" stroke="#63b8ff" d="M1908.95,-316.38C1784.08,-315.61 1254.69,-310.13 1094.5,-272 1035.45,-257.95 1014.66,-257.55 969.5,-217 950.46,-199.9 937.27,-172.99 930.04,-155.17"/>
<polygon fill="#63b8ff" stroke="#63b8ff" points="933.24,-153.73 926.4,-145.65 926.7,-156.24 933.24,-153.73"/>
</g>
<!-- Node7 -->
<g id="node7" class="node">
<title>Node7</title>
<g id="a_node7"><a xlink:title=" ">
<polygon fill="#e0e0e0" stroke="#999999" points="2190,-272 2131,-272 2131,-253 2190,-253 2190,-272"/>
<text text-anchor="middle" x="2160.5" y="-260" font-family="Helvetica,sans-Serif" font-size="10.00">functional</text>
</a>
</g>
</g>
<!-- Node6&#45;&gt;Node7 -->
<g id="edge6" class="edge">
<title>Node6&#45;&gt;Node7</title>
<path fill="none" stroke="#63b8ff" d="M1962.19,-310.21C2001.59,-300.93 2075.54,-283.51 2121.15,-272.77"/>
<polygon fill="#63b8ff" stroke="#63b8ff" points="2122.06,-276.15 2130.99,-270.45 2120.46,-269.34 2122.06,-276.15"/>
</g>
<!-- Node8 -->
<g id="node8" class="node">
<title>Node8</title>
<g id="a_node8"><a xlink:title=" ">
<polygon fill="#e0e0e0" stroke="#999999" points="2008.5,-24.5 1948.5,-24.5 1948.5,-5.5 2008.5,-5.5 2008.5,-24.5"/>
<text text-anchor="middle" x="1978.5" y="-12.5" font-family="Helvetica,sans-Serif" font-size="10.00">EGL/egl.h</text>
</a>
</g>
</g>
<!-- Node6&#45;&gt;Node8 -->
<g id="edge7" class="edge">
<title>Node6&#45;&gt;Node8</title>
<path fill="none" stroke="#63b8ff" d="M1962.13,-316.1C2113.46,-313.47 2858.5,-295.83 2858.5,-203 2858.5,-203 2858.5,-203 2858.5,-135 2858.5,-102.53 2860.4,-85.58 2834.5,-66 2768.98,-16.48 2180.33,-15.18 2019.15,-15.76"/>
<polygon fill="#63b8ff" stroke="#63b8ff" points="2018.71,-12.27 2008.72,-15.81 2018.74,-19.27 2018.71,-12.27"/>
</g>
<!-- Node9 -->
<g id="node9" class="node">
<title>Node9</title>
<g id="a_node9"><a xlink:title=" ">
<polygon fill="#e0e0e0" stroke="#999999" points="2280.5,-272 2208.5,-272 2208.5,-253 2280.5,-253 2280.5,-272"/>
<text text-anchor="middle" x="2244.5" y="-260" font-family="Helvetica,sans-Serif" font-size="10.00">GLES2/gl2.h</text>
</a>
</g>
</g>
<!-- Node6&#45;&gt;Node9 -->
<g id="edge8" class="edge">
<title>Node6&#45;&gt;Node9</title>
<path fill="none" stroke="#63b8ff" d="M1962.14,-312.19C2008.12,-304.71 2105.62,-288.67 2198.08,-272.23"/>
<polygon fill="#63b8ff" stroke="#63b8ff" points="2198.93,-275.63 2208.16,-270.43 2197.7,-268.74 2198.93,-275.63"/>
</g>
<!-- Node10 -->
<g id="node10" class="node">
<title>Node10</title>
<g id="a_node10"><a xlink:title=" ">
<polygon fill="#e0e0e0" stroke="#999999" points="2424,-272 2299,-272 2299,-253 2424,-253 2424,-272"/>
<text text-anchor="middle" x="2361.5" y="-260" font-family="Helvetica,sans-Serif" font-size="10.00">flutter/encodable_value.h</text>
</a>
</g>
</g>
<!-- Node6&#45;&gt;Node10 -->
<g id="edge9" class="edge">
<title>Node6&#45;&gt;Node10</title>
<path fill="none" stroke="#63b8ff" d="M1962.15,-313.18C2026.54,-305.17 2192.37,-284.54 2288.89,-272.53"/>
<polygon fill="#63b8ff" stroke="#63b8ff" points="2289.37,-276 2298.86,-271.29 2288.51,-269.05 2289.37,-276"/>
</g>
<!-- Node11 -->
<g id="node11" class="node">
<title>Node11</title>
<g id="a_node11"><a xlink:title=" ">
<polygon fill="#e0e0e0" stroke="#999999" points="2504.5,-272 2442.5,-272 2442.5,-253 2504.5,-253 2504.5,-272"/>
<text text-anchor="middle" x="2473.5" y="-260" font-family="Helvetica,sans-Serif" font-size="10.00">filesystem</text>
</a>
</g>
</g>
<!-- Node6&#45;&gt;Node11 -->
<g id="edge11" class="edge">
<title>Node6&#45;&gt;Node11</title>
<path fill="none" stroke="#63b8ff" d="M1962.09,-315.25C2035.43,-311.57 2246.92,-299.35 2432.2,-272.02"/>
<polygon fill="#63b8ff" stroke="#63b8ff" points="2432.75,-275.48 2442.12,-270.54 2431.71,-268.56 2432.75,-275.48"/>
</g>
<!-- Node12 -->
<g id="node12" class="node">
<title>Node12</title>
<g id="a_node12"><a xlink:title=" ">
<polygon fill="#e0e0e0" stroke="#999999" points="1036,-145.5 1001,-145.5 1001,-126.5 1036,-126.5 1036,-145.5"/>
<text text-anchor="middle" x="1018.5" y="-133.5" font-family="Helvetica,sans-Serif" font-size="10.00">map</text>
</a>
</g>
</g>
<!-- Node6&#45;&gt;Node12 -->
<g id="edge12" class="edge">
<title>Node6&#45;&gt;Node12</title>
<path fill="none" stroke="#63b8ff" d="M1908.93,-312.54C1858.76,-305.02 1746.65,-287.97 1652.5,-272 1379.14,-225.62 1297.13,-255.96 1040.5,-151 1040.06,-150.82 1039.62,-150.63 1039.18,-150.43"/>
<polygon fill="#63b8ff" stroke="#63b8ff" points="1040.64,-147.24 1030.18,-145.52 1037.28,-153.38 1040.64,-147.24"/>
</g>
<!-- Node13 -->
<g id="node13" class="node">
<title>Node13</title>
<g id="a_node13"><a xlink:title=" ">
<polygon fill="#e0e0e0" stroke="#999999" points="884.5,-145.5 832.5,-145.5 832.5,-126.5 884.5,-126.5 884.5,-145.5"/>
<text text-anchor="middle" x="858.5" y="-133.5" font-family="Helvetica,sans-Serif" font-size="10.00">memory</text>
</a>
</g>
</g>
<!-- Node6&#45;&gt;Node13 -->
<g id="edge13" class="edge">
<title>Node6&#45;&gt;Node13</title>
<path fill="none" stroke="#63b8ff" d="M1908.6,-316.09C1766.49,-313.78 1106.32,-301.53 1020.5,-272 954.02,-249.13 896.12,-184.6 871.33,-153.79"/>
<polygon fill="#63b8ff" stroke="#63b8ff" points="873.92,-151.41 864.99,-145.72 868.42,-155.74 873.92,-151.41"/>
</g>
<!-- Node14 -->
<g id="node14" class="node">
<title>Node14</title>
<g id="a_node14"><a xlink:title=" ">
<polygon fill="#e0e0e0" stroke="#999999" points="2566.5,-272 2522.5,-272 2522.5,-253 2566.5,-253 2566.5,-272"/>
<text text-anchor="middle" x="2544.5" y="-260" font-family="Helvetica,sans-Serif" font-size="10.00">mutex</text>
</a>
</g>
</g>
<!-- Node6&#45;&gt;Node14 -->
<g id="edge14" class="edge">
<title>Node6&#45;&gt;Node14</title>
<path fill="none" stroke="#63b8ff" d="M1962.23,-316.25C2043.6,-315.1 2295.51,-308.76 2512.29,-271.87"/>
<polygon fill="#63b8ff" stroke="#63b8ff" points="2513.01,-275.29 2522.26,-270.14 2511.81,-268.4 2513.01,-275.29"/>
</g>
<!-- Node15 -->
<g id="node15" class="node">
<title>Node15</title>
<g id="a_node15"><a xlink:title=" ">
<polygon fill="#e0e0e0" stroke="#999999" points="2628,-272 2585,-272 2585,-253 2628,-253 2628,-272"/>
<text text-anchor="middle" x="2606.5" y="-260" font-family="Helvetica,sans-Serif" font-size="10.00">queue</text>
</a>
</g>
</g>
<!-- Node6&#45;&gt;Node15 -->
<g id="edge15" class="edge">
<title>Node6&#45;&gt;Node15</title>
<path fill="none" stroke="#63b8ff" d="M1962.24,-316.53C2049.29,-316.23 2332.36,-312.14 2574.88,-271.7"/>
<polygon fill="#63b8ff" stroke="#63b8ff" points="2575.67,-275.12 2584.94,-270 2574.5,-268.22 2575.67,-275.12"/>
</g>
<!-- Node16 -->
<g id="node16" class="node">
<title>Node16</title>
<g id="a_node16"><a xlink:title=" ">
<polygon fill="#e0e0e0" stroke="#999999" points="2541.5,-145.5 2497.5,-145.5 2497.5,-126.5 2541.5,-126.5 2541.5,-145.5"/>
<text text-anchor="middle" x="2519.5" y="-133.5" font-family="Helvetica,sans-Serif" font-size="10.00">vector</text>
</a>
</g>
</g>
<!-- Node6&#45;&gt;Node16 -->
<g id="edge17" class="edge">
<title>Node6&#45;&gt;Node16</title>
<path fill="none" stroke="#63b8ff" d="M1957.5,-307.84C1979.76,-299.02 2015.14,-284.84 2045.5,-272 2064.74,-263.86 2068.75,-259.83 2088.5,-253 2261.9,-193.05 2315.35,-211.65 2488.5,-151 2489.89,-150.51 2491.31,-149.99 2492.73,-149.43"/>
<polygon fill="#63b8ff" stroke="#63b8ff" points="2494.15,-152.64 2502.01,-145.54 2491.44,-146.18 2494.15,-152.64"/>
</g>
<!-- Node17 -->
<g id="node17" class="node">
<title>Node17</title>
<g id="a_node17"><a xlink:href="backend_8h.html" target="_top" xlink:title=" ">
<polygon fill="white" stroke="#666666" points="125,-145.5 24,-145.5 24,-126.5 125,-126.5 125,-145.5"/>
<text text-anchor="middle" x="74.5" y="-133.5" font-family="Helvetica,sans-Serif" font-size="10.00">backend/backend.h</text>
</a>
</g>
</g>
<!-- Node6&#45;&gt;Node17 -->
<g id="edge18" class="edge">
<title>Node6&#45;&gt;Node17</title>
<path fill="none" stroke="#63b8ff" d="M1908.82,-316.62C1690.66,-317.55 208.37,-322.29 130.5,-272 89.81,-245.72 73.92,-186.25 71.75,-155.77"/>
<polygon fill="#63b8ff" stroke="#63b8ff" points="75.25,-155.57 71.56,-145.64 68.25,-155.7 75.25,-155.57"/>
</g>
<!-- Node18 -->
<g id="node18" class="node">
<title>Node18</title>
<g id="a_node18"><a xlink:href="constants_8h.html" target="_top" xlink:title=" ">
<polygon fill="white" stroke="#666666" points="935.5,-85 867.5,-85 867.5,-66 935.5,-66 935.5,-85"/>
<text text-anchor="middle" x="901.5" y="-73" font-family="Helvetica,sans-Serif" font-size="10.00">constants.h</text>
</a>
</g>
</g>
<!-- Node6&#45;&gt;Node18 -->
<g id="edge25" class="edge">
<title>Node6&#45;&gt;Node18</title>
<path fill="none" stroke="#63b8ff" d="M1908.77,-316.17C1696.67,-313.29 290.94,-289 172.5,-151 163.82,-140.88 163.36,-130.71 172.5,-121 196.04,-95.98 702.4,-81.42 857.05,-77.55"/>
<polygon fill="#63b8ff" stroke="#63b8ff" points="857.23,-81.05 867.14,-77.3 857.05,-74.05 857.23,-81.05"/>
</g>
<!-- Node20 -->
<g id="node20" class="node">
<title>Node20</title>
<g id="a_node20"><a xlink:href="logging_8h.html" target="_top" xlink:title=" ">
<polygon fill="white" stroke="#666666" points="2036.5,-272 1980.5,-272 1980.5,-253 2036.5,-253 2036.5,-272"/>
<text text-anchor="middle" x="2008.5" y="-260" font-family="Helvetica,sans-Serif" font-size="10.00">logging.h</text>
</a>
</g>
</g>
<!-- Node6&#45;&gt;Node20 -->
<g id="edge26" class="edge">
<title>Node6&#45;&gt;Node20</title>
<path fill="none" stroke="#63b8ff" d="M1947.23,-307.98C1958.23,-300 1974.92,-287.88 1988.1,-278.31"/>
<polygon fill="#63b8ff" stroke="#63b8ff" points="1990.52,-280.88 1996.56,-272.17 1986.41,-275.21 1990.52,-280.88"/>
</g>
<!-- Node26 -->
<g id="node26" class="node">
<title>Node26</title>
<g id="a_node26"><a xlink:href="platform__channel_8h.html" target="_top" xlink:title=" ">
<polygon fill="white" stroke="#666666" points="1078,-211.5 979,-211.5 979,-192.5 1078,-192.5 1078,-211.5"/>
<text text-anchor="middle" x="1028.5" y="-199.5" font-family="Helvetica,sans-Serif" font-size="10.00">platform_channel.h</text>
</a>
</g>
</g>
<!-- Node6&#45;&gt;Node26 -->
<g id="edge33" class="edge">
<title>Node6&#45;&gt;Node26</title>
<path fill="none" stroke="#63b8ff" d="M1908.89,-316.84C1787.28,-318.1 1284,-320.25 1135.5,-272 1100.52,-260.64 1065.81,-234.9 1045.8,-218.27"/>
<polygon fill="#63b8ff" stroke="#63b8ff" points="1047.81,-215.38 1037.93,-211.56 1043.27,-220.71 1047.81,-215.38"/>
</g>
<!-- Node27 -->
<g id="node27" class="node">
<title>Node27</title>
<g id="a_node27"><a xlink:href="key__event_8h.html" target="_top" xlink:title=" ">
<polygon fill="white" stroke="#666666" points="1461.5,-217 1359.5,-217 1359.5,-187 1461.5,-187 1461.5,-217"/>
<text text-anchor="start" x="1367.5" y="-205" font-family="Helvetica,sans-Serif" font-size="10.00">static_plugins/key</text>
<text text-anchor="middle" x="1410.5" y="-194" font-family="Helvetica,sans-Serif" font-size="10.00">_event/key_event.h</text>
</a>
</g>
</g>
<!-- Node6&#45;&gt;Node27 -->
<g id="edge37" class="edge">
<title>Node6&#45;&gt;Node27</title>
<path fill="none" stroke="#63b8ff" d="M1908.74,-310.72C1828.12,-293.28 1586.04,-240.95 1471.65,-216.22"/>
<polygon fill="#63b8ff" stroke="#63b8ff" points="1472.16,-212.75 1461.65,-214.06 1470.68,-219.59 1472.16,-212.75"/>
</g>
<!-- Node33 -->
<g id="node33" class="node">
<title>Node33</title>
<g id="a_node33"><a xlink:href="text__input_8h.html" target="_top" xlink:title=" ">
<polygon fill="white" stroke="#666666" points="1797,-217 1700,-217 1700,-187 1797,-187 1797,-217"/>
<text text-anchor="start" x="1708" y="-205" font-family="Helvetica,sans-Serif" font-size="10.00">static_plugins/text</text>
<text text-anchor="middle" x="1748.5" y="-194" font-family="Helvetica,sans-Serif" font-size="10.00">_input/text_input.h</text>
</a>
</g>
</g>
<!-- Node6&#45;&gt;Node33 -->
<g id="edge49" class="edge">
<title>Node6&#45;&gt;Node33</title>
<path fill="none" stroke="#63b8ff" d="M1921.44,-307.97C1891.69,-289.91 1821.7,-247.43 1780.45,-222.39"/>
<polygon fill="#63b8ff" stroke="#63b8ff" points="1782.23,-219.38 1771.86,-217.18 1778.6,-225.36 1782.23,-219.38"/>
</g>
<!-- Node37 -->
<g id="node37" class="node">
<title>Node37</title>
<g id="a_node37"><a xlink:href="flutter__view_8h.html" target="_top" xlink:title=" ">
<polygon fill="white" stroke="#666666" points="1242.5,-272 1144.5,-272 1144.5,-253 1242.5,-253 1242.5,-272"/>
<text text-anchor="middle" x="1193.5" y="-260" font-family="Helvetica,sans-Serif" font-size="10.00">view/flutter_view.h</text>
</a>
</g>
</g>
<!-- Node6&#45;&gt;Node37 -->
<g id="edge63" class="edge">
<title>Node6&#45;&gt;Node37</title>
<path fill="none" stroke="#63b8ff" d="M1908.75,-314.75C1821.07,-308.98 1534.43,-289.94 1297.5,-272 1283.11,-270.91 1267.6,-269.68 1253.07,-268.49"/>
<polygon fill="#63b8ff" stroke="#63b8ff" points="1252.94,-264.97 1242.69,-267.64 1252.37,-271.95 1252.94,-264.97"/>
</g>
<!-- Node17&#45;&gt;Node3 -->
<g id="edge19" class="edge">
<title>Node17&#45;&gt;Node3</title>
<path fill="none" stroke="#63b8ff" d="M111.17,-126.47C120.38,-124.5 130.28,-122.53 139.5,-121 477.06,-64.88 568.55,-83.77 910.9,-30.01"/>
<polygon fill="#63b8ff" stroke="#63b8ff" points="911.52,-33.46 920.85,-28.44 910.42,-26.54 911.52,-33.46"/>
</g>
<!-- Node17&#45;&gt;Node6 -->
<g id="edge24" class="edge">
<title>Node17&#45;&gt;Node6</title>
<path fill="none" stroke="#63b8ff" d="M79.63,-145.64C88.27,-170.51 102.61,-242.36 148.5,-272 224.78,-321.26 1648.92,-317.72 1898.4,-316.68"/>
<polygon fill="#63b8ff" stroke="#63b8ff" points="1898.75,-320.18 1908.73,-316.64 1898.72,-313.18 1898.75,-320.18"/>
</g>
<!-- Node17&#45;&gt;Node18 -->
<g id="edge20" class="edge">
<title>Node17&#45;&gt;Node18</title>
<path fill="none" stroke="#63b8ff" d="M109.41,-126.45C119.1,-124.36 129.66,-122.34 139.5,-121 410.35,-84.15 739.45,-77.79 857.08,-76.71"/>
<polygon fill="#63b8ff" stroke="#63b8ff" points="857.17,-80.21 867.14,-76.63 857.11,-73.21 857.17,-80.21"/>
</g>
<!-- Node18&#45;&gt;Node3 -->
<g id="edge22" class="edge">
<title>Node18&#45;&gt;Node3</title>
<path fill="none" stroke="#63b8ff" d="M913.3,-65.87C923.96,-58.08 940.04,-46.32 953.91,-36.17"/>
<polygon fill="#63b8ff" stroke="#63b8ff" points="956.19,-38.84 962.2,-30.11 952.06,-33.19 956.19,-38.84"/>
</g>
<!-- Node18&#45;&gt;Node8 -->
<g id="edge21" class="edge">
<title>Node18&#45;&gt;Node8</title>
<path fill="none" stroke="#63b8ff" d="M935.51,-72.65C1094.78,-64 1766.31,-27.53 1938.26,-18.19"/>
<polygon fill="#63b8ff" stroke="#63b8ff" points="1938.6,-21.67 1948.39,-17.64 1938.22,-14.68 1938.6,-21.67"/>
</g>
<!-- Node19 -->
<g id="node19" class="node">
<title>Node19</title>
<g id="a_node19"><a xlink:title=" ">
<polygon fill="#e0e0e0" stroke="#999999" points="902.5,-24.5 864.5,-24.5 864.5,-5.5 902.5,-5.5 902.5,-24.5"/>
<text text-anchor="middle" x="883.5" y="-12.5" font-family="Helvetica,sans-Serif" font-size="10.00">array</text>
</a>
</g>
</g>
<!-- Node18&#45;&gt;Node19 -->
<g id="edge23" class="edge">
<title>Node18&#45;&gt;Node19</title>
<path fill="none" stroke="#63b8ff" d="M898.84,-65.87C896.32,-57.66 892.44,-45.04 889.21,-34.55"/>
<polygon fill="#63b8ff" stroke="#63b8ff" points="892.45,-33.2 886.17,-24.67 885.76,-35.25 892.45,-33.2"/>
</g>
<!-- Node21 -->
<g id="node21" class="node">
<title>Node21</title>
<g id="a_node21"><a xlink:title=" ">
<polygon fill="#e0e0e0" stroke="#999999" points="2168.5,-211.5 2116.5,-211.5 2116.5,-192.5 2168.5,-192.5 2168.5,-211.5"/>
<text text-anchor="middle" x="2142.5" y="-199.5" font-family="Helvetica,sans-Serif" font-size="10.00">sstream</text>
</a>
</g>
</g>
<!-- Node20&#45;&gt;Node21 -->
<g id="edge27" class="edge">
<title>Node20&#45;&gt;Node21</title>
<path fill="none" stroke="#63b8ff" d="M2027.98,-252.99C2050.51,-243.16 2087.81,-226.88 2113.69,-215.58"/>
<polygon fill="#63b8ff" stroke="#63b8ff" points="2115.23,-218.73 2122.99,-211.52 2112.43,-212.31 2115.23,-218.73"/>
</g>
<!-- Node22 -->
<g id="node22" class="node">
<title>Node22</title>
<g id="a_node22"><a xlink:href="dlt_8h.html" target="_top" xlink:title=" ">
<polygon fill="white" stroke="#666666" points="2098,-211.5 2049,-211.5 2049,-192.5 2098,-192.5 2098,-211.5"/>
<text text-anchor="middle" x="2073.5" y="-199.5" font-family="Helvetica,sans-Serif" font-size="10.00">dlt/dlt.h</text>
</a>
</g>
</g>
<!-- Node20&#45;&gt;Node22 -->
<g id="edge28" class="edge">
<title>Node20&#45;&gt;Node22</title>
<path fill="none" stroke="#63b8ff" d="M2018.09,-252.87C2028.08,-243.88 2043.93,-229.61 2056.13,-218.64"/>
<polygon fill="#63b8ff" stroke="#63b8ff" points="2058.78,-220.96 2063.87,-211.67 2054.1,-215.76 2058.78,-220.96"/>
</g>
<!-- Node25 -->
<g id="node25" class="node">
<title>Node25</title>
<g id="a_node25"><a xlink:title=" ">
<polygon fill="#e0e0e0" stroke="#999999" points="2479,-145.5 2378,-145.5 2378,-126.5 2479,-126.5 2479,-145.5"/>
<text text-anchor="middle" x="2428.5" y="-133.5" font-family="Helvetica,sans-Serif" font-size="10.00">flutter/fml/macros.h</text>
</a>
</g>
</g>
<!-- Node20&#45;&gt;Node25 -->
<g id="edge32" class="edge">
<title>Node20&#45;&gt;Node25</title>
<path fill="none" stroke="#63b8ff" d="M2009.43,-252.87C2011.64,-236.95 2018.78,-203.08 2040.5,-187 2099.44,-143.37 2296.22,-163.35 2368.5,-151 2373.9,-150.08 2379.55,-148.96 2385.12,-147.77"/>
<polygon fill="#63b8ff" stroke="#63b8ff" points="2386.01,-151.16 2395.01,-145.56 2384.48,-144.33 2386.01,-151.16"/>
</g>
<!-- Node23 -->
<g id="node23" class="node">
<title>Node23</title>
<g id="a_node23"><a xlink:href="libdlt_8h.html" target="_top" xlink:title=" ">
<polygon fill="white" stroke="#666666" points="2792,-145.5 2733,-145.5 2733,-126.5 2792,-126.5 2792,-145.5"/>
<text text-anchor="middle" x="2762.5" y="-133.5" font-family="Helvetica,sans-Serif" font-size="10.00">dlt/libdlt.h</text>
</a>
</g>
</g>
<!-- Node22&#45;&gt;Node23 -->
<g id="edge29" class="edge">
<title>Node22&#45;&gt;Node23</title>
<path fill="none" stroke="#63b8ff" d="M2091.13,-192.44C2096.29,-190.3 2102.02,-188.25 2107.5,-187 2375.3,-125.86 2455.6,-207.09 2724.5,-151 2727.34,-150.41 2730.25,-149.64 2733.14,-148.78"/>
<polygon fill="#63b8ff" stroke="#63b8ff" points="2734.36,-152.06 2742.71,-145.54 2732.11,-145.43 2734.36,-152.06"/>
</g>
<!-- Node22&#45;&gt;Node25 -->
<g id="edge31" class="edge">
<title>Node22&#45;&gt;Node25</title>
<path fill="none" stroke="#63b8ff" d="M2091.91,-192.43C2096.88,-190.39 2102.32,-188.4 2107.5,-187 2220.55,-156.46 2253.36,-172.33 2368.5,-151 2373.63,-150.05 2378.98,-148.95 2384.28,-147.8"/>
<polygon fill="#63b8ff" stroke="#63b8ff" points="2385.36,-151.15 2394.35,-145.54 2383.82,-144.32 2385.36,-151.15"/>
</g>
<!-- Node24 -->
<g id="node24" class="node">
<title>Node24</title>
<g id="a_node24"><a xlink:title=" ">
<polygon fill="#e0e0e0" stroke="#999999" points="2785.5,-85 2739.5,-85 2739.5,-66 2785.5,-66 2785.5,-85"/>
<text text-anchor="middle" x="2762.5" y="-73" font-family="Helvetica,sans-Serif" font-size="10.00">cstdint</text>
</a>
</g>
</g>
<!-- Node23&#45;&gt;Node24 -->
<g id="edge30" class="edge">
<title>Node23&#45;&gt;Node24</title>
<path fill="none" stroke="#63b8ff" d="M2762.5,-126.37C2762.5,-118.25 2762.5,-105.81 2762.5,-95.39"/>
<polygon fill="#63b8ff" stroke="#63b8ff" points="2766,-95.17 2762.5,-85.17 2759,-95.17 2766,-95.17"/>
</g>
<!-- Node26&#45;&gt;Node3 -->
<g id="edge36" class="edge">
<title>Node26&#45;&gt;Node3</title>
<path fill="none" stroke="#63b8ff" d="M1019.66,-192.36C1010.79,-183.07 997.59,-167.4 991.5,-151 977.85,-114.24 977.75,-68.05 979.33,-40.34"/>
<polygon fill="#63b8ff" stroke="#63b8ff" points="982.82,-40.56 980.02,-30.34 975.84,-40.08 982.82,-40.56"/>
</g>
<!-- Node26&#45;&gt;Node4 -->
<g id="edge35" class="edge">
<title>Node26&#45;&gt;Node4</title>
<path fill="none" stroke="#63b8ff" d="M1014.34,-192.37C996.96,-181.78 967.26,-163.67 946.57,-151.06"/>
<polygon fill="#63b8ff" stroke="#63b8ff" points="948.13,-147.92 937.77,-145.7 944.49,-153.89 948.13,-147.92"/>
</g>
<!-- Node26&#45;&gt;Node12 -->
<g id="edge34" class="edge">
<title>Node26&#45;&gt;Node12</title>
<path fill="none" stroke="#63b8ff" d="M1027.15,-192.37C1025.7,-183.07 1023.34,-167.98 1021.45,-155.9"/>
<polygon fill="#63b8ff" stroke="#63b8ff" points="1024.89,-155.25 1019.89,-145.91 1017.98,-156.33 1024.89,-155.25"/>
</g>
<!-- Node27&#45;&gt;Node3 -->
<g id="edge46" class="edge">
<title>Node27&#45;&gt;Node3</title>
<path fill="none" stroke="#63b8ff" d="M1412.27,-186.86C1413.65,-169.13 1413.09,-138.88 1396.5,-121 1350.22,-71.13 1157.86,-38.89 1052.04,-24.56"/>
<polygon fill="#63b8ff" stroke="#63b8ff" points="1052.46,-21.09 1042.08,-23.23 1051.53,-28.03 1052.46,-21.09"/>
</g>
<!-- Node27&#45;&gt;Node4 -->
<g id="edge40" class="edge">
<title>Node27&#45;&gt;Node4</title>
<path fill="none" stroke="#63b8ff" d="M1359.35,-196.3C1280.22,-188.71 1123.47,-172.42 991.5,-151 979.29,-149.02 965.95,-146.38 954.34,-143.92"/>
<polygon fill="#63b8ff" stroke="#63b8ff" points="954.76,-140.43 944.25,-141.75 953.29,-147.28 954.76,-140.43"/>
</g>
<!-- Node27&#45;&gt;Node12 -->
<g id="edge38" class="edge">
<title>Node27&#45;&gt;Node12</title>
<path fill="none" stroke="#63b8ff" d="M1359.3,-192.29C1348.17,-190.47 1336.45,-188.62 1325.5,-187 1203.56,-168.98 1169.26,-184.03 1050.5,-151 1048.81,-150.53 1047.1,-149.99 1045.39,-149.4"/>
<polygon fill="#63b8ff" stroke="#63b8ff" points="1046.37,-146.02 1035.78,-145.62 1043.8,-152.54 1046.37,-146.02"/>
</g>
<!-- Node27&#45;&gt;Node13 -->
<g id="edge39" class="edge">
<title>Node27&#45;&gt;Node13</title>
<path fill="none" stroke="#63b8ff" d="M1359.44,-200.83C1265.74,-199.47 1060.64,-191.63 893.5,-151 891.19,-150.44 888.84,-149.76 886.49,-149"/>
<polygon fill="#63b8ff" stroke="#63b8ff" points="887.66,-145.7 877.07,-145.56 885.27,-152.28 887.66,-145.7"/>
</g>
<!-- Node27&#45;&gt;Node18 -->
<g id="edge48" class="edge">
<title>Node27&#45;&gt;Node18</title>
<path fill="none" stroke="#63b8ff" d="M1359.28,-192.43C1348.15,-190.61 1336.43,-188.71 1325.5,-187 1218.07,-170.16 1183.58,-193.51 1083.5,-151 1063.37,-142.45 1063.91,-131.07 1044.5,-121 1013.12,-104.72 974.73,-93.18 945.64,-85.94"/>
<polygon fill="#63b8ff" stroke="#63b8ff" points="946.3,-82.49 935.76,-83.55 944.66,-89.3 946.3,-82.49"/>
</g>
<!-- Node27&#45;&gt;Node25 -->
<g id="edge44" class="edge">
<title>Node27&#45;&gt;Node25</title>
<path fill="none" stroke="#63b8ff" d="M1461.66,-198.45C1656.97,-188.71 2345.86,-154.21 2368.5,-151 2374.4,-150.16 2380.58,-149.03 2386.63,-147.76"/>
<polygon fill="#63b8ff" stroke="#63b8ff" points="2387.62,-151.13 2396.63,-145.54 2386.1,-144.3 2387.62,-151.13"/>
</g>
<!-- Node28 -->
<g id="node28" class="node">
<title>Node28</title>
<g id="a_node28"><a xlink:title=" ">
<polygon fill="#e0e0e0" stroke="#999999" points="1387,-151 1274,-151 1274,-121 1387,-121 1387,-151"/>
<text text-anchor="start" x="1282" y="-139" font-family="Helvetica,sans-Serif" font-size="10.00">flutter/basic_message</text>
<text text-anchor="middle" x="1330.5" y="-128" font-family="Helvetica,sans-Serif" font-size="10.00">_channel.h</text>
</a>
</g>
</g>
<!-- Node27&#45;&gt;Node28 -->
<g id="edge41" class="edge">
<title>Node27&#45;&gt;Node28</title>
<path fill="none" stroke="#63b8ff" d="M1392.75,-186.8C1381.97,-178.18 1368.05,-167.04 1356.1,-157.48"/>
<polygon fill="#63b8ff" stroke="#63b8ff" points="1358.2,-154.68 1348.2,-151.16 1353.83,-160.14 1358.2,-154.68"/>
</g>
<!-- Node29 -->
<g id="node29" class="node">
<title>Node29</title>
<g id="a_node29"><a xlink:title=" ">
<polygon fill="#e0e0e0" stroke="#999999" points="1727.5,-145.5 1595.5,-145.5 1595.5,-126.5 1727.5,-126.5 1727.5,-145.5"/>
<text text-anchor="middle" x="1661.5" y="-133.5" font-family="Helvetica,sans-Serif" font-size="10.00">flutter/binary_messenger.h</text>
</a>
</g>
</g>
<!-- Node27&#45;&gt;Node29 -->
<g id="edge42" class="edge">
<title>Node27&#45;&gt;Node29</title>
<path fill="none" stroke="#63b8ff" d="M1461.6,-187.97C1507.74,-176.21 1574.89,-159.08 1618.38,-147.99"/>
<polygon fill="#63b8ff" stroke="#63b8ff" points="1619.27,-151.38 1628.09,-145.52 1617.54,-144.6 1619.27,-151.38"/>
</g>
<!-- Node30 -->
<g id="node30" class="node">
<title>Node30</title>
<g id="a_node30"><a xlink:title=" ">
<polygon fill="#e0e0e0" stroke="#999999" points="1256,-151 1093,-151 1093,-121 1256,-121 1256,-151"/>
<text text-anchor="start" x="1101" y="-139" font-family="Helvetica,sans-Serif" font-size="10.00">flutter/shell/platform</text>
<text text-anchor="middle" x="1174.5" y="-128" font-family="Helvetica,sans-Serif" font-size="10.00">/common/json_message_codec.h</text>
</a>
</g>
</g>
<!-- Node27&#45;&gt;Node30 -->
<g id="edge43" class="edge">
<title>Node27&#45;&gt;Node30</title>
<path fill="none" stroke="#63b8ff" d="M1359.29,-187.11C1323.2,-177.33 1274.69,-164.17 1236.42,-153.79"/>
<polygon fill="#63b8ff" stroke="#63b8ff" points="1236.99,-150.32 1226.42,-151.08 1235.16,-157.08 1236.99,-150.32"/>
</g>
<!-- Node31 -->
<g id="node31" class="node">
<title>Node31</title>
<g id="a_node31"><a xlink:title=" ">
<polygon fill="#e0e0e0" stroke="#999999" points="1931.5,-145.5 1821.5,-145.5 1821.5,-126.5 1931.5,-126.5 1931.5,-145.5"/>
<text text-anchor="middle" x="1876.5" y="-133.5" font-family="Helvetica,sans-Serif" font-size="10.00">rapidjson/document.h</text>
</a>
</g>
</g>
<!-- Node27&#45;&gt;Node31 -->
<g id="edge45" class="edge">
<title>Node27&#45;&gt;Node31</title>
<path fill="none" stroke="#63b8ff" d="M1461.7,-193.97C1546.91,-182.27 1717.66,-158.81 1811.33,-145.95"/>
<polygon fill="#63b8ff" stroke="#63b8ff" points="1811.82,-149.42 1821.25,-144.59 1810.87,-142.48 1811.82,-149.42"/>
</g>
<!-- Node32 -->
<g id="node32" class="node">
<title>Node32</title>
<g id="a_node32"><a xlink:title=" ">
<polygon fill="#e0e0e0" stroke="#999999" points="1577.5,-145.5 1443.5,-145.5 1443.5,-126.5 1577.5,-126.5 1577.5,-145.5"/>
<text text-anchor="middle" x="1510.5" y="-133.5" font-family="Helvetica,sans-Serif" font-size="10.00">xkbcommon/xkbcommon.h</text>
</a>
</g>
</g>
<!-- Node27&#45;&gt;Node32 -->
<g id="edge47" class="edge">
<title>Node27&#45;&gt;Node32</title>
<path fill="none" stroke="#63b8ff" d="M1432.69,-186.8C1449.3,-176.17 1471.9,-161.7 1488.47,-151.1"/>
<polygon fill="#63b8ff" stroke="#63b8ff" points="1490.44,-154 1496.97,-145.66 1486.66,-148.1 1490.44,-154"/>
</g>
<!-- Node33&#45;&gt;Node3 -->
<g id="edge60" class="edge">
<title>Node33&#45;&gt;Node3</title>
<path fill="none" stroke="#63b8ff" d="M1755.74,-186.97C1763.71,-169.34 1773.41,-139.21 1757.5,-121 1711.33,-68.16 1234.85,-32.25 1052.21,-20.34"/>
<polygon fill="#63b8ff" stroke="#63b8ff" points="1052.38,-16.84 1042.18,-19.69 1051.93,-23.82 1052.38,-16.84"/>
</g>
<!-- Node33&#45;&gt;Node4 -->
<g id="edge52" class="edge">
<title>Node33&#45;&gt;Node4</title>
<path fill="none" stroke="#63b8ff" d="M1699.83,-198.66C1555.18,-191.57 1129.36,-169.66 991.5,-151 979.25,-149.34 965.89,-146.76 954.29,-144.27"/>
<polygon fill="#63b8ff" stroke="#63b8ff" points="954.73,-140.78 944.21,-142.03 953.21,-147.62 954.73,-140.78"/>
</g>
<!-- Node33&#45;&gt;Node5 -->
<g id="edge57" class="edge">
<title>Node33&#45;&gt;Node5</title>
<path fill="none" stroke="#63b8ff" d="M1797.11,-188.56C1800.27,-187.97 1803.42,-187.44 1806.5,-187 2130.83,-140.43 2219.42,-184.43 2549.43,-151.01"/>
<polygon fill="#63b8ff" stroke="#63b8ff" points="2550.18,-154.45 2559.77,-149.95 2549.46,-147.49 2550.18,-154.45"/>
</g>
<!-- Node33&#45;&gt;Node12 -->
<g id="edge50" class="edge">
<title>Node33&#45;&gt;Node12</title>
<path fill="none" stroke="#63b8ff" d="M1699.7,-198.2C1567.19,-190.47 1202.67,-168.23 1083.5,-151 1071.08,-149.2 1057.49,-146.41 1045.95,-143.79"/>
<polygon fill="#63b8ff" stroke="#63b8ff" points="1046.57,-140.34 1036.04,-141.46 1044.97,-147.15 1046.57,-140.34"/>
</g>
<!-- Node33&#45;&gt;Node13 -->
<g id="edge51" class="edge">
<title>Node33&#45;&gt;Node13</title>
<path fill="none" stroke="#63b8ff" d="M1699.89,-198.59C1524.57,-189.84 933.02,-159.82 893.5,-151 891.13,-150.47 888.71,-149.8 886.3,-149.04"/>
<polygon fill="#63b8ff" stroke="#63b8ff" points="887.27,-145.67 876.67,-145.55 884.88,-152.25 887.27,-145.67"/>
</g>
<!-- Node33&#45;&gt;Node18 -->
<g id="edge62" class="edge">
<title>Node33&#45;&gt;Node18</title>
<path fill="none" stroke="#63b8ff" d="M1751.16,-186.69C1753.63,-168.49 1754.59,-137.43 1736.5,-121 1707.02,-94.21 1114.07,-80.64 945.72,-77.32"/>
<polygon fill="#63b8ff" stroke="#63b8ff" points="945.78,-73.82 935.71,-77.13 945.64,-80.82 945.78,-73.82"/>
</g>
<!-- Node33&#45;&gt;Node25 -->
<g id="edge56" class="edge">
<title>Node33&#45;&gt;Node25</title>
<path fill="none" stroke="#63b8ff" d="M1797.11,-188.62C1800.28,-188.01 1803.43,-187.47 1806.5,-187 2053.96,-149.5 2120.9,-187.56 2368.5,-151 2374.33,-150.14 2380.43,-149 2386.41,-147.74"/>
<polygon fill="#63b8ff" stroke="#63b8ff" points="2387.3,-151.13 2396.3,-145.54 2385.78,-144.3 2387.3,-151.13"/>
</g>
<!-- Node33&#45;&gt;Node29 -->
<g id="edge53" class="edge">
<title>Node33&#45;&gt;Node29</title>
<path fill="none" stroke="#63b8ff" d="M1729.19,-186.8C1715.01,-176.37 1695.81,-162.24 1681.48,-151.69"/>
<polygon fill="#63b8ff" stroke="#63b8ff" points="1683.4,-148.76 1673.27,-145.66 1679.25,-154.4 1683.4,-148.76"/>
</g>
<!-- Node33&#45;&gt;Node31 -->
<g id="edge59" class="edge">
<title>Node33&#45;&gt;Node31</title>
<path fill="none" stroke="#63b8ff" d="M1776.59,-186.95C1798.54,-175.98 1828.83,-160.83 1850.29,-150.11"/>
<polygon fill="#63b8ff" stroke="#63b8ff" points="1852.09,-153.12 1859.47,-145.52 1848.96,-146.86 1852.09,-153.12"/>
</g>
<!-- Node33&#45;&gt;Node32 -->
<g id="edge61" class="edge">
<title>Node33&#45;&gt;Node32</title>
<path fill="none" stroke="#63b8ff" d="M1699.76,-187.89C1656.29,-176.2 1593.33,-159.27 1552.16,-148.2"/>
<polygon fill="#63b8ff" stroke="#63b8ff" points="1553.01,-144.81 1542.45,-145.59 1551.19,-151.57 1553.01,-144.81"/>
</g>
<!-- Node34 -->
<g id="node34" class="node">
<title>Node34</title>
<g id="a_node34"><a xlink:title=" ">
<polygon fill="#e0e0e0" stroke="#999999" points="2235.5,-145.5 2111.5,-145.5 2111.5,-126.5 2235.5,-126.5 2235.5,-145.5"/>
<text text-anchor="middle" x="2173.5" y="-133.5" font-family="Helvetica,sans-Serif" font-size="10.00">flutter/method_channel.h</text>
</a>
</g>
</g>
<!-- Node33&#45;&gt;Node34 -->
<g id="edge54" class="edge">
<title>Node33&#45;&gt;Node34</title>
<path fill="none" stroke="#63b8ff" d="M1797.15,-188.82C1800.3,-188.17 1803.44,-187.55 1806.5,-187 1936.91,-163.41 1971.62,-171.83 2102.5,-151 2109.17,-149.94 2116.17,-148.71 2123.06,-147.42"/>
<polygon fill="#63b8ff" stroke="#63b8ff" points="2123.88,-150.83 2133.04,-145.51 2122.56,-143.95 2123.88,-150.83"/>
</g>
<!-- Node35 -->
<g id="node35" class="node">
<title>Node35</title>
<g id="a_node35"><a xlink:title=" ">
<polygon fill="#e0e0e0" stroke="#999999" points="2359.5,-151 2253.5,-151 2253.5,-121 2359.5,-121 2359.5,-151"/>
<text text-anchor="start" x="2261.5" y="-139" font-family="Helvetica,sans-Serif" font-size="10.00">flutter/method_result</text>
<text text-anchor="middle" x="2306.5" y="-128" font-family="Helvetica,sans-Serif" font-size="10.00">_functions.h</text>
</a>
</g>
</g>
<!-- Node33&#45;&gt;Node35 -->
<g id="edge55" class="edge">
<title>Node33&#45;&gt;Node35</title>
<path fill="none" stroke="#63b8ff" d="M1797.12,-188.69C1800.29,-188.06 1803.43,-187.49 1806.5,-187 1996.14,-156.51 2049.66,-179.78 2243.55,-150.99"/>
<polygon fill="#63b8ff" stroke="#63b8ff" points="2244.13,-154.44 2253.49,-149.48 2243.08,-147.52 2244.13,-154.44"/>
</g>
<!-- Node36 -->
<g id="node36" class="node">
<title>Node36</title>
<g id="a_node36"><a xlink:title=" ">
<polygon fill="#e0e0e0" stroke="#999999" points="2093,-151 1950,-151 1950,-121 2093,-121 2093,-151"/>
<text text-anchor="start" x="1958" y="-139" font-family="Helvetica,sans-Serif" font-size="10.00">flutter/shell/platform</text>
<text text-anchor="middle" x="2021.5" y="-128" font-family="Helvetica,sans-Serif" font-size="10.00">/common/text_input_model.h</text>
</a>
</g>
</g>
<!-- Node33&#45;&gt;Node36 -->
<g id="edge58" class="edge">
<title>Node33&#45;&gt;Node36</title>
<path fill="none" stroke="#63b8ff" d="M1797.23,-189.21C1800.36,-188.46 1803.48,-187.72 1806.5,-187 1854.49,-175.63 1908.56,-163.06 1950.47,-153.36"/>
<polygon fill="#63b8ff" stroke="#63b8ff" points="1951.35,-156.75 1960.3,-151.09 1949.77,-149.93 1951.35,-156.75"/>
</g>
<!-- Node37&#45;&gt;Node12 -->
<g id="edge64" class="edge">
<title>Node37&#45;&gt;Node12</title>
<path fill="none" stroke="#63b8ff" d="M1181.47,-252.94C1152,-231.98 1075.91,-177.84 1039.08,-151.64"/>
<polygon fill="#63b8ff" stroke="#63b8ff" points="1040.79,-148.56 1030.61,-145.62 1036.73,-154.27 1040.79,-148.56"/>
</g>
<!-- Node37&#45;&gt;Node13 -->
<g id="edge65" class="edge">
<title>Node37&#45;&gt;Node13</title>
<path fill="none" stroke="#63b8ff" d="M1144.08,-257.78C1097.44,-252.87 1026.4,-241.75 969.5,-217 932.36,-200.84 895.45,-170.72 874.94,-152.4"/>
<polygon fill="#63b8ff" stroke="#63b8ff" points="877.19,-149.72 867.44,-145.57 872.48,-154.89 877.19,-149.72"/>
</g>
<!-- Node37&#45;&gt;Node25 -->
<g id="edge71" class="edge">
<title>Node37&#45;&gt;Node25</title>
<path fill="none" stroke="#63b8ff" d="M1242.67,-261.66C1390.31,-261.68 1827.92,-258.16 1963.5,-217 1988.66,-209.36 1989.51,-195.19 2014.5,-187 2164.79,-137.77 2212.51,-177.02 2368.5,-151 2373.97,-150.09 2379.69,-148.97 2385.33,-147.77"/>
<polygon fill="#63b8ff" stroke="#63b8ff" points="2386.33,-151.13 2395.33,-145.54 2384.81,-144.3 2386.33,-151.13"/>
</g>
<!-- Node38 -->
<g id="node38" class="node">
<title>Node38</title>
<g id="a_node38"><a xlink:href="configuration_8h.html" target="_top" xlink:title=" ">
<polygon fill="white" stroke="#666666" points="1954,-211.5 1815,-211.5 1815,-192.5 1954,-192.5 1954,-211.5"/>
<text text-anchor="middle" x="1884.5" y="-199.5" font-family="Helvetica,sans-Serif" font-size="10.00">configuration/configuration.h</text>
</a>
</g>
</g>
<!-- Node37&#45;&gt;Node38 -->
<g id="edge66" class="edge">
<title>Node37&#45;&gt;Node38</title>
<path fill="none" stroke="#63b8ff" d="M1242.54,-259.69C1346.72,-255.47 1597.67,-243.25 1806.5,-217 1814.65,-215.98 1823.25,-214.67 1831.63,-213.26"/>
<polygon fill="#63b8ff" stroke="#63b8ff" points="1832.46,-216.67 1841.71,-211.52 1831.26,-209.77 1832.46,-216.67"/>
</g>
<!-- Node39 -->
<g id="node39" class="node">
<title>Node39</title>
<g id="a_node39"><a xlink:href="window_8h.html" target="_top" xlink:title=" ">
<polygon fill="white" stroke="#666666" points="707.5,-211.5 611.5,-211.5 611.5,-192.5 707.5,-192.5 707.5,-211.5"/>
<text text-anchor="middle" x="659.5" y="-199.5" font-family="Helvetica,sans-Serif" font-size="10.00">wayland/window.h</text>
</a>
</g>
</g>
<!-- Node37&#45;&gt;Node39 -->
<g id="edge72" class="edge">
<title>Node37&#45;&gt;Node39</title>
<path fill="none" stroke="#63b8ff" d="M1144.22,-256.1C1045.39,-245.27 823.44,-220.96 717.68,-209.37"/>
<polygon fill="#63b8ff" stroke="#63b8ff" points="717.83,-205.87 707.51,-208.26 717.07,-212.83 717.83,-205.87"/>
</g>
<!-- Node38&#45;&gt;Node4 -->
<g id="edge67" class="edge">
<title>Node38&#45;&gt;Node4</title>
<path fill="none" stroke="#63b8ff" d="M1842.96,-192.48C1831.21,-190.37 1818.4,-188.32 1806.5,-187 1446.15,-146.88 1351.31,-195.7 991.5,-151 979.23,-149.48 965.87,-146.92 954.27,-144.41"/>
<polygon fill="#63b8ff" stroke="#63b8ff" points="954.71,-140.93 944.19,-142.15 953.18,-147.76 954.71,-140.93"/>
</g>
<!-- Node38&#45;&gt;Node16 -->
<g id="edge68" class="edge">
<title>Node38&#45;&gt;Node16</title>
<path fill="none" stroke="#63b8ff" d="M1954.38,-194.59C1981.29,-192.16 2012.32,-189.4 2040.5,-187 2239.53,-170.07 2295.07,-200.84 2488.5,-151 2490.19,-150.56 2491.9,-150.04 2493.61,-149.46"/>
<polygon fill="#63b8ff" stroke="#63b8ff" points="2495.17,-152.61 2503.15,-145.65 2492.57,-146.11 2495.17,-152.61"/>
</g>
<!-- Node38&#45;&gt;Node25 -->
<g id="edge69" class="edge">
<title>Node38&#45;&gt;Node25</title>
<path fill="none" stroke="#63b8ff" d="M1931.94,-192.45C1943.85,-190.48 1956.62,-188.52 1968.5,-187 2145.55,-164.31 2192.27,-179.35 2368.5,-151 2374.04,-150.11 2379.84,-148.99 2385.55,-147.78"/>
<polygon fill="#63b8ff" stroke="#63b8ff" points="2386.65,-151.12 2395.65,-145.53 2385.13,-144.29 2386.65,-151.12"/>
</g>
<!-- Node38&#45;&gt;Node31 -->
<g id="edge70" class="edge">
<title>Node38&#45;&gt;Node31</title>
<path fill="none" stroke="#63b8ff" d="M1883.42,-192.37C1882.26,-183.07 1880.37,-167.98 1878.86,-155.9"/>
<polygon fill="#63b8ff" stroke="#63b8ff" points="1882.33,-155.39 1877.61,-145.91 1875.38,-156.26 1882.33,-155.39"/>
</g>
<!-- Node39&#45;&gt;Node4 -->
<g id="edge74" class="edge">
<title>Node39&#45;&gt;Node4</title>
<path fill="none" stroke="#63b8ff" d="M707.85,-193.95C755.78,-186.2 830.88,-172 893.5,-151 894.9,-150.53 896.31,-150.02 897.73,-149.47"/>
<polygon fill="#63b8ff" stroke="#63b8ff" points="899.13,-152.68 906.96,-145.53 896.38,-146.24 899.13,-152.68"/>
</g>
<!-- Node39&#45;&gt;Node13 -->
<g id="edge73" class="edge">
<title>Node39&#45;&gt;Node13</title>
<path fill="none" stroke="#63b8ff" d="M687.73,-192.42C719.59,-182.67 772.91,-166.14 818.5,-151 820.6,-150.3 822.76,-149.58 824.93,-148.84"/>
<polygon fill="#63b8ff" stroke="#63b8ff" points="826.11,-152.13 834.43,-145.56 823.83,-145.51 826.11,-152.13"/>
</g>
<!-- Node39&#45;&gt;Node17 -->
<g id="edge78" class="edge">
<title>Node39&#45;&gt;Node17</title>
<path fill="none" stroke="#63b8ff" d="M611.39,-196.7C523.91,-188.73 333,-170.7 172.5,-151 160.44,-149.52 147.56,-147.79 135.25,-146.06"/>
<polygon fill="#63b8ff" stroke="#63b8ff" points="135.45,-142.55 125.06,-144.61 134.47,-149.48 135.45,-142.55"/>
</g>
<!-- Node39&#45;&gt;Node18 -->
<g id="edge77" class="edge">
<title>Node39&#45;&gt;Node18</title>
<path fill="none" stroke="#63b8ff" d="M687.6,-192.47C713.86,-183.89 753.69,-169.34 785.5,-151 804.14,-140.25 805.66,-133.03 823.5,-121 840.41,-109.59 860.41,-98.22 875.93,-89.83"/>
<polygon fill="#63b8ff" stroke="#63b8ff" points="877.77,-92.81 884.94,-85.02 874.47,-86.64 877.77,-92.81"/>
</g>
<!-- Node40 -->
<g id="node40" class="node">
<title>Node40</title>
<g id="a_node40"><a xlink:title=" ">
<polygon fill="#e0e0e0" stroke="#999999" points="513,-145.5 464,-145.5 464,-126.5 513,-126.5 513,-145.5"/>
<text text-anchor="middle" x="488.5" y="-133.5" font-family="Helvetica,sans-Serif" font-size="10.00">cassert</text>
</a>
</g>
</g>
<!-- Node39&#45;&gt;Node40 -->
<g id="edge75" class="edge">
<title>Node39&#45;&gt;Node40</title>
<path fill="none" stroke="#63b8ff" d="M634.67,-192.45C606.93,-182.8 560.75,-166.42 521.5,-151 520.29,-150.53 519.07,-150.04 517.83,-149.54"/>
<polygon fill="#63b8ff" stroke="#63b8ff" points="518.9,-146.19 508.32,-145.61 516.23,-152.66 518.9,-146.19"/>
</g>
<!-- Node41 -->
<g id="node41" class="node">
<title>Node41</title>
<g id="a_node41"><a xlink:title=" ">
<polygon fill="#e0e0e0" stroke="#999999" points="656,-145.5 531,-145.5 531,-126.5 656,-126.5 656,-145.5"/>
<text text-anchor="middle" x="593.5" y="-133.5" font-family="Helvetica,sans-Serif" font-size="10.00">agl&#45;shell&#45;client&#45;protocol.h</text>
</a>
</g>
</g>
<!-- Node39&#45;&gt;Node41 -->
<g id="edge76" class="edge">
<title>Node39&#45;&gt;Node41</title>
<path fill="none" stroke="#63b8ff" d="M650.6,-192.37C640.23,-182.31 622.87,-165.48 610.01,-153.01"/>
<polygon fill="#63b8ff" stroke="#63b8ff" points="612.3,-150.35 602.68,-145.91 607.43,-155.38 612.3,-150.35"/>
</g>
<!-- Node42 -->
<g id="node42" class="node">
<title>Node42</title>
<g id="a_node42"><a xlink:title=" ">
<polygon fill="#e0e0e0" stroke="#999999" points="776.5,-151 674.5,-151 674.5,-121 776.5,-121 776.5,-151"/>
<text text-anchor="start" x="682.5" y="-139" font-family="Helvetica,sans-Serif" font-size="10.00">ivi&#45;application&#45;client</text>
<text text-anchor="middle" x="725.5" y="-128" font-family="Helvetica,sans-Serif" font-size="10.00">&#45;protocol.h</text>
</a>
</g>
</g>
<!-- Node39&#45;&gt;Node42 -->
<g id="edge79" class="edge">
<title>Node39&#45;&gt;Node42</title>
<path fill="none" stroke="#63b8ff" d="M668.4,-192.37C677.35,-183.69 691.49,-169.98 703.47,-158.37"/>
<polygon fill="#63b8ff" stroke="#63b8ff" points="706.2,-160.59 710.94,-151.12 701.33,-155.56 706.2,-160.59"/>
</g>
<!-- Node43 -->
<g id="node43" class="node">
<title>Node43</title>
<g id="a_node43"><a xlink:title=" ">
<polygon fill="#e0e0e0" stroke="#999999" points="299,-145.5 182,-145.5 182,-126.5 299,-126.5 299,-145.5"/>
<text text-anchor="middle" x="240.5" y="-133.5" font-family="Helvetica,sans-Serif" font-size="10.00">ivi&#45;wm&#45;client&#45;protocol.h</text>
</a>
</g>
</g>
<!-- Node39&#45;&gt;Node43 -->
<g id="edge80" class="edge">
<title>Node39&#45;&gt;Node43</title>
<path fill="none" stroke="#63b8ff" d="M611.38,-195.1C543.61,-186.57 416.29,-169.76 308.5,-151 302.57,-149.97 296.36,-148.8 290.21,-147.6"/>
<polygon fill="#63b8ff" stroke="#63b8ff" points="290.47,-144.08 279.97,-145.56 289.09,-150.95 290.47,-144.08"/>
</g>
<!-- Node44 -->
<g id="node44" class="node">
<title>Node44</title>
<g id="a_node44"><a xlink:title=" ">
<polygon fill="#e0e0e0" stroke="#999999" points="445.5,-145.5 317.5,-145.5 317.5,-126.5 445.5,-126.5 445.5,-145.5"/>
<text text-anchor="middle" x="381.5" y="-133.5" font-family="Helvetica,sans-Serif" font-size="10.00">xdg&#45;shell&#45;client&#45;protocol.h</text>
</a>
</g>
</g>
<!-- Node39&#45;&gt;Node44 -->
<g id="edge81" class="edge">
<title>Node39&#45;&gt;Node44</title>
<path fill="none" stroke="#63b8ff" d="M622.3,-192.44C572.15,-180.89 482.89,-160.34 428.26,-147.77"/>
<polygon fill="#63b8ff" stroke="#63b8ff" points="429.01,-144.35 418.48,-145.51 427.44,-151.17 429.01,-144.35"/>
</g>
</g>
</svg>
