<?xml version="1.0" encoding="UTF-8" standalone="no"?>
<!DOCTYPE svg PUBLIC "-//W3C//DTD SVG 1.1//EN"
 "http://www.w3.org/Graphics/SVG/1.1/DTD/svg11.dtd">
<!-- Generated by graphviz version 2.43.0 (0)
 -->
<!-- Title: /home/joel.winarske@toyotaconnected.com/development/workspace&#45;automation&#45;configs/app/ivi&#45;homescreen/shell/static_plugins/navigation/navigation.cc Pages: 1 -->
<svg width="2749pt" height="452pt"
 viewBox="0.00 0.00 2749.00 452.00" xmlns="http://www.w3.org/2000/svg" xmlns:xlink="http://www.w3.org/1999/xlink">
<g id="graph0" class="graph" transform="scale(1 1) rotate(0) translate(4 448)">
<title>/home/joel.winarske@toyotaconnected.com/development/workspace&#45;automation&#45;configs/app/ivi&#45;homescreen/shell/static_plugins/navigation/navigation.cc</title>
<polygon fill="white" stroke="transparent" points="-4,4 -4,-448 2745,-448 2745,4 -4,4"/>
<!-- Node1 -->
<g id="node1" class="node">
<title>Node1</title>
<g id="a_node1"><a xlink:title=" ">
<polygon fill="#bfbfbf" stroke="black" points="2534,-369.5 2534,-443.5 2714,-443.5 2714,-369.5 2534,-369.5"/>
<text text-anchor="start" x="2542" y="-431.5" font-family="Helvetica,sans-Serif" font-size="10.00">/home/joel.winarske</text>
<text text-anchor="start" x="2542" y="-420.5" font-family="Helvetica,sans-Serif" font-size="10.00">@toyotaconnected.com</text>
<text text-anchor="start" x="2542" y="-409.5" font-family="Helvetica,sans-Serif" font-size="10.00">/development/workspace</text>
<text text-anchor="start" x="2542" y="-398.5" font-family="Helvetica,sans-Serif" font-size="10.00">&#45;automation&#45;configs/app</text>
<text text-anchor="start" x="2542" y="-387.5" font-family="Helvetica,sans-Serif" font-size="10.00">/ivi&#45;homescreen/shell/static</text>
<text text-anchor="middle" x="2624" y="-376.5" font-family="Helvetica,sans-Serif" font-size="10.00">_plugins/navigation/navigation.cc</text>
</a>
</g>
</g>
<!-- Node2 -->
<g id="node2" class="node">
<title>Node2</title>
<g id="a_node2"><a xlink:href="navigation_8h.html" target="_top" xlink:title=" ">
<polygon fill="white" stroke="black" points="2496.5,-196 2496.5,-215 2573.5,-215 2573.5,-196 2496.5,-196"/>
<text text-anchor="middle" x="2535" y="-203" font-family="Helvetica,sans-Serif" font-size="10.00">navigation.h</text>
</a>
</g>
</g>
<!-- Node1&#45;&gt;Node2 -->
<g id="edge1" class="edge">
<title>Node1&#45;&gt;Node2</title>
<path fill="none" stroke="midnightblue" d="M2609.01,-369.26C2596.36,-339.04 2577.56,-294.96 2560,-257 2554.88,-245.93 2548.82,-233.66 2543.94,-223.99"/>
<polygon fill="midnightblue" stroke="midnightblue" points="2547.03,-222.34 2539.39,-215.01 2540.79,-225.51 2547.03,-222.34"/>
</g>
<!-- Node5 -->
<g id="node5" class="node">
<title>Node5</title>
<g id="a_node5"><a xlink:title=" ">
<polygon fill="white" stroke="#bfbfbf" points="2503.5,-123.5 2503.5,-153.5 2674.5,-153.5 2674.5,-123.5 2503.5,-123.5"/>
<text text-anchor="start" x="2511.5" y="-141.5" font-family="Helvetica,sans-Serif" font-size="10.00">flutter/shell/platform</text>
<text text-anchor="middle" x="2589" y="-130.5" font-family="Helvetica,sans-Serif" font-size="10.00">/common/json_method_codec.h</text>
</a>
</g>
</g>
<!-- Node1&#45;&gt;Node5 -->
<g id="edge4" class="edge">
<title>Node1&#45;&gt;Node5</title>
<path fill="none" stroke="midnightblue" d="M2619.24,-369.35C2611.99,-314.25 2598.37,-210.71 2592.19,-163.75"/>
<polygon fill="midnightblue" stroke="midnightblue" points="2595.63,-163.06 2590.86,-153.6 2588.69,-163.98 2595.63,-163.06"/>
</g>
<!-- Node6 -->
<g id="node6" class="node">
<title>Node6</title>
<g id="a_node6"><a xlink:href="engine_8h.html" target="_top" xlink:title=" ">
<polygon fill="white" stroke="black" points="1946.5,-313.5 1946.5,-332.5 2005.5,-332.5 2005.5,-313.5 1946.5,-313.5"/>
<text text-anchor="middle" x="1976" y="-320.5" font-family="Helvetica,sans-Serif" font-size="10.00">engine.h</text>
</a>
</g>
</g>
<!-- Node1&#45;&gt;Node6 -->
<g id="edge5" class="edge">
<title>Node1&#45;&gt;Node6</title>
<path fill="none" stroke="midnightblue" d="M2533.9,-394.17C2390.98,-376.19 2118.07,-341.87 2015.91,-329.02"/>
<polygon fill="midnightblue" stroke="midnightblue" points="2016.08,-325.51 2005.72,-327.74 2015.21,-332.46 2016.08,-325.51"/>
</g>
<!-- Node3 -->
<g id="node3" class="node">
<title>Node3</title>
<g id="a_node3"><a xlink:title=" ">
<polygon fill="white" stroke="#bfbfbf" points="2236.5,-0.5 2236.5,-30.5 2373.5,-30.5 2373.5,-0.5 2236.5,-0.5"/>
<text text-anchor="start" x="2244.5" y="-18.5" font-family="Helvetica,sans-Serif" font-size="10.00">shell/platform/embedder</text>
<text text-anchor="middle" x="2305" y="-7.5" font-family="Helvetica,sans-Serif" font-size="10.00">/embedder.h</text>
</a>
</g>
</g>
<!-- Node2&#45;&gt;Node3 -->
<g id="edge2" class="edge">
<title>Node2&#45;&gt;Node3</title>
<path fill="none" stroke="midnightblue" d="M2526.43,-195.65C2511.53,-180.37 2479.66,-148.26 2451,-123 2421.11,-96.65 2413.18,-90.49 2381,-67 2366.52,-56.43 2349.98,-45.33 2336.04,-36.24"/>
<polygon fill="midnightblue" stroke="midnightblue" points="2337.6,-33.08 2327.3,-30.58 2333.79,-38.95 2337.6,-33.08"/>
</g>
<!-- Node4 -->
<g id="node4" class="node">
<title>Node4</title>
<g id="a_node4"><a xlink:title=" ">
<polygon fill="white" stroke="#bfbfbf" points="1388,-129 1388,-148 1432,-148 1432,-129 1388,-129"/>
<text text-anchor="middle" x="1410" y="-136" font-family="Helvetica,sans-Serif" font-size="10.00">string</text>
</a>
</g>
</g>
<!-- Node2&#45;&gt;Node4 -->
<g id="edge3" class="edge">
<title>Node2&#45;&gt;Node4</title>
<path fill="none" stroke="midnightblue" d="M2511.39,-195.88C2504,-193.54 2495.75,-191.3 2488,-190 2258.43,-151.35 1667.35,-208.42 1441,-154 1438.79,-153.47 1436.56,-152.77 1434.35,-151.98"/>
<polygon fill="midnightblue" stroke="midnightblue" points="1435.58,-148.7 1425.01,-148 1432.84,-155.14 1435.58,-148.7"/>
</g>
<!-- Node6&#45;&gt;Node3 -->
<g id="edge10" class="edge">
<title>Node6&#45;&gt;Node3</title>
<path fill="none" stroke="midnightblue" d="M2005.55,-322.38C2109.81,-323.32 2459.67,-322.91 2560,-277 2630.59,-244.7 2654.15,-225.66 2684,-154 2689.3,-141.28 2692.32,-133.98 2684,-123 2647.83,-75.27 2483.6,-42.98 2383.57,-27.36"/>
<polygon fill="midnightblue" stroke="midnightblue" points="2383.92,-23.87 2373.5,-25.81 2382.85,-30.79 2383.92,-23.87"/>
</g>
<!-- Node6&#45;&gt;Node4 -->
<g id="edge15" class="edge">
<title>Node6&#45;&gt;Node4</title>
<path fill="none" stroke="midnightblue" d="M1946.24,-314.16C1864.39,-292.27 1629.5,-227.31 1441,-154 1439.58,-153.45 1438.14,-152.86 1436.68,-152.25"/>
<polygon fill="midnightblue" stroke="midnightblue" points="1437.76,-148.9 1427.2,-148.04 1434.92,-155.3 1437.76,-148.9"/>
</g>
<!-- Node7 -->
<g id="node7" class="node">
<title>Node7</title>
<g id="a_node7"><a xlink:title=" ">
<polygon fill="white" stroke="#bfbfbf" points="2023.5,-257.5 2023.5,-276.5 2088.5,-276.5 2088.5,-257.5 2023.5,-257.5"/>
<text text-anchor="middle" x="2056" y="-264.5" font-family="Helvetica,sans-Serif" font-size="10.00">functional</text>
</a>
</g>
</g>
<!-- Node6&#45;&gt;Node7 -->
<g id="edge6" class="edge">
<title>Node6&#45;&gt;Node7</title>
<path fill="none" stroke="midnightblue" d="M1988.85,-313.32C2001.22,-304.98 2020.13,-292.21 2034.74,-282.35"/>
<polygon fill="midnightblue" stroke="midnightblue" points="2036.85,-285.15 2043.18,-276.65 2032.93,-279.35 2036.85,-285.15"/>
</g>
<!-- Node8 -->
<g id="node8" class="node">
<title>Node8</title>
<g id="a_node8"><a xlink:title=" ">
<polygon fill="white" stroke="#bfbfbf" points="2551,-6 2551,-25 2613,-25 2613,-6 2551,-6"/>
<text text-anchor="middle" x="2582" y="-13" font-family="Helvetica,sans-Serif" font-size="10.00">EGL/egl.h</text>
</a>
</g>
</g>
<!-- Node6&#45;&gt;Node8 -->
<g id="edge7" class="edge">
<title>Node6&#45;&gt;Node8</title>
<path fill="none" stroke="midnightblue" d="M2005.69,-321.3C2113.06,-318.55 2480.81,-307.1 2594,-277 2664.02,-258.38 2741,-278.96 2741,-206.5 2741,-206.5 2741,-206.5 2741,-137.5 2741,-78.07 2669.8,-44 2622.69,-27.95"/>
<polygon fill="midnightblue" stroke="midnightblue" points="2623.63,-24.58 2613.03,-24.8 2621.45,-31.23 2623.63,-24.58"/>
</g>
<!-- Node9 -->
<g id="node9" class="node">
<title>Node9</title>
<g id="a_node9"><a xlink:title=" ">
<polygon fill="white" stroke="#bfbfbf" points="2107,-257.5 2107,-276.5 2181,-276.5 2181,-257.5 2107,-257.5"/>
<text text-anchor="middle" x="2144" y="-264.5" font-family="Helvetica,sans-Serif" font-size="10.00">GLES2/gl2.h</text>
</a>
</g>
</g>
<!-- Node6&#45;&gt;Node9 -->
<g id="edge8" class="edge">
<title>Node6&#45;&gt;Node9</title>
<path fill="none" stroke="midnightblue" d="M2002.62,-313.44C2031.01,-304.32 2076.14,-289.81 2107.75,-279.65"/>
<polygon fill="midnightblue" stroke="midnightblue" points="2109.06,-282.91 2117.5,-276.52 2106.91,-276.24 2109.06,-282.91"/>
</g>
<!-- Node10 -->
<g id="node10" class="node">
<title>Node10</title>
<g id="a_node10"><a xlink:title=" ">
<polygon fill="white" stroke="#bfbfbf" points="2199,-257.5 2199,-276.5 2339,-276.5 2339,-257.5 2199,-257.5"/>
<text text-anchor="middle" x="2269" y="-264.5" font-family="Helvetica,sans-Serif" font-size="10.00">flutter/encodable_value.h</text>
</a>
</g>
</g>
<!-- Node6&#45;&gt;Node10 -->
<g id="edge9" class="edge">
<title>Node6&#45;&gt;Node10</title>
<path fill="none" stroke="midnightblue" d="M2005.71,-316.53C2054.15,-307.6 2150.94,-289.76 2212.7,-278.38"/>
<polygon fill="midnightblue" stroke="midnightblue" points="2213.48,-281.79 2222.68,-276.54 2212.21,-274.91 2213.48,-281.79"/>
</g>
<!-- Node11 -->
<g id="node11" class="node">
<title>Node11</title>
<g id="a_node11"><a xlink:title=" ">
<polygon fill="white" stroke="#bfbfbf" points="2333,-129 2333,-148 2371,-148 2371,-129 2333,-129"/>
<text text-anchor="middle" x="2352" y="-136" font-family="Helvetica,sans-Serif" font-size="10.00">map</text>
</a>
</g>
</g>
<!-- Node6&#45;&gt;Node11 -->
<g id="edge11" class="edge">
<title>Node6&#45;&gt;Node11</title>
<path fill="none" stroke="midnightblue" d="M1972.53,-313.24C1967.99,-300.41 1961.47,-275.99 1969,-257 1984.06,-219 1995.57,-208.53 2032,-190 2146.59,-131.73 2195.08,-188.21 2319,-154 2321.16,-153.4 2323.35,-152.69 2325.54,-151.91"/>
<polygon fill="midnightblue" stroke="midnightblue" points="2326.91,-155.13 2334.88,-148.14 2324.29,-148.64 2326.91,-155.13"/>
</g>
<!-- Node12 -->
<g id="node12" class="node">
<title>Node12</title>
<g id="a_node12"><a xlink:title=" ">
<polygon fill="white" stroke="#bfbfbf" points="626,-129 626,-148 684,-148 684,-129 626,-129"/>
<text text-anchor="middle" x="655" y="-136" font-family="Helvetica,sans-Serif" font-size="10.00">memory</text>
</a>
</g>
</g>
<!-- Node6&#45;&gt;Node12 -->
<g id="edge12" class="edge">
<title>Node6&#45;&gt;Node12</title>
<path fill="none" stroke="midnightblue" d="M1946.49,-321.67C1764.61,-319.56 802.05,-306.97 748,-277 700.43,-250.62 672.45,-188.39 661.03,-157.52"/>
<polygon fill="midnightblue" stroke="midnightblue" points="664.31,-156.28 657.68,-148.02 657.71,-158.61 664.31,-156.28"/>
</g>
<!-- Node13 -->
<g id="node13" class="node">
<title>Node13</title>
<g id="a_node13"><a xlink:title=" ">
<polygon fill="white" stroke="#bfbfbf" points="2357,-257.5 2357,-276.5 2405,-276.5 2405,-257.5 2357,-257.5"/>
<text text-anchor="middle" x="2381" y="-264.5" font-family="Helvetica,sans-Serif" font-size="10.00">mutex</text>
</a>
</g>
</g>
<!-- Node6&#45;&gt;Node13 -->
<g id="edge13" class="edge">
<title>Node6&#45;&gt;Node13</title>
<path fill="none" stroke="midnightblue" d="M2005.65,-319.89C2067.42,-315.18 2214.5,-302.33 2347.02,-276.93"/>
<polygon fill="midnightblue" stroke="midnightblue" points="2347.8,-280.34 2356.95,-275 2346.46,-273.47 2347.8,-280.34"/>
</g>
<!-- Node14 -->
<g id="node14" class="node">
<title>Node14</title>
<g id="a_node14"><a xlink:title=" ">
<polygon fill="white" stroke="#bfbfbf" points="2423.5,-257.5 2423.5,-276.5 2470.5,-276.5 2470.5,-257.5 2423.5,-257.5"/>
<text text-anchor="middle" x="2447" y="-264.5" font-family="Helvetica,sans-Serif" font-size="10.00">queue</text>
</a>
</g>
</g>
<!-- Node6&#45;&gt;Node14 -->
<g id="edge14" class="edge">
<title>Node6&#45;&gt;Node14</title>
<path fill="none" stroke="midnightblue" d="M2005.72,-320.63C2075.34,-317.06 2254.47,-305.81 2413.36,-276.8"/>
<polygon fill="midnightblue" stroke="midnightblue" points="2414.12,-280.22 2423.31,-274.96 2412.84,-273.34 2414.12,-280.22"/>
</g>
<!-- Node15 -->
<g id="node15" class="node">
<title>Node15</title>
<g id="a_node15"><a xlink:title=" ">
<polygon fill="white" stroke="#bfbfbf" points="560.5,-129 560.5,-148 607.5,-148 607.5,-129 560.5,-129"/>
<text text-anchor="middle" x="584" y="-136" font-family="Helvetica,sans-Serif" font-size="10.00">vector</text>
</a>
</g>
</g>
<!-- Node6&#45;&gt;Node15 -->
<g id="edge16" class="edge">
<title>Node6&#45;&gt;Node15</title>
<path fill="none" stroke="midnightblue" d="M1946.26,-322.25C1767.03,-323.57 834.52,-327.92 719,-277 660.72,-251.31 614.45,-187.78 594.57,-156.9"/>
<polygon fill="midnightblue" stroke="midnightblue" points="597.34,-154.73 589.06,-148.11 591.41,-158.44 597.34,-154.73"/>
</g>
<!-- Node16 -->
<g id="node16" class="node">
<title>Node16</title>
<g id="a_node16"><a xlink:href="backend_8h.html" target="_top" xlink:title=" ">
<polygon fill="white" stroke="black" points="0,-129 0,-148 110,-148 110,-129 0,-129"/>
<text text-anchor="middle" x="55" y="-136" font-family="Helvetica,sans-Serif" font-size="10.00">backend/backend.h</text>
</a>
</g>
</g>
<!-- Node6&#45;&gt;Node16 -->
<g id="edge17" class="edge">
<title>Node6&#45;&gt;Node16</title>
<path fill="none" stroke="midnightblue" d="M1946.4,-321.7C1777.09,-319.8 931.51,-308.55 674,-277 554.95,-262.41 527.2,-246.52 410,-221 296.78,-196.35 164.01,-166.34 97.4,-150.51"/>
<polygon fill="midnightblue" stroke="midnightblue" points="97.83,-147.01 87.29,-148.09 96.2,-153.82 97.83,-147.01"/>
</g>
<!-- Node17 -->
<g id="node17" class="node">
<title>Node17</title>
<g id="a_node17"><a xlink:href="constants_8h.html" target="_top" xlink:title=" ">
<polygon fill="white" stroke="black" points="1258.5,-67.5 1258.5,-86.5 1331.5,-86.5 1331.5,-67.5 1258.5,-67.5"/>
<text text-anchor="middle" x="1295" y="-74.5" font-family="Helvetica,sans-Serif" font-size="10.00">constants.h</text>
</a>
</g>
</g>
<!-- Node6&#45;&gt;Node17 -->
<g id="edge24" class="edge">
<title>Node6&#45;&gt;Node17</title>
<path fill="none" stroke="midnightblue" d="M1978.74,-313.34C1983.64,-299.26 1995.31,-271.54 2015,-257 2068.76,-217.3 2096.58,-238.78 2161,-221 2259.12,-193.92 2319.46,-235.83 2380,-154 2388.19,-142.92 2389.54,-132.94 2380,-123 2343.56,-85.02 1544.7,-79.06 1341.62,-78.16"/>
<polygon fill="midnightblue" stroke="midnightblue" points="1341.59,-74.66 1331.58,-78.11 1341.56,-81.66 1341.59,-74.66"/>
</g>
<!-- Node19 -->
<g id="node19" class="node">
<title>Node19</title>
<g id="a_node19"><a xlink:href="logging_8h.html" target="_top" xlink:title=" ">
<polygon fill="white" stroke="black" points="2489,-257.5 2489,-276.5 2551,-276.5 2551,-257.5 2489,-257.5"/>
<text text-anchor="middle" x="2520" y="-264.5" font-family="Helvetica,sans-Serif" font-size="10.00">logging.h</text>
</a>
</g>
</g>
<!-- Node6&#45;&gt;Node19 -->
<g id="edge25" class="edge">
<title>Node6&#45;&gt;Node19</title>
<path fill="none" stroke="midnightblue" d="M2005.71,-320.72C2082.44,-317.13 2293.61,-305.39 2478.72,-277.01"/>
<polygon fill="midnightblue" stroke="midnightblue" points="2479.29,-280.46 2488.63,-275.47 2478.21,-273.55 2479.29,-280.46"/>
</g>
<!-- Node21 -->
<g id="node21" class="node">
<title>Node21</title>
<g id="a_node21"><a xlink:href="platform__channel_8h.html" target="_top" xlink:title=" ">
<polygon fill="white" stroke="black" points="2040.5,-196 2040.5,-215 2151.5,-215 2151.5,-196 2040.5,-196"/>
<text text-anchor="middle" x="2096" y="-203" font-family="Helvetica,sans-Serif" font-size="10.00">platform_channel.h</text>
</a>
</g>
</g>
<!-- Node6&#45;&gt;Node21 -->
<g id="edge27" class="edge">
<title>Node6&#45;&gt;Node21</title>
<path fill="none" stroke="midnightblue" d="M1974.11,-313.5C1971.64,-300.13 1968.95,-273.99 1981,-257 1994.85,-237.48 2017.96,-225.41 2039.85,-218"/>
<polygon fill="midnightblue" stroke="midnightblue" points="2040.94,-221.32 2049.45,-215 2038.86,-214.64 2040.94,-221.32"/>
</g>
<!-- Node22 -->
<g id="node22" class="node">
<title>Node22</title>
<g id="a_node22"><a xlink:href="key__event_8h.html" target="_top" xlink:title=" ">
<polygon fill="white" stroke="black" points="1266,-190.5 1266,-220.5 1378,-220.5 1378,-190.5 1266,-190.5"/>
<text text-anchor="start" x="1274" y="-208.5" font-family="Helvetica,sans-Serif" font-size="10.00">static_plugins/key</text>
<text text-anchor="middle" x="1322" y="-197.5" font-family="Helvetica,sans-Serif" font-size="10.00">_event/key_event.h</text>
</a>
</g>
</g>
<!-- Node6&#45;&gt;Node22 -->
<g id="edge31" class="edge">
<title>Node6&#45;&gt;Node22</title>
<path fill="none" stroke="midnightblue" d="M1946.44,-321.41C1847.61,-319.14 1529.5,-309.44 1433,-277 1400.33,-266.02 1367.59,-243.47 1346.23,-226.82"/>
<polygon fill="midnightblue" stroke="midnightblue" points="1348.35,-224.04 1338.35,-220.54 1343.99,-229.51 1348.35,-224.04"/>
</g>
<!-- Node29 -->
<g id="node29" class="node">
<title>Node29</title>
<g id="a_node29"><a xlink:href="text__input_8h.html" target="_top" xlink:title=" ">
<polygon fill="white" stroke="black" points="1740,-190.5 1740,-220.5 1848,-220.5 1848,-190.5 1740,-190.5"/>
<text text-anchor="start" x="1748" y="-208.5" font-family="Helvetica,sans-Serif" font-size="10.00">static_plugins/text</text>
<text text-anchor="middle" x="1794" y="-197.5" font-family="Helvetica,sans-Serif" font-size="10.00">_input/text_input.h</text>
</a>
</g>
</g>
<!-- Node6&#45;&gt;Node29 -->
<g id="edge43" class="edge">
<title>Node6&#45;&gt;Node29</title>
<path fill="none" stroke="midnightblue" d="M1962.39,-313.38C1948.09,-304.32 1924.96,-289.67 1905,-277 1877.89,-259.8 1847.07,-240.22 1824.8,-226.07"/>
<polygon fill="midnightblue" stroke="midnightblue" points="1826.43,-222.96 1816.11,-220.55 1822.67,-228.87 1826.43,-222.96"/>
</g>
<!-- Node33 -->
<g id="node33" class="node">
<title>Node33</title>
<g id="a_node33"><a xlink:href="flutter__view_8h.html" target="_top" xlink:title=" ">
<polygon fill="white" stroke="black" points="757.5,-257.5 757.5,-276.5 866.5,-276.5 866.5,-257.5 757.5,-257.5"/>
<text text-anchor="middle" x="812" y="-264.5" font-family="Helvetica,sans-Serif" font-size="10.00">view/flutter_view.h</text>
</a>
</g>
</g>
<!-- Node6&#45;&gt;Node33 -->
<g id="edge57" class="edge">
<title>Node6&#45;&gt;Node33</title>
<path fill="none" stroke="midnightblue" d="M1946.35,-320.62C1793.62,-313.54 1094.38,-281.1 876.81,-271.01"/>
<polygon fill="midnightblue" stroke="midnightblue" points="876.66,-267.5 866.51,-270.53 876.34,-274.49 876.66,-267.5"/>
</g>
<!-- Node16&#45;&gt;Node3 -->
<g id="edge18" class="edge">
<title>Node16&#45;&gt;Node3</title>
<path fill="none" stroke="midnightblue" d="M87.69,-128.95C97.67,-126.65 108.73,-124.41 119,-123 538.73,-65.49 1885.9,-27.36 2226.29,-18.49"/>
<polygon fill="midnightblue" stroke="midnightblue" points="2226.4,-21.99 2236.31,-18.23 2226.22,-14.99 2226.4,-21.99"/>
</g>
<!-- Node16&#45;&gt;Node6 -->
<g id="edge23" class="edge">
<title>Node16&#45;&gt;Node6</title>
<path fill="none" stroke="midnightblue" d="M97.83,-148.03C167.37,-163.03 308.57,-195 428,-221 545.2,-246.52 572.95,-262.41 692,-277 942.27,-307.66 1748.01,-319.15 1936.4,-321.52"/>
<polygon fill="midnightblue" stroke="midnightblue" points="1936.37,-325.02 1946.41,-321.64 1936.46,-318.02 1936.37,-325.02"/>
</g>
<!-- Node16&#45;&gt;Node17 -->
<g id="edge19" class="edge">
<title>Node16&#45;&gt;Node17</title>
<path fill="none" stroke="midnightblue" d="M87.35,-128.95C97.42,-126.62 108.61,-124.36 119,-123 343.04,-93.59 1057.88,-81.41 1248.12,-78.64"/>
<polygon fill="midnightblue" stroke="midnightblue" points="1248.39,-82.13 1258.34,-78.49 1248.29,-75.14 1248.39,-82.13"/>
</g>
<!-- Node17&#45;&gt;Node3 -->
<g id="edge21" class="edge">
<title>Node17&#45;&gt;Node3</title>
<path fill="none" stroke="midnightblue" d="M1331.69,-68.97C1336.49,-68.22 1341.35,-67.53 1346,-67 1671.52,-29.85 2062.37,-19.98 2226.44,-17.39"/>
<polygon fill="midnightblue" stroke="midnightblue" points="2226.5,-20.89 2236.45,-17.24 2226.4,-13.9 2226.5,-20.89"/>
</g>
<!-- Node17&#45;&gt;Node8 -->
<g id="edge20" class="edge">
<title>Node17&#45;&gt;Node8</title>
<path fill="none" stroke="midnightblue" d="M1331.65,-74.9C1469.58,-70.68 1970.6,-54.55 2383,-31 2437.6,-27.88 2500.55,-23.09 2540.78,-19.88"/>
<polygon fill="midnightblue" stroke="midnightblue" points="2541.31,-23.35 2551,-19.06 2540.75,-16.37 2541.31,-23.35"/>
</g>
<!-- Node18 -->
<g id="node18" class="node">
<title>Node18</title>
<g id="a_node18"><a xlink:title=" ">
<polygon fill="white" stroke="#bfbfbf" points="1274,-6 1274,-25 1316,-25 1316,-6 1274,-6"/>
<text text-anchor="middle" x="1295" y="-13" font-family="Helvetica,sans-Serif" font-size="10.00">array</text>
</a>
</g>
</g>
<!-- Node17&#45;&gt;Node18 -->
<g id="edge22" class="edge">
<title>Node17&#45;&gt;Node18</title>
<path fill="none" stroke="midnightblue" d="M1295,-67.48C1295,-59.08 1295,-45.98 1295,-35.16"/>
<polygon fill="midnightblue" stroke="midnightblue" points="1298.5,-35.01 1295,-25.01 1291.5,-35.01 1298.5,-35.01"/>
</g>
<!-- Node20 -->
<g id="node20" class="node">
<title>Node20</title>
<g id="a_node20"><a xlink:title=" ">
<polygon fill="white" stroke="#bfbfbf" points="2365.5,-196 2365.5,-215 2478.5,-215 2478.5,-196 2365.5,-196"/>
<text text-anchor="middle" x="2422" y="-203" font-family="Helvetica,sans-Serif" font-size="10.00">flutter/fml/logging.h</text>
</a>
</g>
</g>
<!-- Node19&#45;&gt;Node20 -->
<g id="edge26" class="edge">
<title>Node19&#45;&gt;Node20</title>
<path fill="none" stroke="midnightblue" d="M2505.96,-257.48C2489.95,-247.75 2463.55,-231.73 2444.63,-220.24"/>
<polygon fill="midnightblue" stroke="midnightblue" points="2446.38,-217.21 2436.01,-215.01 2442.75,-223.19 2446.38,-217.21"/>
</g>
<!-- Node21&#45;&gt;Node3 -->
<g id="edge30" class="edge">
<title>Node21&#45;&gt;Node3</title>
<path fill="none" stroke="midnightblue" d="M2151.68,-202.78C2225.96,-199.17 2351.46,-188.07 2380,-154 2410.75,-117.3 2363.72,-66.04 2331.36,-37.61"/>
<polygon fill="midnightblue" stroke="midnightblue" points="2333.38,-34.73 2323.5,-30.89 2328.83,-40.05 2333.38,-34.73"/>
</g>
<!-- Node21&#45;&gt;Node4 -->
<g id="edge29" class="edge">
<title>Node21&#45;&gt;Node4</title>
<path fill="none" stroke="midnightblue" d="M2040.24,-200.75C1887.15,-190.37 1469.78,-161.57 1441,-154 1439.02,-153.48 1437.01,-152.83 1435.01,-152.11"/>
<polygon fill="midnightblue" stroke="midnightblue" points="1435.93,-148.7 1425.36,-148.02 1433.2,-155.14 1435.93,-148.7"/>
</g>
<!-- Node21&#45;&gt;Node11 -->
<g id="edge28" class="edge">
<title>Node21&#45;&gt;Node11</title>
<path fill="none" stroke="midnightblue" d="M2146.34,-195.95C2192.04,-187.52 2260.94,-173.13 2319,-154 2320.87,-153.38 2322.78,-152.7 2324.7,-151.97"/>
<polygon fill="midnightblue" stroke="midnightblue" points="2326.17,-155.15 2334.09,-148.11 2323.51,-148.68 2326.17,-155.15"/>
</g>
<!-- Node22&#45;&gt;Node3 -->
<g id="edge40" class="edge">
<title>Node22&#45;&gt;Node3</title>
<path fill="none" stroke="midnightblue" d="M1327.43,-190.48C1335.55,-171.62 1352.75,-138.65 1379,-123 1521.45,-38.09 2029.36,-20.88 2226.23,-17.39"/>
<polygon fill="midnightblue" stroke="midnightblue" points="2226.56,-20.88 2236.5,-17.21 2226.44,-13.88 2226.56,-20.88"/>
</g>
<!-- Node22&#45;&gt;Node4 -->
<g id="edge34" class="edge">
<title>Node22&#45;&gt;Node4</title>
<path fill="none" stroke="midnightblue" d="M1341.09,-190.4C1355.58,-179.7 1375.43,-165.03 1390.11,-154.19"/>
<polygon fill="midnightblue" stroke="midnightblue" points="1392.52,-156.76 1398.48,-148.01 1388.36,-151.13 1392.52,-156.76"/>
</g>
<!-- Node22&#45;&gt;Node11 -->
<g id="edge32" class="edge">
<title>Node22&#45;&gt;Node11</title>
<path fill="none" stroke="midnightblue" d="M1378.23,-202.77C1556.64,-197.08 2108.71,-177.95 2286,-154 2298.19,-152.35 2311.48,-149.62 2322.91,-146.97"/>
<polygon fill="midnightblue" stroke="midnightblue" points="2323.89,-150.33 2332.8,-144.59 2322.26,-143.53 2323.89,-150.33"/>
</g>
<!-- Node22&#45;&gt;Node12 -->
<g id="edge33" class="edge">
<title>Node22&#45;&gt;Node12</title>
<path fill="none" stroke="midnightblue" d="M1265.74,-202.03C1132.61,-195.86 801.33,-178.49 693,-154 690,-153.32 686.92,-152.45 683.87,-151.48"/>
<polygon fill="midnightblue" stroke="midnightblue" points="684.99,-148.16 674.39,-148.12 682.65,-154.76 684.99,-148.16"/>
</g>
<!-- Node22&#45;&gt;Node17 -->
<g id="edge42" class="edge">
<title>Node22&#45;&gt;Node17</title>
<path fill="none" stroke="midnightblue" d="M1265.63,-202.43C1148.92,-197.57 889.45,-183.52 863,-154 853.81,-143.74 853.78,-133.23 863,-123 888.44,-94.78 1141.57,-83.1 1248.12,-79.41"/>
<polygon fill="midnightblue" stroke="midnightblue" points="1248.38,-82.9 1258.26,-79.07 1248.15,-75.91 1248.38,-82.9"/>
</g>
<!-- Node23 -->
<g id="node23" class="node">
<title>Node23</title>
<g id="a_node23"><a xlink:title=" ">
<polygon fill="white" stroke="#bfbfbf" points="1012,-123.5 1012,-153.5 1136,-153.5 1136,-123.5 1012,-123.5"/>
<text text-anchor="start" x="1020" y="-141.5" font-family="Helvetica,sans-Serif" font-size="10.00">flutter/basic_message</text>
<text text-anchor="middle" x="1074" y="-130.5" font-family="Helvetica,sans-Serif" font-size="10.00">_channel.h</text>
</a>
</g>
</g>
<!-- Node22&#45;&gt;Node23 -->
<g id="edge35" class="edge">
<title>Node22&#45;&gt;Node23</title>
<path fill="none" stroke="midnightblue" d="M1268.49,-190.48C1230.08,-180.41 1178.16,-166.8 1137.62,-156.17"/>
<polygon fill="midnightblue" stroke="midnightblue" points="1138.4,-152.76 1127.84,-153.61 1136.62,-159.53 1138.4,-152.76"/>
</g>
<!-- Node24 -->
<g id="node24" class="node">
<title>Node24</title>
<g id="a_node24"><a xlink:title=" ">
<polygon fill="white" stroke="#bfbfbf" points="1450.5,-129 1450.5,-148 1597.5,-148 1597.5,-129 1450.5,-129"/>
<text text-anchor="middle" x="1524" y="-136" font-family="Helvetica,sans-Serif" font-size="10.00">flutter/binary_messenger.h</text>
</a>
</g>
</g>
<!-- Node22&#45;&gt;Node24 -->
<g id="edge36" class="edge">
<title>Node22&#45;&gt;Node24</title>
<path fill="none" stroke="midnightblue" d="M1365.83,-190.4C1402.37,-178.64 1453.8,-162.09 1487.98,-151.09"/>
<polygon fill="midnightblue" stroke="midnightblue" points="1489.12,-154.4 1497.56,-148.01 1486.97,-147.74 1489.12,-154.4"/>
</g>
<!-- Node25 -->
<g id="node25" class="node">
<title>Node25</title>
<g id="a_node25"><a xlink:title=" ">
<polygon fill="white" stroke="#bfbfbf" points="1154,-123.5 1154,-153.5 1332,-153.5 1332,-123.5 1154,-123.5"/>
<text text-anchor="start" x="1162" y="-141.5" font-family="Helvetica,sans-Serif" font-size="10.00">flutter/shell/platform</text>
<text text-anchor="middle" x="1243" y="-130.5" font-family="Helvetica,sans-Serif" font-size="10.00">/common/json_message_codec.h</text>
</a>
</g>
</g>
<!-- Node22&#45;&gt;Node25 -->
<g id="edge37" class="edge">
<title>Node22&#45;&gt;Node25</title>
<path fill="none" stroke="midnightblue" d="M1304.86,-190.4C1294.09,-181.54 1280.02,-169.96 1268.02,-160.09"/>
<polygon fill="midnightblue" stroke="midnightblue" points="1270.05,-157.23 1260.11,-153.58 1265.61,-162.63 1270.05,-157.23"/>
</g>
<!-- Node26 -->
<g id="node26" class="node">
<title>Node26</title>
<g id="a_node26"><a xlink:title=" ">
<polygon fill="white" stroke="#bfbfbf" points="702.5,-129 702.5,-148 815.5,-148 815.5,-129 702.5,-129"/>
<text text-anchor="middle" x="759" y="-136" font-family="Helvetica,sans-Serif" font-size="10.00">flutter/fml/macros.h</text>
</a>
</g>
</g>
<!-- Node22&#45;&gt;Node26 -->
<g id="edge38" class="edge">
<title>Node22&#45;&gt;Node26</title>
<path fill="none" stroke="midnightblue" d="M1265.69,-200.55C1174.04,-193.7 987.02,-178.03 830,-154 822.56,-152.86 814.73,-151.46 807.08,-149.99"/>
<polygon fill="midnightblue" stroke="midnightblue" points="807.69,-146.54 797.2,-148.02 806.32,-153.41 807.69,-146.54"/>
</g>
<!-- Node27 -->
<g id="node27" class="node">
<title>Node27</title>
<g id="a_node27"><a xlink:title=" ">
<polygon fill="white" stroke="#bfbfbf" points="872,-129 872,-148 994,-148 994,-129 872,-129"/>
<text text-anchor="middle" x="933" y="-136" font-family="Helvetica,sans-Serif" font-size="10.00">rapidjson/document.h</text>
</a>
</g>
</g>
<!-- Node22&#45;&gt;Node27 -->
<g id="edge39" class="edge">
<title>Node22&#45;&gt;Node27</title>
<path fill="none" stroke="midnightblue" d="M1265.97,-196.45C1202.16,-187.09 1094.84,-170.77 1003,-154 996.36,-152.79 989.37,-151.43 982.5,-150.06"/>
<polygon fill="midnightblue" stroke="midnightblue" points="983.04,-146.6 972.55,-148.03 981.65,-153.46 983.04,-146.6"/>
</g>
<!-- Node28 -->
<g id="node28" class="node">
<title>Node28</title>
<g id="a_node28"><a xlink:title=" ">
<polygon fill="white" stroke="#bfbfbf" points="1616,-129 1616,-148 1766,-148 1766,-129 1616,-129"/>
<text text-anchor="middle" x="1691" y="-136" font-family="Helvetica,sans-Serif" font-size="10.00">xkbcommon/xkbcommon.h</text>
</a>
</g>
</g>
<!-- Node22&#45;&gt;Node28 -->
<g id="edge41" class="edge">
<title>Node22&#45;&gt;Node28</title>
<path fill="none" stroke="midnightblue" d="M1378.04,-194.63C1446.84,-182.51 1562.94,-162.06 1632.73,-149.76"/>
<polygon fill="midnightblue" stroke="midnightblue" points="1633.44,-153.19 1642.68,-148.01 1632.23,-146.3 1633.44,-153.19"/>
</g>
<!-- Node29&#45;&gt;Node3 -->
<g id="edge54" class="edge">
<title>Node29&#45;&gt;Node3</title>
<path fill="none" stroke="midnightblue" d="M1848.26,-190.82C1849.86,-190.53 1851.44,-190.26 1853,-190 1900.65,-182.21 2250.95,-187.2 2286,-154 2316.52,-125.1 2314.27,-71.74 2309.74,-40.68"/>
<polygon fill="midnightblue" stroke="midnightblue" points="2313.17,-39.99 2308.09,-30.7 2306.27,-41.13 2313.17,-39.99"/>
</g>
<!-- Node29&#45;&gt;Node4 -->
<g id="edge46" class="edge">
<title>Node29&#45;&gt;Node4</title>
<path fill="none" stroke="midnightblue" d="M1739.72,-201.71C1669.48,-196.98 1543.93,-184.69 1441,-154 1439.12,-153.44 1437.21,-152.78 1435.31,-152.06"/>
<polygon fill="midnightblue" stroke="midnightblue" points="1436.63,-148.82 1426.06,-148.11 1433.87,-155.26 1436.63,-148.82"/>
</g>
<!-- Node29&#45;&gt;Node5 -->
<g id="edge51" class="edge">
<title>Node29&#45;&gt;Node5</title>
<path fill="none" stroke="midnightblue" d="M1848.02,-200.08C1980.82,-189.23 2324.64,-161.11 2493.11,-147.34"/>
<polygon fill="midnightblue" stroke="midnightblue" points="2493.53,-150.82 2503.21,-146.51 2492.96,-143.84 2493.53,-150.82"/>
</g>
<!-- Node29&#45;&gt;Node11 -->
<g id="edge44" class="edge">
<title>Node29&#45;&gt;Node11</title>
<path fill="none" stroke="midnightblue" d="M1848.12,-192.44C1853.14,-191.53 1858.15,-190.7 1863,-190 2064.22,-161.04 2121.84,-203.59 2319,-154 2321.3,-153.42 2323.65,-152.69 2325.98,-151.88"/>
<polygon fill="midnightblue" stroke="midnightblue" points="2327.28,-155.12 2335.26,-148.15 2324.67,-148.63 2327.28,-155.12"/>
</g>
<!-- Node29&#45;&gt;Node12 -->
<g id="edge45" class="edge">
<title>Node29&#45;&gt;Node12</title>
<path fill="none" stroke="midnightblue" d="M1739.7,-202.49C1525.02,-194.48 744.66,-164.75 693,-154 689.92,-153.36 686.76,-152.5 683.64,-151.52"/>
<polygon fill="midnightblue" stroke="midnightblue" points="684.57,-148.14 673.97,-148.1 682.23,-154.74 684.57,-148.14"/>
</g>
<!-- Node29&#45;&gt;Node17 -->
<g id="edge56" class="edge">
<title>Node29&#45;&gt;Node17</title>
<path fill="none" stroke="midnightblue" d="M1795.25,-190.21C1796,-171.67 1794.15,-139.72 1775,-123 1742.78,-94.88 1456.09,-82.98 1341.77,-79.32"/>
<polygon fill="midnightblue" stroke="midnightblue" points="1341.68,-75.82 1331.57,-79 1341.46,-82.81 1341.68,-75.82"/>
</g>
<!-- Node29&#45;&gt;Node24 -->
<g id="edge47" class="edge">
<title>Node29&#45;&gt;Node24</title>
<path fill="none" stroke="midnightblue" d="M1739.69,-191.42C1689.62,-179.37 1616.16,-161.69 1569.21,-150.38"/>
<polygon fill="midnightblue" stroke="midnightblue" points="1569.86,-146.94 1559.32,-148 1568.22,-153.75 1569.86,-146.94"/>
</g>
<!-- Node29&#45;&gt;Node26 -->
<g id="edge50" class="edge">
<title>Node29&#45;&gt;Node26</title>
<path fill="none" stroke="midnightblue" d="M1739.83,-203.16C1596.47,-199.26 1195.31,-186.12 863,-154 850.33,-152.78 836.83,-151.14 823.9,-149.41"/>
<polygon fill="midnightblue" stroke="midnightblue" points="824.06,-145.9 813.68,-148.01 823.11,-152.83 824.06,-145.9"/>
</g>
<!-- Node29&#45;&gt;Node27 -->
<g id="edge53" class="edge">
<title>Node29&#45;&gt;Node27</title>
<path fill="none" stroke="midnightblue" d="M1739.56,-203.65C1610.88,-201.08 1278.13,-191.09 1003,-154 995.22,-152.95 987,-151.53 979.05,-150"/>
<polygon fill="midnightblue" stroke="midnightblue" points="979.66,-146.55 969.16,-148 978.27,-153.41 979.66,-146.55"/>
</g>
<!-- Node29&#45;&gt;Node28 -->
<g id="edge55" class="edge">
<title>Node29&#45;&gt;Node28</title>
<path fill="none" stroke="midnightblue" d="M1771.65,-190.4C1754.38,-179.5 1730.58,-164.48 1713.32,-153.58"/>
<polygon fill="midnightblue" stroke="midnightblue" points="1714.81,-150.38 1704.48,-148.01 1711.07,-156.3 1714.81,-150.38"/>
</g>
<!-- Node30 -->
<g id="node30" class="node">
<title>Node30</title>
<g id="a_node30"><a xlink:title=" ">
<polygon fill="white" stroke="#bfbfbf" points="1822.5,-129 1822.5,-148 1961.5,-148 1961.5,-129 1822.5,-129"/>
<text text-anchor="middle" x="1892" y="-136" font-family="Helvetica,sans-Serif" font-size="10.00">flutter/method_channel.h</text>
</a>
</g>
</g>
<!-- Node29&#45;&gt;Node30 -->
<g id="edge48" class="edge">
<title>Node29&#45;&gt;Node30</title>
<path fill="none" stroke="midnightblue" d="M1815.26,-190.4C1831.7,-179.5 1854.34,-164.48 1870.77,-153.58"/>
<polygon fill="midnightblue" stroke="midnightblue" points="1872.78,-156.45 1879.17,-148.01 1868.91,-150.62 1872.78,-156.45"/>
</g>
<!-- Node31 -->
<g id="node31" class="node">
<title>Node31</title>
<g id="a_node31"><a xlink:title=" ">
<polygon fill="white" stroke="#bfbfbf" points="1979.5,-123.5 1979.5,-153.5 2098.5,-153.5 2098.5,-123.5 1979.5,-123.5"/>
<text text-anchor="start" x="1987.5" y="-141.5" font-family="Helvetica,sans-Serif" font-size="10.00">flutter/method_result</text>
<text text-anchor="middle" x="2039" y="-130.5" font-family="Helvetica,sans-Serif" font-size="10.00">_functions.h</text>
</a>
</g>
</g>
<!-- Node29&#45;&gt;Node31 -->
<g id="edge49" class="edge">
<title>Node29&#45;&gt;Node31</title>
<path fill="none" stroke="midnightblue" d="M1846.86,-190.48C1884.73,-180.43 1935.89,-166.86 1975.9,-156.24"/>
<polygon fill="midnightblue" stroke="midnightblue" points="1977.04,-159.56 1985.81,-153.61 1975.25,-152.79 1977.04,-159.56"/>
</g>
<!-- Node32 -->
<g id="node32" class="node">
<title>Node32</title>
<g id="a_node32"><a xlink:title=" ">
<polygon fill="white" stroke="#bfbfbf" points="2117,-123.5 2117,-153.5 2277,-153.5 2277,-123.5 2117,-123.5"/>
<text text-anchor="start" x="2125" y="-141.5" font-family="Helvetica,sans-Serif" font-size="10.00">flutter/shell/platform</text>
<text text-anchor="middle" x="2197" y="-130.5" font-family="Helvetica,sans-Serif" font-size="10.00">/common/text_input_model.h</text>
</a>
</g>
</g>
<!-- Node29&#45;&gt;Node32 -->
<g id="edge52" class="edge">
<title>Node29&#45;&gt;Node32</title>
<path fill="none" stroke="midnightblue" d="M1848.18,-192.79C1853.18,-191.8 1858.18,-190.86 1863,-190 1968.17,-171.24 1997.54,-170.86 2106.84,-154.16"/>
<polygon fill="midnightblue" stroke="midnightblue" points="2107.6,-157.58 2116.96,-152.6 2106.54,-150.66 2107.6,-157.58"/>
</g>
<!-- Node33&#45;&gt;Node11 -->
<g id="edge58" class="edge">
<title>Node33&#45;&gt;Node11</title>
<path fill="none" stroke="midnightblue" d="M866.62,-265.32C1068.04,-262.6 1762.48,-251.09 1857,-221 1881.2,-213.3 1880.98,-198.23 1905,-190 2079.72,-130.14 2140.06,-199.76 2319,-154 2321.3,-153.41 2323.65,-152.68 2325.97,-151.86"/>
<polygon fill="midnightblue" stroke="midnightblue" points="2327.28,-155.1 2335.25,-148.12 2324.67,-148.61 2327.28,-155.1"/>
</g>
<!-- Node33&#45;&gt;Node12 -->
<g id="edge59" class="edge">
<title>Node33&#45;&gt;Node12</title>
<path fill="none" stroke="midnightblue" d="M801.21,-257.31C774.88,-236.09 707.08,-181.46 673.88,-154.72"/>
<polygon fill="midnightblue" stroke="midnightblue" points="675.85,-151.8 665.87,-148.26 671.46,-157.26 675.85,-151.8"/>
</g>
<!-- Node33&#45;&gt;Node26 -->
<g id="edge65" class="edge">
<title>Node33&#45;&gt;Node26</title>
<path fill="none" stroke="midnightblue" d="M803.75,-257.42C795.98,-248.87 784.56,-235.01 778,-221 768.59,-200.9 763.64,-175.77 761.19,-158.77"/>
<polygon fill="midnightblue" stroke="midnightblue" points="764.61,-157.93 759.86,-148.46 757.66,-158.83 764.61,-157.93"/>
</g>
<!-- Node34 -->
<g id="node34" class="node">
<title>Node34</title>
<g id="a_node34"><a xlink:href="configuration_8h.html" target="_top" xlink:title=" ">
<polygon fill="white" stroke="black" points="787,-196 787,-215 943,-215 943,-196 787,-196"/>
<text text-anchor="middle" x="865" y="-203" font-family="Helvetica,sans-Serif" font-size="10.00">configuration/configuration.h</text>
</a>
</g>
</g>
<!-- Node33&#45;&gt;Node34 -->
<g id="edge60" class="edge">
<title>Node33&#45;&gt;Node34</title>
<path fill="none" stroke="midnightblue" d="M819.59,-257.48C827.7,-248.37 840.73,-233.74 850.76,-222.48"/>
<polygon fill="midnightblue" stroke="midnightblue" points="853.38,-224.8 857.42,-215.01 848.16,-220.15 853.38,-224.8"/>
</g>
<!-- Node35 -->
<g id="node35" class="node">
<title>Node35</title>
<g id="a_node35"><a xlink:href="window_8h.html" target="_top" xlink:title=" ">
<polygon fill="white" stroke="black" points="428.5,-196 428.5,-215 535.5,-215 535.5,-196 428.5,-196"/>
<text text-anchor="middle" x="482" y="-203" font-family="Helvetica,sans-Serif" font-size="10.00">wayland/window.h</text>
</a>
</g>
</g>
<!-- Node33&#45;&gt;Node35 -->
<g id="edge66" class="edge">
<title>Node33&#45;&gt;Node35</title>
<path fill="none" stroke="midnightblue" d="M764.72,-257.48C705.17,-246.74 602.94,-228.31 539.1,-216.79"/>
<polygon fill="midnightblue" stroke="midnightblue" points="539.66,-213.34 529.19,-215.01 538.41,-220.23 539.66,-213.34"/>
</g>
<!-- Node34&#45;&gt;Node4 -->
<g id="edge61" class="edge">
<title>Node34&#45;&gt;Node4</title>
<path fill="none" stroke="midnightblue" d="M943.23,-198.65C1037.82,-191.01 1201.66,-175.97 1341,-154 1353.03,-152.1 1366.14,-149.49 1377.67,-147"/>
<polygon fill="midnightblue" stroke="midnightblue" points="1378.72,-150.35 1387.73,-144.78 1377.21,-143.52 1378.72,-150.35"/>
</g>
<!-- Node34&#45;&gt;Node15 -->
<g id="edge62" class="edge">
<title>Node34&#45;&gt;Node15</title>
<path fill="none" stroke="midnightblue" d="M805.22,-195.99C754.41,-187.9 679.92,-173.98 617,-154 615.08,-153.39 613.11,-152.7 611.15,-151.97"/>
<polygon fill="midnightblue" stroke="midnightblue" points="612.12,-148.58 601.54,-148.04 609.47,-155.06 612.12,-148.58"/>
</g>
<!-- Node34&#45;&gt;Node26 -->
<g id="edge63" class="edge">
<title>Node34&#45;&gt;Node26</title>
<path fill="none" stroke="midnightblue" d="M850.7,-195.73C832.98,-184.87 802.57,-166.22 781.66,-153.39"/>
<polygon fill="midnightblue" stroke="midnightblue" points="783.42,-150.37 773.07,-148.13 779.76,-156.34 783.42,-150.37"/>
</g>
<!-- Node34&#45;&gt;Node27 -->
<g id="edge64" class="edge">
<title>Node34&#45;&gt;Node27</title>
<path fill="none" stroke="midnightblue" d="M874.17,-195.73C884.98,-185.4 903.15,-168.04 916.44,-155.33"/>
<polygon fill="midnightblue" stroke="midnightblue" points="919.16,-157.57 923.97,-148.13 914.33,-152.51 919.16,-157.57"/>
</g>
<!-- Node35&#45;&gt;Node4 -->
<g id="edge68" class="edge">
<title>Node35&#45;&gt;Node4</title>
<path fill="none" stroke="midnightblue" d="M535.53,-201.82C710.9,-192.96 1261.5,-164.63 1341,-154 1353.08,-152.39 1366.19,-149.83 1377.71,-147.32"/>
<polygon fill="midnightblue" stroke="midnightblue" points="1378.79,-150.66 1387.77,-145.05 1377.25,-143.84 1378.79,-150.66"/>
</g>
<!-- Node35&#45;&gt;Node12 -->
<g id="edge67" class="edge">
<title>Node35&#45;&gt;Node12</title>
<path fill="none" stroke="midnightblue" d="M504.97,-195.87C535.17,-184.52 588.4,-164.52 622.66,-151.65"/>
<polygon fill="midnightblue" stroke="midnightblue" points="624.08,-154.86 632.21,-148.06 621.62,-148.3 624.08,-154.86"/>
</g>
<!-- Node35&#45;&gt;Node16 -->
<g id="edge72" class="edge">
<title>Node35&#45;&gt;Node16</title>
<path fill="none" stroke="midnightblue" d="M428.26,-198.47C357.21,-190.16 228.23,-173.93 119,-154 112.82,-152.87 106.34,-151.56 99.96,-150.19"/>
<polygon fill="midnightblue" stroke="midnightblue" points="100.62,-146.75 90.1,-148.01 99.11,-153.59 100.62,-146.75"/>
</g>
<!-- Node35&#45;&gt;Node17 -->
<g id="edge71" class="edge">
<title>Node35&#45;&gt;Node17</title>
<path fill="none" stroke="midnightblue" d="M486.24,-195.85C495.32,-178.4 518.51,-139.27 551,-123 613.14,-91.88 1094.86,-81.3 1248.25,-78.7"/>
<polygon fill="midnightblue" stroke="midnightblue" points="1248.35,-82.2 1258.29,-78.54 1248.24,-75.2 1248.35,-82.2"/>
</g>
<!-- Node36 -->
<g id="node36" class="node">
<title>Node36</title>
<g id="a_node36"><a xlink:title=" ">
<polygon fill="white" stroke="#bfbfbf" points="128,-129 128,-148 180,-148 180,-129 128,-129"/>
<text text-anchor="middle" x="154" y="-136" font-family="Helvetica,sans-Serif" font-size="10.00">cassert</text>
</a>
</g>
</g>
<!-- Node35&#45;&gt;Node36 -->
<g id="edge69" class="edge">
<title>Node35&#45;&gt;Node36</title>
<path fill="none" stroke="midnightblue" d="M428.27,-198.87C368.88,-191.81 270.81,-177.68 189,-154 186.71,-153.34 184.36,-152.57 182.02,-151.74"/>
<polygon fill="midnightblue" stroke="midnightblue" points="183.21,-148.45 172.62,-148.11 180.68,-154.98 183.21,-148.45"/>
</g>
<!-- Node37 -->
<g id="node37" class="node">
<title>Node37</title>
<g id="a_node37"><a xlink:title=" ">
<polygon fill="white" stroke="#bfbfbf" points="198,-129 198,-148 340,-148 340,-129 198,-129"/>
<text text-anchor="middle" x="269" y="-136" font-family="Helvetica,sans-Serif" font-size="10.00">agl&#45;shell&#45;client&#45;protocol.h</text>
</a>
</g>
</g>
<!-- Node35&#45;&gt;Node37 -->
<g id="edge70" class="edge">
<title>Node35&#45;&gt;Node37</title>
<path fill="none" stroke="midnightblue" d="M453.72,-195.87C415.89,-184.33 348.75,-163.84 306.67,-151"/>
<polygon fill="midnightblue" stroke="midnightblue" points="307.65,-147.63 297.06,-148.06 305.61,-154.33 307.65,-147.63"/>
</g>
<!-- Node38 -->
<g id="node38" class="node">
<title>Node38</title>
<g id="a_node38"><a xlink:title=" ">
<polygon fill="white" stroke="#bfbfbf" points="358.5,-129 358.5,-148 503.5,-148 503.5,-129 358.5,-129"/>
<text text-anchor="middle" x="431" y="-136" font-family="Helvetica,sans-Serif" font-size="10.00">xdg&#45;shell&#45;client&#45;protocol.h</text>
</a>
</g>
</g>
<!-- Node35&#45;&gt;Node38 -->
<g id="edge73" class="edge">
<title>Node35&#45;&gt;Node38</title>
<path fill="none" stroke="midnightblue" d="M475.12,-195.73C467.17,-185.6 453.9,-168.69 443.99,-156.06"/>
<polygon fill="midnightblue" stroke="midnightblue" points="446.7,-153.83 437.77,-148.13 441.19,-158.16 446.7,-153.83"/>
</g>
</g>
</svg>
