<?xml version="1.0" encoding="UTF-8" standalone="no"?>
<!DOCTYPE svg PUBLIC "-//W3C//DTD SVG 1.1//EN"
 "http://www.w3.org/Graphics/SVG/1.1/DTD/svg11.dtd">
<!-- Generated by graphviz version 5.0.0 (0)
 -->
<!-- Title: /mnt/raid10/stargate/ivi&#45;homescreen/shell/static_plugins/gstreamer_egl/nv12.h Pages: 1 -->
<svg width="2993pt" height="489pt"
 viewBox="0.00 0.00 2993.00 489.00" xmlns="http://www.w3.org/2000/svg" xmlns:xlink="http://www.w3.org/1999/xlink">
<g id="graph0" class="graph" transform="scale(1 1) rotate(0) translate(4 485)">
<title>/mnt/raid10/stargate/ivi&#45;homescreen/shell/static_plugins/gstreamer_egl/nv12.h</title>
<!-- Node1 -->
<g id="node1" class="node">
<title>Node1</title>
<g id="a_node1"><a xlink:title=" ">
<polygon fill="#999999" stroke="#666666" points="2502,-481 2376,-481 2376,-429 2502,-429 2502,-481"/>
<text text-anchor="start" x="2384" y="-469" font-family="Helvetica,sans-Serif" font-size="10.00">/mnt/raid10/stargate</text>
<text text-anchor="start" x="2384" y="-458" font-family="Helvetica,sans-Serif" font-size="10.00">/ivi&#45;homescreen/shell</text>
<text text-anchor="start" x="2384" y="-447" font-family="Helvetica,sans-Serif" font-size="10.00">/static_plugins/gstreamer</text>
<text text-anchor="middle" x="2439" y="-436" font-family="Helvetica,sans-Serif" font-size="10.00">_egl/nv12.h</text>
</a>
</g>
</g>
<!-- Node2 -->
<g id="node2" class="node">
<title>Node2</title>
<g id="a_node2"><a xlink:href="window_8h.html" target="_top" xlink:title=" ">
<polygon fill="white" stroke="#666666" points="2436,-393 2340,-393 2340,-374 2436,-374 2436,-393"/>
<text text-anchor="middle" x="2388" y="-381" font-family="Helvetica,sans-Serif" font-size="10.00">wayland/window.h</text>
</a>
</g>
</g>
<!-- Node1&#45;&gt;Node2 -->
<g id="edge1" class="edge">
<title>Node1&#45;&gt;Node2</title>
<path fill="none" stroke="#63b8ff" d="M2420.59,-428.91C2413.88,-419.77 2406.47,-409.67 2400.41,-401.41"/>
<polygon fill="#63b8ff" stroke="#63b8ff" points="2403.2,-399.29 2394.46,-393.3 2397.55,-403.44 2403.2,-399.29"/>
</g>
<!-- Node44 -->
<g id="node44" class="node">
<title>Node44</title>
<g id="a_node44"><a xlink:title=" ">
<polygon fill="#e0e0e0" stroke="#999999" points="2526,-393 2454,-393 2454,-374 2526,-374 2526,-393"/>
<text text-anchor="middle" x="2490" y="-381" font-family="Helvetica,sans-Serif" font-size="10.00">GLES3/gl3.h</text>
</a>
</g>
</g>
<!-- Node1&#45;&gt;Node44 -->
<g id="edge78" class="edge">
<title>Node1&#45;&gt;Node44</title>
<path fill="none" stroke="#63b8ff" d="M2457.41,-428.91C2464.12,-419.77 2471.53,-409.67 2477.59,-401.41"/>
<polygon fill="#63b8ff" stroke="#63b8ff" points="2480.45,-403.44 2483.54,-393.3 2474.8,-399.29 2480.45,-403.44"/>
</g>
<!-- Node3 -->
<g id="node3" class="node">
<title>Node3</title>
<g id="a_node3"><a xlink:title=" ">
<polygon fill="#e0e0e0" stroke="#999999" points="512,-145.5 460,-145.5 460,-126.5 512,-126.5 512,-145.5"/>
<text text-anchor="middle" x="486" y="-133.5" font-family="Helvetica,sans-Serif" font-size="10.00">memory</text>
</a>
</g>
</g>
<!-- Node2&#45;&gt;Node3 -->
<g id="edge2" class="edge">
<title>Node2&#45;&gt;Node3</title>
<path fill="none" stroke="#63b8ff" d="M2339.92,-381.58C2199.26,-378.62 1776.48,-367.71 1427,-338 1209.24,-319.49 595.72,-380.77 451,-217 434.52,-198.35 453.56,-170.73 469.35,-153.31"/>
<polygon fill="#63b8ff" stroke="#63b8ff" points="472.28,-155.3 476.67,-145.66 467.23,-150.46 472.28,-155.3"/>
</g>
<!-- Node4 -->
<g id="node4" class="node">
<title>Node4</title>
<g id="a_node4"><a xlink:title=" ">
<polygon fill="#e0e0e0" stroke="#999999" points="1145.5,-79.5 1104.5,-79.5 1104.5,-60.5 1145.5,-60.5 1145.5,-79.5"/>
<text text-anchor="middle" x="1125" y="-67.5" font-family="Helvetica,sans-Serif" font-size="10.00">string</text>
</a>
</g>
</g>
<!-- Node2&#45;&gt;Node4 -->
<g id="edge3" class="edge">
<title>Node2&#45;&gt;Node4</title>
<path fill="none" stroke="#63b8ff" d="M2339.96,-382.18C2053.9,-379.8 582.83,-360.57 451,-217 422.14,-185.57 421.82,-152.13 451,-121 493.49,-75.68 947.14,-90.72 1009,-85 1037.9,-82.33 1070.73,-78.27 1094.07,-75.21"/>
<polygon fill="#63b8ff" stroke="#63b8ff" points="1094.63,-78.66 1104.08,-73.88 1093.71,-71.73 1094.63,-78.66"/>
</g>
<!-- Node5 -->
<g id="node5" class="node">
<title>Node5</title>
<g id="a_node5"><a xlink:title=" ">
<polygon fill="#e0e0e0" stroke="#999999" points="2439.5,-332.5 2390.5,-332.5 2390.5,-313.5 2439.5,-313.5 2439.5,-332.5"/>
<text text-anchor="middle" x="2415" y="-320.5" font-family="Helvetica,sans-Serif" font-size="10.00">cassert</text>
</a>
</g>
</g>
<!-- Node2&#45;&gt;Node5 -->
<g id="edge4" class="edge">
<title>Node2&#45;&gt;Node5</title>
<path fill="none" stroke="#63b8ff" d="M2391.98,-373.87C2395.85,-365.49 2401.84,-352.51 2406.74,-341.89"/>
<polygon fill="#63b8ff" stroke="#63b8ff" points="2409.99,-343.21 2411,-332.67 2403.63,-340.28 2409.99,-343.21"/>
</g>
<!-- Node6 -->
<g id="node6" class="node">
<title>Node6</title>
<g id="a_node6"><a xlink:title=" ">
<polygon fill="#e0e0e0" stroke="#999999" points="2582.5,-332.5 2457.5,-332.5 2457.5,-313.5 2582.5,-313.5 2582.5,-332.5"/>
<text text-anchor="middle" x="2520" y="-320.5" font-family="Helvetica,sans-Serif" font-size="10.00">agl&#45;shell&#45;client&#45;protocol.h</text>
</a>
</g>
</g>
<!-- Node2&#45;&gt;Node6 -->
<g id="edge5" class="edge">
<title>Node2&#45;&gt;Node6</title>
<path fill="none" stroke="#63b8ff" d="M2407.19,-373.99C2429.39,-364.16 2466.12,-347.88 2491.62,-336.58"/>
<polygon fill="#63b8ff" stroke="#63b8ff" points="2493.06,-339.77 2500.78,-332.52 2490.22,-333.37 2493.06,-339.77"/>
</g>
<!-- Node7 -->
<g id="node7" class="node">
<title>Node7</title>
<g id="a_node7"><a xlink:href="constants_8h.html" target="_top" xlink:title=" ">
<polygon fill="white" stroke="#666666" points="2362,-145.5 2294,-145.5 2294,-126.5 2362,-126.5 2362,-145.5"/>
<text text-anchor="middle" x="2328" y="-133.5" font-family="Helvetica,sans-Serif" font-size="10.00">constants.h</text>
</a>
</g>
</g>
<!-- Node2&#45;&gt;Node7 -->
<g id="edge6" class="edge">
<title>Node2&#45;&gt;Node7</title>
<path fill="none" stroke="#63b8ff" d="M2385.86,-373.76C2377.21,-338.34 2344.61,-204.98 2332.54,-155.57"/>
<polygon fill="#63b8ff" stroke="#63b8ff" points="2335.88,-154.52 2330.11,-145.63 2329.08,-156.18 2335.88,-154.52"/>
</g>
<!-- Node11 -->
<g id="node11" class="node">
<title>Node11</title>
<g id="a_node11"><a xlink:href="backend_8h.html" target="_top" xlink:title=" ">
<polygon fill="white" stroke="#666666" points="2316.5,-332.5 2215.5,-332.5 2215.5,-313.5 2316.5,-313.5 2316.5,-332.5"/>
<text text-anchor="middle" x="2266" y="-320.5" font-family="Helvetica,sans-Serif" font-size="10.00">backend/backend.h</text>
</a>
</g>
</g>
<!-- Node2&#45;&gt;Node11 -->
<g id="edge10" class="edge">
<title>Node2&#45;&gt;Node11</title>
<path fill="none" stroke="#63b8ff" d="M2370.26,-373.99C2349.93,-364.25 2316.39,-348.16 2292.86,-336.88"/>
<polygon fill="#63b8ff" stroke="#63b8ff" points="2294.29,-333.68 2283.76,-332.52 2291.26,-340 2294.29,-333.68"/>
</g>
<!-- Node41 -->
<g id="node41" class="node">
<title>Node41</title>
<g id="a_node41"><a xlink:title=" ">
<polygon fill="#e0e0e0" stroke="#999999" points="2703,-338 2601,-338 2601,-308 2703,-308 2703,-338"/>
<text text-anchor="start" x="2609" y="-326" font-family="Helvetica,sans-Serif" font-size="10.00">ivi&#45;application&#45;client</text>
<text text-anchor="middle" x="2652" y="-315" font-family="Helvetica,sans-Serif" font-size="10.00">&#45;protocol.h</text>
</a>
</g>
</g>
<!-- Node2&#45;&gt;Node41 -->
<g id="edge75" class="edge">
<title>Node2&#45;&gt;Node41</title>
<path fill="none" stroke="#63b8ff" d="M2427.91,-373.97C2466.97,-365.59 2528.43,-352.29 2590.91,-338.23"/>
<polygon fill="#63b8ff" stroke="#63b8ff" points="2591.96,-341.58 2600.95,-335.96 2590.42,-334.75 2591.96,-341.58"/>
</g>
<!-- Node42 -->
<g id="node42" class="node">
<title>Node42</title>
<g id="a_node42"><a xlink:title=" ">
<polygon fill="#e0e0e0" stroke="#999999" points="2838.5,-332.5 2721.5,-332.5 2721.5,-313.5 2838.5,-313.5 2838.5,-332.5"/>
<text text-anchor="middle" x="2780" y="-320.5" font-family="Helvetica,sans-Serif" font-size="10.00">ivi&#45;wm&#45;client&#45;protocol.h</text>
</a>
</g>
</g>
<!-- Node2&#45;&gt;Node42 -->
<g id="edge76" class="edge">
<title>Node2&#45;&gt;Node42</title>
<path fill="none" stroke="#63b8ff" d="M2436.2,-375.26C2439.17,-374.83 2442.13,-374.41 2445,-374 2563.55,-357.17 2593.96,-358.08 2712,-338 2718.16,-336.95 2724.61,-335.75 2730.99,-334.51"/>
<polygon fill="#63b8ff" stroke="#63b8ff" points="2731.77,-337.92 2740.89,-332.53 2730.4,-331.06 2731.77,-337.92"/>
</g>
<!-- Node43 -->
<g id="node43" class="node">
<title>Node43</title>
<g id="a_node43"><a xlink:title=" ">
<polygon fill="#e0e0e0" stroke="#999999" points="2985,-332.5 2857,-332.5 2857,-313.5 2985,-313.5 2985,-332.5"/>
<text text-anchor="middle" x="2921" y="-320.5" font-family="Helvetica,sans-Serif" font-size="10.00">xdg&#45;shell&#45;client&#45;protocol.h</text>
</a>
</g>
</g>
<!-- Node2&#45;&gt;Node43 -->
<g id="edge77" class="edge">
<title>Node2&#45;&gt;Node43</title>
<path fill="none" stroke="#63b8ff" d="M2436.18,-375.11C2439.16,-374.72 2442.12,-374.34 2445,-374 2623.56,-352.73 2669.92,-362.97 2848,-338 2855.38,-336.97 2863.14,-335.69 2870.73,-334.33"/>
<polygon fill="#63b8ff" stroke="#63b8ff" points="2871.38,-337.76 2880.58,-332.5 2870.11,-330.88 2871.38,-337.76"/>
</g>
<!-- Node8 -->
<g id="node8" class="node">
<title>Node8</title>
<g id="a_node8"><a xlink:title=" ">
<polygon fill="#e0e0e0" stroke="#999999" points="2420,-79.5 2360,-79.5 2360,-60.5 2420,-60.5 2420,-79.5"/>
<text text-anchor="middle" x="2390" y="-67.5" font-family="Helvetica,sans-Serif" font-size="10.00">EGL/egl.h</text>
</a>
</g>
</g>
<!-- Node7&#45;&gt;Node8 -->
<g id="edge7" class="edge">
<title>Node7&#45;&gt;Node8</title>
<path fill="none" stroke="#63b8ff" d="M2336.36,-126.37C2346.01,-116.4 2362.11,-99.79 2374.15,-87.36"/>
<polygon fill="#63b8ff" stroke="#63b8ff" points="2376.93,-89.52 2381.37,-79.91 2371.9,-84.65 2376.93,-89.52"/>
</g>
<!-- Node9 -->
<g id="node9" class="node">
<title>Node9</title>
<g id="a_node9"><a xlink:title=" ">
<polygon fill="#e0e0e0" stroke="#999999" points="2267.5,-85 2146.5,-85 2146.5,-55 2267.5,-55 2267.5,-85"/>
<text text-anchor="start" x="2154.5" y="-73" font-family="Helvetica,sans-Serif" font-size="10.00">shell/platform/embedder</text>
<text text-anchor="middle" x="2207" y="-62" font-family="Helvetica,sans-Serif" font-size="10.00">/embedder.h</text>
</a>
</g>
</g>
<!-- Node7&#45;&gt;Node9 -->
<g id="edge8" class="edge">
<title>Node7&#45;&gt;Node9</title>
<path fill="none" stroke="#63b8ff" d="M2311.68,-126.37C2294.11,-117.07 2265.59,-101.99 2242.76,-89.91"/>
<polygon fill="#63b8ff" stroke="#63b8ff" points="2244.16,-86.7 2233.69,-85.12 2240.89,-92.89 2244.16,-86.7"/>
</g>
<!-- Node10 -->
<g id="node10" class="node">
<title>Node10</title>
<g id="a_node10"><a xlink:title=" ">
<polygon fill="#e0e0e0" stroke="#999999" points="2342,-79.5 2304,-79.5 2304,-60.5 2342,-60.5 2342,-79.5"/>
<text text-anchor="middle" x="2323" y="-67.5" font-family="Helvetica,sans-Serif" font-size="10.00">array</text>
</a>
</g>
</g>
<!-- Node7&#45;&gt;Node10 -->
<g id="edge9" class="edge">
<title>Node7&#45;&gt;Node10</title>
<path fill="none" stroke="#63b8ff" d="M2327.33,-126.37C2326.6,-117.07 2325.42,-101.98 2324.48,-89.9"/>
<polygon fill="#63b8ff" stroke="#63b8ff" points="2327.96,-89.6 2323.7,-79.91 2320.99,-90.15 2327.96,-89.6"/>
</g>
<!-- Node11&#45;&gt;Node7 -->
<g id="edge12" class="edge">
<title>Node11&#45;&gt;Node7</title>
<path fill="none" stroke="#63b8ff" d="M2268.99,-313.08C2278.59,-284.44 2308.74,-194.48 2321.83,-155.41"/>
<polygon fill="#63b8ff" stroke="#63b8ff" points="2325.18,-156.43 2325.04,-145.83 2318.54,-154.2 2325.18,-156.43"/>
</g>
<!-- Node11&#45;&gt;Node9 -->
<g id="edge11" class="edge">
<title>Node11&#45;&gt;Node9</title>
<path fill="none" stroke="#63b8ff" d="M2265.36,-313.36C2263.65,-291.8 2258.29,-233.95 2247,-187 2239.11,-154.16 2225.65,-117.51 2216.55,-94.36"/>
<polygon fill="#63b8ff" stroke="#63b8ff" points="2219.78,-93.02 2212.82,-85.02 2213.28,-95.61 2219.78,-93.02"/>
</g>
<!-- Node12 -->
<g id="node12" class="node">
<title>Node12</title>
<g id="a_node12"><a xlink:href="engine_8h.html" target="_top" xlink:title=" ">
<polygon fill="white" stroke="#666666" points="1767.5,-272 1714.5,-272 1714.5,-253 1767.5,-253 1767.5,-272"/>
<text text-anchor="middle" x="1741" y="-260" font-family="Helvetica,sans-Serif" font-size="10.00">engine.h</text>
</a>
</g>
</g>
<!-- Node11&#45;&gt;Node12 -->
<g id="edge13" class="edge">
<title>Node11&#45;&gt;Node12</title>
<path fill="none" stroke="#63b8ff" d="M2215.36,-316.81C2109.95,-305.47 1869.49,-278.67 1777.56,-268"/>
<polygon fill="#63b8ff" stroke="#63b8ff" points="1777.94,-264.52 1767.6,-266.84 1777.13,-271.47 1777.94,-264.52"/>
</g>
<!-- Node12&#45;&gt;Node3 -->
<g id="edge21" class="edge">
<title>Node12&#45;&gt;Node3</title>
<path fill="none" stroke="#63b8ff" d="M1714.44,-261.65C1570.65,-262.27 884.25,-262.76 678,-217 614.84,-202.99 546.05,-169.41 510.44,-150.51"/>
<polygon fill="#63b8ff" stroke="#63b8ff" points="511.77,-147.25 501.31,-145.6 508.46,-153.42 511.77,-147.25"/>
</g>
<!-- Node12&#45;&gt;Node4 -->
<g id="edge24" class="edge">
<title>Node12&#45;&gt;Node4</title>
<path fill="none" stroke="#63b8ff" d="M1714.31,-260.74C1635.52,-257.5 1398.84,-240.43 1230,-151 1210.98,-140.93 1209.07,-134.1 1192,-121 1176.32,-108.97 1158.37,-95.59 1144.99,-85.7"/>
<polygon fill="#63b8ff" stroke="#63b8ff" points="1147.06,-82.87 1136.93,-79.75 1142.9,-88.51 1147.06,-82.87"/>
</g>
<!-- Node12&#45;&gt;Node7 -->
<g id="edge27" class="edge">
<title>Node12&#45;&gt;Node7</title>
<path fill="none" stroke="#63b8ff" d="M1767.55,-261.51C1859.06,-261.19 2160.47,-257.05 2247,-217 2277.06,-203.09 2302.47,-173.11 2316.44,-154.06"/>
<polygon fill="#63b8ff" stroke="#63b8ff" points="2319.44,-155.89 2322.35,-145.7 2313.72,-151.85 2319.44,-155.89"/>
</g>
<!-- Node12&#45;&gt;Node8 -->
<g id="edge15" class="edge">
<title>Node12&#45;&gt;Node8</title>
<path fill="none" stroke="#63b8ff" d="M1767.74,-261.19C1862.87,-259.78 2184.36,-252.45 2280,-217 2326.85,-199.64 2343.28,-192.56 2371,-151 2383.23,-132.67 2387.62,-107.35 2389.18,-90.14"/>
<polygon fill="#63b8ff" stroke="#63b8ff" points="2392.7,-89.92 2389.86,-79.71 2385.71,-89.46 2392.7,-89.92"/>
</g>
<!-- Node12&#45;&gt;Node9 -->
<g id="edge18" class="edge">
<title>Node12&#45;&gt;Node9</title>
<path fill="none" stroke="#63b8ff" d="M1736.16,-252.82C1728.29,-237.41 1715.19,-205.17 1732,-187 1801.62,-111.72 2115.72,-219.51 2192,-151 2207.22,-137.33 2210.02,-113.54 2209.59,-95.44"/>
<polygon fill="#63b8ff" stroke="#63b8ff" points="2213.07,-95.09 2209,-85.31 2206.08,-95.49 2213.07,-95.09"/>
</g>
<!-- Node12&#45;&gt;Node11 -->
<g id="edge26" class="edge">
<title>Node12&#45;&gt;Node11</title>
<path fill="none" stroke="#63b8ff" d="M1767.59,-266.13C1848.25,-274.63 2090.77,-301.59 2205.15,-314.7"/>
<polygon fill="#63b8ff" stroke="#63b8ff" points="2204.81,-318.19 2215.15,-315.85 2205.61,-311.23 2204.81,-318.19"/>
</g>
<!-- Node13 -->
<g id="node13" class="node">
<title>Node13</title>
<g id="a_node13"><a xlink:title=" ">
<polygon fill="#e0e0e0" stroke="#999999" points="1799.5,-211.5 1740.5,-211.5 1740.5,-192.5 1799.5,-192.5 1799.5,-211.5"/>
<text text-anchor="middle" x="1770" y="-199.5" font-family="Helvetica,sans-Serif" font-size="10.00">functional</text>
</a>
</g>
</g>
<!-- Node12&#45;&gt;Node13 -->
<g id="edge14" class="edge">
<title>Node12&#45;&gt;Node13</title>
<path fill="none" stroke="#63b8ff" d="M1745.28,-252.87C1749.43,-244.49 1755.87,-231.51 1761.13,-220.89"/>
<polygon fill="#63b8ff" stroke="#63b8ff" points="1764.4,-222.18 1765.7,-211.67 1758.13,-219.07 1764.4,-222.18"/>
</g>
<!-- Node14 -->
<g id="node14" class="node">
<title>Node14</title>
<g id="a_node14"><a xlink:title=" ">
<polygon fill="#e0e0e0" stroke="#999999" points="1890,-211.5 1818,-211.5 1818,-192.5 1890,-192.5 1890,-211.5"/>
<text text-anchor="middle" x="1854" y="-199.5" font-family="Helvetica,sans-Serif" font-size="10.00">GLES2/gl2.h</text>
</a>
</g>
</g>
<!-- Node12&#45;&gt;Node14 -->
<g id="edge16" class="edge">
<title>Node12&#45;&gt;Node14</title>
<path fill="none" stroke="#63b8ff" d="M1757.67,-252.87C1776.28,-243.23 1806.62,-227.53 1828.28,-216.31"/>
<polygon fill="#63b8ff" stroke="#63b8ff" points="1829.99,-219.37 1837.26,-211.67 1826.77,-213.16 1829.99,-219.37"/>
</g>
<!-- Node15 -->
<g id="node15" class="node">
<title>Node15</title>
<g id="a_node15"><a xlink:title=" ">
<polygon fill="#e0e0e0" stroke="#999999" points="2033.5,-211.5 1908.5,-211.5 1908.5,-192.5 2033.5,-192.5 2033.5,-211.5"/>
<text text-anchor="middle" x="1971" y="-199.5" font-family="Helvetica,sans-Serif" font-size="10.00">flutter/encodable_value.h</text>
</a>
</g>
</g>
<!-- Node12&#45;&gt;Node15 -->
<g id="edge17" class="edge">
<title>Node12&#45;&gt;Node15</title>
<path fill="none" stroke="#63b8ff" d="M1767.83,-254.67C1807.03,-244.71 1880.36,-226.05 1927.37,-214.1"/>
<polygon fill="#63b8ff" stroke="#63b8ff" points="1928.44,-217.44 1937.27,-211.58 1926.72,-210.65 1928.44,-217.44"/>
</g>
<!-- Node16 -->
<g id="node16" class="node">
<title>Node16</title>
<g id="a_node16"><a xlink:title=" ">
<polygon fill="#e0e0e0" stroke="#999999" points="2114,-211.5 2052,-211.5 2052,-192.5 2114,-192.5 2114,-211.5"/>
<text text-anchor="middle" x="2083" y="-199.5" font-family="Helvetica,sans-Serif" font-size="10.00">filesystem</text>
</a>
</g>
</g>
<!-- Node12&#45;&gt;Node16 -->
<g id="edge19" class="edge">
<title>Node12&#45;&gt;Node16</title>
<path fill="none" stroke="#63b8ff" d="M1767.58,-259.3C1820.58,-254.53 1942.91,-241.65 2043,-217 2045.65,-216.35 2048.38,-215.59 2051.1,-214.77"/>
<polygon fill="#63b8ff" stroke="#63b8ff" points="2052.38,-218.03 2060.8,-211.61 2050.21,-211.38 2052.38,-218.03"/>
</g>
<!-- Node17 -->
<g id="node17" class="node">
<title>Node17</title>
<g id="a_node17"><a xlink:title=" ">
<polygon fill="#e0e0e0" stroke="#999999" points="565.5,-145.5 530.5,-145.5 530.5,-126.5 565.5,-126.5 565.5,-145.5"/>
<text text-anchor="middle" x="548" y="-133.5" font-family="Helvetica,sans-Serif" font-size="10.00">map</text>
</a>
</g>
</g>
<!-- Node12&#45;&gt;Node17 -->
<g id="edge20" class="edge">
<title>Node12&#45;&gt;Node17</title>
<path fill="none" stroke="#63b8ff" d="M1714.49,-261.46C1610.61,-261 1221.32,-256.58 904,-217 753.85,-198.27 710.47,-207.25 570,-151 569.56,-150.82 569.12,-150.64 568.67,-150.44"/>
<polygon fill="#63b8ff" stroke="#63b8ff" points="570.13,-147.25 559.67,-145.55 566.79,-153.4 570.13,-147.25"/>
</g>
<!-- Node18 -->
<g id="node18" class="node">
<title>Node18</title>
<g id="a_node18"><a xlink:title=" ">
<polygon fill="#e0e0e0" stroke="#999999" points="2176,-211.5 2132,-211.5 2132,-192.5 2176,-192.5 2176,-211.5"/>
<text text-anchor="middle" x="2154" y="-199.5" font-family="Helvetica,sans-Serif" font-size="10.00">mutex</text>
</a>
</g>
</g>
<!-- Node12&#45;&gt;Node18 -->
<g id="edge22" class="edge">
<title>Node12&#45;&gt;Node18</title>
<path fill="none" stroke="#63b8ff" d="M1767.94,-261.19C1831.13,-259.85 1993.34,-252.9 2123,-217 2124.68,-216.53 2126.39,-215.99 2128.09,-215.39"/>
<polygon fill="#63b8ff" stroke="#63b8ff" points="2129.67,-218.53 2137.62,-211.53 2127.04,-212.04 2129.67,-218.53"/>
</g>
<!-- Node19 -->
<g id="node19" class="node">
<title>Node19</title>
<g id="a_node19"><a xlink:title=" ">
<polygon fill="#e0e0e0" stroke="#999999" points="2237.5,-211.5 2194.5,-211.5 2194.5,-192.5 2237.5,-192.5 2237.5,-211.5"/>
<text text-anchor="middle" x="2216" y="-199.5" font-family="Helvetica,sans-Serif" font-size="10.00">queue</text>
</a>
</g>
</g>
<!-- Node12&#45;&gt;Node19 -->
<g id="edge23" class="edge">
<title>Node12&#45;&gt;Node19</title>
<path fill="none" stroke="#63b8ff" d="M1767.56,-261.8C1837.29,-261.96 2030.86,-258.34 2185,-217 2186.69,-216.55 2188.4,-216.01 2190.1,-215.42"/>
<polygon fill="#63b8ff" stroke="#63b8ff" points="2191.67,-218.56 2199.63,-211.58 2189.05,-212.07 2191.67,-218.56"/>
</g>
<!-- Node20 -->
<g id="node20" class="node">
<title>Node20</title>
<g id="a_node20"><a xlink:title=" ">
<polygon fill="#e0e0e0" stroke="#999999" points="44,-79.5 0,-79.5 0,-60.5 44,-60.5 44,-79.5"/>
<text text-anchor="middle" x="22" y="-67.5" font-family="Helvetica,sans-Serif" font-size="10.00">vector</text>
</a>
</g>
</g>
<!-- Node12&#45;&gt;Node20 -->
<g id="edge25" class="edge">
<title>Node12&#45;&gt;Node20</title>
<path fill="none" stroke="#63b8ff" d="M1714.25,-261.28C1509.44,-259.49 195.59,-246.92 118,-217 75.94,-200.78 64.47,-189.48 41,-151 29.53,-132.19 24.98,-106.97 23.18,-89.92"/>
<polygon fill="#63b8ff" stroke="#63b8ff" points="26.64,-89.27 22.32,-79.59 19.66,-89.85 26.64,-89.27"/>
</g>
<!-- Node21 -->
<g id="node21" class="node">
<title>Node21</title>
<g id="a_node21"><a xlink:href="logging_8h.html" target="_top" xlink:title=" ">
<polygon fill="white" stroke="#666666" points="183,-211.5 127,-211.5 127,-192.5 183,-192.5 183,-211.5"/>
<text text-anchor="middle" x="155" y="-199.5" font-family="Helvetica,sans-Serif" font-size="10.00">logging.h</text>
</a>
</g>
</g>
<!-- Node12&#45;&gt;Node21 -->
<g id="edge28" class="edge">
<title>Node12&#45;&gt;Node21</title>
<path fill="none" stroke="#63b8ff" d="M1714.21,-260.7C1579.07,-256.66 958.7,-237.76 451,-217 358.52,-213.22 249.84,-207.84 193.4,-204.97"/>
<polygon fill="#63b8ff" stroke="#63b8ff" points="193.32,-201.46 183.16,-204.45 192.96,-208.46 193.32,-201.46"/>
</g>
<!-- Node27 -->
<g id="node27" class="node">
<title>Node27</title>
<g id="a_node27"><a xlink:href="platform__channel_8h.html" target="_top" xlink:title=" ">
<polygon fill="white" stroke="#666666" points="1683.5,-211.5 1584.5,-211.5 1584.5,-192.5 1683.5,-192.5 1683.5,-211.5"/>
<text text-anchor="middle" x="1634" y="-199.5" font-family="Helvetica,sans-Serif" font-size="10.00">platform_channel.h</text>
</a>
</g>
</g>
<!-- Node12&#45;&gt;Node27 -->
<g id="edge35" class="edge">
<title>Node12&#45;&gt;Node27</title>
<path fill="none" stroke="#63b8ff" d="M1725.21,-252.87C1707.67,-243.28 1679.12,-227.67 1658.63,-216.47"/>
<polygon fill="#63b8ff" stroke="#63b8ff" points="1660.31,-213.39 1649.85,-211.67 1656.95,-219.54 1660.31,-213.39"/>
</g>
<!-- Node28 -->
<g id="node28" class="node">
<title>Node28</title>
<g id="a_node28"><a xlink:href="key__event_8h.html" target="_top" xlink:title=" ">
<polygon fill="white" stroke="#666666" points="1015,-217 913,-217 913,-187 1015,-187 1015,-217"/>
<text text-anchor="start" x="921" y="-205" font-family="Helvetica,sans-Serif" font-size="10.00">static_plugins/key</text>
<text text-anchor="middle" x="964" y="-194" font-family="Helvetica,sans-Serif" font-size="10.00">_event/key_event.h</text>
</a>
</g>
</g>
<!-- Node12&#45;&gt;Node28 -->
<g id="edge39" class="edge">
<title>Node12&#45;&gt;Node28</title>
<path fill="none" stroke="#63b8ff" d="M1714.25,-259.49C1604.13,-251.19 1184.1,-219.57 1025.3,-207.62"/>
<polygon fill="#63b8ff" stroke="#63b8ff" points="1025.46,-204.12 1015.22,-206.86 1024.93,-211.1 1025.46,-204.12"/>
</g>
<!-- Node34 -->
<g id="node34" class="node">
<title>Node34</title>
<g id="a_node34"><a xlink:href="text__input_8h.html" target="_top" xlink:title=" ">
<polygon fill="white" stroke="#666666" points="1544.5,-217 1447.5,-217 1447.5,-187 1544.5,-187 1544.5,-217"/>
<text text-anchor="start" x="1455.5" y="-205" font-family="Helvetica,sans-Serif" font-size="10.00">static_plugins/text</text>
<text text-anchor="middle" x="1496" y="-194" font-family="Helvetica,sans-Serif" font-size="10.00">_input/text_input.h</text>
</a>
</g>
</g>
<!-- Node12&#45;&gt;Node34 -->
<g id="edge51" class="edge">
<title>Node12&#45;&gt;Node34</title>
<path fill="none" stroke="#63b8ff" d="M1714.31,-255.13C1676.18,-246.02 1605.1,-229.05 1554.41,-216.95"/>
<polygon fill="#63b8ff" stroke="#63b8ff" points="1555.1,-213.51 1544.56,-214.59 1553.47,-220.32 1555.1,-213.51"/>
</g>
<!-- Node39 -->
<g id="node39" class="node">
<title>Node39</title>
<g id="a_node39"><a xlink:href="flutter__view_8h.html" target="_top" xlink:title=" ">
<polygon fill="white" stroke="#666666" points="558,-211.5 460,-211.5 460,-192.5 558,-192.5 558,-211.5"/>
<text text-anchor="middle" x="509" y="-199.5" font-family="Helvetica,sans-Serif" font-size="10.00">view/flutter_view.h</text>
</a>
</g>
</g>
<!-- Node12&#45;&gt;Node39 -->
<g id="edge65" class="edge">
<title>Node12&#45;&gt;Node39</title>
<path fill="none" stroke="#63b8ff" d="M1714.13,-261.25C1589.76,-259.9 1057.66,-252.28 623,-217 605.14,-215.55 585.77,-213.39 568.15,-211.2"/>
<polygon fill="#63b8ff" stroke="#63b8ff" points="568.37,-207.7 558.01,-209.92 567.49,-214.65 568.37,-207.7"/>
</g>
<!-- Node22 -->
<g id="node22" class="node">
<title>Node22</title>
<g id="a_node22"><a xlink:title=" ">
<polygon fill="#e0e0e0" stroke="#999999" points="208,-145.5 156,-145.5 156,-126.5 208,-126.5 208,-145.5"/>
<text text-anchor="middle" x="182" y="-133.5" font-family="Helvetica,sans-Serif" font-size="10.00">sstream</text>
</a>
</g>
</g>
<!-- Node21&#45;&gt;Node22 -->
<g id="edge29" class="edge">
<title>Node21&#45;&gt;Node22</title>
<path fill="none" stroke="#63b8ff" d="M158.64,-192.37C162.64,-182.88 169.19,-167.36 174.34,-155.16"/>
<polygon fill="#63b8ff" stroke="#63b8ff" points="177.58,-156.48 178.24,-145.91 171.13,-153.76 177.58,-156.48"/>
</g>
<!-- Node23 -->
<g id="node23" class="node">
<title>Node23</title>
<g id="a_node23"><a xlink:href="dlt_8h.html" target="_top" xlink:title=" ">
<polygon fill="white" stroke="#666666" points="99.5,-145.5 50.5,-145.5 50.5,-126.5 99.5,-126.5 99.5,-145.5"/>
<text text-anchor="middle" x="75" y="-133.5" font-family="Helvetica,sans-Serif" font-size="10.00">dlt/dlt.h</text>
</a>
</g>
</g>
<!-- Node21&#45;&gt;Node23 -->
<g id="edge30" class="edge">
<title>Node21&#45;&gt;Node23</title>
<path fill="none" stroke="#63b8ff" d="M144.21,-192.37C131.33,-182.06 109.56,-164.65 93.87,-152.09"/>
<polygon fill="#63b8ff" stroke="#63b8ff" points="95.87,-149.21 85.87,-145.7 91.5,-154.68 95.87,-149.21"/>
</g>
<!-- Node26 -->
<g id="node26" class="node">
<title>Node26</title>
<g id="a_node26"><a xlink:title=" ">
<polygon fill="#e0e0e0" stroke="#999999" points="335.5,-79.5 234.5,-79.5 234.5,-60.5 335.5,-60.5 335.5,-79.5"/>
<text text-anchor="middle" x="285" y="-67.5" font-family="Helvetica,sans-Serif" font-size="10.00">flutter/fml/macros.h</text>
</a>
</g>
</g>
<!-- Node21&#45;&gt;Node26 -->
<g id="edge34" class="edge">
<title>Node21&#45;&gt;Node26</title>
<path fill="none" stroke="#63b8ff" d="M150.75,-192.37C143.68,-176.62 131.69,-142.83 147,-121 164.54,-95.99 195.91,-83.44 224.31,-77.16"/>
<polygon fill="#63b8ff" stroke="#63b8ff" points="225.08,-80.58 234.21,-75.2 223.72,-73.71 225.08,-80.58"/>
</g>
<!-- Node24 -->
<g id="node24" class="node">
<title>Node24</title>
<g id="a_node24"><a xlink:href="libdlt_8h.html" target="_top" xlink:title=" ">
<polygon fill="white" stroke="#666666" points="121.5,-79.5 62.5,-79.5 62.5,-60.5 121.5,-60.5 121.5,-79.5"/>
<text text-anchor="middle" x="92" y="-67.5" font-family="Helvetica,sans-Serif" font-size="10.00">dlt/libdlt.h</text>
</a>
</g>
</g>
<!-- Node23&#45;&gt;Node24 -->
<g id="edge31" class="edge">
<title>Node23&#45;&gt;Node24</title>
<path fill="none" stroke="#63b8ff" d="M77.29,-126.37C79.76,-117.07 83.77,-101.98 86.98,-89.9"/>
<polygon fill="#63b8ff" stroke="#63b8ff" points="90.45,-90.47 89.63,-79.91 83.68,-88.67 90.45,-90.47"/>
</g>
<!-- Node23&#45;&gt;Node26 -->
<g id="edge33" class="edge">
<title>Node23&#45;&gt;Node26</title>
<path fill="none" stroke="#63b8ff" d="M98.02,-126.48C103.25,-124.61 108.8,-122.69 114,-121 158.04,-106.67 209.05,-92 243.82,-82.29"/>
<polygon fill="#63b8ff" stroke="#63b8ff" points="244.93,-85.62 253.62,-79.56 243.05,-78.87 244.93,-85.62"/>
</g>
<!-- Node25 -->
<g id="node25" class="node">
<title>Node25</title>
<g id="a_node25"><a xlink:title=" ">
<polygon fill="#e0e0e0" stroke="#999999" points="115,-19 69,-19 69,0 115,0 115,-19"/>
<text text-anchor="middle" x="92" y="-7" font-family="Helvetica,sans-Serif" font-size="10.00">cstdint</text>
</a>
</g>
</g>
<!-- Node24&#45;&gt;Node25 -->
<g id="edge32" class="edge">
<title>Node24&#45;&gt;Node25</title>
<path fill="none" stroke="#63b8ff" d="M92,-60.37C92,-52.25 92,-39.81 92,-29.39"/>
<polygon fill="#63b8ff" stroke="#63b8ff" points="95.5,-29.17 92,-19.17 88.5,-29.17 95.5,-29.17"/>
</g>
<!-- Node27&#45;&gt;Node4 -->
<g id="edge37" class="edge">
<title>Node27&#45;&gt;Node4</title>
<path fill="none" stroke="#63b8ff" d="M1669.4,-192.43C1678.66,-190.41 1688.67,-188.44 1698,-187 1741.78,-180.25 2065.13,-183.7 2095,-151 2103.99,-141.16 2104.18,-130.67 2095,-121 2061.9,-86.15 1318.27,-73.72 1156.06,-71.41"/>
<polygon fill="#63b8ff" stroke="#63b8ff" points="1155.87,-67.91 1145.82,-71.27 1155.77,-74.91 1155.87,-67.91"/>
</g>
<!-- Node27&#45;&gt;Node9 -->
<g id="edge38" class="edge">
<title>Node27&#45;&gt;Node9</title>
<path fill="none" stroke="#63b8ff" d="M1668.72,-192.49C1678.17,-190.42 1688.44,-188.41 1698,-187 1801.2,-171.82 2079.15,-208.77 2166,-151 2185.21,-138.22 2195.9,-113.53 2201.51,-94.94"/>
<polygon fill="#63b8ff" stroke="#63b8ff" points="2204.94,-95.67 2204.19,-85.1 2198.19,-93.83 2204.94,-95.67"/>
</g>
<!-- Node27&#45;&gt;Node17 -->
<g id="edge36" class="edge">
<title>Node27&#45;&gt;Node17</title>
<path fill="none" stroke="#63b8ff" d="M1591.39,-192.44C1579.35,-190.33 1566.2,-188.29 1554,-187 1137.81,-142.83 1028.25,-203.26 613,-151 600.55,-149.43 586.95,-146.67 575.42,-144.01"/>
<polygon fill="#63b8ff" stroke="#63b8ff" points="576.05,-140.57 565.51,-141.64 574.42,-147.37 576.05,-140.57"/>
</g>
<!-- Node28&#45;&gt;Node3 -->
<g id="edge41" class="edge">
<title>Node28&#45;&gt;Node3</title>
<path fill="none" stroke="#63b8ff" d="M912.72,-199.66C829.37,-196.49 659.86,-185.93 521,-151 518.7,-150.42 516.34,-149.72 514,-148.96"/>
<polygon fill="#63b8ff" stroke="#63b8ff" points="515.18,-145.66 504.58,-145.51 512.77,-152.23 515.18,-145.66"/>
</g>
<!-- Node28&#45;&gt;Node4 -->
<g id="edge42" class="edge">
<title>Node28&#45;&gt;Node4</title>
<path fill="none" stroke="#63b8ff" d="M968.38,-186.71C974.44,-169.1 986.96,-139.27 1007,-121 1031.86,-98.34 1068.5,-85.01 1094.35,-77.89"/>
<polygon fill="#63b8ff" stroke="#63b8ff" points="1095.56,-81.19 1104.36,-75.29 1093.8,-74.41 1095.56,-81.19"/>
</g>
<!-- Node28&#45;&gt;Node7 -->
<g id="edge50" class="edge">
<title>Node28&#45;&gt;Node7</title>
<path fill="none" stroke="#63b8ff" d="M1015.02,-199.03C1174.55,-192.82 1678.15,-172.74 2095,-151 2160.65,-147.58 2236.67,-142.87 2283.54,-139.88"/>
<polygon fill="#63b8ff" stroke="#63b8ff" points="2283.91,-143.37 2293.66,-139.23 2283.46,-136.38 2283.91,-143.37"/>
</g>
<!-- Node28&#45;&gt;Node9 -->
<g id="edge48" class="edge">
<title>Node28&#45;&gt;Node9</title>
<path fill="none" stroke="#63b8ff" d="M976.43,-186.8C995.84,-164.81 1031.94,-124.67 1040,-121 1139.47,-75.75 1898.75,-71.25 2136.24,-70.96"/>
<polygon fill="#63b8ff" stroke="#63b8ff" points="2136.48,-74.46 2146.48,-70.95 2136.47,-67.46 2136.48,-74.46"/>
</g>
<!-- Node28&#45;&gt;Node17 -->
<g id="edge40" class="edge">
<title>Node28&#45;&gt;Node17</title>
<path fill="none" stroke="#63b8ff" d="M912.87,-195.16C815.74,-183.94 611.42,-159.73 580,-151 578.31,-150.53 576.6,-149.99 574.89,-149.4"/>
<polygon fill="#63b8ff" stroke="#63b8ff" points="575.87,-146.02 565.28,-145.62 573.3,-152.54 575.87,-146.02"/>
</g>
<!-- Node28&#45;&gt;Node26 -->
<g id="edge46" class="edge">
<title>Node28&#45;&gt;Node26</title>
<path fill="none" stroke="#63b8ff" d="M912.84,-195.17C822.14,-184.63 640.09,-162.41 613,-151 592.85,-142.51 594.03,-129.79 574,-121 499.73,-88.41 406,-77.02 345.78,-73.06"/>
<polygon fill="#63b8ff" stroke="#63b8ff" points="345.87,-69.56 335.67,-72.45 345.44,-76.55 345.87,-69.56"/>
</g>
<!-- Node29 -->
<g id="node29" class="node">
<title>Node29</title>
<g id="a_node29"><a xlink:title=" ">
<polygon fill="#e0e0e0" stroke="#999999" points="735.5,-151 622.5,-151 622.5,-121 735.5,-121 735.5,-151"/>
<text text-anchor="start" x="630.5" y="-139" font-family="Helvetica,sans-Serif" font-size="10.00">flutter/basic_message</text>
<text text-anchor="middle" x="679" y="-128" font-family="Helvetica,sans-Serif" font-size="10.00">_channel.h</text>
</a>
</g>
</g>
<!-- Node28&#45;&gt;Node29 -->
<g id="edge43" class="edge">
<title>Node28&#45;&gt;Node29</title>
<path fill="none" stroke="#63b8ff" d="M912.72,-189.48C865.99,-178.99 796.69,-163.43 745.68,-151.97"/>
<polygon fill="#63b8ff" stroke="#63b8ff" points="746.26,-148.52 735.73,-149.74 744.72,-155.35 746.26,-148.52"/>
</g>
<!-- Node30 -->
<g id="node30" class="node">
<title>Node30</title>
<g id="a_node30"><a xlink:title=" ">
<polygon fill="#e0e0e0" stroke="#999999" points="1371,-145.5 1239,-145.5 1239,-126.5 1371,-126.5 1371,-145.5"/>
<text text-anchor="middle" x="1305" y="-133.5" font-family="Helvetica,sans-Serif" font-size="10.00">flutter/binary_messenger.h</text>
</a>
</g>
</g>
<!-- Node28&#45;&gt;Node30 -->
<g id="edge44" class="edge">
<title>Node28&#45;&gt;Node30</title>
<path fill="none" stroke="#63b8ff" d="M1015.05,-191.42C1078.01,-179.6 1184.64,-159.59 1249.56,-147.41"/>
<polygon fill="#63b8ff" stroke="#63b8ff" points="1250.42,-150.8 1259.61,-145.52 1249.13,-143.92 1250.42,-150.8"/>
</g>
<!-- Node31 -->
<g id="node31" class="node">
<title>Node31</title>
<g id="a_node31"><a xlink:title=" ">
<polygon fill="#e0e0e0" stroke="#999999" points="916.5,-151 753.5,-151 753.5,-121 916.5,-121 916.5,-151"/>
<text text-anchor="start" x="761.5" y="-139" font-family="Helvetica,sans-Serif" font-size="10.00">flutter/shell/platform</text>
<text text-anchor="middle" x="835" y="-128" font-family="Helvetica,sans-Serif" font-size="10.00">/common/json_message_codec.h</text>
</a>
</g>
</g>
<!-- Node28&#45;&gt;Node31 -->
<g id="edge45" class="edge">
<title>Node28&#45;&gt;Node31</title>
<path fill="none" stroke="#63b8ff" d="M935.69,-186.95C917.12,-177.74 892.64,-165.6 872.46,-155.59"/>
<polygon fill="#63b8ff" stroke="#63b8ff" points="873.76,-152.32 863.24,-151.01 870.65,-158.59 873.76,-152.32"/>
</g>
<!-- Node32 -->
<g id="node32" class="node">
<title>Node32</title>
<g id="a_node32"><a xlink:title=" ">
<polygon fill="#e0e0e0" stroke="#999999" points="1000,-79.5 890,-79.5 890,-60.5 1000,-60.5 1000,-79.5"/>
<text text-anchor="middle" x="945" y="-67.5" font-family="Helvetica,sans-Serif" font-size="10.00">rapidjson/document.h</text>
</a>
</g>
</g>
<!-- Node28&#45;&gt;Node32 -->
<g id="edge47" class="edge">
<title>Node28&#45;&gt;Node32</title>
<path fill="none" stroke="#63b8ff" d="M961.93,-186.84C958.5,-163.34 951.61,-116.26 947.77,-89.93"/>
<polygon fill="#63b8ff" stroke="#63b8ff" points="951.19,-89.14 946.28,-79.75 944.26,-90.15 951.19,-89.14"/>
</g>
<!-- Node33 -->
<g id="node33" class="node">
<title>Node33</title>
<g id="a_node33"><a xlink:title=" ">
<polygon fill="#e0e0e0" stroke="#999999" points="1183,-145.5 1049,-145.5 1049,-126.5 1183,-126.5 1183,-145.5"/>
<text text-anchor="middle" x="1116" y="-133.5" font-family="Helvetica,sans-Serif" font-size="10.00">xkbcommon/xkbcommon.h</text>
</a>
</g>
</g>
<!-- Node28&#45;&gt;Node33 -->
<g id="edge49" class="edge">
<title>Node28&#45;&gt;Node33</title>
<path fill="none" stroke="#63b8ff" d="M997.36,-186.95C1023.9,-175.78 1060.69,-160.29 1086.24,-149.53"/>
<polygon fill="#63b8ff" stroke="#63b8ff" points="1087.91,-152.62 1095.77,-145.52 1085.2,-146.17 1087.91,-152.62"/>
</g>
<!-- Node34&#45;&gt;Node3 -->
<g id="edge53" class="edge">
<title>Node34&#45;&gt;Node3</title>
<path fill="none" stroke="#63b8ff" d="M1447.42,-199.45C1262.96,-193.41 611.8,-170.91 521,-151 518.63,-150.48 516.21,-149.82 513.8,-149.06"/>
<polygon fill="#63b8ff" stroke="#63b8ff" points="514.76,-145.69 504.17,-145.58 512.38,-152.27 514.76,-145.69"/>
</g>
<!-- Node34&#45;&gt;Node4 -->
<g id="edge54" class="edge">
<title>Node34&#45;&gt;Node4</title>
<path fill="none" stroke="#63b8ff" d="M1492.22,-186.81C1486.54,-168.43 1473.93,-136.87 1451,-121 1403.41,-88.07 1227.75,-75.97 1155.92,-72.34"/>
<polygon fill="#63b8ff" stroke="#63b8ff" points="1155.86,-68.83 1145.71,-71.84 1155.52,-75.82 1155.86,-68.83"/>
</g>
<!-- Node34&#45;&gt;Node7 -->
<g id="edge64" class="edge">
<title>Node34&#45;&gt;Node7</title>
<path fill="none" stroke="#63b8ff" d="M1544.52,-191.61C1554.88,-189.86 1565.78,-188.2 1576,-187 1836.91,-156.31 1904,-170.31 2166,-151 2205.88,-148.06 2251.24,-144.09 2283.79,-141.12"/>
<polygon fill="#63b8ff" stroke="#63b8ff" points="2284.25,-144.6 2293.89,-140.2 2283.61,-137.63 2284.25,-144.6"/>
</g>
<!-- Node34&#45;&gt;Node9 -->
<g id="edge62" class="edge">
<title>Node34&#45;&gt;Node9</title>
<path fill="none" stroke="#63b8ff" d="M1544.53,-191.67C1554.89,-189.92 1565.78,-188.24 1576,-187 1690.76,-173.02 1986.19,-190.07 2095,-151 2130.3,-138.33 2164.41,-111.12 2185.53,-91.97"/>
<polygon fill="#63b8ff" stroke="#63b8ff" points="2188.01,-94.44 2192.96,-85.07 2183.25,-89.31 2188.01,-94.44"/>
</g>
<!-- Node34&#45;&gt;Node17 -->
<g id="edge52" class="edge">
<title>Node34&#45;&gt;Node17</title>
<path fill="none" stroke="#63b8ff" d="M1447.34,-199.24C1287.02,-193.3 776.38,-173.08 613,-151 600.56,-149.32 586.97,-146.54 575.44,-143.9"/>
<polygon fill="#63b8ff" stroke="#63b8ff" points="576.06,-140.45 565.53,-141.55 574.45,-147.26 576.06,-140.45"/>
</g>
<!-- Node34&#45;&gt;Node26 -->
<g id="edge58" class="edge">
<title>Node34&#45;&gt;Node26</title>
<path fill="none" stroke="#63b8ff" d="M1469.73,-186.93C1452.97,-177.53 1431.08,-164.46 1413,-151 1397.1,-139.16 1398.32,-128.57 1380,-121 1331.98,-101.16 568.87,-78.78 345.79,-72.63"/>
<polygon fill="#63b8ff" stroke="#63b8ff" points="345.68,-69.13 335.58,-72.35 345.48,-76.13 345.68,-69.13"/>
</g>
<!-- Node34&#45;&gt;Node30 -->
<g id="edge55" class="edge">
<title>Node34&#45;&gt;Node30</title>
<path fill="none" stroke="#63b8ff" d="M1454.08,-186.95C1420,-175.53 1372.45,-159.6 1340.28,-148.82"/>
<polygon fill="#63b8ff" stroke="#63b8ff" points="1341.01,-145.38 1330.42,-145.52 1338.79,-152.01 1341.01,-145.38"/>
</g>
<!-- Node34&#45;&gt;Node32 -->
<g id="edge61" class="edge">
<title>Node34&#45;&gt;Node32</title>
<path fill="none" stroke="#63b8ff" d="M1483.34,-186.74C1464.49,-165.89 1429.5,-128.7 1413,-121 1403.97,-116.78 1136.57,-89.92 1010.1,-77.41"/>
<polygon fill="#63b8ff" stroke="#63b8ff" points="1010.44,-73.92 1000.14,-76.42 1009.75,-80.89 1010.44,-73.92"/>
</g>
<!-- Node34&#45;&gt;Node33 -->
<g id="edge63" class="edge">
<title>Node34&#45;&gt;Node33</title>
<path fill="none" stroke="#63b8ff" d="M1447.49,-192.83C1378.5,-181.21 1252.11,-159.92 1176.9,-147.26"/>
<polygon fill="#63b8ff" stroke="#63b8ff" points="1177.09,-143.74 1166.64,-145.53 1175.92,-150.64 1177.09,-143.74"/>
</g>
<!-- Node35 -->
<g id="node35" class="node">
<title>Node35</title>
<g id="a_node35"><a xlink:title=" ">
<polygon fill="#e0e0e0" stroke="#999999" points="1627,-145.5 1503,-145.5 1503,-126.5 1627,-126.5 1627,-145.5"/>
<text text-anchor="middle" x="1565" y="-133.5" font-family="Helvetica,sans-Serif" font-size="10.00">flutter/method_channel.h</text>
</a>
</g>
</g>
<!-- Node34&#45;&gt;Node35 -->
<g id="edge56" class="edge">
<title>Node34&#45;&gt;Node35</title>
<path fill="none" stroke="#63b8ff" d="M1511.31,-186.8C1522.18,-176.72 1536.76,-163.19 1547.99,-152.78"/>
<polygon fill="#63b8ff" stroke="#63b8ff" points="1550.51,-155.21 1555.46,-145.84 1545.75,-150.08 1550.51,-155.21"/>
</g>
<!-- Node36 -->
<g id="node36" class="node">
<title>Node36</title>
<g id="a_node36"><a xlink:title=" ">
<polygon fill="#e0e0e0" stroke="#999999" points="1751,-151 1645,-151 1645,-121 1751,-121 1751,-151"/>
<text text-anchor="start" x="1653" y="-139" font-family="Helvetica,sans-Serif" font-size="10.00">flutter/method_result</text>
<text text-anchor="middle" x="1698" y="-128" font-family="Helvetica,sans-Serif" font-size="10.00">_functions.h</text>
</a>
</g>
</g>
<!-- Node34&#45;&gt;Node36 -->
<g id="edge57" class="edge">
<title>Node34&#45;&gt;Node36</title>
<path fill="none" stroke="#63b8ff" d="M1540.33,-186.95C1570.85,-177.28 1611.58,-164.38 1644,-154.11"/>
<polygon fill="#63b8ff" stroke="#63b8ff" points="1645.3,-157.37 1653.77,-151.01 1643.18,-150.7 1645.3,-157.37"/>
</g>
<!-- Node37 -->
<g id="node37" class="node">
<title>Node37</title>
<g id="a_node37"><a xlink:title=" ">
<polygon fill="#e0e0e0" stroke="#999999" points="1924.5,-151 1769.5,-151 1769.5,-121 1924.5,-121 1924.5,-151"/>
<text text-anchor="start" x="1777.5" y="-139" font-family="Helvetica,sans-Serif" font-size="10.00">flutter/shell/platform</text>
<text text-anchor="middle" x="1847" y="-128" font-family="Helvetica,sans-Serif" font-size="10.00">/common/json_method_codec.h</text>
</a>
</g>
</g>
<!-- Node34&#45;&gt;Node37 -->
<g id="edge59" class="edge">
<title>Node34&#45;&gt;Node37</title>
<path fill="none" stroke="#63b8ff" d="M1544.81,-192.1C1600.26,-181.99 1691.85,-165.29 1759.69,-152.92"/>
<polygon fill="#63b8ff" stroke="#63b8ff" points="1760.73,-156.29 1769.94,-151.05 1759.47,-149.4 1760.73,-156.29"/>
</g>
<!-- Node38 -->
<g id="node38" class="node">
<title>Node38</title>
<g id="a_node38"><a xlink:title=" ">
<polygon fill="#e0e0e0" stroke="#999999" points="2085.5,-151 1942.5,-151 1942.5,-121 2085.5,-121 2085.5,-151"/>
<text text-anchor="start" x="1950.5" y="-139" font-family="Helvetica,sans-Serif" font-size="10.00">flutter/shell/platform</text>
<text text-anchor="middle" x="2014" y="-128" font-family="Helvetica,sans-Serif" font-size="10.00">/common/text_input_model.h</text>
</a>
</g>
</g>
<!-- Node34&#45;&gt;Node38 -->
<g id="edge60" class="edge">
<title>Node34&#45;&gt;Node38</title>
<path fill="none" stroke="#63b8ff" d="M1544.56,-191.92C1554.92,-190.14 1565.8,-188.4 1576,-187 1731.17,-165.65 1773.84,-172.5 1931.99,-151.22"/>
<polygon fill="#63b8ff" stroke="#63b8ff" points="1932.64,-154.66 1942.08,-149.84 1931.7,-147.72 1932.64,-154.66"/>
</g>
<!-- Node39&#45;&gt;Node2 -->
<g id="edge74" class="edge">
<title>Node39&#45;&gt;Node2</title>
<path fill="none" stroke="#63b8ff" d="M553.19,-211.5C564.51,-213.5 576.68,-215.48 588,-217 1269.98,-308.62 2104.23,-364.71 2329.59,-378.91"/>
<polygon fill="#63b8ff" stroke="#63b8ff" points="2329.65,-382.43 2339.85,-379.56 2330.09,-375.44 2329.65,-382.43"/>
</g>
<!-- Node39&#45;&gt;Node3 -->
<g id="edge67" class="edge">
<title>Node39&#45;&gt;Node3</title>
<path fill="none" stroke="#63b8ff" d="M505.9,-192.37C502.52,-182.97 497.02,-167.67 492.66,-155.53"/>
<polygon fill="#63b8ff" stroke="#63b8ff" points="495.88,-154.13 489.2,-145.91 489.29,-156.5 495.88,-154.13"/>
</g>
<!-- Node39&#45;&gt;Node17 -->
<g id="edge66" class="edge">
<title>Node39&#45;&gt;Node17</title>
<path fill="none" stroke="#63b8ff" d="M514.26,-192.37C520.1,-182.78 529.69,-167.05 537.15,-154.8"/>
<polygon fill="#63b8ff" stroke="#63b8ff" points="540.36,-156.27 542.57,-145.91 534.38,-152.62 540.36,-156.27"/>
</g>
<!-- Node39&#45;&gt;Node26 -->
<g id="edge73" class="edge">
<title>Node39&#45;&gt;Node26</title>
<path fill="none" stroke="#63b8ff" d="M459.98,-198.53C393.6,-194.03 280.44,-181.94 255,-151 239.54,-132.19 256.23,-104.62 270.21,-87.25"/>
<polygon fill="#63b8ff" stroke="#63b8ff" points="272.88,-89.5 276.7,-79.62 267.55,-84.97 272.88,-89.5"/>
</g>
<!-- Node40 -->
<g id="node40" class="node">
<title>Node40</title>
<g id="a_node40"><a xlink:href="configuration_8h.html" target="_top" xlink:title=" ">
<polygon fill="white" stroke="#666666" points="403.5,-145.5 264.5,-145.5 264.5,-126.5 403.5,-126.5 403.5,-145.5"/>
<text text-anchor="middle" x="334" y="-133.5" font-family="Helvetica,sans-Serif" font-size="10.00">configuration/configuration.h</text>
</a>
</g>
</g>
<!-- Node39&#45;&gt;Node40 -->
<g id="edge68" class="edge">
<title>Node39&#45;&gt;Node40</title>
<path fill="none" stroke="#63b8ff" d="M485.4,-192.37C454.91,-181.22 401.68,-161.75 367.15,-149.12"/>
<polygon fill="#63b8ff" stroke="#63b8ff" points="368.1,-145.74 357.51,-145.6 365.7,-152.32 368.1,-145.74"/>
</g>
<!-- Node40&#45;&gt;Node4 -->
<g id="edge69" class="edge">
<title>Node40&#45;&gt;Node4</title>
<path fill="none" stroke="#63b8ff" d="M380.09,-126.43C392.37,-124.39 405.66,-122.4 418,-121 679.48,-91.33 746.92,-108.78 1009,-85 1037.91,-82.38 1070.74,-78.31 1094.08,-75.24"/>
<polygon fill="#63b8ff" stroke="#63b8ff" points="1094.63,-78.69 1104.08,-73.9 1093.71,-71.76 1094.63,-78.69"/>
</g>
<!-- Node40&#45;&gt;Node20 -->
<g id="edge70" class="edge">
<title>Node40&#45;&gt;Node20</title>
<path fill="none" stroke="#63b8ff" d="M264.44,-127.5C206.87,-120.14 123.41,-106.79 53,-85 51.55,-84.55 50.09,-84.05 48.62,-83.52"/>
<polygon fill="#63b8ff" stroke="#63b8ff" points="49.67,-80.17 39.08,-79.63 47.02,-86.65 49.67,-80.17"/>
</g>
<!-- Node40&#45;&gt;Node26 -->
<g id="edge71" class="edge">
<title>Node40&#45;&gt;Node26</title>
<path fill="none" stroke="#63b8ff" d="M327.39,-126.37C319.91,-116.59 307.53,-100.42 298.07,-88.08"/>
<polygon fill="#63b8ff" stroke="#63b8ff" points="300.68,-85.72 291.82,-79.91 295.12,-89.97 300.68,-85.72"/>
</g>
<!-- Node40&#45;&gt;Node32 -->
<g id="edge72" class="edge">
<title>Node40&#45;&gt;Node32</title>
<path fill="none" stroke="#63b8ff" d="M381.45,-126.49C393.36,-124.52 406.13,-122.55 418,-121 583.69,-99.36 779.85,-83.24 879.63,-75.71"/>
<polygon fill="#63b8ff" stroke="#63b8ff" points="880.14,-79.18 889.85,-74.94 879.62,-72.2 880.14,-79.18"/>
</g>
</g>
</svg>
