<?xml version="1.0" encoding="UTF-8" standalone="no"?>
<!DOCTYPE svg PUBLIC "-//W3C//DTD SVG 1.1//EN"
 "http://www.w3.org/Graphics/SVG/1.1/DTD/svg11.dtd">
<!-- Generated by graphviz version 2.43.0 (0)
 -->
<!-- Title: /home/joel.winarske@toyotaconnected.com/development/workspace&#45;automation&#45;configs/app/ivi&#45;homescreen/shell/static_plugins/gstreamer_egl/nv12.h Pages: 1 -->
<svg width="2847pt" height="452pt"
 viewBox="0.00 0.00 2846.50 452.00" xmlns="http://www.w3.org/2000/svg" xmlns:xlink="http://www.w3.org/1999/xlink">
<g id="graph0" class="graph" transform="scale(1 1) rotate(0) translate(4 448)">
<title>/home/joel.winarske@toyotaconnected.com/development/workspace&#45;automation&#45;configs/app/ivi&#45;homescreen/shell/static_plugins/gstreamer_egl/nv12.h</title>
<polygon fill="white" stroke="transparent" points="-4,4 -4,-448 2842.5,-448 2842.5,4 -4,4"/>
<!-- Node1 -->
<g id="node1" class="node">
<title>Node1</title>
<g id="a_node1"><a xlink:title=" ">
<polygon fill="#bfbfbf" stroke="black" points="2363.5,-369.5 2363.5,-443.5 2530.5,-443.5 2530.5,-369.5 2363.5,-369.5"/>
<text text-anchor="start" x="2371.5" y="-431.5" font-family="Helvetica,sans-Serif" font-size="10.00">/home/joel.winarske</text>
<text text-anchor="start" x="2371.5" y="-420.5" font-family="Helvetica,sans-Serif" font-size="10.00">@toyotaconnected.com</text>
<text text-anchor="start" x="2371.5" y="-409.5" font-family="Helvetica,sans-Serif" font-size="10.00">/development/workspace</text>
<text text-anchor="start" x="2371.5" y="-398.5" font-family="Helvetica,sans-Serif" font-size="10.00">&#45;automation&#45;configs/app</text>
<text text-anchor="start" x="2371.5" y="-387.5" font-family="Helvetica,sans-Serif" font-size="10.00">/ivi&#45;homescreen/shell/static</text>
<text text-anchor="middle" x="2447" y="-376.5" font-family="Helvetica,sans-Serif" font-size="10.00">_plugins/gstreamer_egl/nv12.h</text>
</a>
</g>
</g>
<!-- Node2 -->
<g id="node2" class="node">
<title>Node2</title>
<g id="a_node2"><a xlink:href="window_8h.html" target="_top" xlink:title=" ">
<polygon fill="white" stroke="black" points="2339.5,-313.5 2339.5,-332.5 2446.5,-332.5 2446.5,-313.5 2339.5,-313.5"/>
<text text-anchor="middle" x="2393" y="-320.5" font-family="Helvetica,sans-Serif" font-size="10.00">wayland/window.h</text>
</a>
</g>
</g>
<!-- Node1&#45;&gt;Node2 -->
<g id="edge1" class="edge">
<title>Node1&#45;&gt;Node2</title>
<path fill="none" stroke="midnightblue" d="M2422.84,-369.04C2416.38,-359.29 2409.71,-349.21 2404.31,-341.07"/>
<polygon fill="midnightblue" stroke="midnightblue" points="2407.09,-338.93 2398.65,-332.53 2401.26,-342.8 2407.09,-338.93"/>
</g>
<!-- Node38 -->
<g id="node38" class="node">
<title>Node38</title>
<g id="a_node38"><a xlink:title=" ">
<polygon fill="white" stroke="#bfbfbf" points="2465,-313.5 2465,-332.5 2539,-332.5 2539,-313.5 2465,-313.5"/>
<text text-anchor="middle" x="2502" y="-320.5" font-family="Helvetica,sans-Serif" font-size="10.00">GLES3/gl3.h</text>
</a>
</g>
</g>
<!-- Node1&#45;&gt;Node38 -->
<g id="edge70" class="edge">
<title>Node1&#45;&gt;Node38</title>
<path fill="none" stroke="midnightblue" d="M2471.6,-369.04C2478.18,-359.29 2484.98,-349.21 2490.48,-341.07"/>
<polygon fill="midnightblue" stroke="midnightblue" points="2493.55,-342.78 2496.24,-332.53 2487.75,-338.86 2493.55,-342.78"/>
</g>
<!-- Node3 -->
<g id="node3" class="node">
<title>Node3</title>
<g id="a_node3"><a xlink:title=" ">
<polygon fill="white" stroke="#bfbfbf" points="278,-73 278,-92 336,-92 336,-73 278,-73"/>
<text text-anchor="middle" x="307" y="-80" font-family="Helvetica,sans-Serif" font-size="10.00">memory</text>
</a>
</g>
</g>
<!-- Node2&#45;&gt;Node3 -->
<g id="edge2" class="edge">
<title>Node2&#45;&gt;Node3</title>
<path fill="none" stroke="midnightblue" d="M2339.06,-320.68C2064.65,-313.52 822.31,-275.45 455,-165 405.53,-150.13 354.09,-117.15 326.8,-98.02"/>
<polygon fill="midnightblue" stroke="midnightblue" points="328.68,-95.06 318.51,-92.1 324.62,-100.76 328.68,-95.06"/>
</g>
<!-- Node4 -->
<g id="node4" class="node">
<title>Node4</title>
<g id="a_node4"><a xlink:title=" ">
<polygon fill="white" stroke="#bfbfbf" points="251,-6 251,-25 295,-25 295,-6 251,-6"/>
<text text-anchor="middle" x="273" y="-13" font-family="Helvetica,sans-Serif" font-size="10.00">string</text>
</a>
</g>
</g>
<!-- Node2&#45;&gt;Node4 -->
<g id="edge3" class="edge">
<title>Node2&#45;&gt;Node4</title>
<path fill="none" stroke="midnightblue" d="M2339.21,-321.82C2061.29,-320.75 785.76,-313.89 392,-277 216.17,-260.53 0,-388.6 0,-212 0,-212 0,-212 0,-148.5 0,-42.84 167.79,-21.72 240.28,-17.53"/>
<polygon fill="midnightblue" stroke="midnightblue" points="240.85,-21 250.66,-17.01 240.5,-14.01 240.85,-21"/>
</g>
<!-- Node5 -->
<g id="node5" class="node">
<title>Node5</title>
<g id="a_node5"><a xlink:title=" ">
<polygon fill="white" stroke="#bfbfbf" points="2463,-257.5 2463,-276.5 2515,-276.5 2515,-257.5 2463,-257.5"/>
<text text-anchor="middle" x="2489" y="-264.5" font-family="Helvetica,sans-Serif" font-size="10.00">cassert</text>
</a>
</g>
</g>
<!-- Node2&#45;&gt;Node5 -->
<g id="edge4" class="edge">
<title>Node2&#45;&gt;Node5</title>
<path fill="none" stroke="midnightblue" d="M2408.42,-313.32C2423.54,-304.82 2446.82,-291.73 2464.47,-281.8"/>
<polygon fill="midnightblue" stroke="midnightblue" points="2466.61,-284.61 2473.61,-276.65 2463.18,-278.51 2466.61,-284.61"/>
</g>
<!-- Node6 -->
<g id="node6" class="node">
<title>Node6</title>
<g id="a_node6"><a xlink:title=" ">
<polygon fill="white" stroke="#bfbfbf" points="2533,-257.5 2533,-276.5 2675,-276.5 2675,-257.5 2533,-257.5"/>
<text text-anchor="middle" x="2604" y="-264.5" font-family="Helvetica,sans-Serif" font-size="10.00">agl&#45;shell&#45;client&#45;protocol.h</text>
</a>
</g>
</g>
<!-- Node2&#45;&gt;Node6 -->
<g id="edge5" class="edge">
<title>Node2&#45;&gt;Node6</title>
<path fill="none" stroke="midnightblue" d="M2426.43,-313.44C2462.86,-304.12 2521.23,-289.18 2561.03,-279"/>
<polygon fill="midnightblue" stroke="midnightblue" points="2561.9,-282.39 2570.72,-276.52 2560.17,-275.61 2561.9,-282.39"/>
</g>
<!-- Node7 -->
<g id="node7" class="node">
<title>Node7</title>
<g id="a_node7"><a xlink:href="constants_8h.html" target="_top" xlink:title=" ">
<polygon fill="white" stroke="black" points="2201.5,-73 2201.5,-92 2274.5,-92 2274.5,-73 2201.5,-73"/>
<text text-anchor="middle" x="2238" y="-80" font-family="Helvetica,sans-Serif" font-size="10.00">constants.h</text>
</a>
</g>
</g>
<!-- Node2&#45;&gt;Node7 -->
<g id="edge6" class="edge">
<title>Node2&#45;&gt;Node7</title>
<path fill="none" stroke="midnightblue" d="M2399.1,-313.19C2404.75,-304.46 2412.76,-290.48 2416,-277 2427.36,-229.8 2434.09,-179.95 2394,-134 2379.47,-117.34 2325.13,-102.3 2284.65,-93.06"/>
<polygon fill="midnightblue" stroke="midnightblue" points="2285.21,-89.6 2274.69,-90.83 2283.69,-96.43 2285.21,-89.6"/>
</g>
<!-- Node11 -->
<g id="node11" class="node">
<title>Node11</title>
<g id="a_node11"><a xlink:href="backend_8h.html" target="_top" xlink:title=" ">
<polygon fill="white" stroke="black" points="2297,-257.5 2297,-276.5 2407,-276.5 2407,-257.5 2297,-257.5"/>
<text text-anchor="middle" x="2352" y="-264.5" font-family="Helvetica,sans-Serif" font-size="10.00">backend/backend.h</text>
</a>
</g>
</g>
<!-- Node2&#45;&gt;Node11 -->
<g id="edge10" class="edge">
<title>Node2&#45;&gt;Node11</title>
<path fill="none" stroke="midnightblue" d="M2386.23,-313.08C2380.44,-305.46 2371.94,-294.26 2364.86,-284.94"/>
<polygon fill="midnightblue" stroke="midnightblue" points="2367.48,-282.6 2358.64,-276.75 2361.9,-286.83 2367.48,-282.6"/>
</g>
<!-- Node37 -->
<g id="node37" class="node">
<title>Node37</title>
<g id="a_node37"><a xlink:title=" ">
<polygon fill="white" stroke="#bfbfbf" points="2693.5,-257.5 2693.5,-276.5 2838.5,-276.5 2838.5,-257.5 2693.5,-257.5"/>
<text text-anchor="middle" x="2766" y="-264.5" font-family="Helvetica,sans-Serif" font-size="10.00">xdg&#45;shell&#45;client&#45;protocol.h</text>
</a>
</g>
</g>
<!-- Node2&#45;&gt;Node37 -->
<g id="edge69" class="edge">
<title>Node2&#45;&gt;Node37</title>
<path fill="none" stroke="midnightblue" d="M2446.84,-314.21C2512.93,-304.64 2625.11,-288.4 2697.34,-277.94"/>
<polygon fill="midnightblue" stroke="midnightblue" points="2697.86,-281.4 2707.25,-276.5 2696.86,-274.47 2697.86,-281.4"/>
</g>
<!-- Node8 -->
<g id="node8" class="node">
<title>Node8</title>
<g id="a_node8"><a xlink:title=" ">
<polygon fill="white" stroke="#bfbfbf" points="2272,-6 2272,-25 2334,-25 2334,-6 2272,-6"/>
<text text-anchor="middle" x="2303" y="-13" font-family="Helvetica,sans-Serif" font-size="10.00">EGL/egl.h</text>
</a>
</g>
</g>
<!-- Node7&#45;&gt;Node8 -->
<g id="edge7" class="edge">
<title>Node7&#45;&gt;Node8</title>
<path fill="none" stroke="midnightblue" d="M2246.77,-72.73C2257.1,-62.4 2274.46,-45.04 2287.17,-32.33"/>
<polygon fill="midnightblue" stroke="midnightblue" points="2289.78,-34.67 2294.37,-25.13 2284.83,-29.72 2289.78,-34.67"/>
</g>
<!-- Node9 -->
<g id="node9" class="node">
<title>Node9</title>
<g id="a_node9"><a xlink:title=" ">
<polygon fill="white" stroke="#bfbfbf" points="2042.5,-0.5 2042.5,-30.5 2179.5,-30.5 2179.5,-0.5 2042.5,-0.5"/>
<text text-anchor="start" x="2050.5" y="-18.5" font-family="Helvetica,sans-Serif" font-size="10.00">shell/platform/embedder</text>
<text text-anchor="middle" x="2111" y="-7.5" font-family="Helvetica,sans-Serif" font-size="10.00">/embedder.h</text>
</a>
</g>
</g>
<!-- Node7&#45;&gt;Node9 -->
<g id="edge8" class="edge">
<title>Node7&#45;&gt;Node9</title>
<path fill="none" stroke="midnightblue" d="M2221.14,-72.87C2202.47,-63.31 2171.82,-47.63 2147.59,-35.22"/>
<polygon fill="midnightblue" stroke="midnightblue" points="2149.15,-32.09 2138.65,-30.65 2145.96,-38.32 2149.15,-32.09"/>
</g>
<!-- Node10 -->
<g id="node10" class="node">
<title>Node10</title>
<g id="a_node10"><a xlink:title=" ">
<polygon fill="white" stroke="#bfbfbf" points="2212,-6 2212,-25 2254,-25 2254,-6 2212,-6"/>
<text text-anchor="middle" x="2233" y="-13" font-family="Helvetica,sans-Serif" font-size="10.00">array</text>
</a>
</g>
</g>
<!-- Node7&#45;&gt;Node10 -->
<g id="edge9" class="edge">
<title>Node7&#45;&gt;Node10</title>
<path fill="none" stroke="midnightblue" d="M2237.33,-72.73C2236.59,-63.18 2235.39,-47.62 2234.44,-35.28"/>
<polygon fill="midnightblue" stroke="midnightblue" points="2237.92,-34.83 2233.66,-25.13 2230.94,-35.37 2237.92,-34.83"/>
</g>
<!-- Node11&#45;&gt;Node7 -->
<g id="edge12" class="edge">
<title>Node11&#45;&gt;Node7</title>
<path fill="none" stroke="midnightblue" d="M2355.3,-257.44C2365.06,-231.49 2392.23,-154.26 2378,-134 2366.87,-118.15 2320.77,-103.55 2284.47,-94.17"/>
<polygon fill="midnightblue" stroke="midnightblue" points="2285.08,-90.71 2274.53,-91.66 2283.37,-97.5 2285.08,-90.71"/>
</g>
<!-- Node11&#45;&gt;Node9 -->
<g id="edge11" class="edge">
<title>Node11&#45;&gt;Node9</title>
<path fill="none" stroke="midnightblue" d="M2362.97,-257.38C2399.06,-228.02 2508.8,-130.22 2454,-67 2417.09,-24.42 2258.72,-39.39 2203,-31 2198.66,-30.35 2194.2,-29.67 2189.7,-28.98"/>
<polygon fill="midnightblue" stroke="midnightblue" points="2190.23,-25.52 2179.81,-27.45 2189.16,-32.44 2190.23,-25.52"/>
</g>
<!-- Node12 -->
<g id="node12" class="node">
<title>Node12</title>
<g id="a_node12"><a xlink:href="engine_8h.html" target="_top" xlink:title=" ">
<polygon fill="white" stroke="black" points="1801.5,-201.5 1801.5,-220.5 1860.5,-220.5 1860.5,-201.5 1801.5,-201.5"/>
<text text-anchor="middle" x="1831" y="-208.5" font-family="Helvetica,sans-Serif" font-size="10.00">engine.h</text>
</a>
</g>
</g>
<!-- Node11&#45;&gt;Node12 -->
<g id="edge13" class="edge">
<title>Node11&#45;&gt;Node12</title>
<path fill="none" stroke="midnightblue" d="M2296.88,-260.72C2191.22,-250.13 1962.78,-226.45 1870.63,-216.52"/>
<polygon fill="midnightblue" stroke="midnightblue" points="1870.91,-213.03 1860.59,-215.43 1870.16,-219.99 1870.91,-213.03"/>
</g>
<!-- Node12&#45;&gt;Node3 -->
<g id="edge20" class="edge">
<title>Node12&#45;&gt;Node3</title>
<path fill="none" stroke="midnightblue" d="M1801.34,-210.07C1616.19,-210.38 622.78,-209.92 496,-165 474.47,-157.37 475.3,-144.48 455,-134 407.79,-109.62 390.83,-116.44 341,-98 339.35,-97.39 337.65,-96.74 335.95,-96.07"/>
<polygon fill="midnightblue" stroke="midnightblue" points="336.87,-92.66 326.29,-92.11 334.21,-99.14 336.87,-92.66"/>
</g>
<!-- Node12&#45;&gt;Node4 -->
<g id="edge23" class="edge">
<title>Node12&#45;&gt;Node4</title>
<path fill="none" stroke="midnightblue" d="M1801.37,-209.8C1597.22,-208.32 402.67,-198.29 245,-165 167.96,-148.73 124.9,-163.36 81,-98 41.22,-38.77 176.41,-22.44 240.8,-18.05"/>
<polygon fill="midnightblue" stroke="midnightblue" points="241.09,-21.54 250.85,-17.43 240.65,-14.56 241.09,-21.54"/>
</g>
<!-- Node12&#45;&gt;Node7 -->
<g id="edge26" class="edge">
<title>Node12&#45;&gt;Node7</title>
<path fill="none" stroke="midnightblue" d="M1841,-201.34C1862.15,-183.23 1911.07,-142.3 1931,-134 2037.06,-89.81 2074.59,-121.77 2187,-98 2191.48,-97.05 2196.14,-95.93 2200.75,-94.73"/>
<polygon fill="midnightblue" stroke="midnightblue" points="2201.92,-98.03 2210.65,-92.02 2200.08,-91.28 2201.92,-98.03"/>
</g>
<!-- Node12&#45;&gt;Node8 -->
<g id="edge15" class="edge">
<title>Node12&#45;&gt;Node8</title>
<path fill="none" stroke="midnightblue" d="M1851.29,-201.35C1870.31,-192.95 1899.29,-179.39 1923,-165 1942.84,-152.96 1943.4,-142.48 1965,-134 2031.4,-107.93 2230.7,-145.42 2284,-98 2301.52,-82.41 2304.5,-54.08 2304.31,-35.27"/>
<polygon fill="midnightblue" stroke="midnightblue" points="2307.81,-35.08 2303.9,-25.23 2300.81,-35.36 2307.81,-35.08"/>
</g>
<!-- Node12&#45;&gt;Node9 -->
<g id="edge18" class="edge">
<title>Node12&#45;&gt;Node9</title>
<path fill="none" stroke="midnightblue" d="M1834.23,-201.15C1840.69,-184.81 1856.87,-150.11 1883,-134 1984.54,-71.38 2070.5,-187.84 2149,-98 2164.32,-80.46 2148.89,-55.7 2133.34,-38.08"/>
<polygon fill="midnightblue" stroke="midnightblue" points="2135.68,-35.45 2126.3,-30.53 2130.56,-40.23 2135.68,-35.45"/>
</g>
<!-- Node12&#45;&gt;Node11 -->
<g id="edge25" class="edge">
<title>Node12&#45;&gt;Node11</title>
<path fill="none" stroke="midnightblue" d="M1860.61,-214.74C1942.52,-222.8 2172.89,-246.62 2286.75,-258.74"/>
<polygon fill="midnightblue" stroke="midnightblue" points="2286.41,-262.23 2296.73,-259.81 2287.16,-255.26 2286.41,-262.23"/>
</g>
<!-- Node13 -->
<g id="node13" class="node">
<title>Node13</title>
<g id="a_node13"><a xlink:title=" ">
<polygon fill="white" stroke="#bfbfbf" points="1973.5,-140 1973.5,-159 2038.5,-159 2038.5,-140 1973.5,-140"/>
<text text-anchor="middle" x="2006" y="-147" font-family="Helvetica,sans-Serif" font-size="10.00">functional</text>
</a>
</g>
</g>
<!-- Node12&#45;&gt;Node13 -->
<g id="edge14" class="edge">
<title>Node12&#45;&gt;Node13</title>
<path fill="none" stroke="midnightblue" d="M1856.07,-201.48C1886.35,-191.18 1937.44,-173.81 1971.44,-162.25"/>
<polygon fill="midnightblue" stroke="midnightblue" points="1972.63,-165.54 1980.97,-159.01 1970.38,-158.91 1972.63,-165.54"/>
</g>
<!-- Node14 -->
<g id="node14" class="node">
<title>Node14</title>
<g id="a_node14"><a xlink:title=" ">
<polygon fill="white" stroke="#bfbfbf" points="2057,-140 2057,-159 2131,-159 2131,-140 2057,-140"/>
<text text-anchor="middle" x="2094" y="-147" font-family="Helvetica,sans-Serif" font-size="10.00">GLES2/gl2.h</text>
</a>
</g>
</g>
<!-- Node12&#45;&gt;Node14 -->
<g id="edge16" class="edge">
<title>Node12&#45;&gt;Node14</title>
<path fill="none" stroke="midnightblue" d="M1860.7,-204.82C1902.7,-197.28 1981.73,-182.27 2048,-165 2051.43,-164.11 2054.98,-163.11 2058.51,-162.08"/>
<polygon fill="midnightblue" stroke="midnightblue" points="2059.79,-165.35 2068.34,-159.09 2057.76,-158.65 2059.79,-165.35"/>
</g>
<!-- Node15 -->
<g id="node15" class="node">
<title>Node15</title>
<g id="a_node15"><a xlink:title=" ">
<polygon fill="white" stroke="#bfbfbf" points="2149,-140 2149,-159 2289,-159 2289,-140 2149,-140"/>
<text text-anchor="middle" x="2219" y="-147" font-family="Helvetica,sans-Serif" font-size="10.00">flutter/encodable_value.h</text>
</a>
</g>
</g>
<!-- Node12&#45;&gt;Node15 -->
<g id="edge17" class="edge">
<title>Node12&#45;&gt;Node15</title>
<path fill="none" stroke="midnightblue" d="M1860.89,-206.02C1916.11,-198.59 2037.83,-181.81 2140,-165 2147.74,-163.73 2155.89,-162.31 2163.9,-160.88"/>
<polygon fill="midnightblue" stroke="midnightblue" points="2164.71,-164.29 2173.93,-159.07 2163.47,-157.4 2164.71,-164.29"/>
</g>
<!-- Node16 -->
<g id="node16" class="node">
<title>Node16</title>
<g id="a_node16"><a xlink:title=" ">
<polygon fill="white" stroke="#bfbfbf" points="392,-73 392,-92 430,-92 430,-73 392,-73"/>
<text text-anchor="middle" x="411" y="-80" font-family="Helvetica,sans-Serif" font-size="10.00">map</text>
</a>
</g>
</g>
<!-- Node12&#45;&gt;Node16 -->
<g id="edge19" class="edge">
<title>Node12&#45;&gt;Node16</title>
<path fill="none" stroke="midnightblue" d="M1801.23,-209.81C1620.72,-208.54 676.49,-200.26 553,-165 546.59,-163.17 473.32,-120.25 434.62,-97.45"/>
<polygon fill="midnightblue" stroke="midnightblue" points="435.98,-94.19 425.59,-92.13 432.43,-100.22 435.98,-94.19"/>
</g>
<!-- Node17 -->
<g id="node17" class="node">
<title>Node17</title>
<g id="a_node17"><a xlink:title=" ">
<polygon fill="white" stroke="#bfbfbf" points="562,-140 562,-159 610,-159 610,-140 562,-140"/>
<text text-anchor="middle" x="586" y="-147" font-family="Helvetica,sans-Serif" font-size="10.00">mutex</text>
</a>
</g>
</g>
<!-- Node12&#45;&gt;Node17 -->
<g id="edge21" class="edge">
<title>Node12&#45;&gt;Node17</title>
<path fill="none" stroke="midnightblue" d="M1801.41,-209.57C1627.06,-206.92 737.39,-192.17 619,-165 616.63,-164.46 614.22,-163.75 611.84,-162.93"/>
<polygon fill="midnightblue" stroke="midnightblue" points="612.95,-159.6 602.37,-159.14 610.36,-166.1 612.95,-159.6"/>
</g>
<!-- Node18 -->
<g id="node18" class="node">
<title>Node18</title>
<g id="a_node18"><a xlink:title=" ">
<polygon fill="white" stroke="#bfbfbf" points="628.5,-140 628.5,-159 675.5,-159 675.5,-140 628.5,-140"/>
<text text-anchor="middle" x="652" y="-147" font-family="Helvetica,sans-Serif" font-size="10.00">queue</text>
</a>
</g>
</g>
<!-- Node12&#45;&gt;Node18 -->
<g id="edge22" class="edge">
<title>Node12&#45;&gt;Node18</title>
<path fill="none" stroke="midnightblue" d="M1801.36,-209.52C1632.5,-206.68 795.51,-191.38 684,-165 681.78,-164.48 679.53,-163.79 677.3,-163.01"/>
<polygon fill="midnightblue" stroke="midnightblue" points="678.43,-159.7 667.85,-159.14 675.77,-166.17 678.43,-159.7"/>
</g>
<!-- Node19 -->
<g id="node19" class="node">
<title>Node19</title>
<g id="a_node19"><a xlink:title=" ">
<polygon fill="white" stroke="#bfbfbf" points="1490.5,-6 1490.5,-25 1537.5,-25 1537.5,-6 1490.5,-6"/>
<text text-anchor="middle" x="1514" y="-13" font-family="Helvetica,sans-Serif" font-size="10.00">vector</text>
</a>
</g>
</g>
<!-- Node12&#45;&gt;Node19 -->
<g id="edge24" class="edge">
<title>Node12&#45;&gt;Node19</title>
<path fill="none" stroke="midnightblue" d="M1830.36,-201.43C1829.68,-185.57 1830.74,-151.63 1850,-134 1927.91,-62.69 2149.28,-144.94 2078,-67 2042.09,-27.73 1663.57,-18.76 1547.59,-16.93"/>
<polygon fill="midnightblue" stroke="midnightblue" points="1547.56,-13.43 1537.51,-16.78 1547.46,-20.43 1547.56,-13.43"/>
</g>
<!-- Node20 -->
<g id="node20" class="node">
<title>Node20</title>
<g id="a_node20"><a xlink:href="logging_8h.html" target="_top" xlink:title=" ">
<polygon fill="white" stroke="black" points="2307,-140 2307,-159 2369,-159 2369,-140 2307,-140"/>
<text text-anchor="middle" x="2338" y="-147" font-family="Helvetica,sans-Serif" font-size="10.00">logging.h</text>
</a>
</g>
</g>
<!-- Node12&#45;&gt;Node20 -->
<g id="edge27" class="edge">
<title>Node12&#45;&gt;Node20</title>
<path fill="none" stroke="midnightblue" d="M1860.64,-209.72C1935.11,-208.45 2135.71,-201.62 2298,-165 2301.24,-164.27 2304.58,-163.35 2307.88,-162.32"/>
<polygon fill="midnightblue" stroke="midnightblue" points="2309.2,-165.57 2317.54,-159.04 2306.94,-158.95 2309.2,-165.57"/>
</g>
<!-- Node22 -->
<g id="node22" class="node">
<title>Node22</title>
<g id="a_node22"><a xlink:href="platform__channel_8h.html" target="_top" xlink:title=" ">
<polygon fill="white" stroke="black" points="693.5,-140 693.5,-159 804.5,-159 804.5,-140 693.5,-140"/>
<text text-anchor="middle" x="749" y="-147" font-family="Helvetica,sans-Serif" font-size="10.00">platform_channel.h</text>
</a>
</g>
</g>
<!-- Node12&#45;&gt;Node22 -->
<g id="edge29" class="edge">
<title>Node12&#45;&gt;Node22</title>
<path fill="none" stroke="midnightblue" d="M1801.5,-210.37C1679.89,-211.56 1205.79,-212.68 820,-165 811.92,-164 803.39,-162.58 795.16,-161.02"/>
<polygon fill="midnightblue" stroke="midnightblue" points="795.79,-157.58 785.3,-159.06 794.43,-164.44 795.79,-157.58"/>
</g>
<!-- Node23 -->
<g id="node23" class="node">
<title>Node23</title>
<g id="a_node23"><a xlink:href="key__event_8h.html" target="_top" xlink:title=" ">
<polygon fill="white" stroke="black" points="829,-134.5 829,-164.5 941,-164.5 941,-134.5 829,-134.5"/>
<text text-anchor="start" x="837" y="-152.5" font-family="Helvetica,sans-Serif" font-size="10.00">static_plugins/key</text>
<text text-anchor="middle" x="885" y="-141.5" font-family="Helvetica,sans-Serif" font-size="10.00">_event/key_event.h</text>
</a>
</g>
</g>
<!-- Node12&#45;&gt;Node23 -->
<g id="edge33" class="edge">
<title>Node12&#45;&gt;Node23</title>
<path fill="none" stroke="midnightblue" d="M1801.39,-208.14C1670.09,-199.88 1138.69,-166.46 951.03,-154.65"/>
<polygon fill="midnightblue" stroke="midnightblue" points="951.22,-151.16 941.02,-154.02 950.78,-158.14 951.22,-151.16"/>
</g>
<!-- Node30 -->
<g id="node30" class="node">
<title>Node30</title>
<g id="a_node30"><a xlink:href="text__input_8h.html" target="_top" xlink:title=" ">
<polygon fill="white" stroke="black" points="1386,-134.5 1386,-164.5 1494,-164.5 1494,-134.5 1386,-134.5"/>
<text text-anchor="start" x="1394" y="-152.5" font-family="Helvetica,sans-Serif" font-size="10.00">static_plugins/text</text>
<text text-anchor="middle" x="1440" y="-141.5" font-family="Helvetica,sans-Serif" font-size="10.00">_input/text_input.h</text>
</a>
</g>
</g>
<!-- Node12&#45;&gt;Node30 -->
<g id="edge45" class="edge">
<title>Node12&#45;&gt;Node30</title>
<path fill="none" stroke="midnightblue" d="M1801.29,-205.48C1738.27,-195.89 1589.96,-173.32 1504.23,-160.27"/>
<polygon fill="midnightblue" stroke="midnightblue" points="1504.51,-156.78 1494.1,-158.73 1503.46,-163.7 1504.51,-156.78"/>
</g>
<!-- Node35 -->
<g id="node35" class="node">
<title>Node35</title>
<g id="a_node35"><a xlink:href="flutter__view_8h.html" target="_top" xlink:title=" ">
<polygon fill="white" stroke="black" points="254.5,-140 254.5,-159 363.5,-159 363.5,-140 254.5,-140"/>
<text text-anchor="middle" x="309" y="-147" font-family="Helvetica,sans-Serif" font-size="10.00">view/flutter_view.h</text>
</a>
</g>
</g>
<!-- Node12&#45;&gt;Node35 -->
<g id="edge59" class="edge">
<title>Node12&#45;&gt;Node35</title>
<path fill="none" stroke="midnightblue" d="M1801.24,-209.66C1655.43,-207.84 1002.05,-198.14 468,-165 437.08,-163.08 402.85,-160.07 374.09,-157.29"/>
<polygon fill="midnightblue" stroke="midnightblue" points="374.06,-153.77 363.76,-156.28 373.37,-160.74 374.06,-153.77"/>
</g>
<!-- Node21 -->
<g id="node21" class="node">
<title>Node21</title>
<g id="a_node21"><a xlink:title=" ">
<polygon fill="white" stroke="#bfbfbf" points="2331.5,-73 2331.5,-92 2444.5,-92 2444.5,-73 2331.5,-73"/>
<text text-anchor="middle" x="2388" y="-80" font-family="Helvetica,sans-Serif" font-size="10.00">flutter/fml/logging.h</text>
</a>
</g>
</g>
<!-- Node20&#45;&gt;Node21 -->
<g id="edge28" class="edge">
<title>Node20&#45;&gt;Node21</title>
<path fill="none" stroke="midnightblue" d="M2344.74,-139.73C2352.54,-129.6 2365.55,-112.69 2375.26,-100.06"/>
<polygon fill="midnightblue" stroke="midnightblue" points="2378.04,-102.19 2381.36,-92.13 2372.49,-97.92 2378.04,-102.19"/>
</g>
<!-- Node22&#45;&gt;Node4 -->
<g id="edge31" class="edge">
<title>Node22&#45;&gt;Node4</title>
<path fill="none" stroke="midnightblue" d="M713.71,-139.95C704.11,-137.81 693.69,-135.66 684,-134 551.19,-111.3 507.01,-150.67 383,-98 362.94,-89.48 362.38,-80.16 345,-67 328.27,-54.33 308.74,-40.71 294.25,-30.81"/>
<polygon fill="midnightblue" stroke="midnightblue" points="296.19,-27.89 285.95,-25.16 292.25,-33.68 296.19,-27.89"/>
</g>
<!-- Node22&#45;&gt;Node9 -->
<g id="edge32" class="edge">
<title>Node22&#45;&gt;Node9</title>
<path fill="none" stroke="midnightblue" d="M711.02,-139.97C655.43,-127.3 557.91,-104.34 553,-98 544.56,-87.11 543.42,-76.9 553,-67 559.5,-60.29 1715.78,-27.53 2031.92,-18.7"/>
<polygon fill="midnightblue" stroke="midnightblue" points="2032.46,-22.18 2042.36,-18.41 2032.27,-15.19 2032.46,-22.18"/>
</g>
<!-- Node22&#45;&gt;Node16 -->
<g id="edge30" class="edge">
<title>Node22&#45;&gt;Node16</title>
<path fill="none" stroke="midnightblue" d="M712.99,-139.99C703.58,-137.9 693.43,-135.76 684,-134 577.96,-114.25 547.62,-127.96 444,-98 441.85,-97.38 439.66,-96.65 437.48,-95.85"/>
<polygon fill="midnightblue" stroke="midnightblue" points="438.73,-92.58 428.15,-92.06 436.1,-99.07 438.73,-92.58"/>
</g>
<!-- Node23&#45;&gt;Node3 -->
<g id="edge35" class="edge">
<title>Node23&#45;&gt;Node3</title>
<path fill="none" stroke="midnightblue" d="M828.9,-136.55C823.54,-135.61 818.18,-134.74 813,-134 623.13,-107.02 573.01,-124.01 383,-98 370.96,-96.35 357.93,-94.06 346.12,-91.78"/>
<polygon fill="midnightblue" stroke="midnightblue" points="346.6,-88.31 336.11,-89.8 345.24,-95.17 346.6,-88.31"/>
</g>
<!-- Node23&#45;&gt;Node4 -->
<g id="edge36" class="edge">
<title>Node23&#45;&gt;Node4</title>
<path fill="none" stroke="midnightblue" d="M828.87,-136.74C823.52,-135.76 818.16,-134.83 813,-134 679.53,-112.64 641.54,-133.09 511,-98 477.35,-88.96 471.72,-78.98 439,-67 392.98,-50.15 338.42,-34.33 304.75,-25.02"/>
<polygon fill="midnightblue" stroke="midnightblue" points="305.58,-21.62 295.01,-22.35 303.73,-28.37 305.58,-21.62"/>
</g>
<!-- Node23&#45;&gt;Node7 -->
<g id="edge44" class="edge">
<title>Node23&#45;&gt;Node7</title>
<path fill="none" stroke="midnightblue" d="M941.26,-147.08C1112.24,-142.56 1640.78,-127.05 2078,-98 2116.01,-95.47 2158.99,-91.52 2190.83,-88.37"/>
<polygon fill="midnightblue" stroke="midnightblue" points="2191.58,-91.82 2201.18,-87.34 2190.88,-84.85 2191.58,-91.82"/>
</g>
<!-- Node23&#45;&gt;Node9 -->
<g id="edge42" class="edge">
<title>Node23&#45;&gt;Node9</title>
<path fill="none" stroke="midnightblue" d="M894.09,-134.41C907.42,-115.14 934.28,-81.35 967,-67 1015.68,-45.65 1781.75,-24.72 2032.34,-18.42"/>
<polygon fill="midnightblue" stroke="midnightblue" points="2032.55,-21.91 2042.46,-18.16 2032.38,-14.91 2032.55,-21.91"/>
</g>
<!-- Node23&#45;&gt;Node16 -->
<g id="edge34" class="edge">
<title>Node23&#45;&gt;Node16</title>
<path fill="none" stroke="midnightblue" d="M828.88,-136.69C823.52,-135.71 818.17,-134.8 813,-134 666.76,-111.37 628.21,-120.83 482,-98 468.21,-95.85 453.04,-92.84 440.27,-90.12"/>
<polygon fill="midnightblue" stroke="midnightblue" points="440.71,-86.63 430.2,-87.93 439.23,-93.47 440.71,-86.63"/>
</g>
<!-- Node24 -->
<g id="node24" class="node">
<title>Node24</title>
<g id="a_node24"><a xlink:title=" ">
<polygon fill="white" stroke="#bfbfbf" points="562,-67.5 562,-97.5 686,-97.5 686,-67.5 562,-67.5"/>
<text text-anchor="start" x="570" y="-85.5" font-family="Helvetica,sans-Serif" font-size="10.00">flutter/basic_message</text>
<text text-anchor="middle" x="624" y="-74.5" font-family="Helvetica,sans-Serif" font-size="10.00">_channel.h</text>
</a>
</g>
</g>
<!-- Node23&#45;&gt;Node24 -->
<g id="edge37" class="edge">
<title>Node23&#45;&gt;Node24</title>
<path fill="none" stroke="midnightblue" d="M828.69,-134.48C788.09,-124.37 733.15,-110.68 690.41,-100.04"/>
<polygon fill="midnightblue" stroke="midnightblue" points="691.21,-96.63 680.66,-97.61 689.52,-103.42 691.21,-96.63"/>
</g>
<!-- Node25 -->
<g id="node25" class="node">
<title>Node25</title>
<g id="a_node25"><a xlink:title=" ">
<polygon fill="white" stroke="#bfbfbf" points="976.5,-73 976.5,-92 1123.5,-92 1123.5,-73 976.5,-73"/>
<text text-anchor="middle" x="1050" y="-80" font-family="Helvetica,sans-Serif" font-size="10.00">flutter/binary_messenger.h</text>
</a>
</g>
</g>
<!-- Node23&#45;&gt;Node25 -->
<g id="edge38" class="edge">
<title>Node23&#45;&gt;Node25</title>
<path fill="none" stroke="midnightblue" d="M920.8,-134.4C950.01,-122.89 990.86,-106.8 1018.76,-95.81"/>
<polygon fill="midnightblue" stroke="midnightblue" points="1020.38,-98.93 1028.41,-92.01 1017.82,-92.42 1020.38,-98.93"/>
</g>
<!-- Node26 -->
<g id="node26" class="node">
<title>Node26</title>
<g id="a_node26"><a xlink:title=" ">
<polygon fill="white" stroke="#bfbfbf" points="704,-67.5 704,-97.5 882,-97.5 882,-67.5 704,-67.5"/>
<text text-anchor="start" x="712" y="-85.5" font-family="Helvetica,sans-Serif" font-size="10.00">flutter/shell/platform</text>
<text text-anchor="middle" x="793" y="-74.5" font-family="Helvetica,sans-Serif" font-size="10.00">/common/json_message_codec.h</text>
</a>
</g>
</g>
<!-- Node23&#45;&gt;Node26 -->
<g id="edge39" class="edge">
<title>Node23&#45;&gt;Node26</title>
<path fill="none" stroke="midnightblue" d="M865.04,-134.4C852.26,-125.37 835.48,-113.51 821.33,-103.52"/>
<polygon fill="midnightblue" stroke="midnightblue" points="823.11,-100.49 812.92,-97.58 819.07,-106.21 823.11,-100.49"/>
</g>
<!-- Node27 -->
<g id="node27" class="node">
<title>Node27</title>
<g id="a_node27"><a xlink:title=" ">
<polygon fill="white" stroke="#bfbfbf" points="395.5,-6 395.5,-25 508.5,-25 508.5,-6 395.5,-6"/>
<text text-anchor="middle" x="452" y="-13" font-family="Helvetica,sans-Serif" font-size="10.00">flutter/fml/macros.h</text>
</a>
</g>
</g>
<!-- Node23&#45;&gt;Node27 -->
<g id="edge40" class="edge">
<title>Node23&#45;&gt;Node27</title>
<path fill="none" stroke="midnightblue" d="M828.86,-136.85C823.5,-135.84 818.15,-134.87 813,-134 697.99,-114.48 660.07,-144.32 553,-98 543.58,-93.92 496.37,-54.34 469.96,-31.87"/>
<polygon fill="midnightblue" stroke="midnightblue" points="472.07,-29.07 462.19,-25.25 467.53,-34.4 472.07,-29.07"/>
</g>
<!-- Node28 -->
<g id="node28" class="node">
<title>Node28</title>
<g id="a_node28"><a xlink:title=" ">
<polygon fill="white" stroke="#bfbfbf" points="849,-6 849,-25 971,-25 971,-6 849,-6"/>
<text text-anchor="middle" x="910" y="-13" font-family="Helvetica,sans-Serif" font-size="10.00">rapidjson/document.h</text>
</a>
</g>
</g>
<!-- Node23&#45;&gt;Node28 -->
<g id="edge41" class="edge">
<title>Node23&#45;&gt;Node28</title>
<path fill="none" stroke="midnightblue" d="M887.68,-134.37C892.22,-110.4 901.43,-61.75 906.49,-35.06"/>
<polygon fill="midnightblue" stroke="midnightblue" points="909.95,-35.57 908.37,-25.1 903.07,-34.27 909.95,-35.57"/>
</g>
<!-- Node29 -->
<g id="node29" class="node">
<title>Node29</title>
<g id="a_node29"><a xlink:title=" ">
<polygon fill="white" stroke="#bfbfbf" points="1142,-73 1142,-92 1292,-92 1292,-73 1142,-73"/>
<text text-anchor="middle" x="1217" y="-80" font-family="Helvetica,sans-Serif" font-size="10.00">xkbcommon/xkbcommon.h</text>
</a>
</g>
</g>
<!-- Node23&#45;&gt;Node29 -->
<g id="edge43" class="edge">
<title>Node23&#45;&gt;Node29</title>
<path fill="none" stroke="midnightblue" d="M941.32,-137.47C1003.32,-125.34 1102.26,-105.96 1163.22,-94.03"/>
<polygon fill="midnightblue" stroke="midnightblue" points="1164.27,-97.39 1173.41,-92.03 1162.92,-90.52 1164.27,-97.39"/>
</g>
<!-- Node30&#45;&gt;Node3 -->
<g id="edge47" class="edge">
<title>Node30&#45;&gt;Node3</title>
<path fill="none" stroke="midnightblue" d="M1385.73,-146.92C1198.49,-141.31 580.26,-121.41 383,-98 370.93,-96.57 357.9,-94.34 346.09,-92.05"/>
<polygon fill="midnightblue" stroke="midnightblue" points="346.58,-88.58 336.08,-90.04 345.2,-95.44 346.58,-88.58"/>
</g>
<!-- Node30&#45;&gt;Node4 -->
<g id="edge48" class="edge">
<title>Node30&#45;&gt;Node4</title>
<path fill="none" stroke="midnightblue" d="M1403.65,-134.5C1382.46,-125.54 1355.71,-112.83 1334,-98 1317.38,-86.65 1319.56,-74.78 1301,-67 1207.16,-27.68 487.39,-39.48 386,-31 358.61,-28.71 327.65,-24.63 305.07,-21.38"/>
<polygon fill="midnightblue" stroke="midnightblue" points="305.43,-17.9 295.02,-19.91 304.41,-24.82 305.43,-17.9"/>
</g>
<!-- Node30&#45;&gt;Node7 -->
<g id="edge58" class="edge">
<title>Node30&#45;&gt;Node7</title>
<path fill="none" stroke="midnightblue" d="M1494.42,-145.12C1608.74,-137.86 1882.18,-119.67 2111,-98 2137.56,-95.49 2167.18,-92.14 2191.13,-89.29"/>
<polygon fill="midnightblue" stroke="midnightblue" points="2191.85,-92.73 2201.36,-88.06 2191.01,-85.78 2191.85,-92.73"/>
</g>
<!-- Node30&#45;&gt;Node9 -->
<g id="edge56" class="edge">
<title>Node30&#45;&gt;Node9</title>
<path fill="none" stroke="midnightblue" d="M1494.23,-147.44C1639.82,-144.13 2031.43,-132.14 2078,-98 2096.2,-84.66 2104.38,-59.55 2108.05,-40.72"/>
<polygon fill="midnightblue" stroke="midnightblue" points="2111.52,-41.19 2109.69,-30.75 2104.61,-40.05 2111.52,-41.19"/>
</g>
<!-- Node30&#45;&gt;Node16 -->
<g id="edge46" class="edge">
<title>Node30&#45;&gt;Node16</title>
<path fill="none" stroke="midnightblue" d="M1385.95,-146.27C1247.38,-140.37 868.2,-123.05 553,-98 514.01,-94.9 469.12,-90.11 440.43,-86.89"/>
<polygon fill="midnightblue" stroke="midnightblue" points="440.6,-83.39 430.27,-85.74 439.81,-90.35 440.6,-83.39"/>
</g>
<!-- Node30&#45;&gt;Node25 -->
<g id="edge49" class="edge">
<title>Node30&#45;&gt;Node25</title>
<path fill="none" stroke="midnightblue" d="M1385.9,-139.77C1324.55,-129.83 1221.54,-113.01 1133,-98 1125,-96.64 1116.58,-95.19 1108.28,-93.76"/>
<polygon fill="midnightblue" stroke="midnightblue" points="1108.72,-90.28 1098.26,-92.01 1107.52,-97.18 1108.72,-90.28"/>
</g>
<!-- Node30&#45;&gt;Node27 -->
<g id="edge52" class="edge">
<title>Node30&#45;&gt;Node27</title>
<path fill="none" stroke="midnightblue" d="M1420.48,-134.37C1406.79,-124.37 1388.13,-110.56 1372,-98 1354.8,-84.61 1354.32,-74.9 1334,-67 1296.17,-52.3 717.78,-27.38 518.71,-19.19"/>
<polygon fill="midnightblue" stroke="midnightblue" points="518.81,-15.69 508.68,-18.78 518.53,-22.69 518.81,-15.69"/>
</g>
<!-- Node30&#45;&gt;Node28 -->
<g id="edge55" class="edge">
<title>Node30&#45;&gt;Node28</title>
<path fill="none" stroke="midnightblue" d="M1432.78,-134.41C1422.25,-115.47 1400.75,-82.41 1372,-67 1306.15,-31.69 1093.74,-21.04 981.32,-17.85"/>
<polygon fill="midnightblue" stroke="midnightblue" points="981.19,-14.34 971.09,-17.57 981,-21.34 981.19,-14.34"/>
</g>
<!-- Node30&#45;&gt;Node29 -->
<g id="edge57" class="edge">
<title>Node30&#45;&gt;Node29</title>
<path fill="none" stroke="midnightblue" d="M1391.89,-134.48C1351.22,-122.62 1293.71,-105.86 1255.9,-94.84"/>
<polygon fill="midnightblue" stroke="midnightblue" points="1256.84,-91.47 1246.26,-92.03 1254.88,-98.19 1256.84,-91.47"/>
</g>
<!-- Node31 -->
<g id="node31" class="node">
<title>Node31</title>
<g id="a_node31"><a xlink:title=" ">
<polygon fill="white" stroke="#bfbfbf" points="1929.5,-73 1929.5,-92 2068.5,-92 2068.5,-73 1929.5,-73"/>
<text text-anchor="middle" x="1999" y="-80" font-family="Helvetica,sans-Serif" font-size="10.00">flutter/method_channel.h</text>
</a>
</g>
</g>
<!-- Node30&#45;&gt;Node31 -->
<g id="edge50" class="edge">
<title>Node30&#45;&gt;Node31</title>
<path fill="none" stroke="midnightblue" d="M1494.16,-144.17C1583.24,-136.73 1766.15,-120.18 1920,-98 1928.43,-96.78 1937.34,-95.32 1946.01,-93.8"/>
<polygon fill="midnightblue" stroke="midnightblue" points="1946.82,-97.21 1956.05,-92 1945.59,-90.32 1946.82,-97.21"/>
</g>
<!-- Node32 -->
<g id="node32" class="node">
<title>Node32</title>
<g id="a_node32"><a xlink:title=" ">
<polygon fill="white" stroke="#bfbfbf" points="1424.5,-67.5 1424.5,-97.5 1543.5,-97.5 1543.5,-67.5 1424.5,-67.5"/>
<text text-anchor="start" x="1432.5" y="-85.5" font-family="Helvetica,sans-Serif" font-size="10.00">flutter/method_result</text>
<text text-anchor="middle" x="1484" y="-74.5" font-family="Helvetica,sans-Serif" font-size="10.00">_functions.h</text>
</a>
</g>
</g>
<!-- Node30&#45;&gt;Node32 -->
<g id="edge51" class="edge">
<title>Node30&#45;&gt;Node32</title>
<path fill="none" stroke="midnightblue" d="M1449.55,-134.4C1455.14,-126.13 1462.33,-115.51 1468.7,-106.1"/>
<polygon fill="midnightblue" stroke="midnightblue" points="1471.76,-107.82 1474.47,-97.58 1465.97,-103.9 1471.76,-107.82"/>
</g>
<!-- Node33 -->
<g id="node33" class="node">
<title>Node33</title>
<g id="a_node33"><a xlink:title=" ">
<polygon fill="white" stroke="#bfbfbf" points="1561.5,-67.5 1561.5,-97.5 1732.5,-97.5 1732.5,-67.5 1561.5,-67.5"/>
<text text-anchor="start" x="1569.5" y="-85.5" font-family="Helvetica,sans-Serif" font-size="10.00">flutter/shell/platform</text>
<text text-anchor="middle" x="1647" y="-74.5" font-family="Helvetica,sans-Serif" font-size="10.00">/common/json_method_codec.h</text>
</a>
</g>
</g>
<!-- Node30&#45;&gt;Node33 -->
<g id="edge53" class="edge">
<title>Node30&#45;&gt;Node33</title>
<path fill="none" stroke="midnightblue" d="M1484.66,-134.48C1516.25,-124.56 1558.78,-111.2 1592.39,-100.65"/>
<polygon fill="midnightblue" stroke="midnightblue" points="1593.57,-103.95 1602.06,-97.61 1591.47,-97.27 1593.57,-103.95"/>
</g>
<!-- Node34 -->
<g id="node34" class="node">
<title>Node34</title>
<g id="a_node34"><a xlink:title=" ">
<polygon fill="white" stroke="#bfbfbf" points="1751,-67.5 1751,-97.5 1911,-97.5 1911,-67.5 1751,-67.5"/>
<text text-anchor="start" x="1759" y="-85.5" font-family="Helvetica,sans-Serif" font-size="10.00">flutter/shell/platform</text>
<text text-anchor="middle" x="1831" y="-74.5" font-family="Helvetica,sans-Serif" font-size="10.00">/common/text_input_model.h</text>
</a>
</g>
</g>
<!-- Node30&#45;&gt;Node34 -->
<g id="edge54" class="edge">
<title>Node30&#45;&gt;Node34</title>
<path fill="none" stroke="midnightblue" d="M1494.37,-139.46C1558.03,-128.88 1664.44,-111.19 1740.58,-98.53"/>
<polygon fill="midnightblue" stroke="midnightblue" points="1741.36,-101.95 1750.65,-96.86 1740.21,-95.04 1741.36,-101.95"/>
</g>
<!-- Node35&#45;&gt;Node2 -->
<g id="edge68" class="edge">
<title>Node35&#45;&gt;Node2</title>
<path fill="none" stroke="midnightblue" d="M313.68,-159.13C327.32,-183.26 369.72,-251.32 427,-277 515.6,-316.73 1999.73,-321.38 2328.75,-321.93"/>
<polygon fill="midnightblue" stroke="midnightblue" points="2329.05,-325.43 2339.05,-321.94 2329.06,-318.43 2329.05,-325.43"/>
</g>
<!-- Node35&#45;&gt;Node3 -->
<g id="edge61" class="edge">
<title>Node35&#45;&gt;Node3</title>
<path fill="none" stroke="midnightblue" d="M308.73,-139.73C308.44,-130.18 307.96,-114.62 307.58,-102.28"/>
<polygon fill="midnightblue" stroke="midnightblue" points="311.07,-102.01 307.27,-92.13 304.07,-102.23 311.07,-102.01"/>
</g>
<!-- Node35&#45;&gt;Node16 -->
<g id="edge60" class="edge">
<title>Node35&#45;&gt;Node16</title>
<path fill="none" stroke="midnightblue" d="M322.76,-139.73C339.73,-128.92 368.81,-110.38 388.93,-97.57"/>
<polygon fill="midnightblue" stroke="midnightblue" points="390.91,-100.45 397.46,-92.13 387.15,-94.55 390.91,-100.45"/>
</g>
<!-- Node35&#45;&gt;Node27 -->
<g id="edge67" class="edge">
<title>Node35&#45;&gt;Node27</title>
<path fill="none" stroke="midnightblue" d="M254.44,-145.75C176.44,-139.87 47.42,-121.78 95,-67 104.44,-56.13 284.61,-34.81 385.3,-23.67"/>
<polygon fill="midnightblue" stroke="midnightblue" points="385.82,-27.13 395.38,-22.56 385.06,-20.17 385.82,-27.13"/>
</g>
<!-- Node36 -->
<g id="node36" class="node">
<title>Node36</title>
<g id="a_node36"><a xlink:href="configuration_8h.html" target="_top" xlink:title=" ">
<polygon fill="white" stroke="black" points="104,-73 104,-92 260,-92 260,-73 104,-73"/>
<text text-anchor="middle" x="182" y="-80" font-family="Helvetica,sans-Serif" font-size="10.00">configuration/configuration.h</text>
</a>
</g>
</g>
<!-- Node35&#45;&gt;Node36 -->
<g id="edge62" class="edge">
<title>Node35&#45;&gt;Node36</title>
<path fill="none" stroke="midnightblue" d="M292.14,-139.87C270.6,-128.84 233.1,-109.66 207.92,-96.77"/>
<polygon fill="midnightblue" stroke="midnightblue" points="209.43,-93.61 198.93,-92.17 206.24,-99.84 209.43,-93.61"/>
</g>
<!-- Node36&#45;&gt;Node4 -->
<g id="edge63" class="edge">
<title>Node36&#45;&gt;Node4</title>
<path fill="none" stroke="midnightblue" d="M194.27,-72.73C209.15,-62.11 234.43,-44.05 252.33,-31.26"/>
<polygon fill="midnightblue" stroke="midnightblue" points="254.82,-33.79 260.92,-25.13 250.75,-28.09 254.82,-33.79"/>
</g>
<!-- Node36&#45;&gt;Node19 -->
<g id="edge64" class="edge">
<title>Node36&#45;&gt;Node19</title>
<path fill="none" stroke="midnightblue" d="M226.56,-72.98C240.14,-70.68 255.14,-68.43 269,-67 513.75,-41.74 1306.63,-21.5 1480.22,-17.3"/>
<polygon fill="midnightblue" stroke="midnightblue" points="1480.38,-20.8 1490.29,-17.06 1480.21,-13.8 1480.38,-20.8"/>
</g>
<!-- Node36&#45;&gt;Node27 -->
<g id="edge65" class="edge">
<title>Node36&#45;&gt;Node27</title>
<path fill="none" stroke="midnightblue" d="M217.58,-72.94C266.14,-61.24 353.22,-40.28 406.49,-27.46"/>
<polygon fill="midnightblue" stroke="midnightblue" points="407.44,-30.83 416.35,-25.08 405.8,-24.02 407.44,-30.83"/>
</g>
<!-- Node36&#45;&gt;Node28 -->
<g id="edge66" class="edge">
<title>Node36&#45;&gt;Node28</title>
<path fill="none" stroke="midnightblue" d="M228.85,-72.93C241.82,-70.76 255.93,-68.6 269,-67 475.18,-41.75 720.29,-26.52 838.8,-20.09"/>
<polygon fill="midnightblue" stroke="midnightblue" points="839.04,-23.58 848.84,-19.55 838.67,-16.59 839.04,-23.58"/>
</g>
</g>
</svg>
