<?xml version="1.0" encoding="UTF-8" standalone="no"?>
<!DOCTYPE svg PUBLIC "-//W3C//DTD SVG 1.1//EN"
 "http://www.w3.org/Graphics/SVG/1.1/DTD/svg11.dtd">
<!-- Generated by graphviz version 5.0.0 (0)
 -->
<!-- Title: /mnt/raid10/stargate/ivi&#45;homescreen/shell/static_plugins/gstreamer_egl/nv12.h Pages: 1 -->
<svg width="2956pt" height="434pt"
 viewBox="0.00 0.00 2956.16 434.00" xmlns="http://www.w3.org/2000/svg" xmlns:xlink="http://www.w3.org/1999/xlink">
<g id="graph0" class="graph" transform="scale(1 1) rotate(0) translate(4 430)">
<title>/mnt/raid10/stargate/ivi&#45;homescreen/shell/static_plugins/gstreamer_egl/nv12.h</title>
<!-- Node1 -->
<g id="node1" class="node">
<title>Node1</title>
<g id="a_node1"><a xlink:title=" ">
<polygon fill="#999999" stroke="#666666" points="2465.16,-426 2339.16,-426 2339.16,-374 2465.16,-374 2465.16,-426"/>
<text text-anchor="start" x="2347.16" y="-414" font-family="Helvetica,sans-Serif" font-size="10.00">/mnt/raid10/stargate</text>
<text text-anchor="start" x="2347.16" y="-403" font-family="Helvetica,sans-Serif" font-size="10.00">/ivi&#45;homescreen/shell</text>
<text text-anchor="start" x="2347.16" y="-392" font-family="Helvetica,sans-Serif" font-size="10.00">/static_plugins/gstreamer</text>
<text text-anchor="middle" x="2402.16" y="-381" font-family="Helvetica,sans-Serif" font-size="10.00">_egl/nv12.h</text>
</a>
</g>
</g>
<!-- Node2 -->
<g id="node2" class="node">
<title>Node2</title>
<g id="a_node2"><a xlink:href="window_8h.html" target="_top" xlink:title=" ">
<polygon fill="white" stroke="#666666" points="2399.16,-338 2303.16,-338 2303.16,-319 2399.16,-319 2399.16,-338"/>
<text text-anchor="middle" x="2351.16" y="-326" font-family="Helvetica,sans-Serif" font-size="10.00">wayland/window.h</text>
</a>
</g>
</g>
<!-- Node1&#45;&gt;Node2 -->
<g id="edge1" class="edge">
<title>Node1&#45;&gt;Node2</title>
<path fill="none" stroke="#63b8ff" d="M2383.75,-373.91C2377.05,-364.77 2369.63,-354.67 2363.57,-346.41"/>
<polygon fill="#63b8ff" stroke="#63b8ff" points="2366.36,-344.29 2357.62,-338.3 2360.72,-348.44 2366.36,-344.29"/>
</g>
<!-- Node47 -->
<g id="node47" class="node">
<title>Node47</title>
<g id="a_node47"><a xlink:title=" ">
<polygon fill="#e0e0e0" stroke="#999999" points="2489.16,-338 2417.16,-338 2417.16,-319 2489.16,-319 2489.16,-338"/>
<text text-anchor="middle" x="2453.16" y="-326" font-family="Helvetica,sans-Serif" font-size="10.00">GLES3/gl3.h</text>
</a>
</g>
</g>
<!-- Node1&#45;&gt;Node47 -->
<g id="edge80" class="edge">
<title>Node1&#45;&gt;Node47</title>
<path fill="none" stroke="#63b8ff" d="M2420.58,-373.91C2427.28,-364.77 2434.7,-354.67 2440.76,-346.41"/>
<polygon fill="#63b8ff" stroke="#63b8ff" points="2443.61,-348.44 2446.7,-338.3 2437.97,-344.29 2443.61,-348.44"/>
</g>
<!-- Node3 -->
<g id="node3" class="node">
<title>Node3</title>
<g id="a_node3"><a xlink:title=" ">
<polygon fill="#e0e0e0" stroke="#999999" points="1144.16,-90.5 1092.16,-90.5 1092.16,-71.5 1144.16,-71.5 1144.16,-90.5"/>
<text text-anchor="middle" x="1118.16" y="-78.5" font-family="Helvetica,sans-Serif" font-size="10.00">memory</text>
</a>
</g>
</g>
<!-- Node2&#45;&gt;Node3 -->
<g id="edge2" class="edge">
<title>Node2&#45;&gt;Node3</title>
<path fill="none" stroke="#63b8ff" d="M2303.15,-327.35C2143.83,-326.49 1633.64,-320.78 1474.16,-283 1344.23,-252.22 1309.61,-237.05 1199.16,-162 1172.19,-143.67 1146.34,-115.74 1131.37,-98.19"/>
<polygon fill="#63b8ff" stroke="#63b8ff" points="1134.03,-95.93 1124.93,-90.5 1128.67,-100.42 1134.03,-95.93"/>
</g>
<!-- Node4 -->
<g id="node4" class="node">
<title>Node4</title>
<g id="a_node4"><a xlink:title=" ">
<polygon fill="#e0e0e0" stroke="#999999" points="2359.66,-24.5 2318.66,-24.5 2318.66,-5.5 2359.66,-5.5 2359.66,-24.5"/>
<text text-anchor="middle" x="2339.16" y="-12.5" font-family="Helvetica,sans-Serif" font-size="10.00">string</text>
</a>
</g>
</g>
<!-- Node2&#45;&gt;Node4 -->
<g id="edge3" class="edge">
<title>Node2&#45;&gt;Node4</title>
<path fill="none" stroke="#63b8ff" d="M2346.86,-318.83C2339.91,-303.44 2328.56,-271.23 2345.16,-253 2402.87,-189.63 2646.63,-240.13 2729.16,-217 2789.68,-200.04 2864.58,-190.71 2842.16,-132 2828.13,-95.24 2818.12,-84.05 2783.16,-66 2710.8,-28.63 2458.4,-18.92 2370.02,-16.64"/>
<polygon fill="#63b8ff" stroke="#63b8ff" points="2369.92,-13.14 2359.84,-16.39 2369.75,-20.14 2369.92,-13.14"/>
</g>
<!-- Node5 -->
<g id="node5" class="node">
<title>Node5</title>
<g id="a_node5"><a xlink:title=" ">
<polygon fill="#e0e0e0" stroke="#999999" points="2402.66,-277.5 2353.66,-277.5 2353.66,-258.5 2402.66,-258.5 2402.66,-277.5"/>
<text text-anchor="middle" x="2378.16" y="-265.5" font-family="Helvetica,sans-Serif" font-size="10.00">cassert</text>
</a>
</g>
</g>
<!-- Node2&#45;&gt;Node5 -->
<g id="edge4" class="edge">
<title>Node2&#45;&gt;Node5</title>
<path fill="none" stroke="#63b8ff" d="M2355.15,-318.87C2359.02,-310.49 2365.01,-297.51 2369.9,-286.89"/>
<polygon fill="#63b8ff" stroke="#63b8ff" points="2373.15,-288.21 2374.16,-277.67 2366.79,-285.28 2373.15,-288.21"/>
</g>
<!-- Node6 -->
<g id="node6" class="node">
<title>Node6</title>
<g id="a_node6"><a xlink:title=" ">
<polygon fill="#e0e0e0" stroke="#999999" points="2545.66,-277.5 2420.66,-277.5 2420.66,-258.5 2545.66,-258.5 2545.66,-277.5"/>
<text text-anchor="middle" x="2483.16" y="-265.5" font-family="Helvetica,sans-Serif" font-size="10.00">agl&#45;shell&#45;client&#45;protocol.h</text>
</a>
</g>
</g>
<!-- Node2&#45;&gt;Node6 -->
<g id="edge5" class="edge">
<title>Node2&#45;&gt;Node6</title>
<path fill="none" stroke="#63b8ff" d="M2370.36,-318.99C2392.55,-309.16 2429.28,-292.88 2454.78,-281.58"/>
<polygon fill="#63b8ff" stroke="#63b8ff" points="2456.22,-284.77 2463.95,-277.52 2453.39,-278.37 2456.22,-284.77"/>
</g>
<!-- Node7 -->
<g id="node7" class="node">
<title>Node7</title>
<g id="a_node7"><a xlink:href="constants_8h.html" target="_top" xlink:title=" ">
<polygon fill="white" stroke="#666666" points="878.16,-90.5 810.16,-90.5 810.16,-71.5 878.16,-71.5 878.16,-90.5"/>
<text text-anchor="middle" x="844.16" y="-78.5" font-family="Helvetica,sans-Serif" font-size="10.00">constants.h</text>
</a>
</g>
</g>
<!-- Node2&#45;&gt;Node7 -->
<g id="edge6" class="edge">
<title>Node2&#45;&gt;Node7</title>
<path fill="none" stroke="#63b8ff" d="M2302.95,-327.39C2130.63,-326.67 1545.79,-321.4 1363.16,-283 1164.98,-241.33 943.43,-133.16 869.61,-95.31"/>
<polygon fill="#63b8ff" stroke="#63b8ff" points="871.07,-92.13 860.58,-90.65 867.86,-98.35 871.07,-92.13"/>
</g>
<!-- Node11 -->
<g id="node11" class="node">
<title>Node11</title>
<g id="a_node11"><a xlink:href="backend_8h.html" target="_top" xlink:title=" ">
<polygon fill="white" stroke="#666666" points="1684.66,-277.5 1583.66,-277.5 1583.66,-258.5 1684.66,-258.5 1684.66,-277.5"/>
<text text-anchor="middle" x="1634.16" y="-265.5" font-family="Helvetica,sans-Serif" font-size="10.00">backend/backend.h</text>
</a>
</g>
</g>
<!-- Node2&#45;&gt;Node11 -->
<g id="edge10" class="edge">
<title>Node2&#45;&gt;Node11</title>
<path fill="none" stroke="#63b8ff" d="M2303.01,-323.57C2176.5,-313.25 1834.89,-285.38 1695.08,-273.97"/>
<polygon fill="#63b8ff" stroke="#63b8ff" points="1695.22,-270.47 1684.97,-273.15 1694.65,-277.45 1695.22,-270.47"/>
</g>
<!-- Node44 -->
<g id="node44" class="node">
<title>Node44</title>
<g id="a_node44"><a xlink:title=" ">
<polygon fill="#e0e0e0" stroke="#999999" points="2666.16,-283 2564.16,-283 2564.16,-253 2666.16,-253 2666.16,-283"/>
<text text-anchor="start" x="2572.16" y="-271" font-family="Helvetica,sans-Serif" font-size="10.00">ivi&#45;application&#45;client</text>
<text text-anchor="middle" x="2615.16" y="-260" font-family="Helvetica,sans-Serif" font-size="10.00">&#45;protocol.h</text>
</a>
</g>
</g>
<!-- Node2&#45;&gt;Node44 -->
<g id="edge77" class="edge">
<title>Node2&#45;&gt;Node44</title>
<path fill="none" stroke="#63b8ff" d="M2391.07,-318.97C2430.13,-310.59 2491.59,-297.29 2554.08,-283.23"/>
<polygon fill="#63b8ff" stroke="#63b8ff" points="2555.13,-286.58 2564.11,-280.96 2553.59,-279.75 2555.13,-286.58"/>
</g>
<!-- Node45 -->
<g id="node45" class="node">
<title>Node45</title>
<g id="a_node45"><a xlink:title=" ">
<polygon fill="#e0e0e0" stroke="#999999" points="2801.66,-277.5 2684.66,-277.5 2684.66,-258.5 2801.66,-258.5 2801.66,-277.5"/>
<text text-anchor="middle" x="2743.16" y="-265.5" font-family="Helvetica,sans-Serif" font-size="10.00">ivi&#45;wm&#45;client&#45;protocol.h</text>
</a>
</g>
</g>
<!-- Node2&#45;&gt;Node45 -->
<g id="edge78" class="edge">
<title>Node2&#45;&gt;Node45</title>
<path fill="none" stroke="#63b8ff" d="M2399.36,-320.26C2402.34,-319.83 2405.29,-319.41 2408.16,-319 2526.71,-302.17 2557.12,-303.08 2675.16,-283 2681.32,-281.95 2687.78,-280.75 2694.15,-279.51"/>
<polygon fill="#63b8ff" stroke="#63b8ff" points="2694.93,-282.92 2704.06,-277.53 2693.56,-276.06 2694.93,-282.92"/>
</g>
<!-- Node46 -->
<g id="node46" class="node">
<title>Node46</title>
<g id="a_node46"><a xlink:title=" ">
<polygon fill="#e0e0e0" stroke="#999999" points="2948.16,-277.5 2820.16,-277.5 2820.16,-258.5 2948.16,-258.5 2948.16,-277.5"/>
<text text-anchor="middle" x="2884.16" y="-265.5" font-family="Helvetica,sans-Serif" font-size="10.00">xdg&#45;shell&#45;client&#45;protocol.h</text>
</a>
</g>
</g>
<!-- Node2&#45;&gt;Node46 -->
<g id="edge79" class="edge">
<title>Node2&#45;&gt;Node46</title>
<path fill="none" stroke="#63b8ff" d="M2399.34,-320.11C2402.32,-319.72 2405.28,-319.34 2408.16,-319 2586.73,-297.73 2633.08,-307.97 2811.16,-283 2818.54,-281.97 2826.3,-280.69 2833.89,-279.33"/>
<polygon fill="#63b8ff" stroke="#63b8ff" points="2834.54,-282.76 2843.74,-277.5 2833.27,-275.88 2834.54,-282.76"/>
</g>
<!-- Node8 -->
<g id="node8" class="node">
<title>Node8</title>
<g id="a_node8"><a xlink:title=" ">
<polygon fill="#e0e0e0" stroke="#999999" points="401.16,-24.5 341.16,-24.5 341.16,-5.5 401.16,-5.5 401.16,-24.5"/>
<text text-anchor="middle" x="371.16" y="-12.5" font-family="Helvetica,sans-Serif" font-size="10.00">EGL/egl.h</text>
</a>
</g>
</g>
<!-- Node7&#45;&gt;Node8 -->
<g id="edge7" class="edge">
<title>Node7&#45;&gt;Node8</title>
<path fill="none" stroke="#63b8ff" d="M820.18,-71.45C813.75,-69.41 806.75,-67.42 800.16,-66 659.27,-35.67 488.11,-22.7 411.55,-18.12"/>
<polygon fill="#63b8ff" stroke="#63b8ff" points="411.58,-14.61 401.39,-17.52 411.17,-21.6 411.58,-14.61"/>
</g>
<!-- Node9 -->
<g id="node9" class="node">
<title>Node9</title>
<g id="a_node9"><a xlink:title=" ">
<polygon fill="#e0e0e0" stroke="#999999" points="2826.66,-30 2705.66,-30 2705.66,0 2826.66,0 2826.66,-30"/>
<text text-anchor="start" x="2713.66" y="-18" font-family="Helvetica,sans-Serif" font-size="10.00">shell/platform/embedder</text>
<text text-anchor="middle" x="2766.16" y="-7" font-family="Helvetica,sans-Serif" font-size="10.00">/embedder.h</text>
</a>
</g>
</g>
<!-- Node7&#45;&gt;Node9 -->
<g id="edge8" class="edge">
<title>Node7&#45;&gt;Node9</title>
<path fill="none" stroke="#63b8ff" d="M878.3,-72.96C892.7,-70.29 909.68,-67.52 925.16,-66 1564.06,-3.16 1727.48,-49.31 2369.16,-30 2483.3,-26.56 2615.86,-21.72 2695.27,-18.72"/>
<polygon fill="#63b8ff" stroke="#63b8ff" points="2695.78,-22.2 2705.64,-18.33 2695.51,-15.21 2695.78,-22.2"/>
</g>
<!-- Node10 -->
<g id="node10" class="node">
<title>Node10</title>
<g id="a_node10"><a xlink:title=" ">
<polygon fill="#e0e0e0" stroke="#999999" points="863.16,-24.5 825.16,-24.5 825.16,-5.5 863.16,-5.5 863.16,-24.5"/>
<text text-anchor="middle" x="844.16" y="-12.5" font-family="Helvetica,sans-Serif" font-size="10.00">array</text>
</a>
</g>
</g>
<!-- Node7&#45;&gt;Node10 -->
<g id="edge9" class="edge">
<title>Node7&#45;&gt;Node10</title>
<path fill="none" stroke="#63b8ff" d="M844.16,-71.37C844.16,-62.16 844.16,-47.29 844.16,-35.27"/>
<polygon fill="#63b8ff" stroke="#63b8ff" points="847.66,-34.91 844.16,-24.91 840.66,-34.91 847.66,-34.91"/>
</g>
<!-- Node11&#45;&gt;Node7 -->
<g id="edge12" class="edge">
<title>Node11&#45;&gt;Node7</title>
<path fill="none" stroke="#63b8ff" d="M1593.13,-258.49C1510.32,-241.2 1317.34,-200.35 1156.16,-162 1058.97,-138.87 945.47,-109.06 885.77,-93.16"/>
<polygon fill="#63b8ff" stroke="#63b8ff" points="886.53,-89.74 875.96,-90.54 884.72,-96.5 886.53,-89.74"/>
</g>
<!-- Node11&#45;&gt;Node9 -->
<g id="edge11" class="edge">
<title>Node11&#45;&gt;Node9</title>
<path fill="none" stroke="#63b8ff" d="M1684.93,-266.6C1906.4,-264.36 2780.42,-249.95 2861.16,-162 2878.03,-143.63 2856.49,-83.04 2844.16,-66 2834.97,-53.29 2821.46,-43.01 2808.27,-35.16"/>
<polygon fill="#63b8ff" stroke="#63b8ff" points="2809.67,-31.93 2799.23,-30.1 2806.25,-38.04 2809.67,-31.93"/>
</g>
<!-- Node12 -->
<g id="node12" class="node">
<title>Node12</title>
<g id="a_node12"><a xlink:href="engine_8h.html" target="_top" xlink:title=" ">
<polygon fill="white" stroke="#666666" points="1660.66,-217 1607.66,-217 1607.66,-198 1660.66,-198 1660.66,-217"/>
<text text-anchor="middle" x="1634.16" y="-205" font-family="Helvetica,sans-Serif" font-size="10.00">engine.h</text>
</a>
</g>
</g>
<!-- Node11&#45;&gt;Node12 -->
<g id="edge13" class="edge">
<title>Node11&#45;&gt;Node12</title>
<path fill="none" stroke="#63b8ff" d="M1629.21,-258.37C1627.45,-250.25 1626.98,-237.81 1627.8,-227.39"/>
<polygon fill="#63b8ff" stroke="#63b8ff" points="1631.31,-227.55 1629.2,-217.17 1624.38,-226.6 1631.31,-227.55"/>
</g>
<!-- Node12&#45;&gt;Node3 -->
<g id="edge21" class="edge">
<title>Node12&#45;&gt;Node3</title>
<path fill="none" stroke="#63b8ff" d="M1607.35,-206.69C1555.86,-206.11 1440.49,-200.23 1353.16,-162 1333.45,-153.37 1334.62,-141.18 1315.16,-132 1246.89,-99.78 1220.85,-119.67 1149.16,-96 1147.73,-95.53 1146.27,-95.01 1144.8,-94.45"/>
<polygon fill="#63b8ff" stroke="#63b8ff" points="1145.86,-91.11 1135.29,-90.51 1143.18,-97.57 1145.86,-91.11"/>
</g>
<!-- Node12&#45;&gt;Node4 -->
<g id="edge24" class="edge">
<title>Node12&#45;&gt;Node4</title>
<path fill="none" stroke="#63b8ff" d="M1660.9,-205.81C1818.28,-201.47 2619.61,-175.56 2690.16,-96 2699.01,-86.02 2698.9,-76.07 2690.16,-66 2648.75,-18.27 2447.94,-14.94 2370.09,-15.49"/>
<polygon fill="#63b8ff" stroke="#63b8ff" points="2369.92,-11.99 2359.95,-15.59 2369.99,-18.99 2369.92,-11.99"/>
</g>
<!-- Node12&#45;&gt;Node7 -->
<g id="edge27" class="edge">
<title>Node12&#45;&gt;Node7</title>
<path fill="none" stroke="#63b8ff" d="M1607.59,-205.53C1525.18,-202.23 1274.87,-190.11 1199.16,-162 1177.32,-153.89 1177.82,-140.61 1156.16,-132 1055.12,-91.83 1021.29,-114.67 914.16,-96 905.74,-94.53 896.77,-92.84 888.16,-91.15"/>
<polygon fill="#63b8ff" stroke="#63b8ff" points="888.77,-87.7 878.28,-89.18 887.4,-94.56 888.77,-87.7"/>
</g>
<!-- Node12&#45;&gt;Node8 -->
<g id="edge15" class="edge">
<title>Node12&#45;&gt;Node8</title>
<path fill="none" stroke="#63b8ff" d="M1607.43,-206.44C1405.57,-205.93 126.83,-201.11 56.16,-162 15.1,-139.27 -18.65,-101.4 12.16,-66 53.16,-18.9 246.37,-14.78 331.14,-15.3"/>
<polygon fill="#63b8ff" stroke="#63b8ff" points="331.13,-18.8 341.16,-15.39 331.19,-11.8 331.13,-18.8"/>
</g>
<!-- Node12&#45;&gt;Node9 -->
<g id="edge18" class="edge">
<title>Node12&#45;&gt;Node9</title>
<path fill="none" stroke="#63b8ff" d="M1660.92,-206.55C1834.89,-206.77 2799.77,-205.99 2842.16,-162 2877.96,-124.86 2825.48,-67.5 2791.42,-36.9"/>
<polygon fill="#63b8ff" stroke="#63b8ff" points="2793.47,-34.04 2783.64,-30.08 2788.85,-39.31 2793.47,-34.04"/>
</g>
<!-- Node12&#45;&gt;Node11 -->
<g id="edge26" class="edge">
<title>Node12&#45;&gt;Node11</title>
<path fill="none" stroke="#63b8ff" d="M1639.13,-217.17C1640.88,-225.3 1641.34,-237.74 1640.52,-248.16"/>
<polygon fill="#63b8ff" stroke="#63b8ff" points="1637.01,-247.99 1639.12,-258.37 1643.94,-248.94 1637.01,-247.99"/>
</g>
<!-- Node13 -->
<g id="node13" class="node">
<title>Node13</title>
<g id="a_node13"><a xlink:title=" ">
<polygon fill="#e0e0e0" stroke="#999999" points="1579.66,-156.5 1520.66,-156.5 1520.66,-137.5 1579.66,-137.5 1579.66,-156.5"/>
<text text-anchor="middle" x="1550.16" y="-144.5" font-family="Helvetica,sans-Serif" font-size="10.00">functional</text>
</a>
</g>
</g>
<!-- Node12&#45;&gt;Node13 -->
<g id="edge14" class="edge">
<title>Node12&#45;&gt;Node13</title>
<path fill="none" stroke="#63b8ff" d="M1621.77,-197.87C1608.37,-188.54 1586.79,-173.51 1570.82,-162.38"/>
<polygon fill="#63b8ff" stroke="#63b8ff" points="1572.81,-159.51 1562.61,-156.67 1568.81,-165.25 1572.81,-159.51"/>
</g>
<!-- Node14 -->
<g id="node14" class="node">
<title>Node14</title>
<g id="a_node14"><a xlink:title=" ">
<polygon fill="#e0e0e0" stroke="#999999" points="1670.16,-156.5 1598.16,-156.5 1598.16,-137.5 1670.16,-137.5 1670.16,-156.5"/>
<text text-anchor="middle" x="1634.16" y="-144.5" font-family="Helvetica,sans-Serif" font-size="10.00">GLES2/gl2.h</text>
</a>
</g>
</g>
<!-- Node12&#45;&gt;Node14 -->
<g id="edge16" class="edge">
<title>Node12&#45;&gt;Node14</title>
<path fill="none" stroke="#63b8ff" d="M1634.16,-197.87C1634.16,-189.75 1634.16,-177.31 1634.16,-166.89"/>
<polygon fill="#63b8ff" stroke="#63b8ff" points="1637.66,-166.67 1634.16,-156.67 1630.66,-166.67 1637.66,-166.67"/>
</g>
<!-- Node15 -->
<g id="node15" class="node">
<title>Node15</title>
<g id="a_node15"><a xlink:title=" ">
<polygon fill="#e0e0e0" stroke="#999999" points="1813.66,-156.5 1688.66,-156.5 1688.66,-137.5 1813.66,-137.5 1813.66,-156.5"/>
<text text-anchor="middle" x="1751.16" y="-144.5" font-family="Helvetica,sans-Serif" font-size="10.00">flutter/encodable_value.h</text>
</a>
</g>
</g>
<!-- Node12&#45;&gt;Node15 -->
<g id="edge17" class="edge">
<title>Node12&#45;&gt;Node15</title>
<path fill="none" stroke="#63b8ff" d="M1651.18,-197.99C1670.59,-188.29 1702.55,-172.31 1725.1,-161.03"/>
<polygon fill="#63b8ff" stroke="#63b8ff" points="1726.75,-164.12 1734.13,-156.52 1723.62,-157.86 1726.75,-164.12"/>
</g>
<!-- Node16 -->
<g id="node16" class="node">
<title>Node16</title>
<g id="a_node16"><a xlink:title=" ">
<polygon fill="#e0e0e0" stroke="#999999" points="1894.16,-156.5 1832.16,-156.5 1832.16,-137.5 1894.16,-137.5 1894.16,-156.5"/>
<text text-anchor="middle" x="1863.16" y="-144.5" font-family="Helvetica,sans-Serif" font-size="10.00">filesystem</text>
</a>
</g>
</g>
<!-- Node12&#45;&gt;Node16 -->
<g id="edge19" class="edge">
<title>Node12&#45;&gt;Node16</title>
<path fill="none" stroke="#63b8ff" d="M1660.84,-201.04C1697.47,-193.34 1765.28,-178.4 1822.16,-162 1824.63,-161.29 1827.17,-160.52 1829.71,-159.72"/>
<polygon fill="#63b8ff" stroke="#63b8ff" points="1831.02,-162.97 1839.44,-156.54 1828.85,-156.32 1831.02,-162.97"/>
</g>
<!-- Node17 -->
<g id="node17" class="node">
<title>Node17</title>
<g id="a_node17"><a xlink:title=" ">
<polygon fill="#e0e0e0" stroke="#999999" points="1926.66,-90.5 1891.66,-90.5 1891.66,-71.5 1926.66,-71.5 1926.66,-90.5"/>
<text text-anchor="middle" x="1909.16" y="-78.5" font-family="Helvetica,sans-Serif" font-size="10.00">map</text>
</a>
</g>
</g>
<!-- Node12&#45;&gt;Node17 -->
<g id="edge20" class="edge">
<title>Node12&#45;&gt;Node17</title>
<path fill="none" stroke="#63b8ff" d="M1607.5,-201.2C1562.48,-191.15 1479.28,-167.12 1511.16,-132 1566.83,-70.67 1802.73,-119.49 1882.16,-96 1883.39,-95.64 1884.62,-95.22 1885.85,-94.76"/>
<polygon fill="#63b8ff" stroke="#63b8ff" points="1887.35,-97.92 1895.02,-90.62 1884.46,-91.55 1887.35,-97.92"/>
</g>
<!-- Node18 -->
<g id="node18" class="node">
<title>Node18</title>
<g id="a_node18"><a xlink:title=" ">
<polygon fill="#e0e0e0" stroke="#999999" points="1956.16,-156.5 1912.16,-156.5 1912.16,-137.5 1956.16,-137.5 1956.16,-156.5"/>
<text text-anchor="middle" x="1934.16" y="-144.5" font-family="Helvetica,sans-Serif" font-size="10.00">mutex</text>
</a>
</g>
</g>
<!-- Node12&#45;&gt;Node18 -->
<g id="edge22" class="edge">
<title>Node12&#45;&gt;Node18</title>
<path fill="none" stroke="#63b8ff" d="M1661.03,-204.38C1710.04,-200.02 1816.86,-188.14 1903.16,-162 1904.8,-161.51 1906.45,-160.94 1908.11,-160.34"/>
<polygon fill="#63b8ff" stroke="#63b8ff" points="1909.49,-163.55 1917.42,-156.52 1906.84,-157.08 1909.49,-163.55"/>
</g>
<!-- Node19 -->
<g id="node19" class="node">
<title>Node19</title>
<g id="a_node19"><a xlink:title=" ">
<polygon fill="#e0e0e0" stroke="#999999" points="2017.66,-156.5 1974.66,-156.5 1974.66,-137.5 2017.66,-137.5 2017.66,-156.5"/>
<text text-anchor="middle" x="1996.16" y="-144.5" font-family="Helvetica,sans-Serif" font-size="10.00">queue</text>
</a>
</g>
</g>
<!-- Node12&#45;&gt;Node19 -->
<g id="edge23" class="edge">
<title>Node12&#45;&gt;Node19</title>
<path fill="none" stroke="#63b8ff" d="M1660.87,-205.53C1717.84,-202.9 1855.07,-193.53 1965.16,-162 1966.8,-161.53 1968.47,-160.99 1970.13,-160.4"/>
<polygon fill="#63b8ff" stroke="#63b8ff" points="1971.49,-163.62 1979.44,-156.62 1968.86,-157.13 1971.49,-163.62"/>
</g>
<!-- Node20 -->
<g id="node20" class="node">
<title>Node20</title>
<g id="a_node20"><a xlink:title=" ">
<polygon fill="#e0e0e0" stroke="#999999" points="978.16,-24.5 934.16,-24.5 934.16,-5.5 978.16,-5.5 978.16,-24.5"/>
<text text-anchor="middle" x="956.16" y="-12.5" font-family="Helvetica,sans-Serif" font-size="10.00">vector</text>
</a>
</g>
</g>
<!-- Node12&#45;&gt;Node20 -->
<g id="edge25" class="edge">
<title>Node12&#45;&gt;Node20</title>
<path fill="none" stroke="#63b8ff" d="M1607.37,-206.64C1478.61,-207.1 910.68,-206.35 448.16,-162 257.45,-143.71 146.84,-241.48 22.16,-96 13.49,-85.88 12.94,-75.63 22.16,-66 54.87,-31.88 825.15,-34.89 872.16,-30 889.37,-28.21 908.39,-25.13 923.98,-22.32"/>
<polygon fill="#63b8ff" stroke="#63b8ff" points="924.96,-25.69 934.16,-20.43 923.69,-18.81 924.96,-25.69"/>
</g>
<!-- Node21 -->
<g id="node21" class="node">
<title>Node21</title>
<g id="a_node21"><a xlink:href="logging_8h.html" target="_top" xlink:title=" ">
<polygon fill="white" stroke="#666666" points="513.16,-156.5 457.16,-156.5 457.16,-137.5 513.16,-137.5 513.16,-156.5"/>
<text text-anchor="middle" x="485.16" y="-144.5" font-family="Helvetica,sans-Serif" font-size="10.00">logging.h</text>
</a>
</g>
</g>
<!-- Node12&#45;&gt;Node21 -->
<g id="edge28" class="edge">
<title>Node12&#45;&gt;Node21</title>
<path fill="none" stroke="#63b8ff" d="M1607.45,-205.14C1455.65,-197.41 702.03,-159.04 523.25,-149.94"/>
<polygon fill="#63b8ff" stroke="#63b8ff" points="523.42,-146.44 513.26,-149.43 523.07,-153.43 523.42,-146.44"/>
</g>
<!-- Node29 -->
<g id="node29" class="node">
<title>Node29</title>
<g id="a_node29"><a xlink:href="platform__channel_8h.html" target="_top" xlink:title=" ">
<polygon fill="white" stroke="#666666" points="2832.66,-156.5 2733.66,-156.5 2733.66,-137.5 2832.66,-137.5 2832.66,-156.5"/>
<text text-anchor="middle" x="2783.16" y="-144.5" font-family="Helvetica,sans-Serif" font-size="10.00">platform_channel.h</text>
</a>
</g>
</g>
<!-- Node12&#45;&gt;Node29 -->
<g id="edge37" class="edge">
<title>Node12&#45;&gt;Node29</title>
<path fill="none" stroke="#63b8ff" d="M1660.68,-206.04C1805.8,-203.43 2505.07,-189.59 2719.16,-162 2725.83,-161.14 2732.84,-159.93 2739.66,-158.58"/>
<polygon fill="#63b8ff" stroke="#63b8ff" points="2740.41,-162 2749.48,-156.52 2738.97,-155.15 2740.41,-162"/>
</g>
<!-- Node30 -->
<g id="node30" class="node">
<title>Node30</title>
<g id="a_node30"><a xlink:href="key__event_8h.html" target="_top" xlink:title=" ">
<polygon fill="white" stroke="#666666" points="1464.16,-162 1362.16,-162 1362.16,-132 1464.16,-132 1464.16,-162"/>
<text text-anchor="start" x="1370.16" y="-150" font-family="Helvetica,sans-Serif" font-size="10.00">static_plugins/key</text>
<text text-anchor="middle" x="1413.16" y="-139" font-family="Helvetica,sans-Serif" font-size="10.00">_event/key_event.h</text>
</a>
</g>
</g>
<!-- Node12&#45;&gt;Node30 -->
<g id="edge41" class="edge">
<title>Node12&#45;&gt;Node30</title>
<path fill="none" stroke="#63b8ff" d="M1607.51,-199.44C1574.63,-190.74 1517.74,-175.68 1473.98,-164.1"/>
<polygon fill="#63b8ff" stroke="#63b8ff" points="1474.86,-160.71 1464.29,-161.53 1473.07,-167.48 1474.86,-160.71"/>
</g>
<!-- Node37 -->
<g id="node37" class="node">
<title>Node37</title>
<g id="a_node37"><a xlink:href="text__input_8h.html" target="_top" xlink:title=" ">
<polygon fill="white" stroke="#666666" points="2132.66,-162 2035.66,-162 2035.66,-132 2132.66,-132 2132.66,-162"/>
<text text-anchor="start" x="2043.66" y="-150" font-family="Helvetica,sans-Serif" font-size="10.00">static_plugins/text</text>
<text text-anchor="middle" x="2084.16" y="-139" font-family="Helvetica,sans-Serif" font-size="10.00">_input/text_input.h</text>
</a>
</g>
</g>
<!-- Node12&#45;&gt;Node37 -->
<g id="edge53" class="edge">
<title>Node12&#45;&gt;Node37</title>
<path fill="none" stroke="#63b8ff" d="M1661.02,-204.65C1723.37,-200.11 1882.91,-187.03 2025.22,-162.21"/>
<polygon fill="#63b8ff" stroke="#63b8ff" points="2026.2,-165.59 2035.43,-160.4 2024.98,-158.7 2026.2,-165.59"/>
</g>
<!-- Node42 -->
<g id="node42" class="node">
<title>Node42</title>
<g id="a_node42"><a xlink:href="flutter__view_8h.html" target="_top" xlink:title=" ">
<polygon fill="white" stroke="#666666" points="1306.16,-156.5 1208.16,-156.5 1208.16,-137.5 1306.16,-137.5 1306.16,-156.5"/>
<text text-anchor="middle" x="1257.16" y="-144.5" font-family="Helvetica,sans-Serif" font-size="10.00">view/flutter_view.h</text>
</a>
</g>
</g>
<!-- Node12&#45;&gt;Node42 -->
<g id="edge67" class="edge">
<title>Node12&#45;&gt;Node42</title>
<path fill="none" stroke="#63b8ff" d="M1607.59,-203.44C1553.34,-197.05 1426.07,-181.24 1320.16,-162 1314.72,-161.01 1309.03,-159.88 1303.4,-158.71"/>
<polygon fill="#63b8ff" stroke="#63b8ff" points="1303.89,-155.23 1293.38,-156.55 1302.42,-162.08 1303.89,-155.23"/>
</g>
<!-- Node21&#45;&gt;Node7 -->
<g id="edge36" class="edge">
<title>Node21&#45;&gt;Node7</title>
<path fill="none" stroke="#63b8ff" d="M513.25,-142.98C568.64,-136.71 695.64,-120.78 800.16,-96 803.36,-95.24 806.66,-94.37 809.95,-93.43"/>
<polygon fill="#63b8ff" stroke="#63b8ff" points="811.11,-96.74 819.68,-90.51 809.09,-90.04 811.11,-96.74"/>
</g>
<!-- Node22 -->
<g id="node22" class="node">
<title>Node22</title>
<g id="a_node22"><a xlink:title=" ">
<polygon fill="#e0e0e0" stroke="#999999" points="306.16,-90.5 254.16,-90.5 254.16,-71.5 306.16,-71.5 306.16,-90.5"/>
<text text-anchor="middle" x="280.16" y="-78.5" font-family="Helvetica,sans-Serif" font-size="10.00">sstream</text>
</a>
</g>
</g>
<!-- Node21&#45;&gt;Node22 -->
<g id="edge29" class="edge">
<title>Node21&#45;&gt;Node22</title>
<path fill="none" stroke="#63b8ff" d="M456.93,-138.58C422.99,-129.45 364.44,-113.06 315.16,-96 313.55,-95.44 311.9,-94.85 310.24,-94.24"/>
<polygon fill="#63b8ff" stroke="#63b8ff" points="311.36,-90.92 300.77,-90.62 308.86,-97.46 311.36,-90.92"/>
</g>
<!-- Node23 -->
<g id="node23" class="node">
<title>Node23</title>
<g id="a_node23"><a xlink:title=" ">
<polygon fill="#e0e0e0" stroke="#999999" points="412.16,-90.5 324.16,-90.5 324.16,-71.5 412.16,-71.5 412.16,-90.5"/>
<text text-anchor="middle" x="368.16" y="-78.5" font-family="Helvetica,sans-Serif" font-size="10.00">spdlog/cfg/env.h</text>
</a>
</g>
</g>
<!-- Node21&#45;&gt;Node23 -->
<g id="edge30" class="edge">
<title>Node21&#45;&gt;Node23</title>
<path fill="none" stroke="#63b8ff" d="M469.38,-137.37C449.76,-126.63 416.03,-108.18 392.94,-95.55"/>
<polygon fill="#63b8ff" stroke="#63b8ff" points="394.52,-92.43 384.07,-90.7 391.16,-98.57 394.52,-92.43"/>
</g>
<!-- Node24 -->
<g id="node24" class="node">
<title>Node24</title>
<g id="a_node24"><a xlink:title=" ">
<polygon fill="#e0e0e0" stroke="#999999" points="540.16,-96 430.16,-96 430.16,-66 540.16,-66 540.16,-96"/>
<text text-anchor="start" x="438.16" y="-84" font-family="Helvetica,sans-Serif" font-size="10.00">spdlog/sinks/callback</text>
<text text-anchor="middle" x="485.16" y="-73" font-family="Helvetica,sans-Serif" font-size="10.00">_sink.h</text>
</a>
</g>
</g>
<!-- Node21&#45;&gt;Node24 -->
<g id="edge31" class="edge">
<title>Node21&#45;&gt;Node24</title>
<path fill="none" stroke="#63b8ff" d="M485.16,-137.37C485.16,-129.49 485.16,-117.45 485.16,-106.6"/>
<polygon fill="#63b8ff" stroke="#63b8ff" points="488.66,-106.36 485.16,-96.36 481.66,-106.36 488.66,-106.36"/>
</g>
<!-- Node25 -->
<g id="node25" class="node">
<title>Node25</title>
<g id="a_node25"><a xlink:title=" ">
<polygon fill="#e0e0e0" stroke="#999999" points="672.16,-96 558.16,-96 558.16,-66 672.16,-66 672.16,-96"/>
<text text-anchor="start" x="566.16" y="-84" font-family="Helvetica,sans-Serif" font-size="10.00">spdlog/sinks/ringbuffer</text>
<text text-anchor="middle" x="615.16" y="-73" font-family="Helvetica,sans-Serif" font-size="10.00">_sink.h</text>
</a>
</g>
</g>
<!-- Node21&#45;&gt;Node25 -->
<g id="edge32" class="edge">
<title>Node21&#45;&gt;Node25</title>
<path fill="none" stroke="#63b8ff" d="M502.7,-137.37C521.75,-127.99 552.76,-112.72 577.4,-100.59"/>
<polygon fill="#63b8ff" stroke="#63b8ff" points="579.06,-103.67 586.49,-96.12 575.97,-97.39 579.06,-103.67"/>
</g>
<!-- Node26 -->
<g id="node26" class="node">
<title>Node26</title>
<g id="a_node26"><a xlink:title=" ">
<polygon fill="#e0e0e0" stroke="#999999" points="791.66,-96 690.66,-96 690.66,-66 791.66,-66 791.66,-96"/>
<text text-anchor="start" x="698.66" y="-84" font-family="Helvetica,sans-Serif" font-size="10.00">spdlog/sinks/stdout</text>
<text text-anchor="middle" x="741.16" y="-73" font-family="Helvetica,sans-Serif" font-size="10.00">_color_sinks.h</text>
</a>
</g>
</g>
<!-- Node21&#45;&gt;Node26 -->
<g id="edge33" class="edge">
<title>Node21&#45;&gt;Node26</title>
<path fill="none" stroke="#63b8ff" d="M513.54,-138.91C553.65,-128.88 627.93,-110.31 680.72,-97.11"/>
<polygon fill="#63b8ff" stroke="#63b8ff" points="681.79,-100.45 690.64,-94.63 680.09,-93.66 681.79,-100.45"/>
</g>
<!-- Node27 -->
<g id="node27" class="node">
<title>Node27</title>
<g id="a_node27"><a xlink:title=" ">
<polygon fill="#e0e0e0" stroke="#999999" points="132.66,-96 31.66,-96 31.66,-66 132.66,-66 132.66,-96"/>
<text text-anchor="start" x="39.66" y="-84" font-family="Helvetica,sans-Serif" font-size="10.00">spdlog/sinks/stdout</text>
<text text-anchor="middle" x="82.16" y="-73" font-family="Helvetica,sans-Serif" font-size="10.00">_sinks.h</text>
</a>
</g>
</g>
<!-- Node21&#45;&gt;Node27 -->
<g id="edge34" class="edge">
<title>Node21&#45;&gt;Node27</title>
<path fill="none" stroke="#63b8ff" d="M456.93,-142.76C399.54,-135.98 264.99,-119.16 142.84,-96.23"/>
<polygon fill="#63b8ff" stroke="#63b8ff" points="143.43,-92.78 132.95,-94.35 142.12,-99.65 143.43,-92.78"/>
</g>
<!-- Node28 -->
<g id="node28" class="node">
<title>Node28</title>
<g id="a_node28"><a xlink:title=" ">
<polygon fill="#e0e0e0" stroke="#999999" points="235.66,-90.5 150.66,-90.5 150.66,-71.5 235.66,-71.5 235.66,-90.5"/>
<text text-anchor="middle" x="193.16" y="-78.5" font-family="Helvetica,sans-Serif" font-size="10.00">spdlog/spdlog.h</text>
</a>
</g>
</g>
<!-- Node21&#45;&gt;Node28 -->
<g id="edge35" class="edge">
<title>Node21&#45;&gt;Node28</title>
<path fill="none" stroke="#63b8ff" d="M456.97,-140.67C412,-132.05 321.34,-114.17 245.16,-96 241.33,-95.09 237.36,-94.09 233.39,-93.07"/>
<polygon fill="#63b8ff" stroke="#63b8ff" points="234.17,-89.66 223.61,-90.51 232.39,-96.43 234.17,-89.66"/>
</g>
<!-- Node29&#45;&gt;Node4 -->
<g id="edge39" class="edge">
<title>Node29&#45;&gt;Node4</title>
<path fill="none" stroke="#63b8ff" d="M2783.65,-137.4C2784.06,-120.77 2782.35,-84.22 2761.16,-66 2702.5,-15.55 2456.67,-14.21 2369.76,-15.37"/>
<polygon fill="#63b8ff" stroke="#63b8ff" points="2369.69,-11.87 2359.74,-15.52 2369.79,-18.87 2369.69,-11.87"/>
</g>
<!-- Node29&#45;&gt;Node9 -->
<g id="edge40" class="edge">
<title>Node29&#45;&gt;Node9</title>
<path fill="none" stroke="#63b8ff" d="M2787.57,-137.46C2794.6,-122.69 2806.82,-91.5 2799.16,-66 2796.22,-56.2 2790.66,-46.54 2784.94,-38.37"/>
<polygon fill="#63b8ff" stroke="#63b8ff" points="2787.57,-36.05 2778.77,-30.15 2781.97,-40.25 2787.57,-36.05"/>
</g>
<!-- Node29&#45;&gt;Node17 -->
<g id="edge38" class="edge">
<title>Node29&#45;&gt;Node17</title>
<path fill="none" stroke="#63b8ff" d="M2733.51,-142.52C2619.59,-134.52 2330.69,-114.09 2089.16,-96 2035.2,-91.96 1972.16,-87 1936.83,-84.2"/>
<polygon fill="#63b8ff" stroke="#63b8ff" points="1937.04,-80.71 1926.79,-83.4 1936.48,-87.68 1937.04,-80.71"/>
</g>
<!-- Node30&#45;&gt;Node3 -->
<g id="edge43" class="edge">
<title>Node30&#45;&gt;Node3</title>
<path fill="none" stroke="#63b8ff" d="M1362.09,-134.87C1357.39,-133.89 1352.69,-132.92 1348.16,-132 1263.92,-114.95 1241.18,-118.26 1158.16,-96 1155.68,-95.33 1153.12,-94.59 1150.56,-93.8"/>
<polygon fill="#63b8ff" stroke="#63b8ff" points="1151.42,-90.39 1140.82,-90.59 1149.23,-97.04 1151.42,-90.39"/>
</g>
<!-- Node30&#45;&gt;Node4 -->
<g id="edge44" class="edge">
<title>Node30&#45;&gt;Node4</title>
<path fill="none" stroke="#63b8ff" d="M1445.98,-131.92C1468.22,-122.21 1498.19,-108.79 1524.16,-96 1549.49,-83.53 1553.02,-73.77 1580.16,-66 1720.35,-25.87 2183.48,-17.77 2308.07,-16.3"/>
<polygon fill="#63b8ff" stroke="#63b8ff" points="2308.45,-19.8 2318.41,-16.18 2308.37,-12.8 2308.45,-19.8"/>
</g>
<!-- Node30&#45;&gt;Node7 -->
<g id="edge52" class="edge">
<title>Node30&#45;&gt;Node7</title>
<path fill="none" stroke="#63b8ff" d="M1362.11,-138.22C1347.01,-136.05 1330.44,-133.8 1315.16,-132 1142.28,-111.69 1097.73,-118.84 925.16,-96 913.24,-94.42 900.38,-92.36 888.5,-90.31"/>
<polygon fill="#63b8ff" stroke="#63b8ff" points="888.82,-86.82 878.36,-88.53 887.6,-93.71 888.82,-86.82"/>
</g>
<!-- Node30&#45;&gt;Node9 -->
<g id="edge50" class="edge">
<title>Node30&#45;&gt;Node9</title>
<path fill="none" stroke="#63b8ff" d="M1464.21,-138.14C1479.3,-135.97 1495.88,-133.74 1511.16,-132 1699.07,-110.62 1747.85,-122.12 1935.16,-96 2004.23,-86.37 2020.05,-75.25 2089.16,-66 2309.02,-36.57 2571.52,-23.39 2695.14,-18.47"/>
<polygon fill="#63b8ff" stroke="#63b8ff" points="2695.37,-21.96 2705.23,-18.08 2695.1,-14.97 2695.37,-21.96"/>
</g>
<!-- Node30&#45;&gt;Node17 -->
<g id="edge42" class="edge">
<title>Node30&#45;&gt;Node17</title>
<path fill="none" stroke="#63b8ff" d="M1464.5,-134.33C1469.11,-133.47 1473.71,-132.68 1478.16,-132 1656.39,-104.97 1709.1,-146.44 1882.16,-96 1883.39,-95.64 1884.62,-95.23 1885.86,-94.77"/>
<polygon fill="#63b8ff" stroke="#63b8ff" points="1887.34,-97.94 1895.02,-90.64 1884.47,-91.56 1887.34,-97.94"/>
</g>
<!-- Node31 -->
<g id="node31" class="node">
<title>Node31</title>
<g id="a_node31"><a xlink:title=" ">
<polygon fill="#e0e0e0" stroke="#999999" points="1313.66,-96 1200.66,-96 1200.66,-66 1313.66,-66 1313.66,-96"/>
<text text-anchor="start" x="1208.66" y="-84" font-family="Helvetica,sans-Serif" font-size="10.00">flutter/basic_message</text>
<text text-anchor="middle" x="1257.16" y="-73" font-family="Helvetica,sans-Serif" font-size="10.00">_channel.h</text>
</a>
</g>
</g>
<!-- Node30&#45;&gt;Node31 -->
<g id="edge45" class="edge">
<title>Node30&#45;&gt;Node31</title>
<path fill="none" stroke="#63b8ff" d="M1378.93,-131.95C1355.97,-122.53 1325.52,-110.04 1300.82,-99.91"/>
<polygon fill="#63b8ff" stroke="#63b8ff" points="1301.9,-96.57 1291.32,-96.01 1299.24,-103.05 1301.9,-96.57"/>
</g>
<!-- Node32 -->
<g id="node32" class="node">
<title>Node32</title>
<g id="a_node32"><a xlink:title=" ">
<polygon fill="#e0e0e0" stroke="#999999" points="1721.16,-90.5 1589.16,-90.5 1589.16,-71.5 1721.16,-71.5 1721.16,-90.5"/>
<text text-anchor="middle" x="1655.16" y="-78.5" font-family="Helvetica,sans-Serif" font-size="10.00">flutter/binary_messenger.h</text>
</a>
</g>
</g>
<!-- Node30&#45;&gt;Node32 -->
<g id="edge46" class="edge">
<title>Node30&#45;&gt;Node32</title>
<path fill="none" stroke="#63b8ff" d="M1464.19,-132.51C1508.39,-120.82 1571.56,-104.11 1612.96,-93.16"/>
<polygon fill="#63b8ff" stroke="#63b8ff" points="1613.96,-96.52 1622.73,-90.58 1612.17,-89.75 1613.96,-96.52"/>
</g>
<!-- Node33 -->
<g id="node33" class="node">
<title>Node33</title>
<g id="a_node33"><a xlink:title=" ">
<polygon fill="#e0e0e0" stroke="#999999" points="1494.66,-96 1331.66,-96 1331.66,-66 1494.66,-66 1494.66,-96"/>
<text text-anchor="start" x="1339.66" y="-84" font-family="Helvetica,sans-Serif" font-size="10.00">flutter/shell/platform</text>
<text text-anchor="middle" x="1413.16" y="-73" font-family="Helvetica,sans-Serif" font-size="10.00">/common/json_message_codec.h</text>
</a>
</g>
</g>
<!-- Node30&#45;&gt;Node33 -->
<g id="edge47" class="edge">
<title>Node30&#45;&gt;Node33</title>
<path fill="none" stroke="#63b8ff" d="M1413.16,-131.8C1413.16,-124.34 1413.16,-114.99 1413.16,-106.41"/>
<polygon fill="#63b8ff" stroke="#63b8ff" points="1416.66,-106.16 1413.16,-96.16 1409.66,-106.16 1416.66,-106.16"/>
</g>
<!-- Node34 -->
<g id="node34" class="node">
<title>Node34</title>
<g id="a_node34"><a xlink:title=" ">
<polygon fill="#e0e0e0" stroke="#999999" points="1102.66,-24.5 1001.66,-24.5 1001.66,-5.5 1102.66,-5.5 1102.66,-24.5"/>
<text text-anchor="middle" x="1052.16" y="-12.5" font-family="Helvetica,sans-Serif" font-size="10.00">flutter/fml/macros.h</text>
</a>
</g>
</g>
<!-- Node30&#45;&gt;Node34 -->
<g id="edge48" class="edge">
<title>Node30&#45;&gt;Node34</title>
<path fill="none" stroke="#63b8ff" d="M1362,-134.77C1297.66,-120.61 1195.07,-97.86 1191.16,-96 1171.74,-86.74 1171.35,-77.5 1153.16,-66 1130.18,-51.46 1102.38,-37.97 1081.77,-28.68"/>
<polygon fill="#63b8ff" stroke="#63b8ff" points="1083.13,-25.45 1072.57,-24.59 1080.29,-31.85 1083.13,-25.45"/>
</g>
<!-- Node35 -->
<g id="node35" class="node">
<title>Node35</title>
<g id="a_node35"><a xlink:title=" ">
<polygon fill="#e0e0e0" stroke="#999999" points="1578.16,-24.5 1468.16,-24.5 1468.16,-5.5 1578.16,-5.5 1578.16,-24.5"/>
<text text-anchor="middle" x="1523.16" y="-12.5" font-family="Helvetica,sans-Serif" font-size="10.00">rapidjson/document.h</text>
</a>
</g>
</g>
<!-- Node30&#45;&gt;Node35 -->
<g id="edge49" class="edge">
<title>Node30&#45;&gt;Node35</title>
<path fill="none" stroke="#63b8ff" d="M1454.07,-131.84C1471.56,-123.85 1490.76,-112.17 1503.16,-96 1516.82,-78.2 1521.25,-52.22 1522.63,-34.74"/>
<polygon fill="#63b8ff" stroke="#63b8ff" points="1526.13,-34.83 1523.17,-24.66 1519.14,-34.46 1526.13,-34.83"/>
</g>
<!-- Node36 -->
<g id="node36" class="node">
<title>Node36</title>
<g id="a_node36"><a xlink:title=" ">
<polygon fill="#e0e0e0" stroke="#999999" points="1873.16,-90.5 1739.16,-90.5 1739.16,-71.5 1873.16,-71.5 1873.16,-90.5"/>
<text text-anchor="middle" x="1806.16" y="-78.5" font-family="Helvetica,sans-Serif" font-size="10.00">xkbcommon/xkbcommon.h</text>
</a>
</g>
</g>
<!-- Node30&#45;&gt;Node36 -->
<g id="edge51" class="edge">
<title>Node30&#45;&gt;Node36</title>
<path fill="none" stroke="#63b8ff" d="M1464.19,-134.66C1468.91,-133.71 1473.62,-132.81 1478.16,-132 1589.53,-112.08 1618.51,-114.25 1730.16,-96 1737.01,-94.88 1744.2,-93.64 1751.3,-92.38"/>
<polygon fill="#63b8ff" stroke="#63b8ff" points="1752.39,-95.74 1761.61,-90.52 1751.15,-88.85 1752.39,-95.74"/>
</g>
<!-- Node37&#45;&gt;Node3 -->
<g id="edge55" class="edge">
<title>Node37&#45;&gt;Node3</title>
<path fill="none" stroke="#63b8ff" d="M2035.47,-133.37C2032.67,-132.85 2029.89,-132.39 2027.16,-132 1659,-79.39 1560.55,-139.14 1191.16,-96 1179.07,-94.59 1165.97,-92.31 1154.26,-90.01"/>
<polygon fill="#63b8ff" stroke="#63b8ff" points="1154.87,-86.56 1144.37,-87.99 1153.47,-93.42 1154.87,-86.56"/>
</g>
<!-- Node37&#45;&gt;Node4 -->
<g id="edge56" class="edge">
<title>Node37&#45;&gt;Node4</title>
<path fill="none" stroke="#63b8ff" d="M2080.4,-131.94C2076.61,-114.29 2073.33,-84.13 2089.16,-66 2117.59,-33.45 2248.11,-21.47 2308.44,-17.61"/>
<polygon fill="#63b8ff" stroke="#63b8ff" points="2308.73,-21.1 2318.5,-17 2308.31,-14.11 2308.73,-21.1"/>
</g>
<!-- Node37&#45;&gt;Node7 -->
<g id="edge66" class="edge">
<title>Node37&#45;&gt;Node7</title>
<path fill="none" stroke="#63b8ff" d="M2035.47,-133.33C2032.67,-132.83 2029.89,-132.38 2027.16,-132 1541.7,-65.2 1412.66,-145.85 925.16,-96 913.19,-94.78 900.32,-92.84 888.44,-90.79"/>
<polygon fill="#63b8ff" stroke="#63b8ff" points="888.77,-87.3 878.31,-88.98 887.54,-94.19 888.77,-87.3"/>
</g>
<!-- Node37&#45;&gt;Node9 -->
<g id="edge64" class="edge">
<title>Node37&#45;&gt;Node9</title>
<path fill="none" stroke="#63b8ff" d="M2132.8,-146.4C2258.65,-146.73 2591.98,-143.03 2690.16,-96 2716.41,-83.43 2738.28,-57.6 2751.71,-38.68"/>
<polygon fill="#63b8ff" stroke="#63b8ff" points="2754.69,-40.52 2757.44,-30.29 2748.91,-36.57 2754.69,-40.52"/>
</g>
<!-- Node37&#45;&gt;Node17 -->
<g id="edge54" class="edge">
<title>Node37&#45;&gt;Node17</title>
<path fill="none" stroke="#63b8ff" d="M2041.3,-131.96C2012.73,-122.37 1974.45,-109.08 1941.16,-96 1939.53,-95.36 1937.86,-94.69 1936.19,-93.99"/>
<polygon fill="#63b8ff" stroke="#63b8ff" points="1937.24,-90.64 1926.67,-89.94 1934.5,-97.08 1937.24,-90.64"/>
</g>
<!-- Node37&#45;&gt;Node32 -->
<g id="edge57" class="edge">
<title>Node37&#45;&gt;Node32</title>
<path fill="none" stroke="#63b8ff" d="M2035.43,-133.62C2032.64,-133.04 2029.87,-132.49 2027.16,-132 1896.36,-108.1 1861.58,-116.21 1730.16,-96 1723.05,-94.91 1715.58,-93.65 1708.23,-92.34"/>
<polygon fill="#63b8ff" stroke="#63b8ff" points="1708.78,-88.88 1698.31,-90.54 1707.53,-95.77 1708.78,-88.88"/>
</g>
<!-- Node37&#45;&gt;Node34 -->
<g id="edge60" class="edge">
<title>Node37&#45;&gt;Node34</title>
<path fill="none" stroke="#63b8ff" d="M2043.49,-131.91C2020.75,-123.16 1992.4,-110.78 1969.16,-96 1952.16,-85.18 1953.8,-73.66 1935.16,-66 1897.2,-50.41 1306.68,-25.98 1113.1,-18.36"/>
<polygon fill="#63b8ff" stroke="#63b8ff" points="1112.95,-14.85 1102.82,-17.95 1112.68,-21.84 1112.95,-14.85"/>
</g>
<!-- Node37&#45;&gt;Node35 -->
<g id="edge63" class="edge">
<title>Node37&#45;&gt;Node35</title>
<path fill="none" stroke="#63b8ff" d="M2069.23,-131.86C2048.56,-113.23 2009.23,-81.07 1969.16,-66 1901.07,-40.39 1695.03,-25.54 1588.51,-19.38"/>
<polygon fill="#63b8ff" stroke="#63b8ff" points="1588.7,-15.88 1578.52,-18.81 1588.3,-22.87 1588.7,-15.88"/>
</g>
<!-- Node37&#45;&gt;Node36 -->
<g id="edge65" class="edge">
<title>Node37&#45;&gt;Node36</title>
<path fill="none" stroke="#63b8ff" d="M2035.36,-133.95C2032.59,-133.29 2029.84,-132.63 2027.16,-132 1968.02,-118.05 1899.79,-102.73 1854.97,-92.77"/>
<polygon fill="#63b8ff" stroke="#63b8ff" points="1855.46,-89.3 1844.94,-90.55 1853.94,-96.13 1855.46,-89.3"/>
</g>
<!-- Node38 -->
<g id="node38" class="node">
<title>Node38</title>
<g id="a_node38"><a xlink:title=" ">
<polygon fill="#e0e0e0" stroke="#999999" points="2383.16,-90.5 2259.16,-90.5 2259.16,-71.5 2383.16,-71.5 2383.16,-90.5"/>
<text text-anchor="middle" x="2321.16" y="-78.5" font-family="Helvetica,sans-Serif" font-size="10.00">flutter/method_channel.h</text>
</a>
</g>
</g>
<!-- Node37&#45;&gt;Node38 -->
<g id="edge58" class="edge">
<title>Node37&#45;&gt;Node38</title>
<path fill="none" stroke="#63b8ff" d="M2132.7,-132.89C2175.98,-121.2 2238.68,-104.27 2279.68,-93.2"/>
<polygon fill="#63b8ff" stroke="#63b8ff" points="2280.61,-96.58 2289.35,-90.59 2278.79,-89.82 2280.61,-96.58"/>
</g>
<!-- Node39 -->
<g id="node39" class="node">
<title>Node39</title>
<g id="a_node39"><a xlink:title=" ">
<polygon fill="#e0e0e0" stroke="#999999" points="2507.16,-96 2401.16,-96 2401.16,-66 2507.16,-66 2507.16,-96"/>
<text text-anchor="start" x="2409.16" y="-84" font-family="Helvetica,sans-Serif" font-size="10.00">flutter/method_result</text>
<text text-anchor="middle" x="2454.16" y="-73" font-family="Helvetica,sans-Serif" font-size="10.00">_functions.h</text>
</a>
</g>
</g>
<!-- Node37&#45;&gt;Node39 -->
<g id="edge59" class="edge">
<title>Node37&#45;&gt;Node39</title>
<path fill="none" stroke="#63b8ff" d="M2132.87,-139.03C2191.7,-130.41 2293.89,-114.77 2391.11,-96.13"/>
<polygon fill="#63b8ff" stroke="#63b8ff" points="2391.95,-99.54 2401.11,-94.2 2390.63,-92.66 2391.95,-99.54"/>
</g>
<!-- Node40 -->
<g id="node40" class="node">
<title>Node40</title>
<g id="a_node40"><a xlink:title=" ">
<polygon fill="#e0e0e0" stroke="#999999" points="2680.66,-96 2525.66,-96 2525.66,-66 2680.66,-66 2680.66,-96"/>
<text text-anchor="start" x="2533.66" y="-84" font-family="Helvetica,sans-Serif" font-size="10.00">flutter/shell/platform</text>
<text text-anchor="middle" x="2603.16" y="-73" font-family="Helvetica,sans-Serif" font-size="10.00">/common/json_method_codec.h</text>
</a>
</g>
</g>
<!-- Node37&#45;&gt;Node40 -->
<g id="edge61" class="edge">
<title>Node37&#45;&gt;Node40</title>
<path fill="none" stroke="#63b8ff" d="M2132.84,-141.08C2211.13,-133 2370.08,-115.97 2515.41,-96.07"/>
<polygon fill="#63b8ff" stroke="#63b8ff" points="2515.97,-99.52 2525.4,-94.69 2515.02,-92.59 2515.97,-99.52"/>
</g>
<!-- Node41 -->
<g id="node41" class="node">
<title>Node41</title>
<g id="a_node41"><a xlink:title=" ">
<polygon fill="#e0e0e0" stroke="#999999" points="2240.66,-96 2097.66,-96 2097.66,-66 2240.66,-66 2240.66,-96"/>
<text text-anchor="start" x="2105.66" y="-84" font-family="Helvetica,sans-Serif" font-size="10.00">flutter/shell/platform</text>
<text text-anchor="middle" x="2169.16" y="-73" font-family="Helvetica,sans-Serif" font-size="10.00">/common/text_input_model.h</text>
</a>
</g>
</g>
<!-- Node37&#45;&gt;Node41 -->
<g id="edge62" class="edge">
<title>Node37&#45;&gt;Node41</title>
<path fill="none" stroke="#63b8ff" d="M2103.03,-131.8C2114.58,-123.1 2129.55,-111.82 2142.33,-102.2"/>
<polygon fill="#63b8ff" stroke="#63b8ff" points="2144.47,-104.98 2150.35,-96.16 2140.26,-99.38 2144.47,-104.98"/>
</g>
<!-- Node42&#45;&gt;Node2 -->
<g id="edge76" class="edge">
<title>Node42&#45;&gt;Node2</title>
<path fill="none" stroke="#63b8ff" d="M1272.03,-156.56C1316.25,-181.52 1451.56,-254.31 1574.16,-283 1710.65,-314.94 2136.29,-324.34 2292.72,-326.75"/>
<polygon fill="#63b8ff" stroke="#63b8ff" points="2293.02,-330.26 2303.07,-326.91 2293.13,-323.26 2293.02,-330.26"/>
</g>
<!-- Node42&#45;&gt;Node3 -->
<g id="edge69" class="edge">
<title>Node42&#45;&gt;Node3</title>
<path fill="none" stroke="#63b8ff" d="M1238.42,-137.37C1214.69,-126.44 1173.6,-107.52 1146.15,-94.88"/>
<polygon fill="#63b8ff" stroke="#63b8ff" points="1147.6,-91.7 1137.06,-90.7 1144.68,-98.06 1147.6,-91.7"/>
</g>
<!-- Node42&#45;&gt;Node17 -->
<g id="edge68" class="edge">
<title>Node42&#45;&gt;Node17</title>
<path fill="none" stroke="#63b8ff" d="M1306.4,-138.08C1321.39,-135.87 1337.92,-133.63 1353.16,-132 1587.49,-106.98 1655.24,-159.57 1882.16,-96 1883.42,-95.65 1884.69,-95.23 1885.95,-94.77"/>
<polygon fill="#63b8ff" stroke="#63b8ff" points="1887.64,-97.85 1895.32,-90.55 1884.77,-91.47 1887.64,-97.85"/>
</g>
<!-- Node42&#45;&gt;Node34 -->
<g id="edge75" class="edge">
<title>Node42&#45;&gt;Node34</title>
<path fill="none" stroke="#63b8ff" d="M1221.29,-137.47C1212.45,-135.52 1202.99,-133.57 1194.16,-132 1134.78,-121.45 964.88,-141.39 925.16,-96 897.05,-63.87 956.94,-40.1 1003.71,-27.15"/>
<polygon fill="#63b8ff" stroke="#63b8ff" points="1004.69,-30.51 1013.45,-24.55 1002.89,-23.74 1004.69,-30.51"/>
</g>
<!-- Node43 -->
<g id="node43" class="node">
<title>Node43</title>
<g id="a_node43"><a xlink:href="configuration_8h.html" target="_top" xlink:title=" ">
<polygon fill="white" stroke="#666666" points="1073.66,-90.5 934.66,-90.5 934.66,-71.5 1073.66,-71.5 1073.66,-90.5"/>
<text text-anchor="middle" x="1004.16" y="-78.5" font-family="Helvetica,sans-Serif" font-size="10.00">configuration/configuration.h</text>
</a>
</g>
</g>
<!-- Node42&#45;&gt;Node43 -->
<g id="edge70" class="edge">
<title>Node42&#45;&gt;Node43</title>
<path fill="none" stroke="#63b8ff" d="M1223.3,-137.44C1177.96,-125.96 1097.44,-105.6 1047.65,-93"/>
<polygon fill="#63b8ff" stroke="#63b8ff" points="1048.37,-89.57 1037.82,-90.51 1046.66,-96.36 1048.37,-89.57"/>
</g>
<!-- Node43&#45;&gt;Node4 -->
<g id="edge71" class="edge">
<title>Node43&#45;&gt;Node4</title>
<path fill="none" stroke="#63b8ff" d="M1046.24,-71.45C1058.13,-69.34 1071.12,-67.3 1083.16,-66 1331.56,-39.17 2140.41,-20.34 2308.43,-16.66"/>
<polygon fill="#63b8ff" stroke="#63b8ff" points="2308.63,-20.15 2318.55,-16.44 2308.48,-13.16 2308.63,-20.15"/>
</g>
<!-- Node43&#45;&gt;Node20 -->
<g id="edge72" class="edge">
<title>Node43&#45;&gt;Node20</title>
<path fill="none" stroke="#63b8ff" d="M997.69,-71.37C990.36,-61.59 978.23,-45.42 968.97,-33.08"/>
<polygon fill="#63b8ff" stroke="#63b8ff" points="971.64,-30.81 962.84,-24.91 966.04,-35.01 971.64,-30.81"/>
</g>
<!-- Node43&#45;&gt;Node34 -->
<g id="edge73" class="edge">
<title>Node43&#45;&gt;Node34</title>
<path fill="none" stroke="#63b8ff" d="M1010.64,-71.37C1017.97,-61.59 1030.09,-45.42 1039.36,-33.08"/>
<polygon fill="#63b8ff" stroke="#63b8ff" points="1042.28,-35.01 1045.48,-24.91 1036.68,-30.81 1042.28,-35.01"/>
</g>
<!-- Node43&#45;&gt;Node35 -->
<g id="edge74" class="edge">
<title>Node43&#45;&gt;Node35</title>
<path fill="none" stroke="#63b8ff" d="M1049.62,-71.45C1060.58,-69.52 1072.27,-67.58 1083.16,-66 1215.86,-46.72 1371.97,-30.5 1458.01,-22.12"/>
<polygon fill="#63b8ff" stroke="#63b8ff" points="1458.53,-25.59 1468.14,-21.14 1457.85,-18.62 1458.53,-25.59"/>
</g>
</g>
</svg>
