<?xml version="1.0" encoding="UTF-8" standalone="no"?>
<!DOCTYPE svg PUBLIC "-//W3C//DTD SVG 1.1//EN"
 "http://www.w3.org/Graphics/SVG/1.1/DTD/svg11.dtd">
<!-- Generated by graphviz version 2.43.0 (0)
 -->
<!-- Title: /home/joel.winarske@toyotaconnected.com/development/workspace&#45;automation&#45;configs/app/ivi&#45;homescreen/shell/static_plugins/package_info/package_info.cc Pages: 1 -->
<svg width="3091pt" height="463pt"
 viewBox="0.00 0.00 3091.00 463.00" xmlns="http://www.w3.org/2000/svg" xmlns:xlink="http://www.w3.org/1999/xlink">
<g id="graph0" class="graph" transform="scale(1 1) rotate(0) translate(4 459)">
<title>/home/joel.winarske@toyotaconnected.com/development/workspace&#45;automation&#45;configs/app/ivi&#45;homescreen/shell/static_plugins/package_info/package_info.cc</title>
<polygon fill="white" stroke="transparent" points="-4,4 -4,-459 3087,-459 3087,4 -4,4"/>
<!-- Node1 -->
<g id="node1" class="node">
<title>Node1</title>
<g id="a_node1"><a xlink:title=" ">
<polygon fill="#bfbfbf" stroke="black" points="2665,-380.5 2665,-454.5 2871,-454.5 2871,-380.5 2665,-380.5"/>
<text text-anchor="start" x="2673" y="-442.5" font-family="Helvetica,sans-Serif" font-size="10.00">/home/joel.winarske</text>
<text text-anchor="start" x="2673" y="-431.5" font-family="Helvetica,sans-Serif" font-size="10.00">@toyotaconnected.com</text>
<text text-anchor="start" x="2673" y="-420.5" font-family="Helvetica,sans-Serif" font-size="10.00">/development/workspace</text>
<text text-anchor="start" x="2673" y="-409.5" font-family="Helvetica,sans-Serif" font-size="10.00">&#45;automation&#45;configs/app</text>
<text text-anchor="start" x="2673" y="-398.5" font-family="Helvetica,sans-Serif" font-size="10.00">/ivi&#45;homescreen/shell/static</text>
<text text-anchor="middle" x="2768" y="-387.5" font-family="Helvetica,sans-Serif" font-size="10.00">_plugins/package_info/package_info.cc</text>
</a>
</g>
</g>
<!-- Node2 -->
<g id="node2" class="node">
<title>Node2</title>
<g id="a_node2"><a xlink:href="package__info_8h.html" target="_top" xlink:title=" ">
<polygon fill="white" stroke="black" points="2720,-67.5 2720,-86.5 2810,-86.5 2810,-67.5 2720,-67.5"/>
<text text-anchor="middle" x="2765" y="-74.5" font-family="Helvetica,sans-Serif" font-size="10.00">package_info.h</text>
</a>
</g>
</g>
<!-- Node1&#45;&gt;Node2 -->
<g id="edge1" class="edge">
<title>Node1&#45;&gt;Node2</title>
<path fill="none" stroke="midnightblue" d="M2753.31,-380.24C2742.62,-350.57 2730,-307.25 2730,-268 2730,-268 2730,-268 2730,-204.5 2730,-164.6 2746.37,-120.11 2756.72,-95.96"/>
<polygon fill="midnightblue" stroke="midnightblue" points="2759.99,-97.23 2760.85,-86.67 2753.59,-94.39 2759.99,-97.23"/>
</g>
<!-- Node4 -->
<g id="node4" class="node">
<title>Node4</title>
<g id="a_node4"><a xlink:title=" ">
<polygon fill="white" stroke="#bfbfbf" points="2796,-313.5 2796,-343.5 2930,-343.5 2930,-313.5 2796,-313.5"/>
<text text-anchor="start" x="2804" y="-331.5" font-family="Helvetica,sans-Serif" font-size="10.00">flutter/standard_method</text>
<text text-anchor="middle" x="2863" y="-320.5" font-family="Helvetica,sans-Serif" font-size="10.00">_codec.h</text>
</a>
</g>
</g>
<!-- Node1&#45;&gt;Node4 -->
<g id="edge3" class="edge">
<title>Node1&#45;&gt;Node4</title>
<path fill="none" stroke="midnightblue" d="M2807.46,-380.36C2818.57,-370.19 2830.27,-359.47 2840.06,-350.51"/>
<polygon fill="midnightblue" stroke="midnightblue" points="2842.44,-353.08 2847.45,-343.74 2837.71,-347.92 2842.44,-353.08"/>
</g>
<!-- Node5 -->
<g id="node5" class="node">
<title>Node5</title>
<g id="a_node5"><a xlink:href="engine_8h.html" target="_top" xlink:title=" ">
<polygon fill="white" stroke="black" points="1983.5,-319 1983.5,-338 2042.5,-338 2042.5,-319 1983.5,-319"/>
<text text-anchor="middle" x="2013" y="-326" font-family="Helvetica,sans-Serif" font-size="10.00">engine.h</text>
</a>
</g>
</g>
<!-- Node1&#45;&gt;Node5 -->
<g id="edge4" class="edge">
<title>Node1&#45;&gt;Node5</title>
<path fill="none" stroke="midnightblue" d="M2665,-404.63C2495.76,-385.13 2166.29,-347.16 2052.65,-334.07"/>
<polygon fill="midnightblue" stroke="midnightblue" points="2052.99,-330.58 2042.65,-332.92 2052.19,-337.54 2052.99,-330.58"/>
</g>
<!-- Node19 -->
<g id="node19" class="node">
<title>Node19</title>
<g id="a_node19"><a xlink:href="logging_8h.html" target="_top" xlink:title=" ">
<polygon fill="white" stroke="black" points="2758,-257.5 2758,-276.5 2820,-276.5 2820,-257.5 2758,-257.5"/>
<text text-anchor="middle" x="2789" y="-264.5" font-family="Helvetica,sans-Serif" font-size="10.00">logging.h</text>
</a>
</g>
</g>
<!-- Node1&#45;&gt;Node19 -->
<g id="edge77" class="edge">
<title>Node1&#45;&gt;Node19</title>
<path fill="none" stroke="midnightblue" d="M2773.14,-380.17C2777.33,-350.51 2783.09,-309.81 2786.39,-286.47"/>
<polygon fill="midnightblue" stroke="midnightblue" points="2789.86,-286.92 2787.79,-276.53 2782.93,-285.94 2789.86,-286.92"/>
</g>
<!-- Node40 -->
<g id="node40" class="node">
<title>Node40</title>
<g id="a_node40"><a xlink:href="hexdump_8h.html" target="_top" xlink:title=" ">
<polygon fill="white" stroke="black" points="2948.5,-319 2948.5,-338 3019.5,-338 3019.5,-319 2948.5,-319"/>
<text text-anchor="middle" x="2984" y="-326" font-family="Helvetica,sans-Serif" font-size="10.00">hexdump.h</text>
</a>
</g>
</g>
<!-- Node1&#45;&gt;Node40 -->
<g id="edge73" class="edge">
<title>Node1&#45;&gt;Node40</title>
<path fill="none" stroke="midnightblue" d="M2857.41,-380.49C2891.64,-366.7 2928.42,-351.88 2953.47,-341.8"/>
<polygon fill="midnightblue" stroke="midnightblue" points="2954.83,-345.02 2962.79,-338.04 2952.21,-338.53 2954.83,-345.02"/>
</g>
<!-- Node3 -->
<g id="node3" class="node">
<title>Node3</title>
<g id="a_node3"><a xlink:title=" ">
<polygon fill="white" stroke="#bfbfbf" points="1783.5,-0.5 1783.5,-30.5 1920.5,-30.5 1920.5,-0.5 1783.5,-0.5"/>
<text text-anchor="start" x="1791.5" y="-18.5" font-family="Helvetica,sans-Serif" font-size="10.00">shell/platform/embedder</text>
<text text-anchor="middle" x="1852" y="-7.5" font-family="Helvetica,sans-Serif" font-size="10.00">/embedder.h</text>
</a>
</g>
</g>
<!-- Node2&#45;&gt;Node3 -->
<g id="edge2" class="edge">
<title>Node2&#45;&gt;Node3</title>
<path fill="none" stroke="midnightblue" d="M2719.72,-73.05C2574.06,-63.56 2116.22,-33.72 1930.97,-21.65"/>
<polygon fill="midnightblue" stroke="midnightblue" points="1930.97,-18.14 1920.76,-20.98 1930.51,-25.12 1930.97,-18.14"/>
</g>
<!-- Node5&#45;&gt;Node3 -->
<g id="edge9" class="edge">
<title>Node5&#45;&gt;Node3</title>
<path fill="none" stroke="midnightblue" d="M1983.38,-327.33C1734.4,-325.68 0,-310.49 0,-206.5 0,-206.5 0,-206.5 0,-137.5 0,-47.21 1420.02,-22.27 1773.2,-17.46"/>
<polygon fill="midnightblue" stroke="midnightblue" points="1773.38,-20.96 1783.34,-17.32 1773.29,-13.96 1773.38,-20.96"/>
</g>
<!-- Node6 -->
<g id="node6" class="node">
<title>Node6</title>
<g id="a_node6"><a xlink:title=" ">
<polygon fill="white" stroke="#bfbfbf" points="2214.5,-257.5 2214.5,-276.5 2279.5,-276.5 2279.5,-257.5 2214.5,-257.5"/>
<text text-anchor="middle" x="2247" y="-264.5" font-family="Helvetica,sans-Serif" font-size="10.00">functional</text>
</a>
</g>
</g>
<!-- Node5&#45;&gt;Node6 -->
<g id="edge5" class="edge">
<title>Node5&#45;&gt;Node6</title>
<path fill="none" stroke="midnightblue" d="M2042.64,-319.96C2083.54,-309.56 2157.54,-290.75 2204.38,-278.84"/>
<polygon fill="midnightblue" stroke="midnightblue" points="2205.39,-282.19 2214.22,-276.33 2203.67,-275.41 2205.39,-282.19"/>
</g>
<!-- Node7 -->
<g id="node7" class="node">
<title>Node7</title>
<g id="a_node7"><a xlink:title=" ">
<polygon fill="white" stroke="#bfbfbf" points="2419,-6 2419,-25 2481,-25 2481,-6 2419,-6"/>
<text text-anchor="middle" x="2450" y="-13" font-family="Helvetica,sans-Serif" font-size="10.00">EGL/egl.h</text>
</a>
</g>
</g>
<!-- Node5&#45;&gt;Node7 -->
<g id="edge6" class="edge">
<title>Node5&#45;&gt;Node7</title>
<path fill="none" stroke="midnightblue" d="M2042.61,-325.41C2173.3,-315.81 2692,-273.48 2692,-206.5 2692,-206.5 2692,-206.5 2692,-137.5 2692,-48.81 2560.36,-25.13 2491.26,-18.8"/>
<polygon fill="midnightblue" stroke="midnightblue" points="2491.4,-15.3 2481.14,-17.96 2490.82,-22.28 2491.4,-15.3"/>
</g>
<!-- Node8 -->
<g id="node8" class="node">
<title>Node8</title>
<g id="a_node8"><a xlink:title=" ">
<polygon fill="white" stroke="#bfbfbf" points="1496,-257.5 1496,-276.5 1570,-276.5 1570,-257.5 1496,-257.5"/>
<text text-anchor="middle" x="1533" y="-264.5" font-family="Helvetica,sans-Serif" font-size="10.00">GLES2/gl2.h</text>
</a>
</g>
</g>
<!-- Node5&#45;&gt;Node8 -->
<g id="edge7" class="edge">
<title>Node5&#45;&gt;Node8</title>
<path fill="none" stroke="midnightblue" d="M1983.42,-324.86C1914.53,-318.52 1737.85,-301.31 1580,-277.05"/>
<polygon fill="midnightblue" stroke="midnightblue" points="1580.53,-273.59 1570.11,-275.52 1579.46,-280.51 1580.53,-273.59"/>
</g>
<!-- Node9 -->
<g id="node9" class="node">
<title>Node9</title>
<g id="a_node9"><a xlink:title=" ">
<polygon fill="white" stroke="#bfbfbf" points="1588,-257.5 1588,-276.5 1728,-276.5 1728,-257.5 1588,-257.5"/>
<text text-anchor="middle" x="1658" y="-264.5" font-family="Helvetica,sans-Serif" font-size="10.00">flutter/encodable_value.h</text>
</a>
</g>
</g>
<!-- Node5&#45;&gt;Node9 -->
<g id="edge8" class="edge">
<title>Node5&#45;&gt;Node9</title>
<path fill="none" stroke="midnightblue" d="M1983.34,-322.53C1925.37,-312.81 1795.98,-291.13 1718.99,-278.22"/>
<polygon fill="midnightblue" stroke="midnightblue" points="1719.38,-274.74 1708.94,-276.54 1718.23,-281.64 1719.38,-274.74"/>
</g>
<!-- Node10 -->
<g id="node10" class="node">
<title>Node10</title>
<g id="a_node10"><a xlink:title=" ">
<polygon fill="white" stroke="#bfbfbf" points="1654,-129 1654,-148 1692,-148 1692,-129 1654,-129"/>
<text text-anchor="middle" x="1673" y="-136" font-family="Helvetica,sans-Serif" font-size="10.00">map</text>
</a>
</g>
</g>
<!-- Node5&#45;&gt;Node10 -->
<g id="edge10" class="edge">
<title>Node5&#45;&gt;Node10</title>
<path fill="none" stroke="midnightblue" d="M1983.16,-326.92C1876.78,-324.56 1520.55,-313.92 1487,-277 1460.13,-247.43 1587.41,-180.75 1645.44,-152.52"/>
<polygon fill="midnightblue" stroke="midnightblue" points="1647.28,-155.52 1654.77,-148.02 1644.24,-149.21 1647.28,-155.52"/>
</g>
<!-- Node11 -->
<g id="node11" class="node">
<title>Node11</title>
<g id="a_node11"><a xlink:title=" ">
<polygon fill="white" stroke="#bfbfbf" points="1942,-129 1942,-148 2000,-148 2000,-129 1942,-129"/>
<text text-anchor="middle" x="1971" y="-136" font-family="Helvetica,sans-Serif" font-size="10.00">memory</text>
</a>
</g>
</g>
<!-- Node5&#45;&gt;Node11 -->
<g id="edge11" class="edge">
<title>Node5&#45;&gt;Node11</title>
<path fill="none" stroke="midnightblue" d="M2027.9,-318.88C2041.22,-310.22 2059.86,-295.51 2068,-277 2083.56,-241.6 2088.06,-223.06 2068,-190 2060.58,-177.77 2028.26,-162.43 2002.95,-151.89"/>
<polygon fill="midnightblue" stroke="midnightblue" points="2004.23,-148.63 1993.65,-148.1 2001.59,-155.11 2004.23,-148.63"/>
</g>
<!-- Node12 -->
<g id="node12" class="node">
<title>Node12</title>
<g id="a_node12"><a xlink:title=" ">
<polygon fill="white" stroke="#bfbfbf" points="1746,-257.5 1746,-276.5 1794,-276.5 1794,-257.5 1746,-257.5"/>
<text text-anchor="middle" x="1770" y="-264.5" font-family="Helvetica,sans-Serif" font-size="10.00">mutex</text>
</a>
</g>
</g>
<!-- Node5&#45;&gt;Node12 -->
<g id="edge12" class="edge">
<title>Node5&#45;&gt;Node12</title>
<path fill="none" stroke="midnightblue" d="M1983.37,-320.67C1944.47,-311.64 1873.82,-295.03 1803.98,-277.19"/>
<polygon fill="midnightblue" stroke="midnightblue" points="1804.68,-273.76 1794.13,-274.67 1802.95,-280.54 1804.68,-273.76"/>
</g>
<!-- Node13 -->
<g id="node13" class="node">
<title>Node13</title>
<g id="a_node13"><a xlink:title=" ">
<polygon fill="white" stroke="#bfbfbf" points="1812.5,-257.5 1812.5,-276.5 1859.5,-276.5 1859.5,-257.5 1812.5,-257.5"/>
<text text-anchor="middle" x="1836" y="-264.5" font-family="Helvetica,sans-Serif" font-size="10.00">queue</text>
</a>
</g>
</g>
<!-- Node5&#45;&gt;Node13 -->
<g id="edge13" class="edge">
<title>Node5&#45;&gt;Node13</title>
<path fill="none" stroke="midnightblue" d="M1987.64,-318.98C1956.49,-308.5 1903.58,-290.72 1869.21,-279.16"/>
<polygon fill="midnightblue" stroke="midnightblue" points="1870.21,-275.81 1859.62,-275.94 1867.98,-282.44 1870.21,-275.81"/>
</g>
<!-- Node14 -->
<g id="node14" class="node">
<title>Node14</title>
<g id="a_node14"><a xlink:title=" ">
<polygon fill="white" stroke="#bfbfbf" points="1880,-129 1880,-148 1924,-148 1924,-129 1880,-129"/>
<text text-anchor="middle" x="1902" y="-136" font-family="Helvetica,sans-Serif" font-size="10.00">string</text>
</a>
</g>
</g>
<!-- Node5&#45;&gt;Node14 -->
<g id="edge14" class="edge">
<title>Node5&#45;&gt;Node14</title>
<path fill="none" stroke="midnightblue" d="M2017.82,-318.9C2023,-309.1 2030.91,-292.46 2034,-277 2042.23,-235.79 2026.95,-219.47 1997,-190 1991.58,-184.66 1954.55,-165.65 1928.36,-152.54"/>
<polygon fill="midnightblue" stroke="midnightblue" points="1929.79,-149.34 1919.28,-148.01 1926.67,-155.61 1929.79,-149.34"/>
</g>
<!-- Node15 -->
<g id="node15" class="node">
<title>Node15</title>
<g id="a_node15"><a xlink:title=" ">
<polygon fill="white" stroke="#bfbfbf" points="2018.5,-129 2018.5,-148 2065.5,-148 2065.5,-129 2018.5,-129"/>
<text text-anchor="middle" x="2042" y="-136" font-family="Helvetica,sans-Serif" font-size="10.00">vector</text>
</a>
</g>
</g>
<!-- Node5&#45;&gt;Node15 -->
<g id="edge15" class="edge">
<title>Node5&#45;&gt;Node15</title>
<path fill="none" stroke="midnightblue" d="M2042.61,-320.16C2064.35,-313.06 2092.38,-299.9 2106,-277 2125.77,-243.77 2122.87,-224.79 2106,-190 2098.3,-174.12 2082.92,-161.73 2069.17,-153.2"/>
<polygon fill="midnightblue" stroke="midnightblue" points="2070.87,-150.14 2060.46,-148.15 2067.35,-156.19 2070.87,-150.14"/>
</g>
<!-- Node16 -->
<g id="node16" class="node">
<title>Node16</title>
<g id="a_node16"><a xlink:href="backend_8h.html" target="_top" xlink:title=" ">
<polygon fill="white" stroke="black" points="2084,-129 2084,-148 2194,-148 2194,-129 2084,-129"/>
<text text-anchor="middle" x="2139" y="-136" font-family="Helvetica,sans-Serif" font-size="10.00">backend/backend.h</text>
</a>
</g>
</g>
<!-- Node5&#45;&gt;Node16 -->
<g id="edge16" class="edge">
<title>Node5&#45;&gt;Node16</title>
<path fill="none" stroke="midnightblue" d="M2042.61,-320.79C2066.46,-314.15 2098.48,-301.31 2116,-277 2141.52,-241.58 2137.84,-187.06 2136.8,-158.47"/>
<polygon fill="midnightblue" stroke="midnightblue" points="2140.3,-158.19 2136.61,-148.25 2133.3,-158.32 2140.3,-158.19"/>
</g>
<!-- Node17 -->
<g id="node17" class="node">
<title>Node17</title>
<g id="a_node17"><a xlink:href="constants_8h.html" target="_top" xlink:title=" ">
<polygon fill="white" stroke="black" points="2102.5,-67.5 2102.5,-86.5 2175.5,-86.5 2175.5,-67.5 2102.5,-67.5"/>
<text text-anchor="middle" x="2139" y="-74.5" font-family="Helvetica,sans-Serif" font-size="10.00">constants.h</text>
</a>
</g>
</g>
<!-- Node5&#45;&gt;Node17 -->
<g id="edge23" class="edge">
<title>Node5&#45;&gt;Node17</title>
<path fill="none" stroke="midnightblue" d="M2042.56,-324.09C2156.33,-310.3 2563.08,-254.49 2634,-154 2641.94,-142.74 2643.29,-133.17 2634,-123 2604.13,-90.3 2303.81,-81.1 2186.03,-78.75"/>
<polygon fill="midnightblue" stroke="midnightblue" points="2185.95,-75.25 2175.88,-78.55 2185.81,-82.24 2185.95,-75.25"/>
</g>
<!-- Node5&#45;&gt;Node19 -->
<g id="edge24" class="edge">
<title>Node5&#45;&gt;Node19</title>
<path fill="none" stroke="midnightblue" d="M2042.75,-325.71C2138.83,-319.84 2449.5,-300.24 2706,-277 2719.55,-275.77 2734.33,-274.23 2747.61,-272.78"/>
<polygon fill="midnightblue" stroke="midnightblue" points="2748.34,-276.22 2757.89,-271.64 2747.56,-269.26 2748.34,-276.22"/>
</g>
<!-- Node21 -->
<g id="node21" class="node">
<title>Node21</title>
<g id="a_node21"><a xlink:href="platform__channel_8h.html" target="_top" xlink:title=" ">
<polygon fill="white" stroke="black" points="1702.5,-196 1702.5,-215 1813.5,-215 1813.5,-196 1702.5,-196"/>
<text text-anchor="middle" x="1758" y="-203" font-family="Helvetica,sans-Serif" font-size="10.00">platform_channel.h</text>
</a>
</g>
</g>
<!-- Node5&#45;&gt;Node21 -->
<g id="edge26" class="edge">
<title>Node5&#45;&gt;Node21</title>
<path fill="none" stroke="midnightblue" d="M1994.54,-318.9C1973.33,-308.98 1937.52,-292.09 1907,-277 1889.54,-268.37 1885.52,-265.51 1868,-257 1840.5,-243.65 1808.74,-229.16 1786.43,-219.14"/>
<polygon fill="midnightblue" stroke="midnightblue" points="1787.75,-215.9 1777.2,-215.01 1784.89,-222.29 1787.75,-215.9"/>
</g>
<!-- Node22 -->
<g id="node22" class="node">
<title>Node22</title>
<g id="a_node22"><a xlink:href="key__event_8h.html" target="_top" xlink:title=" ">
<polygon fill="white" stroke="black" points="1374,-190.5 1374,-220.5 1486,-220.5 1486,-190.5 1374,-190.5"/>
<text text-anchor="start" x="1382" y="-208.5" font-family="Helvetica,sans-Serif" font-size="10.00">static_plugins/key</text>
<text text-anchor="middle" x="1430" y="-197.5" font-family="Helvetica,sans-Serif" font-size="10.00">_event/key_event.h</text>
</a>
</g>
</g>
<!-- Node5&#45;&gt;Node22 -->
<g id="edge30" class="edge">
<title>Node5&#45;&gt;Node22</title>
<path fill="none" stroke="midnightblue" d="M1983.22,-326.68C1873.48,-323.43 1495.84,-309.9 1454,-277 1440.04,-266.03 1434.16,-246.54 1431.69,-230.83"/>
<polygon fill="midnightblue" stroke="midnightblue" points="1435.15,-230.23 1430.48,-220.71 1428.2,-231.06 1435.15,-230.23"/>
</g>
<!-- Node29 -->
<g id="node29" class="node">
<title>Node29</title>
<g id="a_node29"><a xlink:href="text__input_8h.html" target="_top" xlink:title=" ">
<polygon fill="white" stroke="black" points="869,-190.5 869,-220.5 977,-220.5 977,-190.5 869,-190.5"/>
<text text-anchor="start" x="877" y="-208.5" font-family="Helvetica,sans-Serif" font-size="10.00">static_plugins/text</text>
<text text-anchor="middle" x="923" y="-197.5" font-family="Helvetica,sans-Serif" font-size="10.00">_input/text_input.h</text>
</a>
</g>
</g>
<!-- Node5&#45;&gt;Node29 -->
<g id="edge42" class="edge">
<title>Node5&#45;&gt;Node29</title>
<path fill="none" stroke="midnightblue" d="M1983.22,-325.41C1897.87,-319.32 1645.1,-300.5 1436,-277 1274,-258.79 1084.11,-231.01 987.12,-216.35"/>
<polygon fill="midnightblue" stroke="midnightblue" points="987.59,-212.88 977.18,-214.84 986.54,-219.8 987.59,-212.88"/>
</g>
<!-- Node34 -->
<g id="node34" class="node">
<title>Node34</title>
<g id="a_node34"><a xlink:href="flutter__view_8h.html" target="_top" xlink:title=" ">
<polygon fill="white" stroke="black" points="1916.5,-257.5 1916.5,-276.5 2025.5,-276.5 2025.5,-257.5 1916.5,-257.5"/>
<text text-anchor="middle" x="1971" y="-264.5" font-family="Helvetica,sans-Serif" font-size="10.00">view/flutter_view.h</text>
</a>
</g>
</g>
<!-- Node5&#45;&gt;Node34 -->
<g id="edge56" class="edge">
<title>Node5&#45;&gt;Node34</title>
<path fill="none" stroke="midnightblue" d="M2006.98,-318.98C2000.74,-310.14 1990.83,-296.09 1982.98,-284.98"/>
<polygon fill="midnightblue" stroke="midnightblue" points="1985.63,-282.66 1977.01,-276.51 1979.91,-286.7 1985.63,-282.66"/>
</g>
<!-- Node16&#45;&gt;Node3 -->
<g id="edge17" class="edge">
<title>Node16&#45;&gt;Node3</title>
<path fill="none" stroke="midnightblue" d="M2118.82,-128.99C2072.46,-109.45 1957.52,-60.99 1894.69,-34.5"/>
<polygon fill="midnightblue" stroke="midnightblue" points="1896.02,-31.26 1885.44,-30.6 1893.3,-37.71 1896.02,-31.26"/>
</g>
<!-- Node16&#45;&gt;Node5 -->
<g id="edge22" class="edge">
<title>Node16&#45;&gt;Node5</title>
<path fill="none" stroke="midnightblue" d="M2145.09,-148.25C2154.27,-171.67 2163.03,-236.7 2134,-277 2115.34,-302.89 2080.24,-315.77 2052.48,-322"/>
<polygon fill="midnightblue" stroke="midnightblue" points="2051.74,-318.58 2042.64,-324.01 2053.13,-325.44 2051.74,-318.58"/>
</g>
<!-- Node16&#45;&gt;Node17 -->
<g id="edge18" class="edge">
<title>Node16&#45;&gt;Node17</title>
<path fill="none" stroke="midnightblue" d="M2139,-128.98C2139,-120.58 2139,-107.48 2139,-96.66"/>
<polygon fill="midnightblue" stroke="midnightblue" points="2142.5,-96.51 2139,-86.51 2135.5,-96.51 2142.5,-96.51"/>
</g>
<!-- Node17&#45;&gt;Node3 -->
<g id="edge20" class="edge">
<title>Node17&#45;&gt;Node3</title>
<path fill="none" stroke="midnightblue" d="M2102.36,-68.4C2059.02,-59.42 1985.69,-44.22 1929.55,-32.58"/>
<polygon fill="midnightblue" stroke="midnightblue" points="1930.14,-29.13 1919.64,-30.52 1928.72,-35.98 1930.14,-29.13"/>
</g>
<!-- Node17&#45;&gt;Node7 -->
<g id="edge19" class="edge">
<title>Node17&#45;&gt;Node7</title>
<path fill="none" stroke="midnightblue" d="M2175.59,-69C2233.88,-57.85 2347.45,-36.12 2408.62,-24.42"/>
<polygon fill="midnightblue" stroke="midnightblue" points="2409.52,-27.81 2418.68,-22.49 2408.2,-20.93 2409.52,-27.81"/>
</g>
<!-- Node18 -->
<g id="node18" class="node">
<title>Node18</title>
<g id="a_node18"><a xlink:title=" ">
<polygon fill="white" stroke="#bfbfbf" points="2118,-6 2118,-25 2160,-25 2160,-6 2118,-6"/>
<text text-anchor="middle" x="2139" y="-13" font-family="Helvetica,sans-Serif" font-size="10.00">array</text>
</a>
</g>
</g>
<!-- Node17&#45;&gt;Node18 -->
<g id="edge21" class="edge">
<title>Node17&#45;&gt;Node18</title>
<path fill="none" stroke="midnightblue" d="M2139,-67.48C2139,-59.08 2139,-45.98 2139,-35.16"/>
<polygon fill="midnightblue" stroke="midnightblue" points="2142.5,-35.01 2139,-25.01 2135.5,-35.01 2142.5,-35.01"/>
</g>
<!-- Node20 -->
<g id="node20" class="node">
<title>Node20</title>
<g id="a_node20"><a xlink:title=" ">
<polygon fill="white" stroke="#bfbfbf" points="2758.5,-196 2758.5,-215 2871.5,-215 2871.5,-196 2758.5,-196"/>
<text text-anchor="middle" x="2815" y="-203" font-family="Helvetica,sans-Serif" font-size="10.00">flutter/fml/logging.h</text>
</a>
</g>
</g>
<!-- Node19&#45;&gt;Node20 -->
<g id="edge25" class="edge">
<title>Node19&#45;&gt;Node20</title>
<path fill="none" stroke="midnightblue" d="M2792.73,-257.48C2796.47,-248.9 2802.36,-235.43 2807.14,-224.48"/>
<polygon fill="midnightblue" stroke="midnightblue" points="2810.48,-225.57 2811.28,-215.01 2804.07,-222.77 2810.48,-225.57"/>
</g>
<!-- Node21&#45;&gt;Node3 -->
<g id="edge29" class="edge">
<title>Node21&#45;&gt;Node3</title>
<path fill="none" stroke="midnightblue" d="M1779.2,-195.87C1796.36,-187.73 1819.64,-173.79 1832,-154 1853.75,-119.16 1855.42,-69.85 1854.09,-40.72"/>
<polygon fill="midnightblue" stroke="midnightblue" points="1857.58,-40.39 1853.47,-30.62 1850.59,-40.81 1857.58,-40.39"/>
</g>
<!-- Node21&#45;&gt;Node10 -->
<g id="edge27" class="edge">
<title>Node21&#45;&gt;Node10</title>
<path fill="none" stroke="midnightblue" d="M1746.54,-195.73C1732.64,-185.11 1709.02,-167.05 1692.31,-154.26"/>
<polygon fill="midnightblue" stroke="midnightblue" points="1694.35,-151.42 1684.28,-148.13 1690.1,-156.98 1694.35,-151.42"/>
</g>
<!-- Node21&#45;&gt;Node14 -->
<g id="edge28" class="edge">
<title>Node21&#45;&gt;Node14</title>
<path fill="none" stroke="midnightblue" d="M1777.12,-195.87C1801.76,-184.75 1844.81,-165.32 1873.36,-152.43"/>
<polygon fill="midnightblue" stroke="midnightblue" points="1875.12,-155.47 1882.8,-148.17 1872.24,-149.09 1875.12,-155.47"/>
</g>
<!-- Node22&#45;&gt;Node3 -->
<g id="edge39" class="edge">
<title>Node22&#45;&gt;Node3</title>
<path fill="none" stroke="midnightblue" d="M1484.12,-190.45C1510.84,-182.14 1542.86,-170.07 1569,-154 1586.14,-143.46 1585.15,-134 1602,-123 1664.1,-82.45 1744.21,-51.54 1796.79,-33.72"/>
<polygon fill="midnightblue" stroke="midnightblue" points="1797.91,-37.04 1806.28,-30.55 1795.69,-30.4 1797.91,-37.04"/>
</g>
<!-- Node22&#45;&gt;Node10 -->
<g id="edge31" class="edge">
<title>Node22&#45;&gt;Node10</title>
<path fill="none" stroke="midnightblue" d="M1486.42,-192.12C1538.51,-180.48 1611.93,-163.46 1640,-154 1641.87,-153.37 1643.78,-152.68 1645.69,-151.94"/>
<polygon fill="midnightblue" stroke="midnightblue" points="1647.17,-155.12 1655.07,-148.07 1644.49,-148.65 1647.17,-155.12"/>
</g>
<!-- Node22&#45;&gt;Node11 -->
<g id="edge32" class="edge">
<title>Node22&#45;&gt;Node11</title>
<path fill="none" stroke="midnightblue" d="M1486.15,-200.74C1598.92,-192.88 1849.3,-173.8 1933,-154 1936,-153.29 1939.07,-152.4 1942.12,-151.42"/>
<polygon fill="midnightblue" stroke="midnightblue" points="1943.35,-154.7 1951.59,-148.04 1940.99,-148.1 1943.35,-154.7"/>
</g>
<!-- Node22&#45;&gt;Node14 -->
<g id="edge33" class="edge">
<title>Node22&#45;&gt;Node14</title>
<path fill="none" stroke="midnightblue" d="M1486.13,-198.87C1564.02,-190.73 1709.18,-174.4 1832,-154 1844.4,-151.94 1857.96,-149.24 1869.8,-146.73"/>
<polygon fill="midnightblue" stroke="midnightblue" points="1870.67,-150.12 1879.7,-144.59 1869.19,-143.28 1870.67,-150.12"/>
</g>
<!-- Node22&#45;&gt;Node17 -->
<g id="edge41" class="edge">
<title>Node22&#45;&gt;Node17</title>
<path fill="none" stroke="midnightblue" d="M1486.39,-193.05C1520.86,-184.82 1565.24,-171.99 1602,-154 1623.16,-143.64 1622.93,-131.25 1645,-123 1726.19,-92.65 1985.13,-82.21 2092.09,-79.13"/>
<polygon fill="midnightblue" stroke="midnightblue" points="2092.36,-82.62 2102.26,-78.85 2092.17,-75.63 2092.36,-82.62"/>
</g>
<!-- Node23 -->
<g id="node23" class="node">
<title>Node23</title>
<g id="a_node23"><a xlink:title=" ">
<polygon fill="white" stroke="#bfbfbf" points="1100,-123.5 1100,-153.5 1224,-153.5 1224,-123.5 1100,-123.5"/>
<text text-anchor="start" x="1108" y="-141.5" font-family="Helvetica,sans-Serif" font-size="10.00">flutter/basic_message</text>
<text text-anchor="middle" x="1162" y="-130.5" font-family="Helvetica,sans-Serif" font-size="10.00">_channel.h</text>
</a>
</g>
</g>
<!-- Node22&#45;&gt;Node23 -->
<g id="edge34" class="edge">
<title>Node22&#45;&gt;Node23</title>
<path fill="none" stroke="midnightblue" d="M1373.82,-190.87C1331.87,-180.7 1274.34,-166.75 1229.82,-155.95"/>
<polygon fill="midnightblue" stroke="midnightblue" points="1230.5,-152.51 1219.96,-153.56 1228.85,-159.32 1230.5,-152.51"/>
</g>
<!-- Node24 -->
<g id="node24" class="node">
<title>Node24</title>
<g id="a_node24"><a xlink:title=" ">
<polygon fill="white" stroke="#bfbfbf" points="766.5,-129 766.5,-148 913.5,-148 913.5,-129 766.5,-129"/>
<text text-anchor="middle" x="840" y="-136" font-family="Helvetica,sans-Serif" font-size="10.00">flutter/binary_messenger.h</text>
</a>
</g>
</g>
<!-- Node22&#45;&gt;Node24 -->
<g id="edge35" class="edge">
<title>Node22&#45;&gt;Node24</title>
<path fill="none" stroke="midnightblue" d="M1373.95,-200.28C1280.31,-192.91 1086.23,-176.36 923,-154 913.95,-152.76 904.38,-151.26 895.08,-149.71"/>
<polygon fill="midnightblue" stroke="midnightblue" points="895.58,-146.24 885.14,-148.01 894.4,-153.14 895.58,-146.24"/>
</g>
<!-- Node25 -->
<g id="node25" class="node">
<title>Node25</title>
<g id="a_node25"><a xlink:title=" ">
<polygon fill="white" stroke="#bfbfbf" points="1242,-123.5 1242,-153.5 1420,-153.5 1420,-123.5 1242,-123.5"/>
<text text-anchor="start" x="1250" y="-141.5" font-family="Helvetica,sans-Serif" font-size="10.00">flutter/shell/platform</text>
<text text-anchor="middle" x="1331" y="-130.5" font-family="Helvetica,sans-Serif" font-size="10.00">/common/json_message_codec.h</text>
</a>
</g>
</g>
<!-- Node22&#45;&gt;Node25 -->
<g id="edge36" class="edge">
<title>Node22&#45;&gt;Node25</title>
<path fill="none" stroke="midnightblue" d="M1408.52,-190.4C1394.64,-181.28 1376.37,-169.29 1361.06,-159.24"/>
<polygon fill="midnightblue" stroke="midnightblue" points="1362.72,-156.14 1352.44,-153.58 1358.88,-161.99 1362.72,-156.14"/>
</g>
<!-- Node26 -->
<g id="node26" class="node">
<title>Node26</title>
<g id="a_node26"><a xlink:title=" ">
<polygon fill="white" stroke="#bfbfbf" points="1710.5,-129 1710.5,-148 1823.5,-148 1823.5,-129 1710.5,-129"/>
<text text-anchor="middle" x="1767" y="-136" font-family="Helvetica,sans-Serif" font-size="10.00">flutter/fml/macros.h</text>
</a>
</g>
</g>
<!-- Node22&#45;&gt;Node26 -->
<g id="edge37" class="edge">
<title>Node22&#45;&gt;Node26</title>
<path fill="none" stroke="midnightblue" d="M1486.16,-194.58C1541.03,-184.75 1626.89,-169.04 1701,-154 1706.82,-152.82 1712.92,-151.54 1718.95,-150.24"/>
<polygon fill="midnightblue" stroke="midnightblue" points="1719.97,-153.6 1729,-148.07 1718.49,-146.76 1719.97,-153.6"/>
</g>
<!-- Node27 -->
<g id="node27" class="node">
<title>Node27</title>
<g id="a_node27"><a xlink:title=" ">
<polygon fill="white" stroke="#bfbfbf" points="1438,-129 1438,-148 1560,-148 1560,-129 1438,-129"/>
<text text-anchor="middle" x="1499" y="-136" font-family="Helvetica,sans-Serif" font-size="10.00">rapidjson/document.h</text>
</a>
</g>
</g>
<!-- Node22&#45;&gt;Node27 -->
<g id="edge38" class="edge">
<title>Node22&#45;&gt;Node27</title>
<path fill="none" stroke="midnightblue" d="M1444.97,-190.4C1455.94,-180.06 1470.84,-166.02 1482.22,-155.31"/>
<polygon fill="midnightblue" stroke="midnightblue" points="1484.89,-157.6 1489.77,-148.19 1480.09,-152.5 1484.89,-157.6"/>
</g>
<!-- Node28 -->
<g id="node28" class="node">
<title>Node28</title>
<g id="a_node28"><a xlink:title=" ">
<polygon fill="white" stroke="#bfbfbf" points="932,-129 932,-148 1082,-148 1082,-129 932,-129"/>
<text text-anchor="middle" x="1007" y="-136" font-family="Helvetica,sans-Serif" font-size="10.00">xkbcommon/xkbcommon.h</text>
</a>
</g>
</g>
<!-- Node22&#45;&gt;Node28 -->
<g id="edge40" class="edge">
<title>Node22&#45;&gt;Node28</title>
<path fill="none" stroke="midnightblue" d="M1373.85,-196.54C1306.56,-186.91 1190.43,-169.99 1091,-154 1082.7,-152.67 1073.95,-151.21 1065.36,-149.75"/>
<polygon fill="midnightblue" stroke="midnightblue" points="1065.83,-146.28 1055.38,-148.05 1064.65,-153.18 1065.83,-146.28"/>
</g>
<!-- Node29&#45;&gt;Node3 -->
<g id="edge53" class="edge">
<title>Node29&#45;&gt;Node3</title>
<path fill="none" stroke="midnightblue" d="M868.8,-198.51C802.5,-189.14 703.76,-167.29 744,-123 813.06,-46.99 1531.39,-23.78 1773.12,-18.09"/>
<polygon fill="midnightblue" stroke="midnightblue" points="1773.32,-21.59 1783.24,-17.86 1773.16,-14.59 1773.32,-21.59"/>
</g>
<!-- Node29&#45;&gt;Node10 -->
<g id="edge43" class="edge">
<title>Node29&#45;&gt;Node10</title>
<path fill="none" stroke="midnightblue" d="M977.13,-201.38C1088.25,-194.73 1350.08,-177.8 1569,-154 1594.31,-151.25 1622.96,-147.18 1643.77,-144.06"/>
<polygon fill="midnightblue" stroke="midnightblue" points="1644.52,-147.48 1653.88,-142.52 1643.46,-140.56 1644.52,-147.48"/>
</g>
<!-- Node29&#45;&gt;Node11 -->
<g id="edge44" class="edge">
<title>Node29&#45;&gt;Node11</title>
<path fill="none" stroke="midnightblue" d="M977.3,-202.78C1173.56,-196.44 1839.42,-173.68 1933,-154 1936.08,-153.35 1939.24,-152.49 1942.36,-151.51"/>
<polygon fill="midnightblue" stroke="midnightblue" points="1943.77,-154.72 1952.02,-148.08 1941.43,-148.13 1943.77,-154.72"/>
</g>
<!-- Node29&#45;&gt;Node14 -->
<g id="edge45" class="edge">
<title>Node29&#45;&gt;Node14</title>
<path fill="none" stroke="midnightblue" d="M977.2,-202.55C1146.65,-196.28 1665.09,-175.8 1832,-154 1844.47,-152.37 1858.03,-149.76 1869.87,-147.2"/>
<polygon fill="midnightblue" stroke="midnightblue" points="1870.77,-150.59 1879.76,-144.99 1869.24,-143.76 1870.77,-150.59"/>
</g>
<!-- Node29&#45;&gt;Node17 -->
<g id="edge55" class="edge">
<title>Node29&#45;&gt;Node17</title>
<path fill="none" stroke="midnightblue" d="M868.98,-196.8C806.99,-185.9 718.54,-162.74 757,-123 804.4,-74.03 1855.6,-76.53 2092.06,-77.72"/>
<polygon fill="midnightblue" stroke="midnightblue" points="2092.36,-81.22 2102.38,-77.77 2092.39,-74.22 2092.36,-81.22"/>
</g>
<!-- Node29&#45;&gt;Node24 -->
<g id="edge46" class="edge">
<title>Node29&#45;&gt;Node24</title>
<path fill="none" stroke="midnightblue" d="M904.99,-190.4C891.41,-179.76 872.82,-165.2 859,-154.38"/>
<polygon fill="midnightblue" stroke="midnightblue" points="861.13,-151.6 851.1,-148.19 856.82,-157.12 861.13,-151.6"/>
</g>
<!-- Node29&#45;&gt;Node26 -->
<g id="edge49" class="edge">
<title>Node29&#45;&gt;Node26</title>
<path fill="none" stroke="midnightblue" d="M977.05,-203.8C1104.02,-201.55 1430.95,-192.2 1701,-154 1708.19,-152.98 1715.76,-151.61 1723.1,-150.11"/>
<polygon fill="midnightblue" stroke="midnightblue" points="1723.87,-153.53 1732.92,-148.02 1722.41,-146.68 1723.87,-153.53"/>
</g>
<!-- Node29&#45;&gt;Node27 -->
<g id="edge52" class="edge">
<title>Node29&#45;&gt;Node27</title>
<path fill="none" stroke="midnightblue" d="M977.15,-200.97C1069.99,-194.49 1265.37,-179.04 1429,-154 1436.25,-152.89 1443.89,-151.52 1451.35,-150.07"/>
<polygon fill="midnightblue" stroke="midnightblue" points="1452.24,-153.46 1461.35,-148.05 1450.86,-146.6 1452.24,-153.46"/>
</g>
<!-- Node29&#45;&gt;Node28 -->
<g id="edge54" class="edge">
<title>Node29&#45;&gt;Node28</title>
<path fill="none" stroke="midnightblue" d="M941.23,-190.4C954.97,-179.76 973.78,-165.2 987.77,-154.38"/>
<polygon fill="midnightblue" stroke="midnightblue" points="990,-157.08 995.76,-148.19 985.71,-151.55 990,-157.08"/>
</g>
<!-- Node30 -->
<g id="node30" class="node">
<title>Node30</title>
<g id="a_node30"><a xlink:title=" ">
<polygon fill="white" stroke="#bfbfbf" points="206.5,-129 206.5,-148 345.5,-148 345.5,-129 206.5,-129"/>
<text text-anchor="middle" x="276" y="-136" font-family="Helvetica,sans-Serif" font-size="10.00">flutter/method_channel.h</text>
</a>
</g>
</g>
<!-- Node29&#45;&gt;Node30 -->
<g id="edge47" class="edge">
<title>Node29&#45;&gt;Node30</title>
<path fill="none" stroke="midnightblue" d="M868.67,-201.41C767.21,-195.25 542.16,-179.78 354,-154 345.56,-152.84 336.66,-151.4 327.99,-149.88"/>
<polygon fill="midnightblue" stroke="midnightblue" points="328.44,-146.4 317.98,-148.06 327.2,-153.29 328.44,-146.4"/>
</g>
<!-- Node31 -->
<g id="node31" class="node">
<title>Node31</title>
<g id="a_node31"><a xlink:title=" ">
<polygon fill="white" stroke="#bfbfbf" points="363.5,-123.5 363.5,-153.5 482.5,-153.5 482.5,-123.5 363.5,-123.5"/>
<text text-anchor="start" x="371.5" y="-141.5" font-family="Helvetica,sans-Serif" font-size="10.00">flutter/method_result</text>
<text text-anchor="middle" x="423" y="-130.5" font-family="Helvetica,sans-Serif" font-size="10.00">_functions.h</text>
</a>
</g>
</g>
<!-- Node29&#45;&gt;Node31 -->
<g id="edge48" class="edge">
<title>Node29&#45;&gt;Node31</title>
<path fill="none" stroke="midnightblue" d="M868.89,-199.82C788.78,-192.52 633.72,-177.02 492.77,-154.2"/>
<polygon fill="midnightblue" stroke="midnightblue" points="493.08,-150.71 482.64,-152.55 491.95,-157.62 493.08,-150.71"/>
</g>
<!-- Node32 -->
<g id="node32" class="node">
<title>Node32</title>
<g id="a_node32"><a xlink:title=" ">
<polygon fill="white" stroke="#bfbfbf" points="500.5,-123.5 500.5,-153.5 671.5,-153.5 671.5,-123.5 500.5,-123.5"/>
<text text-anchor="start" x="508.5" y="-141.5" font-family="Helvetica,sans-Serif" font-size="10.00">flutter/shell/platform</text>
<text text-anchor="middle" x="586" y="-130.5" font-family="Helvetica,sans-Serif" font-size="10.00">/common/json_method_codec.h</text>
</a>
</g>
</g>
<!-- Node29&#45;&gt;Node32 -->
<g id="edge50" class="edge">
<title>Node29&#45;&gt;Node32</title>
<path fill="none" stroke="midnightblue" d="M868.86,-194.06C814.92,-183.65 731.4,-167.54 669.07,-155.52"/>
<polygon fill="midnightblue" stroke="midnightblue" points="669.35,-152.01 658.87,-153.56 668.03,-158.89 669.35,-152.01"/>
</g>
<!-- Node33 -->
<g id="node33" class="node">
<title>Node33</title>
<g id="a_node33"><a xlink:title=" ">
<polygon fill="white" stroke="#bfbfbf" points="28,-123.5 28,-153.5 188,-153.5 188,-123.5 28,-123.5"/>
<text text-anchor="start" x="36" y="-141.5" font-family="Helvetica,sans-Serif" font-size="10.00">flutter/shell/platform</text>
<text text-anchor="middle" x="108" y="-130.5" font-family="Helvetica,sans-Serif" font-size="10.00">/common/text_input_model.h</text>
</a>
</g>
</g>
<!-- Node29&#45;&gt;Node33 -->
<g id="edge51" class="edge">
<title>Node29&#45;&gt;Node33</title>
<path fill="none" stroke="midnightblue" d="M868.65,-202.43C749.26,-197.52 454.96,-183.38 198.27,-154.07"/>
<polygon fill="midnightblue" stroke="midnightblue" points="198.34,-150.56 188,-152.89 197.54,-157.51 198.34,-150.56"/>
</g>
<!-- Node34&#45;&gt;Node10 -->
<g id="edge57" class="edge">
<title>Node34&#45;&gt;Node10</title>
<path fill="none" stroke="midnightblue" d="M1916.3,-260.94C1837.58,-253.14 1700.01,-237.35 1684,-221 1667.95,-204.61 1667.72,-176.69 1669.76,-158.17"/>
<polygon fill="midnightblue" stroke="midnightblue" points="1673.26,-158.44 1671.21,-148.04 1666.33,-157.45 1673.26,-158.44"/>
</g>
<!-- Node34&#45;&gt;Node11 -->
<g id="edge58" class="edge">
<title>Node34&#45;&gt;Node11</title>
<path fill="none" stroke="midnightblue" d="M1977.89,-257.32C1984.27,-248.68 1993.31,-234.77 1997,-221 2000.57,-207.69 2000.24,-203.39 1997,-190 1994.17,-178.33 1988.16,-166.35 1982.62,-156.98"/>
<polygon fill="midnightblue" stroke="midnightblue" points="1985.46,-154.91 1977.18,-148.29 1979.52,-158.62 1985.46,-154.91"/>
</g>
<!-- Node34&#45;&gt;Node26 -->
<g id="edge64" class="edge">
<title>Node34&#45;&gt;Node26</title>
<path fill="none" stroke="midnightblue" d="M1916.45,-260.95C1839.64,-253.28 1707.3,-237.8 1693,-221 1672.1,-196.44 1710.9,-168.85 1739.78,-152.89"/>
<polygon fill="midnightblue" stroke="midnightblue" points="1741.54,-155.92 1748.72,-148.14 1738.25,-149.74 1741.54,-155.92"/>
</g>
<!-- Node35 -->
<g id="node35" class="node">
<title>Node35</title>
<g id="a_node35"><a xlink:href="configuration_8h.html" target="_top" xlink:title=" ">
<polygon fill="white" stroke="black" points="1832,-196 1832,-215 1988,-215 1988,-196 1832,-196"/>
<text text-anchor="middle" x="1910" y="-203" font-family="Helvetica,sans-Serif" font-size="10.00">configuration/configuration.h</text>
</a>
</g>
</g>
<!-- Node34&#45;&gt;Node35 -->
<g id="edge59" class="edge">
<title>Node34&#45;&gt;Node35</title>
<path fill="none" stroke="midnightblue" d="M1962.26,-257.48C1952.84,-248.28 1937.64,-233.46 1926.05,-222.16"/>
<polygon fill="midnightblue" stroke="midnightblue" points="1928.33,-219.49 1918.72,-215.01 1923.44,-224.5 1928.33,-219.49"/>
</g>
<!-- Node36 -->
<g id="node36" class="node">
<title>Node36</title>
<g id="a_node36"><a xlink:href="window_8h.html" target="_top" xlink:title=" ">
<polygon fill="white" stroke="black" points="2214.5,-196 2214.5,-215 2321.5,-215 2321.5,-196 2214.5,-196"/>
<text text-anchor="middle" x="2268" y="-203" font-family="Helvetica,sans-Serif" font-size="10.00">wayland/window.h</text>
</a>
</g>
</g>
<!-- Node34&#45;&gt;Node36 -->
<g id="edge65" class="edge">
<title>Node34&#45;&gt;Node36</title>
<path fill="none" stroke="midnightblue" d="M2013.55,-257.48C2066.81,-246.8 2158.02,-228.53 2215.54,-217.01"/>
<polygon fill="midnightblue" stroke="midnightblue" points="2216.41,-220.41 2225.53,-215.01 2215.03,-213.54 2216.41,-220.41"/>
</g>
<!-- Node35&#45;&gt;Node14 -->
<g id="edge60" class="edge">
<title>Node35&#45;&gt;Node14</title>
<path fill="none" stroke="midnightblue" d="M1908.92,-195.73C1907.75,-186.18 1905.83,-170.62 1904.31,-158.28"/>
<polygon fill="midnightblue" stroke="midnightblue" points="1907.76,-157.62 1903.06,-148.13 1900.81,-158.48 1907.76,-157.62"/>
</g>
<!-- Node35&#45;&gt;Node15 -->
<g id="edge61" class="edge">
<title>Node35&#45;&gt;Node15</title>
<path fill="none" stroke="midnightblue" d="M1927.53,-195.87C1950.01,-184.8 1989.23,-165.49 2015.4,-152.6"/>
<polygon fill="midnightblue" stroke="midnightblue" points="2016.97,-155.72 2024.4,-148.17 2013.88,-149.44 2016.97,-155.72"/>
</g>
<!-- Node35&#45;&gt;Node26 -->
<g id="edge62" class="edge">
<title>Node35&#45;&gt;Node26</title>
<path fill="none" stroke="midnightblue" d="M1891.01,-195.87C1866.54,-184.75 1823.8,-165.32 1795.44,-152.43"/>
<polygon fill="midnightblue" stroke="midnightblue" points="1796.62,-149.12 1786.07,-148.17 1793.72,-155.49 1796.62,-149.12"/>
</g>
<!-- Node35&#45;&gt;Node27 -->
<g id="edge63" class="edge">
<title>Node35&#45;&gt;Node27</title>
<path fill="none" stroke="midnightblue" d="M1858.83,-195.99C1846.75,-194.01 1833.92,-191.91 1822,-190 1732.9,-175.69 1629.88,-159.68 1564.61,-149.6"/>
<polygon fill="midnightblue" stroke="midnightblue" points="1564.88,-146.1 1554.46,-148.03 1563.81,-153.01 1564.88,-146.1"/>
</g>
<!-- Node36&#45;&gt;Node11 -->
<g id="edge66" class="edge">
<title>Node36&#45;&gt;Node11</title>
<path fill="none" stroke="midnightblue" d="M2214.29,-196.79C2161.46,-188.57 2078.81,-173.97 2009,-154 2006.42,-153.26 2003.76,-152.42 2001.11,-151.53"/>
<polygon fill="midnightblue" stroke="midnightblue" points="2002.28,-148.23 1991.69,-148.13 1999.91,-154.81 2002.28,-148.23"/>
</g>
<!-- Node36&#45;&gt;Node14 -->
<g id="edge67" class="edge">
<title>Node36&#45;&gt;Node14</title>
<path fill="none" stroke="midnightblue" d="M2214.45,-201.19C2147.43,-195.97 2029.7,-183.23 1933,-154 1931.12,-153.43 1929.22,-152.77 1927.31,-152.05"/>
<polygon fill="midnightblue" stroke="midnightblue" points="1928.63,-148.8 1918.06,-148.08 1925.88,-155.24 1928.63,-148.8"/>
</g>
<!-- Node36&#45;&gt;Node16 -->
<g id="edge71" class="edge">
<title>Node36&#45;&gt;Node16</title>
<path fill="none" stroke="midnightblue" d="M2250.87,-195.87C2228.99,-184.84 2190.91,-165.66 2165.33,-152.77"/>
<polygon fill="midnightblue" stroke="midnightblue" points="2166.71,-149.54 2156.2,-148.17 2163.56,-155.79 2166.71,-149.54"/>
</g>
<!-- Node36&#45;&gt;Node17 -->
<g id="edge70" class="edge">
<title>Node36&#45;&gt;Node17</title>
<path fill="none" stroke="midnightblue" d="M2262.42,-195.99C2251.96,-180.4 2228.17,-146.69 2203,-123 2190.58,-111.31 2174.96,-100.27 2162.25,-92.04"/>
<polygon fill="midnightblue" stroke="midnightblue" points="2163.93,-88.96 2153.6,-86.59 2160.19,-94.88 2163.93,-88.96"/>
</g>
<!-- Node37 -->
<g id="node37" class="node">
<title>Node37</title>
<g id="a_node37"><a xlink:title=" ">
<polygon fill="white" stroke="#bfbfbf" points="2250,-129 2250,-148 2302,-148 2302,-129 2250,-129"/>
<text text-anchor="middle" x="2276" y="-136" font-family="Helvetica,sans-Serif" font-size="10.00">cassert</text>
</a>
</g>
</g>
<!-- Node36&#45;&gt;Node37 -->
<g id="edge68" class="edge">
<title>Node36&#45;&gt;Node37</title>
<path fill="none" stroke="midnightblue" d="M2269.08,-195.73C2270.25,-186.18 2272.17,-170.62 2273.69,-158.28"/>
<polygon fill="midnightblue" stroke="midnightblue" points="2277.19,-158.48 2274.94,-148.13 2270.24,-157.62 2277.19,-158.48"/>
</g>
<!-- Node38 -->
<g id="node38" class="node">
<title>Node38</title>
<g id="a_node38"><a xlink:title=" ">
<polygon fill="white" stroke="#bfbfbf" points="2320,-129 2320,-148 2462,-148 2462,-129 2320,-129"/>
<text text-anchor="middle" x="2391" y="-136" font-family="Helvetica,sans-Serif" font-size="10.00">agl&#45;shell&#45;client&#45;protocol.h</text>
</a>
</g>
</g>
<!-- Node36&#45;&gt;Node38 -->
<g id="edge69" class="edge">
<title>Node36&#45;&gt;Node38</title>
<path fill="none" stroke="midnightblue" d="M2284.33,-195.87C2305.1,-184.89 2341.19,-165.82 2365.57,-152.94"/>
<polygon fill="midnightblue" stroke="midnightblue" points="2367.39,-155.93 2374.6,-148.17 2364.12,-149.75 2367.39,-155.93"/>
</g>
<!-- Node39 -->
<g id="node39" class="node">
<title>Node39</title>
<g id="a_node39"><a xlink:title=" ">
<polygon fill="white" stroke="#bfbfbf" points="2480.5,-129 2480.5,-148 2625.5,-148 2625.5,-129 2480.5,-129"/>
<text text-anchor="middle" x="2553" y="-136" font-family="Helvetica,sans-Serif" font-size="10.00">xdg&#45;shell&#45;client&#45;protocol.h</text>
</a>
</g>
</g>
<!-- Node36&#45;&gt;Node39 -->
<g id="edge72" class="edge">
<title>Node36&#45;&gt;Node39</title>
<path fill="none" stroke="midnightblue" d="M2305.55,-195.94C2356.92,-184.22 2449.12,-163.19 2505.31,-150.38"/>
<polygon fill="midnightblue" stroke="midnightblue" points="2506.39,-153.72 2515.36,-148.08 2504.84,-146.89 2506.39,-153.72"/>
</g>
<!-- Node41 -->
<g id="node41" class="node">
<title>Node41</title>
<g id="a_node41"><a xlink:title=" ">
<polygon fill="white" stroke="#bfbfbf" points="2959.5,-257.5 2959.5,-276.5 3008.5,-276.5 3008.5,-257.5 2959.5,-257.5"/>
<text text-anchor="middle" x="2984" y="-264.5" font-family="Helvetica,sans-Serif" font-size="10.00">cctype</text>
</a>
</g>
</g>
<!-- Node40&#45;&gt;Node41 -->
<g id="edge74" class="edge">
<title>Node40&#45;&gt;Node41</title>
<path fill="none" stroke="midnightblue" d="M2984,-318.98C2984,-310.58 2984,-297.48 2984,-286.66"/>
<polygon fill="midnightblue" stroke="midnightblue" points="2987.5,-286.51 2984,-276.51 2980.5,-286.51 2987.5,-286.51"/>
</g>
<!-- Node42 -->
<g id="node42" class="node">
<title>Node42</title>
<g id="a_node42"><a xlink:title=" ">
<polygon fill="white" stroke="#bfbfbf" points="3027,-257.5 3027,-276.5 3083,-276.5 3083,-257.5 3027,-257.5"/>
<text text-anchor="middle" x="3055" y="-264.5" font-family="Helvetica,sans-Serif" font-size="10.00">iomanip</text>
</a>
</g>
</g>
<!-- Node40&#45;&gt;Node42 -->
<g id="edge75" class="edge">
<title>Node40&#45;&gt;Node42</title>
<path fill="none" stroke="midnightblue" d="M2994.17,-318.98C3005.35,-309.61 3023.52,-294.38 3037.09,-283.01"/>
<polygon fill="midnightblue" stroke="midnightblue" points="3039.43,-285.61 3044.85,-276.51 3034.93,-280.25 3039.43,-285.61"/>
</g>
<!-- Node43 -->
<g id="node43" class="node">
<title>Node43</title>
<g id="a_node43"><a xlink:title=" ">
<polygon fill="white" stroke="#bfbfbf" points="2884.5,-257.5 2884.5,-276.5 2941.5,-276.5 2941.5,-257.5 2884.5,-257.5"/>
<text text-anchor="middle" x="2913" y="-264.5" font-family="Helvetica,sans-Serif" font-size="10.00">ostream</text>
</a>
</g>
</g>
<!-- Node40&#45;&gt;Node43 -->
<g id="edge76" class="edge">
<title>Node40&#45;&gt;Node43</title>
<path fill="none" stroke="midnightblue" d="M2973.83,-318.98C2962.65,-309.61 2944.48,-294.38 2930.91,-283.01"/>
<polygon fill="midnightblue" stroke="midnightblue" points="2933.07,-280.25 2923.15,-276.51 2928.57,-285.61 2933.07,-280.25"/>
</g>
</g>
</svg>
