<?xml version="1.0" encoding="UTF-8" standalone="no"?>
<!DOCTYPE svg PUBLIC "-//W3C//DTD SVG 1.1//EN"
 "http://www.w3.org/Graphics/SVG/1.1/DTD/svg11.dtd">
<!-- Generated by graphviz version 5.0.0 (0)
 -->
<!-- Title: /mnt/raid10/stargate/ivi&#45;homescreen/shell/static_plugins/platform/platform.cc Pages: 1 -->
<svg width="3619pt" height="423pt"
 viewBox="0.00 0.00 3618.50 423.00" xmlns="http://www.w3.org/2000/svg" xmlns:xlink="http://www.w3.org/1999/xlink">
<g id="graph0" class="graph" transform="scale(1 1) rotate(0) translate(4 419)">
<title>/mnt/raid10/stargate/ivi&#45;homescreen/shell/static_plugins/platform/platform.cc</title>
<!-- Node1 -->
<g id="node1" class="node">
<title>Node1</title>
<g id="a_node1"><a xlink:title=" ">
<polygon fill="#999999" stroke="#666666" points="2777.5,-415 2659.5,-415 2659.5,-363 2777.5,-363 2777.5,-415"/>
<text text-anchor="start" x="2667.5" y="-403" font-family="Helvetica,sans-Serif" font-size="10.00">/mnt/raid10/stargate</text>
<text text-anchor="start" x="2667.5" y="-392" font-family="Helvetica,sans-Serif" font-size="10.00">/ivi&#45;homescreen/shell</text>
<text text-anchor="start" x="2667.5" y="-381" font-family="Helvetica,sans-Serif" font-size="10.00">/static_plugins/platform</text>
<text text-anchor="middle" x="2718.5" y="-370" font-family="Helvetica,sans-Serif" font-size="10.00">/platform.cc</text>
</a>
</g>
</g>
<!-- Node2 -->
<g id="node2" class="node">
<title>Node2</title>
<g id="a_node2"><a xlink:href="platform_8h.html" target="_top" xlink:title=" ">
<polygon fill="white" stroke="#666666" points="2690.5,-211.5 2630.5,-211.5 2630.5,-192.5 2690.5,-192.5 2690.5,-211.5"/>
<text text-anchor="middle" x="2660.5" y="-199.5" font-family="Helvetica,sans-Serif" font-size="10.00">platform.h</text>
</a>
</g>
</g>
<!-- Node1&#45;&gt;Node2 -->
<g id="edge1" class="edge">
<title>Node1&#45;&gt;Node2</title>
<path fill="none" stroke="#63b8ff" d="M2710.56,-362.66C2698.74,-324.97 2676.8,-254.98 2666.34,-221.62"/>
<polygon fill="#63b8ff" stroke="#63b8ff" points="2669.59,-220.31 2663.26,-211.81 2662.91,-222.4 2669.59,-220.31"/>
</g>
<!-- Node5 -->
<g id="node5" class="node">
<title>Node5</title>
<g id="a_node5"><a xlink:title=" ">
<polygon fill="#e0e0e0" stroke="#999999" points="2690,-151 2535,-151 2535,-121 2690,-121 2690,-151"/>
<text text-anchor="start" x="2543" y="-139" font-family="Helvetica,sans-Serif" font-size="10.00">flutter/shell/platform</text>
<text text-anchor="middle" x="2612.5" y="-128" font-family="Helvetica,sans-Serif" font-size="10.00">/common/json_method_codec.h</text>
</a>
</g>
</g>
<!-- Node1&#45;&gt;Node5 -->
<g id="edge4" class="edge">
<title>Node1&#45;&gt;Node5</title>
<path fill="none" stroke="#63b8ff" d="M2723.02,-362.78C2728.88,-322.22 2734.59,-241.53 2699.5,-187 2690.84,-173.54 2677.19,-163.3 2663.25,-155.71"/>
<polygon fill="#63b8ff" stroke="#63b8ff" points="2664.6,-152.47 2654.09,-151.09 2661.45,-158.72 2664.6,-152.47"/>
</g>
<!-- Node6 -->
<g id="node6" class="node">
<title>Node6</title>
<g id="a_node6"><a xlink:href="engine_8h.html" target="_top" xlink:title=" ">
<polygon fill="white" stroke="#666666" points="1997,-327 1944,-327 1944,-308 1997,-308 1997,-327"/>
<text text-anchor="middle" x="1970.5" y="-315" font-family="Helvetica,sans-Serif" font-size="10.00">engine.h</text>
</a>
</g>
</g>
<!-- Node1&#45;&gt;Node6 -->
<g id="edge5" class="edge">
<title>Node1&#45;&gt;Node6</title>
<path fill="none" stroke="#63b8ff" d="M2659.49,-382.52C2511.48,-368.77 2127.71,-333.11 2007.24,-321.91"/>
<polygon fill="#63b8ff" stroke="#63b8ff" points="2007.35,-318.41 1997.06,-320.97 2006.7,-325.38 2007.35,-318.41"/>
</g>
<!-- Node20 -->
<g id="node20" class="node">
<title>Node20</title>
<g id="a_node20"><a xlink:href="logging_8h.html" target="_top" xlink:title=" ">
<polygon fill="white" stroke="#666666" points="3022.5,-272 2966.5,-272 2966.5,-253 3022.5,-253 3022.5,-272"/>
<text text-anchor="middle" x="2994.5" y="-260" font-family="Helvetica,sans-Serif" font-size="10.00">logging.h</text>
</a>
</g>
</g>
<!-- Node1&#45;&gt;Node20 -->
<g id="edge84" class="edge">
<title>Node1&#45;&gt;Node20</title>
<path fill="none" stroke="#63b8ff" d="M2774.02,-362.96C2832.24,-336.69 2921.4,-296.47 2966.42,-276.17"/>
<polygon fill="#63b8ff" stroke="#63b8ff" points="2967.91,-279.33 2975.59,-272.03 2965.03,-272.95 2967.91,-279.33"/>
</g>
<!-- Node3 -->
<g id="node3" class="node">
<title>Node3</title>
<g id="a_node3"><a xlink:title=" ">
<polygon fill="#e0e0e0" stroke="#999999" points="2475,-30 2354,-30 2354,0 2475,0 2475,-30"/>
<text text-anchor="start" x="2362" y="-18" font-family="Helvetica,sans-Serif" font-size="10.00">shell/platform/embedder</text>
<text text-anchor="middle" x="2414.5" y="-7" font-family="Helvetica,sans-Serif" font-size="10.00">/embedder.h</text>
</a>
</g>
</g>
<!-- Node2&#45;&gt;Node3 -->
<g id="edge2" class="edge">
<title>Node2&#45;&gt;Node3</title>
<path fill="none" stroke="#63b8ff" d="M2670.55,-192.35C2686.99,-177.14 2716.2,-144.95 2699.5,-121 2651.45,-52.09 2552.82,-28.28 2485.18,-20.13"/>
<polygon fill="#63b8ff" stroke="#63b8ff" points="2485.35,-16.63 2475.02,-18.99 2484.57,-23.58 2485.35,-16.63"/>
</g>
<!-- Node4 -->
<g id="node4" class="node">
<title>Node4</title>
<g id="a_node4"><a xlink:title=" ">
<polygon fill="#e0e0e0" stroke="#999999" points="1920,-145.5 1879,-145.5 1879,-126.5 1920,-126.5 1920,-145.5"/>
<text text-anchor="middle" x="1899.5" y="-133.5" font-family="Helvetica,sans-Serif" font-size="10.00">string</text>
</a>
</g>
</g>
<!-- Node2&#45;&gt;Node4 -->
<g id="edge3" class="edge">
<title>Node2&#45;&gt;Node4</title>
<path fill="none" stroke="#63b8ff" d="M2630.16,-199.05C2505.2,-190.97 2033.74,-160.17 1967.5,-151 1955.25,-149.3 1941.9,-146.72 1930.29,-144.23"/>
<polygon fill="#63b8ff" stroke="#63b8ff" points="1930.73,-140.74 1920.21,-142 1929.22,-147.58 1930.73,-140.74"/>
</g>
<!-- Node6&#45;&gt;Node3 -->
<g id="edge10" class="edge">
<title>Node6&#45;&gt;Node3</title>
<path fill="none" stroke="#63b8ff" d="M1997.37,-316.85C2116.54,-317.84 2596.03,-315.57 2699.5,-217 2749.31,-169.55 2725.38,-99.87 2665.5,-66 2610.12,-34.67 2538.15,-22.75 2485.49,-18.32"/>
<polygon fill="#63b8ff" stroke="#63b8ff" points="2485.46,-14.81 2475.23,-17.53 2484.93,-21.79 2485.46,-14.81"/>
</g>
<!-- Node6&#45;&gt;Node4 -->
<g id="edge16" class="edge">
<title>Node6&#45;&gt;Node4</title>
<path fill="none" stroke="#63b8ff" d="M1943.86,-316.03C1912.95,-313.87 1863.21,-305.1 1839.5,-272 1811.61,-233.08 1856.31,-179.13 1882.55,-152.77"/>
<polygon fill="#63b8ff" stroke="#63b8ff" points="1885.28,-155 1890.01,-145.52 1880.4,-149.99 1885.28,-155"/>
</g>
<!-- Node7 -->
<g id="node7" class="node">
<title>Node7</title>
<g id="a_node7"><a xlink:title=" ">
<polygon fill="#e0e0e0" stroke="#999999" points="1916,-272 1857,-272 1857,-253 1916,-253 1916,-272"/>
<text text-anchor="middle" x="1886.5" y="-260" font-family="Helvetica,sans-Serif" font-size="10.00">functional</text>
</a>
</g>
</g>
<!-- Node6&#45;&gt;Node7 -->
<g id="edge6" class="edge">
<title>Node6&#45;&gt;Node7</title>
<path fill="none" stroke="#63b8ff" d="M1957,-307.98C1944.1,-299.84 1924.4,-287.41 1909.1,-277.76"/>
<polygon fill="#63b8ff" stroke="#63b8ff" points="1910.57,-274.55 1900.24,-272.17 1906.83,-280.47 1910.57,-274.55"/>
</g>
<!-- Node8 -->
<g id="node8" class="node">
<title>Node8</title>
<g id="a_node8"><a xlink:title=" ">
<polygon fill="#e0e0e0" stroke="#999999" points="3096.5,-24.5 3036.5,-24.5 3036.5,-5.5 3096.5,-5.5 3096.5,-24.5"/>
<text text-anchor="middle" x="3066.5" y="-12.5" font-family="Helvetica,sans-Serif" font-size="10.00">EGL/egl.h</text>
</a>
</g>
</g>
<!-- Node6&#45;&gt;Node8 -->
<g id="edge7" class="edge">
<title>Node6&#45;&gt;Node8</title>
<path fill="none" stroke="#63b8ff" d="M1997.26,-316.1C2209.35,-312.75 3610.5,-287.42 3610.5,-203 3610.5,-203 3610.5,-203 3610.5,-135 3610.5,-31.9 3232.9,-17.99 3106.88,-16.22"/>
<polygon fill="#63b8ff" stroke="#63b8ff" points="3106.56,-12.72 3096.52,-16.1 3106.48,-19.72 3106.56,-12.72"/>
</g>
<!-- Node9 -->
<g id="node9" class="node">
<title>Node9</title>
<g id="a_node9"><a xlink:title=" ">
<polygon fill="#e0e0e0" stroke="#999999" points="2006.5,-272 1934.5,-272 1934.5,-253 2006.5,-253 2006.5,-272"/>
<text text-anchor="middle" x="1970.5" y="-260" font-family="Helvetica,sans-Serif" font-size="10.00">GLES2/gl2.h</text>
</a>
</g>
</g>
<!-- Node6&#45;&gt;Node9 -->
<g id="edge8" class="edge">
<title>Node6&#45;&gt;Node9</title>
<path fill="none" stroke="#63b8ff" d="M1970.5,-307.75C1970.5,-300.8 1970.5,-290.85 1970.5,-282.13"/>
<polygon fill="#63b8ff" stroke="#63b8ff" points="1974,-282.09 1970.5,-272.09 1967,-282.09 1974,-282.09"/>
</g>
<!-- Node10 -->
<g id="node10" class="node">
<title>Node10</title>
<g id="a_node10"><a xlink:title=" ">
<polygon fill="#e0e0e0" stroke="#999999" points="2150,-272 2025,-272 2025,-253 2150,-253 2150,-272"/>
<text text-anchor="middle" x="2087.5" y="-260" font-family="Helvetica,sans-Serif" font-size="10.00">flutter/encodable_value.h</text>
</a>
</g>
</g>
<!-- Node6&#45;&gt;Node10 -->
<g id="edge9" class="edge">
<title>Node6&#45;&gt;Node10</title>
<path fill="none" stroke="#63b8ff" d="M1989.3,-307.98C2008.12,-299.46 2037.32,-286.23 2059,-276.41"/>
<polygon fill="#63b8ff" stroke="#63b8ff" points="2060.7,-279.48 2068.36,-272.17 2057.81,-273.11 2060.7,-279.48"/>
</g>
<!-- Node11 -->
<g id="node11" class="node">
<title>Node11</title>
<g id="a_node11"><a xlink:title=" ">
<polygon fill="#e0e0e0" stroke="#999999" points="2230.5,-272 2168.5,-272 2168.5,-253 2230.5,-253 2230.5,-272"/>
<text text-anchor="middle" x="2199.5" y="-260" font-family="Helvetica,sans-Serif" font-size="10.00">filesystem</text>
</a>
</g>
</g>
<!-- Node6&#45;&gt;Node11 -->
<g id="edge11" class="edge">
<title>Node6&#45;&gt;Node11</title>
<path fill="none" stroke="#63b8ff" d="M1997.22,-310.32C2036.9,-301.13 2111.73,-283.81 2158.41,-273.01"/>
<polygon fill="#63b8ff" stroke="#63b8ff" points="2159.26,-276.41 2168.21,-270.74 2157.68,-269.59 2159.26,-276.41"/>
</g>
<!-- Node12 -->
<g id="node12" class="node">
<title>Node12</title>
<g id="a_node12"><a xlink:title=" ">
<polygon fill="#e0e0e0" stroke="#999999" points="2478,-145.5 2443,-145.5 2443,-126.5 2478,-126.5 2478,-145.5"/>
<text text-anchor="middle" x="2460.5" y="-133.5" font-family="Helvetica,sans-Serif" font-size="10.00">map</text>
</a>
</g>
</g>
<!-- Node6&#45;&gt;Node12 -->
<g id="edge12" class="edge">
<title>Node6&#45;&gt;Node12</title>
<path fill="none" stroke="#63b8ff" d="M1997.04,-315.84C2076.98,-313.52 2314.2,-304.04 2383.5,-272 2415.75,-257.09 2423.77,-247.78 2441.5,-217 2452.5,-197.9 2457.14,-172.75 2459.09,-155.78"/>
<polygon fill="#63b8ff" stroke="#63b8ff" points="2462.61,-155.81 2460.06,-145.52 2455.64,-155.15 2462.61,-155.81"/>
</g>
<!-- Node13 -->
<g id="node13" class="node">
<title>Node13</title>
<g id="a_node13"><a xlink:title=" ">
<polygon fill="#e0e0e0" stroke="#999999" points="921.5,-145.5 869.5,-145.5 869.5,-126.5 921.5,-126.5 921.5,-145.5"/>
<text text-anchor="middle" x="895.5" y="-133.5" font-family="Helvetica,sans-Serif" font-size="10.00">memory</text>
</a>
</g>
</g>
<!-- Node6&#45;&gt;Node13 -->
<g id="edge13" class="edge">
<title>Node6&#45;&gt;Node13</title>
<path fill="none" stroke="#63b8ff" d="M1943.65,-316.76C1794.02,-317.98 1066.87,-321.36 981.5,-272 936.51,-245.98 911.35,-185.92 901.07,-155.45"/>
<polygon fill="#63b8ff" stroke="#63b8ff" points="904.32,-154.14 897.94,-145.68 897.65,-156.27 904.32,-154.14"/>
</g>
<!-- Node14 -->
<g id="node14" class="node">
<title>Node14</title>
<g id="a_node14"><a xlink:title=" ">
<polygon fill="#e0e0e0" stroke="#999999" points="2292.5,-272 2248.5,-272 2248.5,-253 2292.5,-253 2292.5,-272"/>
<text text-anchor="middle" x="2270.5" y="-260" font-family="Helvetica,sans-Serif" font-size="10.00">mutex</text>
</a>
</g>
</g>
<!-- Node6&#45;&gt;Node14 -->
<g id="edge14" class="edge">
<title>Node6&#45;&gt;Node14</title>
<path fill="none" stroke="#63b8ff" d="M1997.02,-313.04C2043.81,-306.74 2144.24,-292.34 2238.26,-272.08"/>
<polygon fill="#63b8ff" stroke="#63b8ff" points="2239.19,-275.46 2248.22,-269.91 2237.7,-268.62 2239.19,-275.46"/>
</g>
<!-- Node15 -->
<g id="node15" class="node">
<title>Node15</title>
<g id="a_node15"><a xlink:title=" ">
<polygon fill="#e0e0e0" stroke="#999999" points="2354,-272 2311,-272 2311,-253 2354,-253 2354,-272"/>
<text text-anchor="middle" x="2332.5" y="-260" font-family="Helvetica,sans-Serif" font-size="10.00">queue</text>
</a>
</g>
</g>
<!-- Node6&#45;&gt;Node15 -->
<g id="edge15" class="edge">
<title>Node6&#45;&gt;Node15</title>
<path fill="none" stroke="#63b8ff" d="M1997.3,-314.13C2052.35,-308.99 2182.21,-295.53 2300.92,-271.84"/>
<polygon fill="#63b8ff" stroke="#63b8ff" points="2301.8,-275.23 2310.91,-269.82 2300.41,-268.37 2301.8,-275.23"/>
</g>
<!-- Node16 -->
<g id="node16" class="node">
<title>Node16</title>
<g id="a_node16"><a xlink:title=" ">
<polygon fill="#e0e0e0" stroke="#999999" points="851.5,-145.5 807.5,-145.5 807.5,-126.5 851.5,-126.5 851.5,-145.5"/>
<text text-anchor="middle" x="829.5" y="-133.5" font-family="Helvetica,sans-Serif" font-size="10.00">vector</text>
</a>
</g>
</g>
<!-- Node6&#45;&gt;Node16 -->
<g id="edge17" class="edge">
<title>Node6&#45;&gt;Node16</title>
<path fill="none" stroke="#63b8ff" d="M1943.52,-316.54C1791.5,-316.63 1045.52,-314.85 953.5,-272 898.83,-246.54 857.16,-184.81 839.19,-154.45"/>
<polygon fill="#63b8ff" stroke="#63b8ff" points="842.22,-152.7 834.2,-145.78 836.16,-156.19 842.22,-152.7"/>
</g>
<!-- Node17 -->
<g id="node17" class="node">
<title>Node17</title>
<g id="a_node17"><a xlink:href="backend_8h.html" target="_top" xlink:title=" ">
<polygon fill="white" stroke="#666666" points="101,-145.5 0,-145.5 0,-126.5 101,-126.5 101,-145.5"/>
<text text-anchor="middle" x="50.5" y="-133.5" font-family="Helvetica,sans-Serif" font-size="10.00">backend/backend.h</text>
</a>
</g>
</g>
<!-- Node6&#45;&gt;Node17 -->
<g id="edge18" class="edge">
<title>Node6&#45;&gt;Node17</title>
<path fill="none" stroke="#63b8ff" d="M1943.78,-316.08C1787.99,-313.47 997.36,-298.52 756.5,-272 500.44,-243.81 198.64,-174.87 90.99,-147.99"/>
<polygon fill="#63b8ff" stroke="#63b8ff" points="91.74,-144.57 81.19,-145.52 90.03,-151.35 91.74,-144.57"/>
</g>
<!-- Node18 -->
<g id="node18" class="node">
<title>Node18</title>
<g id="a_node18"><a xlink:href="constants_8h.html" target="_top" xlink:title=" ">
<polygon fill="white" stroke="#666666" points="1782.5,-85 1714.5,-85 1714.5,-66 1782.5,-66 1782.5,-85"/>
<text text-anchor="middle" x="1748.5" y="-73" font-family="Helvetica,sans-Serif" font-size="10.00">constants.h</text>
</a>
</g>
</g>
<!-- Node6&#45;&gt;Node18 -->
<g id="edge25" class="edge">
<title>Node6&#45;&gt;Node18</title>
<path fill="none" stroke="#63b8ff" d="M1943.94,-316.45C1790.12,-316 1016.86,-311.8 919.5,-272 849.1,-243.22 825.92,-221.94 798.5,-151 793.69,-138.56 789.3,-130.65 798.5,-121 830.12,-87.86 1520.95,-78.74 1704.21,-76.89"/>
<polygon fill="#63b8ff" stroke="#63b8ff" points="1704.33,-80.39 1714.3,-76.79 1704.26,-73.39 1704.33,-80.39"/>
</g>
<!-- Node6&#45;&gt;Node20 -->
<g id="edge26" class="edge">
<title>Node6&#45;&gt;Node20</title>
<path fill="none" stroke="#63b8ff" d="M1997.1,-315.12C2137.34,-307.86 2790.67,-274.05 2956.27,-265.48"/>
<polygon fill="#63b8ff" stroke="#63b8ff" points="2956.65,-268.96 2966.46,-264.95 2956.29,-261.97 2956.65,-268.96"/>
</g>
<!-- Node28 -->
<g id="node28" class="node">
<title>Node28</title>
<g id="a_node28"><a xlink:href="platform__channel_8h.html" target="_top" xlink:title=" ">
<polygon fill="white" stroke="#666666" points="2432,-211.5 2333,-211.5 2333,-192.5 2432,-192.5 2432,-211.5"/>
<text text-anchor="middle" x="2382.5" y="-199.5" font-family="Helvetica,sans-Serif" font-size="10.00">platform_channel.h</text>
</a>
</g>
</g>
<!-- Node6&#45;&gt;Node28 -->
<g id="edge35" class="edge">
<title>Node6&#45;&gt;Node28</title>
<path fill="none" stroke="#63b8ff" d="M1997.1,-315.2C2080.91,-310.86 2335.64,-295.82 2363.5,-272 2377.79,-259.78 2381.82,-237.91 2382.73,-222.06"/>
<polygon fill="#63b8ff" stroke="#63b8ff" points="2386.24,-221.88 2382.95,-211.81 2379.24,-221.73 2386.24,-221.88"/>
</g>
<!-- Node29 -->
<g id="node29" class="node">
<title>Node29</title>
<g id="a_node29"><a xlink:href="key__event_8h.html" target="_top" xlink:title=" ">
<polygon fill="white" stroke="#666666" points="1544.5,-217 1442.5,-217 1442.5,-187 1544.5,-187 1544.5,-217"/>
<text text-anchor="start" x="1450.5" y="-205" font-family="Helvetica,sans-Serif" font-size="10.00">static_plugins/key</text>
<text text-anchor="middle" x="1493.5" y="-194" font-family="Helvetica,sans-Serif" font-size="10.00">_event/key_event.h</text>
</a>
</g>
</g>
<!-- Node6&#45;&gt;Node29 -->
<g id="edge39" class="edge">
<title>Node6&#45;&gt;Node29</title>
<path fill="none" stroke="#63b8ff" d="M1943.8,-310.5C1906.37,-302.05 1836.19,-286.12 1776.5,-272 1699.9,-253.88 1611.82,-232.28 1554.55,-218.14"/>
<polygon fill="#63b8ff" stroke="#63b8ff" points="1555.12,-214.68 1544.57,-215.68 1553.44,-221.47 1555.12,-214.68"/>
</g>
<!-- Node36 -->
<g id="node36" class="node">
<title>Node36</title>
<g id="a_node36"><a xlink:href="text__input_8h.html" target="_top" xlink:title=" ">
<polygon fill="white" stroke="#666666" points="1972,-217 1875,-217 1875,-187 1972,-187 1972,-217"/>
<text text-anchor="start" x="1883" y="-205" font-family="Helvetica,sans-Serif" font-size="10.00">static_plugins/text</text>
<text text-anchor="middle" x="1923.5" y="-194" font-family="Helvetica,sans-Serif" font-size="10.00">_input/text_input.h</text>
</a>
</g>
</g>
<!-- Node6&#45;&gt;Node36 -->
<g id="edge51" class="edge">
<title>Node6&#45;&gt;Node36</title>
<path fill="none" stroke="#63b8ff" d="M1943.82,-315.24C1914.88,-312.27 1869.96,-302.66 1848.5,-272 1834.83,-252.46 1856.34,-234.37 1879.78,-221.62"/>
<polygon fill="#63b8ff" stroke="#63b8ff" points="1881.49,-224.68 1888.79,-217 1878.29,-218.45 1881.49,-224.68"/>
</g>
<!-- Node40 -->
<g id="node40" class="node">
<title>Node40</title>
<g id="a_node40"><a xlink:href="flutter__view_8h.html" target="_top" xlink:title=" ">
<polygon fill="white" stroke="#666666" points="1088.5,-272 990.5,-272 990.5,-253 1088.5,-253 1088.5,-272"/>
<text text-anchor="middle" x="1039.5" y="-260" font-family="Helvetica,sans-Serif" font-size="10.00">view/flutter_view.h</text>
</a>
</g>
</g>
<!-- Node6&#45;&gt;Node40 -->
<g id="edge65" class="edge">
<title>Node6&#45;&gt;Node40</title>
<path fill="none" stroke="#63b8ff" d="M1943.64,-314.97C1817.08,-307.77 1278.84,-277.13 1098.59,-266.86"/>
<polygon fill="#63b8ff" stroke="#63b8ff" points="1098.69,-263.36 1088.51,-266.29 1098.29,-270.35 1098.69,-263.36"/>
</g>
<!-- Node17&#45;&gt;Node3 -->
<g id="edge19" class="edge">
<title>Node17&#45;&gt;Node3</title>
<path fill="none" stroke="#63b8ff" d="M81.84,-126.49C90.72,-124.37 100.44,-122.33 109.5,-121 526.2,-59.93 634.82,-85.97 1055.5,-66 1548.37,-42.61 2142.23,-24.09 2343.71,-18.07"/>
<polygon fill="#63b8ff" stroke="#63b8ff" points="2343.97,-21.57 2353.86,-17.77 2343.76,-14.57 2343.97,-21.57"/>
</g>
<!-- Node17&#45;&gt;Node6 -->
<g id="edge24" class="edge">
<title>Node17&#45;&gt;Node6</title>
<path fill="none" stroke="#63b8ff" d="M89.18,-145.52C197.12,-170.38 510.18,-242.9 774.5,-272 1007.99,-297.71 1758.12,-312.54 1933.6,-315.81"/>
<polygon fill="#63b8ff" stroke="#63b8ff" points="1933.56,-319.31 1943.62,-315.99 1933.69,-312.31 1933.56,-319.31"/>
</g>
<!-- Node17&#45;&gt;Node18 -->
<g id="edge20" class="edge">
<title>Node17&#45;&gt;Node18</title>
<path fill="none" stroke="#63b8ff" d="M81.2,-126.45C90.25,-124.28 100.21,-122.22 109.5,-121 430.58,-79 1475.49,-76.51 1704.06,-76.47"/>
<polygon fill="#63b8ff" stroke="#63b8ff" points="1704.32,-79.97 1714.32,-76.47 1704.32,-72.97 1704.32,-79.97"/>
</g>
<!-- Node18&#45;&gt;Node3 -->
<g id="edge22" class="edge">
<title>Node18&#45;&gt;Node3</title>
<path fill="none" stroke="#63b8ff" d="M1782.9,-71.48C1887.24,-62.31 2201.59,-34.7 2343.56,-22.23"/>
<polygon fill="#63b8ff" stroke="#63b8ff" points="2344.23,-25.69 2353.89,-21.32 2343.62,-18.71 2344.23,-25.69"/>
</g>
<!-- Node18&#45;&gt;Node8 -->
<g id="edge21" class="edge">
<title>Node18&#45;&gt;Node8</title>
<path fill="none" stroke="#63b8ff" d="M1782.74,-72.98C1965.86,-64.85 2828.66,-26.56 3026.16,-17.79"/>
<polygon fill="#63b8ff" stroke="#63b8ff" points="3026.54,-21.28 3036.38,-17.34 3026.23,-14.28 3026.54,-21.28"/>
</g>
<!-- Node19 -->
<g id="node19" class="node">
<title>Node19</title>
<g id="a_node19"><a xlink:title=" ">
<polygon fill="#e0e0e0" stroke="#999999" points="1767.5,-24.5 1729.5,-24.5 1729.5,-5.5 1767.5,-5.5 1767.5,-24.5"/>
<text text-anchor="middle" x="1748.5" y="-12.5" font-family="Helvetica,sans-Serif" font-size="10.00">array</text>
</a>
</g>
</g>
<!-- Node18&#45;&gt;Node19 -->
<g id="edge23" class="edge">
<title>Node18&#45;&gt;Node19</title>
<path fill="none" stroke="#63b8ff" d="M1748.5,-65.87C1748.5,-57.75 1748.5,-45.31 1748.5,-34.89"/>
<polygon fill="#63b8ff" stroke="#63b8ff" points="1752,-34.67 1748.5,-24.67 1745,-34.67 1752,-34.67"/>
</g>
<!-- Node20&#45;&gt;Node18 -->
<g id="edge34" class="edge">
<title>Node20&#45;&gt;Node18</title>
<path fill="none" stroke="#63b8ff" d="M2966.45,-258.62C2929.65,-253.97 2863.83,-242.6 2813.5,-217 2754.46,-186.97 2761.18,-145.16 2699.5,-121 2614.57,-87.73 1969.03,-78.75 1792.82,-76.91"/>
<polygon fill="#63b8ff" stroke="#63b8ff" points="1792.65,-73.4 1782.62,-76.8 1792.58,-80.4 1792.65,-73.4"/>
</g>
<!-- Node21 -->
<g id="node21" class="node">
<title>Node21</title>
<g id="a_node21"><a xlink:title=" ">
<polygon fill="#e0e0e0" stroke="#999999" points="2874.5,-211.5 2822.5,-211.5 2822.5,-192.5 2874.5,-192.5 2874.5,-211.5"/>
<text text-anchor="middle" x="2848.5" y="-199.5" font-family="Helvetica,sans-Serif" font-size="10.00">sstream</text>
</a>
</g>
</g>
<!-- Node20&#45;&gt;Node21 -->
<g id="edge27" class="edge">
<title>Node20&#45;&gt;Node21</title>
<path fill="none" stroke="#63b8ff" d="M2973.27,-252.99C2948.51,-243.07 2907.38,-226.59 2879.15,-215.28"/>
<polygon fill="#63b8ff" stroke="#63b8ff" points="2880.34,-211.99 2869.76,-211.52 2877.74,-218.49 2880.34,-211.99"/>
</g>
<!-- Node22 -->
<g id="node22" class="node">
<title>Node22</title>
<g id="a_node22"><a xlink:title=" ">
<polygon fill="#e0e0e0" stroke="#999999" points="2980.5,-211.5 2892.5,-211.5 2892.5,-192.5 2980.5,-192.5 2980.5,-211.5"/>
<text text-anchor="middle" x="2936.5" y="-199.5" font-family="Helvetica,sans-Serif" font-size="10.00">spdlog/cfg/env.h</text>
</a>
</g>
</g>
<!-- Node20&#45;&gt;Node22 -->
<g id="edge28" class="edge">
<title>Node20&#45;&gt;Node22</title>
<path fill="none" stroke="#63b8ff" d="M2985.94,-252.87C2977.12,-243.97 2963.16,-229.89 2952.32,-218.95"/>
<polygon fill="#63b8ff" stroke="#63b8ff" points="2954.62,-216.3 2945.09,-211.67 2949.65,-221.23 2954.62,-216.3"/>
</g>
<!-- Node23 -->
<g id="node23" class="node">
<title>Node23</title>
<g id="a_node23"><a xlink:title=" ">
<polygon fill="#e0e0e0" stroke="#999999" points="3108.5,-217 2998.5,-217 2998.5,-187 3108.5,-187 3108.5,-217"/>
<text text-anchor="start" x="3006.5" y="-205" font-family="Helvetica,sans-Serif" font-size="10.00">spdlog/sinks/callback</text>
<text text-anchor="middle" x="3053.5" y="-194" font-family="Helvetica,sans-Serif" font-size="10.00">_sink.h</text>
</a>
</g>
</g>
<!-- Node20&#45;&gt;Node23 -->
<g id="edge29" class="edge">
<title>Node20&#45;&gt;Node23</title>
<path fill="none" stroke="#63b8ff" d="M3003.21,-252.87C3010.77,-245.37 3022.04,-234.2 3031.99,-224.33"/>
<polygon fill="#63b8ff" stroke="#63b8ff" points="3034.63,-226.64 3039.26,-217.11 3029.7,-221.67 3034.63,-226.64"/>
</g>
<!-- Node24 -->
<g id="node24" class="node">
<title>Node24</title>
<g id="a_node24"><a xlink:title=" ">
<polygon fill="#e0e0e0" stroke="#999999" points="3240.5,-217 3126.5,-217 3126.5,-187 3240.5,-187 3240.5,-217"/>
<text text-anchor="start" x="3134.5" y="-205" font-family="Helvetica,sans-Serif" font-size="10.00">spdlog/sinks/ringbuffer</text>
<text text-anchor="middle" x="3183.5" y="-194" font-family="Helvetica,sans-Serif" font-size="10.00">_sink.h</text>
</a>
</g>
</g>
<!-- Node20&#45;&gt;Node24 -->
<g id="edge30" class="edge">
<title>Node20&#45;&gt;Node24</title>
<path fill="none" stroke="#63b8ff" d="M3021.98,-252.99C3049.78,-244.39 3093.51,-230.86 3128.46,-220.04"/>
<polygon fill="#63b8ff" stroke="#63b8ff" points="3129.54,-223.36 3138.06,-217.06 3127.47,-216.68 3129.54,-223.36"/>
</g>
<!-- Node25 -->
<g id="node25" class="node">
<title>Node25</title>
<g id="a_node25"><a xlink:title=" ">
<polygon fill="#e0e0e0" stroke="#999999" points="3360,-217 3259,-217 3259,-187 3360,-187 3360,-217"/>
<text text-anchor="start" x="3267" y="-205" font-family="Helvetica,sans-Serif" font-size="10.00">spdlog/sinks/stdout</text>
<text text-anchor="middle" x="3309.5" y="-194" font-family="Helvetica,sans-Serif" font-size="10.00">_color_sinks.h</text>
</a>
</g>
</g>
<!-- Node20&#45;&gt;Node25 -->
<g id="edge31" class="edge">
<title>Node20&#45;&gt;Node25</title>
<path fill="none" stroke="#63b8ff" d="M3022.52,-257.14C3067.87,-249.97 3160.37,-234.88 3248.87,-217.06"/>
<polygon fill="#63b8ff" stroke="#63b8ff" points="3249.7,-220.46 3258.81,-215.04 3248.31,-213.6 3249.7,-220.46"/>
</g>
<!-- Node26 -->
<g id="node26" class="node">
<title>Node26</title>
<g id="a_node26"><a xlink:title=" ">
<polygon fill="#e0e0e0" stroke="#999999" points="3479,-217 3378,-217 3378,-187 3479,-187 3479,-217"/>
<text text-anchor="start" x="3386" y="-205" font-family="Helvetica,sans-Serif" font-size="10.00">spdlog/sinks/stdout</text>
<text text-anchor="middle" x="3428.5" y="-194" font-family="Helvetica,sans-Serif" font-size="10.00">_sinks.h</text>
</a>
</g>
</g>
<!-- Node20&#45;&gt;Node26 -->
<g id="edge32" class="edge">
<title>Node20&#45;&gt;Node26</title>
<path fill="none" stroke="#63b8ff" d="M3022.89,-259.25C3084.16,-254.16 3233.51,-240.48 3367.69,-217.2"/>
<polygon fill="#63b8ff" stroke="#63b8ff" points="3368.49,-220.62 3377.73,-215.44 3367.27,-213.72 3368.49,-220.62"/>
</g>
<!-- Node27 -->
<g id="node27" class="node">
<title>Node27</title>
<g id="a_node27"><a xlink:title=" ">
<polygon fill="#e0e0e0" stroke="#999999" points="3582,-211.5 3497,-211.5 3497,-192.5 3582,-192.5 3582,-211.5"/>
<text text-anchor="middle" x="3539.5" y="-199.5" font-family="Helvetica,sans-Serif" font-size="10.00">spdlog/spdlog.h</text>
</a>
</g>
</g>
<!-- Node20&#45;&gt;Node27 -->
<g id="edge33" class="edge">
<title>Node20&#45;&gt;Node27</title>
<path fill="none" stroke="#63b8ff" d="M3022.59,-260.72C3098.36,-258.24 3313.09,-248.71 3488.5,-217 3492.94,-216.2 3497.55,-215.19 3502.11,-214.08"/>
<polygon fill="#63b8ff" stroke="#63b8ff" points="3503.11,-217.43 3511.91,-211.54 3501.36,-210.66 3503.11,-217.43"/>
</g>
<!-- Node28&#45;&gt;Node3 -->
<g id="edge38" class="edge">
<title>Node28&#45;&gt;Node3</title>
<path fill="none" stroke="#63b8ff" d="M2424.38,-192.47C2447.25,-185.45 2473.65,-172.94 2487.5,-151 2512.18,-111.91 2469.88,-63.8 2440.05,-36.85"/>
<polygon fill="#63b8ff" stroke="#63b8ff" points="2442.24,-34.11 2432.41,-30.15 2437.62,-39.37 2442.24,-34.11"/>
</g>
<!-- Node28&#45;&gt;Node4 -->
<g id="edge37" class="edge">
<title>Node28&#45;&gt;Node4</title>
<path fill="none" stroke="#63b8ff" d="M2332.8,-196.36C2254.74,-188.77 2098.75,-172.38 1967.5,-151 1955.3,-149.01 1941.95,-146.37 1930.34,-143.92"/>
<polygon fill="#63b8ff" stroke="#63b8ff" points="1930.76,-140.43 1920.25,-141.74 1929.29,-147.27 1930.76,-140.43"/>
</g>
<!-- Node28&#45;&gt;Node12 -->
<g id="edge36" class="edge">
<title>Node28&#45;&gt;Node12</title>
<path fill="none" stroke="#63b8ff" d="M2393.02,-192.37C2405.58,-182.06 2426.81,-164.65 2442.1,-152.09"/>
<polygon fill="#63b8ff" stroke="#63b8ff" points="2444.39,-154.75 2449.9,-145.7 2439.95,-149.34 2444.39,-154.75"/>
</g>
<!-- Node29&#45;&gt;Node3 -->
<g id="edge48" class="edge">
<title>Node29&#45;&gt;Node3</title>
<path fill="none" stroke="#63b8ff" d="M1442.17,-198.4C1338.41,-192.62 1111.58,-177.11 1088.5,-151 1079.67,-141.01 1079.5,-130.84 1088.5,-121 1131.25,-74.27 2074.92,-30.5 2343.67,-18.96"/>
<polygon fill="#63b8ff" stroke="#63b8ff" points="2343.85,-22.45 2353.69,-18.53 2343.55,-15.46 2343.85,-22.45"/>
</g>
<!-- Node29&#45;&gt;Node4 -->
<g id="edge42" class="edge">
<title>Node29&#45;&gt;Node4</title>
<path fill="none" stroke="#63b8ff" d="M1544.69,-199.11C1618,-195.31 1756.52,-184.03 1869.5,-151 1870.95,-150.58 1872.41,-150.09 1873.88,-149.57"/>
<polygon fill="#63b8ff" stroke="#63b8ff" points="1875.45,-152.7 1883.35,-145.63 1872.77,-146.24 1875.45,-152.7"/>
</g>
<!-- Node29&#45;&gt;Node12 -->
<g id="edge40" class="edge">
<title>Node29&#45;&gt;Node12</title>
<path fill="none" stroke="#63b8ff" d="M1544.65,-199.22C1710.01,-193.31 2229.09,-173.39 2395.5,-151 2407.94,-149.33 2421.53,-146.55 2433.06,-143.91"/>
<polygon fill="#63b8ff" stroke="#63b8ff" points="2434.05,-147.27 2442.98,-141.56 2432.44,-140.46 2434.05,-147.27"/>
</g>
<!-- Node29&#45;&gt;Node13 -->
<g id="edge41" class="edge">
<title>Node29&#45;&gt;Node13</title>
<path fill="none" stroke="#63b8ff" d="M1442.23,-198.36C1322.43,-191.89 1027.01,-174.06 930.5,-151 928.19,-150.45 925.83,-149.77 923.49,-149.02"/>
<polygon fill="#63b8ff" stroke="#63b8ff" points="924.66,-145.72 914.06,-145.59 922.27,-152.3 924.66,-145.72"/>
</g>
<!-- Node29&#45;&gt;Node18 -->
<g id="edge50" class="edge">
<title>Node29&#45;&gt;Node18</title>
<path fill="none" stroke="#63b8ff" d="M1502.68,-186.78C1515.15,-168.67 1539.14,-137.72 1567.5,-121 1609.8,-96.06 1665.54,-85.05 1703.93,-80.22"/>
<polygon fill="#63b8ff" stroke="#63b8ff" points="1704.75,-83.65 1714.27,-79.02 1703.94,-76.7 1704.75,-83.65"/>
</g>
<!-- Node30 -->
<g id="node30" class="node">
<title>Node30</title>
<g id="a_node30"><a xlink:title=" ">
<polygon fill="#e0e0e0" stroke="#999999" points="1339,-151 1226,-151 1226,-121 1339,-121 1339,-151"/>
<text text-anchor="start" x="1234" y="-139" font-family="Helvetica,sans-Serif" font-size="10.00">flutter/basic_message</text>
<text text-anchor="middle" x="1282.5" y="-128" font-family="Helvetica,sans-Serif" font-size="10.00">_channel.h</text>
</a>
</g>
</g>
<!-- Node29&#45;&gt;Node30 -->
<g id="edge43" class="edge">
<title>Node29&#45;&gt;Node30</title>
<path fill="none" stroke="#63b8ff" d="M1447.2,-186.95C1415.18,-177.24 1372.4,-164.27 1338.47,-153.98"/>
<polygon fill="#63b8ff" stroke="#63b8ff" points="1339.28,-150.57 1328.7,-151.01 1337.25,-157.26 1339.28,-150.57"/>
</g>
<!-- Node31 -->
<g id="node31" class="node">
<title>Node31</title>
<g id="a_node31"><a xlink:title=" ">
<polygon fill="#e0e0e0" stroke="#999999" points="1860.5,-145.5 1728.5,-145.5 1728.5,-126.5 1860.5,-126.5 1860.5,-145.5"/>
<text text-anchor="middle" x="1794.5" y="-133.5" font-family="Helvetica,sans-Serif" font-size="10.00">flutter/binary_messenger.h</text>
</a>
</g>
</g>
<!-- Node29&#45;&gt;Node31 -->
<g id="edge44" class="edge">
<title>Node29&#45;&gt;Node31</title>
<path fill="none" stroke="#63b8ff" d="M1544.56,-190.14C1600.3,-178.29 1688.98,-159.44 1744.35,-147.66"/>
<polygon fill="#63b8ff" stroke="#63b8ff" points="1745.24,-151.05 1754.29,-145.55 1743.78,-144.21 1745.24,-151.05"/>
</g>
<!-- Node32 -->
<g id="node32" class="node">
<title>Node32</title>
<g id="a_node32"><a xlink:title=" ">
<polygon fill="#e0e0e0" stroke="#999999" points="1520,-151 1357,-151 1357,-121 1520,-121 1520,-151"/>
<text text-anchor="start" x="1365" y="-139" font-family="Helvetica,sans-Serif" font-size="10.00">flutter/shell/platform</text>
<text text-anchor="middle" x="1438.5" y="-128" font-family="Helvetica,sans-Serif" font-size="10.00">/common/json_message_codec.h</text>
</a>
</g>
</g>
<!-- Node29&#45;&gt;Node32 -->
<g id="edge45" class="edge">
<title>Node29&#45;&gt;Node32</title>
<path fill="none" stroke="#63b8ff" d="M1481.29,-186.8C1474.24,-178.59 1465.23,-168.1 1457.29,-158.87"/>
<polygon fill="#63b8ff" stroke="#63b8ff" points="1459.84,-156.47 1450.67,-151.16 1454.54,-161.03 1459.84,-156.47"/>
</g>
<!-- Node33 -->
<g id="node33" class="node">
<title>Node33</title>
<g id="a_node33"><a xlink:title=" ">
<polygon fill="#e0e0e0" stroke="#999999" points="1041,-145.5 940,-145.5 940,-126.5 1041,-126.5 1041,-145.5"/>
<text text-anchor="middle" x="990.5" y="-133.5" font-family="Helvetica,sans-Serif" font-size="10.00">flutter/fml/macros.h</text>
</a>
</g>
</g>
<!-- Node29&#45;&gt;Node33 -->
<g id="edge46" class="edge">
<title>Node29&#45;&gt;Node33</title>
<path fill="none" stroke="#63b8ff" d="M1442.36,-196.81C1360.39,-189.72 1194.65,-173.87 1055.5,-151 1049.59,-150.03 1043.4,-148.88 1037.3,-147.65"/>
<polygon fill="#63b8ff" stroke="#63b8ff" points="1037.66,-144.16 1027.16,-145.56 1036.24,-151.01 1037.66,-144.16"/>
</g>
<!-- Node34 -->
<g id="node34" class="node">
<title>Node34</title>
<g id="a_node34"><a xlink:title=" ">
<polygon fill="#e0e0e0" stroke="#999999" points="1207.5,-145.5 1097.5,-145.5 1097.5,-126.5 1207.5,-126.5 1207.5,-145.5"/>
<text text-anchor="middle" x="1152.5" y="-133.5" font-family="Helvetica,sans-Serif" font-size="10.00">rapidjson/document.h</text>
</a>
</g>
</g>
<!-- Node29&#45;&gt;Node34 -->
<g id="edge47" class="edge">
<title>Node29&#45;&gt;Node34</title>
<path fill="none" stroke="#63b8ff" d="M1442.34,-192.35C1386.67,-182.79 1295.09,-166.68 1216.5,-151 1211.2,-149.94 1205.67,-148.8 1200.16,-147.63"/>
<polygon fill="#63b8ff" stroke="#63b8ff" points="1200.87,-144.2 1190.35,-145.52 1199.4,-151.04 1200.87,-144.2"/>
</g>
<!-- Node35 -->
<g id="node35" class="node">
<title>Node35</title>
<g id="a_node35"><a xlink:title=" ">
<polygon fill="#e0e0e0" stroke="#999999" points="1710.5,-145.5 1576.5,-145.5 1576.5,-126.5 1710.5,-126.5 1710.5,-145.5"/>
<text text-anchor="middle" x="1643.5" y="-133.5" font-family="Helvetica,sans-Serif" font-size="10.00">xkbcommon/xkbcommon.h</text>
</a>
</g>
</g>
<!-- Node29&#45;&gt;Node35 -->
<g id="edge49" class="edge">
<title>Node29&#45;&gt;Node35</title>
<path fill="none" stroke="#63b8ff" d="M1526.42,-186.95C1552.61,-175.78 1588.92,-160.29 1614.13,-149.53"/>
<polygon fill="#63b8ff" stroke="#63b8ff" points="1615.71,-152.66 1623.54,-145.52 1612.97,-146.22 1615.71,-152.66"/>
</g>
<!-- Node36&#45;&gt;Node3 -->
<g id="edge62" class="edge">
<title>Node36&#45;&gt;Node3</title>
<path fill="none" stroke="#63b8ff" d="M1972.28,-187.96C1974.04,-187.62 1975.78,-187.29 1977.5,-187 2023.45,-179.12 2361.66,-183.06 2395.5,-151 2425.19,-122.87 2423.46,-71.22 2419.19,-40.61"/>
<polygon fill="#63b8ff" stroke="#63b8ff" points="2422.59,-39.69 2417.56,-30.36 2415.68,-40.79 2422.59,-39.69"/>
</g>
<!-- Node36&#45;&gt;Node4 -->
<g id="edge54" class="edge">
<title>Node36&#45;&gt;Node4</title>
<path fill="none" stroke="#63b8ff" d="M1918.17,-186.8C1914.69,-177.5 1910.1,-165.27 1906.35,-155.26"/>
<polygon fill="#63b8ff" stroke="#63b8ff" points="1909.61,-153.98 1902.82,-145.84 1903.05,-156.44 1909.61,-153.98"/>
</g>
<!-- Node36&#45;&gt;Node5 -->
<g id="edge59" class="edge">
<title>Node36&#45;&gt;Node5</title>
<path fill="none" stroke="#63b8ff" d="M1972.2,-197.06C2069.95,-189.08 2297.02,-170.11 2487.5,-151 2499.59,-149.79 2512.32,-148.44 2524.86,-147.08"/>
<polygon fill="#63b8ff" stroke="#63b8ff" points="2525.29,-150.55 2534.85,-145.98 2524.53,-143.59 2525.29,-150.55"/>
</g>
<!-- Node36&#45;&gt;Node12 -->
<g id="edge52" class="edge">
<title>Node36&#45;&gt;Node12</title>
<path fill="none" stroke="#63b8ff" d="M1972.37,-198.12C2081.68,-191.35 2343.05,-173.33 2428.5,-151 2430.39,-150.51 2432.32,-149.91 2434.23,-149.26"/>
<polygon fill="#63b8ff" stroke="#63b8ff" points="2435.56,-152.5 2443.58,-145.58 2433,-145.98 2435.56,-152.5"/>
</g>
<!-- Node36&#45;&gt;Node13 -->
<g id="edge53" class="edge">
<title>Node36&#45;&gt;Node13</title>
<path fill="none" stroke="#63b8ff" d="M1874.85,-199C1681.68,-190.98 977.03,-161.18 930.5,-151 928.13,-150.48 925.71,-149.82 923.3,-149.06"/>
<polygon fill="#63b8ff" stroke="#63b8ff" points="924.26,-145.69 913.67,-145.58 921.88,-152.27 924.26,-145.69"/>
</g>
<!-- Node36&#45;&gt;Node18 -->
<g id="edge64" class="edge">
<title>Node36&#45;&gt;Node18</title>
<path fill="none" stroke="#63b8ff" d="M1929.79,-186.9C1936.49,-169.49 1944.28,-139.85 1929.5,-121 1912.81,-99.71 1840.69,-87.24 1792.68,-81.16"/>
<polygon fill="#63b8ff" stroke="#63b8ff" points="1792.88,-77.66 1782.53,-79.92 1792.03,-84.61 1792.88,-77.66"/>
</g>
<!-- Node36&#45;&gt;Node31 -->
<g id="edge55" class="edge">
<title>Node36&#45;&gt;Node31</title>
<path fill="none" stroke="#63b8ff" d="M1895.19,-186.95C1873.07,-175.98 1842.54,-160.83 1820.92,-150.11"/>
<polygon fill="#63b8ff" stroke="#63b8ff" points="1822.18,-146.83 1811.67,-145.52 1819.07,-153.1 1822.18,-146.83"/>
</g>
<!-- Node36&#45;&gt;Node33 -->
<g id="edge58" class="edge">
<title>Node36&#45;&gt;Node33</title>
<path fill="none" stroke="#63b8ff" d="M1874.92,-199.49C1746.32,-195.18 1386.5,-181.16 1088.5,-151 1076.41,-149.78 1063.52,-148.16 1051.2,-146.46"/>
<polygon fill="#63b8ff" stroke="#63b8ff" points="1051.41,-142.96 1041.01,-145.02 1050.43,-149.89 1051.41,-142.96"/>
</g>
<!-- Node36&#45;&gt;Node34 -->
<g id="edge61" class="edge">
<title>Node36&#45;&gt;Node34</title>
<path fill="none" stroke="#63b8ff" d="M1874.81,-199.98C1759.75,-197.05 1462.22,-186.37 1216.5,-151 1210.22,-150.1 1203.64,-148.92 1197.18,-147.64"/>
<polygon fill="#63b8ff" stroke="#63b8ff" points="1197.71,-144.17 1187.21,-145.55 1196.28,-151.02 1197.71,-144.17"/>
</g>
<!-- Node36&#45;&gt;Node35 -->
<g id="edge63" class="edge">
<title>Node36&#45;&gt;Node35</title>
<path fill="none" stroke="#63b8ff" d="M1874.73,-189.85C1823.02,-178.03 1741.91,-159.49 1690.78,-147.81"/>
<polygon fill="#63b8ff" stroke="#63b8ff" points="1691.5,-144.38 1680.97,-145.56 1689.94,-151.21 1691.5,-144.38"/>
</g>
<!-- Node37 -->
<g id="node37" class="node">
<title>Node37</title>
<g id="a_node37"><a xlink:title=" ">
<polygon fill="#e0e0e0" stroke="#999999" points="2100.5,-145.5 1976.5,-145.5 1976.5,-126.5 2100.5,-126.5 2100.5,-145.5"/>
<text text-anchor="middle" x="2038.5" y="-133.5" font-family="Helvetica,sans-Serif" font-size="10.00">flutter/method_channel.h</text>
</a>
</g>
</g>
<!-- Node36&#45;&gt;Node37 -->
<g id="edge56" class="edge">
<title>Node36&#45;&gt;Node37</title>
<path fill="none" stroke="#63b8ff" d="M1948.74,-186.95C1968.28,-176.08 1995.18,-161.11 2014.43,-150.4"/>
<polygon fill="#63b8ff" stroke="#63b8ff" points="2016.16,-153.44 2023.2,-145.52 2012.76,-147.32 2016.16,-153.44"/>
</g>
<!-- Node38 -->
<g id="node38" class="node">
<title>Node38</title>
<g id="a_node38"><a xlink:title=" ">
<polygon fill="#e0e0e0" stroke="#999999" points="2224.5,-151 2118.5,-151 2118.5,-121 2224.5,-121 2224.5,-151"/>
<text text-anchor="start" x="2126.5" y="-139" font-family="Helvetica,sans-Serif" font-size="10.00">flutter/method_result</text>
<text text-anchor="middle" x="2171.5" y="-128" font-family="Helvetica,sans-Serif" font-size="10.00">_functions.h</text>
</a>
</g>
</g>
<!-- Node36&#45;&gt;Node38 -->
<g id="edge57" class="edge">
<title>Node36&#45;&gt;Node38</title>
<path fill="none" stroke="#63b8ff" d="M1972.2,-188.43C2011.12,-178.39 2065.96,-164.24 2108.27,-153.32"/>
<polygon fill="#63b8ff" stroke="#63b8ff" points="2109.38,-156.65 2118.18,-150.76 2107.63,-149.87 2109.38,-156.65"/>
</g>
<!-- Node39 -->
<g id="node39" class="node">
<title>Node39</title>
<g id="a_node39"><a xlink:title=" ">
<polygon fill="#e0e0e0" stroke="#999999" points="2386,-151 2243,-151 2243,-121 2386,-121 2386,-151"/>
<text text-anchor="start" x="2251" y="-139" font-family="Helvetica,sans-Serif" font-size="10.00">flutter/shell/platform</text>
<text text-anchor="middle" x="2314.5" y="-128" font-family="Helvetica,sans-Serif" font-size="10.00">/common/text_input_model.h</text>
</a>
</g>
</g>
<!-- Node36&#45;&gt;Node39 -->
<g id="edge60" class="edge">
<title>Node36&#45;&gt;Node39</title>
<path fill="none" stroke="#63b8ff" d="M1972.12,-193.33C2031.16,-183.98 2134.03,-167.56 2232.79,-151.11"/>
<polygon fill="#63b8ff" stroke="#63b8ff" points="2233.67,-154.51 2242.95,-149.41 2232.51,-147.6 2233.67,-154.51"/>
</g>
<!-- Node40&#45;&gt;Node12 -->
<g id="edge66" class="edge">
<title>Node40&#45;&gt;Node12</title>
<path fill="none" stroke="#63b8ff" d="M1088.66,-260.9C1228.58,-258.82 1640.92,-250.11 1981.5,-217 2181.38,-197.57 2235.47,-206.4 2428.5,-151 2430.18,-150.52 2431.89,-149.96 2433.6,-149.37"/>
<polygon fill="#63b8ff" stroke="#63b8ff" points="2435.2,-152.5 2443.21,-145.56 2432.62,-145.99 2435.2,-152.5"/>
</g>
<!-- Node40&#45;&gt;Node13 -->
<g id="edge67" class="edge">
<title>Node40&#45;&gt;Node13</title>
<path fill="none" stroke="#63b8ff" d="M1029.6,-252.94C1005.56,-232.15 943.8,-178.76 913.21,-152.31"/>
<polygon fill="#63b8ff" stroke="#63b8ff" points="915.32,-149.51 905.47,-145.62 910.74,-154.81 915.32,-149.51"/>
</g>
<!-- Node40&#45;&gt;Node33 -->
<g id="edge73" class="edge">
<title>Node40&#45;&gt;Node33</title>
<path fill="none" stroke="#63b8ff" d="M1032.28,-252.86C1025.45,-244.27 1015.41,-230.48 1009.5,-217 1000.74,-197.03 995.67,-172.41 993.01,-155.8"/>
<polygon fill="#63b8ff" stroke="#63b8ff" points="996.44,-155.12 991.53,-145.73 989.52,-156.13 996.44,-155.12"/>
</g>
<!-- Node41 -->
<g id="node41" class="node">
<title>Node41</title>
<g id="a_node41"><a xlink:href="configuration_8h.html" target="_top" xlink:title=" ">
<polygon fill="white" stroke="#666666" points="1158,-211.5 1019,-211.5 1019,-192.5 1158,-192.5 1158,-211.5"/>
<text text-anchor="middle" x="1088.5" y="-199.5" font-family="Helvetica,sans-Serif" font-size="10.00">configuration/configuration.h</text>
</a>
</g>
</g>
<!-- Node40&#45;&gt;Node41 -->
<g id="edge68" class="edge">
<title>Node40&#45;&gt;Node41</title>
<path fill="none" stroke="#63b8ff" d="M1046.73,-252.87C1054.04,-244.14 1065.52,-230.43 1074.6,-219.59"/>
<polygon fill="#63b8ff" stroke="#63b8ff" points="1077.5,-221.58 1081.24,-211.67 1072.14,-217.09 1077.5,-221.58"/>
</g>
<!-- Node42 -->
<g id="node42" class="node">
<title>Node42</title>
<g id="a_node42"><a xlink:href="window_8h.html" target="_top" xlink:title=" ">
<polygon fill="white" stroke="#666666" points="627.5,-211.5 531.5,-211.5 531.5,-192.5 627.5,-192.5 627.5,-211.5"/>
<text text-anchor="middle" x="579.5" y="-199.5" font-family="Helvetica,sans-Serif" font-size="10.00">wayland/window.h</text>
</a>
</g>
</g>
<!-- Node40&#45;&gt;Node42 -->
<g id="edge74" class="edge">
<title>Node40&#45;&gt;Node42</title>
<path fill="none" stroke="#63b8ff" d="M990.27,-255.24C904.8,-244.37 729.34,-222.06 637.87,-210.42"/>
<polygon fill="#63b8ff" stroke="#63b8ff" points="638.04,-206.92 627.68,-209.13 637.16,-213.86 638.04,-206.92"/>
</g>
<!-- Node41&#45;&gt;Node4 -->
<g id="edge69" class="edge">
<title>Node41&#45;&gt;Node4</title>
<path fill="none" stroke="#63b8ff" d="M1158.16,-198.02C1336.74,-190.17 1801.67,-168.34 1869.5,-151 1871.18,-150.57 1872.89,-150.05 1874.59,-149.46"/>
<polygon fill="#63b8ff" stroke="#63b8ff" points="1876.12,-152.61 1884.03,-145.56 1873.45,-146.14 1876.12,-152.61"/>
</g>
<!-- Node41&#45;&gt;Node16 -->
<g id="edge70" class="edge">
<title>Node41&#45;&gt;Node16</title>
<path fill="none" stroke="#63b8ff" d="M1034.67,-192.46C987.93,-184.28 918.78,-170.31 860.5,-151 859.1,-150.54 857.68,-150.03 856.25,-149.49"/>
<polygon fill="#63b8ff" stroke="#63b8ff" points="857.53,-146.23 846.95,-145.65 854.85,-152.7 857.53,-146.23"/>
</g>
<!-- Node41&#45;&gt;Node33 -->
<g id="edge71" class="edge">
<title>Node41&#45;&gt;Node33</title>
<path fill="none" stroke="#63b8ff" d="M1075.28,-192.37C1059.14,-181.82 1031.59,-163.84 1012.29,-151.23"/>
<polygon fill="#63b8ff" stroke="#63b8ff" points="1014.11,-148.24 1003.82,-145.7 1010.28,-154.1 1014.11,-148.24"/>
</g>
<!-- Node41&#45;&gt;Node34 -->
<g id="edge72" class="edge">
<title>Node41&#45;&gt;Node34</title>
<path fill="none" stroke="#63b8ff" d="M1097.13,-192.37C1107.19,-182.31 1124.02,-165.48 1136.49,-153.01"/>
<polygon fill="#63b8ff" stroke="#63b8ff" points="1139,-155.45 1143.59,-145.91 1134.05,-150.5 1139,-155.45"/>
</g>
<!-- Node42&#45;&gt;Node4 -->
<g id="edge76" class="edge">
<title>Node42&#45;&gt;Node4</title>
<path fill="none" stroke="#63b8ff" d="M627.61,-199.4C858,-191.68 1838.75,-158.45 1869.5,-151 1871.19,-150.59 1872.9,-150.08 1874.6,-149.5"/>
<polygon fill="#63b8ff" stroke="#63b8ff" points="1876.12,-152.66 1884.05,-145.64 1873.47,-146.19 1876.12,-152.66"/>
</g>
<!-- Node42&#45;&gt;Node13 -->
<g id="edge75" class="edge">
<title>Node42&#45;&gt;Node13</title>
<path fill="none" stroke="#63b8ff" d="M627.66,-195.48C684.17,-188.3 780.34,-173.9 860.5,-151 862.43,-150.45 864.41,-149.83 866.39,-149.16"/>
<polygon fill="#63b8ff" stroke="#63b8ff" points="867.95,-152.31 876.12,-145.57 865.53,-145.74 867.95,-152.31"/>
</g>
<!-- Node42&#45;&gt;Node17 -->
<g id="edge80" class="edge">
<title>Node42&#45;&gt;Node17</title>
<path fill="none" stroke="#63b8ff" d="M531.18,-197.89C445.69,-191.95 262.37,-177.16 109.5,-151 104.12,-150.08 98.49,-148.96 92.95,-147.75"/>
<polygon fill="#63b8ff" stroke="#63b8ff" points="93.64,-144.32 83.12,-145.52 92.09,-151.15 93.64,-144.32"/>
</g>
<!-- Node42&#45;&gt;Node18 -->
<g id="edge79" class="edge">
<title>Node42&#45;&gt;Node18</title>
<path fill="none" stroke="#63b8ff" d="M611.76,-192.46C641.44,-183.98 686.21,-169.56 722.5,-151 743.25,-140.39 743.43,-128.49 765.5,-121 855.02,-90.62 1524.59,-79.51 1704.25,-77.06"/>
<polygon fill="#63b8ff" stroke="#63b8ff" points="1704.44,-80.55 1714.39,-76.92 1704.35,-73.55 1704.44,-80.55"/>
</g>
<!-- Node43 -->
<g id="node43" class="node">
<title>Node43</title>
<g id="a_node43"><a xlink:title=" ">
<polygon fill="#e0e0e0" stroke="#999999" points="168,-145.5 119,-145.5 119,-126.5 168,-126.5 168,-145.5"/>
<text text-anchor="middle" x="143.5" y="-133.5" font-family="Helvetica,sans-Serif" font-size="10.00">cassert</text>
</a>
</g>
</g>
<!-- Node42&#45;&gt;Node43 -->
<g id="edge77" class="edge">
<title>Node42&#45;&gt;Node43</title>
<path fill="none" stroke="#63b8ff" d="M531.22,-199.33C454.75,-195.72 301.61,-184.6 176.5,-151 174.61,-150.49 172.68,-149.9 170.76,-149.24"/>
<polygon fill="#63b8ff" stroke="#63b8ff" points="171.93,-145.94 161.34,-145.63 169.42,-152.48 171.93,-145.94"/>
</g>
<!-- Node44 -->
<g id="node44" class="node">
<title>Node44</title>
<g id="a_node44"><a xlink:title=" ">
<polygon fill="#e0e0e0" stroke="#999999" points="311,-145.5 186,-145.5 186,-126.5 311,-126.5 311,-145.5"/>
<text text-anchor="middle" x="248.5" y="-133.5" font-family="Helvetica,sans-Serif" font-size="10.00">agl&#45;shell&#45;client&#45;protocol.h</text>
</a>
</g>
</g>
<!-- Node42&#45;&gt;Node44 -->
<g id="edge78" class="edge">
<title>Node42&#45;&gt;Node44</title>
<path fill="none" stroke="#63b8ff" d="M535.04,-192.44C483.45,-182.49 395.81,-165.59 320.5,-151 314.65,-149.87 308.54,-148.68 302.45,-147.5"/>
<polygon fill="#63b8ff" stroke="#63b8ff" points="302.77,-143.99 292.28,-145.52 301.43,-150.87 302.77,-143.99"/>
</g>
<!-- Node45 -->
<g id="node45" class="node">
<title>Node45</title>
<g id="a_node45"><a xlink:title=" ">
<polygon fill="#e0e0e0" stroke="#999999" points="431.5,-151 329.5,-151 329.5,-121 431.5,-121 431.5,-151"/>
<text text-anchor="start" x="337.5" y="-139" font-family="Helvetica,sans-Serif" font-size="10.00">ivi&#45;application&#45;client</text>
<text text-anchor="middle" x="380.5" y="-128" font-family="Helvetica,sans-Serif" font-size="10.00">&#45;protocol.h</text>
</a>
</g>
</g>
<!-- Node42&#45;&gt;Node45 -->
<g id="edge81" class="edge">
<title>Node42&#45;&gt;Node45</title>
<path fill="none" stroke="#63b8ff" d="M552.66,-192.37C522.47,-182.66 472.66,-166.64 434.36,-154.32"/>
<polygon fill="#63b8ff" stroke="#63b8ff" points="434.98,-150.85 424.39,-151.12 432.84,-157.51 434.98,-150.85"/>
</g>
<!-- Node46 -->
<g id="node46" class="node">
<title>Node46</title>
<g id="a_node46"><a xlink:title=" ">
<polygon fill="#e0e0e0" stroke="#999999" points="567,-145.5 450,-145.5 450,-126.5 567,-126.5 567,-145.5"/>
<text text-anchor="middle" x="508.5" y="-133.5" font-family="Helvetica,sans-Serif" font-size="10.00">ivi&#45;wm&#45;client&#45;protocol.h</text>
</a>
</g>
</g>
<!-- Node42&#45;&gt;Node46 -->
<g id="edge82" class="edge">
<title>Node42&#45;&gt;Node46</title>
<path fill="none" stroke="#63b8ff" d="M569.92,-192.37C558.66,-182.21 539.74,-165.16 525.87,-152.65"/>
<polygon fill="#63b8ff" stroke="#63b8ff" points="528.15,-150 518.38,-145.91 523.46,-155.2 528.15,-150"/>
</g>
<!-- Node47 -->
<g id="node47" class="node">
<title>Node47</title>
<g id="a_node47"><a xlink:title=" ">
<polygon fill="#e0e0e0" stroke="#999999" points="713.5,-145.5 585.5,-145.5 585.5,-126.5 713.5,-126.5 713.5,-145.5"/>
<text text-anchor="middle" x="649.5" y="-133.5" font-family="Helvetica,sans-Serif" font-size="10.00">xdg&#45;shell&#45;client&#45;protocol.h</text>
</a>
</g>
</g>
<!-- Node42&#45;&gt;Node47 -->
<g id="edge83" class="edge">
<title>Node42&#45;&gt;Node47</title>
<path fill="none" stroke="#63b8ff" d="M588.94,-192.37C600.05,-182.21 618.7,-165.16 632.38,-152.65"/>
<polygon fill="#63b8ff" stroke="#63b8ff" points="634.74,-155.24 639.76,-145.91 630.02,-150.07 634.74,-155.24"/>
</g>
</g>
</svg>
