<?xml version="1.0" encoding="UTF-8" standalone="no"?>
<!DOCTYPE svg PUBLIC "-//W3C//DTD SVG 1.1//EN"
 "http://www.w3.org/Graphics/SVG/1.1/DTD/svg11.dtd">
<!-- Generated by graphviz version 5.0.0 (0)
 -->
<!-- Title: /mnt/raid10/stargate/ivi&#45;homescreen/shell/platform_channel.cc Pages: 1 -->
<svg width="241pt" height="170pt"
 viewBox="0.00 0.00 241.00 170.00" xmlns="http://www.w3.org/2000/svg" xmlns:xlink="http://www.w3.org/1999/xlink">
<g id="graph0" class="graph" transform="scale(1 1) rotate(0) translate(4 166)">
<title>/mnt/raid10/stargate/ivi&#45;homescreen/shell/platform_channel.cc</title>
<!-- Node1 -->
<g id="node1" class="node">
<title>Node1</title>
<g id="a_node1"><a xlink:title=" ">
<polygon fill="#999999" stroke="#666666" points="128,-162 19,-162 19,-121 128,-121 128,-162"/>
<text text-anchor="start" x="27" y="-150" font-family="Helvetica,sans-Serif" font-size="10.00">/mnt/raid10/stargate</text>
<text text-anchor="start" x="27" y="-139" font-family="Helvetica,sans-Serif" font-size="10.00">/ivi&#45;homescreen/shell</text>
<text text-anchor="middle" x="73.5" y="-128" font-family="Helvetica,sans-Serif" font-size="10.00">/platform_channel.cc</text>
</a>
</g>
</g>
<!-- Node2 -->
<g id="node2" class="node">
<title>Node2</title>
<g id="a_node2"><a xlink:href="platform__channel_8h.html" target="_top" xlink:title=" ">
<polygon fill="white" stroke="#666666" points="123,-85 24,-85 24,-66 123,-66 123,-85"/>
<text text-anchor="middle" x="73.5" y="-73" font-family="Helvetica,sans-Serif" font-size="10.00">platform_channel.h</text>
</a>
</g>
</g>
<!-- Node1&#45;&gt;Node2 -->
<g id="edge1" class="edge">
<title>Node1&#45;&gt;Node2</title>
<path fill="none" stroke="#63b8ff" d="M73.5,-120.95C73.5,-112.85 73.5,-103.5 73.5,-95.47"/>
<polygon fill="#63b8ff" stroke="#63b8ff" points="77,-95.26 73.5,-85.26 70,-95.26 77,-95.26"/>
</g>
<!-- Node3 -->
<g id="node3" class="node">
<title>Node3</title>
<g id="a_node3"><a xlink:title=" ">
<polygon fill="#e0e0e0" stroke="#999999" points="35,-24.5 0,-24.5 0,-5.5 35,-5.5 35,-24.5"/>
<text text-anchor="middle" x="17.5" y="-12.5" font-family="Helvetica,sans-Serif" font-size="10.00">map</text>
</a>
</g>
</g>
<!-- Node2&#45;&gt;Node3 -->
<g id="edge2" class="edge">
<title>Node2&#45;&gt;Node3</title>
<path fill="none" stroke="#63b8ff" d="M65.24,-65.87C56.72,-56.97 43.24,-42.89 32.77,-31.95"/>
<polygon fill="#63b8ff" stroke="#63b8ff" points="35.24,-29.47 25.8,-24.67 30.18,-34.31 35.24,-29.47"/>
</g>
<!-- Node4 -->
<g id="node4" class="node">
<title>Node4</title>
<g id="a_node4"><a xlink:title=" ">
<polygon fill="#e0e0e0" stroke="#999999" points="94,-24.5 53,-24.5 53,-5.5 94,-5.5 94,-24.5"/>
<text text-anchor="middle" x="73.5" y="-12.5" font-family="Helvetica,sans-Serif" font-size="10.00">string</text>
</a>
</g>
</g>
<!-- Node2&#45;&gt;Node4 -->
<g id="edge3" class="edge">
<title>Node2&#45;&gt;Node4</title>
<path fill="none" stroke="#63b8ff" d="M73.5,-65.87C73.5,-57.75 73.5,-45.31 73.5,-34.89"/>
<polygon fill="#63b8ff" stroke="#63b8ff" points="77,-34.67 73.5,-24.67 70,-34.67 77,-34.67"/>
</g>
<!-- Node5 -->
<g id="node5" class="node">
<title>Node5</title>
<g id="a_node5"><a xlink:title=" ">
<polygon fill="#e0e0e0" stroke="#999999" points="233,-30 112,-30 112,0 233,0 233,-30"/>
<text text-anchor="start" x="120" y="-18" font-family="Helvetica,sans-Serif" font-size="10.00">shell/platform/embedder</text>
<text text-anchor="middle" x="172.5" y="-7" font-family="Helvetica,sans-Serif" font-size="10.00">/embedder.h</text>
</a>
</g>
</g>
<!-- Node2&#45;&gt;Node5 -->
<g id="edge4" class="edge">
<title>Node2&#45;&gt;Node5</title>
<path fill="none" stroke="#63b8ff" d="M88.11,-65.87C101.67,-57.86 122.33,-45.65 139.81,-35.31"/>
<polygon fill="#63b8ff" stroke="#63b8ff" points="141.79,-38.22 148.61,-30.11 138.22,-32.19 141.79,-38.22"/>
</g>
</g>
</svg>
