<?xml version="1.0" encoding="UTF-8" standalone="no"?>
<!DOCTYPE svg PUBLIC "-//W3C//DTD SVG 1.1//EN"
 "http://www.w3.org/Graphics/SVG/1.1/DTD/svg11.dtd">
<!-- Generated by graphviz version 5.0.0 (0)
 -->
<!-- Title: /mnt/raid10/stargate/ivi&#45;homescreen/shell/static_plugins/platform/platform.cc Pages: 1 -->
<svg width="2998pt" height="423pt"
 viewBox="0.00 0.00 2997.84 423.00" xmlns="http://www.w3.org/2000/svg" xmlns:xlink="http://www.w3.org/1999/xlink">
<g id="graph0" class="graph" transform="scale(1 1) rotate(0) translate(4 419)">
<title>/mnt/raid10/stargate/ivi&#45;homescreen/shell/static_plugins/platform/platform.cc</title>
<!-- Node1 -->
<g id="node1" class="node">
<title>Node1</title>
<g id="a_node1"><a xlink:title=" ">
<polygon fill="#999999" stroke="#666666" points="2492,-415 2374,-415 2374,-363 2492,-363 2492,-415"/>
<text text-anchor="start" x="2382" y="-403" font-family="Helvetica,sans-Serif" font-size="10.00">/mnt/raid10/stargate</text>
<text text-anchor="start" x="2382" y="-392" font-family="Helvetica,sans-Serif" font-size="10.00">/ivi&#45;homescreen/shell</text>
<text text-anchor="start" x="2382" y="-381" font-family="Helvetica,sans-Serif" font-size="10.00">/static_plugins/platform</text>
<text text-anchor="middle" x="2433" y="-370" font-family="Helvetica,sans-Serif" font-size="10.00">/platform.cc</text>
</a>
</g>
</g>
<!-- Node2 -->
<g id="node2" class="node">
<title>Node2</title>
<g id="a_node2"><a xlink:href="platform_8h.html" target="_top" xlink:title=" ">
<polygon fill="white" stroke="#666666" points="60,-211.5 0,-211.5 0,-192.5 60,-192.5 60,-211.5"/>
<text text-anchor="middle" x="30" y="-199.5" font-family="Helvetica,sans-Serif" font-size="10.00">platform.h</text>
</a>
</g>
</g>
<!-- Node1&#45;&gt;Node2 -->
<g id="edge1" class="edge">
<title>Node1&#45;&gt;Node2</title>
<path fill="none" stroke="#63b8ff" d="M2373.81,-388.31C2028.1,-389.68 278.39,-390.69 74,-272 54.85,-260.88 42.71,-237.72 36.14,-221.31"/>
<polygon fill="#63b8ff" stroke="#63b8ff" points="39.34,-219.87 32.61,-211.69 32.77,-222.28 39.34,-219.87"/>
</g>
<!-- Node5 -->
<g id="node5" class="node">
<title>Node5</title>
<g id="a_node5"><a xlink:title=" ">
<polygon fill="#e0e0e0" stroke="#999999" points="2699.5,-151 2544.5,-151 2544.5,-121 2699.5,-121 2699.5,-151"/>
<text text-anchor="start" x="2552.5" y="-139" font-family="Helvetica,sans-Serif" font-size="10.00">flutter/shell/platform</text>
<text text-anchor="middle" x="2622" y="-128" font-family="Helvetica,sans-Serif" font-size="10.00">/common/json_method_codec.h</text>
</a>
</g>
</g>
<!-- Node1&#45;&gt;Node5 -->
<g id="edge4" class="edge">
<title>Node1&#45;&gt;Node5</title>
<path fill="none" stroke="#63b8ff" d="M2492.16,-380.47C2625.84,-361.92 2942.87,-308.74 2985,-217 3019.57,-141.71 2854.18,-169.68 2709.69,-151"/>
<polygon fill="#63b8ff" stroke="#63b8ff" points="2710.15,-147.53 2699.77,-149.63 2709.2,-154.46 2710.15,-147.53"/>
</g>
<!-- Node6 -->
<g id="node6" class="node">
<title>Node6</title>
<g id="a_node6"><a xlink:href="engine_8h.html" target="_top" xlink:title=" ">
<polygon fill="white" stroke="#666666" points="1744.5,-327 1691.5,-327 1691.5,-308 1744.5,-308 1744.5,-327"/>
<text text-anchor="middle" x="1718" y="-315" font-family="Helvetica,sans-Serif" font-size="10.00">engine.h</text>
</a>
</g>
</g>
<!-- Node1&#45;&gt;Node6 -->
<g id="edge5" class="edge">
<title>Node1&#45;&gt;Node6</title>
<path fill="none" stroke="#63b8ff" d="M2373.88,-382.25C2231.12,-368.38 1870.8,-333.35 1754.68,-322.07"/>
<polygon fill="#63b8ff" stroke="#63b8ff" points="1754.82,-318.56 1744.53,-321.08 1754.14,-325.53 1754.82,-318.56"/>
</g>
<!-- Node20 -->
<g id="node20" class="node">
<title>Node20</title>
<g id="a_node20"><a xlink:href="logging_8h.html" target="_top" xlink:title=" ">
<polygon fill="white" stroke="#666666" points="2912,-272 2856,-272 2856,-253 2912,-253 2912,-272"/>
<text text-anchor="middle" x="2884" y="-260" font-family="Helvetica,sans-Serif" font-size="10.00">logging.h</text>
</a>
</g>
</g>
<!-- Node1&#45;&gt;Node20 -->
<g id="edge82" class="edge">
<title>Node1&#45;&gt;Node20</title>
<path fill="none" stroke="#63b8ff" d="M2492.42,-371.6C2586.51,-345.62 2767.14,-295.76 2845.81,-274.04"/>
<polygon fill="#63b8ff" stroke="#63b8ff" points="2847.07,-277.33 2855.78,-271.29 2845.2,-270.58 2847.07,-277.33"/>
</g>
<!-- Node3 -->
<g id="node3" class="node">
<title>Node3</title>
<g id="a_node3"><a xlink:title=" ">
<polygon fill="#e0e0e0" stroke="#999999" points="970.5,-30 849.5,-30 849.5,0 970.5,0 970.5,-30"/>
<text text-anchor="start" x="857.5" y="-18" font-family="Helvetica,sans-Serif" font-size="10.00">shell/platform/embedder</text>
<text text-anchor="middle" x="910" y="-7" font-family="Helvetica,sans-Serif" font-size="10.00">/embedder.h</text>
</a>
</g>
</g>
<!-- Node2&#45;&gt;Node3 -->
<g id="edge2" class="edge">
<title>Node2&#45;&gt;Node3</title>
<path fill="none" stroke="#63b8ff" d="M29.43,-192.24C28.38,-167.67 29.18,-97.84 69,-66 128.45,-18.46 647.31,-15.18 839.12,-15.61"/>
<polygon fill="#63b8ff" stroke="#63b8ff" points="839.36,-19.11 849.37,-15.63 839.38,-12.11 839.36,-19.11"/>
</g>
<!-- Node4 -->
<g id="node4" class="node">
<title>Node4</title>
<g id="a_node4"><a xlink:title=" ">
<polygon fill="#e0e0e0" stroke="#999999" points="659.5,-145.5 618.5,-145.5 618.5,-126.5 659.5,-126.5 659.5,-145.5"/>
<text text-anchor="middle" x="639" y="-133.5" font-family="Helvetica,sans-Serif" font-size="10.00">string</text>
</a>
</g>
</g>
<!-- Node2&#45;&gt;Node4 -->
<g id="edge3" class="edge">
<title>Node2&#45;&gt;Node4</title>
<path fill="none" stroke="#63b8ff" d="M60.28,-199.78C163.91,-195.4 503.73,-179.16 609,-151 610.49,-150.6 612,-150.13 613.51,-149.61"/>
<polygon fill="#63b8ff" stroke="#63b8ff" points="615.28,-152.67 623.2,-145.63 612.62,-146.19 615.28,-152.67"/>
</g>
<!-- Node6&#45;&gt;Node3 -->
<g id="edge10" class="edge">
<title>Node6&#45;&gt;Node3</title>
<path fill="none" stroke="#63b8ff" d="M1691.05,-316.05C1546.66,-313.53 863.33,-300.3 654,-272 417.14,-239.98 278.79,-338.06 130,-151 39.56,-37.3 630.56,-19.32 839.08,-16.51"/>
<polygon fill="#63b8ff" stroke="#63b8ff" points="839.36,-20.01 849.31,-16.38 839.27,-13.01 839.36,-20.01"/>
</g>
<!-- Node6&#45;&gt;Node4 -->
<g id="edge16" class="edge">
<title>Node6&#45;&gt;Node4</title>
<path fill="none" stroke="#63b8ff" d="M1691.41,-316.69C1586.36,-317.12 1190.16,-315.57 868,-272 755.26,-256.75 689.28,-305.67 618,-217 603.5,-198.96 615.58,-171.93 626.52,-154.38"/>
<polygon fill="#63b8ff" stroke="#63b8ff" points="629.66,-155.98 632.3,-145.72 623.84,-152.09 629.66,-155.98"/>
</g>
<!-- Node7 -->
<g id="node7" class="node">
<title>Node7</title>
<g id="a_node7"><a xlink:title=" ">
<polygon fill="#e0e0e0" stroke="#999999" points="1805.5,-272 1746.5,-272 1746.5,-253 1805.5,-253 1805.5,-272"/>
<text text-anchor="middle" x="1776" y="-260" font-family="Helvetica,sans-Serif" font-size="10.00">functional</text>
</a>
</g>
</g>
<!-- Node6&#45;&gt;Node7 -->
<g id="edge6" class="edge">
<title>Node6&#45;&gt;Node7</title>
<path fill="none" stroke="#63b8ff" d="M1727.32,-307.98C1735.81,-300.23 1748.56,-288.58 1758.88,-279.14"/>
<polygon fill="#63b8ff" stroke="#63b8ff" points="1761.49,-281.5 1766.51,-272.17 1756.77,-276.33 1761.49,-281.5"/>
</g>
<!-- Node8 -->
<g id="node8" class="node">
<title>Node8</title>
<g id="a_node8"><a xlink:title=" ">
<polygon fill="#e0e0e0" stroke="#999999" points="2410,-24.5 2350,-24.5 2350,-5.5 2410,-5.5 2410,-24.5"/>
<text text-anchor="middle" x="2380" y="-12.5" font-family="Helvetica,sans-Serif" font-size="10.00">EGL/egl.h</text>
</a>
</g>
</g>
<!-- Node6&#45;&gt;Node8 -->
<g id="edge7" class="edge">
<title>Node6&#45;&gt;Node8</title>
<path fill="none" stroke="#63b8ff" d="M1744.62,-316.65C1913.42,-317.29 2828,-315.54 2828,-203 2828,-203 2828,-203 2828,-135 2828,-51 2530.07,-24.86 2420.13,-18.08"/>
<polygon fill="#63b8ff" stroke="#63b8ff" points="2420.28,-14.58 2410.09,-17.48 2419.86,-21.57 2420.28,-14.58"/>
</g>
<!-- Node9 -->
<g id="node9" class="node">
<title>Node9</title>
<g id="a_node9"><a xlink:title=" ">
<polygon fill="#e0e0e0" stroke="#999999" points="1896,-272 1824,-272 1824,-253 1896,-253 1896,-272"/>
<text text-anchor="middle" x="1860" y="-260" font-family="Helvetica,sans-Serif" font-size="10.00">GLES2/gl2.h</text>
</a>
</g>
</g>
<!-- Node6&#45;&gt;Node9 -->
<g id="edge8" class="edge">
<title>Node6&#45;&gt;Node9</title>
<path fill="none" stroke="#63b8ff" d="M1740.81,-307.98C1764.17,-299.27 1800.7,-285.63 1827.17,-275.75"/>
<polygon fill="#63b8ff" stroke="#63b8ff" points="1828.63,-278.95 1836.77,-272.17 1826.18,-272.39 1828.63,-278.95"/>
</g>
<!-- Node10 -->
<g id="node10" class="node">
<title>Node10</title>
<g id="a_node10"><a xlink:title=" ">
<polygon fill="#e0e0e0" stroke="#999999" points="2039.5,-272 1914.5,-272 1914.5,-253 2039.5,-253 2039.5,-272"/>
<text text-anchor="middle" x="1977" y="-260" font-family="Helvetica,sans-Serif" font-size="10.00">flutter/encodable_value.h</text>
</a>
</g>
</g>
<!-- Node6&#45;&gt;Node10 -->
<g id="edge9" class="edge">
<title>Node6&#45;&gt;Node10</title>
<path fill="none" stroke="#63b8ff" d="M1744.74,-311.03C1787.21,-302.34 1870.81,-285.23 1925.27,-274.09"/>
<polygon fill="#63b8ff" stroke="#63b8ff" points="1925.99,-277.51 1935.08,-272.08 1924.58,-270.65 1925.99,-277.51"/>
</g>
<!-- Node11 -->
<g id="node11" class="node">
<title>Node11</title>
<g id="a_node11"><a xlink:title=" ">
<polygon fill="#e0e0e0" stroke="#999999" points="2120,-272 2058,-272 2058,-253 2120,-253 2120,-272"/>
<text text-anchor="middle" x="2089" y="-260" font-family="Helvetica,sans-Serif" font-size="10.00">filesystem</text>
</a>
</g>
</g>
<!-- Node6&#45;&gt;Node11 -->
<g id="edge11" class="edge">
<title>Node6&#45;&gt;Node11</title>
<path fill="none" stroke="#63b8ff" d="M1744.71,-313.61C1799.57,-307.51 1929.11,-292.35 2047.63,-272.13"/>
<polygon fill="#63b8ff" stroke="#63b8ff" points="2048.34,-275.55 2057.6,-270.41 2047.15,-268.66 2048.34,-275.55"/>
</g>
<!-- Node12 -->
<g id="node12" class="node">
<title>Node12</title>
<g id="a_node12"><a xlink:title=" ">
<polygon fill="#e0e0e0" stroke="#999999" points="1013.5,-145.5 978.5,-145.5 978.5,-126.5 1013.5,-126.5 1013.5,-145.5"/>
<text text-anchor="middle" x="996" y="-133.5" font-family="Helvetica,sans-Serif" font-size="10.00">map</text>
</a>
</g>
</g>
<!-- Node6&#45;&gt;Node12 -->
<g id="edge12" class="edge">
<title>Node6&#45;&gt;Node12</title>
<path fill="none" stroke="#63b8ff" d="M1691.5,-316.42C1593.31,-315.83 1250.8,-310.94 1150,-272 1086.58,-247.5 1031.98,-184.28 1008.41,-153.85"/>
<polygon fill="#63b8ff" stroke="#63b8ff" points="1010.94,-151.4 1002.12,-145.54 1005.36,-155.63 1010.94,-151.4"/>
</g>
<!-- Node13 -->
<g id="node13" class="node">
<title>Node13</title>
<g id="a_node13"><a xlink:title=" ">
<polygon fill="#e0e0e0" stroke="#999999" points="1084,-145.5 1032,-145.5 1032,-126.5 1084,-126.5 1084,-145.5"/>
<text text-anchor="middle" x="1058" y="-133.5" font-family="Helvetica,sans-Serif" font-size="10.00">memory</text>
</a>
</g>
</g>
<!-- Node6&#45;&gt;Node13 -->
<g id="edge13" class="edge">
<title>Node6&#45;&gt;Node13</title>
<path fill="none" stroke="#63b8ff" d="M1691.46,-311.18C1603.94,-293.29 1317.02,-231.85 1089,-151 1087.61,-150.51 1086.19,-149.98 1084.77,-149.42"/>
<polygon fill="#63b8ff" stroke="#63b8ff" points="1086.07,-146.17 1075.5,-145.51 1083.35,-152.62 1086.07,-146.17"/>
</g>
<!-- Node14 -->
<g id="node14" class="node">
<title>Node14</title>
<g id="a_node14"><a xlink:title=" ">
<polygon fill="#e0e0e0" stroke="#999999" points="2182,-272 2138,-272 2138,-253 2182,-253 2182,-272"/>
<text text-anchor="middle" x="2160" y="-260" font-family="Helvetica,sans-Serif" font-size="10.00">mutex</text>
</a>
</g>
</g>
<!-- Node6&#45;&gt;Node14 -->
<g id="edge14" class="edge">
<title>Node6&#45;&gt;Node14</title>
<path fill="none" stroke="#63b8ff" d="M1744.66,-315.09C1809.02,-311.38 1978.04,-299.77 2127.91,-271.92"/>
<polygon fill="#63b8ff" stroke="#63b8ff" points="2128.57,-275.35 2137.75,-270.06 2127.27,-268.47 2128.57,-275.35"/>
</g>
<!-- Node15 -->
<g id="node15" class="node">
<title>Node15</title>
<g id="a_node15"><a xlink:title=" ">
<polygon fill="#e0e0e0" stroke="#999999" points="2243.5,-272 2200.5,-272 2200.5,-253 2243.5,-253 2243.5,-272"/>
<text text-anchor="middle" x="2222" y="-260" font-family="Helvetica,sans-Serif" font-size="10.00">queue</text>
</a>
</g>
</g>
<!-- Node6&#45;&gt;Node15 -->
<g id="edge15" class="edge">
<title>Node6&#45;&gt;Node15</title>
<path fill="none" stroke="#63b8ff" d="M1744.63,-315.62C1815.61,-312.92 2015.25,-303.1 2190.52,-271.73"/>
<polygon fill="#63b8ff" stroke="#63b8ff" points="2191.22,-275.16 2200.43,-269.93 2189.97,-268.27 2191.22,-275.16"/>
</g>
<!-- Node16 -->
<g id="node16" class="node">
<title>Node16</title>
<g id="a_node16"><a xlink:title=" ">
<polygon fill="#e0e0e0" stroke="#999999" points="2762,-145.5 2718,-145.5 2718,-126.5 2762,-126.5 2762,-145.5"/>
<text text-anchor="middle" x="2740" y="-133.5" font-family="Helvetica,sans-Serif" font-size="10.00">vector</text>
</a>
</g>
</g>
<!-- Node6&#45;&gt;Node16 -->
<g id="edge17" class="edge">
<title>Node6&#45;&gt;Node16</title>
<path fill="none" stroke="#63b8ff" d="M1717.93,-307.9C1718.34,-293.96 1721.35,-266.6 1738,-253 1759,-235.84 2682.82,-158.09 2709,-151 2710.69,-150.54 2712.39,-150.01 2714.1,-149.41"/>
<polygon fill="#63b8ff" stroke="#63b8ff" points="2715.67,-152.55 2723.63,-145.57 2713.05,-146.06 2715.67,-152.55"/>
</g>
<!-- Node17 -->
<g id="node17" class="node">
<title>Node17</title>
<g id="a_node17"><a xlink:href="backend_8h.html" target="_top" xlink:title=" ">
<polygon fill="white" stroke="#666666" points="960.5,-145.5 859.5,-145.5 859.5,-126.5 960.5,-126.5 960.5,-145.5"/>
<text text-anchor="middle" x="910" y="-133.5" font-family="Helvetica,sans-Serif" font-size="10.00">backend/backend.h</text>
</a>
</g>
</g>
<!-- Node6&#45;&gt;Node17 -->
<g id="edge18" class="edge">
<title>Node6&#45;&gt;Node17</title>
<path fill="none" stroke="#63b8ff" d="M1691.42,-316.39C1587.71,-315.68 1212.01,-310.45 1101,-272 1025.01,-245.68 950.53,-182.93 921.82,-153.18"/>
<polygon fill="#63b8ff" stroke="#63b8ff" points="924.31,-150.72 914.97,-145.72 919.15,-155.45 924.31,-150.72"/>
</g>
<!-- Node18 -->
<g id="node18" class="node">
<title>Node18</title>
<g id="a_node18"><a xlink:href="constants_8h.html" target="_top" xlink:title=" ">
<polygon fill="white" stroke="#666666" points="1899,-85 1831,-85 1831,-66 1899,-66 1899,-85"/>
<text text-anchor="middle" x="1865" y="-73" font-family="Helvetica,sans-Serif" font-size="10.00">constants.h</text>
</a>
</g>
</g>
<!-- Node6&#45;&gt;Node18 -->
<g id="edge25" class="edge">
<title>Node6&#45;&gt;Node18</title>
<path fill="none" stroke="#63b8ff" d="M1744.78,-316.89C1895.78,-318.45 2638.88,-317.54 2771,-151 2779.29,-140.55 2780.19,-130.66 2771,-121 2740.99,-89.48 2087.03,-79.21 1909.26,-77"/>
<polygon fill="#63b8ff" stroke="#63b8ff" points="1909.25,-73.5 1899.21,-76.88 1909.17,-80.5 1909.25,-73.5"/>
</g>
<!-- Node6&#45;&gt;Node20 -->
<g id="edge26" class="edge">
<title>Node6&#45;&gt;Node20</title>
<path fill="none" stroke="#63b8ff" d="M1744.97,-316.02C1894.18,-313.27 2619.75,-298.72 2842,-272 2843.11,-271.87 2844.23,-271.72 2845.36,-271.56"/>
<polygon fill="#63b8ff" stroke="#63b8ff" points="2846.33,-274.95 2855.63,-269.88 2845.2,-268.04 2846.33,-274.95"/>
</g>
<!-- Node26 -->
<g id="node26" class="node">
<title>Node26</title>
<g id="a_node26"><a xlink:href="platform__channel_8h.html" target="_top" xlink:title=" ">
<polygon fill="white" stroke="#666666" points="726.5,-211.5 627.5,-211.5 627.5,-192.5 726.5,-192.5 726.5,-211.5"/>
<text text-anchor="middle" x="677" y="-199.5" font-family="Helvetica,sans-Serif" font-size="10.00">platform_channel.h</text>
</a>
</g>
</g>
<!-- Node6&#45;&gt;Node26 -->
<g id="edge33" class="edge">
<title>Node6&#45;&gt;Node26</title>
<path fill="none" stroke="#63b8ff" d="M1691.26,-316.58C1593.8,-316.54 1248.68,-313.28 968,-272 876.12,-258.49 770.57,-230.17 715.31,-214.34"/>
<polygon fill="#63b8ff" stroke="#63b8ff" points="716.17,-210.94 705.59,-211.53 714.23,-217.67 716.17,-210.94"/>
</g>
<!-- Node27 -->
<g id="node27" class="node">
<title>Node27</title>
<g id="a_node27"><a xlink:href="key__event_8h.html" target="_top" xlink:title=" ">
<polygon fill="white" stroke="#666666" points="1471,-217 1369,-217 1369,-187 1471,-187 1471,-217"/>
<text text-anchor="start" x="1377" y="-205" font-family="Helvetica,sans-Serif" font-size="10.00">static_plugins/key</text>
<text text-anchor="middle" x="1420" y="-194" font-family="Helvetica,sans-Serif" font-size="10.00">_event/key_event.h</text>
</a>
</g>
</g>
<!-- Node6&#45;&gt;Node27 -->
<g id="edge37" class="edge">
<title>Node6&#45;&gt;Node27</title>
<path fill="none" stroke="#63b8ff" d="M1695.6,-307.97C1647.19,-289.53 1531.94,-245.63 1466.85,-220.84"/>
<polygon fill="#63b8ff" stroke="#63b8ff" points="1467.82,-217.47 1457.23,-217.18 1465.33,-224.01 1467.82,-217.47"/>
</g>
<!-- Node33 -->
<g id="node33" class="node">
<title>Node33</title>
<g id="a_node33"><a xlink:href="text__input_8h.html" target="_top" xlink:title=" ">
<polygon fill="white" stroke="#666666" points="1804.5,-217 1707.5,-217 1707.5,-187 1804.5,-187 1804.5,-217"/>
<text text-anchor="start" x="1715.5" y="-205" font-family="Helvetica,sans-Serif" font-size="10.00">static_plugins/text</text>
<text text-anchor="middle" x="1756" y="-194" font-family="Helvetica,sans-Serif" font-size="10.00">_input/text_input.h</text>
</a>
</g>
</g>
<!-- Node6&#45;&gt;Node33 -->
<g id="edge49" class="edge">
<title>Node6&#45;&gt;Node33</title>
<path fill="none" stroke="#63b8ff" d="M1712.93,-307.98C1706.2,-295.49 1696.04,-271.7 1704,-253 1708.82,-241.68 1717.6,-231.69 1726.58,-223.67"/>
<polygon fill="#63b8ff" stroke="#63b8ff" points="1728.98,-226.22 1734.44,-217.14 1724.51,-220.84 1728.98,-226.22"/>
</g>
<!-- Node37 -->
<g id="node37" class="node">
<title>Node37</title>
<g id="a_node37"><a xlink:href="flutter__view_8h.html" target="_top" xlink:title=" ">
<polygon fill="white" stroke="#666666" points="1257,-272 1159,-272 1159,-253 1257,-253 1257,-272"/>
<text text-anchor="middle" x="1208" y="-260" font-family="Helvetica,sans-Serif" font-size="10.00">view/flutter_view.h</text>
</a>
</g>
</g>
<!-- Node6&#45;&gt;Node37 -->
<g id="edge63" class="edge">
<title>Node6&#45;&gt;Node37</title>
<path fill="none" stroke="#63b8ff" d="M1691.3,-313.73C1612.2,-305.5 1377.73,-281.14 1267.07,-269.64"/>
<polygon fill="#63b8ff" stroke="#63b8ff" points="1267.39,-266.15 1257.08,-268.6 1266.66,-273.12 1267.39,-266.15"/>
</g>
<!-- Node17&#45;&gt;Node3 -->
<g id="edge19" class="edge">
<title>Node17&#45;&gt;Node3</title>
<path fill="none" stroke="#63b8ff" d="M910,-126.44C910,-108.64 910,-67.07 910,-40.31"/>
<polygon fill="#63b8ff" stroke="#63b8ff" points="913.5,-40.2 910,-30.2 906.5,-40.2 913.5,-40.2"/>
</g>
<!-- Node17&#45;&gt;Node6 -->
<g id="edge24" class="edge">
<title>Node17&#45;&gt;Node6</title>
<path fill="none" stroke="#63b8ff" d="M923.03,-145.72C954.54,-170.81 1035.87,-243.21 1119,-272 1224.24,-308.45 1567.37,-315.04 1681.12,-316.24"/>
<polygon fill="#63b8ff" stroke="#63b8ff" points="1681.36,-319.74 1691.39,-316.34 1681.43,-312.74 1681.36,-319.74"/>
</g>
<!-- Node17&#45;&gt;Node18 -->
<g id="edge20" class="edge">
<title>Node17&#45;&gt;Node18</title>
<path fill="none" stroke="#63b8ff" d="M941.87,-126.44C950.9,-124.32 960.78,-122.29 970,-121 1294,-75.52 1689.67,-74.73 1820.6,-75.9"/>
<polygon fill="#63b8ff" stroke="#63b8ff" points="1820.62,-79.4 1830.65,-76 1820.68,-72.4 1820.62,-79.4"/>
</g>
<!-- Node18&#45;&gt;Node3 -->
<g id="edge22" class="edge">
<title>Node18&#45;&gt;Node3</title>
<path fill="none" stroke="#63b8ff" d="M1830.99,-67.96C1826.3,-67.21 1821.54,-66.53 1817,-66 1506.89,-30.13 1134.06,-19.84 980.92,-17.01"/>
<polygon fill="#63b8ff" stroke="#63b8ff" points="980.78,-13.51 970.72,-16.83 980.65,-20.51 980.78,-13.51"/>
</g>
<!-- Node18&#45;&gt;Node8 -->
<g id="edge21" class="edge">
<title>Node18&#45;&gt;Node8</title>
<path fill="none" stroke="#63b8ff" d="M1899.19,-70.62C1990.77,-60.21 2241.31,-31.75 2339.63,-20.59"/>
<polygon fill="#63b8ff" stroke="#63b8ff" points="2340.22,-24.04 2349.76,-19.43 2339.43,-17.09 2340.22,-24.04"/>
</g>
<!-- Node19 -->
<g id="node19" class="node">
<title>Node19</title>
<g id="a_node19"><a xlink:title=" ">
<polygon fill="#e0e0e0" stroke="#999999" points="1884,-24.5 1846,-24.5 1846,-5.5 1884,-5.5 1884,-24.5"/>
<text text-anchor="middle" x="1865" y="-12.5" font-family="Helvetica,sans-Serif" font-size="10.00">array</text>
</a>
</g>
</g>
<!-- Node18&#45;&gt;Node19 -->
<g id="edge23" class="edge">
<title>Node18&#45;&gt;Node19</title>
<path fill="none" stroke="#63b8ff" d="M1865,-65.87C1865,-57.75 1865,-45.31 1865,-34.89"/>
<polygon fill="#63b8ff" stroke="#63b8ff" points="1868.5,-34.67 1865,-24.67 1861.5,-34.67 1868.5,-34.67"/>
</g>
<!-- Node21 -->
<g id="node21" class="node">
<title>Node21</title>
<g id="a_node21"><a xlink:title=" ">
<polygon fill="#e0e0e0" stroke="#999999" points="2976,-211.5 2924,-211.5 2924,-192.5 2976,-192.5 2976,-211.5"/>
<text text-anchor="middle" x="2950" y="-199.5" font-family="Helvetica,sans-Serif" font-size="10.00">sstream</text>
</a>
</g>
</g>
<!-- Node20&#45;&gt;Node21 -->
<g id="edge27" class="edge">
<title>Node20&#45;&gt;Node21</title>
<path fill="none" stroke="#63b8ff" d="M2893.74,-252.87C2903.97,-243.8 2920.29,-229.34 2932.72,-218.32"/>
<polygon fill="#63b8ff" stroke="#63b8ff" points="2935.06,-220.92 2940.22,-211.67 2930.42,-215.68 2935.06,-220.92"/>
</g>
<!-- Node22 -->
<g id="node22" class="node">
<title>Node22</title>
<g id="a_node22"><a xlink:href="dlt_8h.html" target="_top" xlink:title=" ">
<polygon fill="white" stroke="#666666" points="2905.5,-211.5 2856.5,-211.5 2856.5,-192.5 2905.5,-192.5 2905.5,-211.5"/>
<text text-anchor="middle" x="2881" y="-199.5" font-family="Helvetica,sans-Serif" font-size="10.00">dlt/dlt.h</text>
</a>
</g>
</g>
<!-- Node20&#45;&gt;Node22 -->
<g id="edge28" class="edge">
<title>Node20&#45;&gt;Node22</title>
<path fill="none" stroke="#63b8ff" d="M2883.56,-252.87C2883.14,-244.75 2882.5,-232.31 2881.97,-221.89"/>
<polygon fill="#63b8ff" stroke="#63b8ff" points="2885.45,-221.47 2881.44,-211.67 2878.46,-221.83 2885.45,-221.47"/>
</g>
<!-- Node25 -->
<g id="node25" class="node">
<title>Node25</title>
<g id="a_node25"><a xlink:title=" ">
<polygon fill="#e0e0e0" stroke="#999999" points="2526.5,-145.5 2425.5,-145.5 2425.5,-126.5 2526.5,-126.5 2526.5,-145.5"/>
<text text-anchor="middle" x="2476" y="-133.5" font-family="Helvetica,sans-Serif" font-size="10.00">flutter/fml/macros.h</text>
</a>
</g>
</g>
<!-- Node20&#45;&gt;Node25 -->
<g id="edge32" class="edge">
<title>Node20&#45;&gt;Node25</title>
<path fill="none" stroke="#63b8ff" d="M2855.96,-252.94C2784.39,-231.1 2594.93,-173.29 2513.77,-148.53"/>
<polygon fill="#63b8ff" stroke="#63b8ff" points="2514.56,-145.11 2503.97,-145.53 2512.51,-151.8 2514.56,-145.11"/>
</g>
<!-- Node23 -->
<g id="node23" class="node">
<title>Node23</title>
<g id="a_node23"><a xlink:href="libdlt_8h.html" target="_top" xlink:title=" ">
<polygon fill="white" stroke="#666666" points="2915.5,-145.5 2856.5,-145.5 2856.5,-126.5 2915.5,-126.5 2915.5,-145.5"/>
<text text-anchor="middle" x="2886" y="-133.5" font-family="Helvetica,sans-Serif" font-size="10.00">dlt/libdlt.h</text>
</a>
</g>
</g>
<!-- Node22&#45;&gt;Node23 -->
<g id="edge29" class="edge">
<title>Node22&#45;&gt;Node23</title>
<path fill="none" stroke="#63b8ff" d="M2881.67,-192.37C2882.4,-183.07 2883.58,-167.98 2884.52,-155.9"/>
<polygon fill="#63b8ff" stroke="#63b8ff" points="2888.01,-156.15 2885.3,-145.91 2881.04,-155.6 2888.01,-156.15"/>
</g>
<!-- Node22&#45;&gt;Node25 -->
<g id="edge31" class="edge">
<title>Node22&#45;&gt;Node25</title>
<path fill="none" stroke="#63b8ff" d="M2856.2,-198.14C2799.33,-191.43 2655.24,-173.51 2536,-151 2530.88,-150.03 2525.53,-148.93 2520.23,-147.77"/>
<polygon fill="#63b8ff" stroke="#63b8ff" points="2520.69,-144.28 2510.16,-145.5 2519.15,-151.11 2520.69,-144.28"/>
</g>
<!-- Node24 -->
<g id="node24" class="node">
<title>Node24</title>
<g id="a_node24"><a xlink:title=" ">
<polygon fill="#e0e0e0" stroke="#999999" points="2909,-85 2863,-85 2863,-66 2909,-66 2909,-85"/>
<text text-anchor="middle" x="2886" y="-73" font-family="Helvetica,sans-Serif" font-size="10.00">cstdint</text>
</a>
</g>
</g>
<!-- Node23&#45;&gt;Node24 -->
<g id="edge30" class="edge">
<title>Node23&#45;&gt;Node24</title>
<path fill="none" stroke="#63b8ff" d="M2886,-126.37C2886,-118.25 2886,-105.81 2886,-95.39"/>
<polygon fill="#63b8ff" stroke="#63b8ff" points="2889.5,-95.17 2886,-85.17 2882.5,-95.17 2889.5,-95.17"/>
</g>
<!-- Node26&#45;&gt;Node3 -->
<g id="edge36" class="edge">
<title>Node26&#45;&gt;Node3</title>
<path fill="none" stroke="#63b8ff" d="M627.26,-200.1C500.41,-197.3 172.48,-186.64 140,-151 131.02,-141.14 131.23,-131.04 140,-121 185.75,-68.59 657.57,-32.48 839.24,-20.42"/>
<polygon fill="#63b8ff" stroke="#63b8ff" points="839.73,-23.89 849.48,-19.74 839.27,-16.91 839.73,-23.89"/>
</g>
<!-- Node26&#45;&gt;Node4 -->
<g id="edge35" class="edge">
<title>Node26&#45;&gt;Node4</title>
<path fill="none" stroke="#63b8ff" d="M671.88,-192.37C666.18,-182.78 656.84,-167.05 649.57,-154.8"/>
<polygon fill="#63b8ff" stroke="#63b8ff" points="652.4,-152.72 644.29,-145.91 646.38,-156.29 652.4,-152.72"/>
</g>
<!-- Node26&#45;&gt;Node12 -->
<g id="edge34" class="edge">
<title>Node26&#45;&gt;Node12</title>
<path fill="none" stroke="#63b8ff" d="M710.91,-192.46C719.09,-190.54 727.84,-188.59 736,-187 839.27,-166.84 870.23,-184.43 970,-151 970.89,-150.7 971.79,-150.37 972.69,-150.02"/>
<polygon fill="#63b8ff" stroke="#63b8ff" points="974.52,-153.03 982.09,-145.61 971.55,-146.69 974.52,-153.03"/>
</g>
<!-- Node27&#45;&gt;Node3 -->
<g id="edge46" class="edge">
<title>Node27&#45;&gt;Node3</title>
<path fill="none" stroke="#63b8ff" d="M1368.72,-192.42C1287.39,-178.76 1137.41,-153.38 1132,-151 1111.98,-142.21 1111.19,-133.14 1093,-121 1043.7,-88.11 983.62,-54.86 946.08,-34.83"/>
<polygon fill="#63b8ff" stroke="#63b8ff" points="947.52,-31.63 937.04,-30.04 944.23,-37.82 947.52,-31.63"/>
</g>
<!-- Node27&#45;&gt;Node4 -->
<g id="edge40" class="edge">
<title>Node27&#45;&gt;Node4</title>
<path fill="none" stroke="#63b8ff" d="M1368.75,-200.13C1221.77,-197.25 800.84,-186.06 668,-151 666.51,-150.61 665.01,-150.14 663.52,-149.61"/>
<polygon fill="#63b8ff" stroke="#63b8ff" points="664.5,-146.23 653.93,-145.55 661.77,-152.68 664.5,-146.23"/>
</g>
<!-- Node27&#45;&gt;Node12 -->
<g id="edge38" class="edge">
<title>Node27&#45;&gt;Node12</title>
<path fill="none" stroke="#63b8ff" d="M1368.97,-200.27C1292.21,-197.92 1143.22,-188.43 1023,-151 1021.78,-150.62 1020.55,-150.19 1019.32,-149.71"/>
<polygon fill="#63b8ff" stroke="#63b8ff" points="1020.72,-146.51 1010.17,-145.54 1017.81,-152.87 1020.72,-146.51"/>
</g>
<!-- Node27&#45;&gt;Node13 -->
<g id="edge39" class="edge">
<title>Node27&#45;&gt;Node13</title>
<path fill="none" stroke="#63b8ff" d="M1368.94,-192.36C1358.07,-190.56 1346.66,-188.69 1336,-187 1230.35,-170.21 1201.83,-176.78 1098,-151 1095.35,-150.34 1092.62,-149.58 1089.9,-148.76"/>
<polygon fill="#63b8ff" stroke="#63b8ff" points="1090.79,-145.37 1080.2,-145.6 1088.63,-152.02 1090.79,-145.37"/>
</g>
<!-- Node27&#45;&gt;Node18 -->
<g id="edge48" class="edge">
<title>Node27&#45;&gt;Node18</title>
<path fill="none" stroke="#63b8ff" d="M1426.49,-186.9C1435.86,-168.31 1455.06,-136.19 1482,-121 1539.01,-88.84 1732.4,-79.85 1820.56,-77.39"/>
<polygon fill="#63b8ff" stroke="#63b8ff" points="1820.86,-80.89 1830.77,-77.12 1820.68,-73.89 1820.86,-80.89"/>
</g>
<!-- Node27&#45;&gt;Node25 -->
<g id="edge44" class="edge">
<title>Node27&#45;&gt;Node25</title>
<path fill="none" stroke="#63b8ff" d="M1471.15,-198.39C1666.44,-188.43 2355.25,-153.21 2378,-151 2390.09,-149.82 2402.98,-148.23 2415.31,-146.54"/>
<polygon fill="#63b8ff" stroke="#63b8ff" points="2416.08,-149.96 2425.49,-145.1 2415.1,-143.03 2416.08,-149.96"/>
</g>
<!-- Node28 -->
<g id="node28" class="node">
<title>Node28</title>
<g id="a_node28"><a xlink:title=" ">
<polygon fill="#e0e0e0" stroke="#999999" points="1434.5,-151 1321.5,-151 1321.5,-121 1434.5,-121 1434.5,-151"/>
<text text-anchor="start" x="1329.5" y="-139" font-family="Helvetica,sans-Serif" font-size="10.00">flutter/basic_message</text>
<text text-anchor="middle" x="1378" y="-128" font-family="Helvetica,sans-Serif" font-size="10.00">_channel.h</text>
</a>
</g>
</g>
<!-- Node27&#45;&gt;Node28 -->
<g id="edge41" class="edge">
<title>Node27&#45;&gt;Node28</title>
<path fill="none" stroke="#63b8ff" d="M1410.68,-186.8C1405.46,-178.84 1398.83,-168.74 1392.9,-159.71"/>
<polygon fill="#63b8ff" stroke="#63b8ff" points="1395.71,-157.6 1387.3,-151.16 1389.86,-161.44 1395.71,-157.6"/>
</g>
<!-- Node29 -->
<g id="node29" class="node">
<title>Node29</title>
<g id="a_node29"><a xlink:title=" ">
<polygon fill="#e0e0e0" stroke="#999999" points="1775,-145.5 1643,-145.5 1643,-126.5 1775,-126.5 1775,-145.5"/>
<text text-anchor="middle" x="1709" y="-133.5" font-family="Helvetica,sans-Serif" font-size="10.00">flutter/binary_messenger.h</text>
</a>
</g>
</g>
<!-- Node27&#45;&gt;Node29 -->
<g id="edge42" class="edge">
<title>Node27&#45;&gt;Node29</title>
<path fill="none" stroke="#63b8ff" d="M1471,-189.71C1524.48,-177.86 1607.89,-159.39 1660.43,-147.76"/>
<polygon fill="#63b8ff" stroke="#63b8ff" points="1661.5,-151.1 1670.51,-145.52 1659.99,-144.27 1661.5,-151.1"/>
</g>
<!-- Node30 -->
<g id="node30" class="node">
<title>Node30</title>
<g id="a_node30"><a xlink:title=" ">
<polygon fill="#e0e0e0" stroke="#999999" points="1303.5,-151 1140.5,-151 1140.5,-121 1303.5,-121 1303.5,-151"/>
<text text-anchor="start" x="1148.5" y="-139" font-family="Helvetica,sans-Serif" font-size="10.00">flutter/shell/platform</text>
<text text-anchor="middle" x="1222" y="-128" font-family="Helvetica,sans-Serif" font-size="10.00">/common/json_message_codec.h</text>
</a>
</g>
</g>
<!-- Node27&#45;&gt;Node30 -->
<g id="edge43" class="edge">
<title>Node27&#45;&gt;Node30</title>
<path fill="none" stroke="#63b8ff" d="M1376.55,-186.95C1346.63,-177.28 1306.71,-164.38 1274.93,-154.11"/>
<polygon fill="#63b8ff" stroke="#63b8ff" points="1275.94,-150.76 1265.35,-151.01 1273.79,-157.42 1275.94,-150.76"/>
</g>
<!-- Node31 -->
<g id="node31" class="node">
<title>Node31</title>
<g id="a_node31"><a xlink:title=" ">
<polygon fill="#e0e0e0" stroke="#999999" points="2369,-145.5 2259,-145.5 2259,-126.5 2369,-126.5 2369,-145.5"/>
<text text-anchor="middle" x="2314" y="-133.5" font-family="Helvetica,sans-Serif" font-size="10.00">rapidjson/document.h</text>
</a>
</g>
</g>
<!-- Node27&#45;&gt;Node31 -->
<g id="edge45" class="edge">
<title>Node27&#45;&gt;Node31</title>
<path fill="none" stroke="#63b8ff" d="M1471.14,-198.38C1639.95,-189.68 2173.14,-161.66 2250,-151 2256.36,-150.12 2263.02,-148.95 2269.55,-147.65"/>
<polygon fill="#63b8ff" stroke="#63b8ff" points="2270.56,-151.02 2279.63,-145.54 2269.13,-144.16 2270.56,-151.02"/>
</g>
<!-- Node32 -->
<g id="node32" class="node">
<title>Node32</title>
<g id="a_node32"><a xlink:title=" ">
<polygon fill="#e0e0e0" stroke="#999999" points="1625,-145.5 1491,-145.5 1491,-126.5 1625,-126.5 1625,-145.5"/>
<text text-anchor="middle" x="1558" y="-133.5" font-family="Helvetica,sans-Serif" font-size="10.00">xkbcommon/xkbcommon.h</text>
</a>
</g>
</g>
<!-- Node27&#45;&gt;Node32 -->
<g id="edge47" class="edge">
<title>Node27&#45;&gt;Node32</title>
<path fill="none" stroke="#63b8ff" d="M1450.28,-186.95C1474.17,-175.88 1507.2,-160.56 1530.36,-149.82"/>
<polygon fill="#63b8ff" stroke="#63b8ff" points="1532.04,-152.9 1539.63,-145.52 1529.09,-146.55 1532.04,-152.9"/>
</g>
<!-- Node33&#45;&gt;Node3 -->
<g id="edge60" class="edge">
<title>Node33&#45;&gt;Node3</title>
<path fill="none" stroke="#63b8ff" d="M1768.49,-186.93C1782.38,-169.54 1800.8,-139.93 1784,-121 1730.89,-61.13 1179.47,-28.93 980.82,-19.21"/>
<polygon fill="#63b8ff" stroke="#63b8ff" points="980.95,-15.71 970.79,-18.72 980.61,-22.7 980.95,-15.71"/>
</g>
<!-- Node33&#45;&gt;Node4 -->
<g id="edge52" class="edge">
<title>Node33&#45;&gt;Node4</title>
<path fill="none" stroke="#63b8ff" d="M1707.15,-198.43C1651.99,-195.55 1559.55,-190.78 1480,-187 1299.58,-178.42 843.14,-195.17 668,-151 666.51,-150.62 665,-150.17 663.5,-149.65"/>
<polygon fill="#63b8ff" stroke="#63b8ff" points="664.49,-146.27 653.91,-145.62 661.78,-152.72 664.49,-146.27"/>
</g>
<!-- Node33&#45;&gt;Node5 -->
<g id="edge57" class="edge">
<title>Node33&#45;&gt;Node5</title>
<path fill="none" stroke="#63b8ff" d="M1804.61,-188.57C1807.77,-187.98 1810.92,-187.44 1814,-187 2128.73,-141.58 2214.74,-183.98 2534.23,-151.1"/>
<polygon fill="#63b8ff" stroke="#63b8ff" points="2534.65,-154.58 2544.24,-150.06 2533.93,-147.62 2534.65,-154.58"/>
</g>
<!-- Node33&#45;&gt;Node12 -->
<g id="edge50" class="edge">
<title>Node33&#45;&gt;Node12</title>
<path fill="none" stroke="#63b8ff" d="M1707.33,-198.23C1548.86,-189.13 1055.95,-160.23 1023,-151 1021.74,-150.65 1020.47,-150.23 1019.21,-149.77"/>
<polygon fill="#63b8ff" stroke="#63b8ff" points="1020.4,-146.47 1009.84,-145.55 1017.53,-152.85 1020.4,-146.47"/>
</g>
<!-- Node33&#45;&gt;Node13 -->
<g id="edge51" class="edge">
<title>Node33&#45;&gt;Node13</title>
<path fill="none" stroke="#63b8ff" d="M1707.27,-198.87C1601.92,-193.89 1345.27,-179.64 1132,-151 1119.67,-149.34 1106.29,-146.99 1094.33,-144.68"/>
<polygon fill="#63b8ff" stroke="#63b8ff" points="1094.75,-141.19 1084.26,-142.68 1093.39,-148.06 1094.75,-141.19"/>
</g>
<!-- Node33&#45;&gt;Node18 -->
<g id="edge62" class="edge">
<title>Node33&#45;&gt;Node18</title>
<path fill="none" stroke="#63b8ff" d="M1804.61,-188.62C1807.78,-188.01 1810.93,-187.47 1814,-187 1876.09,-177.6 2335.04,-196.79 2378,-151 2387.12,-141.28 2387.01,-130.83 2378,-121 2346.62,-86.78 2028.38,-78.8 1909.49,-77"/>
<polygon fill="#63b8ff" stroke="#63b8ff" points="1909.33,-73.5 1899.28,-76.85 1909.23,-80.5 1909.33,-73.5"/>
</g>
<!-- Node33&#45;&gt;Node25 -->
<g id="edge56" class="edge">
<title>Node33&#45;&gt;Node25</title>
<path fill="none" stroke="#63b8ff" d="M1804.61,-188.61C1807.78,-188 1810.93,-187.46 1814,-187 2076.89,-147.66 2147.65,-187.09 2411,-151 2417.45,-150.12 2424.22,-148.94 2430.85,-147.65"/>
<polygon fill="#63b8ff" stroke="#63b8ff" points="2432,-150.98 2441.09,-145.54 2430.59,-144.13 2432,-150.98"/>
</g>
<!-- Node33&#45;&gt;Node29 -->
<g id="edge53" class="edge">
<title>Node33&#45;&gt;Node29</title>
<path fill="none" stroke="#63b8ff" d="M1745.57,-186.8C1738.46,-177.11 1729,-164.24 1721.49,-154.01"/>
<polygon fill="#63b8ff" stroke="#63b8ff" points="1724.24,-151.83 1715.5,-145.84 1718.59,-155.98 1724.24,-151.83"/>
</g>
<!-- Node33&#45;&gt;Node31 -->
<g id="edge59" class="edge">
<title>Node33&#45;&gt;Node31</title>
<path fill="none" stroke="#63b8ff" d="M1804.62,-188.69C1807.79,-188.06 1810.93,-187.49 1814,-187 2005.97,-156.1 2057.71,-179.84 2250,-151 2256.2,-150.07 2262.7,-148.89 2269.08,-147.61"/>
<polygon fill="#63b8ff" stroke="#63b8ff" points="2269.87,-151.02 2278.95,-145.55 2268.44,-144.17 2269.87,-151.02"/>
</g>
<!-- Node33&#45;&gt;Node32 -->
<g id="edge61" class="edge">
<title>Node33&#45;&gt;Node32</title>
<path fill="none" stroke="#63b8ff" d="M1712.55,-186.95C1677.06,-175.48 1627.49,-159.46 1594.14,-148.68"/>
<polygon fill="#63b8ff" stroke="#63b8ff" points="1594.94,-145.26 1584.35,-145.52 1592.79,-151.92 1594.94,-145.26"/>
</g>
<!-- Node34 -->
<g id="node34" class="node">
<title>Node34</title>
<g id="a_node34"><a xlink:title=" ">
<polygon fill="#e0e0e0" stroke="#999999" points="1955,-145.5 1831,-145.5 1831,-126.5 1955,-126.5 1955,-145.5"/>
<text text-anchor="middle" x="1893" y="-133.5" font-family="Helvetica,sans-Serif" font-size="10.00">flutter/method_channel.h</text>
</a>
</g>
</g>
<!-- Node33&#45;&gt;Node34 -->
<g id="edge54" class="edge">
<title>Node33&#45;&gt;Node34</title>
<path fill="none" stroke="#63b8ff" d="M1786.07,-186.95C1809.77,-175.88 1842.56,-160.56 1865.56,-149.82"/>
<polygon fill="#63b8ff" stroke="#63b8ff" points="1867.19,-152.92 1874.77,-145.52 1864.23,-146.58 1867.19,-152.92"/>
</g>
<!-- Node35 -->
<g id="node35" class="node">
<title>Node35</title>
<g id="a_node35"><a xlink:title=" ">
<polygon fill="#e0e0e0" stroke="#999999" points="2079,-151 1973,-151 1973,-121 2079,-121 2079,-151"/>
<text text-anchor="start" x="1981" y="-139" font-family="Helvetica,sans-Serif" font-size="10.00">flutter/method_result</text>
<text text-anchor="middle" x="2026" y="-128" font-family="Helvetica,sans-Serif" font-size="10.00">_functions.h</text>
</a>
</g>
</g>
<!-- Node33&#45;&gt;Node35 -->
<g id="edge55" class="edge">
<title>Node33&#45;&gt;Node35</title>
<path fill="none" stroke="#63b8ff" d="M1804.73,-189.22C1807.87,-188.47 1810.98,-187.72 1814,-187 1864.06,-175.06 1920.8,-161.68 1962.98,-151.77"/>
<polygon fill="#63b8ff" stroke="#63b8ff" points="1963.9,-155.15 1972.84,-149.46 1962.3,-148.34 1963.9,-155.15"/>
</g>
<!-- Node36 -->
<g id="node36" class="node">
<title>Node36</title>
<g id="a_node36"><a xlink:title=" ">
<polygon fill="#e0e0e0" stroke="#999999" points="2240.5,-151 2097.5,-151 2097.5,-121 2240.5,-121 2240.5,-151"/>
<text text-anchor="start" x="2105.5" y="-139" font-family="Helvetica,sans-Serif" font-size="10.00">flutter/shell/platform</text>
<text text-anchor="middle" x="2169" y="-128" font-family="Helvetica,sans-Serif" font-size="10.00">/common/text_input_model.h</text>
</a>
</g>
</g>
<!-- Node33&#45;&gt;Node36 -->
<g id="edge58" class="edge">
<title>Node33&#45;&gt;Node36</title>
<path fill="none" stroke="#63b8ff" d="M1804.65,-188.86C1807.81,-188.19 1810.94,-187.57 1814,-187 1931.57,-165.15 1964.83,-169.22 2087.32,-151.05"/>
<polygon fill="#63b8ff" stroke="#63b8ff" points="2088.1,-154.47 2097.47,-149.52 2087.06,-147.55 2088.1,-154.47"/>
</g>
<!-- Node37&#45;&gt;Node12 -->
<g id="edge64" class="edge">
<title>Node37&#45;&gt;Node12</title>
<path fill="none" stroke="#63b8ff" d="M1193.43,-252.94C1157.35,-231.75 1063.59,-176.69 1019.53,-150.82"/>
<polygon fill="#63b8ff" stroke="#63b8ff" points="1021.07,-147.66 1010.67,-145.62 1017.52,-153.7 1021.07,-147.66"/>
</g>
<!-- Node37&#45;&gt;Node13 -->
<g id="edge65" class="edge">
<title>Node37&#45;&gt;Node13</title>
<path fill="none" stroke="#63b8ff" d="M1202.34,-252.82C1192.33,-237.96 1170.26,-207.3 1146,-187 1128.03,-171.97 1104.92,-159.03 1086.88,-150.09"/>
<polygon fill="#63b8ff" stroke="#63b8ff" points="1087.98,-146.73 1077.45,-145.54 1084.94,-153.04 1087.98,-146.73"/>
</g>
<!-- Node37&#45;&gt;Node25 -->
<g id="edge71" class="edge">
<title>Node37&#45;&gt;Node25</title>
<path fill="none" stroke="#63b8ff" d="M1257.18,-260.19C1415.24,-255.74 1903.89,-240.27 1971,-217 1993.02,-209.37 1992.12,-195.03 2014,-187 2173.68,-128.41 2226.41,-173.5 2395,-151 2403.15,-149.91 2411.73,-148.61 2420.13,-147.23"/>
<polygon fill="#63b8ff" stroke="#63b8ff" points="2420.97,-150.64 2430.26,-145.54 2419.82,-143.74 2420.97,-150.64"/>
</g>
<!-- Node38 -->
<g id="node38" class="node">
<title>Node38</title>
<g id="a_node38"><a xlink:href="configuration_8h.html" target="_top" xlink:title=" ">
<polygon fill="white" stroke="#666666" points="1961.5,-211.5 1822.5,-211.5 1822.5,-192.5 1961.5,-192.5 1961.5,-211.5"/>
<text text-anchor="middle" x="1892" y="-199.5" font-family="Helvetica,sans-Serif" font-size="10.00">configuration/configuration.h</text>
</a>
</g>
</g>
<!-- Node37&#45;&gt;Node38 -->
<g id="edge66" class="edge">
<title>Node37&#45;&gt;Node38</title>
<path fill="none" stroke="#63b8ff" d="M1257.27,-259.63C1360.73,-255.31 1608.08,-242.97 1814,-217 1822.15,-215.97 1830.74,-214.66 1839.13,-213.26"/>
<polygon fill="#63b8ff" stroke="#63b8ff" points="1839.96,-216.67 1849.21,-211.51 1838.76,-209.77 1839.96,-216.67"/>
</g>
<!-- Node39 -->
<g id="node39" class="node">
<title>Node39</title>
<g id="a_node39"><a xlink:href="window_8h.html" target="_top" xlink:title=" ">
<polygon fill="white" stroke="#666666" points="841,-211.5 745,-211.5 745,-192.5 841,-192.5 841,-211.5"/>
<text text-anchor="middle" x="793" y="-199.5" font-family="Helvetica,sans-Serif" font-size="10.00">wayland/window.h</text>
</a>
</g>
</g>
<!-- Node37&#45;&gt;Node39 -->
<g id="edge72" class="edge">
<title>Node37&#45;&gt;Node39</title>
<path fill="none" stroke="#63b8ff" d="M1158.76,-254.56C1081.78,-243.71 933.25,-222.77 851.13,-211.19"/>
<polygon fill="#63b8ff" stroke="#63b8ff" points="851.6,-207.73 841.21,-209.8 850.62,-214.66 851.6,-207.73"/>
</g>
<!-- Node38&#45;&gt;Node4 -->
<g id="edge67" class="edge">
<title>Node38&#45;&gt;Node4</title>
<path fill="none" stroke="#63b8ff" d="M1850.87,-192.46C1839.02,-190.31 1826.04,-188.26 1814,-187 1560.6,-160.42 915.45,-211.71 668,-151 666.32,-150.59 664.62,-150.07 662.94,-149.48"/>
<polygon fill="#63b8ff" stroke="#63b8ff" points="664.18,-146.2 653.6,-145.51 661.44,-152.65 664.18,-146.2"/>
</g>
<!-- Node38&#45;&gt;Node16 -->
<g id="edge68" class="edge">
<title>Node38&#45;&gt;Node16</title>
<path fill="none" stroke="#63b8ff" d="M1959.68,-192.47C1977.34,-190.45 1996.37,-188.47 2014,-187 2168.12,-174.18 2558.71,-187.46 2709,-151 2710.74,-150.58 2712.49,-150.06 2714.25,-149.48"/>
<polygon fill="#63b8ff" stroke="#63b8ff" points="2716,-152.55 2724,-145.59 2713.41,-146.04 2716,-152.55"/>
</g>
<!-- Node38&#45;&gt;Node25 -->
<g id="edge69" class="edge">
<title>Node38&#45;&gt;Node25</title>
<path fill="none" stroke="#63b8ff" d="M1938.99,-192.46C1951.03,-190.47 1963.97,-188.5 1976,-187 2168.51,-163.03 2219.11,-179.48 2411,-151 2417.29,-150.07 2423.89,-148.88 2430.37,-147.61"/>
<polygon fill="#63b8ff" stroke="#63b8ff" points="2431.3,-150.99 2440.39,-145.54 2429.89,-144.13 2431.3,-150.99"/>
</g>
<!-- Node38&#45;&gt;Node31 -->
<g id="edge70" class="edge">
<title>Node38&#45;&gt;Node31</title>
<path fill="none" stroke="#63b8ff" d="M1941.26,-192.5C1952.65,-190.61 1964.74,-188.68 1976,-187 2097.48,-168.9 2129.01,-172.14 2250,-151 2255.74,-150 2261.75,-148.83 2267.69,-147.62"/>
<polygon fill="#63b8ff" stroke="#63b8ff" points="2268.49,-151.02 2277.55,-145.53 2267.05,-144.17 2268.49,-151.02"/>
</g>
<!-- Node39&#45;&gt;Node4 -->
<g id="edge74" class="edge">
<title>Node39&#45;&gt;Node4</title>
<path fill="none" stroke="#63b8ff" d="M770.22,-192.43C745.02,-182.83 703.29,-166.55 668,-151 667.17,-150.64 666.33,-150.26 665.49,-149.88"/>
<polygon fill="#63b8ff" stroke="#63b8ff" points="666.93,-146.69 656.39,-145.64 663.97,-153.04 666.93,-146.69"/>
</g>
<!-- Node39&#45;&gt;Node13 -->
<g id="edge73" class="edge">
<title>Node39&#45;&gt;Node13</title>
<path fill="none" stroke="#63b8ff" d="M841.17,-192.94C888.12,-184.53 961.27,-169.91 1023,-151 1024.88,-150.42 1026.8,-149.79 1028.72,-149.12"/>
<polygon fill="#63b8ff" stroke="#63b8ff" points="1030.07,-152.35 1038.22,-145.58 1027.62,-145.8 1030.07,-152.35"/>
</g>
<!-- Node39&#45;&gt;Node17 -->
<g id="edge78" class="edge">
<title>Node39&#45;&gt;Node17</title>
<path fill="none" stroke="#63b8ff" d="M808.78,-192.37C828.41,-181.63 862.14,-163.18 885.23,-150.55"/>
<polygon fill="#63b8ff" stroke="#63b8ff" points="887,-153.57 894.1,-145.7 883.64,-147.43 887,-153.57"/>
</g>
<!-- Node39&#45;&gt;Node18 -->
<g id="edge77" class="edge">
<title>Node39&#45;&gt;Node18</title>
<path fill="none" stroke="#63b8ff" d="M796.19,-192.24C803,-174.98 820.78,-136.88 850,-121 936.04,-74.25 1636.55,-75.12 1820.76,-76.17"/>
<polygon fill="#63b8ff" stroke="#63b8ff" points="1820.87,-79.67 1830.89,-76.24 1820.91,-72.67 1820.87,-79.67"/>
</g>
<!-- Node40 -->
<g id="node40" class="node">
<title>Node40</title>
<g id="a_node40"><a xlink:title=" ">
<polygon fill="#e0e0e0" stroke="#999999" points="600.5,-145.5 551.5,-145.5 551.5,-126.5 600.5,-126.5 600.5,-145.5"/>
<text text-anchor="middle" x="576" y="-133.5" font-family="Helvetica,sans-Serif" font-size="10.00">cassert</text>
</a>
</g>
</g>
<!-- Node39&#45;&gt;Node40 -->
<g id="edge75" class="edge">
<title>Node39&#45;&gt;Node40</title>
<path fill="none" stroke="#63b8ff" d="M759.54,-192.49C714.48,-180.93 636.76,-160.61 609,-151 607.57,-150.5 606.11,-149.98 604.64,-149.42"/>
<polygon fill="#63b8ff" stroke="#63b8ff" points="605.61,-146.04 595.02,-145.59 603.02,-152.55 605.61,-146.04"/>
</g>
<!-- Node41 -->
<g id="node41" class="node">
<title>Node41</title>
<g id="a_node41"><a xlink:title=" ">
<polygon fill="#e0e0e0" stroke="#999999" points="802.5,-145.5 677.5,-145.5 677.5,-126.5 802.5,-126.5 802.5,-145.5"/>
<text text-anchor="middle" x="740" y="-133.5" font-family="Helvetica,sans-Serif" font-size="10.00">agl&#45;shell&#45;client&#45;protocol.h</text>
</a>
</g>
</g>
<!-- Node39&#45;&gt;Node41 -->
<g id="edge76" class="edge">
<title>Node39&#45;&gt;Node41</title>
<path fill="none" stroke="#63b8ff" d="M785.85,-192.37C777.68,-182.5 764.11,-166.11 753.84,-153.72"/>
<polygon fill="#63b8ff" stroke="#63b8ff" points="756.45,-151.37 747.37,-145.91 751.06,-155.84 756.45,-151.37"/>
</g>
<!-- Node42 -->
<g id="node42" class="node">
<title>Node42</title>
<g id="a_node42"><a xlink:title=" ">
<polygon fill="#e0e0e0" stroke="#999999" points="251,-151 149,-151 149,-121 251,-121 251,-151"/>
<text text-anchor="start" x="157" y="-139" font-family="Helvetica,sans-Serif" font-size="10.00">ivi&#45;application&#45;client</text>
<text text-anchor="middle" x="200" y="-128" font-family="Helvetica,sans-Serif" font-size="10.00">&#45;protocol.h</text>
</a>
</g>
</g>
<!-- Node39&#45;&gt;Node42 -->
<g id="edge79" class="edge">
<title>Node39&#45;&gt;Node42</title>
<path fill="none" stroke="#63b8ff" d="M761.58,-192.44C753.01,-190.37 743.7,-188.37 735,-187 529.13,-154.57 471.07,-182.25 261.39,-151.04"/>
<polygon fill="#63b8ff" stroke="#63b8ff" points="261.7,-147.55 251.29,-149.51 260.65,-154.47 261.7,-147.55"/>
</g>
<!-- Node43 -->
<g id="node43" class="node">
<title>Node43</title>
<g id="a_node43"><a xlink:title=" ">
<polygon fill="#e0e0e0" stroke="#999999" points="386.5,-145.5 269.5,-145.5 269.5,-126.5 386.5,-126.5 386.5,-145.5"/>
<text text-anchor="middle" x="328" y="-133.5" font-family="Helvetica,sans-Serif" font-size="10.00">ivi&#45;wm&#45;client&#45;protocol.h</text>
</a>
</g>
</g>
<!-- Node39&#45;&gt;Node43 -->
<g id="edge80" class="edge">
<title>Node39&#45;&gt;Node43</title>
<path fill="none" stroke="#63b8ff" d="M760.94,-192.47C752.55,-190.45 743.47,-188.47 735,-187 585.7,-161.17 545.71,-174.3 396,-151 389.59,-150 382.87,-148.81 376.26,-147.54"/>
<polygon fill="#63b8ff" stroke="#63b8ff" points="376.49,-144.02 366,-145.5 375.13,-150.88 376.49,-144.02"/>
</g>
<!-- Node44 -->
<g id="node44" class="node">
<title>Node44</title>
<g id="a_node44"><a xlink:title=" ">
<polygon fill="#e0e0e0" stroke="#999999" points="533,-145.5 405,-145.5 405,-126.5 533,-126.5 533,-145.5"/>
<text text-anchor="middle" x="469" y="-133.5" font-family="Helvetica,sans-Serif" font-size="10.00">xdg&#45;shell&#45;client&#45;protocol.h</text>
</a>
</g>
</g>
<!-- Node39&#45;&gt;Node44 -->
<g id="edge81" class="edge">
<title>Node39&#45;&gt;Node44</title>
<path fill="none" stroke="#63b8ff" d="M759.03,-192.48C751.15,-190.6 742.8,-188.67 735,-187 649.67,-168.76 627.74,-167.22 542,-151 535.93,-149.85 529.57,-148.64 523.25,-147.44"/>
<polygon fill="#63b8ff" stroke="#63b8ff" points="523.87,-143.99 513.39,-145.55 522.55,-150.87 523.87,-143.99"/>
</g>
</g>
</svg>
