<?xml version="1.0" encoding="UTF-8" standalone="no"?>
<!DOCTYPE svg PUBLIC "-//W3C//DTD SVG 1.1//EN"
 "http://www.w3.org/Graphics/SVG/1.1/DTD/svg11.dtd">
<!-- Generated by graphviz version 2.43.0 (0)
 -->
<!-- Title: /home/joel.winarske@toyotaconnected.com/development/workspace&#45;automation&#45;configs/app/ivi&#45;homescreen/shell/static_plugins/platform/platform.cc Pages: 1 -->
<svg width="2891pt" height="452pt"
 viewBox="0.00 0.00 2890.50 452.00" xmlns="http://www.w3.org/2000/svg" xmlns:xlink="http://www.w3.org/1999/xlink">
<g id="graph0" class="graph" transform="scale(1 1) rotate(0) translate(4 448)">
<title>/home/joel.winarske@toyotaconnected.com/development/workspace&#45;automation&#45;configs/app/ivi&#45;homescreen/shell/static_plugins/platform/platform.cc</title>
<polygon fill="white" stroke="transparent" points="-4,4 -4,-448 2886.5,-448 2886.5,4 -4,4"/>
<!-- Node1 -->
<g id="node1" class="node">
<title>Node1</title>
<g id="a_node1"><a xlink:title=" ">
<polygon fill="#bfbfbf" stroke="black" points="2604.5,-369.5 2604.5,-443.5 2765.5,-443.5 2765.5,-369.5 2604.5,-369.5"/>
<text text-anchor="start" x="2612.5" y="-431.5" font-family="Helvetica,sans-Serif" font-size="10.00">/home/joel.winarske</text>
<text text-anchor="start" x="2612.5" y="-420.5" font-family="Helvetica,sans-Serif" font-size="10.00">@toyotaconnected.com</text>
<text text-anchor="start" x="2612.5" y="-409.5" font-family="Helvetica,sans-Serif" font-size="10.00">/development/workspace</text>
<text text-anchor="start" x="2612.5" y="-398.5" font-family="Helvetica,sans-Serif" font-size="10.00">&#45;automation&#45;configs/app</text>
<text text-anchor="start" x="2612.5" y="-387.5" font-family="Helvetica,sans-Serif" font-size="10.00">/ivi&#45;homescreen/shell/static</text>
<text text-anchor="middle" x="2685" y="-376.5" font-family="Helvetica,sans-Serif" font-size="10.00">_plugins/platform/platform.cc</text>
</a>
</g>
</g>
<!-- Node2 -->
<g id="node2" class="node">
<title>Node2</title>
<g id="a_node2"><a xlink:href="platform_8h.html" target="_top" xlink:title=" ">
<polygon fill="white" stroke="black" points="2569,-196 2569,-215 2637,-215 2637,-196 2569,-196"/>
<text text-anchor="middle" x="2603" y="-203" font-family="Helvetica,sans-Serif" font-size="10.00">platform.h</text>
</a>
</g>
</g>
<!-- Node1&#45;&gt;Node2 -->
<g id="edge1" class="edge">
<title>Node1&#45;&gt;Node2</title>
<path fill="none" stroke="midnightblue" d="M2670.15,-369.46C2652.57,-326.8 2623.98,-257.41 2610.49,-224.68"/>
<polygon fill="midnightblue" stroke="midnightblue" points="2613.58,-222.99 2606.53,-215.08 2607.11,-225.66 2613.58,-222.99"/>
</g>
<!-- Node5 -->
<g id="node5" class="node">
<title>Node5</title>
<g id="a_node5"><a xlink:title=" ">
<polygon fill="white" stroke="#bfbfbf" points="2427.5,-123.5 2427.5,-153.5 2598.5,-153.5 2598.5,-123.5 2427.5,-123.5"/>
<text text-anchor="start" x="2435.5" y="-141.5" font-family="Helvetica,sans-Serif" font-size="10.00">flutter/shell/platform</text>
<text text-anchor="middle" x="2513" y="-130.5" font-family="Helvetica,sans-Serif" font-size="10.00">/common/json_method_codec.h</text>
</a>
</g>
</g>
<!-- Node1&#45;&gt;Node5 -->
<g id="edge4" class="edge">
<title>Node1&#45;&gt;Node5</title>
<path fill="none" stroke="midnightblue" d="M2688.55,-369.4C2691.12,-322.62 2688.41,-241.02 2646,-190 2633.63,-175.12 2616.38,-164.62 2598.39,-157.21"/>
<polygon fill="midnightblue" stroke="midnightblue" points="2599.52,-153.89 2588.93,-153.61 2597.03,-160.44 2599.52,-153.89"/>
</g>
<!-- Node6 -->
<g id="node6" class="node">
<title>Node6</title>
<g id="a_node6"><a xlink:href="engine_8h.html" target="_top" xlink:title=" ">
<polygon fill="white" stroke="black" points="1609.5,-313.5 1609.5,-332.5 1668.5,-332.5 1668.5,-313.5 1609.5,-313.5"/>
<text text-anchor="middle" x="1639" y="-320.5" font-family="Helvetica,sans-Serif" font-size="10.00">engine.h</text>
</a>
</g>
</g>
<!-- Node1&#45;&gt;Node6 -->
<g id="edge5" class="edge">
<title>Node1&#45;&gt;Node6</title>
<path fill="none" stroke="midnightblue" d="M2604.23,-399.21C2393.64,-382.8 1833.48,-339.15 1678.96,-327.11"/>
<polygon fill="midnightblue" stroke="midnightblue" points="1678.79,-323.59 1668.55,-326.3 1678.25,-330.57 1678.79,-323.59"/>
</g>
<!-- Node19 -->
<g id="node19" class="node">
<title>Node19</title>
<g id="a_node19"><a xlink:href="logging_8h.html" target="_top" xlink:title=" ">
<polygon fill="white" stroke="black" points="2751,-257.5 2751,-276.5 2813,-276.5 2813,-257.5 2751,-257.5"/>
<text text-anchor="middle" x="2782" y="-264.5" font-family="Helvetica,sans-Serif" font-size="10.00">logging.h</text>
</a>
</g>
</g>
<!-- Node1&#45;&gt;Node19 -->
<g id="edge74" class="edge">
<title>Node1&#45;&gt;Node19</title>
<path fill="none" stroke="midnightblue" d="M2711.04,-369.44C2719.37,-357.84 2728.61,-344.9 2737,-333 2748.32,-316.93 2761.06,-298.49 2770.09,-285.37"/>
<polygon fill="midnightblue" stroke="midnightblue" points="2773.16,-287.09 2775.93,-276.86 2767.39,-283.13 2773.16,-287.09"/>
</g>
<!-- Node3 -->
<g id="node3" class="node">
<title>Node3</title>
<g id="a_node3"><a xlink:title=" ">
<polygon fill="white" stroke="#bfbfbf" points="2330.5,-0.5 2330.5,-30.5 2467.5,-30.5 2467.5,-0.5 2330.5,-0.5"/>
<text text-anchor="start" x="2338.5" y="-18.5" font-family="Helvetica,sans-Serif" font-size="10.00">shell/platform/embedder</text>
<text text-anchor="middle" x="2399" y="-7.5" font-family="Helvetica,sans-Serif" font-size="10.00">/embedder.h</text>
</a>
</g>
</g>
<!-- Node2&#45;&gt;Node3 -->
<g id="edge2" class="edge">
<title>Node2&#45;&gt;Node3</title>
<path fill="none" stroke="midnightblue" d="M2612.33,-195.89C2621.65,-186.6 2635.37,-170.86 2641,-154 2653.26,-117.33 2665.39,-97 2641,-67 2620.61,-41.92 2540.45,-28.87 2477.9,-22.38"/>
<polygon fill="midnightblue" stroke="midnightblue" points="2477.93,-18.86 2467.63,-21.35 2477.24,-25.83 2477.93,-18.86"/>
</g>
<!-- Node4 -->
<g id="node4" class="node">
<title>Node4</title>
<g id="a_node4"><a xlink:title=" ">
<polygon fill="white" stroke="#bfbfbf" points="1994,-129 1994,-148 2038,-148 2038,-129 1994,-129"/>
<text text-anchor="middle" x="2016" y="-136" font-family="Helvetica,sans-Serif" font-size="10.00">string</text>
</a>
</g>
</g>
<!-- Node2&#45;&gt;Node4 -->
<g id="edge3" class="edge">
<title>Node2&#45;&gt;Node4</title>
<path fill="none" stroke="midnightblue" d="M2568.91,-202.95C2463.89,-197.93 2146.41,-180.88 2047,-154 2045.06,-153.48 2043.1,-152.84 2041.15,-152.13"/>
<polygon fill="midnightblue" stroke="midnightblue" points="2042.26,-148.8 2031.69,-148.12 2039.53,-155.24 2042.26,-148.8"/>
</g>
<!-- Node6&#45;&gt;Node3 -->
<g id="edge10" class="edge">
<title>Node6&#45;&gt;Node3</title>
<path fill="none" stroke="midnightblue" d="M1668.5,-321.07C1826.78,-315.8 2570.85,-287.61 2646,-221 2697.46,-175.38 2704.78,-120.03 2661,-67 2638.1,-39.27 2546.59,-26.6 2478.12,-20.92"/>
<polygon fill="midnightblue" stroke="midnightblue" points="2478.02,-17.4 2467.77,-20.1 2477.47,-24.38 2478.02,-17.4"/>
</g>
<!-- Node6&#45;&gt;Node4 -->
<g id="edge15" class="edge">
<title>Node6&#45;&gt;Node4</title>
<path fill="none" stroke="midnightblue" d="M1668.66,-317.64C1746.2,-305.63 1952.14,-269.75 1998,-221 2013.79,-204.22 2016.91,-176.84 2017.01,-158.51"/>
<polygon fill="midnightblue" stroke="midnightblue" points="2020.5,-158.35 2016.76,-148.44 2013.5,-158.52 2020.5,-158.35"/>
</g>
<!-- Node7 -->
<g id="node7" class="node">
<title>Node7</title>
<g id="a_node7"><a xlink:title=" ">
<polygon fill="white" stroke="#bfbfbf" points="1248.5,-257.5 1248.5,-276.5 1313.5,-276.5 1313.5,-257.5 1248.5,-257.5"/>
<text text-anchor="middle" x="1281" y="-264.5" font-family="Helvetica,sans-Serif" font-size="10.00">functional</text>
</a>
</g>
</g>
<!-- Node6&#45;&gt;Node7 -->
<g id="edge6" class="edge">
<title>Node6&#45;&gt;Node7</title>
<path fill="none" stroke="midnightblue" d="M1609.27,-318.47C1554.77,-311.84 1435.03,-296.59 1323.58,-276.99"/>
<polygon fill="midnightblue" stroke="midnightblue" points="1323.97,-273.5 1313.52,-275.2 1322.75,-280.39 1323.97,-273.5"/>
</g>
<!-- Node8 -->
<g id="node8" class="node">
<title>Node8</title>
<g id="a_node8"><a xlink:title=" ">
<polygon fill="white" stroke="#bfbfbf" points="2598,-6 2598,-25 2660,-25 2660,-6 2598,-6"/>
<text text-anchor="middle" x="2629" y="-13" font-family="Helvetica,sans-Serif" font-size="10.00">EGL/egl.h</text>
</a>
</g>
</g>
<!-- Node6&#45;&gt;Node8 -->
<g id="edge7" class="edge">
<title>Node6&#45;&gt;Node8</title>
<path fill="none" stroke="midnightblue" d="M1668.87,-321.22C1798.05,-317.74 2309.34,-302.58 2468,-277 2561.67,-261.9 2602.29,-283.12 2674,-221 2708.33,-191.26 2711.1,-167.69 2703,-123 2698.26,-96.85 2696.66,-89.17 2682,-67 2673.06,-53.48 2659.88,-40.9 2648.9,-31.68"/>
<polygon fill="midnightblue" stroke="midnightblue" points="2651.01,-28.89 2641.04,-25.32 2646.61,-34.33 2651.01,-28.89"/>
</g>
<!-- Node9 -->
<g id="node9" class="node">
<title>Node9</title>
<g id="a_node9"><a xlink:title=" ">
<polygon fill="white" stroke="#bfbfbf" points="1332,-257.5 1332,-276.5 1406,-276.5 1406,-257.5 1332,-257.5"/>
<text text-anchor="middle" x="1369" y="-264.5" font-family="Helvetica,sans-Serif" font-size="10.00">GLES2/gl2.h</text>
</a>
</g>
</g>
<!-- Node6&#45;&gt;Node9 -->
<g id="edge8" class="edge">
<title>Node6&#45;&gt;Node9</title>
<path fill="none" stroke="midnightblue" d="M1609.33,-316.07C1562.65,-306.73 1471.64,-288.53 1415.99,-277.4"/>
<polygon fill="midnightblue" stroke="midnightblue" points="1416.52,-273.93 1406.03,-275.41 1415.15,-280.8 1416.52,-273.93"/>
</g>
<!-- Node10 -->
<g id="node10" class="node">
<title>Node10</title>
<g id="a_node10"><a xlink:title=" ">
<polygon fill="white" stroke="#bfbfbf" points="1424,-257.5 1424,-276.5 1564,-276.5 1564,-257.5 1424,-257.5"/>
<text text-anchor="middle" x="1494" y="-264.5" font-family="Helvetica,sans-Serif" font-size="10.00">flutter/encodable_value.h</text>
</a>
</g>
</g>
<!-- Node6&#45;&gt;Node10 -->
<g id="edge9" class="edge">
<title>Node6&#45;&gt;Node10</title>
<path fill="none" stroke="midnightblue" d="M1616.02,-313.44C1591.84,-304.44 1553.58,-290.19 1526.35,-280.05"/>
<polygon fill="midnightblue" stroke="midnightblue" points="1527.46,-276.73 1516.87,-276.52 1525.02,-283.29 1527.46,-276.73"/>
</g>
<!-- Node11 -->
<g id="node11" class="node">
<title>Node11</title>
<g id="a_node11"><a xlink:title=" ">
<polygon fill="white" stroke="#bfbfbf" points="1722,-129 1722,-148 1760,-148 1760,-129 1722,-129"/>
<text text-anchor="middle" x="1741" y="-136" font-family="Helvetica,sans-Serif" font-size="10.00">map</text>
</a>
</g>
</g>
<!-- Node6&#45;&gt;Node11 -->
<g id="edge11" class="edge">
<title>Node6&#45;&gt;Node11</title>
<path fill="none" stroke="midnightblue" d="M1657.99,-313.44C1672.67,-305.88 1692.37,-293.49 1704,-277 1729.91,-240.24 1737.68,-186.28 1740.01,-158.14"/>
<polygon fill="midnightblue" stroke="midnightblue" points="1743.51,-158.3 1740.69,-148.09 1736.52,-157.83 1743.51,-158.3"/>
</g>
<!-- Node12 -->
<g id="node12" class="node">
<title>Node12</title>
<g id="a_node12"><a xlink:title=" ">
<polygon fill="white" stroke="#bfbfbf" points="626,-129 626,-148 684,-148 684,-129 626,-129"/>
<text text-anchor="middle" x="655" y="-136" font-family="Helvetica,sans-Serif" font-size="10.00">memory</text>
</a>
</g>
</g>
<!-- Node6&#45;&gt;Node12 -->
<g id="edge12" class="edge">
<title>Node6&#45;&gt;Node12</title>
<path fill="none" stroke="midnightblue" d="M1609.28,-322.06C1463.09,-322.15 824.4,-320.07 748,-277 700.84,-250.42 672.81,-188.81 661.24,-157.89"/>
<polygon fill="midnightblue" stroke="midnightblue" points="664.49,-156.58 657.82,-148.34 657.89,-158.94 664.49,-156.58"/>
</g>
<!-- Node13 -->
<g id="node13" class="node">
<title>Node13</title>
<g id="a_node13"><a xlink:title=" ">
<polygon fill="white" stroke="#bfbfbf" points="1582,-257.5 1582,-276.5 1630,-276.5 1630,-257.5 1582,-257.5"/>
<text text-anchor="middle" x="1606" y="-264.5" font-family="Helvetica,sans-Serif" font-size="10.00">mutex</text>
</a>
</g>
</g>
<!-- Node6&#45;&gt;Node13 -->
<g id="edge13" class="edge">
<title>Node6&#45;&gt;Node13</title>
<path fill="none" stroke="midnightblue" d="M1633.55,-313.08C1628.99,-305.61 1622.33,-294.72 1616.71,-285.52"/>
<polygon fill="midnightblue" stroke="midnightblue" points="1619.55,-283.46 1611.35,-276.75 1613.58,-287.11 1619.55,-283.46"/>
</g>
<!-- Node14 -->
<g id="node14" class="node">
<title>Node14</title>
<g id="a_node14"><a xlink:title=" ">
<polygon fill="white" stroke="#bfbfbf" points="1648.5,-257.5 1648.5,-276.5 1695.5,-276.5 1695.5,-257.5 1648.5,-257.5"/>
<text text-anchor="middle" x="1672" y="-264.5" font-family="Helvetica,sans-Serif" font-size="10.00">queue</text>
</a>
</g>
</g>
<!-- Node6&#45;&gt;Node14 -->
<g id="edge14" class="edge">
<title>Node6&#45;&gt;Node14</title>
<path fill="none" stroke="midnightblue" d="M1644.45,-313.08C1649.01,-305.61 1655.67,-294.72 1661.29,-285.52"/>
<polygon fill="midnightblue" stroke="midnightblue" points="1664.42,-287.11 1666.65,-276.75 1658.45,-283.46 1664.42,-287.11"/>
</g>
<!-- Node15 -->
<g id="node15" class="node">
<title>Node15</title>
<g id="a_node15"><a xlink:title=" ">
<polygon fill="white" stroke="#bfbfbf" points="560.5,-129 560.5,-148 607.5,-148 607.5,-129 560.5,-129"/>
<text text-anchor="middle" x="584" y="-136" font-family="Helvetica,sans-Serif" font-size="10.00">vector</text>
</a>
</g>
</g>
<!-- Node6&#45;&gt;Node15 -->
<g id="edge16" class="edge">
<title>Node6&#45;&gt;Node15</title>
<path fill="none" stroke="midnightblue" d="M1609.44,-321.83C1461.13,-320.8 801.8,-314.15 719,-277 660.89,-250.93 614.54,-187.58 594.6,-156.83"/>
<polygon fill="midnightblue" stroke="midnightblue" points="597.38,-154.66 589.08,-148.07 591.46,-158.4 597.38,-154.66"/>
</g>
<!-- Node16 -->
<g id="node16" class="node">
<title>Node16</title>
<g id="a_node16"><a xlink:href="backend_8h.html" target="_top" xlink:title=" ">
<polygon fill="white" stroke="black" points="0,-129 0,-148 110,-148 110,-129 0,-129"/>
<text text-anchor="middle" x="55" y="-136" font-family="Helvetica,sans-Serif" font-size="10.00">backend/backend.h</text>
</a>
</g>
</g>
<!-- Node6&#45;&gt;Node16 -->
<g id="edge17" class="edge">
<title>Node6&#45;&gt;Node16</title>
<path fill="none" stroke="midnightblue" d="M1609.12,-322.33C1490.1,-323.39 1039.83,-324.24 674,-277 555.47,-261.7 527.77,-246.43 411,-221 297.48,-196.28 164.34,-166.3 97.54,-150.49"/>
<polygon fill="midnightblue" stroke="midnightblue" points="97.94,-146.99 87.4,-148.08 96.31,-153.8 97.94,-146.99"/>
</g>
<!-- Node17 -->
<g id="node17" class="node">
<title>Node17</title>
<g id="a_node17"><a xlink:href="constants_8h.html" target="_top" xlink:title=" ">
<polygon fill="white" stroke="black" points="1118.5,-67.5 1118.5,-86.5 1191.5,-86.5 1191.5,-67.5 1118.5,-67.5"/>
<text text-anchor="middle" x="1155" y="-74.5" font-family="Helvetica,sans-Serif" font-size="10.00">constants.h</text>
</a>
</g>
</g>
<!-- Node6&#45;&gt;Node17 -->
<g id="edge24" class="edge">
<title>Node6&#45;&gt;Node17</title>
<path fill="none" stroke="midnightblue" d="M1668.78,-318.8C1814.4,-302.6 2440.5,-226.35 2341,-123 2300.84,-81.29 1416.54,-78.13 1201.71,-77.98"/>
<polygon fill="midnightblue" stroke="midnightblue" points="1201.71,-74.48 1191.7,-77.98 1201.7,-81.48 1201.71,-74.48"/>
</g>
<!-- Node6&#45;&gt;Node19 -->
<g id="edge25" class="edge">
<title>Node6&#45;&gt;Node19</title>
<path fill="none" stroke="midnightblue" d="M1668.55,-321.46C1793.56,-319 2291.25,-307.73 2699,-277 2712.57,-275.98 2727.35,-274.49 2740.63,-273.03"/>
<polygon fill="midnightblue" stroke="midnightblue" points="2741.37,-276.46 2750.91,-271.86 2740.58,-269.51 2741.37,-276.46"/>
</g>
<!-- Node21 -->
<g id="node21" class="node">
<title>Node21</title>
<g id="a_node21"><a xlink:href="platform__channel_8h.html" target="_top" xlink:title=" ">
<polygon fill="white" stroke="black" points="1878.5,-196 1878.5,-215 1989.5,-215 1989.5,-196 1878.5,-196"/>
<text text-anchor="middle" x="1934" y="-203" font-family="Helvetica,sans-Serif" font-size="10.00">platform_channel.h</text>
</a>
</g>
</g>
<!-- Node6&#45;&gt;Node21 -->
<g id="edge27" class="edge">
<title>Node6&#45;&gt;Node21</title>
<path fill="none" stroke="midnightblue" d="M1664.03,-313.38C1689.36,-304.57 1729.58,-290.32 1764,-277 1813.9,-257.68 1871.26,-233.47 1904.97,-219.03"/>
<polygon fill="midnightblue" stroke="midnightblue" points="1906.42,-222.22 1914.23,-215.06 1903.66,-215.79 1906.42,-222.22"/>
</g>
<!-- Node22 -->
<g id="node22" class="node">
<title>Node22</title>
<g id="a_node22"><a xlink:href="key__event_8h.html" target="_top" xlink:title=" ">
<polygon fill="white" stroke="black" points="1164,-190.5 1164,-220.5 1276,-220.5 1276,-190.5 1164,-190.5"/>
<text text-anchor="start" x="1172" y="-208.5" font-family="Helvetica,sans-Serif" font-size="10.00">static_plugins/key</text>
<text text-anchor="middle" x="1220" y="-197.5" font-family="Helvetica,sans-Serif" font-size="10.00">_event/key_event.h</text>
</a>
</g>
</g>
<!-- Node6&#45;&gt;Node22 -->
<g id="edge31" class="edge">
<title>Node6&#45;&gt;Node22</title>
<path fill="none" stroke="midnightblue" d="M1609.48,-320.58C1521.77,-316.09 1267.03,-301.08 1239,-277 1225.8,-265.66 1221.29,-246.2 1219.95,-230.6"/>
<polygon fill="midnightblue" stroke="midnightblue" points="1223.44,-230.37 1219.46,-220.56 1216.45,-230.71 1223.44,-230.37"/>
</g>
<!-- Node29 -->
<g id="node29" class="node">
<title>Node29</title>
<g id="a_node29"><a xlink:href="text__input_8h.html" target="_top" xlink:title=" ">
<polygon fill="white" stroke="black" points="1752,-190.5 1752,-220.5 1860,-220.5 1860,-190.5 1752,-190.5"/>
<text text-anchor="start" x="1760" y="-208.5" font-family="Helvetica,sans-Serif" font-size="10.00">static_plugins/text</text>
<text text-anchor="middle" x="1806" y="-197.5" font-family="Helvetica,sans-Serif" font-size="10.00">_input/text_input.h</text>
</a>
</g>
</g>
<!-- Node6&#45;&gt;Node29 -->
<g id="edge43" class="edge">
<title>Node6&#45;&gt;Node29</title>
<path fill="none" stroke="midnightblue" d="M1664.39,-313.49C1685.26,-305.81 1715.02,-293.23 1738,-277 1757.34,-263.34 1775.75,-243.69 1788.53,-228.6"/>
<polygon fill="midnightblue" stroke="midnightblue" points="1791.34,-230.69 1795.02,-220.75 1785.95,-226.23 1791.34,-230.69"/>
</g>
<!-- Node33 -->
<g id="node33" class="node">
<title>Node33</title>
<g id="a_node33"><a xlink:href="flutter__view_8h.html" target="_top" xlink:title=" ">
<polygon fill="white" stroke="black" points="757.5,-257.5 757.5,-276.5 866.5,-276.5 866.5,-257.5 757.5,-257.5"/>
<text text-anchor="middle" x="812" y="-264.5" font-family="Helvetica,sans-Serif" font-size="10.00">view/flutter_view.h</text>
</a>
</g>
</g>
<!-- Node6&#45;&gt;Node33 -->
<g id="edge57" class="edge">
<title>Node6&#45;&gt;Node33</title>
<path fill="none" stroke="midnightblue" d="M1609.08,-320.05C1489.59,-312.24 1045.03,-283.22 876.94,-272.24"/>
<polygon fill="midnightblue" stroke="midnightblue" points="876.96,-268.73 866.75,-271.57 876.5,-275.72 876.96,-268.73"/>
</g>
<!-- Node16&#45;&gt;Node3 -->
<g id="edge18" class="edge">
<title>Node16&#45;&gt;Node3</title>
<path fill="none" stroke="midnightblue" d="M87.69,-128.99C97.68,-126.69 108.73,-124.44 119,-123 557.97,-61.29 1971.1,-26.1 2320.38,-18.21"/>
<polygon fill="midnightblue" stroke="midnightblue" points="2320.48,-21.71 2330.4,-17.98 2320.32,-14.71 2320.48,-21.71"/>
</g>
<!-- Node16&#45;&gt;Node6 -->
<g id="edge23" class="edge">
<title>Node16&#45;&gt;Node6</title>
<path fill="none" stroke="midnightblue" d="M97.93,-148.02C167.67,-163 309.25,-194.92 429,-221 545.77,-246.43 573.47,-261.7 692,-277 1041.41,-322.12 1467.86,-323.37 1598.91,-322.47"/>
<polygon fill="midnightblue" stroke="midnightblue" points="1599.28,-325.96 1609.25,-322.39 1599.22,-318.96 1599.28,-325.96"/>
</g>
<!-- Node16&#45;&gt;Node17 -->
<g id="edge19" class="edge">
<title>Node16&#45;&gt;Node17</title>
<path fill="none" stroke="midnightblue" d="M87.35,-128.98C97.42,-126.65 108.61,-124.39 119,-123 314.19,-96.86 932.41,-82.53 1108.05,-78.92"/>
<polygon fill="midnightblue" stroke="midnightblue" points="1108.33,-82.41 1118.25,-78.71 1108.18,-75.42 1108.33,-82.41"/>
</g>
<!-- Node17&#45;&gt;Node3 -->
<g id="edge21" class="edge">
<title>Node17&#45;&gt;Node3</title>
<path fill="none" stroke="midnightblue" d="M1191.69,-68.93C1196.49,-68.18 1201.35,-67.51 1206,-67 1623.88,-21.49 2128.23,-16.39 2319.91,-16.24"/>
<polygon fill="midnightblue" stroke="midnightblue" points="2320.17,-19.74 2330.17,-16.24 2320.17,-12.74 2320.17,-19.74"/>
</g>
<!-- Node17&#45;&gt;Node8 -->
<g id="edge20" class="edge">
<title>Node17&#45;&gt;Node8</title>
<path fill="none" stroke="midnightblue" d="M1191.55,-75.56C1346.85,-73.54 1967.33,-63.74 2476,-31 2513.87,-28.56 2556.89,-24.36 2587.64,-21.1"/>
<polygon fill="midnightblue" stroke="midnightblue" points="2588.41,-24.54 2597.98,-19.99 2587.67,-17.58 2588.41,-24.54"/>
</g>
<!-- Node18 -->
<g id="node18" class="node">
<title>Node18</title>
<g id="a_node18"><a xlink:title=" ">
<polygon fill="white" stroke="#bfbfbf" points="1134,-6 1134,-25 1176,-25 1176,-6 1134,-6"/>
<text text-anchor="middle" x="1155" y="-13" font-family="Helvetica,sans-Serif" font-size="10.00">array</text>
</a>
</g>
</g>
<!-- Node17&#45;&gt;Node18 -->
<g id="edge22" class="edge">
<title>Node17&#45;&gt;Node18</title>
<path fill="none" stroke="midnightblue" d="M1155,-67.48C1155,-59.08 1155,-45.98 1155,-35.16"/>
<polygon fill="midnightblue" stroke="midnightblue" points="1158.5,-35.01 1155,-25.01 1151.5,-35.01 1158.5,-35.01"/>
</g>
<!-- Node20 -->
<g id="node20" class="node">
<title>Node20</title>
<g id="a_node20"><a xlink:title=" ">
<polygon fill="white" stroke="#bfbfbf" points="2769.5,-196 2769.5,-215 2882.5,-215 2882.5,-196 2769.5,-196"/>
<text text-anchor="middle" x="2826" y="-203" font-family="Helvetica,sans-Serif" font-size="10.00">flutter/fml/logging.h</text>
</a>
</g>
</g>
<!-- Node19&#45;&gt;Node20 -->
<g id="edge26" class="edge">
<title>Node19&#45;&gt;Node20</title>
<path fill="none" stroke="midnightblue" d="M2788.3,-257.48C2794.9,-248.55 2805.44,-234.31 2813.69,-223.14"/>
<polygon fill="midnightblue" stroke="midnightblue" points="2816.58,-225.13 2819.71,-215.01 2810.95,-220.97 2816.58,-225.13"/>
</g>
<!-- Node21&#45;&gt;Node3 -->
<g id="edge30" class="edge">
<title>Node21&#45;&gt;Node3</title>
<path fill="none" stroke="midnightblue" d="M1989.51,-204.56C2143.14,-204.14 2565.36,-198.88 2607,-154 2657.82,-99.22 2545.54,-55.8 2467,-33.33"/>
<polygon fill="midnightblue" stroke="midnightblue" points="2467.7,-29.89 2457.12,-30.56 2465.81,-36.63 2467.7,-29.89"/>
</g>
<!-- Node21&#45;&gt;Node4 -->
<g id="edge29" class="edge">
<title>Node21&#45;&gt;Node4</title>
<path fill="none" stroke="midnightblue" d="M1945.06,-195.73C1958.34,-185.21 1980.83,-167.38 1996.93,-154.62"/>
<polygon fill="midnightblue" stroke="midnightblue" points="1999.45,-157.08 2005.12,-148.13 1995.11,-151.6 1999.45,-157.08"/>
</g>
<!-- Node21&#45;&gt;Node11 -->
<g id="edge28" class="edge">
<title>Node21&#45;&gt;Node11</title>
<path fill="none" stroke="midnightblue" d="M1908.37,-195.87C1872.47,-183.78 1807.42,-161.87 1769.86,-149.22"/>
<polygon fill="midnightblue" stroke="midnightblue" points="1770.64,-145.79 1760.04,-145.91 1768.4,-152.42 1770.64,-145.79"/>
</g>
<!-- Node22&#45;&gt;Node3 -->
<g id="edge40" class="edge">
<title>Node22&#45;&gt;Node3</title>
<path fill="none" stroke="midnightblue" d="M1218.74,-190.2C1217.99,-171.65 1219.83,-139.7 1239,-123 1320.36,-52.12 2072.25,-25.4 2320.14,-18.48"/>
<polygon fill="midnightblue" stroke="midnightblue" points="2320.26,-21.97 2330.16,-18.2 2320.06,-14.98 2320.26,-21.97"/>
</g>
<!-- Node22&#45;&gt;Node4 -->
<g id="edge34" class="edge">
<title>Node22&#45;&gt;Node4</title>
<path fill="none" stroke="midnightblue" d="M1276.18,-203.48C1429.2,-200.28 1850.86,-188.5 1985,-154 1986.99,-153.49 1989,-152.85 1991,-152.13"/>
<polygon fill="midnightblue" stroke="midnightblue" points="1992.8,-155.17 2000.65,-148.05 1990.08,-148.72 1992.8,-155.17"/>
</g>
<!-- Node22&#45;&gt;Node11 -->
<g id="edge32" class="edge">
<title>Node22&#45;&gt;Node11</title>
<path fill="none" stroke="midnightblue" d="M1276.09,-201.4C1387.39,-194.82 1632.41,-178.05 1713,-154 1714.48,-153.56 1715.96,-153.04 1717.45,-152.47"/>
<polygon fill="midnightblue" stroke="midnightblue" points="1719.29,-155.47 1726.9,-148.11 1716.36,-149.12 1719.29,-155.47"/>
</g>
<!-- Node22&#45;&gt;Node12 -->
<g id="edge33" class="edge">
<title>Node22&#45;&gt;Node12</title>
<path fill="none" stroke="midnightblue" d="M1163.86,-201.04C1047.05,-193.52 781.37,-174.69 693,-154 690,-153.3 686.92,-152.41 683.88,-151.43"/>
<polygon fill="midnightblue" stroke="midnightblue" points="685,-148.12 674.41,-148.06 682.65,-154.71 685,-148.12"/>
</g>
<!-- Node22&#45;&gt;Node17 -->
<g id="edge42" class="edge">
<title>Node22&#45;&gt;Node17</title>
<path fill="none" stroke="midnightblue" d="M1163.81,-205.1C1073.25,-204.73 901.28,-198.07 863,-154 853.97,-143.6 854.03,-133.46 863,-123 894.06,-86.79 1034.13,-79.44 1108.41,-78.13"/>
<polygon fill="midnightblue" stroke="midnightblue" points="1108.49,-81.63 1118.44,-77.98 1108.39,-74.63 1108.49,-81.63"/>
</g>
<!-- Node23 -->
<g id="node23" class="node">
<title>Node23</title>
<g id="a_node23"><a xlink:title=" ">
<polygon fill="white" stroke="#bfbfbf" points="1068,-123.5 1068,-153.5 1192,-153.5 1192,-123.5 1068,-123.5"/>
<text text-anchor="start" x="1076" y="-141.5" font-family="Helvetica,sans-Serif" font-size="10.00">flutter/basic_message</text>
<text text-anchor="middle" x="1130" y="-130.5" font-family="Helvetica,sans-Serif" font-size="10.00">_channel.h</text>
</a>
</g>
</g>
<!-- Node22&#45;&gt;Node23 -->
<g id="edge35" class="edge">
<title>Node22&#45;&gt;Node23</title>
<path fill="none" stroke="midnightblue" d="M1200.47,-190.4C1187.97,-181.37 1171.56,-169.51 1157.72,-159.52"/>
<polygon fill="midnightblue" stroke="midnightblue" points="1159.65,-156.59 1149.49,-153.58 1155.55,-162.27 1159.65,-156.59"/>
</g>
<!-- Node24 -->
<g id="node24" class="node">
<title>Node24</title>
<g id="a_node24"><a xlink:title=" ">
<polygon fill="white" stroke="#bfbfbf" points="1388.5,-129 1388.5,-148 1535.5,-148 1535.5,-129 1388.5,-129"/>
<text text-anchor="middle" x="1462" y="-136" font-family="Helvetica,sans-Serif" font-size="10.00">flutter/binary_messenger.h</text>
</a>
</g>
</g>
<!-- Node22&#45;&gt;Node24 -->
<g id="edge36" class="edge">
<title>Node22&#45;&gt;Node24</title>
<path fill="none" stroke="midnightblue" d="M1272.21,-190.48C1316.63,-178.55 1379.56,-161.64 1420.57,-150.63"/>
<polygon fill="midnightblue" stroke="midnightblue" points="1421.5,-154 1430.25,-148.03 1419.68,-147.24 1421.5,-154"/>
</g>
<!-- Node25 -->
<g id="node25" class="node">
<title>Node25</title>
<g id="a_node25"><a xlink:title=" ">
<polygon fill="white" stroke="#bfbfbf" points="872,-123.5 872,-153.5 1050,-153.5 1050,-123.5 872,-123.5"/>
<text text-anchor="start" x="880" y="-141.5" font-family="Helvetica,sans-Serif" font-size="10.00">flutter/shell/platform</text>
<text text-anchor="middle" x="961" y="-130.5" font-family="Helvetica,sans-Serif" font-size="10.00">/common/json_message_codec.h</text>
</a>
</g>
</g>
<!-- Node22&#45;&gt;Node25 -->
<g id="edge37" class="edge">
<title>Node22&#45;&gt;Node25</title>
<path fill="none" stroke="midnightblue" d="M1164.12,-190.48C1123.92,-180.39 1069.55,-166.74 1027.17,-156.11"/>
<polygon fill="midnightblue" stroke="midnightblue" points="1027.78,-152.65 1017.23,-153.61 1026.07,-159.44 1027.78,-152.65"/>
</g>
<!-- Node26 -->
<g id="node26" class="node">
<title>Node26</title>
<g id="a_node26"><a xlink:title=" ">
<polygon fill="white" stroke="#bfbfbf" points="702.5,-129 702.5,-148 815.5,-148 815.5,-129 702.5,-129"/>
<text text-anchor="middle" x="759" y="-136" font-family="Helvetica,sans-Serif" font-size="10.00">flutter/fml/macros.h</text>
</a>
</g>
</g>
<!-- Node22&#45;&gt;Node26 -->
<g id="edge38" class="edge">
<title>Node22&#45;&gt;Node26</title>
<path fill="none" stroke="midnightblue" d="M1163.95,-198.54C1088.02,-190.17 948.36,-173.72 830,-154 822.92,-152.82 815.47,-151.45 808.16,-150.02"/>
<polygon fill="midnightblue" stroke="midnightblue" points="808.83,-146.59 798.34,-148.06 807.46,-153.45 808.83,-146.59"/>
</g>
<!-- Node27 -->
<g id="node27" class="node">
<title>Node27</title>
<g id="a_node27"><a xlink:title=" ">
<polygon fill="white" stroke="#bfbfbf" points="1248,-129 1248,-148 1370,-148 1370,-129 1248,-129"/>
<text text-anchor="middle" x="1309" y="-136" font-family="Helvetica,sans-Serif" font-size="10.00">rapidjson/document.h</text>
</a>
</g>
</g>
<!-- Node22&#45;&gt;Node27 -->
<g id="edge39" class="edge">
<title>Node22&#45;&gt;Node27</title>
<path fill="none" stroke="midnightblue" d="M1239.31,-190.4C1253.96,-179.7 1274.04,-165.03 1288.88,-154.19"/>
<polygon fill="midnightblue" stroke="midnightblue" points="1291.34,-156.73 1297.35,-148.01 1287.21,-151.08 1291.34,-156.73"/>
</g>
<!-- Node28 -->
<g id="node28" class="node">
<title>Node28</title>
<g id="a_node28"><a xlink:title=" ">
<polygon fill="white" stroke="#bfbfbf" points="1554,-129 1554,-148 1704,-148 1704,-129 1554,-129"/>
<text text-anchor="middle" x="1629" y="-136" font-family="Helvetica,sans-Serif" font-size="10.00">xkbcommon/xkbcommon.h</text>
</a>
</g>
</g>
<!-- Node22&#45;&gt;Node28 -->
<g id="edge41" class="edge">
<title>Node22&#45;&gt;Node28</title>
<path fill="none" stroke="midnightblue" d="M1276.23,-195.99C1340.88,-186.14 1450.17,-169.31 1544,-154 1552.28,-152.65 1561.01,-151.19 1569.6,-149.74"/>
<polygon fill="midnightblue" stroke="midnightblue" points="1570.3,-153.18 1579.58,-148.05 1569.13,-146.27 1570.3,-153.18"/>
</g>
<!-- Node29&#45;&gt;Node3 -->
<g id="edge54" class="edge">
<title>Node29&#45;&gt;Node3</title>
<path fill="none" stroke="midnightblue" d="M1860.2,-191.48C1863.17,-190.94 1866.12,-190.44 1869,-190 1972.99,-174.16 2255.62,-215.45 2341,-154 2377.87,-127.46 2391.44,-72.78 2396.33,-40.95"/>
<polygon fill="midnightblue" stroke="midnightblue" points="2399.84,-41.11 2397.73,-30.73 2392.91,-40.17 2399.84,-41.11"/>
</g>
<!-- Node29&#45;&gt;Node4 -->
<g id="edge46" class="edge">
<title>Node29&#45;&gt;Node4</title>
<path fill="none" stroke="midnightblue" d="M1860.39,-191.61C1896.25,-182.51 1943.99,-169.26 1985,-154 1986.43,-153.47 1987.88,-152.9 1989.34,-152.3"/>
<polygon fill="midnightblue" stroke="midnightblue" points="1991.08,-155.36 1998.83,-148.14 1988.27,-148.95 1991.08,-155.36"/>
</g>
<!-- Node29&#45;&gt;Node5 -->
<g id="edge51" class="edge">
<title>Node29&#45;&gt;Node5</title>
<path fill="none" stroke="midnightblue" d="M1860.19,-191.45C1863.16,-190.91 1866.11,-190.42 1869,-190 2108.72,-154.71 2172.03,-179.4 2413,-154 2414.47,-153.84 2415.96,-153.68 2417.45,-153.52"/>
<polygon fill="midnightblue" stroke="midnightblue" points="2417.88,-156.99 2427.41,-152.36 2417.07,-150.04 2417.88,-156.99"/>
</g>
<!-- Node29&#45;&gt;Node11 -->
<g id="edge44" class="edge">
<title>Node29&#45;&gt;Node11</title>
<path fill="none" stroke="midnightblue" d="M1791.9,-190.4C1781.56,-180.06 1767.52,-166.02 1756.81,-155.31"/>
<polygon fill="midnightblue" stroke="midnightblue" points="1759.24,-152.79 1749.69,-148.19 1754.29,-157.74 1759.24,-152.79"/>
</g>
<!-- Node29&#45;&gt;Node12 -->
<g id="edge45" class="edge">
<title>Node29&#45;&gt;Node12</title>
<path fill="none" stroke="midnightblue" d="M1751.98,-203.06C1543.42,-197.36 797.1,-175.64 693,-154 689.92,-153.36 686.76,-152.5 683.64,-151.52"/>
<polygon fill="midnightblue" stroke="midnightblue" points="684.57,-148.14 673.97,-148.1 682.23,-154.74 684.57,-148.14"/>
</g>
<!-- Node29&#45;&gt;Node17 -->
<g id="edge56" class="edge">
<title>Node29&#45;&gt;Node17</title>
<path fill="none" stroke="midnightblue" d="M1803.99,-190.18C1800.51,-171.3 1791.43,-138.64 1769,-123 1722.86,-90.83 1337.4,-81.14 1201.89,-78.71"/>
<polygon fill="midnightblue" stroke="midnightblue" points="1201.88,-75.21 1191.82,-78.53 1201.76,-82.21 1201.88,-75.21"/>
</g>
<!-- Node29&#45;&gt;Node24 -->
<g id="edge47" class="edge">
<title>Node29&#45;&gt;Node24</title>
<path fill="none" stroke="midnightblue" d="M1751.87,-194.27C1687.75,-182.16 1581.53,-162.09 1517.02,-149.9"/>
<polygon fill="midnightblue" stroke="midnightblue" points="1517.52,-146.43 1507.04,-148.01 1516.22,-153.31 1517.52,-146.43"/>
</g>
<!-- Node29&#45;&gt;Node26 -->
<g id="edge50" class="edge">
<title>Node29&#45;&gt;Node26</title>
<path fill="none" stroke="midnightblue" d="M1751.93,-203.21C1607.4,-199.43 1200.2,-186.48 863,-154 850.33,-152.78 836.83,-151.15 823.9,-149.42"/>
<polygon fill="midnightblue" stroke="midnightblue" points="824.06,-145.91 813.68,-148.01 823.11,-152.84 824.06,-145.91"/>
</g>
<!-- Node29&#45;&gt;Node27 -->
<g id="edge53" class="edge">
<title>Node29&#45;&gt;Node27</title>
<path fill="none" stroke="midnightblue" d="M1751.87,-199.61C1670.6,-191.93 1512.37,-175.66 1379,-154 1371.84,-152.84 1364.3,-151.45 1356.93,-150"/>
<polygon fill="midnightblue" stroke="midnightblue" points="1357.53,-146.55 1347.04,-148 1356.14,-153.41 1357.53,-146.55"/>
</g>
<!-- Node29&#45;&gt;Node28 -->
<g id="edge55" class="edge">
<title>Node29&#45;&gt;Node28</title>
<path fill="none" stroke="midnightblue" d="M1767.59,-190.4C1735.99,-178.79 1691.67,-162.51 1661.73,-151.52"/>
<polygon fill="midnightblue" stroke="midnightblue" points="1662.76,-148.17 1652.17,-148.01 1660.35,-154.74 1662.76,-148.17"/>
</g>
<!-- Node30 -->
<g id="node30" class="node">
<title>Node30</title>
<g id="a_node30"><a xlink:title=" ">
<polygon fill="white" stroke="#bfbfbf" points="2056.5,-129 2056.5,-148 2195.5,-148 2195.5,-129 2056.5,-129"/>
<text text-anchor="middle" x="2126" y="-136" font-family="Helvetica,sans-Serif" font-size="10.00">flutter/method_channel.h</text>
</a>
</g>
</g>
<!-- Node29&#45;&gt;Node30 -->
<g id="edge48" class="edge">
<title>Node29&#45;&gt;Node30</title>
<path fill="none" stroke="midnightblue" d="M1860.27,-191.89C1863.22,-191.24 1866.15,-190.61 1869,-190 1938,-175.28 2017.77,-159.86 2069.9,-149.98"/>
<polygon fill="midnightblue" stroke="midnightblue" points="2070.77,-153.38 2079.95,-148.09 2069.47,-146.5 2070.77,-153.38"/>
</g>
<!-- Node31 -->
<g id="node31" class="node">
<title>Node31</title>
<g id="a_node31"><a xlink:title=" ">
<polygon fill="white" stroke="#bfbfbf" points="2213.5,-123.5 2213.5,-153.5 2332.5,-153.5 2332.5,-123.5 2213.5,-123.5"/>
<text text-anchor="start" x="2221.5" y="-141.5" font-family="Helvetica,sans-Serif" font-size="10.00">flutter/method_result</text>
<text text-anchor="middle" x="2273" y="-130.5" font-family="Helvetica,sans-Serif" font-size="10.00">_functions.h</text>
</a>
</g>
</g>
<!-- Node29&#45;&gt;Node31 -->
<g id="edge49" class="edge">
<title>Node29&#45;&gt;Node31</title>
<path fill="none" stroke="midnightblue" d="M1860.21,-191.59C1863.18,-191.02 1866.12,-190.48 1869,-190 2013.5,-165.7 2054.35,-176.92 2203.26,-154"/>
<polygon fill="midnightblue" stroke="midnightblue" points="2203.89,-157.45 2213.23,-152.44 2202.81,-150.53 2203.89,-157.45"/>
</g>
<!-- Node32 -->
<g id="node32" class="node">
<title>Node32</title>
<g id="a_node32"><a xlink:title=" ">
<polygon fill="white" stroke="#bfbfbf" points="1816,-123.5 1816,-153.5 1976,-153.5 1976,-123.5 1816,-123.5"/>
<text text-anchor="start" x="1824" y="-141.5" font-family="Helvetica,sans-Serif" font-size="10.00">flutter/shell/platform</text>
<text text-anchor="middle" x="1896" y="-130.5" font-family="Helvetica,sans-Serif" font-size="10.00">/common/text_input_model.h</text>
</a>
</g>
</g>
<!-- Node29&#45;&gt;Node32 -->
<g id="edge52" class="edge">
<title>Node29&#45;&gt;Node32</title>
<path fill="none" stroke="midnightblue" d="M1825.53,-190.4C1838.03,-181.37 1854.44,-169.51 1868.28,-159.52"/>
<polygon fill="midnightblue" stroke="midnightblue" points="1870.45,-162.27 1876.51,-153.58 1866.35,-156.59 1870.45,-162.27"/>
</g>
<!-- Node33&#45;&gt;Node11 -->
<g id="edge58" class="edge">
<title>Node33&#45;&gt;Node11</title>
<path fill="none" stroke="midnightblue" d="M866.63,-266.42C1009.52,-265.99 1404.61,-255.02 1713,-154 1714.43,-153.53 1715.88,-153 1717.32,-152.41"/>
<polygon fill="midnightblue" stroke="midnightblue" points="1718.98,-155.5 1726.57,-148.1 1716.02,-149.16 1718.98,-155.5"/>
</g>
<!-- Node33&#45;&gt;Node12 -->
<g id="edge59" class="edge">
<title>Node33&#45;&gt;Node12</title>
<path fill="none" stroke="midnightblue" d="M801.21,-257.31C774.88,-236.09 707.08,-181.46 673.88,-154.72"/>
<polygon fill="midnightblue" stroke="midnightblue" points="675.85,-151.8 665.87,-148.26 671.46,-157.26 675.85,-151.8"/>
</g>
<!-- Node33&#45;&gt;Node26 -->
<g id="edge65" class="edge">
<title>Node33&#45;&gt;Node26</title>
<path fill="none" stroke="midnightblue" d="M803.75,-257.42C795.98,-248.87 784.56,-235.01 778,-221 768.59,-200.9 763.64,-175.77 761.19,-158.77"/>
<polygon fill="midnightblue" stroke="midnightblue" points="764.61,-157.93 759.86,-148.46 757.66,-158.83 764.61,-157.93"/>
</g>
<!-- Node34 -->
<g id="node34" class="node">
<title>Node34</title>
<g id="a_node34"><a xlink:href="configuration_8h.html" target="_top" xlink:title=" ">
<polygon fill="white" stroke="black" points="787,-196 787,-215 943,-215 943,-196 787,-196"/>
<text text-anchor="middle" x="865" y="-203" font-family="Helvetica,sans-Serif" font-size="10.00">configuration/configuration.h</text>
</a>
</g>
</g>
<!-- Node33&#45;&gt;Node34 -->
<g id="edge60" class="edge">
<title>Node33&#45;&gt;Node34</title>
<path fill="none" stroke="midnightblue" d="M819.59,-257.48C827.7,-248.37 840.73,-233.74 850.76,-222.48"/>
<polygon fill="midnightblue" stroke="midnightblue" points="853.38,-224.8 857.42,-215.01 848.16,-220.15 853.38,-224.8"/>
</g>
<!-- Node35 -->
<g id="node35" class="node">
<title>Node35</title>
<g id="a_node35"><a xlink:href="window_8h.html" target="_top" xlink:title=" ">
<polygon fill="white" stroke="black" points="429.5,-196 429.5,-215 536.5,-215 536.5,-196 429.5,-196"/>
<text text-anchor="middle" x="483" y="-203" font-family="Helvetica,sans-Serif" font-size="10.00">wayland/window.h</text>
</a>
</g>
</g>
<!-- Node33&#45;&gt;Node35 -->
<g id="edge66" class="edge">
<title>Node33&#45;&gt;Node35</title>
<path fill="none" stroke="midnightblue" d="M764.86,-257.48C705.5,-246.74 603.58,-228.31 539.92,-216.79"/>
<polygon fill="midnightblue" stroke="midnightblue" points="540.51,-213.34 530.05,-215.01 539.27,-220.23 540.51,-213.34"/>
</g>
<!-- Node34&#45;&gt;Node4 -->
<g id="edge61" class="edge">
<title>Node34&#45;&gt;Node4</title>
<path fill="none" stroke="midnightblue" d="M943.15,-200.45C1001.52,-197.46 1083.24,-193.35 1155,-190 1339.42,-181.39 1805.69,-197.96 1985,-154 1986.99,-153.51 1989.01,-152.89 1991.01,-152.18"/>
<polygon fill="midnightblue" stroke="midnightblue" points="1992.81,-155.23 2000.67,-148.13 1990.09,-148.77 1992.81,-155.23"/>
</g>
<!-- Node34&#45;&gt;Node15 -->
<g id="edge62" class="edge">
<title>Node34&#45;&gt;Node15</title>
<path fill="none" stroke="midnightblue" d="M805.22,-195.99C754.41,-187.9 679.92,-173.98 617,-154 615.08,-153.39 613.11,-152.7 611.15,-151.97"/>
<polygon fill="midnightblue" stroke="midnightblue" points="612.12,-148.58 601.54,-148.04 609.47,-155.06 612.12,-148.58"/>
</g>
<!-- Node34&#45;&gt;Node26 -->
<g id="edge63" class="edge">
<title>Node34&#45;&gt;Node26</title>
<path fill="none" stroke="midnightblue" d="M850.7,-195.73C832.98,-184.87 802.57,-166.22 781.66,-153.39"/>
<polygon fill="midnightblue" stroke="midnightblue" points="783.42,-150.37 773.07,-148.13 779.76,-156.34 783.42,-150.37"/>
</g>
<!-- Node34&#45;&gt;Node27 -->
<g id="edge64" class="edge">
<title>Node34&#45;&gt;Node27</title>
<path fill="none" stroke="midnightblue" d="M923.5,-195.94C1005.39,-183.95 1153.86,-162.21 1240.7,-149.5"/>
<polygon fill="midnightblue" stroke="midnightblue" points="1241.33,-152.94 1250.72,-148.03 1240.32,-146.02 1241.33,-152.94"/>
</g>
<!-- Node35&#45;&gt;Node4 -->
<g id="edge68" class="edge">
<title>Node35&#45;&gt;Node4</title>
<path fill="none" stroke="midnightblue" d="M536.55,-201.56C595.64,-198.38 693.59,-193.33 778,-190 912.07,-184.71 1854.48,-185.07 1985,-154 1987.21,-153.47 1989.45,-152.78 1991.66,-151.99"/>
<polygon fill="midnightblue" stroke="midnightblue" points="1993.16,-155.15 2001,-148.02 1990.42,-148.71 1993.16,-155.15"/>
</g>
<!-- Node35&#45;&gt;Node12 -->
<g id="edge67" class="edge">
<title>Node35&#45;&gt;Node12</title>
<path fill="none" stroke="midnightblue" d="M505.84,-195.87C535.87,-184.52 588.78,-164.52 622.84,-151.65"/>
<polygon fill="midnightblue" stroke="midnightblue" points="624.22,-154.87 632.34,-148.06 621.75,-148.32 624.22,-154.87"/>
</g>
<!-- Node35&#45;&gt;Node16 -->
<g id="edge72" class="edge">
<title>Node35&#45;&gt;Node16</title>
<path fill="none" stroke="midnightblue" d="M429.42,-198.51C358.23,-190.22 228.68,-174 119,-154 112.82,-152.87 106.34,-151.56 99.96,-150.19"/>
<polygon fill="midnightblue" stroke="midnightblue" points="100.62,-146.75 90.1,-148.02 99.11,-153.59 100.62,-146.75"/>
</g>
<!-- Node35&#45;&gt;Node17 -->
<g id="edge71" class="edge">
<title>Node35&#45;&gt;Node17</title>
<path fill="none" stroke="midnightblue" d="M487.16,-195.89C496.08,-178.52 518.88,-139.52 551,-123 600.05,-97.78 974.43,-83.67 1107.91,-79.4"/>
<polygon fill="midnightblue" stroke="midnightblue" points="1108.33,-82.89 1118.21,-79.08 1108.11,-75.89 1108.33,-82.89"/>
</g>
<!-- Node36 -->
<g id="node36" class="node">
<title>Node36</title>
<g id="a_node36"><a xlink:title=" ">
<polygon fill="white" stroke="#bfbfbf" points="292,-129 292,-148 344,-148 344,-129 292,-129"/>
<text text-anchor="middle" x="318" y="-136" font-family="Helvetica,sans-Serif" font-size="10.00">cassert</text>
</a>
</g>
</g>
<!-- Node35&#45;&gt;Node36 -->
<g id="edge69" class="edge">
<title>Node35&#45;&gt;Node36</title>
<path fill="none" stroke="midnightblue" d="M460.39,-195.89C434.41,-185.96 390.53,-169.06 353,-154 351.36,-153.34 349.69,-152.66 347.99,-151.98"/>
<polygon fill="midnightblue" stroke="midnightblue" points="348.91,-148.57 338.33,-148.01 346.25,-155.04 348.91,-148.57"/>
</g>
<!-- Node37 -->
<g id="node37" class="node">
<title>Node37</title>
<g id="a_node37"><a xlink:title=" ">
<polygon fill="white" stroke="#bfbfbf" points="362,-129 362,-148 504,-148 504,-129 362,-129"/>
<text text-anchor="middle" x="433" y="-136" font-family="Helvetica,sans-Serif" font-size="10.00">agl&#45;shell&#45;client&#45;protocol.h</text>
</a>
</g>
</g>
<!-- Node35&#45;&gt;Node37 -->
<g id="edge70" class="edge">
<title>Node35&#45;&gt;Node37</title>
<path fill="none" stroke="midnightblue" d="M476.26,-195.73C468.46,-185.6 455.45,-168.69 445.74,-156.06"/>
<polygon fill="midnightblue" stroke="midnightblue" points="448.51,-153.92 439.64,-148.13 442.96,-158.19 448.51,-153.92"/>
</g>
<!-- Node38 -->
<g id="node38" class="node">
<title>Node38</title>
<g id="a_node38"><a xlink:title=" ">
<polygon fill="white" stroke="#bfbfbf" points="128.5,-129 128.5,-148 273.5,-148 273.5,-129 128.5,-129"/>
<text text-anchor="middle" x="201" y="-136" font-family="Helvetica,sans-Serif" font-size="10.00">xdg&#45;shell&#45;client&#45;protocol.h</text>
</a>
</g>
</g>
<!-- Node35&#45;&gt;Node38 -->
<g id="edge73" class="edge">
<title>Node35&#45;&gt;Node38</title>
<path fill="none" stroke="midnightblue" d="M445.84,-195.94C395.02,-184.22 303.79,-163.19 248.19,-150.38"/>
<polygon fill="midnightblue" stroke="midnightblue" points="248.77,-146.92 238.24,-148.08 247.2,-153.74 248.77,-146.92"/>
</g>
</g>
</svg>
