<?xml version="1.0" encoding="UTF-8" standalone="no"?>
<!DOCTYPE svg PUBLIC "-//W3C//DTD SVG 1.1//EN"
 "http://www.w3.org/Graphics/SVG/1.1/DTD/svg11.dtd">
<!-- Generated by graphviz version 2.43.0 (0)
 -->
<!-- Title: /home/joel.winarske@toyotaconnected.com/development/stargate/ivi&#45;homescreen/shell/static_plugins/restoration/restoration.h Pages: 1 -->
<svg width="151pt" height="150pt"
 viewBox="0.00 0.00 151.00 150.00" xmlns="http://www.w3.org/2000/svg" xmlns:xlink="http://www.w3.org/1999/xlink">
<g id="graph0" class="graph" transform="scale(1 1) rotate(0) translate(4 146)">
<title>/home/joel.winarske@toyotaconnected.com/development/stargate/ivi&#45;homescreen/shell/static_plugins/restoration/restoration.h</title>
<polygon fill="white" stroke="transparent" points="-4,4 -4,-146 147,-146 147,4 -4,4"/>
<!-- Node1 -->
<g id="node1" class="node">
<title>Node1</title>
<g id="a_node1"><a xlink:title=" ">
<polygon fill="#bfbfbf" stroke="black" points="0,-67.5 0,-141.5 143,-141.5 143,-67.5 0,-67.5"/>
<text text-anchor="start" x="8" y="-129.5" font-family="Helvetica,sans-Serif" font-size="10.00">/home/joel.winarske</text>
<text text-anchor="start" x="8" y="-118.5" font-family="Helvetica,sans-Serif" font-size="10.00">@toyotaconnected.com</text>
<text text-anchor="start" x="8" y="-107.5" font-family="Helvetica,sans-Serif" font-size="10.00">/development/stargate</text>
<text text-anchor="start" x="8" y="-96.5" font-family="Helvetica,sans-Serif" font-size="10.00">/ivi&#45;homescreen/shell</text>
<text text-anchor="start" x="8" y="-85.5" font-family="Helvetica,sans-Serif" font-size="10.00">/static_plugins/restoration</text>
<text text-anchor="middle" x="71.5" y="-74.5" font-family="Helvetica,sans-Serif" font-size="10.00">/restoration.h</text>
</a>
</g>
</g>
<!-- Node2 -->
<g id="node2" class="node">
<title>Node2</title>
<g id="a_node2"><a xlink:title=" ">
<polygon fill="white" stroke="#bfbfbf" points="3,-0.5 3,-30.5 140,-30.5 140,-0.5 3,-0.5"/>
<text text-anchor="start" x="11" y="-18.5" font-family="Helvetica,sans-Serif" font-size="10.00">shell/platform/embedder</text>
<text text-anchor="middle" x="71.5" y="-7.5" font-family="Helvetica,sans-Serif" font-size="10.00">/embedder.h</text>
</a>
</g>
</g>
<!-- Node1&#45;&gt;Node2 -->
<g id="edge1" class="edge">
<title>Node1&#45;&gt;Node2</title>
<path fill="none" stroke="midnightblue" d="M71.5,-67.36C71.5,-58.4 71.5,-49.01 71.5,-40.78"/>
<polygon fill="midnightblue" stroke="midnightblue" points="75,-40.74 71.5,-30.74 68,-40.74 75,-40.74"/>
</g>
</g>
</svg>
