<?xml version="1.0" encoding="UTF-8" standalone="no"?>
<!DOCTYPE svg PUBLIC "-//W3C//DTD SVG 1.1//EN"
 "http://www.w3.org/Graphics/SVG/1.1/DTD/svg11.dtd">
<!-- Generated by graphviz version 2.43.0 (0)
 -->
<!-- Title: /home/joel.winarske@toyotaconnected.com/development/stargate/ivi&#45;homescreen/shell/static_plugins/secure_storage/secure_storage.h Pages: 1 -->
<svg width="774pt" height="262pt"
 viewBox="0.00 0.00 774.00 262.00" xmlns="http://www.w3.org/2000/svg" xmlns:xlink="http://www.w3.org/1999/xlink">
<g id="graph0" class="graph" transform="scale(1 1) rotate(0) translate(4 258)">
<title>/home/joel.winarske@toyotaconnected.com/development/stargate/ivi&#45;homescreen/shell/static_plugins/secure_storage/secure_storage.h</title>
<polygon fill="white" stroke="transparent" points="-4,4 -4,-258 770,-258 770,4 -4,4"/>
<!-- Node1 -->
<g id="node1" class="node">
<title>Node1</title>
<g id="a_node1"><a xlink:title=" ">
<polygon fill="#bfbfbf" stroke="black" points="172,-179.5 172,-253.5 317,-253.5 317,-179.5 172,-179.5"/>
<text text-anchor="start" x="180" y="-241.5" font-family="Helvetica,sans-Serif" font-size="10.00">/home/joel.winarske</text>
<text text-anchor="start" x="180" y="-230.5" font-family="Helvetica,sans-Serif" font-size="10.00">@toyotaconnected.com</text>
<text text-anchor="start" x="180" y="-219.5" font-family="Helvetica,sans-Serif" font-size="10.00">/development/stargate</text>
<text text-anchor="start" x="180" y="-208.5" font-family="Helvetica,sans-Serif" font-size="10.00">/ivi&#45;homescreen/shell</text>
<text text-anchor="start" x="180" y="-197.5" font-family="Helvetica,sans-Serif" font-size="10.00">/static_plugins/secure</text>
<text text-anchor="middle" x="244.5" y="-186.5" font-family="Helvetica,sans-Serif" font-size="10.00">_storage/secure_storage.h</text>
</a>
</g>
</g>
<!-- Node2 -->
<g id="node2" class="node">
<title>Node2</title>
<g id="a_node2"><a xlink:title=" ">
<polygon fill="white" stroke="#bfbfbf" points="0,-112.5 0,-142.5 137,-142.5 137,-112.5 0,-112.5"/>
<text text-anchor="start" x="8" y="-130.5" font-family="Helvetica,sans-Serif" font-size="10.00">shell/platform/embedder</text>
<text text-anchor="middle" x="68.5" y="-119.5" font-family="Helvetica,sans-Serif" font-size="10.00">/embedder.h</text>
</a>
</g>
</g>
<!-- Node1&#45;&gt;Node2 -->
<g id="edge1" class="edge">
<title>Node1&#45;&gt;Node2</title>
<path fill="none" stroke="midnightblue" d="M171.9,-179.61C149.28,-168.43 125.25,-156.55 106.06,-147.07"/>
<polygon fill="midnightblue" stroke="midnightblue" points="107.57,-143.91 97.06,-142.62 104.47,-150.18 107.57,-143.91"/>
</g>
<!-- Node3 -->
<g id="node3" class="node">
<title>Node3</title>
<g id="a_node3"><a xlink:title=" ">
<polygon fill="white" stroke="#bfbfbf" points="155.5,-118 155.5,-137 203.5,-137 203.5,-118 155.5,-118"/>
<text text-anchor="middle" x="179.5" y="-125" font-family="Helvetica,sans-Serif" font-size="10.00">mutex</text>
</a>
</g>
</g>
<!-- Node1&#45;&gt;Node3 -->
<g id="edge2" class="edge">
<title>Node1&#45;&gt;Node3</title>
<path fill="none" stroke="midnightblue" d="M217.5,-179.36C208.72,-167.61 199.4,-155.13 192.18,-145.47"/>
<polygon fill="midnightblue" stroke="midnightblue" points="194.78,-143.11 185.99,-137.19 189.17,-147.3 194.78,-143.11"/>
</g>
<!-- Node4 -->
<g id="node4" class="node">
<title>Node4</title>
<g id="a_node4"><a xlink:title=" ">
<polygon fill="white" stroke="#bfbfbf" points="222,-118 222,-137 267,-137 267,-118 222,-118"/>
<text text-anchor="middle" x="244.5" y="-125" font-family="Helvetica,sans-Serif" font-size="10.00">utility</text>
</a>
</g>
</g>
<!-- Node1&#45;&gt;Node4 -->
<g id="edge3" class="edge">
<title>Node1&#45;&gt;Node4</title>
<path fill="none" stroke="midnightblue" d="M244.5,-179.36C244.5,-168.34 244.5,-156.67 244.5,-147.3"/>
<polygon fill="midnightblue" stroke="midnightblue" points="248,-147.19 244.5,-137.19 241,-147.19 248,-147.19"/>
</g>
<!-- Node5 -->
<g id="node5" class="node">
<title>Node5</title>
<g id="a_node5"><a xlink:title=" ">
<polygon fill="white" stroke="#bfbfbf" points="285.5,-118 285.5,-137 425.5,-137 425.5,-118 285.5,-118"/>
<text text-anchor="middle" x="355.5" y="-125" font-family="Helvetica,sans-Serif" font-size="10.00">flutter/encodable_value.h</text>
</a>
</g>
</g>
<!-- Node1&#45;&gt;Node5 -->
<g id="edge4" class="edge">
<title>Node1&#45;&gt;Node5</title>
<path fill="none" stroke="midnightblue" d="M290.61,-179.36C306.68,-166.77 323.83,-153.33 336.46,-143.43"/>
<polygon fill="midnightblue" stroke="midnightblue" points="338.7,-146.11 344.41,-137.19 334.38,-140.61 338.7,-146.11"/>
</g>
<!-- Node6 -->
<g id="node6" class="node">
<title>Node6</title>
<g id="a_node6"><a xlink:href="keyring_8h.html" target="_top" xlink:title=" ">
<polygon fill="white" stroke="black" points="443.5,-118 443.5,-137 505.5,-137 505.5,-118 443.5,-118"/>
<text text-anchor="middle" x="474.5" y="-125" font-family="Helvetica,sans-Serif" font-size="10.00">keyring.h</text>
</a>
</g>
</g>
<!-- Node1&#45;&gt;Node6 -->
<g id="edge5" class="edge">
<title>Node1&#45;&gt;Node6</title>
<path fill="none" stroke="midnightblue" d="M317.27,-187.97C359.38,-172.05 410.25,-152.8 442.49,-140.61"/>
<polygon fill="midnightblue" stroke="midnightblue" points="443.76,-143.87 451.87,-137.06 441.28,-137.32 443.76,-143.87"/>
</g>
<!-- Node7 -->
<g id="node7" class="node">
<title>Node7</title>
<g id="a_node7"><a xlink:title=" ">
<polygon fill="white" stroke="#bfbfbf" points="345,-0.5 345,-19.5 446,-19.5 446,-0.5 345,-0.5"/>
<text text-anchor="middle" x="395.5" y="-7.5" font-family="Helvetica,sans-Serif" font-size="10.00">libsecret/secret.h</text>
</a>
</g>
</g>
<!-- Node6&#45;&gt;Node7 -->
<g id="edge6" class="edge">
<title>Node6&#45;&gt;Node7</title>
<path fill="none" stroke="midnightblue" d="M453.13,-117.96C447.17,-115.8 440.64,-113.63 434.5,-112 388.95,-99.92 255.86,-112.04 225.5,-76 191.7,-35.88 273.23,-20.46 334.72,-14.58"/>
<polygon fill="midnightblue" stroke="midnightblue" points="335.13,-18.06 344.78,-13.68 334.51,-11.08 335.13,-18.06"/>
</g>
<!-- Node8 -->
<g id="node8" class="node">
<title>Node8</title>
<g id="a_node8"><a xlink:title=" ">
<polygon fill="white" stroke="#bfbfbf" points="234.5,-56.5 234.5,-75.5 356.5,-75.5 356.5,-56.5 234.5,-56.5"/>
<text text-anchor="middle" x="295.5" y="-63.5" font-family="Helvetica,sans-Serif" font-size="10.00">rapidjson/document.h</text>
</a>
</g>
</g>
<!-- Node6&#45;&gt;Node8 -->
<g id="edge7" class="edge">
<title>Node6&#45;&gt;Node8</title>
<path fill="none" stroke="midnightblue" d="M451.28,-117.93C445.79,-115.95 439.95,-113.87 434.5,-112 400.1,-100.2 360.62,-87.5 332.55,-78.61"/>
<polygon fill="midnightblue" stroke="midnightblue" points="333.35,-75.19 322.76,-75.52 331.24,-81.87 333.35,-75.19"/>
</g>
<!-- Node9 -->
<g id="node9" class="node">
<title>Node9</title>
<g id="a_node9"><a xlink:title=" ">
<polygon fill="white" stroke="#bfbfbf" points="375,-56.5 375,-75.5 476,-75.5 476,-56.5 375,-56.5"/>
<text text-anchor="middle" x="425.5" y="-63.5" font-family="Helvetica,sans-Serif" font-size="10.00">rapidjson/writer.h</text>
</a>
</g>
</g>
<!-- Node6&#45;&gt;Node9 -->
<g id="edge8" class="edge">
<title>Node6&#45;&gt;Node9</title>
<path fill="none" stroke="midnightblue" d="M467.48,-117.98C460.06,-108.96 448.17,-94.52 438.93,-83.31"/>
<polygon fill="midnightblue" stroke="midnightblue" points="441.57,-81 432.51,-75.51 436.16,-85.45 441.57,-81"/>
</g>
<!-- Node10 -->
<g id="node10" class="node">
<title>Node10</title>
<g id="a_node10"><a xlink:title=" ">
<polygon fill="white" stroke="#bfbfbf" points="494.5,-56.5 494.5,-75.5 552.5,-75.5 552.5,-56.5 494.5,-56.5"/>
<text text-anchor="middle" x="523.5" y="-63.5" font-family="Helvetica,sans-Serif" font-size="10.00">memory</text>
</a>
</g>
</g>
<!-- Node6&#45;&gt;Node10 -->
<g id="edge9" class="edge">
<title>Node6&#45;&gt;Node10</title>
<path fill="none" stroke="midnightblue" d="M481.52,-117.98C488.94,-108.96 500.83,-94.52 510.07,-83.31"/>
<polygon fill="midnightblue" stroke="midnightblue" points="512.84,-85.45 516.49,-75.51 507.43,-81 512.84,-85.45"/>
</g>
<!-- Node11 -->
<g id="node11" class="node">
<title>Node11</title>
<g id="a_node11"><a xlink:href="g__hash__table_8h.html" target="_top" xlink:title=" ">
<polygon fill="white" stroke="black" points="570.5,-56.5 570.5,-75.5 660.5,-75.5 660.5,-56.5 570.5,-56.5"/>
<text text-anchor="middle" x="615.5" y="-63.5" font-family="Helvetica,sans-Serif" font-size="10.00">g_hash_table.h</text>
</a>
</g>
</g>
<!-- Node6&#45;&gt;Node11 -->
<g id="edge10" class="edge">
<title>Node6&#45;&gt;Node11</title>
<path fill="none" stroke="midnightblue" d="M494.7,-117.98C518.57,-107.9 558.5,-91.05 585.87,-79.5"/>
<polygon fill="midnightblue" stroke="midnightblue" points="587.48,-82.62 595.34,-75.51 584.76,-76.17 587.48,-82.62"/>
</g>
<!-- Node12 -->
<g id="node12" class="node">
<title>Node12</title>
<g id="a_node12"><a xlink:href="logging_8h.html" target="_top" xlink:title=" ">
<polygon fill="white" stroke="black" points="678.5,-56.5 678.5,-75.5 740.5,-75.5 740.5,-56.5 678.5,-56.5"/>
<text text-anchor="middle" x="709.5" y="-63.5" font-family="Helvetica,sans-Serif" font-size="10.00">logging.h</text>
</a>
</g>
</g>
<!-- Node6&#45;&gt;Node12 -->
<g id="edge12" class="edge">
<title>Node6&#45;&gt;Node12</title>
<path fill="none" stroke="midnightblue" d="M505.71,-118.6C547.58,-108 622.04,-89.14 668.43,-77.4"/>
<polygon fill="midnightblue" stroke="midnightblue" points="669.33,-80.78 678.16,-74.93 667.61,-74 669.33,-80.78"/>
</g>
<!-- Node11&#45;&gt;Node7 -->
<g id="edge11" class="edge">
<title>Node11&#45;&gt;Node7</title>
<path fill="none" stroke="midnightblue" d="M580.64,-56.44C542.58,-47.1 481.54,-32.12 440.04,-21.93"/>
<polygon fill="midnightblue" stroke="midnightblue" points="440.74,-18.5 430.2,-19.52 439.07,-25.3 440.74,-18.5"/>
</g>
<!-- Node13 -->
<g id="node13" class="node">
<title>Node13</title>
<g id="a_node13"><a xlink:title=" ">
<polygon fill="white" stroke="#bfbfbf" points="653,-0.5 653,-19.5 766,-19.5 766,-0.5 653,-0.5"/>
<text text-anchor="middle" x="709.5" y="-7.5" font-family="Helvetica,sans-Serif" font-size="10.00">flutter/fml/logging.h</text>
</a>
</g>
</g>
<!-- Node12&#45;&gt;Node13 -->
<g id="edge13" class="edge">
<title>Node12&#45;&gt;Node13</title>
<path fill="none" stroke="midnightblue" d="M709.5,-56.08C709.5,-49.01 709.5,-38.86 709.5,-29.99"/>
<polygon fill="midnightblue" stroke="midnightblue" points="713,-29.75 709.5,-19.75 706,-29.75 713,-29.75"/>
</g>
</g>
</svg>
