<?xml version="1.0" encoding="UTF-8" standalone="no"?>
<!DOCTYPE svg PUBLIC "-//W3C//DTD SVG 1.1//EN"
 "http://www.w3.org/Graphics/SVG/1.1/DTD/svg11.dtd">
<!-- Generated by graphviz version 5.0.0 (0)
 -->
<!-- Title: /mnt/raid10/stargate/ivi&#45;homescreen/shell/static_plugins/secure_storage/secure_storage.h Pages: 1 -->
<svg width="1018pt" height="302pt"
 viewBox="0.00 0.00 1017.80 302.00" xmlns="http://www.w3.org/2000/svg" xmlns:xlink="http://www.w3.org/1999/xlink">
<g id="graph0" class="graph" transform="scale(1 1) rotate(0) translate(4 298)">
<title>/mnt/raid10/stargate/ivi&#45;homescreen/shell/static_plugins/secure_storage/secure_storage.h</title>
<!-- Node1 -->
<g id="node1" class="node">
<title>Node1</title>
<g id="a_node1"><a xlink:title=" ">
<polygon fill="#999999" stroke="#666666" points="183.8,-294 51.8,-294 51.8,-242 183.8,-242 183.8,-294"/>
<text text-anchor="start" x="59.8" y="-282" font-family="Helvetica,sans-Serif" font-size="10.00">/mnt/raid10/stargate</text>
<text text-anchor="start" x="59.8" y="-271" font-family="Helvetica,sans-Serif" font-size="10.00">/ivi&#45;homescreen/shell</text>
<text text-anchor="start" x="59.8" y="-260" font-family="Helvetica,sans-Serif" font-size="10.00">/static_plugins/secure</text>
<text text-anchor="middle" x="117.8" y="-249" font-family="Helvetica,sans-Serif" font-size="10.00">_storage/secure_storage.h</text>
</a>
</g>
</g>
<!-- Node2 -->
<g id="node2" class="node">
<title>Node2</title>
<g id="a_node2"><a xlink:title=" ">
<polygon fill="#e0e0e0" stroke="#999999" points="488.3,-30 367.3,-30 367.3,0 488.3,0 488.3,-30"/>
<text text-anchor="start" x="375.3" y="-18" font-family="Helvetica,sans-Serif" font-size="10.00">shell/platform/embedder</text>
<text text-anchor="middle" x="427.8" y="-7" font-family="Helvetica,sans-Serif" font-size="10.00">/embedder.h</text>
</a>
</g>
</g>
<!-- Node1&#45;&gt;Node2 -->
<g id="edge1" class="edge">
<title>Node1&#45;&gt;Node2</title>
<path fill="none" stroke="#63b8ff" d="M61.85,-241.75C47.89,-232.59 34.68,-220.77 26.8,-206 -2.49,-151.1 -14.39,-112.64 26.8,-66 48.25,-41.71 247.67,-26.43 356.96,-19.81"/>
<polygon fill="#63b8ff" stroke="#63b8ff" points="357.47,-23.29 367.24,-19.2 357.05,-16.3 357.47,-23.29"/>
</g>
<!-- Node3 -->
<g id="node3" class="node">
<title>Node3</title>
<g id="a_node3"><a xlink:title=" ">
<polygon fill="#e0e0e0" stroke="#999999" points="79.8,-206 35.8,-206 35.8,-187 79.8,-187 79.8,-206"/>
<text text-anchor="middle" x="57.8" y="-194" font-family="Helvetica,sans-Serif" font-size="10.00">mutex</text>
</a>
</g>
</g>
<!-- Node1&#45;&gt;Node3 -->
<g id="edge2" class="edge">
<title>Node1&#45;&gt;Node3</title>
<path fill="none" stroke="#63b8ff" d="M96.14,-241.91C88.08,-232.58 79.16,-222.24 71.94,-213.88"/>
<polygon fill="#63b8ff" stroke="#63b8ff" points="74.58,-211.58 65.4,-206.3 69.28,-216.16 74.58,-211.58"/>
</g>
<!-- Node4 -->
<g id="node4" class="node">
<title>Node4</title>
<g id="a_node4"><a xlink:title=" ">
<polygon fill="#e0e0e0" stroke="#999999" points="137.8,-206 97.8,-206 97.8,-187 137.8,-187 137.8,-206"/>
<text text-anchor="middle" x="117.8" y="-194" font-family="Helvetica,sans-Serif" font-size="10.00">utility</text>
</a>
</g>
</g>
<!-- Node1&#45;&gt;Node4 -->
<g id="edge3" class="edge">
<title>Node1&#45;&gt;Node4</title>
<path fill="none" stroke="#63b8ff" d="M117.8,-241.91C117.8,-233.55 117.8,-224.38 117.8,-216.55"/>
<polygon fill="#63b8ff" stroke="#63b8ff" points="121.3,-216.3 117.8,-206.3 114.3,-216.3 121.3,-216.3"/>
</g>
<!-- Node5 -->
<g id="node5" class="node">
<title>Node5</title>
<g id="a_node5"><a xlink:title=" ">
<polygon fill="#e0e0e0" stroke="#999999" points="281.3,-206 156.3,-206 156.3,-187 281.3,-187 281.3,-206"/>
<text text-anchor="middle" x="218.8" y="-194" font-family="Helvetica,sans-Serif" font-size="10.00">flutter/encodable_value.h</text>
</a>
</g>
</g>
<!-- Node1&#45;&gt;Node5 -->
<g id="edge4" class="edge">
<title>Node1&#45;&gt;Node5</title>
<path fill="none" stroke="#63b8ff" d="M154.26,-241.91C168.81,-231.9 185.05,-220.72 197.6,-212.09"/>
<polygon fill="#63b8ff" stroke="#63b8ff" points="199.75,-214.85 206.01,-206.3 195.79,-209.09 199.75,-214.85"/>
</g>
<!-- Node6 -->
<g id="node6" class="node">
<title>Node6</title>
<g id="a_node6"><a xlink:href="keyring_8h.html" target="_top" xlink:title=" ">
<polygon fill="white" stroke="#666666" points="355.8,-206 299.8,-206 299.8,-187 355.8,-187 355.8,-206"/>
<text text-anchor="middle" x="327.8" y="-194" font-family="Helvetica,sans-Serif" font-size="10.00">keyring.h</text>
</a>
</g>
</g>
<!-- Node1&#45;&gt;Node6 -->
<g id="edge5" class="edge">
<title>Node1&#45;&gt;Node6</title>
<path fill="none" stroke="#63b8ff" d="M183.96,-245.11C219.77,-233.25 262.6,-219.08 292.16,-209.3"/>
<polygon fill="#63b8ff" stroke="#63b8ff" points="293.64,-212.49 302.03,-206.03 291.44,-205.85 293.64,-212.49"/>
</g>
<!-- Node7 -->
<g id="node7" class="node">
<title>Node7</title>
<g id="a_node7"><a xlink:title=" ">
<polygon fill="#e0e0e0" stroke="#999999" points="127.8,-90.5 35.8,-90.5 35.8,-71.5 127.8,-71.5 127.8,-90.5"/>
<text text-anchor="middle" x="81.8" y="-78.5" font-family="Helvetica,sans-Serif" font-size="10.00">libsecret/secret.h</text>
</a>
</g>
</g>
<!-- Node6&#45;&gt;Node7 -->
<g id="edge6" class="edge">
<title>Node6&#45;&gt;Node7</title>
<path fill="none" stroke="#63b8ff" d="M299.55,-188.84C296.6,-188.2 293.64,-187.57 290.8,-187 244.81,-177.75 113.27,-186.67 82.8,-151 71.15,-137.37 72.78,-116.09 76.15,-100.77"/>
<polygon fill="#63b8ff" stroke="#63b8ff" points="79.59,-101.42 78.74,-90.86 72.82,-99.65 79.59,-101.42"/>
</g>
<!-- Node8 -->
<g id="node8" class="node">
<title>Node8</title>
<g id="a_node8"><a xlink:title=" ">
<polygon fill="#e0e0e0" stroke="#999999" points="201.8,-151 91.8,-151 91.8,-132 201.8,-132 201.8,-151"/>
<text text-anchor="middle" x="146.8" y="-139" font-family="Helvetica,sans-Serif" font-size="10.00">rapidjson/document.h</text>
</a>
</g>
</g>
<!-- Node6&#45;&gt;Node8 -->
<g id="edge7" class="edge">
<title>Node6&#45;&gt;Node8</title>
<path fill="none" stroke="#63b8ff" d="M299.52,-187.22C268.93,-178.26 219.97,-163.92 185.75,-153.91"/>
<polygon fill="#63b8ff" stroke="#63b8ff" points="186.66,-150.53 176.08,-151.07 184.7,-157.24 186.66,-150.53"/>
</g>
<!-- Node9 -->
<g id="node9" class="node">
<title>Node9</title>
<g id="a_node9"><a xlink:title=" ">
<polygon fill="#e0e0e0" stroke="#999999" points="311.3,-151 220.3,-151 220.3,-132 311.3,-132 311.3,-151"/>
<text text-anchor="middle" x="265.8" y="-139" font-family="Helvetica,sans-Serif" font-size="10.00">rapidjson/writer.h</text>
</a>
</g>
</g>
<!-- Node6&#45;&gt;Node9 -->
<g id="edge8" class="edge">
<title>Node6&#45;&gt;Node9</title>
<path fill="none" stroke="#63b8ff" d="M317.84,-186.98C308.67,-179.15 294.86,-167.34 283.77,-157.86"/>
<polygon fill="#63b8ff" stroke="#63b8ff" points="285.82,-155.01 275.94,-151.17 281.27,-160.33 285.82,-155.01"/>
</g>
<!-- Node10 -->
<g id="node10" class="node">
<title>Node10</title>
<g id="a_node10"><a xlink:title=" ">
<polygon fill="#e0e0e0" stroke="#999999" points="381.8,-151 329.8,-151 329.8,-132 381.8,-132 381.8,-151"/>
<text text-anchor="middle" x="355.8" y="-139" font-family="Helvetica,sans-Serif" font-size="10.00">memory</text>
</a>
</g>
</g>
<!-- Node6&#45;&gt;Node10 -->
<g id="edge9" class="edge">
<title>Node6&#45;&gt;Node10</title>
<path fill="none" stroke="#63b8ff" d="M332.42,-186.75C336.26,-179.49 341.82,-168.95 346.57,-159.98"/>
<polygon fill="#63b8ff" stroke="#63b8ff" points="349.69,-161.57 351.26,-151.09 343.5,-158.3 349.69,-161.57"/>
</g>
<!-- Node11 -->
<g id="node11" class="node">
<title>Node11</title>
<g id="a_node11"><a xlink:href="g__hash__table_8h.html" target="_top" xlink:title=" ">
<polygon fill="white" stroke="#666666" points="483.3,-151 400.3,-151 400.3,-132 483.3,-132 483.3,-151"/>
<text text-anchor="middle" x="441.8" y="-139" font-family="Helvetica,sans-Serif" font-size="10.00">g_hash_table.h</text>
</a>
</g>
</g>
<!-- Node6&#45;&gt;Node11 -->
<g id="edge10" class="edge">
<title>Node6&#45;&gt;Node11</title>
<path fill="none" stroke="#63b8ff" d="M346.12,-186.98C364.46,-178.46 392.91,-165.23 414.03,-155.41"/>
<polygon fill="#63b8ff" stroke="#63b8ff" points="415.56,-158.56 423.15,-151.17 412.61,-152.21 415.56,-158.56"/>
</g>
<!-- Node12 -->
<g id="node12" class="node">
<title>Node12</title>
<g id="a_node12"><a xlink:href="logging_8h.html" target="_top" xlink:title=" ">
<polygon fill="white" stroke="#666666" points="557.8,-151 501.8,-151 501.8,-132 557.8,-132 557.8,-151"/>
<text text-anchor="middle" x="529.8" y="-139" font-family="Helvetica,sans-Serif" font-size="10.00">logging.h</text>
</a>
</g>
</g>
<!-- Node6&#45;&gt;Node12 -->
<g id="edge12" class="edge">
<title>Node6&#45;&gt;Node12</title>
<path fill="none" stroke="#63b8ff" d="M355.89,-188.13C391.29,-178.84 452.28,-162.84 491.82,-152.46"/>
<polygon fill="#63b8ff" stroke="#63b8ff" points="492.84,-155.82 501.63,-149.89 491.07,-149.04 492.84,-155.82"/>
</g>
<!-- Node11&#45;&gt;Node7 -->
<g id="edge11" class="edge">
<title>Node11&#45;&gt;Node7</title>
<path fill="none" stroke="#63b8ff" d="M400.07,-133.46C396.93,-132.96 393.82,-132.47 390.8,-132 278.11,-114.63 248.66,-118.1 136.8,-96 132.15,-95.08 127.31,-94.01 122.51,-92.89"/>
<polygon fill="#63b8ff" stroke="#63b8ff" points="123.33,-89.49 112.79,-90.51 121.67,-96.29 123.33,-89.49"/>
</g>
<!-- Node13 -->
<g id="node13" class="node">
<title>Node13</title>
<g id="a_node13"><a xlink:title=" ">
<polygon fill="#e0e0e0" stroke="#999999" points="197.8,-90.5 145.8,-90.5 145.8,-71.5 197.8,-71.5 197.8,-90.5"/>
<text text-anchor="middle" x="171.8" y="-78.5" font-family="Helvetica,sans-Serif" font-size="10.00">sstream</text>
</a>
</g>
</g>
<!-- Node12&#45;&gt;Node13 -->
<g id="edge13" class="edge">
<title>Node12&#45;&gt;Node13</title>
<path fill="none" stroke="#63b8ff" d="M501.58,-133.71C498.62,-133.09 495.66,-132.51 492.8,-132 366.65,-109.63 330.84,-128.05 206.8,-96 204.64,-95.44 202.43,-94.78 200.23,-94.06"/>
<polygon fill="#63b8ff" stroke="#63b8ff" points="201.35,-90.75 190.76,-90.6 198.95,-97.32 201.35,-90.75"/>
</g>
<!-- Node14 -->
<g id="node14" class="node">
<title>Node14</title>
<g id="a_node14"><a xlink:title=" ">
<polygon fill="#e0e0e0" stroke="#999999" points="303.8,-90.5 215.8,-90.5 215.8,-71.5 303.8,-71.5 303.8,-90.5"/>
<text text-anchor="middle" x="259.8" y="-78.5" font-family="Helvetica,sans-Serif" font-size="10.00">spdlog/cfg/env.h</text>
</a>
</g>
</g>
<!-- Node12&#45;&gt;Node14 -->
<g id="edge14" class="edge">
<title>Node12&#45;&gt;Node14</title>
<path fill="none" stroke="#63b8ff" d="M501.54,-133.92C498.59,-133.26 495.64,-132.61 492.8,-132 413.04,-114.87 392.28,-114.43 312.8,-96 308.9,-95.09 304.84,-94.11 300.79,-93.09"/>
<polygon fill="#63b8ff" stroke="#63b8ff" points="301.39,-89.63 290.83,-90.53 299.65,-96.41 301.39,-89.63"/>
</g>
<!-- Node15 -->
<g id="node15" class="node">
<title>Node15</title>
<g id="a_node15"><a xlink:title=" ">
<polygon fill="#e0e0e0" stroke="#999999" points="431.8,-96 321.8,-96 321.8,-66 431.8,-66 431.8,-96"/>
<text text-anchor="start" x="329.8" y="-84" font-family="Helvetica,sans-Serif" font-size="10.00">spdlog/sinks/callback</text>
<text text-anchor="middle" x="376.8" y="-73" font-family="Helvetica,sans-Serif" font-size="10.00">_sink.h</text>
</a>
</g>
</g>
<!-- Node12&#45;&gt;Node15 -->
<g id="edge15" class="edge">
<title>Node12&#45;&gt;Node15</title>
<path fill="none" stroke="#63b8ff" d="M507.55,-131.99C485.53,-123.57 451.16,-110.43 423.18,-99.73"/>
<polygon fill="#63b8ff" stroke="#63b8ff" points="424.17,-96.37 413.58,-96.06 421.67,-102.9 424.17,-96.37"/>
</g>
<!-- Node16 -->
<g id="node16" class="node">
<title>Node16</title>
<g id="a_node16"><a xlink:title=" ">
<polygon fill="#e0e0e0" stroke="#999999" points="563.8,-96 449.8,-96 449.8,-66 563.8,-66 563.8,-96"/>
<text text-anchor="start" x="457.8" y="-84" font-family="Helvetica,sans-Serif" font-size="10.00">spdlog/sinks/ringbuffer</text>
<text text-anchor="middle" x="506.8" y="-73" font-family="Helvetica,sans-Serif" font-size="10.00">_sink.h</text>
</a>
</g>
</g>
<!-- Node12&#45;&gt;Node16 -->
<g id="edge16" class="edge">
<title>Node12&#45;&gt;Node16</title>
<path fill="none" stroke="#63b8ff" d="M526.41,-131.87C523.69,-124.96 519.75,-114.93 516.11,-105.67"/>
<polygon fill="#63b8ff" stroke="#63b8ff" points="519.27,-104.14 512.35,-96.11 512.75,-106.7 519.27,-104.14"/>
</g>
<!-- Node17 -->
<g id="node17" class="node">
<title>Node17</title>
<g id="a_node17"><a xlink:title=" ">
<polygon fill="#e0e0e0" stroke="#999999" points="683.3,-96 582.3,-96 582.3,-66 683.3,-66 683.3,-96"/>
<text text-anchor="start" x="590.3" y="-84" font-family="Helvetica,sans-Serif" font-size="10.00">spdlog/sinks/stdout</text>
<text text-anchor="middle" x="632.8" y="-73" font-family="Helvetica,sans-Serif" font-size="10.00">_color_sinks.h</text>
</a>
</g>
</g>
<!-- Node12&#45;&gt;Node17 -->
<g id="edge17" class="edge">
<title>Node12&#45;&gt;Node17</title>
<path fill="none" stroke="#63b8ff" d="M545,-131.87C559.1,-123.86 580.6,-111.65 598.79,-101.31"/>
<polygon fill="#63b8ff" stroke="#63b8ff" points="600.98,-104.1 607.95,-96.11 597.53,-98.01 600.98,-104.1"/>
</g>
<!-- Node18 -->
<g id="node18" class="node">
<title>Node18</title>
<g id="a_node18"><a xlink:title=" ">
<polygon fill="#e0e0e0" stroke="#999999" points="802.3,-96 701.3,-96 701.3,-66 802.3,-66 802.3,-96"/>
<text text-anchor="start" x="709.3" y="-84" font-family="Helvetica,sans-Serif" font-size="10.00">spdlog/sinks/stdout</text>
<text text-anchor="middle" x="751.8" y="-73" font-family="Helvetica,sans-Serif" font-size="10.00">_sinks.h</text>
</a>
</g>
</g>
<!-- Node12&#45;&gt;Node18 -->
<g id="edge18" class="edge">
<title>Node12&#45;&gt;Node18</title>
<path fill="none" stroke="#63b8ff" d="M557.92,-133.09C591.26,-124.31 647.77,-109.41 691.21,-97.97"/>
<polygon fill="#63b8ff" stroke="#63b8ff" points="692.33,-101.29 701.1,-95.36 690.54,-94.52 692.33,-101.29"/>
</g>
<!-- Node19 -->
<g id="node19" class="node">
<title>Node19</title>
<g id="a_node19"><a xlink:title=" ">
<polygon fill="#e0e0e0" stroke="#999999" points="905.3,-90.5 820.3,-90.5 820.3,-71.5 905.3,-71.5 905.3,-90.5"/>
<text text-anchor="middle" x="862.8" y="-78.5" font-family="Helvetica,sans-Serif" font-size="10.00">spdlog/spdlog.h</text>
</a>
</g>
</g>
<!-- Node12&#45;&gt;Node19 -->
<g id="edge19" class="edge">
<title>Node12&#45;&gt;Node19</title>
<path fill="none" stroke="#63b8ff" d="M558.01,-137.11C608.99,-130.74 719.74,-115.83 811.8,-96 815.73,-95.15 819.8,-94.19 823.86,-93.17"/>
<polygon fill="#63b8ff" stroke="#63b8ff" points="825.03,-96.48 833.81,-90.56 823.25,-89.71 825.03,-96.48"/>
</g>
<!-- Node20 -->
<g id="node20" class="node">
<title>Node20</title>
<g id="a_node20"><a xlink:href="constants_8h.html" target="_top" xlink:title=" ">
<polygon fill="white" stroke="#666666" points="991.8,-90.5 923.8,-90.5 923.8,-71.5 991.8,-71.5 991.8,-90.5"/>
<text text-anchor="middle" x="957.8" y="-78.5" font-family="Helvetica,sans-Serif" font-size="10.00">constants.h</text>
</a>
</g>
</g>
<!-- Node12&#45;&gt;Node20 -->
<g id="edge20" class="edge">
<title>Node12&#45;&gt;Node20</title>
<path fill="none" stroke="#63b8ff" d="M558.14,-139.16C622.29,-135.72 783.33,-124.7 914.8,-96 918.02,-95.3 921.34,-94.45 924.65,-93.52"/>
<polygon fill="#63b8ff" stroke="#63b8ff" points="925.83,-96.82 934.38,-90.56 923.79,-90.12 925.83,-96.82"/>
</g>
<!-- Node20&#45;&gt;Node2 -->
<g id="edge22" class="edge">
<title>Node20&#45;&gt;Node2</title>
<path fill="none" stroke="#63b8ff" d="M934.39,-71.38C928.1,-69.34 921.25,-67.37 914.8,-66 768.78,-35.1 593.94,-23.07 498.53,-18.55"/>
<polygon fill="#63b8ff" stroke="#63b8ff" points="498.57,-15.05 488.42,-18.09 498.25,-22.05 498.57,-15.05"/>
</g>
<!-- Node21 -->
<g id="node21" class="node">
<title>Node21</title>
<g id="a_node21"><a xlink:title=" ">
<polygon fill="#e0e0e0" stroke="#999999" points="953.8,-24.5 893.8,-24.5 893.8,-5.5 953.8,-5.5 953.8,-24.5"/>
<text text-anchor="middle" x="923.8" y="-12.5" font-family="Helvetica,sans-Serif" font-size="10.00">EGL/egl.h</text>
</a>
</g>
</g>
<!-- Node20&#45;&gt;Node21 -->
<g id="edge21" class="edge">
<title>Node20&#45;&gt;Node21</title>
<path fill="none" stroke="#63b8ff" d="M953.22,-71.37C948.12,-61.78 939.76,-46.05 933.26,-33.8"/>
<polygon fill="#63b8ff" stroke="#63b8ff" points="936.31,-32.09 928.53,-24.91 930.13,-35.38 936.31,-32.09"/>
</g>
<!-- Node22 -->
<g id="node22" class="node">
<title>Node22</title>
<g id="a_node22"><a xlink:title=" ">
<polygon fill="#e0e0e0" stroke="#999999" points="1009.8,-24.5 971.8,-24.5 971.8,-5.5 1009.8,-5.5 1009.8,-24.5"/>
<text text-anchor="middle" x="990.8" y="-12.5" font-family="Helvetica,sans-Serif" font-size="10.00">array</text>
</a>
</g>
</g>
<!-- Node20&#45;&gt;Node22 -->
<g id="edge23" class="edge">
<title>Node20&#45;&gt;Node22</title>
<path fill="none" stroke="#63b8ff" d="M962.25,-71.37C967.19,-61.78 975.31,-46.05 981.62,-33.8"/>
<polygon fill="#63b8ff" stroke="#63b8ff" points="984.74,-35.4 986.21,-24.91 978.51,-32.19 984.74,-35.4"/>
</g>
</g>
</svg>
