<?xml version="1.0" encoding="UTF-8" standalone="no"?>
<!DOCTYPE svg PUBLIC "-//W3C//DTD SVG 1.1//EN"
 "http://www.w3.org/Graphics/SVG/1.1/DTD/svg11.dtd">
<!-- Generated by graphviz version 2.43.0 (0)
 -->
<!-- Title: /home/joel.winarske@toyotaconnected.com/development/stargate/ivi&#45;homescreen/shell/static_plugins/secure_storage/secure_storage.cc Pages: 1 -->
<svg width="3245pt" height="463pt"
 viewBox="0.00 0.00 3244.50 463.00" xmlns="http://www.w3.org/2000/svg" xmlns:xlink="http://www.w3.org/1999/xlink">
<g id="graph0" class="graph" transform="scale(1 1) rotate(0) translate(4 459)">
<title>/home/joel.winarske@toyotaconnected.com/development/stargate/ivi&#45;homescreen/shell/static_plugins/secure_storage/secure_storage.cc</title>
<polygon fill="white" stroke="transparent" points="-4,4 -4,-459 3240.5,-459 3240.5,4 -4,4"/>
<!-- Node1 -->
<g id="node1" class="node">
<title>Node1</title>
<g id="a_node1"><a xlink:title=" ">
<polygon fill="#bfbfbf" stroke="black" points="408,-380.5 408,-454.5 557,-454.5 557,-380.5 408,-380.5"/>
<text text-anchor="start" x="416" y="-442.5" font-family="Helvetica,sans-Serif" font-size="10.00">/home/joel.winarske</text>
<text text-anchor="start" x="416" y="-431.5" font-family="Helvetica,sans-Serif" font-size="10.00">@toyotaconnected.com</text>
<text text-anchor="start" x="416" y="-420.5" font-family="Helvetica,sans-Serif" font-size="10.00">/development/stargate</text>
<text text-anchor="start" x="416" y="-409.5" font-family="Helvetica,sans-Serif" font-size="10.00">/ivi&#45;homescreen/shell</text>
<text text-anchor="start" x="416" y="-398.5" font-family="Helvetica,sans-Serif" font-size="10.00">/static_plugins/secure</text>
<text text-anchor="middle" x="482.5" y="-387.5" font-family="Helvetica,sans-Serif" font-size="10.00">_storage/secure_storage.cc</text>
</a>
</g>
</g>
<!-- Node2 -->
<g id="node2" class="node">
<title>Node2</title>
<g id="a_node2"><a xlink:href="secure__storage_8h.html" target="_top" xlink:title=" ">
<polygon fill="white" stroke="black" points="139.5,-319 139.5,-338 239.5,-338 239.5,-319 139.5,-319"/>
<text text-anchor="middle" x="189.5" y="-326" font-family="Helvetica,sans-Serif" font-size="10.00">secure_storage.h</text>
</a>
</g>
</g>
<!-- Node1&#45;&gt;Node2 -->
<g id="edge1" class="edge">
<title>Node1&#45;&gt;Node2</title>
<path fill="none" stroke="midnightblue" d="M407.81,-394.32C350.43,-377.28 273.53,-354.45 227.98,-340.93"/>
<polygon fill="midnightblue" stroke="midnightblue" points="228.79,-337.52 218.21,-338.02 226.8,-344.23 228.79,-337.52"/>
</g>
<!-- Node13 -->
<g id="node13" class="node">
<title>Node13</title>
<g id="a_node13"><a xlink:href="logging_8h.html" target="_top" xlink:title=" ">
<polygon fill="white" stroke="black" points="386.5,-196 386.5,-215 448.5,-215 448.5,-196 386.5,-196"/>
<text text-anchor="middle" x="417.5" y="-203" font-family="Helvetica,sans-Serif" font-size="10.00">logging.h</text>
</a>
</g>
</g>
<!-- Node1&#45;&gt;Node13 -->
<g id="edge84" class="edge">
<title>Node1&#45;&gt;Node13</title>
<path fill="none" stroke="midnightblue" d="M467.64,-380.26C463.16,-368.76 458.4,-355.93 454.5,-344 440.8,-302.05 428.22,-251.75 421.85,-225.14"/>
<polygon fill="midnightblue" stroke="midnightblue" points="425.23,-224.21 419.52,-215.28 418.42,-225.82 425.23,-224.21"/>
</g>
<!-- Node15 -->
<g id="node15" class="node">
<title>Node15</title>
<g id="a_node15"><a xlink:title=" ">
<polygon fill="white" stroke="#bfbfbf" points="463.5,-313.5 463.5,-343.5 597.5,-343.5 597.5,-313.5 463.5,-313.5"/>
<text text-anchor="start" x="471.5" y="-331.5" font-family="Helvetica,sans-Serif" font-size="10.00">flutter/standard_method</text>
<text text-anchor="middle" x="530.5" y="-320.5" font-family="Helvetica,sans-Serif" font-size="10.00">_codec.h</text>
</a>
</g>
</g>
<!-- Node1&#45;&gt;Node15 -->
<g id="edge15" class="edge">
<title>Node1&#45;&gt;Node15</title>
<path fill="none" stroke="midnightblue" d="M502.44,-380.36C507.6,-371 513.03,-361.17 517.72,-352.67"/>
<polygon fill="midnightblue" stroke="midnightblue" points="520.88,-354.19 522.64,-343.74 514.75,-350.81 520.88,-354.19"/>
</g>
<!-- Node16 -->
<g id="node16" class="node">
<title>Node16</title>
<g id="a_node16"><a xlink:href="engine_8h.html" target="_top" xlink:title=" ">
<polygon fill="white" stroke="black" points="722,-319 722,-338 781,-338 781,-319 722,-319"/>
<text text-anchor="middle" x="751.5" y="-326" font-family="Helvetica,sans-Serif" font-size="10.00">engine.h</text>
</a>
</g>
</g>
<!-- Node1&#45;&gt;Node16 -->
<g id="edge16" class="edge">
<title>Node1&#45;&gt;Node16</title>
<path fill="none" stroke="midnightblue" d="M557.07,-392.38C608.68,-375.69 675.07,-354.22 715.4,-341.18"/>
<polygon fill="midnightblue" stroke="midnightblue" points="716.63,-344.46 725.07,-338.05 714.48,-337.8 716.63,-344.46"/>
</g>
<!-- Node3 -->
<g id="node3" class="node">
<title>Node3</title>
<g id="a_node3"><a xlink:title=" ">
<polygon fill="white" stroke="#bfbfbf" points="605,-0.5 605,-30.5 742,-30.5 742,-0.5 605,-0.5"/>
<text text-anchor="start" x="613" y="-18.5" font-family="Helvetica,sans-Serif" font-size="10.00">shell/platform/embedder</text>
<text text-anchor="middle" x="673.5" y="-7.5" font-family="Helvetica,sans-Serif" font-size="10.00">/embedder.h</text>
</a>
</g>
</g>
<!-- Node2&#45;&gt;Node3 -->
<g id="edge2" class="edge">
<title>Node2&#45;&gt;Node3</title>
<path fill="none" stroke="midnightblue" d="M171.12,-318.94C138.41,-302.29 73.5,-262.23 73.5,-206.5 73.5,-206.5 73.5,-206.5 73.5,-137.5 73.5,-32.41 431.64,-17.48 594.52,-16.12"/>
<polygon fill="midnightblue" stroke="midnightblue" points="594.99,-19.62 604.96,-16.05 594.94,-12.62 594.99,-19.62"/>
</g>
<!-- Node4 -->
<g id="node4" class="node">
<title>Node4</title>
<g id="a_node4"><a xlink:title=" ">
<polygon fill="white" stroke="#bfbfbf" points="201.5,-257.5 201.5,-276.5 249.5,-276.5 249.5,-257.5 201.5,-257.5"/>
<text text-anchor="middle" x="225.5" y="-264.5" font-family="Helvetica,sans-Serif" font-size="10.00">mutex</text>
</a>
</g>
</g>
<!-- Node2&#45;&gt;Node4 -->
<g id="edge3" class="edge">
<title>Node2&#45;&gt;Node4</title>
<path fill="none" stroke="midnightblue" d="M194.66,-318.98C199.95,-310.23 208.34,-296.37 215.03,-285.31"/>
<polygon fill="midnightblue" stroke="midnightblue" points="218.17,-286.88 220.35,-276.51 212.18,-283.25 218.17,-286.88"/>
</g>
<!-- Node5 -->
<g id="node5" class="node">
<title>Node5</title>
<g id="a_node5"><a xlink:title=" ">
<polygon fill="white" stroke="#bfbfbf" points="0,-257.5 0,-276.5 45,-276.5 45,-257.5 0,-257.5"/>
<text text-anchor="middle" x="22.5" y="-264.5" font-family="Helvetica,sans-Serif" font-size="10.00">utility</text>
</a>
</g>
</g>
<!-- Node2&#45;&gt;Node5 -->
<g id="edge4" class="edge">
<title>Node2&#45;&gt;Node5</title>
<path fill="none" stroke="midnightblue" d="M165.57,-318.98C136.39,-308.58 86.96,-290.97 54.53,-279.41"/>
<polygon fill="midnightblue" stroke="midnightblue" points="55.64,-276.09 45.05,-276.03 53.29,-282.69 55.64,-276.09"/>
</g>
<!-- Node6 -->
<g id="node6" class="node">
<title>Node6</title>
<g id="a_node6"><a xlink:title=" ">
<polygon fill="white" stroke="#bfbfbf" points="267.5,-257.5 267.5,-276.5 407.5,-276.5 407.5,-257.5 267.5,-257.5"/>
<text text-anchor="middle" x="337.5" y="-264.5" font-family="Helvetica,sans-Serif" font-size="10.00">flutter/encodable_value.h</text>
</a>
</g>
</g>
<!-- Node2&#45;&gt;Node6 -->
<g id="edge5" class="edge">
<title>Node2&#45;&gt;Node6</title>
<path fill="none" stroke="midnightblue" d="M210.7,-318.98C235.87,-308.86 278.04,-291.9 306.78,-280.35"/>
<polygon fill="midnightblue" stroke="midnightblue" points="308.36,-283.49 316.33,-276.51 305.75,-276.99 308.36,-283.49"/>
</g>
<!-- Node7 -->
<g id="node7" class="node">
<title>Node7</title>
<g id="a_node7"><a xlink:href="keyring_8h.html" target="_top" xlink:title=" ">
<polygon fill="white" stroke="black" points="121.5,-257.5 121.5,-276.5 183.5,-276.5 183.5,-257.5 121.5,-257.5"/>
<text text-anchor="middle" x="152.5" y="-264.5" font-family="Helvetica,sans-Serif" font-size="10.00">keyring.h</text>
</a>
</g>
</g>
<!-- Node2&#45;&gt;Node7 -->
<g id="edge6" class="edge">
<title>Node2&#45;&gt;Node7</title>
<path fill="none" stroke="midnightblue" d="M184.2,-318.98C178.76,-310.23 170.14,-296.37 163.26,-285.31"/>
<polygon fill="midnightblue" stroke="midnightblue" points="166.04,-283.15 157.79,-276.51 160.1,-286.85 166.04,-283.15"/>
</g>
<!-- Node8 -->
<g id="node8" class="node">
<title>Node8</title>
<g id="a_node8"><a xlink:title=" ">
<polygon fill="white" stroke="#bfbfbf" points="181,-129 181,-148 282,-148 282,-129 181,-129"/>
<text text-anchor="middle" x="231.5" y="-136" font-family="Helvetica,sans-Serif" font-size="10.00">libsecret/secret.h</text>
</a>
</g>
</g>
<!-- Node7&#45;&gt;Node8 -->
<g id="edge7" class="edge">
<title>Node7&#45;&gt;Node8</title>
<path fill="none" stroke="midnightblue" d="M169.9,-257.35C183.56,-249.66 201.97,-237.14 212.5,-221 224.94,-201.94 229.27,-175.68 230.76,-158.18"/>
<polygon fill="midnightblue" stroke="midnightblue" points="234.26,-158.3 231.38,-148.1 227.27,-157.86 234.26,-158.3"/>
</g>
<!-- Node9 -->
<g id="node9" class="node">
<title>Node9</title>
<g id="a_node9"><a xlink:title=" ">
<polygon fill="white" stroke="#bfbfbf" points="1327.5,-129 1327.5,-148 1449.5,-148 1449.5,-129 1327.5,-129"/>
<text text-anchor="middle" x="1388.5" y="-136" font-family="Helvetica,sans-Serif" font-size="10.00">rapidjson/document.h</text>
</a>
</g>
</g>
<!-- Node7&#45;&gt;Node9 -->
<g id="edge8" class="edge">
<title>Node7&#45;&gt;Node9</title>
<path fill="none" stroke="midnightblue" d="M183.85,-258.39C186.76,-257.85 189.68,-257.37 192.5,-257 573.96,-206.56 681,-300.37 1057.5,-221 1094.41,-213.22 1100.3,-200.59 1136.5,-190 1215.64,-166.85 1237.68,-170.36 1318.5,-154 1324.65,-152.76 1331.09,-151.44 1337.48,-150.12"/>
<polygon fill="midnightblue" stroke="midnightblue" points="1338.34,-153.52 1347.43,-148.07 1336.93,-146.66 1338.34,-153.52"/>
</g>
<!-- Node10 -->
<g id="node10" class="node">
<title>Node10</title>
<g id="a_node10"><a xlink:title=" ">
<polygon fill="white" stroke="#bfbfbf" points="102,-196 102,-215 203,-215 203,-196 102,-196"/>
<text text-anchor="middle" x="152.5" y="-203" font-family="Helvetica,sans-Serif" font-size="10.00">rapidjson/writer.h</text>
</a>
</g>
</g>
<!-- Node7&#45;&gt;Node10 -->
<g id="edge9" class="edge">
<title>Node7&#45;&gt;Node10</title>
<path fill="none" stroke="midnightblue" d="M152.5,-257.48C152.5,-249.08 152.5,-235.98 152.5,-225.16"/>
<polygon fill="midnightblue" stroke="midnightblue" points="156,-225.01 152.5,-215.01 149,-225.01 156,-225.01"/>
</g>
<!-- Node11 -->
<g id="node11" class="node">
<title>Node11</title>
<g id="a_node11"><a xlink:title=" ">
<polygon fill="white" stroke="#bfbfbf" points="1251.5,-129 1251.5,-148 1309.5,-148 1309.5,-129 1251.5,-129"/>
<text text-anchor="middle" x="1280.5" y="-136" font-family="Helvetica,sans-Serif" font-size="10.00">memory</text>
</a>
</g>
</g>
<!-- Node7&#45;&gt;Node11 -->
<g id="edge10" class="edge">
<title>Node7&#45;&gt;Node11</title>
<path fill="none" stroke="midnightblue" d="M183.85,-258.39C186.76,-257.85 189.68,-257.38 192.5,-257 375.5,-232.64 848.08,-281.52 1022.5,-221 1044.76,-213.28 1043.92,-199.45 1065.5,-190 1139.04,-157.81 1165.41,-176.38 1242.5,-154 1245.08,-153.25 1247.73,-152.4 1250.38,-151.5"/>
<polygon fill="midnightblue" stroke="midnightblue" points="1251.59,-154.79 1259.8,-148.1 1249.21,-148.21 1251.59,-154.79"/>
</g>
<!-- Node12 -->
<g id="node12" class="node">
<title>Node12</title>
<g id="a_node12"><a xlink:href="g__hash__table_8h.html" target="_top" xlink:title=" ">
<polygon fill="white" stroke="black" points="259.5,-196 259.5,-215 349.5,-215 349.5,-196 259.5,-196"/>
<text text-anchor="middle" x="304.5" y="-203" font-family="Helvetica,sans-Serif" font-size="10.00">g_hash_table.h</text>
</a>
</g>
</g>
<!-- Node7&#45;&gt;Node12 -->
<g id="edge11" class="edge">
<title>Node7&#45;&gt;Node12</title>
<path fill="none" stroke="midnightblue" d="M174.28,-257.48C200.24,-247.31 243.81,-230.26 273.33,-218.7"/>
<polygon fill="midnightblue" stroke="midnightblue" points="274.73,-221.91 282.76,-215.01 272.17,-215.4 274.73,-221.91"/>
</g>
<!-- Node7&#45;&gt;Node13 -->
<g id="edge13" class="edge">
<title>Node7&#45;&gt;Node13</title>
<path fill="none" stroke="midnightblue" d="M183.5,-259C186.54,-258.32 189.58,-257.64 192.5,-257 266.22,-240.71 284.95,-238.01 358.5,-221 364.29,-219.66 370.4,-218.21 376.39,-216.76"/>
<polygon fill="midnightblue" stroke="midnightblue" points="377.42,-220.11 386.31,-214.34 375.76,-213.31 377.42,-220.11"/>
</g>
<!-- Node12&#45;&gt;Node8 -->
<g id="edge12" class="edge">
<title>Node12&#45;&gt;Node8</title>
<path fill="none" stroke="midnightblue" d="M294.65,-195.73C282.94,-185.31 263.18,-167.71 248.88,-154.97"/>
<polygon fill="midnightblue" stroke="midnightblue" points="250.99,-152.16 241.19,-148.13 246.33,-157.39 250.99,-152.16"/>
</g>
<!-- Node14 -->
<g id="node14" class="node">
<title>Node14</title>
<g id="a_node14"><a xlink:title=" ">
<polygon fill="white" stroke="#bfbfbf" points="300,-129 300,-148 413,-148 413,-129 300,-129"/>
<text text-anchor="middle" x="356.5" y="-136" font-family="Helvetica,sans-Serif" font-size="10.00">flutter/fml/logging.h</text>
</a>
</g>
</g>
<!-- Node13&#45;&gt;Node14 -->
<g id="edge14" class="edge">
<title>Node13&#45;&gt;Node14</title>
<path fill="none" stroke="midnightblue" d="M409.27,-195.73C399.67,-185.5 383.59,-168.36 371.7,-155.69"/>
<polygon fill="midnightblue" stroke="midnightblue" points="373.99,-153.02 364.6,-148.13 368.89,-157.81 373.99,-153.02"/>
</g>
<!-- Node16&#45;&gt;Node3 -->
<g id="edge21" class="edge">
<title>Node16&#45;&gt;Node3</title>
<path fill="none" stroke="midnightblue" d="M721.77,-320.33C659.71,-303.55 517.41,-255.28 460.5,-154 425.42,-91.57 520.96,-52.96 595.26,-33.1"/>
<polygon fill="midnightblue" stroke="midnightblue" points="596.33,-36.44 605.13,-30.54 594.57,-29.67 596.33,-36.44"/>
</g>
<!-- Node16&#45;&gt;Node4 -->
<g id="edge24" class="edge">
<title>Node16&#45;&gt;Node4</title>
<path fill="none" stroke="midnightblue" d="M721.82,-324.53C625.01,-314.82 321.45,-284.31 259.65,-276.49"/>
<polygon fill="midnightblue" stroke="midnightblue" points="259.94,-273 249.54,-275.05 258.95,-279.93 259.94,-273"/>
</g>
<!-- Node16&#45;&gt;Node6 -->
<g id="edge20" class="edge">
<title>Node16&#45;&gt;Node6</title>
<path fill="none" stroke="midnightblue" d="M721.73,-323.22C656.32,-313.82 498.64,-291.16 406.89,-277.97"/>
<polygon fill="midnightblue" stroke="midnightblue" points="407.25,-274.49 396.86,-276.53 406.26,-281.42 407.25,-274.49"/>
</g>
<!-- Node16&#45;&gt;Node11 -->
<g id="edge23" class="edge">
<title>Node16&#45;&gt;Node11</title>
<path fill="none" stroke="midnightblue" d="M781.17,-327.45C878.79,-326.86 1188.79,-321.43 1276.5,-277 1316.28,-256.85 1342.6,-231.59 1326.5,-190 1321.09,-176.04 1309.83,-163.56 1299.81,-154.51"/>
<polygon fill="midnightblue" stroke="midnightblue" points="1302.05,-151.82 1292.16,-148.01 1297.52,-157.16 1302.05,-151.82"/>
</g>
<!-- Node16&#45;&gt;Node13 -->
<g id="edge36" class="edge">
<title>Node16&#45;&gt;Node13</title>
<path fill="none" stroke="midnightblue" d="M721.74,-323.76C662.76,-316.01 533.27,-297.23 493.5,-277 467.78,-263.92 444.47,-239.57 430.64,-223.2"/>
<polygon fill="midnightblue" stroke="midnightblue" points="433.01,-220.58 423.97,-215.05 427.59,-225.01 433.01,-220.58"/>
</g>
<!-- Node17 -->
<g id="node17" class="node">
<title>Node17</title>
<g id="a_node17"><a xlink:title=" ">
<polygon fill="white" stroke="#bfbfbf" points="3041,-257.5 3041,-276.5 3106,-276.5 3106,-257.5 3041,-257.5"/>
<text text-anchor="middle" x="3073.5" y="-264.5" font-family="Helvetica,sans-Serif" font-size="10.00">functional</text>
</a>
</g>
</g>
<!-- Node16&#45;&gt;Node17 -->
<g id="edge17" class="edge">
<title>Node16&#45;&gt;Node17</title>
<path fill="none" stroke="midnightblue" d="M781,-327.52C1014.11,-327.61 2561.95,-326.29 3026.5,-277 3027.97,-276.84 3029.47,-276.67 3030.97,-276.47"/>
<polygon fill="midnightblue" stroke="midnightblue" points="3031.63,-279.91 3040.99,-274.95 3030.58,-272.99 3031.63,-279.91"/>
</g>
<!-- Node18 -->
<g id="node18" class="node">
<title>Node18</title>
<g id="a_node18"><a xlink:title=" ">
<polygon fill="white" stroke="#bfbfbf" points="2782.5,-6 2782.5,-25 2844.5,-25 2844.5,-6 2782.5,-6"/>
<text text-anchor="middle" x="2813.5" y="-13" font-family="Helvetica,sans-Serif" font-size="10.00">EGL/egl.h</text>
</a>
</g>
</g>
<!-- Node16&#45;&gt;Node18 -->
<g id="edge18" class="edge">
<title>Node16&#45;&gt;Node18</title>
<path fill="none" stroke="midnightblue" d="M781.17,-327.36C1050.74,-326.03 3067.25,-314.79 3115.5,-277 3141.05,-256.99 3134.5,-238.95 3134.5,-206.5 3134.5,-206.5 3134.5,-206.5 3134.5,-137.5 3134.5,-78.34 2941.17,-38.13 2854.58,-23.09"/>
<polygon fill="midnightblue" stroke="midnightblue" points="2855.02,-19.61 2844.57,-21.38 2853.84,-26.51 2855.02,-19.61"/>
</g>
<!-- Node19 -->
<g id="node19" class="node">
<title>Node19</title>
<g id="a_node19"><a xlink:title=" ">
<polygon fill="white" stroke="#bfbfbf" points="3162.5,-257.5 3162.5,-276.5 3236.5,-276.5 3236.5,-257.5 3162.5,-257.5"/>
<text text-anchor="middle" x="3199.5" y="-264.5" font-family="Helvetica,sans-Serif" font-size="10.00">GLES2/gl2.h</text>
</a>
</g>
</g>
<!-- Node16&#45;&gt;Node19 -->
<g id="edge19" class="edge">
<title>Node16&#45;&gt;Node19</title>
<path fill="none" stroke="midnightblue" d="M781.04,-327.5C1021.24,-327.44 2657.62,-325.2 3148.5,-277 3149.76,-276.88 3151.03,-276.74 3152.32,-276.59"/>
<polygon fill="midnightblue" stroke="midnightblue" points="3152.82,-280.05 3162.27,-275.25 3151.89,-273.12 3152.82,-280.05"/>
</g>
<!-- Node20 -->
<g id="node20" class="node">
<title>Node20</title>
<g id="a_node20"><a xlink:title=" ">
<polygon fill="white" stroke="#bfbfbf" points="701.5,-129 701.5,-148 739.5,-148 739.5,-129 701.5,-129"/>
<text text-anchor="middle" x="720.5" y="-136" font-family="Helvetica,sans-Serif" font-size="10.00">map</text>
</a>
</g>
</g>
<!-- Node16&#45;&gt;Node20 -->
<g id="edge22" class="edge">
<title>Node16&#45;&gt;Node20</title>
<path fill="none" stroke="midnightblue" d="M749.46,-318.99C745.21,-301 735.31,-257.74 729.5,-221 726.1,-199.52 723.56,-174.66 722.05,-158.1"/>
<polygon fill="midnightblue" stroke="midnightblue" points="725.54,-157.76 721.18,-148.1 718.56,-158.37 725.54,-157.76"/>
</g>
<!-- Node21 -->
<g id="node21" class="node">
<title>Node21</title>
<g id="a_node21"><a xlink:title=" ">
<polygon fill="white" stroke="#bfbfbf" points="502,-257.5 502,-276.5 549,-276.5 549,-257.5 502,-257.5"/>
<text text-anchor="middle" x="525.5" y="-264.5" font-family="Helvetica,sans-Serif" font-size="10.00">queue</text>
</a>
</g>
</g>
<!-- Node16&#45;&gt;Node21 -->
<g id="edge25" class="edge">
<title>Node16&#45;&gt;Node21</title>
<path fill="none" stroke="midnightblue" d="M721.95,-319.72C679.97,-308.67 603.27,-288.47 559.15,-276.86"/>
<polygon fill="midnightblue" stroke="midnightblue" points="559.76,-273.4 549.2,-274.24 557.98,-280.17 559.76,-273.4"/>
</g>
<!-- Node22 -->
<g id="node22" class="node">
<title>Node22</title>
<g id="a_node22"><a xlink:title=" ">
<polygon fill="white" stroke="#bfbfbf" points="1189.5,-129 1189.5,-148 1233.5,-148 1233.5,-129 1189.5,-129"/>
<text text-anchor="middle" x="1211.5" y="-136" font-family="Helvetica,sans-Serif" font-size="10.00">string</text>
</a>
</g>
</g>
<!-- Node16&#45;&gt;Node22 -->
<g id="edge26" class="edge">
<title>Node16&#45;&gt;Node22</title>
<path fill="none" stroke="midnightblue" d="M774.08,-318.91C820.7,-301.12 930.89,-258.74 1022.5,-221 1079.82,-197.38 1146.26,-168.35 1183.12,-152.08"/>
<polygon fill="midnightblue" stroke="midnightblue" points="1184.54,-155.28 1192.27,-148.04 1181.71,-148.88 1184.54,-155.28"/>
</g>
<!-- Node23 -->
<g id="node23" class="node">
<title>Node23</title>
<g id="a_node23"><a xlink:title=" ">
<polygon fill="white" stroke="#bfbfbf" points="598,-129 598,-148 645,-148 645,-129 598,-129"/>
<text text-anchor="middle" x="621.5" y="-136" font-family="Helvetica,sans-Serif" font-size="10.00">vector</text>
</a>
</g>
</g>
<!-- Node16&#45;&gt;Node23 -->
<g id="edge27" class="edge">
<title>Node16&#45;&gt;Node23</title>
<path fill="none" stroke="midnightblue" d="M745.58,-318.93C725.61,-290.06 660.53,-195.94 633.47,-156.81"/>
<polygon fill="midnightblue" stroke="midnightblue" points="636.02,-154.35 627.46,-148.12 630.27,-158.33 636.02,-154.35"/>
</g>
<!-- Node24 -->
<g id="node24" class="node">
<title>Node24</title>
<g id="a_node24"><a xlink:href="backend_8h.html" target="_top" xlink:title=" ">
<polygon fill="white" stroke="black" points="469.5,-129 469.5,-148 579.5,-148 579.5,-129 469.5,-129"/>
<text text-anchor="middle" x="524.5" y="-136" font-family="Helvetica,sans-Serif" font-size="10.00">backend/backend.h</text>
</a>
</g>
</g>
<!-- Node16&#45;&gt;Node24 -->
<g id="edge28" class="edge">
<title>Node16&#45;&gt;Node24</title>
<path fill="none" stroke="midnightblue" d="M738.12,-318.93C698.11,-289.63 581.29,-193.13 539.4,-155.1"/>
<polygon fill="midnightblue" stroke="midnightblue" points="541.58,-152.35 531.86,-148.12 536.82,-157.48 541.58,-152.35"/>
</g>
<!-- Node25 -->
<g id="node25" class="node">
<title>Node25</title>
<g id="a_node25"><a xlink:href="constants_8h.html" target="_top" xlink:title=" ">
<polygon fill="white" stroke="black" points="2386,-67.5 2386,-86.5 2459,-86.5 2459,-67.5 2386,-67.5"/>
<text text-anchor="middle" x="2422.5" y="-74.5" font-family="Helvetica,sans-Serif" font-size="10.00">constants.h</text>
</a>
</g>
</g>
<!-- Node16&#45;&gt;Node25 -->
<g id="edge35" class="edge">
<title>Node16&#45;&gt;Node25</title>
<path fill="none" stroke="midnightblue" d="M781.14,-327.67C1040.21,-328.87 2914.09,-331.4 3077.5,-154 3086.83,-143.87 3086.9,-133.07 3077.5,-123 3036.19,-78.75 2612.41,-76.95 2469.36,-77.62"/>
<polygon fill="midnightblue" stroke="midnightblue" points="2469.14,-74.12 2459.16,-77.68 2469.18,-81.12 2469.14,-74.12"/>
</g>
<!-- Node27 -->
<g id="node27" class="node">
<title>Node27</title>
<g id="a_node27"><a xlink:href="platform__channel_8h.html" target="_top" xlink:title=" ">
<polygon fill="white" stroke="black" points="738,-196 738,-215 849,-215 849,-196 738,-196"/>
<text text-anchor="middle" x="793.5" y="-203" font-family="Helvetica,sans-Serif" font-size="10.00">platform_channel.h</text>
</a>
</g>
</g>
<!-- Node16&#45;&gt;Node27 -->
<g id="edge37" class="edge">
<title>Node16&#45;&gt;Node27</title>
<path fill="none" stroke="midnightblue" d="M754.52,-318.8C761.33,-299.18 778.01,-251.14 787.18,-224.69"/>
<polygon fill="midnightblue" stroke="midnightblue" points="790.53,-225.72 790.51,-215.12 783.92,-223.42 790.53,-225.72"/>
</g>
<!-- Node28 -->
<g id="node28" class="node">
<title>Node28</title>
<g id="a_node28"><a xlink:href="key__event_8h.html" target="_top" xlink:title=" ">
<polygon fill="white" stroke="black" points="1510.5,-190.5 1510.5,-220.5 1622.5,-220.5 1622.5,-190.5 1510.5,-190.5"/>
<text text-anchor="start" x="1518.5" y="-208.5" font-family="Helvetica,sans-Serif" font-size="10.00">static_plugins/key</text>
<text text-anchor="middle" x="1566.5" y="-197.5" font-family="Helvetica,sans-Serif" font-size="10.00">_event/key_event.h</text>
</a>
</g>
</g>
<!-- Node16&#45;&gt;Node28 -->
<g id="edge41" class="edge">
<title>Node16&#45;&gt;Node28</title>
<path fill="none" stroke="midnightblue" d="M781.23,-326.71C894.16,-323.5 1296.33,-309.94 1419.5,-277 1461.69,-265.72 1506.43,-242.42 1535.31,-225.7"/>
<polygon fill="midnightblue" stroke="midnightblue" points="1537.26,-228.61 1544.11,-220.52 1533.71,-222.57 1537.26,-228.61"/>
</g>
<!-- Node34 -->
<g id="node34" class="node">
<title>Node34</title>
<g id="a_node34"><a xlink:href="text__input_8h.html" target="_top" xlink:title=" ">
<polygon fill="white" stroke="black" points="2116.5,-190.5 2116.5,-220.5 2224.5,-220.5 2224.5,-190.5 2116.5,-190.5"/>
<text text-anchor="start" x="2124.5" y="-208.5" font-family="Helvetica,sans-Serif" font-size="10.00">static_plugins/text</text>
<text text-anchor="middle" x="2170.5" y="-197.5" font-family="Helvetica,sans-Serif" font-size="10.00">_input/text_input.h</text>
</a>
</g>
</g>
<!-- Node16&#45;&gt;Node34 -->
<g id="edge53" class="edge">
<title>Node16&#45;&gt;Node34</title>
<path fill="none" stroke="midnightblue" d="M781.24,-325.68C878.72,-319.65 1197.37,-299.43 1460.5,-277 1698.79,-256.69 1981.5,-226.91 2106.08,-213.5"/>
<polygon fill="midnightblue" stroke="midnightblue" points="2106.65,-216.96 2116.21,-212.41 2105.9,-210 2106.65,-216.96"/>
</g>
<!-- Node39 -->
<g id="node39" class="node">
<title>Node39</title>
<g id="a_node39"><a xlink:href="flutter__view_8h.html" target="_top" xlink:title=" ">
<polygon fill="white" stroke="black" points="1158,-257.5 1158,-276.5 1267,-276.5 1267,-257.5 1158,-257.5"/>
<text text-anchor="middle" x="1212.5" y="-264.5" font-family="Helvetica,sans-Serif" font-size="10.00">view/flutter_view.h</text>
</a>
</g>
</g>
<!-- Node16&#45;&gt;Node39 -->
<g id="edge67" class="edge">
<title>Node16&#45;&gt;Node39</title>
<path fill="none" stroke="midnightblue" d="M781.04,-323.69C854.43,-314.21 1046.44,-289.43 1147.75,-276.36"/>
<polygon fill="midnightblue" stroke="midnightblue" points="1148.39,-279.8 1157.86,-275.05 1147.49,-272.86 1148.39,-279.8"/>
</g>
<!-- Node24&#45;&gt;Node3 -->
<g id="edge29" class="edge">
<title>Node24&#45;&gt;Node3</title>
<path fill="none" stroke="midnightblue" d="M535.22,-128.8C558.71,-109.72 615.31,-63.76 648.35,-36.92"/>
<polygon fill="midnightblue" stroke="midnightblue" points="650.66,-39.56 656.21,-30.54 646.24,-34.13 650.66,-39.56"/>
</g>
<!-- Node24&#45;&gt;Node16 -->
<g id="edge34" class="edge">
<title>Node24&#45;&gt;Node16</title>
<path fill="none" stroke="midnightblue" d="M537.94,-148.12C578.05,-177.49 694.87,-274 736.67,-311.96"/>
<polygon fill="midnightblue" stroke="midnightblue" points="734.47,-314.7 744.19,-318.93 739.23,-309.57 734.47,-314.7"/>
</g>
<!-- Node24&#45;&gt;Node25 -->
<g id="edge30" class="edge">
<title>Node24&#45;&gt;Node25</title>
<path fill="none" stroke="midnightblue" d="M557.02,-128.94C567.33,-126.58 578.83,-124.31 589.5,-123 950.24,-78.77 2125.8,-77.64 2375.58,-77.91"/>
<polygon fill="midnightblue" stroke="midnightblue" points="2375.76,-81.41 2385.76,-77.93 2375.77,-74.41 2375.76,-81.41"/>
</g>
<!-- Node25&#45;&gt;Node3 -->
<g id="edge32" class="edge">
<title>Node25&#45;&gt;Node3</title>
<path fill="none" stroke="midnightblue" d="M2385.82,-68.87C2381.02,-68.13 2376.15,-67.48 2371.5,-67 2051.29,-34.16 1042.6,-20.61 752.35,-17.33"/>
<polygon fill="midnightblue" stroke="midnightblue" points="752.37,-13.83 742.33,-17.21 752.29,-20.83 752.37,-13.83"/>
</g>
<!-- Node25&#45;&gt;Node18 -->
<g id="edge31" class="edge">
<title>Node25&#45;&gt;Node18</title>
<path fill="none" stroke="midnightblue" d="M2459.28,-70.4C2532.36,-59.28 2695.39,-34.47 2772.09,-22.8"/>
<polygon fill="midnightblue" stroke="midnightblue" points="2772.97,-26.21 2782.32,-21.24 2771.91,-19.29 2772.97,-26.21"/>
</g>
<!-- Node26 -->
<g id="node26" class="node">
<title>Node26</title>
<g id="a_node26"><a xlink:title=" ">
<polygon fill="white" stroke="#bfbfbf" points="2401.5,-6 2401.5,-25 2443.5,-25 2443.5,-6 2401.5,-6"/>
<text text-anchor="middle" x="2422.5" y="-13" font-family="Helvetica,sans-Serif" font-size="10.00">array</text>
</a>
</g>
</g>
<!-- Node25&#45;&gt;Node26 -->
<g id="edge33" class="edge">
<title>Node25&#45;&gt;Node26</title>
<path fill="none" stroke="midnightblue" d="M2422.5,-67.48C2422.5,-59.08 2422.5,-45.98 2422.5,-35.16"/>
<polygon fill="midnightblue" stroke="midnightblue" points="2426,-35.01 2422.5,-25.01 2419,-35.01 2426,-35.01"/>
</g>
<!-- Node27&#45;&gt;Node3 -->
<g id="edge40" class="edge">
<title>Node27&#45;&gt;Node3</title>
<path fill="none" stroke="midnightblue" d="M757.97,-195.9C735.57,-188.56 708.04,-175.67 692.5,-154 668.46,-120.49 668.07,-70.33 670.46,-40.76"/>
<polygon fill="midnightblue" stroke="midnightblue" points="673.97,-40.81 671.46,-30.52 667,-40.13 673.97,-40.81"/>
</g>
<!-- Node27&#45;&gt;Node20 -->
<g id="edge38" class="edge">
<title>Node27&#45;&gt;Node20</title>
<path fill="none" stroke="midnightblue" d="M783.65,-195.73C771.94,-185.31 752.18,-167.71 737.88,-154.97"/>
<polygon fill="midnightblue" stroke="midnightblue" points="739.99,-152.16 730.19,-148.13 735.33,-157.39 739.99,-152.16"/>
</g>
<!-- Node27&#45;&gt;Node22 -->
<g id="edge39" class="edge">
<title>Node27&#45;&gt;Node22</title>
<path fill="none" stroke="midnightblue" d="M849.02,-196.66C940.16,-183.77 1114.24,-159.01 1142.5,-154 1154.5,-151.87 1167.59,-149.21 1179.12,-146.75"/>
<polygon fill="midnightblue" stroke="midnightblue" points="1180.16,-150.1 1189.2,-144.56 1178.68,-143.26 1180.16,-150.1"/>
</g>
<!-- Node28&#45;&gt;Node3 -->
<g id="edge50" class="edge">
<title>Node28&#45;&gt;Node3</title>
<path fill="none" stroke="midnightblue" d="M1577.78,-190.36C1590.54,-172.58 1607.47,-142.06 1590.5,-123 1535.08,-60.77 964.52,-29.36 752.37,-19.77"/>
<polygon fill="midnightblue" stroke="midnightblue" points="752.39,-16.27 742.24,-19.31 752.08,-23.26 752.39,-16.27"/>
</g>
<!-- Node28&#45;&gt;Node9 -->
<g id="edge49" class="edge">
<title>Node28&#45;&gt;Node9</title>
<path fill="none" stroke="midnightblue" d="M1527.88,-190.4C1496.09,-178.79 1451.52,-162.51 1421.41,-151.52"/>
<polygon fill="midnightblue" stroke="midnightblue" points="1422.39,-148.15 1411.8,-148.01 1419.99,-154.72 1422.39,-148.15"/>
</g>
<!-- Node28&#45;&gt;Node11 -->
<g id="edge43" class="edge">
<title>Node28&#45;&gt;Node11</title>
<path fill="none" stroke="midnightblue" d="M1510.21,-195.74C1459.53,-187.22 1383.27,-172.81 1318.5,-154 1315.92,-153.25 1313.27,-152.4 1310.62,-151.5"/>
<polygon fill="midnightblue" stroke="midnightblue" points="1311.79,-148.21 1301.2,-148.1 1309.41,-154.79 1311.79,-148.21"/>
</g>
<!-- Node28&#45;&gt;Node20 -->
<g id="edge42" class="edge">
<title>Node28&#45;&gt;Node20</title>
<path fill="none" stroke="midnightblue" d="M1510.43,-201.35C1328.75,-191.1 766.89,-159.08 748.5,-154 746.83,-153.54 745.15,-152.97 743.48,-152.33"/>
<polygon fill="midnightblue" stroke="midnightblue" points="744.82,-149.09 734.27,-148.08 741.88,-155.45 744.82,-149.09"/>
</g>
<!-- Node28&#45;&gt;Node22 -->
<g id="edge44" class="edge">
<title>Node28&#45;&gt;Node22</title>
<path fill="none" stroke="midnightblue" d="M1510.39,-200.59C1444.93,-194.93 1333.98,-181.9 1242.5,-154 1240.62,-153.43 1238.72,-152.76 1236.82,-152.04"/>
<polygon fill="midnightblue" stroke="midnightblue" points="1238.14,-148.79 1227.57,-148.07 1235.38,-155.23 1238.14,-148.79"/>
</g>
<!-- Node28&#45;&gt;Node25 -->
<g id="edge52" class="edge">
<title>Node28&#45;&gt;Node25</title>
<path fill="none" stroke="midnightblue" d="M1622.58,-201.16C1717.57,-194.88 1905.7,-179.6 1966.5,-154 1986.91,-145.41 1985.02,-131.41 2005.5,-123 2071.56,-95.88 2281.2,-83.9 2375.61,-79.78"/>
<polygon fill="midnightblue" stroke="midnightblue" points="2375.89,-83.27 2385.73,-79.35 2375.59,-76.28 2375.89,-83.27"/>
</g>
<!-- Node29 -->
<g id="node29" class="node">
<title>Node29</title>
<g id="a_node29"><a xlink:title=" ">
<polygon fill="white" stroke="#bfbfbf" points="1637.5,-123.5 1637.5,-153.5 1761.5,-153.5 1761.5,-123.5 1637.5,-123.5"/>
<text text-anchor="start" x="1645.5" y="-141.5" font-family="Helvetica,sans-Serif" font-size="10.00">flutter/basic_message</text>
<text text-anchor="middle" x="1699.5" y="-130.5" font-family="Helvetica,sans-Serif" font-size="10.00">_channel.h</text>
</a>
</g>
</g>
<!-- Node28&#45;&gt;Node29 -->
<g id="edge45" class="edge">
<title>Node28&#45;&gt;Node29</title>
<path fill="none" stroke="midnightblue" d="M1595.36,-190.4C1614.79,-180.9 1640.62,-168.28 1661.69,-157.98"/>
<polygon fill="midnightblue" stroke="midnightblue" points="1663.25,-161.11 1670.7,-153.58 1660.18,-154.82 1663.25,-161.11"/>
</g>
<!-- Node30 -->
<g id="node30" class="node">
<title>Node30</title>
<g id="a_node30"><a xlink:title=" ">
<polygon fill="white" stroke="#bfbfbf" points="2014,-129 2014,-148 2161,-148 2161,-129 2014,-129"/>
<text text-anchor="middle" x="2087.5" y="-136" font-family="Helvetica,sans-Serif" font-size="10.00">flutter/binary_messenger.h</text>
</a>
</g>
</g>
<!-- Node28&#45;&gt;Node30 -->
<g id="edge46" class="edge">
<title>Node28&#45;&gt;Node30</title>
<path fill="none" stroke="midnightblue" d="M1622.66,-198.81C1705.33,-190.23 1864.6,-172.97 1999.5,-154 2008.83,-152.69 2018.7,-151.18 2028.32,-149.64"/>
<polygon fill="midnightblue" stroke="midnightblue" points="2028.92,-153.09 2038.23,-148.04 2027.8,-146.18 2028.92,-153.09"/>
</g>
<!-- Node31 -->
<g id="node31" class="node">
<title>Node31</title>
<g id="a_node31"><a xlink:title=" ">
<polygon fill="white" stroke="#bfbfbf" points="1779.5,-123.5 1779.5,-153.5 1957.5,-153.5 1957.5,-123.5 1779.5,-123.5"/>
<text text-anchor="start" x="1787.5" y="-141.5" font-family="Helvetica,sans-Serif" font-size="10.00">flutter/shell/platform</text>
<text text-anchor="middle" x="1868.5" y="-130.5" font-family="Helvetica,sans-Serif" font-size="10.00">/common/json_message_codec.h</text>
</a>
</g>
</g>
<!-- Node28&#45;&gt;Node31 -->
<g id="edge47" class="edge">
<title>Node28&#45;&gt;Node31</title>
<path fill="none" stroke="midnightblue" d="M1622.6,-192.43C1670.67,-182.08 1740.33,-167.09 1793.24,-155.7"/>
<polygon fill="midnightblue" stroke="midnightblue" points="1794.22,-159.07 1803.26,-153.54 1792.74,-152.23 1794.22,-159.07"/>
</g>
<!-- Node32 -->
<g id="node32" class="node">
<title>Node32</title>
<g id="a_node32"><a xlink:title=" ">
<polygon fill="white" stroke="#bfbfbf" points="1468,-129 1468,-148 1581,-148 1581,-129 1468,-129"/>
<text text-anchor="middle" x="1524.5" y="-136" font-family="Helvetica,sans-Serif" font-size="10.00">flutter/fml/macros.h</text>
</a>
</g>
</g>
<!-- Node28&#45;&gt;Node32 -->
<g id="edge48" class="edge">
<title>Node28&#45;&gt;Node32</title>
<path fill="none" stroke="midnightblue" d="M1557.39,-190.4C1551.03,-180.56 1542.51,-167.38 1535.74,-156.89"/>
<polygon fill="midnightblue" stroke="midnightblue" points="1538.48,-154.69 1530.12,-148.19 1532.61,-158.49 1538.48,-154.69"/>
</g>
<!-- Node33 -->
<g id="node33" class="node">
<title>Node33</title>
<g id="a_node33"><a xlink:title=" ">
<polygon fill="white" stroke="#bfbfbf" points="2179.5,-129 2179.5,-148 2329.5,-148 2329.5,-129 2179.5,-129"/>
<text text-anchor="middle" x="2254.5" y="-136" font-family="Helvetica,sans-Serif" font-size="10.00">xkbcommon/xkbcommon.h</text>
</a>
</g>
</g>
<!-- Node28&#45;&gt;Node33 -->
<g id="edge51" class="edge">
<title>Node28&#45;&gt;Node33</title>
<path fill="none" stroke="midnightblue" d="M1622.88,-201.44C1729.92,-195.26 1969.83,-179.66 2170.5,-154 2179.87,-152.8 2189.79,-151.3 2199.4,-149.72"/>
<polygon fill="midnightblue" stroke="midnightblue" points="2199.99,-153.17 2209.27,-148.05 2198.83,-146.27 2199.99,-153.17"/>
</g>
<!-- Node34&#45;&gt;Node3 -->
<g id="edge64" class="edge">
<title>Node34&#45;&gt;Node3</title>
<path fill="none" stroke="midnightblue" d="M2224.67,-197.16C2287.18,-186.61 2376.76,-163.78 2338.5,-123 2283.59,-64.47 1075.55,-27.45 752.4,-18.58"/>
<polygon fill="midnightblue" stroke="midnightblue" points="752.28,-15.07 742.18,-18.3 752.09,-22.07 752.28,-15.07"/>
</g>
<!-- Node34&#45;&gt;Node9 -->
<g id="edge63" class="edge">
<title>Node34&#45;&gt;Node9</title>
<path fill="none" stroke="midnightblue" d="M2116.29,-203.06C1997.04,-199.37 1703.17,-187.39 1459.5,-154 1451.7,-152.93 1443.47,-151.52 1435.49,-149.99"/>
<polygon fill="midnightblue" stroke="midnightblue" points="1436.05,-146.54 1425.56,-148.02 1434.69,-153.4 1436.05,-146.54"/>
</g>
<!-- Node34&#45;&gt;Node11 -->
<g id="edge55" class="edge">
<title>Node34&#45;&gt;Node11</title>
<path fill="none" stroke="midnightblue" d="M2116.39,-203.45C1953.87,-199.94 1471.78,-186.97 1318.5,-154 1315.42,-153.34 1312.27,-152.47 1309.15,-151.48"/>
<polygon fill="midnightblue" stroke="midnightblue" points="1310.08,-148.1 1299.48,-148.05 1307.74,-154.69 1310.08,-148.1"/>
</g>
<!-- Node34&#45;&gt;Node20 -->
<g id="edge54" class="edge">
<title>Node34&#45;&gt;Node20</title>
<path fill="none" stroke="midnightblue" d="M2116.19,-202.9C1859.87,-195.29 782.18,-162.84 748.5,-154 746.79,-153.55 745.06,-152.98 743.36,-152.34"/>
<polygon fill="midnightblue" stroke="midnightblue" points="744.51,-149.02 733.97,-148 741.58,-155.37 744.51,-149.02"/>
</g>
<!-- Node34&#45;&gt;Node22 -->
<g id="edge56" class="edge">
<title>Node34&#45;&gt;Node22</title>
<path fill="none" stroke="midnightblue" d="M2116.45,-202.76C1930.96,-196.63 1327.1,-175.24 1242.5,-154 1240.51,-153.5 1238.5,-152.87 1236.5,-152.16"/>
<polygon fill="midnightblue" stroke="midnightblue" points="1237.41,-148.75 1226.84,-148.09 1234.69,-155.2 1237.41,-148.75"/>
</g>
<!-- Node34&#45;&gt;Node25 -->
<g id="edge66" class="edge">
<title>Node34&#45;&gt;Node25</title>
<path fill="none" stroke="midnightblue" d="M2224.64,-203.8C2360.93,-201.49 2709.79,-191.9 2744.5,-154 2753.81,-143.84 2753.54,-133.39 2744.5,-123 2709.44,-82.7 2550.24,-77.39 2469.6,-77.36"/>
<polygon fill="midnightblue" stroke="midnightblue" points="2469.23,-73.86 2459.24,-77.39 2469.25,-80.86 2469.23,-73.86"/>
</g>
<!-- Node34&#45;&gt;Node30 -->
<g id="edge57" class="edge">
<title>Node34&#45;&gt;Node30</title>
<path fill="none" stroke="midnightblue" d="M2152.49,-190.4C2138.91,-179.76 2120.32,-165.2 2106.5,-154.38"/>
<polygon fill="midnightblue" stroke="midnightblue" points="2108.63,-151.6 2098.6,-148.19 2104.32,-157.12 2108.63,-151.6"/>
</g>
<!-- Node34&#45;&gt;Node32 -->
<g id="edge60" class="edge">
<title>Node34&#45;&gt;Node32</title>
<path fill="none" stroke="midnightblue" d="M2116.18,-200.26C2018.46,-192.46 1806.62,-174.7 1628.5,-154 1616.47,-152.6 1603.69,-150.95 1591.35,-149.28"/>
<polygon fill="midnightblue" stroke="midnightblue" points="1591.5,-145.77 1581.11,-147.87 1590.54,-152.7 1591.5,-145.77"/>
</g>
<!-- Node34&#45;&gt;Node33 -->
<g id="edge65" class="edge">
<title>Node34&#45;&gt;Node33</title>
<path fill="none" stroke="midnightblue" d="M2188.73,-190.4C2202.47,-179.76 2221.28,-165.2 2235.27,-154.38"/>
<polygon fill="midnightblue" stroke="midnightblue" points="2237.5,-157.08 2243.26,-148.19 2233.21,-151.55 2237.5,-157.08"/>
</g>
<!-- Node35 -->
<g id="node35" class="node">
<title>Node35</title>
<g id="a_node35"><a xlink:title=" ">
<polygon fill="white" stroke="#bfbfbf" points="2792,-129 2792,-148 2931,-148 2931,-129 2792,-129"/>
<text text-anchor="middle" x="2861.5" y="-136" font-family="Helvetica,sans-Serif" font-size="10.00">flutter/method_channel.h</text>
</a>
</g>
</g>
<!-- Node34&#45;&gt;Node35 -->
<g id="edge58" class="edge">
<title>Node34&#45;&gt;Node35</title>
<path fill="none" stroke="midnightblue" d="M2224.67,-201.6C2330.97,-195.54 2574.27,-179.94 2777.5,-154 2786.87,-152.8 2796.79,-151.3 2806.4,-149.72"/>
<polygon fill="midnightblue" stroke="midnightblue" points="2806.99,-153.17 2816.27,-148.06 2805.83,-146.27 2806.99,-153.17"/>
</g>
<!-- Node36 -->
<g id="node36" class="node">
<title>Node36</title>
<g id="a_node36"><a xlink:title=" ">
<polygon fill="white" stroke="#bfbfbf" points="2949,-123.5 2949,-153.5 3068,-153.5 3068,-123.5 2949,-123.5"/>
<text text-anchor="start" x="2957" y="-141.5" font-family="Helvetica,sans-Serif" font-size="10.00">flutter/method_result</text>
<text text-anchor="middle" x="3008.5" y="-130.5" font-family="Helvetica,sans-Serif" font-size="10.00">_functions.h</text>
</a>
</g>
</g>
<!-- Node34&#45;&gt;Node36 -->
<g id="edge59" class="edge">
<title>Node34&#45;&gt;Node36</title>
<path fill="none" stroke="midnightblue" d="M2224.92,-203.63C2349.67,-201.06 2665.93,-191.23 2938.79,-154.11"/>
<polygon fill="midnightblue" stroke="midnightblue" points="2939.45,-157.55 2948.88,-152.72 2938.5,-150.62 2939.45,-157.55"/>
</g>
<!-- Node37 -->
<g id="node37" class="node">
<title>Node37</title>
<g id="a_node37"><a xlink:title=" ">
<polygon fill="white" stroke="#bfbfbf" points="2386,-123.5 2386,-153.5 2557,-153.5 2557,-123.5 2386,-123.5"/>
<text text-anchor="start" x="2394" y="-141.5" font-family="Helvetica,sans-Serif" font-size="10.00">flutter/shell/platform</text>
<text text-anchor="middle" x="2471.5" y="-130.5" font-family="Helvetica,sans-Serif" font-size="10.00">/common/json_method_codec.h</text>
</a>
</g>
</g>
<!-- Node34&#45;&gt;Node37 -->
<g id="edge61" class="edge">
<title>Node34&#45;&gt;Node37</title>
<path fill="none" stroke="midnightblue" d="M2224.66,-192.8C2272.6,-182.45 2343.04,-167.24 2396.42,-155.71"/>
<polygon fill="midnightblue" stroke="midnightblue" points="2397.48,-159.07 2406.52,-153.53 2396,-152.22 2397.48,-159.07"/>
</g>
<!-- Node38 -->
<g id="node38" class="node">
<title>Node38</title>
<g id="a_node38"><a xlink:title=" ">
<polygon fill="white" stroke="#bfbfbf" points="2575.5,-123.5 2575.5,-153.5 2735.5,-153.5 2735.5,-123.5 2575.5,-123.5"/>
<text text-anchor="start" x="2583.5" y="-141.5" font-family="Helvetica,sans-Serif" font-size="10.00">flutter/shell/platform</text>
<text text-anchor="middle" x="2655.5" y="-130.5" font-family="Helvetica,sans-Serif" font-size="10.00">/common/text_input_model.h</text>
</a>
</g>
</g>
<!-- Node34&#45;&gt;Node38 -->
<g id="edge62" class="edge">
<title>Node34&#45;&gt;Node38</title>
<path fill="none" stroke="midnightblue" d="M2224.71,-198.19C2299.12,-189.4 2437.34,-172.58 2565.47,-154.12"/>
<polygon fill="midnightblue" stroke="midnightblue" points="2566.07,-157.57 2575.47,-152.67 2565.07,-150.64 2566.07,-157.57"/>
</g>
<!-- Node39&#45;&gt;Node11 -->
<g id="edge69" class="edge">
<title>Node39&#45;&gt;Node11</title>
<path fill="none" stroke="midnightblue" d="M1255.57,-257.49C1275.9,-251.07 1298.32,-239.99 1310.5,-221 1323.67,-200.46 1308.21,-173.33 1295.05,-156.14"/>
<polygon fill="midnightblue" stroke="midnightblue" points="1297.57,-153.69 1288.54,-148.15 1292.14,-158.11 1297.57,-153.69"/>
</g>
<!-- Node39&#45;&gt;Node20 -->
<g id="edge68" class="edge">
<title>Node39&#45;&gt;Node20</title>
<path fill="none" stroke="midnightblue" d="M1157.79,-266.74C1093.06,-265.72 983.24,-257.94 897.5,-221 877.16,-212.24 878,-200.5 858.5,-190 813.21,-165.61 795.94,-173.89 748.5,-154 747.47,-153.57 746.42,-153.11 745.36,-152.63"/>
<polygon fill="midnightblue" stroke="midnightblue" points="746.51,-149.3 735.98,-148.08 743.45,-155.6 746.51,-149.3"/>
</g>
<!-- Node39&#45;&gt;Node32 -->
<g id="edge75" class="edge">
<title>Node39&#45;&gt;Node32</title>
<path fill="none" stroke="midnightblue" d="M1234.39,-257.47C1257.37,-248.49 1294.53,-233.89 1326.5,-221 1386.16,-196.95 1455.63,-168.18 1494.39,-152.05"/>
<polygon fill="midnightblue" stroke="midnightblue" points="1496.13,-155.12 1504.02,-148.05 1493.44,-148.66 1496.13,-155.12"/>
</g>
<!-- Node40 -->
<g id="node40" class="node">
<title>Node40</title>
<g id="a_node40"><a xlink:href="configuration_8h.html" target="_top" xlink:title=" ">
<polygon fill="white" stroke="black" points="1145.5,-196 1145.5,-215 1301.5,-215 1301.5,-196 1145.5,-196"/>
<text text-anchor="middle" x="1223.5" y="-203" font-family="Helvetica,sans-Serif" font-size="10.00">configuration/configuration.h</text>
</a>
</g>
</g>
<!-- Node39&#45;&gt;Node40 -->
<g id="edge70" class="edge">
<title>Node39&#45;&gt;Node40</title>
<path fill="none" stroke="midnightblue" d="M1214.08,-257.48C1215.63,-249.08 1218.05,-235.98 1220.05,-225.16"/>
<polygon fill="midnightblue" stroke="midnightblue" points="1223.55,-225.48 1221.93,-215.01 1216.67,-224.21 1223.55,-225.48"/>
</g>
<!-- Node41 -->
<g id="node41" class="node">
<title>Node41</title>
<g id="a_node41"><a xlink:href="window_8h.html" target="_top" xlink:title=" ">
<polygon fill="white" stroke="black" points="906,-196 906,-215 1013,-215 1013,-196 906,-196"/>
<text text-anchor="middle" x="959.5" y="-203" font-family="Helvetica,sans-Serif" font-size="10.00">wayland/window.h</text>
</a>
</g>
</g>
<!-- Node39&#45;&gt;Node41 -->
<g id="edge76" class="edge">
<title>Node39&#45;&gt;Node41</title>
<path fill="none" stroke="midnightblue" d="M1176.25,-257.48C1131.35,-246.92 1054.79,-228.91 1005.72,-217.37"/>
<polygon fill="midnightblue" stroke="midnightblue" points="1006.22,-213.89 995.68,-215.01 1004.61,-220.71 1006.22,-213.89"/>
</g>
<!-- Node40&#45;&gt;Node9 -->
<g id="edge74" class="edge">
<title>Node40&#45;&gt;Node9</title>
<path fill="none" stroke="midnightblue" d="M1245.41,-195.87C1274.09,-184.57 1324.54,-164.7 1357.23,-151.82"/>
<polygon fill="midnightblue" stroke="midnightblue" points="1358.74,-154.99 1366.76,-148.06 1356.17,-148.47 1358.74,-154.99"/>
</g>
<!-- Node40&#45;&gt;Node22 -->
<g id="edge71" class="edge">
<title>Node40&#45;&gt;Node22</title>
<path fill="none" stroke="midnightblue" d="M1221.88,-195.73C1220.12,-186.18 1217.24,-170.62 1214.97,-158.28"/>
<polygon fill="midnightblue" stroke="midnightblue" points="1218.35,-157.33 1213.09,-148.13 1211.47,-158.6 1218.35,-157.33"/>
</g>
<!-- Node40&#45;&gt;Node23 -->
<g id="edge72" class="edge">
<title>Node40&#45;&gt;Node23</title>
<path fill="none" stroke="midnightblue" d="M1145.47,-198.11C1019.72,-187.64 777.74,-166.72 692.5,-154 680.18,-152.16 666.77,-149.58 654.96,-147.1"/>
<polygon fill="midnightblue" stroke="midnightblue" points="655.57,-143.65 645.05,-144.97 654.1,-150.49 655.57,-143.65"/>
</g>
<!-- Node40&#45;&gt;Node32 -->
<g id="edge73" class="edge">
<title>Node40&#45;&gt;Node32</title>
<path fill="none" stroke="midnightblue" d="M1263.43,-195.98C1310.19,-185.98 1389.99,-168.89 1458.5,-154 1464.16,-152.77 1470.08,-151.48 1475.96,-150.19"/>
<polygon fill="midnightblue" stroke="midnightblue" points="1476.75,-153.6 1485.77,-148.04 1475.25,-146.76 1476.75,-153.6"/>
</g>
<!-- Node41&#45;&gt;Node11 -->
<g id="edge77" class="edge">
<title>Node41&#45;&gt;Node11</title>
<path fill="none" stroke="midnightblue" d="M997.92,-196C1007.56,-193.95 1017.89,-191.83 1027.5,-190 1122.68,-171.89 1149,-179.4 1242.5,-154 1245.16,-153.28 1247.88,-152.44 1250.6,-151.54"/>
<polygon fill="midnightblue" stroke="midnightblue" points="1252,-154.75 1260.24,-148.08 1249.64,-148.16 1252,-154.75"/>
</g>
<!-- Node41&#45;&gt;Node22 -->
<g id="edge78" class="edge">
<title>Node41&#45;&gt;Node22</title>
<path fill="none" stroke="midnightblue" d="M999.23,-195.98C1052.19,-184.48 1143,-164.28 1175.5,-154 1177.78,-153.28 1180.11,-152.48 1182.45,-151.64"/>
<polygon fill="midnightblue" stroke="midnightblue" points="1183.8,-154.87 1191.89,-148.03 1181.3,-148.33 1183.8,-154.87"/>
</g>
<!-- Node41&#45;&gt;Node24 -->
<g id="edge82" class="edge">
<title>Node41&#45;&gt;Node24</title>
<path fill="none" stroke="midnightblue" d="M905.79,-196.69C890.51,-194.5 873.85,-192.13 858.5,-190 739.02,-173.43 708.25,-175.15 589.5,-154 583.23,-152.88 576.64,-151.57 570.17,-150.21"/>
<polygon fill="midnightblue" stroke="midnightblue" points="570.66,-146.73 560.15,-148.03 569.18,-153.58 570.66,-146.73"/>
</g>
<!-- Node41&#45;&gt;Node25 -->
<g id="edge81" class="edge">
<title>Node41&#45;&gt;Node25</title>
<path fill="none" stroke="midnightblue" d="M993.6,-195.9C1042.78,-183.38 1129.21,-160.86 1142.5,-154 1161.87,-144 1160.1,-130.68 1180.5,-123 1293.81,-80.32 2163.24,-77.89 2375.75,-77.94"/>
<polygon fill="midnightblue" stroke="midnightblue" points="2375.94,-81.44 2385.94,-77.94 2375.95,-74.44 2375.94,-81.44"/>
</g>
<!-- Node42 -->
<g id="node42" class="node">
<title>Node42</title>
<g id="a_node42"><a xlink:title=" ">
<polygon fill="white" stroke="#bfbfbf" points="757.5,-129 757.5,-148 809.5,-148 809.5,-129 757.5,-129"/>
<text text-anchor="middle" x="783.5" y="-136" font-family="Helvetica,sans-Serif" font-size="10.00">cassert</text>
</a>
</g>
</g>
<!-- Node41&#45;&gt;Node42 -->
<g id="edge79" class="edge">
<title>Node41&#45;&gt;Node42</title>
<path fill="none" stroke="midnightblue" d="M934.4,-195.93C906.1,-186.16 858.77,-169.54 818.5,-154 816.85,-153.37 815.17,-152.7 813.47,-152.03"/>
<polygon fill="midnightblue" stroke="midnightblue" points="814.37,-148.62 803.79,-148.1 811.74,-155.1 814.37,-148.62"/>
</g>
<!-- Node43 -->
<g id="node43" class="node">
<title>Node43</title>
<g id="a_node43"><a xlink:title=" ">
<polygon fill="white" stroke="#bfbfbf" points="827.5,-129 827.5,-148 969.5,-148 969.5,-129 827.5,-129"/>
<text text-anchor="middle" x="898.5" y="-136" font-family="Helvetica,sans-Serif" font-size="10.00">agl&#45;shell&#45;client&#45;protocol.h</text>
</a>
</g>
</g>
<!-- Node41&#45;&gt;Node43 -->
<g id="edge80" class="edge">
<title>Node41&#45;&gt;Node43</title>
<path fill="none" stroke="midnightblue" d="M951.27,-195.73C941.67,-185.5 925.59,-168.36 913.7,-155.69"/>
<polygon fill="midnightblue" stroke="midnightblue" points="915.99,-153.02 906.6,-148.13 910.89,-157.81 915.99,-153.02"/>
</g>
<!-- Node44 -->
<g id="node44" class="node">
<title>Node44</title>
<g id="a_node44"><a xlink:title=" ">
<polygon fill="white" stroke="#bfbfbf" points="988,-129 988,-148 1133,-148 1133,-129 988,-129"/>
<text text-anchor="middle" x="1060.5" y="-136" font-family="Helvetica,sans-Serif" font-size="10.00">xdg&#45;shell&#45;client&#45;protocol.h</text>
</a>
</g>
</g>
<!-- Node41&#45;&gt;Node44 -->
<g id="edge83" class="edge">
<title>Node41&#45;&gt;Node44</title>
<path fill="none" stroke="midnightblue" d="M973.12,-195.73C989.93,-184.92 1018.73,-166.38 1038.64,-153.57"/>
<polygon fill="midnightblue" stroke="midnightblue" points="1040.58,-156.48 1047.09,-148.13 1036.79,-150.6 1040.58,-156.48"/>
</g>
</g>
</svg>
