<?xml version="1.0" encoding="UTF-8" standalone="no"?>
<!DOCTYPE svg PUBLIC "-//W3C//DTD SVG 1.1//EN"
 "http://www.w3.org/Graphics/SVG/1.1/DTD/svg11.dtd">
<!-- Generated by graphviz version 5.0.0 (0)
 -->
<!-- Title: /mnt/raid10/stargate/ivi&#45;homescreen/shell/static_plugins/secure_storage/secure_storage.h Pages: 1 -->
<svg width="762pt" height="346pt"
 viewBox="0.00 0.00 762.00 346.00" xmlns="http://www.w3.org/2000/svg" xmlns:xlink="http://www.w3.org/1999/xlink">
<g id="graph0" class="graph" transform="scale(1 1) rotate(0) translate(4 342)">
<title>/mnt/raid10/stargate/ivi&#45;homescreen/shell/static_plugins/secure_storage/secure_storage.h</title>
<!-- Node1 -->
<g id="node1" class="node">
<title>Node1</title>
<g id="a_node1"><a xlink:title=" ">
<polygon fill="#999999" stroke="#666666" points="287.5,-338 155.5,-338 155.5,-286 287.5,-286 287.5,-338"/>
<text text-anchor="start" x="163.5" y="-326" font-family="Helvetica,sans-Serif" font-size="10.00">/mnt/raid10/stargate</text>
<text text-anchor="start" x="163.5" y="-315" font-family="Helvetica,sans-Serif" font-size="10.00">/ivi&#45;homescreen/shell</text>
<text text-anchor="start" x="163.5" y="-304" font-family="Helvetica,sans-Serif" font-size="10.00">/static_plugins/secure</text>
<text text-anchor="middle" x="221.5" y="-293" font-family="Helvetica,sans-Serif" font-size="10.00">_storage/secure_storage.h</text>
</a>
</g>
</g>
<!-- Node2 -->
<g id="node2" class="node">
<title>Node2</title>
<g id="a_node2"><a xlink:title=" ">
<polygon fill="#e0e0e0" stroke="#999999" points="121,-250 0,-250 0,-220 121,-220 121,-250"/>
<text text-anchor="start" x="8" y="-238" font-family="Helvetica,sans-Serif" font-size="10.00">shell/platform/embedder</text>
<text text-anchor="middle" x="60.5" y="-227" font-family="Helvetica,sans-Serif" font-size="10.00">/embedder.h</text>
</a>
</g>
</g>
<!-- Node1&#45;&gt;Node2 -->
<g id="edge1" class="edge">
<title>Node1&#45;&gt;Node2</title>
<path fill="none" stroke="#63b8ff" d="M167.44,-285.82C145.36,-275.53 120.29,-263.85 99.98,-254.39"/>
<polygon fill="#63b8ff" stroke="#63b8ff" points="101.26,-251.13 90.72,-250.08 98.3,-257.47 101.26,-251.13"/>
</g>
<!-- Node3 -->
<g id="node3" class="node">
<title>Node3</title>
<g id="a_node3"><a xlink:title=" ">
<polygon fill="#e0e0e0" stroke="#999999" points="183.5,-244.5 139.5,-244.5 139.5,-225.5 183.5,-225.5 183.5,-244.5"/>
<text text-anchor="middle" x="161.5" y="-232.5" font-family="Helvetica,sans-Serif" font-size="10.00">mutex</text>
</a>
</g>
</g>
<!-- Node1&#45;&gt;Node3 -->
<g id="edge2" class="edge">
<title>Node1&#45;&gt;Node3</title>
<path fill="none" stroke="#63b8ff" d="M201.19,-285.61C192.55,-274.81 182.7,-262.5 174.98,-252.85"/>
<polygon fill="#63b8ff" stroke="#63b8ff" points="177.56,-250.47 168.58,-244.85 172.1,-254.85 177.56,-250.47"/>
</g>
<!-- Node4 -->
<g id="node4" class="node">
<title>Node4</title>
<g id="a_node4"><a xlink:title=" ">
<polygon fill="#e0e0e0" stroke="#999999" points="241.5,-244.5 201.5,-244.5 201.5,-225.5 241.5,-225.5 241.5,-244.5"/>
<text text-anchor="middle" x="221.5" y="-232.5" font-family="Helvetica,sans-Serif" font-size="10.00">utility</text>
</a>
</g>
</g>
<!-- Node1&#45;&gt;Node4 -->
<g id="edge3" class="edge">
<title>Node1&#45;&gt;Node4</title>
<path fill="none" stroke="#63b8ff" d="M221.5,-285.61C221.5,-275.58 221.5,-264.25 221.5,-254.96"/>
<polygon fill="#63b8ff" stroke="#63b8ff" points="225,-254.85 221.5,-244.85 218,-254.85 225,-254.85"/>
</g>
<!-- Node5 -->
<g id="node5" class="node">
<title>Node5</title>
<g id="a_node5"><a xlink:title=" ">
<polygon fill="#e0e0e0" stroke="#999999" points="385,-244.5 260,-244.5 260,-225.5 385,-225.5 385,-244.5"/>
<text text-anchor="middle" x="322.5" y="-232.5" font-family="Helvetica,sans-Serif" font-size="10.00">flutter/encodable_value.h</text>
</a>
</g>
</g>
<!-- Node1&#45;&gt;Node5 -->
<g id="edge4" class="edge">
<title>Node1&#45;&gt;Node5</title>
<path fill="none" stroke="#63b8ff" d="M255.41,-285.82C271.21,-274.09 289.44,-260.55 302.91,-250.55"/>
<polygon fill="#63b8ff" stroke="#63b8ff" points="305.05,-253.32 310.99,-244.54 300.88,-247.7 305.05,-253.32"/>
</g>
<!-- Node6 -->
<g id="node6" class="node">
<title>Node6</title>
<g id="a_node6"><a xlink:href="keyring_8h.html" target="_top" xlink:title=" ">
<polygon fill="white" stroke="#666666" points="459.5,-244.5 403.5,-244.5 403.5,-225.5 459.5,-225.5 459.5,-244.5"/>
<text text-anchor="middle" x="431.5" y="-232.5" font-family="Helvetica,sans-Serif" font-size="10.00">keyring.h</text>
</a>
</g>
</g>
<!-- Node1&#45;&gt;Node6 -->
<g id="edge5" class="edge">
<title>Node1&#45;&gt;Node6</title>
<path fill="none" stroke="#63b8ff" d="M287.73,-287.72C319.72,-276.43 358.64,-262.6 393.5,-250 395.14,-249.41 396.81,-248.8 398.5,-248.18"/>
<polygon fill="#63b8ff" stroke="#63b8ff" points="400.02,-251.36 408.2,-244.63 397.61,-244.78 400.02,-251.36"/>
</g>
<!-- Node7 -->
<g id="node7" class="node">
<title>Node7</title>
<g id="a_node7"><a xlink:title=" ">
<polygon fill="#e0e0e0" stroke="#999999" points="384.5,-129 292.5,-129 292.5,-110 384.5,-110 384.5,-129"/>
<text text-anchor="middle" x="338.5" y="-117" font-family="Helvetica,sans-Serif" font-size="10.00">libsecret/secret.h</text>
</a>
</g>
</g>
<!-- Node6&#45;&gt;Node7 -->
<g id="edge6" class="edge">
<title>Node6&#45;&gt;Node7</title>
<path fill="none" stroke="#63b8ff" d="M410,-225.38C404.66,-223.43 398.92,-221.5 393.5,-220 310.67,-197.07 258.33,-250.19 203.5,-184 177.51,-152.62 234.44,-135.83 282.19,-127.55"/>
<polygon fill="#63b8ff" stroke="#63b8ff" points="282.91,-130.97 292.21,-125.9 281.78,-124.07 282.91,-130.97"/>
</g>
<!-- Node8 -->
<g id="node8" class="node">
<title>Node8</title>
<g id="a_node8"><a xlink:title=" ">
<polygon fill="#e0e0e0" stroke="#999999" points="322.5,-184 212.5,-184 212.5,-165 322.5,-165 322.5,-184"/>
<text text-anchor="middle" x="267.5" y="-172" font-family="Helvetica,sans-Serif" font-size="10.00">rapidjson/document.h</text>
</a>
</g>
</g>
<!-- Node6&#45;&gt;Node8 -->
<g id="edge7" class="edge">
<title>Node6&#45;&gt;Node8</title>
<path fill="none" stroke="#63b8ff" d="M408.21,-225.36C403.35,-223.58 398.26,-221.72 393.5,-220 362.48,-208.81 327.07,-196.33 301.7,-187.44"/>
<polygon fill="#63b8ff" stroke="#63b8ff" points="302.76,-184.1 292.16,-184.1 300.44,-190.71 302.76,-184.1"/>
</g>
<!-- Node9 -->
<g id="node9" class="node">
<title>Node9</title>
<g id="a_node9"><a xlink:title=" ">
<polygon fill="#e0e0e0" stroke="#999999" points="432,-184 341,-184 341,-165 432,-165 432,-184"/>
<text text-anchor="middle" x="386.5" y="-172" font-family="Helvetica,sans-Serif" font-size="10.00">rapidjson/writer.h</text>
</a>
</g>
</g>
<!-- Node6&#45;&gt;Node9 -->
<g id="edge8" class="edge">
<title>Node6&#45;&gt;Node9</title>
<path fill="none" stroke="#63b8ff" d="M424.86,-225.37C418.21,-216.73 407.81,-203.2 399.51,-192.42"/>
<polygon fill="#63b8ff" stroke="#63b8ff" points="402.04,-189.96 393.17,-184.17 396.49,-194.23 402.04,-189.96"/>
</g>
<!-- Node10 -->
<g id="node10" class="node">
<title>Node10</title>
<g id="a_node10"><a xlink:title=" ">
<polygon fill="#e0e0e0" stroke="#999999" points="502.5,-184 450.5,-184 450.5,-165 502.5,-165 502.5,-184"/>
<text text-anchor="middle" x="476.5" y="-172" font-family="Helvetica,sans-Serif" font-size="10.00">memory</text>
</a>
</g>
</g>
<!-- Node6&#45;&gt;Node10 -->
<g id="edge9" class="edge">
<title>Node6&#45;&gt;Node10</title>
<path fill="none" stroke="#63b8ff" d="M438.14,-225.37C444.79,-216.73 455.19,-203.2 463.49,-192.42"/>
<polygon fill="#63b8ff" stroke="#63b8ff" points="466.51,-194.23 469.83,-184.17 460.96,-189.96 466.51,-194.23"/>
</g>
<!-- Node11 -->
<g id="node11" class="node">
<title>Node11</title>
<g id="a_node11"><a xlink:href="g__hash__table_8h.html" target="_top" xlink:title=" ">
<polygon fill="white" stroke="#666666" points="604,-184 521,-184 521,-165 604,-165 604,-184"/>
<text text-anchor="middle" x="562.5" y="-172" font-family="Helvetica,sans-Serif" font-size="10.00">g_hash_table.h</text>
</a>
</g>
</g>
<!-- Node6&#45;&gt;Node11 -->
<g id="edge10" class="edge">
<title>Node6&#45;&gt;Node11</title>
<path fill="none" stroke="#63b8ff" d="M450.55,-225.49C472.47,-215.7 508.71,-199.52 534,-188.23"/>
<polygon fill="#63b8ff" stroke="#63b8ff" points="535.72,-191.29 543.43,-184.02 532.87,-184.9 535.72,-191.29"/>
</g>
<!-- Node12 -->
<g id="node12" class="node">
<title>Node12</title>
<g id="a_node12"><a xlink:href="logging_8h.html" target="_top" xlink:title=" ">
<polygon fill="white" stroke="#666666" points="678.5,-184 622.5,-184 622.5,-165 678.5,-165 678.5,-184"/>
<text text-anchor="middle" x="650.5" y="-172" font-family="Helvetica,sans-Serif" font-size="10.00">logging.h</text>
</a>
</g>
</g>
<!-- Node6&#45;&gt;Node12 -->
<g id="edge12" class="edge">
<title>Node6&#45;&gt;Node12</title>
<path fill="none" stroke="#63b8ff" d="M459.68,-226.47C498.61,-216.07 568.96,-197.28 612.5,-185.65"/>
<polygon fill="#63b8ff" stroke="#63b8ff" points="613.67,-188.96 622.43,-183 611.86,-182.2 613.67,-188.96"/>
</g>
<!-- Node11&#45;&gt;Node7 -->
<g id="edge11" class="edge">
<title>Node11&#45;&gt;Node7</title>
<path fill="none" stroke="#63b8ff" d="M526.51,-164.98C488.01,-155.87 426.81,-141.4 384.76,-131.45"/>
<polygon fill="#63b8ff" stroke="#63b8ff" points="385.31,-127.98 374.77,-129.08 383.7,-134.79 385.31,-127.98"/>
</g>
<!-- Node13 -->
<g id="node13" class="node">
<title>Node13</title>
<g id="a_node13"><a xlink:title=" ">
<polygon fill="#e0e0e0" stroke="#999999" points="607.5,-129 555.5,-129 555.5,-110 607.5,-110 607.5,-129"/>
<text text-anchor="middle" x="581.5" y="-117" font-family="Helvetica,sans-Serif" font-size="10.00">sstream</text>
</a>
</g>
</g>
<!-- Node12&#45;&gt;Node13 -->
<g id="edge13" class="edge">
<title>Node12&#45;&gt;Node13</title>
<path fill="none" stroke="#63b8ff" d="M639.41,-164.98C629.01,-157 613.24,-144.88 600.78,-135.31"/>
<polygon fill="#63b8ff" stroke="#63b8ff" points="602.85,-132.49 592.79,-129.17 598.59,-138.04 602.85,-132.49"/>
</g>
<!-- Node14 -->
<g id="node14" class="node">
<title>Node14</title>
<g id="a_node14"><a xlink:href="dlt_8h.html" target="_top" xlink:title=" ">
<polygon fill="white" stroke="#666666" points="675,-129 626,-129 626,-110 675,-110 675,-129"/>
<text text-anchor="middle" x="650.5" y="-117" font-family="Helvetica,sans-Serif" font-size="10.00">dlt/dlt.h</text>
</a>
</g>
</g>
<!-- Node12&#45;&gt;Node14 -->
<g id="edge14" class="edge">
<title>Node12&#45;&gt;Node14</title>
<path fill="none" stroke="#63b8ff" d="M650.5,-164.75C650.5,-157.8 650.5,-147.85 650.5,-139.13"/>
<polygon fill="#63b8ff" stroke="#63b8ff" points="654,-139.09 650.5,-129.09 647,-139.09 654,-139.09"/>
</g>
<!-- Node17 -->
<g id="node17" class="node">
<title>Node17</title>
<g id="a_node17"><a xlink:title=" ">
<polygon fill="#e0e0e0" stroke="#999999" points="754,-74 653,-74 653,-55 754,-55 754,-74"/>
<text text-anchor="middle" x="703.5" y="-62" font-family="Helvetica,sans-Serif" font-size="10.00">flutter/fml/macros.h</text>
</a>
</g>
</g>
<!-- Node12&#45;&gt;Node17 -->
<g id="edge18" class="edge">
<title>Node12&#45;&gt;Node17</title>
<path fill="none" stroke="#63b8ff" d="M658.56,-164.95C666.21,-156.43 677.52,-142.69 684.5,-129 691.78,-114.73 696.76,-97.2 699.79,-84.18"/>
<polygon fill="#63b8ff" stroke="#63b8ff" points="703.28,-84.6 701.96,-74.09 696.43,-83.13 703.28,-84.6"/>
</g>
<!-- Node15 -->
<g id="node15" class="node">
<title>Node15</title>
<g id="a_node15"><a xlink:href="libdlt_8h.html" target="_top" xlink:title=" ">
<polygon fill="white" stroke="#666666" points="635,-74 576,-74 576,-55 635,-55 635,-74"/>
<text text-anchor="middle" x="605.5" y="-62" font-family="Helvetica,sans-Serif" font-size="10.00">dlt/libdlt.h</text>
</a>
</g>
</g>
<!-- Node14&#45;&gt;Node15 -->
<g id="edge15" class="edge">
<title>Node14&#45;&gt;Node15</title>
<path fill="none" stroke="#63b8ff" d="M643.07,-109.75C636.65,-102.18 627.19,-91.05 619.38,-81.84"/>
<polygon fill="#63b8ff" stroke="#63b8ff" points="621.93,-79.45 612.79,-74.09 616.6,-83.98 621.93,-79.45"/>
</g>
<!-- Node14&#45;&gt;Node17 -->
<g id="edge17" class="edge">
<title>Node14&#45;&gt;Node17</title>
<path fill="none" stroke="#63b8ff" d="M659.25,-109.75C666.97,-102.03 678.4,-90.6 687.72,-81.28"/>
<polygon fill="#63b8ff" stroke="#63b8ff" points="690.31,-83.64 694.91,-74.09 685.36,-78.69 690.31,-83.64"/>
</g>
<!-- Node16 -->
<g id="node16" class="node">
<title>Node16</title>
<g id="a_node16"><a xlink:title=" ">
<polygon fill="#e0e0e0" stroke="#999999" points="628.5,-19 582.5,-19 582.5,0 628.5,0 628.5,-19"/>
<text text-anchor="middle" x="605.5" y="-7" font-family="Helvetica,sans-Serif" font-size="10.00">cstdint</text>
</a>
</g>
</g>
<!-- Node15&#45;&gt;Node16 -->
<g id="edge16" class="edge">
<title>Node15&#45;&gt;Node16</title>
<path fill="none" stroke="#63b8ff" d="M605.5,-54.75C605.5,-47.8 605.5,-37.85 605.5,-29.13"/>
<polygon fill="#63b8ff" stroke="#63b8ff" points="609,-29.09 605.5,-19.09 602,-29.09 609,-29.09"/>
</g>
</g>
</svg>
