<?xml version="1.0" encoding="UTF-8" standalone="no"?>
<!DOCTYPE svg PUBLIC "-//W3C//DTD SVG 1.1//EN"
 "http://www.w3.org/Graphics/SVG/1.1/DTD/svg11.dtd">
<!-- Generated by graphviz version 5.0.0 (0)
 -->
<!-- Title: /mnt/raid10/stargate/ivi&#45;homescreen/shell/shared_library.h Pages: 1 -->
<svg width="937pt" height="236pt"
 viewBox="0.00 0.00 937.00 236.00" xmlns="http://www.w3.org/2000/svg" xmlns:xlink="http://www.w3.org/1999/xlink">
<g id="graph0" class="graph" transform="scale(1 1) rotate(0) translate(4 232)">
<title>/mnt/raid10/stargate/ivi&#45;homescreen/shell/shared_library.h</title>
<!-- Node1 -->
<g id="node1" class="node">
<title>Node1</title>
<g id="a_node1"><a xlink:title=" ">
<polygon fill="#999999" stroke="#666666" points="370.5,-228 261.5,-228 261.5,-187 370.5,-187 370.5,-228"/>
<text text-anchor="start" x="269.5" y="-216" font-family="Helvetica,sans-Serif" font-size="10.00">/mnt/raid10/stargate</text>
<text text-anchor="start" x="269.5" y="-205" font-family="Helvetica,sans-Serif" font-size="10.00">/ivi&#45;homescreen/shell</text>
<text text-anchor="middle" x="316" y="-194" font-family="Helvetica,sans-Serif" font-size="10.00">/shared_library.h</text>
</a>
</g>
</g>
<!-- Node2 -->
<g id="node2" class="node">
<title>Node2</title>
<g id="a_node2"><a xlink:title=" ">
<polygon fill="#e0e0e0" stroke="#999999" points="238,-151 192,-151 192,-132 238,-132 238,-151"/>
<text text-anchor="middle" x="215" y="-139" font-family="Helvetica,sans-Serif" font-size="10.00">dlfcn.h</text>
</a>
</g>
</g>
<!-- Node1&#45;&gt;Node2 -->
<g id="edge1" class="edge">
<title>Node1&#45;&gt;Node2</title>
<path fill="none" stroke="#63b8ff" d="M285.15,-186.95C269.63,-177.12 251.19,-165.43 237.11,-156.51"/>
<polygon fill="#63b8ff" stroke="#63b8ff" points="238.88,-153.49 228.56,-151.09 235.13,-159.4 238.88,-153.49"/>
</g>
<!-- Node3 -->
<g id="node3" class="node">
<title>Node3</title>
<g id="a_node3"><a xlink:title=" ">
<polygon fill="#e0e0e0" stroke="#999999" points="305.5,-151 256.5,-151 256.5,-132 305.5,-132 305.5,-151"/>
<text text-anchor="middle" x="281" y="-139" font-family="Helvetica,sans-Serif" font-size="10.00">cassert</text>
</a>
</g>
</g>
<!-- Node1&#45;&gt;Node3 -->
<g id="edge2" class="edge">
<title>Node1&#45;&gt;Node3</title>
<path fill="none" stroke="#63b8ff" d="M305.31,-186.95C300.63,-178.39 295.18,-168.42 290.62,-160.1"/>
<polygon fill="#63b8ff" stroke="#63b8ff" points="293.66,-158.35 285.79,-151.26 287.52,-161.71 293.66,-158.35"/>
</g>
<!-- Node4 -->
<g id="node4" class="node">
<title>Node4</title>
<g id="a_node4"><a xlink:title=" ">
<polygon fill="#e0e0e0" stroke="#999999" points="378,-151 324,-151 324,-132 378,-132 378,-151"/>
<text text-anchor="middle" x="351" y="-139" font-family="Helvetica,sans-Serif" font-size="10.00">iostream</text>
</a>
</g>
</g>
<!-- Node1&#45;&gt;Node4 -->
<g id="edge3" class="edge">
<title>Node1&#45;&gt;Node4</title>
<path fill="none" stroke="#63b8ff" d="M326.69,-186.95C331.37,-178.39 336.82,-168.42 341.38,-160.1"/>
<polygon fill="#63b8ff" stroke="#63b8ff" points="344.48,-161.71 346.21,-151.26 338.34,-158.35 344.48,-161.71"/>
</g>
<!-- Node5 -->
<g id="node5" class="node">
<title>Node5</title>
<g id="a_node5"><a xlink:href="logging_8h.html" target="_top" xlink:title=" ">
<polygon fill="white" stroke="#666666" points="452,-151 396,-151 396,-132 452,-132 452,-151"/>
<text text-anchor="middle" x="424" y="-139" font-family="Helvetica,sans-Serif" font-size="10.00">logging.h</text>
</a>
</g>
</g>
<!-- Node1&#45;&gt;Node5 -->
<g id="edge4" class="edge">
<title>Node1&#45;&gt;Node5</title>
<path fill="none" stroke="#63b8ff" d="M348.99,-186.95C365.74,-177.03 385.68,-165.21 400.79,-156.25"/>
<polygon fill="#63b8ff" stroke="#63b8ff" points="402.68,-159.2 409.5,-151.09 399.11,-153.18 402.68,-159.2"/>
</g>
<!-- Node6 -->
<g id="node6" class="node">
<title>Node6</title>
<g id="a_node6"><a xlink:title=" ">
<polygon fill="#e0e0e0" stroke="#999999" points="52,-90.5 0,-90.5 0,-71.5 52,-71.5 52,-90.5"/>
<text text-anchor="middle" x="26" y="-78.5" font-family="Helvetica,sans-Serif" font-size="10.00">sstream</text>
</a>
</g>
</g>
<!-- Node5&#45;&gt;Node6 -->
<g id="edge5" class="edge">
<title>Node5&#45;&gt;Node6</title>
<path fill="none" stroke="#63b8ff" d="M395.79,-133.66C392.83,-133.05 389.86,-132.48 387,-132 243.28,-107.64 202.41,-131.39 61,-96 58.7,-95.42 56.34,-94.73 54,-93.96"/>
<polygon fill="#63b8ff" stroke="#63b8ff" points="55.17,-90.67 44.58,-90.51 52.77,-97.24 55.17,-90.67"/>
</g>
<!-- Node7 -->
<g id="node7" class="node">
<title>Node7</title>
<g id="a_node7"><a xlink:title=" ">
<polygon fill="#e0e0e0" stroke="#999999" points="158,-90.5 70,-90.5 70,-71.5 158,-71.5 158,-90.5"/>
<text text-anchor="middle" x="114" y="-78.5" font-family="Helvetica,sans-Serif" font-size="10.00">spdlog/cfg/env.h</text>
</a>
</g>
</g>
<!-- Node5&#45;&gt;Node7 -->
<g id="edge6" class="edge">
<title>Node5&#45;&gt;Node7</title>
<path fill="none" stroke="#63b8ff" d="M395.76,-133.82C392.81,-133.18 389.85,-132.56 387,-132 289.78,-112.9 263.9,-116.68 167,-96 162.81,-95.11 158.46,-94.09 154.13,-93.03"/>
<polygon fill="#63b8ff" stroke="#63b8ff" points="154.7,-89.57 144.15,-90.5 152.98,-96.35 154.7,-89.57"/>
</g>
<!-- Node8 -->
<g id="node8" class="node">
<title>Node8</title>
<g id="a_node8"><a xlink:title=" ">
<polygon fill="#e0e0e0" stroke="#999999" points="286,-96 176,-96 176,-66 286,-66 286,-96"/>
<text text-anchor="start" x="184" y="-84" font-family="Helvetica,sans-Serif" font-size="10.00">spdlog/sinks/callback</text>
<text text-anchor="middle" x="231" y="-73" font-family="Helvetica,sans-Serif" font-size="10.00">_sink.h</text>
</a>
</g>
</g>
<!-- Node5&#45;&gt;Node8 -->
<g id="edge7" class="edge">
<title>Node5&#45;&gt;Node8</title>
<path fill="none" stroke="#63b8ff" d="M395.94,-131.99C367.55,-123.39 322.9,-109.86 287.21,-99.04"/>
<polygon fill="#63b8ff" stroke="#63b8ff" points="287.99,-95.62 277.4,-96.06 285.95,-102.31 287.99,-95.62"/>
</g>
<!-- Node9 -->
<g id="node9" class="node">
<title>Node9</title>
<g id="a_node9"><a xlink:title=" ">
<polygon fill="#e0e0e0" stroke="#999999" points="418,-96 304,-96 304,-66 418,-66 418,-96"/>
<text text-anchor="start" x="312" y="-84" font-family="Helvetica,sans-Serif" font-size="10.00">spdlog/sinks/ringbuffer</text>
<text text-anchor="middle" x="361" y="-73" font-family="Helvetica,sans-Serif" font-size="10.00">_sink.h</text>
</a>
</g>
</g>
<!-- Node5&#45;&gt;Node9 -->
<g id="edge8" class="edge">
<title>Node5&#45;&gt;Node9</title>
<path fill="none" stroke="#63b8ff" d="M414.7,-131.87C406.55,-124.3 394.36,-112.98 383.66,-103.04"/>
<polygon fill="#63b8ff" stroke="#63b8ff" points="385.91,-100.35 376.2,-96.11 381.15,-105.48 385.91,-100.35"/>
</g>
<!-- Node10 -->
<g id="node10" class="node">
<title>Node10</title>
<g id="a_node10"><a xlink:title=" ">
<polygon fill="#e0e0e0" stroke="#999999" points="537.5,-96 436.5,-96 436.5,-66 537.5,-66 537.5,-96"/>
<text text-anchor="start" x="444.5" y="-84" font-family="Helvetica,sans-Serif" font-size="10.00">spdlog/sinks/stdout</text>
<text text-anchor="middle" x="487" y="-73" font-family="Helvetica,sans-Serif" font-size="10.00">_color_sinks.h</text>
</a>
</g>
</g>
<!-- Node5&#45;&gt;Node10 -->
<g id="edge9" class="edge">
<title>Node5&#45;&gt;Node10</title>
<path fill="none" stroke="#63b8ff" d="M433.3,-131.87C441.45,-124.3 453.64,-112.98 464.34,-103.04"/>
<polygon fill="#63b8ff" stroke="#63b8ff" points="466.85,-105.48 471.8,-96.11 462.09,-100.35 466.85,-105.48"/>
</g>
<!-- Node11 -->
<g id="node11" class="node">
<title>Node11</title>
<g id="a_node11"><a xlink:title=" ">
<polygon fill="#e0e0e0" stroke="#999999" points="656.5,-96 555.5,-96 555.5,-66 656.5,-66 656.5,-96"/>
<text text-anchor="start" x="563.5" y="-84" font-family="Helvetica,sans-Serif" font-size="10.00">spdlog/sinks/stdout</text>
<text text-anchor="middle" x="606" y="-73" font-family="Helvetica,sans-Serif" font-size="10.00">_sinks.h</text>
</a>
</g>
</g>
<!-- Node5&#45;&gt;Node11 -->
<g id="edge10" class="edge">
<title>Node5&#45;&gt;Node11</title>
<path fill="none" stroke="#63b8ff" d="M450.46,-131.99C477.11,-123.43 518.98,-109.97 552.56,-99.18"/>
<polygon fill="#63b8ff" stroke="#63b8ff" points="553.8,-102.46 562.24,-96.06 551.65,-95.79 553.8,-102.46"/>
</g>
<!-- Node12 -->
<g id="node12" class="node">
<title>Node12</title>
<g id="a_node12"><a xlink:title=" ">
<polygon fill="#e0e0e0" stroke="#999999" points="759.5,-90.5 674.5,-90.5 674.5,-71.5 759.5,-71.5 759.5,-90.5"/>
<text text-anchor="middle" x="717" y="-78.5" font-family="Helvetica,sans-Serif" font-size="10.00">spdlog/spdlog.h</text>
</a>
</g>
</g>
<!-- Node5&#45;&gt;Node12 -->
<g id="edge11" class="edge">
<title>Node5&#45;&gt;Node12</title>
<path fill="none" stroke="#63b8ff" d="M452.35,-136.02C497.55,-128.72 588.65,-113.3 665,-96 668.89,-95.12 672.93,-94.14 676.95,-93.13"/>
<polygon fill="#63b8ff" stroke="#63b8ff" points="678.06,-96.46 686.86,-90.56 676.3,-89.68 678.06,-96.46"/>
</g>
<!-- Node13 -->
<g id="node13" class="node">
<title>Node13</title>
<g id="a_node13"><a xlink:href="constants_8h.html" target="_top" xlink:title=" ">
<polygon fill="white" stroke="#666666" points="846,-90.5 778,-90.5 778,-71.5 846,-71.5 846,-90.5"/>
<text text-anchor="middle" x="812" y="-78.5" font-family="Helvetica,sans-Serif" font-size="10.00">constants.h</text>
</a>
</g>
</g>
<!-- Node5&#45;&gt;Node13 -->
<g id="edge12" class="edge">
<title>Node5&#45;&gt;Node13</title>
<path fill="none" stroke="#63b8ff" d="M452.03,-138.66C511.2,-134.4 652.93,-122.14 769,-96 772.22,-95.28 775.54,-94.41 778.84,-93.47"/>
<polygon fill="#63b8ff" stroke="#63b8ff" points="780.02,-96.77 788.56,-90.5 777.98,-90.08 780.02,-96.77"/>
</g>
<!-- Node14 -->
<g id="node14" class="node">
<title>Node14</title>
<g id="a_node14"><a xlink:title=" ">
<polygon fill="#e0e0e0" stroke="#999999" points="733,-24.5 673,-24.5 673,-5.5 733,-5.5 733,-24.5"/>
<text text-anchor="middle" x="703" y="-12.5" font-family="Helvetica,sans-Serif" font-size="10.00">EGL/egl.h</text>
</a>
</g>
</g>
<!-- Node13&#45;&gt;Node14 -->
<g id="edge13" class="edge">
<title>Node13&#45;&gt;Node14</title>
<path fill="none" stroke="#63b8ff" d="M797.3,-71.37C779.18,-60.73 748.15,-42.51 726.66,-29.89"/>
<polygon fill="#63b8ff" stroke="#63b8ff" points="728.21,-26.74 717.82,-24.7 724.67,-32.78 728.21,-26.74"/>
</g>
<!-- Node15 -->
<g id="node15" class="node">
<title>Node15</title>
<g id="a_node15"><a xlink:title=" ">
<polygon fill="#e0e0e0" stroke="#999999" points="872.5,-30 751.5,-30 751.5,0 872.5,0 872.5,-30"/>
<text text-anchor="start" x="759.5" y="-18" font-family="Helvetica,sans-Serif" font-size="10.00">shell/platform/embedder</text>
<text text-anchor="middle" x="812" y="-7" font-family="Helvetica,sans-Serif" font-size="10.00">/embedder.h</text>
</a>
</g>
</g>
<!-- Node13&#45;&gt;Node15 -->
<g id="edge14" class="edge">
<title>Node13&#45;&gt;Node15</title>
<path fill="none" stroke="#63b8ff" d="M812,-71.37C812,-63.49 812,-51.45 812,-40.6"/>
<polygon fill="#63b8ff" stroke="#63b8ff" points="815.5,-40.36 812,-30.36 808.5,-40.36 815.5,-40.36"/>
</g>
<!-- Node16 -->
<g id="node16" class="node">
<title>Node16</title>
<g id="a_node16"><a xlink:title=" ">
<polygon fill="#e0e0e0" stroke="#999999" points="929,-24.5 891,-24.5 891,-5.5 929,-5.5 929,-24.5"/>
<text text-anchor="middle" x="910" y="-12.5" font-family="Helvetica,sans-Serif" font-size="10.00">array</text>
</a>
</g>
</g>
<!-- Node13&#45;&gt;Node16 -->
<g id="edge15" class="edge">
<title>Node13&#45;&gt;Node16</title>
<path fill="none" stroke="#63b8ff" d="M825.22,-71.37C841.36,-60.82 868.91,-42.84 888.21,-30.23"/>
<polygon fill="#63b8ff" stroke="#63b8ff" points="890.22,-33.1 896.68,-24.7 886.39,-27.24 890.22,-33.1"/>
</g>
</g>
</svg>
