<?xml version="1.0" encoding="UTF-8" standalone="no"?>
<!DOCTYPE svg PUBLIC "-//W3C//DTD SVG 1.1//EN"
 "http://www.w3.org/Graphics/SVG/1.1/DTD/svg11.dtd">
<!-- Generated by graphviz version 2.43.0 (0)
 -->
<!-- Title: WaylandWindow Pages: 1 -->
<svg width="280pt" height="154pt"
 viewBox="0.00 0.00 280.00 153.50" xmlns="http://www.w3.org/2000/svg" xmlns:xlink="http://www.w3.org/1999/xlink">
<g id="graph0" class="graph" transform="scale(1 1) rotate(0) translate(4 149.5)">
<title>WaylandWindow</title>
<polygon fill="white" stroke="transparent" points="-4,4 -4,-149.5 276,-149.5 276,4 -4,4"/>
<!-- Node1 -->
<g id="node1" class="node">
<title>Node1</title>
<g id="a_node1"><a xlink:title=" ">
<polygon fill="#bfbfbf" stroke="black" points="174,-69 174,-88 272,-88 272,-69 174,-69"/>
<text text-anchor="middle" x="223" y="-76" font-family="Helvetica,sans-Serif" font-size="10.00">WaylandWindow</text>
</a>
</g>
</g>
<!-- Node2 -->
<g id="node2" class="node">
<title>Node2</title>
<g id="a_node2"><a xlink:title=" ">
<polygon fill="white" stroke="#bfbfbf" points="0,-126 0,-145 138,-145 138,-126 0,-126"/>
<text text-anchor="middle" x="69" y="-133" font-family="Helvetica,sans-Serif" font-size="10.00">m_base_surface_listener</text>
</a>
</g>
</g>
<!-- Node2&#45;&gt;Node1 -->
<g id="edge1" class="edge">
<title>Node2&#45;&gt;Node1</title>
<path fill="none" stroke="midnightblue" d="M117.93,-123.1C124.72,-121.05 131.58,-118.84 138,-116.5 160.87,-108.19 186.19,-96.35 203,-88.1"/>
<polygon fill="midnightblue" stroke="midnightblue" points="116.72,-119.81 108.09,-125.96 118.67,-126.53 116.72,-119.81"/>
</g>
<!-- Node3 -->
<g id="node3" class="node">
<title>Node3</title>
<g id="a_node3"><a xlink:title=" ">
<polygon fill="white" stroke="#bfbfbf" points="10,-88 10,-107 128,-107 128,-88 10,-88"/>
<text text-anchor="middle" x="69" y="-95" font-family="Helvetica,sans-Serif" font-size="10.00">xdg_surface_listener</text>
</a>
</g>
</g>
<!-- Node3&#45;&gt;Node1 -->
<g id="edge2" class="edge">
<title>Node3&#45;&gt;Node1</title>
<path fill="none" stroke="midnightblue" d="M138.34,-88.96C150.35,-87.46 162.62,-85.92 173.93,-84.51"/>
<polygon fill="midnightblue" stroke="midnightblue" points="137.82,-85.5 128.33,-90.21 138.69,-92.44 137.82,-85.5"/>
</g>
<!-- Node4 -->
<g id="node4" class="node">
<title>Node4</title>
<g id="a_node4"><a xlink:title=" ">
<polygon fill="white" stroke="#bfbfbf" points="8,-50 8,-69 130,-69 130,-50 8,-50"/>
<text text-anchor="middle" x="69" y="-57" font-family="Helvetica,sans-Serif" font-size="10.00">xdg_toplevel_listener</text>
</a>
</g>
</g>
<!-- Node4&#45;&gt;Node1 -->
<g id="edge3" class="edge">
<title>Node4&#45;&gt;Node1</title>
<path fill="none" stroke="midnightblue" d="M140.33,-68.29C151.58,-69.7 163,-71.12 173.59,-72.45"/>
<polygon fill="midnightblue" stroke="midnightblue" points="140.43,-64.78 130.07,-67.01 139.56,-71.72 140.43,-64.78"/>
</g>
<!-- Node5 -->
<g id="node5" class="node">
<title>Node5</title>
<g id="a_node5"><a xlink:title=" ">
<polygon fill="white" stroke="#bfbfbf" points="3.5,-0.5 3.5,-30.5 134.5,-30.5 134.5,-0.5 3.5,-0.5"/>
<text text-anchor="start" x="11.5" y="-18.5" font-family="Helvetica,sans-Serif" font-size="10.00">m_base_surface_frame</text>
<text text-anchor="middle" x="69" y="-7.5" font-family="Helvetica,sans-Serif" font-size="10.00">_listener</text>
</a>
</g>
</g>
<!-- Node5&#45;&gt;Node1 -->
<g id="edge4" class="edge">
<title>Node5&#45;&gt;Node1</title>
<path fill="none" stroke="midnightblue" d="M122.22,-34.26C127.57,-36.31 132.91,-38.42 138,-40.5 160.07,-49.54 184.91,-60.93 201.81,-68.87"/>
<polygon fill="midnightblue" stroke="midnightblue" points="123.22,-30.89 112.62,-30.63 120.74,-37.44 123.22,-30.89"/>
</g>
</g>
</svg>
