<?xml version="1.0" encoding="UTF-8" standalone="no"?>
<!DOCTYPE svg PUBLIC "-//W3C//DTD SVG 1.1//EN"
 "http://www.w3.org/Graphics/SVG/1.1/DTD/svg11.dtd">
<!-- Generated by graphviz version 5.0.0 (0)
 -->
<!-- Title: WaylandWindow Pages: 1 -->
<svg width="258pt" height="187pt"
 viewBox="0.00 0.00 258.00 186.50" xmlns="http://www.w3.org/2000/svg" xmlns:xlink="http://www.w3.org/1999/xlink">
<g id="graph0" class="graph" transform="scale(1 1) rotate(0) translate(4 182.5)">
<title>WaylandWindow</title>
<!-- Node1 -->
<g id="node1" class="node">
<title>Node1</title>
<g id="a_node1"><a xlink:title=" ">
<polygon fill="#999999" stroke="#666666" points="250,-104.5 161,-104.5 161,-85.5 250,-85.5 250,-104.5"/>
<text text-anchor="middle" x="205.5" y="-92.5" font-family="Helvetica,sans-Serif" font-size="10.00">WaylandWindow</text>
</a>
</g>
</g>
<!-- Node2 -->
<g id="node2" class="node">
<title>Node2</title>
<g id="a_node2"><a xlink:title=" ">
<polygon fill="white" stroke="#666666" points="125,-178.5 0,-178.5 0,-159.5 125,-159.5 125,-178.5"/>
<text text-anchor="middle" x="62.5" y="-166.5" font-family="Helvetica,sans-Serif" font-size="10.00">m_base_surface_listener</text>
</a>
</g>
</g>
<!-- Node2&#45;&gt;Node1 -->
<g id="edge1" class="edge">
<title>Node2&#45;&gt;Node1</title>
<path fill="none" stroke="#63b8ff" d="M112.97,-156.1C117.11,-154.55 121.17,-152.85 125,-151 151.46,-138.24 178.68,-116.96 193.4,-104.63"/>
<polygon fill="#63b8ff" stroke="#63b8ff" points="111.57,-152.88 103.26,-159.45 113.86,-159.49 111.57,-152.88"/>
</g>
<!-- Node3 -->
<g id="node3" class="node">
<title>Node3</title>
<g id="a_node3"><a xlink:title=" ">
<polygon fill="white" stroke="#666666" points="116,-141.5 9,-141.5 9,-122.5 116,-122.5 116,-141.5"/>
<text text-anchor="middle" x="62.5" y="-129.5" font-family="Helvetica,sans-Serif" font-size="10.00">xdg_surface_listener</text>
</a>
</g>
</g>
<!-- Node3&#45;&gt;Node1 -->
<g id="edge2" class="edge">
<title>Node3&#45;&gt;Node1</title>
<path fill="none" stroke="#63b8ff" d="M109.69,-119.88C128.55,-114.93 150.06,-109.28 167.82,-104.62"/>
<polygon fill="#63b8ff" stroke="#63b8ff" points="108.6,-116.55 99.81,-122.47 110.37,-123.32 108.6,-116.55"/>
</g>
<!-- Node4 -->
<g id="node4" class="node">
<title>Node4</title>
<g id="a_node4"><a xlink:title=" ">
<polygon fill="white" stroke="#666666" points="113,-104.5 12,-104.5 12,-85.5 113,-85.5 113,-104.5"/>
<text text-anchor="middle" x="62.5" y="-92.5" font-family="Helvetica,sans-Serif" font-size="10.00">ivi_surface_listener</text>
</a>
</g>
</g>
<!-- Node4&#45;&gt;Node1 -->
<g id="edge3" class="edge">
<title>Node4&#45;&gt;Node1</title>
<path fill="none" stroke="#63b8ff" d="M123.59,-95C136.11,-95 149.07,-95 160.86,-95"/>
<polygon fill="#63b8ff" stroke="#63b8ff" points="123.21,-91.5 113.21,-95 123.21,-98.5 123.21,-91.5"/>
</g>
<!-- Node5 -->
<g id="node5" class="node">
<title>Node5</title>
<g id="a_node5"><a xlink:title=" ">
<polygon fill="white" stroke="#666666" points="116.5,-67.5 8.5,-67.5 8.5,-48.5 116.5,-48.5 116.5,-67.5"/>
<text text-anchor="middle" x="62.5" y="-55.5" font-family="Helvetica,sans-Serif" font-size="10.00">xdg_toplevel_listener</text>
</a>
</g>
</g>
<!-- Node5&#45;&gt;Node1 -->
<g id="edge4" class="edge">
<title>Node5&#45;&gt;Node1</title>
<path fill="none" stroke="#63b8ff" d="M109.69,-70.12C128.55,-75.07 150.06,-80.72 167.82,-85.38"/>
<polygon fill="#63b8ff" stroke="#63b8ff" points="110.37,-66.68 99.81,-67.53 108.6,-73.45 110.37,-66.68"/>
</g>
<!-- Node6 -->
<g id="node6" class="node">
<title>Node6</title>
<g id="a_node6"><a xlink:title=" ">
<polygon fill="white" stroke="#666666" points="122,-30 3,-30 3,0 122,0 122,-30"/>
<text text-anchor="start" x="11" y="-18" font-family="Helvetica,sans-Serif" font-size="10.00">m_base_surface_frame</text>
<text text-anchor="middle" x="62.5" y="-7" font-family="Helvetica,sans-Serif" font-size="10.00">_listener</text>
</a>
</g>
</g>
<!-- Node6&#45;&gt;Node1 -->
<g id="edge5" class="edge">
<title>Node6&#45;&gt;Node1</title>
<path fill="none" stroke="#63b8ff" d="M113.42,-34.2C117.39,-36.05 121.29,-38 125,-40 150.25,-53.65 177.24,-73.6 192.38,-85.35"/>
<polygon fill="#63b8ff" stroke="#63b8ff" points="114.67,-30.92 104.11,-30.03 111.81,-37.31 114.67,-30.92"/>
</g>
</g>
</svg>
