<?xml version="1.0" encoding="UTF-8" standalone="no"?>
<!DOCTYPE svg PUBLIC "-//W3C//DTD SVG 1.1//EN"
 "http://www.w3.org/Graphics/SVG/1.1/DTD/svg11.dtd">
<!-- Generated by graphviz version 2.43.0 (0)
 -->
<!-- Title: /home/joel.winarske@toyotaconnected.com/development/workspace&#45;automation&#45;configs/app/ivi&#45;homescreen/shell/textures/navi_render_egl/texture_navi_render_egl.h Pages: 1 -->
<svg width="942pt" height="273pt"
 viewBox="0.00 0.00 941.50 273.00" xmlns="http://www.w3.org/2000/svg" xmlns:xlink="http://www.w3.org/1999/xlink">
<g id="graph0" class="graph" transform="scale(1 1) rotate(0) translate(4 269)">
<title>/home/joel.winarske@toyotaconnected.com/development/workspace&#45;automation&#45;configs/app/ivi&#45;homescreen/shell/textures/navi_render_egl/texture_navi_render_egl.h</title>
<polygon fill="white" stroke="transparent" points="-4,4 -4,-269 937.5,-269 937.5,4 -4,4"/>
<!-- Node1 -->
<g id="node1" class="node">
<title>Node1</title>
<g id="a_node1"><a xlink:title=" ">
<polygon fill="#bfbfbf" stroke="black" points="151.5,-179.5 151.5,-264.5 316.5,-264.5 316.5,-179.5 151.5,-179.5"/>
<text text-anchor="start" x="159.5" y="-252.5" font-family="Helvetica,sans-Serif" font-size="10.00">/home/joel.winarske</text>
<text text-anchor="start" x="159.5" y="-241.5" font-family="Helvetica,sans-Serif" font-size="10.00">@toyotaconnected.com</text>
<text text-anchor="start" x="159.5" y="-230.5" font-family="Helvetica,sans-Serif" font-size="10.00">/development/workspace</text>
<text text-anchor="start" x="159.5" y="-219.5" font-family="Helvetica,sans-Serif" font-size="10.00">&#45;automation&#45;configs/app</text>
<text text-anchor="start" x="159.5" y="-208.5" font-family="Helvetica,sans-Serif" font-size="10.00">/ivi&#45;homescreen/shell/textures</text>
<text text-anchor="start" x="159.5" y="-197.5" font-family="Helvetica,sans-Serif" font-size="10.00">/navi_render_egl/texture_navi</text>
<text text-anchor="middle" x="234" y="-186.5" font-family="Helvetica,sans-Serif" font-size="10.00">_render_egl.h</text>
</a>
</g>
</g>
<!-- Node2 -->
<g id="node2" class="node">
<title>Node2</title>
<g id="a_node2"><a xlink:title=" ">
<polygon fill="white" stroke="#bfbfbf" points="0,-123.5 0,-142.5 50,-142.5 50,-123.5 0,-123.5"/>
<text text-anchor="middle" x="25" y="-130.5" font-family="Helvetica,sans-Serif" font-size="10.00">atomic</text>
</a>
</g>
</g>
<!-- Node1&#45;&gt;Node2 -->
<g id="edge1" class="edge">
<title>Node1&#45;&gt;Node2</title>
<path fill="none" stroke="midnightblue" d="M151.4,-186.62C117.35,-172.44 80.06,-156.92 54.87,-146.43"/>
<polygon fill="midnightblue" stroke="midnightblue" points="56.09,-143.15 45.51,-142.54 53.4,-149.61 56.09,-143.15"/>
</g>
<!-- Node3 -->
<g id="node3" class="node">
<title>Node3</title>
<g id="a_node3"><a xlink:title=" ">
<polygon fill="white" stroke="#bfbfbf" points="68,-123.5 68,-142.5 106,-142.5 106,-123.5 68,-123.5"/>
<text text-anchor="middle" x="87" y="-130.5" font-family="Helvetica,sans-Serif" font-size="10.00">map</text>
</a>
</g>
</g>
<!-- Node1&#45;&gt;Node3 -->
<g id="edge2" class="edge">
<title>Node1&#45;&gt;Node3</title>
<path fill="none" stroke="midnightblue" d="M163.51,-179.28C144.29,-167.91 124.8,-156.37 110.29,-147.79"/>
<polygon fill="midnightblue" stroke="midnightblue" points="111.93,-144.69 101.54,-142.6 108.36,-150.71 111.93,-144.69"/>
</g>
<!-- Node4 -->
<g id="node4" class="node">
<title>Node4</title>
<g id="a_node4"><a xlink:title=" ">
<polygon fill="white" stroke="#bfbfbf" points="162,-67.5 162,-86.5 220,-86.5 220,-67.5 162,-67.5"/>
<text text-anchor="middle" x="191" y="-74.5" font-family="Helvetica,sans-Serif" font-size="10.00">memory</text>
</a>
</g>
</g>
<!-- Node1&#45;&gt;Node4 -->
<g id="edge3" class="edge">
<title>Node1&#45;&gt;Node4</title>
<path fill="none" stroke="midnightblue" d="M228.73,-179.26C225.77,-161.59 221.37,-140.97 215,-123 211.63,-113.51 206.52,-103.57 201.88,-95.45"/>
<polygon fill="midnightblue" stroke="midnightblue" points="204.73,-93.4 196.6,-86.61 198.72,-96.99 204.73,-93.4"/>
</g>
<!-- Node5 -->
<g id="node5" class="node">
<title>Node5</title>
<g id="a_node5"><a xlink:title=" ">
<polygon fill="white" stroke="#bfbfbf" points="162,-123.5 162,-142.5 206,-142.5 206,-123.5 162,-123.5"/>
<text text-anchor="middle" x="184" y="-130.5" font-family="Helvetica,sans-Serif" font-size="10.00">string</text>
</a>
</g>
</g>
<!-- Node1&#45;&gt;Node5 -->
<g id="edge4" class="edge">
<title>Node1&#45;&gt;Node5</title>
<path fill="none" stroke="midnightblue" d="M210.03,-179.28C204.39,-169.49 198.69,-159.57 194.07,-151.52"/>
<polygon fill="midnightblue" stroke="midnightblue" points="197.06,-149.7 189.04,-142.77 190.99,-153.18 197.06,-149.7"/>
</g>
<!-- Node6 -->
<g id="node6" class="node">
<title>Node6</title>
<g id="a_node6"><a xlink:title=" ">
<polygon fill="white" stroke="#bfbfbf" points="217,-6 217,-25 279,-25 279,-6 217,-6"/>
<text text-anchor="middle" x="248" y="-13" font-family="Helvetica,sans-Serif" font-size="10.00">EGL/egl.h</text>
</a>
</g>
</g>
<!-- Node1&#45;&gt;Node6 -->
<g id="edge5" class="edge">
<title>Node1&#45;&gt;Node6</title>
<path fill="none" stroke="midnightblue" d="M178.38,-179.37C168.06,-168.75 158.73,-156.47 153,-143 139.78,-111.92 135.6,-95.95 153,-67 164.82,-47.33 187.19,-34.9 207.25,-27.3"/>
<polygon fill="midnightblue" stroke="midnightblue" points="208.57,-30.55 216.85,-23.95 206.26,-23.94 208.57,-30.55"/>
</g>
<!-- Node7 -->
<g id="node7" class="node">
<title>Node7</title>
<g id="a_node7"><a xlink:title=" ">
<polygon fill="white" stroke="#bfbfbf" points="262,-123.5 262,-142.5 342,-142.5 342,-123.5 262,-123.5"/>
<text text-anchor="middle" x="302" y="-130.5" font-family="Helvetica,sans-Serif" font-size="10.00">GLES3/gl32.h</text>
</a>
</g>
</g>
<!-- Node1&#45;&gt;Node7 -->
<g id="edge6" class="edge">
<title>Node1&#45;&gt;Node7</title>
<path fill="none" stroke="midnightblue" d="M266.61,-179.28C274.52,-169.16 282.53,-158.91 288.92,-150.73"/>
<polygon fill="midnightblue" stroke="midnightblue" points="291.75,-152.8 295.15,-142.77 286.23,-148.49 291.75,-152.8"/>
</g>
<!-- Node8 -->
<g id="node8" class="node">
<title>Node8</title>
<g id="a_node8"><a xlink:title=" ">
<polygon fill="white" stroke="#bfbfbf" points="676.5,-0.5 676.5,-30.5 813.5,-30.5 813.5,-0.5 676.5,-0.5"/>
<text text-anchor="start" x="684.5" y="-18.5" font-family="Helvetica,sans-Serif" font-size="10.00">shell/platform/embedder</text>
<text text-anchor="middle" x="745" y="-7.5" font-family="Helvetica,sans-Serif" font-size="10.00">/embedder.h</text>
</a>
</g>
</g>
<!-- Node1&#45;&gt;Node8 -->
<g id="edge7" class="edge">
<title>Node1&#45;&gt;Node8</title>
<path fill="none" stroke="midnightblue" d="M316.74,-214.06C460.66,-200.08 747.58,-163.16 808,-87 822.17,-69.14 802.43,-49.91 781.4,-36.06"/>
<polygon fill="midnightblue" stroke="midnightblue" points="783.05,-32.97 772.72,-30.65 779.35,-38.91 783.05,-32.97"/>
</g>
<!-- Node9 -->
<g id="node9" class="node">
<title>Node9</title>
<g id="a_node9"><a xlink:href="texture_8h.html" target="_top" xlink:title=" ">
<polygon fill="white" stroke="black" points="374,-123.5 374,-142.5 444,-142.5 444,-123.5 374,-123.5"/>
<text text-anchor="middle" x="409" y="-130.5" font-family="Helvetica,sans-Serif" font-size="10.00">../texture.h</text>
</a>
</g>
</g>
<!-- Node1&#45;&gt;Node9 -->
<g id="edge8" class="edge">
<title>Node1&#45;&gt;Node9</title>
<path fill="none" stroke="midnightblue" d="M316.63,-179.92C340.53,-168.04 364.91,-155.92 382.61,-147.12"/>
<polygon fill="midnightblue" stroke="midnightblue" points="384.32,-150.18 391.72,-142.59 381.21,-143.91 384.32,-150.18"/>
</g>
<!-- Node16 -->
<g id="node16" class="node">
<title>Node16</title>
<g id="a_node16"><a xlink:href="render__api_8h.html" target="_top" xlink:title=" ">
<polygon fill="white" stroke="black" points="856.5,-123.5 856.5,-142.5 933.5,-142.5 933.5,-123.5 856.5,-123.5"/>
<text text-anchor="middle" x="895" y="-130.5" font-family="Helvetica,sans-Serif" font-size="10.00">render_api.h</text>
</a>
</g>
</g>
<!-- Node1&#45;&gt;Node16 -->
<g id="edge20" class="edge">
<title>Node1&#45;&gt;Node16</title>
<path fill="none" stroke="midnightblue" d="M316.75,-211.46C433.88,-197.72 654.64,-170.91 842,-143 843.3,-142.81 844.61,-142.61 845.94,-142.4"/>
<polygon fill="midnightblue" stroke="midnightblue" points="846.91,-145.79 856.24,-140.77 845.82,-138.88 846.91,-145.79"/>
</g>
<!-- Node9&#45;&gt;Node4 -->
<g id="edge9" class="edge">
<title>Node9&#45;&gt;Node4</title>
<path fill="none" stroke="midnightblue" d="M374.46,-123.44C335.17,-113.71 271.15,-97.85 230.07,-87.68"/>
<polygon fill="midnightblue" stroke="midnightblue" points="230.7,-84.23 220.15,-85.22 229.01,-91.02 230.7,-84.23"/>
</g>
<!-- Node9&#45;&gt;Node6 -->
<g id="edge11" class="edge">
<title>Node9&#45;&gt;Node6</title>
<path fill="none" stroke="midnightblue" d="M373.86,-124.9C336.81,-116.74 281.8,-102.46 267,-87 253.74,-73.15 249.52,-51.05 248.28,-35.29"/>
<polygon fill="midnightblue" stroke="midnightblue" points="251.77,-34.97 247.82,-25.14 244.78,-35.28 251.77,-34.97"/>
</g>
<!-- Node9&#45;&gt;Node8 -->
<g id="edge15" class="edge">
<title>Node9&#45;&gt;Node8</title>
<path fill="none" stroke="midnightblue" d="M444.15,-130.39C512.94,-126.66 662.25,-115.43 704,-87 720.23,-75.95 730.9,-56.2 737.28,-40.4"/>
<polygon fill="midnightblue" stroke="midnightblue" points="740.67,-41.32 740.87,-30.73 734.11,-38.89 740.67,-41.32"/>
</g>
<!-- Node10 -->
<g id="node10" class="node">
<title>Node10</title>
<g id="a_node10"><a xlink:title=" ">
<polygon fill="white" stroke="#bfbfbf" points="752.5,-67.5 752.5,-86.5 799.5,-86.5 799.5,-67.5 752.5,-67.5"/>
<text text-anchor="middle" x="776" y="-74.5" font-family="Helvetica,sans-Serif" font-size="10.00">vector</text>
</a>
</g>
</g>
<!-- Node9&#45;&gt;Node10 -->
<g id="edge10" class="edge">
<title>Node9&#45;&gt;Node10</title>
<path fill="none" stroke="midnightblue" d="M444.24,-128.31C504.64,-121.74 631.74,-106.8 738,-87 739.46,-86.73 740.94,-86.44 742.44,-86.13"/>
<polygon fill="midnightblue" stroke="midnightblue" points="743.33,-89.52 752.36,-83.97 741.84,-82.68 743.33,-89.52"/>
</g>
<!-- Node11 -->
<g id="node11" class="node">
<title>Node11</title>
<g id="a_node11"><a xlink:title=" ">
<polygon fill="white" stroke="#bfbfbf" points="276,-67.5 276,-86.5 354,-86.5 354,-67.5 276,-67.5"/>
<text text-anchor="middle" x="315" y="-74.5" font-family="Helvetica,sans-Serif" font-size="10.00">EGL/eglext.h</text>
</a>
</g>
</g>
<!-- Node9&#45;&gt;Node11 -->
<g id="edge12" class="edge">
<title>Node9&#45;&gt;Node11</title>
<path fill="none" stroke="midnightblue" d="M393.9,-123.32C379.1,-114.82 356.31,-101.73 339.02,-91.8"/>
<polygon fill="midnightblue" stroke="midnightblue" points="340.48,-88.6 330.07,-86.65 336.99,-94.67 340.48,-88.6"/>
</g>
<!-- Node12 -->
<g id="node12" class="node">
<title>Node12</title>
<g id="a_node12"><a xlink:title=" ">
<polygon fill="white" stroke="#bfbfbf" points="372,-67.5 372,-86.5 446,-86.5 446,-67.5 372,-67.5"/>
<text text-anchor="middle" x="409" y="-74.5" font-family="Helvetica,sans-Serif" font-size="10.00">GLES2/gl2.h</text>
</a>
</g>
</g>
<!-- Node9&#45;&gt;Node12 -->
<g id="edge13" class="edge">
<title>Node9&#45;&gt;Node12</title>
<path fill="none" stroke="midnightblue" d="M409,-123.08C409,-116.01 409,-105.86 409,-96.99"/>
<polygon fill="midnightblue" stroke="midnightblue" points="412.5,-96.75 409,-86.75 405.5,-96.75 412.5,-96.75"/>
</g>
<!-- Node13 -->
<g id="node13" class="node">
<title>Node13</title>
<g id="a_node13"><a xlink:title=" ">
<polygon fill="white" stroke="#bfbfbf" points="464,-67.5 464,-86.5 604,-86.5 604,-67.5 464,-67.5"/>
<text text-anchor="middle" x="534" y="-74.5" font-family="Helvetica,sans-Serif" font-size="10.00">flutter/encodable_value.h</text>
</a>
</g>
</g>
<!-- Node9&#45;&gt;Node13 -->
<g id="edge14" class="edge">
<title>Node9&#45;&gt;Node13</title>
<path fill="none" stroke="midnightblue" d="M428.81,-123.44C449.29,-114.6 481.48,-100.69 504.86,-90.59"/>
<polygon fill="midnightblue" stroke="midnightblue" points="506.49,-93.7 514.29,-86.52 503.72,-87.27 506.49,-93.7"/>
</g>
<!-- Node14 -->
<g id="node14" class="node">
<title>Node14</title>
<g id="a_node14"><a xlink:href="constants_8h.html" target="_top" xlink:title=" ">
<polygon fill="white" stroke="black" points="622.5,-67.5 622.5,-86.5 695.5,-86.5 695.5,-67.5 622.5,-67.5"/>
<text text-anchor="middle" x="659" y="-74.5" font-family="Helvetica,sans-Serif" font-size="10.00">constants.h</text>
</a>
</g>
</g>
<!-- Node9&#45;&gt;Node14 -->
<g id="edge16" class="edge">
<title>Node9&#45;&gt;Node14</title>
<path fill="none" stroke="midnightblue" d="M444.02,-124.43C487.93,-114.95 563.36,-98.66 612.19,-88.11"/>
<polygon fill="midnightblue" stroke="midnightblue" points="613.14,-91.49 622.18,-85.95 611.67,-84.64 613.14,-91.49"/>
</g>
<!-- Node14&#45;&gt;Node6 -->
<g id="edge17" class="edge">
<title>Node14&#45;&gt;Node6</title>
<path fill="none" stroke="midnightblue" d="M622.38,-68.64C619.21,-68.07 616.05,-67.51 613,-67 496.2,-47.51 357.49,-29.8 289.61,-21.49"/>
<polygon fill="midnightblue" stroke="midnightblue" points="289.69,-17.97 279.34,-20.24 288.84,-24.92 289.69,-17.97"/>
</g>
<!-- Node14&#45;&gt;Node8 -->
<g id="edge18" class="edge">
<title>Node14&#45;&gt;Node8</title>
<path fill="none" stroke="midnightblue" d="M671.32,-67.48C682.97,-59.42 700.88,-47.02 716.13,-36.47"/>
<polygon fill="midnightblue" stroke="midnightblue" points="718.5,-39.09 724.73,-30.52 714.52,-33.33 718.5,-39.09"/>
</g>
<!-- Node15 -->
<g id="node15" class="node">
<title>Node15</title>
<g id="a_node15"><a xlink:title=" ">
<polygon fill="white" stroke="#bfbfbf" points="616,-6 616,-25 658,-25 658,-6 616,-6"/>
<text text-anchor="middle" x="637" y="-13" font-family="Helvetica,sans-Serif" font-size="10.00">array</text>
</a>
</g>
</g>
<!-- Node14&#45;&gt;Node15 -->
<g id="edge19" class="edge">
<title>Node14&#45;&gt;Node15</title>
<path fill="none" stroke="midnightblue" d="M655.85,-67.48C652.68,-58.9 647.7,-45.43 643.65,-34.48"/>
<polygon fill="midnightblue" stroke="midnightblue" points="646.9,-33.17 640.15,-25.01 640.33,-35.6 646.9,-33.17"/>
</g>
</g>
</svg>
