<?xml version="1.0" encoding="UTF-8" standalone="no"?>
<!DOCTYPE svg PUBLIC "-//W3C//DTD SVG 1.1//EN"
 "http://www.w3.org/Graphics/SVG/1.1/DTD/svg11.dtd">
<!-- Generated by graphviz version 2.43.0 (0)
 -->
<!-- Title: /home/joel.winarske@toyotaconnected.com/development/workspace&#45;automation&#45;configs/app/ivi&#45;homescreen/shell/textures/texture.h Pages: 1 -->
<svg width="705pt" height="206pt"
 viewBox="0.00 0.00 704.50 206.00" xmlns="http://www.w3.org/2000/svg" xmlns:xlink="http://www.w3.org/1999/xlink">
<g id="graph0" class="graph" transform="scale(1 1) rotate(0) translate(4 202)">
<title>/home/joel.winarske@toyotaconnected.com/development/workspace&#45;automation&#45;configs/app/ivi&#45;homescreen/shell/textures/texture.h</title>
<polygon fill="white" stroke="transparent" points="-4,4 -4,-202 700.5,-202 700.5,4 -4,4"/>
<!-- Node1 -->
<g id="node1" class="node">
<title>Node1</title>
<g id="a_node1"><a xlink:title=" ">
<polygon fill="#bfbfbf" stroke="black" points="183.5,-123.5 183.5,-197.5 348.5,-197.5 348.5,-123.5 183.5,-123.5"/>
<text text-anchor="start" x="191.5" y="-185.5" font-family="Helvetica,sans-Serif" font-size="10.00">/home/joel.winarske</text>
<text text-anchor="start" x="191.5" y="-174.5" font-family="Helvetica,sans-Serif" font-size="10.00">@toyotaconnected.com</text>
<text text-anchor="start" x="191.5" y="-163.5" font-family="Helvetica,sans-Serif" font-size="10.00">/development/workspace</text>
<text text-anchor="start" x="191.5" y="-152.5" font-family="Helvetica,sans-Serif" font-size="10.00">&#45;automation&#45;configs/app</text>
<text text-anchor="start" x="191.5" y="-141.5" font-family="Helvetica,sans-Serif" font-size="10.00">/ivi&#45;homescreen/shell/textures</text>
<text text-anchor="middle" x="266" y="-130.5" font-family="Helvetica,sans-Serif" font-size="10.00">/texture.h</text>
</a>
</g>
</g>
<!-- Node2 -->
<g id="node2" class="node">
<title>Node2</title>
<g id="a_node2"><a xlink:title=" ">
<polygon fill="white" stroke="#bfbfbf" points="0,-67.5 0,-86.5 58,-86.5 58,-67.5 0,-67.5"/>
<text text-anchor="middle" x="29" y="-74.5" font-family="Helvetica,sans-Serif" font-size="10.00">memory</text>
</a>
</g>
</g>
<!-- Node1&#45;&gt;Node2 -->
<g id="edge1" class="edge">
<title>Node1&#45;&gt;Node2</title>
<path fill="none" stroke="midnightblue" d="M183.44,-131.11C142.34,-116.97 94.86,-100.65 63.51,-89.87"/>
<polygon fill="midnightblue" stroke="midnightblue" points="64.53,-86.52 53.93,-86.57 62.25,-93.13 64.53,-86.52"/>
</g>
<!-- Node3 -->
<g id="node3" class="node">
<title>Node3</title>
<g id="a_node3"><a xlink:title=" ">
<polygon fill="white" stroke="#bfbfbf" points="76.5,-67.5 76.5,-86.5 123.5,-86.5 123.5,-67.5 76.5,-67.5"/>
<text text-anchor="middle" x="100" y="-74.5" font-family="Helvetica,sans-Serif" font-size="10.00">vector</text>
</a>
</g>
</g>
<!-- Node1&#45;&gt;Node3 -->
<g id="edge2" class="edge">
<title>Node1&#45;&gt;Node3</title>
<path fill="none" stroke="midnightblue" d="M192.22,-123.28C168.84,-111.8 144.48,-99.84 126.66,-91.09"/>
<polygon fill="midnightblue" stroke="midnightblue" points="128.01,-87.85 117.49,-86.59 124.92,-94.14 128.01,-87.85"/>
</g>
<!-- Node4 -->
<g id="node4" class="node">
<title>Node4</title>
<g id="a_node4"><a xlink:title=" ">
<polygon fill="white" stroke="#bfbfbf" points="270,-6 270,-25 332,-25 332,-6 270,-6"/>
<text text-anchor="middle" x="301" y="-13" font-family="Helvetica,sans-Serif" font-size="10.00">EGL/egl.h</text>
</a>
</g>
</g>
<!-- Node1&#45;&gt;Node4 -->
<g id="edge3" class="edge">
<title>Node1&#45;&gt;Node4</title>
<path fill="none" stroke="midnightblue" d="M193.68,-123.29C171.81,-107.37 156.89,-87.61 171,-67 190.75,-38.13 229.61,-25.76 259.72,-20.47"/>
<polygon fill="midnightblue" stroke="midnightblue" points="260.62,-23.87 269.96,-18.87 259.54,-16.95 260.62,-23.87"/>
</g>
<!-- Node5 -->
<g id="node5" class="node">
<title>Node5</title>
<g id="a_node5"><a xlink:title=" ">
<polygon fill="white" stroke="#bfbfbf" points="180,-67.5 180,-86.5 258,-86.5 258,-67.5 180,-67.5"/>
<text text-anchor="middle" x="219" y="-74.5" font-family="Helvetica,sans-Serif" font-size="10.00">EGL/eglext.h</text>
</a>
</g>
</g>
<!-- Node1&#45;&gt;Node5 -->
<g id="edge4" class="edge">
<title>Node1&#45;&gt;Node5</title>
<path fill="none" stroke="midnightblue" d="M244.97,-123.04C239.41,-113.4 233.67,-103.43 229,-95.33"/>
<polygon fill="midnightblue" stroke="midnightblue" points="231.95,-93.44 223.92,-86.53 225.88,-96.94 231.95,-93.44"/>
</g>
<!-- Node6 -->
<g id="node6" class="node">
<title>Node6</title>
<g id="a_node6"><a xlink:title=" ">
<polygon fill="white" stroke="#bfbfbf" points="276,-67.5 276,-86.5 350,-86.5 350,-67.5 276,-67.5"/>
<text text-anchor="middle" x="313" y="-74.5" font-family="Helvetica,sans-Serif" font-size="10.00">GLES2/gl2.h</text>
</a>
</g>
</g>
<!-- Node1&#45;&gt;Node6 -->
<g id="edge5" class="edge">
<title>Node1&#45;&gt;Node6</title>
<path fill="none" stroke="midnightblue" d="M287.03,-123.04C292.59,-113.4 298.33,-103.43 303,-95.33"/>
<polygon fill="midnightblue" stroke="midnightblue" points="306.12,-96.94 308.08,-86.53 300.05,-93.44 306.12,-96.94"/>
</g>
<!-- Node7 -->
<g id="node7" class="node">
<title>Node7</title>
<g id="a_node7"><a xlink:title=" ">
<polygon fill="white" stroke="#bfbfbf" points="368,-67.5 368,-86.5 508,-86.5 508,-67.5 368,-67.5"/>
<text text-anchor="middle" x="438" y="-74.5" font-family="Helvetica,sans-Serif" font-size="10.00">flutter/encodable_value.h</text>
</a>
</g>
</g>
<!-- Node1&#45;&gt;Node7 -->
<g id="edge6" class="edge">
<title>Node1&#45;&gt;Node7</title>
<path fill="none" stroke="midnightblue" d="M342.19,-123.4C366.57,-111.85 392.01,-99.79 410.54,-91.01"/>
<polygon fill="midnightblue" stroke="midnightblue" points="412.28,-94.06 419.82,-86.62 409.28,-87.74 412.28,-94.06"/>
</g>
<!-- Node8 -->
<g id="node8" class="node">
<title>Node8</title>
<g id="a_node8"><a xlink:title=" ">
<polygon fill="white" stroke="#bfbfbf" points="559.5,-0.5 559.5,-30.5 696.5,-30.5 696.5,-0.5 559.5,-0.5"/>
<text text-anchor="start" x="567.5" y="-18.5" font-family="Helvetica,sans-Serif" font-size="10.00">shell/platform/embedder</text>
<text text-anchor="middle" x="628" y="-7.5" font-family="Helvetica,sans-Serif" font-size="10.00">/embedder.h</text>
</a>
</g>
</g>
<!-- Node1&#45;&gt;Node8 -->
<g id="edge7" class="edge">
<title>Node1&#45;&gt;Node8</title>
<path fill="none" stroke="midnightblue" d="M348.56,-151.93C437.77,-142.08 572.15,-121.88 609,-87 621.45,-75.22 626.05,-56.22 627.61,-40.91"/>
<polygon fill="midnightblue" stroke="midnightblue" points="631.13,-40.78 628.29,-30.57 624.15,-40.33 631.13,-40.78"/>
</g>
<!-- Node9 -->
<g id="node9" class="node">
<title>Node9</title>
<g id="a_node9"><a xlink:href="constants_8h.html" target="_top" xlink:title=" ">
<polygon fill="white" stroke="black" points="526.5,-67.5 526.5,-86.5 599.5,-86.5 599.5,-67.5 526.5,-67.5"/>
<text text-anchor="middle" x="563" y="-74.5" font-family="Helvetica,sans-Serif" font-size="10.00">constants.h</text>
</a>
</g>
</g>
<!-- Node1&#45;&gt;Node9 -->
<g id="edge8" class="edge">
<title>Node1&#45;&gt;Node9</title>
<path fill="none" stroke="midnightblue" d="M348.73,-136.8C405.1,-121.33 477.32,-101.51 521.85,-89.29"/>
<polygon fill="midnightblue" stroke="midnightblue" points="523.02,-92.6 531.74,-86.58 521.17,-85.85 523.02,-92.6"/>
</g>
<!-- Node9&#45;&gt;Node4 -->
<g id="edge9" class="edge">
<title>Node9&#45;&gt;Node4</title>
<path fill="none" stroke="midnightblue" d="M526.29,-67.66C477.81,-56.65 392.66,-37.32 342.08,-25.83"/>
<polygon fill="midnightblue" stroke="midnightblue" points="342.67,-22.37 332.14,-23.57 341.12,-29.2 342.67,-22.37"/>
</g>
<!-- Node9&#45;&gt;Node8 -->
<g id="edge10" class="edge">
<title>Node9&#45;&gt;Node8</title>
<path fill="none" stroke="midnightblue" d="M572.31,-67.48C580.87,-59.64 593.9,-47.71 605.21,-37.37"/>
<polygon fill="midnightblue" stroke="midnightblue" points="607.67,-39.86 612.68,-30.52 602.94,-34.69 607.67,-39.86"/>
</g>
<!-- Node10 -->
<g id="node10" class="node">
<title>Node10</title>
<g id="a_node10"><a xlink:title=" ">
<polygon fill="white" stroke="#bfbfbf" points="499,-6 499,-25 541,-25 541,-6 499,-6"/>
<text text-anchor="middle" x="520" y="-13" font-family="Helvetica,sans-Serif" font-size="10.00">array</text>
</a>
</g>
</g>
<!-- Node9&#45;&gt;Node10 -->
<g id="edge11" class="edge">
<title>Node9&#45;&gt;Node10</title>
<path fill="none" stroke="midnightblue" d="M556.84,-67.48C550.39,-58.55 540.1,-44.31 532.03,-33.14"/>
<polygon fill="midnightblue" stroke="midnightblue" points="534.84,-31.06 526.15,-25.01 529.17,-35.16 534.84,-31.06"/>
</g>
</g>
</svg>
