<?xml version="1.0" encoding="UTF-8" standalone="no"?>
<!DOCTYPE svg PUBLIC "-//W3C//DTD SVG 1.1//EN"
 "http://www.w3.org/Graphics/SVG/1.1/DTD/svg11.dtd">
<!-- Generated by graphviz version 2.43.0 (0)
 -->
<!-- Title: /home/joel.winarske@toyotaconnected.com/development/stargate/ivi&#45;homescreen/shell/textures/texture.h Pages: 1 -->
<svg width="974pt" height="294pt"
 viewBox="0.00 0.00 974.00 294.00" xmlns="http://www.w3.org/2000/svg" xmlns:xlink="http://www.w3.org/1999/xlink">
<g id="graph0" class="graph" transform="scale(1 1) rotate(0) translate(4 290)">
<title>/home/joel.winarske@toyotaconnected.com/development/stargate/ivi&#45;homescreen/shell/textures/texture.h</title>
<polygon fill="white" stroke="transparent" points="-4,4 -4,-290 970,-290 970,4 -4,4"/>
<!-- Node1 -->
<g id="node1" class="node">
<title>Node1</title>
<g id="a_node1"><a xlink:title=" ">
<polygon fill="#bfbfbf" stroke="black" points="481,-222.5 481,-285.5 613,-285.5 613,-222.5 481,-222.5"/>
<text text-anchor="start" x="489" y="-273.5" font-family="Helvetica,sans-Serif" font-size="10.00">/home/joel.winarske</text>
<text text-anchor="start" x="489" y="-262.5" font-family="Helvetica,sans-Serif" font-size="10.00">@toyotaconnected.com</text>
<text text-anchor="start" x="489" y="-251.5" font-family="Helvetica,sans-Serif" font-size="10.00">/development/stargate</text>
<text text-anchor="start" x="489" y="-240.5" font-family="Helvetica,sans-Serif" font-size="10.00">/ivi&#45;homescreen/shell</text>
<text text-anchor="middle" x="547" y="-229.5" font-family="Helvetica,sans-Serif" font-size="10.00">/textures/texture.h</text>
</a>
</g>
</g>
<!-- Node2 -->
<g id="node2" class="node">
<title>Node2</title>
<g id="a_node2"><a xlink:href="engine_8cc.html" target="_top" xlink:title=" ">
<polygon fill="white" stroke="black" points="0,-117 0,-180 132,-180 132,-117 0,-117"/>
<text text-anchor="start" x="8" y="-168" font-family="Helvetica,sans-Serif" font-size="10.00">/home/joel.winarske</text>
<text text-anchor="start" x="8" y="-157" font-family="Helvetica,sans-Serif" font-size="10.00">@toyotaconnected.com</text>
<text text-anchor="start" x="8" y="-146" font-family="Helvetica,sans-Serif" font-size="10.00">/development/stargate</text>
<text text-anchor="start" x="8" y="-135" font-family="Helvetica,sans-Serif" font-size="10.00">/ivi&#45;homescreen/shell</text>
<text text-anchor="middle" x="66" y="-124" font-family="Helvetica,sans-Serif" font-size="10.00">/engine.cc</text>
</a>
</g>
</g>
<!-- Node1&#45;&gt;Node2 -->
<g id="edge1" class="edge">
<title>Node1&#45;&gt;Node2</title>
<path fill="none" stroke="midnightblue" d="M470.87,-247.05C388.12,-239.08 252.74,-221.58 141,-186 135.62,-184.29 130.14,-182.25 124.71,-180.02"/>
<polygon fill="midnightblue" stroke="midnightblue" points="470.66,-250.55 480.94,-248 471.32,-243.58 470.66,-250.55"/>
</g>
<!-- Node3 -->
<g id="node3" class="node">
<title>Node3</title>
<g id="a_node3"><a xlink:href="gstreamer__egl_8cc.html" target="_top" xlink:title=" ">
<polygon fill="white" stroke="black" points="150,-111.5 150,-185.5 290,-185.5 290,-111.5 150,-111.5"/>
<text text-anchor="start" x="158" y="-173.5" font-family="Helvetica,sans-Serif" font-size="10.00">/home/joel.winarske</text>
<text text-anchor="start" x="158" y="-162.5" font-family="Helvetica,sans-Serif" font-size="10.00">@toyotaconnected.com</text>
<text text-anchor="start" x="158" y="-151.5" font-family="Helvetica,sans-Serif" font-size="10.00">/development/stargate</text>
<text text-anchor="start" x="158" y="-140.5" font-family="Helvetica,sans-Serif" font-size="10.00">/ivi&#45;homescreen/shell</text>
<text text-anchor="start" x="158" y="-129.5" font-family="Helvetica,sans-Serif" font-size="10.00">/static_plugins/gstreamer</text>
<text text-anchor="middle" x="220" y="-118.5" font-family="Helvetica,sans-Serif" font-size="10.00">_egl/gstreamer_egl.cc</text>
</a>
</g>
</g>
<!-- Node1&#45;&gt;Node3 -->
<g id="edge2" class="edge">
<title>Node1&#45;&gt;Node3</title>
<path fill="none" stroke="midnightblue" d="M470.78,-235.94C421.19,-223.99 355.47,-206.51 299,-186 296.16,-184.97 293.28,-183.88 290.39,-182.74"/>
<polygon fill="midnightblue" stroke="midnightblue" points="470.25,-239.42 480.79,-238.34 471.88,-232.61 470.25,-239.42"/>
</g>
<!-- Node4 -->
<g id="node4" class="node">
<title>Node4</title>
<g id="a_node4"><a xlink:href="texture__egl_8h.html" target="_top" xlink:title=" ">
<polygon fill="white" stroke="black" points="474,-117 474,-180 620,-180 620,-117 474,-117"/>
<text text-anchor="start" x="482" y="-168" font-family="Helvetica,sans-Serif" font-size="10.00">/home/joel.winarske</text>
<text text-anchor="start" x="482" y="-157" font-family="Helvetica,sans-Serif" font-size="10.00">@toyotaconnected.com</text>
<text text-anchor="start" x="482" y="-146" font-family="Helvetica,sans-Serif" font-size="10.00">/development/stargate</text>
<text text-anchor="start" x="482" y="-135" font-family="Helvetica,sans-Serif" font-size="10.00">/ivi&#45;homescreen/shell</text>
<text text-anchor="middle" x="547" y="-124" font-family="Helvetica,sans-Serif" font-size="10.00">/textures/egl/texture_egl.h</text>
</a>
</g>
</g>
<!-- Node1&#45;&gt;Node4 -->
<g id="edge3" class="edge">
<title>Node1&#45;&gt;Node4</title>
<path fill="none" stroke="midnightblue" d="M547,-211.96C547,-201.42 547,-190.26 547,-180.33"/>
<polygon fill="midnightblue" stroke="midnightblue" points="543.5,-212.23 547,-222.23 550.5,-212.23 543.5,-212.23"/>
</g>
<!-- Node7 -->
<g id="node7" class="node">
<title>Node7</title>
<g id="a_node7"><a xlink:href="texture__navi__render__egl_8h.html" target="_top" xlink:title=" ">
<polygon fill="white" stroke="black" points="308.5,-111.5 308.5,-185.5 455.5,-185.5 455.5,-111.5 308.5,-111.5"/>
<text text-anchor="start" x="316.5" y="-173.5" font-family="Helvetica,sans-Serif" font-size="10.00">/home/joel.winarske</text>
<text text-anchor="start" x="316.5" y="-162.5" font-family="Helvetica,sans-Serif" font-size="10.00">@toyotaconnected.com</text>
<text text-anchor="start" x="316.5" y="-151.5" font-family="Helvetica,sans-Serif" font-size="10.00">/development/stargate</text>
<text text-anchor="start" x="316.5" y="-140.5" font-family="Helvetica,sans-Serif" font-size="10.00">/ivi&#45;homescreen/shell</text>
<text text-anchor="start" x="316.5" y="-129.5" font-family="Helvetica,sans-Serif" font-size="10.00">/textures/navi_render_egl</text>
<text text-anchor="middle" x="382" y="-118.5" font-family="Helvetica,sans-Serif" font-size="10.00">/texture_navi_render_egl.h</text>
</a>
</g>
</g>
<!-- Node1&#45;&gt;Node7 -->
<g id="edge6" class="edge">
<title>Node1&#45;&gt;Node7</title>
<path fill="none" stroke="midnightblue" d="M489.17,-216.73C473.1,-206.64 455.65,-195.7 439.59,-185.62"/>
<polygon fill="midnightblue" stroke="midnightblue" points="487.61,-219.88 497.94,-222.23 491.33,-213.95 487.61,-219.88"/>
</g>
<!-- Node9 -->
<g id="node9" class="node">
<title>Node9</title>
<g id="a_node9"><a xlink:href="texture__test__egl_8cc.html" target="_top" xlink:title=" ">
<polygon fill="white" stroke="black" points="769,-0.5 769,-74.5 909,-74.5 909,-0.5 769,-0.5"/>
<text text-anchor="start" x="777" y="-62.5" font-family="Helvetica,sans-Serif" font-size="10.00">/home/joel.winarske</text>
<text text-anchor="start" x="777" y="-51.5" font-family="Helvetica,sans-Serif" font-size="10.00">@toyotaconnected.com</text>
<text text-anchor="start" x="777" y="-40.5" font-family="Helvetica,sans-Serif" font-size="10.00">/development/stargate</text>
<text text-anchor="start" x="777" y="-29.5" font-family="Helvetica,sans-Serif" font-size="10.00">/ivi&#45;homescreen/shell</text>
<text text-anchor="start" x="777" y="-18.5" font-family="Helvetica,sans-Serif" font-size="10.00">/textures/test_egl/texture</text>
<text text-anchor="middle" x="839" y="-7.5" font-family="Helvetica,sans-Serif" font-size="10.00">_test_egl.cc</text>
</a>
</g>
</g>
<!-- Node1&#45;&gt;Node9 -->
<g id="edge8" class="edge">
<title>Node1&#45;&gt;Node9</title>
<path fill="none" stroke="midnightblue" d="M623.28,-249.64C675.44,-243.46 742.87,-227.28 787,-186 803.46,-170.6 820.44,-113.16 830.34,-74.66"/>
<polygon fill="midnightblue" stroke="midnightblue" points="622.63,-246.19 613.06,-250.75 623.38,-253.15 622.63,-246.19"/>
</g>
<!-- Node10 -->
<g id="node10" class="node">
<title>Node10</title>
<g id="a_node10"><a xlink:href="texture__test__egl_8h.html" target="_top" xlink:title=" ">
<polygon fill="white" stroke="black" points="638,-111.5 638,-185.5 778,-185.5 778,-111.5 638,-111.5"/>
<text text-anchor="start" x="646" y="-173.5" font-family="Helvetica,sans-Serif" font-size="10.00">/home/joel.winarske</text>
<text text-anchor="start" x="646" y="-162.5" font-family="Helvetica,sans-Serif" font-size="10.00">@toyotaconnected.com</text>
<text text-anchor="start" x="646" y="-151.5" font-family="Helvetica,sans-Serif" font-size="10.00">/development/stargate</text>
<text text-anchor="start" x="646" y="-140.5" font-family="Helvetica,sans-Serif" font-size="10.00">/ivi&#45;homescreen/shell</text>
<text text-anchor="start" x="646" y="-129.5" font-family="Helvetica,sans-Serif" font-size="10.00">/textures/test_egl/texture</text>
<text text-anchor="middle" x="708" y="-118.5" font-family="Helvetica,sans-Serif" font-size="10.00">_test_egl.h</text>
</a>
</g>
</g>
<!-- Node1&#45;&gt;Node10 -->
<g id="edge9" class="edge">
<title>Node1&#45;&gt;Node10</title>
<path fill="none" stroke="midnightblue" d="M603.43,-216.73C619.11,-206.64 636.14,-195.7 651.81,-185.62"/>
<polygon fill="midnightblue" stroke="midnightblue" points="601.39,-213.88 594.87,-222.23 605.17,-219.76 601.39,-213.88"/>
</g>
<!-- Node11 -->
<g id="node11" class="node">
<title>Node11</title>
<g id="a_node11"><a xlink:href="texture_8cc.html" target="_top" xlink:title=" ">
<polygon fill="white" stroke="black" points="834,-117 834,-180 966,-180 966,-117 834,-117"/>
<text text-anchor="start" x="842" y="-168" font-family="Helvetica,sans-Serif" font-size="10.00">/home/joel.winarske</text>
<text text-anchor="start" x="842" y="-157" font-family="Helvetica,sans-Serif" font-size="10.00">@toyotaconnected.com</text>
<text text-anchor="start" x="842" y="-146" font-family="Helvetica,sans-Serif" font-size="10.00">/development/stargate</text>
<text text-anchor="start" x="842" y="-135" font-family="Helvetica,sans-Serif" font-size="10.00">/ivi&#45;homescreen/shell</text>
<text text-anchor="middle" x="900" y="-124" font-family="Helvetica,sans-Serif" font-size="10.00">/textures/texture.cc</text>
</a>
</g>
</g>
<!-- Node1&#45;&gt;Node11 -->
<g id="edge12" class="edge">
<title>Node1&#45;&gt;Node11</title>
<path fill="none" stroke="midnightblue" d="M623.18,-238.31C678.56,-226.67 754.9,-208.61 820,-186 825.19,-184.2 830.5,-182.18 835.8,-180.04"/>
<polygon fill="midnightblue" stroke="midnightblue" points="622.17,-234.94 613.09,-240.41 623.59,-241.8 622.17,-234.94"/>
</g>
<!-- Node5 -->
<g id="node5" class="node">
<title>Node5</title>
<g id="a_node5"><a xlink:href="opengl__texture_8cc.html" target="_top" xlink:title=" ">
<polygon fill="white" stroke="black" points="435.5,-0.5 435.5,-74.5 582.5,-74.5 582.5,-0.5 435.5,-0.5"/>
<text text-anchor="start" x="443.5" y="-62.5" font-family="Helvetica,sans-Serif" font-size="10.00">/home/joel.winarske</text>
<text text-anchor="start" x="443.5" y="-51.5" font-family="Helvetica,sans-Serif" font-size="10.00">@toyotaconnected.com</text>
<text text-anchor="start" x="443.5" y="-40.5" font-family="Helvetica,sans-Serif" font-size="10.00">/development/stargate</text>
<text text-anchor="start" x="443.5" y="-29.5" font-family="Helvetica,sans-Serif" font-size="10.00">/ivi&#45;homescreen/shell</text>
<text text-anchor="start" x="443.5" y="-18.5" font-family="Helvetica,sans-Serif" font-size="10.00">/static_plugins/opengl</text>
<text text-anchor="middle" x="509" y="-7.5" font-family="Helvetica,sans-Serif" font-size="10.00">_texture/opengl_texture.cc</text>
</a>
</g>
</g>
<!-- Node4&#45;&gt;Node5 -->
<g id="edge4" class="edge">
<title>Node4&#45;&gt;Node5</title>
<path fill="none" stroke="midnightblue" d="M532.99,-107.31C529.27,-96.63 525.27,-85.16 521.62,-74.71"/>
<polygon fill="midnightblue" stroke="midnightblue" points="529.72,-108.56 536.31,-116.85 536.33,-106.25 529.72,-108.56"/>
</g>
<!-- Node6 -->
<g id="node6" class="node">
<title>Node6</title>
<g id="a_node6"><a xlink:href="texture__egl_8cc.html" target="_top" xlink:title=" ">
<polygon fill="white" stroke="black" points="601,-6 601,-69 751,-69 751,-6 601,-6"/>
<text text-anchor="start" x="609" y="-57" font-family="Helvetica,sans-Serif" font-size="10.00">/home/joel.winarske</text>
<text text-anchor="start" x="609" y="-46" font-family="Helvetica,sans-Serif" font-size="10.00">@toyotaconnected.com</text>
<text text-anchor="start" x="609" y="-35" font-family="Helvetica,sans-Serif" font-size="10.00">/development/stargate</text>
<text text-anchor="start" x="609" y="-24" font-family="Helvetica,sans-Serif" font-size="10.00">/ivi&#45;homescreen/shell</text>
<text text-anchor="middle" x="676" y="-13" font-family="Helvetica,sans-Serif" font-size="10.00">/textures/egl/texture_egl.cc</text>
</a>
</g>
</g>
<!-- Node4&#45;&gt;Node6 -->
<g id="edge5" class="edge">
<title>Node4&#45;&gt;Node6</title>
<path fill="none" stroke="midnightblue" d="M591.32,-110.05C607.04,-96.77 624.55,-81.97 639.55,-69.3"/>
<polygon fill="midnightblue" stroke="midnightblue" points="588.66,-107.72 583.28,-116.85 593.17,-113.07 588.66,-107.72"/>
</g>
<!-- Node8 -->
<g id="node8" class="node">
<title>Node8</title>
<g id="a_node8"><a xlink:href="texture__navi__render__egl_8cc.html" target="_top" xlink:title=" ">
<polygon fill="white" stroke="black" points="265,-0.5 265,-74.5 417,-74.5 417,-0.5 265,-0.5"/>
<text text-anchor="start" x="273" y="-62.5" font-family="Helvetica,sans-Serif" font-size="10.00">/home/joel.winarske</text>
<text text-anchor="start" x="273" y="-51.5" font-family="Helvetica,sans-Serif" font-size="10.00">@toyotaconnected.com</text>
<text text-anchor="start" x="273" y="-40.5" font-family="Helvetica,sans-Serif" font-size="10.00">/development/stargate</text>
<text text-anchor="start" x="273" y="-29.5" font-family="Helvetica,sans-Serif" font-size="10.00">/ivi&#45;homescreen/shell</text>
<text text-anchor="start" x="273" y="-18.5" font-family="Helvetica,sans-Serif" font-size="10.00">/textures/navi_render_egl</text>
<text text-anchor="middle" x="341" y="-7.5" font-family="Helvetica,sans-Serif" font-size="10.00">/texture_navi_render_egl.cc</text>
</a>
</g>
</g>
<!-- Node7&#45;&gt;Node8 -->
<g id="edge7" class="edge">
<title>Node7&#45;&gt;Node8</title>
<path fill="none" stroke="midnightblue" d="M364.74,-101.61C361.35,-92.6 357.84,-83.27 354.59,-74.64"/>
<polygon fill="midnightblue" stroke="midnightblue" points="361.55,-103.08 368.35,-111.2 368.1,-100.61 361.55,-103.08"/>
</g>
<!-- Node10&#45;&gt;Node6 -->
<g id="edge10" class="edge">
<title>Node10&#45;&gt;Node6</title>
<path fill="none" stroke="midnightblue" d="M694.46,-101.39C691.27,-90.51 687.94,-79.18 685.01,-69.18"/>
<polygon fill="midnightblue" stroke="midnightblue" points="691.17,-102.6 697.34,-111.2 697.89,-100.62 691.17,-102.6"/>
</g>
<!-- Node10&#45;&gt;Node9 -->
<g id="edge11" class="edge">
<title>Node10&#45;&gt;Node9</title>
<path fill="none" stroke="midnightblue" d="M759.38,-104.75C771.35,-94.79 783.98,-84.28 795.57,-74.64"/>
<polygon fill="midnightblue" stroke="midnightblue" points="757.07,-102.12 751.62,-111.2 761.55,-107.5 757.07,-102.12"/>
</g>
</g>
</svg>
