<?xml version="1.0" encoding="UTF-8" standalone="no"?>
<!DOCTYPE svg PUBLIC "-//W3C//DTD SVG 1.1//EN"
 "http://www.w3.org/Graphics/SVG/1.1/DTD/svg11.dtd">
<!-- Generated by graphviz version 5.0.0 (0)
 -->
<!-- Title: /mnt/raid10/stargate/ivi&#45;homescreen/shell/textures/texture.h Pages: 1 -->
<svg width="661pt" height="170pt"
 viewBox="0.00 0.00 660.50 170.00" xmlns="http://www.w3.org/2000/svg" xmlns:xlink="http://www.w3.org/1999/xlink">
<g id="graph0" class="graph" transform="scale(1 1) rotate(0) translate(4 166)">
<title>/mnt/raid10/stargate/ivi&#45;homescreen/shell/textures/texture.h</title>
<!-- Node1 -->
<g id="node1" class="node">
<title>Node1</title>
<g id="a_node1"><a xlink:title=" ">
<polygon fill="#999999" stroke="#666666" points="306.5,-162 197.5,-162 197.5,-121 306.5,-121 306.5,-162"/>
<text text-anchor="start" x="205.5" y="-150" font-family="Helvetica,sans-Serif" font-size="10.00">/mnt/raid10/stargate</text>
<text text-anchor="start" x="205.5" y="-139" font-family="Helvetica,sans-Serif" font-size="10.00">/ivi&#45;homescreen/shell</text>
<text text-anchor="middle" x="252" y="-128" font-family="Helvetica,sans-Serif" font-size="10.00">/textures/texture.h</text>
</a>
</g>
</g>
<!-- Node2 -->
<g id="node2" class="node">
<title>Node2</title>
<g id="a_node2"><a xlink:title=" ">
<polygon fill="#e0e0e0" stroke="#999999" points="52,-85 0,-85 0,-66 52,-66 52,-85"/>
<text text-anchor="middle" x="26" y="-73" font-family="Helvetica,sans-Serif" font-size="10.00">memory</text>
</a>
</g>
</g>
<!-- Node1&#45;&gt;Node2 -->
<g id="edge1" class="edge">
<title>Node1&#45;&gt;Node2</title>
<path fill="none" stroke="#63b8ff" d="M197.29,-125.01C155.26,-113.1 98.41,-97.01 61.97,-86.68"/>
<polygon fill="#63b8ff" stroke="#63b8ff" points="62.83,-83.29 52.26,-83.94 60.92,-90.03 62.83,-83.29"/>
</g>
<!-- Node3 -->
<g id="node3" class="node">
<title>Node3</title>
<g id="a_node3"><a xlink:title=" ">
<polygon fill="#e0e0e0" stroke="#999999" points="114,-85 70,-85 70,-66 114,-66 114,-85"/>
<text text-anchor="middle" x="92" y="-73" font-family="Helvetica,sans-Serif" font-size="10.00">vector</text>
</a>
</g>
</g>
<!-- Node1&#45;&gt;Node3 -->
<g id="edge2" class="edge">
<title>Node1&#45;&gt;Node3</title>
<path fill="none" stroke="#63b8ff" d="M203.13,-120.95C177.03,-110.51 145.69,-97.98 122.96,-88.88"/>
<polygon fill="#63b8ff" stroke="#63b8ff" points="124.06,-85.56 113.48,-85.09 121.46,-92.06 124.06,-85.56"/>
</g>
<!-- Node4 -->
<g id="node4" class="node">
<title>Node4</title>
<g id="a_node4"><a xlink:title=" ">
<polygon fill="#e0e0e0" stroke="#999999" points="315,-24.5 255,-24.5 255,-5.5 315,-5.5 315,-24.5"/>
<text text-anchor="middle" x="285" y="-12.5" font-family="Helvetica,sans-Serif" font-size="10.00">EGL/egl.h</text>
</a>
</g>
</g>
<!-- Node1&#45;&gt;Node4 -->
<g id="edge3" class="edge">
<title>Node1&#45;&gt;Node4</title>
<path fill="none" stroke="#63b8ff" d="M198.33,-120.87C170.77,-107.59 145.86,-88.42 161,-66 179.56,-38.5 216.06,-26.12 244.67,-20.55"/>
<polygon fill="#63b8ff" stroke="#63b8ff" points="245.55,-23.95 254.81,-18.79 244.36,-17.05 245.55,-23.95"/>
</g>
<!-- Node5 -->
<g id="node5" class="node">
<title>Node5</title>
<g id="a_node5"><a xlink:title=" ">
<polygon fill="#e0e0e0" stroke="#999999" points="244,-85 170,-85 170,-66 244,-66 244,-85"/>
<text text-anchor="middle" x="207" y="-73" font-family="Helvetica,sans-Serif" font-size="10.00">EGL/eglext.h</text>
</a>
</g>
</g>
<!-- Node1&#45;&gt;Node5 -->
<g id="edge4" class="edge">
<title>Node1&#45;&gt;Node5</title>
<path fill="none" stroke="#63b8ff" d="M238.25,-120.95C232.1,-112.2 224.92,-101.99 218.99,-93.56"/>
<polygon fill="#63b8ff" stroke="#63b8ff" points="221.77,-91.43 213.16,-85.26 216.05,-95.45 221.77,-91.43"/>
</g>
<!-- Node6 -->
<g id="node6" class="node">
<title>Node6</title>
<g id="a_node6"><a xlink:title=" ">
<polygon fill="#e0e0e0" stroke="#999999" points="334,-85 262,-85 262,-66 334,-66 334,-85"/>
<text text-anchor="middle" x="298" y="-73" font-family="Helvetica,sans-Serif" font-size="10.00">GLES2/gl2.h</text>
</a>
</g>
</g>
<!-- Node1&#45;&gt;Node6 -->
<g id="edge5" class="edge">
<title>Node1&#45;&gt;Node6</title>
<path fill="none" stroke="#63b8ff" d="M266.05,-120.95C272.34,-112.2 279.68,-101.99 285.74,-93.56"/>
<polygon fill="#63b8ff" stroke="#63b8ff" points="288.71,-95.42 291.7,-85.26 283.02,-91.34 288.71,-95.42"/>
</g>
<!-- Node7 -->
<g id="node7" class="node">
<title>Node7</title>
<g id="a_node7"><a xlink:title=" ">
<polygon fill="#e0e0e0" stroke="#999999" points="477.5,-85 352.5,-85 352.5,-66 477.5,-66 477.5,-85"/>
<text text-anchor="middle" x="415" y="-73" font-family="Helvetica,sans-Serif" font-size="10.00">flutter/encodable_value.h</text>
</a>
</g>
</g>
<!-- Node1&#45;&gt;Node7 -->
<g id="edge6" class="edge">
<title>Node1&#45;&gt;Node7</title>
<path fill="none" stroke="#63b8ff" d="M301.79,-120.95C328.5,-110.46 360.59,-97.87 383.77,-88.76"/>
<polygon fill="#63b8ff" stroke="#63b8ff" points="385.09,-92 393.12,-85.09 382.53,-85.49 385.09,-92"/>
</g>
<!-- Node8 -->
<g id="node8" class="node">
<title>Node8</title>
<g id="a_node8"><a xlink:title=" ">
<polygon fill="#e0e0e0" stroke="#999999" points="652.5,-30 531.5,-30 531.5,0 652.5,0 652.5,-30"/>
<text text-anchor="start" x="539.5" y="-18" font-family="Helvetica,sans-Serif" font-size="10.00">shell/platform/embedder</text>
<text text-anchor="middle" x="592" y="-7" font-family="Helvetica,sans-Serif" font-size="10.00">/embedder.h</text>
</a>
</g>
</g>
<!-- Node1&#45;&gt;Node8 -->
<g id="edge7" class="edge">
<title>Node1&#45;&gt;Node8</title>
<path fill="none" stroke="#63b8ff" d="M306.73,-137.98C387.91,-133.11 534.77,-119.67 573,-85 585.37,-73.78 589.99,-55.33 591.58,-40.33"/>
<polygon fill="#63b8ff" stroke="#63b8ff" points="595.09,-40.38 592.28,-30.17 588.1,-39.9 595.09,-40.38"/>
</g>
<!-- Node9 -->
<g id="node9" class="node">
<title>Node9</title>
<g id="a_node9"><a xlink:href="constants_8h.html" target="_top" xlink:title=" ">
<polygon fill="white" stroke="#666666" points="564,-85 496,-85 496,-66 564,-66 564,-85"/>
<text text-anchor="middle" x="530" y="-73" font-family="Helvetica,sans-Serif" font-size="10.00">constants.h</text>
</a>
</g>
</g>
<!-- Node1&#45;&gt;Node9 -->
<g id="edge8" class="edge">
<title>Node1&#45;&gt;Node9</title>
<path fill="none" stroke="#63b8ff" d="M306.59,-127.93C359,-115.87 437.17,-97.87 485.79,-86.68"/>
<polygon fill="#63b8ff" stroke="#63b8ff" points="486.74,-90.05 495.7,-84.4 485.17,-83.23 486.74,-90.05"/>
</g>
<!-- Node9&#45;&gt;Node4 -->
<g id="edge9" class="edge">
<title>Node9&#45;&gt;Node4</title>
<path fill="none" stroke="#63b8ff" d="M495.93,-66.37C451.22,-55.69 372.86,-36.98 325.26,-25.61"/>
<polygon fill="#63b8ff" stroke="#63b8ff" points="325.85,-22.16 315.31,-23.24 324.22,-28.96 325.85,-22.16"/>
</g>
<!-- Node9&#45;&gt;Node8 -->
<g id="edge10" class="edge">
<title>Node9&#45;&gt;Node8</title>
<path fill="none" stroke="#63b8ff" d="M539.15,-65.87C547.17,-58.3 559.17,-46.98 569.7,-37.04"/>
<polygon fill="#63b8ff" stroke="#63b8ff" points="572.17,-39.52 577.04,-30.11 567.37,-34.43 572.17,-39.52"/>
</g>
<!-- Node10 -->
<g id="node10" class="node">
<title>Node10</title>
<g id="a_node10"><a xlink:title=" ">
<polygon fill="#e0e0e0" stroke="#999999" points="513,-24.5 475,-24.5 475,-5.5 513,-5.5 513,-24.5"/>
<text text-anchor="middle" x="494" y="-12.5" font-family="Helvetica,sans-Serif" font-size="10.00">array</text>
</a>
</g>
</g>
<!-- Node9&#45;&gt;Node10 -->
<g id="edge11" class="edge">
<title>Node9&#45;&gt;Node10</title>
<path fill="none" stroke="#63b8ff" d="M524.69,-65.87C519.42,-57.31 511.21,-43.97 504.61,-33.24"/>
<polygon fill="#63b8ff" stroke="#63b8ff" points="507.56,-31.35 499.33,-24.67 501.59,-35.02 507.56,-31.35"/>
</g>
</g>
</svg>
