<?xml version="1.0" encoding="UTF-8" standalone="no"?>
<!DOCTYPE svg PUBLIC "-//W3C//DTD SVG 1.1//EN"
 "http://www.w3.org/Graphics/SVG/1.1/DTD/svg11.dtd">
<!-- Generated by graphviz version 2.43.0 (0)
 -->
<!-- Title: /home/joel.winarske@toyotaconnected.com/development/workspace&#45;automation&#45;configs/app/ivi&#45;homescreen/shell/textures/texture.h Pages: 1 -->
<svg width="1187pt" height="327pt"
 viewBox="0.00 0.00 1187.00 327.00" xmlns="http://www.w3.org/2000/svg" xmlns:xlink="http://www.w3.org/1999/xlink">
<g id="graph0" class="graph" transform="scale(1 1) rotate(0) translate(4 323)">
<title>/home/joel.winarske@toyotaconnected.com/development/workspace&#45;automation&#45;configs/app/ivi&#45;homescreen/shell/textures/texture.h</title>
<polygon fill="white" stroke="transparent" points="-4,4 -4,-323 1183,-323 1183,4 -4,4"/>
<!-- Node1 -->
<g id="node1" class="node">
<title>Node1</title>
<g id="a_node1"><a xlink:title=" ">
<polygon fill="#bfbfbf" stroke="black" points="609,-244.5 609,-318.5 774,-318.5 774,-244.5 609,-244.5"/>
<text text-anchor="start" x="617" y="-306.5" font-family="Helvetica,sans-Serif" font-size="10.00">/home/joel.winarske</text>
<text text-anchor="start" x="617" y="-295.5" font-family="Helvetica,sans-Serif" font-size="10.00">@toyotaconnected.com</text>
<text text-anchor="start" x="617" y="-284.5" font-family="Helvetica,sans-Serif" font-size="10.00">/development/workspace</text>
<text text-anchor="start" x="617" y="-273.5" font-family="Helvetica,sans-Serif" font-size="10.00">&#45;automation&#45;configs/app</text>
<text text-anchor="start" x="617" y="-262.5" font-family="Helvetica,sans-Serif" font-size="10.00">/ivi&#45;homescreen/shell/textures</text>
<text text-anchor="middle" x="691.5" y="-251.5" font-family="Helvetica,sans-Serif" font-size="10.00">/texture.h</text>
</a>
</g>
</g>
<!-- Node2 -->
<g id="node2" class="node">
<title>Node2</title>
<g id="a_node2"><a xlink:href="engine_8cc.html" target="_top" xlink:title=" ">
<polygon fill="white" stroke="black" points="0,-133.5 0,-196.5 171,-196.5 171,-133.5 0,-133.5"/>
<text text-anchor="start" x="8" y="-184.5" font-family="Helvetica,sans-Serif" font-size="10.00">/home/joel.winarske</text>
<text text-anchor="start" x="8" y="-173.5" font-family="Helvetica,sans-Serif" font-size="10.00">@toyotaconnected.com</text>
<text text-anchor="start" x="8" y="-162.5" font-family="Helvetica,sans-Serif" font-size="10.00">/development/workspace</text>
<text text-anchor="start" x="8" y="-151.5" font-family="Helvetica,sans-Serif" font-size="10.00">&#45;automation&#45;configs/app</text>
<text text-anchor="middle" x="85.5" y="-140.5" font-family="Helvetica,sans-Serif" font-size="10.00">/ivi&#45;homescreen/shell/engine.cc</text>
</a>
</g>
</g>
<!-- Node1&#45;&gt;Node2 -->
<g id="edge1" class="edge">
<title>Node1&#45;&gt;Node2</title>
<path fill="none" stroke="midnightblue" d="M598.5,-275.01C494.85,-267.13 323.07,-248.78 180.5,-208 169.75,-204.93 158.64,-200.88 147.96,-196.51"/>
<polygon fill="midnightblue" stroke="midnightblue" points="598.39,-278.51 608.63,-275.77 598.91,-271.53 598.39,-278.51"/>
</g>
<!-- Node3 -->
<g id="node3" class="node">
<title>Node3</title>
<g id="a_node3"><a xlink:href="gstreamer__egl_8cc.html" target="_top" xlink:title=" ">
<polygon fill="white" stroke="black" points="189.5,-128 189.5,-202 407.5,-202 407.5,-128 189.5,-128"/>
<text text-anchor="start" x="197.5" y="-190" font-family="Helvetica,sans-Serif" font-size="10.00">/home/joel.winarske</text>
<text text-anchor="start" x="197.5" y="-179" font-family="Helvetica,sans-Serif" font-size="10.00">@toyotaconnected.com</text>
<text text-anchor="start" x="197.5" y="-168" font-family="Helvetica,sans-Serif" font-size="10.00">/development/workspace</text>
<text text-anchor="start" x="197.5" y="-157" font-family="Helvetica,sans-Serif" font-size="10.00">&#45;automation&#45;configs/app</text>
<text text-anchor="start" x="197.5" y="-146" font-family="Helvetica,sans-Serif" font-size="10.00">/ivi&#45;homescreen/shell/static</text>
<text text-anchor="middle" x="298.5" y="-135" font-family="Helvetica,sans-Serif" font-size="10.00">_plugins/gstreamer_egl/gstreamer_egl.cc</text>
</a>
</g>
</g>
<!-- Node1&#45;&gt;Node3 -->
<g id="edge2" class="edge">
<title>Node1&#45;&gt;Node3</title>
<path fill="none" stroke="midnightblue" d="M599.03,-258.19C545.41,-244.74 476.78,-226.64 416.5,-208 410.37,-206.11 404.09,-204.09 397.77,-202.01"/>
<polygon fill="midnightblue" stroke="midnightblue" points="598.31,-261.61 608.86,-260.64 600.01,-254.82 598.31,-261.61"/>
</g>
<!-- Node4 -->
<g id="node4" class="node">
<title>Node4</title>
<g id="a_node4"><a xlink:href="texture__egl_8h.html" target="_top" xlink:title=" ">
<polygon fill="white" stroke="black" points="609,-128 609,-202 774,-202 774,-128 609,-128"/>
<text text-anchor="start" x="617" y="-190" font-family="Helvetica,sans-Serif" font-size="10.00">/home/joel.winarske</text>
<text text-anchor="start" x="617" y="-179" font-family="Helvetica,sans-Serif" font-size="10.00">@toyotaconnected.com</text>
<text text-anchor="start" x="617" y="-168" font-family="Helvetica,sans-Serif" font-size="10.00">/development/workspace</text>
<text text-anchor="start" x="617" y="-157" font-family="Helvetica,sans-Serif" font-size="10.00">&#45;automation&#45;configs/app</text>
<text text-anchor="start" x="617" y="-146" font-family="Helvetica,sans-Serif" font-size="10.00">/ivi&#45;homescreen/shell/textures</text>
<text text-anchor="middle" x="691.5" y="-135" font-family="Helvetica,sans-Serif" font-size="10.00">/egl/texture_egl.h</text>
</a>
</g>
</g>
<!-- Node1&#45;&gt;Node4 -->
<g id="edge3" class="edge">
<title>Node1&#45;&gt;Node4</title>
<path fill="none" stroke="midnightblue" d="M691.5,-233.97C691.5,-223.45 691.5,-212.42 691.5,-202.39"/>
<polygon fill="midnightblue" stroke="midnightblue" points="688,-234.27 691.5,-244.27 695,-234.27 688,-234.27"/>
</g>
<!-- Node7 -->
<g id="node7" class="node">
<title>Node7</title>
<g id="a_node7"><a xlink:href="texture__navi__render__egl_8h.html" target="_top" xlink:title=" ">
<polygon fill="white" stroke="black" points="426,-122.5 426,-207.5 591,-207.5 591,-122.5 426,-122.5"/>
<text text-anchor="start" x="434" y="-195.5" font-family="Helvetica,sans-Serif" font-size="10.00">/home/joel.winarske</text>
<text text-anchor="start" x="434" y="-184.5" font-family="Helvetica,sans-Serif" font-size="10.00">@toyotaconnected.com</text>
<text text-anchor="start" x="434" y="-173.5" font-family="Helvetica,sans-Serif" font-size="10.00">/development/workspace</text>
<text text-anchor="start" x="434" y="-162.5" font-family="Helvetica,sans-Serif" font-size="10.00">&#45;automation&#45;configs/app</text>
<text text-anchor="start" x="434" y="-151.5" font-family="Helvetica,sans-Serif" font-size="10.00">/ivi&#45;homescreen/shell/textures</text>
<text text-anchor="start" x="434" y="-140.5" font-family="Helvetica,sans-Serif" font-size="10.00">/navi_render_egl/texture_navi</text>
<text text-anchor="middle" x="508.5" y="-129.5" font-family="Helvetica,sans-Serif" font-size="10.00">_render_egl.h</text>
</a>
</g>
</g>
<!-- Node1&#45;&gt;Node7 -->
<g id="edge6" class="edge">
<title>Node1&#45;&gt;Node7</title>
<path fill="none" stroke="midnightblue" d="M624.96,-238.87C608.73,-228.71 591.36,-217.84 575.12,-207.69"/>
<polygon fill="midnightblue" stroke="midnightblue" points="623.51,-242.09 633.85,-244.43 627.23,-236.16 623.51,-242.09"/>
</g>
<!-- Node9 -->
<g id="node9" class="node">
<title>Node9</title>
<g id="a_node9"><a xlink:href="texture__test__egl_8cc.html" target="_top" xlink:title=" ">
<polygon fill="white" stroke="black" points="939,-6 939,-80 1104,-80 1104,-6 939,-6"/>
<text text-anchor="start" x="947" y="-68" font-family="Helvetica,sans-Serif" font-size="10.00">/home/joel.winarske</text>
<text text-anchor="start" x="947" y="-57" font-family="Helvetica,sans-Serif" font-size="10.00">@toyotaconnected.com</text>
<text text-anchor="start" x="947" y="-46" font-family="Helvetica,sans-Serif" font-size="10.00">/development/workspace</text>
<text text-anchor="start" x="947" y="-35" font-family="Helvetica,sans-Serif" font-size="10.00">&#45;automation&#45;configs/app</text>
<text text-anchor="start" x="947" y="-24" font-family="Helvetica,sans-Serif" font-size="10.00">/ivi&#45;homescreen/shell/textures</text>
<text text-anchor="middle" x="1021.5" y="-13" font-family="Helvetica,sans-Serif" font-size="10.00">/test_egl/texture_test_egl.cc</text>
</a>
</g>
</g>
<!-- Node1&#45;&gt;Node9 -->
<g id="edge8" class="edge">
<title>Node1&#45;&gt;Node9</title>
<path fill="none" stroke="midnightblue" d="M784.27,-277.85C843.31,-271.4 917.61,-253.78 966.5,-208 985.3,-190.4 1003.59,-122.78 1013.62,-80.06"/>
<polygon fill="midnightblue" stroke="midnightblue" points="783.78,-274.38 774.18,-278.86 784.48,-281.34 783.78,-274.38"/>
</g>
<!-- Node10 -->
<g id="node10" class="node">
<title>Node10</title>
<g id="a_node10"><a xlink:href="texture__test__egl_8h.html" target="_top" xlink:title=" ">
<polygon fill="white" stroke="black" points="792,-128 792,-202 957,-202 957,-128 792,-128"/>
<text text-anchor="start" x="800" y="-190" font-family="Helvetica,sans-Serif" font-size="10.00">/home/joel.winarske</text>
<text text-anchor="start" x="800" y="-179" font-family="Helvetica,sans-Serif" font-size="10.00">@toyotaconnected.com</text>
<text text-anchor="start" x="800" y="-168" font-family="Helvetica,sans-Serif" font-size="10.00">/development/workspace</text>
<text text-anchor="start" x="800" y="-157" font-family="Helvetica,sans-Serif" font-size="10.00">&#45;automation&#45;configs/app</text>
<text text-anchor="start" x="800" y="-146" font-family="Helvetica,sans-Serif" font-size="10.00">/ivi&#45;homescreen/shell/textures</text>
<text text-anchor="middle" x="874.5" y="-135" font-family="Helvetica,sans-Serif" font-size="10.00">/test_egl/texture_test_egl.h</text>
</a>
</g>
</g>
<!-- Node1&#45;&gt;Node10 -->
<g id="edge9" class="edge">
<title>Node1&#45;&gt;Node10</title>
<path fill="none" stroke="midnightblue" d="M757.63,-239.12C777,-227 798.02,-213.85 816.82,-202.09"/>
<polygon fill="midnightblue" stroke="midnightblue" points="755.77,-236.16 749.15,-244.43 759.49,-242.09 755.77,-236.16"/>
</g>
<!-- Node11 -->
<g id="node11" class="node">
<title>Node11</title>
<g id="a_node11"><a xlink:href="texture_8cc.html" target="_top" xlink:title=" ">
<polygon fill="white" stroke="black" points="1014,-128 1014,-202 1179,-202 1179,-128 1014,-128"/>
<text text-anchor="start" x="1022" y="-190" font-family="Helvetica,sans-Serif" font-size="10.00">/home/joel.winarske</text>
<text text-anchor="start" x="1022" y="-179" font-family="Helvetica,sans-Serif" font-size="10.00">@toyotaconnected.com</text>
<text text-anchor="start" x="1022" y="-168" font-family="Helvetica,sans-Serif" font-size="10.00">/development/workspace</text>
<text text-anchor="start" x="1022" y="-157" font-family="Helvetica,sans-Serif" font-size="10.00">&#45;automation&#45;configs/app</text>
<text text-anchor="start" x="1022" y="-146" font-family="Helvetica,sans-Serif" font-size="10.00">/ivi&#45;homescreen/shell/textures</text>
<text text-anchor="middle" x="1096.5" y="-135" font-family="Helvetica,sans-Serif" font-size="10.00">/texture.cc</text>
</a>
</g>
</g>
<!-- Node1&#45;&gt;Node11 -->
<g id="edge12" class="edge">
<title>Node1&#45;&gt;Node11</title>
<path fill="none" stroke="midnightblue" d="M784.42,-263.11C846.17,-250.47 928.62,-231.48 999.5,-208 1004.99,-206.18 1010.59,-204.18 1016.2,-202.05"/>
<polygon fill="midnightblue" stroke="midnightblue" points="783.41,-259.75 774.31,-265.16 784.81,-266.61 783.41,-259.75"/>
</g>
<!-- Node5 -->
<g id="node5" class="node">
<title>Node5</title>
<g id="a_node5"><a xlink:href="opengl__texture_8cc.html" target="_top" xlink:title=" ">
<polygon fill="white" stroke="black" points="567.5,-0.5 567.5,-85.5 737.5,-85.5 737.5,-0.5 567.5,-0.5"/>
<text text-anchor="start" x="575.5" y="-73.5" font-family="Helvetica,sans-Serif" font-size="10.00">/home/joel.winarske</text>
<text text-anchor="start" x="575.5" y="-62.5" font-family="Helvetica,sans-Serif" font-size="10.00">@toyotaconnected.com</text>
<text text-anchor="start" x="575.5" y="-51.5" font-family="Helvetica,sans-Serif" font-size="10.00">/development/workspace</text>
<text text-anchor="start" x="575.5" y="-40.5" font-family="Helvetica,sans-Serif" font-size="10.00">&#45;automation&#45;configs/app</text>
<text text-anchor="start" x="575.5" y="-29.5" font-family="Helvetica,sans-Serif" font-size="10.00">/ivi&#45;homescreen/shell/static</text>
<text text-anchor="start" x="575.5" y="-18.5" font-family="Helvetica,sans-Serif" font-size="10.00">_plugins/opengl_texture/opengl</text>
<text text-anchor="middle" x="652.5" y="-7.5" font-family="Helvetica,sans-Serif" font-size="10.00">_texture.cc</text>
</a>
</g>
</g>
<!-- Node4&#45;&gt;Node5 -->
<g id="edge4" class="edge">
<title>Node4&#45;&gt;Node5</title>
<path fill="none" stroke="midnightblue" d="M676.68,-118.41C673.21,-107.73 669.53,-96.4 666.11,-85.89"/>
<polygon fill="midnightblue" stroke="midnightblue" points="673.38,-119.57 679.8,-128 680.04,-117.4 673.38,-119.57"/>
</g>
<!-- Node6 -->
<g id="node6" class="node">
<title>Node6</title>
<g id="a_node6"><a xlink:href="texture__egl_8cc.html" target="_top" xlink:title=" ">
<polygon fill="white" stroke="black" points="756,-6 756,-80 921,-80 921,-6 756,-6"/>
<text text-anchor="start" x="764" y="-68" font-family="Helvetica,sans-Serif" font-size="10.00">/home/joel.winarske</text>
<text text-anchor="start" x="764" y="-57" font-family="Helvetica,sans-Serif" font-size="10.00">@toyotaconnected.com</text>
<text text-anchor="start" x="764" y="-46" font-family="Helvetica,sans-Serif" font-size="10.00">/development/workspace</text>
<text text-anchor="start" x="764" y="-35" font-family="Helvetica,sans-Serif" font-size="10.00">&#45;automation&#45;configs/app</text>
<text text-anchor="start" x="764" y="-24" font-family="Helvetica,sans-Serif" font-size="10.00">/ivi&#45;homescreen/shell/textures</text>
<text text-anchor="middle" x="838.5" y="-13" font-family="Helvetica,sans-Serif" font-size="10.00">/egl/texture_egl.cc</text>
</a>
</g>
</g>
<!-- Node4&#45;&gt;Node6 -->
<g id="edge5" class="edge">
<title>Node4&#45;&gt;Node6</title>
<path fill="none" stroke="midnightblue" d="M743.58,-121.49C760.11,-107.99 778.24,-93.2 794.17,-80.19"/>
<polygon fill="midnightblue" stroke="midnightblue" points="741.14,-118.96 735.6,-128 745.56,-124.38 741.14,-118.96"/>
</g>
<!-- Node8 -->
<g id="node8" class="node">
<title>Node8</title>
<g id="a_node8"><a xlink:href="texture__navi__render__egl_8cc.html" target="_top" xlink:title=" ">
<polygon fill="white" stroke="black" points="384,-0.5 384,-85.5 549,-85.5 549,-0.5 384,-0.5"/>
<text text-anchor="start" x="392" y="-73.5" font-family="Helvetica,sans-Serif" font-size="10.00">/home/joel.winarske</text>
<text text-anchor="start" x="392" y="-62.5" font-family="Helvetica,sans-Serif" font-size="10.00">@toyotaconnected.com</text>
<text text-anchor="start" x="392" y="-51.5" font-family="Helvetica,sans-Serif" font-size="10.00">/development/workspace</text>
<text text-anchor="start" x="392" y="-40.5" font-family="Helvetica,sans-Serif" font-size="10.00">&#45;automation&#45;configs/app</text>
<text text-anchor="start" x="392" y="-29.5" font-family="Helvetica,sans-Serif" font-size="10.00">/ivi&#45;homescreen/shell/textures</text>
<text text-anchor="start" x="392" y="-18.5" font-family="Helvetica,sans-Serif" font-size="10.00">/navi_render_egl/texture_navi</text>
<text text-anchor="middle" x="466.5" y="-7.5" font-family="Helvetica,sans-Serif" font-size="10.00">_render_egl.cc</text>
</a>
</g>
</g>
<!-- Node7&#45;&gt;Node8 -->
<g id="edge7" class="edge">
<title>Node7&#45;&gt;Node8</title>
<path fill="none" stroke="midnightblue" d="M490.54,-112.69C487.37,-103.63 484.11,-94.31 481.05,-85.56"/>
<polygon fill="midnightblue" stroke="midnightblue" points="487.32,-114.08 493.93,-122.37 493.93,-111.77 487.32,-114.08"/>
</g>
<!-- Node10&#45;&gt;Node6 -->
<g id="edge10" class="edge">
<title>Node10&#45;&gt;Node6</title>
<path fill="none" stroke="midnightblue" d="M860.76,-118.2C857.01,-105.68 852.99,-92.3 849.42,-80.39"/>
<polygon fill="midnightblue" stroke="midnightblue" points="857.47,-119.42 863.7,-128 864.18,-117.41 857.47,-119.42"/>
</g>
<!-- Node10&#45;&gt;Node9 -->
<g id="edge11" class="edge">
<title>Node10&#45;&gt;Node9</title>
<path fill="none" stroke="midnightblue" d="M926.58,-121.49C943.11,-107.99 961.24,-93.2 977.17,-80.19"/>
<polygon fill="midnightblue" stroke="midnightblue" points="924.14,-118.96 918.6,-128 928.56,-124.38 924.14,-118.96"/>
</g>
</g>
</svg>
