<?xml version="1.0" encoding="UTF-8" standalone="no"?>
<!DOCTYPE svg PUBLIC "-//W3C//DTD SVG 1.1//EN"
 "http://www.w3.org/Graphics/SVG/1.1/DTD/svg11.dtd">
<!-- Generated by graphviz version 5.0.0 (0)
 -->
<!-- Title: /mnt/raid10/stargate/ivi&#45;homescreen/shell/textures/texture.h Pages: 1 -->
<svg width="887pt" height="225pt"
 viewBox="0.00 0.00 887.00 225.00" xmlns="http://www.w3.org/2000/svg" xmlns:xlink="http://www.w3.org/1999/xlink">
<g id="graph0" class="graph" transform="scale(1 1) rotate(0) translate(4 221)">
<title>/mnt/raid10/stargate/ivi&#45;homescreen/shell/textures/texture.h</title>
<!-- Node1 -->
<g id="node1" class="node">
<title>Node1</title>
<g id="a_node1"><a xlink:title=" ">
<polygon fill="#999999" stroke="#666666" points="559,-217 450,-217 450,-176 559,-176 559,-217"/>
<text text-anchor="start" x="458" y="-205" font-family="Helvetica,sans-Serif" font-size="10.00">/mnt/raid10/stargate</text>
<text text-anchor="start" x="458" y="-194" font-family="Helvetica,sans-Serif" font-size="10.00">/ivi&#45;homescreen/shell</text>
<text text-anchor="middle" x="504.5" y="-183" font-family="Helvetica,sans-Serif" font-size="10.00">/textures/texture.h</text>
</a>
</g>
</g>
<!-- Node2 -->
<g id="node2" class="node">
<title>Node2</title>
<g id="a_node2"><a xlink:href="engine_8cc.html" target="_top" xlink:title=" ">
<polygon fill="white" stroke="#666666" points="109,-134.5 0,-134.5 0,-93.5 109,-93.5 109,-134.5"/>
<text text-anchor="start" x="8" y="-122.5" font-family="Helvetica,sans-Serif" font-size="10.00">/mnt/raid10/stargate</text>
<text text-anchor="start" x="8" y="-111.5" font-family="Helvetica,sans-Serif" font-size="10.00">/ivi&#45;homescreen/shell</text>
<text text-anchor="middle" x="54.5" y="-100.5" font-family="Helvetica,sans-Serif" font-size="10.00">/engine.cc</text>
</a>
</g>
</g>
<!-- Node1&#45;&gt;Node2 -->
<g id="edge1" class="edge">
<title>Node1&#45;&gt;Node2</title>
<path fill="none" stroke="#63b8ff" d="M439.61,-190.75C362.17,-184.03 229.24,-169.18 118.5,-140 112.73,-138.48 106.78,-136.6 100.93,-134.56"/>
<polygon fill="#63b8ff" stroke="#63b8ff" points="439.44,-194.24 449.7,-191.6 440.03,-187.27 439.44,-194.24"/>
</g>
<!-- Node3 -->
<g id="node3" class="node">
<title>Node3</title>
<g id="a_node3"><a xlink:href="gstreamer__egl_8cc.html" target="_top" xlink:title=" ">
<polygon fill="white" stroke="#666666" points="253.5,-140 127.5,-140 127.5,-88 253.5,-88 253.5,-140"/>
<text text-anchor="start" x="135.5" y="-128" font-family="Helvetica,sans-Serif" font-size="10.00">/mnt/raid10/stargate</text>
<text text-anchor="start" x="135.5" y="-117" font-family="Helvetica,sans-Serif" font-size="10.00">/ivi&#45;homescreen/shell</text>
<text text-anchor="start" x="135.5" y="-106" font-family="Helvetica,sans-Serif" font-size="10.00">/static_plugins/gstreamer</text>
<text text-anchor="middle" x="190.5" y="-95" font-family="Helvetica,sans-Serif" font-size="10.00">_egl/gstreamer_egl.cc</text>
</a>
</g>
</g>
<!-- Node1&#45;&gt;Node3 -->
<g id="edge2" class="edge">
<title>Node1&#45;&gt;Node3</title>
<path fill="none" stroke="#63b8ff" d="M439.92,-182.69C390.89,-172.48 321.99,-157.1 262.5,-140 259.57,-139.16 256.59,-138.27 253.59,-137.34"/>
<polygon fill="#63b8ff" stroke="#63b8ff" points="439.26,-186.12 449.76,-184.72 440.68,-179.27 439.26,-186.12"/>
</g>
<!-- Node4 -->
<g id="node4" class="node">
<title>Node4</title>
<g id="a_node4"><a xlink:href="texture__egl_8h.html" target="_top" xlink:title=" ">
<polygon fill="white" stroke="#666666" points="569.5,-134.5 439.5,-134.5 439.5,-93.5 569.5,-93.5 569.5,-134.5"/>
<text text-anchor="start" x="447.5" y="-122.5" font-family="Helvetica,sans-Serif" font-size="10.00">/mnt/raid10/stargate</text>
<text text-anchor="start" x="447.5" y="-111.5" font-family="Helvetica,sans-Serif" font-size="10.00">/ivi&#45;homescreen/shell</text>
<text text-anchor="middle" x="504.5" y="-100.5" font-family="Helvetica,sans-Serif" font-size="10.00">/textures/egl/texture_egl.h</text>
</a>
</g>
</g>
<!-- Node1&#45;&gt;Node4 -->
<g id="edge3" class="edge">
<title>Node1&#45;&gt;Node4</title>
<path fill="none" stroke="#63b8ff" d="M504.5,-165.37C504.5,-155.1 504.5,-143.9 504.5,-134.67"/>
<polygon fill="#63b8ff" stroke="#63b8ff" points="501,-165.6 504.5,-175.6 508,-165.6 501,-165.6"/>
</g>
<!-- Node7 -->
<g id="node7" class="node">
<title>Node7</title>
<g id="a_node7"><a xlink:href="texture__navi__render__egl_8h.html" target="_top" xlink:title=" ">
<polygon fill="white" stroke="#666666" points="421,-140 272,-140 272,-88 421,-88 421,-140"/>
<text text-anchor="start" x="280" y="-128" font-family="Helvetica,sans-Serif" font-size="10.00">/mnt/raid10/stargate</text>
<text text-anchor="start" x="280" y="-117" font-family="Helvetica,sans-Serif" font-size="10.00">/ivi&#45;homescreen/shell</text>
<text text-anchor="start" x="280" y="-106" font-family="Helvetica,sans-Serif" font-size="10.00">/textures/navi_render</text>
<text text-anchor="middle" x="346.5" y="-95" font-family="Helvetica,sans-Serif" font-size="10.00">_egl/texture_navi_render_egl.h</text>
</a>
</g>
</g>
<!-- Node1&#45;&gt;Node7 -->
<g id="edge6" class="edge">
<title>Node1&#45;&gt;Node7</title>
<path fill="none" stroke="#63b8ff" d="M456.92,-171.26C437.61,-161.42 415.3,-150.06 395.82,-140.13"/>
<polygon fill="#63b8ff" stroke="#63b8ff" points="455.35,-174.39 465.85,-175.81 458.53,-168.15 455.35,-174.39"/>
</g>
<!-- Node9 -->
<g id="node9" class="node">
<title>Node9</title>
<g id="a_node9"><a xlink:href="texture__test__egl_8cc.html" target="_top" xlink:title=" ">
<polygon fill="white" stroke="#666666" points="823,-52 698,-52 698,0 823,0 823,-52"/>
<text text-anchor="start" x="706" y="-40" font-family="Helvetica,sans-Serif" font-size="10.00">/mnt/raid10/stargate</text>
<text text-anchor="start" x="706" y="-29" font-family="Helvetica,sans-Serif" font-size="10.00">/ivi&#45;homescreen/shell</text>
<text text-anchor="start" x="706" y="-18" font-family="Helvetica,sans-Serif" font-size="10.00">/textures/test_egl/texture</text>
<text text-anchor="middle" x="760.5" y="-7" font-family="Helvetica,sans-Serif" font-size="10.00">_test_egl.cc</text>
</a>
</g>
</g>
<!-- Node1&#45;&gt;Node9 -->
<g id="edge8" class="edge">
<title>Node1&#45;&gt;Node9</title>
<path fill="none" stroke="#63b8ff" d="M569.64,-194.67C617.27,-190.66 680.47,-177.8 721.5,-140 746.23,-117.22 755.28,-78.02 758.59,-52.3"/>
<polygon fill="#63b8ff" stroke="#63b8ff" points="569.14,-191.2 559.42,-195.41 569.65,-198.18 569.14,-191.2"/>
</g>
<!-- Node10 -->
<g id="node10" class="node">
<title>Node10</title>
<g id="a_node10"><a xlink:href="texture__test__egl_8h.html" target="_top" xlink:title=" ">
<polygon fill="white" stroke="#666666" points="713,-140 588,-140 588,-88 713,-88 713,-140"/>
<text text-anchor="start" x="596" y="-128" font-family="Helvetica,sans-Serif" font-size="10.00">/mnt/raid10/stargate</text>
<text text-anchor="start" x="596" y="-117" font-family="Helvetica,sans-Serif" font-size="10.00">/ivi&#45;homescreen/shell</text>
<text text-anchor="start" x="596" y="-106" font-family="Helvetica,sans-Serif" font-size="10.00">/textures/test_egl/texture</text>
<text text-anchor="middle" x="650.5" y="-95" font-family="Helvetica,sans-Serif" font-size="10.00">_test_egl.h</text>
</a>
</g>
</g>
<!-- Node1&#45;&gt;Node10 -->
<g id="edge9" class="edge">
<title>Node1&#45;&gt;Node10</title>
<path fill="none" stroke="#63b8ff" d="M549.19,-170.86C566.87,-161.11 587.17,-149.92 604.93,-140.13"/>
<polygon fill="#63b8ff" stroke="#63b8ff" points="547.28,-167.91 540.22,-175.81 550.66,-174.04 547.28,-167.91"/>
</g>
<!-- Node11 -->
<g id="node11" class="node">
<title>Node11</title>
<g id="a_node11"><a xlink:href="texture_8cc.html" target="_top" xlink:title=" ">
<polygon fill="white" stroke="#666666" points="879,-134.5 770,-134.5 770,-93.5 879,-93.5 879,-134.5"/>
<text text-anchor="start" x="778" y="-122.5" font-family="Helvetica,sans-Serif" font-size="10.00">/mnt/raid10/stargate</text>
<text text-anchor="start" x="778" y="-111.5" font-family="Helvetica,sans-Serif" font-size="10.00">/ivi&#45;homescreen/shell</text>
<text text-anchor="middle" x="824.5" y="-100.5" font-family="Helvetica,sans-Serif" font-size="10.00">/textures/texture.cc</text>
</a>
</g>
</g>
<!-- Node1&#45;&gt;Node11 -->
<g id="edge12" class="edge">
<title>Node1&#45;&gt;Node11</title>
<path fill="none" stroke="#63b8ff" d="M569.27,-183.58C620.3,-173.62 693.02,-158.14 755.5,-140 761.13,-138.37 766.96,-136.51 772.75,-134.57"/>
<polygon fill="#63b8ff" stroke="#63b8ff" points="568.52,-180.17 559.36,-185.5 569.85,-187.04 568.52,-180.17"/>
</g>
<!-- Node5 -->
<g id="node5" class="node">
<title>Node5</title>
<g id="a_node5"><a xlink:href="opengl__texture_8cc.html" target="_top" xlink:title=" ">
<polygon fill="white" stroke="#666666" points="552.5,-52 420.5,-52 420.5,0 552.5,0 552.5,-52"/>
<text text-anchor="start" x="428.5" y="-40" font-family="Helvetica,sans-Serif" font-size="10.00">/mnt/raid10/stargate</text>
<text text-anchor="start" x="428.5" y="-29" font-family="Helvetica,sans-Serif" font-size="10.00">/ivi&#45;homescreen/shell</text>
<text text-anchor="start" x="428.5" y="-18" font-family="Helvetica,sans-Serif" font-size="10.00">/static_plugins/opengl</text>
<text text-anchor="middle" x="486.5" y="-7" font-family="Helvetica,sans-Serif" font-size="10.00">_texture/opengl_texture.cc</text>
</a>
</g>
</g>
<!-- Node4&#45;&gt;Node5 -->
<g id="edge4" class="edge">
<title>Node4&#45;&gt;Node5</title>
<path fill="none" stroke="#63b8ff" d="M498.31,-83.44C496.19,-73.31 493.84,-62.08 491.8,-52.32"/>
<polygon fill="#63b8ff" stroke="#63b8ff" points="494.94,-84.41 500.42,-93.49 501.79,-82.98 494.94,-84.41"/>
</g>
<!-- Node6 -->
<g id="node6" class="node">
<title>Node6</title>
<g id="a_node6"><a xlink:href="texture__egl_8cc.html" target="_top" xlink:title=" ">
<polygon fill="white" stroke="#666666" points="680,-52 571,-52 571,0 680,0 680,-52"/>
<text text-anchor="start" x="579" y="-40" font-family="Helvetica,sans-Serif" font-size="10.00">/mnt/raid10/stargate</text>
<text text-anchor="start" x="579" y="-29" font-family="Helvetica,sans-Serif" font-size="10.00">/ivi&#45;homescreen/shell</text>
<text text-anchor="start" x="579" y="-18" font-family="Helvetica,sans-Serif" font-size="10.00">/textures/egl/texture</text>
<text text-anchor="middle" x="625.5" y="-7" font-family="Helvetica,sans-Serif" font-size="10.00">_egl.cc</text>
</a>
</g>
</g>
<!-- Node4&#45;&gt;Node6 -->
<g id="edge5" class="edge">
<title>Node4&#45;&gt;Node6</title>
<path fill="none" stroke="#63b8ff" d="M540.34,-87.53C555.98,-76.41 574.27,-63.41 589.88,-52.32"/>
<polygon fill="#63b8ff" stroke="#63b8ff" points="538.08,-84.84 531.96,-93.49 542.14,-90.54 538.08,-84.84"/>
</g>
<!-- Node8 -->
<g id="node8" class="node">
<title>Node8</title>
<g id="a_node8"><a xlink:href="texture__navi__render__egl_8cc.html" target="_top" xlink:title=" ">
<polygon fill="white" stroke="#666666" points="402,-52 247,-52 247,0 402,0 402,-52"/>
<text text-anchor="start" x="255" y="-40" font-family="Helvetica,sans-Serif" font-size="10.00">/mnt/raid10/stargate</text>
<text text-anchor="start" x="255" y="-29" font-family="Helvetica,sans-Serif" font-size="10.00">/ivi&#45;homescreen/shell</text>
<text text-anchor="start" x="255" y="-18" font-family="Helvetica,sans-Serif" font-size="10.00">/textures/navi_render</text>
<text text-anchor="middle" x="324.5" y="-7" font-family="Helvetica,sans-Serif" font-size="10.00">_egl/texture_navi_render_egl.cc</text>
</a>
</g>
</g>
<!-- Node7&#45;&gt;Node8 -->
<g id="edge7" class="edge">
<title>Node7&#45;&gt;Node8</title>
<path fill="none" stroke="#63b8ff" d="M337.51,-77.84C335.3,-69.23 332.99,-60.19 330.94,-52.16"/>
<polygon fill="#63b8ff" stroke="#63b8ff" points="334.15,-78.84 340.02,-87.66 340.93,-77.11 334.15,-78.84"/>
</g>
<!-- Node10&#45;&gt;Node6 -->
<g id="edge10" class="edge">
<title>Node10&#45;&gt;Node6</title>
<path fill="none" stroke="#63b8ff" d="M640.28,-77.84C637.78,-69.23 635.15,-60.19 632.81,-52.16"/>
<polygon fill="#63b8ff" stroke="#63b8ff" points="636.98,-79.04 643.13,-87.66 643.7,-77.08 636.98,-79.04"/>
</g>
<!-- Node10&#45;&gt;Node9 -->
<g id="edge11" class="edge">
<title>Node10&#45;&gt;Node9</title>
<path fill="none" stroke="#63b8ff" d="M690.55,-81.69C702.92,-72.02 716.38,-61.49 728.16,-52.29"/>
<polygon fill="#63b8ff" stroke="#63b8ff" points="688.33,-78.98 682.61,-87.89 692.65,-84.49 688.33,-78.98"/>
</g>
</g>
</svg>
