<?xml version="1.0" encoding="UTF-8" standalone="no"?>
<!DOCTYPE svg PUBLIC "-//W3C//DTD SVG 1.1//EN"
 "http://www.w3.org/Graphics/SVG/1.1/DTD/svg11.dtd">
<!-- Generated by graphviz version 5.0.0 (0)
 -->
<!-- Title: /mnt/raid10/stargate/ivi&#45;homescreen/shell/static_plugins/text_input/text_input.h Pages: 1 -->
<svg width="1466pt" height="192pt"
 viewBox="0.00 0.00 1465.50 192.00" xmlns="http://www.w3.org/2000/svg" xmlns:xlink="http://www.w3.org/1999/xlink">
<g id="graph0" class="graph" transform="scale(1 1) rotate(0) translate(4 188)">
<title>/mnt/raid10/stargate/ivi&#45;homescreen/shell/static_plugins/text_input/text_input.h</title>
<!-- Node1 -->
<g id="node1" class="node">
<title>Node1</title>
<g id="a_node1"><a xlink:title=" ">
<polygon fill="#999999" stroke="#666666" points="713,-184 588,-184 588,-132 713,-132 713,-184"/>
<text text-anchor="start" x="596" y="-172" font-family="Helvetica,sans-Serif" font-size="10.00">/mnt/raid10/stargate</text>
<text text-anchor="start" x="596" y="-161" font-family="Helvetica,sans-Serif" font-size="10.00">/ivi&#45;homescreen/shell</text>
<text text-anchor="start" x="596" y="-150" font-family="Helvetica,sans-Serif" font-size="10.00">/static_plugins/text_input</text>
<text text-anchor="middle" x="650.5" y="-139" font-family="Helvetica,sans-Serif" font-size="10.00">/text_input.h</text>
</a>
</g>
</g>
<!-- Node2 -->
<g id="node2" class="node">
<title>Node2</title>
<g id="a_node2"><a xlink:title=" ">
<polygon fill="#e0e0e0" stroke="#999999" points="35,-90.5 0,-90.5 0,-71.5 35,-71.5 35,-90.5"/>
<text text-anchor="middle" x="17.5" y="-78.5" font-family="Helvetica,sans-Serif" font-size="10.00">map</text>
</a>
</g>
</g>
<!-- Node1&#45;&gt;Node2 -->
<g id="edge1" class="edge">
<title>Node1&#45;&gt;Node2</title>
<path fill="none" stroke="#63b8ff" d="M587.99,-153.7C454.42,-146.15 145.15,-125.96 44.5,-96 43.28,-95.64 42.04,-95.22 40.81,-94.75"/>
<polygon fill="#63b8ff" stroke="#63b8ff" points="42.2,-91.54 31.65,-90.61 39.32,-97.92 42.2,-91.54"/>
</g>
<!-- Node3 -->
<g id="node3" class="node">
<title>Node3</title>
<g id="a_node3"><a xlink:title=" ">
<polygon fill="#e0e0e0" stroke="#999999" points="105.5,-90.5 53.5,-90.5 53.5,-71.5 105.5,-71.5 105.5,-90.5"/>
<text text-anchor="middle" x="79.5" y="-78.5" font-family="Helvetica,sans-Serif" font-size="10.00">memory</text>
</a>
</g>
</g>
<!-- Node1&#45;&gt;Node3 -->
<g id="edge2" class="edge">
<title>Node1&#45;&gt;Node3</title>
<path fill="none" stroke="#63b8ff" d="M587.63,-155.27C486.5,-151.28 282.06,-138.23 114.5,-96 112.2,-95.42 109.84,-94.72 107.5,-93.95"/>
<polygon fill="#63b8ff" stroke="#63b8ff" points="108.68,-90.66 98.08,-90.5 106.27,-97.23 108.68,-90.66"/>
</g>
<!-- Node4 -->
<g id="node4" class="node">
<title>Node4</title>
<g id="a_node4"><a xlink:title=" ">
<polygon fill="#e0e0e0" stroke="#999999" points="165,-90.5 124,-90.5 124,-71.5 165,-71.5 165,-90.5"/>
<text text-anchor="middle" x="144.5" y="-78.5" font-family="Helvetica,sans-Serif" font-size="10.00">string</text>
</a>
</g>
</g>
<!-- Node1&#45;&gt;Node4 -->
<g id="edge3" class="edge">
<title>Node1&#45;&gt;Node4</title>
<path fill="none" stroke="#63b8ff" d="M587.64,-155.1C495.35,-150.94 318.54,-137.74 174.5,-96 172.87,-95.53 171.21,-94.98 169.56,-94.37"/>
<polygon fill="#63b8ff" stroke="#63b8ff" points="170.91,-91.14 160.34,-90.5 168.2,-97.6 170.91,-91.14"/>
</g>
<!-- Node5 -->
<g id="node5" class="node">
<title>Node5</title>
<g id="a_node5"><a xlink:title=" ">
<polygon fill="#e0e0e0" stroke="#999999" points="315.5,-90.5 183.5,-90.5 183.5,-71.5 315.5,-71.5 315.5,-90.5"/>
<text text-anchor="middle" x="249.5" y="-78.5" font-family="Helvetica,sans-Serif" font-size="10.00">flutter/binary_messenger.h</text>
</a>
</g>
</g>
<!-- Node1&#45;&gt;Node5 -->
<g id="edge4" class="edge">
<title>Node1&#45;&gt;Node5</title>
<path fill="none" stroke="#63b8ff" d="M587.84,-145.28C510.32,-130.78 379.5,-106.31 305.29,-92.43"/>
<polygon fill="#63b8ff" stroke="#63b8ff" points="305.68,-88.95 295.21,-90.55 304.39,-95.83 305.68,-88.95"/>
</g>
<!-- Node6 -->
<g id="node6" class="node">
<title>Node6</title>
<g id="a_node6"><a xlink:title=" ">
<polygon fill="#e0e0e0" stroke="#999999" points="457.5,-90.5 333.5,-90.5 333.5,-71.5 457.5,-71.5 457.5,-90.5"/>
<text text-anchor="middle" x="395.5" y="-78.5" font-family="Helvetica,sans-Serif" font-size="10.00">flutter/method_channel.h</text>
</a>
</g>
</g>
<!-- Node1&#45;&gt;Node6 -->
<g id="edge5" class="edge">
<title>Node1&#45;&gt;Node6</title>
<path fill="none" stroke="#63b8ff" d="M587.79,-138.56C539.8,-124.44 475.14,-105.42 434.38,-93.43"/>
<polygon fill="#63b8ff" stroke="#63b8ff" points="435.14,-90.01 424.56,-90.55 433.16,-96.73 435.14,-90.01"/>
</g>
<!-- Node7 -->
<g id="node7" class="node">
<title>Node7</title>
<g id="a_node7"><a xlink:title=" ">
<polygon fill="#e0e0e0" stroke="#999999" points="581.5,-96 475.5,-96 475.5,-66 581.5,-66 581.5,-96"/>
<text text-anchor="start" x="483.5" y="-84" font-family="Helvetica,sans-Serif" font-size="10.00">flutter/method_result</text>
<text text-anchor="middle" x="528.5" y="-73" font-family="Helvetica,sans-Serif" font-size="10.00">_functions.h</text>
</a>
</g>
</g>
<!-- Node1&#45;&gt;Node7 -->
<g id="edge6" class="edge">
<title>Node1&#45;&gt;Node7</title>
<path fill="none" stroke="#63b8ff" d="M609.54,-131.82C593.49,-121.95 575.35,-110.8 560.31,-101.56"/>
<polygon fill="#63b8ff" stroke="#63b8ff" points="561.75,-98.33 551.4,-96.08 558.08,-104.3 561.75,-98.33"/>
</g>
<!-- Node8 -->
<g id="node8" class="node">
<title>Node8</title>
<g id="a_node8"><a xlink:title=" ">
<polygon fill="#e0e0e0" stroke="#999999" points="701,-90.5 600,-90.5 600,-71.5 701,-71.5 701,-90.5"/>
<text text-anchor="middle" x="650.5" y="-78.5" font-family="Helvetica,sans-Serif" font-size="10.00">flutter/fml/macros.h</text>
</a>
</g>
</g>
<!-- Node1&#45;&gt;Node8 -->
<g id="edge7" class="edge">
<title>Node1&#45;&gt;Node8</title>
<path fill="none" stroke="#63b8ff" d="M650.5,-131.61C650.5,-121.58 650.5,-110.25 650.5,-100.96"/>
<polygon fill="#63b8ff" stroke="#63b8ff" points="654,-100.85 650.5,-90.85 647,-100.85 654,-100.85"/>
</g>
<!-- Node9 -->
<g id="node9" class="node">
<title>Node9</title>
<g id="a_node9"><a xlink:title=" ">
<polygon fill="#e0e0e0" stroke="#999999" points="874,-96 719,-96 719,-66 874,-66 874,-96"/>
<text text-anchor="start" x="727" y="-84" font-family="Helvetica,sans-Serif" font-size="10.00">flutter/shell/platform</text>
<text text-anchor="middle" x="796.5" y="-73" font-family="Helvetica,sans-Serif" font-size="10.00">/common/json_method_codec.h</text>
</a>
</g>
</g>
<!-- Node1&#45;&gt;Node9 -->
<g id="edge8" class="edge">
<title>Node1&#45;&gt;Node9</title>
<path fill="none" stroke="#63b8ff" d="M699.52,-131.82C719.37,-121.62 741.87,-110.06 760.2,-100.65"/>
<polygon fill="#63b8ff" stroke="#63b8ff" points="761.8,-103.76 769.1,-96.08 758.6,-97.53 761.8,-103.76"/>
</g>
<!-- Node10 -->
<g id="node10" class="node">
<title>Node10</title>
<g id="a_node10"><a xlink:title=" ">
<polygon fill="#e0e0e0" stroke="#999999" points="1035,-96 892,-96 892,-66 1035,-66 1035,-96"/>
<text text-anchor="start" x="900" y="-84" font-family="Helvetica,sans-Serif" font-size="10.00">flutter/shell/platform</text>
<text text-anchor="middle" x="963.5" y="-73" font-family="Helvetica,sans-Serif" font-size="10.00">/common/text_input_model.h</text>
</a>
</g>
</g>
<!-- Node1&#45;&gt;Node10 -->
<g id="edge9" class="edge">
<title>Node1&#45;&gt;Node10</title>
<path fill="none" stroke="#63b8ff" d="M713.09,-142C765.74,-129.39 840.9,-111.38 895.12,-98.39"/>
<polygon fill="#63b8ff" stroke="#63b8ff" points="896.08,-101.75 904.99,-96.02 894.45,-94.95 896.08,-101.75"/>
</g>
<!-- Node11 -->
<g id="node11" class="node">
<title>Node11</title>
<g id="a_node11"><a xlink:title=" ">
<polygon fill="#e0e0e0" stroke="#999999" points="1163.5,-90.5 1053.5,-90.5 1053.5,-71.5 1163.5,-71.5 1163.5,-90.5"/>
<text text-anchor="middle" x="1108.5" y="-78.5" font-family="Helvetica,sans-Serif" font-size="10.00">rapidjson/document.h</text>
</a>
</g>
</g>
<!-- Node1&#45;&gt;Node11 -->
<g id="edge10" class="edge">
<title>Node1&#45;&gt;Node11</title>
<path fill="none" stroke="#63b8ff" d="M713.31,-148.4C791.06,-137.49 927.4,-117.49 1043.5,-96 1049.03,-94.98 1054.82,-93.83 1060.55,-92.66"/>
<polygon fill="#63b8ff" stroke="#63b8ff" points="1061.7,-95.99 1070.77,-90.52 1060.26,-89.14 1061.7,-95.99"/>
</g>
<!-- Node12 -->
<g id="node12" class="node">
<title>Node12</title>
<g id="a_node12"><a xlink:title=" ">
<polygon fill="#e0e0e0" stroke="#999999" points="1304,-30 1183,-30 1183,0 1304,0 1304,-30"/>
<text text-anchor="start" x="1191" y="-18" font-family="Helvetica,sans-Serif" font-size="10.00">shell/platform/embedder</text>
<text text-anchor="middle" x="1243.5" y="-7" font-family="Helvetica,sans-Serif" font-size="10.00">/embedder.h</text>
</a>
</g>
</g>
<!-- Node1&#45;&gt;Node12 -->
<g id="edge11" class="edge">
<title>Node1&#45;&gt;Node12</title>
<path fill="none" stroke="#63b8ff" d="M713.25,-155.22C834.04,-150.89 1093.92,-136.97 1172.5,-96 1197.4,-83.01 1217.66,-57.45 1230.08,-38.7"/>
<polygon fill="#63b8ff" stroke="#63b8ff" points="1233.11,-40.44 1235.52,-30.13 1227.21,-36.69 1233.11,-40.44"/>
</g>
<!-- Node13 -->
<g id="node13" class="node">
<title>Node13</title>
<g id="a_node13"><a xlink:title=" ">
<polygon fill="#e0e0e0" stroke="#999999" points="1353.5,-90.5 1219.5,-90.5 1219.5,-71.5 1353.5,-71.5 1353.5,-90.5"/>
<text text-anchor="middle" x="1286.5" y="-78.5" font-family="Helvetica,sans-Serif" font-size="10.00">xkbcommon/xkbcommon.h</text>
</a>
</g>
</g>
<!-- Node1&#45;&gt;Node13 -->
<g id="edge12" class="edge">
<title>Node1&#45;&gt;Node13</title>
<path fill="none" stroke="#63b8ff" d="M713.08,-151.39C816.03,-141.88 1027.45,-121.15 1205.5,-96 1213.44,-94.88 1221.79,-93.58 1229.99,-92.23"/>
<polygon fill="#63b8ff" stroke="#63b8ff" points="1230.61,-95.67 1239.89,-90.56 1229.45,-88.77 1230.61,-95.67"/>
</g>
<!-- Node14 -->
<g id="node14" class="node">
<title>Node14</title>
<g id="a_node14"><a xlink:href="constants_8h.html" target="_top" xlink:title=" ">
<polygon fill="white" stroke="#666666" points="1439.5,-90.5 1371.5,-90.5 1371.5,-71.5 1439.5,-71.5 1439.5,-90.5"/>
<text text-anchor="middle" x="1405.5" y="-78.5" font-family="Helvetica,sans-Serif" font-size="10.00">constants.h</text>
</a>
</g>
</g>
<!-- Node1&#45;&gt;Node14 -->
<g id="edge13" class="edge">
<title>Node1&#45;&gt;Node14</title>
<path fill="none" stroke="#63b8ff" d="M713.09,-156.43C837.88,-154.26 1126.01,-143.97 1362.5,-96 1365.91,-95.31 1369.43,-94.44 1372.92,-93.47"/>
<polygon fill="#63b8ff" stroke="#63b8ff" points="1374,-96.8 1382.55,-90.55 1371.97,-90.1 1374,-96.8"/>
</g>
<!-- Node14&#45;&gt;Node12 -->
<g id="edge15" class="edge">
<title>Node14&#45;&gt;Node12</title>
<path fill="none" stroke="#63b8ff" d="M1383.65,-71.37C1359.39,-61.78 1319.56,-46.05 1288.54,-33.8"/>
<polygon fill="#63b8ff" stroke="#63b8ff" points="1289.82,-30.53 1279.23,-30.12 1287.24,-37.05 1289.82,-30.53"/>
</g>
<!-- Node15 -->
<g id="node15" class="node">
<title>Node15</title>
<g id="a_node15"><a xlink:title=" ">
<polygon fill="#e0e0e0" stroke="#999999" points="1401.5,-24.5 1341.5,-24.5 1341.5,-5.5 1401.5,-5.5 1401.5,-24.5"/>
<text text-anchor="middle" x="1371.5" y="-12.5" font-family="Helvetica,sans-Serif" font-size="10.00">EGL/egl.h</text>
</a>
</g>
</g>
<!-- Node14&#45;&gt;Node15 -->
<g id="edge14" class="edge">
<title>Node14&#45;&gt;Node15</title>
<path fill="none" stroke="#63b8ff" d="M1400.91,-71.37C1395.82,-61.78 1387.46,-46.05 1380.96,-33.8"/>
<polygon fill="#63b8ff" stroke="#63b8ff" points="1384.01,-32.09 1376.23,-24.91 1377.83,-35.38 1384.01,-32.09"/>
</g>
<!-- Node16 -->
<g id="node16" class="node">
<title>Node16</title>
<g id="a_node16"><a xlink:title=" ">
<polygon fill="#e0e0e0" stroke="#999999" points="1457.5,-24.5 1419.5,-24.5 1419.5,-5.5 1457.5,-5.5 1457.5,-24.5"/>
<text text-anchor="middle" x="1438.5" y="-12.5" font-family="Helvetica,sans-Serif" font-size="10.00">array</text>
</a>
</g>
</g>
<!-- Node14&#45;&gt;Node16 -->
<g id="edge16" class="edge">
<title>Node14&#45;&gt;Node16</title>
<path fill="none" stroke="#63b8ff" d="M1409.95,-71.37C1414.89,-61.78 1423.01,-46.05 1429.32,-33.8"/>
<polygon fill="#63b8ff" stroke="#63b8ff" points="1432.44,-35.4 1433.91,-24.91 1426.21,-32.19 1432.44,-35.4"/>
</g>
</g>
</svg>
