<?xml version="1.0" encoding="UTF-8" standalone="no"?>
<!DOCTYPE svg PUBLIC "-//W3C//DTD SVG 1.1//EN"
 "http://www.w3.org/Graphics/SVG/1.1/DTD/svg11.dtd">
<!-- Generated by graphviz version 5.0.0 (0)
 -->
<!-- Title: /mnt/raid10/stargate/ivi&#45;homescreen/shell/textures/texture.cc Pages: 1 -->
<svg width="3272pt" height="412pt"
 viewBox="0.00 0.00 3272.04 412.00" xmlns="http://www.w3.org/2000/svg" xmlns:xlink="http://www.w3.org/1999/xlink">
<g id="graph0" class="graph" transform="scale(1 1) rotate(0) translate(4 408)">
<title>/mnt/raid10/stargate/ivi&#45;homescreen/shell/textures/texture.cc</title>
<!-- Node1 -->
<g id="node1" class="node">
<title>Node1</title>
<g id="a_node1"><a xlink:title=" ">
<polygon fill="#999999" stroke="#666666" points="812.5,-404 703.5,-404 703.5,-363 812.5,-363 812.5,-404"/>
<text text-anchor="start" x="711.5" y="-392" font-family="Helvetica,sans-Serif" font-size="10.00">/mnt/raid10/stargate</text>
<text text-anchor="start" x="711.5" y="-381" font-family="Helvetica,sans-Serif" font-size="10.00">/ivi&#45;homescreen/shell</text>
<text text-anchor="middle" x="758" y="-370" font-family="Helvetica,sans-Serif" font-size="10.00">/textures/texture.cc</text>
</a>
</g>
</g>
<!-- Node2 -->
<g id="node2" class="node">
<title>Node2</title>
<g id="a_node2"><a xlink:href="texture_8h.html" target="_top" xlink:title=" ">
<polygon fill="white" stroke="#666666" points="285.5,-211.5 230.5,-211.5 230.5,-192.5 285.5,-192.5 285.5,-211.5"/>
<text text-anchor="middle" x="258" y="-199.5" font-family="Helvetica,sans-Serif" font-size="10.00">texture.h</text>
</a>
</g>
</g>
<!-- Node1&#45;&gt;Node2 -->
<g id="edge1" class="edge">
<title>Node1&#45;&gt;Node2</title>
<path fill="none" stroke="#63b8ff" d="M703.46,-372.54C656.1,-363.15 586.04,-347.48 527,-327 433.79,-294.67 329.21,-241.15 282.65,-216.37"/>
<polygon fill="#63b8ff" stroke="#63b8ff" points="284.09,-213.17 273.62,-211.53 280.78,-219.34 284.09,-213.17"/>
</g>
<!-- Node12 -->
<g id="node12" class="node">
<title>Node12</title>
<g id="a_node12"><a xlink:title=" ">
<polygon fill="#e0e0e0" stroke="#999999" points="617.5,-145.5 568.5,-145.5 568.5,-126.5 617.5,-126.5 617.5,-145.5"/>
<text text-anchor="middle" x="593" y="-133.5" font-family="Helvetica,sans-Serif" font-size="10.00">cassert</text>
</a>
</g>
</g>
<!-- Node1&#45;&gt;Node12 -->
<g id="edge13" class="edge">
<title>Node1&#45;&gt;Node12</title>
<path fill="none" stroke="#63b8ff" d="M709.05,-363C671.75,-345.28 622.86,-315.27 599,-272 578.58,-234.97 583.94,-183.16 588.9,-155.74"/>
<polygon fill="#63b8ff" stroke="#63b8ff" points="592.4,-156.09 590.93,-145.59 585.54,-154.72 592.4,-156.09"/>
</g>
<!-- Node13 -->
<g id="node13" class="node">
<title>Node13</title>
<g id="a_node13"><a xlink:href="engine_8h.html" target="_top" xlink:title=" ">
<polygon fill="white" stroke="#666666" points="1001.5,-327 948.5,-327 948.5,-308 1001.5,-308 1001.5,-327"/>
<text text-anchor="middle" x="975" y="-315" font-family="Helvetica,sans-Serif" font-size="10.00">engine.h</text>
</a>
</g>
</g>
<!-- Node1&#45;&gt;Node13 -->
<g id="edge14" class="edge">
<title>Node1&#45;&gt;Node13</title>
<path fill="none" stroke="#63b8ff" d="M812.76,-366.35C852.18,-354.72 904.27,-339.36 938.67,-329.22"/>
<polygon fill="#63b8ff" stroke="#63b8ff" points="939.7,-332.56 948.3,-326.37 937.72,-325.85 939.7,-332.56"/>
</g>
<!-- Node21 -->
<g id="node21" class="node">
<title>Node21</title>
<g id="a_node21"><a xlink:href="logging_8h.html" target="_top" xlink:title=" ">
<polygon fill="white" stroke="#666666" points="3083,-272 3027,-272 3027,-253 3083,-253 3083,-272"/>
<text text-anchor="middle" x="3055" y="-260" font-family="Helvetica,sans-Serif" font-size="10.00">logging.h</text>
</a>
</g>
</g>
<!-- Node1&#45;&gt;Node21 -->
<g id="edge88" class="edge">
<title>Node1&#45;&gt;Node21</title>
<path fill="none" stroke="#63b8ff" d="M812.51,-379.68C1131.13,-363.17 2747.56,-279.43 3016.92,-265.47"/>
<polygon fill="#63b8ff" stroke="#63b8ff" points="3017.18,-268.96 3026.99,-264.95 3016.82,-261.97 3017.18,-268.96"/>
</g>
<!-- Node3 -->
<g id="node3" class="node">
<title>Node3</title>
<g id="a_node3"><a xlink:title=" ">
<polygon fill="#e0e0e0" stroke="#999999" points="688,-145.5 636,-145.5 636,-126.5 688,-126.5 688,-145.5"/>
<text text-anchor="middle" x="662" y="-133.5" font-family="Helvetica,sans-Serif" font-size="10.00">memory</text>
</a>
</g>
</g>
<!-- Node2&#45;&gt;Node3 -->
<g id="edge2" class="edge">
<title>Node2&#45;&gt;Node3</title>
<path fill="none" stroke="#63b8ff" d="M285.76,-199.57C347.85,-195.87 502.28,-183.86 627,-151 629.16,-150.43 631.37,-149.77 633.57,-149.04"/>
<polygon fill="#63b8ff" stroke="#63b8ff" points="634.85,-152.3 643.03,-145.57 632.44,-145.72 634.85,-152.3"/>
</g>
<!-- Node4 -->
<g id="node4" class="node">
<title>Node4</title>
<g id="a_node4"><a xlink:title=" ">
<polygon fill="#e0e0e0" stroke="#999999" points="512,-145.5 468,-145.5 468,-126.5 512,-126.5 512,-145.5"/>
<text text-anchor="middle" x="490" y="-133.5" font-family="Helvetica,sans-Serif" font-size="10.00">vector</text>
</a>
</g>
</g>
<!-- Node2&#45;&gt;Node4 -->
<g id="edge3" class="edge">
<title>Node2&#45;&gt;Node4</title>
<path fill="none" stroke="#63b8ff" d="M285.77,-195.75C324.98,-187.96 398.53,-171.98 459,-151 460.39,-150.52 461.81,-149.99 463.24,-149.44"/>
<polygon fill="#63b8ff" stroke="#63b8ff" points="464.65,-152.65 472.52,-145.56 461.94,-146.19 464.65,-152.65"/>
</g>
<!-- Node5 -->
<g id="node5" class="node">
<title>Node5</title>
<g id="a_node5"><a xlink:title=" ">
<polygon fill="#e0e0e0" stroke="#999999" points="250,-24.5 190,-24.5 190,-5.5 250,-5.5 250,-24.5"/>
<text text-anchor="middle" x="220" y="-12.5" font-family="Helvetica,sans-Serif" font-size="10.00">EGL/egl.h</text>
</a>
</g>
</g>
<!-- Node2&#45;&gt;Node5 -->
<g id="edge4" class="edge">
<title>Node2&#45;&gt;Node5</title>
<path fill="none" stroke="#63b8ff" d="M255.26,-192.21C252.23,-182.28 247.33,-165.59 244,-151 234.58,-109.76 226.68,-60.72 222.72,-34.59"/>
<polygon fill="#63b8ff" stroke="#63b8ff" points="226.17,-33.96 221.23,-24.59 219.24,-34.99 226.17,-33.96"/>
</g>
<!-- Node6 -->
<g id="node6" class="node">
<title>Node6</title>
<g id="a_node6"><a xlink:title=" ">
<polygon fill="#e0e0e0" stroke="#999999" points="192,-145.5 118,-145.5 118,-126.5 192,-126.5 192,-145.5"/>
<text text-anchor="middle" x="155" y="-133.5" font-family="Helvetica,sans-Serif" font-size="10.00">EGL/eglext.h</text>
</a>
</g>
</g>
<!-- Node2&#45;&gt;Node6 -->
<g id="edge5" class="edge">
<title>Node2&#45;&gt;Node6</title>
<path fill="none" stroke="#63b8ff" d="M244.11,-192.37C227.06,-181.78 197.93,-163.67 177.63,-151.06"/>
<polygon fill="#63b8ff" stroke="#63b8ff" points="179.34,-148 169,-145.7 175.65,-153.95 179.34,-148"/>
</g>
<!-- Node7 -->
<g id="node7" class="node">
<title>Node7</title>
<g id="a_node7"><a xlink:title=" ">
<polygon fill="#e0e0e0" stroke="#999999" points="100,-145.5 28,-145.5 28,-126.5 100,-126.5 100,-145.5"/>
<text text-anchor="middle" x="64" y="-133.5" font-family="Helvetica,sans-Serif" font-size="10.00">GLES2/gl2.h</text>
</a>
</g>
</g>
<!-- Node2&#45;&gt;Node7 -->
<g id="edge6" class="edge">
<title>Node2&#45;&gt;Node7</title>
<path fill="none" stroke="#63b8ff" d="M231.84,-192.37C197.75,-181.12 138.01,-161.42 99.76,-148.8"/>
<polygon fill="#63b8ff" stroke="#63b8ff" points="100.65,-145.41 90.06,-145.6 98.46,-152.05 100.65,-145.41"/>
</g>
<!-- Node8 -->
<g id="node8" class="node">
<title>Node8</title>
<g id="a_node8"><a xlink:title=" ">
<polygon fill="#e0e0e0" stroke="#999999" points="449.5,-145.5 324.5,-145.5 324.5,-126.5 449.5,-126.5 449.5,-145.5"/>
<text text-anchor="middle" x="387" y="-133.5" font-family="Helvetica,sans-Serif" font-size="10.00">flutter/encodable_value.h</text>
</a>
</g>
</g>
<!-- Node2&#45;&gt;Node8 -->
<g id="edge7" class="edge">
<title>Node2&#45;&gt;Node8</title>
<path fill="none" stroke="#63b8ff" d="M275.4,-192.37C297.23,-181.54 334.89,-162.85 360.36,-150.22"/>
<polygon fill="#63b8ff" stroke="#63b8ff" points="362.06,-153.28 369.47,-145.7 358.95,-147.01 362.06,-153.28"/>
</g>
<!-- Node9 -->
<g id="node9" class="node">
<title>Node9</title>
<g id="a_node9"><a xlink:title=" ">
<polygon fill="#e0e0e0" stroke="#999999" points="1533.5,-30 1412.5,-30 1412.5,0 1533.5,0 1533.5,-30"/>
<text text-anchor="start" x="1420.5" y="-18" font-family="Helvetica,sans-Serif" font-size="10.00">shell/platform/embedder</text>
<text text-anchor="middle" x="1473" y="-7" font-family="Helvetica,sans-Serif" font-size="10.00">/embedder.h</text>
</a>
</g>
</g>
<!-- Node2&#45;&gt;Node9 -->
<g id="edge8" class="edge">
<title>Node2&#45;&gt;Node9</title>
<path fill="none" stroke="#63b8ff" d="M257.58,-192.33C257.31,-175.57 259.35,-138.82 281,-121 371.33,-46.65 1213.5,-40.76 1330,-30 1353.58,-27.82 1379.35,-25.33 1402.43,-23.07"/>
<polygon fill="#63b8ff" stroke="#63b8ff" points="1402.87,-26.54 1412.48,-22.07 1402.18,-19.57 1402.87,-26.54"/>
</g>
<!-- Node10 -->
<g id="node10" class="node">
<title>Node10</title>
<g id="a_node10"><a xlink:href="constants_8h.html" target="_top" xlink:title=" ">
<polygon fill="white" stroke="#666666" points="1336,-85 1268,-85 1268,-66 1336,-66 1336,-85"/>
<text text-anchor="middle" x="1302" y="-73" font-family="Helvetica,sans-Serif" font-size="10.00">constants.h</text>
</a>
</g>
</g>
<!-- Node2&#45;&gt;Node10 -->
<g id="edge9" class="edge">
<title>Node2&#45;&gt;Node10</title>
<path fill="none" stroke="#63b8ff" d="M261.29,-192.24C268.31,-174.98 286.55,-136.87 316,-121 399.52,-75.99 1076.44,-75.55 1257.57,-76.25"/>
<polygon fill="#63b8ff" stroke="#63b8ff" points="1257.78,-79.75 1267.79,-76.3 1257.81,-72.75 1257.78,-79.75"/>
</g>
<!-- Node10&#45;&gt;Node5 -->
<g id="edge10" class="edge">
<title>Node10&#45;&gt;Node5</title>
<path fill="none" stroke="#63b8ff" d="M1267.83,-72.65C1107.83,-64 433.17,-27.53 260.43,-18.19"/>
<polygon fill="#63b8ff" stroke="#63b8ff" points="260.42,-14.68 250.25,-17.64 260.04,-21.67 260.42,-14.68"/>
</g>
<!-- Node10&#45;&gt;Node9 -->
<g id="edge11" class="edge">
<title>Node10&#45;&gt;Node9</title>
<path fill="none" stroke="#63b8ff" d="M1326.86,-65.99C1351.8,-57.46 1390.9,-44.09 1422.39,-33.32"/>
<polygon fill="#63b8ff" stroke="#63b8ff" points="1423.56,-36.61 1431.89,-30.06 1421.29,-29.99 1423.56,-36.61"/>
</g>
<!-- Node11 -->
<g id="node11" class="node">
<title>Node11</title>
<g id="a_node11"><a xlink:title=" ">
<polygon fill="#e0e0e0" stroke="#999999" points="1321,-24.5 1283,-24.5 1283,-5.5 1321,-5.5 1321,-24.5"/>
<text text-anchor="middle" x="1302" y="-12.5" font-family="Helvetica,sans-Serif" font-size="10.00">array</text>
</a>
</g>
</g>
<!-- Node10&#45;&gt;Node11 -->
<g id="edge12" class="edge">
<title>Node10&#45;&gt;Node11</title>
<path fill="none" stroke="#63b8ff" d="M1302,-65.87C1302,-57.75 1302,-45.31 1302,-34.89"/>
<polygon fill="#63b8ff" stroke="#63b8ff" points="1305.5,-34.67 1302,-24.67 1298.5,-34.67 1305.5,-34.67"/>
</g>
<!-- Node13&#45;&gt;Node3 -->
<g id="edge22" class="edge">
<title>Node13&#45;&gt;Node3</title>
<path fill="none" stroke="#63b8ff" d="M976.44,-307.7C979.71,-284.27 985.02,-219.91 951,-187 912.56,-149.81 765.33,-162.1 713,-151 708.15,-149.97 703.07,-148.75 698.08,-147.47"/>
<polygon fill="#63b8ff" stroke="#63b8ff" points="698.63,-143.99 688.06,-144.79 696.82,-150.76 698.63,-143.99"/>
</g>
<!-- Node13&#45;&gt;Node4 -->
<g id="edge26" class="edge">
<title>Node13&#45;&gt;Node4</title>
<path fill="none" stroke="#63b8ff" d="M964.54,-307.91C947.7,-294.45 913.1,-268.38 880,-253 731.51,-184.02 681.13,-203.39 526,-151 524.34,-150.44 522.64,-149.85 520.94,-149.24"/>
<polygon fill="#63b8ff" stroke="#63b8ff" points="521.8,-145.82 511.2,-145.61 519.35,-152.38 521.8,-145.82"/>
</g>
<!-- Node13&#45;&gt;Node5 -->
<g id="edge16" class="edge">
<title>Node13&#45;&gt;Node5</title>
<path fill="none" stroke="#63b8ff" d="M948.42,-316.27C792.15,-314.61 0,-301.31 0,-203 0,-203 0,-203 0,-135 0,-54.17 116.31,-27.97 179.79,-19.69"/>
<polygon fill="#63b8ff" stroke="#63b8ff" points="180.37,-23.15 189.87,-18.47 179.52,-16.2 180.37,-23.15"/>
</g>
<!-- Node13&#45;&gt;Node7 -->
<g id="edge17" class="edge">
<title>Node13&#45;&gt;Node7</title>
<path fill="none" stroke="#63b8ff" d="M948.17,-316.51C848.95,-315.83 494.46,-306.86 221,-217 170.12,-200.28 115.41,-169.02 85.9,-150.92"/>
<polygon fill="#63b8ff" stroke="#63b8ff" points="87.59,-147.85 77.24,-145.54 83.89,-153.79 87.59,-147.85"/>
</g>
<!-- Node13&#45;&gt;Node8 -->
<g id="edge18" class="edge">
<title>Node13&#45;&gt;Node8</title>
<path fill="none" stroke="#63b8ff" d="M948.44,-314.9C873.87,-310.17 663.78,-295.09 599,-272 519.43,-243.64 438.97,-180.97 404.47,-152.1"/>
<polygon fill="#63b8ff" stroke="#63b8ff" points="406.61,-149.32 396.71,-145.53 402.08,-154.67 406.61,-149.32"/>
</g>
<!-- Node13&#45;&gt;Node9 -->
<g id="edge19" class="edge">
<title>Node13&#45;&gt;Node9</title>
<path fill="none" stroke="#63b8ff" d="M1001.75,-316.52C1232.1,-316.61 2877.68,-315.73 3092,-272 3172.7,-255.53 3264,-285.37 3264,-203 3264,-203 3264,-203 3264,-135 3264,-102.23 3264.68,-85.02 3238,-66 3167.97,-16.07 1864.12,-15.26 1543.68,-15.82"/>
<polygon fill="#63b8ff" stroke="#63b8ff" points="1543.58,-12.32 1533.59,-15.83 1543.6,-19.32 1543.58,-12.32"/>
</g>
<!-- Node13&#45;&gt;Node10 -->
<g id="edge31" class="edge">
<title>Node13&#45;&gt;Node10</title>
<path fill="none" stroke="#63b8ff" d="M968.26,-307.99C957.31,-294.64 934.41,-268.71 910,-253 841.85,-209.12 817.81,-209.7 740,-187 661.68,-164.15 611.72,-214.09 560,-151 551.55,-140.69 550.86,-130.71 560,-121 584.03,-95.49 1101.68,-81.23 1257.81,-77.5"/>
<polygon fill="#63b8ff" stroke="#63b8ff" points="1258.08,-80.99 1267.99,-77.26 1257.91,-73.99 1258.08,-80.99"/>
</g>
<!-- Node14 -->
<g id="node14" class="node">
<title>Node14</title>
<g id="a_node14"><a xlink:title=" ">
<polygon fill="#e0e0e0" stroke="#999999" points="666.5,-272 607.5,-272 607.5,-253 666.5,-253 666.5,-272"/>
<text text-anchor="middle" x="637" y="-260" font-family="Helvetica,sans-Serif" font-size="10.00">functional</text>
</a>
</g>
</g>
<!-- Node13&#45;&gt;Node14 -->
<g id="edge15" class="edge">
<title>Node13&#45;&gt;Node14</title>
<path fill="none" stroke="#63b8ff" d="M948.1,-313.11C897.19,-306.56 783.08,-291.26 676.71,-272.02"/>
<polygon fill="#63b8ff" stroke="#63b8ff" points="677.24,-268.56 666.77,-270.2 675.98,-275.44 677.24,-268.56"/>
</g>
<!-- Node15 -->
<g id="node15" class="node">
<title>Node15</title>
<g id="a_node15"><a xlink:title=" ">
<polygon fill="#e0e0e0" stroke="#999999" points="747,-272 685,-272 685,-253 747,-253 747,-272"/>
<text text-anchor="middle" x="716" y="-260" font-family="Helvetica,sans-Serif" font-size="10.00">filesystem</text>
</a>
</g>
</g>
<!-- Node13&#45;&gt;Node15 -->
<g id="edge20" class="edge">
<title>Node13&#45;&gt;Node15</title>
<path fill="none" stroke="#63b8ff" d="M948.35,-311.16C908.88,-303.24 832.28,-287.81 757.11,-272.22"/>
<polygon fill="#63b8ff" stroke="#63b8ff" points="757.51,-268.72 747,-270.12 756.08,-275.58 757.51,-268.72"/>
</g>
<!-- Node16 -->
<g id="node16" class="node">
<title>Node16</title>
<g id="a_node16"><a xlink:title=" ">
<polygon fill="#e0e0e0" stroke="#999999" points="1444.5,-145.5 1409.5,-145.5 1409.5,-126.5 1444.5,-126.5 1444.5,-145.5"/>
<text text-anchor="middle" x="1427" y="-133.5" font-family="Helvetica,sans-Serif" font-size="10.00">map</text>
</a>
</g>
</g>
<!-- Node13&#45;&gt;Node16 -->
<g id="edge21" class="edge">
<title>Node13&#45;&gt;Node16</title>
<path fill="none" stroke="#63b8ff" d="M1001.61,-316.3C1073.18,-315.25 1267.78,-308.99 1318,-272 1351.47,-247.35 1330.53,-219.05 1357,-187 1369.25,-172.17 1386.89,-159.61 1401.4,-150.78"/>
<polygon fill="#63b8ff" stroke="#63b8ff" points="1403.52,-153.6 1410.39,-145.54 1399.99,-147.55 1403.52,-153.6"/>
</g>
<!-- Node17 -->
<g id="node17" class="node">
<title>Node17</title>
<g id="a_node17"><a xlink:title=" ">
<polygon fill="#e0e0e0" stroke="#999999" points="809,-272 765,-272 765,-253 809,-253 809,-272"/>
<text text-anchor="middle" x="787" y="-260" font-family="Helvetica,sans-Serif" font-size="10.00">mutex</text>
</a>
</g>
</g>
<!-- Node13&#45;&gt;Node17 -->
<g id="edge23" class="edge">
<title>Node13&#45;&gt;Node17</title>
<path fill="none" stroke="#63b8ff" d="M948.46,-309.02C914.32,-299.39 855.09,-282.7 818.65,-272.42"/>
<polygon fill="#63b8ff" stroke="#63b8ff" points="819.58,-269.05 809.01,-269.7 817.68,-275.79 819.58,-269.05"/>
</g>
<!-- Node18 -->
<g id="node18" class="node">
<title>Node18</title>
<g id="a_node18"><a xlink:title=" ">
<polygon fill="#e0e0e0" stroke="#999999" points="870.5,-272 827.5,-272 827.5,-253 870.5,-253 870.5,-272"/>
<text text-anchor="middle" x="849" y="-260" font-family="Helvetica,sans-Serif" font-size="10.00">queue</text>
</a>
</g>
</g>
<!-- Node13&#45;&gt;Node18 -->
<g id="edge24" class="edge">
<title>Node13&#45;&gt;Node18</title>
<path fill="none" stroke="#63b8ff" d="M954.76,-307.98C934.3,-299.38 902.47,-285.99 879.07,-276.15"/>
<polygon fill="#63b8ff" stroke="#63b8ff" points="880.19,-272.82 869.61,-272.17 877.47,-279.27 880.19,-272.82"/>
</g>
<!-- Node19 -->
<g id="node19" class="node">
<title>Node19</title>
<g id="a_node19"><a xlink:title=" ">
<polygon fill="#e0e0e0" stroke="#999999" points="1542.5,-145.5 1501.5,-145.5 1501.5,-126.5 1542.5,-126.5 1542.5,-145.5"/>
<text text-anchor="middle" x="1522" y="-133.5" font-family="Helvetica,sans-Serif" font-size="10.00">string</text>
</a>
</g>
</g>
<!-- Node13&#45;&gt;Node19 -->
<g id="edge25" class="edge">
<title>Node13&#45;&gt;Node19</title>
<path fill="none" stroke="#63b8ff" d="M1001.63,-316.96C1114.4,-318.27 1550.54,-316.74 1631,-217 1639.37,-206.62 1638.21,-198.21 1631,-187 1610.13,-154.55 1587.04,-167.16 1552,-151 1551.18,-150.62 1550.34,-150.24 1549.5,-149.85"/>
<polygon fill="#63b8ff" stroke="#63b8ff" points="1550.94,-146.65 1540.39,-145.61 1547.99,-153 1550.94,-146.65"/>
</g>
<!-- Node20 -->
<g id="node20" class="node">
<title>Node20</title>
<g id="a_node20"><a xlink:href="backend_8h.html" target="_top" xlink:title=" ">
<polygon fill="white" stroke="#666666" points="1391.5,-145.5 1290.5,-145.5 1290.5,-126.5 1391.5,-126.5 1391.5,-145.5"/>
<text text-anchor="middle" x="1341" y="-133.5" font-family="Helvetica,sans-Serif" font-size="10.00">backend/backend.h</text>
</a>
</g>
</g>
<!-- Node13&#45;&gt;Node20 -->
<g id="edge27" class="edge">
<title>Node13&#45;&gt;Node20</title>
<path fill="none" stroke="#63b8ff" d="M989.54,-307.84C1044.2,-278.75 1236.34,-184.43 1311.09,-149.86"/>
<polygon fill="#63b8ff" stroke="#63b8ff" points="1312.8,-152.92 1320.43,-145.57 1309.88,-146.56 1312.8,-152.92"/>
</g>
<!-- Node13&#45;&gt;Node21 -->
<g id="edge32" class="edge">
<title>Node13&#45;&gt;Node21</title>
<path fill="none" stroke="#63b8ff" d="M1001.68,-315.82C1223.04,-310.18 2753.78,-271.18 3016.63,-264.48"/>
<polygon fill="#63b8ff" stroke="#63b8ff" points="3016.91,-267.97 3026.82,-264.22 3016.73,-260.97 3016.91,-267.97"/>
</g>
<!-- Node27 -->
<g id="node27" class="node">
<title>Node27</title>
<g id="a_node27"><a xlink:href="platform__channel_8h.html" target="_top" xlink:title=" ">
<polygon fill="white" stroke="#666666" points="1464.5,-211.5 1365.5,-211.5 1365.5,-192.5 1464.5,-192.5 1464.5,-211.5"/>
<text text-anchor="middle" x="1415" y="-199.5" font-family="Helvetica,sans-Serif" font-size="10.00">platform_channel.h</text>
</a>
</g>
</g>
<!-- Node13&#45;&gt;Node27 -->
<g id="edge39" class="edge">
<title>Node13&#45;&gt;Node27</title>
<path fill="none" stroke="#63b8ff" d="M1001.63,-315.72C1076.89,-313.14 1289.62,-303.21 1351,-272 1374.13,-260.24 1393.2,-236.51 1404.34,-220.19"/>
<polygon fill="#63b8ff" stroke="#63b8ff" points="1407.42,-221.88 1409.95,-211.59 1401.55,-218.05 1407.42,-221.88"/>
</g>
<!-- Node28 -->
<g id="node28" class="node">
<title>Node28</title>
<g id="a_node28"><a xlink:href="key__event_8h.html" target="_top" xlink:title=" ">
<polygon fill="white" stroke="#666666" points="1820,-217 1718,-217 1718,-187 1820,-187 1820,-217"/>
<text text-anchor="start" x="1726" y="-205" font-family="Helvetica,sans-Serif" font-size="10.00">static_plugins/key</text>
<text text-anchor="middle" x="1769" y="-194" font-family="Helvetica,sans-Serif" font-size="10.00">_event/key_event.h</text>
</a>
</g>
</g>
<!-- Node13&#45;&gt;Node28 -->
<g id="edge43" class="edge">
<title>Node13&#45;&gt;Node28</title>
<path fill="none" stroke="#63b8ff" d="M1001.56,-316.59C1112.35,-316.68 1537.83,-314.22 1664,-272 1694.91,-261.66 1725.5,-239.88 1745.62,-223.54"/>
<polygon fill="#63b8ff" stroke="#63b8ff" points="1747.87,-226.23 1753.32,-217.14 1743.39,-220.85 1747.87,-226.23"/>
</g>
<!-- Node34 -->
<g id="node34" class="node">
<title>Node34</title>
<g id="a_node34"><a xlink:href="text__input_8h.html" target="_top" xlink:title=" ">
<polygon fill="white" stroke="#666666" points="2391.5,-217 2294.5,-217 2294.5,-187 2391.5,-187 2391.5,-217"/>
<text text-anchor="start" x="2302.5" y="-205" font-family="Helvetica,sans-Serif" font-size="10.00">static_plugins/text</text>
<text text-anchor="middle" x="2343" y="-194" font-family="Helvetica,sans-Serif" font-size="10.00">_input/text_input.h</text>
</a>
</g>
</g>
<!-- Node13&#45;&gt;Node34 -->
<g id="edge55" class="edge">
<title>Node13&#45;&gt;Node34</title>
<path fill="none" stroke="#63b8ff" d="M1001.55,-315.29C1096.08,-310.89 1425.13,-294.79 1696,-272 1913.22,-253.72 2170.6,-223.79 2284.16,-210.16"/>
<polygon fill="#63b8ff" stroke="#63b8ff" points="2284.86,-213.6 2294.37,-208.94 2284.03,-206.65 2284.86,-213.6"/>
</g>
<!-- Node39 -->
<g id="node39" class="node">
<title>Node39</title>
<g id="a_node39"><a xlink:href="flutter__view_8h.html" target="_top" xlink:title=" ">
<polygon fill="white" stroke="#666666" points="1309,-272 1211,-272 1211,-253 1309,-253 1309,-272"/>
<text text-anchor="middle" x="1260" y="-260" font-family="Helvetica,sans-Serif" font-size="10.00">view/flutter_view.h</text>
</a>
</g>
</g>
<!-- Node13&#45;&gt;Node39 -->
<g id="edge69" class="edge">
<title>Node13&#45;&gt;Node39</title>
<path fill="none" stroke="#63b8ff" d="M1001.56,-311.56C1047.57,-303.01 1143.03,-285.25 1204.17,-273.88"/>
<polygon fill="#63b8ff" stroke="#63b8ff" points="1204.86,-277.31 1214.05,-272.04 1203.58,-270.43 1204.86,-277.31"/>
</g>
<!-- Node20&#45;&gt;Node9 -->
<g id="edge28" class="edge">
<title>Node20&#45;&gt;Node9</title>
<path fill="none" stroke="#63b8ff" d="M1350.49,-126.44C1371.03,-107.93 1420.08,-63.71 1449.51,-37.18"/>
<polygon fill="#63b8ff" stroke="#63b8ff" points="1452.17,-39.49 1457.25,-30.2 1447.48,-34.3 1452.17,-39.49"/>
</g>
<!-- Node20&#45;&gt;Node10 -->
<g id="edge29" class="edge">
<title>Node20&#45;&gt;Node10</title>
<path fill="none" stroke="#63b8ff" d="M1335.25,-126.37C1329.54,-117.81 1320.65,-104.47 1313.49,-93.74"/>
<polygon fill="#63b8ff" stroke="#63b8ff" points="1316.24,-91.55 1307.78,-85.17 1310.41,-95.43 1316.24,-91.55"/>
</g>
<!-- Node20&#45;&gt;Node13 -->
<g id="edge30" class="edge">
<title>Node20&#45;&gt;Node13</title>
<path fill="none" stroke="#63b8ff" d="M1326.59,-145.59C1272.08,-174.61 1079.59,-269.11 1004.83,-303.68"/>
<polygon fill="#63b8ff" stroke="#63b8ff" points="1003.13,-300.61 995.5,-307.96 1006.05,-306.97 1003.13,-300.61"/>
</g>
<!-- Node22 -->
<g id="node22" class="node">
<title>Node22</title>
<g id="a_node22"><a xlink:title=" ">
<polygon fill="#e0e0e0" stroke="#999999" points="3203,-211.5 3151,-211.5 3151,-192.5 3203,-192.5 3203,-211.5"/>
<text text-anchor="middle" x="3177" y="-199.5" font-family="Helvetica,sans-Serif" font-size="10.00">sstream</text>
</a>
</g>
</g>
<!-- Node21&#45;&gt;Node22 -->
<g id="edge33" class="edge">
<title>Node21&#45;&gt;Node22</title>
<path fill="none" stroke="#63b8ff" d="M3072.74,-252.99C3093.07,-243.25 3126.61,-227.16 3150.14,-215.88"/>
<polygon fill="#63b8ff" stroke="#63b8ff" points="3151.74,-219 3159.24,-211.52 3148.71,-212.68 3151.74,-219"/>
</g>
<!-- Node23 -->
<g id="node23" class="node">
<title>Node23</title>
<g id="a_node23"><a xlink:href="dlt_8h.html" target="_top" xlink:title=" ">
<polygon fill="white" stroke="#666666" points="3132.5,-211.5 3083.5,-211.5 3083.5,-192.5 3132.5,-192.5 3132.5,-211.5"/>
<text text-anchor="middle" x="3108" y="-199.5" font-family="Helvetica,sans-Serif" font-size="10.00">dlt/dlt.h</text>
</a>
</g>
</g>
<!-- Node21&#45;&gt;Node23 -->
<g id="edge34" class="edge">
<title>Node21&#45;&gt;Node23</title>
<path fill="none" stroke="#63b8ff" d="M3062.82,-252.87C3070.81,-244.05 3083.39,-230.16 3093.26,-219.27"/>
<polygon fill="#63b8ff" stroke="#63b8ff" points="3096.03,-221.43 3100.15,-211.67 3090.84,-216.73 3096.03,-221.43"/>
</g>
<!-- Node26 -->
<g id="node26" class="node">
<title>Node26</title>
<g id="a_node26"><a xlink:title=" ">
<polygon fill="#e0e0e0" stroke="#999999" points="3158.5,-145.5 3057.5,-145.5 3057.5,-126.5 3158.5,-126.5 3158.5,-145.5"/>
<text text-anchor="middle" x="3108" y="-133.5" font-family="Helvetica,sans-Serif" font-size="10.00">flutter/fml/macros.h</text>
</a>
</g>
</g>
<!-- Node21&#45;&gt;Node26 -->
<g id="edge38" class="edge">
<title>Node21&#45;&gt;Node26</title>
<path fill="none" stroke="#63b8ff" d="M3056.38,-252.93C3058.85,-238.75 3064.78,-209.72 3075,-187 3080.3,-175.21 3088.24,-163.09 3094.99,-153.73"/>
<polygon fill="#63b8ff" stroke="#63b8ff" points="3097.81,-155.81 3100.99,-145.7 3092.2,-151.62 3097.81,-155.81"/>
</g>
<!-- Node24 -->
<g id="node24" class="node">
<title>Node24</title>
<g id="a_node24"><a xlink:href="libdlt_8h.html" target="_top" xlink:title=" ">
<polygon fill="white" stroke="#666666" points="3235.5,-145.5 3176.5,-145.5 3176.5,-126.5 3235.5,-126.5 3235.5,-145.5"/>
<text text-anchor="middle" x="3206" y="-133.5" font-family="Helvetica,sans-Serif" font-size="10.00">dlt/libdlt.h</text>
</a>
</g>
</g>
<!-- Node23&#45;&gt;Node24 -->
<g id="edge35" class="edge">
<title>Node23&#45;&gt;Node24</title>
<path fill="none" stroke="#63b8ff" d="M3121.22,-192.37C3137.36,-181.82 3164.91,-163.84 3184.21,-151.23"/>
<polygon fill="#63b8ff" stroke="#63b8ff" points="3186.22,-154.1 3192.68,-145.7 3182.39,-148.24 3186.22,-154.1"/>
</g>
<!-- Node23&#45;&gt;Node26 -->
<g id="edge37" class="edge">
<title>Node23&#45;&gt;Node26</title>
<path fill="none" stroke="#63b8ff" d="M3108,-192.37C3108,-183.16 3108,-168.29 3108,-156.27"/>
<polygon fill="#63b8ff" stroke="#63b8ff" points="3111.5,-155.91 3108,-145.91 3104.5,-155.91 3111.5,-155.91"/>
</g>
<!-- Node25 -->
<g id="node25" class="node">
<title>Node25</title>
<g id="a_node25"><a xlink:title=" ">
<polygon fill="#e0e0e0" stroke="#999999" points="3229,-85 3183,-85 3183,-66 3229,-66 3229,-85"/>
<text text-anchor="middle" x="3206" y="-73" font-family="Helvetica,sans-Serif" font-size="10.00">cstdint</text>
</a>
</g>
</g>
<!-- Node24&#45;&gt;Node25 -->
<g id="edge36" class="edge">
<title>Node24&#45;&gt;Node25</title>
<path fill="none" stroke="#63b8ff" d="M3206,-126.37C3206,-118.25 3206,-105.81 3206,-95.39"/>
<polygon fill="#63b8ff" stroke="#63b8ff" points="3209.5,-95.17 3206,-85.17 3202.5,-95.17 3209.5,-95.17"/>
</g>
<!-- Node27&#45;&gt;Node9 -->
<g id="edge42" class="edge">
<title>Node27&#45;&gt;Node9</title>
<path fill="none" stroke="#63b8ff" d="M1424.1,-192.37C1433.27,-183.08 1447.04,-167.42 1454,-151 1469.5,-114.45 1472.85,-67.84 1473.31,-40.04"/>
<polygon fill="#63b8ff" stroke="#63b8ff" points="1476.81,-40.06 1473.36,-30.04 1469.81,-40.02 1476.81,-40.06"/>
</g>
<!-- Node27&#45;&gt;Node16 -->
<g id="edge40" class="edge">
<title>Node27&#45;&gt;Node16</title>
<path fill="none" stroke="#63b8ff" d="M1416.62,-192.37C1418.36,-183.07 1421.19,-167.98 1423.46,-155.9"/>
<polygon fill="#63b8ff" stroke="#63b8ff" points="1426.93,-156.38 1425.33,-145.91 1420.05,-155.09 1426.93,-156.38"/>
</g>
<!-- Node27&#45;&gt;Node19 -->
<g id="edge41" class="edge">
<title>Node27&#45;&gt;Node19</title>
<path fill="none" stroke="#63b8ff" d="M1429.43,-192.37C1447.22,-181.73 1477.68,-163.51 1498.78,-150.89"/>
<polygon fill="#63b8ff" stroke="#63b8ff" points="1500.67,-153.84 1507.46,-145.7 1497.08,-147.83 1500.67,-153.84"/>
</g>
<!-- Node28&#45;&gt;Node3 -->
<g id="edge45" class="edge">
<title>Node28&#45;&gt;Node3</title>
<path fill="none" stroke="#63b8ff" d="M1717.95,-195.07C1691.95,-192.24 1659.83,-189.04 1631,-187 1233.89,-158.9 1131.53,-196.12 736,-151 723.64,-149.59 710.25,-147.29 698.3,-144.97"/>
<polygon fill="#63b8ff" stroke="#63b8ff" points="698.72,-141.48 688.23,-142.93 697.34,-148.34 698.72,-141.48"/>
</g>
<!-- Node28&#45;&gt;Node9 -->
<g id="edge52" class="edge">
<title>Node28&#45;&gt;Node9</title>
<path fill="none" stroke="#63b8ff" d="M1820.15,-201.68C1911.85,-201.19 2089.45,-191.47 2031,-121 1969.9,-47.33 1680.42,-25.01 1544.19,-18.52"/>
<polygon fill="#63b8ff" stroke="#63b8ff" points="1544.01,-15.01 1533.86,-18.05 1543.69,-22 1544.01,-15.01"/>
</g>
<!-- Node28&#45;&gt;Node10 -->
<g id="edge54" class="edge">
<title>Node28&#45;&gt;Node10</title>
<path fill="none" stroke="#63b8ff" d="M1755.31,-186.76C1734.94,-165.94 1697.23,-128.79 1680,-121 1621.28,-94.44 1432.57,-82.52 1346.07,-78.35"/>
<polygon fill="#63b8ff" stroke="#63b8ff" points="1346.19,-74.85 1336.04,-77.88 1345.86,-81.84 1346.19,-74.85"/>
</g>
<!-- Node28&#45;&gt;Node16 -->
<g id="edge44" class="edge">
<title>Node28&#45;&gt;Node16</title>
<path fill="none" stroke="#63b8ff" d="M1717.79,-192.19C1662.32,-182.54 1571.24,-166.38 1493,-151 1480.42,-148.53 1466.52,-145.61 1454.75,-143.08"/>
<polygon fill="#63b8ff" stroke="#63b8ff" points="1455.13,-139.58 1444.62,-140.89 1453.65,-146.42 1455.13,-139.58"/>
</g>
<!-- Node28&#45;&gt;Node19 -->
<g id="edge46" class="edge">
<title>Node28&#45;&gt;Node19</title>
<path fill="none" stroke="#63b8ff" d="M1717.73,-192.34C1673.21,-184.08 1607.38,-170.07 1552,-151 1550.78,-150.58 1549.54,-150.12 1548.29,-149.64"/>
<polygon fill="#63b8ff" stroke="#63b8ff" points="1549.45,-146.33 1538.88,-145.63 1546.7,-152.77 1549.45,-146.33"/>
</g>
<!-- Node28&#45;&gt;Node26 -->
<g id="edge50" class="edge">
<title>Node28&#45;&gt;Node26</title>
<path fill="none" stroke="#63b8ff" d="M1820.03,-199.58C2042.88,-193.3 2925.02,-167.6 3048,-151 3053.98,-150.19 3060.23,-149.06 3066.35,-147.79"/>
<polygon fill="#63b8ff" stroke="#63b8ff" points="3067.44,-151.13 3076.45,-145.55 3065.93,-144.3 3067.44,-151.13"/>
</g>
<!-- Node29 -->
<g id="node29" class="node">
<title>Node29</title>
<g id="a_node29"><a xlink:title=" ">
<polygon fill="#e0e0e0" stroke="#999999" points="2021.5,-151 1908.5,-151 1908.5,-121 2021.5,-121 2021.5,-151"/>
<text text-anchor="start" x="1916.5" y="-139" font-family="Helvetica,sans-Serif" font-size="10.00">flutter/basic_message</text>
<text text-anchor="middle" x="1965" y="-128" font-family="Helvetica,sans-Serif" font-size="10.00">_channel.h</text>
</a>
</g>
</g>
<!-- Node28&#45;&gt;Node29 -->
<g id="edge47" class="edge">
<title>Node28&#45;&gt;Node29</title>
<path fill="none" stroke="#63b8ff" d="M1812.01,-186.95C1841.5,-177.33 1880.81,-164.49 1912.2,-154.24"/>
<polygon fill="#63b8ff" stroke="#63b8ff" points="1913.67,-157.44 1922.09,-151.01 1911.49,-150.79 1913.67,-157.44"/>
</g>
<!-- Node30 -->
<g id="node30" class="node">
<title>Node30</title>
<g id="a_node30"><a xlink:title=" ">
<polygon fill="#e0e0e0" stroke="#999999" points="2362,-145.5 2230,-145.5 2230,-126.5 2362,-126.5 2362,-145.5"/>
<text text-anchor="middle" x="2296" y="-133.5" font-family="Helvetica,sans-Serif" font-size="10.00">flutter/binary_messenger.h</text>
</a>
</g>
</g>
<!-- Node28&#45;&gt;Node30 -->
<g id="edge48" class="edge">
<title>Node28&#45;&gt;Node30</title>
<path fill="none" stroke="#63b8ff" d="M1820.34,-196.57C1904.35,-189.05 2076.33,-172.47 2221,-151 2228.21,-149.93 2235.78,-148.67 2243.23,-147.36"/>
<polygon fill="#63b8ff" stroke="#63b8ff" points="2244.04,-150.77 2253.26,-145.55 2242.79,-143.88 2244.04,-150.77"/>
</g>
<!-- Node31 -->
<g id="node31" class="node">
<title>Node31</title>
<g id="a_node31"><a xlink:title=" ">
<polygon fill="#e0e0e0" stroke="#999999" points="1890.5,-151 1727.5,-151 1727.5,-121 1890.5,-121 1890.5,-151"/>
<text text-anchor="start" x="1735.5" y="-139" font-family="Helvetica,sans-Serif" font-size="10.00">flutter/shell/platform</text>
<text text-anchor="middle" x="1809" y="-128" font-family="Helvetica,sans-Serif" font-size="10.00">/common/json_message_codec.h</text>
</a>
</g>
</g>
<!-- Node28&#45;&gt;Node31 -->
<g id="edge49" class="edge">
<title>Node28&#45;&gt;Node31</title>
<path fill="none" stroke="#63b8ff" d="M1777.88,-186.8C1782.85,-178.84 1789.16,-168.74 1794.81,-159.71"/>
<polygon fill="#63b8ff" stroke="#63b8ff" points="1797.82,-161.5 1800.15,-151.16 1791.88,-157.79 1797.82,-161.5"/>
</g>
<!-- Node32 -->
<g id="node32" class="node">
<title>Node32</title>
<g id="a_node32"><a xlink:title=" ">
<polygon fill="#e0e0e0" stroke="#999999" points="1671,-145.5 1561,-145.5 1561,-126.5 1671,-126.5 1671,-145.5"/>
<text text-anchor="middle" x="1616" y="-133.5" font-family="Helvetica,sans-Serif" font-size="10.00">rapidjson/document.h</text>
</a>
</g>
</g>
<!-- Node28&#45;&gt;Node32 -->
<g id="edge51" class="edge">
<title>Node28&#45;&gt;Node32</title>
<path fill="none" stroke="#63b8ff" d="M1735.42,-186.95C1708.59,-175.73 1671.34,-160.15 1645.61,-149.39"/>
<polygon fill="#63b8ff" stroke="#63b8ff" points="1646.94,-146.15 1636.36,-145.52 1644.24,-152.61 1646.94,-146.15"/>
</g>
<!-- Node33 -->
<g id="node33" class="node">
<title>Node33</title>
<g id="a_node33"><a xlink:title=" ">
<polygon fill="#e0e0e0" stroke="#999999" points="2212,-145.5 2078,-145.5 2078,-126.5 2212,-126.5 2212,-145.5"/>
<text text-anchor="middle" x="2145" y="-133.5" font-family="Helvetica,sans-Serif" font-size="10.00">xkbcommon/xkbcommon.h</text>
</a>
</g>
</g>
<!-- Node28&#45;&gt;Node33 -->
<g id="edge53" class="edge">
<title>Node28&#45;&gt;Node33</title>
<path fill="none" stroke="#63b8ff" d="M1820.17,-192.38C1879.01,-182.45 1978.49,-165.64 2064,-151 2071.06,-149.79 2078.46,-148.52 2085.81,-147.25"/>
<polygon fill="#63b8ff" stroke="#63b8ff" points="2086.49,-150.69 2095.74,-145.54 2085.3,-143.79 2086.49,-150.69"/>
</g>
<!-- Node34&#45;&gt;Node3 -->
<g id="edge57" class="edge">
<title>Node34&#45;&gt;Node3</title>
<path fill="none" stroke="#63b8ff" d="M2294.1,-199.69C2033.32,-192.7 815.25,-159.68 736,-151 723.64,-149.65 710.24,-147.37 698.29,-145.03"/>
<polygon fill="#63b8ff" stroke="#63b8ff" points="698.72,-141.55 688.22,-142.99 697.33,-148.41 698.72,-141.55"/>
</g>
<!-- Node34&#45;&gt;Node9 -->
<g id="edge66" class="edge">
<title>Node34&#45;&gt;Node9</title>
<path fill="none" stroke="#63b8ff" d="M2360.88,-186.87C2380.17,-169.95 2405.88,-141.35 2388,-121 2332.4,-57.74 1748.53,-27.49 1543.61,-18.76"/>
<polygon fill="#63b8ff" stroke="#63b8ff" points="1543.7,-15.26 1533.56,-18.33 1543.4,-22.25 1543.7,-15.26"/>
</g>
<!-- Node34&#45;&gt;Node10 -->
<g id="edge68" class="edge">
<title>Node34&#45;&gt;Node10</title>
<path fill="none" stroke="#63b8ff" d="M2355.72,-186.71C2369.86,-169.1 2388.52,-139.27 2371,-121 2335,-83.47 1543.6,-77.55 1346.27,-76.65"/>
<polygon fill="#63b8ff" stroke="#63b8ff" points="1346.27,-73.15 1336.25,-76.61 1346.24,-80.15 1346.27,-73.15"/>
</g>
<!-- Node34&#45;&gt;Node16 -->
<g id="edge56" class="edge">
<title>Node34&#45;&gt;Node16</title>
<path fill="none" stroke="#63b8ff" d="M2294.36,-200.69C2163.95,-199.31 1795.89,-191.8 1493,-151 1480.16,-149.27 1466.1,-146.42 1454.26,-143.74"/>
<polygon fill="#63b8ff" stroke="#63b8ff" points="1455.06,-140.34 1444.52,-141.47 1453.46,-147.15 1455.06,-140.34"/>
</g>
<!-- Node34&#45;&gt;Node19 -->
<g id="edge58" class="edge">
<title>Node34&#45;&gt;Node19</title>
<path fill="none" stroke="#63b8ff" d="M2294.25,-200.29C2144.63,-197.73 1693.58,-187.13 1552,-151 1550.32,-150.57 1548.61,-150.05 1546.91,-149.46"/>
<polygon fill="#63b8ff" stroke="#63b8ff" points="1548.05,-146.14 1537.47,-145.56 1545.38,-152.61 1548.05,-146.14"/>
</g>
<!-- Node34&#45;&gt;Node26 -->
<g id="edge62" class="edge">
<title>Node34&#45;&gt;Node26</title>
<path fill="none" stroke="#63b8ff" d="M2391.75,-198.55C2529.68,-191.46 2920.91,-170.21 3048,-151 3053.83,-150.12 3059.92,-148.97 3065.91,-147.71"/>
<polygon fill="#63b8ff" stroke="#63b8ff" points="3066.8,-151.09 3075.8,-145.5 3065.28,-144.26 3066.8,-151.09"/>
</g>
<!-- Node34&#45;&gt;Node30 -->
<g id="edge59" class="edge">
<title>Node34&#45;&gt;Node30</title>
<path fill="none" stroke="#63b8ff" d="M2332.57,-186.8C2325.46,-177.11 2316,-164.24 2308.49,-154.01"/>
<polygon fill="#63b8ff" stroke="#63b8ff" points="2311.24,-151.83 2302.5,-145.84 2305.59,-155.98 2311.24,-151.83"/>
</g>
<!-- Node34&#45;&gt;Node32 -->
<g id="edge65" class="edge">
<title>Node34&#45;&gt;Node32</title>
<path fill="none" stroke="#63b8ff" d="M2294.37,-198.02C2189.22,-191.37 1932.94,-174.09 1719,-151 1706.75,-149.68 1693.72,-148.07 1681.18,-146.41"/>
<polygon fill="#63b8ff" stroke="#63b8ff" points="1681.63,-142.94 1671.26,-145.08 1680.7,-149.88 1681.63,-142.94"/>
</g>
<!-- Node34&#45;&gt;Node33 -->
<g id="edge67" class="edge">
<title>Node34&#45;&gt;Node33</title>
<path fill="none" stroke="#63b8ff" d="M2299.55,-186.95C2264.06,-175.48 2214.49,-159.46 2181.14,-148.68"/>
<polygon fill="#63b8ff" stroke="#63b8ff" points="2181.94,-145.26 2171.35,-145.52 2179.79,-151.92 2181.94,-145.26"/>
</g>
<!-- Node35 -->
<g id="node35" class="node">
<title>Node35</title>
<g id="a_node35"><a xlink:title=" ">
<polygon fill="#e0e0e0" stroke="#999999" points="3039,-145.5 2915,-145.5 2915,-126.5 3039,-126.5 3039,-145.5"/>
<text text-anchor="middle" x="2977" y="-133.5" font-family="Helvetica,sans-Serif" font-size="10.00">flutter/method_channel.h</text>
</a>
</g>
</g>
<!-- Node34&#45;&gt;Node35 -->
<g id="edge60" class="edge">
<title>Node34&#45;&gt;Node35</title>
<path fill="none" stroke="#63b8ff" d="M2391.77,-198.42C2489.65,-192.84 2716.81,-177.98 2906,-151 2913.1,-149.99 2920.56,-148.73 2927.87,-147.39"/>
<polygon fill="#63b8ff" stroke="#63b8ff" points="2928.52,-150.83 2937.69,-145.52 2927.22,-143.95 2928.52,-150.83"/>
</g>
<!-- Node36 -->
<g id="node36" class="node">
<title>Node36</title>
<g id="a_node36"><a xlink:title=" ">
<polygon fill="#e0e0e0" stroke="#999999" points="2562,-151 2456,-151 2456,-121 2562,-121 2562,-151"/>
<text text-anchor="start" x="2464" y="-139" font-family="Helvetica,sans-Serif" font-size="10.00">flutter/method_result</text>
<text text-anchor="middle" x="2509" y="-128" font-family="Helvetica,sans-Serif" font-size="10.00">_functions.h</text>
</a>
</g>
</g>
<!-- Node34&#45;&gt;Node36 -->
<g id="edge61" class="edge">
<title>Node34&#45;&gt;Node36</title>
<path fill="none" stroke="#63b8ff" d="M2379.43,-186.95C2404.08,-177.45 2436.83,-164.82 2463.24,-154.64"/>
<polygon fill="#63b8ff" stroke="#63b8ff" points="2464.58,-157.88 2472.66,-151.01 2462.07,-151.34 2464.58,-157.88"/>
</g>
<!-- Node37 -->
<g id="node37" class="node">
<title>Node37</title>
<g id="a_node37"><a xlink:title=" ">
<polygon fill="#e0e0e0" stroke="#999999" points="2735.5,-151 2580.5,-151 2580.5,-121 2735.5,-121 2735.5,-151"/>
<text text-anchor="start" x="2588.5" y="-139" font-family="Helvetica,sans-Serif" font-size="10.00">flutter/shell/platform</text>
<text text-anchor="middle" x="2658" y="-128" font-family="Helvetica,sans-Serif" font-size="10.00">/common/json_method_codec.h</text>
</a>
</g>
</g>
<!-- Node34&#45;&gt;Node37 -->
<g id="edge63" class="edge">
<title>Node34&#45;&gt;Node37</title>
<path fill="none" stroke="#63b8ff" d="M2391.53,-191.14C2441.45,-181 2520.02,-165.03 2578.93,-153.06"/>
<polygon fill="#63b8ff" stroke="#63b8ff" points="2579.85,-156.45 2588.95,-151.03 2578.45,-149.59 2579.85,-156.45"/>
</g>
<!-- Node38 -->
<g id="node38" class="node">
<title>Node38</title>
<g id="a_node38"><a xlink:title=" ">
<polygon fill="#e0e0e0" stroke="#999999" points="2896.5,-151 2753.5,-151 2753.5,-121 2896.5,-121 2896.5,-151"/>
<text text-anchor="start" x="2761.5" y="-139" font-family="Helvetica,sans-Serif" font-size="10.00">flutter/shell/platform</text>
<text text-anchor="middle" x="2825" y="-128" font-family="Helvetica,sans-Serif" font-size="10.00">/common/text_input_model.h</text>
</a>
</g>
</g>
<!-- Node34&#45;&gt;Node38 -->
<g id="edge64" class="edge">
<title>Node34&#45;&gt;Node38</title>
<path fill="none" stroke="#63b8ff" d="M2391.68,-195.73C2465.55,-187.57 2610.58,-170.86 2743.54,-151.18"/>
<polygon fill="#63b8ff" stroke="#63b8ff" points="2744.12,-154.63 2753.5,-149.69 2743.09,-147.7 2744.12,-154.63"/>
</g>
<!-- Node39&#45;&gt;Node3 -->
<g id="edge71" class="edge">
<title>Node39&#45;&gt;Node3</title>
<path fill="none" stroke="#63b8ff" d="M1210.69,-257.82C1163.3,-252.92 1090.48,-241.79 1032,-217 1010.55,-207.9 1010.73,-195.41 989,-187 873.64,-142.33 834.27,-175.43 713,-151 708.14,-150.02 703.05,-148.83 698.06,-147.56"/>
<polygon fill="#63b8ff" stroke="#63b8ff" points="698.6,-144.09 688.04,-144.89 696.8,-150.85 698.6,-144.09"/>
</g>
<!-- Node39&#45;&gt;Node16 -->
<g id="edge70" class="edge">
<title>Node39&#45;&gt;Node16</title>
<path fill="none" stroke="#63b8ff" d="M1265.61,-252.61C1275.56,-237.42 1297.66,-206.29 1323,-187 1353.38,-163.87 1366.84,-168.06 1401,-151 1401.42,-150.79 1401.85,-150.57 1402.28,-150.36"/>
<polygon fill="#63b8ff" stroke="#63b8ff" points="1404.16,-153.32 1411.41,-145.6 1400.92,-147.12 1404.16,-153.32"/>
</g>
<!-- Node39&#45;&gt;Node26 -->
<g id="edge77" class="edge">
<title>Node39&#45;&gt;Node26</title>
<path fill="none" stroke="#63b8ff" d="M1309.27,-260.68C1467.82,-257.81 1979.05,-246.72 2401,-217 2689.33,-196.69 2762.9,-198.6 3048,-151 3053.47,-150.09 3059.19,-148.97 3064.83,-147.77"/>
<polygon fill="#63b8ff" stroke="#63b8ff" points="3065.83,-151.13 3074.83,-145.54 3064.31,-144.3 3065.83,-151.13"/>
</g>
<!-- Node40 -->
<g id="node40" class="node">
<title>Node40</title>
<g id="a_node40"><a xlink:href="configuration_8h.html" target="_top" xlink:title=" ">
<polygon fill="white" stroke="#666666" points="1621.5,-211.5 1482.5,-211.5 1482.5,-192.5 1621.5,-192.5 1621.5,-211.5"/>
<text text-anchor="middle" x="1552" y="-199.5" font-family="Helvetica,sans-Serif" font-size="10.00">configuration/configuration.h</text>
</a>
</g>
</g>
<!-- Node39&#45;&gt;Node40 -->
<g id="edge72" class="edge">
<title>Node39&#45;&gt;Node40</title>
<path fill="none" stroke="#63b8ff" d="M1302.46,-252.99C1354.58,-242.55 1442.96,-224.85 1499.35,-213.55"/>
<polygon fill="#63b8ff" stroke="#63b8ff" points="1500.37,-216.91 1509.49,-211.52 1499,-210.05 1500.37,-216.91"/>
</g>
<!-- Node41 -->
<g id="node41" class="node">
<title>Node41</title>
<g id="a_node41"><a xlink:href="window_8h.html" target="_top" xlink:title=" ">
<polygon fill="white" stroke="#666666" points="1137,-211.5 1041,-211.5 1041,-192.5 1137,-192.5 1137,-211.5"/>
<text text-anchor="middle" x="1089" y="-199.5" font-family="Helvetica,sans-Serif" font-size="10.00">wayland/window.h</text>
</a>
</g>
</g>
<!-- Node39&#45;&gt;Node41 -->
<g id="edge78" class="edge">
<title>Node39&#45;&gt;Node41</title>
<path fill="none" stroke="#63b8ff" d="M1235.14,-252.99C1205.75,-242.94 1156.69,-226.16 1123.61,-214.84"/>
<polygon fill="#63b8ff" stroke="#63b8ff" points="1124.49,-211.44 1113.89,-211.52 1122.22,-218.07 1124.49,-211.44"/>
</g>
<!-- Node40&#45;&gt;Node4 -->
<g id="edge74" class="edge">
<title>Node40&#45;&gt;Node4</title>
<path fill="none" stroke="#63b8ff" d="M1510.46,-192.45C1498.72,-190.33 1485.9,-188.3 1474,-187 1069.85,-142.98 963.69,-199.01 560,-151 547.53,-149.52 533.97,-147.01 522.13,-144.53"/>
<polygon fill="#63b8ff" stroke="#63b8ff" points="522.75,-141.09 512.24,-142.38 521.27,-147.93 522.75,-141.09"/>
</g>
<!-- Node40&#45;&gt;Node19 -->
<g id="edge73" class="edge">
<title>Node40&#45;&gt;Node19</title>
<path fill="none" stroke="#63b8ff" d="M1547.95,-192.37C1543.51,-182.88 1536.23,-167.36 1530.51,-155.16"/>
<polygon fill="#63b8ff" stroke="#63b8ff" points="1533.59,-153.47 1526.17,-145.91 1527.25,-156.45 1533.59,-153.47"/>
</g>
<!-- Node40&#45;&gt;Node26 -->
<g id="edge75" class="edge">
<title>Node40&#45;&gt;Node26</title>
<path fill="none" stroke="#63b8ff" d="M1621.88,-193.83C1649.05,-191.29 1680.45,-188.66 1709,-187 2303.33,-152.55 2457.55,-227.03 3048,-151 3054.05,-150.22 3060.38,-149.09 3066.57,-147.81"/>
<polygon fill="#63b8ff" stroke="#63b8ff" points="3067.76,-151.13 3076.77,-145.55 3066.25,-144.3 3067.76,-151.13"/>
</g>
<!-- Node40&#45;&gt;Node32 -->
<g id="edge76" class="edge">
<title>Node40&#45;&gt;Node32</title>
<path fill="none" stroke="#63b8ff" d="M1560.63,-192.37C1570.69,-182.31 1587.52,-165.48 1599.99,-153.01"/>
<polygon fill="#63b8ff" stroke="#63b8ff" points="1602.5,-155.45 1607.09,-145.91 1597.55,-150.5 1602.5,-155.45"/>
</g>
<!-- Node41&#45;&gt;Node3 -->
<g id="edge79" class="edge">
<title>Node41&#45;&gt;Node3</title>
<path fill="none" stroke="#63b8ff" d="M1054.38,-192.46C1045.49,-190.47 1035.92,-188.5 1027,-187 883.67,-162.96 843.71,-183.21 702,-151 699.18,-150.36 696.27,-149.58 693.38,-148.73"/>
<polygon fill="#63b8ff" stroke="#63b8ff" points="694.34,-145.36 683.74,-145.61 692.18,-152.02 694.34,-145.36"/>
</g>
<!-- Node41&#45;&gt;Node10 -->
<g id="edge83" class="edge">
<title>Node41&#45;&gt;Node10</title>
<path fill="none" stroke="#63b8ff" d="M1054.04,-192.47C1045.25,-190.5 1035.81,-188.53 1027,-187 896.35,-164.23 645.97,-218.38 736,-121 771.18,-82.94 1130.64,-77.38 1257.76,-76.61"/>
<polygon fill="#63b8ff" stroke="#63b8ff" points="1257.93,-80.11 1267.92,-76.56 1257.9,-73.11 1257.93,-80.11"/>
</g>
<!-- Node41&#45;&gt;Node12 -->
<g id="edge81" class="edge">
<title>Node41&#45;&gt;Node12</title>
<path fill="none" stroke="#63b8ff" d="M1040.79,-195.96C924.42,-183.78 636.97,-153.54 627,-151 624.84,-150.45 622.63,-149.79 620.44,-149.06"/>
<polygon fill="#63b8ff" stroke="#63b8ff" points="621.62,-145.76 611.03,-145.53 619.16,-152.32 621.62,-145.76"/>
</g>
<!-- Node41&#45;&gt;Node19 -->
<g id="edge80" class="edge">
<title>Node41&#45;&gt;Node19</title>
<path fill="none" stroke="#63b8ff" d="M1137.28,-195.43C1207.29,-187.12 1341,-170.35 1454,-151 1466.19,-148.91 1479.53,-146.25 1491.14,-143.81"/>
<polygon fill="#63b8ff" stroke="#63b8ff" points="1492.19,-147.16 1501.24,-141.65 1490.72,-140.32 1492.19,-147.16"/>
</g>
<!-- Node41&#45;&gt;Node20 -->
<g id="edge84" class="edge">
<title>Node41&#45;&gt;Node20</title>
<path fill="none" stroke="#63b8ff" d="M1122.72,-192.44C1167.89,-180.96 1248.09,-160.6 1297.68,-148"/>
<polygon fill="#63b8ff" stroke="#63b8ff" points="1298.64,-151.37 1307.48,-145.51 1296.92,-144.58 1298.64,-151.37"/>
</g>
<!-- Node42 -->
<g id="node42" class="node">
<title>Node42</title>
<g id="a_node42"><a xlink:title=" ">
<polygon fill="#e0e0e0" stroke="#999999" points="1151.5,-145.5 1026.5,-145.5 1026.5,-126.5 1151.5,-126.5 1151.5,-145.5"/>
<text text-anchor="middle" x="1089" y="-133.5" font-family="Helvetica,sans-Serif" font-size="10.00">agl&#45;shell&#45;client&#45;protocol.h</text>
</a>
</g>
</g>
<!-- Node41&#45;&gt;Node42 -->
<g id="edge82" class="edge">
<title>Node41&#45;&gt;Node42</title>
<path fill="none" stroke="#63b8ff" d="M1089,-192.37C1089,-183.16 1089,-168.29 1089,-156.27"/>
<polygon fill="#63b8ff" stroke="#63b8ff" points="1092.5,-155.91 1089,-145.91 1085.5,-155.91 1092.5,-155.91"/>
</g>
<!-- Node43 -->
<g id="node43" class="node">
<title>Node43</title>
<g id="a_node43"><a xlink:title=" ">
<polygon fill="#e0e0e0" stroke="#999999" points="1272,-151 1170,-151 1170,-121 1272,-121 1272,-151"/>
<text text-anchor="start" x="1178" y="-139" font-family="Helvetica,sans-Serif" font-size="10.00">ivi&#45;application&#45;client</text>
<text text-anchor="middle" x="1221" y="-128" font-family="Helvetica,sans-Serif" font-size="10.00">&#45;protocol.h</text>
</a>
</g>
</g>
<!-- Node41&#45;&gt;Node43 -->
<g id="edge85" class="edge">
<title>Node41&#45;&gt;Node43</title>
<path fill="none" stroke="#63b8ff" d="M1106.8,-192.37C1126.15,-182.99 1157.64,-167.72 1182.65,-155.59"/>
<polygon fill="#63b8ff" stroke="#63b8ff" points="1184.42,-158.63 1191.89,-151.12 1181.36,-152.33 1184.42,-158.63"/>
</g>
<!-- Node44 -->
<g id="node44" class="node">
<title>Node44</title>
<g id="a_node44"><a xlink:title=" ">
<polygon fill="#e0e0e0" stroke="#999999" points="861.5,-145.5 744.5,-145.5 744.5,-126.5 861.5,-126.5 861.5,-145.5"/>
<text text-anchor="middle" x="803" y="-133.5" font-family="Helvetica,sans-Serif" font-size="10.00">ivi&#45;wm&#45;client&#45;protocol.h</text>
</a>
</g>
</g>
<!-- Node41&#45;&gt;Node44 -->
<g id="edge86" class="edge">
<title>Node41&#45;&gt;Node44</title>
<path fill="none" stroke="#63b8ff" d="M1051.3,-192.47C1043.28,-190.66 1034.86,-188.76 1027,-187 966.46,-173.41 896.69,-157.85 851.32,-147.75"/>
<polygon fill="#63b8ff" stroke="#63b8ff" points="851.98,-144.31 841.45,-145.55 850.45,-151.14 851.98,-144.31"/>
</g>
<!-- Node45 -->
<g id="node45" class="node">
<title>Node45</title>
<g id="a_node45"><a xlink:title=" ">
<polygon fill="#e0e0e0" stroke="#999999" points="1008,-145.5 880,-145.5 880,-126.5 1008,-126.5 1008,-145.5"/>
<text text-anchor="middle" x="944" y="-133.5" font-family="Helvetica,sans-Serif" font-size="10.00">xdg&#45;shell&#45;client&#45;protocol.h</text>
</a>
</g>
</g>
<!-- Node41&#45;&gt;Node45 -->
<g id="edge87" class="edge">
<title>Node41&#45;&gt;Node45</title>
<path fill="none" stroke="#63b8ff" d="M1069.44,-192.37C1044.69,-181.44 1001.83,-162.52 973.19,-149.88"/>
<polygon fill="#63b8ff" stroke="#63b8ff" points="974.27,-146.54 963.71,-145.7 971.44,-152.94 974.27,-146.54"/>
</g>
</g>
</svg>
