<?xml version="1.0" encoding="UTF-8" standalone="no"?>
<!DOCTYPE svg PUBLIC "-//W3C//DTD SVG 1.1//EN"
 "http://www.w3.org/Graphics/SVG/1.1/DTD/svg11.dtd">
<!-- Generated by graphviz version 2.43.0 (0)
 -->
<!-- Title: /home/joel.winarske@toyotaconnected.com/development/stargate/ivi&#45;homescreen/shell/static_plugins/text_input/text_input.cc Pages: 1 -->
<svg width="2852pt" height="452pt"
 viewBox="0.00 0.00 2851.50 452.00" xmlns="http://www.w3.org/2000/svg" xmlns:xlink="http://www.w3.org/1999/xlink">
<g id="graph0" class="graph" transform="scale(1 1) rotate(0) translate(4 448)">
<title>/home/joel.winarske@toyotaconnected.com/development/stargate/ivi&#45;homescreen/shell/static_plugins/text_input/text_input.cc</title>
<polygon fill="white" stroke="transparent" points="-4,4 -4,-448 2847.5,-448 2847.5,4 -4,4"/>
<!-- Node1 -->
<g id="node1" class="node">
<title>Node1</title>
<g id="a_node1"><a xlink:title=" ">
<polygon fill="#bfbfbf" stroke="black" points="812,-369.5 812,-443.5 952,-443.5 952,-369.5 812,-369.5"/>
<text text-anchor="start" x="820" y="-431.5" font-family="Helvetica,sans-Serif" font-size="10.00">/home/joel.winarske</text>
<text text-anchor="start" x="820" y="-420.5" font-family="Helvetica,sans-Serif" font-size="10.00">@toyotaconnected.com</text>
<text text-anchor="start" x="820" y="-409.5" font-family="Helvetica,sans-Serif" font-size="10.00">/development/stargate</text>
<text text-anchor="start" x="820" y="-398.5" font-family="Helvetica,sans-Serif" font-size="10.00">/ivi&#45;homescreen/shell</text>
<text text-anchor="start" x="820" y="-387.5" font-family="Helvetica,sans-Serif" font-size="10.00">/static_plugins/text_input</text>
<text text-anchor="middle" x="882" y="-376.5" font-family="Helvetica,sans-Serif" font-size="10.00">/text_input.cc</text>
</a>
</g>
</g>
<!-- Node2 -->
<g id="node2" class="node">
<title>Node2</title>
<g id="a_node2"><a xlink:href="text__input_8h.html" target="_top" xlink:title=" ">
<polygon fill="white" stroke="black" points="1784.5,-196 1784.5,-215 1859.5,-215 1859.5,-196 1784.5,-196"/>
<text text-anchor="middle" x="1822" y="-203" font-family="Helvetica,sans-Serif" font-size="10.00">text_input.h</text>
</a>
</g>
</g>
<!-- Node1&#45;&gt;Node2 -->
<g id="edge1" class="edge">
<title>Node1&#45;&gt;Node2</title>
<path fill="none" stroke="midnightblue" d="M952.37,-395.22C1079.55,-376.08 1355.74,-331.88 1585,-277 1657.58,-259.63 1740.88,-233.34 1786.87,-218.25"/>
<polygon fill="midnightblue" stroke="midnightblue" points="1788.24,-221.49 1796.64,-215.03 1786.05,-214.84 1788.24,-221.49"/>
</g>
<!-- Node4 -->
<g id="node4" class="node">
<title>Node4</title>
<g id="a_node4"><a xlink:title=" ">
<polygon fill="white" stroke="#bfbfbf" points="598,-129 598,-148 656,-148 656,-129 598,-129"/>
<text text-anchor="middle" x="627" y="-136" font-family="Helvetica,sans-Serif" font-size="10.00">memory</text>
</a>
</g>
</g>
<!-- Node1&#45;&gt;Node4 -->
<g id="edge18" class="edge">
<title>Node1&#45;&gt;Node4</title>
<path fill="none" stroke="midnightblue" d="M811.93,-398.8C682.62,-384.84 414.56,-347.87 359,-277 313.86,-219.43 361.27,-262.91 461,-221 511.96,-199.58 569.47,-170.11 601.66,-153.1"/>
<polygon fill="midnightblue" stroke="midnightblue" points="603.61,-156.03 610.8,-148.25 600.33,-149.84 603.61,-156.03"/>
</g>
<!-- Node18 -->
<g id="node18" class="node">
<title>Node18</title>
<g id="a_node18"><a xlink:href="engine_8h.html" target="_top" xlink:title=" ">
<polygon fill="white" stroke="black" points="852.5,-313.5 852.5,-332.5 911.5,-332.5 911.5,-313.5 852.5,-313.5"/>
<text text-anchor="middle" x="882" y="-320.5" font-family="Helvetica,sans-Serif" font-size="10.00">engine.h</text>
</a>
</g>
</g>
<!-- Node1&#45;&gt;Node18 -->
<g id="edge19" class="edge">
<title>Node1&#45;&gt;Node18</title>
<path fill="none" stroke="midnightblue" d="M882,-369.04C882,-359.93 882,-350.53 882,-342.69"/>
<polygon fill="midnightblue" stroke="midnightblue" points="885.5,-342.53 882,-332.53 878.5,-342.53 885.5,-342.53"/>
</g>
<!-- Node3 -->
<g id="node3" class="node">
<title>Node3</title>
<g id="a_node3"><a xlink:title=" ">
<polygon fill="white" stroke="#bfbfbf" points="1487,-129 1487,-148 1525,-148 1525,-129 1487,-129"/>
<text text-anchor="middle" x="1506" y="-136" font-family="Helvetica,sans-Serif" font-size="10.00">map</text>
</a>
</g>
</g>
<!-- Node2&#45;&gt;Node3 -->
<g id="edge2" class="edge">
<title>Node2&#45;&gt;Node3</title>
<path fill="none" stroke="midnightblue" d="M1784.28,-201.56C1728.38,-196.4 1620.81,-183.32 1534,-154 1532.57,-153.52 1531.13,-152.97 1529.69,-152.38"/>
<polygon fill="midnightblue" stroke="midnightblue" points="1530.99,-149.13 1520.45,-148.05 1528.02,-155.46 1530.99,-149.13"/>
</g>
<!-- Node2&#45;&gt;Node4 -->
<g id="edge3" class="edge">
<title>Node2&#45;&gt;Node4</title>
<path fill="none" stroke="midnightblue" d="M1784.29,-202.87C1585.52,-194.3 668.51,-154.73 665,-154 661.92,-153.36 658.76,-152.51 655.64,-151.53"/>
<polygon fill="midnightblue" stroke="midnightblue" points="656.57,-148.14 645.97,-148.11 654.23,-154.74 656.57,-148.14"/>
</g>
<!-- Node5 -->
<g id="node5" class="node">
<title>Node5</title>
<g id="a_node5"><a xlink:title=" ">
<polygon fill="white" stroke="#bfbfbf" points="1285,-129 1285,-148 1329,-148 1329,-129 1285,-129"/>
<text text-anchor="middle" x="1307" y="-136" font-family="Helvetica,sans-Serif" font-size="10.00">string</text>
</a>
</g>
</g>
<!-- Node2&#45;&gt;Node5 -->
<g id="edge4" class="edge">
<title>Node2&#45;&gt;Node5</title>
<path fill="none" stroke="midnightblue" d="M1784.48,-204.79C1702.09,-204.52 1499.8,-198.91 1338,-154 1336.07,-153.46 1334.11,-152.82 1332.16,-152.1"/>
<polygon fill="midnightblue" stroke="midnightblue" points="1333.27,-148.77 1322.7,-148.08 1330.53,-155.21 1333.27,-148.77"/>
</g>
<!-- Node6 -->
<g id="node6" class="node">
<title>Node6</title>
<g id="a_node6"><a xlink:title=" ">
<polygon fill="white" stroke="#bfbfbf" points="1543.5,-129 1543.5,-148 1690.5,-148 1690.5,-129 1543.5,-129"/>
<text text-anchor="middle" x="1617" y="-136" font-family="Helvetica,sans-Serif" font-size="10.00">flutter/binary_messenger.h</text>
</a>
</g>
</g>
<!-- Node2&#45;&gt;Node6 -->
<g id="edge5" class="edge">
<title>Node2&#45;&gt;Node6</title>
<path fill="none" stroke="midnightblue" d="M1794.78,-195.87C1758.53,-184.38 1694.3,-164.01 1653.77,-151.16"/>
<polygon fill="midnightblue" stroke="midnightblue" points="1654.6,-147.75 1644.01,-148.06 1652.48,-154.42 1654.6,-147.75"/>
</g>
<!-- Node7 -->
<g id="node7" class="node">
<title>Node7</title>
<g id="a_node7"><a xlink:title=" ">
<polygon fill="white" stroke="#bfbfbf" points="2496.5,-129 2496.5,-148 2635.5,-148 2635.5,-129 2496.5,-129"/>
<text text-anchor="middle" x="2566" y="-136" font-family="Helvetica,sans-Serif" font-size="10.00">flutter/method_channel.h</text>
</a>
</g>
</g>
<!-- Node2&#45;&gt;Node7 -->
<g id="edge6" class="edge">
<title>Node2&#45;&gt;Node7</title>
<path fill="none" stroke="midnightblue" d="M1859.64,-203.04C1961.22,-198.79 2249.31,-184.75 2487,-154 2495.84,-152.86 2505.2,-151.38 2514.25,-149.81"/>
<polygon fill="midnightblue" stroke="midnightblue" points="2515.08,-153.21 2524.31,-148 2513.85,-146.32 2515.08,-153.21"/>
</g>
<!-- Node8 -->
<g id="node8" class="node">
<title>Node8</title>
<g id="a_node8"><a xlink:title=" ">
<polygon fill="white" stroke="#bfbfbf" points="1953.5,-123.5 1953.5,-153.5 2072.5,-153.5 2072.5,-123.5 1953.5,-123.5"/>
<text text-anchor="start" x="1961.5" y="-141.5" font-family="Helvetica,sans-Serif" font-size="10.00">flutter/method_result</text>
<text text-anchor="middle" x="2013" y="-130.5" font-family="Helvetica,sans-Serif" font-size="10.00">_functions.h</text>
</a>
</g>
</g>
<!-- Node2&#45;&gt;Node8 -->
<g id="edge7" class="edge">
<title>Node2&#45;&gt;Node8</title>
<path fill="none" stroke="midnightblue" d="M1847.36,-195.87C1876.52,-185.95 1925.12,-169.41 1962.15,-156.81"/>
<polygon fill="midnightblue" stroke="midnightblue" points="1963.44,-160.06 1971.78,-153.53 1961.18,-153.44 1963.44,-160.06"/>
</g>
<!-- Node9 -->
<g id="node9" class="node">
<title>Node9</title>
<g id="a_node9"><a xlink:title=" ">
<polygon fill="white" stroke="#bfbfbf" points="739.5,-129 739.5,-148 852.5,-148 852.5,-129 739.5,-129"/>
<text text-anchor="middle" x="796" y="-136" font-family="Helvetica,sans-Serif" font-size="10.00">flutter/fml/macros.h</text>
</a>
</g>
</g>
<!-- Node2&#45;&gt;Node9 -->
<g id="edge8" class="edge">
<title>Node2&#45;&gt;Node9</title>
<path fill="none" stroke="midnightblue" d="M1784.39,-202.86C1634.07,-196.25 1076.12,-171.07 900,-154 887.33,-152.77 873.83,-151.13 860.9,-149.4"/>
<polygon fill="midnightblue" stroke="midnightblue" points="861.07,-145.89 850.68,-148 860.11,-152.83 861.07,-145.89"/>
</g>
<!-- Node10 -->
<g id="node10" class="node">
<title>Node10</title>
<g id="a_node10"><a xlink:title=" ">
<polygon fill="white" stroke="#bfbfbf" points="2090.5,-123.5 2090.5,-153.5 2261.5,-153.5 2261.5,-123.5 2090.5,-123.5"/>
<text text-anchor="start" x="2098.5" y="-141.5" font-family="Helvetica,sans-Serif" font-size="10.00">flutter/shell/platform</text>
<text text-anchor="middle" x="2176" y="-130.5" font-family="Helvetica,sans-Serif" font-size="10.00">/common/json_method_codec.h</text>
</a>
</g>
</g>
<!-- Node2&#45;&gt;Node10 -->
<g id="edge9" class="edge">
<title>Node2&#45;&gt;Node10</title>
<path fill="none" stroke="midnightblue" d="M1859.55,-197.61C1913.85,-187.64 2015.83,-168.91 2089.37,-155.41"/>
<polygon fill="midnightblue" stroke="midnightblue" points="2090.34,-158.79 2099.55,-153.54 2089.08,-151.9 2090.34,-158.79"/>
</g>
<!-- Node11 -->
<g id="node11" class="node">
<title>Node11</title>
<g id="a_node11"><a xlink:title=" ">
<polygon fill="white" stroke="#bfbfbf" points="2318,-123.5 2318,-153.5 2478,-153.5 2478,-123.5 2318,-123.5"/>
<text text-anchor="start" x="2326" y="-141.5" font-family="Helvetica,sans-Serif" font-size="10.00">flutter/shell/platform</text>
<text text-anchor="middle" x="2398" y="-130.5" font-family="Helvetica,sans-Serif" font-size="10.00">/common/text_input_model.h</text>
</a>
</g>
</g>
<!-- Node2&#45;&gt;Node11 -->
<g id="edge10" class="edge">
<title>Node2&#45;&gt;Node11</title>
<path fill="none" stroke="midnightblue" d="M1859.57,-201.19C1940.8,-193.9 2138.78,-175.38 2304,-154 2305.27,-153.84 2306.54,-153.67 2307.83,-153.5"/>
<polygon fill="midnightblue" stroke="midnightblue" points="2308.35,-156.96 2317.78,-152.14 2307.4,-150.02 2308.35,-156.96"/>
</g>
<!-- Node12 -->
<g id="node12" class="node">
<title>Node12</title>
<g id="a_node12"><a xlink:title=" ">
<polygon fill="white" stroke="#bfbfbf" points="1347,-129 1347,-148 1469,-148 1469,-129 1347,-129"/>
<text text-anchor="middle" x="1408" y="-136" font-family="Helvetica,sans-Serif" font-size="10.00">rapidjson/document.h</text>
</a>
</g>
</g>
<!-- Node2&#45;&gt;Node12 -->
<g id="edge11" class="edge">
<title>Node2&#45;&gt;Node12</title>
<path fill="none" stroke="midnightblue" d="M1784.47,-199.72C1721.12,-191.49 1589,-173.63 1478,-154 1471.27,-152.81 1464.19,-151.46 1457.23,-150.07"/>
<polygon fill="midnightblue" stroke="midnightblue" points="1457.66,-146.59 1447.17,-148.03 1456.27,-153.45 1457.66,-146.59"/>
</g>
<!-- Node13 -->
<g id="node13" class="node">
<title>Node13</title>
<g id="a_node13"><a xlink:title=" ">
<polygon fill="white" stroke="#bfbfbf" points="1419.5,-0.5 1419.5,-30.5 1556.5,-30.5 1556.5,-0.5 1419.5,-0.5"/>
<text text-anchor="start" x="1427.5" y="-18.5" font-family="Helvetica,sans-Serif" font-size="10.00">shell/platform/embedder</text>
<text text-anchor="middle" x="1488" y="-7.5" font-family="Helvetica,sans-Serif" font-size="10.00">/embedder.h</text>
</a>
</g>
</g>
<!-- Node2&#45;&gt;Node13 -->
<g id="edge12" class="edge">
<title>Node2&#45;&gt;Node13</title>
<path fill="none" stroke="midnightblue" d="M1859.74,-203.07C1962.74,-198.79 2242.81,-184.42 2270,-154 2279.18,-143.73 2279.06,-133.38 2270,-123 2224.1,-70.42 1755.9,-34.08 1566.69,-21.43"/>
<polygon fill="midnightblue" stroke="midnightblue" points="1566.75,-17.92 1556.54,-20.75 1566.28,-24.91 1566.75,-17.92"/>
</g>
<!-- Node14 -->
<g id="node14" class="node">
<title>Node14</title>
<g id="a_node14"><a xlink:title=" ">
<polygon fill="white" stroke="#bfbfbf" points="1747,-129 1747,-148 1897,-148 1897,-129 1747,-129"/>
<text text-anchor="middle" x="1822" y="-136" font-family="Helvetica,sans-Serif" font-size="10.00">xkbcommon/xkbcommon.h</text>
</a>
</g>
</g>
<!-- Node2&#45;&gt;Node14 -->
<g id="edge13" class="edge">
<title>Node2&#45;&gt;Node14</title>
<path fill="none" stroke="midnightblue" d="M1822,-195.73C1822,-186.18 1822,-170.62 1822,-158.28"/>
<polygon fill="midnightblue" stroke="midnightblue" points="1825.5,-158.13 1822,-148.13 1818.5,-158.13 1825.5,-158.13"/>
</g>
<!-- Node15 -->
<g id="node15" class="node">
<title>Node15</title>
<g id="a_node15"><a xlink:href="constants_8h.html" target="_top" xlink:title=" ">
<polygon fill="white" stroke="black" points="844.5,-67.5 844.5,-86.5 917.5,-86.5 917.5,-67.5 844.5,-67.5"/>
<text text-anchor="middle" x="881" y="-74.5" font-family="Helvetica,sans-Serif" font-size="10.00">constants.h</text>
</a>
</g>
</g>
<!-- Node2&#45;&gt;Node15 -->
<g id="edge14" class="edge">
<title>Node2&#45;&gt;Node15</title>
<path fill="none" stroke="midnightblue" d="M1842.74,-195.91C1875.34,-181.28 1932.27,-150.45 1906,-123 1871.78,-87.24 1124.19,-79.65 927.87,-78.28"/>
<polygon fill="midnightblue" stroke="midnightblue" points="927.63,-74.77 917.6,-78.21 927.58,-81.77 927.63,-74.77"/>
</g>
<!-- Node15&#45;&gt;Node13 -->
<g id="edge16" class="edge">
<title>Node15&#45;&gt;Node13</title>
<path fill="none" stroke="midnightblue" d="M917.6,-72.41C1014.03,-62.96 1276.7,-37.21 1409.25,-24.22"/>
<polygon fill="midnightblue" stroke="midnightblue" points="1409.73,-27.69 1419.34,-23.23 1409.05,-20.72 1409.73,-27.69"/>
</g>
<!-- Node16 -->
<g id="node16" class="node">
<title>Node16</title>
<g id="a_node16"><a xlink:title=" ">
<polygon fill="white" stroke="#bfbfbf" points="2238,-6 2238,-25 2300,-25 2300,-6 2238,-6"/>
<text text-anchor="middle" x="2269" y="-13" font-family="Helvetica,sans-Serif" font-size="10.00">EGL/egl.h</text>
</a>
</g>
</g>
<!-- Node15&#45;&gt;Node16 -->
<g id="edge15" class="edge">
<title>Node15&#45;&gt;Node16</title>
<path fill="none" stroke="midnightblue" d="M917.77,-74.42C1112.56,-66.07 2022.82,-27.05 2227.89,-18.26"/>
<polygon fill="midnightblue" stroke="midnightblue" points="2228.1,-21.76 2237.94,-17.83 2227.8,-14.76 2228.1,-21.76"/>
</g>
<!-- Node17 -->
<g id="node17" class="node">
<title>Node17</title>
<g id="a_node17"><a xlink:title=" ">
<polygon fill="white" stroke="#bfbfbf" points="860,-6 860,-25 902,-25 902,-6 860,-6"/>
<text text-anchor="middle" x="881" y="-13" font-family="Helvetica,sans-Serif" font-size="10.00">array</text>
</a>
</g>
</g>
<!-- Node15&#45;&gt;Node17 -->
<g id="edge17" class="edge">
<title>Node15&#45;&gt;Node17</title>
<path fill="none" stroke="midnightblue" d="M881,-67.48C881,-59.08 881,-45.98 881,-35.16"/>
<polygon fill="midnightblue" stroke="midnightblue" points="884.5,-35.01 881,-25.01 877.5,-35.01 884.5,-35.01"/>
</g>
<!-- Node18&#45;&gt;Node2 -->
<g id="edge54" class="edge">
<title>Node18&#45;&gt;Node2</title>
<path fill="none" stroke="midnightblue" d="M911.76,-321.58C1003.12,-319.92 1287.51,-312.11 1520,-277 1615.42,-262.59 1725.27,-233.8 1782.56,-217.83"/>
<polygon fill="midnightblue" stroke="midnightblue" points="1783.62,-221.17 1792.3,-215.1 1781.73,-214.43 1783.62,-221.17"/>
</g>
<!-- Node18&#45;&gt;Node3 -->
<g id="edge25" class="edge">
<title>Node18&#45;&gt;Node3</title>
<path fill="none" stroke="midnightblue" d="M911.66,-320.87C1005.06,-317.08 1292.13,-303.52 1381,-277 1431.68,-261.88 1453.54,-262.76 1486,-221 1500.15,-202.8 1504.45,-175.96 1505.67,-158.11"/>
<polygon fill="midnightblue" stroke="midnightblue" points="1509.17,-158.23 1506.09,-148.09 1502.17,-157.94 1509.17,-158.23"/>
</g>
<!-- Node18&#45;&gt;Node4 -->
<g id="edge26" class="edge">
<title>Node18&#45;&gt;Node4</title>
<path fill="none" stroke="midnightblue" d="M875.58,-313.24C865.59,-299.98 845.23,-274.52 824,-257 768.93,-211.55 694.36,-172.12 654.62,-152.58"/>
<polygon fill="midnightblue" stroke="midnightblue" points="655.83,-149.27 645.3,-148.05 652.77,-155.57 655.83,-149.27"/>
</g>
<!-- Node18&#45;&gt;Node5 -->
<g id="edge29" class="edge">
<title>Node18&#45;&gt;Node5</title>
<path fill="none" stroke="midnightblue" d="M911.64,-318.28C994.62,-307.28 1226.79,-272.48 1281,-221 1298.3,-204.57 1304.13,-176.66 1306.07,-158.16"/>
<polygon fill="midnightblue" stroke="midnightblue" points="1309.57,-158.27 1306.84,-148.03 1302.59,-157.74 1309.57,-158.27"/>
</g>
<!-- Node18&#45;&gt;Node13 -->
<g id="edge24" class="edge">
<title>Node18&#45;&gt;Node13</title>
<path fill="none" stroke="midnightblue" d="M911.79,-321.54C1133.77,-317.82 2524.6,-289.18 2645,-154 2654.16,-143.71 2654.2,-133.25 2645,-123 2490.62,49 2358.12,-88.54 2128,-67 1926.09,-48.1 1687.9,-30.56 1566.99,-21.99"/>
<polygon fill="midnightblue" stroke="midnightblue" points="1566.94,-18.48 1556.72,-21.26 1566.45,-25.46 1566.94,-18.48"/>
</g>
<!-- Node18&#45;&gt;Node15 -->
<g id="edge35" class="edge">
<title>Node18&#45;&gt;Node15</title>
<path fill="none" stroke="midnightblue" d="M852.21,-321.22C755.59,-318.43 451.78,-307.38 359,-277 352.76,-274.96 160.22,-159.73 157,-154 150.25,-141.99 147.56,-133.04 157,-123 180.24,-98.27 677.61,-83.28 834.22,-79.16"/>
<polygon fill="midnightblue" stroke="midnightblue" points="834.56,-82.66 844.47,-78.9 834.38,-75.66 834.56,-82.66"/>
</g>
<!-- Node18&#45;&gt;Node16 -->
<g id="edge21" class="edge">
<title>Node18&#45;&gt;Node16</title>
<path fill="none" stroke="midnightblue" d="M911.7,-321.72C1147.06,-319.35 2702,-300.15 2702,-206.5 2702,-206.5 2702,-206.5 2702,-137.5 2702,-56.67 2418.61,-27.43 2310.36,-19.21"/>
<polygon fill="midnightblue" stroke="midnightblue" points="2310.37,-15.7 2300.14,-18.46 2309.86,-22.68 2310.37,-15.7"/>
</g>
<!-- Node19 -->
<g id="node19" class="node">
<title>Node19</title>
<g id="a_node19"><a xlink:title=" ">
<polygon fill="white" stroke="#bfbfbf" points="368.5,-257.5 368.5,-276.5 433.5,-276.5 433.5,-257.5 368.5,-257.5"/>
<text text-anchor="middle" x="401" y="-264.5" font-family="Helvetica,sans-Serif" font-size="10.00">functional</text>
</a>
</g>
</g>
<!-- Node18&#45;&gt;Node19 -->
<g id="edge20" class="edge">
<title>Node18&#45;&gt;Node19</title>
<path fill="none" stroke="midnightblue" d="M852.31,-320.08C782.74,-315.34 603.61,-301.74 443.95,-276.99"/>
<polygon fill="midnightblue" stroke="midnightblue" points="444.37,-273.51 433.95,-275.42 443.29,-280.42 444.37,-273.51"/>
</g>
<!-- Node20 -->
<g id="node20" class="node">
<title>Node20</title>
<g id="a_node20"><a xlink:title=" ">
<polygon fill="white" stroke="#bfbfbf" points="452,-257.5 452,-276.5 526,-276.5 526,-257.5 452,-257.5"/>
<text text-anchor="middle" x="489" y="-264.5" font-family="Helvetica,sans-Serif" font-size="10.00">GLES2/gl2.h</text>
</a>
</g>
</g>
<!-- Node18&#45;&gt;Node20 -->
<g id="edge22" class="edge">
<title>Node18&#45;&gt;Node20</title>
<path fill="none" stroke="midnightblue" d="M852.2,-318.79C793.64,-312.34 659.26,-296.85 536.1,-277.09"/>
<polygon fill="midnightblue" stroke="midnightblue" points="536.55,-273.62 526.12,-275.48 535.43,-280.53 536.55,-273.62"/>
</g>
<!-- Node21 -->
<g id="node21" class="node">
<title>Node21</title>
<g id="a_node21"><a xlink:title=" ">
<polygon fill="white" stroke="#bfbfbf" points="544,-257.5 544,-276.5 684,-276.5 684,-257.5 544,-257.5"/>
<text text-anchor="middle" x="614" y="-264.5" font-family="Helvetica,sans-Serif" font-size="10.00">flutter/encodable_value.h</text>
</a>
</g>
</g>
<!-- Node18&#45;&gt;Node21 -->
<g id="edge23" class="edge">
<title>Node18&#45;&gt;Node21</title>
<path fill="none" stroke="midnightblue" d="M852.3,-316.01C807.52,-306.99 722.08,-289.78 666.61,-278.6"/>
<polygon fill="midnightblue" stroke="midnightblue" points="667.11,-275.13 656.62,-276.59 665.73,-281.99 667.11,-275.13"/>
</g>
<!-- Node22 -->
<g id="node22" class="node">
<title>Node22</title>
<g id="a_node22"><a xlink:title=" ">
<polygon fill="white" stroke="#bfbfbf" points="702,-257.5 702,-276.5 750,-276.5 750,-257.5 702,-257.5"/>
<text text-anchor="middle" x="726" y="-264.5" font-family="Helvetica,sans-Serif" font-size="10.00">mutex</text>
</a>
</g>
</g>
<!-- Node18&#45;&gt;Node22 -->
<g id="edge27" class="edge">
<title>Node18&#45;&gt;Node22</title>
<path fill="none" stroke="midnightblue" d="M857.28,-313.44C831,-304.35 789.25,-289.9 759.91,-279.74"/>
<polygon fill="midnightblue" stroke="midnightblue" points="760.69,-276.3 750.09,-276.34 758.4,-282.92 760.69,-276.3"/>
</g>
<!-- Node23 -->
<g id="node23" class="node">
<title>Node23</title>
<g id="a_node23"><a xlink:title=" ">
<polygon fill="white" stroke="#bfbfbf" points="768.5,-257.5 768.5,-276.5 815.5,-276.5 815.5,-257.5 768.5,-257.5"/>
<text text-anchor="middle" x="792" y="-264.5" font-family="Helvetica,sans-Serif" font-size="10.00">queue</text>
</a>
</g>
</g>
<!-- Node18&#45;&gt;Node23 -->
<g id="edge28" class="edge">
<title>Node18&#45;&gt;Node23</title>
<path fill="none" stroke="midnightblue" d="M867.54,-313.32C853.5,-304.9 831.95,-291.97 815.46,-282.07"/>
<polygon fill="midnightblue" stroke="midnightblue" points="816.8,-278.8 806.42,-276.65 813.2,-284.8 816.8,-278.8"/>
</g>
<!-- Node24 -->
<g id="node24" class="node">
<title>Node24</title>
<g id="a_node24"><a xlink:title=" ">
<polygon fill="white" stroke="#bfbfbf" points="674.5,-129 674.5,-148 721.5,-148 721.5,-129 674.5,-129"/>
<text text-anchor="middle" x="698" y="-136" font-family="Helvetica,sans-Serif" font-size="10.00">vector</text>
</a>
</g>
</g>
<!-- Node18&#45;&gt;Node24 -->
<g id="edge30" class="edge">
<title>Node18&#45;&gt;Node24</title>
<path fill="none" stroke="midnightblue" d="M883.27,-313.26C886.11,-289.96 890.45,-225.66 858,-190 818.23,-146.29 785.52,-174.25 730,-154 728.38,-153.41 726.74,-152.78 725.08,-152.11"/>
<polygon fill="midnightblue" stroke="midnightblue" points="726.31,-148.83 715.74,-148.11 723.56,-155.27 726.31,-148.83"/>
</g>
<!-- Node25 -->
<g id="node25" class="node">
<title>Node25</title>
<g id="a_node25"><a xlink:href="backend_8h.html" target="_top" xlink:title=" ">
<polygon fill="white" stroke="black" points="0,-129 0,-148 110,-148 110,-129 0,-129"/>
<text text-anchor="middle" x="55" y="-136" font-family="Helvetica,sans-Serif" font-size="10.00">backend/backend.h</text>
</a>
</g>
</g>
<!-- Node18&#45;&gt;Node25 -->
<g id="edge31" class="edge">
<title>Node18&#45;&gt;Node25</title>
<path fill="none" stroke="midnightblue" d="M852.16,-321.22C750.35,-318.15 418.59,-305.68 317,-277 217.87,-249.02 112.32,-183.74 71.79,-154.33"/>
<polygon fill="midnightblue" stroke="midnightblue" points="73.85,-151.5 63.75,-148.31 69.65,-157.1 73.85,-151.5"/>
</g>
<!-- Node26 -->
<g id="node26" class="node">
<title>Node26</title>
<g id="a_node26"><a xlink:href="logging_8h.html" target="_top" xlink:title=" ">
<polygon fill="white" stroke="black" points="2743,-257.5 2743,-276.5 2805,-276.5 2805,-257.5 2743,-257.5"/>
<text text-anchor="middle" x="2774" y="-264.5" font-family="Helvetica,sans-Serif" font-size="10.00">logging.h</text>
</a>
</g>
</g>
<!-- Node18&#45;&gt;Node26 -->
<g id="edge36" class="edge">
<title>Node18&#45;&gt;Node26</title>
<path fill="none" stroke="midnightblue" d="M911.75,-321.8C1118.57,-320.32 2344.64,-310.23 2716,-277 2721.46,-276.51 2727.18,-275.83 2732.81,-275.06"/>
<polygon fill="midnightblue" stroke="midnightblue" points="2733.4,-278.51 2742.79,-273.6 2732.38,-271.59 2733.4,-278.51"/>
</g>
<!-- Node28 -->
<g id="node28" class="node">
<title>Node28</title>
<g id="a_node28"><a xlink:href="platform__channel_8h.html" target="_top" xlink:title=" ">
<polygon fill="white" stroke="black" points="1366.5,-196 1366.5,-215 1477.5,-215 1477.5,-196 1366.5,-196"/>
<text text-anchor="middle" x="1422" y="-203" font-family="Helvetica,sans-Serif" font-size="10.00">platform_channel.h</text>
</a>
</g>
</g>
<!-- Node18&#45;&gt;Node28 -->
<g id="edge38" class="edge">
<title>Node18&#45;&gt;Node28</title>
<path fill="none" stroke="midnightblue" d="M911.6,-321.77C1002.04,-320.66 1273.38,-314.23 1352,-277 1376.99,-265.17 1398.13,-240.51 1410.45,-223.73"/>
<polygon fill="midnightblue" stroke="midnightblue" points="1413.45,-225.54 1416.35,-215.35 1407.73,-221.51 1413.45,-225.54"/>
</g>
<!-- Node29 -->
<g id="node29" class="node">
<title>Node29</title>
<g id="a_node29"><a xlink:href="key__event_8h.html" target="_top" xlink:title=" ">
<polygon fill="white" stroke="black" points="1160,-190.5 1160,-220.5 1272,-220.5 1272,-190.5 1160,-190.5"/>
<text text-anchor="start" x="1168" y="-208.5" font-family="Helvetica,sans-Serif" font-size="10.00">static_plugins/key</text>
<text text-anchor="middle" x="1216" y="-197.5" font-family="Helvetica,sans-Serif" font-size="10.00">_event/key_event.h</text>
</a>
</g>
</g>
<!-- Node18&#45;&gt;Node29 -->
<g id="edge42" class="edge">
<title>Node18&#45;&gt;Node29</title>
<path fill="none" stroke="midnightblue" d="M911.53,-313.46C941.14,-304.77 987.96,-290.66 1028,-277 1077.21,-260.21 1132.9,-239.05 1170.82,-224.31"/>
<polygon fill="midnightblue" stroke="midnightblue" points="1172.49,-227.41 1180.54,-220.52 1169.95,-220.89 1172.49,-227.41"/>
</g>
<!-- Node32 -->
<g id="node32" class="node">
<title>Node32</title>
<g id="a_node32"><a xlink:href="flutter__view_8h.html" target="_top" xlink:title=" ">
<polygon fill="white" stroke="black" points="910.5,-257.5 910.5,-276.5 1019.5,-276.5 1019.5,-257.5 910.5,-257.5"/>
<text text-anchor="middle" x="965" y="-264.5" font-family="Helvetica,sans-Serif" font-size="10.00">view/flutter_view.h</text>
</a>
</g>
</g>
<!-- Node18&#45;&gt;Node32 -->
<g id="edge55" class="edge">
<title>Node18&#45;&gt;Node32</title>
<path fill="none" stroke="midnightblue" d="M895.34,-313.32C908.16,-304.98 927.78,-292.21 942.94,-282.35"/>
<polygon fill="midnightblue" stroke="midnightblue" points="945.22,-285.04 951.7,-276.65 941.41,-279.17 945.22,-285.04"/>
</g>
<!-- Node25&#45;&gt;Node13 -->
<g id="edge32" class="edge">
<title>Node25&#45;&gt;Node13</title>
<path fill="none" stroke="midnightblue" d="M91.37,-128.94C101.85,-126.73 113.34,-124.53 124,-123 609.48,-53.17 1199.22,-26.7 1409.16,-19.07"/>
<polygon fill="midnightblue" stroke="midnightblue" points="1409.3,-22.57 1419.17,-18.71 1409.05,-15.58 1409.3,-22.57"/>
</g>
<!-- Node25&#45;&gt;Node15 -->
<g id="edge33" class="edge">
<title>Node25&#45;&gt;Node15</title>
<path fill="none" stroke="midnightblue" d="M90.64,-128.96C101.31,-126.69 113.08,-124.46 124,-123 390.95,-87.22 714.67,-79.89 833.95,-78.39"/>
<polygon fill="midnightblue" stroke="midnightblue" points="834.23,-81.88 844.18,-78.27 834.14,-74.88 834.23,-81.88"/>
</g>
<!-- Node25&#45;&gt;Node18 -->
<g id="edge34" class="edge">
<title>Node25&#45;&gt;Node18</title>
<path fill="none" stroke="midnightblue" d="M71.51,-148.13C113.78,-173.31 228.12,-246.83 335,-277 431.06,-304.12 732.92,-316.74 842.17,-320.63"/>
<polygon fill="midnightblue" stroke="midnightblue" points="842.31,-324.14 852.43,-320.99 842.56,-317.14 842.31,-324.14"/>
</g>
<!-- Node27 -->
<g id="node27" class="node">
<title>Node27</title>
<g id="a_node27"><a xlink:title=" ">
<polygon fill="white" stroke="#bfbfbf" points="2730.5,-196 2730.5,-215 2843.5,-215 2843.5,-196 2730.5,-196"/>
<text text-anchor="middle" x="2787" y="-203" font-family="Helvetica,sans-Serif" font-size="10.00">flutter/fml/logging.h</text>
</a>
</g>
</g>
<!-- Node26&#45;&gt;Node27 -->
<g id="edge37" class="edge">
<title>Node26&#45;&gt;Node27</title>
<path fill="none" stroke="midnightblue" d="M2775.86,-257.48C2777.72,-248.99 2780.62,-235.7 2783,-224.82"/>
<polygon fill="midnightblue" stroke="midnightblue" points="2786.43,-225.53 2785.14,-215.01 2779.59,-224.03 2786.43,-225.53"/>
</g>
<!-- Node28&#45;&gt;Node3 -->
<g id="edge39" class="edge">
<title>Node28&#45;&gt;Node3</title>
<path fill="none" stroke="midnightblue" d="M1433.33,-195.73C1447.06,-185.11 1470.4,-167.05 1486.92,-154.26"/>
<polygon fill="midnightblue" stroke="midnightblue" points="1489.08,-157.02 1494.85,-148.13 1484.8,-151.48 1489.08,-157.02"/>
</g>
<!-- Node28&#45;&gt;Node5 -->
<g id="edge40" class="edge">
<title>Node28&#45;&gt;Node5</title>
<path fill="none" stroke="midnightblue" d="M1406.49,-195.73C1387.09,-184.77 1353.67,-165.88 1330.97,-153.05"/>
<polygon fill="midnightblue" stroke="midnightblue" points="1332.69,-150 1322.26,-148.13 1329.25,-156.09 1332.69,-150"/>
</g>
<!-- Node28&#45;&gt;Node13 -->
<g id="edge41" class="edge">
<title>Node28&#45;&gt;Node13</title>
<path fill="none" stroke="midnightblue" d="M1477.55,-202.5C1550.17,-198.58 1671.37,-187.13 1699,-154 1746.67,-96.85 1637.66,-54.91 1559.25,-33.22"/>
<polygon fill="midnightblue" stroke="midnightblue" points="1559.94,-29.78 1549.38,-30.55 1558.12,-36.54 1559.94,-29.78"/>
</g>
<!-- Node29&#45;&gt;Node3 -->
<g id="edge43" class="edge">
<title>Node29&#45;&gt;Node3</title>
<path fill="none" stroke="midnightblue" d="M1272.15,-192.77C1276.83,-191.82 1281.49,-190.89 1286,-190 1371.18,-173.19 1395.91,-182.26 1478,-154 1479.42,-153.51 1480.86,-152.96 1482.3,-152.36"/>
<polygon fill="midnightblue" stroke="midnightblue" points="1483.98,-155.44 1491.54,-148.01 1481,-149.11 1483.98,-155.44"/>
</g>
<!-- Node29&#45;&gt;Node4 -->
<g id="edge44" class="edge">
<title>Node29&#45;&gt;Node4</title>
<path fill="none" stroke="midnightblue" d="M1159.72,-191.42C1156.78,-190.9 1153.86,-190.42 1151,-190 936.74,-158.34 876.41,-201.1 665,-154 662,-153.33 658.91,-152.47 655.86,-151.5"/>
<polygon fill="midnightblue" stroke="midnightblue" points="656.98,-148.18 646.39,-148.14 654.64,-154.78 656.98,-148.18"/>
</g>
<!-- Node29&#45;&gt;Node5 -->
<g id="edge45" class="edge">
<title>Node29&#45;&gt;Node5</title>
<path fill="none" stroke="midnightblue" d="M1235.75,-190.4C1250.86,-179.6 1271.64,-164.76 1286.86,-153.89"/>
<polygon fill="midnightblue" stroke="midnightblue" points="1288.99,-156.67 1295.09,-148.01 1284.92,-150.97 1288.99,-156.67"/>
</g>
<!-- Node29&#45;&gt;Node6 -->
<g id="edge47" class="edge">
<title>Node29&#45;&gt;Node6</title>
<path fill="none" stroke="midnightblue" d="M1272.05,-195.87C1335.61,-186.02 1442.33,-169.28 1534,-154 1542,-152.67 1550.43,-151.23 1558.73,-149.8"/>
<polygon fill="midnightblue" stroke="midnightblue" points="1559.49,-153.22 1568.74,-148.06 1558.29,-146.32 1559.49,-153.22"/>
</g>
<!-- Node29&#45;&gt;Node9 -->
<g id="edge49" class="edge">
<title>Node29&#45;&gt;Node9</title>
<path fill="none" stroke="midnightblue" d="M1159.69,-191.6C1156.76,-191.04 1153.85,-190.5 1151,-190 1025.66,-168.13 992.53,-174.74 867,-154 859.83,-152.82 852.28,-151.43 844.89,-149.99"/>
<polygon fill="midnightblue" stroke="midnightblue" points="845.46,-146.53 834.96,-148.01 844.09,-153.4 845.46,-146.53"/>
</g>
<!-- Node29&#45;&gt;Node12 -->
<g id="edge50" class="edge">
<title>Node29&#45;&gt;Node12</title>
<path fill="none" stroke="midnightblue" d="M1257.66,-190.4C1292.24,-178.69 1340.86,-162.23 1373.34,-151.23"/>
<polygon fill="midnightblue" stroke="midnightblue" points="1374.52,-154.53 1382.87,-148.01 1372.28,-147.9 1374.52,-154.53"/>
</g>
<!-- Node29&#45;&gt;Node13 -->
<g id="edge51" class="edge">
<title>Node29&#45;&gt;Node13</title>
<path fill="none" stroke="midnightblue" d="M1223.68,-190.23C1233.76,-172.58 1252.9,-142.49 1276,-123 1324.64,-81.96 1391.79,-51.66 1437.39,-34.09"/>
<polygon fill="midnightblue" stroke="midnightblue" points="1438.67,-37.35 1446.78,-30.54 1436.19,-30.81 1438.67,-37.35"/>
</g>
<!-- Node29&#45;&gt;Node14 -->
<g id="edge52" class="edge">
<title>Node29&#45;&gt;Node14</title>
<path fill="none" stroke="midnightblue" d="M1272.12,-198.73C1381.04,-187.51 1617.51,-163.06 1699,-154 1712.59,-152.49 1727.01,-150.83 1741.01,-149.2"/>
<polygon fill="midnightblue" stroke="midnightblue" points="1741.6,-152.66 1751.12,-148.02 1740.78,-145.7 1741.6,-152.66"/>
</g>
<!-- Node29&#45;&gt;Node15 -->
<g id="edge53" class="edge">
<title>Node29&#45;&gt;Node15</title>
<path fill="none" stroke="midnightblue" d="M1159.68,-191.66C1156.75,-191.08 1153.84,-190.52 1151,-190 1095.57,-179.86 941.83,-191.75 900,-154 884.1,-139.65 880.57,-114.19 880.21,-96.72"/>
<polygon fill="midnightblue" stroke="midnightblue" points="883.71,-96.64 880.33,-86.59 876.71,-96.55 883.71,-96.64"/>
</g>
<!-- Node30 -->
<g id="node30" class="node">
<title>Node30</title>
<g id="a_node30"><a xlink:title=" ">
<polygon fill="white" stroke="#bfbfbf" points="1105,-123.5 1105,-153.5 1229,-153.5 1229,-123.5 1105,-123.5"/>
<text text-anchor="start" x="1113" y="-141.5" font-family="Helvetica,sans-Serif" font-size="10.00">flutter/basic_message</text>
<text text-anchor="middle" x="1167" y="-130.5" font-family="Helvetica,sans-Serif" font-size="10.00">_channel.h</text>
</a>
</g>
</g>
<!-- Node29&#45;&gt;Node30 -->
<g id="edge46" class="edge">
<title>Node29&#45;&gt;Node30</title>
<path fill="none" stroke="midnightblue" d="M1205.37,-190.4C1199.08,-182.05 1190.96,-171.29 1183.82,-161.81"/>
<polygon fill="midnightblue" stroke="midnightblue" points="1186.43,-159.45 1177.61,-153.58 1180.84,-163.67 1186.43,-159.45"/>
</g>
<!-- Node31 -->
<g id="node31" class="node">
<title>Node31</title>
<g id="a_node31"><a xlink:title=" ">
<polygon fill="white" stroke="#bfbfbf" points="909,-123.5 909,-153.5 1087,-153.5 1087,-123.5 909,-123.5"/>
<text text-anchor="start" x="917" y="-141.5" font-family="Helvetica,sans-Serif" font-size="10.00">flutter/shell/platform</text>
<text text-anchor="middle" x="998" y="-130.5" font-family="Helvetica,sans-Serif" font-size="10.00">/common/json_message_codec.h</text>
</a>
</g>
</g>
<!-- Node29&#45;&gt;Node31 -->
<g id="edge48" class="edge">
<title>Node29&#45;&gt;Node31</title>
<path fill="none" stroke="midnightblue" d="M1168.97,-190.48C1135.56,-180.51 1090.52,-167.09 1055.06,-156.51"/>
<polygon fill="midnightblue" stroke="midnightblue" points="1055.91,-153.11 1045.33,-153.61 1053.91,-159.82 1055.91,-153.11"/>
</g>
<!-- Node32&#45;&gt;Node3 -->
<g id="edge56" class="edge">
<title>Node32&#45;&gt;Node3</title>
<path fill="none" stroke="midnightblue" d="M1019.78,-262.3C1083.45,-257.07 1191.27,-245.29 1281,-221 1316.21,-211.47 1322.59,-202.1 1357,-190 1409.93,-171.38 1425.97,-174.99 1478,-154 1479.2,-153.52 1480.42,-153 1481.64,-152.46"/>
<polygon fill="midnightblue" stroke="midnightblue" points="1483.36,-155.51 1490.84,-148.01 1480.31,-149.21 1483.36,-155.51"/>
</g>
<!-- Node32&#45;&gt;Node4 -->
<g id="edge57" class="edge">
<title>Node32&#45;&gt;Node4</title>
<path fill="none" stroke="midnightblue" d="M955.83,-257.33C938.33,-241.29 898.28,-207.08 858,-190 777.66,-155.94 748.99,-177.65 665,-154 662.35,-153.25 659.63,-152.4 656.92,-151.49"/>
<polygon fill="midnightblue" stroke="midnightblue" points="657.88,-148.11 647.28,-148.01 655.5,-154.7 657.88,-148.11"/>
</g>
<!-- Node32&#45;&gt;Node9 -->
<g id="edge63" class="edge">
<title>Node32&#45;&gt;Node9</title>
<path fill="none" stroke="midnightblue" d="M963.77,-257.2C961.13,-241.55 953.49,-208.79 934,-190 919.96,-176.46 873.46,-161.08 838.28,-150.89"/>
<polygon fill="midnightblue" stroke="midnightblue" points="838.82,-147.4 828.24,-148.03 836.9,-154.13 838.82,-147.4"/>
</g>
<!-- Node33 -->
<g id="node33" class="node">
<title>Node33</title>
<g id="a_node33"><a xlink:href="configuration_8h.html" target="_top" xlink:title=" ">
<polygon fill="white" stroke="black" points="986,-196 986,-215 1142,-215 1142,-196 986,-196"/>
<text text-anchor="middle" x="1064" y="-203" font-family="Helvetica,sans-Serif" font-size="10.00">configuration/configuration.h</text>
</a>
</g>
</g>
<!-- Node32&#45;&gt;Node33 -->
<g id="edge58" class="edge">
<title>Node32&#45;&gt;Node33</title>
<path fill="none" stroke="midnightblue" d="M979.18,-257.48C995.36,-247.75 1022.03,-231.73 1041.14,-220.24"/>
<polygon fill="midnightblue" stroke="midnightblue" points="1043.07,-223.16 1049.84,-215.01 1039.47,-217.16 1043.07,-223.16"/>
</g>
<!-- Node34 -->
<g id="node34" class="node">
<title>Node34</title>
<g id="a_node34"><a xlink:href="window_8h.html" target="_top" xlink:title=" ">
<polygon fill="white" stroke="black" points="345.5,-196 345.5,-215 452.5,-215 452.5,-196 345.5,-196"/>
<text text-anchor="middle" x="399" y="-203" font-family="Helvetica,sans-Serif" font-size="10.00">wayland/window.h</text>
</a>
</g>
</g>
<!-- Node32&#45;&gt;Node34 -->
<g id="edge64" class="edge">
<title>Node32&#45;&gt;Node34</title>
<path fill="none" stroke="midnightblue" d="M910.47,-260.27C805.29,-249.21 574.87,-224.99 462.78,-213.2"/>
<polygon fill="midnightblue" stroke="midnightblue" points="462.94,-209.7 452.63,-212.14 462.21,-216.66 462.94,-209.7"/>
</g>
<!-- Node33&#45;&gt;Node5 -->
<g id="edge59" class="edge">
<title>Node33&#45;&gt;Node5</title>
<path fill="none" stroke="midnightblue" d="M1096.02,-195.94C1142.51,-183.5 1228.21,-160.57 1274.8,-148.11"/>
<polygon fill="midnightblue" stroke="midnightblue" points="1275.91,-151.44 1284.67,-145.47 1274.1,-144.68 1275.91,-151.44"/>
</g>
<!-- Node33&#45;&gt;Node9 -->
<g id="edge61" class="edge">
<title>Node33&#45;&gt;Node9</title>
<path fill="none" stroke="midnightblue" d="M1028.69,-195.94C980.48,-184.24 894.05,-163.28 841.17,-150.46"/>
<polygon fill="midnightblue" stroke="midnightblue" points="841.93,-147.04 831.39,-148.08 840.28,-153.84 841.93,-147.04"/>
</g>
<!-- Node33&#45;&gt;Node12 -->
<g id="edge62" class="edge">
<title>Node33&#45;&gt;Node12</title>
<path fill="none" stroke="midnightblue" d="M1112.07,-195.97C1166.83,-186.18 1258.96,-169.47 1338,-154 1344.31,-152.76 1350.94,-151.43 1357.5,-150.1"/>
<polygon fill="midnightblue" stroke="midnightblue" points="1358.59,-153.45 1367.68,-148.01 1357.18,-146.59 1358.59,-153.45"/>
</g>
<!-- Node33&#45;&gt;Node24 -->
<g id="edge60" class="edge">
<title>Node33&#45;&gt;Node24</title>
<path fill="none" stroke="midnightblue" d="M992.06,-195.98C909.01,-185.72 777.73,-168.13 730,-154 728.07,-153.43 726.11,-152.76 724.15,-152.04"/>
<polygon fill="midnightblue" stroke="midnightblue" points="725.18,-148.68 714.61,-148.07 722.5,-155.14 725.18,-148.68"/>
</g>
<!-- Node34&#45;&gt;Node4 -->
<g id="edge65" class="edge">
<title>Node34&#45;&gt;Node4</title>
<path fill="none" stroke="midnightblue" d="M432.59,-195.96C469.79,-186.37 531.45,-170.02 584,-154 586.92,-153.11 589.94,-152.16 592.97,-151.18"/>
<polygon fill="midnightblue" stroke="midnightblue" points="594.12,-154.49 602.52,-148.03 591.93,-147.84 594.12,-154.49"/>
</g>
<!-- Node34&#45;&gt;Node5 -->
<g id="edge66" class="edge">
<title>Node34&#45;&gt;Node5</title>
<path fill="none" stroke="midnightblue" d="M452.76,-204C586.25,-202.16 943.33,-193.61 1238,-154 1250.07,-152.38 1263.19,-149.82 1274.71,-147.31"/>
<polygon fill="midnightblue" stroke="midnightblue" points="1275.79,-150.66 1284.77,-145.04 1274.24,-143.83 1275.79,-150.66"/>
</g>
<!-- Node34&#45;&gt;Node15 -->
<g id="edge69" class="edge">
<title>Node34&#45;&gt;Node15</title>
<path fill="none" stroke="midnightblue" d="M437.12,-195.95C468.85,-187.88 514.57,-174.02 551,-154 570.1,-143.5 569.09,-131.86 589,-123 669.9,-87.01 774.48,-79.09 834.01,-77.76"/>
<polygon fill="midnightblue" stroke="midnightblue" points="834.29,-81.25 844.23,-77.58 834.17,-74.25 834.29,-81.25"/>
</g>
<!-- Node34&#45;&gt;Node25 -->
<g id="edge70" class="edge">
<title>Node34&#45;&gt;Node25</title>
<path fill="none" stroke="midnightblue" d="M353.67,-195.94C290.94,-184.08 177.76,-162.7 110.19,-149.93"/>
<polygon fill="midnightblue" stroke="midnightblue" points="110.63,-146.45 100.15,-148.03 109.33,-153.33 110.63,-146.45"/>
</g>
<!-- Node35 -->
<g id="node35" class="node">
<title>Node35</title>
<g id="a_node35"><a xlink:title=" ">
<polygon fill="white" stroke="#bfbfbf" points="490,-129 490,-148 542,-148 542,-129 490,-129"/>
<text text-anchor="middle" x="516" y="-136" font-family="Helvetica,sans-Serif" font-size="10.00">cassert</text>
</a>
</g>
</g>
<!-- Node34&#45;&gt;Node35 -->
<g id="edge67" class="edge">
<title>Node34&#45;&gt;Node35</title>
<path fill="none" stroke="midnightblue" d="M414.78,-195.73C434.51,-184.77 468.51,-165.88 491.61,-153.05"/>
<polygon fill="midnightblue" stroke="midnightblue" points="493.43,-156.04 500.47,-148.13 490.03,-149.92 493.43,-156.04"/>
</g>
<!-- Node36 -->
<g id="node36" class="node">
<title>Node36</title>
<g id="a_node36"><a xlink:title=" ">
<polygon fill="white" stroke="#bfbfbf" points="166,-129 166,-148 308,-148 308,-129 166,-129"/>
<text text-anchor="middle" x="237" y="-136" font-family="Helvetica,sans-Serif" font-size="10.00">agl&#45;shell&#45;client&#45;protocol.h</text>
</a>
</g>
</g>
<!-- Node34&#45;&gt;Node36 -->
<g id="edge68" class="edge">
<title>Node34&#45;&gt;Node36</title>
<path fill="none" stroke="midnightblue" d="M377.49,-195.87C349.33,-184.57 299.8,-164.7 267.7,-151.82"/>
<polygon fill="midnightblue" stroke="midnightblue" points="268.93,-148.54 258.34,-148.06 266.32,-155.04 268.93,-148.54"/>
</g>
<!-- Node37 -->
<g id="node37" class="node">
<title>Node37</title>
<g id="a_node37"><a xlink:title=" ">
<polygon fill="white" stroke="#bfbfbf" points="326.5,-129 326.5,-148 471.5,-148 471.5,-129 326.5,-129"/>
<text text-anchor="middle" x="399" y="-136" font-family="Helvetica,sans-Serif" font-size="10.00">xdg&#45;shell&#45;client&#45;protocol.h</text>
</a>
</g>
</g>
<!-- Node34&#45;&gt;Node37 -->
<g id="edge71" class="edge">
<title>Node34&#45;&gt;Node37</title>
<path fill="none" stroke="midnightblue" d="M399,-195.73C399,-186.18 399,-170.62 399,-158.28"/>
<polygon fill="midnightblue" stroke="midnightblue" points="402.5,-158.13 399,-148.13 395.5,-158.13 402.5,-158.13"/>
</g>
</g>
</svg>
