<?xml version="1.0" encoding="UTF-8" standalone="no"?>
<!DOCTYPE svg PUBLIC "-//W3C//DTD SVG 1.1//EN"
 "http://www.w3.org/Graphics/SVG/1.1/DTD/svg11.dtd">
<!-- Generated by graphviz version 5.0.0 (0)
 -->
<!-- Title: /mnt/raid10/stargate/ivi&#45;homescreen/shell/textures/navi_render_egl/texture_navi_render_egl.h Pages: 1 -->
<svg width="892pt" height="236pt"
 viewBox="0.00 0.00 892.00 236.00" xmlns="http://www.w3.org/2000/svg" xmlns:xlink="http://www.w3.org/1999/xlink">
<g id="graph0" class="graph" transform="scale(1 1) rotate(0) translate(4 232)">
<title>/mnt/raid10/stargate/ivi&#45;homescreen/shell/textures/navi_render_egl/texture_navi_render_egl.h</title>
<!-- Node1 -->
<g id="node1" class="node">
<title>Node1</title>
<g id="a_node1"><a xlink:title=" ">
<polygon fill="#999999" stroke="#666666" points="300.5,-228 151.5,-228 151.5,-176 300.5,-176 300.5,-228"/>
<text text-anchor="start" x="159.5" y="-216" font-family="Helvetica,sans-Serif" font-size="10.00">/mnt/raid10/stargate</text>
<text text-anchor="start" x="159.5" y="-205" font-family="Helvetica,sans-Serif" font-size="10.00">/ivi&#45;homescreen/shell</text>
<text text-anchor="start" x="159.5" y="-194" font-family="Helvetica,sans-Serif" font-size="10.00">/textures/navi_render</text>
<text text-anchor="middle" x="226" y="-183" font-family="Helvetica,sans-Serif" font-size="10.00">_egl/texture_navi_render_egl.h</text>
</a>
</g>
</g>
<!-- Node2 -->
<g id="node2" class="node">
<title>Node2</title>
<g id="a_node2"><a xlink:title=" ">
<polygon fill="#e0e0e0" stroke="#999999" points="46,-140 0,-140 0,-121 46,-121 46,-140"/>
<text text-anchor="middle" x="23" y="-128" font-family="Helvetica,sans-Serif" font-size="10.00">atomic</text>
</a>
</g>
</g>
<!-- Node1&#45;&gt;Node2 -->
<g id="edge1" class="edge">
<title>Node1&#45;&gt;Node2</title>
<path fill="none" stroke="#63b8ff" d="M152.71,-175.91C119.63,-164.58 82.2,-151.77 56.08,-142.82"/>
<polygon fill="#63b8ff" stroke="#63b8ff" points="56.91,-139.41 46.31,-139.48 54.64,-146.03 56.91,-139.41"/>
</g>
<!-- Node3 -->
<g id="node3" class="node">
<title>Node3</title>
<g id="a_node3"><a xlink:title=" ">
<polygon fill="#e0e0e0" stroke="#999999" points="99.5,-140 64.5,-140 64.5,-121 99.5,-121 99.5,-140"/>
<text text-anchor="middle" x="82" y="-128" font-family="Helvetica,sans-Serif" font-size="10.00">map</text>
</a>
</g>
</g>
<!-- Node1&#45;&gt;Node3 -->
<g id="edge2" class="edge">
<title>Node1&#45;&gt;Node3</title>
<path fill="none" stroke="#63b8ff" d="M174.01,-175.91C151.89,-165.23 127.02,-153.23 108.72,-144.4"/>
<polygon fill="#63b8ff" stroke="#63b8ff" points="110.08,-141.16 99.55,-139.97 107.03,-147.47 110.08,-141.16"/>
</g>
<!-- Node4 -->
<g id="node4" class="node">
<title>Node4</title>
<g id="a_node4"><a xlink:title=" ">
<polygon fill="#e0e0e0" stroke="#999999" points="208,-85 156,-85 156,-66 208,-66 208,-85"/>
<text text-anchor="middle" x="182" y="-73" font-family="Helvetica,sans-Serif" font-size="10.00">memory</text>
</a>
</g>
</g>
<!-- Node1&#45;&gt;Node4 -->
<g id="edge3" class="edge">
<title>Node1&#45;&gt;Node4</title>
<path fill="none" stroke="#63b8ff" d="M221.43,-176C218.09,-159.97 212.93,-138.89 206,-121 202.39,-111.69 197.25,-101.87 192.65,-93.83"/>
<polygon fill="#63b8ff" stroke="#63b8ff" points="195.56,-91.87 187.45,-85.06 189.54,-95.44 195.56,-91.87"/>
</g>
<!-- Node5 -->
<g id="node5" class="node">
<title>Node5</title>
<g id="a_node5"><a xlink:title=" ">
<polygon fill="#e0e0e0" stroke="#999999" points="197.5,-140 156.5,-140 156.5,-121 197.5,-121 197.5,-140"/>
<text text-anchor="middle" x="177" y="-128" font-family="Helvetica,sans-Serif" font-size="10.00">string</text>
</a>
</g>
</g>
<!-- Node1&#45;&gt;Node5 -->
<g id="edge4" class="edge">
<title>Node1&#45;&gt;Node5</title>
<path fill="none" stroke="#63b8ff" d="M208.31,-175.91C201.94,-166.87 194.89,-156.88 189.11,-148.67"/>
<polygon fill="#63b8ff" stroke="#63b8ff" points="191.83,-146.46 183.21,-140.3 186.11,-150.49 191.83,-146.46"/>
</g>
<!-- Node6 -->
<g id="node6" class="node">
<title>Node6</title>
<g id="a_node6"><a xlink:title=" ">
<polygon fill="#e0e0e0" stroke="#999999" points="266,-24.5 206,-24.5 206,-5.5 266,-5.5 266,-24.5"/>
<text text-anchor="middle" x="236" y="-12.5" font-family="Helvetica,sans-Serif" font-size="10.00">EGL/egl.h</text>
</a>
</g>
</g>
<!-- Node1&#45;&gt;Node6 -->
<g id="edge5" class="edge">
<title>Node1&#45;&gt;Node6</title>
<path fill="none" stroke="#63b8ff" d="M179.34,-175.89C166.47,-166.47 154.11,-154.46 147,-140 132.5,-110.48 130.39,-94.39 147,-66 157.75,-47.63 177.99,-35.5 196.46,-27.79"/>
<polygon fill="#63b8ff" stroke="#63b8ff" points="197.83,-31.01 205.9,-24.15 195.31,-24.48 197.83,-31.01"/>
</g>
<!-- Node7 -->
<g id="node7" class="node">
<title>Node7</title>
<g id="a_node7"><a xlink:title=" ">
<polygon fill="#e0e0e0" stroke="#999999" points="331.5,-140 254.5,-140 254.5,-121 331.5,-121 331.5,-140"/>
<text text-anchor="middle" x="293" y="-128" font-family="Helvetica,sans-Serif" font-size="10.00">GLES3/gl32.h</text>
</a>
</g>
</g>
<!-- Node1&#45;&gt;Node7 -->
<g id="edge6" class="edge">
<title>Node1&#45;&gt;Node7</title>
<path fill="none" stroke="#63b8ff" d="M250.19,-175.91C259.28,-166.48 269.36,-156.02 277.46,-147.62"/>
<polygon fill="#63b8ff" stroke="#63b8ff" points="280.09,-149.93 284.51,-140.3 275.05,-145.07 280.09,-149.93"/>
</g>
<!-- Node8 -->
<g id="node8" class="node">
<title>Node8</title>
<g id="a_node8"><a xlink:title=" ">
<polygon fill="#e0e0e0" stroke="#999999" points="764.5,-30 643.5,-30 643.5,0 764.5,0 764.5,-30"/>
<text text-anchor="start" x="651.5" y="-18" font-family="Helvetica,sans-Serif" font-size="10.00">shell/platform/embedder</text>
<text text-anchor="middle" x="704" y="-7" font-family="Helvetica,sans-Serif" font-size="10.00">/embedder.h</text>
</a>
</g>
</g>
<!-- Node1&#45;&gt;Node8 -->
<g id="edge7" class="edge">
<title>Node1&#45;&gt;Node8</title>
<path fill="none" stroke="#63b8ff" d="M300.71,-196.24C435.14,-185.96 709.18,-156.53 767,-85 781.07,-67.59 761.67,-48.9 740.79,-35.37"/>
<polygon fill="#63b8ff" stroke="#63b8ff" points="742.52,-32.33 732.16,-30.09 738.86,-38.3 742.52,-32.33"/>
</g>
<!-- Node9 -->
<g id="node9" class="node">
<title>Node9</title>
<g id="a_node9"><a xlink:href="texture_8h.html" target="_top" xlink:title=" ">
<polygon fill="white" stroke="#666666" points="424,-140 360,-140 360,-121 424,-121 424,-140"/>
<text text-anchor="middle" x="392" y="-128" font-family="Helvetica,sans-Serif" font-size="10.00">../texture.h</text>
</a>
</g>
</g>
<!-- Node1&#45;&gt;Node9 -->
<g id="edge8" class="edge">
<title>Node1&#45;&gt;Node9</title>
<path fill="none" stroke="#63b8ff" d="M285.93,-175.91C311.75,-165.1 340.79,-152.94 361.96,-144.08"/>
<polygon fill="#63b8ff" stroke="#63b8ff" points="363.5,-147.23 371.37,-140.14 360.8,-140.77 363.5,-147.23"/>
</g>
<!-- Node16 -->
<g id="node16" class="node">
<title>Node16</title>
<g id="a_node16"><a xlink:href="render__api_8h.html" target="_top" xlink:title=" ">
<polygon fill="white" stroke="#666666" points="884,-140 814,-140 814,-121 884,-121 884,-140"/>
<text text-anchor="middle" x="849" y="-128" font-family="Helvetica,sans-Serif" font-size="10.00">render_api.h</text>
</a>
</g>
</g>
<!-- Node1&#45;&gt;Node16 -->
<g id="edge20" class="edge">
<title>Node1&#45;&gt;Node16</title>
<path fill="none" stroke="#63b8ff" d="M300.95,-194.62C410.74,-184.92 621.6,-164.93 800,-140 801.27,-139.82 802.57,-139.64 803.87,-139.44"/>
<polygon fill="#63b8ff" stroke="#63b8ff" points="804.64,-142.87 813.98,-137.86 803.56,-135.95 804.64,-142.87"/>
</g>
<!-- Node9&#45;&gt;Node4 -->
<g id="edge9" class="edge">
<title>Node9&#45;&gt;Node4</title>
<path fill="none" stroke="#63b8ff" d="M359.65,-121.33C321.33,-111.67 257.71,-95.61 217.9,-85.56"/>
<polygon fill="#63b8ff" stroke="#63b8ff" points="218.64,-82.14 208.08,-83.08 216.92,-88.92 218.64,-82.14"/>
</g>
<!-- Node9&#45;&gt;Node6 -->
<g id="edge11" class="edge">
<title>Node9&#45;&gt;Node6</title>
<path fill="none" stroke="#63b8ff" d="M359.71,-122.72C323.98,-114.61 269.51,-100.19 255,-85 242.28,-71.69 237.92,-50.66 236.5,-35.31"/>
<polygon fill="#63b8ff" stroke="#63b8ff" points="239.97,-34.69 235.9,-24.91 232.98,-35.09 239.97,-34.69"/>
</g>
<!-- Node9&#45;&gt;Node8 -->
<g id="edge15" class="edge">
<title>Node9&#45;&gt;Node8</title>
<path fill="none" stroke="#63b8ff" d="M424.37,-127.82C488.43,-123.93 628.51,-112.45 667,-85 682.11,-74.23 691.62,-55.33 697.21,-40.03"/>
<polygon fill="#63b8ff" stroke="#63b8ff" points="700.66,-40.75 700.48,-30.15 694.02,-38.55 700.66,-40.75"/>
</g>
<!-- Node10 -->
<g id="node10" class="node">
<title>Node10</title>
<g id="a_node10"><a xlink:title=" ">
<polygon fill="#e0e0e0" stroke="#999999" points="758,-85 714,-85 714,-66 758,-66 758,-85"/>
<text text-anchor="middle" x="736" y="-73" font-family="Helvetica,sans-Serif" font-size="10.00">vector</text>
</a>
</g>
</g>
<!-- Node9&#45;&gt;Node10 -->
<g id="edge10" class="edge">
<title>Node9&#45;&gt;Node10</title>
<path fill="none" stroke="#63b8ff" d="M424.08,-125.81C480.25,-119.15 599.95,-104 700,-85 701.28,-84.76 702.58,-84.5 703.89,-84.23"/>
<polygon fill="#63b8ff" stroke="#63b8ff" points="704.96,-87.58 713.98,-82.02 703.46,-80.74 704.96,-87.58"/>
</g>
<!-- Node11 -->
<g id="node11" class="node">
<title>Node11</title>
<g id="a_node11"><a xlink:title=" ">
<polygon fill="#e0e0e0" stroke="#999999" points="338,-85 264,-85 264,-66 338,-66 338,-85"/>
<text text-anchor="middle" x="301" y="-73" font-family="Helvetica,sans-Serif" font-size="10.00">EGL/eglext.h</text>
</a>
</g>
</g>
<!-- Node9&#45;&gt;Node11 -->
<g id="edge12" class="edge">
<title>Node9&#45;&gt;Node11</title>
<path fill="none" stroke="#63b8ff" d="M377.38,-120.98C363.14,-112.69 341.25,-99.94 324.55,-90.22"/>
<polygon fill="#63b8ff" stroke="#63b8ff" points="326.29,-87.18 315.89,-85.17 322.77,-93.23 326.29,-87.18"/>
</g>
<!-- Node12 -->
<g id="node12" class="node">
<title>Node12</title>
<g id="a_node12"><a xlink:title=" ">
<polygon fill="#e0e0e0" stroke="#999999" points="428,-85 356,-85 356,-66 428,-66 428,-85"/>
<text text-anchor="middle" x="392" y="-73" font-family="Helvetica,sans-Serif" font-size="10.00">GLES2/gl2.h</text>
</a>
</g>
</g>
<!-- Node9&#45;&gt;Node12 -->
<g id="edge13" class="edge">
<title>Node9&#45;&gt;Node12</title>
<path fill="none" stroke="#63b8ff" d="M392,-120.75C392,-113.8 392,-103.85 392,-95.13"/>
<polygon fill="#63b8ff" stroke="#63b8ff" points="395.5,-95.09 392,-85.09 388.5,-95.09 395.5,-95.09"/>
</g>
<!-- Node13 -->
<g id="node13" class="node">
<title>Node13</title>
<g id="a_node13"><a xlink:title=" ">
<polygon fill="#e0e0e0" stroke="#999999" points="571.5,-85 446.5,-85 446.5,-66 571.5,-66 571.5,-85"/>
<text text-anchor="middle" x="509" y="-73" font-family="Helvetica,sans-Serif" font-size="10.00">flutter/encodable_value.h</text>
</a>
</g>
</g>
<!-- Node9&#45;&gt;Node13 -->
<g id="edge14" class="edge">
<title>Node9&#45;&gt;Node13</title>
<path fill="none" stroke="#63b8ff" d="M410.8,-120.98C429.62,-112.46 458.82,-99.23 480.5,-89.41"/>
<polygon fill="#63b8ff" stroke="#63b8ff" points="482.2,-92.48 489.86,-85.17 479.31,-86.11 482.2,-92.48"/>
</g>
<!-- Node14 -->
<g id="node14" class="node">
<title>Node14</title>
<g id="a_node14"><a xlink:href="constants_8h.html" target="_top" xlink:title=" ">
<polygon fill="white" stroke="#666666" points="658,-85 590,-85 590,-66 658,-66 658,-85"/>
<text text-anchor="middle" x="624" y="-73" font-family="Helvetica,sans-Serif" font-size="10.00">constants.h</text>
</a>
</g>
</g>
<!-- Node9&#45;&gt;Node14 -->
<g id="edge16" class="edge">
<title>Node9&#45;&gt;Node14</title>
<path fill="none" stroke="#63b8ff" d="M424.26,-122.13C464.77,-112.88 534.47,-96.95 579.89,-86.58"/>
<polygon fill="#63b8ff" stroke="#63b8ff" points="580.78,-89.96 589.75,-84.32 579.22,-83.14 580.78,-89.96"/>
</g>
<!-- Node14&#45;&gt;Node6 -->
<g id="edge17" class="edge">
<title>Node14&#45;&gt;Node6</title>
<path fill="none" stroke="#63b8ff" d="M589.92,-67.75C586.57,-67.14 583.22,-66.55 580,-66 470.65,-47.5 341.03,-29.8 276.59,-21.28"/>
<polygon fill="#63b8ff" stroke="#63b8ff" points="276.82,-17.78 266.45,-19.94 275.9,-24.72 276.82,-17.78"/>
</g>
<!-- Node14&#45;&gt;Node8 -->
<g id="edge18" class="edge">
<title>Node14&#45;&gt;Node8</title>
<path fill="none" stroke="#63b8ff" d="M635.8,-65.87C646.46,-58.08 662.54,-46.32 676.41,-36.17"/>
<polygon fill="#63b8ff" stroke="#63b8ff" points="678.69,-38.84 684.7,-30.11 674.56,-33.19 678.69,-38.84"/>
</g>
<!-- Node15 -->
<g id="node15" class="node">
<title>Node15</title>
<g id="a_node15"><a xlink:title=" ">
<polygon fill="#e0e0e0" stroke="#999999" points="625,-24.5 587,-24.5 587,-5.5 625,-5.5 625,-24.5"/>
<text text-anchor="middle" x="606" y="-12.5" font-family="Helvetica,sans-Serif" font-size="10.00">array</text>
</a>
</g>
</g>
<!-- Node14&#45;&gt;Node15 -->
<g id="edge19" class="edge">
<title>Node14&#45;&gt;Node15</title>
<path fill="none" stroke="#63b8ff" d="M621.34,-65.87C618.82,-57.66 614.94,-45.04 611.71,-34.55"/>
<polygon fill="#63b8ff" stroke="#63b8ff" points="614.95,-33.2 608.67,-24.67 608.26,-35.25 614.95,-33.2"/>
</g>
</g>
</svg>
