<?xml version="1.0" encoding="UTF-8" standalone="no"?>
<!DOCTYPE svg PUBLIC "-//W3C//DTD SVG 1.1//EN"
 "http://www.w3.org/Graphics/SVG/1.1/DTD/svg11.dtd">
<!-- Generated by graphviz version 5.0.0 (0)
 -->
<!-- Title: /mnt/raid10/stargate/ivi&#45;homescreen/shell/static_plugins/text_input/text_input.cc Pages: 1 -->
<svg width="2835pt" height="423pt"
 viewBox="0.00 0.00 2835.00 423.00" xmlns="http://www.w3.org/2000/svg" xmlns:xlink="http://www.w3.org/1999/xlink">
<g id="graph0" class="graph" transform="scale(1 1) rotate(0) translate(4 419)">
<title>/mnt/raid10/stargate/ivi&#45;homescreen/shell/static_plugins/text_input/text_input.cc</title>
<!-- Node1 -->
<g id="node1" class="node">
<title>Node1</title>
<g id="a_node1"><a xlink:title=" ">
<polygon fill="#999999" stroke="#666666" points="1096.5,-415 971.5,-415 971.5,-363 1096.5,-363 1096.5,-415"/>
<text text-anchor="start" x="979.5" y="-403" font-family="Helvetica,sans-Serif" font-size="10.00">/mnt/raid10/stargate</text>
<text text-anchor="start" x="979.5" y="-392" font-family="Helvetica,sans-Serif" font-size="10.00">/ivi&#45;homescreen/shell</text>
<text text-anchor="start" x="979.5" y="-381" font-family="Helvetica,sans-Serif" font-size="10.00">/static_plugins/text_input</text>
<text text-anchor="middle" x="1034" y="-370" font-family="Helvetica,sans-Serif" font-size="10.00">/text_input.cc</text>
</a>
</g>
</g>
<!-- Node2 -->
<g id="node2" class="node">
<title>Node2</title>
<g id="a_node2"><a xlink:href="text__input_8h.html" target="_top" xlink:title=" ">
<polygon fill="white" stroke="#666666" points="807,-211.5 739,-211.5 739,-192.5 807,-192.5 807,-211.5"/>
<text text-anchor="middle" x="773" y="-199.5" font-family="Helvetica,sans-Serif" font-size="10.00">text_input.h</text>
</a>
</g>
</g>
<!-- Node1&#45;&gt;Node2 -->
<g id="edge1" class="edge">
<title>Node1&#45;&gt;Node2</title>
<path fill="none" stroke="#63b8ff" d="M998.53,-362.86C943.11,-323.58 837.76,-248.9 793.44,-217.49"/>
<polygon fill="#63b8ff" stroke="#63b8ff" points="795.37,-214.57 785.19,-211.64 791.33,-220.28 795.37,-214.57"/>
</g>
<!-- Node4 -->
<g id="node4" class="node">
<title>Node4</title>
<g id="a_node4"><a xlink:title=" ">
<polygon fill="#e0e0e0" stroke="#999999" points="1060,-145.5 1008,-145.5 1008,-126.5 1060,-126.5 1060,-145.5"/>
<text text-anchor="middle" x="1034" y="-133.5" font-family="Helvetica,sans-Serif" font-size="10.00">memory</text>
</a>
</g>
</g>
<!-- Node1&#45;&gt;Node4 -->
<g id="edge18" class="edge">
<title>Node1&#45;&gt;Node4</title>
<path fill="none" stroke="#63b8ff" d="M1034,-362.55C1034,-312.1 1034,-200.45 1034,-155.9"/>
<polygon fill="#63b8ff" stroke="#63b8ff" points="1037.5,-155.87 1034,-145.87 1030.5,-155.87 1037.5,-155.87"/>
</g>
<!-- Node18 -->
<g id="node18" class="node">
<title>Node18</title>
<g id="a_node18"><a xlink:href="engine_8h.html" target="_top" xlink:title=" ">
<polygon fill="white" stroke="#666666" points="1905.5,-327 1852.5,-327 1852.5,-308 1905.5,-308 1905.5,-327"/>
<text text-anchor="middle" x="1879" y="-315" font-family="Helvetica,sans-Serif" font-size="10.00">engine.h</text>
</a>
</g>
</g>
<!-- Node1&#45;&gt;Node18 -->
<g id="edge19" class="edge">
<title>Node1&#45;&gt;Node18</title>
<path fill="none" stroke="#63b8ff" d="M1096.82,-382.83C1262.93,-369.17 1710.01,-332.4 1841.89,-321.55"/>
<polygon fill="#63b8ff" stroke="#63b8ff" points="1842.58,-325.01 1852.26,-320.7 1842,-318.03 1842.58,-325.01"/>
</g>
<!-- Node3 -->
<g id="node3" class="node">
<title>Node3</title>
<g id="a_node3"><a xlink:title=" ">
<polygon fill="#e0e0e0" stroke="#999999" points="1113.5,-145.5 1078.5,-145.5 1078.5,-126.5 1113.5,-126.5 1113.5,-145.5"/>
<text text-anchor="middle" x="1096" y="-133.5" font-family="Helvetica,sans-Serif" font-size="10.00">map</text>
</a>
</g>
</g>
<!-- Node2&#45;&gt;Node3 -->
<g id="edge2" class="edge">
<title>Node2&#45;&gt;Node3</title>
<path fill="none" stroke="#63b8ff" d="M807.12,-198.69C863.09,-194.15 977.32,-181.67 1069,-151 1070.05,-150.65 1071.11,-150.26 1072.17,-149.84"/>
<polygon fill="#63b8ff" stroke="#63b8ff" points="1073.88,-152.91 1081.51,-145.56 1070.96,-146.55 1073.88,-152.91"/>
</g>
<!-- Node2&#45;&gt;Node4 -->
<g id="edge3" class="edge">
<title>Node2&#45;&gt;Node4</title>
<path fill="none" stroke="#63b8ff" d="M807.14,-195.24C851.79,-187.3 932.18,-171.6 999,-151 1000.88,-150.42 1002.79,-149.79 1004.72,-149.12"/>
<polygon fill="#63b8ff" stroke="#63b8ff" points="1006.07,-152.35 1014.21,-145.57 1003.62,-145.79 1006.07,-152.35"/>
</g>
<!-- Node5 -->
<g id="node5" class="node">
<title>Node5</title>
<g id="a_node5"><a xlink:title=" ">
<polygon fill="#e0e0e0" stroke="#999999" points="1691.5,-145.5 1650.5,-145.5 1650.5,-126.5 1691.5,-126.5 1691.5,-145.5"/>
<text text-anchor="middle" x="1671" y="-133.5" font-family="Helvetica,sans-Serif" font-size="10.00">string</text>
</a>
</g>
</g>
<!-- Node2&#45;&gt;Node5 -->
<g id="edge4" class="edge">
<title>Node2&#45;&gt;Node5</title>
<path fill="none" stroke="#63b8ff" d="M807.16,-200.69C920.76,-199.28 1296.03,-191.63 1603,-151 1615.26,-149.38 1628.61,-146.81 1640.22,-144.31"/>
<polygon fill="#63b8ff" stroke="#63b8ff" points="1641.3,-147.65 1650.3,-142.06 1639.78,-140.82 1641.3,-147.65"/>
</g>
<!-- Node6 -->
<g id="node6" class="node">
<title>Node6</title>
<g id="a_node6"><a xlink:title=" ">
<polygon fill="#e0e0e0" stroke="#999999" points="990,-145.5 858,-145.5 858,-126.5 990,-126.5 990,-145.5"/>
<text text-anchor="middle" x="924" y="-133.5" font-family="Helvetica,sans-Serif" font-size="10.00">flutter/binary_messenger.h</text>
</a>
</g>
</g>
<!-- Node2&#45;&gt;Node6 -->
<g id="edge5" class="edge">
<title>Node2&#45;&gt;Node6</title>
<path fill="none" stroke="#63b8ff" d="M793.36,-192.37C819.26,-181.39 864.17,-162.36 893.99,-149.72"/>
<polygon fill="#63b8ff" stroke="#63b8ff" points="895.63,-152.82 903.48,-145.7 892.9,-146.38 895.63,-152.82"/>
</g>
<!-- Node7 -->
<g id="node7" class="node">
<title>Node7</title>
<g id="a_node7"><a xlink:title=" ">
<polygon fill="#e0e0e0" stroke="#999999" points="390,-145.5 266,-145.5 266,-126.5 390,-126.5 390,-145.5"/>
<text text-anchor="middle" x="328" y="-133.5" font-family="Helvetica,sans-Serif" font-size="10.00">flutter/method_channel.h</text>
</a>
</g>
</g>
<!-- Node2&#45;&gt;Node7 -->
<g id="edge6" class="edge">
<title>Node2&#45;&gt;Node7</title>
<path fill="none" stroke="#63b8ff" d="M738.86,-197.15C672.97,-189.57 523.74,-171.62 399,-151 392.42,-149.91 385.52,-148.67 378.71,-147.39"/>
<polygon fill="#63b8ff" stroke="#63b8ff" points="379.33,-143.95 368.85,-145.5 378.01,-150.82 379.33,-143.95"/>
</g>
<!-- Node8 -->
<g id="node8" class="node">
<title>Node8</title>
<g id="a_node8"><a xlink:title=" ">
<polygon fill="#e0e0e0" stroke="#999999" points="514,-151 408,-151 408,-121 514,-121 514,-151"/>
<text text-anchor="start" x="416" y="-139" font-family="Helvetica,sans-Serif" font-size="10.00">flutter/method_result</text>
<text text-anchor="middle" x="461" y="-128" font-family="Helvetica,sans-Serif" font-size="10.00">_functions.h</text>
</a>
</g>
</g>
<!-- Node2&#45;&gt;Node8 -->
<g id="edge7" class="edge">
<title>Node2&#45;&gt;Node8</title>
<path fill="none" stroke="#63b8ff" d="M738.98,-194.47C692.66,-185.52 606.91,-168.74 523.92,-151.17"/>
<polygon fill="#63b8ff" stroke="#63b8ff" points="524.59,-147.73 514.08,-149.08 523.14,-154.58 524.59,-147.73"/>
</g>
<!-- Node9 -->
<g id="node9" class="node">
<title>Node9</title>
<g id="a_node9"><a xlink:title=" ">
<polygon fill="#e0e0e0" stroke="#999999" points="2501.5,-145.5 2400.5,-145.5 2400.5,-126.5 2501.5,-126.5 2501.5,-145.5"/>
<text text-anchor="middle" x="2451" y="-133.5" font-family="Helvetica,sans-Serif" font-size="10.00">flutter/fml/macros.h</text>
</a>
</g>
</g>
<!-- Node2&#45;&gt;Node9 -->
<g id="edge8" class="edge">
<title>Node2&#45;&gt;Node9</title>
<path fill="none" stroke="#63b8ff" d="M807.17,-200.15C1023.11,-194.72 2194.25,-164.81 2353,-151 2365.04,-149.95 2377.86,-148.42 2390.12,-146.76"/>
<polygon fill="#63b8ff" stroke="#63b8ff" points="2390.84,-150.19 2400.26,-145.33 2389.87,-143.26 2390.84,-150.19"/>
</g>
<!-- Node10 -->
<g id="node10" class="node">
<title>Node10</title>
<g id="a_node10"><a xlink:title=" ">
<polygon fill="#e0e0e0" stroke="#999999" points="687.5,-151 532.5,-151 532.5,-121 687.5,-121 687.5,-151"/>
<text text-anchor="start" x="540.5" y="-139" font-family="Helvetica,sans-Serif" font-size="10.00">flutter/shell/platform</text>
<text text-anchor="middle" x="610" y="-128" font-family="Helvetica,sans-Serif" font-size="10.00">/common/json_method_codec.h</text>
</a>
</g>
</g>
<!-- Node2&#45;&gt;Node10 -->
<g id="edge9" class="edge">
<title>Node2&#45;&gt;Node10</title>
<path fill="none" stroke="#63b8ff" d="M751.02,-192.37C726.6,-182.78 686.52,-167.05 655.32,-154.8"/>
<polygon fill="#63b8ff" stroke="#63b8ff" points="656.54,-151.51 645.95,-151.12 653.98,-158.03 656.54,-151.51"/>
</g>
<!-- Node11 -->
<g id="node11" class="node">
<title>Node11</title>
<g id="a_node11"><a xlink:title=" ">
<polygon fill="#e0e0e0" stroke="#999999" points="247.5,-151 104.5,-151 104.5,-121 247.5,-121 247.5,-151"/>
<text text-anchor="start" x="112.5" y="-139" font-family="Helvetica,sans-Serif" font-size="10.00">flutter/shell/platform</text>
<text text-anchor="middle" x="176" y="-128" font-family="Helvetica,sans-Serif" font-size="10.00">/common/text_input_model.h</text>
</a>
</g>
</g>
<!-- Node2&#45;&gt;Node11 -->
<g id="edge10" class="edge">
<title>Node2&#45;&gt;Node11</title>
<path fill="none" stroke="#63b8ff" d="M738.78,-198.57C657.35,-192.6 445.47,-175.96 257.57,-151"/>
<polygon fill="#63b8ff" stroke="#63b8ff" points="257.89,-147.52 247.51,-149.66 256.96,-154.45 257.89,-147.52"/>
</g>
<!-- Node12 -->
<g id="node12" class="node">
<title>Node12</title>
<g id="a_node12"><a xlink:title=" ">
<polygon fill="#e0e0e0" stroke="#999999" points="1462,-145.5 1352,-145.5 1352,-126.5 1462,-126.5 1462,-145.5"/>
<text text-anchor="middle" x="1407" y="-133.5" font-family="Helvetica,sans-Serif" font-size="10.00">rapidjson/document.h</text>
</a>
</g>
</g>
<!-- Node2&#45;&gt;Node12 -->
<g id="edge11" class="edge">
<title>Node2&#45;&gt;Node12</title>
<path fill="none" stroke="#63b8ff" d="M807.17,-199.48C895.85,-195.23 1140.5,-181.43 1342,-151 1348.29,-150.05 1354.89,-148.86 1361.37,-147.58"/>
<polygon fill="#63b8ff" stroke="#63b8ff" points="1362.3,-150.96 1371.39,-145.51 1360.89,-144.1 1362.3,-150.96"/>
</g>
<!-- Node13 -->
<g id="node13" class="node">
<title>Node13</title>
<g id="a_node13"><a xlink:title=" ">
<polygon fill="#e0e0e0" stroke="#999999" points="1491.5,-30 1370.5,-30 1370.5,0 1491.5,0 1491.5,-30"/>
<text text-anchor="start" x="1378.5" y="-18" font-family="Helvetica,sans-Serif" font-size="10.00">shell/platform/embedder</text>
<text text-anchor="middle" x="1431" y="-7" font-family="Helvetica,sans-Serif" font-size="10.00">/embedder.h</text>
</a>
</g>
</g>
<!-- Node2&#45;&gt;Node13 -->
<g id="edge12" class="edge">
<title>Node2&#45;&gt;Node13</title>
<path fill="none" stroke="#63b8ff" d="M738.67,-201.17C605.72,-201.49 129.86,-199.23 85,-151 75.92,-141.24 75.95,-130.79 85,-121 172.12,-26.82 1094.81,-16.93 1360.06,-16.04"/>
<polygon fill="#63b8ff" stroke="#63b8ff" points="1360.34,-19.54 1370.33,-16.01 1360.32,-12.54 1360.34,-19.54"/>
</g>
<!-- Node14 -->
<g id="node14" class="node">
<title>Node14</title>
<g id="a_node14"><a xlink:title=" ">
<polygon fill="#e0e0e0" stroke="#999999" points="840,-145.5 706,-145.5 706,-126.5 840,-126.5 840,-145.5"/>
<text text-anchor="middle" x="773" y="-133.5" font-family="Helvetica,sans-Serif" font-size="10.00">xkbcommon/xkbcommon.h</text>
</a>
</g>
</g>
<!-- Node2&#45;&gt;Node14 -->
<g id="edge13" class="edge">
<title>Node2&#45;&gt;Node14</title>
<path fill="none" stroke="#63b8ff" d="M773,-192.37C773,-183.16 773,-168.29 773,-156.27"/>
<polygon fill="#63b8ff" stroke="#63b8ff" points="776.5,-155.91 773,-145.91 769.5,-155.91 776.5,-155.91"/>
</g>
<!-- Node15 -->
<g id="node15" class="node">
<title>Node15</title>
<g id="a_node15"><a xlink:href="constants_8h.html" target="_top" xlink:title=" ">
<polygon fill="white" stroke="#666666" points="2406,-85 2338,-85 2338,-66 2406,-66 2406,-85"/>
<text text-anchor="middle" x="2372" y="-73" font-family="Helvetica,sans-Serif" font-size="10.00">constants.h</text>
</a>
</g>
</g>
<!-- Node2&#45;&gt;Node15 -->
<g id="edge14" class="edge">
<title>Node2&#45;&gt;Node15</title>
<path fill="none" stroke="#63b8ff" d="M738.72,-201.13C607.08,-201.3 139.13,-198.51 95,-151 85.93,-141.23 85.66,-130.52 95,-121 135.59,-79.61 2013.78,-76.71 2327.72,-76.51"/>
<polygon fill="#63b8ff" stroke="#63b8ff" points="2327.81,-80.01 2337.81,-76.51 2327.8,-73.01 2327.81,-80.01"/>
</g>
<!-- Node15&#45;&gt;Node13 -->
<g id="edge16" class="edge">
<title>Node15&#45;&gt;Node13</title>
<path fill="none" stroke="#63b8ff" d="M2337.95,-72.38C2201.26,-63.89 1690.61,-32.14 1501.78,-20.4"/>
<polygon fill="#63b8ff" stroke="#63b8ff" points="1501.89,-16.9 1491.69,-19.77 1501.45,-23.89 1501.89,-16.9"/>
</g>
<!-- Node16 -->
<g id="node16" class="node">
<title>Node16</title>
<g id="a_node16"><a xlink:title=" ">
<polygon fill="#e0e0e0" stroke="#999999" points="2663,-24.5 2603,-24.5 2603,-5.5 2663,-5.5 2663,-24.5"/>
<text text-anchor="middle" x="2633" y="-12.5" font-family="Helvetica,sans-Serif" font-size="10.00">EGL/egl.h</text>
</a>
</g>
</g>
<!-- Node15&#45;&gt;Node16 -->
<g id="edge15" class="edge">
<title>Node15&#45;&gt;Node16</title>
<path fill="none" stroke="#63b8ff" d="M2406.12,-66.85C2454.21,-56.07 2541.75,-36.45 2592.89,-24.99"/>
<polygon fill="#63b8ff" stroke="#63b8ff" points="2593.92,-28.35 2602.92,-22.74 2592.39,-21.51 2593.92,-28.35"/>
</g>
<!-- Node17 -->
<g id="node17" class="node">
<title>Node17</title>
<g id="a_node17"><a xlink:title=" ">
<polygon fill="#e0e0e0" stroke="#999999" points="2391,-24.5 2353,-24.5 2353,-5.5 2391,-5.5 2391,-24.5"/>
<text text-anchor="middle" x="2372" y="-12.5" font-family="Helvetica,sans-Serif" font-size="10.00">array</text>
</a>
</g>
</g>
<!-- Node15&#45;&gt;Node17 -->
<g id="edge17" class="edge">
<title>Node15&#45;&gt;Node17</title>
<path fill="none" stroke="#63b8ff" d="M2372,-65.87C2372,-57.75 2372,-45.31 2372,-34.89"/>
<polygon fill="#63b8ff" stroke="#63b8ff" points="2375.5,-34.67 2372,-24.67 2368.5,-34.67 2375.5,-34.67"/>
</g>
<!-- Node18&#45;&gt;Node2 -->
<g id="edge60" class="edge">
<title>Node18&#45;&gt;Node2</title>
<path fill="none" stroke="#63b8ff" d="M1852.41,-316.77C1749.92,-317.46 1370.84,-316.65 1063,-272 971.39,-258.71 866.22,-230.31 811.17,-214.4"/>
<polygon fill="#63b8ff" stroke="#63b8ff" points="812.06,-211.01 801.48,-211.58 810.11,-217.74 812.06,-211.01"/>
</g>
<!-- Node18&#45;&gt;Node3 -->
<g id="edge26" class="edge">
<title>Node18&#45;&gt;Node3</title>
<path fill="none" stroke="#63b8ff" d="M1852.26,-315.23C1766.06,-310.5 1488.55,-290.16 1273,-217 1217.2,-198.06 1155.1,-167.7 1121.31,-150.34"/>
<polygon fill="#63b8ff" stroke="#63b8ff" points="1122.65,-147.09 1112.16,-145.6 1119.43,-153.31 1122.65,-147.09"/>
</g>
<!-- Node18&#45;&gt;Node4 -->
<g id="edge27" class="edge">
<title>Node18&#45;&gt;Node4</title>
<path fill="none" stroke="#63b8ff" d="M1852.3,-315.15C1780.24,-311.25 1575.94,-298.52 1408,-272 1296.91,-254.45 1264.99,-259.82 1161,-217 1119.76,-200.02 1076.9,-169.99 1053.02,-151.95"/>
<polygon fill="#63b8ff" stroke="#63b8ff" points="1054.9,-148.98 1044.84,-145.67 1050.64,-154.53 1054.9,-148.98"/>
</g>
<!-- Node18&#45;&gt;Node5 -->
<g id="edge30" class="edge">
<title>Node18&#45;&gt;Node5</title>
<path fill="none" stroke="#63b8ff" d="M1852.44,-315.05C1795.35,-311.42 1663.44,-300.13 1630,-272 1600.3,-247.01 1593.4,-222.08 1610,-187 1617.28,-171.61 1631.88,-159.38 1644.96,-150.87"/>
<polygon fill="#63b8ff" stroke="#63b8ff" points="1646.95,-153.76 1653.67,-145.57 1643.31,-147.77 1646.95,-153.76"/>
</g>
<!-- Node18&#45;&gt;Node13 -->
<g id="edge24" class="edge">
<title>Node18&#45;&gt;Node13</title>
<path fill="none" stroke="#63b8ff" d="M1852.44,-316.34C1624.06,-314.77 0,-300.23 0,-203 0,-203 0,-203 0,-135 0,-52.63 91.45,-83.22 172,-66 401.24,-16.99 1129.13,-15 1360.01,-15.65"/>
<polygon fill="#63b8ff" stroke="#63b8ff" points="1360.29,-19.15 1370.3,-15.68 1360.31,-12.15 1360.29,-19.15"/>
</g>
<!-- Node18&#45;&gt;Node15 -->
<g id="edge36" class="edge">
<title>Node18&#45;&gt;Node15</title>
<path fill="none" stroke="#63b8ff" d="M1905.56,-316.05C2012.58,-314.03 2412.3,-304.43 2534,-272 2647.9,-241.65 2709.48,-252.15 2770,-151 2776.85,-139.56 2778.89,-130.94 2770,-121 2746.74,-95 2515.36,-82.42 2416.45,-78.19"/>
<polygon fill="#63b8ff" stroke="#63b8ff" points="2416.32,-74.68 2406.19,-77.76 2416.03,-81.68 2416.32,-74.68"/>
</g>
<!-- Node18&#45;&gt;Node16 -->
<g id="edge21" class="edge">
<title>Node18&#45;&gt;Node16</title>
<path fill="none" stroke="#63b8ff" d="M1905.59,-316.19C2059.29,-314.03 2827,-298.47 2827,-203 2827,-203 2827,-203 2827,-135 2827,-63.58 2730.29,-33.69 2673.43,-22.29"/>
<polygon fill="#63b8ff" stroke="#63b8ff" points="2673.79,-18.79 2663.31,-20.37 2672.49,-25.67 2673.79,-18.79"/>
</g>
<!-- Node19 -->
<g id="node19" class="node">
<title>Node19</title>
<g id="a_node19"><a xlink:title=" ">
<polygon fill="#e0e0e0" stroke="#999999" points="1707.5,-272 1648.5,-272 1648.5,-253 1707.5,-253 1707.5,-272"/>
<text text-anchor="middle" x="1678" y="-260" font-family="Helvetica,sans-Serif" font-size="10.00">functional</text>
</a>
</g>
</g>
<!-- Node18&#45;&gt;Node19 -->
<g id="edge20" class="edge">
<title>Node18&#45;&gt;Node19</title>
<path fill="none" stroke="#63b8ff" d="M1852.31,-309.46C1817.83,-300.37 1757.51,-284.47 1717.66,-273.96"/>
<polygon fill="#63b8ff" stroke="#63b8ff" points="1718.31,-270.51 1707.75,-271.34 1716.53,-277.28 1718.31,-270.51"/>
</g>
<!-- Node20 -->
<g id="node20" class="node">
<title>Node20</title>
<g id="a_node20"><a xlink:title=" ">
<polygon fill="#e0e0e0" stroke="#999999" points="1798,-272 1726,-272 1726,-253 1798,-253 1798,-272"/>
<text text-anchor="middle" x="1762" y="-260" font-family="Helvetica,sans-Serif" font-size="10.00">GLES2/gl2.h</text>
</a>
</g>
</g>
<!-- Node18&#45;&gt;Node20 -->
<g id="edge22" class="edge">
<title>Node18&#45;&gt;Node20</title>
<path fill="none" stroke="#63b8ff" d="M1860.2,-307.98C1841.38,-299.46 1812.18,-286.23 1790.5,-276.41"/>
<polygon fill="#63b8ff" stroke="#63b8ff" points="1791.69,-273.11 1781.14,-272.17 1788.8,-279.48 1791.69,-273.11"/>
</g>
<!-- Node21 -->
<g id="node21" class="node">
<title>Node21</title>
<g id="a_node21"><a xlink:title=" ">
<polygon fill="#e0e0e0" stroke="#999999" points="1941.5,-272 1816.5,-272 1816.5,-253 1941.5,-253 1941.5,-272"/>
<text text-anchor="middle" x="1879" y="-260" font-family="Helvetica,sans-Serif" font-size="10.00">flutter/encodable_value.h</text>
</a>
</g>
</g>
<!-- Node18&#45;&gt;Node21 -->
<g id="edge23" class="edge">
<title>Node18&#45;&gt;Node21</title>
<path fill="none" stroke="#63b8ff" d="M1879,-307.75C1879,-300.8 1879,-290.85 1879,-282.13"/>
<polygon fill="#63b8ff" stroke="#63b8ff" points="1882.5,-282.09 1879,-272.09 1875.5,-282.09 1882.5,-282.09"/>
</g>
<!-- Node22 -->
<g id="node22" class="node">
<title>Node22</title>
<g id="a_node22"><a xlink:title=" ">
<polygon fill="#e0e0e0" stroke="#999999" points="2022,-272 1960,-272 1960,-253 2022,-253 2022,-272"/>
<text text-anchor="middle" x="1991" y="-260" font-family="Helvetica,sans-Serif" font-size="10.00">filesystem</text>
</a>
</g>
</g>
<!-- Node18&#45;&gt;Node22 -->
<g id="edge25" class="edge">
<title>Node18&#45;&gt;Node22</title>
<path fill="none" stroke="#63b8ff" d="M1896.99,-307.98C1914.93,-299.5 1942.72,-286.35 1963.43,-276.54"/>
<polygon fill="#63b8ff" stroke="#63b8ff" points="1965.14,-279.61 1972.68,-272.17 1962.14,-273.28 1965.14,-279.61"/>
</g>
<!-- Node23 -->
<g id="node23" class="node">
<title>Node23</title>
<g id="a_node23"><a xlink:title=" ">
<polygon fill="#e0e0e0" stroke="#999999" points="2084,-272 2040,-272 2040,-253 2084,-253 2084,-272"/>
<text text-anchor="middle" x="2062" y="-260" font-family="Helvetica,sans-Serif" font-size="10.00">mutex</text>
</a>
</g>
</g>
<!-- Node18&#45;&gt;Node23 -->
<g id="edge28" class="edge">
<title>Node18&#45;&gt;Node23</title>
<path fill="none" stroke="#63b8ff" d="M1905.61,-308.79C1938.63,-299.23 1994.89,-282.94 2030.16,-272.72"/>
<polygon fill="#63b8ff" stroke="#63b8ff" points="2031.32,-276.03 2039.95,-269.89 2029.37,-269.31 2031.32,-276.03"/>
</g>
<!-- Node24 -->
<g id="node24" class="node">
<title>Node24</title>
<g id="a_node24"><a xlink:title=" ">
<polygon fill="#e0e0e0" stroke="#999999" points="2145.5,-272 2102.5,-272 2102.5,-253 2145.5,-253 2145.5,-272"/>
<text text-anchor="middle" x="2124" y="-260" font-family="Helvetica,sans-Serif" font-size="10.00">queue</text>
</a>
</g>
</g>
<!-- Node18&#45;&gt;Node24 -->
<g id="edge29" class="edge">
<title>Node18&#45;&gt;Node24</title>
<path fill="none" stroke="#63b8ff" d="M1905.81,-311.48C1944.71,-304.09 2019.27,-289.45 2092.51,-271.99"/>
<polygon fill="#63b8ff" stroke="#63b8ff" points="2093.46,-275.36 2102.36,-269.62 2091.82,-268.55 2093.46,-275.36"/>
</g>
<!-- Node25 -->
<g id="node25" class="node">
<title>Node25</title>
<g id="a_node25"><a xlink:title=" ">
<polygon fill="#e0e0e0" stroke="#999999" points="2564,-145.5 2520,-145.5 2520,-126.5 2564,-126.5 2564,-145.5"/>
<text text-anchor="middle" x="2542" y="-133.5" font-family="Helvetica,sans-Serif" font-size="10.00">vector</text>
</a>
</g>
</g>
<!-- Node18&#45;&gt;Node25 -->
<g id="edge31" class="edge">
<title>Node18&#45;&gt;Node25</title>
<path fill="none" stroke="#63b8ff" d="M1905.65,-316C2003.59,-313.92 2343.26,-304.48 2446,-272 2491.79,-257.52 2514.43,-258.26 2539,-217 2550.08,-198.39 2548.78,-172.79 2546.07,-155.6"/>
<polygon fill="#63b8ff" stroke="#63b8ff" points="2549.49,-154.86 2544.2,-145.69 2542.61,-156.16 2549.49,-154.86"/>
</g>
<!-- Node26 -->
<g id="node26" class="node">
<title>Node26</title>
<g id="a_node26"><a xlink:href="backend_8h.html" target="_top" xlink:title=" ">
<polygon fill="white" stroke="#666666" points="2760.5,-145.5 2659.5,-145.5 2659.5,-126.5 2760.5,-126.5 2760.5,-145.5"/>
<text text-anchor="middle" x="2710" y="-133.5" font-family="Helvetica,sans-Serif" font-size="10.00">backend/backend.h</text>
</a>
</g>
</g>
<!-- Node18&#45;&gt;Node26 -->
<g id="edge32" class="edge">
<title>Node18&#45;&gt;Node26</title>
<path fill="none" stroke="#63b8ff" d="M1905.6,-316.16C2007.21,-314.67 2369.32,-307.09 2479,-272 2562.88,-245.16 2647.94,-180.74 2687.58,-151.67"/>
<polygon fill="#63b8ff" stroke="#63b8ff" points="2689.75,-154.42 2695.78,-145.71 2685.63,-148.76 2689.75,-154.42"/>
</g>
<!-- Node27 -->
<g id="node27" class="node">
<title>Node27</title>
<g id="a_node27"><a xlink:href="logging_8h.html" target="_top" xlink:title=" ">
<polygon fill="white" stroke="#666666" points="2437,-272 2381,-272 2381,-253 2437,-253 2437,-272"/>
<text text-anchor="middle" x="2409" y="-260" font-family="Helvetica,sans-Serif" font-size="10.00">logging.h</text>
</a>
</g>
</g>
<!-- Node18&#45;&gt;Node27 -->
<g id="edge37" class="edge">
<title>Node18&#45;&gt;Node27</title>
<path fill="none" stroke="#63b8ff" d="M1905.65,-313.84C1992.62,-305.14 2268.47,-277.55 2370.54,-267.35"/>
<polygon fill="#63b8ff" stroke="#63b8ff" points="2371.1,-270.81 2380.7,-266.33 2370.41,-263.84 2371.1,-270.81"/>
</g>
<!-- Node32 -->
<g id="node32" class="node">
<title>Node32</title>
<g id="a_node32"><a xlink:href="platform__channel_8h.html" target="_top" xlink:title=" ">
<polygon fill="white" stroke="#666666" points="1717.5,-211.5 1618.5,-211.5 1618.5,-192.5 1717.5,-192.5 1717.5,-211.5"/>
<text text-anchor="middle" x="1668" y="-199.5" font-family="Helvetica,sans-Serif" font-size="10.00">platform_channel.h</text>
</a>
</g>
</g>
<!-- Node18&#45;&gt;Node32 -->
<g id="edge44" class="edge">
<title>Node18&#45;&gt;Node32</title>
<path fill="none" stroke="#63b8ff" d="M1852.3,-315.65C1795.72,-313.23 1666.77,-304.22 1640,-272 1627.15,-256.54 1640.24,-234.41 1652.5,-219.41"/>
<polygon fill="#63b8ff" stroke="#63b8ff" points="1655.46,-221.34 1659.42,-211.51 1650.2,-216.72 1655.46,-221.34"/>
</g>
<!-- Node33 -->
<g id="node33" class="node">
<title>Node33</title>
<g id="a_node33"><a xlink:href="key__event_8h.html" target="_top" xlink:title=" ">
<polygon fill="white" stroke="#666666" points="1454,-217 1352,-217 1352,-187 1454,-187 1454,-217"/>
<text text-anchor="start" x="1360" y="-205" font-family="Helvetica,sans-Serif" font-size="10.00">static_plugins/key</text>
<text text-anchor="middle" x="1403" y="-194" font-family="Helvetica,sans-Serif" font-size="10.00">_event/key_event.h</text>
</a>
</g>
</g>
<!-- Node18&#45;&gt;Node33 -->
<g id="edge48" class="edge">
<title>Node18&#45;&gt;Node33</title>
<path fill="none" stroke="#63b8ff" d="M1852.32,-314.97C1797.96,-311.35 1670.79,-300.35 1568,-272 1522.37,-259.42 1472.57,-237.35 1439.75,-221.56"/>
<polygon fill="#63b8ff" stroke="#63b8ff" points="1441.07,-218.31 1430.55,-217.08 1438.01,-224.6 1441.07,-218.31"/>
</g>
<!-- Node36 -->
<g id="node36" class="node">
<title>Node36</title>
<g id="a_node36"><a xlink:href="flutter__view_8h.html" target="_top" xlink:title=" ">
<polygon fill="white" stroke="#666666" points="2262,-272 2164,-272 2164,-253 2262,-253 2262,-272"/>
<text text-anchor="middle" x="2213" y="-260" font-family="Helvetica,sans-Serif" font-size="10.00">view/flutter_view.h</text>
</a>
</g>
</g>
<!-- Node18&#45;&gt;Node36 -->
<g id="edge61" class="edge">
<title>Node18&#45;&gt;Node36</title>
<path fill="none" stroke="#63b8ff" d="M1905.77,-312.25C1959.29,-303.76 2080.62,-284.51 2153.78,-272.9"/>
<polygon fill="#63b8ff" stroke="#63b8ff" points="2154.44,-276.34 2163.77,-271.31 2153.35,-269.42 2154.44,-276.34"/>
</g>
<!-- Node26&#45;&gt;Node13 -->
<g id="edge33" class="edge">
<title>Node26&#45;&gt;Node13</title>
<path fill="none" stroke="#63b8ff" d="M2704.82,-126.19C2695.16,-110.7 2672.7,-78.97 2644,-66 2540.09,-19.05 1745.16,-15.75 1501.66,-15.85"/>
<polygon fill="#63b8ff" stroke="#63b8ff" points="1501.51,-12.35 1491.52,-15.85 1501.52,-19.35 1501.51,-12.35"/>
</g>
<!-- Node26&#45;&gt;Node15 -->
<g id="edge34" class="edge">
<title>Node26&#45;&gt;Node15</title>
<path fill="none" stroke="#63b8ff" d="M2676.09,-126.49C2667.9,-124.57 2659.16,-122.62 2651,-121 2568.51,-104.66 2471.37,-90.25 2416.2,-82.51"/>
<polygon fill="#63b8ff" stroke="#63b8ff" points="2416.46,-79.01 2406.07,-81.1 2415.5,-85.94 2416.46,-79.01"/>
</g>
<!-- Node26&#45;&gt;Node18 -->
<g id="edge35" class="edge">
<title>Node26&#45;&gt;Node18</title>
<path fill="none" stroke="#63b8ff" d="M2703.84,-145.71C2678.81,-170.78 2587.22,-243.13 2497,-272 2388.32,-306.77 2031.76,-314.53 1915.72,-316.12"/>
<polygon fill="#63b8ff" stroke="#63b8ff" points="1915.53,-312.62 1905.57,-316.25 1915.62,-319.62 1915.53,-312.62"/>
</g>
<!-- Node27&#45;&gt;Node9 -->
<g id="edge43" class="edge">
<title>Node27&#45;&gt;Node9</title>
<path fill="none" stroke="#63b8ff" d="M2405.67,-252.85C2400.7,-238.56 2392.87,-209.37 2402,-187 2407.73,-172.97 2419.5,-160.75 2430.07,-151.9"/>
<polygon fill="#63b8ff" stroke="#63b8ff" points="2432.44,-154.48 2438.15,-145.56 2428.12,-148.98 2432.44,-154.48"/>
</g>
<!-- Node28 -->
<g id="node28" class="node">
<title>Node28</title>
<g id="a_node28"><a xlink:title=" ">
<polygon fill="#e0e0e0" stroke="#999999" points="2530,-211.5 2478,-211.5 2478,-192.5 2530,-192.5 2530,-211.5"/>
<text text-anchor="middle" x="2504" y="-199.5" font-family="Helvetica,sans-Serif" font-size="10.00">sstream</text>
</a>
</g>
</g>
<!-- Node27&#45;&gt;Node28 -->
<g id="edge38" class="edge">
<title>Node27&#45;&gt;Node28</title>
<path fill="none" stroke="#63b8ff" d="M2423.02,-252.87C2438.31,-243.45 2463.03,-228.23 2481.14,-217.08"/>
<polygon fill="#63b8ff" stroke="#63b8ff" points="2483.25,-219.89 2489.92,-211.67 2479.57,-213.93 2483.25,-219.89"/>
</g>
<!-- Node29 -->
<g id="node29" class="node">
<title>Node29</title>
<g id="a_node29"><a xlink:href="dlt_8h.html" target="_top" xlink:title=" ">
<polygon fill="white" stroke="#666666" points="2459.5,-211.5 2410.5,-211.5 2410.5,-192.5 2459.5,-192.5 2459.5,-211.5"/>
<text text-anchor="middle" x="2435" y="-199.5" font-family="Helvetica,sans-Serif" font-size="10.00">dlt/dlt.h</text>
</a>
</g>
</g>
<!-- Node27&#45;&gt;Node29 -->
<g id="edge39" class="edge">
<title>Node27&#45;&gt;Node29</title>
<path fill="none" stroke="#63b8ff" d="M2412.84,-252.87C2416.56,-244.49 2422.33,-231.51 2427.05,-220.89"/>
<polygon fill="#63b8ff" stroke="#63b8ff" points="2430.28,-222.23 2431.15,-211.67 2423.89,-219.38 2430.28,-222.23"/>
</g>
<!-- Node29&#45;&gt;Node9 -->
<g id="edge42" class="edge">
<title>Node29&#45;&gt;Node9</title>
<path fill="none" stroke="#63b8ff" d="M2437.16,-192.37C2439.48,-183.07 2443.26,-167.98 2446.28,-155.9"/>
<polygon fill="#63b8ff" stroke="#63b8ff" points="2449.74,-156.46 2448.77,-145.91 2442.95,-154.76 2449.74,-156.46"/>
</g>
<!-- Node30 -->
<g id="node30" class="node">
<title>Node30</title>
<g id="a_node30"><a xlink:href="libdlt_8h.html" target="_top" xlink:title=" ">
<polygon fill="white" stroke="#666666" points="2641.5,-145.5 2582.5,-145.5 2582.5,-126.5 2641.5,-126.5 2641.5,-145.5"/>
<text text-anchor="middle" x="2612" y="-133.5" font-family="Helvetica,sans-Serif" font-size="10.00">dlt/libdlt.h</text>
</a>
</g>
</g>
<!-- Node29&#45;&gt;Node30 -->
<g id="edge40" class="edge">
<title>Node29&#45;&gt;Node30</title>
<path fill="none" stroke="#63b8ff" d="M2455.42,-192.37C2459.88,-190.55 2464.58,-188.67 2469,-187 2514.74,-169.68 2526.87,-167.26 2573,-151 2574.83,-150.35 2576.71,-149.69 2578.61,-149.02"/>
<polygon fill="#63b8ff" stroke="#63b8ff" points="2579.85,-152.29 2588.09,-145.63 2577.5,-145.7 2579.85,-152.29"/>
</g>
<!-- Node31 -->
<g id="node31" class="node">
<title>Node31</title>
<g id="a_node31"><a xlink:title=" ">
<polygon fill="#e0e0e0" stroke="#999999" points="2635,-85 2589,-85 2589,-66 2635,-66 2635,-85"/>
<text text-anchor="middle" x="2612" y="-73" font-family="Helvetica,sans-Serif" font-size="10.00">cstdint</text>
</a>
</g>
</g>
<!-- Node30&#45;&gt;Node31 -->
<g id="edge41" class="edge">
<title>Node30&#45;&gt;Node31</title>
<path fill="none" stroke="#63b8ff" d="M2612,-126.37C2612,-118.25 2612,-105.81 2612,-95.39"/>
<polygon fill="#63b8ff" stroke="#63b8ff" points="2615.5,-95.17 2612,-85.17 2608.5,-95.17 2615.5,-95.17"/>
</g>
<!-- Node32&#45;&gt;Node3 -->
<g id="edge45" class="edge">
<title>Node32&#45;&gt;Node3</title>
<path fill="none" stroke="#63b8ff" d="M1618.46,-197.99C1527.46,-192.06 1327.69,-177.08 1161,-151 1148.6,-149.06 1135.01,-146.24 1123.48,-143.64"/>
<polygon fill="#63b8ff" stroke="#63b8ff" points="1124.09,-140.19 1113.55,-141.35 1122.51,-147.01 1124.09,-140.19"/>
</g>
<!-- Node32&#45;&gt;Node5 -->
<g id="edge46" class="edge">
<title>Node32&#45;&gt;Node5</title>
<path fill="none" stroke="#63b8ff" d="M1668.4,-192.37C1668.84,-183.07 1669.55,-167.98 1670.11,-155.9"/>
<polygon fill="#63b8ff" stroke="#63b8ff" points="1673.61,-156.06 1670.58,-145.91 1666.62,-155.73 1673.61,-156.06"/>
</g>
<!-- Node32&#45;&gt;Node13 -->
<g id="edge47" class="edge">
<title>Node32&#45;&gt;Node13</title>
<path fill="none" stroke="#63b8ff" d="M1676.66,-192.49C1691.13,-177.22 1717.12,-144.56 1701,-121 1656.59,-56.08 1565.68,-31.3 1501.66,-21.83"/>
<polygon fill="#63b8ff" stroke="#63b8ff" points="1502.01,-18.35 1491.63,-20.44 1501.05,-25.28 1502.01,-18.35"/>
</g>
<!-- Node33&#45;&gt;Node3 -->
<g id="edge49" class="edge">
<title>Node33&#45;&gt;Node3</title>
<path fill="none" stroke="#63b8ff" d="M1351.66,-191.22C1344.06,-189.79 1336.33,-188.35 1329,-187 1239.75,-170.56 1214.84,-177.37 1128,-151 1126.36,-150.5 1124.7,-149.95 1123.04,-149.35"/>
<polygon fill="#63b8ff" stroke="#63b8ff" points="1124.24,-146.06 1113.66,-145.61 1121.65,-152.56 1124.24,-146.06"/>
</g>
<!-- Node33&#45;&gt;Node4 -->
<g id="edge50" class="edge">
<title>Node33&#45;&gt;Node4</title>
<path fill="none" stroke="#63b8ff" d="M1351.89,-197.06C1285.7,-191.11 1167.19,-177.6 1069,-151 1066.84,-150.42 1064.64,-149.74 1062.44,-149"/>
<polygon fill="#63b8ff" stroke="#63b8ff" points="1063.58,-145.69 1052.98,-145.52 1061.16,-152.26 1063.58,-145.69"/>
</g>
<!-- Node33&#45;&gt;Node5 -->
<g id="edge51" class="edge">
<title>Node33&#45;&gt;Node5</title>
<path fill="none" stroke="#63b8ff" d="M1454.08,-192.61C1501.72,-184.18 1574.46,-169.76 1636,-151 1637.88,-150.43 1639.8,-149.8 1641.72,-149.13"/>
<polygon fill="#63b8ff" stroke="#63b8ff" points="1643.07,-152.36 1651.22,-145.59 1640.63,-145.8 1643.07,-152.36"/>
</g>
<!-- Node33&#45;&gt;Node6 -->
<g id="edge53" class="edge">
<title>Node33&#45;&gt;Node6</title>
<path fill="none" stroke="#63b8ff" d="M1351.84,-195.69C1275.02,-187.48 1125.41,-170.6 999,-151 991.89,-149.9 984.42,-148.63 977.07,-147.32"/>
<polygon fill="#63b8ff" stroke="#63b8ff" points="977.62,-143.87 967.15,-145.52 976.37,-150.75 977.62,-143.87"/>
</g>
<!-- Node33&#45;&gt;Node9 -->
<g id="edge55" class="edge">
<title>Node33&#45;&gt;Node9</title>
<path fill="none" stroke="#63b8ff" d="M1454.02,-197.28C1495.91,-194.29 1556.78,-190.09 1610,-187 1940.05,-167.84 2023.89,-182.41 2353,-151 2365.1,-149.85 2377.99,-148.26 2390.31,-146.57"/>
<polygon fill="#63b8ff" stroke="#63b8ff" points="2391.08,-150 2400.5,-145.14 2390.11,-143.07 2391.08,-150"/>
</g>
<!-- Node33&#45;&gt;Node12 -->
<g id="edge56" class="edge">
<title>Node33&#45;&gt;Node12</title>
<path fill="none" stroke="#63b8ff" d="M1403.89,-186.8C1404.46,-177.7 1405.2,-165.79 1405.82,-155.9"/>
<polygon fill="#63b8ff" stroke="#63b8ff" points="1409.32,-156.04 1406.45,-145.84 1402.33,-155.61 1409.32,-156.04"/>
</g>
<!-- Node33&#45;&gt;Node13 -->
<g id="edge57" class="edge">
<title>Node33&#45;&gt;Node13</title>
<path fill="none" stroke="#63b8ff" d="M1351.84,-192.12C1282.64,-179.86 1167.05,-158.43 1161,-151 1152.58,-140.66 1153.47,-132 1161,-121 1205.41,-56.08 1296.32,-31.3 1360.34,-21.83"/>
<polygon fill="#63b8ff" stroke="#63b8ff" points="1360.95,-25.28 1370.37,-20.44 1359.99,-18.35 1360.95,-25.28"/>
</g>
<!-- Node33&#45;&gt;Node14 -->
<g id="edge58" class="edge">
<title>Node33&#45;&gt;Node14</title>
<path fill="none" stroke="#63b8ff" d="M1351.65,-197.95C1253.62,-191.78 1033.18,-176.22 849,-151 841.34,-149.95 833.27,-148.66 825.37,-147.3"/>
<polygon fill="#63b8ff" stroke="#63b8ff" points="825.95,-143.85 815.5,-145.54 824.73,-150.74 825.95,-143.85"/>
</g>
<!-- Node33&#45;&gt;Node15 -->
<g id="edge59" class="edge">
<title>Node33&#45;&gt;Node15</title>
<path fill="none" stroke="#63b8ff" d="M1454.29,-194.12C1495.92,-187.17 1555.31,-174.06 1603,-151 1622.69,-141.48 1621.52,-128.67 1642,-121 1706.01,-97.03 2178.83,-81.9 2327.43,-77.7"/>
<polygon fill="#63b8ff" stroke="#63b8ff" points="2327.66,-81.19 2337.56,-77.41 2327.47,-74.2 2327.66,-81.19"/>
</g>
<!-- Node34 -->
<g id="node34" class="node">
<title>Node34</title>
<g id="a_node34"><a xlink:title=" ">
<polygon fill="#e0e0e0" stroke="#999999" points="1593.5,-151 1480.5,-151 1480.5,-121 1593.5,-121 1593.5,-151"/>
<text text-anchor="start" x="1488.5" y="-139" font-family="Helvetica,sans-Serif" font-size="10.00">flutter/basic_message</text>
<text text-anchor="middle" x="1537" y="-128" font-family="Helvetica,sans-Serif" font-size="10.00">_channel.h</text>
</a>
</g>
</g>
<!-- Node33&#45;&gt;Node34 -->
<g id="edge52" class="edge">
<title>Node33&#45;&gt;Node34</title>
<path fill="none" stroke="#63b8ff" d="M1432.41,-186.95C1451.78,-177.7 1477.36,-165.49 1498.37,-155.45"/>
<polygon fill="#63b8ff" stroke="#63b8ff" points="1500.15,-158.48 1507.66,-151.01 1497.13,-152.16 1500.15,-158.48"/>
</g>
<!-- Node35 -->
<g id="node35" class="node">
<title>Node35</title>
<g id="a_node35"><a xlink:title=" ">
<polygon fill="#e0e0e0" stroke="#999999" points="1333.5,-151 1170.5,-151 1170.5,-121 1333.5,-121 1333.5,-151"/>
<text text-anchor="start" x="1178.5" y="-139" font-family="Helvetica,sans-Serif" font-size="10.00">flutter/shell/platform</text>
<text text-anchor="middle" x="1252" y="-128" font-family="Helvetica,sans-Serif" font-size="10.00">/common/json_message_codec.h</text>
</a>
</g>
</g>
<!-- Node33&#45;&gt;Node35 -->
<g id="edge54" class="edge">
<title>Node33&#45;&gt;Node35</title>
<path fill="none" stroke="#63b8ff" d="M1369.86,-186.95C1347.73,-177.58 1318.43,-165.16 1294.58,-155.05"/>
<polygon fill="#63b8ff" stroke="#63b8ff" points="1295.63,-151.69 1285.06,-151.01 1292.9,-158.14 1295.63,-151.69"/>
</g>
<!-- Node36&#45;&gt;Node3 -->
<g id="edge62" class="edge">
<title>Node36&#45;&gt;Node3</title>
<path fill="none" stroke="#63b8ff" d="M2163.99,-253.96C2160.95,-253.61 2157.94,-253.28 2155,-253 1975.19,-235.88 1519.09,-257.23 1343,-217 1310,-209.46 1305.09,-197.78 1273,-187 1210.06,-165.85 1190.86,-172.38 1128,-151 1126.38,-150.45 1124.73,-149.85 1123.08,-149.22"/>
<polygon fill="#63b8ff" stroke="#63b8ff" points="1124.31,-145.94 1113.73,-145.39 1121.66,-152.42 1124.31,-145.94"/>
</g>
<!-- Node36&#45;&gt;Node4 -->
<g id="edge63" class="edge">
<title>Node36&#45;&gt;Node4</title>
<path fill="none" stroke="#63b8ff" d="M2164,-253.95C2160.96,-253.6 2157.94,-253.27 2155,-253 1762.6,-216.38 1656.76,-287.43 1269,-217 1191.7,-202.96 1105.32,-168.35 1062,-149.58"/>
<polygon fill="#63b8ff" stroke="#63b8ff" points="1063.24,-146.31 1052.68,-145.5 1060.44,-152.72 1063.24,-146.31"/>
</g>
<!-- Node36&#45;&gt;Node9 -->
<g id="edge69" class="edge">
<title>Node36&#45;&gt;Node9</title>
<path fill="none" stroke="#63b8ff" d="M2229.36,-252.94C2270.12,-231.62 2376.45,-176 2425.51,-150.33"/>
<polygon fill="#63b8ff" stroke="#63b8ff" points="2427.29,-153.35 2434.53,-145.62 2424.04,-147.15 2427.29,-153.35"/>
</g>
<!-- Node37 -->
<g id="node37" class="node">
<title>Node37</title>
<g id="a_node37"><a xlink:href="configuration_8h.html" target="_top" xlink:title=" ">
<polygon fill="white" stroke="#666666" points="2282.5,-211.5 2143.5,-211.5 2143.5,-192.5 2282.5,-192.5 2282.5,-211.5"/>
<text text-anchor="middle" x="2213" y="-199.5" font-family="Helvetica,sans-Serif" font-size="10.00">configuration/configuration.h</text>
</a>
</g>
</g>
<!-- Node36&#45;&gt;Node37 -->
<g id="edge64" class="edge">
<title>Node36&#45;&gt;Node37</title>
<path fill="none" stroke="#63b8ff" d="M2213,-252.87C2213,-244.75 2213,-232.31 2213,-221.89"/>
<polygon fill="#63b8ff" stroke="#63b8ff" points="2216.5,-221.67 2213,-211.67 2209.5,-221.67 2216.5,-221.67"/>
</g>
<!-- Node38 -->
<g id="node38" class="node">
<title>Node38</title>
<g id="a_node38"><a xlink:href="window_8h.html" target="_top" xlink:title=" ">
<polygon fill="white" stroke="#666666" points="2121,-211.5 2025,-211.5 2025,-192.5 2121,-192.5 2121,-211.5"/>
<text text-anchor="middle" x="2073" y="-199.5" font-family="Helvetica,sans-Serif" font-size="10.00">wayland/window.h</text>
</a>
</g>
</g>
<!-- Node36&#45;&gt;Node38 -->
<g id="edge70" class="edge">
<title>Node36&#45;&gt;Node38</title>
<path fill="none" stroke="#63b8ff" d="M2192.64,-252.99C2169,-243.12 2129.8,-226.73 2102.75,-215.43"/>
<polygon fill="#63b8ff" stroke="#63b8ff" points="2103.96,-212.14 2093.38,-211.52 2101.26,-218.6 2103.96,-212.14"/>
</g>
<!-- Node37&#45;&gt;Node5 -->
<g id="edge65" class="edge">
<title>Node37&#45;&gt;Node5</title>
<path fill="none" stroke="#63b8ff" d="M2166.12,-192.46C2154.36,-190.49 2141.74,-188.53 2130,-187 1957.39,-164.51 1912.22,-176.34 1740,-151 1727.37,-149.14 1713.57,-146.47 1701.65,-143.96"/>
<polygon fill="#63b8ff" stroke="#63b8ff" points="1702.24,-140.51 1691.73,-141.82 1700.77,-147.35 1702.24,-140.51"/>
</g>
<!-- Node37&#45;&gt;Node9 -->
<g id="edge67" class="edge">
<title>Node37&#45;&gt;Node9</title>
<path fill="none" stroke="#63b8ff" d="M2245.1,-192.37C2287.53,-180.96 2362.39,-160.83 2409.2,-148.24"/>
<polygon fill="#63b8ff" stroke="#63b8ff" points="2410.28,-151.57 2419.03,-145.6 2408.47,-144.81 2410.28,-151.57"/>
</g>
<!-- Node37&#45;&gt;Node12 -->
<g id="edge68" class="edge">
<title>Node37&#45;&gt;Node12</title>
<path fill="none" stroke="#63b8ff" d="M2167.9,-192.44C2155.64,-190.38 2142.35,-188.37 2130,-187 1838.47,-154.55 1761.66,-190.47 1471,-151 1464.57,-150.13 1457.82,-148.95 1451.22,-147.64"/>
<polygon fill="#63b8ff" stroke="#63b8ff" points="1451.53,-144.13 1441.03,-145.51 1450.1,-150.98 1451.53,-144.13"/>
</g>
<!-- Node37&#45;&gt;Node25 -->
<g id="edge66" class="edge">
<title>Node37&#45;&gt;Node25</title>
<path fill="none" stroke="#63b8ff" d="M2282.51,-194.47C2343.66,-187.52 2434.59,-174.24 2511,-151 2512.63,-150.5 2514.29,-149.94 2515.95,-149.33"/>
<polygon fill="#63b8ff" stroke="#63b8ff" points="2517.33,-152.55 2525.25,-145.51 2514.67,-146.08 2517.33,-152.55"/>
</g>
<!-- Node38&#45;&gt;Node4 -->
<g id="edge71" class="edge">
<title>Node38&#45;&gt;Node4</title>
<path fill="none" stroke="#63b8ff" d="M2024.8,-199.04C1830.92,-191.11 1116.13,-161.3 1069,-151 1066.63,-150.48 1064.21,-149.82 1061.8,-149.06"/>
<polygon fill="#63b8ff" stroke="#63b8ff" points="1062.76,-145.69 1052.17,-145.59 1060.38,-152.27 1062.76,-145.69"/>
</g>
<!-- Node38&#45;&gt;Node5 -->
<g id="edge72" class="edge">
<title>Node38&#45;&gt;Node5</title>
<path fill="none" stroke="#63b8ff" d="M2024.9,-194.56C1960.05,-185.71 1841.04,-168.82 1740,-151 1727.43,-148.78 1713.64,-146.05 1701.71,-143.58"/>
<polygon fill="#63b8ff" stroke="#63b8ff" points="1702.29,-140.13 1691.78,-141.51 1700.85,-146.98 1702.29,-140.13"/>
</g>
<!-- Node38&#45;&gt;Node15 -->
<g id="edge75" class="edge">
<title>Node38&#45;&gt;Node15</title>
<path fill="none" stroke="#63b8ff" d="M2108.99,-192.5C2117.5,-190.59 2126.55,-188.65 2135,-187 2183.19,-177.59 2316.82,-184.19 2353,-151 2368.26,-137 2372,-112.59 2372.58,-95.55"/>
<polygon fill="#63b8ff" stroke="#63b8ff" points="2376.08,-95.14 2372.58,-85.14 2369.08,-95.14 2376.08,-95.14"/>
</g>
<!-- Node38&#45;&gt;Node26 -->
<g id="edge76" class="edge">
<title>Node38&#45;&gt;Node26</title>
<path fill="none" stroke="#63b8ff" d="M2106.61,-192.43C2115.77,-190.36 2125.72,-188.36 2135,-187 2362.45,-153.59 2423.74,-185.65 2651,-151 2656.59,-150.15 2662.44,-149.04 2668.19,-147.81"/>
<polygon fill="#63b8ff" stroke="#63b8ff" points="2669.36,-151.13 2678.34,-145.52 2667.82,-144.31 2669.36,-151.13"/>
</g>
<!-- Node39 -->
<g id="node39" class="node">
<title>Node39</title>
<g id="a_node39"><a xlink:title=" ">
<polygon fill="#e0e0e0" stroke="#999999" points="2343.5,-145.5 2294.5,-145.5 2294.5,-126.5 2343.5,-126.5 2343.5,-145.5"/>
<text text-anchor="middle" x="2319" y="-133.5" font-family="Helvetica,sans-Serif" font-size="10.00">cassert</text>
</a>
</g>
</g>
<!-- Node38&#45;&gt;Node39 -->
<g id="edge73" class="edge">
<title>Node38&#45;&gt;Node39</title>
<path fill="none" stroke="#63b8ff" d="M2110.87,-192.41C2167.27,-179.57 2268.53,-156.3 2285,-151 2286.67,-150.46 2288.38,-149.88 2290.09,-149.27"/>
<polygon fill="#63b8ff" stroke="#63b8ff" points="2291.7,-152.39 2299.78,-145.54 2289.19,-145.86 2291.7,-152.39"/>
</g>
<!-- Node40 -->
<g id="node40" class="node">
<title>Node40</title>
<g id="a_node40"><a xlink:title=" ">
<polygon fill="#e0e0e0" stroke="#999999" points="1873.5,-145.5 1748.5,-145.5 1748.5,-126.5 1873.5,-126.5 1873.5,-145.5"/>
<text text-anchor="middle" x="1811" y="-133.5" font-family="Helvetica,sans-Serif" font-size="10.00">agl&#45;shell&#45;client&#45;protocol.h</text>
</a>
</g>
</g>
<!-- Node38&#45;&gt;Node40 -->
<g id="edge74" class="edge">
<title>Node38&#45;&gt;Node40</title>
<path fill="none" stroke="#63b8ff" d="M2037.94,-192.44C1990.88,-180.94 1907.25,-160.51 1855.71,-147.92"/>
<polygon fill="#63b8ff" stroke="#63b8ff" points="1856.4,-144.49 1845.86,-145.51 1854.74,-151.29 1856.4,-144.49"/>
</g>
<!-- Node41 -->
<g id="node41" class="node">
<title>Node41</title>
<g id="a_node41"><a xlink:title=" ">
<polygon fill="#e0e0e0" stroke="#999999" points="1994,-151 1892,-151 1892,-121 1994,-121 1994,-151"/>
<text text-anchor="start" x="1900" y="-139" font-family="Helvetica,sans-Serif" font-size="10.00">ivi&#45;application&#45;client</text>
<text text-anchor="middle" x="1943" y="-128" font-family="Helvetica,sans-Serif" font-size="10.00">&#45;protocol.h</text>
</a>
</g>
</g>
<!-- Node38&#45;&gt;Node41 -->
<g id="edge77" class="edge">
<title>Node38&#45;&gt;Node41</title>
<path fill="none" stroke="#63b8ff" d="M2055.47,-192.37C2036.42,-182.99 2005.4,-167.72 1980.77,-155.59"/>
<polygon fill="#63b8ff" stroke="#63b8ff" points="1982.19,-152.39 1971.67,-151.12 1979.1,-158.67 1982.19,-152.39"/>
</g>
<!-- Node42 -->
<g id="node42" class="node">
<title>Node42</title>
<g id="a_node42"><a xlink:title=" ">
<polygon fill="#e0e0e0" stroke="#999999" points="2129.5,-145.5 2012.5,-145.5 2012.5,-126.5 2129.5,-126.5 2129.5,-145.5"/>
<text text-anchor="middle" x="2071" y="-133.5" font-family="Helvetica,sans-Serif" font-size="10.00">ivi&#45;wm&#45;client&#45;protocol.h</text>
</a>
</g>
</g>
<!-- Node38&#45;&gt;Node42 -->
<g id="edge78" class="edge">
<title>Node38&#45;&gt;Node42</title>
<path fill="none" stroke="#63b8ff" d="M2072.73,-192.37C2072.44,-183.16 2071.98,-168.29 2071.6,-156.27"/>
<polygon fill="#63b8ff" stroke="#63b8ff" points="2075.09,-155.79 2071.28,-145.91 2068.09,-156.01 2075.09,-155.79"/>
</g>
<!-- Node43 -->
<g id="node43" class="node">
<title>Node43</title>
<g id="a_node43"><a xlink:title=" ">
<polygon fill="#e0e0e0" stroke="#999999" points="2276,-145.5 2148,-145.5 2148,-126.5 2276,-126.5 2276,-145.5"/>
<text text-anchor="middle" x="2212" y="-133.5" font-family="Helvetica,sans-Serif" font-size="10.00">xdg&#45;shell&#45;client&#45;protocol.h</text>
</a>
</g>
</g>
<!-- Node38&#45;&gt;Node43 -->
<g id="edge79" class="edge">
<title>Node38&#45;&gt;Node43</title>
<path fill="none" stroke="#63b8ff" d="M2091.75,-192.37C2115.48,-181.44 2156.57,-162.52 2184.02,-149.88"/>
<polygon fill="#63b8ff" stroke="#63b8ff" points="2185.49,-153.06 2193.11,-145.7 2182.56,-146.7 2185.49,-153.06"/>
</g>
</g>
</svg>
