<?xml version="1.0" encoding="UTF-8" standalone="no"?>
<!DOCTYPE svg PUBLIC "-//W3C//DTD SVG 1.1//EN"
 "http://www.w3.org/Graphics/SVG/1.1/DTD/svg11.dtd">
<!-- Generated by graphviz version 2.43.0 (0)
 -->
<!-- Title: /home/joel.winarske@toyotaconnected.com/development/workspace&#45;automation&#45;configs/app/ivi&#45;homescreen/shell/textures/texture.cc Pages: 1 -->
<svg width="3302pt" height="452pt"
 viewBox="0.00 0.00 3301.50 452.00" xmlns="http://www.w3.org/2000/svg" xmlns:xlink="http://www.w3.org/1999/xlink">
<g id="graph0" class="graph" transform="scale(1 1) rotate(0) translate(4 448)">
<title>/home/joel.winarske@toyotaconnected.com/development/workspace&#45;automation&#45;configs/app/ivi&#45;homescreen/shell/textures/texture.cc</title>
<polygon fill="white" stroke="transparent" points="-4,4 -4,-448 3297.5,-448 3297.5,4 -4,4"/>
<!-- Node1 -->
<g id="node1" class="node">
<title>Node1</title>
<g id="a_node1"><a xlink:title=" ">
<polygon fill="#bfbfbf" stroke="black" points="490.5,-369.5 490.5,-443.5 655.5,-443.5 655.5,-369.5 490.5,-369.5"/>
<text text-anchor="start" x="498.5" y="-431.5" font-family="Helvetica,sans-Serif" font-size="10.00">/home/joel.winarske</text>
<text text-anchor="start" x="498.5" y="-420.5" font-family="Helvetica,sans-Serif" font-size="10.00">@toyotaconnected.com</text>
<text text-anchor="start" x="498.5" y="-409.5" font-family="Helvetica,sans-Serif" font-size="10.00">/development/workspace</text>
<text text-anchor="start" x="498.5" y="-398.5" font-family="Helvetica,sans-Serif" font-size="10.00">&#45;automation&#45;configs/app</text>
<text text-anchor="start" x="498.5" y="-387.5" font-family="Helvetica,sans-Serif" font-size="10.00">/ivi&#45;homescreen/shell/textures</text>
<text text-anchor="middle" x="573" y="-376.5" font-family="Helvetica,sans-Serif" font-size="10.00">/texture.cc</text>
</a>
</g>
</g>
<!-- Node2 -->
<g id="node2" class="node">
<title>Node2</title>
<g id="a_node2"><a xlink:href="texture_8h.html" target="_top" xlink:title=" ">
<polygon fill="white" stroke="black" points="410.5,-196 410.5,-215 471.5,-215 471.5,-196 410.5,-196"/>
<text text-anchor="middle" x="441" y="-203" font-family="Helvetica,sans-Serif" font-size="10.00">texture.h</text>
</a>
</g>
</g>
<!-- Node1&#45;&gt;Node2 -->
<g id="edge1" class="edge">
<title>Node1&#45;&gt;Node2</title>
<path fill="none" stroke="midnightblue" d="M490.27,-398.05C447.17,-389.49 397.96,-371.32 371,-333 351.56,-305.37 355.61,-287.07 371,-257 379.48,-240.43 396.21,-228.05 411.19,-219.69"/>
<polygon fill="midnightblue" stroke="midnightblue" points="412.94,-222.73 420.2,-215.01 409.71,-216.52 412.94,-222.73"/>
</g>
<!-- Node12 -->
<g id="node12" class="node">
<title>Node12</title>
<g id="a_node12"><a xlink:title=" ">
<polygon fill="white" stroke="#bfbfbf" points="554,-129 554,-148 606,-148 606,-129 554,-129"/>
<text text-anchor="middle" x="580" y="-136" font-family="Helvetica,sans-Serif" font-size="10.00">cassert</text>
</a>
</g>
</g>
<!-- Node1&#45;&gt;Node12 -->
<g id="edge13" class="edge">
<title>Node1&#45;&gt;Node12</title>
<path fill="none" stroke="midnightblue" d="M527.12,-369.3C496.63,-340.54 464.77,-298.4 480,-257 496.05,-213.37 536.29,-174.9 560.55,-154.64"/>
<polygon fill="midnightblue" stroke="midnightblue" points="562.85,-157.28 568.4,-148.26 558.44,-151.85 562.85,-157.28"/>
</g>
<!-- Node13 -->
<g id="node13" class="node">
<title>Node13</title>
<g id="a_node13"><a xlink:href="engine_8h.html" target="_top" xlink:title=" ">
<polygon fill="white" stroke="black" points="755.5,-313.5 755.5,-332.5 814.5,-332.5 814.5,-313.5 755.5,-313.5"/>
<text text-anchor="middle" x="785" y="-320.5" font-family="Helvetica,sans-Serif" font-size="10.00">engine.h</text>
</a>
</g>
</g>
<!-- Node1&#45;&gt;Node13 -->
<g id="edge14" class="edge">
<title>Node1&#45;&gt;Node13</title>
<path fill="none" stroke="midnightblue" d="M655.57,-373.76C689.65,-360.66 727.12,-346.25 752.94,-336.32"/>
<polygon fill="midnightblue" stroke="midnightblue" points="754.49,-339.48 762.57,-332.62 751.98,-332.94 754.49,-339.48"/>
</g>
<!-- Node20 -->
<g id="node20" class="node">
<title>Node20</title>
<g id="a_node20"><a xlink:href="logging_8h.html" target="_top" xlink:title=" ">
<polygon fill="white" stroke="black" points="3180,-257.5 3180,-276.5 3242,-276.5 3242,-257.5 3180,-257.5"/>
<text text-anchor="middle" x="3211" y="-264.5" font-family="Helvetica,sans-Serif" font-size="10.00">logging.h</text>
</a>
</g>
</g>
<!-- Node1&#45;&gt;Node20 -->
<g id="edge80" class="edge">
<title>Node1&#45;&gt;Node20</title>
<path fill="none" stroke="midnightblue" d="M655.68,-405.84C978.36,-406.22 2183.63,-398.9 3166,-277 3167.11,-276.86 3168.23,-276.71 3169.36,-276.55"/>
<polygon fill="midnightblue" stroke="midnightblue" points="3170.31,-279.94 3179.63,-274.89 3169.19,-273.03 3170.31,-279.94"/>
</g>
<!-- Node3 -->
<g id="node3" class="node">
<title>Node3</title>
<g id="a_node3"><a xlink:title=" ">
<polygon fill="white" stroke="#bfbfbf" points="1208,-129 1208,-148 1266,-148 1266,-129 1208,-129"/>
<text text-anchor="middle" x="1237" y="-136" font-family="Helvetica,sans-Serif" font-size="10.00">memory</text>
</a>
</g>
</g>
<!-- Node2&#45;&gt;Node3 -->
<g id="edge2" class="edge">
<title>Node2&#45;&gt;Node3</title>
<path fill="none" stroke="midnightblue" d="M471.61,-203.62C571.18,-200.49 894.72,-188.18 1160,-154 1172.44,-152.4 1185.9,-150.07 1198.04,-147.74"/>
<polygon fill="midnightblue" stroke="midnightblue" points="1198.74,-151.17 1207.88,-145.81 1197.39,-144.31 1198.74,-151.17"/>
</g>
<!-- Node4 -->
<g id="node4" class="node">
<title>Node4</title>
<g id="a_node4"><a xlink:title=" ">
<polygon fill="white" stroke="#bfbfbf" points="488.5,-129 488.5,-148 535.5,-148 535.5,-129 488.5,-129"/>
<text text-anchor="middle" x="512" y="-136" font-family="Helvetica,sans-Serif" font-size="10.00">vector</text>
</a>
</g>
</g>
<!-- Node2&#45;&gt;Node4 -->
<g id="edge3" class="edge">
<title>Node2&#45;&gt;Node4</title>
<path fill="none" stroke="midnightblue" d="M450.58,-195.73C461.97,-185.31 481.19,-167.71 495.1,-154.97"/>
<polygon fill="midnightblue" stroke="midnightblue" points="497.56,-157.46 502.58,-148.13 492.84,-152.3 497.56,-157.46"/>
</g>
<!-- Node5 -->
<g id="node5" class="node">
<title>Node5</title>
<g id="a_node5"><a xlink:title=" ">
<polygon fill="white" stroke="#bfbfbf" points="1697,-6 1697,-25 1759,-25 1759,-6 1697,-6"/>
<text text-anchor="middle" x="1728" y="-13" font-family="Helvetica,sans-Serif" font-size="10.00">EGL/egl.h</text>
</a>
</g>
</g>
<!-- Node2&#45;&gt;Node5 -->
<g id="edge4" class="edge">
<title>Node2&#45;&gt;Node5</title>
<path fill="none" stroke="midnightblue" d="M439.08,-195.82C435.92,-179 431.84,-141.99 452,-123 552.25,-28.58 1553.34,-59.85 1688,-31 1691.25,-30.3 1694.59,-29.4 1697.9,-28.39"/>
<polygon fill="midnightblue" stroke="midnightblue" points="1699.2,-31.65 1707.56,-25.13 1696.96,-25.02 1699.2,-31.65"/>
</g>
<!-- Node6 -->
<g id="node6" class="node">
<title>Node6</title>
<g id="a_node6"><a xlink:title=" ">
<polygon fill="white" stroke="#bfbfbf" points="316,-129 316,-148 394,-148 394,-129 316,-129"/>
<text text-anchor="middle" x="355" y="-136" font-family="Helvetica,sans-Serif" font-size="10.00">EGL/eglext.h</text>
</a>
</g>
</g>
<!-- Node2&#45;&gt;Node6 -->
<g id="edge5" class="edge">
<title>Node2&#45;&gt;Node6</title>
<path fill="none" stroke="midnightblue" d="M429.4,-195.73C415.35,-185.11 391.45,-167.05 374.53,-154.26"/>
<polygon fill="midnightblue" stroke="midnightblue" points="376.5,-151.36 366.41,-148.13 372.28,-156.95 376.5,-151.36"/>
</g>
<!-- Node7 -->
<g id="node7" class="node">
<title>Node7</title>
<g id="a_node7"><a xlink:title=" ">
<polygon fill="white" stroke="#bfbfbf" points="28,-129 28,-148 102,-148 102,-129 28,-129"/>
<text text-anchor="middle" x="65" y="-136" font-family="Helvetica,sans-Serif" font-size="10.00">GLES2/gl2.h</text>
</a>
</g>
</g>
<!-- Node2&#45;&gt;Node7 -->
<g id="edge6" class="edge">
<title>Node2&#45;&gt;Node7</title>
<path fill="none" stroke="midnightblue" d="M410.29,-198.92C394.65,-196.14 375.33,-192.78 358,-190 248.46,-172.45 219.14,-178.76 111,-154 107.16,-153.12 103.18,-152.08 99.24,-150.95"/>
<polygon fill="midnightblue" stroke="midnightblue" points="100.21,-147.59 89.63,-148.06 98.2,-154.3 100.21,-147.59"/>
</g>
<!-- Node8 -->
<g id="node8" class="node">
<title>Node8</title>
<g id="a_node8"><a xlink:title=" ">
<polygon fill="white" stroke="#bfbfbf" points="120,-129 120,-148 260,-148 260,-129 120,-129"/>
<text text-anchor="middle" x="190" y="-136" font-family="Helvetica,sans-Serif" font-size="10.00">flutter/encodable_value.h</text>
</a>
</g>
</g>
<!-- Node2&#45;&gt;Node8 -->
<g id="edge7" class="edge">
<title>Node2&#45;&gt;Node8</title>
<path fill="none" stroke="midnightblue" d="M415.4,-195.9C409.08,-193.88 402.32,-191.79 396,-190 342.32,-174.79 280.03,-159.9 238.12,-150.27"/>
<polygon fill="midnightblue" stroke="midnightblue" points="238.71,-146.82 228.18,-148 237.15,-153.64 238.71,-146.82"/>
</g>
<!-- Node9 -->
<g id="node9" class="node">
<title>Node9</title>
<g id="a_node9"><a xlink:title=" ">
<polygon fill="white" stroke="#bfbfbf" points="648.5,-0.5 648.5,-30.5 785.5,-30.5 785.5,-0.5 648.5,-0.5"/>
<text text-anchor="start" x="656.5" y="-18.5" font-family="Helvetica,sans-Serif" font-size="10.00">shell/platform/embedder</text>
<text text-anchor="middle" x="717" y="-7.5" font-family="Helvetica,sans-Serif" font-size="10.00">/embedder.h</text>
</a>
</g>
</g>
<!-- Node2&#45;&gt;Node9 -->
<g id="edge8" class="edge">
<title>Node2&#45;&gt;Node9</title>
<path fill="none" stroke="midnightblue" d="M416.24,-195.99C378.42,-182.86 310.26,-158.72 307,-154 299.16,-142.67 298.57,-133.9 307,-123 347.15,-71.08 530.63,-39.79 638.05,-25.6"/>
<polygon fill="midnightblue" stroke="midnightblue" points="638.74,-29.04 648.2,-24.28 637.83,-22.1 638.74,-29.04"/>
</g>
<!-- Node10 -->
<g id="node10" class="node">
<title>Node10</title>
<g id="a_node10"><a xlink:href="constants_8h.html" target="_top" xlink:title=" ">
<polygon fill="white" stroke="black" points="1656.5,-67.5 1656.5,-86.5 1729.5,-86.5 1729.5,-67.5 1656.5,-67.5"/>
<text text-anchor="middle" x="1693" y="-74.5" font-family="Helvetica,sans-Serif" font-size="10.00">constants.h</text>
</a>
</g>
</g>
<!-- Node2&#45;&gt;Node10 -->
<g id="edge9" class="edge">
<title>Node2&#45;&gt;Node10</title>
<path fill="none" stroke="midnightblue" d="M442.08,-195.96C444.77,-178.7 453.5,-139.92 479,-123 528.44,-90.2 1429.27,-80.29 1646.27,-78.38"/>
<polygon fill="midnightblue" stroke="midnightblue" points="1646.4,-81.87 1656.37,-78.29 1646.34,-74.87 1646.4,-81.87"/>
</g>
<!-- Node10&#45;&gt;Node5 -->
<g id="edge10" class="edge">
<title>Node10&#45;&gt;Node5</title>
<path fill="none" stroke="midnightblue" d="M1698.01,-67.48C1703.16,-58.73 1711.31,-44.87 1717.82,-33.81"/>
<polygon fill="midnightblue" stroke="midnightblue" points="1720.94,-35.4 1722.99,-25.01 1714.91,-31.85 1720.94,-35.4"/>
</g>
<!-- Node10&#45;&gt;Node9 -->
<g id="edge11" class="edge">
<title>Node10&#45;&gt;Node9</title>
<path fill="none" stroke="midnightblue" d="M1656.31,-68.98C1651.51,-68.22 1646.64,-67.53 1642,-67 1330.1,-31.1 956,-20.58 795.93,-17.62"/>
<polygon fill="midnightblue" stroke="midnightblue" points="795.76,-14.11 785.7,-17.43 795.64,-21.11 795.76,-14.11"/>
</g>
<!-- Node11 -->
<g id="node11" class="node">
<title>Node11</title>
<g id="a_node11"><a xlink:title=" ">
<polygon fill="white" stroke="#bfbfbf" points="1637,-6 1637,-25 1679,-25 1679,-6 1637,-6"/>
<text text-anchor="middle" x="1658" y="-13" font-family="Helvetica,sans-Serif" font-size="10.00">array</text>
</a>
</g>
</g>
<!-- Node10&#45;&gt;Node11 -->
<g id="edge12" class="edge">
<title>Node10&#45;&gt;Node11</title>
<path fill="none" stroke="midnightblue" d="M1687.99,-67.48C1682.84,-58.73 1674.69,-44.87 1668.18,-33.81"/>
<polygon fill="midnightblue" stroke="midnightblue" points="1671.09,-31.85 1663.01,-25.01 1665.06,-35.4 1671.09,-31.85"/>
</g>
<!-- Node13&#45;&gt;Node3 -->
<g id="edge21" class="edge">
<title>Node13&#45;&gt;Node3</title>
<path fill="none" stroke="midnightblue" d="M814.76,-321.4C890.18,-319.37 1086.71,-310.91 1141,-277 1180.21,-252.51 1171.19,-227.65 1198,-190 1206.17,-178.53 1215.84,-166 1223.5,-156.29"/>
<polygon fill="midnightblue" stroke="midnightblue" points="1226.39,-158.29 1229.88,-148.28 1220.92,-153.93 1226.39,-158.29"/>
</g>
<!-- Node13&#45;&gt;Node4 -->
<g id="edge25" class="edge">
<title>Node13&#45;&gt;Node4</title>
<path fill="none" stroke="midnightblue" d="M773.49,-313.38C756.52,-300.73 723.67,-276.54 695,-257 638.25,-218.33 569.75,-175.29 534.86,-153.61"/>
<polygon fill="midnightblue" stroke="midnightblue" points="536.29,-150.38 525.94,-148.09 532.6,-156.33 536.29,-150.38"/>
</g>
<!-- Node13&#45;&gt;Node5 -->
<g id="edge16" class="edge">
<title>Node13&#45;&gt;Node5</title>
<path fill="none" stroke="midnightblue" d="M814.93,-322.17C1088.93,-323.49 3152,-329.41 3152,-206.5 3152,-206.5 3152,-206.5 3152,-137.5 3152,-66.18 2002.91,-25.35 1769.19,-17.79"/>
<polygon fill="midnightblue" stroke="midnightblue" points="1769.17,-14.28 1759.07,-17.46 1768.95,-21.28 1769.17,-14.28"/>
</g>
<!-- Node13&#45;&gt;Node7 -->
<g id="edge17" class="edge">
<title>Node13&#45;&gt;Node7</title>
<path fill="none" stroke="midnightblue" d="M755.23,-320.3C695.23,-316.38 555.76,-304.85 442,-277 307.71,-244.12 155.07,-179.59 93.23,-152.24"/>
<polygon fill="midnightblue" stroke="midnightblue" points="94.32,-148.89 83.76,-148.03 91.48,-155.29 94.32,-148.89"/>
</g>
<!-- Node13&#45;&gt;Node8 -->
<g id="edge18" class="edge">
<title>Node13&#45;&gt;Node8</title>
<path fill="none" stroke="midnightblue" d="M755.23,-322.14C699.25,-321.45 575.38,-315.27 480,-277 440.06,-260.97 436.01,-246.03 401,-221 381.83,-207.3 379.13,-200.42 358,-190 320.96,-171.73 276.02,-158.64 241.94,-150.38"/>
<polygon fill="midnightblue" stroke="midnightblue" points="242.72,-146.96 232.19,-148.07 241.11,-153.78 242.72,-146.96"/>
</g>
<!-- Node13&#45;&gt;Node9 -->
<g id="edge19" class="edge">
<title>Node13&#45;&gt;Node9</title>
<path fill="none" stroke="midnightblue" d="M755.19,-320.82C611.8,-314.76 0,-284.33 0,-206.5 0,-206.5 0,-206.5 0,-137.5 0,-73.35 452.01,-34.79 638.25,-21.62"/>
<polygon fill="midnightblue" stroke="midnightblue" points="638.52,-25.11 648.25,-20.92 638.03,-18.13 638.52,-25.11"/>
</g>
<!-- Node13&#45;&gt;Node10 -->
<g id="edge30" class="edge">
<title>Node13&#45;&gt;Node10</title>
<path fill="none" stroke="midnightblue" d="M814.84,-322.23C1073.66,-323.93 2932.72,-329.97 3095,-154 3104.34,-143.87 3104.58,-132.9 3095,-123 3046.85,-73.28 1978.28,-76.38 1739.88,-77.7"/>
<polygon fill="midnightblue" stroke="midnightblue" points="1739.78,-74.2 1729.8,-77.75 1739.82,-81.2 1739.78,-74.2"/>
</g>
<!-- Node14 -->
<g id="node14" class="node">
<title>Node14</title>
<g id="a_node14"><a xlink:title=" ">
<polygon fill="white" stroke="#bfbfbf" points="489.5,-257.5 489.5,-276.5 554.5,-276.5 554.5,-257.5 489.5,-257.5"/>
<text text-anchor="middle" x="522" y="-264.5" font-family="Helvetica,sans-Serif" font-size="10.00">functional</text>
</a>
</g>
</g>
<!-- Node13&#45;&gt;Node14 -->
<g id="edge15" class="edge">
<title>Node13&#45;&gt;Node14</title>
<path fill="none" stroke="midnightblue" d="M755.31,-316.05C714.69,-307.9 639.26,-292.68 564.6,-277.11"/>
<polygon fill="midnightblue" stroke="midnightblue" points="565.06,-273.63 554.55,-275.01 563.63,-280.48 565.06,-273.63"/>
</g>
<!-- Node15 -->
<g id="node15" class="node">
<title>Node15</title>
<g id="a_node15"><a xlink:title=" ">
<polygon fill="white" stroke="#bfbfbf" points="790,-129 790,-148 828,-148 828,-129 790,-129"/>
<text text-anchor="middle" x="809" y="-136" font-family="Helvetica,sans-Serif" font-size="10.00">map</text>
</a>
</g>
</g>
<!-- Node13&#45;&gt;Node15 -->
<g id="edge20" class="edge">
<title>Node13&#45;&gt;Node15</title>
<path fill="none" stroke="midnightblue" d="M786.16,-313.2C789.86,-285.07 801.44,-196.96 806.55,-158.16"/>
<polygon fill="midnightblue" stroke="midnightblue" points="810.02,-158.59 807.85,-148.21 803.08,-157.67 810.02,-158.59"/>
</g>
<!-- Node16 -->
<g id="node16" class="node">
<title>Node16</title>
<g id="a_node16"><a xlink:title=" ">
<polygon fill="white" stroke="#bfbfbf" points="573,-257.5 573,-276.5 621,-276.5 621,-257.5 573,-257.5"/>
<text text-anchor="middle" x="597" y="-264.5" font-family="Helvetica,sans-Serif" font-size="10.00">mutex</text>
</a>
</g>
</g>
<!-- Node13&#45;&gt;Node16 -->
<g id="edge22" class="edge">
<title>Node13&#45;&gt;Node16</title>
<path fill="none" stroke="midnightblue" d="M755.21,-313.44C721.47,-303.75 666.6,-287.99 631.16,-277.81"/>
<polygon fill="midnightblue" stroke="midnightblue" points="631.85,-274.37 621.27,-274.97 629.91,-281.1 631.85,-274.37"/>
</g>
<!-- Node17 -->
<g id="node17" class="node">
<title>Node17</title>
<g id="a_node17"><a xlink:title=" ">
<polygon fill="white" stroke="#bfbfbf" points="639.5,-257.5 639.5,-276.5 686.5,-276.5 686.5,-257.5 639.5,-257.5"/>
<text text-anchor="middle" x="663" y="-264.5" font-family="Helvetica,sans-Serif" font-size="10.00">queue</text>
</a>
</g>
</g>
<!-- Node13&#45;&gt;Node17 -->
<g id="edge23" class="edge">
<title>Node13&#45;&gt;Node17</title>
<path fill="none" stroke="midnightblue" d="M765.67,-313.44C745.68,-304.6 714.26,-290.69 691.44,-280.59"/>
<polygon fill="midnightblue" stroke="midnightblue" points="692.8,-277.36 682.24,-276.52 689.97,-283.76 692.8,-277.36"/>
</g>
<!-- Node18 -->
<g id="node18" class="node">
<title>Node18</title>
<g id="a_node18"><a xlink:title=" ">
<polygon fill="white" stroke="#bfbfbf" points="1284,-129 1284,-148 1328,-148 1328,-129 1284,-129"/>
<text text-anchor="middle" x="1306" y="-136" font-family="Helvetica,sans-Serif" font-size="10.00">string</text>
</a>
</g>
</g>
<!-- Node13&#45;&gt;Node18 -->
<g id="edge24" class="edge">
<title>Node13&#45;&gt;Node18</title>
<path fill="none" stroke="midnightblue" d="M814.68,-321.91C924.29,-320.88 1303.44,-310.79 1372,-221 1390.48,-196.79 1356.63,-169.42 1330.95,-153.36"/>
<polygon fill="midnightblue" stroke="midnightblue" points="1332.68,-150.32 1322.3,-148.17 1329.08,-156.32 1332.68,-150.32"/>
</g>
<!-- Node19 -->
<g id="node19" class="node">
<title>Node19</title>
<g id="a_node19"><a xlink:href="backend_8h.html" target="_top" xlink:title=" ">
<polygon fill="white" stroke="black" points="662,-129 662,-148 772,-148 772,-129 662,-129"/>
<text text-anchor="middle" x="717" y="-136" font-family="Helvetica,sans-Serif" font-size="10.00">backend/backend.h</text>
</a>
</g>
</g>
<!-- Node13&#45;&gt;Node19 -->
<g id="edge26" class="edge">
<title>Node13&#45;&gt;Node19</title>
<path fill="none" stroke="midnightblue" d="M778.61,-313.2C763.71,-285.07 730.48,-196.96 719.66,-158.16"/>
<polygon fill="midnightblue" stroke="midnightblue" points="722.99,-157.05 717.15,-148.21 716.21,-158.77 722.99,-157.05"/>
</g>
<!-- Node13&#45;&gt;Node20 -->
<g id="edge31" class="edge">
<title>Node13&#45;&gt;Node20</title>
<path fill="none" stroke="midnightblue" d="M814.63,-321.76C1071.72,-319.65 2921.31,-303.57 3166,-277 3167.11,-276.88 3168.23,-276.75 3169.36,-276.6"/>
<polygon fill="midnightblue" stroke="midnightblue" points="3170.29,-280 3179.64,-275.01 3169.22,-273.08 3170.29,-280"/>
</g>
<!-- Node22 -->
<g id="node22" class="node">
<title>Node22</title>
<g id="a_node22"><a xlink:href="platform__channel_8h.html" target="_top" xlink:title=" ">
<polygon fill="white" stroke="black" points="837.5,-196 837.5,-215 948.5,-215 948.5,-196 837.5,-196"/>
<text text-anchor="middle" x="893" y="-203" font-family="Helvetica,sans-Serif" font-size="10.00">platform_channel.h</text>
</a>
</g>
</g>
<!-- Node13&#45;&gt;Node22 -->
<g id="edge33" class="edge">
<title>Node13&#45;&gt;Node22</title>
<path fill="none" stroke="midnightblue" d="M793.12,-313.32C811.1,-294.09 854.53,-247.64 877.75,-222.81"/>
<polygon fill="midnightblue" stroke="midnightblue" points="880.51,-224.98 884.79,-215.28 875.4,-220.2 880.51,-224.98"/>
</g>
<!-- Node23 -->
<g id="node23" class="node">
<title>Node23</title>
<g id="a_node23"><a xlink:href="key__event_8h.html" target="_top" xlink:title=" ">
<polygon fill="white" stroke="black" points="1528,-190.5 1528,-220.5 1640,-220.5 1640,-190.5 1528,-190.5"/>
<text text-anchor="start" x="1536" y="-208.5" font-family="Helvetica,sans-Serif" font-size="10.00">static_plugins/key</text>
<text text-anchor="middle" x="1584" y="-197.5" font-family="Helvetica,sans-Serif" font-size="10.00">_event/key_event.h</text>
</a>
</g>
</g>
<!-- Node13&#45;&gt;Node23 -->
<g id="edge37" class="edge">
<title>Node13&#45;&gt;Node23</title>
<path fill="none" stroke="midnightblue" d="M814.71,-321.03C922.2,-317.35 1290.43,-303.08 1405,-277 1455.75,-265.45 1511.05,-241.83 1546.55,-225.12"/>
<polygon fill="midnightblue" stroke="midnightblue" points="1548.5,-228.07 1556.02,-220.61 1545.49,-221.75 1548.5,-228.07"/>
</g>
<!-- Node30 -->
<g id="node30" class="node">
<title>Node30</title>
<g id="a_node30"><a xlink:href="text__input_8h.html" target="_top" xlink:title=" ">
<polygon fill="white" stroke="black" points="2136,-190.5 2136,-220.5 2244,-220.5 2244,-190.5 2136,-190.5"/>
<text text-anchor="start" x="2144" y="-208.5" font-family="Helvetica,sans-Serif" font-size="10.00">static_plugins/text</text>
<text text-anchor="middle" x="2190" y="-197.5" font-family="Helvetica,sans-Serif" font-size="10.00">_input/text_input.h</text>
</a>
</g>
</g>
<!-- Node13&#45;&gt;Node30 -->
<g id="edge49" class="edge">
<title>Node13&#45;&gt;Node30</title>
<path fill="none" stroke="midnightblue" d="M814.61,-320.3C908.18,-314.86 1205.89,-297.05 1452,-277 1701.49,-256.67 1997.84,-226.54 2125.85,-213.23"/>
<polygon fill="midnightblue" stroke="midnightblue" points="2126.3,-216.71 2135.88,-212.19 2125.57,-209.75 2126.3,-216.71"/>
</g>
<!-- Node35 -->
<g id="node35" class="node">
<title>Node35</title>
<g id="a_node35"><a xlink:href="flutter__view_8h.html" target="_top" xlink:title=" ">
<polygon fill="white" stroke="black" points="1023.5,-257.5 1023.5,-276.5 1132.5,-276.5 1132.5,-257.5 1023.5,-257.5"/>
<text text-anchor="middle" x="1078" y="-264.5" font-family="Helvetica,sans-Serif" font-size="10.00">view/flutter_view.h</text>
</a>
</g>
</g>
<!-- Node13&#45;&gt;Node35 -->
<g id="edge63" class="edge">
<title>Node13&#45;&gt;Node35</title>
<path fill="none" stroke="midnightblue" d="M814.71,-316.53C863.15,-307.6 959.94,-289.76 1021.7,-278.38"/>
<polygon fill="midnightblue" stroke="midnightblue" points="1022.48,-281.79 1031.68,-276.54 1021.21,-274.91 1022.48,-281.79"/>
</g>
<!-- Node19&#45;&gt;Node9 -->
<g id="edge27" class="edge">
<title>Node19&#45;&gt;Node9</title>
<path fill="none" stroke="midnightblue" d="M717,-128.8C717,-110.6 717,-67.98 717,-40.79"/>
<polygon fill="midnightblue" stroke="midnightblue" points="720.5,-40.54 717,-30.54 713.5,-40.54 720.5,-40.54"/>
</g>
<!-- Node19&#45;&gt;Node10 -->
<g id="edge28" class="edge">
<title>Node19&#45;&gt;Node10</title>
<path fill="none" stroke="midnightblue" d="M749.69,-128.95C759.67,-126.64 770.73,-124.41 781,-123 1109.78,-77.99 1510.67,-76.5 1645.9,-77.45"/>
<polygon fill="midnightblue" stroke="midnightblue" points="1646.27,-80.96 1656.3,-77.54 1646.33,-73.96 1646.27,-80.96"/>
</g>
<!-- Node19&#45;&gt;Node13 -->
<g id="edge29" class="edge">
<title>Node19&#45;&gt;Node13</title>
<path fill="none" stroke="midnightblue" d="M723.34,-148.21C738.21,-176.21 771.44,-264.32 782.3,-303.22"/>
<polygon fill="midnightblue" stroke="midnightblue" points="778.98,-304.36 784.83,-313.2 785.77,-302.64 778.98,-304.36"/>
</g>
<!-- Node21 -->
<g id="node21" class="node">
<title>Node21</title>
<g id="a_node21"><a xlink:title=" ">
<polygon fill="white" stroke="#bfbfbf" points="3180.5,-196 3180.5,-215 3293.5,-215 3293.5,-196 3180.5,-196"/>
<text text-anchor="middle" x="3237" y="-203" font-family="Helvetica,sans-Serif" font-size="10.00">flutter/fml/logging.h</text>
</a>
</g>
</g>
<!-- Node20&#45;&gt;Node21 -->
<g id="edge32" class="edge">
<title>Node20&#45;&gt;Node21</title>
<path fill="none" stroke="midnightblue" d="M3214.73,-257.48C3218.47,-248.9 3224.36,-235.43 3229.14,-224.48"/>
<polygon fill="midnightblue" stroke="midnightblue" points="3232.48,-225.57 3233.28,-215.01 3226.07,-222.77 3232.48,-225.57"/>
</g>
<!-- Node22&#45;&gt;Node9 -->
<g id="edge36" class="edge">
<title>Node22&#45;&gt;Node9</title>
<path fill="none" stroke="midnightblue" d="M837.38,-200.72C773.87,-195.11 675.77,-182.06 653,-154 623.76,-117.96 665.12,-66.37 693.72,-37.73"/>
<polygon fill="midnightblue" stroke="midnightblue" points="696.3,-40.1 701.03,-30.62 691.42,-35.09 696.3,-40.1"/>
</g>
<!-- Node22&#45;&gt;Node15 -->
<g id="edge34" class="edge">
<title>Node22&#45;&gt;Node15</title>
<path fill="none" stroke="midnightblue" d="M881.67,-195.73C867.94,-185.11 844.6,-167.05 828.08,-154.26"/>
<polygon fill="midnightblue" stroke="midnightblue" points="830.2,-151.48 820.15,-148.13 825.92,-157.02 830.2,-151.48"/>
</g>
<!-- Node22&#45;&gt;Node18 -->
<g id="edge35" class="edge">
<title>Node22&#45;&gt;Node18</title>
<path fill="none" stroke="midnightblue" d="M948.58,-196.56C963.94,-194.39 980.61,-192.08 996,-190 1119.91,-173.29 1154.94,-188.9 1275,-154 1276.93,-153.44 1278.88,-152.78 1280.83,-152.04"/>
<polygon fill="midnightblue" stroke="midnightblue" points="1282.46,-155.15 1290.28,-148 1279.71,-148.72 1282.46,-155.15"/>
</g>
<!-- Node23&#45;&gt;Node3 -->
<g id="edge39" class="edge">
<title>Node23&#45;&gt;Node3</title>
<path fill="none" stroke="midnightblue" d="M1527.74,-198.77C1465.25,-191.62 1361.73,-177.38 1275,-154 1272.34,-153.28 1269.61,-152.45 1266.9,-151.55"/>
<polygon fill="midnightblue" stroke="midnightblue" points="1267.85,-148.18 1257.26,-148.1 1265.49,-154.77 1267.85,-148.18"/>
</g>
<!-- Node23&#45;&gt;Node9 -->
<g id="edge46" class="edge">
<title>Node23&#45;&gt;Node9</title>
<path fill="none" stroke="midnightblue" d="M1595.54,-190.39C1608.6,-172.64 1626,-142.15 1609,-123 1555.35,-62.57 1003.94,-30.18 795.88,-20.04"/>
<polygon fill="midnightblue" stroke="midnightblue" points="795.8,-16.53 785.64,-19.55 795.46,-23.52 795.8,-16.53"/>
</g>
<!-- Node23&#45;&gt;Node10 -->
<g id="edge48" class="edge">
<title>Node23&#45;&gt;Node10</title>
<path fill="none" stroke="midnightblue" d="M1640.02,-201.49C1744.94,-195.28 1962.55,-179.46 1985,-154 1994.11,-143.67 1993.97,-133.46 1985,-123 1953.94,-86.79 1813.87,-79.44 1739.59,-78.13"/>
<polygon fill="midnightblue" stroke="midnightblue" points="1739.61,-74.63 1729.56,-77.98 1739.51,-81.63 1739.61,-74.63"/>
</g>
<!-- Node23&#45;&gt;Node15 -->
<g id="edge38" class="edge">
<title>Node23&#45;&gt;Node15</title>
<path fill="none" stroke="midnightblue" d="M1527.76,-200.64C1485.04,-197.71 1424.82,-193.58 1372,-190 1253.12,-181.93 951.76,-186.07 837,-154 835.33,-153.53 833.65,-152.96 831.98,-152.32"/>
<polygon fill="midnightblue" stroke="midnightblue" points="833.32,-149.08 822.78,-148.06 830.38,-155.43 833.32,-149.08"/>
</g>
<!-- Node23&#45;&gt;Node18 -->
<g id="edge40" class="edge">
<title>Node23&#45;&gt;Node18</title>
<path fill="none" stroke="midnightblue" d="M1527.59,-196.85C1476.88,-189.06 1400.78,-175.11 1337,-154 1335.33,-153.45 1333.64,-152.83 1331.94,-152.17"/>
<polygon fill="midnightblue" stroke="midnightblue" points="1333.01,-148.82 1322.44,-148.07 1330.23,-155.24 1333.01,-148.82"/>
</g>
<!-- Node24 -->
<g id="node24" class="node">
<title>Node24</title>
<g id="a_node24"><a xlink:title=" ">
<polygon fill="white" stroke="#bfbfbf" points="1656,-123.5 1656,-153.5 1780,-153.5 1780,-123.5 1656,-123.5"/>
<text text-anchor="start" x="1664" y="-141.5" font-family="Helvetica,sans-Serif" font-size="10.00">flutter/basic_message</text>
<text text-anchor="middle" x="1718" y="-130.5" font-family="Helvetica,sans-Serif" font-size="10.00">_channel.h</text>
</a>
</g>
</g>
<!-- Node23&#45;&gt;Node24 -->
<g id="edge41" class="edge">
<title>Node23&#45;&gt;Node24</title>
<path fill="none" stroke="midnightblue" d="M1613.08,-190.4C1632.65,-180.9 1658.68,-168.28 1679.91,-157.98"/>
<polygon fill="midnightblue" stroke="midnightblue" points="1681.51,-161.09 1688.98,-153.58 1678.46,-154.79 1681.51,-161.09"/>
</g>
<!-- Node25 -->
<g id="node25" class="node">
<title>Node25</title>
<g id="a_node25"><a xlink:title=" ">
<polygon fill="white" stroke="#bfbfbf" points="2200.5,-129 2200.5,-148 2347.5,-148 2347.5,-129 2200.5,-129"/>
<text text-anchor="middle" x="2274" y="-136" font-family="Helvetica,sans-Serif" font-size="10.00">flutter/binary_messenger.h</text>
</a>
</g>
</g>
<!-- Node23&#45;&gt;Node25 -->
<g id="edge42" class="edge">
<title>Node23&#45;&gt;Node25</title>
<path fill="none" stroke="midnightblue" d="M1640.25,-201.52C1747.62,-195.44 1989.1,-179.98 2191,-154 2200.16,-152.82 2209.86,-151.34 2219.26,-149.78"/>
<polygon fill="midnightblue" stroke="midnightblue" points="2220.04,-153.2 2229.31,-148.07 2218.87,-146.3 2220.04,-153.2"/>
</g>
<!-- Node26 -->
<g id="node26" class="node">
<title>Node26</title>
<g id="a_node26"><a xlink:title=" ">
<polygon fill="white" stroke="#bfbfbf" points="1798,-123.5 1798,-153.5 1976,-153.5 1976,-123.5 1798,-123.5"/>
<text text-anchor="start" x="1806" y="-141.5" font-family="Helvetica,sans-Serif" font-size="10.00">flutter/shell/platform</text>
<text text-anchor="middle" x="1887" y="-130.5" font-family="Helvetica,sans-Serif" font-size="10.00">/common/json_message_codec.h</text>
</a>
</g>
</g>
<!-- Node23&#45;&gt;Node26 -->
<g id="edge43" class="edge">
<title>Node23&#45;&gt;Node26</title>
<path fill="none" stroke="midnightblue" d="M1640.28,-192.43C1688.52,-182.08 1758.41,-167.09 1811.49,-155.7"/>
<polygon fill="midnightblue" stroke="midnightblue" points="1812.5,-159.06 1821.54,-153.54 1811.03,-152.22 1812.5,-159.06"/>
</g>
<!-- Node27 -->
<g id="node27" class="node">
<title>Node27</title>
<g id="a_node27"><a xlink:title=" ">
<polygon fill="white" stroke="#bfbfbf" points="1346.5,-129 1346.5,-148 1459.5,-148 1459.5,-129 1346.5,-129"/>
<text text-anchor="middle" x="1403" y="-136" font-family="Helvetica,sans-Serif" font-size="10.00">flutter/fml/macros.h</text>
</a>
</g>
</g>
<!-- Node23&#45;&gt;Node27 -->
<g id="edge44" class="edge">
<title>Node23&#45;&gt;Node27</title>
<path fill="none" stroke="midnightblue" d="M1544.73,-190.4C1512.41,-178.79 1467.09,-162.51 1436.47,-151.52"/>
<polygon fill="midnightblue" stroke="midnightblue" points="1437.28,-148.09 1426.69,-148.01 1434.92,-154.68 1437.28,-148.09"/>
</g>
<!-- Node28 -->
<g id="node28" class="node">
<title>Node28</title>
<g id="a_node28"><a xlink:title=" ">
<polygon fill="white" stroke="#bfbfbf" points="1478,-129 1478,-148 1600,-148 1600,-129 1478,-129"/>
<text text-anchor="middle" x="1539" y="-136" font-family="Helvetica,sans-Serif" font-size="10.00">rapidjson/document.h</text>
</a>
</g>
</g>
<!-- Node23&#45;&gt;Node28 -->
<g id="edge45" class="edge">
<title>Node23&#45;&gt;Node28</title>
<path fill="none" stroke="midnightblue" d="M1574.24,-190.4C1567.36,-180.46 1558.11,-167.11 1550.82,-156.57"/>
<polygon fill="midnightblue" stroke="midnightblue" points="1553.59,-154.42 1545.02,-148.19 1547.83,-158.41 1553.59,-154.42"/>
</g>
<!-- Node29 -->
<g id="node29" class="node">
<title>Node29</title>
<g id="a_node29"><a xlink:title=" ">
<polygon fill="white" stroke="#bfbfbf" points="2032,-129 2032,-148 2182,-148 2182,-129 2032,-129"/>
<text text-anchor="middle" x="2107" y="-136" font-family="Helvetica,sans-Serif" font-size="10.00">xkbcommon/xkbcommon.h</text>
</a>
</g>
</g>
<!-- Node23&#45;&gt;Node29 -->
<g id="edge47" class="edge">
<title>Node23&#45;&gt;Node29</title>
<path fill="none" stroke="midnightblue" d="M1640.29,-198.78C1723.14,-190.17 1882.77,-172.87 2018,-154 2027.44,-152.68 2037.42,-151.17 2047.15,-149.64"/>
<polygon fill="midnightblue" stroke="midnightblue" points="2047.84,-153.07 2057.17,-148.03 2046.74,-146.16 2047.84,-153.07"/>
</g>
<!-- Node30&#45;&gt;Node3 -->
<g id="edge51" class="edge">
<title>Node30&#45;&gt;Node3</title>
<path fill="none" stroke="midnightblue" d="M2135.85,-203.7C1965.33,-200.84 1440.92,-189.33 1275,-154 1271.92,-153.34 1268.76,-152.48 1265.65,-151.49"/>
<polygon fill="midnightblue" stroke="midnightblue" points="1266.58,-148.11 1255.98,-148.06 1264.23,-154.71 1266.58,-148.11"/>
</g>
<!-- Node30&#45;&gt;Node9 -->
<g id="edge60" class="edge">
<title>Node30&#45;&gt;Node9</title>
<path fill="none" stroke="midnightblue" d="M2244.26,-199.06C2312.75,-190.17 2416.9,-168.74 2375,-123 2321.04,-64.08 1118.21,-27.37 795.87,-18.56"/>
<polygon fill="midnightblue" stroke="midnightblue" points="795.78,-15.06 785.69,-18.28 795.59,-22.06 795.78,-15.06"/>
</g>
<!-- Node30&#45;&gt;Node10 -->
<g id="edge62" class="edge">
<title>Node30&#45;&gt;Node10</title>
<path fill="none" stroke="midnightblue" d="M2244.07,-196.97C2305.81,-186.27 2393.7,-163.35 2356,-123 2314.12,-78.18 1884.23,-76.77 1739.94,-77.58"/>
<polygon fill="midnightblue" stroke="midnightblue" points="1739.63,-74.08 1729.65,-77.64 1739.67,-81.08 1739.63,-74.08"/>
</g>
<!-- Node30&#45;&gt;Node15 -->
<g id="edge50" class="edge">
<title>Node30&#45;&gt;Node15</title>
<path fill="none" stroke="midnightblue" d="M2135.67,-203.14C1891.01,-196.91 900.72,-170.78 837,-154 835.33,-153.56 833.64,-153.01 831.97,-152.37"/>
<polygon fill="midnightblue" stroke="midnightblue" points="833.3,-149.14 822.75,-148.15 830.38,-155.5 833.3,-149.14"/>
</g>
<!-- Node30&#45;&gt;Node18 -->
<g id="edge52" class="edge">
<title>Node30&#45;&gt;Node18</title>
<path fill="none" stroke="midnightblue" d="M2136,-203.96C1973.23,-201.9 1489.25,-192.6 1337,-154 1335.01,-153.5 1333,-152.86 1331,-152.15"/>
<polygon fill="midnightblue" stroke="midnightblue" points="1331.92,-148.74 1321.34,-148.07 1329.2,-155.19 1331.92,-148.74"/>
</g>
<!-- Node30&#45;&gt;Node25 -->
<g id="edge53" class="edge">
<title>Node30&#45;&gt;Node25</title>
<path fill="none" stroke="midnightblue" d="M2208.23,-190.4C2221.97,-179.76 2240.78,-165.2 2254.77,-154.38"/>
<polygon fill="midnightblue" stroke="midnightblue" points="2257,-157.08 2262.76,-148.19 2252.71,-151.55 2257,-157.08"/>
</g>
<!-- Node30&#45;&gt;Node27 -->
<g id="edge56" class="edge">
<title>Node30&#45;&gt;Node27</title>
<path fill="none" stroke="midnightblue" d="M2135.9,-203.41C2015.48,-200.4 1716.46,-189.65 1469,-154 1462.06,-153 1454.76,-151.68 1447.64,-150.23"/>
<polygon fill="midnightblue" stroke="midnightblue" points="1447.93,-146.72 1437.42,-148.06 1446.48,-153.56 1447.93,-146.72"/>
</g>
<!-- Node30&#45;&gt;Node28 -->
<g id="edge59" class="edge">
<title>Node30&#45;&gt;Node28</title>
<path fill="none" stroke="midnightblue" d="M2135.98,-200.21C2038.27,-192.29 1825.74,-174.3 1647,-154 1634.76,-152.61 1621.77,-150.99 1609.19,-149.35"/>
<polygon fill="midnightblue" stroke="midnightblue" points="1609.58,-145.87 1599.21,-148.03 1608.67,-152.81 1609.58,-145.87"/>
</g>
<!-- Node30&#45;&gt;Node29 -->
<g id="edge61" class="edge">
<title>Node30&#45;&gt;Node29</title>
<path fill="none" stroke="midnightblue" d="M2171.99,-190.4C2158.41,-179.76 2139.82,-165.2 2126,-154.38"/>
<polygon fill="midnightblue" stroke="midnightblue" points="2128.13,-151.6 2118.1,-148.19 2123.82,-157.12 2128.13,-151.6"/>
</g>
<!-- Node31 -->
<g id="node31" class="node">
<title>Node31</title>
<g id="a_node31"><a xlink:title=" ">
<polygon fill="white" stroke="#bfbfbf" points="2442.5,-129 2442.5,-148 2581.5,-148 2581.5,-129 2442.5,-129"/>
<text text-anchor="middle" x="2512" y="-136" font-family="Helvetica,sans-Serif" font-size="10.00">flutter/method_channel.h</text>
</a>
</g>
</g>
<!-- Node30&#45;&gt;Node31 -->
<g id="edge54" class="edge">
<title>Node30&#45;&gt;Node31</title>
<path fill="none" stroke="midnightblue" d="M2244.26,-193.55C2304.41,-181.41 2400.73,-161.96 2459.97,-150"/>
<polygon fill="midnightblue" stroke="midnightblue" points="2460.75,-153.42 2469.86,-148.01 2459.37,-146.55 2460.75,-153.42"/>
</g>
<!-- Node32 -->
<g id="node32" class="node">
<title>Node32</title>
<g id="a_node32"><a xlink:title=" ">
<polygon fill="white" stroke="#bfbfbf" points="2599.5,-123.5 2599.5,-153.5 2718.5,-153.5 2718.5,-123.5 2599.5,-123.5"/>
<text text-anchor="start" x="2607.5" y="-141.5" font-family="Helvetica,sans-Serif" font-size="10.00">flutter/method_result</text>
<text text-anchor="middle" x="2659" y="-130.5" font-family="Helvetica,sans-Serif" font-size="10.00">_functions.h</text>
</a>
</g>
</g>
<!-- Node30&#45;&gt;Node32 -->
<g id="edge55" class="edge">
<title>Node30&#45;&gt;Node32</title>
<path fill="none" stroke="midnightblue" d="M2244.23,-199.07C2319.37,-191.24 2459.6,-175.49 2589.12,-154.06"/>
<polygon fill="midnightblue" stroke="midnightblue" points="2589.93,-157.47 2599.22,-152.37 2588.78,-150.57 2589.93,-157.47"/>
</g>
<!-- Node33 -->
<g id="node33" class="node">
<title>Node33</title>
<g id="a_node33"><a xlink:title=" ">
<polygon fill="white" stroke="#bfbfbf" points="2736.5,-123.5 2736.5,-153.5 2907.5,-153.5 2907.5,-123.5 2736.5,-123.5"/>
<text text-anchor="start" x="2744.5" y="-141.5" font-family="Helvetica,sans-Serif" font-size="10.00">flutter/shell/platform</text>
<text text-anchor="middle" x="2822" y="-130.5" font-family="Helvetica,sans-Serif" font-size="10.00">/common/json_method_codec.h</text>
</a>
</g>
</g>
<!-- Node30&#45;&gt;Node33 -->
<g id="edge57" class="edge">
<title>Node30&#45;&gt;Node33</title>
<path fill="none" stroke="midnightblue" d="M2244.23,-200.44C2339.5,-193.08 2543.35,-176.32 2726.25,-154.04"/>
<polygon fill="midnightblue" stroke="midnightblue" points="2726.83,-157.5 2736.33,-152.81 2725.97,-150.55 2726.83,-157.5"/>
</g>
<!-- Node34 -->
<g id="node34" class="node">
<title>Node34</title>
<g id="a_node34"><a xlink:title=" ">
<polygon fill="white" stroke="#bfbfbf" points="2926,-123.5 2926,-153.5 3086,-153.5 3086,-123.5 2926,-123.5"/>
<text text-anchor="start" x="2934" y="-141.5" font-family="Helvetica,sans-Serif" font-size="10.00">flutter/shell/platform</text>
<text text-anchor="middle" x="3006" y="-130.5" font-family="Helvetica,sans-Serif" font-size="10.00">/common/text_input_model.h</text>
</a>
</g>
</g>
<!-- Node30&#45;&gt;Node34 -->
<g id="edge58" class="edge">
<title>Node30&#45;&gt;Node34</title>
<path fill="none" stroke="midnightblue" d="M2244.42,-202.44C2363.98,-197.53 2658.68,-183.41 2915.71,-154.08"/>
<polygon fill="midnightblue" stroke="midnightblue" points="2916.46,-157.51 2926,-152.89 2915.66,-150.56 2916.46,-157.51"/>
</g>
<!-- Node35&#45;&gt;Node3 -->
<g id="edge65" class="edge">
<title>Node35&#45;&gt;Node3</title>
<path fill="none" stroke="midnightblue" d="M1087.37,-257.22C1103.02,-242.71 1135.64,-213.01 1165,-190 1181.52,-177.05 1201.06,-163.45 1215.61,-153.63"/>
<polygon fill="midnightblue" stroke="midnightblue" points="1217.59,-156.51 1223.96,-148.04 1213.7,-150.69 1217.59,-156.51"/>
</g>
<!-- Node35&#45;&gt;Node15 -->
<g id="edge64" class="edge">
<title>Node35&#45;&gt;Node15</title>
<path fill="none" stroke="midnightblue" d="M1060.22,-257.35C1043.26,-248.84 1017.23,-235.12 996,-221 977.56,-208.74 976.62,-200.25 957,-190 907.65,-164.21 888.61,-174.89 837,-154 835.8,-153.51 834.59,-153 833.37,-152.45"/>
<polygon fill="midnightblue" stroke="midnightblue" points="834.69,-149.21 824.16,-148 831.64,-155.51 834.69,-149.21"/>
</g>
<!-- Node35&#45;&gt;Node27 -->
<g id="edge71" class="edge">
<title>Node35&#45;&gt;Node27</title>
<path fill="none" stroke="midnightblue" d="M1132.66,-264.09C1207.36,-260.41 1336.15,-249.96 1372,-221 1391.1,-205.56 1398.44,-176.96 1401.26,-158.08"/>
<polygon fill="midnightblue" stroke="midnightblue" points="1404.75,-158.36 1402.47,-148.02 1397.8,-157.53 1404.75,-158.36"/>
</g>
<!-- Node36 -->
<g id="node36" class="node">
<title>Node36</title>
<g id="a_node36"><a xlink:href="configuration_8h.html" target="_top" xlink:title=" ">
<polygon fill="white" stroke="black" points="1207,-196 1207,-215 1363,-215 1363,-196 1207,-196"/>
<text text-anchor="middle" x="1285" y="-203" font-family="Helvetica,sans-Serif" font-size="10.00">configuration/configuration.h</text>
</a>
</g>
</g>
<!-- Node35&#45;&gt;Node36 -->
<g id="edge66" class="edge">
<title>Node35&#45;&gt;Node36</title>
<path fill="none" stroke="midnightblue" d="M1107.66,-257.48C1143.93,-247.05 1205.46,-229.36 1245.66,-217.81"/>
<polygon fill="midnightblue" stroke="midnightblue" points="1246.75,-221.14 1255.4,-215.01 1244.82,-214.41 1246.75,-221.14"/>
</g>
<!-- Node37 -->
<g id="node37" class="node">
<title>Node37</title>
<g id="a_node37"><a xlink:href="window_8h.html" target="_top" xlink:title=" ">
<polygon fill="white" stroke="black" points="1005.5,-196 1005.5,-215 1112.5,-215 1112.5,-196 1005.5,-196"/>
<text text-anchor="middle" x="1059" y="-203" font-family="Helvetica,sans-Serif" font-size="10.00">wayland/window.h</text>
</a>
</g>
</g>
<!-- Node35&#45;&gt;Node37 -->
<g id="edge72" class="edge">
<title>Node35&#45;&gt;Node37</title>
<path fill="none" stroke="midnightblue" d="M1075.28,-257.48C1072.57,-248.99 1068.33,-235.7 1064.85,-224.82"/>
<polygon fill="midnightblue" stroke="midnightblue" points="1068.09,-223.47 1061.72,-215.01 1061.43,-225.6 1068.09,-223.47"/>
</g>
<!-- Node36&#45;&gt;Node4 -->
<g id="edge68" class="edge">
<title>Node36&#45;&gt;Node4</title>
<path fill="none" stroke="midnightblue" d="M1206.62,-197.16C1179.51,-194.73 1148.93,-192.11 1121,-190 865.23,-170.7 794.26,-214.52 545,-154 542.64,-153.43 540.24,-152.69 537.86,-151.86"/>
<polygon fill="midnightblue" stroke="midnightblue" points="538.97,-148.54 528.39,-148.06 536.36,-155.03 538.97,-148.54"/>
</g>
<!-- Node36&#45;&gt;Node18 -->
<g id="edge67" class="edge">
<title>Node36&#45;&gt;Node18</title>
<path fill="none" stroke="midnightblue" d="M1287.83,-195.73C1290.95,-186.09 1296.05,-170.3 1300.05,-157.91"/>
<polygon fill="midnightblue" stroke="midnightblue" points="1303.47,-158.72 1303.21,-148.13 1296.81,-156.57 1303.47,-158.72"/>
</g>
<!-- Node36&#45;&gt;Node27 -->
<g id="edge69" class="edge">
<title>Node36&#45;&gt;Node27</title>
<path fill="none" stroke="midnightblue" d="M1300.91,-195.73C1320.82,-184.77 1355.11,-165.88 1378.4,-153.05"/>
<polygon fill="midnightblue" stroke="midnightblue" points="1380.27,-156.02 1387.34,-148.13 1376.89,-149.89 1380.27,-156.02"/>
</g>
<!-- Node36&#45;&gt;Node28 -->
<g id="edge70" class="edge">
<title>Node36&#45;&gt;Node28</title>
<path fill="none" stroke="midnightblue" d="M1318.47,-195.94C1363.96,-184.29 1445.4,-163.45 1495.56,-150.62"/>
<polygon fill="midnightblue" stroke="midnightblue" points="1496.64,-153.95 1505.46,-148.08 1494.9,-147.17 1496.64,-153.95"/>
</g>
<!-- Node37&#45;&gt;Node3 -->
<g id="edge73" class="edge">
<title>Node37&#45;&gt;Node3</title>
<path fill="none" stroke="midnightblue" d="M1082.64,-195.87C1113.71,-184.52 1168.47,-164.52 1203.72,-151.65"/>
<polygon fill="midnightblue" stroke="midnightblue" points="1205.36,-154.78 1213.55,-148.06 1202.95,-148.21 1205.36,-154.78"/>
</g>
<!-- Node37&#45;&gt;Node10 -->
<g id="edge77" class="edge">
<title>Node37&#45;&gt;Node10</title>
<path fill="none" stroke="midnightblue" d="M1079.02,-195.98C1099.89,-186.76 1133.22,-171.07 1160,-154 1178.67,-142.1 1178.45,-131.24 1199,-123 1279.45,-90.75 1538.82,-81.39 1645.99,-78.87"/>
<polygon fill="midnightblue" stroke="midnightblue" points="1646.26,-82.36 1656.18,-78.64 1646.1,-75.37 1646.26,-82.36"/>
</g>
<!-- Node37&#45;&gt;Node12 -->
<g id="edge75" class="edge">
<title>Node37&#45;&gt;Node12</title>
<path fill="none" stroke="midnightblue" d="M1005.3,-196.63C989.73,-194.41 972.7,-192.04 957,-190 822.08,-172.42 787.38,-175.27 653,-154 640.96,-152.09 627.87,-149.62 616.15,-147.26"/>
<polygon fill="midnightblue" stroke="midnightblue" points="616.77,-143.82 606.27,-145.23 615.36,-150.67 616.77,-143.82"/>
</g>
<!-- Node37&#45;&gt;Node18 -->
<g id="edge74" class="edge">
<title>Node37&#45;&gt;Node18</title>
<path fill="none" stroke="midnightblue" d="M1108.72,-195.92C1153.05,-187.56 1219.33,-173.29 1275,-154 1276.62,-153.44 1278.27,-152.82 1279.92,-152.16"/>
<polygon fill="midnightblue" stroke="midnightblue" points="1281.43,-155.32 1289.21,-148.13 1278.64,-148.9 1281.43,-155.32"/>
</g>
<!-- Node37&#45;&gt;Node19 -->
<g id="edge78" class="edge">
<title>Node37&#45;&gt;Node19</title>
<path fill="none" stroke="midnightblue" d="M1008.4,-195.98C952.59,-186.43 860.18,-170.15 781,-154 775.28,-152.83 769.28,-151.55 763.35,-150.25"/>
<polygon fill="midnightblue" stroke="midnightblue" points="764.02,-146.81 753.49,-148.05 762.49,-153.64 764.02,-146.81"/>
</g>
<!-- Node38 -->
<g id="node38" class="node">
<title>Node38</title>
<g id="a_node38"><a xlink:title=" ">
<polygon fill="white" stroke="#bfbfbf" points="846,-129 846,-148 988,-148 988,-129 846,-129"/>
<text text-anchor="middle" x="917" y="-136" font-family="Helvetica,sans-Serif" font-size="10.00">agl&#45;shell&#45;client&#45;protocol.h</text>
</a>
</g>
</g>
<!-- Node37&#45;&gt;Node38 -->
<g id="edge76" class="edge">
<title>Node37&#45;&gt;Node38</title>
<path fill="none" stroke="midnightblue" d="M1040.14,-195.87C1015.85,-184.75 973.4,-165.32 945.24,-152.43"/>
<polygon fill="midnightblue" stroke="midnightblue" points="946.48,-149.15 935.93,-148.17 943.57,-155.51 946.48,-149.15"/>
</g>
<!-- Node39 -->
<g id="node39" class="node">
<title>Node39</title>
<g id="a_node39"><a xlink:title=" ">
<polygon fill="white" stroke="#bfbfbf" points="1006.5,-129 1006.5,-148 1151.5,-148 1151.5,-129 1006.5,-129"/>
<text text-anchor="middle" x="1079" y="-136" font-family="Helvetica,sans-Serif" font-size="10.00">xdg&#45;shell&#45;client&#45;protocol.h</text>
</a>
</g>
</g>
<!-- Node37&#45;&gt;Node39 -->
<g id="edge79" class="edge">
<title>Node37&#45;&gt;Node39</title>
<path fill="none" stroke="midnightblue" d="M1061.7,-195.73C1064.67,-186.09 1069.52,-170.3 1073.34,-157.91"/>
<polygon fill="midnightblue" stroke="midnightblue" points="1076.75,-158.71 1076.35,-148.13 1070.06,-156.66 1076.75,-158.71"/>
</g>
</g>
</svg>
