<?xml version="1.0" encoding="UTF-8" standalone="no"?>
<!DOCTYPE svg PUBLIC "-//W3C//DTD SVG 1.1//EN"
 "http://www.w3.org/Graphics/SVG/1.1/DTD/svg11.dtd">
<!-- Generated by graphviz version 2.43.0 (0)
 -->
<!-- Title: /home/joel.winarske@toyotaconnected.com/development/workspace&#45;automation&#45;configs/app/ivi&#45;homescreen/shell/textures/egl/texture_egl.h Pages: 1 -->
<svg width="2498pt" height="519pt"
 viewBox="0.00 0.00 2498.00 519.00" xmlns="http://www.w3.org/2000/svg" xmlns:xlink="http://www.w3.org/1999/xlink">
<g id="graph0" class="graph" transform="scale(1 1) rotate(0) translate(4 515)">
<title>/home/joel.winarske@toyotaconnected.com/development/workspace&#45;automation&#45;configs/app/ivi&#45;homescreen/shell/textures/egl/texture_egl.h</title>
<polygon fill="white" stroke="transparent" points="-4,4 -4,-515 2494,-515 2494,4 -4,4"/>
<!-- Node1 -->
<g id="node1" class="node">
<title>Node1</title>
<g id="a_node1"><a xlink:title=" ">
<polygon fill="#bfbfbf" stroke="black" points="736.5,-436.5 736.5,-510.5 901.5,-510.5 901.5,-436.5 736.5,-436.5"/>
<text text-anchor="start" x="744.5" y="-498.5" font-family="Helvetica,sans-Serif" font-size="10.00">/home/joel.winarske</text>
<text text-anchor="start" x="744.5" y="-487.5" font-family="Helvetica,sans-Serif" font-size="10.00">@toyotaconnected.com</text>
<text text-anchor="start" x="744.5" y="-476.5" font-family="Helvetica,sans-Serif" font-size="10.00">/development/workspace</text>
<text text-anchor="start" x="744.5" y="-465.5" font-family="Helvetica,sans-Serif" font-size="10.00">&#45;automation&#45;configs/app</text>
<text text-anchor="start" x="744.5" y="-454.5" font-family="Helvetica,sans-Serif" font-size="10.00">/ivi&#45;homescreen/shell/textures</text>
<text text-anchor="middle" x="819" y="-443.5" font-family="Helvetica,sans-Serif" font-size="10.00">/egl/texture_egl.h</text>
</a>
</g>
</g>
<!-- Node2 -->
<g id="node2" class="node">
<title>Node2</title>
<g id="a_node2"><a xlink:title=" ">
<polygon fill="white" stroke="#bfbfbf" points="0,-375 0,-394 50,-394 50,-375 0,-375"/>
<text text-anchor="middle" x="25" y="-382" font-family="Helvetica,sans-Serif" font-size="10.00">atomic</text>
</a>
</g>
</g>
<!-- Node1&#45;&gt;Node2 -->
<g id="edge1" class="edge">
<title>Node1&#45;&gt;Node2</title>
<path fill="none" stroke="midnightblue" d="M736.32,-471.56C596.22,-468.41 303.99,-455.14 64,-400 60.93,-399.29 57.78,-398.41 54.65,-397.43"/>
<polygon fill="midnightblue" stroke="midnightblue" points="55.53,-394.02 44.94,-394.05 53.23,-400.64 55.53,-394.02"/>
</g>
<!-- Node3 -->
<g id="node3" class="node">
<title>Node3</title>
<g id="a_node3"><a xlink:title=" ">
<polygon fill="white" stroke="#bfbfbf" points="291,-73 291,-92 329,-92 329,-73 291,-73"/>
<text text-anchor="middle" x="310" y="-80" font-family="Helvetica,sans-Serif" font-size="10.00">map</text>
</a>
</g>
</g>
<!-- Node1&#45;&gt;Node3 -->
<g id="edge2" class="edge">
<title>Node1&#45;&gt;Node3</title>
<path fill="none" stroke="midnightblue" d="M736.42,-468.7C575.17,-459.02 234,-426.43 234,-324 234,-324 234,-324 234,-210 234,-164.62 270.38,-121.48 292.8,-99.2"/>
<polygon fill="midnightblue" stroke="midnightblue" points="295.28,-101.68 300.06,-92.23 290.43,-96.63 295.28,-101.68"/>
</g>
<!-- Node4 -->
<g id="node4" class="node">
<title>Node4</title>
<g id="a_node4"><a xlink:title=" ">
<polygon fill="white" stroke="#bfbfbf" points="347,-73 347,-92 405,-92 405,-73 347,-73"/>
<text text-anchor="middle" x="376" y="-80" font-family="Helvetica,sans-Serif" font-size="10.00">memory</text>
</a>
</g>
</g>
<!-- Node1&#45;&gt;Node4 -->
<g id="edge3" class="edge">
<title>Node1&#45;&gt;Node4</title>
<path fill="none" stroke="midnightblue" d="M736.36,-458.01C651.51,-439.96 518.82,-402.63 424,-333 373.18,-295.68 370.93,-264.05 372,-201 372.59,-166.08 374.18,-125.35 375.17,-102.18"/>
<polygon fill="midnightblue" stroke="midnightblue" points="378.67,-102.19 375.61,-92.05 371.68,-101.89 378.67,-102.19"/>
</g>
<!-- Node5 -->
<g id="node5" class="node">
<title>Node5</title>
<g id="a_node5"><a xlink:title=" ">
<polygon fill="white" stroke="#bfbfbf" points="461,-73 461,-92 505,-92 505,-73 461,-73"/>
<text text-anchor="middle" x="483" y="-80" font-family="Helvetica,sans-Serif" font-size="10.00">string</text>
</a>
</g>
</g>
<!-- Node1&#45;&gt;Node5 -->
<g id="edge4" class="edge">
<title>Node1&#45;&gt;Node5</title>
<path fill="none" stroke="midnightblue" d="M855.99,-436.39C897.9,-391.06 955.12,-312.51 912,-257 872.32,-205.92 830.61,-246.08 771,-221 702.43,-192.15 695.74,-164.76 628,-134 579.62,-112.03 563.5,-117.3 514,-98 512.58,-97.45 511.14,-96.86 509.68,-96.25"/>
<polygon fill="midnightblue" stroke="midnightblue" points="510.76,-92.9 500.2,-92.04 507.92,-99.3 510.76,-92.9"/>
</g>
<!-- Node6 -->
<g id="node6" class="node">
<title>Node6</title>
<g id="a_node6"><a xlink:title=" ">
<polygon fill="white" stroke="#bfbfbf" points="2370,-6 2370,-25 2432,-25 2432,-6 2370,-6"/>
<text text-anchor="middle" x="2401" y="-13" font-family="Helvetica,sans-Serif" font-size="10.00">EGL/egl.h</text>
</a>
</g>
</g>
<!-- Node1&#45;&gt;Node6 -->
<g id="edge5" class="edge">
<title>Node1&#45;&gt;Node6</title>
<path fill="none" stroke="midnightblue" d="M901.67,-472.36C1109.54,-471.06 1670.43,-461.62 2133,-400 2293.8,-378.58 2490,-486.22 2490,-324 2490,-324 2490,-324 2490,-148.5 2490,-98.87 2446.21,-53.92 2420.06,-31.5"/>
<polygon fill="midnightblue" stroke="midnightblue" points="2422.2,-28.73 2412.27,-25.04 2417.73,-34.12 2422.2,-28.73"/>
</g>
<!-- Node7 -->
<g id="node7" class="node">
<title>Node7</title>
<g id="a_node7"><a xlink:title=" ">
<polygon fill="white" stroke="#bfbfbf" points="2020,-140 2020,-159 2094,-159 2094,-140 2020,-140"/>
<text text-anchor="middle" x="2057" y="-147" font-family="Helvetica,sans-Serif" font-size="10.00">GLES2/gl2.h</text>
</a>
</g>
</g>
<!-- Node1&#45;&gt;Node7 -->
<g id="edge6" class="edge">
<title>Node1&#45;&gt;Node7</title>
<path fill="none" stroke="midnightblue" d="M901.89,-471.02C1174.36,-465.06 2025,-437.39 2025,-324 2025,-324 2025,-324 2025,-266 2025,-230.43 2039.27,-190.87 2048.75,-168.5"/>
<polygon fill="midnightblue" stroke="midnightblue" points="2051.99,-169.82 2052.82,-159.26 2045.59,-167 2051.99,-169.82"/>
</g>
<!-- Node8 -->
<g id="node8" class="node">
<title>Node8</title>
<g id="a_node8"><a xlink:title=" ">
<polygon fill="white" stroke="#bfbfbf" points="2112,-140 2112,-159 2252,-159 2252,-140 2112,-140"/>
<text text-anchor="middle" x="2182" y="-147" font-family="Helvetica,sans-Serif" font-size="10.00">flutter/encodable_value.h</text>
</a>
</g>
</g>
<!-- Node1&#45;&gt;Node8 -->
<g id="edge7" class="edge">
<title>Node1&#45;&gt;Node8</title>
<path fill="none" stroke="midnightblue" d="M901.57,-471.17C1124.91,-466.93 1737.27,-450.86 1932,-400 2007.78,-380.21 2091,-402.32 2091,-324 2091,-324 2091,-324 2091,-266 2091,-221.73 2132.75,-184.44 2159.69,-164.99"/>
<polygon fill="midnightblue" stroke="midnightblue" points="2161.96,-167.67 2168.18,-159.09 2157.97,-161.92 2161.96,-167.67"/>
</g>
<!-- Node9 -->
<g id="node9" class="node">
<title>Node9</title>
<g id="a_node9"><a xlink:title=" ">
<polygon fill="white" stroke="#bfbfbf" points="1091.5,-0.5 1091.5,-30.5 1228.5,-30.5 1228.5,-0.5 1091.5,-0.5"/>
<text text-anchor="start" x="1099.5" y="-18.5" font-family="Helvetica,sans-Serif" font-size="10.00">shell/platform/embedder</text>
<text text-anchor="middle" x="1160" y="-7.5" font-family="Helvetica,sans-Serif" font-size="10.00">/embedder.h</text>
</a>
</g>
</g>
<!-- Node1&#45;&gt;Node9 -->
<g id="edge8" class="edge">
<title>Node1&#45;&gt;Node9</title>
<path fill="none" stroke="midnightblue" d="M736.15,-473.16C542.79,-472.48 78,-457.01 78,-324 78,-324 78,-324 78,-148.5 78,-109.25 79.87,-89.54 112,-67 151.51,-39.28 844.12,-22.84 1081.18,-18.01"/>
<polygon fill="midnightblue" stroke="midnightblue" points="1081.52,-21.5 1091.45,-17.8 1081.38,-14.5 1081.52,-21.5"/>
</g>
<!-- Node10 -->
<g id="node10" class="node">
<title>Node10</title>
<g id="a_node10"><a xlink:href="flutter__view_8h.html" target="_top" xlink:title=" ">
<polygon fill="white" stroke="black" points="624,-369.5 624,-399.5 714,-399.5 714,-369.5 624,-369.5"/>
<text text-anchor="start" x="632" y="-387.5" font-family="Helvetica,sans-Serif" font-size="10.00">../../view/flutter</text>
<text text-anchor="middle" x="669" y="-376.5" font-family="Helvetica,sans-Serif" font-size="10.00">_view.h</text>
</a>
</g>
</g>
<!-- Node1&#45;&gt;Node10 -->
<g id="edge9" class="edge">
<title>Node1&#45;&gt;Node10</title>
<path fill="none" stroke="midnightblue" d="M756.69,-436.36C737.98,-425.51 718.19,-414.03 702.16,-404.73"/>
<polygon fill="midnightblue" stroke="midnightblue" points="703.59,-401.52 693.18,-399.53 700.08,-407.57 703.59,-401.52"/>
</g>
<!-- Node39 -->
<g id="node39" class="node">
<title>Node39</title>
<g id="a_node39"><a xlink:href="texture_8h.html" target="_top" xlink:title=" ">
<polygon fill="white" stroke="black" points="2147,-201.5 2147,-220.5 2217,-220.5 2217,-201.5 2147,-201.5"/>
<text text-anchor="middle" x="2182" y="-208.5" font-family="Helvetica,sans-Serif" font-size="10.00">../texture.h</text>
</a>
</g>
</g>
<!-- Node1&#45;&gt;Node39 -->
<g id="edge78" class="edge">
<title>Node1&#45;&gt;Node39</title>
<path fill="none" stroke="midnightblue" d="M901.73,-472.89C1170.49,-473.46 2007.35,-469.6 2105,-400 2161.48,-359.74 2176.63,-270.4 2180.61,-231.13"/>
<polygon fill="midnightblue" stroke="midnightblue" points="2184.14,-230.93 2181.52,-220.67 2177.17,-230.33 2184.14,-230.93"/>
</g>
<!-- Node10&#45;&gt;Node3 -->
<g id="edge10" class="edge">
<title>Node10&#45;&gt;Node3</title>
<path fill="none" stroke="midnightblue" d="M623.89,-383.55C571.87,-381.62 485.61,-372.08 424,-333 340.98,-280.34 317.72,-150.35 311.83,-102"/>
<polygon fill="midnightblue" stroke="midnightblue" points="315.3,-101.59 310.72,-92.03 308.35,-102.36 315.3,-101.59"/>
</g>
<!-- Node10&#45;&gt;Node4 -->
<g id="edge11" class="edge">
<title>Node10&#45;&gt;Node4</title>
<path fill="none" stroke="midnightblue" d="M623.84,-374.81C543.95,-358.13 386,-318.74 386,-268 386,-268 386,-268 386,-210 386,-171.58 381.36,-126.81 378.4,-102.16"/>
<polygon fill="midnightblue" stroke="midnightblue" points="381.85,-101.56 377.15,-92.07 374.91,-102.43 381.85,-101.56"/>
</g>
<!-- Node11 -->
<g id="node11" class="node">
<title>Node11</title>
<g id="a_node11"><a xlink:href="configuration_8h.html" target="_top" xlink:title=" ">
<polygon fill="white" stroke="black" points="780,-201.5 780,-220.5 936,-220.5 936,-201.5 780,-201.5"/>
<text text-anchor="middle" x="858" y="-208.5" font-family="Helvetica,sans-Serif" font-size="10.00">configuration/configuration.h</text>
</a>
</g>
</g>
<!-- Node10&#45;&gt;Node11 -->
<g id="edge12" class="edge">
<title>Node10&#45;&gt;Node11</title>
<path fill="none" stroke="midnightblue" d="M714.33,-378.37C771.65,-369.18 868.15,-344.09 912,-277 924.32,-258.15 902.45,-238.54 882.97,-225.85"/>
<polygon fill="midnightblue" stroke="midnightblue" points="884.67,-222.79 874.31,-220.54 881,-228.75 884.67,-222.79"/>
</g>
<!-- Node13 -->
<g id="node13" class="node">
<title>Node13</title>
<g id="a_node13"><a xlink:title=" ">
<polygon fill="white" stroke="#bfbfbf" points="523.5,-73 523.5,-92 636.5,-92 636.5,-73 523.5,-73"/>
<text text-anchor="middle" x="580" y="-80" font-family="Helvetica,sans-Serif" font-size="10.00">flutter/fml/macros.h</text>
</a>
</g>
</g>
<!-- Node10&#45;&gt;Node13 -->
<g id="edge17" class="edge">
<title>Node10&#45;&gt;Node13</title>
<path fill="none" stroke="midnightblue" d="M632.45,-369.41C596.17,-353.22 542.67,-322.83 519,-277 493.32,-227.27 571.41,-258.88 610,-165 619.09,-142.88 605.4,-116.88 593.67,-100.3"/>
<polygon fill="midnightblue" stroke="midnightblue" points="596.33,-98.02 587.51,-92.15 590.74,-102.24 596.33,-98.02"/>
</g>
<!-- Node15 -->
<g id="node15" class="node">
<title>Node15</title>
<g id="a_node15"><a xlink:href="window_8h.html" target="_top" xlink:title=" ">
<polygon fill="white" stroke="black" points="615.5,-313.5 615.5,-332.5 722.5,-332.5 722.5,-313.5 615.5,-313.5"/>
<text text-anchor="middle" x="669" y="-320.5" font-family="Helvetica,sans-Serif" font-size="10.00">wayland/window.h</text>
</a>
</g>
</g>
<!-- Node10&#45;&gt;Node15 -->
<g id="edge18" class="edge">
<title>Node10&#45;&gt;Node15</title>
<path fill="none" stroke="midnightblue" d="M669,-369.4C669,-361.47 669,-351.46 669,-342.86"/>
<polygon fill="midnightblue" stroke="midnightblue" points="672.5,-342.66 669,-332.66 665.5,-342.66 672.5,-342.66"/>
</g>
<!-- Node11&#45;&gt;Node5 -->
<g id="edge13" class="edge">
<title>Node11&#45;&gt;Node5</title>
<path fill="none" stroke="midnightblue" d="M838.28,-201.47C792.54,-181.69 683,-134.32 682,-134 609.26,-110.75 586.38,-122.33 514,-98 512.34,-97.44 510.64,-96.82 508.95,-96.15"/>
<polygon fill="midnightblue" stroke="midnightblue" points="510.01,-92.8 499.45,-92.04 507.23,-99.22 510.01,-92.8"/>
</g>
<!-- Node12 -->
<g id="node12" class="node">
<title>Node12</title>
<g id="a_node12"><a xlink:title=" ">
<polygon fill="white" stroke="#bfbfbf" points="951.5,-140 951.5,-159 998.5,-159 998.5,-140 951.5,-140"/>
<text text-anchor="middle" x="975" y="-147" font-family="Helvetica,sans-Serif" font-size="10.00">vector</text>
</a>
</g>
</g>
<!-- Node11&#45;&gt;Node12 -->
<g id="edge14" class="edge">
<title>Node11&#45;&gt;Node12</title>
<path fill="none" stroke="midnightblue" d="M874.76,-201.48C894.22,-191.58 926.55,-175.14 949.21,-163.62"/>
<polygon fill="midnightblue" stroke="midnightblue" points="950.94,-166.66 958.27,-159.01 947.77,-160.42 950.94,-166.66"/>
</g>
<!-- Node11&#45;&gt;Node13 -->
<g id="edge15" class="edge">
<title>Node11&#45;&gt;Node13</title>
<path fill="none" stroke="midnightblue" d="M845.5,-201.24C832.87,-192.31 812.86,-177.98 796,-165 778.73,-151.7 777.33,-144.07 758,-134 735.16,-122.1 671.08,-105.29 626.4,-94.39"/>
<polygon fill="midnightblue" stroke="midnightblue" points="627.16,-90.98 616.62,-92.03 625.51,-97.78 627.16,-90.98"/>
</g>
<!-- Node14 -->
<g id="node14" class="node">
<title>Node14</title>
<g id="a_node14"><a xlink:title=" ">
<polygon fill="white" stroke="#bfbfbf" points="655,-73 655,-92 777,-92 777,-73 655,-73"/>
<text text-anchor="middle" x="716" y="-80" font-family="Helvetica,sans-Serif" font-size="10.00">rapidjson/document.h</text>
</a>
</g>
</g>
<!-- Node11&#45;&gt;Node14 -->
<g id="edge16" class="edge">
<title>Node11&#45;&gt;Node14</title>
<path fill="none" stroke="midnightblue" d="M852.27,-201.25C842.17,-186.26 819.97,-155.22 796,-134 779.55,-119.44 758.46,-106.31 742.06,-97.09"/>
<polygon fill="midnightblue" stroke="midnightblue" points="743.46,-93.87 733.01,-92.13 740.1,-100 743.46,-93.87"/>
</g>
<!-- Node15&#45;&gt;Node4 -->
<g id="edge19" class="edge">
<title>Node15&#45;&gt;Node4</title>
<path fill="none" stroke="midnightblue" d="M615.31,-316.46C581.91,-310.85 539.48,-299.59 508,-277 474.28,-252.81 410.42,-144.19 385.92,-101.15"/>
<polygon fill="midnightblue" stroke="midnightblue" points="388.91,-99.34 380.94,-92.36 382.82,-102.78 388.91,-99.34"/>
</g>
<!-- Node15&#45;&gt;Node5 -->
<g id="edge20" class="edge">
<title>Node15&#45;&gt;Node5</title>
<path fill="none" stroke="midnightblue" d="M615.2,-321.12C581.73,-317.43 540.99,-306.56 519,-277 474.03,-216.56 652.91,-195.92 610,-134 584.04,-96.55 556,-115.67 514,-98 512.63,-97.42 511.23,-96.82 509.83,-96.21"/>
<polygon fill="midnightblue" stroke="midnightblue" points="511.15,-92.96 500.6,-92.02 508.26,-99.34 511.15,-92.96"/>
</g>
<!-- Node16 -->
<g id="node16" class="node">
<title>Node16</title>
<g id="a_node16"><a xlink:title=" ">
<polygon fill="white" stroke="#bfbfbf" points="528,-257.5 528,-276.5 580,-276.5 580,-257.5 528,-257.5"/>
<text text-anchor="middle" x="554" y="-264.5" font-family="Helvetica,sans-Serif" font-size="10.00">cassert</text>
</a>
</g>
</g>
<!-- Node15&#45;&gt;Node16 -->
<g id="edge21" class="edge">
<title>Node15&#45;&gt;Node16</title>
<path fill="none" stroke="midnightblue" d="M650.78,-313.44C632.1,-304.68 602.84,-290.94 581.38,-280.86"/>
<polygon fill="midnightblue" stroke="midnightblue" points="582.68,-277.6 572.14,-276.52 579.7,-283.93 582.68,-277.6"/>
</g>
<!-- Node17 -->
<g id="node17" class="node">
<title>Node17</title>
<g id="a_node17"><a xlink:title=" ">
<polygon fill="white" stroke="#bfbfbf" points="598,-257.5 598,-276.5 740,-276.5 740,-257.5 598,-257.5"/>
<text text-anchor="middle" x="669" y="-264.5" font-family="Helvetica,sans-Serif" font-size="10.00">agl&#45;shell&#45;client&#45;protocol.h</text>
</a>
</g>
</g>
<!-- Node15&#45;&gt;Node17 -->
<g id="edge22" class="edge">
<title>Node15&#45;&gt;Node17</title>
<path fill="none" stroke="midnightblue" d="M669,-313.08C669,-306.01 669,-295.86 669,-286.99"/>
<polygon fill="midnightblue" stroke="midnightblue" points="672.5,-286.75 669,-276.75 665.5,-286.75 672.5,-286.75"/>
</g>
<!-- Node18 -->
<g id="node18" class="node">
<title>Node18</title>
<g id="a_node18"><a xlink:href="constants_8h.html" target="_top" xlink:title=" ">
<polygon fill="white" stroke="black" points="2243.5,-73 2243.5,-92 2316.5,-92 2316.5,-73 2243.5,-73"/>
<text text-anchor="middle" x="2280" y="-80" font-family="Helvetica,sans-Serif" font-size="10.00">constants.h</text>
</a>
</g>
</g>
<!-- Node15&#45;&gt;Node18 -->
<g id="edge23" class="edge">
<title>Node15&#45;&gt;Node18</title>
<path fill="none" stroke="midnightblue" d="M722.52,-321.55C898.95,-318.76 1476.81,-299.27 1930,-165 1966.96,-154.05 1973.86,-144.32 2011,-134 2098.87,-109.59 2123.53,-115.65 2213,-98 2219.59,-96.7 2226.53,-95.27 2233.35,-93.83"/>
<polygon fill="midnightblue" stroke="midnightblue" points="2234.14,-97.24 2243.19,-91.72 2232.68,-90.39 2234.14,-97.24"/>
</g>
<!-- Node20 -->
<g id="node20" class="node">
<title>Node20</title>
<g id="a_node20"><a xlink:href="backend_8h.html" target="_top" xlink:title=" ">
<polygon fill="white" stroke="black" points="998,-257.5 998,-276.5 1108,-276.5 1108,-257.5 998,-257.5"/>
<text text-anchor="middle" x="1053" y="-264.5" font-family="Helvetica,sans-Serif" font-size="10.00">backend/backend.h</text>
</a>
</g>
</g>
<!-- Node15&#45;&gt;Node20 -->
<g id="edge27" class="edge">
<title>Node15&#45;&gt;Node20</title>
<path fill="none" stroke="midnightblue" d="M722.8,-314.43C792.19,-304.68 912.82,-287.71 987.48,-277.21"/>
<polygon fill="midnightblue" stroke="midnightblue" points="988.29,-280.63 997.7,-275.78 987.31,-273.7 988.29,-280.63"/>
</g>
<!-- Node38 -->
<g id="node38" class="node">
<title>Node38</title>
<g id="a_node38"><a xlink:title=" ">
<polygon fill="white" stroke="#bfbfbf" points="758.5,-257.5 758.5,-276.5 903.5,-276.5 903.5,-257.5 758.5,-257.5"/>
<text text-anchor="middle" x="831" y="-264.5" font-family="Helvetica,sans-Serif" font-size="10.00">xdg&#45;shell&#45;client&#45;protocol.h</text>
</a>
</g>
</g>
<!-- Node15&#45;&gt;Node38 -->
<g id="edge77" class="edge">
<title>Node15&#45;&gt;Node38</title>
<path fill="none" stroke="midnightblue" d="M694.67,-313.44C721.92,-304.36 765.18,-289.94 795.65,-279.78"/>
<polygon fill="midnightblue" stroke="midnightblue" points="797.07,-283 805.45,-276.52 794.86,-276.36 797.07,-283"/>
</g>
<!-- Node18&#45;&gt;Node6 -->
<g id="edge24" class="edge">
<title>Node18&#45;&gt;Node6</title>
<path fill="none" stroke="midnightblue" d="M2296.32,-72.73C2316.82,-61.72 2352.2,-42.71 2376.09,-29.88"/>
<polygon fill="midnightblue" stroke="midnightblue" points="2377.79,-32.94 2384.94,-25.13 2374.47,-26.78 2377.79,-32.94"/>
</g>
<!-- Node18&#45;&gt;Node9 -->
<g id="edge25" class="edge">
<title>Node18&#45;&gt;Node9</title>
<path fill="none" stroke="midnightblue" d="M2254.32,-72.95C2246.29,-70.62 2237.36,-68.37 2229,-67 2038.45,-35.84 1452.65,-21.99 1239.01,-17.88"/>
<polygon fill="midnightblue" stroke="midnightblue" points="1238.89,-14.38 1228.82,-17.69 1238.75,-21.38 1238.89,-14.38"/>
</g>
<!-- Node19 -->
<g id="node19" class="node">
<title>Node19</title>
<g id="a_node19"><a xlink:title=" ">
<polygon fill="white" stroke="#bfbfbf" points="2259,-6 2259,-25 2301,-25 2301,-6 2259,-6"/>
<text text-anchor="middle" x="2280" y="-13" font-family="Helvetica,sans-Serif" font-size="10.00">array</text>
</a>
</g>
</g>
<!-- Node18&#45;&gt;Node19 -->
<g id="edge26" class="edge">
<title>Node18&#45;&gt;Node19</title>
<path fill="none" stroke="midnightblue" d="M2280,-72.73C2280,-63.18 2280,-47.62 2280,-35.28"/>
<polygon fill="midnightblue" stroke="midnightblue" points="2283.5,-35.13 2280,-25.13 2276.5,-35.13 2283.5,-35.13"/>
</g>
<!-- Node20&#45;&gt;Node9 -->
<g id="edge28" class="edge">
<title>Node20&#45;&gt;Node9</title>
<path fill="none" stroke="midnightblue" d="M997.93,-261.96C804.18,-247.5 164.04,-197.41 135,-165 105.93,-132.56 104.97,-98.55 135,-67 167.49,-32.87 846.58,-20.66 1081.14,-17.45"/>
<polygon fill="midnightblue" stroke="midnightblue" points="1081.35,-20.95 1091.31,-17.31 1081.26,-13.95 1081.35,-20.95"/>
</g>
<!-- Node20&#45;&gt;Node18 -->
<g id="edge29" class="edge">
<title>Node20&#45;&gt;Node18</title>
<path fill="none" stroke="midnightblue" d="M1108.16,-262.61C1270.86,-252.1 1746.43,-217.58 1892,-165 1915.89,-156.37 1916.16,-142.76 1940,-134 2054.87,-91.77 2092.42,-118.96 2213,-98 2219.62,-96.85 2226.57,-95.5 2233.4,-94.1"/>
<polygon fill="midnightblue" stroke="midnightblue" points="2234.18,-97.51 2243.25,-92.02 2232.74,-90.66 2234.18,-97.51"/>
</g>
<!-- Node21 -->
<g id="node21" class="node">
<title>Node21</title>
<g id="a_node21"><a xlink:href="engine_8h.html" target="_top" xlink:title=" ">
<polygon fill="white" stroke="black" points="1081.5,-201.5 1081.5,-220.5 1140.5,-220.5 1140.5,-201.5 1081.5,-201.5"/>
<text text-anchor="middle" x="1111" y="-208.5" font-family="Helvetica,sans-Serif" font-size="10.00">engine.h</text>
</a>
</g>
</g>
<!-- Node20&#45;&gt;Node21 -->
<g id="edge30" class="edge">
<title>Node20&#45;&gt;Node21</title>
<path fill="none" stroke="midnightblue" d="M1057.41,-257.08C1064.4,-248.98 1077.09,-236.87 1088.49,-227.23"/>
<polygon fill="midnightblue" stroke="midnightblue" points="1090.92,-229.77 1096.47,-220.75 1086.5,-224.34 1090.92,-229.77"/>
</g>
<!-- Node21&#45;&gt;Node3 -->
<g id="edge36" class="edge">
<title>Node21&#45;&gt;Node3</title>
<path fill="none" stroke="midnightblue" d="M1081.4,-208.23C953.09,-200.55 450.57,-170.2 435,-165 392.29,-150.75 349.96,-118.28 327.18,-98.9"/>
<polygon fill="midnightblue" stroke="midnightblue" points="329.29,-96.1 319.44,-92.18 324.7,-101.38 329.29,-96.1"/>
</g>
<!-- Node21&#45;&gt;Node4 -->
<g id="edge37" class="edge">
<title>Node21&#45;&gt;Node4</title>
<path fill="none" stroke="midnightblue" d="M1081.3,-208.36C960.28,-201.61 509.35,-175.86 481,-165 471.14,-161.22 421.69,-121.17 394.31,-98.66"/>
<polygon fill="midnightblue" stroke="midnightblue" points="396.53,-95.95 386.59,-92.29 392.08,-101.36 396.53,-95.95"/>
</g>
<!-- Node21&#45;&gt;Node5 -->
<g id="edge40" class="edge">
<title>Node21&#45;&gt;Node5</title>
<path fill="none" stroke="midnightblue" d="M1081.42,-204.49C1036.98,-196.16 950.4,-179.8 877,-165 811.55,-151.81 795.61,-146.38 730,-134 634.36,-115.95 606.94,-126.88 514,-98 512.13,-97.42 510.22,-96.75 508.33,-96.01"/>
<polygon fill="midnightblue" stroke="midnightblue" points="509.65,-92.77 499.08,-92.03 506.88,-99.2 509.65,-92.77"/>
</g>
<!-- Node21&#45;&gt;Node6 -->
<g id="edge32" class="edge">
<title>Node21&#45;&gt;Node6</title>
<path fill="none" stroke="midnightblue" d="M1140.66,-210.39C1244.61,-211.3 1601.88,-210.69 1892,-165 1945.99,-156.5 1957.27,-144.02 2011,-134 2149.52,-108.17 2200.39,-161.86 2326,-98 2354.74,-83.39 2378.01,-52.95 2390.64,-33.69"/>
<polygon fill="midnightblue" stroke="midnightblue" points="2393.74,-35.34 2396.11,-25.02 2387.82,-31.61 2393.74,-35.34"/>
</g>
<!-- Node21&#45;&gt;Node7 -->
<g id="edge33" class="edge">
<title>Node21&#45;&gt;Node7</title>
<path fill="none" stroke="midnightblue" d="M1140.94,-209.41C1276.54,-206.58 1833.89,-193.42 2006,-165 2011.09,-164.16 2016.4,-162.99 2021.58,-161.68"/>
<polygon fill="midnightblue" stroke="midnightblue" points="2022.58,-165.04 2031.31,-159.03 2020.74,-158.28 2022.58,-165.04"/>
</g>
<!-- Node21&#45;&gt;Node8 -->
<g id="edge34" class="edge">
<title>Node21&#45;&gt;Node8</title>
<path fill="none" stroke="midnightblue" d="M1140.74,-210.13C1261.25,-210.32 1724.87,-208.07 2103,-165 2112.26,-163.95 2122.07,-162.45 2131.51,-160.82"/>
<polygon fill="midnightblue" stroke="midnightblue" points="2132.34,-164.23 2141.56,-159.02 2131.1,-157.34 2132.34,-164.23"/>
</g>
<!-- Node21&#45;&gt;Node9 -->
<g id="edge35" class="edge">
<title>Node21&#45;&gt;Node9</title>
<path fill="none" stroke="midnightblue" d="M1140.55,-206.98C1314.25,-189.25 2194.86,-99.27 2196,-98 2205.23,-87.77 2205.5,-76.98 2196,-67 2163.11,-32.47 1475.18,-20.51 1238.88,-17.41"/>
<polygon fill="midnightblue" stroke="midnightblue" points="1238.68,-13.9 1228.64,-17.27 1238.59,-20.9 1238.68,-13.9"/>
</g>
<!-- Node21&#45;&gt;Node10 -->
<g id="edge76" class="edge">
<title>Node21&#45;&gt;Node10</title>
<path fill="none" stroke="midnightblue" d="M1115.22,-220.65C1121.17,-234.22 1129.93,-260.64 1117,-277 1068.57,-338.3 832.96,-368.07 724.21,-378.73"/>
<polygon fill="midnightblue" stroke="midnightblue" points="723.71,-375.26 714.09,-379.7 724.38,-382.23 723.71,-375.26"/>
</g>
<!-- Node21&#45;&gt;Node12 -->
<g id="edge41" class="edge">
<title>Node21&#45;&gt;Node12</title>
<path fill="none" stroke="midnightblue" d="M1091.51,-201.48C1068.59,-191.45 1030.31,-174.7 1003.92,-163.15"/>
<polygon fill="midnightblue" stroke="midnightblue" points="1005.01,-159.81 994.45,-159.01 1002.21,-166.22 1005.01,-159.81"/>
</g>
<!-- Node21&#45;&gt;Node18 -->
<g id="edge43" class="edge">
<title>Node21&#45;&gt;Node18</title>
<path fill="none" stroke="midnightblue" d="M1140.85,-210.2C1262.14,-210.71 1718.16,-209.56 1854,-165 1878.13,-157.08 1878.07,-142.51 1902,-134 2039.77,-85.03 2085.51,-126.09 2229,-98 2233.72,-97.08 2238.64,-95.93 2243.48,-94.68"/>
<polygon fill="midnightblue" stroke="midnightblue" points="2244.48,-98.03 2253.21,-92.03 2242.64,-91.28 2244.48,-98.03"/>
</g>
<!-- Node21&#45;&gt;Node20 -->
<g id="edge42" class="edge">
<title>Node21&#45;&gt;Node20</title>
<path fill="none" stroke="midnightblue" d="M1106.66,-220.83C1099.67,-228.95 1086.9,-241.15 1075.44,-250.82"/>
<polygon fill="midnightblue" stroke="midnightblue" points="1072.99,-248.3 1067.43,-257.32 1077.4,-253.74 1072.99,-248.3"/>
</g>
<!-- Node22 -->
<g id="node22" class="node">
<title>Node22</title>
<g id="a_node22"><a xlink:title=" ">
<polygon fill="white" stroke="#bfbfbf" points="1185.5,-140 1185.5,-159 1250.5,-159 1250.5,-140 1185.5,-140"/>
<text text-anchor="middle" x="1218" y="-147" font-family="Helvetica,sans-Serif" font-size="10.00">functional</text>
</a>
</g>
</g>
<!-- Node21&#45;&gt;Node22 -->
<g id="edge31" class="edge">
<title>Node21&#45;&gt;Node22</title>
<path fill="none" stroke="midnightblue" d="M1126.33,-201.48C1143.97,-191.67 1173.16,-175.43 1193.86,-163.92"/>
<polygon fill="midnightblue" stroke="midnightblue" points="1195.66,-166.93 1202.7,-159.01 1192.26,-160.81 1195.66,-166.93"/>
</g>
<!-- Node23 -->
<g id="node23" class="node">
<title>Node23</title>
<g id="a_node23"><a xlink:title=" ">
<polygon fill="white" stroke="#bfbfbf" points="1269,-140 1269,-159 1317,-159 1317,-140 1269,-140"/>
<text text-anchor="middle" x="1293" y="-147" font-family="Helvetica,sans-Serif" font-size="10.00">mutex</text>
</a>
</g>
</g>
<!-- Node21&#45;&gt;Node23 -->
<g id="edge38" class="edge">
<title>Node21&#45;&gt;Node23</title>
<path fill="none" stroke="midnightblue" d="M1140.75,-202.16C1171.08,-193.89 1219.31,-180.02 1260,-165 1261.65,-164.39 1263.35,-163.74 1265.04,-163.06"/>
<polygon fill="midnightblue" stroke="midnightblue" points="1266.79,-166.12 1274.66,-159.03 1264.08,-159.67 1266.79,-166.12"/>
</g>
<!-- Node24 -->
<g id="node24" class="node">
<title>Node24</title>
<g id="a_node24"><a xlink:title=" ">
<polygon fill="white" stroke="#bfbfbf" points="886.5,-140 886.5,-159 933.5,-159 933.5,-140 886.5,-140"/>
<text text-anchor="middle" x="910" y="-147" font-family="Helvetica,sans-Serif" font-size="10.00">queue</text>
</a>
</g>
</g>
<!-- Node21&#45;&gt;Node24 -->
<g id="edge39" class="edge">
<title>Node21&#45;&gt;Node24</title>
<path fill="none" stroke="midnightblue" d="M1081.24,-203.65C1047.12,-196 989.75,-182.05 942,-165 940.34,-164.41 938.65,-163.76 936.95,-163.09"/>
<polygon fill="midnightblue" stroke="midnightblue" points="937.96,-159.71 927.39,-159.01 935.21,-166.15 937.96,-159.71"/>
</g>
<!-- Node25 -->
<g id="node25" class="node">
<title>Node25</title>
<g id="a_node25"><a xlink:href="logging_8h.html" target="_top" xlink:title=" ">
<polygon fill="white" stroke="black" points="144,-140 144,-159 206,-159 206,-140 144,-140"/>
<text text-anchor="middle" x="175" y="-147" font-family="Helvetica,sans-Serif" font-size="10.00">logging.h</text>
</a>
</g>
</g>
<!-- Node21&#45;&gt;Node25 -->
<g id="edge44" class="edge">
<title>Node21&#45;&gt;Node25</title>
<path fill="none" stroke="midnightblue" d="M1081.35,-208.39C937.22,-200.55 315.96,-166.75 296,-165 269.29,-162.66 239.36,-159.09 215.96,-156.07"/>
<polygon fill="midnightblue" stroke="midnightblue" points="216.4,-152.6 206.03,-154.77 215.49,-159.54 216.4,-152.6"/>
</g>
<!-- Node27 -->
<g id="node27" class="node">
<title>Node27</title>
<g id="a_node27"><a xlink:href="platform__channel_8h.html" target="_top" xlink:title=" ">
<polygon fill="white" stroke="black" points="490.5,-140 490.5,-159 601.5,-159 601.5,-140 490.5,-140"/>
<text text-anchor="middle" x="546" y="-147" font-family="Helvetica,sans-Serif" font-size="10.00">platform_channel.h</text>
</a>
</g>
</g>
<!-- Node21&#45;&gt;Node27 -->
<g id="edge46" class="edge">
<title>Node21&#45;&gt;Node27</title>
<path fill="none" stroke="midnightblue" d="M1081.42,-206.88C993.85,-197.66 734.42,-170.34 611.72,-157.42"/>
<polygon fill="midnightblue" stroke="midnightblue" points="612.02,-153.93 601.7,-156.37 611.28,-160.89 612.02,-153.93"/>
</g>
<!-- Node28 -->
<g id="node28" class="node">
<title>Node28</title>
<g id="a_node28"><a xlink:href="key__event_8h.html" target="_top" xlink:title=" ">
<polygon fill="white" stroke="black" points="1055,-134.5 1055,-164.5 1167,-164.5 1167,-134.5 1055,-134.5"/>
<text text-anchor="start" x="1063" y="-152.5" font-family="Helvetica,sans-Serif" font-size="10.00">static_plugins/key</text>
<text text-anchor="middle" x="1111" y="-141.5" font-family="Helvetica,sans-Serif" font-size="10.00">_event/key_event.h</text>
</a>
</g>
</g>
<!-- Node21&#45;&gt;Node28 -->
<g id="edge50" class="edge">
<title>Node21&#45;&gt;Node28</title>
<path fill="none" stroke="midnightblue" d="M1111,-201.48C1111,-194.47 1111,-184.19 1111,-174.7"/>
<polygon fill="midnightblue" stroke="midnightblue" points="1114.5,-174.52 1111,-164.52 1107.5,-174.52 1114.5,-174.52"/>
</g>
<!-- Node33 -->
<g id="node33" class="node">
<title>Node33</title>
<g id="a_node33"><a xlink:href="text__input_8h.html" target="_top" xlink:title=" ">
<polygon fill="white" stroke="black" points="1347,-134.5 1347,-164.5 1455,-164.5 1455,-134.5 1347,-134.5"/>
<text text-anchor="start" x="1355" y="-152.5" font-family="Helvetica,sans-Serif" font-size="10.00">static_plugins/text</text>
<text text-anchor="middle" x="1401" y="-141.5" font-family="Helvetica,sans-Serif" font-size="10.00">_input/text_input.h</text>
</a>
</g>
</g>
<!-- Node21&#45;&gt;Node33 -->
<g id="edge62" class="edge">
<title>Node21&#45;&gt;Node33</title>
<path fill="none" stroke="midnightblue" d="M1140.67,-203.91C1186.55,-194.5 1275.78,-176.19 1336.86,-163.66"/>
<polygon fill="midnightblue" stroke="midnightblue" points="1337.69,-167.06 1346.79,-161.62 1336.29,-160.2 1337.69,-167.06"/>
</g>
<!-- Node26 -->
<g id="node26" class="node">
<title>Node26</title>
<g id="a_node26"><a xlink:title=" ">
<polygon fill="white" stroke="#bfbfbf" points="144.5,-73 144.5,-92 257.5,-92 257.5,-73 144.5,-73"/>
<text text-anchor="middle" x="201" y="-80" font-family="Helvetica,sans-Serif" font-size="10.00">flutter/fml/logging.h</text>
</a>
</g>
</g>
<!-- Node25&#45;&gt;Node26 -->
<g id="edge45" class="edge">
<title>Node25&#45;&gt;Node26</title>
<path fill="none" stroke="midnightblue" d="M178.51,-139.73C182.4,-129.99 188.81,-113.98 193.79,-101.53"/>
<polygon fill="midnightblue" stroke="midnightblue" points="197.08,-102.71 197.55,-92.13 190.59,-100.11 197.08,-102.71"/>
</g>
<!-- Node27&#45;&gt;Node3 -->
<g id="edge47" class="edge">
<title>Node27&#45;&gt;Node3</title>
<path fill="none" stroke="midnightblue" d="M496.68,-139.99C453.89,-131.79 390.73,-117.73 338,-98 336.76,-97.54 335.5,-97.03 334.25,-96.49"/>
<polygon fill="midnightblue" stroke="midnightblue" points="335.34,-93.14 324.81,-92.01 332.34,-99.46 335.34,-93.14"/>
</g>
<!-- Node27&#45;&gt;Node5 -->
<g id="edge48" class="edge">
<title>Node27&#45;&gt;Node5</title>
<path fill="none" stroke="midnightblue" d="M537.5,-139.73C527.49,-129.4 510.66,-112.04 498.34,-99.33"/>
<polygon fill="midnightblue" stroke="midnightblue" points="500.83,-96.87 491.36,-92.13 495.81,-101.74 500.83,-96.87"/>
</g>
<!-- Node27&#45;&gt;Node9 -->
<g id="edge49" class="edge">
<title>Node27&#45;&gt;Node9</title>
<path fill="none" stroke="midnightblue" d="M522.04,-139.92C485.98,-125.78 424.77,-96.24 452,-67 494.15,-21.74 905.57,-16.41 1081.19,-16.22"/>
<polygon fill="midnightblue" stroke="midnightblue" points="1081.41,-19.72 1091.4,-16.21 1081.4,-12.72 1081.41,-19.72"/>
</g>
<!-- Node28&#45;&gt;Node3 -->
<g id="edge51" class="edge">
<title>Node28&#45;&gt;Node3</title>
<path fill="none" stroke="midnightblue" d="M1054.97,-139.8C1039.46,-137.64 1022.61,-135.51 1007,-134 858.81,-119.71 481.65,-137.11 338,-98 336.33,-97.55 334.64,-96.98 332.97,-96.34"/>
<polygon fill="midnightblue" stroke="midnightblue" points="334.31,-93.11 323.77,-92.1 331.38,-99.46 334.31,-93.11"/>
</g>
<!-- Node28&#45;&gt;Node4 -->
<g id="edge52" class="edge">
<title>Node28&#45;&gt;Node4</title>
<path fill="none" stroke="midnightblue" d="M1054.96,-136.15C1050.25,-135.34 1045.55,-134.61 1041,-134 781.04,-99.31 712.23,-130.64 452,-98 439.94,-96.49 426.91,-94.23 415.1,-91.95"/>
<polygon fill="midnightblue" stroke="midnightblue" points="415.59,-88.48 405.09,-89.95 414.22,-95.34 415.59,-88.48"/>
</g>
<!-- Node28&#45;&gt;Node5 -->
<g id="edge53" class="edge">
<title>Node28&#45;&gt;Node5</title>
<path fill="none" stroke="midnightblue" d="M1054.95,-136.19C1050.25,-135.37 1045.55,-134.62 1041,-134 808.41,-102.12 741.3,-156.73 514,-98 512.02,-97.49 510,-96.85 508.01,-96.13"/>
<polygon fill="midnightblue" stroke="midnightblue" points="508.92,-92.72 498.35,-92.04 506.2,-99.16 508.92,-92.72"/>
</g>
<!-- Node28&#45;&gt;Node9 -->
<g id="edge59" class="edge">
<title>Node28&#45;&gt;Node9</title>
<path fill="none" stroke="midnightblue" d="M1054.87,-136.67C1050.19,-135.74 1045.51,-134.84 1041,-134 941.77,-115.5 758.14,-143.49 824,-67 856.52,-29.23 992.51,-19.32 1081.21,-16.95"/>
<polygon fill="midnightblue" stroke="midnightblue" points="1081.33,-20.44 1091.24,-16.7 1081.16,-13.45 1081.33,-20.44"/>
</g>
<!-- Node28&#45;&gt;Node13 -->
<g id="edge57" class="edge">
<title>Node28&#45;&gt;Node13</title>
<path fill="none" stroke="midnightblue" d="M1054.94,-136.3C1050.23,-135.46 1045.54,-134.68 1041,-134 866.63,-108.08 820.21,-124.97 646,-98 639.22,-96.95 632.1,-95.63 625.14,-94.2"/>
<polygon fill="midnightblue" stroke="midnightblue" points="625.64,-90.73 615.13,-92.07 624.18,-97.58 625.64,-90.73"/>
</g>
<!-- Node28&#45;&gt;Node14 -->
<g id="edge58" class="edge">
<title>Node28&#45;&gt;Node14</title>
<path fill="none" stroke="midnightblue" d="M1054.89,-136.56C1050.2,-135.66 1045.52,-134.79 1041,-134 930.43,-114.61 901.7,-116.66 791,-98 783.63,-96.76 775.88,-95.36 768.26,-93.94"/>
<polygon fill="midnightblue" stroke="midnightblue" points="768.85,-90.49 758.38,-92.06 767.55,-97.36 768.85,-90.49"/>
</g>
<!-- Node28&#45;&gt;Node18 -->
<g id="edge61" class="edge">
<title>Node28&#45;&gt;Node18</title>
<path fill="none" stroke="midnightblue" d="M1167.05,-135.46C1170.41,-134.91 1173.74,-134.41 1177,-134 1626.59,-77.15 1745.24,-144.65 2196,-98 2208.19,-96.74 2221.28,-94.78 2233.42,-92.7"/>
<polygon fill="midnightblue" stroke="midnightblue" points="2234.11,-96.13 2243.35,-90.94 2232.89,-89.24 2234.11,-96.13"/>
</g>
<!-- Node29 -->
<g id="node29" class="node">
<title>Node29</title>
<g id="a_node29"><a xlink:title=" ">
<polygon fill="white" stroke="#bfbfbf" points="833,-67.5 833,-97.5 957,-97.5 957,-67.5 833,-67.5"/>
<text text-anchor="start" x="841" y="-85.5" font-family="Helvetica,sans-Serif" font-size="10.00">flutter/basic_message</text>
<text text-anchor="middle" x="895" y="-74.5" font-family="Helvetica,sans-Serif" font-size="10.00">_channel.h</text>
</a>
</g>
</g>
<!-- Node28&#45;&gt;Node29 -->
<g id="edge54" class="edge">
<title>Node28&#45;&gt;Node29</title>
<path fill="none" stroke="midnightblue" d="M1064.4,-134.48C1031.3,-124.51 986.67,-111.09 951.53,-100.51"/>
<polygon fill="midnightblue" stroke="midnightblue" points="952.48,-97.14 941.89,-97.61 950.46,-103.84 952.48,-97.14"/>
</g>
<!-- Node30 -->
<g id="node30" class="node">
<title>Node30</title>
<g id="a_node30"><a xlink:title=" ">
<polygon fill="white" stroke="#bfbfbf" points="1339.5,-73 1339.5,-92 1486.5,-92 1486.5,-73 1339.5,-73"/>
<text text-anchor="middle" x="1413" y="-80" font-family="Helvetica,sans-Serif" font-size="10.00">flutter/binary_messenger.h</text>
</a>
</g>
</g>
<!-- Node28&#45;&gt;Node30 -->
<g id="edge55" class="edge">
<title>Node28&#45;&gt;Node30</title>
<path fill="none" stroke="midnightblue" d="M1167.16,-136.14C1170.49,-135.41 1173.79,-134.7 1177,-134 1241.22,-120.07 1315.34,-104.26 1363.12,-94.09"/>
<polygon fill="midnightblue" stroke="midnightblue" points="1363.85,-97.52 1372.9,-92.01 1362.39,-90.67 1363.85,-97.52"/>
</g>
<!-- Node31 -->
<g id="node31" class="node">
<title>Node31</title>
<g id="a_node31"><a xlink:title=" ">
<polygon fill="white" stroke="#bfbfbf" points="975,-67.5 975,-97.5 1153,-97.5 1153,-67.5 975,-67.5"/>
<text text-anchor="start" x="983" y="-85.5" font-family="Helvetica,sans-Serif" font-size="10.00">flutter/shell/platform</text>
<text text-anchor="middle" x="1064" y="-74.5" font-family="Helvetica,sans-Serif" font-size="10.00">/common/json_message_codec.h</text>
</a>
</g>
</g>
<!-- Node28&#45;&gt;Node31 -->
<g id="edge56" class="edge">
<title>Node28&#45;&gt;Node31</title>
<path fill="none" stroke="midnightblue" d="M1100.8,-134.4C1094.77,-126.05 1086.98,-115.29 1080.13,-105.81"/>
<polygon fill="midnightblue" stroke="midnightblue" points="1082.87,-103.63 1074.18,-97.58 1077.2,-107.73 1082.87,-103.63"/>
</g>
<!-- Node32 -->
<g id="node32" class="node">
<title>Node32</title>
<g id="a_node32"><a xlink:title=" ">
<polygon fill="white" stroke="#bfbfbf" points="1171,-73 1171,-92 1321,-92 1321,-73 1171,-73"/>
<text text-anchor="middle" x="1246" y="-80" font-family="Helvetica,sans-Serif" font-size="10.00">xkbcommon/xkbcommon.h</text>
</a>
</g>
</g>
<!-- Node28&#45;&gt;Node32 -->
<g id="edge60" class="edge">
<title>Node28&#45;&gt;Node32</title>
<path fill="none" stroke="midnightblue" d="M1140.29,-134.4C1163.77,-123.09 1196.44,-107.36 1219.23,-96.39"/>
<polygon fill="midnightblue" stroke="midnightblue" points="1220.84,-99.5 1228.33,-92.01 1217.8,-93.19 1220.84,-99.5"/>
</g>
<!-- Node33&#45;&gt;Node3 -->
<g id="edge63" class="edge">
<title>Node33&#45;&gt;Node3</title>
<path fill="none" stroke="midnightblue" d="M1346.67,-136.97C1339.74,-135.8 1332.72,-134.77 1326,-134 1107.72,-109.07 550.48,-153.87 338,-98 336.33,-97.56 334.64,-97.01 332.97,-96.38"/>
<polygon fill="midnightblue" stroke="midnightblue" points="334.3,-93.14 323.75,-92.15 331.38,-99.5 334.3,-93.14"/>
</g>
<!-- Node33&#45;&gt;Node4 -->
<g id="edge64" class="edge">
<title>Node33&#45;&gt;Node4</title>
<path fill="none" stroke="midnightblue" d="M1346.67,-137C1339.74,-135.83 1332.72,-134.78 1326,-134 939.84,-88.98 838.21,-142.55 452,-98 439.92,-96.61 426.89,-94.39 415.08,-92.1"/>
<polygon fill="midnightblue" stroke="midnightblue" points="415.57,-88.63 405.08,-90.09 414.19,-95.49 415.57,-88.63"/>
</g>
<!-- Node33&#45;&gt;Node5 -->
<g id="edge65" class="edge">
<title>Node33&#45;&gt;Node5</title>
<path fill="none" stroke="midnightblue" d="M1346.67,-137.02C1339.73,-135.85 1332.72,-134.79 1326,-134 1146.63,-112.8 689.41,-141.09 514,-98 512.01,-97.51 509.99,-96.89 507.99,-96.18"/>
<polygon fill="midnightblue" stroke="midnightblue" points="508.91,-92.77 498.33,-92.12 506.19,-99.22 508.91,-92.77"/>
</g>
<!-- Node33&#45;&gt;Node9 -->
<g id="edge73" class="edge">
<title>Node33&#45;&gt;Node9</title>
<path fill="none" stroke="midnightblue" d="M1439.31,-134.4C1474.82,-119.23 1518.97,-93.68 1496,-67 1463.48,-29.23 1327.49,-19.32 1238.79,-16.95"/>
<polygon fill="midnightblue" stroke="midnightblue" points="1238.84,-13.45 1228.76,-16.7 1238.67,-20.44 1238.84,-13.45"/>
</g>
<!-- Node33&#45;&gt;Node13 -->
<g id="edge69" class="edge">
<title>Node33&#45;&gt;Node13</title>
<path fill="none" stroke="midnightblue" d="M1346.66,-137.08C1339.73,-135.89 1332.71,-134.82 1326,-134 1025.6,-97.19 945.91,-138.61 646,-98 638.73,-97.02 631.07,-95.65 623.64,-94.14"/>
<polygon fill="midnightblue" stroke="midnightblue" points="624.24,-90.69 613.73,-92.02 622.77,-97.53 624.24,-90.69"/>
</g>
<!-- Node33&#45;&gt;Node14 -->
<g id="edge72" class="edge">
<title>Node33&#45;&gt;Node14</title>
<path fill="none" stroke="midnightblue" d="M1346.64,-137.2C1339.72,-135.99 1332.71,-134.89 1326,-134 1104.24,-104.72 1046.51,-120.89 824,-98 811.3,-96.69 797.8,-95.07 784.79,-93.38"/>
<polygon fill="midnightblue" stroke="midnightblue" points="784.87,-89.86 774.49,-92.03 783.95,-96.8 784.87,-89.86"/>
</g>
<!-- Node33&#45;&gt;Node18 -->
<g id="edge75" class="edge">
<title>Node33&#45;&gt;Node18</title>
<path fill="none" stroke="midnightblue" d="M1455.16,-147.07C1583.97,-143.22 1918.55,-130.66 2196,-98 2208.17,-96.57 2221.26,-94.54 2233.39,-92.46"/>
<polygon fill="midnightblue" stroke="midnightblue" points="2234.08,-95.89 2243.32,-90.71 2232.87,-89 2234.08,-95.89"/>
</g>
<!-- Node33&#45;&gt;Node30 -->
<g id="edge66" class="edge">
<title>Node33&#45;&gt;Node30</title>
<path fill="none" stroke="midnightblue" d="M1403.6,-134.4C1405.35,-124.96 1407.66,-112.45 1409.55,-102.19"/>
<polygon fill="midnightblue" stroke="midnightblue" points="1413.02,-102.66 1411.39,-92.19 1406.14,-101.39 1413.02,-102.66"/>
</g>
<!-- Node33&#45;&gt;Node32 -->
<g id="edge74" class="edge">
<title>Node33&#45;&gt;Node32</title>
<path fill="none" stroke="midnightblue" d="M1367.37,-134.4C1340.05,-122.94 1301.89,-106.94 1275.69,-95.95"/>
<polygon fill="midnightblue" stroke="midnightblue" points="1276.86,-92.65 1266.29,-92.01 1274.15,-99.1 1276.86,-92.65"/>
</g>
<!-- Node34 -->
<g id="node34" class="node">
<title>Node34</title>
<g id="a_node34"><a xlink:title=" ">
<polygon fill="white" stroke="#bfbfbf" points="1721.5,-73 1721.5,-92 1860.5,-92 1860.5,-73 1721.5,-73"/>
<text text-anchor="middle" x="1791" y="-80" font-family="Helvetica,sans-Serif" font-size="10.00">flutter/method_channel.h</text>
</a>
</g>
</g>
<!-- Node33&#45;&gt;Node34 -->
<g id="edge67" class="edge">
<title>Node33&#45;&gt;Node34</title>
<path fill="none" stroke="midnightblue" d="M1455.27,-140.03C1517.38,-130.26 1622.12,-113.54 1712,-98 1719.63,-96.68 1727.67,-95.25 1735.58,-93.82"/>
<polygon fill="midnightblue" stroke="midnightblue" points="1736.28,-97.25 1745.49,-92.02 1735.03,-90.36 1736.28,-97.25"/>
</g>
<!-- Node35 -->
<g id="node35" class="node">
<title>Node35</title>
<g id="a_node35"><a xlink:title=" ">
<polygon fill="white" stroke="#bfbfbf" points="1878.5,-67.5 1878.5,-97.5 1997.5,-97.5 1997.5,-67.5 1878.5,-67.5"/>
<text text-anchor="start" x="1886.5" y="-85.5" font-family="Helvetica,sans-Serif" font-size="10.00">flutter/method_result</text>
<text text-anchor="middle" x="1938" y="-74.5" font-family="Helvetica,sans-Serif" font-size="10.00">_functions.h</text>
</a>
</g>
</g>
<!-- Node33&#45;&gt;Node35 -->
<g id="edge68" class="edge">
<title>Node33&#45;&gt;Node35</title>
<path fill="none" stroke="midnightblue" d="M1455.05,-144.5C1540.69,-137.76 1712.99,-122.58 1868.17,-98.2"/>
<polygon fill="midnightblue" stroke="midnightblue" points="1869.03,-101.6 1878.36,-96.58 1867.94,-94.69 1869.03,-101.6"/>
</g>
<!-- Node36 -->
<g id="node36" class="node">
<title>Node36</title>
<g id="a_node36"><a xlink:title=" ">
<polygon fill="white" stroke="#bfbfbf" points="2015.5,-67.5 2015.5,-97.5 2186.5,-97.5 2186.5,-67.5 2015.5,-67.5"/>
<text text-anchor="start" x="2023.5" y="-85.5" font-family="Helvetica,sans-Serif" font-size="10.00">flutter/shell/platform</text>
<text text-anchor="middle" x="2101" y="-74.5" font-family="Helvetica,sans-Serif" font-size="10.00">/common/json_method_codec.h</text>
</a>
</g>
</g>
<!-- Node33&#45;&gt;Node36 -->
<g id="edge70" class="edge">
<title>Node33&#45;&gt;Node36</title>
<path fill="none" stroke="midnightblue" d="M1455.04,-145.27C1559.44,-138.75 1796.32,-122.61 2005.54,-98.12"/>
<polygon fill="midnightblue" stroke="midnightblue" points="2005.96,-101.6 2015.48,-96.95 2005.14,-94.65 2005.96,-101.6"/>
</g>
<!-- Node37 -->
<g id="node37" class="node">
<title>Node37</title>
<g id="a_node37"><a xlink:title=" ">
<polygon fill="white" stroke="#bfbfbf" points="1543,-67.5 1543,-97.5 1703,-97.5 1703,-67.5 1543,-67.5"/>
<text text-anchor="start" x="1551" y="-85.5" font-family="Helvetica,sans-Serif" font-size="10.00">flutter/shell/platform</text>
<text text-anchor="middle" x="1623" y="-74.5" font-family="Helvetica,sans-Serif" font-size="10.00">/common/text_input_model.h</text>
</a>
</g>
</g>
<!-- Node33&#45;&gt;Node37 -->
<g id="edge71" class="edge">
<title>Node33&#45;&gt;Node37</title>
<path fill="none" stroke="midnightblue" d="M1448.9,-134.48C1482.92,-124.51 1528.78,-111.09 1564.9,-100.51"/>
<polygon fill="midnightblue" stroke="midnightblue" points="1566.19,-103.78 1574.81,-97.61 1564.23,-97.06 1566.19,-103.78"/>
</g>
<!-- Node39&#45;&gt;Node4 -->
<g id="edge79" class="edge">
<title>Node39&#45;&gt;Node4</title>
<path fill="none" stroke="midnightblue" d="M2146.81,-209.9C1966.57,-209.24 1151.24,-204.08 1046,-165 1025.24,-157.29 1027.66,-141.97 1007,-134 891.69,-89.52 574.6,-113.61 452,-98 439.94,-96.46 426.91,-94.2 415.1,-91.92"/>
<polygon fill="midnightblue" stroke="midnightblue" points="415.59,-88.45 405.1,-89.93 414.22,-95.31 415.59,-88.45"/>
</g>
<!-- Node39&#45;&gt;Node6 -->
<g id="edge81" class="edge">
<title>Node39&#45;&gt;Node6</title>
<path fill="none" stroke="midnightblue" d="M2217.08,-209.04C2279.5,-206.52 2405.87,-197.43 2433,-165 2465.07,-126.67 2432.13,-63.72 2412.85,-33.6"/>
<polygon fill="midnightblue" stroke="midnightblue" points="2415.62,-31.44 2407.17,-25.05 2409.79,-35.31 2415.62,-31.44"/>
</g>
<!-- Node39&#45;&gt;Node7 -->
<g id="edge83" class="edge">
<title>Node39&#45;&gt;Node7</title>
<path fill="none" stroke="midnightblue" d="M2164.09,-201.48C2143.11,-191.49 2108.15,-174.85 2083.91,-163.31"/>
<polygon fill="midnightblue" stroke="midnightblue" points="2085.41,-160.15 2074.88,-159.01 2082.4,-166.47 2085.41,-160.15"/>
</g>
<!-- Node39&#45;&gt;Node8 -->
<g id="edge84" class="edge">
<title>Node39&#45;&gt;Node8</title>
<path fill="none" stroke="midnightblue" d="M2182,-201.48C2182,-193.08 2182,-179.98 2182,-169.16"/>
<polygon fill="midnightblue" stroke="midnightblue" points="2185.5,-169.01 2182,-159.01 2178.5,-169.01 2185.5,-169.01"/>
</g>
<!-- Node39&#45;&gt;Node9 -->
<g id="edge85" class="edge">
<title>Node39&#45;&gt;Node9</title>
<path fill="none" stroke="midnightblue" d="M2211.24,-201.49C2232.32,-194.28 2260.55,-182.33 2281,-165 2317.56,-134.01 2359.15,-101.62 2326,-67 2288.42,-27.76 1495.02,-18.82 1238.93,-16.96"/>
<polygon fill="midnightblue" stroke="midnightblue" points="1238.62,-13.45 1228.6,-16.88 1238.57,-20.45 1238.62,-13.45"/>
</g>
<!-- Node39&#45;&gt;Node12 -->
<g id="edge80" class="edge">
<title>Node39&#45;&gt;Node12</title>
<path fill="none" stroke="midnightblue" d="M2146.87,-210.18C1976.77,-210.84 1237.86,-210.93 1013,-165 1009.92,-164.37 1006.76,-163.52 1003.64,-162.55"/>
<polygon fill="midnightblue" stroke="midnightblue" points="1004.56,-159.16 993.97,-159.13 1002.23,-165.76 1004.56,-159.16"/>
</g>
<!-- Node39&#45;&gt;Node18 -->
<g id="edge86" class="edge">
<title>Node39&#45;&gt;Node18</title>
<path fill="none" stroke="midnightblue" d="M2208.2,-201.41C2225.72,-194.34 2247.88,-182.58 2261,-165 2274.68,-146.66 2278.72,-120.04 2279.8,-102.27"/>
<polygon fill="midnightblue" stroke="midnightblue" points="2283.31,-102.16 2280.16,-92.04 2276.31,-101.91 2283.31,-102.16"/>
</g>
<!-- Node40 -->
<g id="node40" class="node">
<title>Node40</title>
<g id="a_node40"><a xlink:title=" ">
<polygon fill="white" stroke="#bfbfbf" points="2346,-140 2346,-159 2424,-159 2424,-140 2346,-140"/>
<text text-anchor="middle" x="2385" y="-147" font-family="Helvetica,sans-Serif" font-size="10.00">EGL/eglext.h</text>
</a>
</g>
</g>
<!-- Node39&#45;&gt;Node40 -->
<g id="edge82" class="edge">
<title>Node39&#45;&gt;Node40</title>
<path fill="none" stroke="midnightblue" d="M2211.08,-201.48C2246.58,-191.07 2306.75,-173.44 2346.17,-161.88"/>
<polygon fill="midnightblue" stroke="midnightblue" points="2347.36,-165.18 2355.97,-159.01 2345.39,-158.46 2347.36,-165.18"/>
</g>
</g>
</svg>
