<?xml version="1.0" encoding="UTF-8" standalone="no"?>
<!DOCTYPE svg PUBLIC "-//W3C//DTD SVG 1.1//EN"
 "http://www.w3.org/Graphics/SVG/1.1/DTD/svg11.dtd">
<!-- Generated by graphviz version 5.0.0 (0)
 -->
<!-- Title: /mnt/raid10/stargate/ivi&#45;homescreen/shell/static_plugins/text_input/text_input.cc Pages: 1 -->
<svg width="2741pt" height="423pt"
 viewBox="0.00 0.00 2740.79 423.00" xmlns="http://www.w3.org/2000/svg" xmlns:xlink="http://www.w3.org/1999/xlink">
<g id="graph0" class="graph" transform="scale(1 1) rotate(0) translate(4 419)">
<title>/mnt/raid10/stargate/ivi&#45;homescreen/shell/static_plugins/text_input/text_input.cc</title>
<!-- Node1 -->
<g id="node1" class="node">
<title>Node1</title>
<g id="a_node1"><a xlink:title=" ">
<polygon fill="#999999" stroke="#666666" points="1729.29,-415 1604.29,-415 1604.29,-363 1729.29,-363 1729.29,-415"/>
<text text-anchor="start" x="1612.29" y="-403" font-family="Helvetica,sans-Serif" font-size="10.00">/mnt/raid10/stargate</text>
<text text-anchor="start" x="1612.29" y="-392" font-family="Helvetica,sans-Serif" font-size="10.00">/ivi&#45;homescreen/shell</text>
<text text-anchor="start" x="1612.29" y="-381" font-family="Helvetica,sans-Serif" font-size="10.00">/static_plugins/text_input</text>
<text text-anchor="middle" x="1666.79" y="-370" font-family="Helvetica,sans-Serif" font-size="10.00">/text_input.cc</text>
</a>
</g>
</g>
<!-- Node2 -->
<g id="node2" class="node">
<title>Node2</title>
<g id="a_node2"><a xlink:href="text__input_8h.html" target="_top" xlink:title=" ">
<polygon fill="white" stroke="#666666" points="563.79,-211.5 495.79,-211.5 495.79,-192.5 563.79,-192.5 563.79,-211.5"/>
<text text-anchor="middle" x="529.79" y="-199.5" font-family="Helvetica,sans-Serif" font-size="10.00">text_input.h</text>
</a>
</g>
</g>
<!-- Node1&#45;&gt;Node2 -->
<g id="edge1" class="edge">
<title>Node1&#45;&gt;Node2</title>
<path fill="none" stroke="#63b8ff" d="M1604.04,-383.78C1454.89,-372.95 1067.99,-340.09 751.79,-272 682.93,-257.17 604.79,-230.5 562.02,-215.02"/>
<polygon fill="#63b8ff" stroke="#63b8ff" points="563.03,-211.66 552.44,-211.52 560.64,-218.24 563.03,-211.66"/>
</g>
<!-- Node4 -->
<g id="node4" class="node">
<title>Node4</title>
<g id="a_node4"><a xlink:title=" ">
<polygon fill="#e0e0e0" stroke="#999999" points="1895.79,-145.5 1843.79,-145.5 1843.79,-126.5 1895.79,-126.5 1895.79,-145.5"/>
<text text-anchor="middle" x="1869.79" y="-133.5" font-family="Helvetica,sans-Serif" font-size="10.00">memory</text>
</a>
</g>
</g>
<!-- Node1&#45;&gt;Node4 -->
<g id="edge18" class="edge">
<title>Node1&#45;&gt;Node4</title>
<path fill="none" stroke="#63b8ff" d="M1729.35,-374.07C1787.15,-358.26 1871.95,-327.2 1925.79,-272 1953.11,-243.98 1967.66,-221.28 1948.79,-187 1942.95,-176.4 1917.1,-161.17 1896.53,-150.32"/>
<polygon fill="#63b8ff" stroke="#63b8ff" points="1898.04,-147.15 1887.55,-145.67 1894.82,-153.37 1898.04,-147.15"/>
</g>
<!-- Node18 -->
<g id="node18" class="node">
<title>Node18</title>
<g id="a_node18"><a xlink:href="engine_8h.html" target="_top" xlink:title=" ">
<polygon fill="white" stroke="#666666" points="1693.29,-327 1640.29,-327 1640.29,-308 1693.29,-308 1693.29,-327"/>
<text text-anchor="middle" x="1666.79" y="-315" font-family="Helvetica,sans-Serif" font-size="10.00">engine.h</text>
</a>
</g>
</g>
<!-- Node1&#45;&gt;Node18 -->
<g id="edge19" class="edge">
<title>Node1&#45;&gt;Node18</title>
<path fill="none" stroke="#63b8ff" d="M1666.79,-362.91C1666.79,-354.55 1666.79,-345.38 1666.79,-337.55"/>
<polygon fill="#63b8ff" stroke="#63b8ff" points="1670.29,-337.3 1666.79,-327.3 1663.29,-337.3 1670.29,-337.3"/>
</g>
<!-- Node3 -->
<g id="node3" class="node">
<title>Node3</title>
<g id="a_node3"><a xlink:title=" ">
<polygon fill="#e0e0e0" stroke="#999999" points="1666.29,-145.5 1631.29,-145.5 1631.29,-126.5 1666.29,-126.5 1666.29,-145.5"/>
<text text-anchor="middle" x="1648.79" y="-133.5" font-family="Helvetica,sans-Serif" font-size="10.00">map</text>
</a>
</g>
</g>
<!-- Node2&#45;&gt;Node3 -->
<g id="edge2" class="edge">
<title>Node2&#45;&gt;Node3</title>
<path fill="none" stroke="#63b8ff" d="M552.25,-192.38C558.78,-190.23 565.99,-188.2 572.79,-187 802.49,-146.5 1396.16,-210.14 1621.79,-151 1623.23,-150.62 1624.67,-150.16 1626.11,-149.64"/>
<polygon fill="#63b8ff" stroke="#63b8ff" points="1627.58,-152.81 1635.25,-145.51 1624.7,-146.43 1627.58,-152.81"/>
</g>
<!-- Node2&#45;&gt;Node4 -->
<g id="edge3" class="edge">
<title>Node2&#45;&gt;Node4</title>
<path fill="none" stroke="#63b8ff" d="M552.24,-192.35C558.77,-190.21 565.98,-188.18 572.79,-187 840.89,-140.4 1526.3,-180.72 1796.79,-151 1808.89,-149.67 1821.99,-147.42 1833.71,-145.11"/>
<polygon fill="#63b8ff" stroke="#63b8ff" points="1834.5,-148.52 1843.59,-143.08 1833.09,-141.66 1834.5,-148.52"/>
</g>
<!-- Node5 -->
<g id="node5" class="node">
<title>Node5</title>
<g id="a_node5"><a xlink:title=" ">
<polygon fill="#e0e0e0" stroke="#999999" points="1725.29,-145.5 1684.29,-145.5 1684.29,-126.5 1725.29,-126.5 1725.29,-145.5"/>
<text text-anchor="middle" x="1704.79" y="-133.5" font-family="Helvetica,sans-Serif" font-size="10.00">string</text>
</a>
</g>
</g>
<!-- Node2&#45;&gt;Node5 -->
<g id="edge4" class="edge">
<title>Node2&#45;&gt;Node5</title>
<path fill="none" stroke="#63b8ff" d="M552.25,-192.37C558.78,-190.22 565.98,-188.19 572.79,-187 814.34,-144.62 1437.65,-209.58 1675.79,-151 1677.47,-150.59 1679.17,-150.07 1680.85,-149.48"/>
<polygon fill="#63b8ff" stroke="#63b8ff" points="1682.35,-152.64 1690.19,-145.51 1679.61,-146.2 1682.35,-152.64"/>
</g>
<!-- Node6 -->
<g id="node6" class="node">
<title>Node6</title>
<g id="a_node6"><a xlink:title=" ">
<polygon fill="#e0e0e0" stroke="#999999" points="976.79,-145.5 844.79,-145.5 844.79,-126.5 976.79,-126.5 976.79,-145.5"/>
<text text-anchor="middle" x="910.79" y="-133.5" font-family="Helvetica,sans-Serif" font-size="10.00">flutter/binary_messenger.h</text>
</a>
</g>
</g>
<!-- Node2&#45;&gt;Node6 -->
<g id="edge5" class="edge">
<title>Node2&#45;&gt;Node6</title>
<path fill="none" stroke="#63b8ff" d="M553.69,-192.43C559.86,-190.44 566.52,-188.47 572.79,-187 621.07,-175.66 750.47,-157.8 834.43,-146.78"/>
<polygon fill="#63b8ff" stroke="#63b8ff" points="834.97,-150.24 844.43,-145.47 834.06,-143.3 834.97,-150.24"/>
</g>
<!-- Node7 -->
<g id="node7" class="node">
<title>Node7</title>
<g id="a_node7"><a xlink:title=" ">
<polygon fill="#e0e0e0" stroke="#999999" points="139.79,-145.5 15.79,-145.5 15.79,-126.5 139.79,-126.5 139.79,-145.5"/>
<text text-anchor="middle" x="77.79" y="-133.5" font-family="Helvetica,sans-Serif" font-size="10.00">flutter/method_channel.h</text>
</a>
</g>
</g>
<!-- Node2&#45;&gt;Node7 -->
<g id="edge6" class="edge">
<title>Node2&#45;&gt;Node7</title>
<path fill="none" stroke="#63b8ff" d="M495.79,-197.28C429.06,-189.82 276.34,-171.92 148.79,-151 142.21,-149.92 135.3,-148.69 128.49,-147.41"/>
<polygon fill="#63b8ff" stroke="#63b8ff" points="129.11,-143.96 118.63,-145.52 127.79,-150.84 129.11,-143.96"/>
</g>
<!-- Node8 -->
<g id="node8" class="node">
<title>Node8</title>
<g id="a_node8"><a xlink:title=" ">
<polygon fill="#e0e0e0" stroke="#999999" points="263.79,-151 157.79,-151 157.79,-121 263.79,-121 263.79,-151"/>
<text text-anchor="start" x="165.79" y="-139" font-family="Helvetica,sans-Serif" font-size="10.00">flutter/method_result</text>
<text text-anchor="middle" x="210.79" y="-128" font-family="Helvetica,sans-Serif" font-size="10.00">_functions.h</text>
</a>
</g>
</g>
<!-- Node2&#45;&gt;Node8 -->
<g id="edge7" class="edge">
<title>Node2&#45;&gt;Node8</title>
<path fill="none" stroke="#63b8ff" d="M495.53,-194.32C447.03,-184.83 355.58,-166.85 277.79,-151 276.51,-150.74 275.22,-150.48 273.92,-150.21"/>
<polygon fill="#63b8ff" stroke="#63b8ff" points="274.31,-146.72 263.81,-148.13 272.9,-153.57 274.31,-146.72"/>
</g>
<!-- Node9 -->
<g id="node9" class="node">
<title>Node9</title>
<g id="a_node9"><a xlink:title=" ">
<polygon fill="#e0e0e0" stroke="#999999" points="1613.29,-145.5 1512.29,-145.5 1512.29,-126.5 1613.29,-126.5 1613.29,-145.5"/>
<text text-anchor="middle" x="1562.79" y="-133.5" font-family="Helvetica,sans-Serif" font-size="10.00">flutter/fml/macros.h</text>
</a>
</g>
</g>
<!-- Node2&#45;&gt;Node9 -->
<g id="edge8" class="edge">
<title>Node2&#45;&gt;Node9</title>
<path fill="none" stroke="#63b8ff" d="M552.25,-192.4C558.78,-190.26 565.99,-188.22 572.79,-187 963.32,-116.92 1069.67,-187.1 1464.79,-151 1476.82,-149.9 1489.64,-148.35 1501.9,-146.68"/>
<polygon fill="#63b8ff" stroke="#63b8ff" points="1502.63,-150.11 1512.04,-145.25 1501.65,-143.18 1502.63,-150.11"/>
</g>
<!-- Node10 -->
<g id="node10" class="node">
<title>Node10</title>
<g id="a_node10"><a xlink:title=" ">
<polygon fill="#e0e0e0" stroke="#999999" points="475.29,-151 320.29,-151 320.29,-121 475.29,-121 475.29,-151"/>
<text text-anchor="start" x="328.29" y="-139" font-family="Helvetica,sans-Serif" font-size="10.00">flutter/shell/platform</text>
<text text-anchor="middle" x="397.79" y="-128" font-family="Helvetica,sans-Serif" font-size="10.00">/common/json_method_codec.h</text>
</a>
</g>
</g>
<!-- Node2&#45;&gt;Node10 -->
<g id="edge9" class="edge">
<title>Node2&#45;&gt;Node10</title>
<path fill="none" stroke="#63b8ff" d="M511.99,-192.37C492.64,-182.99 461.15,-167.72 436.14,-155.59"/>
<polygon fill="#63b8ff" stroke="#63b8ff" points="437.43,-152.33 426.9,-151.12 434.37,-158.63 437.43,-152.33"/>
</g>
<!-- Node11 -->
<g id="node11" class="node">
<title>Node11</title>
<g id="a_node11"><a xlink:title=" ">
<polygon fill="#e0e0e0" stroke="#999999" points="636.29,-151 493.29,-151 493.29,-121 636.29,-121 636.29,-151"/>
<text text-anchor="start" x="501.29" y="-139" font-family="Helvetica,sans-Serif" font-size="10.00">flutter/shell/platform</text>
<text text-anchor="middle" x="564.79" y="-128" font-family="Helvetica,sans-Serif" font-size="10.00">/common/text_input_model.h</text>
</a>
</g>
</g>
<!-- Node2&#45;&gt;Node11 -->
<g id="edge10" class="edge">
<title>Node2&#45;&gt;Node11</title>
<path fill="none" stroke="#63b8ff" d="M534.51,-192.37C539,-184.16 545.96,-171.44 552.07,-160.26"/>
<polygon fill="#63b8ff" stroke="#63b8ff" points="555.21,-161.81 556.94,-151.36 549.07,-158.45 555.21,-161.81"/>
</g>
<!-- Node12 -->
<g id="node12" class="node">
<title>Node12</title>
<g id="a_node12"><a xlink:title=" ">
<polygon fill="#e0e0e0" stroke="#999999" points="1455.79,-145.5 1345.79,-145.5 1345.79,-126.5 1455.79,-126.5 1455.79,-145.5"/>
<text text-anchor="middle" x="1400.79" y="-133.5" font-family="Helvetica,sans-Serif" font-size="10.00">rapidjson/document.h</text>
</a>
</g>
</g>
<!-- Node2&#45;&gt;Node12 -->
<g id="edge11" class="edge">
<title>Node2&#45;&gt;Node12</title>
<path fill="none" stroke="#63b8ff" d="M552.26,-192.43C558.79,-190.29 565.99,-188.24 572.79,-187 906.73,-125.9 999.15,-194.89 1335.79,-151 1342.48,-150.13 1349.5,-148.92 1356.36,-147.59"/>
<polygon fill="#63b8ff" stroke="#63b8ff" points="1357.14,-151 1366.23,-145.55 1355.73,-144.14 1357.14,-151"/>
</g>
<!-- Node13 -->
<g id="node13" class="node">
<title>Node13</title>
<g id="a_node13"><a xlink:title=" ">
<polygon fill="#e0e0e0" stroke="#999999" points="1657.29,-30 1536.29,-30 1536.29,0 1657.29,0 1657.29,-30"/>
<text text-anchor="start" x="1544.29" y="-18" font-family="Helvetica,sans-Serif" font-size="10.00">shell/platform/embedder</text>
<text text-anchor="middle" x="1596.79" y="-7" font-family="Helvetica,sans-Serif" font-size="10.00">/embedder.h</text>
</a>
</g>
</g>
<!-- Node2&#45;&gt;Node13 -->
<g id="edge12" class="edge">
<title>Node2&#45;&gt;Node13</title>
<path fill="none" stroke="#63b8ff" d="M495.61,-200.34C384.63,-197.84 39.69,-187.19 6.79,-151 -2.18,-141.13 -2.32,-130.73 6.79,-121 19.98,-106.91 1218.99,-37.56 1525.88,-20.03"/>
<polygon fill="#63b8ff" stroke="#63b8ff" points="1526.21,-23.52 1535.99,-19.45 1525.81,-16.53 1526.21,-23.52"/>
</g>
<!-- Node14 -->
<g id="node14" class="node">
<title>Node14</title>
<g id="a_node14"><a xlink:title=" ">
<polygon fill="#e0e0e0" stroke="#999999" points="788.79,-145.5 654.79,-145.5 654.79,-126.5 788.79,-126.5 788.79,-145.5"/>
<text text-anchor="middle" x="721.79" y="-133.5" font-family="Helvetica,sans-Serif" font-size="10.00">xkbcommon/xkbcommon.h</text>
</a>
</g>
</g>
<!-- Node2&#45;&gt;Node14 -->
<g id="edge13" class="edge">
<title>Node2&#45;&gt;Node14</title>
<path fill="none" stroke="#63b8ff" d="M555.68,-192.37C589.42,-181.12 648.54,-161.42 686.39,-148.8"/>
<polygon fill="#63b8ff" stroke="#63b8ff" points="687.62,-152.08 696,-145.6 685.41,-145.44 687.62,-152.08"/>
</g>
<!-- Node15 -->
<g id="node15" class="node">
<title>Node15</title>
<g id="a_node15"><a xlink:href="constants_8h.html" target="_top" xlink:title=" ">
<polygon fill="white" stroke="#666666" points="1342.79,-85 1274.79,-85 1274.79,-66 1342.79,-66 1342.79,-85"/>
<text text-anchor="middle" x="1308.79" y="-73" font-family="Helvetica,sans-Serif" font-size="10.00">constants.h</text>
</a>
</g>
</g>
<!-- Node2&#45;&gt;Node15 -->
<g id="edge14" class="edge">
<title>Node2&#45;&gt;Node15</title>
<path fill="none" stroke="#63b8ff" d="M495.74,-199.64C421.22,-195.54 254.62,-179.73 310.79,-121 344.17,-86.09 1075.3,-78.24 1264.44,-76.79"/>
<polygon fill="#63b8ff" stroke="#63b8ff" points="1264.61,-80.29 1274.58,-76.71 1264.55,-73.29 1264.61,-80.29"/>
</g>
<!-- Node15&#45;&gt;Node13 -->
<g id="edge16" class="edge">
<title>Node15&#45;&gt;Node13</title>
<path fill="none" stroke="#63b8ff" d="M1342.96,-67.56C1387.89,-58.43 1467.95,-42.17 1526.17,-30.35"/>
<polygon fill="#63b8ff" stroke="#63b8ff" points="1526.94,-33.76 1536.04,-28.34 1525.54,-26.9 1526.94,-33.76"/>
</g>
<!-- Node16 -->
<g id="node16" class="node">
<title>Node16</title>
<g id="a_node16"><a xlink:title=" ">
<polygon fill="#e0e0e0" stroke="#999999" points="2305.79,-24.5 2245.79,-24.5 2245.79,-5.5 2305.79,-5.5 2305.79,-24.5"/>
<text text-anchor="middle" x="2275.79" y="-12.5" font-family="Helvetica,sans-Serif" font-size="10.00">EGL/egl.h</text>
</a>
</g>
</g>
<!-- Node15&#45;&gt;Node16 -->
<g id="edge15" class="edge">
<title>Node15&#45;&gt;Node16</title>
<path fill="none" stroke="#63b8ff" d="M1342.92,-72.44C1490.77,-63.49 2075.68,-28.11 2235.34,-18.45"/>
<polygon fill="#63b8ff" stroke="#63b8ff" points="2235.89,-21.92 2245.66,-17.82 2235.47,-14.93 2235.89,-21.92"/>
</g>
<!-- Node17 -->
<g id="node17" class="node">
<title>Node17</title>
<g id="a_node17"><a xlink:title=" ">
<polygon fill="#e0e0e0" stroke="#999999" points="1327.79,-24.5 1289.79,-24.5 1289.79,-5.5 1327.79,-5.5 1327.79,-24.5"/>
<text text-anchor="middle" x="1308.79" y="-12.5" font-family="Helvetica,sans-Serif" font-size="10.00">array</text>
</a>
</g>
</g>
<!-- Node15&#45;&gt;Node17 -->
<g id="edge17" class="edge">
<title>Node15&#45;&gt;Node17</title>
<path fill="none" stroke="#63b8ff" d="M1308.79,-65.87C1308.79,-57.75 1308.79,-45.31 1308.79,-34.89"/>
<polygon fill="#63b8ff" stroke="#63b8ff" points="1312.29,-34.67 1308.79,-24.67 1305.29,-34.67 1312.29,-34.67"/>
</g>
<!-- Node18&#45;&gt;Node2 -->
<g id="edge62" class="edge">
<title>Node18&#45;&gt;Node2</title>
<path fill="none" stroke="#63b8ff" d="M1640.17,-315.87C1543.16,-313.37 1199.44,-302.74 917.79,-272 763.44,-255.15 723.74,-253.37 572.79,-217 569.76,-216.27 566.63,-215.43 563.51,-214.53"/>
<polygon fill="#63b8ff" stroke="#63b8ff" points="564.29,-211.11 553.71,-211.52 562.24,-217.8 564.29,-211.11"/>
</g>
<!-- Node18&#45;&gt;Node3 -->
<g id="edge26" class="edge">
<title>Node18&#45;&gt;Node3</title>
<path fill="none" stroke="#63b8ff" d="M1666.71,-307.76C1666.17,-294.57 1663.41,-269.4 1650.79,-253 1630.65,-226.83 1602.56,-245.45 1585.79,-217 1579.02,-205.51 1579.99,-199.01 1585.79,-187 1590.27,-177.72 1610.54,-162.51 1626.9,-151.3"/>
<polygon fill="#63b8ff" stroke="#63b8ff" points="1629.11,-154.03 1635.46,-145.54 1625.2,-148.22 1629.11,-154.03"/>
</g>
<!-- Node18&#45;&gt;Node4 -->
<g id="edge27" class="edge">
<title>Node18&#45;&gt;Node4</title>
<path fill="none" stroke="#63b8ff" d="M1693.63,-314.3C1748,-309.38 1868.81,-296.01 1901.79,-272 1934.18,-248.42 1949.07,-223.14 1931.79,-187 1924.42,-171.59 1909.73,-159.42 1896.5,-150.94"/>
<polygon fill="#63b8ff" stroke="#63b8ff" points="1898.06,-147.79 1887.68,-145.66 1894.47,-153.8 1898.06,-147.79"/>
</g>
<!-- Node18&#45;&gt;Node5 -->
<g id="edge30" class="edge">
<title>Node18&#45;&gt;Node5</title>
<path fill="none" stroke="#63b8ff" d="M1693.47,-315.67C1746.94,-312.32 1865.07,-295.91 1899.79,-217 1905.16,-204.8 1908.15,-197.38 1899.79,-187 1852.71,-128.54 1805.9,-175.02 1734.79,-151 1733.39,-150.53 1731.98,-150.01 1730.56,-149.46"/>
<polygon fill="#63b8ff" stroke="#63b8ff" points="1731.91,-146.23 1721.34,-145.52 1729.16,-152.67 1731.91,-146.23"/>
</g>
<!-- Node18&#45;&gt;Node13 -->
<g id="edge24" class="edge">
<title>Node18&#45;&gt;Node13</title>
<path fill="none" stroke="#63b8ff" d="M1693.49,-316.43C1855.05,-315.7 2694.79,-306.86 2694.79,-203 2694.79,-203 2694.79,-203 2694.79,-135 2694.79,-31.27 1910.27,-17.88 1667.51,-16.22"/>
<polygon fill="#63b8ff" stroke="#63b8ff" points="1667.41,-12.71 1657.39,-16.15 1667.36,-19.71 1667.41,-12.71"/>
</g>
<!-- Node18&#45;&gt;Node15 -->
<g id="edge36" class="edge">
<title>Node18&#45;&gt;Node15</title>
<path fill="none" stroke="#63b8ff" d="M1640,-316.01C1434.85,-311.99 117.51,-281.15 6.79,-151 -1.85,-140.84 -2.48,-130.59 6.79,-121 51.42,-74.82 1041.88,-75.56 1264.59,-76.31"/>
<polygon fill="#63b8ff" stroke="#63b8ff" points="1264.6,-79.81 1274.61,-76.34 1264.62,-72.81 1264.6,-79.81"/>
</g>
<!-- Node18&#45;&gt;Node16 -->
<g id="edge21" class="edge">
<title>Node18&#45;&gt;Node16</title>
<path fill="none" stroke="#63b8ff" d="M1693.33,-316.47C1824.38,-316.15 2403.07,-312.42 2577.79,-272 2651.26,-255.01 2732.79,-278.41 2732.79,-203 2732.79,-203 2732.79,-203 2732.79,-135 2732.79,-49.32 2428.17,-24.22 2316.33,-17.9"/>
<polygon fill="#63b8ff" stroke="#63b8ff" points="2316.3,-14.39 2306.13,-17.34 2315.92,-21.38 2316.3,-14.39"/>
</g>
<!-- Node19 -->
<g id="node19" class="node">
<title>Node19</title>
<g id="a_node19"><a xlink:title=" ">
<polygon fill="#e0e0e0" stroke="#999999" points="1181.29,-272 1122.29,-272 1122.29,-253 1181.29,-253 1181.29,-272"/>
<text text-anchor="middle" x="1151.79" y="-260" font-family="Helvetica,sans-Serif" font-size="10.00">functional</text>
</a>
</g>
</g>
<!-- Node18&#45;&gt;Node19 -->
<g id="edge20" class="edge">
<title>Node18&#45;&gt;Node19</title>
<path fill="none" stroke="#63b8ff" d="M1640.07,-315.14C1568.85,-311.28 1368.4,-298.84 1191.53,-271.91"/>
<polygon fill="#63b8ff" stroke="#63b8ff" points="1191.95,-268.44 1181.53,-270.37 1190.88,-275.35 1191.95,-268.44"/>
</g>
<!-- Node20 -->
<g id="node20" class="node">
<title>Node20</title>
<g id="a_node20"><a xlink:title=" ">
<polygon fill="#e0e0e0" stroke="#999999" points="1271.79,-272 1199.79,-272 1199.79,-253 1271.79,-253 1271.79,-272"/>
<text text-anchor="middle" x="1235.79" y="-260" font-family="Helvetica,sans-Serif" font-size="10.00">GLES2/gl2.h</text>
</a>
</g>
</g>
<!-- Node18&#45;&gt;Node20 -->
<g id="edge22" class="edge">
<title>Node18&#45;&gt;Node20</title>
<path fill="none" stroke="#63b8ff" d="M1640.03,-314.08C1578.62,-308.4 1422.71,-293.15 1282.19,-272.12"/>
<polygon fill="#63b8ff" stroke="#63b8ff" points="1282.51,-268.62 1272.1,-270.59 1281.47,-275.55 1282.51,-268.62"/>
</g>
<!-- Node21 -->
<g id="node21" class="node">
<title>Node21</title>
<g id="a_node21"><a xlink:title=" ">
<polygon fill="#e0e0e0" stroke="#999999" points="1415.29,-272 1290.29,-272 1290.29,-253 1415.29,-253 1415.29,-272"/>
<text text-anchor="middle" x="1352.79" y="-260" font-family="Helvetica,sans-Serif" font-size="10.00">flutter/encodable_value.h</text>
</a>
</g>
</g>
<!-- Node18&#45;&gt;Node21 -->
<g id="edge23" class="edge">
<title>Node18&#45;&gt;Node21</title>
<path fill="none" stroke="#63b8ff" d="M1640.29,-312.03C1590.57,-303.64 1482.16,-285.34 1413.59,-273.76"/>
<polygon fill="#63b8ff" stroke="#63b8ff" points="1413.8,-270.25 1403.36,-272.04 1412.64,-277.15 1413.8,-270.25"/>
</g>
<!-- Node22 -->
<g id="node22" class="node">
<title>Node22</title>
<g id="a_node22"><a xlink:title=" ">
<polygon fill="#e0e0e0" stroke="#999999" points="1495.79,-272 1433.79,-272 1433.79,-253 1495.79,-253 1495.79,-272"/>
<text text-anchor="middle" x="1464.79" y="-260" font-family="Helvetica,sans-Serif" font-size="10.00">filesystem</text>
</a>
</g>
</g>
<!-- Node18&#45;&gt;Node22 -->
<g id="edge25" class="edge">
<title>Node18&#45;&gt;Node22</title>
<path fill="none" stroke="#63b8ff" d="M1639.97,-309.46C1605.63,-300.45 1545.82,-284.76 1505.77,-274.25"/>
<polygon fill="#63b8ff" stroke="#63b8ff" points="1506.6,-270.85 1496.04,-271.7 1504.82,-277.62 1506.6,-270.85"/>
</g>
<!-- Node23 -->
<g id="node23" class="node">
<title>Node23</title>
<g id="a_node23"><a xlink:title=" ">
<polygon fill="#e0e0e0" stroke="#999999" points="1557.79,-272 1513.79,-272 1513.79,-253 1557.79,-253 1557.79,-272"/>
<text text-anchor="middle" x="1535.79" y="-260" font-family="Helvetica,sans-Serif" font-size="10.00">mutex</text>
</a>
</g>
</g>
<!-- Node18&#45;&gt;Node23 -->
<g id="edge28" class="edge">
<title>Node18&#45;&gt;Node23</title>
<path fill="none" stroke="#63b8ff" d="M1645.74,-307.98C1624.38,-299.34 1591.08,-285.87 1566.72,-276.02"/>
<polygon fill="#63b8ff" stroke="#63b8ff" points="1567.8,-272.68 1557.22,-272.17 1565.18,-279.17 1567.8,-272.68"/>
</g>
<!-- Node24 -->
<g id="node24" class="node">
<title>Node24</title>
<g id="a_node24"><a xlink:title=" ">
<polygon fill="#e0e0e0" stroke="#999999" points="1619.29,-272 1576.29,-272 1576.29,-253 1619.29,-253 1619.29,-272"/>
<text text-anchor="middle" x="1597.79" y="-260" font-family="Helvetica,sans-Serif" font-size="10.00">queue</text>
</a>
</g>
</g>
<!-- Node18&#45;&gt;Node24 -->
<g id="edge29" class="edge">
<title>Node18&#45;&gt;Node24</title>
<path fill="none" stroke="#63b8ff" d="M1655.7,-307.98C1645.3,-300 1629.53,-287.88 1617.07,-278.31"/>
<polygon fill="#63b8ff" stroke="#63b8ff" points="1619.14,-275.49 1609.08,-272.17 1614.88,-281.04 1619.14,-275.49"/>
</g>
<!-- Node25 -->
<g id="node25" class="node">
<title>Node25</title>
<g id="a_node25"><a xlink:title=" ">
<polygon fill="#e0e0e0" stroke="#999999" points="1787.79,-145.5 1743.79,-145.5 1743.79,-126.5 1787.79,-126.5 1787.79,-145.5"/>
<text text-anchor="middle" x="1765.79" y="-133.5" font-family="Helvetica,sans-Serif" font-size="10.00">vector</text>
</a>
</g>
</g>
<!-- Node18&#45;&gt;Node25 -->
<g id="edge31" class="edge">
<title>Node18&#45;&gt;Node25</title>
<path fill="none" stroke="#63b8ff" d="M1693.34,-316.86C1735.61,-316.21 1819.33,-309.76 1876.79,-272 1901.83,-255.54 1906.69,-245.55 1915.79,-217 1919.84,-204.3 1923.59,-197.82 1915.79,-187 1901.83,-167.63 1837.58,-151.5 1797.83,-143.15"/>
<polygon fill="#63b8ff" stroke="#63b8ff" points="1798.32,-139.67 1787.82,-141.1 1796.91,-146.53 1798.32,-139.67"/>
</g>
<!-- Node26 -->
<g id="node26" class="node">
<title>Node26</title>
<g id="a_node26"><a xlink:href="backend_8h.html" target="_top" xlink:title=" ">
<polygon fill="white" stroke="#666666" points="2666.29,-145.5 2565.29,-145.5 2565.29,-126.5 2666.29,-126.5 2666.29,-145.5"/>
<text text-anchor="middle" x="2615.79" y="-133.5" font-family="Helvetica,sans-Serif" font-size="10.00">backend/backend.h</text>
</a>
</g>
</g>
<!-- Node18&#45;&gt;Node26 -->
<g id="edge32" class="edge">
<title>Node18&#45;&gt;Node26</title>
<path fill="none" stroke="#63b8ff" d="M1693.33,-311.15C1739.18,-302.99 1835.32,-286.81 1916.79,-272 2197.74,-220.93 2268.58,-210.87 2547.79,-151 2552.43,-150 2557.27,-148.92 2562.15,-147.82"/>
<polygon fill="#63b8ff" stroke="#63b8ff" points="2563.17,-151.18 2572.14,-145.54 2561.61,-144.35 2563.17,-151.18"/>
</g>
<!-- Node27 -->
<g id="node27" class="node">
<title>Node27</title>
<g id="a_node27"><a xlink:href="logging_8h.html" target="_top" xlink:title=" ">
<polygon fill="white" stroke="#666666" points="982.79,-272 926.79,-272 926.79,-253 982.79,-253 982.79,-272"/>
<text text-anchor="middle" x="954.79" y="-260" font-family="Helvetica,sans-Serif" font-size="10.00">logging.h</text>
</a>
</g>
</g>
<!-- Node18&#45;&gt;Node27 -->
<g id="edge37" class="edge">
<title>Node18&#45;&gt;Node27</title>
<path fill="none" stroke="#63b8ff" d="M1640.18,-314.52C1531.52,-306.43 1121.21,-275.89 993.19,-266.36"/>
<polygon fill="#63b8ff" stroke="#63b8ff" points="993.3,-262.86 983.07,-265.61 992.78,-269.84 993.3,-262.86"/>
</g>
<!-- Node35 -->
<g id="node35" class="node">
<title>Node35</title>
<g id="a_node35"><a xlink:href="platform__channel_8h.html" target="_top" xlink:title=" ">
<polygon fill="white" stroke="#666666" points="1890.29,-211.5 1791.29,-211.5 1791.29,-192.5 1890.29,-192.5 1890.29,-211.5"/>
<text text-anchor="middle" x="1840.79" y="-199.5" font-family="Helvetica,sans-Serif" font-size="10.00">platform_channel.h</text>
</a>
</g>
</g>
<!-- Node18&#45;&gt;Node35 -->
<g id="edge46" class="edge">
<title>Node18&#45;&gt;Node35</title>
<path fill="none" stroke="#63b8ff" d="M1693.52,-316.26C1727.7,-314.48 1786.53,-306.23 1820.79,-272 1834.14,-258.66 1838.69,-236.99 1840.19,-221.5"/>
<polygon fill="#63b8ff" stroke="#63b8ff" points="1843.68,-221.71 1840.82,-211.51 1836.69,-221.27 1843.68,-221.71"/>
</g>
<!-- Node36 -->
<g id="node36" class="node">
<title>Node36</title>
<g id="a_node36"><a xlink:href="key__event_8h.html" target="_top" xlink:title=" ">
<polygon fill="white" stroke="#666666" points="1500.79,-217 1398.79,-217 1398.79,-187 1500.79,-187 1500.79,-217"/>
<text text-anchor="start" x="1406.79" y="-205" font-family="Helvetica,sans-Serif" font-size="10.00">static_plugins/key</text>
<text text-anchor="middle" x="1449.79" y="-194" font-family="Helvetica,sans-Serif" font-size="10.00">_event/key_event.h</text>
</a>
</g>
</g>
<!-- Node18&#45;&gt;Node36 -->
<g id="edge50" class="edge">
<title>Node18&#45;&gt;Node36</title>
<path fill="none" stroke="#63b8ff" d="M1663.78,-307.66C1658.62,-293.88 1646.78,-267.35 1627.79,-253 1594.08,-227.53 1547.97,-215.04 1511.14,-208.91"/>
<polygon fill="#63b8ff" stroke="#63b8ff" points="1511.43,-205.41 1501.01,-207.34 1510.36,-212.33 1511.43,-205.41"/>
</g>
<!-- Node39 -->
<g id="node39" class="node">
<title>Node39</title>
<g id="a_node39"><a xlink:href="flutter__view_8h.html" target="_top" xlink:title=" ">
<polygon fill="white" stroke="#666666" points="1811.79,-272 1713.79,-272 1713.79,-253 1811.79,-253 1811.79,-272"/>
<text text-anchor="middle" x="1762.79" y="-260" font-family="Helvetica,sans-Serif" font-size="10.00">view/flutter_view.h</text>
</a>
</g>
</g>
<!-- Node18&#45;&gt;Node39 -->
<g id="edge63" class="edge">
<title>Node18&#45;&gt;Node39</title>
<path fill="none" stroke="#63b8ff" d="M1682.21,-307.98C1697.24,-299.69 1720.33,-286.94 1737.95,-277.22"/>
<polygon fill="#63b8ff" stroke="#63b8ff" points="1740.02,-280.07 1747.08,-272.17 1736.64,-273.94 1740.02,-280.07"/>
</g>
<!-- Node26&#45;&gt;Node13 -->
<g id="edge33" class="edge">
<title>Node26&#45;&gt;Node13</title>
<path fill="none" stroke="#63b8ff" d="M2583.17,-126.5C2574.63,-124.48 2565.4,-122.49 2556.79,-121 2226.79,-64.03 1827.33,-32.04 1667.69,-20.73"/>
<polygon fill="#63b8ff" stroke="#63b8ff" points="1667.75,-17.23 1657.53,-20.01 1667.26,-24.21 1667.75,-17.23"/>
</g>
<!-- Node26&#45;&gt;Node15 -->
<g id="edge34" class="edge">
<title>Node26&#45;&gt;Node15</title>
<path fill="none" stroke="#63b8ff" d="M2584.77,-126.43C2575.81,-124.28 2565.97,-122.24 2556.79,-121 2316.94,-88.59 1546.2,-78.86 1353.02,-76.91"/>
<polygon fill="#63b8ff" stroke="#63b8ff" points="1352.98,-73.41 1342.95,-76.81 1352.91,-80.41 1352.98,-73.41"/>
</g>
<!-- Node26&#45;&gt;Node18 -->
<g id="edge35" class="edge">
<title>Node26&#45;&gt;Node18</title>
<path fill="none" stroke="#63b8ff" d="M2589.67,-145.54C2581.99,-147.41 2573.61,-149.32 2565.79,-151 2286.58,-210.87 2215.74,-220.93 1934.79,-272 1852.69,-286.92 1755.7,-303.24 1703.72,-311.34"/>
<polygon fill="#63b8ff" stroke="#63b8ff" points="1702.99,-307.91 1693.64,-312.89 1704.05,-314.83 1702.99,-307.91"/>
</g>
<!-- Node27&#45;&gt;Node15 -->
<g id="edge45" class="edge">
<title>Node27&#45;&gt;Node15</title>
<path fill="none" stroke="#63b8ff" d="M926.4,-258.27C865.82,-251.11 728.27,-233.21 714.79,-217 706.26,-206.75 707.47,-198.15 714.79,-187 736.85,-153.38 763.28,-171.63 797.79,-151 816.26,-139.96 815.81,-129 835.79,-121 912.97,-90.08 1161.96,-80.26 1264.27,-77.49"/>
<polygon fill="#63b8ff" stroke="#63b8ff" points="1264.66,-80.98 1274.56,-77.22 1264.48,-73.98 1264.66,-80.98"/>
</g>
<!-- Node28 -->
<g id="node28" class="node">
<title>Node28</title>
<g id="a_node28"><a xlink:title=" ">
<polygon fill="#e0e0e0" stroke="#999999" points="775.79,-211.5 723.79,-211.5 723.79,-192.5 775.79,-192.5 775.79,-211.5"/>
<text text-anchor="middle" x="749.79" y="-199.5" font-family="Helvetica,sans-Serif" font-size="10.00">sstream</text>
</a>
</g>
</g>
<!-- Node27&#45;&gt;Node28 -->
<g id="edge38" class="edge">
<title>Node27&#45;&gt;Node28</title>
<path fill="none" stroke="#63b8ff" d="M926.5,-255.23C892.51,-247.44 833.9,-233.18 784.79,-217 783.12,-216.45 781.42,-215.86 779.71,-215.25"/>
<polygon fill="#63b8ff" stroke="#63b8ff" points="780.58,-211.84 769.99,-211.58 778.11,-218.39 780.58,-211.84"/>
</g>
<!-- Node29 -->
<g id="node29" class="node">
<title>Node29</title>
<g id="a_node29"><a xlink:title=" ">
<polygon fill="#e0e0e0" stroke="#999999" points="881.79,-211.5 793.79,-211.5 793.79,-192.5 881.79,-192.5 881.79,-211.5"/>
<text text-anchor="middle" x="837.79" y="-199.5" font-family="Helvetica,sans-Serif" font-size="10.00">spdlog/cfg/env.h</text>
</a>
</g>
</g>
<!-- Node27&#45;&gt;Node29 -->
<g id="edge39" class="edge">
<title>Node27&#45;&gt;Node29</title>
<path fill="none" stroke="#63b8ff" d="M937.78,-252.99C918.37,-243.29 886.4,-227.31 863.85,-216.03"/>
<polygon fill="#63b8ff" stroke="#63b8ff" points="865.33,-212.86 854.82,-211.52 862.2,-219.12 865.33,-212.86"/>
</g>
<!-- Node30 -->
<g id="node30" class="node">
<title>Node30</title>
<g id="a_node30"><a xlink:title=" ">
<polygon fill="#e0e0e0" stroke="#999999" points="1009.79,-217 899.79,-217 899.79,-187 1009.79,-187 1009.79,-217"/>
<text text-anchor="start" x="907.79" y="-205" font-family="Helvetica,sans-Serif" font-size="10.00">spdlog/sinks/callback</text>
<text text-anchor="middle" x="954.79" y="-194" font-family="Helvetica,sans-Serif" font-size="10.00">_sink.h</text>
</a>
</g>
</g>
<!-- Node27&#45;&gt;Node30 -->
<g id="edge40" class="edge">
<title>Node27&#45;&gt;Node30</title>
<path fill="none" stroke="#63b8ff" d="M954.79,-252.87C954.79,-246.11 954.79,-236.35 954.79,-227.26"/>
<polygon fill="#63b8ff" stroke="#63b8ff" points="958.29,-227.11 954.79,-217.11 951.29,-227.11 958.29,-227.11"/>
</g>
<!-- Node31 -->
<g id="node31" class="node">
<title>Node31</title>
<g id="a_node31"><a xlink:title=" ">
<polygon fill="#e0e0e0" stroke="#999999" points="1141.79,-217 1027.79,-217 1027.79,-187 1141.79,-187 1141.79,-217"/>
<text text-anchor="start" x="1035.79" y="-205" font-family="Helvetica,sans-Serif" font-size="10.00">spdlog/sinks/ringbuffer</text>
<text text-anchor="middle" x="1084.79" y="-194" font-family="Helvetica,sans-Serif" font-size="10.00">_sink.h</text>
</a>
</g>
</g>
<!-- Node27&#45;&gt;Node31 -->
<g id="edge41" class="edge">
<title>Node27&#45;&gt;Node31</title>
<path fill="none" stroke="#63b8ff" d="M973.69,-252.99C992.07,-244.72 1020.59,-231.89 1044.13,-221.3"/>
<polygon fill="#63b8ff" stroke="#63b8ff" points="1045.85,-224.36 1053.54,-217.06 1042.98,-217.98 1045.85,-224.36"/>
</g>
<!-- Node32 -->
<g id="node32" class="node">
<title>Node32</title>
<g id="a_node32"><a xlink:title=" ">
<polygon fill="#e0e0e0" stroke="#999999" points="1261.29,-217 1160.29,-217 1160.29,-187 1261.29,-187 1261.29,-217"/>
<text text-anchor="start" x="1168.29" y="-205" font-family="Helvetica,sans-Serif" font-size="10.00">spdlog/sinks/stdout</text>
<text text-anchor="middle" x="1210.79" y="-194" font-family="Helvetica,sans-Serif" font-size="10.00">_color_sinks.h</text>
</a>
</g>
</g>
<!-- Node27&#45;&gt;Node32 -->
<g id="edge42" class="edge">
<title>Node27&#45;&gt;Node32</title>
<path fill="none" stroke="#63b8ff" d="M983.04,-255.14C1019.28,-246.97 1084.35,-232.26 1149.95,-217.18"/>
<polygon fill="#63b8ff" stroke="#63b8ff" points="1151.09,-220.51 1160.06,-214.86 1149.52,-213.69 1151.09,-220.51"/>
</g>
<!-- Node33 -->
<g id="node33" class="node">
<title>Node33</title>
<g id="a_node33"><a xlink:title=" ">
<polygon fill="#e0e0e0" stroke="#999999" points="1380.29,-217 1279.29,-217 1279.29,-187 1380.29,-187 1380.29,-217"/>
<text text-anchor="start" x="1287.29" y="-205" font-family="Helvetica,sans-Serif" font-size="10.00">spdlog/sinks/stdout</text>
<text text-anchor="middle" x="1329.79" y="-194" font-family="Helvetica,sans-Serif" font-size="10.00">_sinks.h</text>
</a>
</g>
</g>
<!-- Node27&#45;&gt;Node33 -->
<g id="edge43" class="edge">
<title>Node27&#45;&gt;Node33</title>
<path fill="none" stroke="#63b8ff" d="M983.16,-258.35C1036.91,-252.2 1157.4,-237.53 1269.04,-217.03"/>
<polygon fill="#63b8ff" stroke="#63b8ff" points="1269.92,-220.42 1279.12,-215.16 1268.65,-213.54 1269.92,-220.42"/>
</g>
<!-- Node34 -->
<g id="node34" class="node">
<title>Node34</title>
<g id="a_node34"><a xlink:title=" ">
<polygon fill="#e0e0e0" stroke="#999999" points="667.29,-211.5 582.29,-211.5 582.29,-192.5 667.29,-192.5 667.29,-211.5"/>
<text text-anchor="middle" x="624.79" y="-199.5" font-family="Helvetica,sans-Serif" font-size="10.00">spdlog/spdlog.h</text>
</a>
</g>
</g>
<!-- Node27&#45;&gt;Node34 -->
<g id="edge44" class="edge">
<title>Node27&#45;&gt;Node34</title>
<path fill="none" stroke="#63b8ff" d="M926.75,-257.68C877.14,-250.75 770.72,-235.14 681.79,-217 677.11,-216.04 672.23,-214.97 667.38,-213.85"/>
<polygon fill="#63b8ff" stroke="#63b8ff" points="668.08,-210.42 657.54,-211.52 666.46,-217.23 668.08,-210.42"/>
</g>
<!-- Node35&#45;&gt;Node3 -->
<g id="edge47" class="edge">
<title>Node35&#45;&gt;Node3</title>
<path fill="none" stroke="#63b8ff" d="M1806.02,-192.46C1772.18,-183.69 1719.6,-168.82 1675.79,-151 1675.07,-150.71 1674.35,-150.41 1673.63,-150.09"/>
<polygon fill="#63b8ff" stroke="#63b8ff" points="1674.8,-146.77 1664.26,-145.64 1671.79,-153.1 1674.8,-146.77"/>
</g>
<!-- Node35&#45;&gt;Node5 -->
<g id="edge48" class="edge">
<title>Node35&#45;&gt;Node5</title>
<path fill="none" stroke="#63b8ff" d="M1822.45,-192.37C1799.33,-181.49 1759.38,-162.69 1732.52,-150.05"/>
<polygon fill="#63b8ff" stroke="#63b8ff" points="1733.81,-146.79 1723.27,-145.7 1730.83,-153.12 1733.81,-146.79"/>
</g>
<!-- Node35&#45;&gt;Node13 -->
<g id="edge49" class="edge">
<title>Node35&#45;&gt;Node13</title>
<path fill="none" stroke="#63b8ff" d="M1837.99,-192.5C1832.4,-176.66 1818.52,-142.31 1796.79,-121 1754.62,-79.64 1692.85,-50.61 1649.13,-33.71"/>
<polygon fill="#63b8ff" stroke="#63b8ff" points="1650.13,-30.34 1639.54,-30.08 1647.65,-36.89 1650.13,-30.34"/>
</g>
<!-- Node36&#45;&gt;Node3 -->
<g id="edge51" class="edge">
<title>Node36&#45;&gt;Node3</title>
<path fill="none" stroke="#63b8ff" d="M1501.09,-188.89C1535.76,-180.03 1582.23,-166.83 1621.79,-151 1622.65,-150.66 1623.51,-150.29 1624.38,-149.92"/>
<polygon fill="#63b8ff" stroke="#63b8ff" points="1626.09,-152.98 1633.61,-145.53 1623.08,-146.66 1626.09,-152.98"/>
</g>
<!-- Node36&#45;&gt;Node4 -->
<g id="edge52" class="edge">
<title>Node36&#45;&gt;Node4</title>
<path fill="none" stroke="#63b8ff" d="M1501.06,-194.37C1568.87,-185.43 1692.04,-168.58 1796.79,-151 1808.8,-148.98 1821.87,-146.55 1833.59,-144.29"/>
<polygon fill="#63b8ff" stroke="#63b8ff" points="1834.34,-147.7 1843.49,-142.35 1833,-140.84 1834.34,-147.7"/>
</g>
<!-- Node36&#45;&gt;Node5 -->
<g id="edge53" class="edge">
<title>Node36&#45;&gt;Node5</title>
<path fill="none" stroke="#63b8ff" d="M1500.99,-193.17C1547.41,-185.25 1617.32,-171.27 1675.79,-151 1677.01,-150.58 1678.24,-150.12 1679.48,-149.63"/>
<polygon fill="#63b8ff" stroke="#63b8ff" points="1681.06,-152.76 1688.81,-145.53 1678.25,-146.35 1681.06,-152.76"/>
</g>
<!-- Node36&#45;&gt;Node6 -->
<g id="edge55" class="edge">
<title>Node36&#45;&gt;Node6</title>
<path fill="none" stroke="#63b8ff" d="M1398.63,-188.73C1395.31,-188.1 1392.01,-187.51 1388.79,-187 1213.39,-159.07 1166.86,-174.33 990.79,-151 982.64,-149.92 974.05,-148.61 965.65,-147.22"/>
<polygon fill="#63b8ff" stroke="#63b8ff" points="965.98,-143.73 955.54,-145.51 964.81,-150.63 965.98,-143.73"/>
</g>
<!-- Node36&#45;&gt;Node9 -->
<g id="edge57" class="edge">
<title>Node36&#45;&gt;Node9</title>
<path fill="none" stroke="#63b8ff" d="M1474.59,-186.95C1493.71,-176.13 1519.99,-161.24 1538.88,-150.54"/>
<polygon fill="#63b8ff" stroke="#63b8ff" points="1540.77,-153.49 1547.75,-145.52 1537.32,-147.4 1540.77,-153.49"/>
</g>
<!-- Node36&#45;&gt;Node12 -->
<g id="edge58" class="edge">
<title>Node36&#45;&gt;Node12</title>
<path fill="none" stroke="#63b8ff" d="M1438.91,-186.8C1431.5,-177.11 1421.64,-164.24 1413.81,-154.01"/>
<polygon fill="#63b8ff" stroke="#63b8ff" points="1416.42,-151.66 1407.56,-145.84 1410.86,-155.91 1416.42,-151.66"/>
</g>
<!-- Node36&#45;&gt;Node13 -->
<g id="edge59" class="edge">
<title>Node36&#45;&gt;Node13</title>
<path fill="none" stroke="#63b8ff" d="M1458.21,-186.99C1468.2,-170.68 1485.68,-143.15 1502.79,-121 1526.26,-90.61 1556.28,-58.02 1576,-37.34"/>
<polygon fill="#63b8ff" stroke="#63b8ff" points="1578.62,-39.67 1583.02,-30.03 1573.57,-34.82 1578.62,-39.67"/>
</g>
<!-- Node36&#45;&gt;Node14 -->
<g id="edge60" class="edge">
<title>Node36&#45;&gt;Node14</title>
<path fill="none" stroke="#63b8ff" d="M1398.65,-188.64C1395.32,-188.03 1392.01,-187.47 1388.79,-187 1145.09,-151.34 1081.01,-174.02 835.79,-151 822.9,-149.79 809.21,-148.29 795.96,-146.73"/>
<polygon fill="#63b8ff" stroke="#63b8ff" points="796.28,-143.24 785.93,-145.53 795.44,-150.2 796.28,-143.24"/>
</g>
<!-- Node36&#45;&gt;Node15 -->
<g id="edge61" class="edge">
<title>Node36&#45;&gt;Node15</title>
<path fill="none" stroke="#63b8ff" d="M1398.63,-188.76C1395.31,-188.12 1392.01,-187.53 1388.79,-187 1308.35,-173.86 1078.52,-211.39 1023.79,-151 1014.84,-141.12 1015.12,-131.13 1023.79,-121 1054.25,-85.42 1192.35,-78.08 1264.53,-76.7"/>
<polygon fill="#63b8ff" stroke="#63b8ff" points="1264.74,-80.2 1274.68,-76.54 1264.63,-73.2 1264.74,-80.2"/>
</g>
<!-- Node37 -->
<g id="node37" class="node">
<title>Node37</title>
<g id="a_node37"><a xlink:title=" ">
<polygon fill="#e0e0e0" stroke="#999999" points="1146.29,-151 1033.29,-151 1033.29,-121 1146.29,-121 1146.29,-151"/>
<text text-anchor="start" x="1041.29" y="-139" font-family="Helvetica,sans-Serif" font-size="10.00">flutter/basic_message</text>
<text text-anchor="middle" x="1089.79" y="-128" font-family="Helvetica,sans-Serif" font-size="10.00">_channel.h</text>
</a>
</g>
</g>
<!-- Node36&#45;&gt;Node37 -->
<g id="edge54" class="edge">
<title>Node36&#45;&gt;Node37</title>
<path fill="none" stroke="#63b8ff" d="M1398.59,-188.96C1395.28,-188.27 1391.99,-187.61 1388.79,-187 1288.57,-167.82 1259.98,-169.93 1156.39,-151.23"/>
<polygon fill="#63b8ff" stroke="#63b8ff" points="1156.94,-147.77 1146.47,-149.42 1155.68,-154.66 1156.94,-147.77"/>
</g>
<!-- Node38 -->
<g id="node38" class="node">
<title>Node38</title>
<g id="a_node38"><a xlink:title=" ">
<polygon fill="#e0e0e0" stroke="#999999" points="1327.29,-151 1164.29,-151 1164.29,-121 1327.29,-121 1327.29,-151"/>
<text text-anchor="start" x="1172.29" y="-139" font-family="Helvetica,sans-Serif" font-size="10.00">flutter/shell/platform</text>
<text text-anchor="middle" x="1245.79" y="-128" font-family="Helvetica,sans-Serif" font-size="10.00">/common/json_message_codec.h</text>
</a>
</g>
</g>
<!-- Node36&#45;&gt;Node38 -->
<g id="edge56" class="edge">
<title>Node36&#45;&gt;Node38</title>
<path fill="none" stroke="#63b8ff" d="M1405.02,-186.95C1374.2,-177.28 1333.06,-164.38 1300.32,-154.11"/>
<polygon fill="#63b8ff" stroke="#63b8ff" points="1301.04,-150.67 1290.45,-151.01 1298.95,-157.35 1301.04,-150.67"/>
</g>
<!-- Node39&#45;&gt;Node3 -->
<g id="edge64" class="edge">
<title>Node39&#45;&gt;Node3</title>
<path fill="none" stroke="#63b8ff" d="M1762.77,-252.69C1762.29,-237.64 1759.33,-206.7 1743.79,-187 1743.18,-186.23 1702.02,-164.71 1674.08,-150.16"/>
<polygon fill="#63b8ff" stroke="#63b8ff" points="1675.68,-147.04 1665.19,-145.53 1672.45,-153.25 1675.68,-147.04"/>
</g>
<!-- Node39&#45;&gt;Node4 -->
<g id="edge65" class="edge">
<title>Node39&#45;&gt;Node4</title>
<path fill="none" stroke="#63b8ff" d="M1812.04,-259.42C1842.66,-255.27 1879.87,-244.41 1899.79,-217 1913.9,-197.58 1898.19,-170.75 1884.72,-153.64"/>
<polygon fill="#63b8ff" stroke="#63b8ff" points="1887.15,-151.09 1878.05,-145.66 1881.78,-155.58 1887.15,-151.09"/>
</g>
<!-- Node39&#45;&gt;Node9 -->
<g id="edge71" class="edge">
<title>Node39&#45;&gt;Node9</title>
<path fill="none" stroke="#63b8ff" d="M1713.61,-254.72C1667.79,-247.44 1603.9,-234.51 1585.79,-217 1569.35,-201.1 1564.44,-174.29 1563.1,-156.13"/>
<polygon fill="#63b8ff" stroke="#63b8ff" points="1566.58,-155.72 1562.64,-145.88 1559.59,-156.03 1566.58,-155.72"/>
</g>
<!-- Node40 -->
<g id="node40" class="node">
<title>Node40</title>
<g id="a_node40"><a xlink:href="configuration_8h.html" target="_top" xlink:title=" ">
<polygon fill="white" stroke="#666666" points="1734.29,-211.5 1595.29,-211.5 1595.29,-192.5 1734.29,-192.5 1734.29,-211.5"/>
<text text-anchor="middle" x="1664.79" y="-199.5" font-family="Helvetica,sans-Serif" font-size="10.00">configuration/configuration.h</text>
</a>
</g>
</g>
<!-- Node39&#45;&gt;Node40 -->
<g id="edge66" class="edge">
<title>Node39&#45;&gt;Node40</title>
<path fill="none" stroke="#63b8ff" d="M1748.33,-252.87C1732.48,-243.41 1706.82,-228.09 1688.11,-216.92"/>
<polygon fill="#63b8ff" stroke="#63b8ff" points="1689.69,-213.79 1679.31,-211.67 1686.1,-219.8 1689.69,-213.79"/>
</g>
<!-- Node41 -->
<g id="node41" class="node">
<title>Node41</title>
<g id="a_node41"><a xlink:href="window_8h.html" target="_top" xlink:title=" ">
<polygon fill="white" stroke="#666666" points="2194.79,-211.5 2098.79,-211.5 2098.79,-192.5 2194.79,-192.5 2194.79,-211.5"/>
<text text-anchor="middle" x="2146.79" y="-199.5" font-family="Helvetica,sans-Serif" font-size="10.00">wayland/window.h</text>
</a>
</g>
</g>
<!-- Node39&#45;&gt;Node41 -->
<g id="edge72" class="edge">
<title>Node39&#45;&gt;Node41</title>
<path fill="none" stroke="#63b8ff" d="M1811.81,-254.03C1882.49,-243.26 2012.8,-223.41 2088.37,-211.9"/>
<polygon fill="#63b8ff" stroke="#63b8ff" points="2089.3,-215.3 2098.66,-210.33 2088.25,-208.38 2089.3,-215.3"/>
</g>
<!-- Node40&#45;&gt;Node5 -->
<g id="edge67" class="edge">
<title>Node40&#45;&gt;Node5</title>
<path fill="none" stroke="#63b8ff" d="M1670.18,-192.37C1676.23,-182.69 1686.2,-166.74 1693.89,-154.44"/>
<polygon fill="#63b8ff" stroke="#63b8ff" points="1696.89,-156.24 1699.22,-145.91 1690.96,-152.53 1696.89,-156.24"/>
</g>
<!-- Node40&#45;&gt;Node9 -->
<g id="edge69" class="edge">
<title>Node40&#45;&gt;Node9</title>
<path fill="none" stroke="#63b8ff" d="M1651.03,-192.37C1634.15,-181.78 1605.3,-163.67 1585.2,-151.06"/>
<polygon fill="#63b8ff" stroke="#63b8ff" points="1586.98,-148.05 1576.65,-145.7 1583.26,-153.98 1586.98,-148.05"/>
</g>
<!-- Node40&#45;&gt;Node12 -->
<g id="edge70" class="edge">
<title>Node40&#45;&gt;Node12</title>
<path fill="none" stroke="#63b8ff" d="M1629.46,-192.44C1582.04,-180.94 1497.77,-160.51 1445.84,-147.92"/>
<polygon fill="#63b8ff" stroke="#63b8ff" points="1446.45,-144.47 1435.91,-145.51 1444.8,-151.27 1446.45,-144.47"/>
</g>
<!-- Node40&#45;&gt;Node25 -->
<g id="edge68" class="edge">
<title>Node40&#45;&gt;Node25</title>
<path fill="none" stroke="#63b8ff" d="M1678.41,-192.37C1695.13,-181.78 1723.7,-163.67 1743.6,-151.06"/>
<polygon fill="#63b8ff" stroke="#63b8ff" points="1745.49,-154.01 1752.06,-145.7 1741.74,-148.1 1745.49,-154.01"/>
</g>
<!-- Node41&#45;&gt;Node4 -->
<g id="edge73" class="edge">
<title>Node41&#45;&gt;Node4</title>
<path fill="none" stroke="#63b8ff" d="M2109.44,-192.44C2101.32,-190.62 2092.77,-188.72 2084.79,-187 2007.17,-170.25 1986.32,-172.16 1909.79,-151 1907.31,-150.31 1904.76,-149.55 1902.2,-148.75"/>
<polygon fill="#63b8ff" stroke="#63b8ff" points="1903.06,-145.35 1892.47,-145.53 1900.86,-151.99 1903.06,-145.35"/>
</g>
<!-- Node41&#45;&gt;Node5 -->
<g id="edge74" class="edge">
<title>Node41&#45;&gt;Node5</title>
<path fill="none" stroke="#63b8ff" d="M2098.54,-197.07C2004.98,-189.12 1802.16,-170.28 1734.79,-151 1733.16,-150.53 1731.5,-149.99 1729.85,-149.39"/>
<polygon fill="#63b8ff" stroke="#63b8ff" points="1731.2,-146.16 1720.62,-145.52 1728.49,-152.61 1731.2,-146.16"/>
</g>
<!-- Node41&#45;&gt;Node15 -->
<g id="edge77" class="edge">
<title>Node41&#45;&gt;Node15</title>
<path fill="none" stroke="#63b8ff" d="M2110.35,-192.44C2054,-179.13 1951.35,-154.64 1943.79,-151 1924.08,-141.52 1925.22,-128.81 1904.79,-121 1804,-82.48 1473.62,-77.18 1353.21,-76.54"/>
<polygon fill="#63b8ff" stroke="#63b8ff" points="1352.91,-73.04 1342.89,-76.5 1352.87,-80.04 1352.91,-73.04"/>
</g>
<!-- Node41&#45;&gt;Node26 -->
<g id="edge78" class="edge">
<title>Node41&#45;&gt;Node26</title>
<path fill="none" stroke="#63b8ff" d="M2181.08,-192.49C2190.06,-190.48 2199.75,-188.48 2208.79,-187 2362.23,-161.83 2403.49,-177 2556.79,-151 2562.17,-150.09 2567.8,-148.97 2573.34,-147.77"/>
<polygon fill="#63b8ff" stroke="#63b8ff" points="2574.2,-151.16 2583.18,-145.54 2572.65,-144.34 2574.2,-151.16"/>
</g>
<!-- Node42 -->
<g id="node42" class="node">
<title>Node42</title>
<g id="a_node42"><a xlink:title=" ">
<polygon fill="#e0e0e0" stroke="#999999" points="2547.29,-145.5 2498.29,-145.5 2498.29,-126.5 2547.29,-126.5 2547.29,-145.5"/>
<text text-anchor="middle" x="2522.79" y="-133.5" font-family="Helvetica,sans-Serif" font-size="10.00">cassert</text>
</a>
</g>
</g>
<!-- Node41&#45;&gt;Node42 -->
<g id="edge75" class="edge">
<title>Node41&#45;&gt;Node42</title>
<path fill="none" stroke="#63b8ff" d="M2181.76,-192.5C2190.55,-190.53 2199.99,-188.56 2208.79,-187 2332.34,-165.16 2367.51,-183.16 2488.79,-151 2490.73,-150.48 2492.71,-149.88 2494.69,-149.23"/>
<polygon fill="#63b8ff" stroke="#63b8ff" points="2496.24,-152.38 2504.39,-145.61 2493.8,-145.83 2496.24,-152.38"/>
</g>
<!-- Node43 -->
<g id="node43" class="node">
<title>Node43</title>
<g id="a_node43"><a xlink:title=" ">
<polygon fill="#e0e0e0" stroke="#999999" points="2077.29,-145.5 1952.29,-145.5 1952.29,-126.5 2077.29,-126.5 2077.29,-145.5"/>
<text text-anchor="middle" x="2014.79" y="-133.5" font-family="Helvetica,sans-Serif" font-size="10.00">agl&#45;shell&#45;client&#45;protocol.h</text>
</a>
</g>
</g>
<!-- Node41&#45;&gt;Node43 -->
<g id="edge76" class="edge">
<title>Node41&#45;&gt;Node43</title>
<path fill="none" stroke="#63b8ff" d="M2128.99,-192.37C2106.65,-181.54 2068.11,-162.85 2042.05,-150.22"/>
<polygon fill="#63b8ff" stroke="#63b8ff" points="2043.26,-146.91 2032.73,-145.7 2040.2,-153.21 2043.26,-146.91"/>
</g>
<!-- Node44 -->
<g id="node44" class="node">
<title>Node44</title>
<g id="a_node44"><a xlink:title=" ">
<polygon fill="#e0e0e0" stroke="#999999" points="2197.79,-151 2095.79,-151 2095.79,-121 2197.79,-121 2197.79,-151"/>
<text text-anchor="start" x="2103.79" y="-139" font-family="Helvetica,sans-Serif" font-size="10.00">ivi&#45;application&#45;client</text>
<text text-anchor="middle" x="2146.79" y="-128" font-family="Helvetica,sans-Serif" font-size="10.00">&#45;protocol.h</text>
</a>
</g>
</g>
<!-- Node41&#45;&gt;Node44 -->
<g id="edge79" class="edge">
<title>Node41&#45;&gt;Node44</title>
<path fill="none" stroke="#63b8ff" d="M2146.79,-192.37C2146.79,-184.49 2146.79,-172.45 2146.79,-161.6"/>
<polygon fill="#63b8ff" stroke="#63b8ff" points="2150.29,-161.36 2146.79,-151.36 2143.29,-161.36 2150.29,-161.36"/>
</g>
<!-- Node45 -->
<g id="node45" class="node">
<title>Node45</title>
<g id="a_node45"><a xlink:title=" ">
<polygon fill="#e0e0e0" stroke="#999999" points="2333.29,-145.5 2216.29,-145.5 2216.29,-126.5 2333.29,-126.5 2333.29,-145.5"/>
<text text-anchor="middle" x="2274.79" y="-133.5" font-family="Helvetica,sans-Serif" font-size="10.00">ivi&#45;wm&#45;client&#45;protocol.h</text>
</a>
</g>
</g>
<!-- Node41&#45;&gt;Node45 -->
<g id="edge80" class="edge">
<title>Node41&#45;&gt;Node45</title>
<path fill="none" stroke="#63b8ff" d="M2164.05,-192.37C2185.71,-181.54 2223.08,-162.85 2248.36,-150.22"/>
<polygon fill="#63b8ff" stroke="#63b8ff" points="2250.01,-153.3 2257.39,-145.7 2246.88,-147.04 2250.01,-153.3"/>
</g>
<!-- Node46 -->
<g id="node46" class="node">
<title>Node46</title>
<g id="a_node46"><a xlink:title=" ">
<polygon fill="#e0e0e0" stroke="#999999" points="2479.79,-145.5 2351.79,-145.5 2351.79,-126.5 2479.79,-126.5 2479.79,-145.5"/>
<text text-anchor="middle" x="2415.79" y="-133.5" font-family="Helvetica,sans-Serif" font-size="10.00">xdg&#45;shell&#45;client&#45;protocol.h</text>
</a>
</g>
</g>
<!-- Node41&#45;&gt;Node46 -->
<g id="edge81" class="edge">
<title>Node41&#45;&gt;Node46</title>
<path fill="none" stroke="#63b8ff" d="M2182.79,-192.44C2231.21,-180.92 2317.32,-160.43 2370.21,-147.84"/>
<polygon fill="#63b8ff" stroke="#63b8ff" points="2371.08,-151.23 2380,-145.51 2369.46,-144.42 2371.08,-151.23"/>
</g>
</g>
</svg>
