<?xml version="1.0" encoding="UTF-8" standalone="no"?>
<!DOCTYPE svg PUBLIC "-//W3C//DTD SVG 1.1//EN"
 "http://www.w3.org/Graphics/SVG/1.1/DTD/svg11.dtd">
<!-- Generated by graphviz version 2.43.0 (0)
 -->
<!-- Title: /home/joel.winarske@toyotaconnected.com/development/stargate/ivi&#45;homescreen/shell/static_plugins/text_input/text_input.h Pages: 1 -->
<svg width="1599pt" height="217pt"
 viewBox="0.00 0.00 1599.00 217.00" xmlns="http://www.w3.org/2000/svg" xmlns:xlink="http://www.w3.org/1999/xlink">
<g id="graph0" class="graph" transform="scale(1 1) rotate(0) translate(4 213)">
<title>/home/joel.winarske@toyotaconnected.com/development/stargate/ivi&#45;homescreen/shell/static_plugins/text_input/text_input.h</title>
<polygon fill="white" stroke="transparent" points="-4,4 -4,-213 1595,-213 1595,4 -4,4"/>
<!-- Node1 -->
<g id="node1" class="node">
<title>Node1</title>
<g id="a_node1"><a xlink:title=" ">
<polygon fill="#bfbfbf" stroke="black" points="640,-134.5 640,-208.5 780,-208.5 780,-134.5 640,-134.5"/>
<text text-anchor="start" x="648" y="-196.5" font-family="Helvetica,sans-Serif" font-size="10.00">/home/joel.winarske</text>
<text text-anchor="start" x="648" y="-185.5" font-family="Helvetica,sans-Serif" font-size="10.00">@toyotaconnected.com</text>
<text text-anchor="start" x="648" y="-174.5" font-family="Helvetica,sans-Serif" font-size="10.00">/development/stargate</text>
<text text-anchor="start" x="648" y="-163.5" font-family="Helvetica,sans-Serif" font-size="10.00">/ivi&#45;homescreen/shell</text>
<text text-anchor="start" x="648" y="-152.5" font-family="Helvetica,sans-Serif" font-size="10.00">/static_plugins/text_input</text>
<text text-anchor="middle" x="710" y="-141.5" font-family="Helvetica,sans-Serif" font-size="10.00">/text_input.h</text>
</a>
</g>
</g>
<!-- Node2 -->
<g id="node2" class="node">
<title>Node2</title>
<g id="a_node2"><a xlink:title=" ">
<polygon fill="white" stroke="#bfbfbf" points="0,-73 0,-92 38,-92 38,-73 0,-73"/>
<text text-anchor="middle" x="19" y="-80" font-family="Helvetica,sans-Serif" font-size="10.00">map</text>
</a>
</g>
</g>
<!-- Node1&#45;&gt;Node2 -->
<g id="edge1" class="edge">
<title>Node1&#45;&gt;Node2</title>
<path fill="none" stroke="midnightblue" d="M639.6,-171.2C516.65,-170.59 255.94,-161.12 47,-98 45.53,-97.55 44.04,-97.03 42.56,-96.46"/>
<polygon fill="midnightblue" stroke="midnightblue" points="43.65,-93.1 33.1,-92.09 40.71,-99.46 43.65,-93.1"/>
</g>
<!-- Node3 -->
<g id="node3" class="node">
<title>Node3</title>
<g id="a_node3"><a xlink:title=" ">
<polygon fill="white" stroke="#bfbfbf" points="56,-73 56,-92 114,-92 114,-73 56,-73"/>
<text text-anchor="middle" x="85" y="-80" font-family="Helvetica,sans-Serif" font-size="10.00">memory</text>
</a>
</g>
</g>
<!-- Node1&#45;&gt;Node3 -->
<g id="edge2" class="edge">
<title>Node1&#45;&gt;Node3</title>
<path fill="none" stroke="midnightblue" d="M639.88,-167.31C528.78,-161.05 306.11,-143.53 123,-98 120.17,-97.3 117.27,-96.44 114.39,-95.51"/>
<polygon fill="midnightblue" stroke="midnightblue" points="115.42,-92.16 104.83,-92.1 113.07,-98.75 115.42,-92.16"/>
</g>
<!-- Node4 -->
<g id="node4" class="node">
<title>Node4</title>
<g id="a_node4"><a xlink:title=" ">
<polygon fill="white" stroke="#bfbfbf" points="132,-73 132,-92 176,-92 176,-73 132,-73"/>
<text text-anchor="middle" x="154" y="-80" font-family="Helvetica,sans-Serif" font-size="10.00">string</text>
</a>
</g>
</g>
<!-- Node1&#45;&gt;Node4 -->
<g id="edge3" class="edge">
<title>Node1&#45;&gt;Node4</title>
<path fill="none" stroke="midnightblue" d="M639.81,-167.49C537.77,-161.62 343.39,-144.81 185,-98 183.12,-97.44 181.21,-96.79 179.31,-96.07"/>
<polygon fill="midnightblue" stroke="midnightblue" points="180.62,-92.83 170.05,-92.12 177.87,-99.27 180.62,-92.83"/>
</g>
<!-- Node5 -->
<g id="node5" class="node">
<title>Node5</title>
<g id="a_node5"><a xlink:title=" ">
<polygon fill="white" stroke="#bfbfbf" points="194.5,-73 194.5,-92 341.5,-92 341.5,-73 194.5,-73"/>
<text text-anchor="middle" x="268" y="-80" font-family="Helvetica,sans-Serif" font-size="10.00">flutter/binary_messenger.h</text>
</a>
</g>
</g>
<!-- Node1&#45;&gt;Node5 -->
<g id="edge4" class="edge">
<title>Node1&#45;&gt;Node5</title>
<path fill="none" stroke="midnightblue" d="M639.96,-156.71C551.37,-139.28 400.79,-109.64 321.1,-93.95"/>
<polygon fill="midnightblue" stroke="midnightblue" points="321.77,-90.52 311.28,-92.02 320.42,-97.38 321.77,-90.52"/>
</g>
<!-- Node6 -->
<g id="node6" class="node">
<title>Node6</title>
<g id="a_node6"><a xlink:title=" ">
<polygon fill="white" stroke="#bfbfbf" points="359.5,-73 359.5,-92 498.5,-92 498.5,-73 359.5,-73"/>
<text text-anchor="middle" x="429" y="-80" font-family="Helvetica,sans-Serif" font-size="10.00">flutter/method_channel.h</text>
</a>
</g>
</g>
<!-- Node1&#45;&gt;Node6 -->
<g id="edge5" class="edge">
<title>Node1&#45;&gt;Node6</title>
<path fill="none" stroke="midnightblue" d="M639.82,-148.77C584.77,-131.73 510.32,-108.68 466.21,-95.02"/>
<polygon fill="midnightblue" stroke="midnightblue" points="467.07,-91.62 456.48,-92.01 465,-98.31 467.07,-91.62"/>
</g>
<!-- Node7 -->
<g id="node7" class="node">
<title>Node7</title>
<g id="a_node7"><a xlink:title=" ">
<polygon fill="white" stroke="#bfbfbf" points="516.5,-67.5 516.5,-97.5 635.5,-97.5 635.5,-67.5 516.5,-67.5"/>
<text text-anchor="start" x="524.5" y="-85.5" font-family="Helvetica,sans-Serif" font-size="10.00">flutter/method_result</text>
<text text-anchor="middle" x="576" y="-74.5" font-family="Helvetica,sans-Serif" font-size="10.00">_functions.h</text>
</a>
</g>
</g>
<!-- Node1&#45;&gt;Node7 -->
<g id="edge6" class="edge">
<title>Node1&#45;&gt;Node7</title>
<path fill="none" stroke="midnightblue" d="M654.34,-134.36C637.78,-123.61 620.28,-112.25 606.02,-102.99"/>
<polygon fill="midnightblue" stroke="midnightblue" points="607.9,-100.04 597.6,-97.53 604.09,-105.91 607.9,-100.04"/>
</g>
<!-- Node8 -->
<g id="node8" class="node">
<title>Node8</title>
<g id="a_node8"><a xlink:title=" ">
<polygon fill="white" stroke="#bfbfbf" points="653.5,-73 653.5,-92 766.5,-92 766.5,-73 653.5,-73"/>
<text text-anchor="middle" x="710" y="-80" font-family="Helvetica,sans-Serif" font-size="10.00">flutter/fml/macros.h</text>
</a>
</g>
</g>
<!-- Node1&#45;&gt;Node8 -->
<g id="edge7" class="edge">
<title>Node1&#45;&gt;Node8</title>
<path fill="none" stroke="midnightblue" d="M710,-134.36C710,-123.34 710,-111.67 710,-102.3"/>
<polygon fill="midnightblue" stroke="midnightblue" points="713.5,-102.19 710,-92.19 706.5,-102.19 713.5,-102.19"/>
</g>
<!-- Node9 -->
<g id="node9" class="node">
<title>Node9</title>
<g id="a_node9"><a xlink:title=" ">
<polygon fill="white" stroke="#bfbfbf" points="784.5,-67.5 784.5,-97.5 955.5,-97.5 955.5,-67.5 784.5,-67.5"/>
<text text-anchor="start" x="792.5" y="-85.5" font-family="Helvetica,sans-Serif" font-size="10.00">flutter/shell/platform</text>
<text text-anchor="middle" x="870" y="-74.5" font-family="Helvetica,sans-Serif" font-size="10.00">/common/json_method_codec.h</text>
</a>
</g>
</g>
<!-- Node1&#45;&gt;Node9 -->
<g id="edge8" class="edge">
<title>Node1&#45;&gt;Node9</title>
<path fill="none" stroke="midnightblue" d="M776.46,-134.36C796.6,-123.41 817.92,-111.82 835.11,-102.47"/>
<polygon fill="midnightblue" stroke="midnightblue" points="837.09,-105.38 844.2,-97.53 833.75,-99.23 837.09,-105.38"/>
</g>
<!-- Node10 -->
<g id="node10" class="node">
<title>Node10</title>
<g id="a_node10"><a xlink:title=" ">
<polygon fill="white" stroke="#bfbfbf" points="974,-67.5 974,-97.5 1134,-97.5 1134,-67.5 974,-67.5"/>
<text text-anchor="start" x="982" y="-85.5" font-family="Helvetica,sans-Serif" font-size="10.00">flutter/shell/platform</text>
<text text-anchor="middle" x="1054" y="-74.5" font-family="Helvetica,sans-Serif" font-size="10.00">/common/text_input_model.h</text>
</a>
</g>
</g>
<!-- Node1&#45;&gt;Node10 -->
<g id="edge9" class="edge">
<title>Node1&#45;&gt;Node10</title>
<path fill="none" stroke="midnightblue" d="M780.03,-152.79C841.03,-137.36 928.82,-115.16 988.46,-100.08"/>
<polygon fill="midnightblue" stroke="midnightblue" points="989.68,-103.38 998.52,-97.53 987.97,-96.59 989.68,-103.38"/>
</g>
<!-- Node11 -->
<g id="node11" class="node">
<title>Node11</title>
<g id="a_node11"><a xlink:title=" ">
<polygon fill="white" stroke="#bfbfbf" points="1152,-73 1152,-92 1274,-92 1274,-73 1152,-73"/>
<text text-anchor="middle" x="1213" y="-80" font-family="Helvetica,sans-Serif" font-size="10.00">rapidjson/document.h</text>
</a>
</g>
</g>
<!-- Node1&#45;&gt;Node11 -->
<g id="edge10" class="edge">
<title>Node1&#45;&gt;Node11</title>
<path fill="none" stroke="midnightblue" d="M780.27,-159.58C866.05,-146.06 1015.45,-121.88 1143,-98 1149.56,-96.77 1156.45,-95.42 1163.24,-94.05"/>
<polygon fill="midnightblue" stroke="midnightblue" points="1163.97,-97.47 1173.07,-92.05 1162.58,-90.62 1163.97,-97.47"/>
</g>
<!-- Node12 -->
<g id="node12" class="node">
<title>Node12</title>
<g id="a_node12"><a xlink:title=" ">
<polygon fill="white" stroke="#bfbfbf" points="1291.5,-0.5 1291.5,-30.5 1428.5,-30.5 1428.5,-0.5 1291.5,-0.5"/>
<text text-anchor="start" x="1299.5" y="-18.5" font-family="Helvetica,sans-Serif" font-size="10.00">shell/platform/embedder</text>
<text text-anchor="middle" x="1360" y="-7.5" font-family="Helvetica,sans-Serif" font-size="10.00">/embedder.h</text>
</a>
</g>
</g>
<!-- Node1&#45;&gt;Node12 -->
<g id="edge11" class="edge">
<title>Node1&#45;&gt;Node12</title>
<path fill="none" stroke="midnightblue" d="M780.06,-167.51C913.03,-160.89 1196.44,-141.95 1283,-98 1297.08,-90.85 1324.25,-60.02 1342.26,-38.4"/>
<polygon fill="midnightblue" stroke="midnightblue" points="1345,-40.58 1348.66,-30.63 1339.6,-36.12 1345,-40.58"/>
</g>
<!-- Node13 -->
<g id="node13" class="node">
<title>Node13</title>
<g id="a_node13"><a xlink:title=" ">
<polygon fill="white" stroke="#bfbfbf" points="1330,-73 1330,-92 1480,-92 1480,-73 1330,-73"/>
<text text-anchor="middle" x="1405" y="-80" font-family="Helvetica,sans-Serif" font-size="10.00">xkbcommon/xkbcommon.h</text>
</a>
</g>
</g>
<!-- Node1&#45;&gt;Node13 -->
<g id="edge12" class="edge">
<title>Node1&#45;&gt;Node13</title>
<path fill="none" stroke="midnightblue" d="M780.11,-163.09C893.11,-150.93 1122.43,-125.34 1316,-98 1325.43,-96.67 1335.41,-95.15 1345.14,-93.61"/>
<polygon fill="midnightblue" stroke="midnightblue" points="1345.84,-97.04 1355.16,-92 1344.73,-90.13 1345.84,-97.04"/>
</g>
<!-- Node14 -->
<g id="node14" class="node">
<title>Node14</title>
<g id="a_node14"><a xlink:href="constants_8h.html" target="_top" xlink:title=" ">
<polygon fill="white" stroke="black" points="1498.5,-73 1498.5,-92 1571.5,-92 1571.5,-73 1498.5,-73"/>
<text text-anchor="middle" x="1535" y="-80" font-family="Helvetica,sans-Serif" font-size="10.00">constants.h</text>
</a>
</g>
</g>
<!-- Node1&#45;&gt;Node14 -->
<g id="edge13" class="edge">
<title>Node1&#45;&gt;Node14</title>
<path fill="none" stroke="midnightblue" d="M780.02,-168.96C917.33,-164.84 1231.03,-150.05 1489,-98 1493.16,-97.16 1497.47,-96.09 1501.71,-94.9"/>
<polygon fill="midnightblue" stroke="midnightblue" points="1502.8,-98.23 1511.38,-92 1500.79,-91.52 1502.8,-98.23"/>
</g>
<!-- Node14&#45;&gt;Node12 -->
<g id="edge15" class="edge">
<title>Node14&#45;&gt;Node12</title>
<path fill="none" stroke="midnightblue" d="M1511.76,-72.87C1485.27,-63.03 1441.28,-46.69 1407.46,-34.13"/>
<polygon fill="midnightblue" stroke="midnightblue" points="1408.36,-30.73 1397.77,-30.53 1405.92,-37.29 1408.36,-30.73"/>
</g>
<!-- Node15 -->
<g id="node15" class="node">
<title>Node15</title>
<g id="a_node15"><a xlink:title=" ">
<polygon fill="white" stroke="#bfbfbf" points="1469,-6 1469,-25 1531,-25 1531,-6 1469,-6"/>
<text text-anchor="middle" x="1500" y="-13" font-family="Helvetica,sans-Serif" font-size="10.00">EGL/egl.h</text>
</a>
</g>
</g>
<!-- Node14&#45;&gt;Node15 -->
<g id="edge14" class="edge">
<title>Node14&#45;&gt;Node15</title>
<path fill="none" stroke="midnightblue" d="M1530.28,-72.73C1524.98,-62.89 1516.24,-46.66 1509.51,-34.16"/>
<polygon fill="midnightblue" stroke="midnightblue" points="1512.47,-32.27 1504.65,-25.13 1506.3,-35.59 1512.47,-32.27"/>
</g>
<!-- Node16 -->
<g id="node16" class="node">
<title>Node16</title>
<g id="a_node16"><a xlink:title=" ">
<polygon fill="white" stroke="#bfbfbf" points="1549,-6 1549,-25 1591,-25 1591,-6 1549,-6"/>
<text text-anchor="middle" x="1570" y="-13" font-family="Helvetica,sans-Serif" font-size="10.00">array</text>
</a>
</g>
</g>
<!-- Node14&#45;&gt;Node16 -->
<g id="edge16" class="edge">
<title>Node14&#45;&gt;Node16</title>
<path fill="none" stroke="midnightblue" d="M1539.72,-72.73C1545.02,-62.89 1553.76,-46.66 1560.49,-34.16"/>
<polygon fill="midnightblue" stroke="midnightblue" points="1563.7,-35.59 1565.35,-25.13 1557.53,-32.27 1563.7,-35.59"/>
</g>
</g>
</svg>
