<?xml version="1.0" encoding="UTF-8" standalone="no"?>
<!DOCTYPE svg PUBLIC "-//W3C//DTD SVG 1.1//EN"
 "http://www.w3.org/Graphics/SVG/1.1/DTD/svg11.dtd">
<!-- Generated by graphviz version 5.0.0 (0)
 -->
<!-- Title: /mnt/raid10/stargate/ivi&#45;homescreen/shell/textures/egl/texture_egl.h Pages: 1 -->
<svg width="268pt" height="137pt"
 viewBox="0.00 0.00 267.50 137.00" xmlns="http://www.w3.org/2000/svg" xmlns:xlink="http://www.w3.org/1999/xlink">
<g id="graph0" class="graph" transform="scale(1 1) rotate(0) translate(4 133)">
<title>/mnt/raid10/stargate/ivi&#45;homescreen/shell/textures/egl/texture_egl.h</title>
<!-- Node1 -->
<g id="node1" class="node">
<title>Node1</title>
<g id="a_node1"><a xlink:title=" ">
<polygon fill="#999999" stroke="#666666" points="200,-129 70,-129 70,-88 200,-88 200,-129"/>
<text text-anchor="start" x="78" y="-117" font-family="Helvetica,sans-Serif" font-size="10.00">/mnt/raid10/stargate</text>
<text text-anchor="start" x="78" y="-106" font-family="Helvetica,sans-Serif" font-size="10.00">/ivi&#45;homescreen/shell</text>
<text text-anchor="middle" x="135" y="-95" font-family="Helvetica,sans-Serif" font-size="10.00">/textures/egl/texture_egl.h</text>
</a>
</g>
</g>
<!-- Node2 -->
<g id="node2" class="node">
<title>Node2</title>
<g id="a_node2"><a xlink:href="opengl__texture_8cc.html" target="_top" xlink:title=" ">
<polygon fill="white" stroke="#666666" points="132,-52 0,-52 0,0 132,0 132,-52"/>
<text text-anchor="start" x="8" y="-40" font-family="Helvetica,sans-Serif" font-size="10.00">/mnt/raid10/stargate</text>
<text text-anchor="start" x="8" y="-29" font-family="Helvetica,sans-Serif" font-size="10.00">/ivi&#45;homescreen/shell</text>
<text text-anchor="start" x="8" y="-18" font-family="Helvetica,sans-Serif" font-size="10.00">/static_plugins/opengl</text>
<text text-anchor="middle" x="66" y="-7" font-family="Helvetica,sans-Serif" font-size="10.00">_texture/opengl_texture.cc</text>
</a>
</g>
</g>
<!-- Node1&#45;&gt;Node2 -->
<g id="edge1" class="edge">
<title>Node1&#45;&gt;Node2</title>
<path fill="none" stroke="#63b8ff" d="M111.41,-79.97C103.68,-70.96 95.13,-60.99 87.56,-52.16"/>
<polygon fill="#63b8ff" stroke="#63b8ff" points="108.78,-82.29 117.94,-87.6 114.09,-77.73 108.78,-82.29"/>
</g>
<!-- Node3 -->
<g id="node3" class="node">
<title>Node3</title>
<g id="a_node3"><a xlink:href="texture__egl_8cc.html" target="_top" xlink:title=" ">
<polygon fill="white" stroke="#666666" points="259.5,-52 150.5,-52 150.5,0 259.5,0 259.5,-52"/>
<text text-anchor="start" x="158.5" y="-40" font-family="Helvetica,sans-Serif" font-size="10.00">/mnt/raid10/stargate</text>
<text text-anchor="start" x="158.5" y="-29" font-family="Helvetica,sans-Serif" font-size="10.00">/ivi&#45;homescreen/shell</text>
<text text-anchor="start" x="158.5" y="-18" font-family="Helvetica,sans-Serif" font-size="10.00">/textures/egl/texture</text>
<text text-anchor="middle" x="205" y="-7" font-family="Helvetica,sans-Serif" font-size="10.00">_egl.cc</text>
</a>
</g>
</g>
<!-- Node1&#45;&gt;Node3 -->
<g id="edge2" class="edge">
<title>Node1&#45;&gt;Node3</title>
<path fill="none" stroke="#63b8ff" d="M158.94,-79.97C166.78,-70.96 175.45,-60.99 183.13,-52.16"/>
<polygon fill="#63b8ff" stroke="#63b8ff" points="156.22,-77.76 152.3,-87.6 161.51,-82.35 156.22,-77.76"/>
</g>
</g>
</svg>
