<?xml version="1.0" encoding="UTF-8" standalone="no"?>
<!DOCTYPE svg PUBLIC "-//W3C//DTD SVG 1.1//EN"
 "http://www.w3.org/Graphics/SVG/1.1/DTD/svg11.dtd">
<!-- Generated by graphviz version 2.43.0 (0)
 -->
<!-- Title: /home/joel.winarske@toyotaconnected.com/development/stargate/ivi&#45;homescreen/shell/timer.cc Pages: 1 -->
<svg width="543pt" height="184pt"
 viewBox="0.00 0.00 542.50 184.00" xmlns="http://www.w3.org/2000/svg" xmlns:xlink="http://www.w3.org/1999/xlink">
<g id="graph0" class="graph" transform="scale(1 1) rotate(0) translate(4 180)">
<title>/home/joel.winarske@toyotaconnected.com/development/stargate/ivi&#45;homescreen/shell/timer.cc</title>
<polygon fill="white" stroke="transparent" points="-4,4 -4,-180 538.5,-180 538.5,4 -4,4"/>
<!-- Node1 -->
<g id="node1" class="node">
<title>Node1</title>
<g id="a_node1"><a xlink:title=" ">
<polygon fill="#bfbfbf" stroke="black" points="171,-112.5 171,-175.5 303,-175.5 303,-112.5 171,-112.5"/>
<text text-anchor="start" x="179" y="-163.5" font-family="Helvetica,sans-Serif" font-size="10.00">/home/joel.winarske</text>
<text text-anchor="start" x="179" y="-152.5" font-family="Helvetica,sans-Serif" font-size="10.00">@toyotaconnected.com</text>
<text text-anchor="start" x="179" y="-141.5" font-family="Helvetica,sans-Serif" font-size="10.00">/development/stargate</text>
<text text-anchor="start" x="179" y="-130.5" font-family="Helvetica,sans-Serif" font-size="10.00">/ivi&#45;homescreen/shell</text>
<text text-anchor="middle" x="237" y="-119.5" font-family="Helvetica,sans-Serif" font-size="10.00">/timer.cc</text>
</a>
</g>
</g>
<!-- Node2 -->
<g id="node2" class="node">
<title>Node2</title>
<g id="a_node2"><a xlink:href="timer_8h.html" target="_top" xlink:title=" ">
<polygon fill="white" stroke="black" points="93.5,-56.5 93.5,-75.5 144.5,-75.5 144.5,-56.5 93.5,-56.5"/>
<text text-anchor="middle" x="119" y="-63.5" font-family="Helvetica,sans-Serif" font-size="10.00">timer.h</text>
</a>
</g>
</g>
<!-- Node1&#45;&gt;Node2 -->
<g id="edge1" class="edge">
<title>Node1&#45;&gt;Node2</title>
<path fill="none" stroke="midnightblue" d="M189.35,-112.31C172.61,-101.53 154.61,-89.94 141.01,-81.17"/>
<polygon fill="midnightblue" stroke="midnightblue" points="142.67,-78.08 132.36,-75.61 138.88,-83.96 142.67,-78.08"/>
</g>
<!-- Node3 -->
<g id="node3" class="node">
<title>Node3</title>
<g id="a_node3"><a xlink:title=" ">
<polygon fill="white" stroke="#bfbfbf" points="0,-0.5 0,-19.5 58,-19.5 58,-0.5 0,-0.5"/>
<text text-anchor="middle" x="29" y="-7.5" font-family="Helvetica,sans-Serif" font-size="10.00">memory</text>
</a>
</g>
</g>
<!-- Node1&#45;&gt;Node3 -->
<g id="edge8" class="edge">
<title>Node1&#45;&gt;Node3</title>
<path fill="none" stroke="midnightblue" d="M170.95,-121.68C142.58,-110.66 110.04,-95.41 84,-76 66.11,-62.66 50.2,-42.46 40.15,-28.12"/>
<polygon fill="midnightblue" stroke="midnightblue" points="42.94,-25.99 34.43,-19.67 37.14,-29.92 42.94,-25.99"/>
</g>
<!-- Node5 -->
<g id="node5" class="node">
<title>Node5</title>
<g id="a_node5"><a xlink:title=" ">
<polygon fill="white" stroke="#bfbfbf" points="138.5,-0.5 138.5,-19.5 207.5,-19.5 207.5,-0.5 138.5,-0.5"/>
<text text-anchor="middle" x="173" y="-7.5" font-family="Helvetica,sans-Serif" font-size="10.00">sys/epoll.h</text>
</a>
</g>
</g>
<!-- Node1&#45;&gt;Node5 -->
<g id="edge9" class="edge">
<title>Node1&#45;&gt;Node5</title>
<path fill="none" stroke="midnightblue" d="M222.16,-112.38C209.59,-86.47 192.01,-50.21 181.64,-28.81"/>
<polygon fill="midnightblue" stroke="midnightblue" points="184.69,-27.08 177.17,-19.61 178.39,-30.14 184.69,-27.08"/>
</g>
<!-- Node6 -->
<g id="node6" class="node">
<title>Node6</title>
<g id="a_node6"><a xlink:title=" ">
<polygon fill="white" stroke="#bfbfbf" points="225.5,-0.5 225.5,-19.5 306.5,-19.5 306.5,-0.5 225.5,-0.5"/>
<text text-anchor="middle" x="266" y="-7.5" font-family="Helvetica,sans-Serif" font-size="10.00">sys/timerfd.h</text>
</a>
</g>
</g>
<!-- Node1&#45;&gt;Node6 -->
<g id="edge10" class="edge">
<title>Node1&#45;&gt;Node6</title>
<path fill="none" stroke="midnightblue" d="M228.53,-112.42C225.28,-95.37 223.68,-74.02 230,-56 233.79,-45.21 241.37,-35.08 248.6,-27.18"/>
<polygon fill="midnightblue" stroke="midnightblue" points="251.33,-29.4 255.84,-19.81 246.33,-24.49 251.33,-29.4"/>
</g>
<!-- Node7 -->
<g id="node7" class="node">
<title>Node7</title>
<g id="a_node7"><a xlink:title=" ">
<polygon fill="white" stroke="#bfbfbf" points="239.5,-56.5 239.5,-75.5 286.5,-75.5 286.5,-56.5 239.5,-56.5"/>
<text text-anchor="middle" x="263" y="-63.5" font-family="Helvetica,sans-Serif" font-size="10.00">cerrno</text>
</a>
</g>
</g>
<!-- Node1&#45;&gt;Node7 -->
<g id="edge6" class="edge">
<title>Node1&#45;&gt;Node7</title>
<path fill="none" stroke="midnightblue" d="M247.58,-112.09C250.67,-103.05 253.95,-93.45 256.69,-85.45"/>
<polygon fill="midnightblue" stroke="midnightblue" points="260.09,-86.31 260.02,-75.72 253.47,-84.05 260.09,-86.31"/>
</g>
<!-- Node8 -->
<g id="node8" class="node">
<title>Node8</title>
<g id="a_node8"><a xlink:title=" ">
<polygon fill="white" stroke="#bfbfbf" points="305,-56.5 305,-75.5 355,-75.5 355,-56.5 305,-56.5"/>
<text text-anchor="middle" x="330" y="-63.5" font-family="Helvetica,sans-Serif" font-size="10.00">cstring</text>
</a>
</g>
</g>
<!-- Node1&#45;&gt;Node8 -->
<g id="edge7" class="edge">
<title>Node1&#45;&gt;Node8</title>
<path fill="none" stroke="midnightblue" d="M274.56,-112.31C287.16,-102.01 300.68,-90.96 311.21,-82.36"/>
<polygon fill="midnightblue" stroke="midnightblue" points="313.74,-84.81 319.26,-75.77 309.31,-79.39 313.74,-84.81"/>
</g>
<!-- Node9 -->
<g id="node9" class="node">
<title>Node9</title>
<g id="a_node9"><a xlink:title=" ">
<polygon fill="white" stroke="#bfbfbf" points="373,-56.5 373,-75.5 429,-75.5 429,-56.5 373,-56.5"/>
<text text-anchor="middle" x="401" y="-63.5" font-family="Helvetica,sans-Serif" font-size="10.00">unistd.h</text>
</a>
</g>
</g>
<!-- Node1&#45;&gt;Node9 -->
<g id="edge11" class="edge">
<title>Node1&#45;&gt;Node9</title>
<path fill="none" stroke="midnightblue" d="M303.23,-112.31C327.61,-101.01 353.92,-88.82 373.1,-79.93"/>
<polygon fill="midnightblue" stroke="midnightblue" points="374.83,-82.99 382.43,-75.61 371.88,-76.64 374.83,-82.99"/>
</g>
<!-- Node10 -->
<g id="node10" class="node">
<title>Node10</title>
<g id="a_node10"><a xlink:href="logging_8h.html" target="_top" xlink:title=" ">
<polygon fill="white" stroke="black" points="447,-56.5 447,-75.5 509,-75.5 509,-56.5 447,-56.5"/>
<text text-anchor="middle" x="478" y="-63.5" font-family="Helvetica,sans-Serif" font-size="10.00">logging.h</text>
</a>
</g>
</g>
<!-- Node1&#45;&gt;Node10 -->
<g id="edge12" class="edge">
<title>Node1&#45;&gt;Node10</title>
<path fill="none" stroke="midnightblue" d="M303.17,-122.13C347.63,-108.11 404.55,-90.16 441.15,-78.62"/>
<polygon fill="midnightblue" stroke="midnightblue" points="442.43,-81.89 450.91,-75.54 440.32,-75.21 442.43,-81.89"/>
</g>
<!-- Node2&#45;&gt;Node3 -->
<g id="edge2" class="edge">
<title>Node2&#45;&gt;Node3</title>
<path fill="none" stroke="midnightblue" d="M104.54,-56.32C90.5,-47.9 68.95,-34.97 52.46,-25.07"/>
<polygon fill="midnightblue" stroke="midnightblue" points="53.8,-21.8 43.42,-19.65 50.2,-27.8 53.8,-21.8"/>
</g>
<!-- Node4 -->
<g id="node4" class="node">
<title>Node4</title>
<g id="a_node4"><a xlink:title=" ">
<polygon fill="white" stroke="#bfbfbf" points="76,-0.5 76,-19.5 120,-19.5 120,-0.5 76,-0.5"/>
<text text-anchor="middle" x="98" y="-7.5" font-family="Helvetica,sans-Serif" font-size="10.00">string</text>
</a>
</g>
</g>
<!-- Node2&#45;&gt;Node4 -->
<g id="edge3" class="edge">
<title>Node2&#45;&gt;Node4</title>
<path fill="none" stroke="midnightblue" d="M115.53,-56.08C112.69,-48.77 108.57,-38.18 105.04,-29.1"/>
<polygon fill="midnightblue" stroke="midnightblue" points="108.29,-27.8 101.4,-19.75 101.77,-30.34 108.29,-27.8"/>
</g>
<!-- Node2&#45;&gt;Node5 -->
<g id="edge4" class="edge">
<title>Node2&#45;&gt;Node5</title>
<path fill="none" stroke="midnightblue" d="M127.92,-56.08C135.78,-48.22 147.43,-36.57 156.92,-27.08"/>
<polygon fill="midnightblue" stroke="midnightblue" points="159.65,-29.3 164.25,-19.75 154.7,-24.35 159.65,-29.3"/>
</g>
<!-- Node2&#45;&gt;Node6 -->
<g id="edge5" class="edge">
<title>Node2&#45;&gt;Node6</title>
<path fill="none" stroke="midnightblue" d="M142.29,-56.44C166.81,-47.44 205.6,-33.19 233.2,-23.05"/>
<polygon fill="midnightblue" stroke="midnightblue" points="234.64,-26.25 242.82,-19.52 232.22,-19.68 234.64,-26.25"/>
</g>
<!-- Node11 -->
<g id="node11" class="node">
<title>Node11</title>
<g id="a_node11"><a xlink:title=" ">
<polygon fill="white" stroke="#bfbfbf" points="421.5,-0.5 421.5,-19.5 534.5,-19.5 534.5,-0.5 421.5,-0.5"/>
<text text-anchor="middle" x="478" y="-7.5" font-family="Helvetica,sans-Serif" font-size="10.00">flutter/fml/logging.h</text>
</a>
</g>
</g>
<!-- Node10&#45;&gt;Node11 -->
<g id="edge13" class="edge">
<title>Node10&#45;&gt;Node11</title>
<path fill="none" stroke="midnightblue" d="M478,-56.08C478,-49.01 478,-38.86 478,-29.99"/>
<polygon fill="midnightblue" stroke="midnightblue" points="481.5,-29.75 478,-19.75 474.5,-29.75 481.5,-29.75"/>
</g>
</g>
</svg>
