<?xml version="1.0" encoding="UTF-8" standalone="no"?>
<!DOCTYPE svg PUBLIC "-//W3C//DTD SVG 1.1//EN"
 "http://www.w3.org/Graphics/SVG/1.1/DTD/svg11.dtd">
<!-- Generated by graphviz version 2.43.0 (0)
 -->
<!-- Title: /home/joel.winarske@toyotaconnected.com/development/stargate/ivi&#45;homescreen/shell/timer.h Pages: 1 -->
<svg width="830pt" height="272pt"
 viewBox="0.00 0.00 830.00 272.00" xmlns="http://www.w3.org/2000/svg" xmlns:xlink="http://www.w3.org/1999/xlink">
<g id="graph0" class="graph" transform="scale(1 1) rotate(0) translate(4 268)">
<title>/home/joel.winarske@toyotaconnected.com/development/stargate/ivi&#45;homescreen/shell/timer.h</title>
<polygon fill="white" stroke="transparent" points="-4,4 -4,-268 826,-268 826,4 -4,4"/>
<!-- Node1 -->
<g id="node1" class="node">
<title>Node1</title>
<g id="a_node1"><a xlink:title=" ">
<polygon fill="#bfbfbf" stroke="black" points="94,-200.5 94,-263.5 226,-263.5 226,-200.5 94,-200.5"/>
<text text-anchor="start" x="102" y="-251.5" font-family="Helvetica,sans-Serif" font-size="10.00">/home/joel.winarske</text>
<text text-anchor="start" x="102" y="-240.5" font-family="Helvetica,sans-Serif" font-size="10.00">@toyotaconnected.com</text>
<text text-anchor="start" x="102" y="-229.5" font-family="Helvetica,sans-Serif" font-size="10.00">/development/stargate</text>
<text text-anchor="start" x="102" y="-218.5" font-family="Helvetica,sans-Serif" font-size="10.00">/ivi&#45;homescreen/shell</text>
<text text-anchor="middle" x="160" y="-207.5" font-family="Helvetica,sans-Serif" font-size="10.00">/timer.h</text>
</a>
</g>
</g>
<!-- Node2 -->
<g id="node2" class="node">
<title>Node2</title>
<g id="a_node2"><a xlink:href="timer_8cc.html" target="_top" xlink:title=" ">
<polygon fill="white" stroke="black" points="0,-100.5 0,-163.5 132,-163.5 132,-100.5 0,-100.5"/>
<text text-anchor="start" x="8" y="-151.5" font-family="Helvetica,sans-Serif" font-size="10.00">/home/joel.winarske</text>
<text text-anchor="start" x="8" y="-140.5" font-family="Helvetica,sans-Serif" font-size="10.00">@toyotaconnected.com</text>
<text text-anchor="start" x="8" y="-129.5" font-family="Helvetica,sans-Serif" font-size="10.00">/development/stargate</text>
<text text-anchor="start" x="8" y="-118.5" font-family="Helvetica,sans-Serif" font-size="10.00">/ivi&#45;homescreen/shell</text>
<text text-anchor="middle" x="66" y="-107.5" font-family="Helvetica,sans-Serif" font-size="10.00">/timer.cc</text>
</a>
</g>
</g>
<!-- Node1&#45;&gt;Node2 -->
<g id="edge1" class="edge">
<title>Node1&#45;&gt;Node2</title>
<path fill="none" stroke="midnightblue" d="M123.53,-192.97C114.2,-183.25 104.3,-172.93 95.38,-163.63"/>
<polygon fill="midnightblue" stroke="midnightblue" points="121.07,-195.47 130.52,-200.26 126.12,-190.62 121.07,-195.47"/>
</g>
<!-- Node3 -->
<g id="node3" class="node">
<title>Node3</title>
<g id="a_node3"><a xlink:href="display_8cc.html" target="_top" xlink:title=" ">
<polygon fill="white" stroke="black" points="66,-0.5 66,-63.5 198,-63.5 198,-0.5 66,-0.5"/>
<text text-anchor="start" x="74" y="-51.5" font-family="Helvetica,sans-Serif" font-size="10.00">/home/joel.winarske</text>
<text text-anchor="start" x="74" y="-40.5" font-family="Helvetica,sans-Serif" font-size="10.00">@toyotaconnected.com</text>
<text text-anchor="start" x="74" y="-29.5" font-family="Helvetica,sans-Serif" font-size="10.00">/development/stargate</text>
<text text-anchor="start" x="74" y="-18.5" font-family="Helvetica,sans-Serif" font-size="10.00">/ivi&#45;homescreen/shell</text>
<text text-anchor="middle" x="132" y="-7.5" font-family="Helvetica,sans-Serif" font-size="10.00">/wayland/display.cc</text>
</a>
</g>
</g>
<!-- Node1&#45;&gt;Node3 -->
<g id="edge2" class="edge">
<title>Node1&#45;&gt;Node3</title>
<path fill="none" stroke="midnightblue" d="M154.26,-190.37C148.93,-152.73 141.13,-97.56 136.32,-63.54"/>
<polygon fill="midnightblue" stroke="midnightblue" points="150.82,-191.09 155.69,-200.5 157.75,-190.1 150.82,-191.09"/>
</g>
<!-- Node4 -->
<g id="node4" class="node">
<title>Node4</title>
<g id="a_node4"><a xlink:href="display_8h.html" target="_top" xlink:title=" ">
<polygon fill="white" stroke="black" points="297,-100.5 297,-163.5 429,-163.5 429,-100.5 297,-100.5"/>
<text text-anchor="start" x="305" y="-151.5" font-family="Helvetica,sans-Serif" font-size="10.00">/home/joel.winarske</text>
<text text-anchor="start" x="305" y="-140.5" font-family="Helvetica,sans-Serif" font-size="10.00">@toyotaconnected.com</text>
<text text-anchor="start" x="305" y="-129.5" font-family="Helvetica,sans-Serif" font-size="10.00">/development/stargate</text>
<text text-anchor="start" x="305" y="-118.5" font-family="Helvetica,sans-Serif" font-size="10.00">/ivi&#45;homescreen/shell</text>
<text text-anchor="middle" x="363" y="-107.5" font-family="Helvetica,sans-Serif" font-size="10.00">/wayland/display.h</text>
</a>
</g>
</g>
<!-- Node1&#45;&gt;Node4 -->
<g id="edge3" class="edge">
<title>Node1&#45;&gt;Node4</title>
<path fill="none" stroke="midnightblue" d="M232.66,-195.92C254.59,-185.34 278.47,-173.81 299.74,-163.54"/>
<polygon fill="midnightblue" stroke="midnightblue" points="230.88,-192.9 223.4,-200.4 233.92,-199.2 230.88,-192.9"/>
</g>
<!-- Node4&#45;&gt;Node3 -->
<g id="edge7" class="edge">
<title>Node4&#45;&gt;Node3</title>
<path fill="none" stroke="midnightblue" d="M287.59,-99.01C258.75,-86.77 226.12,-72.93 198.2,-61.09"/>
<polygon fill="midnightblue" stroke="midnightblue" points="286.23,-102.23 296.8,-102.92 288.97,-95.79 286.23,-102.23"/>
</g>
<!-- Node5 -->
<g id="node5" class="node">
<title>Node5</title>
<g id="a_node5"><a xlink:href="app_8cc.html" target="_top" xlink:title=" ">
<polygon fill="white" stroke="black" points="216,-0.5 216,-63.5 348,-63.5 348,-0.5 216,-0.5"/>
<text text-anchor="start" x="224" y="-51.5" font-family="Helvetica,sans-Serif" font-size="10.00">/home/joel.winarske</text>
<text text-anchor="start" x="224" y="-40.5" font-family="Helvetica,sans-Serif" font-size="10.00">@toyotaconnected.com</text>
<text text-anchor="start" x="224" y="-29.5" font-family="Helvetica,sans-Serif" font-size="10.00">/development/stargate</text>
<text text-anchor="start" x="224" y="-18.5" font-family="Helvetica,sans-Serif" font-size="10.00">/ivi&#45;homescreen/shell</text>
<text text-anchor="middle" x="282" y="-7.5" font-family="Helvetica,sans-Serif" font-size="10.00">/app.cc</text>
</a>
</g>
</g>
<!-- Node4&#45;&gt;Node5 -->
<g id="edge4" class="edge">
<title>Node4&#45;&gt;Node5</title>
<path fill="none" stroke="midnightblue" d="M331.1,-92.4C323.2,-82.85 314.85,-72.74 307.32,-63.63"/>
<polygon fill="midnightblue" stroke="midnightblue" points="328.52,-94.78 337.59,-100.26 333.92,-90.32 328.52,-94.78"/>
</g>
<!-- Node6 -->
<g id="node6" class="node">
<title>Node6</title>
<g id="a_node6"><a xlink:href="compositor__surface_8cc.html" target="_top" xlink:title=" ">
<polygon fill="white" stroke="black" points="366.5,-0.5 366.5,-63.5 521.5,-63.5 521.5,-0.5 366.5,-0.5"/>
<text text-anchor="start" x="374.5" y="-51.5" font-family="Helvetica,sans-Serif" font-size="10.00">/home/joel.winarske</text>
<text text-anchor="start" x="374.5" y="-40.5" font-family="Helvetica,sans-Serif" font-size="10.00">@toyotaconnected.com</text>
<text text-anchor="start" x="374.5" y="-29.5" font-family="Helvetica,sans-Serif" font-size="10.00">/development/stargate</text>
<text text-anchor="start" x="374.5" y="-18.5" font-family="Helvetica,sans-Serif" font-size="10.00">/ivi&#45;homescreen/shell</text>
<text text-anchor="middle" x="444" y="-7.5" font-family="Helvetica,sans-Serif" font-size="10.00">/view/compositor_surface.cc</text>
</a>
</g>
</g>
<!-- Node4&#45;&gt;Node6 -->
<g id="edge5" class="edge">
<title>Node4&#45;&gt;Node6</title>
<path fill="none" stroke="midnightblue" d="M394.9,-92.4C402.8,-82.85 411.15,-72.74 418.68,-63.63"/>
<polygon fill="midnightblue" stroke="midnightblue" points="392.08,-90.32 388.41,-100.26 397.48,-94.78 392.08,-90.32"/>
</g>
<!-- Node7 -->
<g id="node7" class="node">
<title>Node7</title>
<g id="a_node7"><a xlink:href="flutter__view_8cc.html" target="_top" xlink:title=" ">
<polygon fill="white" stroke="black" points="540,-0.5 540,-63.5 672,-63.5 672,-0.5 540,-0.5"/>
<text text-anchor="start" x="548" y="-51.5" font-family="Helvetica,sans-Serif" font-size="10.00">/home/joel.winarske</text>
<text text-anchor="start" x="548" y="-40.5" font-family="Helvetica,sans-Serif" font-size="10.00">@toyotaconnected.com</text>
<text text-anchor="start" x="548" y="-29.5" font-family="Helvetica,sans-Serif" font-size="10.00">/development/stargate</text>
<text text-anchor="start" x="548" y="-18.5" font-family="Helvetica,sans-Serif" font-size="10.00">/ivi&#45;homescreen/shell</text>
<text text-anchor="middle" x="606" y="-7.5" font-family="Helvetica,sans-Serif" font-size="10.00">/view/flutter_view.cc</text>
</a>
</g>
</g>
<!-- Node4&#45;&gt;Node7 -->
<g id="edge6" class="edge">
<title>Node4&#45;&gt;Node7</title>
<path fill="none" stroke="midnightblue" d="M438.92,-100.96C467.78,-89.47 500.94,-76.21 531,-64 533.87,-62.83 536.8,-61.64 539.77,-60.43"/>
<polygon fill="midnightblue" stroke="midnightblue" points="437.3,-97.83 429.3,-104.78 439.89,-104.34 437.3,-97.83"/>
</g>
<!-- Node8 -->
<g id="node8" class="node">
<title>Node8</title>
<g id="a_node8"><a xlink:href="window_8cc.html" target="_top" xlink:title=" ">
<polygon fill="white" stroke="black" points="690,-0.5 690,-63.5 822,-63.5 822,-0.5 690,-0.5"/>
<text text-anchor="start" x="698" y="-51.5" font-family="Helvetica,sans-Serif" font-size="10.00">/home/joel.winarske</text>
<text text-anchor="start" x="698" y="-40.5" font-family="Helvetica,sans-Serif" font-size="10.00">@toyotaconnected.com</text>
<text text-anchor="start" x="698" y="-29.5" font-family="Helvetica,sans-Serif" font-size="10.00">/development/stargate</text>
<text text-anchor="start" x="698" y="-18.5" font-family="Helvetica,sans-Serif" font-size="10.00">/ivi&#45;homescreen/shell</text>
<text text-anchor="middle" x="756" y="-7.5" font-family="Helvetica,sans-Serif" font-size="10.00">/wayland/window.cc</text>
</a>
</g>
</g>
<!-- Node4&#45;&gt;Node8 -->
<g id="edge8" class="edge">
<title>Node4&#45;&gt;Node8</title>
<path fill="none" stroke="midnightblue" d="M439.24,-119.01C504.29,-107.81 599.9,-89.07 681,-64 683.96,-63.08 686.97,-62.1 689.99,-61.06"/>
<polygon fill="midnightblue" stroke="midnightblue" points="438.34,-115.61 429.07,-120.74 439.51,-122.51 438.34,-115.61"/>
</g>
</g>
</svg>
