<?xml version="1.0" encoding="UTF-8" standalone="no"?>
<!DOCTYPE svg PUBLIC "-//W3C//DTD SVG 1.1//EN"
 "http://www.w3.org/Graphics/SVG/1.1/DTD/svg11.dtd">
<!-- Generated by graphviz version 5.0.0 (0)
 -->
<!-- Title: /mnt/raid10/stargate/ivi&#45;homescreen/shell/timer.cc Pages: 1 -->
<svg width="1158pt" height="236pt"
 viewBox="0.00 0.00 1158.00 236.00" xmlns="http://www.w3.org/2000/svg" xmlns:xlink="http://www.w3.org/1999/xlink">
<g id="graph0" class="graph" transform="scale(1 1) rotate(0) translate(4 232)">
<title>/mnt/raid10/stargate/ivi&#45;homescreen/shell/timer.cc</title>
<!-- Node1 -->
<g id="node1" class="node">
<title>Node1</title>
<g id="a_node1"><a xlink:title=" ">
<polygon fill="#999999" stroke="#666666" points="303.5,-228 194.5,-228 194.5,-187 303.5,-187 303.5,-228"/>
<text text-anchor="start" x="202.5" y="-216" font-family="Helvetica,sans-Serif" font-size="10.00">/mnt/raid10/stargate</text>
<text text-anchor="start" x="202.5" y="-205" font-family="Helvetica,sans-Serif" font-size="10.00">/ivi&#45;homescreen/shell</text>
<text text-anchor="middle" x="249" y="-194" font-family="Helvetica,sans-Serif" font-size="10.00">/timer.cc</text>
</a>
</g>
</g>
<!-- Node2 -->
<g id="node2" class="node">
<title>Node2</title>
<g id="a_node2"><a xlink:href="timer_8h.html" target="_top" xlink:title=" ">
<polygon fill="white" stroke="#666666" points="157.5,-151 110.5,-151 110.5,-132 157.5,-132 157.5,-151"/>
<text text-anchor="middle" x="134" y="-139" font-family="Helvetica,sans-Serif" font-size="10.00">timer.h</text>
</a>
</g>
</g>
<!-- Node1&#45;&gt;Node2 -->
<g id="edge1" class="edge">
<title>Node1&#45;&gt;Node2</title>
<path fill="none" stroke="#63b8ff" d="M213.87,-186.95C195.87,-176.93 174.4,-164.99 158.26,-156"/>
<polygon fill="#63b8ff" stroke="#63b8ff" points="159.88,-152.9 149.44,-151.09 156.47,-159.01 159.88,-152.9"/>
</g>
<!-- Node3 -->
<g id="node3" class="node">
<title>Node3</title>
<g id="a_node3"><a xlink:title=" ">
<polygon fill="#e0e0e0" stroke="#999999" points="52,-90.5 0,-90.5 0,-71.5 52,-71.5 52,-90.5"/>
<text text-anchor="middle" x="26" y="-78.5" font-family="Helvetica,sans-Serif" font-size="10.00">memory</text>
</a>
</g>
</g>
<!-- Node1&#45;&gt;Node3 -->
<g id="edge8" class="edge">
<title>Node1&#45;&gt;Node3</title>
<path fill="none" stroke="#63b8ff" d="M194.3,-191.55C165.33,-182.29 129.87,-168.75 101,-151 77.35,-136.46 54.51,-113.81 40.37,-98.47"/>
<polygon fill="#63b8ff" stroke="#63b8ff" points="42.76,-95.88 33.47,-90.79 37.55,-100.56 42.76,-95.88"/>
</g>
<!-- Node5 -->
<g id="node5" class="node">
<title>Node5</title>
<g id="a_node5"><a xlink:title=" ">
<polygon fill="#e0e0e0" stroke="#999999" points="194,-90.5 130,-90.5 130,-71.5 194,-71.5 194,-90.5"/>
<text text-anchor="middle" x="162" y="-78.5" font-family="Helvetica,sans-Serif" font-size="10.00">sys/epoll.h</text>
</a>
</g>
</g>
<!-- Node1&#45;&gt;Node5 -->
<g id="edge9" class="edge">
<title>Node1&#45;&gt;Node5</title>
<path fill="none" stroke="#63b8ff" d="M235.21,-186.77C218.29,-162.55 189.86,-121.86 173.86,-98.97"/>
<polygon fill="#63b8ff" stroke="#63b8ff" points="176.62,-96.81 168.02,-90.61 170.88,-100.82 176.62,-96.81"/>
</g>
<!-- Node6 -->
<g id="node6" class="node">
<title>Node6</title>
<g id="a_node6"><a xlink:title=" ">
<polygon fill="#e0e0e0" stroke="#999999" points="286,-90.5 212,-90.5 212,-71.5 286,-71.5 286,-90.5"/>
<text text-anchor="middle" x="249" y="-78.5" font-family="Helvetica,sans-Serif" font-size="10.00">sys/timerfd.h</text>
</a>
</g>
</g>
<!-- Node1&#45;&gt;Node6 -->
<g id="edge10" class="edge">
<title>Node1&#45;&gt;Node6</title>
<path fill="none" stroke="#63b8ff" d="M245.92,-186.91C243.92,-171.89 241.88,-150.65 243,-132 243.62,-121.7 244.94,-110.27 246.19,-100.94"/>
<polygon fill="#63b8ff" stroke="#63b8ff" points="249.68,-101.21 247.62,-90.82 242.75,-100.23 249.68,-101.21"/>
</g>
<!-- Node7 -->
<g id="node7" class="node">
<title>Node7</title>
<g id="a_node7"><a xlink:title=" ">
<polygon fill="#e0e0e0" stroke="#999999" points="296,-151 252,-151 252,-132 296,-132 296,-151"/>
<text text-anchor="middle" x="274" y="-139" font-family="Helvetica,sans-Serif" font-size="10.00">cerrno</text>
</a>
</g>
</g>
<!-- Node1&#45;&gt;Node7 -->
<g id="edge6" class="edge">
<title>Node1&#45;&gt;Node7</title>
<path fill="none" stroke="#63b8ff" d="M256.64,-186.95C259.91,-178.58 263.71,-168.85 266.91,-160.64"/>
<polygon fill="#63b8ff" stroke="#63b8ff" points="270.2,-161.85 270.58,-151.26 263.68,-159.3 270.2,-161.85"/>
</g>
<!-- Node8 -->
<g id="node8" class="node">
<title>Node8</title>
<g id="a_node8"><a xlink:title=" ">
<polygon fill="#e0e0e0" stroke="#999999" points="360,-151 314,-151 314,-132 360,-132 360,-151"/>
<text text-anchor="middle" x="337" y="-139" font-family="Helvetica,sans-Serif" font-size="10.00">cstring</text>
</a>
</g>
</g>
<!-- Node1&#45;&gt;Node8 -->
<g id="edge7" class="edge">
<title>Node1&#45;&gt;Node8</title>
<path fill="none" stroke="#63b8ff" d="M275.88,-186.95C289.06,-177.37 304.66,-166.02 316.81,-157.19"/>
<polygon fill="#63b8ff" stroke="#63b8ff" points="318.93,-159.97 324.95,-151.26 314.81,-154.31 318.93,-159.97"/>
</g>
<!-- Node9 -->
<g id="node9" class="node">
<title>Node9</title>
<g id="a_node9"><a xlink:title=" ">
<polygon fill="#e0e0e0" stroke="#999999" points="429.5,-151 378.5,-151 378.5,-132 429.5,-132 429.5,-151"/>
<text text-anchor="middle" x="404" y="-139" font-family="Helvetica,sans-Serif" font-size="10.00">unistd.h</text>
</a>
</g>
</g>
<!-- Node1&#45;&gt;Node9 -->
<g id="edge11" class="edge">
<title>Node1&#45;&gt;Node9</title>
<path fill="none" stroke="#63b8ff" d="M296.35,-186.95C321.52,-176.56 351.71,-164.09 373.71,-155.01"/>
<polygon fill="#63b8ff" stroke="#63b8ff" points="375.28,-158.14 383.19,-151.09 372.61,-151.67 375.28,-158.14"/>
</g>
<!-- Node10 -->
<g id="node10" class="node">
<title>Node10</title>
<g id="a_node10"><a xlink:href="logging_8h.html" target="_top" xlink:title=" ">
<polygon fill="white" stroke="#666666" points="708,-151 652,-151 652,-132 708,-132 708,-151"/>
<text text-anchor="middle" x="680" y="-139" font-family="Helvetica,sans-Serif" font-size="10.00">logging.h</text>
</a>
</g>
</g>
<!-- Node1&#45;&gt;Node10 -->
<g id="edge12" class="edge">
<title>Node1&#45;&gt;Node10</title>
<path fill="none" stroke="#63b8ff" d="M303.59,-198.39C392.18,-185.24 565.06,-159.57 641.77,-148.18"/>
<polygon fill="#63b8ff" stroke="#63b8ff" points="642.56,-151.6 651.94,-146.67 641.53,-144.67 642.56,-151.6"/>
</g>
<!-- Node2&#45;&gt;Node3 -->
<g id="edge2" class="edge">
<title>Node2&#45;&gt;Node3</title>
<path fill="none" stroke="#63b8ff" d="M118.06,-131.87C100.36,-122.28 71.54,-106.67 50.86,-95.47"/>
<polygon fill="#63b8ff" stroke="#63b8ff" points="52.46,-92.35 42,-90.67 49.13,-98.51 52.46,-92.35"/>
</g>
<!-- Node4 -->
<g id="node4" class="node">
<title>Node4</title>
<g id="a_node4"><a xlink:title=" ">
<polygon fill="#e0e0e0" stroke="#999999" points="111.5,-90.5 70.5,-90.5 70.5,-71.5 111.5,-71.5 111.5,-90.5"/>
<text text-anchor="middle" x="91" y="-78.5" font-family="Helvetica,sans-Serif" font-size="10.00">string</text>
</a>
</g>
</g>
<!-- Node2&#45;&gt;Node4 -->
<g id="edge3" class="edge">
<title>Node2&#45;&gt;Node4</title>
<path fill="none" stroke="#63b8ff" d="M127.66,-131.87C121.3,-123.23 111.36,-109.7 103.43,-98.92"/>
<polygon fill="#63b8ff" stroke="#63b8ff" points="106.11,-96.65 97.37,-90.67 100.47,-100.8 106.11,-96.65"/>
</g>
<!-- Node2&#45;&gt;Node5 -->
<g id="edge4" class="edge">
<title>Node2&#45;&gt;Node5</title>
<path fill="none" stroke="#63b8ff" d="M138.13,-131.87C142.14,-123.49 148.35,-110.51 153.44,-99.89"/>
<polygon fill="#63b8ff" stroke="#63b8ff" points="156.69,-101.2 157.85,-90.67 150.38,-98.18 156.69,-101.2"/>
</g>
<!-- Node2&#45;&gt;Node6 -->
<g id="edge5" class="edge">
<title>Node2&#45;&gt;Node6</title>
<path fill="none" stroke="#63b8ff" d="M150.97,-131.87C169.91,-122.23 200.79,-106.53 222.83,-95.31"/>
<polygon fill="#63b8ff" stroke="#63b8ff" points="224.64,-98.32 231.96,-90.67 221.46,-92.08 224.64,-98.32"/>
</g>
<!-- Node11 -->
<g id="node11" class="node">
<title>Node11</title>
<g id="a_node11"><a xlink:title=" ">
<polygon fill="#e0e0e0" stroke="#999999" points="784,-90.5 732,-90.5 732,-71.5 784,-71.5 784,-90.5"/>
<text text-anchor="middle" x="758" y="-78.5" font-family="Helvetica,sans-Serif" font-size="10.00">sstream</text>
</a>
</g>
</g>
<!-- Node10&#45;&gt;Node11 -->
<g id="edge13" class="edge">
<title>Node10&#45;&gt;Node11</title>
<path fill="none" stroke="#63b8ff" d="M691.51,-131.87C703.84,-122.62 723.62,-107.78 738.41,-96.69"/>
<polygon fill="#63b8ff" stroke="#63b8ff" points="740.54,-99.47 746.44,-90.67 736.34,-93.87 740.54,-99.47"/>
</g>
<!-- Node12 -->
<g id="node12" class="node">
<title>Node12</title>
<g id="a_node12"><a xlink:title=" ">
<polygon fill="#e0e0e0" stroke="#999999" points="890,-90.5 802,-90.5 802,-71.5 890,-71.5 890,-90.5"/>
<text text-anchor="middle" x="846" y="-78.5" font-family="Helvetica,sans-Serif" font-size="10.00">spdlog/cfg/env.h</text>
</a>
</g>
</g>
<!-- Node10&#45;&gt;Node12 -->
<g id="edge14" class="edge">
<title>Node10&#45;&gt;Node12</title>
<path fill="none" stroke="#63b8ff" d="M704.14,-131.99C732.54,-121.99 779.88,-105.3 811.99,-93.99"/>
<polygon fill="#63b8ff" stroke="#63b8ff" points="813.56,-97.14 821.83,-90.52 811.24,-90.54 813.56,-97.14"/>
</g>
<!-- Node13 -->
<g id="node13" class="node">
<title>Node13</title>
<g id="a_node13"><a xlink:title=" ">
<polygon fill="#e0e0e0" stroke="#999999" points="1018,-96 908,-96 908,-66 1018,-66 1018,-96"/>
<text text-anchor="start" x="916" y="-84" font-family="Helvetica,sans-Serif" font-size="10.00">spdlog/sinks/callback</text>
<text text-anchor="middle" x="963" y="-73" font-family="Helvetica,sans-Serif" font-size="10.00">_sink.h</text>
</a>
</g>
</g>
<!-- Node10&#45;&gt;Node13 -->
<g id="edge15" class="edge">
<title>Node10&#45;&gt;Node13</title>
<path fill="none" stroke="#63b8ff" d="M708.03,-134.94C747.92,-127.01 823.61,-111.83 897.86,-96.22"/>
<polygon fill="#63b8ff" stroke="#63b8ff" points="898.79,-99.6 907.85,-94.12 897.35,-92.75 898.79,-99.6"/>
</g>
<!-- Node14 -->
<g id="node14" class="node">
<title>Node14</title>
<g id="a_node14"><a xlink:title=" ">
<polygon fill="#e0e0e0" stroke="#999999" points="1150,-96 1036,-96 1036,-66 1150,-66 1150,-96"/>
<text text-anchor="start" x="1044" y="-84" font-family="Helvetica,sans-Serif" font-size="10.00">spdlog/sinks/ringbuffer</text>
<text text-anchor="middle" x="1093" y="-73" font-family="Helvetica,sans-Serif" font-size="10.00">_sink.h</text>
</a>
</g>
</g>
<!-- Node10&#45;&gt;Node14 -->
<g id="edge16" class="edge">
<title>Node10&#45;&gt;Node14</title>
<path fill="none" stroke="#63b8ff" d="M708,-137.69C765.58,-131.75 901.61,-116.85 1025.76,-96.12"/>
<polygon fill="#63b8ff" stroke="#63b8ff" points="1026.54,-99.54 1035.82,-94.43 1025.37,-92.64 1026.54,-99.54"/>
</g>
<!-- Node15 -->
<g id="node15" class="node">
<title>Node15</title>
<g id="a_node15"><a xlink:title=" ">
<polygon fill="#e0e0e0" stroke="#999999" points="405.5,-96 304.5,-96 304.5,-66 405.5,-66 405.5,-96"/>
<text text-anchor="start" x="312.5" y="-84" font-family="Helvetica,sans-Serif" font-size="10.00">spdlog/sinks/stdout</text>
<text text-anchor="middle" x="355" y="-73" font-family="Helvetica,sans-Serif" font-size="10.00">_color_sinks.h</text>
</a>
</g>
</g>
<!-- Node10&#45;&gt;Node15 -->
<g id="edge17" class="edge">
<title>Node10&#45;&gt;Node15</title>
<path fill="none" stroke="#63b8ff" d="M651.93,-136.44C605,-129.51 507.46,-114.54 415.79,-96.29"/>
<polygon fill="#63b8ff" stroke="#63b8ff" points="416.29,-92.82 405.8,-94.28 414.92,-99.68 416.29,-92.82"/>
</g>
<!-- Node16 -->
<g id="node16" class="node">
<title>Node16</title>
<g id="a_node16"><a xlink:title=" ">
<polygon fill="#e0e0e0" stroke="#999999" points="524.5,-96 423.5,-96 423.5,-66 524.5,-66 524.5,-96"/>
<text text-anchor="start" x="431.5" y="-84" font-family="Helvetica,sans-Serif" font-size="10.00">spdlog/sinks/stdout</text>
<text text-anchor="middle" x="474" y="-73" font-family="Helvetica,sans-Serif" font-size="10.00">_sinks.h</text>
</a>
</g>
</g>
<!-- Node10&#45;&gt;Node16 -->
<g id="edge18" class="edge">
<title>Node10&#45;&gt;Node16</title>
<path fill="none" stroke="#63b8ff" d="M651.79,-132.49C621.42,-123.86 572.22,-109.89 533.27,-98.83"/>
<polygon fill="#63b8ff" stroke="#63b8ff" points="534.18,-95.45 523.6,-96.09 532.26,-102.18 534.18,-95.45"/>
</g>
<!-- Node17 -->
<g id="node17" class="node">
<title>Node17</title>
<g id="a_node17"><a xlink:title=" ">
<polygon fill="#e0e0e0" stroke="#999999" points="627.5,-90.5 542.5,-90.5 542.5,-71.5 627.5,-71.5 627.5,-90.5"/>
<text text-anchor="middle" x="585" y="-78.5" font-family="Helvetica,sans-Serif" font-size="10.00">spdlog/spdlog.h</text>
</a>
</g>
</g>
<!-- Node10&#45;&gt;Node17 -->
<g id="edge19" class="edge">
<title>Node10&#45;&gt;Node17</title>
<path fill="none" stroke="#63b8ff" d="M665.98,-131.87C650.69,-122.45 625.97,-107.23 607.86,-96.08"/>
<polygon fill="#63b8ff" stroke="#63b8ff" points="609.43,-92.93 599.08,-90.67 605.75,-98.89 609.43,-92.93"/>
</g>
<!-- Node18 -->
<g id="node18" class="node">
<title>Node18</title>
<g id="a_node18"><a xlink:href="constants_8h.html" target="_top" xlink:title=" ">
<polygon fill="white" stroke="#666666" points="714,-90.5 646,-90.5 646,-71.5 714,-71.5 714,-90.5"/>
<text text-anchor="middle" x="680" y="-78.5" font-family="Helvetica,sans-Serif" font-size="10.00">constants.h</text>
</a>
</g>
</g>
<!-- Node10&#45;&gt;Node18 -->
<g id="edge20" class="edge">
<title>Node10&#45;&gt;Node18</title>
<path fill="none" stroke="#63b8ff" d="M680,-131.87C680,-123.75 680,-111.31 680,-100.89"/>
<polygon fill="#63b8ff" stroke="#63b8ff" points="683.5,-100.67 680,-90.67 676.5,-100.67 683.5,-100.67"/>
</g>
<!-- Node19 -->
<g id="node19" class="node">
<title>Node19</title>
<g id="a_node19"><a xlink:title=" ">
<polygon fill="#e0e0e0" stroke="#999999" points="601,-24.5 541,-24.5 541,-5.5 601,-5.5 601,-24.5"/>
<text text-anchor="middle" x="571" y="-12.5" font-family="Helvetica,sans-Serif" font-size="10.00">EGL/egl.h</text>
</a>
</g>
</g>
<!-- Node18&#45;&gt;Node19 -->
<g id="edge21" class="edge">
<title>Node18&#45;&gt;Node19</title>
<path fill="none" stroke="#63b8ff" d="M665.3,-71.37C647.18,-60.73 616.15,-42.51 594.66,-29.89"/>
<polygon fill="#63b8ff" stroke="#63b8ff" points="596.21,-26.74 585.82,-24.7 592.67,-32.78 596.21,-26.74"/>
</g>
<!-- Node20 -->
<g id="node20" class="node">
<title>Node20</title>
<g id="a_node20"><a xlink:title=" ">
<polygon fill="#e0e0e0" stroke="#999999" points="740.5,-30 619.5,-30 619.5,0 740.5,0 740.5,-30"/>
<text text-anchor="start" x="627.5" y="-18" font-family="Helvetica,sans-Serif" font-size="10.00">shell/platform/embedder</text>
<text text-anchor="middle" x="680" y="-7" font-family="Helvetica,sans-Serif" font-size="10.00">/embedder.h</text>
</a>
</g>
</g>
<!-- Node18&#45;&gt;Node20 -->
<g id="edge22" class="edge">
<title>Node18&#45;&gt;Node20</title>
<path fill="none" stroke="#63b8ff" d="M680,-71.37C680,-63.49 680,-51.45 680,-40.6"/>
<polygon fill="#63b8ff" stroke="#63b8ff" points="683.5,-40.36 680,-30.36 676.5,-40.36 683.5,-40.36"/>
</g>
<!-- Node21 -->
<g id="node21" class="node">
<title>Node21</title>
<g id="a_node21"><a xlink:title=" ">
<polygon fill="#e0e0e0" stroke="#999999" points="797,-24.5 759,-24.5 759,-5.5 797,-5.5 797,-24.5"/>
<text text-anchor="middle" x="778" y="-12.5" font-family="Helvetica,sans-Serif" font-size="10.00">array</text>
</a>
</g>
</g>
<!-- Node18&#45;&gt;Node21 -->
<g id="edge23" class="edge">
<title>Node18&#45;&gt;Node21</title>
<path fill="none" stroke="#63b8ff" d="M693.22,-71.37C709.36,-60.82 736.91,-42.84 756.21,-30.23"/>
<polygon fill="#63b8ff" stroke="#63b8ff" points="758.22,-33.1 764.68,-24.7 754.39,-27.24 758.22,-33.1"/>
</g>
</g>
</svg>
