<?xml version="1.0" encoding="UTF-8" standalone="no"?>
<!DOCTYPE svg PUBLIC "-//W3C//DTD SVG 1.1//EN"
 "http://www.w3.org/Graphics/SVG/1.1/DTD/svg11.dtd">
<!-- Generated by graphviz version 5.0.0 (0)
 -->
<!-- Title: /mnt/raid10/stargate/ivi&#45;homescreen/shell/timer.cc Pages: 1 -->
<svg width="564pt" height="269pt"
 viewBox="0.00 0.00 563.50 269.00" xmlns="http://www.w3.org/2000/svg" xmlns:xlink="http://www.w3.org/1999/xlink">
<g id="graph0" class="graph" transform="scale(1 1) rotate(0) translate(4 265)">
<title>/mnt/raid10/stargate/ivi&#45;homescreen/shell/timer.cc</title>
<!-- Node1 -->
<g id="node1" class="node">
<title>Node1</title>
<g id="a_node1"><a xlink:title=" ">
<polygon fill="#999999" stroke="#666666" points="279.5,-261 170.5,-261 170.5,-220 279.5,-220 279.5,-261"/>
<text text-anchor="start" x="178.5" y="-249" font-family="Helvetica,sans-Serif" font-size="10.00">/mnt/raid10/stargate</text>
<text text-anchor="start" x="178.5" y="-238" font-family="Helvetica,sans-Serif" font-size="10.00">/ivi&#45;homescreen/shell</text>
<text text-anchor="middle" x="225" y="-227" font-family="Helvetica,sans-Serif" font-size="10.00">/timer.cc</text>
</a>
</g>
</g>
<!-- Node2 -->
<g id="node2" class="node">
<title>Node2</title>
<g id="a_node2"><a xlink:href="timer_8h.html" target="_top" xlink:title=" ">
<polygon fill="white" stroke="#666666" points="133.5,-184 86.5,-184 86.5,-165 133.5,-165 133.5,-184"/>
<text text-anchor="middle" x="110" y="-172" font-family="Helvetica,sans-Serif" font-size="10.00">timer.h</text>
</a>
</g>
</g>
<!-- Node1&#45;&gt;Node2 -->
<g id="edge1" class="edge">
<title>Node1&#45;&gt;Node2</title>
<path fill="none" stroke="#63b8ff" d="M189.87,-219.95C171.87,-209.93 150.4,-197.99 134.26,-189"/>
<polygon fill="#63b8ff" stroke="#63b8ff" points="135.88,-185.9 125.44,-184.09 132.47,-192.01 135.88,-185.9"/>
</g>
<!-- Node3 -->
<g id="node3" class="node">
<title>Node3</title>
<g id="a_node3"><a xlink:title=" ">
<polygon fill="#e0e0e0" stroke="#999999" points="52,-129 0,-129 0,-110 52,-110 52,-129"/>
<text text-anchor="middle" x="26" y="-117" font-family="Helvetica,sans-Serif" font-size="10.00">memory</text>
</a>
</g>
</g>
<!-- Node1&#45;&gt;Node3 -->
<g id="edge8" class="edge">
<title>Node1&#45;&gt;Node3</title>
<path fill="none" stroke="#63b8ff" d="M170.23,-226.57C140.73,-217.81 104.79,-204.11 77,-184 59.88,-171.61 45.36,-152.03 36.24,-137.89"/>
<polygon fill="#63b8ff" stroke="#63b8ff" points="39.06,-135.79 30.83,-129.12 33.11,-139.47 39.06,-135.79"/>
</g>
<!-- Node5 -->
<g id="node5" class="node">
<title>Node5</title>
<g id="a_node5"><a xlink:title=" ">
<polygon fill="#e0e0e0" stroke="#999999" points="194,-129 130,-129 130,-110 194,-110 194,-129"/>
<text text-anchor="middle" x="162" y="-117" font-family="Helvetica,sans-Serif" font-size="10.00">sys/epoll.h</text>
</a>
</g>
</g>
<!-- Node1&#45;&gt;Node5 -->
<g id="edge9" class="edge">
<title>Node1&#45;&gt;Node5</title>
<path fill="none" stroke="#63b8ff" d="M214.6,-219.85C202.53,-197.07 182.83,-159.85 171.27,-138.02"/>
<polygon fill="#63b8ff" stroke="#63b8ff" points="174.36,-136.38 166.59,-129.18 168.18,-139.65 174.36,-136.38"/>
</g>
<!-- Node6 -->
<g id="node6" class="node">
<title>Node6</title>
<g id="a_node6"><a xlink:title=" ">
<polygon fill="#e0e0e0" stroke="#999999" points="286,-129 212,-129 212,-110 286,-110 286,-129"/>
<text text-anchor="middle" x="249" y="-117" font-family="Helvetica,sans-Serif" font-size="10.00">sys/timerfd.h</text>
</a>
</g>
</g>
<!-- Node1&#45;&gt;Node6 -->
<g id="edge10" class="edge">
<title>Node1&#45;&gt;Node6</title>
<path fill="none" stroke="#63b8ff" d="M219.49,-219.78C216.16,-204.5 213.5,-182.99 219,-165 222.09,-154.9 228.32,-145.02 234.31,-137.15"/>
<polygon fill="#63b8ff" stroke="#63b8ff" points="237.18,-139.16 240.79,-129.2 231.76,-134.74 237.18,-139.16"/>
</g>
<!-- Node7 -->
<g id="node7" class="node">
<title>Node7</title>
<g id="a_node7"><a xlink:title=" ">
<polygon fill="#e0e0e0" stroke="#999999" points="272,-184 228,-184 228,-165 272,-165 272,-184"/>
<text text-anchor="middle" x="250" y="-172" font-family="Helvetica,sans-Serif" font-size="10.00">cerrno</text>
</a>
</g>
</g>
<!-- Node1&#45;&gt;Node7 -->
<g id="edge6" class="edge">
<title>Node1&#45;&gt;Node7</title>
<path fill="none" stroke="#63b8ff" d="M232.64,-219.95C235.91,-211.58 239.71,-201.85 242.91,-193.64"/>
<polygon fill="#63b8ff" stroke="#63b8ff" points="246.2,-194.85 246.58,-184.26 239.68,-192.3 246.2,-194.85"/>
</g>
<!-- Node8 -->
<g id="node8" class="node">
<title>Node8</title>
<g id="a_node8"><a xlink:title=" ">
<polygon fill="#e0e0e0" stroke="#999999" points="336,-184 290,-184 290,-165 336,-165 336,-184"/>
<text text-anchor="middle" x="313" y="-172" font-family="Helvetica,sans-Serif" font-size="10.00">cstring</text>
</a>
</g>
</g>
<!-- Node1&#45;&gt;Node8 -->
<g id="edge7" class="edge">
<title>Node1&#45;&gt;Node8</title>
<path fill="none" stroke="#63b8ff" d="M251.88,-219.95C265.06,-210.37 280.66,-199.02 292.81,-190.19"/>
<polygon fill="#63b8ff" stroke="#63b8ff" points="294.93,-192.97 300.95,-184.26 290.81,-187.31 294.93,-192.97"/>
</g>
<!-- Node9 -->
<g id="node9" class="node">
<title>Node9</title>
<g id="a_node9"><a xlink:title=" ">
<polygon fill="#e0e0e0" stroke="#999999" points="405.5,-184 354.5,-184 354.5,-165 405.5,-165 405.5,-184"/>
<text text-anchor="middle" x="380" y="-172" font-family="Helvetica,sans-Serif" font-size="10.00">unistd.h</text>
</a>
</g>
</g>
<!-- Node1&#45;&gt;Node9 -->
<g id="edge11" class="edge">
<title>Node1&#45;&gt;Node9</title>
<path fill="none" stroke="#63b8ff" d="M272.35,-219.95C297.52,-209.56 327.71,-197.09 349.71,-188.01"/>
<polygon fill="#63b8ff" stroke="#63b8ff" points="351.28,-191.14 359.19,-184.09 348.61,-184.67 351.28,-191.14"/>
</g>
<!-- Node10 -->
<g id="node10" class="node">
<title>Node10</title>
<g id="a_node10"><a xlink:href="logging_8h.html" target="_top" xlink:title=" ">
<polygon fill="white" stroke="#666666" points="480,-184 424,-184 424,-165 480,-165 480,-184"/>
<text text-anchor="middle" x="452" y="-172" font-family="Helvetica,sans-Serif" font-size="10.00">logging.h</text>
</a>
</g>
</g>
<!-- Node1&#45;&gt;Node10 -->
<g id="edge12" class="edge">
<title>Node1&#45;&gt;Node10</title>
<path fill="none" stroke="#63b8ff" d="M279.66,-224.09C321.15,-212.39 377.14,-196.61 413.89,-186.25"/>
<polygon fill="#63b8ff" stroke="#63b8ff" points="415.04,-189.56 423.71,-183.47 413.14,-182.82 415.04,-189.56"/>
</g>
<!-- Node2&#45;&gt;Node3 -->
<g id="edge2" class="edge">
<title>Node2&#45;&gt;Node3</title>
<path fill="none" stroke="#63b8ff" d="M96.5,-164.98C83.6,-156.84 63.9,-144.41 48.6,-134.76"/>
<polygon fill="#63b8ff" stroke="#63b8ff" points="50.07,-131.55 39.74,-129.17 46.33,-137.47 50.07,-131.55"/>
</g>
<!-- Node4 -->
<g id="node4" class="node">
<title>Node4</title>
<g id="a_node4"><a xlink:title=" ">
<polygon fill="#e0e0e0" stroke="#999999" points="111.5,-129 70.5,-129 70.5,-110 111.5,-110 111.5,-129"/>
<text text-anchor="middle" x="91" y="-117" font-family="Helvetica,sans-Serif" font-size="10.00">string</text>
</a>
</g>
</g>
<!-- Node2&#45;&gt;Node4 -->
<g id="edge3" class="edge">
<title>Node2&#45;&gt;Node4</title>
<path fill="none" stroke="#63b8ff" d="M106.86,-164.75C104.32,-157.65 100.64,-147.4 97.47,-138.56"/>
<polygon fill="#63b8ff" stroke="#63b8ff" points="100.75,-137.32 94.08,-129.09 94.16,-139.68 100.75,-137.32"/>
</g>
<!-- Node2&#45;&gt;Node5 -->
<g id="edge4" class="edge">
<title>Node2&#45;&gt;Node5</title>
<path fill="none" stroke="#63b8ff" d="M118.59,-164.75C126.16,-157.03 137.38,-145.6 146.51,-136.28"/>
<polygon fill="#63b8ff" stroke="#63b8ff" points="149.07,-138.68 153.57,-129.09 144.07,-133.78 149.07,-138.68"/>
</g>
<!-- Node2&#45;&gt;Node6 -->
<g id="edge5" class="edge">
<title>Node2&#45;&gt;Node6</title>
<path fill="none" stroke="#63b8ff" d="M132.33,-164.98C155.2,-156.27 190.96,-142.63 216.86,-132.75"/>
<polygon fill="#63b8ff" stroke="#63b8ff" points="218.16,-136 226.26,-129.17 215.67,-129.46 218.16,-136"/>
</g>
<!-- Node11 -->
<g id="node11" class="node">
<title>Node11</title>
<g id="a_node11"><a xlink:title=" ">
<polygon fill="#e0e0e0" stroke="#999999" points="409,-129 357,-129 357,-110 409,-110 409,-129"/>
<text text-anchor="middle" x="383" y="-117" font-family="Helvetica,sans-Serif" font-size="10.00">sstream</text>
</a>
</g>
</g>
<!-- Node10&#45;&gt;Node11 -->
<g id="edge13" class="edge">
<title>Node10&#45;&gt;Node11</title>
<path fill="none" stroke="#63b8ff" d="M440.91,-164.98C430.51,-157 414.74,-144.88 402.28,-135.31"/>
<polygon fill="#63b8ff" stroke="#63b8ff" points="404.35,-132.49 394.29,-129.17 400.09,-138.04 404.35,-132.49"/>
</g>
<!-- Node12 -->
<g id="node12" class="node">
<title>Node12</title>
<g id="a_node12"><a xlink:href="dlt_8h.html" target="_top" xlink:title=" ">
<polygon fill="white" stroke="#666666" points="476.5,-129 427.5,-129 427.5,-110 476.5,-110 476.5,-129"/>
<text text-anchor="middle" x="452" y="-117" font-family="Helvetica,sans-Serif" font-size="10.00">dlt/dlt.h</text>
</a>
</g>
</g>
<!-- Node10&#45;&gt;Node12 -->
<g id="edge14" class="edge">
<title>Node10&#45;&gt;Node12</title>
<path fill="none" stroke="#63b8ff" d="M452,-164.75C452,-157.8 452,-147.85 452,-139.13"/>
<polygon fill="#63b8ff" stroke="#63b8ff" points="455.5,-139.09 452,-129.09 448.5,-139.09 455.5,-139.09"/>
</g>
<!-- Node15 -->
<g id="node15" class="node">
<title>Node15</title>
<g id="a_node15"><a xlink:title=" ">
<polygon fill="#e0e0e0" stroke="#999999" points="555.5,-74 454.5,-74 454.5,-55 555.5,-55 555.5,-74"/>
<text text-anchor="middle" x="505" y="-62" font-family="Helvetica,sans-Serif" font-size="10.00">flutter/fml/macros.h</text>
</a>
</g>
</g>
<!-- Node10&#45;&gt;Node15 -->
<g id="edge18" class="edge">
<title>Node10&#45;&gt;Node15</title>
<path fill="none" stroke="#63b8ff" d="M460.06,-164.95C467.71,-156.43 479.02,-142.69 486,-129 493.28,-114.73 498.26,-97.2 501.29,-84.18"/>
<polygon fill="#63b8ff" stroke="#63b8ff" points="504.78,-84.6 503.46,-74.09 497.93,-83.13 504.78,-84.6"/>
</g>
<!-- Node13 -->
<g id="node13" class="node">
<title>Node13</title>
<g id="a_node13"><a xlink:href="libdlt_8h.html" target="_top" xlink:title=" ">
<polygon fill="white" stroke="#666666" points="436.5,-74 377.5,-74 377.5,-55 436.5,-55 436.5,-74"/>
<text text-anchor="middle" x="407" y="-62" font-family="Helvetica,sans-Serif" font-size="10.00">dlt/libdlt.h</text>
</a>
</g>
</g>
<!-- Node12&#45;&gt;Node13 -->
<g id="edge15" class="edge">
<title>Node12&#45;&gt;Node13</title>
<path fill="none" stroke="#63b8ff" d="M444.57,-109.75C438.15,-102.18 428.69,-91.05 420.88,-81.84"/>
<polygon fill="#63b8ff" stroke="#63b8ff" points="423.43,-79.45 414.29,-74.09 418.1,-83.98 423.43,-79.45"/>
</g>
<!-- Node12&#45;&gt;Node15 -->
<g id="edge17" class="edge">
<title>Node12&#45;&gt;Node15</title>
<path fill="none" stroke="#63b8ff" d="M460.75,-109.75C468.47,-102.03 479.9,-90.6 489.22,-81.28"/>
<polygon fill="#63b8ff" stroke="#63b8ff" points="491.81,-83.64 496.41,-74.09 486.86,-78.69 491.81,-83.64"/>
</g>
<!-- Node14 -->
<g id="node14" class="node">
<title>Node14</title>
<g id="a_node14"><a xlink:title=" ">
<polygon fill="#e0e0e0" stroke="#999999" points="430,-19 384,-19 384,0 430,0 430,-19"/>
<text text-anchor="middle" x="407" y="-7" font-family="Helvetica,sans-Serif" font-size="10.00">cstdint</text>
</a>
</g>
</g>
<!-- Node13&#45;&gt;Node14 -->
<g id="edge16" class="edge">
<title>Node13&#45;&gt;Node14</title>
<path fill="none" stroke="#63b8ff" d="M407,-54.75C407,-47.8 407,-37.85 407,-29.13"/>
<polygon fill="#63b8ff" stroke="#63b8ff" points="410.5,-29.09 407,-19.09 403.5,-29.09 410.5,-29.09"/>
</g>
</g>
</svg>
