<?xml version="1.0" encoding="UTF-8" standalone="no"?>
<!DOCTYPE svg PUBLIC "-//W3C//DTD SVG 1.1//EN"
 "http://www.w3.org/Graphics/SVG/1.1/DTD/svg11.dtd">
<!-- Generated by graphviz version 5.0.0 (0)
 -->
<!-- Title: /mnt/raid10/stargate/ivi&#45;homescreen/shell/utils.h Pages: 1 -->
<svg width="278pt" height="126pt"
 viewBox="0.00 0.00 277.50 126.00" xmlns="http://www.w3.org/2000/svg" xmlns:xlink="http://www.w3.org/1999/xlink">
<g id="graph0" class="graph" transform="scale(1 1) rotate(0) translate(4 122)">
<title>/mnt/raid10/stargate/ivi&#45;homescreen/shell/utils.h</title>
<!-- Node1 -->
<g id="node1" class="node">
<title>Node1</title>
<g id="a_node1"><a xlink:title=" ">
<polygon fill="#999999" stroke="#666666" points="181,-118 72,-118 72,-77 181,-77 181,-118"/>
<text text-anchor="start" x="80" y="-106" font-family="Helvetica,sans-Serif" font-size="10.00">/mnt/raid10/stargate</text>
<text text-anchor="start" x="80" y="-95" font-family="Helvetica,sans-Serif" font-size="10.00">/ivi&#45;homescreen/shell</text>
<text text-anchor="middle" x="126.5" y="-84" font-family="Helvetica,sans-Serif" font-size="10.00">/utils.h</text>
</a>
</g>
</g>
<!-- Node2 -->
<g id="node2" class="node">
<title>Node2</title>
<g id="a_node2"><a xlink:href="engine_8cc.html" target="_top" xlink:title=" ">
<polygon fill="white" stroke="#666666" points="109,-41 0,-41 0,0 109,0 109,-41"/>
<text text-anchor="start" x="8" y="-29" font-family="Helvetica,sans-Serif" font-size="10.00">/mnt/raid10/stargate</text>
<text text-anchor="start" x="8" y="-18" font-family="Helvetica,sans-Serif" font-size="10.00">/ivi&#45;homescreen/shell</text>
<text text-anchor="middle" x="54.5" y="-7" font-family="Helvetica,sans-Serif" font-size="10.00">/engine.cc</text>
</a>
</g>
</g>
<!-- Node1&#45;&gt;Node2 -->
<g id="edge1" class="edge">
<title>Node1&#45;&gt;Node2</title>
<path fill="none" stroke="#63b8ff" d="M100.59,-69.51C91.57,-60.11 81.63,-49.76 73.29,-41.07"/>
<polygon fill="#63b8ff" stroke="#63b8ff" points="98.13,-72 107.58,-76.79 103.18,-67.16 98.13,-72"/>
</g>
<!-- Node3 -->
<g id="node3" class="node">
<title>Node3</title>
<g id="a_node3"><a xlink:href="compositor__surface_8cc.html" target="_top" xlink:title=" ">
<polygon fill="white" stroke="#666666" points="269.5,-41 127.5,-41 127.5,0 269.5,0 269.5,-41"/>
<text text-anchor="start" x="135.5" y="-29" font-family="Helvetica,sans-Serif" font-size="10.00">/mnt/raid10/stargate</text>
<text text-anchor="start" x="135.5" y="-18" font-family="Helvetica,sans-Serif" font-size="10.00">/ivi&#45;homescreen/shell</text>
<text text-anchor="middle" x="198.5" y="-7" font-family="Helvetica,sans-Serif" font-size="10.00">/view/compositor_surface.cc</text>
</a>
</g>
</g>
<!-- Node1&#45;&gt;Node3 -->
<g id="edge2" class="edge">
<title>Node1&#45;&gt;Node3</title>
<path fill="none" stroke="#63b8ff" d="M152.41,-69.51C161.43,-60.11 171.37,-49.76 179.71,-41.07"/>
<polygon fill="#63b8ff" stroke="#63b8ff" points="149.82,-67.16 145.42,-76.79 154.87,-72 149.82,-67.16"/>
</g>
</g>
</svg>
