<?xml version="1.0" encoding="UTF-8" standalone="no"?>
<!DOCTYPE svg PUBLIC "-//W3C//DTD SVG 1.1//EN"
 "http://www.w3.org/Graphics/SVG/1.1/DTD/svg11.dtd">
<!-- Generated by graphviz version 5.0.0 (0)
 -->
<!-- Title: /mnt/raid10/stargate/ivi&#45;homescreen/shell/utils.h Pages: 1 -->
<svg width="693pt" height="170pt"
 viewBox="0.00 0.00 693.00 170.00" xmlns="http://www.w3.org/2000/svg" xmlns:xlink="http://www.w3.org/1999/xlink">
<g id="graph0" class="graph" transform="scale(1 1) rotate(0) translate(4 166)">
<title>/mnt/raid10/stargate/ivi&#45;homescreen/shell/utils.h</title>
<!-- Node1 -->
<g id="node1" class="node">
<title>Node1</title>
<g id="a_node1"><a xlink:title=" ">
<polygon fill="#999999" stroke="#666666" points="352.5,-162 243.5,-162 243.5,-121 352.5,-121 352.5,-162"/>
<text text-anchor="start" x="251.5" y="-150" font-family="Helvetica,sans-Serif" font-size="10.00">/mnt/raid10/stargate</text>
<text text-anchor="start" x="251.5" y="-139" font-family="Helvetica,sans-Serif" font-size="10.00">/ivi&#45;homescreen/shell</text>
<text text-anchor="middle" x="298" y="-128" font-family="Helvetica,sans-Serif" font-size="10.00">/utils.h</text>
</a>
</g>
</g>
<!-- Node2 -->
<g id="node2" class="node">
<title>Node2</title>
<g id="a_node2"><a xlink:title=" ">
<polygon fill="#e0e0e0" stroke="#999999" points="56,-85 0,-85 0,-66 56,-66 56,-85"/>
<text text-anchor="middle" x="28" y="-73" font-family="Helvetica,sans-Serif" font-size="10.00">algorithm</text>
</a>
</g>
</g>
<!-- Node1&#45;&gt;Node2 -->
<g id="edge1" class="edge">
<title>Node1&#45;&gt;Node2</title>
<path fill="none" stroke="#63b8ff" d="M243.36,-127.55C190.64,-115.05 112.22,-96.46 65.98,-85.5"/>
<polygon fill="#63b8ff" stroke="#63b8ff" points="66.61,-82.05 56.07,-83.15 64.99,-88.87 66.61,-82.05"/>
</g>
<!-- Node3 -->
<g id="node3" class="node">
<title>Node3</title>
<g id="a_node3"><a xlink:title=" ">
<polygon fill="#e0e0e0" stroke="#999999" points="120,-85 74,-85 74,-66 120,-66 120,-85"/>
<text text-anchor="middle" x="97" y="-73" font-family="Helvetica,sans-Serif" font-size="10.00">cctype</text>
</a>
</g>
</g>
<!-- Node1&#45;&gt;Node3 -->
<g id="edge2" class="edge">
<title>Node1&#45;&gt;Node3</title>
<path fill="none" stroke="#63b8ff" d="M243.34,-123.1C207.1,-111.56 160.74,-96.79 130.01,-87.01"/>
<polygon fill="#63b8ff" stroke="#63b8ff" points="130.82,-83.6 120.23,-83.9 128.7,-90.27 130.82,-83.6"/>
</g>
<!-- Node4 -->
<g id="node4" class="node">
<title>Node4</title>
<g id="a_node4"><a xlink:title=" ">
<polygon fill="#e0e0e0" stroke="#999999" points="197.5,-85 138.5,-85 138.5,-66 197.5,-66 197.5,-85"/>
<text text-anchor="middle" x="168" y="-73" font-family="Helvetica,sans-Serif" font-size="10.00">functional</text>
</a>
</g>
</g>
<!-- Node1&#45;&gt;Node4 -->
<g id="edge3" class="edge">
<title>Node1&#45;&gt;Node4</title>
<path fill="none" stroke="#63b8ff" d="M258.29,-120.95C237.66,-110.79 212.99,-98.65 194.66,-89.63"/>
<polygon fill="#63b8ff" stroke="#63b8ff" points="195.97,-86.37 185.45,-85.09 192.88,-92.65 195.97,-86.37"/>
</g>
<!-- Node5 -->
<g id="node5" class="node">
<title>Node5</title>
<g id="a_node5"><a xlink:title=" ">
<polygon fill="#e0e0e0" stroke="#999999" points="258,-85 216,-85 216,-66 258,-66 258,-85"/>
<text text-anchor="middle" x="237" y="-73" font-family="Helvetica,sans-Serif" font-size="10.00">locale</text>
</a>
</g>
</g>
<!-- Node1&#45;&gt;Node5 -->
<g id="edge4" class="edge">
<title>Node1&#45;&gt;Node5</title>
<path fill="none" stroke="#63b8ff" d="M279.37,-120.95C270.76,-111.92 260.67,-101.33 252.49,-92.75"/>
<polygon fill="#63b8ff" stroke="#63b8ff" points="254.78,-90.08 245.35,-85.26 249.72,-94.91 254.78,-90.08"/>
</g>
<!-- Node6 -->
<g id="node6" class="node">
<title>Node6</title>
<g id="a_node6"><a xlink:title=" ">
<polygon fill="#e0e0e0" stroke="#999999" points="319.5,-85 276.5,-85 276.5,-66 319.5,-66 319.5,-85"/>
<text text-anchor="middle" x="298" y="-73" font-family="Helvetica,sans-Serif" font-size="10.00">pwd.h</text>
</a>
</g>
</g>
<!-- Node1&#45;&gt;Node6 -->
<g id="edge5" class="edge">
<title>Node1&#45;&gt;Node6</title>
<path fill="none" stroke="#63b8ff" d="M298,-120.95C298,-112.85 298,-103.5 298,-95.47"/>
<polygon fill="#63b8ff" stroke="#63b8ff" points="301.5,-95.26 298,-85.26 294.5,-95.26 301.5,-95.26"/>
</g>
<!-- Node7 -->
<g id="node7" class="node">
<title>Node7</title>
<g id="a_node7"><a xlink:title=" ">
<polygon fill="#e0e0e0" stroke="#999999" points="388.5,-85 337.5,-85 337.5,-66 388.5,-66 388.5,-85"/>
<text text-anchor="middle" x="363" y="-73" font-family="Helvetica,sans-Serif" font-size="10.00">unistd.h</text>
</a>
</g>
</g>
<!-- Node1&#45;&gt;Node7 -->
<g id="edge6" class="edge">
<title>Node1&#45;&gt;Node7</title>
<path fill="none" stroke="#63b8ff" d="M317.86,-120.95C327.12,-111.83 338,-101.11 346.76,-92.49"/>
<polygon fill="#63b8ff" stroke="#63b8ff" points="349.43,-94.77 354.1,-85.26 344.52,-89.78 349.43,-94.77"/>
</g>
<!-- Node8 -->
<g id="node8" class="node">
<title>Node8</title>
<g id="a_node8"><a xlink:title=" ">
<polygon fill="#e0e0e0" stroke="#999999" points="451.5,-85 406.5,-85 406.5,-66 451.5,-66 451.5,-85"/>
<text text-anchor="middle" x="429" y="-73" font-family="Helvetica,sans-Serif" font-size="10.00">cstdlib</text>
</a>
</g>
</g>
<!-- Node1&#45;&gt;Node8 -->
<g id="edge7" class="edge">
<title>Node1&#45;&gt;Node8</title>
<path fill="none" stroke="#63b8ff" d="M338.02,-120.95C358.9,-110.75 383.89,-98.54 402.39,-89.5"/>
<polygon fill="#63b8ff" stroke="#63b8ff" points="403.96,-92.63 411.41,-85.09 400.89,-86.34 403.96,-92.63"/>
</g>
<!-- Node9 -->
<g id="node9" class="node">
<title>Node9</title>
<g id="a_node9"><a xlink:title=" ">
<polygon fill="#e0e0e0" stroke="#999999" points="516,-85 470,-85 470,-66 516,-66 516,-85"/>
<text text-anchor="middle" x="493" y="-73" font-family="Helvetica,sans-Serif" font-size="10.00">cstring</text>
</a>
</g>
</g>
<!-- Node1&#45;&gt;Node9 -->
<g id="edge8" class="edge">
<title>Node1&#45;&gt;Node9</title>
<path fill="none" stroke="#63b8ff" d="M352.58,-122.59C387.15,-111.24 430.71,-96.94 460.08,-87.31"/>
<polygon fill="#63b8ff" stroke="#63b8ff" points="461.42,-90.55 469.83,-84.1 459.24,-83.9 461.42,-90.55"/>
</g>
<!-- Node10 -->
<g id="node10" class="node">
<title>Node10</title>
<g id="a_node10"><a xlink:href="constants_8h.html" target="_top" xlink:title=" ">
<polygon fill="white" stroke="#666666" points="602,-85 534,-85 534,-66 602,-66 602,-85"/>
<text text-anchor="middle" x="568" y="-73" font-family="Helvetica,sans-Serif" font-size="10.00">constants.h</text>
</a>
</g>
</g>
<!-- Node1&#45;&gt;Node10 -->
<g id="edge9" class="edge">
<title>Node1&#45;&gt;Node10</title>
<path fill="none" stroke="#63b8ff" d="M352.64,-127.55C403.17,-115.57 477.32,-97.99 524.11,-86.9"/>
<polygon fill="#63b8ff" stroke="#63b8ff" points="525.02,-90.29 533.94,-84.57 523.4,-83.47 525.02,-90.29"/>
</g>
<!-- Node11 -->
<g id="node11" class="node">
<title>Node11</title>
<g id="a_node11"><a xlink:title=" ">
<polygon fill="#e0e0e0" stroke="#999999" points="489,-24.5 429,-24.5 429,-5.5 489,-5.5 489,-24.5"/>
<text text-anchor="middle" x="459" y="-12.5" font-family="Helvetica,sans-Serif" font-size="10.00">EGL/egl.h</text>
</a>
</g>
</g>
<!-- Node10&#45;&gt;Node11 -->
<g id="edge10" class="edge">
<title>Node10&#45;&gt;Node11</title>
<path fill="none" stroke="#63b8ff" d="M551.92,-65.87C534.05,-56.28 504.96,-40.67 484.09,-29.47"/>
<polygon fill="#63b8ff" stroke="#63b8ff" points="485.62,-26.31 475.15,-24.67 482.31,-32.48 485.62,-26.31"/>
</g>
<!-- Node12 -->
<g id="node12" class="node">
<title>Node12</title>
<g id="a_node12"><a xlink:title=" ">
<polygon fill="#e0e0e0" stroke="#999999" points="628.5,-30 507.5,-30 507.5,0 628.5,0 628.5,-30"/>
<text text-anchor="start" x="515.5" y="-18" font-family="Helvetica,sans-Serif" font-size="10.00">shell/platform/embedder</text>
<text text-anchor="middle" x="568" y="-7" font-family="Helvetica,sans-Serif" font-size="10.00">/embedder.h</text>
</a>
</g>
</g>
<!-- Node10&#45;&gt;Node12 -->
<g id="edge11" class="edge">
<title>Node10&#45;&gt;Node12</title>
<path fill="none" stroke="#63b8ff" d="M568,-65.87C568,-59.11 568,-49.35 568,-40.26"/>
<polygon fill="#63b8ff" stroke="#63b8ff" points="571.5,-40.11 568,-30.11 564.5,-40.11 571.5,-40.11"/>
</g>
<!-- Node13 -->
<g id="node13" class="node">
<title>Node13</title>
<g id="a_node13"><a xlink:title=" ">
<polygon fill="#e0e0e0" stroke="#999999" points="685,-24.5 647,-24.5 647,-5.5 685,-5.5 685,-24.5"/>
<text text-anchor="middle" x="666" y="-12.5" font-family="Helvetica,sans-Serif" font-size="10.00">array</text>
</a>
</g>
</g>
<!-- Node10&#45;&gt;Node13 -->
<g id="edge12" class="edge">
<title>Node10&#45;&gt;Node13</title>
<path fill="none" stroke="#63b8ff" d="M582.46,-65.87C598.31,-56.41 623.97,-41.09 642.68,-29.92"/>
<polygon fill="#63b8ff" stroke="#63b8ff" points="644.69,-32.8 651.48,-24.67 641.1,-26.79 644.69,-32.8"/>
</g>
</g>
</svg>
