<?xml version="1.0" encoding="UTF-8" standalone="no"?>
<!DOCTYPE svg PUBLIC "-//W3C//DTD SVG 1.1//EN"
 "http://www.w3.org/Graphics/SVG/1.1/DTD/svg11.dtd">
<!-- Generated by graphviz version 2.43.0 (0)
 -->
<!-- Title: /home/joel.winarske@toyotaconnected.com/development/workspace&#45;automation&#45;configs/app/ivi&#45;homescreen/shell/utils.h Pages: 1 -->
<svg width="745pt" height="195pt"
 viewBox="0.00 0.00 745.00 195.00" xmlns="http://www.w3.org/2000/svg" xmlns:xlink="http://www.w3.org/1999/xlink">
<g id="graph0" class="graph" transform="scale(1 1) rotate(0) translate(4 191)">
<title>/home/joel.winarske@toyotaconnected.com/development/workspace&#45;automation&#45;configs/app/ivi&#45;homescreen/shell/utils.h</title>
<polygon fill="white" stroke="transparent" points="-4,4 -4,-191 741,-191 741,4 -4,4"/>
<!-- Node1 -->
<g id="node1" class="node">
<title>Node1</title>
<g id="a_node1"><a xlink:title=" ">
<polygon fill="#bfbfbf" stroke="black" points="242.5,-123.5 242.5,-186.5 397.5,-186.5 397.5,-123.5 242.5,-123.5"/>
<text text-anchor="start" x="250.5" y="-174.5" font-family="Helvetica,sans-Serif" font-size="10.00">/home/joel.winarske</text>
<text text-anchor="start" x="250.5" y="-163.5" font-family="Helvetica,sans-Serif" font-size="10.00">@toyotaconnected.com</text>
<text text-anchor="start" x="250.5" y="-152.5" font-family="Helvetica,sans-Serif" font-size="10.00">/development/workspace</text>
<text text-anchor="start" x="250.5" y="-141.5" font-family="Helvetica,sans-Serif" font-size="10.00">&#45;automation&#45;configs/app</text>
<text text-anchor="middle" x="320" y="-130.5" font-family="Helvetica,sans-Serif" font-size="10.00">/ivi&#45;homescreen/shell/utils.h</text>
</a>
</g>
</g>
<!-- Node2 -->
<g id="node2" class="node">
<title>Node2</title>
<g id="a_node2"><a xlink:title=" ">
<polygon fill="white" stroke="#bfbfbf" points="0,-67.5 0,-86.5 64,-86.5 64,-67.5 0,-67.5"/>
<text text-anchor="middle" x="32" y="-74.5" font-family="Helvetica,sans-Serif" font-size="10.00">algorithm</text>
</a>
</g>
</g>
<!-- Node1&#45;&gt;Node2 -->
<g id="edge1" class="edge">
<title>Node1&#45;&gt;Node2</title>
<path fill="none" stroke="midnightblue" d="M242.44,-133.53C188.34,-119.26 118.22,-100.75 74.16,-89.13"/>
<polygon fill="midnightblue" stroke="midnightblue" points="74.92,-85.71 64.36,-86.54 73.13,-92.47 74.92,-85.71"/>
</g>
<!-- Node3 -->
<g id="node3" class="node">
<title>Node3</title>
<g id="a_node3"><a xlink:title=" ">
<polygon fill="white" stroke="#bfbfbf" points="82.5,-67.5 82.5,-86.5 131.5,-86.5 131.5,-67.5 82.5,-67.5"/>
<text text-anchor="middle" x="107" y="-74.5" font-family="Helvetica,sans-Serif" font-size="10.00">cctype</text>
</a>
</g>
</g>
<!-- Node1&#45;&gt;Node3 -->
<g id="edge2" class="edge">
<title>Node1&#45;&gt;Node3</title>
<path fill="none" stroke="midnightblue" d="M242.5,-126.35C207.33,-113.8 167.59,-99.62 140.29,-89.88"/>
<polygon fill="midnightblue" stroke="midnightblue" points="141.42,-86.56 130.82,-86.5 139.07,-93.16 141.42,-86.56"/>
</g>
<!-- Node4 -->
<g id="node4" class="node">
<title>Node4</title>
<g id="a_node4"><a xlink:title=" ">
<polygon fill="white" stroke="#bfbfbf" points="149.5,-67.5 149.5,-86.5 214.5,-86.5 214.5,-67.5 149.5,-67.5"/>
<text text-anchor="middle" x="182" y="-74.5" font-family="Helvetica,sans-Serif" font-size="10.00">functional</text>
</a>
</g>
</g>
<!-- Node1&#45;&gt;Node4 -->
<g id="edge3" class="edge">
<title>Node1&#45;&gt;Node4</title>
<path fill="none" stroke="midnightblue" d="M264.27,-123.31C244.32,-112.32 222.84,-100.49 206.83,-91.67"/>
<polygon fill="midnightblue" stroke="midnightblue" points="208.08,-88.36 197.63,-86.61 204.7,-94.5 208.08,-88.36"/>
</g>
<!-- Node5 -->
<g id="node5" class="node">
<title>Node5</title>
<g id="a_node5"><a xlink:title=" ">
<polygon fill="white" stroke="#bfbfbf" points="233,-67.5 233,-86.5 279,-86.5 279,-67.5 233,-67.5"/>
<text text-anchor="middle" x="256" y="-74.5" font-family="Helvetica,sans-Serif" font-size="10.00">locale</text>
</a>
</g>
</g>
<!-- Node1&#45;&gt;Node5 -->
<g id="edge4" class="edge">
<title>Node1&#45;&gt;Node5</title>
<path fill="none" stroke="midnightblue" d="M293.97,-123.09C285.75,-113.33 276.99,-102.92 269.95,-94.57"/>
<polygon fill="midnightblue" stroke="midnightblue" points="272.46,-92.11 263.34,-86.72 267.11,-96.62 272.46,-92.11"/>
</g>
<!-- Node6 -->
<g id="node6" class="node">
<title>Node6</title>
<g id="a_node6"><a xlink:title=" ">
<polygon fill="white" stroke="#bfbfbf" points="297,-67.5 297,-86.5 343,-86.5 343,-67.5 297,-67.5"/>
<text text-anchor="middle" x="320" y="-74.5" font-family="Helvetica,sans-Serif" font-size="10.00">pwd.h</text>
</a>
</g>
</g>
<!-- Node1&#45;&gt;Node6 -->
<g id="edge5" class="edge">
<title>Node1&#45;&gt;Node6</title>
<path fill="none" stroke="midnightblue" d="M320,-123.09C320,-114.15 320,-104.67 320,-96.72"/>
<polygon fill="midnightblue" stroke="midnightblue" points="323.5,-96.72 320,-86.72 316.5,-96.72 323.5,-96.72"/>
</g>
<!-- Node7 -->
<g id="node7" class="node">
<title>Node7</title>
<g id="a_node7"><a xlink:title=" ">
<polygon fill="white" stroke="#bfbfbf" points="361,-67.5 361,-86.5 417,-86.5 417,-67.5 361,-67.5"/>
<text text-anchor="middle" x="389" y="-74.5" font-family="Helvetica,sans-Serif" font-size="10.00">unistd.h</text>
</a>
</g>
</g>
<!-- Node1&#45;&gt;Node7 -->
<g id="edge6" class="edge">
<title>Node1&#45;&gt;Node7</title>
<path fill="none" stroke="midnightblue" d="M348.06,-123.09C357.02,-113.22 366.57,-102.7 374.2,-94.3"/>
<polygon fill="midnightblue" stroke="midnightblue" points="376.95,-96.47 381.08,-86.72 371.77,-91.77 376.95,-96.47"/>
</g>
<!-- Node8 -->
<g id="node8" class="node">
<title>Node8</title>
<g id="a_node8"><a xlink:title=" ">
<polygon fill="white" stroke="#bfbfbf" points="435.5,-67.5 435.5,-86.5 484.5,-86.5 484.5,-67.5 435.5,-67.5"/>
<text text-anchor="middle" x="460" y="-74.5" font-family="Helvetica,sans-Serif" font-size="10.00">cstdlib</text>
</a>
</g>
</g>
<!-- Node1&#45;&gt;Node8 -->
<g id="edge7" class="edge">
<title>Node1&#45;&gt;Node8</title>
<path fill="none" stroke="midnightblue" d="M376.54,-123.31C396.97,-112.22 418.98,-100.27 435.27,-91.42"/>
<polygon fill="midnightblue" stroke="midnightblue" points="437.03,-94.45 444.15,-86.61 433.69,-88.3 437.03,-94.45"/>
</g>
<!-- Node9 -->
<g id="node9" class="node">
<title>Node9</title>
<g id="a_node9"><a xlink:title=" ">
<polygon fill="white" stroke="#bfbfbf" points="503,-67.5 503,-86.5 553,-86.5 553,-67.5 503,-67.5"/>
<text text-anchor="middle" x="528" y="-74.5" font-family="Helvetica,sans-Serif" font-size="10.00">cstring</text>
</a>
</g>
</g>
<!-- Node1&#45;&gt;Node9 -->
<g id="edge8" class="edge">
<title>Node1&#45;&gt;Node9</title>
<path fill="none" stroke="midnightblue" d="M397.75,-125.59C431.31,-113.33 468.77,-99.64 494.87,-90.1"/>
<polygon fill="midnightblue" stroke="midnightblue" points="496.1,-93.38 504.29,-86.66 493.69,-86.81 496.1,-93.38"/>
</g>
<!-- Node10 -->
<g id="node10" class="node">
<title>Node10</title>
<g id="a_node10"><a xlink:href="constants_8h.html" target="_top" xlink:title=" ">
<polygon fill="white" stroke="black" points="571.5,-67.5 571.5,-86.5 644.5,-86.5 644.5,-67.5 571.5,-67.5"/>
<text text-anchor="middle" x="608" y="-74.5" font-family="Helvetica,sans-Serif" font-size="10.00">constants.h</text>
</a>
</g>
</g>
<!-- Node1&#45;&gt;Node10 -->
<g id="edge9" class="edge">
<title>Node1&#45;&gt;Node10</title>
<path fill="none" stroke="midnightblue" d="M397.56,-133.53C451.66,-119.26 521.78,-100.75 565.84,-89.13"/>
<polygon fill="midnightblue" stroke="midnightblue" points="566.87,-92.47 575.64,-86.54 565.08,-85.71 566.87,-92.47"/>
</g>
<!-- Node11 -->
<g id="node11" class="node">
<title>Node11</title>
<g id="a_node11"><a xlink:title=" ">
<polygon fill="white" stroke="#bfbfbf" points="459,-6 459,-25 521,-25 521,-6 459,-6"/>
<text text-anchor="middle" x="490" y="-13" font-family="Helvetica,sans-Serif" font-size="10.00">EGL/egl.h</text>
</a>
</g>
</g>
<!-- Node10&#45;&gt;Node11 -->
<g id="edge10" class="edge">
<title>Node10&#45;&gt;Node11</title>
<path fill="none" stroke="midnightblue" d="M591.09,-67.48C571.47,-57.58 538.87,-41.14 516.01,-29.62"/>
<polygon fill="midnightblue" stroke="midnightblue" points="517.38,-26.39 506.88,-25.01 514.23,-32.64 517.38,-26.39"/>
</g>
<!-- Node12 -->
<g id="node12" class="node">
<title>Node12</title>
<g id="a_node12"><a xlink:title=" ">
<polygon fill="white" stroke="#bfbfbf" points="539.5,-0.5 539.5,-30.5 676.5,-30.5 676.5,-0.5 539.5,-0.5"/>
<text text-anchor="start" x="547.5" y="-18.5" font-family="Helvetica,sans-Serif" font-size="10.00">shell/platform/embedder</text>
<text text-anchor="middle" x="608" y="-7.5" font-family="Helvetica,sans-Serif" font-size="10.00">/embedder.h</text>
</a>
</g>
</g>
<!-- Node10&#45;&gt;Node12 -->
<g id="edge11" class="edge">
<title>Node10&#45;&gt;Node12</title>
<path fill="none" stroke="midnightblue" d="M608,-67.48C608,-60.47 608,-50.19 608,-40.7"/>
<polygon fill="midnightblue" stroke="midnightblue" points="611.5,-40.52 608,-30.52 604.5,-40.52 611.5,-40.52"/>
</g>
<!-- Node13 -->
<g id="node13" class="node">
<title>Node13</title>
<g id="a_node13"><a xlink:title=" ">
<polygon fill="white" stroke="#bfbfbf" points="695,-6 695,-25 737,-25 737,-6 695,-6"/>
<text text-anchor="middle" x="716" y="-13" font-family="Helvetica,sans-Serif" font-size="10.00">array</text>
</a>
</g>
</g>
<!-- Node10&#45;&gt;Node13 -->
<g id="edge12" class="edge">
<title>Node10&#45;&gt;Node13</title>
<path fill="none" stroke="midnightblue" d="M623.47,-67.48C641.28,-57.67 670.74,-41.43 691.63,-29.92"/>
<polygon fill="midnightblue" stroke="midnightblue" points="693.49,-32.9 700.55,-25.01 690.11,-26.77 693.49,-32.9"/>
</g>
</g>
</svg>
