<?xml version="1.0" encoding="UTF-8" standalone="no"?>
<!DOCTYPE svg PUBLIC "-//W3C//DTD SVG 1.1//EN"
 "http://www.w3.org/Graphics/SVG/1.1/DTD/svg11.dtd">
<!-- Generated by graphviz version 5.0.0 (0)
 -->
<!-- Title: /mnt/raid10/stargate/ivi&#45;homescreen/shell/backend/wayland_vulkan.cc Pages: 1 -->
<svg width="2876pt" height="467pt"
 viewBox="0.00 0.00 2876.00 467.00" xmlns="http://www.w3.org/2000/svg" xmlns:xlink="http://www.w3.org/1999/xlink">
<g id="graph0" class="graph" transform="scale(1 1) rotate(0) translate(4 463)">
<title>/mnt/raid10/stargate/ivi&#45;homescreen/shell/backend/wayland_vulkan.cc</title>
<!-- Node1 -->
<g id="node1" class="node">
<title>Node1</title>
<g id="a_node1"><a xlink:title=" ">
<polygon fill="#999999" stroke="#666666" points="2721.5,-459 2578.5,-459 2578.5,-418 2721.5,-418 2721.5,-459"/>
<text text-anchor="start" x="2586.5" y="-447" font-family="Helvetica,sans-Serif" font-size="10.00">/mnt/raid10/stargate</text>
<text text-anchor="start" x="2586.5" y="-436" font-family="Helvetica,sans-Serif" font-size="10.00">/ivi&#45;homescreen/shell</text>
<text text-anchor="middle" x="2650" y="-425" font-family="Helvetica,sans-Serif" font-size="10.00">/backend/wayland_vulkan.cc</text>
</a>
</g>
</g>
<!-- Node2 -->
<g id="node2" class="node">
<title>Node2</title>
<g id="a_node2"><a xlink:href="wayland__vulkan_8h.html" target="_top" xlink:title=" ">
<polygon fill="white" stroke="#666666" points="2586.5,-382 2491.5,-382 2491.5,-363 2586.5,-363 2586.5,-382"/>
<text text-anchor="middle" x="2539" y="-370" font-family="Helvetica,sans-Serif" font-size="10.00">wayland_vulkan.h</text>
</a>
</g>
</g>
<!-- Node1&#45;&gt;Node2 -->
<g id="edge1" class="edge">
<title>Node1&#45;&gt;Node2</title>
<path fill="none" stroke="#63b8ff" d="M2616.09,-417.95C2598.88,-408.03 2578.39,-396.21 2562.86,-387.25"/>
<polygon fill="#63b8ff" stroke="#63b8ff" points="2564.31,-384.05 2553.9,-382.09 2560.82,-390.12 2564.31,-384.05"/>
</g>
<!-- Node7 -->
<g id="node7" class="node">
<title>Node7</title>
<g id="a_node7"><a xlink:href="constants_8h.html" target="_top" xlink:title=" ">
<polygon fill="white" stroke="#666666" points="333,-90.5 265,-90.5 265,-71.5 333,-71.5 333,-90.5"/>
<text text-anchor="middle" x="299" y="-78.5" font-family="Helvetica,sans-Serif" font-size="10.00">constants.h</text>
</a>
</g>
</g>
<!-- Node1&#45;&gt;Node7 -->
<g id="edge87" class="edge">
<title>Node1&#45;&gt;Node7</title>
<path fill="none" stroke="#63b8ff" d="M2578.35,-437.61C2190.63,-437.74 361,-432.35 361,-318.5 361,-318.5 361,-318.5 361,-206.5 361,-164.08 331.8,-121.25 313.48,-98.55"/>
<polygon fill="#63b8ff" stroke="#63b8ff" points="315.95,-96.05 306.85,-90.62 310.58,-100.54 315.95,-96.05"/>
</g>
<!-- Node10 -->
<g id="node10" class="node">
<title>Node10</title>
<g id="a_node10"><a xlink:href="engine_8h.html" target="_top" xlink:title=" ">
<polygon fill="white" stroke="#666666" points="1947.5,-272 1894.5,-272 1894.5,-253 1947.5,-253 1947.5,-272"/>
<text text-anchor="middle" x="1921" y="-260" font-family="Helvetica,sans-Serif" font-size="10.00">engine.h</text>
</a>
</g>
</g>
<!-- Node1&#45;&gt;Node10 -->
<g id="edge88" class="edge">
<title>Node1&#45;&gt;Node10</title>
<path fill="none" stroke="#63b8ff" d="M2578.27,-427.54C2470.21,-411.62 2259.78,-377.05 2086,-327 2036.82,-312.83 1981.7,-290.18 1949.25,-276.11"/>
<polygon fill="#63b8ff" stroke="#63b8ff" points="1950.5,-272.84 1939.93,-272.03 1947.69,-279.25 1950.5,-272.84"/>
</g>
<!-- Node18 -->
<g id="node18" class="node">
<title>Node18</title>
<g id="a_node18"><a xlink:title=" ">
<polygon fill="#e0e0e0" stroke="#999999" points="2545.5,-217 2502.5,-217 2502.5,-198 2545.5,-198 2545.5,-217"/>
<text text-anchor="middle" x="2524" y="-205" font-family="Helvetica,sans-Serif" font-size="10.00">queue</text>
</a>
</g>
</g>
<!-- Node1&#45;&gt;Node18 -->
<g id="edge86" class="edge">
<title>Node1&#45;&gt;Node18</title>
<path fill="none" stroke="#63b8ff" d="M2651.04,-417.84C2651.6,-391.34 2649.6,-343.41 2631,-308 2611.35,-270.6 2571.98,-239.75 2546.87,-222.76"/>
<polygon fill="#63b8ff" stroke="#63b8ff" points="2548.6,-219.71 2538.32,-217.14 2544.75,-225.56 2548.6,-219.71"/>
</g>
<!-- Node40 -->
<g id="node40" class="node">
<title>Node40</title>
<g id="a_node40"><a xlink:title=" ">
<polygon fill="#e0e0e0" stroke="#999999" points="2765.5,-90.5 2716.5,-90.5 2716.5,-71.5 2765.5,-71.5 2765.5,-90.5"/>
<text text-anchor="middle" x="2741" y="-78.5" font-family="Helvetica,sans-Serif" font-size="10.00">cassert</text>
</a>
</g>
</g>
<!-- Node1&#45;&gt;Node40 -->
<g id="edge83" class="edge">
<title>Node1&#45;&gt;Node40</title>
<path fill="none" stroke="#63b8ff" d="M2672.8,-417.62C2695.19,-395.78 2726,-358.46 2726,-318.5 2726,-318.5 2726,-318.5 2726,-206.5 2726,-168.72 2732.89,-124.96 2737.33,-100.68"/>
<polygon fill="#63b8ff" stroke="#63b8ff" points="2740.8,-101.19 2739.22,-90.71 2733.92,-99.88 2740.8,-101.19"/>
</g>
<!-- Node46 -->
<g id="node46" class="node">
<title>Node46</title>
<g id="a_node46"><a xlink:title=" ">
<polygon fill="#e0e0e0" stroke="#999999" points="2799.5,-382 2754.5,-382 2754.5,-363 2799.5,-363 2799.5,-382"/>
<text text-anchor="middle" x="2777" y="-370" font-family="Helvetica,sans-Serif" font-size="10.00">cstdlib</text>
</a>
</g>
</g>
<!-- Node1&#45;&gt;Node46 -->
<g id="edge84" class="edge">
<title>Node1&#45;&gt;Node46</title>
<path fill="none" stroke="#63b8ff" d="M2688.79,-417.95C2708.86,-407.84 2732.82,-395.76 2750.7,-386.75"/>
<polygon fill="#63b8ff" stroke="#63b8ff" points="2752.6,-389.72 2759.95,-382.09 2749.45,-383.47 2752.6,-389.72"/>
</g>
<!-- Node47 -->
<g id="node47" class="node">
<title>Node47</title>
<g id="a_node47"><a xlink:title=" ">
<polygon fill="#e0e0e0" stroke="#999999" points="2868,-382 2818,-382 2818,-363 2868,-363 2868,-382"/>
<text text-anchor="middle" x="2843" y="-370" font-family="Helvetica,sans-Serif" font-size="10.00">optional</text>
</a>
</g>
</g>
<!-- Node1&#45;&gt;Node47 -->
<g id="edge85" class="edge">
<title>Node1&#45;&gt;Node47</title>
<path fill="none" stroke="#63b8ff" d="M2708.96,-417.95C2741.34,-407.21 2780.41,-394.26 2807.99,-385.11"/>
<polygon fill="#63b8ff" stroke="#63b8ff" points="2809.2,-388.39 2817.59,-381.92 2807,-381.75 2809.2,-388.39"/>
</g>
<!-- Node3 -->
<g id="node3" class="node">
<title>Node3</title>
<g id="a_node3"><a xlink:title=" ">
<polygon fill="#e0e0e0" stroke="#999999" points="46,-24.5 0,-24.5 0,-5.5 46,-5.5 46,-24.5"/>
<text text-anchor="middle" x="23" y="-12.5" font-family="Helvetica,sans-Serif" font-size="10.00">cstdint</text>
</a>
</g>
</g>
<!-- Node2&#45;&gt;Node3 -->
<g id="edge2" class="edge">
<title>Node2&#45;&gt;Node3</title>
<path fill="none" stroke="#63b8ff" d="M2491.4,-370.76C2143.1,-365.19 1,-328.33 1,-263.5 1,-263.5 1,-263.5 1,-146 1,-105.9 11.3,-59.81 17.81,-34.7"/>
<polygon fill="#63b8ff" stroke="#63b8ff" points="21.27,-35.31 20.48,-24.74 14.51,-33.49 21.27,-35.31"/>
</g>
<!-- Node4 -->
<g id="node4" class="node">
<title>Node4</title>
<g id="a_node4"><a xlink:title=" ">
<polygon fill="#e0e0e0" stroke="#999999" points="2584,-90.5 2540,-90.5 2540,-71.5 2584,-71.5 2584,-90.5"/>
<text text-anchor="middle" x="2562" y="-78.5" font-family="Helvetica,sans-Serif" font-size="10.00">vector</text>
</a>
</g>
</g>
<!-- Node2&#45;&gt;Node4 -->
<g id="edge3" class="edge">
<title>Node2&#45;&gt;Node4</title>
<path fill="none" stroke="#63b8ff" d="M2534.75,-362.95C2529.24,-350.82 2520.7,-327.89 2524,-308 2530.98,-265.85 2546.93,-258.96 2555,-217 2562.88,-176.05 2563.19,-126.9 2562.65,-100.67"/>
<polygon fill="#63b8ff" stroke="#63b8ff" points="2566.14,-100.53 2562.37,-90.63 2559.15,-100.72 2566.14,-100.53"/>
</g>
<!-- Node5 -->
<g id="node5" class="node">
<title>Node5</title>
<g id="a_node5"><a xlink:title=" ">
<polygon fill="#e0e0e0" stroke="#999999" points="2026.5,-30 1905.5,-30 1905.5,0 2026.5,0 2026.5,-30"/>
<text text-anchor="start" x="1913.5" y="-18" font-family="Helvetica,sans-Serif" font-size="10.00">shell/platform/embedder</text>
<text text-anchor="middle" x="1966" y="-7" font-family="Helvetica,sans-Serif" font-size="10.00">/embedder.h</text>
</a>
</g>
</g>
<!-- Node2&#45;&gt;Node5 -->
<g id="edge4" class="edge">
<title>Node2&#45;&gt;Node5</title>
<path fill="none" stroke="#63b8ff" d="M2573.56,-362.92C2617.57,-349.69 2688,-319.73 2688,-263.5 2688,-263.5 2688,-263.5 2688,-146 2688,-101.56 2666.98,-87.36 2628,-66 2577.16,-38.14 2197.29,-23.19 2037.01,-18.06"/>
<polygon fill="#63b8ff" stroke="#63b8ff" points="2036.88,-14.56 2026.78,-17.74 2036.66,-21.55 2036.88,-14.56"/>
</g>
<!-- Node6 -->
<g id="node6" class="node">
<title>Node6</title>
<g id="a_node6"><a xlink:href="backend_8h.html" target="_top" xlink:title=" ">
<polygon fill="white" stroke="#666666" points="2195.5,-327 2094.5,-327 2094.5,-308 2195.5,-308 2195.5,-327"/>
<text text-anchor="middle" x="2145" y="-315" font-family="Helvetica,sans-Serif" font-size="10.00">backend/backend.h</text>
</a>
</g>
</g>
<!-- Node2&#45;&gt;Node6 -->
<g id="edge5" class="edge">
<title>Node2&#45;&gt;Node6</title>
<path fill="none" stroke="#63b8ff" d="M2491.47,-365.11C2419.98,-355.49 2284.76,-337.3 2206.06,-326.71"/>
<polygon fill="#63b8ff" stroke="#63b8ff" points="2206.18,-323.2 2195.81,-325.33 2205.25,-330.14 2206.18,-323.2"/>
</g>
<!-- Node45 -->
<g id="node45" class="node">
<title>Node45</title>
<g id="a_node45"><a xlink:title=" ">
<polygon fill="#e0e0e0" stroke="#999999" points="2621.5,-327 2532.5,-327 2532.5,-308 2621.5,-308 2621.5,-327"/>
<text text-anchor="middle" x="2577" y="-315" font-family="Helvetica,sans-Serif" font-size="10.00">bluevk/BlueVK.h</text>
</a>
</g>
</g>
<!-- Node2&#45;&gt;Node45 -->
<g id="edge82" class="edge">
<title>Node2&#45;&gt;Node45</title>
<path fill="none" stroke="#63b8ff" d="M2545.27,-362.75C2550.59,-355.34 2558.36,-344.5 2564.88,-335.41"/>
<polygon fill="#63b8ff" stroke="#63b8ff" points="2567.86,-337.26 2570.84,-327.09 2562.17,-333.18 2567.86,-337.26"/>
</g>
<!-- Node6&#45;&gt;Node5 -->
<g id="edge6" class="edge">
<title>Node6&#45;&gt;Node5</title>
<path fill="none" stroke="#63b8ff" d="M2172.62,-307.91C2282.56,-273.05 2679.94,-140.49 2611,-66 2572.63,-24.54 2196.13,-17.36 2036.72,-16.19"/>
<polygon fill="#63b8ff" stroke="#63b8ff" points="2036.56,-12.69 2026.54,-16.12 2036.52,-19.69 2036.56,-12.69"/>
</g>
<!-- Node6&#45;&gt;Node7 -->
<g id="edge7" class="edge">
<title>Node6&#45;&gt;Node7</title>
<path fill="none" stroke="#63b8ff" d="M2094.32,-313.29C1905.17,-300.85 1222.83,-252.03 667,-162 521.5,-138.43 484.53,-133.54 342,-96 339.22,-95.27 336.36,-94.46 333.5,-93.61"/>
<polygon fill="#63b8ff" stroke="#63b8ff" points="334.46,-90.25 323.87,-90.63 332.39,-96.93 334.46,-90.25"/>
</g>
<!-- Node6&#45;&gt;Node10 -->
<g id="edge11" class="edge">
<title>Node6&#45;&gt;Node10</title>
<path fill="none" stroke="#63b8ff" d="M2103.9,-307.98C2062,-298.56 1997.81,-283.4 1957.61,-273.44"/>
<polygon fill="#63b8ff" stroke="#63b8ff" points="1958.24,-269.99 1947.69,-270.97 1956.54,-276.78 1958.24,-269.99"/>
</g>
<!-- Node7&#45;&gt;Node5 -->
<g id="edge9" class="edge">
<title>Node7&#45;&gt;Node5</title>
<path fill="none" stroke="#63b8ff" d="M321.46,-71.36C327.99,-69.21 335.19,-67.19 342,-66 647.04,-12.77 1623.35,-14.07 1895.17,-15.51"/>
<polygon fill="#63b8ff" stroke="#63b8ff" points="1895.28,-19.02 1905.3,-15.57 1895.32,-12.02 1895.28,-19.02"/>
</g>
<!-- Node8 -->
<g id="node8" class="node">
<title>Node8</title>
<g id="a_node8"><a xlink:title=" ">
<polygon fill="#e0e0e0" stroke="#999999" points="204,-24.5 144,-24.5 144,-5.5 204,-5.5 204,-24.5"/>
<text text-anchor="middle" x="174" y="-12.5" font-family="Helvetica,sans-Serif" font-size="10.00">EGL/egl.h</text>
</a>
</g>
</g>
<!-- Node7&#45;&gt;Node8 -->
<g id="edge8" class="edge">
<title>Node7&#45;&gt;Node8</title>
<path fill="none" stroke="#63b8ff" d="M282.14,-71.37C261.08,-60.59 224.82,-42.02 200.14,-29.38"/>
<polygon fill="#63b8ff" stroke="#63b8ff" points="201.49,-26.14 190.99,-24.7 198.3,-32.37 201.49,-26.14"/>
</g>
<!-- Node9 -->
<g id="node9" class="node">
<title>Node9</title>
<g id="a_node9"><a xlink:title=" ">
<polygon fill="#e0e0e0" stroke="#999999" points="318,-24.5 280,-24.5 280,-5.5 318,-5.5 318,-24.5"/>
<text text-anchor="middle" x="299" y="-12.5" font-family="Helvetica,sans-Serif" font-size="10.00">array</text>
</a>
</g>
</g>
<!-- Node7&#45;&gt;Node9 -->
<g id="edge10" class="edge">
<title>Node7&#45;&gt;Node9</title>
<path fill="none" stroke="#63b8ff" d="M299,-71.37C299,-62.16 299,-47.29 299,-35.27"/>
<polygon fill="#63b8ff" stroke="#63b8ff" points="302.5,-34.91 299,-24.91 295.5,-34.91 302.5,-34.91"/>
</g>
<!-- Node10&#45;&gt;Node4 -->
<g id="edge23" class="edge">
<title>Node10&#45;&gt;Node4</title>
<path fill="none" stroke="#63b8ff" d="M1947.57,-254.88C1981.74,-246.33 2042.88,-230.9 2095,-217 2289.31,-165.19 2341.92,-164.48 2531,-96 2532.22,-95.56 2533.46,-95.09 2534.7,-94.6"/>
<polygon fill="#63b8ff" stroke="#63b8ff" points="2536.3,-97.72 2544.16,-90.62 2533.59,-91.27 2536.3,-97.72"/>
</g>
<!-- Node10&#45;&gt;Node5 -->
<g id="edge16" class="edge">
<title>Node10&#45;&gt;Node5</title>
<path fill="none" stroke="#63b8ff" d="M1947.62,-258.55C2083.17,-243 2686.76,-167.54 2593,-66 2555.93,-25.86 2193.56,-17.92 2037.21,-16.37"/>
<polygon fill="#63b8ff" stroke="#63b8ff" points="2036.8,-12.87 2026.77,-16.27 2036.73,-19.86 2036.8,-12.87"/>
</g>
<!-- Node10&#45;&gt;Node6 -->
<g id="edge24" class="edge">
<title>Node10&#45;&gt;Node6</title>
<path fill="none" stroke="#63b8ff" d="M1947.53,-268.77C1986.39,-277.3 2058.69,-294.3 2104.27,-305.54"/>
<polygon fill="#63b8ff" stroke="#63b8ff" points="2103.58,-308.97 2114.13,-307.98 2105.26,-302.18 2103.58,-308.97"/>
</g>
<!-- Node10&#45;&gt;Node7 -->
<g id="edge25" class="edge">
<title>Node10&#45;&gt;Node7</title>
<path fill="none" stroke="#63b8ff" d="M1894.29,-260.27C1806.74,-256.11 1520.61,-241.42 1285,-217 1009.22,-188.42 942.14,-166.15 667,-132 522.78,-114.1 484.06,-126.66 342,-96 338.78,-95.3 335.45,-94.46 332.15,-93.53"/>
<polygon fill="#63b8ff" stroke="#63b8ff" points="333,-90.14 322.42,-90.58 330.97,-96.84 333,-90.14"/>
</g>
<!-- Node10&#45;&gt;Node8 -->
<g id="edge13" class="edge">
<title>Node10&#45;&gt;Node8</title>
<path fill="none" stroke="#63b8ff" d="M1894.43,-261.25C1685.18,-259.19 308.52,-244.64 226,-217 186.12,-203.64 171.78,-197.35 149,-162 132.8,-136.87 138.9,-125.76 136,-96 134.71,-82.73 131.74,-78.64 136,-66 140.32,-53.18 149.37,-41.05 157.56,-31.95"/>
<polygon fill="#63b8ff" stroke="#63b8ff" points="160.29,-34.15 164.67,-24.5 155.23,-29.31 160.29,-34.15"/>
</g>
<!-- Node11 -->
<g id="node11" class="node">
<title>Node11</title>
<g id="a_node11"><a xlink:title=" ">
<polygon fill="#e0e0e0" stroke="#999999" points="1637.5,-217 1578.5,-217 1578.5,-198 1637.5,-198 1637.5,-217"/>
<text text-anchor="middle" x="1608" y="-205" font-family="Helvetica,sans-Serif" font-size="10.00">functional</text>
</a>
</g>
</g>
<!-- Node10&#45;&gt;Node11 -->
<g id="edge12" class="edge">
<title>Node10&#45;&gt;Node11</title>
<path fill="none" stroke="#63b8ff" d="M1894.47,-257.67C1847.07,-250.74 1744.54,-235.26 1647.73,-217.05"/>
<polygon fill="#63b8ff" stroke="#63b8ff" points="1648.25,-213.58 1637.78,-215.16 1646.95,-220.46 1648.25,-213.58"/>
</g>
<!-- Node12 -->
<g id="node12" class="node">
<title>Node12</title>
<g id="a_node12"><a xlink:title=" ">
<polygon fill="#e0e0e0" stroke="#999999" points="1728,-217 1656,-217 1656,-198 1728,-198 1728,-217"/>
<text text-anchor="middle" x="1692" y="-205" font-family="Helvetica,sans-Serif" font-size="10.00">GLES2/gl2.h</text>
</a>
</g>
</g>
<!-- Node10&#45;&gt;Node12 -->
<g id="edge14" class="edge">
<title>Node10&#45;&gt;Node12</title>
<path fill="none" stroke="#63b8ff" d="M1894.28,-255.32C1856.03,-246.46 1785.11,-230.05 1738.24,-219.2"/>
<polygon fill="#63b8ff" stroke="#63b8ff" points="1738.86,-215.75 1728.33,-216.91 1737.28,-222.57 1738.86,-215.75"/>
</g>
<!-- Node13 -->
<g id="node13" class="node">
<title>Node13</title>
<g id="a_node13"><a xlink:title=" ">
<polygon fill="#e0e0e0" stroke="#999999" points="1871.5,-217 1746.5,-217 1746.5,-198 1871.5,-198 1871.5,-217"/>
<text text-anchor="middle" x="1809" y="-205" font-family="Helvetica,sans-Serif" font-size="10.00">flutter/encodable_value.h</text>
</a>
</g>
</g>
<!-- Node10&#45;&gt;Node13 -->
<g id="edge15" class="edge">
<title>Node10&#45;&gt;Node13</title>
<path fill="none" stroke="#63b8ff" d="M1903.01,-252.98C1885.07,-244.5 1857.28,-231.35 1836.57,-221.54"/>
<polygon fill="#63b8ff" stroke="#63b8ff" points="1837.86,-218.28 1827.32,-217.17 1834.86,-224.61 1837.86,-218.28"/>
</g>
<!-- Node14 -->
<g id="node14" class="node">
<title>Node14</title>
<g id="a_node14"><a xlink:title=" ">
<polygon fill="#e0e0e0" stroke="#999999" points="1952,-217 1890,-217 1890,-198 1952,-198 1952,-217"/>
<text text-anchor="middle" x="1921" y="-205" font-family="Helvetica,sans-Serif" font-size="10.00">filesystem</text>
</a>
</g>
</g>
<!-- Node10&#45;&gt;Node14 -->
<g id="edge17" class="edge">
<title>Node10&#45;&gt;Node14</title>
<path fill="none" stroke="#63b8ff" d="M1921,-252.75C1921,-245.8 1921,-235.85 1921,-227.13"/>
<polygon fill="#63b8ff" stroke="#63b8ff" points="1924.5,-227.09 1921,-217.09 1917.5,-227.09 1924.5,-227.09"/>
</g>
<!-- Node15 -->
<g id="node15" class="node">
<title>Node15</title>
<g id="a_node15"><a xlink:title=" ">
<polygon fill="#e0e0e0" stroke="#999999" points="1807.5,-90.5 1772.5,-90.5 1772.5,-71.5 1807.5,-71.5 1807.5,-90.5"/>
<text text-anchor="middle" x="1790" y="-78.5" font-family="Helvetica,sans-Serif" font-size="10.00">map</text>
</a>
</g>
</g>
<!-- Node10&#45;&gt;Node15 -->
<g id="edge18" class="edge">
<title>Node10&#45;&gt;Node15</title>
<path fill="none" stroke="#63b8ff" d="M1894.45,-261.01C1799.8,-259 1482.86,-249.83 1453,-217 1372.01,-127.94 1718.13,-108.64 1758,-96 1759.63,-95.48 1761.29,-94.91 1762.95,-94.3"/>
<polygon fill="#63b8ff" stroke="#63b8ff" points="1764.35,-97.51 1772.32,-90.53 1761.73,-91.02 1764.35,-97.51"/>
</g>
<!-- Node16 -->
<g id="node16" class="node">
<title>Node16</title>
<g id="a_node16"><a xlink:title=" ">
<polygon fill="#e0e0e0" stroke="#999999" points="1878,-90.5 1826,-90.5 1826,-71.5 1878,-71.5 1878,-90.5"/>
<text text-anchor="middle" x="1852" y="-78.5" font-family="Helvetica,sans-Serif" font-size="10.00">memory</text>
</a>
</g>
</g>
<!-- Node10&#45;&gt;Node16 -->
<g id="edge19" class="edge">
<title>Node10&#45;&gt;Node16</title>
<path fill="none" stroke="#63b8ff" d="M1947.58,-256.74C1983.33,-248.99 2040.53,-231.08 2023,-198 2014.81,-182.54 1919.76,-123.26 1875.02,-95.94"/>
<polygon fill="#63b8ff" stroke="#63b8ff" points="1876.65,-92.83 1866.29,-90.62 1873.01,-98.81 1876.65,-92.83"/>
</g>
<!-- Node17 -->
<g id="node17" class="node">
<title>Node17</title>
<g id="a_node17"><a xlink:title=" ">
<polygon fill="#e0e0e0" stroke="#999999" points="2014,-217 1970,-217 1970,-198 2014,-198 2014,-217"/>
<text text-anchor="middle" x="1992" y="-205" font-family="Helvetica,sans-Serif" font-size="10.00">mutex</text>
</a>
</g>
</g>
<!-- Node10&#45;&gt;Node17 -->
<g id="edge20" class="edge">
<title>Node10&#45;&gt;Node17</title>
<path fill="none" stroke="#63b8ff" d="M1932.41,-252.98C1943.11,-245 1959.34,-232.88 1972.16,-223.31"/>
<polygon fill="#63b8ff" stroke="#63b8ff" points="1974.47,-225.96 1980.39,-217.17 1970.28,-220.35 1974.47,-225.96"/>
</g>
<!-- Node10&#45;&gt;Node18 -->
<g id="edge21" class="edge">
<title>Node10&#45;&gt;Node18</title>
<path fill="none" stroke="#63b8ff" d="M1947.72,-259.54C2025.37,-253.79 2257.63,-236.13 2450,-217 2463.91,-215.62 2479.27,-213.89 2492.37,-212.35"/>
<polygon fill="#63b8ff" stroke="#63b8ff" points="2492.81,-215.82 2502.32,-211.17 2491.98,-208.87 2492.81,-215.82"/>
</g>
<!-- Node19 -->
<g id="node19" class="node">
<title>Node19</title>
<g id="a_node19"><a xlink:title=" ">
<polygon fill="#e0e0e0" stroke="#999999" points="1937.5,-90.5 1896.5,-90.5 1896.5,-71.5 1937.5,-71.5 1937.5,-90.5"/>
<text text-anchor="middle" x="1917" y="-78.5" font-family="Helvetica,sans-Serif" font-size="10.00">string</text>
</a>
</g>
</g>
<!-- Node10&#45;&gt;Node19 -->
<g id="edge22" class="edge">
<title>Node10&#45;&gt;Node19</title>
<path fill="none" stroke="#63b8ff" d="M1947.78,-260.03C1980.58,-256.92 2036.17,-247.21 2072,-217 2102.3,-191.45 2123.03,-163.52 2099,-132 2089.7,-119.81 1996.7,-98.71 1947.37,-88.25"/>
<polygon fill="#63b8ff" stroke="#63b8ff" points="1948.06,-84.82 1937.55,-86.19 1946.62,-91.67 1948.06,-84.82"/>
</g>
<!-- Node20 -->
<g id="node20" class="node">
<title>Node20</title>
<g id="a_node20"><a xlink:href="logging_8h.html" target="_top" xlink:title=" ">
<polygon fill="white" stroke="#666666" points="291,-217 235,-217 235,-198 291,-198 291,-217"/>
<text text-anchor="middle" x="263" y="-205" font-family="Helvetica,sans-Serif" font-size="10.00">logging.h</text>
</a>
</g>
</g>
<!-- Node10&#45;&gt;Node20 -->
<g id="edge26" class="edge">
<title>Node10&#45;&gt;Node20</title>
<path fill="none" stroke="#63b8ff" d="M1894.29,-260.65C1701.89,-254.5 528.89,-217 301.25,-209.72"/>
<polygon fill="#63b8ff" stroke="#63b8ff" points="301.24,-206.22 291.13,-209.4 301.01,-213.22 301.24,-206.22"/>
</g>
<!-- Node25 -->
<g id="node25" class="node">
<title>Node25</title>
<g id="a_node25"><a xlink:href="platform__channel_8h.html" target="_top" xlink:title=" ">
<polygon fill="white" stroke="#666666" points="2089.5,-156.5 1990.5,-156.5 1990.5,-137.5 2089.5,-137.5 2089.5,-156.5"/>
<text text-anchor="middle" x="2040" y="-144.5" font-family="Helvetica,sans-Serif" font-size="10.00">platform_channel.h</text>
</a>
</g>
</g>
<!-- Node10&#45;&gt;Node25 -->
<g id="edge33" class="edge">
<title>Node10&#45;&gt;Node25</title>
<path fill="none" stroke="#63b8ff" d="M1947.59,-261.35C1979.34,-259.56 2031.27,-251.19 2056,-217 2066.88,-201.96 2059.37,-180.67 2051.37,-165.73"/>
<polygon fill="#63b8ff" stroke="#63b8ff" points="2054.31,-163.81 2046.23,-156.95 2048.26,-167.35 2054.31,-163.81"/>
</g>
<!-- Node26 -->
<g id="node26" class="node">
<title>Node26</title>
<g id="a_node26"><a xlink:href="key__event_8h.html" target="_top" xlink:title=" ">
<polygon fill="white" stroke="#666666" points="1426,-162 1324,-162 1324,-132 1426,-132 1426,-162"/>
<text text-anchor="start" x="1332" y="-150" font-family="Helvetica,sans-Serif" font-size="10.00">static_plugins/key</text>
<text text-anchor="middle" x="1375" y="-139" font-family="Helvetica,sans-Serif" font-size="10.00">_event/key_event.h</text>
</a>
</g>
</g>
<!-- Node10&#45;&gt;Node26 -->
<g id="edge37" class="edge">
<title>Node10&#45;&gt;Node26</title>
<path fill="none" stroke="#63b8ff" d="M1894.2,-260.48C1796.18,-256.58 1460.85,-241.53 1420,-217 1403,-206.79 1391.22,-187.41 1383.98,-171.78"/>
<polygon fill="#63b8ff" stroke="#63b8ff" points="1387.03,-170 1379.88,-162.18 1380.59,-172.75 1387.03,-170"/>
</g>
<!-- Node32 -->
<g id="node32" class="node">
<title>Node32</title>
<g id="a_node32"><a xlink:href="text__input_8h.html" target="_top" xlink:title=" ">
<polygon fill="white" stroke="#666666" points="1089.5,-162 992.5,-162 992.5,-132 1089.5,-132 1089.5,-162"/>
<text text-anchor="start" x="1000.5" y="-150" font-family="Helvetica,sans-Serif" font-size="10.00">static_plugins/text</text>
<text text-anchor="middle" x="1041" y="-139" font-family="Helvetica,sans-Serif" font-size="10.00">_input/text_input.h</text>
</a>
</g>
</g>
<!-- Node10&#45;&gt;Node32 -->
<g id="edge49" class="edge">
<title>Node10&#45;&gt;Node32</title>
<path fill="none" stroke="#63b8ff" d="M1894.44,-260.25C1817.3,-256.4 1586.68,-243.36 1397,-217 1291.51,-202.34 1169.97,-176.92 1099.66,-161.37"/>
<polygon fill="#63b8ff" stroke="#63b8ff" points="1100.19,-157.9 1089.67,-159.15 1098.67,-164.73 1100.19,-157.9"/>
</g>
<!-- Node37 -->
<g id="node37" class="node">
<title>Node37</title>
<g id="a_node37"><a xlink:href="flutter__view_8h.html" target="_top" xlink:title=" ">
<polygon fill="white" stroke="#666666" points="1560,-217 1462,-217 1462,-198 1560,-198 1560,-217"/>
<text text-anchor="middle" x="1511" y="-205" font-family="Helvetica,sans-Serif" font-size="10.00">view/flutter_view.h</text>
</a>
</g>
</g>
<!-- Node10&#45;&gt;Node37 -->
<g id="edge63" class="edge">
<title>Node10&#45;&gt;Node37</title>
<path fill="none" stroke="#63b8ff" d="M1894.48,-258.33C1837.28,-251.45 1697.78,-234.47 1570,-217.11"/>
<polygon fill="#63b8ff" stroke="#63b8ff" points="1570.42,-213.64 1560.04,-215.76 1569.47,-220.57 1570.42,-213.64"/>
</g>
<!-- Node21 -->
<g id="node21" class="node">
<title>Node21</title>
<g id="a_node21"><a xlink:title=" ">
<polygon fill="#e0e0e0" stroke="#999999" points="316,-156.5 264,-156.5 264,-137.5 316,-137.5 316,-156.5"/>
<text text-anchor="middle" x="290" y="-144.5" font-family="Helvetica,sans-Serif" font-size="10.00">sstream</text>
</a>
</g>
</g>
<!-- Node20&#45;&gt;Node21 -->
<g id="edge27" class="edge">
<title>Node20&#45;&gt;Node21</title>
<path fill="none" stroke="#63b8ff" d="M266.98,-197.87C270.85,-189.49 276.84,-176.51 281.74,-165.89"/>
<polygon fill="#63b8ff" stroke="#63b8ff" points="284.99,-167.21 286,-156.67 278.63,-164.28 284.99,-167.21"/>
</g>
<!-- Node22 -->
<g id="node22" class="node">
<title>Node22</title>
<g id="a_node22"><a xlink:href="dlt_8h.html" target="_top" xlink:title=" ">
<polygon fill="white" stroke="#666666" points="207.5,-156.5 158.5,-156.5 158.5,-137.5 207.5,-137.5 207.5,-156.5"/>
<text text-anchor="middle" x="183" y="-144.5" font-family="Helvetica,sans-Serif" font-size="10.00">dlt/dlt.h</text>
</a>
</g>
</g>
<!-- Node20&#45;&gt;Node22 -->
<g id="edge28" class="edge">
<title>Node20&#45;&gt;Node22</title>
<path fill="none" stroke="#63b8ff" d="M251.2,-197.87C238.55,-188.62 218.26,-173.78 203.09,-162.69"/>
<polygon fill="#63b8ff" stroke="#63b8ff" points="204.99,-159.74 194.85,-156.67 200.86,-165.4 204.99,-159.74"/>
</g>
<!-- Node24 -->
<g id="node24" class="node">
<title>Node24</title>
<g id="a_node24"><a xlink:title=" ">
<polygon fill="#e0e0e0" stroke="#999999" points="246.5,-90.5 145.5,-90.5 145.5,-71.5 246.5,-71.5 246.5,-90.5"/>
<text text-anchor="middle" x="196" y="-78.5" font-family="Helvetica,sans-Serif" font-size="10.00">flutter/fml/macros.h</text>
</a>
</g>
</g>
<!-- Node20&#45;&gt;Node24 -->
<g id="edge32" class="edge">
<title>Node20&#45;&gt;Node24</title>
<path fill="none" stroke="#63b8ff" d="M258.39,-197.94C247.54,-177.77 220.18,-126.92 205.56,-99.76"/>
<polygon fill="#63b8ff" stroke="#63b8ff" points="208.46,-97.76 200.64,-90.62 202.29,-101.08 208.46,-97.76"/>
</g>
<!-- Node23 -->
<g id="node23" class="node">
<title>Node23</title>
<g id="a_node23"><a xlink:href="libdlt_8h.html" target="_top" xlink:title=" ">
<polygon fill="white" stroke="#666666" points="88.5,-90.5 29.5,-90.5 29.5,-71.5 88.5,-71.5 88.5,-90.5"/>
<text text-anchor="middle" x="59" y="-78.5" font-family="Helvetica,sans-Serif" font-size="10.00">dlt/libdlt.h</text>
</a>
</g>
</g>
<!-- Node22&#45;&gt;Node23 -->
<g id="edge29" class="edge">
<title>Node22&#45;&gt;Node23</title>
<path fill="none" stroke="#63b8ff" d="M166.28,-137.37C145.38,-126.59 109.41,-108.02 84.93,-95.38"/>
<polygon fill="#63b8ff" stroke="#63b8ff" points="86.35,-92.18 75.85,-90.7 83.14,-98.4 86.35,-92.18"/>
</g>
<!-- Node22&#45;&gt;Node24 -->
<g id="edge31" class="edge">
<title>Node22&#45;&gt;Node24</title>
<path fill="none" stroke="#63b8ff" d="M184.75,-137.37C186.64,-128.07 189.71,-112.98 192.16,-100.9"/>
<polygon fill="#63b8ff" stroke="#63b8ff" points="195.63,-101.4 194.19,-90.91 188.77,-100.01 195.63,-101.4"/>
</g>
<!-- Node23&#45;&gt;Node3 -->
<g id="edge30" class="edge">
<title>Node23&#45;&gt;Node3</title>
<path fill="none" stroke="#63b8ff" d="M54.14,-71.37C48.75,-61.78 39.9,-46.05 33.01,-33.8"/>
<polygon fill="#63b8ff" stroke="#63b8ff" points="35.96,-31.91 28.01,-24.91 29.86,-35.34 35.96,-31.91"/>
</g>
<!-- Node25&#45;&gt;Node5 -->
<g id="edge36" class="edge">
<title>Node25&#45;&gt;Node5</title>
<path fill="none" stroke="#63b8ff" d="M2026.84,-137.27C2014.44,-128.35 1996.28,-113.37 1986,-96 1975.89,-78.92 1970.87,-56.88 1968.38,-40.26"/>
<polygon fill="#63b8ff" stroke="#63b8ff" points="1971.84,-39.7 1967.09,-30.22 1964.9,-40.59 1971.84,-39.7"/>
</g>
<!-- Node25&#45;&gt;Node15 -->
<g id="edge34" class="edge">
<title>Node25&#45;&gt;Node15</title>
<path fill="none" stroke="#63b8ff" d="M1990.24,-138.63C1944.34,-130.94 1874.78,-117.06 1817,-96 1815.98,-95.63 1814.96,-95.23 1813.93,-94.8"/>
<polygon fill="#63b8ff" stroke="#63b8ff" points="1815.37,-91.61 1804.83,-90.56 1812.41,-97.96 1815.37,-91.61"/>
</g>
<!-- Node25&#45;&gt;Node19 -->
<g id="edge35" class="edge">
<title>Node25&#45;&gt;Node19</title>
<path fill="none" stroke="#63b8ff" d="M2023.41,-137.37C2002.69,-126.59 1967,-108.02 1942.72,-95.38"/>
<polygon fill="#63b8ff" stroke="#63b8ff" points="1944.2,-92.21 1933.72,-90.7 1940.97,-98.42 1944.2,-92.21"/>
</g>
<!-- Node26&#45;&gt;Node5 -->
<g id="edge46" class="edge">
<title>Node26&#45;&gt;Node5</title>
<path fill="none" stroke="#63b8ff" d="M1426.01,-134.58C1430.73,-133.65 1435.45,-132.78 1440,-132 1565.86,-110.54 1607.26,-145.36 1725,-96 1744.84,-87.68 1743.67,-75.45 1763,-66 1804.48,-45.71 1854.87,-33.24 1895.06,-25.83"/>
<polygon fill="#63b8ff" stroke="#63b8ff" points="1895.82,-29.25 1905.05,-24.05 1894.59,-22.36 1895.82,-29.25"/>
</g>
<!-- Node26&#45;&gt;Node7 -->
<g id="edge48" class="edge">
<title>Node26&#45;&gt;Node7</title>
<path fill="none" stroke="#63b8ff" d="M1323.95,-143.38C1268.37,-140.53 1176.87,-135.87 1098,-132 762.02,-115.51 672.88,-156.61 342,-96 338.5,-95.36 334.88,-94.5 331.31,-93.53"/>
<polygon fill="#63b8ff" stroke="#63b8ff" points="332.05,-90.1 321.47,-90.57 330.03,-96.8 332.05,-90.1"/>
</g>
<!-- Node26&#45;&gt;Node15 -->
<g id="edge38" class="edge">
<title>Node26&#45;&gt;Node15</title>
<path fill="none" stroke="#63b8ff" d="M1426,-134.51C1430.72,-133.6 1435.44,-132.75 1440,-132 1580.36,-109 1620.64,-132.92 1758,-96 1759.89,-95.49 1761.81,-94.89 1763.72,-94.23"/>
<polygon fill="#63b8ff" stroke="#63b8ff" points="1765.06,-97.46 1773.07,-90.53 1762.48,-90.95 1765.06,-97.46"/>
</g>
<!-- Node26&#45;&gt;Node16 -->
<g id="edge39" class="edge">
<title>Node26&#45;&gt;Node16</title>
<path fill="none" stroke="#63b8ff" d="M1426.14,-141.87C1525.92,-133.54 1743.15,-113.97 1816,-96 1818.31,-95.43 1820.67,-94.75 1823.02,-94"/>
<polygon fill="#63b8ff" stroke="#63b8ff" points="1824.24,-97.28 1832.49,-90.64 1821.9,-90.69 1824.24,-97.28"/>
</g>
<!-- Node26&#45;&gt;Node19 -->
<g id="edge40" class="edge">
<title>Node26&#45;&gt;Node19</title>
<path fill="none" stroke="#63b8ff" d="M1426.13,-142C1546.95,-132.39 1843.28,-107.96 1887,-96 1888.49,-95.59 1890,-95.12 1891.5,-94.59"/>
<polygon fill="#63b8ff" stroke="#63b8ff" points="1893.28,-97.64 1901.19,-90.6 1890.61,-91.17 1893.28,-97.64"/>
</g>
<!-- Node26&#45;&gt;Node24 -->
<g id="edge44" class="edge">
<title>Node26&#45;&gt;Node24</title>
<path fill="none" stroke="#63b8ff" d="M1323.95,-143.3C1268.38,-140.39 1176.88,-135.68 1098,-132 723.84,-114.55 627.11,-146.78 256,-96 250.03,-95.18 243.77,-94.05 237.65,-92.77"/>
<polygon fill="#63b8ff" stroke="#63b8ff" points="238.08,-89.28 227.56,-90.53 236.56,-96.11 238.08,-89.28"/>
</g>
<!-- Node27 -->
<g id="node27" class="node">
<title>Node27</title>
<g id="a_node27"><a xlink:title=" ">
<polygon fill="#e0e0e0" stroke="#999999" points="1587.5,-96 1474.5,-96 1474.5,-66 1587.5,-66 1587.5,-96"/>
<text text-anchor="start" x="1482.5" y="-84" font-family="Helvetica,sans-Serif" font-size="10.00">flutter/basic_message</text>
<text text-anchor="middle" x="1531" y="-73" font-family="Helvetica,sans-Serif" font-size="10.00">_channel.h</text>
</a>
</g>
</g>
<!-- Node26&#45;&gt;Node27 -->
<g id="edge41" class="edge">
<title>Node26&#45;&gt;Node27</title>
<path fill="none" stroke="#63b8ff" d="M1409.23,-131.95C1432.2,-122.53 1462.64,-110.04 1487.34,-99.91"/>
<polygon fill="#63b8ff" stroke="#63b8ff" points="1488.92,-103.05 1496.84,-96.01 1486.26,-96.57 1488.92,-103.05"/>
</g>
<!-- Node28 -->
<g id="node28" class="node">
<title>Node28</title>
<g id="a_node28"><a xlink:title=" ">
<polygon fill="#e0e0e0" stroke="#999999" points="1275,-90.5 1143,-90.5 1143,-71.5 1275,-71.5 1275,-90.5"/>
<text text-anchor="middle" x="1209" y="-78.5" font-family="Helvetica,sans-Serif" font-size="10.00">flutter/binary_messenger.h</text>
</a>
</g>
</g>
<!-- Node26&#45;&gt;Node28 -->
<g id="edge42" class="edge">
<title>Node26&#45;&gt;Node28</title>
<path fill="none" stroke="#63b8ff" d="M1338.57,-131.95C1309.33,-120.68 1268.69,-105.01 1240.76,-94.25"/>
<polygon fill="#63b8ff" stroke="#63b8ff" points="1241.68,-90.85 1231.09,-90.52 1239.16,-97.38 1241.68,-90.85"/>
</g>
<!-- Node29 -->
<g id="node29" class="node">
<title>Node29</title>
<g id="a_node29"><a xlink:title=" ">
<polygon fill="#e0e0e0" stroke="#999999" points="1456.5,-96 1293.5,-96 1293.5,-66 1456.5,-66 1456.5,-96"/>
<text text-anchor="start" x="1301.5" y="-84" font-family="Helvetica,sans-Serif" font-size="10.00">flutter/shell/platform</text>
<text text-anchor="middle" x="1375" y="-73" font-family="Helvetica,sans-Serif" font-size="10.00">/common/json_message_codec.h</text>
</a>
</g>
</g>
<!-- Node26&#45;&gt;Node29 -->
<g id="edge43" class="edge">
<title>Node26&#45;&gt;Node29</title>
<path fill="none" stroke="#63b8ff" d="M1375,-131.8C1375,-124.34 1375,-114.99 1375,-106.41"/>
<polygon fill="#63b8ff" stroke="#63b8ff" points="1378.5,-106.16 1375,-96.16 1371.5,-106.16 1378.5,-106.16"/>
</g>
<!-- Node30 -->
<g id="node30" class="node">
<title>Node30</title>
<g id="a_node30"><a xlink:title=" ">
<polygon fill="#e0e0e0" stroke="#999999" points="1716,-90.5 1606,-90.5 1606,-71.5 1716,-71.5 1716,-90.5"/>
<text text-anchor="middle" x="1661" y="-78.5" font-family="Helvetica,sans-Serif" font-size="10.00">rapidjson/document.h</text>
</a>
</g>
</g>
<!-- Node26&#45;&gt;Node30 -->
<g id="edge45" class="edge">
<title>Node26&#45;&gt;Node30</title>
<path fill="none" stroke="#63b8ff" d="M1426.13,-134.56C1479,-122.73 1560.93,-104.39 1612.72,-92.8"/>
<polygon fill="#63b8ff" stroke="#63b8ff" points="1613.67,-96.18 1622.66,-90.58 1612.14,-89.35 1613.67,-96.18"/>
</g>
<!-- Node31 -->
<g id="node31" class="node">
<title>Node31</title>
<g id="a_node31"><a xlink:title=" ">
<polygon fill="#e0e0e0" stroke="#999999" points="1125,-90.5 991,-90.5 991,-71.5 1125,-71.5 1125,-90.5"/>
<text text-anchor="middle" x="1058" y="-78.5" font-family="Helvetica,sans-Serif" font-size="10.00">xkbcommon/xkbcommon.h</text>
</a>
</g>
</g>
<!-- Node26&#45;&gt;Node31 -->
<g id="edge47" class="edge">
<title>Node26&#45;&gt;Node31</title>
<path fill="none" stroke="#63b8ff" d="M1323.72,-135.65C1265.08,-123.81 1169.58,-104.53 1110.46,-92.59"/>
<polygon fill="#63b8ff" stroke="#63b8ff" points="1111.07,-89.14 1100.57,-90.6 1109.68,-96.01 1111.07,-89.14"/>
</g>
<!-- Node32&#45;&gt;Node5 -->
<g id="edge60" class="edge">
<title>Node32&#45;&gt;Node5</title>
<path fill="none" stroke="#63b8ff" d="M1018.23,-131.89C994.06,-115.23 961.91,-87.14 982,-66 1013.39,-32.97 1674.47,-20.28 1895.06,-16.96"/>
<polygon fill="#63b8ff" stroke="#63b8ff" points="1895.28,-20.46 1905.23,-16.81 1895.18,-13.46 1895.28,-20.46"/>
</g>
<!-- Node32&#45;&gt;Node7 -->
<g id="edge62" class="edge">
<title>Node32&#45;&gt;Node7</title>
<path fill="none" stroke="#63b8ff" d="M992.25,-138.15C976.85,-135.89 959.74,-133.6 944,-132 677.35,-104.83 605.35,-145.89 342,-96 338.5,-95.34 334.89,-94.47 331.32,-93.49"/>
<polygon fill="#63b8ff" stroke="#63b8ff" points="332.06,-90.06 321.48,-90.51 330.04,-96.76 332.06,-90.06"/>
</g>
<!-- Node32&#45;&gt;Node15 -->
<g id="edge50" class="edge">
<title>Node32&#45;&gt;Node15</title>
<path fill="none" stroke="#63b8ff" d="M1089.73,-143.32C1224.78,-135.76 1601.98,-113.66 1725,-96 1737.42,-94.22 1751.02,-91.42 1762.55,-88.8"/>
<polygon fill="#63b8ff" stroke="#63b8ff" points="1763.53,-92.16 1772.46,-86.47 1761.93,-85.35 1763.53,-92.16"/>
</g>
<!-- Node32&#45;&gt;Node16 -->
<g id="edge51" class="edge">
<title>Node32&#45;&gt;Node16</title>
<path fill="none" stroke="#63b8ff" d="M1089.53,-143.28C1253.77,-134.02 1780.48,-103.86 1816,-96 1818.52,-95.44 1821.1,-94.74 1823.66,-93.94"/>
<polygon fill="#63b8ff" stroke="#63b8ff" points="1825.02,-97.17 1833.28,-90.53 1822.69,-90.57 1825.02,-97.17"/>
</g>
<!-- Node32&#45;&gt;Node19 -->
<g id="edge52" class="edge">
<title>Node32&#45;&gt;Node19</title>
<path fill="none" stroke="#63b8ff" d="M1089.8,-143.36C1267.06,-133.76 1867.55,-100.92 1887,-96 1888.69,-95.57 1890.39,-95.05 1892.09,-94.46"/>
<polygon fill="#63b8ff" stroke="#63b8ff" points="1893.62,-97.62 1901.53,-90.57 1890.95,-91.15 1893.62,-97.62"/>
</g>
<!-- Node32&#45;&gt;Node24 -->
<g id="edge56" class="edge">
<title>Node32&#45;&gt;Node24</title>
<path fill="none" stroke="#63b8ff" d="M992.44,-142.53C951.52,-139.63 891.44,-135.44 839,-132 579.95,-115.03 512.86,-133.63 256,-96 250.17,-95.15 244.07,-94.01 238.09,-92.76"/>
<polygon fill="#63b8ff" stroke="#63b8ff" points="238.72,-89.31 228.19,-90.56 237.2,-96.14 238.72,-89.31"/>
</g>
<!-- Node32&#45;&gt;Node28 -->
<g id="edge53" class="edge">
<title>Node32&#45;&gt;Node28</title>
<path fill="none" stroke="#63b8ff" d="M1077.87,-131.95C1107.59,-120.63 1148.95,-104.88 1177.23,-94.1"/>
<polygon fill="#63b8ff" stroke="#63b8ff" points="1178.54,-97.35 1186.64,-90.52 1176.05,-90.81 1178.54,-97.35"/>
</g>
<!-- Node32&#45;&gt;Node30 -->
<g id="edge59" class="edge">
<title>Node32&#45;&gt;Node30</title>
<path fill="none" stroke="#63b8ff" d="M1089.87,-143.61C1186.82,-138.43 1410.21,-124.27 1596,-96 1602.22,-95.05 1608.73,-93.88 1615.13,-92.61"/>
<polygon fill="#63b8ff" stroke="#63b8ff" points="1615.96,-96.01 1625.04,-90.56 1614.54,-89.16 1615.96,-96.01"/>
</g>
<!-- Node32&#45;&gt;Node31 -->
<g id="edge61" class="edge">
<title>Node32&#45;&gt;Node31</title>
<path fill="none" stroke="#63b8ff" d="M1044.77,-131.8C1047.22,-122.6 1050.42,-110.53 1053.07,-100.58"/>
<polygon fill="#63b8ff" stroke="#63b8ff" points="1056.47,-101.41 1055.65,-90.84 1049.7,-99.61 1056.47,-101.41"/>
</g>
<!-- Node33 -->
<g id="node33" class="node">
<title>Node33</title>
<g id="a_node33"><a xlink:title=" ">
<polygon fill="#e0e0e0" stroke="#999999" points="637,-90.5 513,-90.5 513,-71.5 637,-71.5 637,-90.5"/>
<text text-anchor="middle" x="575" y="-78.5" font-family="Helvetica,sans-Serif" font-size="10.00">flutter/method_channel.h</text>
</a>
</g>
</g>
<!-- Node32&#45;&gt;Node33 -->
<g id="edge54" class="edge">
<title>Node32&#45;&gt;Node33</title>
<path fill="none" stroke="#63b8ff" d="M992.18,-138.73C976.78,-136.5 959.69,-134.08 944,-132 811.75,-114.47 777.76,-116.92 646,-96 639.33,-94.94 632.33,-93.71 625.44,-92.42"/>
<polygon fill="#63b8ff" stroke="#63b8ff" points="625.94,-88.96 615.46,-90.52 624.62,-95.83 625.94,-88.96"/>
</g>
<!-- Node34 -->
<g id="node34" class="node">
<title>Node34</title>
<g id="a_node34"><a xlink:title=" ">
<polygon fill="#e0e0e0" stroke="#999999" points="761,-96 655,-96 655,-66 761,-66 761,-96"/>
<text text-anchor="start" x="663" y="-84" font-family="Helvetica,sans-Serif" font-size="10.00">flutter/method_result</text>
<text text-anchor="middle" x="708" y="-73" font-family="Helvetica,sans-Serif" font-size="10.00">_functions.h</text>
</a>
</g>
</g>
<!-- Node32&#45;&gt;Node34 -->
<g id="edge55" class="edge">
<title>Node32&#45;&gt;Node34</title>
<path fill="none" stroke="#63b8ff" d="M992.42,-137.64C940.17,-128.5 854.41,-113.13 770.97,-96.15"/>
<polygon fill="#63b8ff" stroke="#63b8ff" points="771.57,-92.7 761.07,-94.13 770.17,-99.56 771.57,-92.7"/>
</g>
<!-- Node35 -->
<g id="node35" class="node">
<title>Node35</title>
<g id="a_node35"><a xlink:title=" ">
<polygon fill="#e0e0e0" stroke="#999999" points="934.5,-96 779.5,-96 779.5,-66 934.5,-66 934.5,-96"/>
<text text-anchor="start" x="787.5" y="-84" font-family="Helvetica,sans-Serif" font-size="10.00">flutter/shell/platform</text>
<text text-anchor="middle" x="857" y="-73" font-family="Helvetica,sans-Serif" font-size="10.00">/common/json_method_codec.h</text>
</a>
</g>
</g>
<!-- Node32&#45;&gt;Node35 -->
<g id="edge57" class="edge">
<title>Node32&#45;&gt;Node35</title>
<path fill="none" stroke="#63b8ff" d="M1000.62,-131.95C973.06,-122.37 936.36,-109.6 906.95,-99.37"/>
<polygon fill="#63b8ff" stroke="#63b8ff" points="907.88,-95.99 897.29,-96.01 905.58,-102.6 907.88,-95.99"/>
</g>
<!-- Node36 -->
<g id="node36" class="node">
<title>Node36</title>
<g id="a_node36"><a xlink:title=" ">
<polygon fill="#e0e0e0" stroke="#999999" points="494.5,-96 351.5,-96 351.5,-66 494.5,-66 494.5,-96"/>
<text text-anchor="start" x="359.5" y="-84" font-family="Helvetica,sans-Serif" font-size="10.00">flutter/shell/platform</text>
<text text-anchor="middle" x="423" y="-73" font-family="Helvetica,sans-Serif" font-size="10.00">/common/text_input_model.h</text>
</a>
</g>
</g>
<!-- Node32&#45;&gt;Node36 -->
<g id="edge58" class="edge">
<title>Node32&#45;&gt;Node36</title>
<path fill="none" stroke="#63b8ff" d="M992.23,-138.36C976.82,-136.11 959.72,-133.78 944,-132 752.27,-110.34 700.36,-120.39 504.54,-95.98"/>
<polygon fill="#63b8ff" stroke="#63b8ff" points="504.86,-92.49 494.5,-94.72 503.99,-99.44 504.86,-92.49"/>
</g>
<!-- Node37&#45;&gt;Node15 -->
<g id="edge64" class="edge">
<title>Node37&#45;&gt;Node15</title>
<path fill="none" stroke="#63b8ff" d="M1560.12,-199.02C1622.65,-189.18 1724.38,-171.96 1739,-162 1761.18,-146.89 1775.78,-118.61 1783.47,-100.04"/>
<polygon fill="#63b8ff" stroke="#63b8ff" points="1786.77,-101.23 1787.12,-90.64 1780.24,-98.7 1786.77,-101.23"/>
</g>
<!-- Node37&#45;&gt;Node16 -->
<g id="edge65" class="edge">
<title>Node37&#45;&gt;Node16</title>
<path fill="none" stroke="#63b8ff" d="M1560.21,-198.69C1631.96,-187.2 1757.81,-166.6 1767,-162 1797.36,-146.82 1824.37,-117.27 1839.43,-98.64"/>
<polygon fill="#63b8ff" stroke="#63b8ff" points="1842.23,-100.74 1845.65,-90.71 1836.72,-96.42 1842.23,-100.74"/>
</g>
<!-- Node37&#45;&gt;Node24 -->
<g id="edge71" class="edge">
<title>Node37&#45;&gt;Node24</title>
<path fill="none" stroke="#63b8ff" d="M1461.86,-202.46C1368.52,-194.78 1159.18,-177.42 983,-162 659.8,-133.71 576.3,-147.65 256,-96 250.46,-95.11 244.66,-93.99 238.95,-92.78"/>
<polygon fill="#63b8ff" stroke="#63b8ff" points="239.37,-89.29 228.85,-90.53 237.85,-96.12 239.37,-89.29"/>
</g>
<!-- Node38 -->
<g id="node38" class="node">
<title>Node38</title>
<g id="a_node38"><a xlink:href="configuration_8h.html" target="_top" xlink:title=" ">
<polygon fill="white" stroke="#666666" points="1730.5,-156.5 1591.5,-156.5 1591.5,-137.5 1730.5,-137.5 1730.5,-156.5"/>
<text text-anchor="middle" x="1661" y="-144.5" font-family="Helvetica,sans-Serif" font-size="10.00">configuration/configuration.h</text>
</a>
</g>
</g>
<!-- Node37&#45;&gt;Node38 -->
<g id="edge66" class="edge">
<title>Node37&#45;&gt;Node38</title>
<path fill="none" stroke="#63b8ff" d="M1532.81,-197.99C1558.25,-188.07 1600.51,-171.59 1629.51,-160.28"/>
<polygon fill="#63b8ff" stroke="#63b8ff" points="1631.12,-163.41 1639.16,-156.52 1628.57,-156.89 1631.12,-163.41"/>
</g>
<!-- Node39 -->
<g id="node39" class="node">
<title>Node39</title>
<g id="a_node39"><a xlink:href="window_8h.html" target="_top" xlink:title=" ">
<polygon fill="white" stroke="#666666" points="2242,-156.5 2146,-156.5 2146,-137.5 2242,-137.5 2242,-156.5"/>
<text text-anchor="middle" x="2194" y="-144.5" font-family="Helvetica,sans-Serif" font-size="10.00">wayland/window.h</text>
</a>
</g>
</g>
<!-- Node37&#45;&gt;Node39 -->
<g id="edge72" class="edge">
<title>Node37&#45;&gt;Node39</title>
<path fill="none" stroke="#63b8ff" d="M1560.01,-199.04C1563.05,-198.67 1566.07,-198.31 1569,-198 1803.76,-172.86 1864.25,-187.23 2099,-162 2110.91,-160.72 2123.63,-159.05 2135.75,-157.32"/>
<polygon fill="#63b8ff" stroke="#63b8ff" points="2136.38,-160.77 2145.76,-155.86 2135.36,-153.84 2136.38,-160.77"/>
</g>
<!-- Node38&#45;&gt;Node4 -->
<g id="edge68" class="edge">
<title>Node38&#45;&gt;Node4</title>
<path fill="none" stroke="#63b8ff" d="M1730.73,-142.69C1930.37,-133.11 2492.39,-105.48 2531,-96 2532.73,-95.57 2534.49,-95.05 2536.24,-94.47"/>
<polygon fill="#63b8ff" stroke="#63b8ff" points="2538,-97.53 2545.99,-90.57 2535.41,-91.03 2538,-97.53"/>
</g>
<!-- Node38&#45;&gt;Node19 -->
<g id="edge67" class="edge">
<title>Node38&#45;&gt;Node19</title>
<path fill="none" stroke="#63b8ff" d="M1715.33,-137.43C1761.69,-129.3 1829.73,-115.44 1887,-96 1888.39,-95.53 1889.81,-95.01 1891.23,-94.46"/>
<polygon fill="#63b8ff" stroke="#63b8ff" points="1892.63,-97.66 1900.45,-90.51 1889.88,-91.23 1892.63,-97.66"/>
</g>
<!-- Node38&#45;&gt;Node24 -->
<g id="edge69" class="edge">
<title>Node38&#45;&gt;Node24</title>
<path fill="none" stroke="#63b8ff" d="M1591.29,-141.12C1546.63,-138.13 1487.42,-134.42 1435,-132 911.32,-107.79 775.83,-163.9 256,-96 249.95,-95.21 243.62,-94.08 237.44,-92.79"/>
<polygon fill="#63b8ff" stroke="#63b8ff" points="237.76,-89.28 227.24,-90.53 236.24,-96.11 237.76,-89.28"/>
</g>
<!-- Node38&#45;&gt;Node30 -->
<g id="edge70" class="edge">
<title>Node38&#45;&gt;Node30</title>
<path fill="none" stroke="#63b8ff" d="M1661,-137.37C1661,-128.16 1661,-113.29 1661,-101.27"/>
<polygon fill="#63b8ff" stroke="#63b8ff" points="1664.5,-100.91 1661,-90.91 1657.5,-100.91 1664.5,-100.91"/>
</g>
<!-- Node39&#45;&gt;Node6 -->
<g id="edge78" class="edge">
<title>Node39&#45;&gt;Node6</title>
<path fill="none" stroke="#63b8ff" d="M2191.45,-156.77C2183.78,-183.15 2160.8,-262.16 2150.32,-298.21"/>
<polygon fill="#63b8ff" stroke="#63b8ff" points="2146.93,-297.33 2147.5,-307.91 2153.65,-299.29 2146.93,-297.33"/>
</g>
<!-- Node39&#45;&gt;Node7 -->
<g id="edge77" class="edge">
<title>Node39&#45;&gt;Node7</title>
<path fill="none" stroke="#63b8ff" d="M2145.81,-137.7C2130.85,-135.45 2114.28,-133.28 2099,-132 1709.83,-99.47 727.05,-161.15 342,-96 338.3,-95.37 334.48,-94.49 330.72,-93.47"/>
<polygon fill="#63b8ff" stroke="#63b8ff" points="331.59,-90.08 321,-90.54 329.56,-96.78 331.59,-90.08"/>
</g>
<!-- Node39&#45;&gt;Node16 -->
<g id="edge73" class="edge">
<title>Node39&#45;&gt;Node16</title>
<path fill="none" stroke="#63b8ff" d="M2145.7,-138.73C2065.56,-126.57 1911.45,-102.79 1887,-96 1885.06,-95.46 1883.08,-94.85 1881.1,-94.19"/>
<polygon fill="#63b8ff" stroke="#63b8ff" points="1881.96,-90.78 1871.36,-90.62 1879.55,-97.35 1881.96,-90.78"/>
</g>
<!-- Node39&#45;&gt;Node19 -->
<g id="edge74" class="edge">
<title>Node39&#45;&gt;Node19</title>
<path fill="none" stroke="#63b8ff" d="M2156.93,-137.44C2101.62,-124.66 1998.55,-100.84 1947.4,-89.02"/>
<polygon fill="#63b8ff" stroke="#63b8ff" points="1948.14,-85.6 1937.61,-86.76 1946.56,-92.42 1948.14,-85.6"/>
</g>
<!-- Node39&#45;&gt;Node40 -->
<g id="edge75" class="edge">
<title>Node39&#45;&gt;Node40</title>
<path fill="none" stroke="#63b8ff" d="M2242.06,-140.38C2350.38,-127.7 2611.46,-97.16 2706.04,-86.09"/>
<polygon fill="#63b8ff" stroke="#63b8ff" points="2706.69,-89.54 2716.22,-84.9 2705.88,-82.59 2706.69,-89.54"/>
</g>
<!-- Node41 -->
<g id="node41" class="node">
<title>Node41</title>
<g id="a_node41"><a xlink:title=" ">
<polygon fill="#e0e0e0" stroke="#999999" points="2401.5,-90.5 2276.5,-90.5 2276.5,-71.5 2401.5,-71.5 2401.5,-90.5"/>
<text text-anchor="middle" x="2339" y="-78.5" font-family="Helvetica,sans-Serif" font-size="10.00">agl&#45;shell&#45;client&#45;protocol.h</text>
</a>
</g>
</g>
<!-- Node39&#45;&gt;Node41 -->
<g id="edge76" class="edge">
<title>Node39&#45;&gt;Node41</title>
<path fill="none" stroke="#63b8ff" d="M2213.56,-137.37C2238.31,-126.44 2281.17,-107.52 2309.81,-94.88"/>
<polygon fill="#63b8ff" stroke="#63b8ff" points="2311.56,-97.94 2319.29,-90.7 2308.73,-91.54 2311.56,-97.94"/>
</g>
<!-- Node42 -->
<g id="node42" class="node">
<title>Node42</title>
<g id="a_node42"><a xlink:title=" ">
<polygon fill="#e0e0e0" stroke="#999999" points="2522,-96 2420,-96 2420,-66 2522,-66 2522,-96"/>
<text text-anchor="start" x="2428" y="-84" font-family="Helvetica,sans-Serif" font-size="10.00">ivi&#45;application&#45;client</text>
<text text-anchor="middle" x="2471" y="-73" font-family="Helvetica,sans-Serif" font-size="10.00">&#45;protocol.h</text>
</a>
</g>
</g>
<!-- Node39&#45;&gt;Node42 -->
<g id="edge79" class="edge">
<title>Node39&#45;&gt;Node42</title>
<path fill="none" stroke="#63b8ff" d="M2231.25,-137.45C2272.46,-127.98 2341.1,-112.2 2409.8,-96.27"/>
<polygon fill="#63b8ff" stroke="#63b8ff" points="2410.99,-99.59 2419.94,-93.92 2409.41,-92.77 2410.99,-99.59"/>
</g>
<!-- Node43 -->
<g id="node43" class="node">
<title>Node43</title>
<g id="a_node43"><a xlink:title=" ">
<polygon fill="#e0e0e0" stroke="#999999" points="2111.5,-90.5 1994.5,-90.5 1994.5,-71.5 2111.5,-71.5 2111.5,-90.5"/>
<text text-anchor="middle" x="2053" y="-78.5" font-family="Helvetica,sans-Serif" font-size="10.00">ivi&#45;wm&#45;client&#45;protocol.h</text>
</a>
</g>
</g>
<!-- Node39&#45;&gt;Node43 -->
<g id="edge80" class="edge">
<title>Node39&#45;&gt;Node43</title>
<path fill="none" stroke="#63b8ff" d="M2174.98,-137.37C2150.91,-126.44 2109.23,-107.52 2081.39,-94.88"/>
<polygon fill="#63b8ff" stroke="#63b8ff" points="2082.72,-91.65 2072.16,-90.7 2079.82,-98.02 2082.72,-91.65"/>
</g>
<!-- Node44 -->
<g id="node44" class="node">
<title>Node44</title>
<g id="a_node44"><a xlink:title=" ">
<polygon fill="#e0e0e0" stroke="#999999" points="2258,-90.5 2130,-90.5 2130,-71.5 2258,-71.5 2258,-90.5"/>
<text text-anchor="middle" x="2194" y="-78.5" font-family="Helvetica,sans-Serif" font-size="10.00">xdg&#45;shell&#45;client&#45;protocol.h</text>
</a>
</g>
</g>
<!-- Node39&#45;&gt;Node44 -->
<g id="edge81" class="edge">
<title>Node39&#45;&gt;Node44</title>
<path fill="none" stroke="#63b8ff" d="M2194,-137.37C2194,-128.16 2194,-113.29 2194,-101.27"/>
<polygon fill="#63b8ff" stroke="#63b8ff" points="2197.5,-100.91 2194,-90.91 2190.5,-100.91 2197.5,-100.91"/>
</g>
</g>
</svg>
