<?xml version="1.0" encoding="UTF-8" standalone="no"?>
<!DOCTYPE svg PUBLIC "-//W3C//DTD SVG 1.1//EN"
 "http://www.w3.org/Graphics/SVG/1.1/DTD/svg11.dtd">
<!-- Generated by graphviz version 2.43.0 (0)
 -->
<!-- Title: /home/joel.winarske@toyotaconnected.com/development/workspace&#45;automation&#45;configs/app/ivi&#45;homescreen/shell/backend/wayland_vulkan.cc Pages: 1 -->
<svg width="2841pt" height="508pt"
 viewBox="0.00 0.00 2840.50 508.00" xmlns="http://www.w3.org/2000/svg" xmlns:xlink="http://www.w3.org/1999/xlink">
<g id="graph0" class="graph" transform="scale(1 1) rotate(0) translate(4 504)">
<title>/home/joel.winarske@toyotaconnected.com/development/workspace&#45;automation&#45;configs/app/ivi&#45;homescreen/shell/backend/wayland_vulkan.cc</title>
<polygon fill="white" stroke="transparent" points="-4,4 -4,-504 2836.5,-504 2836.5,4 -4,4"/>
<!-- Node1 -->
<g id="node1" class="node">
<title>Node1</title>
<g id="a_node1"><a xlink:title=" ">
<polygon fill="#bfbfbf" stroke="black" points="2546,-425.5 2546,-499.5 2711,-499.5 2711,-425.5 2546,-425.5"/>
<text text-anchor="start" x="2554" y="-487.5" font-family="Helvetica,sans-Serif" font-size="10.00">/home/joel.winarske</text>
<text text-anchor="start" x="2554" y="-476.5" font-family="Helvetica,sans-Serif" font-size="10.00">@toyotaconnected.com</text>
<text text-anchor="start" x="2554" y="-465.5" font-family="Helvetica,sans-Serif" font-size="10.00">/development/workspace</text>
<text text-anchor="start" x="2554" y="-454.5" font-family="Helvetica,sans-Serif" font-size="10.00">&#45;automation&#45;configs/app</text>
<text text-anchor="start" x="2554" y="-443.5" font-family="Helvetica,sans-Serif" font-size="10.00">/ivi&#45;homescreen/shell/backend</text>
<text text-anchor="middle" x="2628.5" y="-432.5" font-family="Helvetica,sans-Serif" font-size="10.00">/wayland_vulkan.cc</text>
</a>
</g>
</g>
<!-- Node2 -->
<g id="node2" class="node">
<title>Node2</title>
<g id="a_node2"><a xlink:href="wayland__vulkan_8h.html" target="_top" xlink:title=" ">
<polygon fill="white" stroke="black" points="198.5,-369.5 198.5,-388.5 302.5,-388.5 302.5,-369.5 198.5,-369.5"/>
<text text-anchor="middle" x="250.5" y="-376.5" font-family="Helvetica,sans-Serif" font-size="10.00">wayland_vulkan.h</text>
</a>
</g>
</g>
<!-- Node1&#45;&gt;Node2 -->
<g id="edge1" class="edge">
<title>Node1&#45;&gt;Node2</title>
<path fill="none" stroke="midnightblue" d="M2545.78,-459.53C2253.48,-452.43 1241.9,-426.53 407.5,-389 376.41,-387.6 341.87,-385.66 313.13,-383.94"/>
<polygon fill="midnightblue" stroke="midnightblue" points="313.01,-380.43 302.82,-383.32 312.59,-387.42 313.01,-380.43"/>
</g>
<!-- Node7 -->
<g id="node7" class="node">
<title>Node7</title>
<g id="a_node7"><a xlink:href="constants_8h.html" target="_top" xlink:title=" ">
<polygon fill="white" stroke="black" points="2672,-73 2672,-92 2745,-92 2745,-73 2672,-73"/>
<text text-anchor="middle" x="2708.5" y="-80" font-family="Helvetica,sans-Serif" font-size="10.00">constants.h</text>
</a>
</g>
</g>
<!-- Node1&#45;&gt;Node7 -->
<g id="edge79" class="edge">
<title>Node1&#45;&gt;Node7</title>
<path fill="none" stroke="midnightblue" d="M2650.4,-425.26C2664.61,-398.31 2680.5,-360.11 2680.5,-324 2680.5,-324 2680.5,-324 2680.5,-210 2680.5,-170.79 2693.48,-126.33 2701.77,-101.95"/>
<polygon fill="midnightblue" stroke="midnightblue" points="2705.16,-102.84 2705.18,-92.25 2698.56,-100.52 2705.16,-102.84"/>
</g>
<!-- Node10 -->
<g id="node10" class="node">
<title>Node10</title>
<g id="a_node10"><a xlink:href="engine_8h.html" target="_top" xlink:title=" ">
<polygon fill="white" stroke="black" points="1584,-257.5 1584,-276.5 1643,-276.5 1643,-257.5 1584,-257.5"/>
<text text-anchor="middle" x="1613.5" y="-264.5" font-family="Helvetica,sans-Serif" font-size="10.00">engine.h</text>
</a>
</g>
</g>
<!-- Node1&#45;&gt;Node10 -->
<g id="edge80" class="edge">
<title>Node1&#45;&gt;Node10</title>
<path fill="none" stroke="midnightblue" d="M2545.87,-445.75C2338.83,-406.28 1803.72,-304.26 1653.34,-275.59"/>
<polygon fill="midnightblue" stroke="midnightblue" points="1653.66,-272.09 1643.18,-273.66 1652.35,-278.97 1653.66,-272.09"/>
</g>
<!-- Node17 -->
<g id="node17" class="node">
<title>Node17</title>
<g id="a_node17"><a xlink:title=" ">
<polygon fill="white" stroke="#bfbfbf" points="2605,-201.5 2605,-220.5 2652,-220.5 2652,-201.5 2605,-201.5"/>
<text text-anchor="middle" x="2628.5" y="-208.5" font-family="Helvetica,sans-Serif" font-size="10.00">queue</text>
</a>
</g>
</g>
<!-- Node1&#45;&gt;Node17 -->
<g id="edge78" class="edge">
<title>Node1&#45;&gt;Node17</title>
<path fill="none" stroke="midnightblue" d="M2628.5,-425.49C2628.5,-371.71 2628.5,-272.3 2628.5,-230.88"/>
<polygon fill="midnightblue" stroke="midnightblue" points="2632,-230.83 2628.5,-220.83 2625,-230.83 2632,-230.83"/>
</g>
<!-- Node37 -->
<g id="node37" class="node">
<title>Node37</title>
<g id="a_node37"><a xlink:title=" ">
<polygon fill="white" stroke="#bfbfbf" points="297.5,-73 297.5,-92 349.5,-92 349.5,-73 297.5,-73"/>
<text text-anchor="middle" x="323.5" y="-80" font-family="Helvetica,sans-Serif" font-size="10.00">cassert</text>
</a>
</g>
</g>
<!-- Node1&#45;&gt;Node37 -->
<g id="edge75" class="edge">
<title>Node1&#45;&gt;Node37</title>
<path fill="none" stroke="midnightblue" d="M2545.68,-460.76C2144.4,-456.62 421.5,-432.54 421.5,-324 421.5,-324 421.5,-324 421.5,-210 421.5,-160.65 374.32,-118.88 345.43,-97.93"/>
<polygon fill="midnightblue" stroke="midnightblue" points="347.32,-94.99 337.13,-92.12 343.31,-100.72 347.32,-94.99"/>
</g>
<!-- Node41 -->
<g id="node41" class="node">
<title>Node41</title>
<g id="a_node41"><a xlink:title=" ">
<polygon fill="white" stroke="#bfbfbf" points="2709,-369.5 2709,-388.5 2758,-388.5 2758,-369.5 2709,-369.5"/>
<text text-anchor="middle" x="2733.5" y="-376.5" font-family="Helvetica,sans-Serif" font-size="10.00">cstdlib</text>
</a>
</g>
</g>
<!-- Node1&#45;&gt;Node41 -->
<g id="edge76" class="edge">
<title>Node1&#45;&gt;Node41</title>
<path fill="none" stroke="midnightblue" d="M2675.17,-425.28C2689,-414.54 2703.37,-403.38 2714.39,-394.83"/>
<polygon fill="midnightblue" stroke="midnightblue" points="2716.68,-397.48 2722.44,-388.59 2712.39,-391.95 2716.68,-397.48"/>
</g>
<!-- Node42 -->
<g id="node42" class="node">
<title>Node42</title>
<g id="a_node42"><a xlink:title=" ">
<polygon fill="white" stroke="#bfbfbf" points="2776.5,-369.5 2776.5,-388.5 2832.5,-388.5 2832.5,-369.5 2776.5,-369.5"/>
<text text-anchor="middle" x="2804.5" y="-376.5" font-family="Helvetica,sans-Serif" font-size="10.00">optional</text>
</a>
</g>
</g>
<!-- Node1&#45;&gt;Node42 -->
<g id="edge77" class="edge">
<title>Node1&#45;&gt;Node42</title>
<path fill="none" stroke="midnightblue" d="M2706.46,-425.4C2731.52,-413.79 2757.68,-401.68 2776.66,-392.89"/>
<polygon fill="midnightblue" stroke="midnightblue" points="2778.29,-395.99 2785.89,-388.62 2775.35,-389.64 2778.29,-395.99"/>
</g>
<!-- Node3 -->
<g id="node3" class="node">
<title>Node3</title>
<g id="a_node3"><a xlink:title=" ">
<polygon fill="white" stroke="#bfbfbf" points="115.5,-313.5 115.5,-332.5 165.5,-332.5 165.5,-313.5 115.5,-313.5"/>
<text text-anchor="middle" x="140.5" y="-320.5" font-family="Helvetica,sans-Serif" font-size="10.00">cstdint</text>
</a>
</g>
</g>
<!-- Node2&#45;&gt;Node3 -->
<g id="edge2" class="edge">
<title>Node2&#45;&gt;Node3</title>
<path fill="none" stroke="midnightblue" d="M232.83,-369.32C215.11,-360.62 187.6,-347.12 167.21,-337.11"/>
<polygon fill="midnightblue" stroke="midnightblue" points="168.65,-333.92 158.13,-332.65 165.56,-340.2 168.65,-333.92"/>
</g>
<!-- Node4 -->
<g id="node4" class="node">
<title>Node4</title>
<g id="a_node4"><a xlink:title=" ">
<polygon fill="white" stroke="#bfbfbf" points="368,-73 368,-92 415,-92 415,-73 368,-73"/>
<text text-anchor="middle" x="391.5" y="-80" font-family="Helvetica,sans-Serif" font-size="10.00">vector</text>
</a>
</g>
</g>
<!-- Node2&#45;&gt;Node4 -->
<g id="edge3" class="edge">
<title>Node2&#45;&gt;Node4</title>
<path fill="none" stroke="midnightblue" d="M258.67,-369.38C274.43,-351.81 307.5,-309.94 307.5,-268 307.5,-268 307.5,-268 307.5,-210 307.5,-163.34 347.65,-120.73 372.44,-98.88"/>
<polygon fill="midnightblue" stroke="midnightblue" points="374.83,-101.43 380.17,-92.28 370.29,-96.11 374.83,-101.43"/>
</g>
<!-- Node5 -->
<g id="node5" class="node">
<title>Node5</title>
<g id="a_node5"><a xlink:title=" ">
<polygon fill="white" stroke="#bfbfbf" points="836,-0.5 836,-30.5 973,-30.5 973,-0.5 836,-0.5"/>
<text text-anchor="start" x="844" y="-18.5" font-family="Helvetica,sans-Serif" font-size="10.00">shell/platform/embedder</text>
<text text-anchor="middle" x="904.5" y="-7.5" font-family="Helvetica,sans-Serif" font-size="10.00">/embedder.h</text>
</a>
</g>
</g>
<!-- Node2&#45;&gt;Node5 -->
<g id="edge4" class="edge">
<title>Node2&#45;&gt;Node5</title>
<path fill="none" stroke="midnightblue" d="M242.33,-369.38C226.57,-351.81 193.5,-309.94 193.5,-268 193.5,-268 193.5,-268 193.5,-148.5 193.5,-106.69 205.11,-89.27 240.5,-67 288.99,-36.48 660.5,-22.95 825.71,-18.39"/>
<polygon fill="midnightblue" stroke="midnightblue" points="825.91,-21.89 835.82,-18.12 825.72,-14.89 825.91,-21.89"/>
</g>
<!-- Node6 -->
<g id="node6" class="node">
<title>Node6</title>
<g id="a_node6"><a xlink:href="backend_8h.html" target="_top" xlink:title=" ">
<polygon fill="white" stroke="black" points="1268.5,-313.5 1268.5,-332.5 1378.5,-332.5 1378.5,-313.5 1268.5,-313.5"/>
<text text-anchor="middle" x="1323.5" y="-320.5" font-family="Helvetica,sans-Serif" font-size="10.00">backend/backend.h</text>
</a>
</g>
</g>
<!-- Node2&#45;&gt;Node6 -->
<g id="edge5" class="edge">
<title>Node2&#45;&gt;Node6</title>
<path fill="none" stroke="midnightblue" d="M302.62,-375.38C480.22,-366.44 1061.64,-337.18 1258.02,-327.3"/>
<polygon fill="midnightblue" stroke="midnightblue" points="1258.38,-330.78 1268.19,-326.78 1258.03,-323.79 1258.38,-330.78"/>
</g>
<!-- Node40 -->
<g id="node40" class="node">
<title>Node40</title>
<g id="a_node40"><a xlink:title=" ">
<polygon fill="white" stroke="#bfbfbf" points="0,-313.5 0,-332.5 97,-332.5 97,-313.5 0,-313.5"/>
<text text-anchor="middle" x="48.5" y="-320.5" font-family="Helvetica,sans-Serif" font-size="10.00">bluevk/BlueVK.h</text>
</a>
</g>
</g>
<!-- Node2&#45;&gt;Node40 -->
<g id="edge74" class="edge">
<title>Node2&#45;&gt;Node40</title>
<path fill="none" stroke="midnightblue" d="M218.49,-369.44C183.77,-360.16 128.21,-345.31 90.12,-335.13"/>
<polygon fill="midnightblue" stroke="midnightblue" points="90.92,-331.72 80.36,-332.52 89.11,-338.48 90.92,-331.72"/>
</g>
<!-- Node6&#45;&gt;Node5 -->
<g id="edge6" class="edge">
<title>Node6&#45;&gt;Node5</title>
<path fill="none" stroke="midnightblue" d="M1268.22,-322.3C1046.24,-322.77 231.5,-317.33 231.5,-212 231.5,-212 231.5,-212 231.5,-148.5 231.5,-106.69 243.16,-89.36 278.5,-67 323.72,-38.39 667.72,-23.96 825.66,-18.79"/>
<polygon fill="midnightblue" stroke="midnightblue" points="825.91,-22.28 835.79,-18.46 825.68,-15.29 825.91,-22.28"/>
</g>
<!-- Node6&#45;&gt;Node7 -->
<g id="edge7" class="edge">
<title>Node6&#45;&gt;Node7</title>
<path fill="none" stroke="midnightblue" d="M1378.69,-319.11C1520.99,-310.97 1911.5,-284.17 2230.5,-221 2399.93,-187.45 2596.4,-122.39 2674.23,-95.54"/>
<polygon fill="midnightblue" stroke="midnightblue" points="2675.68,-98.74 2683.98,-92.16 2673.39,-92.12 2675.68,-98.74"/>
</g>
<!-- Node6&#45;&gt;Node10 -->
<g id="edge11" class="edge">
<title>Node6&#45;&gt;Node10</title>
<path fill="none" stroke="midnightblue" d="M1364.36,-313.44C1420.06,-302.63 1518.88,-284.26 1573.91,-274.52"/>
<polygon fill="midnightblue" stroke="midnightblue" points="1574.74,-277.93 1583.99,-272.75 1573.53,-271.03 1574.74,-277.93"/>
</g>
<!-- Node7&#45;&gt;Node5 -->
<g id="edge9" class="edge">
<title>Node7&#45;&gt;Node5</title>
<path fill="none" stroke="midnightblue" d="M2683.09,-72.94C2675,-70.57 2665.96,-68.3 2657.5,-67 2328.14,-16.24 1280.28,-15.37 983.51,-16.18"/>
<polygon fill="midnightblue" stroke="midnightblue" points="983.26,-12.68 973.27,-16.21 983.28,-19.68 983.26,-12.68"/>
</g>
<!-- Node8 -->
<g id="node8" class="node">
<title>Node8</title>
<g id="a_node8"><a xlink:title=" ">
<polygon fill="white" stroke="#bfbfbf" points="2742.5,-6 2742.5,-25 2804.5,-25 2804.5,-6 2742.5,-6"/>
<text text-anchor="middle" x="2773.5" y="-13" font-family="Helvetica,sans-Serif" font-size="10.00">EGL/egl.h</text>
</a>
</g>
</g>
<!-- Node7&#45;&gt;Node8 -->
<g id="edge8" class="edge">
<title>Node7&#45;&gt;Node8</title>
<path fill="none" stroke="midnightblue" d="M2717.27,-72.73C2727.6,-62.4 2744.96,-45.04 2757.67,-32.33"/>
<polygon fill="midnightblue" stroke="midnightblue" points="2760.28,-34.67 2764.87,-25.13 2755.33,-29.72 2760.28,-34.67"/>
</g>
<!-- Node9 -->
<g id="node9" class="node">
<title>Node9</title>
<g id="a_node9"><a xlink:title=" ">
<polygon fill="white" stroke="#bfbfbf" points="2682.5,-6 2682.5,-25 2724.5,-25 2724.5,-6 2682.5,-6"/>
<text text-anchor="middle" x="2703.5" y="-13" font-family="Helvetica,sans-Serif" font-size="10.00">array</text>
</a>
</g>
</g>
<!-- Node7&#45;&gt;Node9 -->
<g id="edge10" class="edge">
<title>Node7&#45;&gt;Node9</title>
<path fill="none" stroke="midnightblue" d="M2707.83,-72.73C2707.09,-63.18 2705.89,-47.62 2704.94,-35.28"/>
<polygon fill="midnightblue" stroke="midnightblue" points="2708.42,-34.83 2704.16,-25.13 2701.44,-35.37 2708.42,-34.83"/>
</g>
<!-- Node10&#45;&gt;Node4 -->
<g id="edge22" class="edge">
<title>Node10&#45;&gt;Node4</title>
<path fill="none" stroke="midnightblue" d="M1583.61,-265.03C1465.52,-260.74 1020.56,-240.21 663.5,-165 555.13,-142.17 527.57,-135.85 423.5,-98 421.88,-97.41 420.24,-96.78 418.58,-96.12"/>
<polygon fill="midnightblue" stroke="midnightblue" points="419.81,-92.83 409.24,-92.12 417.06,-99.27 419.81,-92.83"/>
</g>
<!-- Node10&#45;&gt;Node5 -->
<g id="edge16" class="edge">
<title>Node10&#45;&gt;Node5</title>
<path fill="none" stroke="midnightblue" d="M1583.71,-265.36C1482.37,-262.93 1141.85,-252.77 862.5,-221 713.38,-204.04 676,-197.59 529.5,-165 420.98,-140.86 355.76,-186.52 288.5,-98 280.16,-87.03 279.16,-77.13 288.5,-67 324.21,-28.25 667.82,-19.23 825.78,-17.14"/>
<polygon fill="midnightblue" stroke="midnightblue" points="825.95,-20.63 835.91,-17.01 825.86,-13.63 825.95,-20.63"/>
</g>
<!-- Node10&#45;&gt;Node6 -->
<g id="edge23" class="edge">
<title>Node10&#45;&gt;Node6</title>
<path fill="none" stroke="midnightblue" d="M1583.67,-274.4C1536.85,-283.6 1445.52,-300.66 1384.45,-311.67"/>
<polygon fill="midnightblue" stroke="midnightblue" points="1383.76,-308.23 1374.54,-313.44 1385,-315.12 1383.76,-308.23"/>
</g>
<!-- Node10&#45;&gt;Node7 -->
<g id="edge24" class="edge">
<title>Node10&#45;&gt;Node7</title>
<path fill="none" stroke="midnightblue" d="M1643.07,-266.2C1727.75,-266.22 1978.08,-262.5 2180.5,-221 2299.04,-196.7 2321.26,-163.98 2438.5,-134 2527.27,-111.3 2551.59,-115.69 2641.5,-98 2648.09,-96.7 2655.03,-95.27 2661.85,-93.83"/>
<polygon fill="midnightblue" stroke="midnightblue" points="2662.64,-97.24 2671.69,-91.73 2661.18,-90.4 2662.64,-97.24"/>
</g>
<!-- Node10&#45;&gt;Node8 -->
<g id="edge13" class="edge">
<title>Node10&#45;&gt;Node8</title>
<path fill="none" stroke="midnightblue" d="M1643.23,-265.49C1732.59,-263.61 2006.48,-255.24 2230.5,-221 2466.97,-184.85 2585.48,-267.28 2754.5,-98 2770.99,-81.48 2774.27,-53.6 2774.42,-35.12"/>
<polygon fill="midnightblue" stroke="midnightblue" points="2777.92,-34.94 2774.2,-25.02 2770.92,-35.09 2777.92,-34.94"/>
</g>
<!-- Node11 -->
<g id="node11" class="node">
<title>Node11</title>
<g id="a_node11"><a xlink:title=" ">
<polygon fill="white" stroke="#bfbfbf" points="1856,-201.5 1856,-220.5 1921,-220.5 1921,-201.5 1856,-201.5"/>
<text text-anchor="middle" x="1888.5" y="-208.5" font-family="Helvetica,sans-Serif" font-size="10.00">functional</text>
</a>
</g>
</g>
<!-- Node10&#45;&gt;Node11 -->
<g id="edge12" class="edge">
<title>Node10&#45;&gt;Node11</title>
<path fill="none" stroke="midnightblue" d="M1643.19,-260.17C1692.09,-250.57 1789.74,-231.39 1845.97,-220.35"/>
<polygon fill="midnightblue" stroke="midnightblue" points="1846.83,-223.75 1855.96,-218.39 1845.48,-216.88 1846.83,-223.75"/>
</g>
<!-- Node12 -->
<g id="node12" class="node">
<title>Node12</title>
<g id="a_node12"><a xlink:title=" ">
<polygon fill="white" stroke="#bfbfbf" points="1939.5,-201.5 1939.5,-220.5 2013.5,-220.5 2013.5,-201.5 1939.5,-201.5"/>
<text text-anchor="middle" x="1976.5" y="-208.5" font-family="Helvetica,sans-Serif" font-size="10.00">GLES2/gl2.h</text>
</a>
</g>
</g>
<!-- Node10&#45;&gt;Node12 -->
<g id="edge14" class="edge">
<title>Node10&#45;&gt;Node12</title>
<path fill="none" stroke="midnightblue" d="M1643.2,-262.25C1697.63,-255.28 1817.27,-239.47 1929.22,-220.97"/>
<polygon fill="midnightblue" stroke="midnightblue" points="1930.04,-224.38 1939.33,-219.29 1928.89,-217.48 1930.04,-224.38"/>
</g>
<!-- Node13 -->
<g id="node13" class="node">
<title>Node13</title>
<g id="a_node13"><a xlink:title=" ">
<polygon fill="white" stroke="#bfbfbf" points="2031.5,-201.5 2031.5,-220.5 2171.5,-220.5 2171.5,-201.5 2031.5,-201.5"/>
<text text-anchor="middle" x="2101.5" y="-208.5" font-family="Helvetica,sans-Serif" font-size="10.00">flutter/encodable_value.h</text>
</a>
</g>
</g>
<!-- Node10&#45;&gt;Node13 -->
<g id="edge15" class="edge">
<title>Node10&#45;&gt;Node13</title>
<path fill="none" stroke="midnightblue" d="M1643.02,-262.79C1708.81,-255.63 1872.75,-237.75 2021.09,-221.15"/>
<polygon fill="midnightblue" stroke="midnightblue" points="2021.74,-224.6 2031.29,-220.01 2020.96,-217.65 2021.74,-224.6"/>
</g>
<!-- Node14 -->
<g id="node14" class="node">
<title>Node14</title>
<g id="a_node14"><a xlink:title=" ">
<polygon fill="white" stroke="#bfbfbf" points="2577.5,-73 2577.5,-92 2615.5,-92 2615.5,-73 2577.5,-73"/>
<text text-anchor="middle" x="2596.5" y="-80" font-family="Helvetica,sans-Serif" font-size="10.00">map</text>
</a>
</g>
</g>
<!-- Node10&#45;&gt;Node14 -->
<g id="edge17" class="edge">
<title>Node10&#45;&gt;Node14</title>
<path fill="none" stroke="midnightblue" d="M1639.78,-257.46C1682.64,-243.8 1770.46,-216.96 1846.5,-201 1925.81,-184.36 2491.32,-122.7 2568.5,-98 2569.93,-97.54 2571.38,-97.01 2572.83,-96.44"/>
<polygon fill="midnightblue" stroke="midnightblue" points="2574.48,-99.53 2582.08,-92.14 2571.53,-93.18 2574.48,-99.53"/>
</g>
<!-- Node15 -->
<g id="node15" class="node">
<title>Node15</title>
<g id="a_node15"><a xlink:title=" ">
<polygon fill="white" stroke="#bfbfbf" points="756.5,-73 756.5,-92 814.5,-92 814.5,-73 756.5,-73"/>
<text text-anchor="middle" x="785.5" y="-80" font-family="Helvetica,sans-Serif" font-size="10.00">memory</text>
</a>
</g>
</g>
<!-- Node10&#45;&gt;Node15 -->
<g id="edge18" class="edge">
<title>Node10&#45;&gt;Node15</title>
<path fill="none" stroke="midnightblue" d="M1583.82,-265.89C1506.85,-265.05 1294.86,-259.16 1123.5,-221 1052,-205.08 1036.44,-192.36 968.5,-165 912.47,-142.44 848.24,-112.98 812.72,-96.36"/>
<polygon fill="midnightblue" stroke="midnightblue" points="814.04,-93.12 803.5,-92.04 811.06,-99.45 814.04,-93.12"/>
</g>
<!-- Node16 -->
<g id="node16" class="node">
<title>Node16</title>
<g id="a_node16"><a xlink:title=" ">
<polygon fill="white" stroke="#bfbfbf" points="1390.5,-201.5 1390.5,-220.5 1438.5,-220.5 1438.5,-201.5 1390.5,-201.5"/>
<text text-anchor="middle" x="1414.5" y="-208.5" font-family="Helvetica,sans-Serif" font-size="10.00">mutex</text>
</a>
</g>
</g>
<!-- Node10&#45;&gt;Node16 -->
<g id="edge19" class="edge">
<title>Node10&#45;&gt;Node16</title>
<path fill="none" stroke="midnightblue" d="M1583.81,-257.97C1552.54,-249.5 1501.6,-235.7 1448.57,-221.29"/>
<polygon fill="midnightblue" stroke="midnightblue" points="1449.22,-217.84 1438.65,-218.59 1447.38,-224.59 1449.22,-217.84"/>
</g>
<!-- Node10&#45;&gt;Node17 -->
<g id="edge20" class="edge">
<title>Node10&#45;&gt;Node17</title>
<path fill="none" stroke="midnightblue" d="M1643.25,-265.38C1785.9,-262.28 2400.7,-247.61 2590.5,-221 2591.97,-220.79 2593.46,-220.56 2594.97,-220.3"/>
<polygon fill="midnightblue" stroke="midnightblue" points="2595.8,-223.7 2604.91,-218.31 2594.42,-216.84 2595.8,-223.7"/>
</g>
<!-- Node18 -->
<g id="node18" class="node">
<title>Node18</title>
<g id="a_node18"><a xlink:title=" ">
<polygon fill="white" stroke="#bfbfbf" points="832.5,-73 832.5,-92 876.5,-92 876.5,-73 832.5,-73"/>
<text text-anchor="middle" x="854.5" y="-80" font-family="Helvetica,sans-Serif" font-size="10.00">string</text>
</a>
</g>
</g>
<!-- Node10&#45;&gt;Node18 -->
<g id="edge21" class="edge">
<title>Node10&#45;&gt;Node18</title>
<path fill="none" stroke="midnightblue" d="M1583.98,-265.38C1514.7,-263.37 1336.65,-255.04 1192.5,-221 1123.24,-204.65 1108.5,-191.61 1042.5,-165 985.35,-141.96 919.47,-112.79 882.84,-96.33"/>
<polygon fill="midnightblue" stroke="midnightblue" points="883.87,-92.95 873.31,-92.04 880.99,-99.34 883.87,-92.95"/>
</g>
<!-- Node19 -->
<g id="node19" class="node">
<title>Node19</title>
<g id="a_node19"><a xlink:href="logging_8h.html" target="_top" xlink:title=" ">
<polygon fill="white" stroke="black" points="1201.5,-201.5 1201.5,-220.5 1263.5,-220.5 1263.5,-201.5 1201.5,-201.5"/>
<text text-anchor="middle" x="1232.5" y="-208.5" font-family="Helvetica,sans-Serif" font-size="10.00">logging.h</text>
</a>
</g>
</g>
<!-- Node10&#45;&gt;Node19 -->
<g id="edge25" class="edge">
<title>Node10&#45;&gt;Node19</title>
<path fill="none" stroke="midnightblue" d="M1583.92,-261.81C1516.54,-252.26 1351.5,-228.87 1273.99,-217.88"/>
<polygon fill="midnightblue" stroke="midnightblue" points="1274.04,-214.35 1263.65,-216.42 1273.06,-221.28 1274.04,-214.35"/>
</g>
<!-- Node21 -->
<g id="node21" class="node">
<title>Node21</title>
<g id="a_node21"><a xlink:href="platform__channel_8h.html" target="_top" xlink:title=" ">
<polygon fill="white" stroke="black" points="1743,-140 1743,-159 1854,-159 1854,-140 1743,-140"/>
<text text-anchor="middle" x="1798.5" y="-147" font-family="Helvetica,sans-Serif" font-size="10.00">platform_channel.h</text>
</a>
</g>
</g>
<!-- Node10&#45;&gt;Node21 -->
<g id="edge27" class="edge">
<title>Node10&#45;&gt;Node21</title>
<path fill="none" stroke="midnightblue" d="M1627.41,-257.32C1659.15,-237.5 1737.17,-188.79 1775.92,-164.6"/>
<polygon fill="midnightblue" stroke="midnightblue" points="1777.8,-167.55 1784.43,-159.28 1774.1,-161.61 1777.8,-167.55"/>
</g>
<!-- Node22 -->
<g id="node22" class="node">
<title>Node22</title>
<g id="a_node22"><a xlink:href="key__event_8h.html" target="_top" xlink:title=" ">
<polygon fill="white" stroke="black" points="1395.5,-134.5 1395.5,-164.5 1507.5,-164.5 1507.5,-134.5 1395.5,-134.5"/>
<text text-anchor="start" x="1403.5" y="-152.5" font-family="Helvetica,sans-Serif" font-size="10.00">static_plugins/key</text>
<text text-anchor="middle" x="1451.5" y="-141.5" font-family="Helvetica,sans-Serif" font-size="10.00">_event/key_event.h</text>
</a>
</g>
</g>
<!-- Node10&#45;&gt;Node22 -->
<g id="edge31" class="edge">
<title>Node10&#45;&gt;Node22</title>
<path fill="none" stroke="midnightblue" d="M1610.34,-257.21C1604.98,-243.46 1592.86,-216.78 1574.5,-201 1557.65,-186.52 1536.08,-175.79 1515.73,-168.03"/>
<polygon fill="midnightblue" stroke="midnightblue" points="1516.76,-164.69 1506.17,-164.57 1514.38,-171.27 1516.76,-164.69"/>
</g>
<!-- Node29 -->
<g id="node29" class="node">
<title>Node29</title>
<g id="a_node29"><a xlink:href="text__input_8h.html" target="_top" xlink:title=" ">
<polygon fill="white" stroke="black" points="1578.5,-134.5 1578.5,-164.5 1686.5,-164.5 1686.5,-134.5 1578.5,-134.5"/>
<text text-anchor="start" x="1586.5" y="-152.5" font-family="Helvetica,sans-Serif" font-size="10.00">static_plugins/text</text>
<text text-anchor="middle" x="1632.5" y="-141.5" font-family="Helvetica,sans-Serif" font-size="10.00">_input/text_input.h</text>
</a>
</g>
</g>
<!-- Node10&#45;&gt;Node29 -->
<g id="edge43" class="edge">
<title>Node10&#45;&gt;Node29</title>
<path fill="none" stroke="midnightblue" d="M1614.93,-257.32C1617.78,-239.97 1624.28,-200.46 1628.53,-174.66"/>
<polygon fill="midnightblue" stroke="midnightblue" points="1632.02,-174.98 1630.19,-164.55 1625.11,-173.84 1632.02,-174.98"/>
</g>
<!-- Node34 -->
<g id="node34" class="node">
<title>Node34</title>
<g id="a_node34"><a xlink:href="flutter__view_8h.html" target="_top" xlink:title=" ">
<polygon fill="white" stroke="black" points="1457,-201.5 1457,-220.5 1566,-220.5 1566,-201.5 1457,-201.5"/>
<text text-anchor="middle" x="1511.5" y="-208.5" font-family="Helvetica,sans-Serif" font-size="10.00">view/flutter_view.h</text>
</a>
</g>
</g>
<!-- Node10&#45;&gt;Node34 -->
<g id="edge57" class="edge">
<title>Node10&#45;&gt;Node34</title>
<path fill="none" stroke="midnightblue" d="M1597.11,-257.32C1580.83,-248.7 1555.63,-235.36 1536.78,-225.39"/>
<polygon fill="midnightblue" stroke="midnightblue" points="1538.32,-222.24 1527.85,-220.65 1535.05,-228.43 1538.32,-222.24"/>
</g>
<!-- Node20 -->
<g id="node20" class="node">
<title>Node20</title>
<g id="a_node20"><a xlink:title=" ">
<polygon fill="white" stroke="#bfbfbf" points="1052,-140 1052,-159 1165,-159 1165,-140 1052,-140"/>
<text text-anchor="middle" x="1108.5" y="-147" font-family="Helvetica,sans-Serif" font-size="10.00">flutter/fml/logging.h</text>
</a>
</g>
</g>
<!-- Node19&#45;&gt;Node20 -->
<g id="edge26" class="edge">
<title>Node19&#45;&gt;Node20</title>
<path fill="none" stroke="midnightblue" d="M1214.73,-201.48C1194.02,-191.53 1159.55,-174.99 1135.51,-163.46"/>
<polygon fill="midnightblue" stroke="midnightblue" points="1136.76,-160.18 1126.23,-159.01 1133.73,-166.49 1136.76,-160.18"/>
</g>
<!-- Node21&#45;&gt;Node5 -->
<g id="edge30" class="edge">
<title>Node21&#45;&gt;Node5</title>
<path fill="none" stroke="midnightblue" d="M1854.18,-147.17C2035.38,-142.57 2598.09,-126.07 2624.5,-98 2633.94,-87.96 2634.1,-76.88 2624.5,-67 2595.54,-37.18 1316.12,-21.03 983.08,-17.33"/>
<polygon fill="midnightblue" stroke="midnightblue" points="983.07,-13.83 973.03,-17.22 982.99,-20.83 983.07,-13.83"/>
</g>
<!-- Node21&#45;&gt;Node14 -->
<g id="edge28" class="edge">
<title>Node21&#45;&gt;Node14</title>
<path fill="none" stroke="midnightblue" d="M1834.29,-139.99C1845.22,-137.69 1857.3,-135.44 1868.5,-134 2022.99,-114.14 2418.16,-138.74 2568.5,-98 2570.17,-97.55 2571.86,-96.99 2573.53,-96.35"/>
<polygon fill="midnightblue" stroke="midnightblue" points="2575.12,-99.47 2582.73,-92.11 2572.19,-93.11 2575.12,-99.47"/>
</g>
<!-- Node21&#45;&gt;Node18 -->
<g id="edge29" class="edge">
<title>Node21&#45;&gt;Node18</title>
<path fill="none" stroke="midnightblue" d="M1744.89,-139.99C1729.02,-137.73 1711.59,-135.5 1695.5,-134 1353.51,-102.02 1264.22,-141.46 923.5,-98 911.41,-96.46 898.3,-93.92 886.78,-91.4"/>
<polygon fill="midnightblue" stroke="midnightblue" points="887.25,-87.92 876.72,-89.12 885.7,-94.75 887.25,-87.92"/>
</g>
<!-- Node22&#45;&gt;Node5 -->
<g id="edge40" class="edge">
<title>Node22&#45;&gt;Node5</title>
<path fill="none" stroke="midnightblue" d="M1395.22,-135.43C1392.28,-134.91 1389.36,-134.43 1386.5,-134 1335.47,-126.36 962.64,-131.62 923.5,-98 907.29,-84.07 903.43,-59.23 903.09,-40.63"/>
<polygon fill="midnightblue" stroke="midnightblue" points="906.59,-40.57 903.22,-30.52 899.59,-40.47 906.59,-40.57"/>
</g>
<!-- Node22&#45;&gt;Node7 -->
<g id="edge42" class="edge">
<title>Node22&#45;&gt;Node7</title>
<path fill="none" stroke="midnightblue" d="M1507.52,-140.59C1527.09,-138.1 1549.23,-135.59 1569.5,-134 2037.23,-97.35 2157.8,-146.02 2624.5,-98 2636.69,-96.75 2649.78,-94.79 2661.92,-92.71"/>
<polygon fill="midnightblue" stroke="midnightblue" points="2662.62,-96.14 2671.85,-90.95 2661.39,-89.25 2662.62,-96.14"/>
</g>
<!-- Node22&#45;&gt;Node14 -->
<g id="edge32" class="edge">
<title>Node22&#45;&gt;Node14</title>
<path fill="none" stroke="midnightblue" d="M1507.52,-140.61C1527.09,-138.12 1549.23,-135.61 1569.5,-134 1790.95,-116.44 2353.65,-154.45 2568.5,-98 2570.17,-97.56 2571.86,-97.01 2573.54,-96.38"/>
<polygon fill="midnightblue" stroke="midnightblue" points="2575.12,-99.5 2582.75,-92.15 2572.2,-93.14 2575.12,-99.5"/>
</g>
<!-- Node22&#45;&gt;Node15 -->
<g id="edge33" class="edge">
<title>Node22&#45;&gt;Node15</title>
<path fill="none" stroke="midnightblue" d="M1395.23,-135.38C1392.28,-134.87 1389.36,-134.41 1386.5,-134 1138.28,-98.6 1068.5,-151.3 823.5,-98 820.43,-97.33 817.27,-96.46 814.15,-95.47"/>
<polygon fill="midnightblue" stroke="midnightblue" points="815.08,-92.08 804.49,-92.03 812.74,-98.68 815.08,-92.08"/>
</g>
<!-- Node22&#45;&gt;Node18 -->
<g id="edge34" class="edge">
<title>Node22&#45;&gt;Node18</title>
<path fill="none" stroke="midnightblue" d="M1395.22,-135.41C1392.28,-134.9 1389.36,-134.42 1386.5,-134 1167.83,-101.85 1105.82,-147.89 890.5,-98 887.67,-97.34 884.77,-96.5 881.91,-95.54"/>
<polygon fill="midnightblue" stroke="midnightblue" points="883.05,-92.23 872.46,-92.01 880.6,-98.79 883.05,-92.23"/>
</g>
<!-- Node23 -->
<g id="node23" class="node">
<title>Node23</title>
<g id="a_node23"><a xlink:title=" ">
<polygon fill="white" stroke="#bfbfbf" points="932.5,-67.5 932.5,-97.5 1056.5,-97.5 1056.5,-67.5 932.5,-67.5"/>
<text text-anchor="start" x="940.5" y="-85.5" font-family="Helvetica,sans-Serif" font-size="10.00">flutter/basic_message</text>
<text text-anchor="middle" x="994.5" y="-74.5" font-family="Helvetica,sans-Serif" font-size="10.00">_channel.h</text>
</a>
</g>
</g>
<!-- Node22&#45;&gt;Node23 -->
<g id="edge35" class="edge">
<title>Node22&#45;&gt;Node23</title>
<path fill="none" stroke="midnightblue" d="M1395.2,-135.55C1392.27,-135 1389.35,-134.48 1386.5,-134 1248.08,-110.87 1209.05,-119.95 1066.75,-98.1"/>
<polygon fill="midnightblue" stroke="midnightblue" points="1067.2,-94.63 1056.78,-96.55 1066.12,-101.55 1067.2,-94.63"/>
</g>
<!-- Node24 -->
<g id="node24" class="node">
<title>Node24</title>
<g id="a_node24"><a xlink:title=" ">
<polygon fill="white" stroke="#bfbfbf" points="1711,-73 1711,-92 1858,-92 1858,-73 1711,-73"/>
<text text-anchor="middle" x="1784.5" y="-80" font-family="Helvetica,sans-Serif" font-size="10.00">flutter/binary_messenger.h</text>
</a>
</g>
</g>
<!-- Node22&#45;&gt;Node24 -->
<g id="edge36" class="edge">
<title>Node22&#45;&gt;Node24</title>
<path fill="none" stroke="midnightblue" d="M1507.61,-137.55C1569.94,-125.38 1669.84,-105.88 1731.07,-93.93"/>
<polygon fill="midnightblue" stroke="midnightblue" points="1731.78,-97.36 1740.92,-92.01 1730.44,-90.49 1731.78,-97.36"/>
</g>
<!-- Node25 -->
<g id="node25" class="node">
<title>Node25</title>
<g id="a_node25"><a xlink:title=" ">
<polygon fill="white" stroke="#bfbfbf" points="1074.5,-67.5 1074.5,-97.5 1252.5,-97.5 1252.5,-67.5 1074.5,-67.5"/>
<text text-anchor="start" x="1082.5" y="-85.5" font-family="Helvetica,sans-Serif" font-size="10.00">flutter/shell/platform</text>
<text text-anchor="middle" x="1163.5" y="-74.5" font-family="Helvetica,sans-Serif" font-size="10.00">/common/json_message_codec.h</text>
</a>
</g>
</g>
<!-- Node22&#45;&gt;Node25 -->
<g id="edge37" class="edge">
<title>Node22&#45;&gt;Node25</title>
<path fill="none" stroke="midnightblue" d="M1395.29,-135.81C1349.65,-125.51 1284.99,-110.92 1235.55,-99.76"/>
<polygon fill="midnightblue" stroke="midnightblue" points="1236.09,-96.29 1225.56,-97.51 1234.55,-103.12 1236.09,-96.29"/>
</g>
<!-- Node26 -->
<g id="node26" class="node">
<title>Node26</title>
<g id="a_node26"><a xlink:title=" ">
<polygon fill="white" stroke="#bfbfbf" points="1411,-73 1411,-92 1524,-92 1524,-73 1411,-73"/>
<text text-anchor="middle" x="1467.5" y="-80" font-family="Helvetica,sans-Serif" font-size="10.00">flutter/fml/macros.h</text>
</a>
</g>
</g>
<!-- Node22&#45;&gt;Node26 -->
<g id="edge38" class="edge">
<title>Node22&#45;&gt;Node26</title>
<path fill="none" stroke="midnightblue" d="M1454.97,-134.4C1457.29,-124.96 1460.37,-112.45 1462.9,-102.19"/>
<polygon fill="midnightblue" stroke="midnightblue" points="1466.37,-102.74 1465.36,-92.19 1459.57,-101.07 1466.37,-102.74"/>
</g>
<!-- Node27 -->
<g id="node27" class="node">
<title>Node27</title>
<g id="a_node27"><a xlink:title=" ">
<polygon fill="white" stroke="#bfbfbf" points="1270.5,-73 1270.5,-92 1392.5,-92 1392.5,-73 1270.5,-73"/>
<text text-anchor="middle" x="1331.5" y="-80" font-family="Helvetica,sans-Serif" font-size="10.00">rapidjson/document.h</text>
</a>
</g>
</g>
<!-- Node22&#45;&gt;Node27 -->
<g id="edge39" class="edge">
<title>Node22&#45;&gt;Node27</title>
<path fill="none" stroke="midnightblue" d="M1425.46,-134.4C1404.87,-123.24 1376.33,-107.78 1356.12,-96.83"/>
<polygon fill="midnightblue" stroke="midnightblue" points="1357.67,-93.69 1347.21,-92.01 1354.33,-99.85 1357.67,-93.69"/>
</g>
<!-- Node28 -->
<g id="node28" class="node">
<title>Node28</title>
<g id="a_node28"><a xlink:title=" ">
<polygon fill="white" stroke="#bfbfbf" points="1542.5,-73 1542.5,-92 1692.5,-92 1692.5,-73 1542.5,-73"/>
<text text-anchor="middle" x="1617.5" y="-80" font-family="Helvetica,sans-Serif" font-size="10.00">xkbcommon/xkbcommon.h</text>
</a>
</g>
</g>
<!-- Node22&#45;&gt;Node28 -->
<g id="edge41" class="edge">
<title>Node22&#45;&gt;Node28</title>
<path fill="none" stroke="midnightblue" d="M1487.52,-134.4C1517.03,-122.84 1558.36,-106.66 1586.44,-95.66"/>
<polygon fill="midnightblue" stroke="midnightblue" points="1587.74,-98.91 1595.77,-92.01 1585.19,-92.39 1587.74,-98.91"/>
</g>
<!-- Node29&#45;&gt;Node5 -->
<g id="edge54" class="edge">
<title>Node29&#45;&gt;Node5</title>
<path fill="none" stroke="midnightblue" d="M1686.67,-136.92C1755.67,-122.15 1866.14,-98.44 1866.5,-98 1875.15,-87.28 1875.98,-76.99 1866.5,-67 1836.26,-35.13 1207.43,-21.55 983.13,-17.71"/>
<polygon fill="midnightblue" stroke="midnightblue" points="983.13,-14.21 973.08,-17.54 983.01,-21.21 983.13,-14.21"/>
</g>
<!-- Node29&#45;&gt;Node7 -->
<g id="edge56" class="edge">
<title>Node29&#45;&gt;Node7</title>
<path fill="none" stroke="midnightblue" d="M1686.63,-139.69C1701.76,-137.51 1718.24,-135.4 1733.5,-134 2128.17,-97.79 2230.39,-139.8 2624.5,-98 2636.69,-96.71 2649.78,-94.73 2661.92,-92.66"/>
<polygon fill="midnightblue" stroke="midnightblue" points="2662.61,-96.09 2671.85,-90.9 2661.39,-89.19 2662.61,-96.09"/>
</g>
<!-- Node29&#45;&gt;Node14 -->
<g id="edge44" class="edge">
<title>Node29&#45;&gt;Node14</title>
<path fill="none" stroke="midnightblue" d="M1686.55,-136.12C1691.25,-135.3 1695.95,-134.58 1700.5,-134 1892.03,-109.78 2381.92,-147.56 2568.5,-98 2570.17,-97.56 2571.86,-97 2573.53,-96.37"/>
<polygon fill="midnightblue" stroke="midnightblue" points="2575.12,-99.49 2582.74,-92.14 2572.19,-93.13 2575.12,-99.49"/>
</g>
<!-- Node29&#45;&gt;Node15 -->
<g id="edge45" class="edge">
<title>Node29&#45;&gt;Node15</title>
<path fill="none" stroke="midnightblue" d="M1578.29,-140.9C1558.84,-138.39 1536.72,-135.79 1516.5,-134 1209.28,-106.86 1125.25,-161.75 823.5,-98 820.42,-97.35 817.26,-96.49 814.15,-95.5"/>
<polygon fill="midnightblue" stroke="midnightblue" points="815.07,-92.12 804.48,-92.07 812.73,-98.72 815.07,-92.12"/>
</g>
<!-- Node29&#45;&gt;Node18 -->
<g id="edge46" class="edge">
<title>Node29&#45;&gt;Node18</title>
<path fill="none" stroke="midnightblue" d="M1578.29,-141C1558.83,-138.5 1536.71,-135.87 1516.5,-134 1253.59,-109.61 1185.18,-133.24 923.5,-98 911.43,-96.37 898.31,-93.82 886.79,-91.31"/>
<polygon fill="midnightblue" stroke="midnightblue" points="887.26,-87.82 876.73,-89.04 885.71,-94.65 887.26,-87.82"/>
</g>
<!-- Node29&#45;&gt;Node24 -->
<g id="edge47" class="edge">
<title>Node29&#45;&gt;Node24</title>
<path fill="none" stroke="midnightblue" d="M1665.48,-134.4C1692.27,-122.94 1729.69,-106.94 1755.38,-95.95"/>
<polygon fill="midnightblue" stroke="midnightblue" points="1756.79,-99.16 1764.61,-92.01 1754.04,-92.72 1756.79,-99.16"/>
</g>
<!-- Node29&#45;&gt;Node26 -->
<g id="edge50" class="edge">
<title>Node29&#45;&gt;Node26</title>
<path fill="none" stroke="midnightblue" d="M1596.7,-134.4C1567.49,-122.89 1526.64,-106.8 1498.74,-95.81"/>
<polygon fill="midnightblue" stroke="midnightblue" points="1499.68,-92.42 1489.09,-92.01 1497.12,-98.93 1499.68,-92.42"/>
</g>
<!-- Node29&#45;&gt;Node27 -->
<g id="edge53" class="edge">
<title>Node29&#45;&gt;Node27</title>
<path fill="none" stroke="midnightblue" d="M1578.34,-136.8C1522.37,-124.72 1435.73,-106.01 1381.38,-94.27"/>
<polygon fill="midnightblue" stroke="midnightblue" points="1381.81,-90.78 1371.3,-92.09 1380.33,-97.63 1381.81,-90.78"/>
</g>
<!-- Node29&#45;&gt;Node28 -->
<g id="edge55" class="edge">
<title>Node29&#45;&gt;Node28</title>
<path fill="none" stroke="midnightblue" d="M1629.25,-134.4C1627.07,-124.96 1624.18,-112.45 1621.81,-102.19"/>
<polygon fill="midnightblue" stroke="midnightblue" points="1625.17,-101.15 1619.51,-92.19 1618.34,-102.73 1625.17,-101.15"/>
</g>
<!-- Node30 -->
<g id="node30" class="node">
<title>Node30</title>
<g id="a_node30"><a xlink:title=" ">
<polygon fill="white" stroke="#bfbfbf" points="2283,-73 2283,-92 2422,-92 2422,-73 2283,-73"/>
<text text-anchor="middle" x="2352.5" y="-80" font-family="Helvetica,sans-Serif" font-size="10.00">flutter/method_channel.h</text>
</a>
</g>
</g>
<!-- Node29&#45;&gt;Node30 -->
<g id="edge48" class="edge">
<title>Node29&#45;&gt;Node30</title>
<path fill="none" stroke="midnightblue" d="M1686.56,-136.22C1691.26,-135.38 1695.96,-134.62 1700.5,-134 1953.3,-99.3 2020.23,-129.09 2273.5,-98 2282.55,-96.89 2292.12,-95.4 2301.37,-93.8"/>
<polygon fill="midnightblue" stroke="midnightblue" points="2302.01,-97.24 2311.23,-92.03 2300.77,-90.35 2302.01,-97.24"/>
</g>
<!-- Node31 -->
<g id="node31" class="node">
<title>Node31</title>
<g id="a_node31"><a xlink:title=" ">
<polygon fill="white" stroke="#bfbfbf" points="2440,-67.5 2440,-97.5 2559,-97.5 2559,-67.5 2440,-67.5"/>
<text text-anchor="start" x="2448" y="-85.5" font-family="Helvetica,sans-Serif" font-size="10.00">flutter/method_result</text>
<text text-anchor="middle" x="2499.5" y="-74.5" font-family="Helvetica,sans-Serif" font-size="10.00">_functions.h</text>
</a>
</g>
</g>
<!-- Node29&#45;&gt;Node31 -->
<g id="edge49" class="edge">
<title>Node29&#45;&gt;Node31</title>
<path fill="none" stroke="midnightblue" d="M1686.55,-136.15C1691.26,-135.33 1695.95,-134.59 1700.5,-134 2019.75,-92.38 2107.16,-139.08 2429.79,-98.08"/>
<polygon fill="midnightblue" stroke="midnightblue" points="2430.42,-101.53 2439.89,-96.78 2429.52,-94.59 2430.42,-101.53"/>
</g>
<!-- Node32 -->
<g id="node32" class="node">
<title>Node32</title>
<g id="a_node32"><a xlink:title=" ">
<polygon fill="white" stroke="#bfbfbf" points="1915,-67.5 1915,-97.5 2086,-97.5 2086,-67.5 1915,-67.5"/>
<text text-anchor="start" x="1923" y="-85.5" font-family="Helvetica,sans-Serif" font-size="10.00">flutter/shell/platform</text>
<text text-anchor="middle" x="2000.5" y="-74.5" font-family="Helvetica,sans-Serif" font-size="10.00">/common/json_method_codec.h</text>
</a>
</g>
</g>
<!-- Node29&#45;&gt;Node32 -->
<g id="edge51" class="edge">
<title>Node29&#45;&gt;Node32</title>
<path fill="none" stroke="midnightblue" d="M1686.65,-136.73C1691.33,-135.78 1695.99,-134.86 1700.5,-134 1768.67,-121 1845.9,-108.04 1904.92,-98.51"/>
<polygon fill="midnightblue" stroke="midnightblue" points="1905.66,-101.93 1914.98,-96.89 1904.55,-95.02 1905.66,-101.93"/>
</g>
<!-- Node33 -->
<g id="node33" class="node">
<title>Node33</title>
<g id="a_node33"><a xlink:title=" ">
<polygon fill="white" stroke="#bfbfbf" points="2104.5,-67.5 2104.5,-97.5 2264.5,-97.5 2264.5,-67.5 2104.5,-67.5"/>
<text text-anchor="start" x="2112.5" y="-85.5" font-family="Helvetica,sans-Serif" font-size="10.00">flutter/shell/platform</text>
<text text-anchor="middle" x="2184.5" y="-74.5" font-family="Helvetica,sans-Serif" font-size="10.00">/common/text_input_model.h</text>
</a>
</g>
</g>
<!-- Node29&#45;&gt;Node33 -->
<g id="edge52" class="edge">
<title>Node29&#45;&gt;Node33</title>
<path fill="none" stroke="midnightblue" d="M1686.58,-136.36C1691.28,-135.49 1695.96,-134.69 1700.5,-134 1871.56,-108.06 1918.87,-119.73 2094.39,-98.07"/>
<polygon fill="midnightblue" stroke="midnightblue" points="2095,-101.53 2104.49,-96.81 2094.13,-94.58 2095,-101.53"/>
</g>
<!-- Node34&#45;&gt;Node14 -->
<g id="edge58" class="edge">
<title>Node34&#45;&gt;Node14</title>
<path fill="none" stroke="midnightblue" d="M1566.03,-203.16C1603.85,-196.89 1654.58,-185.38 1695.5,-165 1715.01,-155.28 1713.13,-141.75 1733.5,-134 1907.08,-67.93 2389.04,-145.83 2568.5,-98 2570.17,-97.55 2571.86,-97 2573.53,-96.36"/>
<polygon fill="midnightblue" stroke="midnightblue" points="2575.12,-99.49 2582.74,-92.13 2572.19,-93.13 2575.12,-99.49"/>
</g>
<!-- Node34&#45;&gt;Node15 -->
<g id="edge59" class="edge">
<title>Node34&#45;&gt;Node15</title>
<path fill="none" stroke="midnightblue" d="M1456.89,-202.14C1372.15,-189.9 1218.07,-167.43 1212.5,-165 1192.2,-156.16 1194,-142.36 1173.5,-134 1028.69,-74.97 975.63,-134.18 823.5,-98 820.51,-97.29 817.43,-96.4 814.38,-95.41"/>
<polygon fill="midnightblue" stroke="midnightblue" points="815.51,-92.1 804.91,-92.03 813.15,-98.69 815.51,-92.1"/>
</g>
<!-- Node34&#45;&gt;Node26 -->
<g id="edge65" class="edge">
<title>Node34&#45;&gt;Node26</title>
<path fill="none" stroke="midnightblue" d="M1514.49,-201.17C1518.91,-186.58 1525.74,-156.79 1516.5,-134 1510.78,-119.89 1499.01,-107.54 1488.44,-98.59"/>
<polygon fill="midnightblue" stroke="midnightblue" points="1490.36,-95.65 1480.36,-92.17 1486.01,-101.13 1490.36,-95.65"/>
</g>
<!-- Node35 -->
<g id="node35" class="node">
<title>Node35</title>
<g id="a_node35"><a xlink:href="configuration_8h.html" target="_top" xlink:title=" ">
<polygon fill="white" stroke="black" points="1221.5,-140 1221.5,-159 1377.5,-159 1377.5,-140 1221.5,-140"/>
<text text-anchor="middle" x="1299.5" y="-147" font-family="Helvetica,sans-Serif" font-size="10.00">configuration/configuration.h</text>
</a>
</g>
</g>
<!-- Node34&#45;&gt;Node35 -->
<g id="edge60" class="edge">
<title>Node34&#45;&gt;Node35</title>
<path fill="none" stroke="midnightblue" d="M1481.13,-201.48C1443.89,-191.03 1380.69,-173.29 1339.52,-161.73"/>
<polygon fill="midnightblue" stroke="midnightblue" points="1340.39,-158.34 1329.82,-159.01 1338.5,-165.08 1340.39,-158.34"/>
</g>
<!-- Node36 -->
<g id="node36" class="node">
<title>Node36</title>
<g id="a_node36"><a xlink:href="window_8h.html" target="_top" xlink:title=" ">
<polygon fill="white" stroke="black" points="673,-140 673,-159 780,-159 780,-140 673,-140"/>
<text text-anchor="middle" x="726.5" y="-147" font-family="Helvetica,sans-Serif" font-size="10.00">wayland/window.h</text>
</a>
</g>
</g>
<!-- Node34&#45;&gt;Node36 -->
<g id="edge66" class="edge">
<title>Node34&#45;&gt;Node36</title>
<path fill="none" stroke="midnightblue" d="M1456.72,-202.04C1453.6,-201.67 1450.51,-201.32 1447.5,-201 1205.65,-175.56 916.77,-159.69 790.67,-153.49"/>
<polygon fill="midnightblue" stroke="midnightblue" points="790.59,-149.98 780.43,-152.99 790.25,-156.97 790.59,-149.98"/>
</g>
<!-- Node35&#45;&gt;Node4 -->
<g id="edge62" class="edge">
<title>Node35&#45;&gt;Node4</title>
<path fill="none" stroke="midnightblue" d="M1232.88,-139.99C1213.74,-137.78 1192.81,-135.57 1173.5,-134 1007.19,-120.45 585.71,-137.13 423.5,-98 421.28,-97.47 419.03,-96.78 416.8,-95.99"/>
<polygon fill="midnightblue" stroke="midnightblue" points="417.94,-92.67 407.36,-92.11 415.27,-99.15 417.94,-92.67"/>
</g>
<!-- Node35&#45;&gt;Node18 -->
<g id="edge61" class="edge">
<title>Node35&#45;&gt;Node18</title>
<path fill="none" stroke="midnightblue" d="M1247.98,-139.98C1234.8,-137.91 1220.64,-135.78 1207.5,-134 1066.99,-114.96 1027.96,-132.8 890.5,-98 887.84,-97.33 885.11,-96.5 882.4,-95.58"/>
<polygon fill="midnightblue" stroke="midnightblue" points="883.46,-92.24 872.86,-92.01 881,-98.79 883.46,-92.24"/>
</g>
<!-- Node35&#45;&gt;Node26 -->
<g id="edge63" class="edge">
<title>Node35&#45;&gt;Node26</title>
<path fill="none" stroke="midnightblue" d="M1321.81,-139.87C1351.01,-128.57 1402.38,-108.7 1435.66,-95.82"/>
<polygon fill="midnightblue" stroke="midnightblue" points="1437.3,-98.94 1445.37,-92.06 1434.78,-92.41 1437.3,-98.94"/>
</g>
<!-- Node35&#45;&gt;Node27 -->
<g id="edge64" class="edge">
<title>Node35&#45;&gt;Node27</title>
<path fill="none" stroke="midnightblue" d="M1303.82,-139.73C1308.66,-129.89 1316.65,-113.66 1322.81,-101.16"/>
<polygon fill="midnightblue" stroke="midnightblue" points="1325.98,-102.64 1327.25,-92.13 1319.7,-99.55 1325.98,-102.64"/>
</g>
<!-- Node36&#45;&gt;Node6 -->
<g id="edge72" class="edge">
<title>Node36&#45;&gt;Node6</title>
<path fill="none" stroke="midnightblue" d="M743.02,-159.23C771.17,-173.8 830.53,-203.22 883.5,-221 1015.19,-265.2 1175.43,-296.61 1261.57,-311.75"/>
<polygon fill="midnightblue" stroke="midnightblue" points="1260.99,-315.21 1271.45,-313.47 1262.2,-308.31 1260.99,-315.21"/>
</g>
<!-- Node36&#45;&gt;Node7 -->
<g id="edge71" class="edge">
<title>Node36&#45;&gt;Node7</title>
<path fill="none" stroke="midnightblue" d="M780.16,-145.66C843.02,-142.42 950.29,-137.16 1042.5,-134 1745.38,-109.88 1924.5,-166 2624.5,-98 2636.7,-96.81 2649.79,-94.88 2661.93,-92.8"/>
<polygon fill="midnightblue" stroke="midnightblue" points="2662.63,-96.23 2671.86,-91.04 2661.4,-89.34 2662.63,-96.23"/>
</g>
<!-- Node36&#45;&gt;Node15 -->
<g id="edge67" class="edge">
<title>Node36&#45;&gt;Node15</title>
<path fill="none" stroke="midnightblue" d="M734.46,-139.73C743.75,-129.5 759.3,-112.36 770.8,-99.69"/>
<polygon fill="midnightblue" stroke="midnightblue" points="773.54,-101.88 777.67,-92.13 768.36,-97.18 773.54,-101.88"/>
</g>
<!-- Node36&#45;&gt;Node18 -->
<g id="edge68" class="edge">
<title>Node36&#45;&gt;Node18</title>
<path fill="none" stroke="midnightblue" d="M743.5,-139.87C765.21,-128.84 802.99,-109.66 828.37,-96.77"/>
<polygon fill="midnightblue" stroke="midnightblue" points="830.1,-99.82 837.43,-92.17 826.93,-93.57 830.1,-99.82"/>
</g>
<!-- Node36&#45;&gt;Node37 -->
<g id="edge69" class="edge">
<title>Node36&#45;&gt;Node37</title>
<path fill="none" stroke="midnightblue" d="M672.93,-145.46C600.53,-140.38 467.89,-127.64 358.5,-98 356.06,-97.34 353.56,-96.55 351.07,-95.68"/>
<polygon fill="midnightblue" stroke="midnightblue" points="352.31,-92.41 341.72,-92.08 349.79,-98.94 352.31,-92.41"/>
</g>
<!-- Node38 -->
<g id="node38" class="node">
<title>Node38</title>
<g id="a_node38"><a xlink:title=" ">
<polygon fill="white" stroke="#bfbfbf" points="596.5,-73 596.5,-92 738.5,-92 738.5,-73 596.5,-73"/>
<text text-anchor="middle" x="667.5" y="-80" font-family="Helvetica,sans-Serif" font-size="10.00">agl&#45;shell&#45;client&#45;protocol.h</text>
</a>
</g>
</g>
<!-- Node36&#45;&gt;Node38 -->
<g id="edge70" class="edge">
<title>Node36&#45;&gt;Node38</title>
<path fill="none" stroke="midnightblue" d="M718.54,-139.73C709.25,-129.5 693.7,-112.36 682.2,-99.69"/>
<polygon fill="midnightblue" stroke="midnightblue" points="684.64,-97.18 675.33,-92.13 679.46,-101.88 684.64,-97.18"/>
</g>
<!-- Node39 -->
<g id="node39" class="node">
<title>Node39</title>
<g id="a_node39"><a xlink:title=" ">
<polygon fill="white" stroke="#bfbfbf" points="433,-73 433,-92 578,-92 578,-73 433,-73"/>
<text text-anchor="middle" x="505.5" y="-80" font-family="Helvetica,sans-Serif" font-size="10.00">xdg&#45;shell&#45;client&#45;protocol.h</text>
</a>
</g>
</g>
<!-- Node36&#45;&gt;Node39 -->
<g id="edge73" class="edge">
<title>Node36&#45;&gt;Node39</title>
<path fill="none" stroke="midnightblue" d="M697.15,-139.87C657.83,-128.3 587.95,-107.75 544.31,-94.91"/>
<polygon fill="midnightblue" stroke="midnightblue" points="545.2,-91.53 534.62,-92.06 543.22,-98.24 545.2,-91.53"/>
</g>
</g>
</svg>
