<?xml version="1.0" encoding="UTF-8" standalone="no"?>
<!DOCTYPE svg PUBLIC "-//W3C//DTD SVG 1.1//EN"
 "http://www.w3.org/Graphics/SVG/1.1/DTD/svg11.dtd">
<!-- Generated by graphviz version 5.0.0 (0)
 -->
<!-- Title: /mnt/raid10/stargate/ivi&#45;homescreen/shell/backend/wayland_vulkan.h Pages: 1 -->
<svg width="2891pt" height="412pt"
 viewBox="0.00 0.00 2890.50 412.00" xmlns="http://www.w3.org/2000/svg" xmlns:xlink="http://www.w3.org/1999/xlink">
<g id="graph0" class="graph" transform="scale(1 1) rotate(0) translate(4 408)">
<title>/mnt/raid10/stargate/ivi&#45;homescreen/shell/backend/wayland_vulkan.h</title>
<!-- Node1 -->
<g id="node1" class="node">
<title>Node1</title>
<g id="a_node1"><a xlink:title=" ">
<polygon fill="#999999" stroke="#666666" points="2119.5,-404 1982.5,-404 1982.5,-363 2119.5,-363 2119.5,-404"/>
<text text-anchor="start" x="1990.5" y="-392" font-family="Helvetica,sans-Serif" font-size="10.00">/mnt/raid10/stargate</text>
<text text-anchor="start" x="1990.5" y="-381" font-family="Helvetica,sans-Serif" font-size="10.00">/ivi&#45;homescreen/shell</text>
<text text-anchor="middle" x="2051" y="-370" font-family="Helvetica,sans-Serif" font-size="10.00">/backend/wayland_vulkan.h</text>
</a>
</g>
</g>
<!-- Node2 -->
<g id="node2" class="node">
<title>Node2</title>
<g id="a_node2"><a xlink:title=" ">
<polygon fill="#e0e0e0" stroke="#999999" points="147,-24.5 101,-24.5 101,-5.5 147,-5.5 147,-24.5"/>
<text text-anchor="middle" x="124" y="-12.5" font-family="Helvetica,sans-Serif" font-size="10.00">cstdint</text>
</a>
</g>
</g>
<!-- Node1&#45;&gt;Node2 -->
<g id="edge1" class="edge">
<title>Node1&#45;&gt;Node2</title>
<path fill="none" stroke="#63b8ff" d="M1982.45,-381.78C1665.88,-378.28 353.05,-361.75 173,-327 92.58,-311.48 0,-345.4 0,-263.5 0,-263.5 0,-263.5 0,-146 0,-90.45 60.01,-49.28 96.53,-29.36"/>
<polygon fill="#63b8ff" stroke="#63b8ff" points="98.48,-32.29 105.7,-24.53 95.22,-26.09 98.48,-32.29"/>
</g>
<!-- Node3 -->
<g id="node3" class="node">
<title>Node3</title>
<g id="a_node3"><a xlink:title=" ">
<polygon fill="#e0e0e0" stroke="#999999" points="124,-90.5 80,-90.5 80,-71.5 124,-71.5 124,-90.5"/>
<text text-anchor="middle" x="102" y="-78.5" font-family="Helvetica,sans-Serif" font-size="10.00">vector</text>
</a>
</g>
</g>
<!-- Node1&#45;&gt;Node3 -->
<g id="edge2" class="edge">
<title>Node1&#45;&gt;Node3</title>
<path fill="none" stroke="#63b8ff" d="M1982.29,-382.11C1629.49,-379.66 38,-363.11 38,-263.5 38,-263.5 38,-263.5 38,-206.5 38,-163.62 68.41,-120.7 87.3,-98.17"/>
<polygon fill="#63b8ff" stroke="#63b8ff" points="89.98,-100.42 93.89,-90.58 84.7,-95.83 89.98,-100.42"/>
</g>
<!-- Node4 -->
<g id="node4" class="node">
<title>Node4</title>
<g id="a_node4"><a xlink:title=" ">
<polygon fill="#e0e0e0" stroke="#999999" points="1907.5,-30 1786.5,-30 1786.5,0 1907.5,0 1907.5,-30"/>
<text text-anchor="start" x="1794.5" y="-18" font-family="Helvetica,sans-Serif" font-size="10.00">shell/platform/embedder</text>
<text text-anchor="middle" x="1847" y="-7" font-family="Helvetica,sans-Serif" font-size="10.00">/embedder.h</text>
</a>
</g>
</g>
<!-- Node1&#45;&gt;Node4 -->
<g id="edge3" class="edge">
<title>Node1&#45;&gt;Node4</title>
<path fill="none" stroke="#63b8ff" d="M2119.79,-378.22C2298.73,-366.16 2765,-328.49 2765,-263.5 2765,-263.5 2765,-263.5 2765,-146 2765,-107.37 2762.67,-88.13 2731,-66 2666.43,-20.88 2101.6,-35.12 2023,-30 1988.36,-27.74 1949.93,-24.74 1917.84,-22.1"/>
<polygon fill="#63b8ff" stroke="#63b8ff" points="1917.91,-18.59 1907.65,-21.25 1917.33,-25.57 1917.91,-18.59"/>
</g>
<!-- Node5 -->
<g id="node5" class="node">
<title>Node5</title>
<g id="a_node5"><a xlink:href="backend_8h.html" target="_top" xlink:title=" ">
<polygon fill="white" stroke="#666666" points="2101.5,-327 2000.5,-327 2000.5,-308 2101.5,-308 2101.5,-327"/>
<text text-anchor="middle" x="2051" y="-315" font-family="Helvetica,sans-Serif" font-size="10.00">backend/backend.h</text>
</a>
</g>
</g>
<!-- Node1&#45;&gt;Node5 -->
<g id="edge4" class="edge">
<title>Node1&#45;&gt;Node5</title>
<path fill="none" stroke="#63b8ff" d="M2051,-362.95C2051,-354.85 2051,-345.5 2051,-337.47"/>
<polygon fill="#63b8ff" stroke="#63b8ff" points="2054.5,-337.26 2051,-327.26 2047.5,-337.26 2054.5,-337.26"/>
</g>
<!-- Node44 -->
<g id="node44" class="node">
<title>Node44</title>
<g id="a_node44"><a xlink:title=" ">
<polygon fill="#e0e0e0" stroke="#999999" points="2882.5,-327 2793.5,-327 2793.5,-308 2882.5,-308 2882.5,-327"/>
<text text-anchor="middle" x="2838" y="-315" font-family="Helvetica,sans-Serif" font-size="10.00">bluevk/BlueVK.h</text>
</a>
</g>
</g>
<!-- Node1&#45;&gt;Node44 -->
<g id="edge81" class="edge">
<title>Node1&#45;&gt;Node44</title>
<path fill="none" stroke="#63b8ff" d="M2119.64,-378.8C2248.92,-371.5 2537.25,-353.6 2779,-327 2780.3,-326.86 2781.62,-326.71 2782.95,-326.55"/>
<polygon fill="#63b8ff" stroke="#63b8ff" points="2783.77,-329.98 2793.26,-325.27 2782.91,-323.03 2783.77,-329.98"/>
</g>
<!-- Node5&#45;&gt;Node4 -->
<g id="edge5" class="edge">
<title>Node5&#45;&gt;Node4</title>
<path fill="none" stroke="#63b8ff" d="M2101.53,-313.76C2258.47,-304.56 2727,-271.82 2727,-208.5 2727,-208.5 2727,-208.5 2727,-146 2727,-109.46 2736.07,-89.4 2708,-66 2649.46,-17.19 2099.05,-35.02 2023,-30 1988.36,-27.71 1949.93,-24.71 1917.84,-22.07"/>
<polygon fill="#63b8ff" stroke="#63b8ff" points="1917.91,-18.57 1907.65,-21.23 1917.33,-25.54 1917.91,-18.57"/>
</g>
<!-- Node6 -->
<g id="node6" class="node">
<title>Node6</title>
<g id="a_node6"><a xlink:href="constants_8h.html" target="_top" xlink:title=" ">
<polygon fill="white" stroke="#666666" points="2085,-90.5 2017,-90.5 2017,-71.5 2085,-71.5 2085,-90.5"/>
<text text-anchor="middle" x="2051" y="-78.5" font-family="Helvetica,sans-Serif" font-size="10.00">constants.h</text>
</a>
</g>
</g>
<!-- Node5&#45;&gt;Node6 -->
<g id="edge6" class="edge">
<title>Node5&#45;&gt;Node6</title>
<path fill="none" stroke="#63b8ff" d="M2051,-307.88C2051,-273.98 2051,-149.43 2051,-101.22"/>
<polygon fill="#63b8ff" stroke="#63b8ff" points="2054.5,-100.95 2051,-90.95 2047.5,-100.95 2054.5,-100.95"/>
</g>
<!-- Node9 -->
<g id="node9" class="node">
<title>Node9</title>
<g id="a_node9"><a xlink:href="engine_8h.html" target="_top" xlink:title=" ">
<polygon fill="white" stroke="#666666" points="949.5,-272 896.5,-272 896.5,-253 949.5,-253 949.5,-272"/>
<text text-anchor="middle" x="923" y="-260" font-family="Helvetica,sans-Serif" font-size="10.00">engine.h</text>
</a>
</g>
</g>
<!-- Node5&#45;&gt;Node9 -->
<g id="edge10" class="edge">
<title>Node5&#45;&gt;Node9</title>
<path fill="none" stroke="#63b8ff" d="M2000.32,-314.26C1808.04,-305.47 1126.69,-273.45 959.97,-265.36"/>
<polygon fill="#63b8ff" stroke="#63b8ff" points="959.9,-261.86 949.74,-264.87 959.56,-268.85 959.9,-261.86"/>
</g>
<!-- Node6&#45;&gt;Node4 -->
<g id="edge8" class="edge">
<title>Node6&#45;&gt;Node4</title>
<path fill="none" stroke="#63b8ff" d="M2024.64,-71.35C2019.14,-69.57 2013.39,-67.71 2008,-66 1973.02,-54.87 1933.67,-42.65 1902.62,-33.07"/>
<polygon fill="#63b8ff" stroke="#63b8ff" points="1903.44,-29.66 1892.85,-30.06 1901.38,-36.35 1903.44,-29.66"/>
</g>
<!-- Node7 -->
<g id="node7" class="node">
<title>Node7</title>
<g id="a_node7"><a xlink:title=" ">
<polygon fill="#e0e0e0" stroke="#999999" points="997,-24.5 937,-24.5 937,-5.5 997,-5.5 997,-24.5"/>
<text text-anchor="middle" x="967" y="-12.5" font-family="Helvetica,sans-Serif" font-size="10.00">EGL/egl.h</text>
</a>
</g>
</g>
<!-- Node6&#45;&gt;Node7 -->
<g id="edge7" class="edge">
<title>Node6&#45;&gt;Node7</title>
<path fill="none" stroke="#63b8ff" d="M2028.53,-71.44C2022,-69.29 2014.8,-67.25 2008,-66 1810.78,-29.83 1174.78,-18.81 1007.58,-16.51"/>
<polygon fill="#63b8ff" stroke="#63b8ff" points="1007.3,-13 997.26,-16.37 1007.21,-20 1007.3,-13"/>
</g>
<!-- Node8 -->
<g id="node8" class="node">
<title>Node8</title>
<g id="a_node8"><a xlink:title=" ">
<polygon fill="#e0e0e0" stroke="#999999" points="2070,-24.5 2032,-24.5 2032,-5.5 2070,-5.5 2070,-24.5"/>
<text text-anchor="middle" x="2051" y="-12.5" font-family="Helvetica,sans-Serif" font-size="10.00">array</text>
</a>
</g>
</g>
<!-- Node6&#45;&gt;Node8 -->
<g id="edge9" class="edge">
<title>Node6&#45;&gt;Node8</title>
<path fill="none" stroke="#63b8ff" d="M2051,-71.37C2051,-62.16 2051,-47.29 2051,-35.27"/>
<polygon fill="#63b8ff" stroke="#63b8ff" points="2054.5,-34.91 2051,-24.91 2047.5,-34.91 2054.5,-34.91"/>
</g>
<!-- Node9&#45;&gt;Node3 -->
<g id="edge22" class="edge">
<title>Node9&#45;&gt;Node3</title>
<path fill="none" stroke="#63b8ff" d="M896.09,-261.81C765.07,-263.09 197.87,-265.75 138,-217 103.3,-188.74 99.92,-131.09 100.74,-101.09"/>
<polygon fill="#63b8ff" stroke="#63b8ff" points="104.25,-100.9 101.22,-90.74 97.26,-100.57 104.25,-100.9"/>
</g>
<!-- Node9&#45;&gt;Node4 -->
<g id="edge15" class="edge">
<title>Node9&#45;&gt;Node4</title>
<path fill="none" stroke="#63b8ff" d="M896.15,-261.02C779.51,-258.76 320.02,-247.95 264,-217 200.05,-181.67 148.12,-118.44 199,-66 212.94,-51.63 1462.37,-24.16 1776.14,-17.49"/>
<polygon fill="#63b8ff" stroke="#63b8ff" points="1776.54,-20.98 1786.47,-17.27 1776.39,-13.98 1776.54,-20.98"/>
</g>
<!-- Node9&#45;&gt;Node5 -->
<g id="edge23" class="edge">
<title>Node9&#45;&gt;Node5</title>
<path fill="none" stroke="#63b8ff" d="M949.93,-264.66C1094.74,-271.2 1780.89,-303.42 1990.25,-313.49"/>
<polygon fill="#63b8ff" stroke="#63b8ff" points="1990.29,-316.99 2000.44,-313.98 1990.62,-310 1990.29,-316.99"/>
</g>
<!-- Node9&#45;&gt;Node6 -->
<g id="edge24" class="edge">
<title>Node9&#45;&gt;Node6</title>
<path fill="none" stroke="#63b8ff" d="M949.76,-260.42C1026.95,-257.04 1256.55,-245.17 1445,-217 1698.12,-179.17 1760.88,-162.59 2008,-96 2010.77,-95.25 2013.63,-94.43 2016.49,-93.58"/>
<polygon fill="#63b8ff" stroke="#63b8ff" points="2017.61,-96.9 2026.12,-90.58 2015.53,-90.21 2017.61,-96.9"/>
</g>
<!-- Node9&#45;&gt;Node7 -->
<g id="edge12" class="edge">
<title>Node9&#45;&gt;Node7</title>
<path fill="none" stroke="#63b8ff" d="M896.43,-261.7C764.46,-262.5 183.3,-263.32 119,-217 61.86,-175.84 22.61,-117.16 71,-66 100.79,-34.51 756.16,-19.98 926.72,-16.72"/>
<polygon fill="#63b8ff" stroke="#63b8ff" points="926.85,-20.22 936.79,-16.53 926.72,-13.22 926.85,-20.22"/>
</g>
<!-- Node10 -->
<g id="node10" class="node">
<title>Node10</title>
<g id="a_node10"><a xlink:title=" ">
<polygon fill="#e0e0e0" stroke="#999999" points="981.5,-217 922.5,-217 922.5,-198 981.5,-198 981.5,-217"/>
<text text-anchor="middle" x="952" y="-205" font-family="Helvetica,sans-Serif" font-size="10.00">functional</text>
</a>
</g>
</g>
<!-- Node9&#45;&gt;Node10 -->
<g id="edge11" class="edge">
<title>Node9&#45;&gt;Node10</title>
<path fill="none" stroke="#63b8ff" d="M927.79,-252.75C931.76,-245.49 937.53,-234.95 942.43,-225.98"/>
<polygon fill="#63b8ff" stroke="#63b8ff" points="945.57,-227.54 947.3,-217.09 939.43,-224.18 945.57,-227.54"/>
</g>
<!-- Node11 -->
<g id="node11" class="node">
<title>Node11</title>
<g id="a_node11"><a xlink:title=" ">
<polygon fill="#e0e0e0" stroke="#999999" points="1072,-217 1000,-217 1000,-198 1072,-198 1072,-217"/>
<text text-anchor="middle" x="1036" y="-205" font-family="Helvetica,sans-Serif" font-size="10.00">GLES2/gl2.h</text>
</a>
</g>
</g>
<!-- Node9&#45;&gt;Node11 -->
<g id="edge13" class="edge">
<title>Node9&#45;&gt;Node11</title>
<path fill="none" stroke="#63b8ff" d="M941.16,-252.98C959.25,-244.5 987.28,-231.35 1008.19,-221.54"/>
<polygon fill="#63b8ff" stroke="#63b8ff" points="1009.95,-224.59 1017.51,-217.17 1006.97,-218.25 1009.95,-224.59"/>
</g>
<!-- Node12 -->
<g id="node12" class="node">
<title>Node12</title>
<g id="a_node12"><a xlink:title=" ">
<polygon fill="#e0e0e0" stroke="#999999" points="1215.5,-217 1090.5,-217 1090.5,-198 1215.5,-198 1215.5,-217"/>
<text text-anchor="middle" x="1153" y="-205" font-family="Helvetica,sans-Serif" font-size="10.00">flutter/encodable_value.h</text>
</a>
</g>
</g>
<!-- Node9&#45;&gt;Node12 -->
<g id="edge14" class="edge">
<title>Node9&#45;&gt;Node12</title>
<path fill="none" stroke="#63b8ff" d="M949.83,-255.32C988.14,-246.49 1059.07,-230.14 1106.15,-219.29"/>
<polygon fill="#63b8ff" stroke="#63b8ff" points="1107.15,-222.66 1116.11,-217 1105.58,-215.84 1107.15,-222.66"/>
</g>
<!-- Node13 -->
<g id="node13" class="node">
<title>Node13</title>
<g id="a_node13"><a xlink:title=" ">
<polygon fill="#e0e0e0" stroke="#999999" points="1296,-217 1234,-217 1234,-198 1296,-198 1296,-217"/>
<text text-anchor="middle" x="1265" y="-205" font-family="Helvetica,sans-Serif" font-size="10.00">filesystem</text>
</a>
</g>
</g>
<!-- Node9&#45;&gt;Node13 -->
<g id="edge16" class="edge">
<title>Node9&#45;&gt;Node13</title>
<path fill="none" stroke="#63b8ff" d="M949.75,-258.13C1000.95,-251.57 1116.53,-236.16 1223.59,-217.16"/>
<polygon fill="#63b8ff" stroke="#63b8ff" points="1224.37,-220.58 1233.59,-215.37 1223.13,-213.69 1224.37,-220.58"/>
</g>
<!-- Node14 -->
<g id="node14" class="node">
<title>Node14</title>
<g id="a_node14"><a xlink:title=" ">
<polygon fill="#e0e0e0" stroke="#999999" points="330.5,-90.5 295.5,-90.5 295.5,-71.5 330.5,-71.5 330.5,-90.5"/>
<text text-anchor="middle" x="313" y="-78.5" font-family="Helvetica,sans-Serif" font-size="10.00">map</text>
</a>
</g>
</g>
<!-- Node9&#45;&gt;Node14 -->
<g id="edge17" class="edge">
<title>Node9&#45;&gt;Node14</title>
<path fill="none" stroke="#63b8ff" d="M896.34,-261.12C795.11,-259.44 434.7,-251.13 326,-217 280.18,-202.61 256.79,-203.71 233,-162 226.39,-150.42 226.54,-143.66 233,-132 236.16,-126.3 266.28,-108.38 288.64,-95.62"/>
<polygon fill="#63b8ff" stroke="#63b8ff" points="290.37,-98.66 297.35,-90.69 286.92,-92.57 290.37,-98.66"/>
</g>
<!-- Node15 -->
<g id="node15" class="node">
<title>Node15</title>
<g id="a_node15"><a xlink:title=" ">
<polygon fill="#e0e0e0" stroke="#999999" points="1360,-90.5 1308,-90.5 1308,-71.5 1360,-71.5 1360,-90.5"/>
<text text-anchor="middle" x="1334" y="-78.5" font-family="Helvetica,sans-Serif" font-size="10.00">memory</text>
</a>
</g>
</g>
<!-- Node9&#45;&gt;Node15 -->
<g id="edge18" class="edge">
<title>Node9&#45;&gt;Node15</title>
<path fill="none" stroke="#63b8ff" d="M918.08,-252.68C911.4,-239.38 901.64,-214.06 914,-198 967.98,-127.86 1214.98,-123.82 1299,-96 1300.67,-95.45 1302.37,-94.86 1304.08,-94.25"/>
<polygon fill="#63b8ff" stroke="#63b8ff" points="1305.68,-97.38 1313.8,-90.57 1303.2,-90.83 1305.68,-97.38"/>
</g>
<!-- Node16 -->
<g id="node16" class="node">
<title>Node16</title>
<g id="a_node16"><a xlink:title=" ">
<polygon fill="#e0e0e0" stroke="#999999" points="1358,-217 1314,-217 1314,-198 1358,-198 1358,-217"/>
<text text-anchor="middle" x="1336" y="-205" font-family="Helvetica,sans-Serif" font-size="10.00">mutex</text>
</a>
</g>
</g>
<!-- Node9&#45;&gt;Node16 -->
<g id="edge19" class="edge">
<title>Node9&#45;&gt;Node16</title>
<path fill="none" stroke="#63b8ff" d="M949.61,-259.8C1010.64,-255.59 1165.44,-243.24 1303.81,-216.95"/>
<polygon fill="#63b8ff" stroke="#63b8ff" points="1304.59,-220.37 1313.74,-215.04 1303.26,-213.5 1304.59,-220.37"/>
</g>
<!-- Node17 -->
<g id="node17" class="node">
<title>Node17</title>
<g id="a_node17"><a xlink:title=" ">
<polygon fill="#e0e0e0" stroke="#999999" points="1419.5,-217 1376.5,-217 1376.5,-198 1419.5,-198 1419.5,-217"/>
<text text-anchor="middle" x="1398" y="-205" font-family="Helvetica,sans-Serif" font-size="10.00">queue</text>
</a>
</g>
</g>
<!-- Node9&#45;&gt;Node17 -->
<g id="edge20" class="edge">
<title>Node9&#45;&gt;Node17</title>
<path fill="none" stroke="#63b8ff" d="M949.74,-260.38C1017.72,-257.22 1202.68,-246.54 1366.19,-216.8"/>
<polygon fill="#63b8ff" stroke="#63b8ff" points="1367.23,-220.17 1376.43,-214.91 1365.96,-213.29 1367.23,-220.17"/>
</g>
<!-- Node18 -->
<g id="node18" class="node">
<title>Node18</title>
<g id="a_node18"><a xlink:title=" ">
<polygon fill="#e0e0e0" stroke="#999999" points="389.5,-90.5 348.5,-90.5 348.5,-71.5 389.5,-71.5 389.5,-90.5"/>
<text text-anchor="middle" x="369" y="-78.5" font-family="Helvetica,sans-Serif" font-size="10.00">string</text>
</a>
</g>
</g>
<!-- Node9&#45;&gt;Node18 -->
<g id="edge21" class="edge">
<title>Node9&#45;&gt;Node18</title>
<path fill="none" stroke="#63b8ff" d="M896.45,-260.25C834.86,-256.94 677.81,-246.11 550,-217 476.27,-200.21 440.17,-217.67 389,-162 373.67,-145.32 369.65,-118.69 368.82,-100.79"/>
<polygon fill="#63b8ff" stroke="#63b8ff" points="372.31,-100.64 368.64,-90.71 365.31,-100.77 372.31,-100.64"/>
</g>
<!-- Node19 -->
<g id="node19" class="node">
<title>Node19</title>
<g id="a_node19"><a xlink:href="logging_8h.html" target="_top" xlink:title=" ">
<polygon fill="white" stroke="#666666" points="615,-217 559,-217 559,-198 615,-198 615,-217"/>
<text text-anchor="middle" x="587" y="-205" font-family="Helvetica,sans-Serif" font-size="10.00">logging.h</text>
</a>
</g>
</g>
<!-- Node9&#45;&gt;Node19 -->
<g id="edge25" class="edge">
<title>Node9&#45;&gt;Node19</title>
<path fill="none" stroke="#63b8ff" d="M896.35,-257.3C837,-247.94 693.76,-225.34 625.04,-214.5"/>
<polygon fill="#63b8ff" stroke="#63b8ff" points="625.48,-211.03 615.06,-212.93 624.39,-217.94 625.48,-211.03"/>
</g>
<!-- Node24 -->
<g id="node24" class="node">
<title>Node24</title>
<g id="a_node24"><a xlink:href="platform__channel_8h.html" target="_top" xlink:title=" ">
<polygon fill="white" stroke="#666666" points="340.5,-156.5 241.5,-156.5 241.5,-137.5 340.5,-137.5 340.5,-156.5"/>
<text text-anchor="middle" x="291" y="-144.5" font-family="Helvetica,sans-Serif" font-size="10.00">platform_channel.h</text>
</a>
</g>
</g>
<!-- Node9&#45;&gt;Node24 -->
<g id="edge32" class="edge">
<title>Node9&#45;&gt;Node24</title>
<path fill="none" stroke="#63b8ff" d="M896.27,-261.94C797.28,-263.2 452.28,-264.06 355,-217 331.64,-205.7 312.63,-181.86 301.57,-165.39"/>
<polygon fill="#63b8ff" stroke="#63b8ff" points="304.34,-163.23 296,-156.7 298.44,-167.01 304.34,-163.23"/>
</g>
<!-- Node25 -->
<g id="node25" class="node">
<title>Node25</title>
<g id="a_node25"><a xlink:href="key__event_8h.html" target="_top" xlink:title=" ">
<polygon fill="white" stroke="#666666" points="909,-162 807,-162 807,-132 909,-132 909,-162"/>
<text text-anchor="start" x="815" y="-150" font-family="Helvetica,sans-Serif" font-size="10.00">static_plugins/key</text>
<text text-anchor="middle" x="858" y="-139" font-family="Helvetica,sans-Serif" font-size="10.00">_event/key_event.h</text>
</a>
</g>
</g>
<!-- Node9&#45;&gt;Node25 -->
<g id="edge36" class="edge">
<title>Node9&#45;&gt;Node25</title>
<path fill="none" stroke="#63b8ff" d="M912,-252.7C902.32,-244.42 888.48,-231.2 880,-217 871.68,-203.07 866.15,-185.64 862.72,-171.78"/>
<polygon fill="#63b8ff" stroke="#63b8ff" points="866.13,-170.98 860.5,-162 859.3,-172.53 866.13,-170.98"/>
</g>
<!-- Node31 -->
<g id="node31" class="node">
<title>Node31</title>
<g id="a_node31"><a xlink:href="text__input_8h.html" target="_top" xlink:title=" ">
<polygon fill="white" stroke="#666666" points="1425.5,-162 1328.5,-162 1328.5,-132 1425.5,-132 1425.5,-162"/>
<text text-anchor="start" x="1336.5" y="-150" font-family="Helvetica,sans-Serif" font-size="10.00">static_plugins/text</text>
<text text-anchor="middle" x="1377" y="-139" font-family="Helvetica,sans-Serif" font-size="10.00">_input/text_input.h</text>
</a>
</g>
</g>
<!-- Node9&#45;&gt;Node31 -->
<g id="edge48" class="edge">
<title>Node9&#45;&gt;Node31</title>
<path fill="none" stroke="#63b8ff" d="M949.61,-261.21C1049.27,-259.86 1396.39,-252.6 1429,-217 1443.15,-201.56 1426.39,-182.43 1408.24,-168.24"/>
<polygon fill="#63b8ff" stroke="#63b8ff" points="1410.03,-165.21 1399.91,-162.1 1405.88,-170.85 1410.03,-165.21"/>
</g>
<!-- Node36 -->
<g id="node36" class="node">
<title>Node36</title>
<g id="a_node36"><a xlink:href="flutter__view_8h.html" target="_top" xlink:title=" ">
<polygon fill="white" stroke="#666666" points="828,-217 730,-217 730,-198 828,-198 828,-217"/>
<text text-anchor="middle" x="779" y="-205" font-family="Helvetica,sans-Serif" font-size="10.00">view/flutter_view.h</text>
</a>
</g>
</g>
<!-- Node9&#45;&gt;Node36 -->
<g id="edge62" class="edge">
<title>Node9&#45;&gt;Node36</title>
<path fill="none" stroke="#63b8ff" d="M899.86,-252.98C876.18,-244.27 839.13,-230.63 812.29,-220.75"/>
<polygon fill="#63b8ff" stroke="#63b8ff" points="813.15,-217.34 802.56,-217.17 810.73,-223.91 813.15,-217.34"/>
</g>
<!-- Node20 -->
<g id="node20" class="node">
<title>Node20</title>
<g id="a_node20"><a xlink:title=" ">
<polygon fill="#e0e0e0" stroke="#999999" points="517,-156.5 465,-156.5 465,-137.5 517,-137.5 517,-156.5"/>
<text text-anchor="middle" x="491" y="-144.5" font-family="Helvetica,sans-Serif" font-size="10.00">sstream</text>
</a>
</g>
</g>
<!-- Node19&#45;&gt;Node20 -->
<g id="edge26" class="edge">
<title>Node19&#45;&gt;Node20</title>
<path fill="none" stroke="#63b8ff" d="M572.83,-197.87C557.31,-188.41 532.17,-173.09 513.85,-161.92"/>
<polygon fill="#63b8ff" stroke="#63b8ff" points="515.58,-158.88 505.22,-156.67 511.94,-164.86 515.58,-158.88"/>
</g>
<!-- Node21 -->
<g id="node21" class="node">
<title>Node21</title>
<g id="a_node21"><a xlink:href="dlt_8h.html" target="_top" xlink:title=" ">
<polygon fill="white" stroke="#666666" points="446.5,-156.5 397.5,-156.5 397.5,-137.5 446.5,-137.5 446.5,-156.5"/>
<text text-anchor="middle" x="422" y="-144.5" font-family="Helvetica,sans-Serif" font-size="10.00">dlt/dlt.h</text>
</a>
</g>
</g>
<!-- Node19&#45;&gt;Node21 -->
<g id="edge27" class="edge">
<title>Node19&#45;&gt;Node21</title>
<path fill="none" stroke="#63b8ff" d="M560.23,-197.95C533.63,-189.34 491.76,-175.42 456,-162 454.58,-161.47 453.13,-160.91 451.67,-160.35"/>
<polygon fill="#63b8ff" stroke="#63b8ff" points="452.64,-156.96 442.05,-156.5 450.04,-163.46 452.64,-156.96"/>
</g>
<!-- Node23 -->
<g id="node23" class="node">
<title>Node23</title>
<g id="a_node23"><a xlink:title=" ">
<polygon fill="#e0e0e0" stroke="#999999" points="508.5,-90.5 407.5,-90.5 407.5,-71.5 508.5,-71.5 508.5,-90.5"/>
<text text-anchor="middle" x="458" y="-78.5" font-family="Helvetica,sans-Serif" font-size="10.00">flutter/fml/macros.h</text>
</a>
</g>
</g>
<!-- Node19&#45;&gt;Node23 -->
<g id="edge31" class="edge">
<title>Node19&#45;&gt;Node23</title>
<path fill="none" stroke="#63b8ff" d="M615.05,-202.11C663.54,-193.36 754.86,-171.17 722,-132 692.41,-96.73 563.1,-105.23 518,-96 513.21,-95.02 508.22,-93.94 503.25,-92.83"/>
<polygon fill="#63b8ff" stroke="#63b8ff" points="503.67,-89.34 493.15,-90.54 502.12,-96.17 503.67,-89.34"/>
</g>
<!-- Node22 -->
<g id="node22" class="node">
<title>Node22</title>
<g id="a_node22"><a xlink:href="libdlt_8h.html" target="_top" xlink:title=" ">
<polygon fill="white" stroke="#666666" points="277.5,-90.5 218.5,-90.5 218.5,-71.5 277.5,-71.5 277.5,-90.5"/>
<text text-anchor="middle" x="248" y="-78.5" font-family="Helvetica,sans-Serif" font-size="10.00">dlt/libdlt.h</text>
</a>
</g>
</g>
<!-- Node21&#45;&gt;Node22 -->
<g id="edge28" class="edge">
<title>Node21&#45;&gt;Node22</title>
<path fill="none" stroke="#63b8ff" d="M398.53,-137.37C368.22,-126.22 315.29,-106.75 280.96,-94.12"/>
<polygon fill="#63b8ff" stroke="#63b8ff" points="281.97,-90.76 271.37,-90.6 279.55,-97.33 281.97,-90.76"/>
</g>
<!-- Node21&#45;&gt;Node23 -->
<g id="edge30" class="edge">
<title>Node21&#45;&gt;Node23</title>
<path fill="none" stroke="#63b8ff" d="M426.86,-137.37C432.25,-127.78 441.1,-112.05 447.99,-99.8"/>
<polygon fill="#63b8ff" stroke="#63b8ff" points="451.14,-101.34 452.99,-90.91 445.04,-97.91 451.14,-101.34"/>
</g>
<!-- Node22&#45;&gt;Node2 -->
<g id="edge29" class="edge">
<title>Node22&#45;&gt;Node2</title>
<path fill="none" stroke="#63b8ff" d="M231.28,-71.37C210.38,-60.59 174.41,-42.02 149.93,-29.38"/>
<polygon fill="#63b8ff" stroke="#63b8ff" points="151.35,-26.18 140.85,-24.7 148.14,-32.4 151.35,-26.18"/>
</g>
<!-- Node24&#45;&gt;Node4 -->
<g id="edge35" class="edge">
<title>Node24&#45;&gt;Node4</title>
<path fill="none" stroke="#63b8ff" d="M270.44,-137.4C238.5,-122.92 183.17,-92.63 209,-66 222.85,-51.72 1463.33,-24.22 1776.05,-17.5"/>
<polygon fill="#63b8ff" stroke="#63b8ff" points="1776.42,-21 1786.35,-17.28 1776.27,-14 1776.42,-21"/>
</g>
<!-- Node24&#45;&gt;Node14 -->
<g id="edge33" class="edge">
<title>Node24&#45;&gt;Node14</title>
<path fill="none" stroke="#63b8ff" d="M293.97,-137.37C297.2,-127.97 302.46,-112.67 306.63,-100.53"/>
<polygon fill="#63b8ff" stroke="#63b8ff" points="310,-101.5 309.94,-90.91 303.38,-99.22 310,-101.5"/>
</g>
<!-- Node24&#45;&gt;Node18 -->
<g id="edge34" class="edge">
<title>Node24&#45;&gt;Node18</title>
<path fill="none" stroke="#63b8ff" d="M301.52,-137.37C314.08,-127.06 335.31,-109.65 350.6,-97.09"/>
<polygon fill="#63b8ff" stroke="#63b8ff" points="352.89,-99.75 358.4,-90.7 348.45,-94.34 352.89,-99.75"/>
</g>
<!-- Node25&#45;&gt;Node4 -->
<g id="edge45" class="edge">
<title>Node25&#45;&gt;Node4</title>
<path fill="none" stroke="#63b8ff" d="M890.77,-131.89C911,-122.67 937.17,-109.81 959,-96 977.19,-84.5 976.89,-73.65 997,-66 1068.86,-38.66 1585.31,-22.74 1776.27,-17.73"/>
<polygon fill="#63b8ff" stroke="#63b8ff" points="1776.56,-21.22 1786.47,-17.46 1776.38,-14.22 1776.56,-21.22"/>
</g>
<!-- Node25&#45;&gt;Node6 -->
<g id="edge47" class="edge">
<title>Node25&#45;&gt;Node6</title>
<path fill="none" stroke="#63b8ff" d="M909.1,-144.59C1117.73,-138.75 1899.11,-115.71 2008,-96 2011.51,-95.37 2015.12,-94.52 2018.69,-93.55"/>
<polygon fill="#63b8ff" stroke="#63b8ff" points="2019.97,-96.82 2028.53,-90.58 2017.95,-90.12 2019.97,-96.82"/>
</g>
<!-- Node25&#45;&gt;Node14 -->
<g id="edge37" class="edge">
<title>Node25&#45;&gt;Node14</title>
<path fill="none" stroke="#63b8ff" d="M806.99,-140.64C781.47,-137.99 750.11,-134.77 722,-132 552.29,-115.27 503.6,-144.14 340,-96 338.77,-95.64 337.54,-95.22 336.31,-94.76"/>
<polygon fill="#63b8ff" stroke="#63b8ff" points="337.7,-91.55 327.14,-90.63 334.82,-97.93 337.7,-91.55"/>
</g>
<!-- Node25&#45;&gt;Node15 -->
<g id="edge38" class="edge">
<title>Node25&#45;&gt;Node15</title>
<path fill="none" stroke="#63b8ff" d="M909.34,-134.36C913.95,-133.49 918.55,-132.69 923,-132 1088.89,-106.28 1135.86,-135.57 1299,-96 1301.31,-95.44 1303.66,-94.76 1306.01,-94"/>
<polygon fill="#63b8ff" stroke="#63b8ff" points="1307.23,-97.28 1315.43,-90.57 1304.84,-90.7 1307.23,-97.28"/>
</g>
<!-- Node25&#45;&gt;Node18 -->
<g id="edge39" class="edge">
<title>Node25&#45;&gt;Node18</title>
<path fill="none" stroke="#63b8ff" d="M806.65,-140.63C688.89,-128.28 408.75,-98.72 399,-96 397.36,-95.54 395.71,-95 394.05,-94.41"/>
<polygon fill="#63b8ff" stroke="#63b8ff" points="395.4,-91.18 384.82,-90.56 392.7,-97.64 395.4,-91.18"/>
</g>
<!-- Node25&#45;&gt;Node23 -->
<g id="edge43" class="edge">
<title>Node25&#45;&gt;Node23</title>
<path fill="none" stroke="#63b8ff" d="M806.98,-134.6C802.26,-133.67 797.55,-132.79 793,-132 671.54,-111.01 639.28,-118.03 518,-96 512.67,-95.03 507.11,-93.9 501.6,-92.71"/>
<polygon fill="#63b8ff" stroke="#63b8ff" points="502.35,-89.29 491.83,-90.51 500.82,-96.12 502.35,-89.29"/>
</g>
<!-- Node26 -->
<g id="node26" class="node">
<title>Node26</title>
<g id="a_node26"><a xlink:title=" ">
<polygon fill="#e0e0e0" stroke="#999999" points="639.5,-96 526.5,-96 526.5,-66 639.5,-66 639.5,-96"/>
<text text-anchor="start" x="534.5" y="-84" font-family="Helvetica,sans-Serif" font-size="10.00">flutter/basic_message</text>
<text text-anchor="middle" x="583" y="-73" font-family="Helvetica,sans-Serif" font-size="10.00">_channel.h</text>
</a>
</g>
</g>
<!-- Node25&#45;&gt;Node26 -->
<g id="edge40" class="edge">
<title>Node25&#45;&gt;Node26</title>
<path fill="none" stroke="#63b8ff" d="M806.92,-134.11C762.6,-123.8 698.13,-108.79 649.74,-97.53"/>
<polygon fill="#63b8ff" stroke="#63b8ff" points="650.51,-94.12 639.98,-95.26 648.92,-100.94 650.51,-94.12"/>
</g>
<!-- Node27 -->
<g id="node27" class="node">
<title>Node27</title>
<g id="a_node27"><a xlink:title=" ">
<polygon fill="#e0e0e0" stroke="#999999" points="1138,-90.5 1006,-90.5 1006,-71.5 1138,-71.5 1138,-90.5"/>
<text text-anchor="middle" x="1072" y="-78.5" font-family="Helvetica,sans-Serif" font-size="10.00">flutter/binary_messenger.h</text>
</a>
</g>
</g>
<!-- Node25&#45;&gt;Node27 -->
<g id="edge41" class="edge">
<title>Node25&#45;&gt;Node27</title>
<path fill="none" stroke="#63b8ff" d="M904.96,-131.95C943.65,-120.38 997.82,-104.18 1033.86,-93.41"/>
<polygon fill="#63b8ff" stroke="#63b8ff" points="1034.94,-96.74 1043.52,-90.52 1032.94,-90.03 1034.94,-96.74"/>
</g>
<!-- Node28 -->
<g id="node28" class="node">
<title>Node28</title>
<g id="a_node28"><a xlink:title=" ">
<polygon fill="#e0e0e0" stroke="#999999" points="949.5,-96 786.5,-96 786.5,-66 949.5,-66 949.5,-96"/>
<text text-anchor="start" x="794.5" y="-84" font-family="Helvetica,sans-Serif" font-size="10.00">flutter/shell/platform</text>
<text text-anchor="middle" x="868" y="-73" font-family="Helvetica,sans-Serif" font-size="10.00">/common/json_message_codec.h</text>
</a>
</g>
</g>
<!-- Node25&#45;&gt;Node28 -->
<g id="edge42" class="edge">
<title>Node25&#45;&gt;Node28</title>
<path fill="none" stroke="#63b8ff" d="M860.22,-131.8C861.4,-124.26 862.88,-114.78 864.23,-106.13"/>
<polygon fill="#63b8ff" stroke="#63b8ff" points="867.7,-106.58 865.79,-96.16 860.78,-105.5 867.7,-106.58"/>
</g>
<!-- Node29 -->
<g id="node29" class="node">
<title>Node29</title>
<g id="a_node29"><a xlink:title=" ">
<polygon fill="#e0e0e0" stroke="#999999" points="768,-90.5 658,-90.5 658,-71.5 768,-71.5 768,-90.5"/>
<text text-anchor="middle" x="713" y="-78.5" font-family="Helvetica,sans-Serif" font-size="10.00">rapidjson/document.h</text>
</a>
</g>
</g>
<!-- Node25&#45;&gt;Node29 -->
<g id="edge44" class="edge">
<title>Node25&#45;&gt;Node29</title>
<path fill="none" stroke="#63b8ff" d="M826.18,-131.95C800.97,-120.83 766.07,-105.42 741.71,-94.67"/>
<polygon fill="#63b8ff" stroke="#63b8ff" points="742.86,-91.35 732.3,-90.52 740.03,-97.76 742.86,-91.35"/>
</g>
<!-- Node30 -->
<g id="node30" class="node">
<title>Node30</title>
<g id="a_node30"><a xlink:title=" ">
<polygon fill="#e0e0e0" stroke="#999999" points="1290,-90.5 1156,-90.5 1156,-71.5 1290,-71.5 1290,-90.5"/>
<text text-anchor="middle" x="1223" y="-78.5" font-family="Helvetica,sans-Serif" font-size="10.00">xkbcommon/xkbcommon.h</text>
</a>
</g>
</g>
<!-- Node25&#45;&gt;Node30 -->
<g id="edge46" class="edge">
<title>Node25&#45;&gt;Node30</title>
<path fill="none" stroke="#63b8ff" d="M909.04,-134.74C913.76,-133.78 918.46,-132.85 923,-132 1022.1,-113.38 1047.63,-113.13 1147,-96 1153.66,-94.85 1160.65,-93.61 1167.57,-92.36"/>
<polygon fill="#63b8ff" stroke="#63b8ff" points="1168.41,-95.77 1177.62,-90.53 1167.15,-88.88 1168.41,-95.77"/>
</g>
<!-- Node31&#45;&gt;Node4 -->
<g id="edge59" class="edge">
<title>Node31&#45;&gt;Node4</title>
<path fill="none" stroke="#63b8ff" d="M1425.51,-139.31C1443.55,-136.9 1464.2,-134.22 1483,-132 1559.55,-122.95 1770.09,-146.87 1828,-96 1843.62,-82.28 1847.61,-58.29 1848.16,-40.15"/>
<polygon fill="#63b8ff" stroke="#63b8ff" points="1851.66,-40 1848.13,-30.01 1844.66,-40.02 1851.66,-40"/>
</g>
<!-- Node31&#45;&gt;Node6 -->
<g id="edge61" class="edge">
<title>Node31&#45;&gt;Node6</title>
<path fill="none" stroke="#63b8ff" d="M1425.74,-138.91C1443.71,-136.47 1464.25,-133.88 1483,-132 1715.72,-108.68 1778.4,-140.54 2008,-96 2011.42,-95.34 2014.94,-94.48 2018.43,-93.53"/>
<polygon fill="#63b8ff" stroke="#63b8ff" points="2019.5,-96.86 2028.07,-90.62 2017.48,-90.16 2019.5,-96.86"/>
</g>
<!-- Node31&#45;&gt;Node14 -->
<g id="edge49" class="edge">
<title>Node31&#45;&gt;Node14</title>
<path fill="none" stroke="#63b8ff" d="M1328.2,-144.23C1129.32,-136.93 388.19,-108.99 340,-96 338.74,-95.66 337.47,-95.25 336.2,-94.8"/>
<polygon fill="#63b8ff" stroke="#63b8ff" points="337.38,-91.49 326.83,-90.61 334.53,-97.89 337.38,-91.49"/>
</g>
<!-- Node31&#45;&gt;Node15 -->
<g id="edge50" class="edge">
<title>Node31&#45;&gt;Node15</title>
<path fill="none" stroke="#63b8ff" d="M1367.46,-131.8C1361.02,-122.21 1352.48,-109.5 1345.64,-99.32"/>
<polygon fill="#63b8ff" stroke="#63b8ff" points="1348.42,-97.19 1339.94,-90.84 1342.61,-101.1 1348.42,-97.19"/>
</g>
<!-- Node31&#45;&gt;Node18 -->
<g id="edge51" class="edge">
<title>Node31&#45;&gt;Node18</title>
<path fill="none" stroke="#63b8ff" d="M1328.23,-144.6C1143.07,-139.16 489.48,-118.51 399,-96 397.31,-95.58 395.61,-95.06 393.91,-94.48"/>
<polygon fill="#63b8ff" stroke="#63b8ff" points="395.04,-91.16 384.46,-90.6 392.38,-97.64 395.04,-91.16"/>
</g>
<!-- Node31&#45;&gt;Node23 -->
<g id="edge55" class="edge">
<title>Node31&#45;&gt;Node23</title>
<path fill="none" stroke="#63b8ff" d="M1328.27,-144.26C1170.75,-138.47 676.29,-118.9 518,-96 512.1,-95.15 505.92,-94 499.87,-92.73"/>
<polygon fill="#63b8ff" stroke="#63b8ff" points="500.4,-89.26 489.88,-90.51 498.88,-96.1 500.4,-89.26"/>
</g>
<!-- Node31&#45;&gt;Node27 -->
<g id="edge52" class="edge">
<title>Node31&#45;&gt;Node27</title>
<path fill="none" stroke="#63b8ff" d="M1328.33,-135.79C1272.01,-123.97 1179.7,-104.6 1122.58,-92.61"/>
<polygon fill="#63b8ff" stroke="#63b8ff" points="1123.19,-89.17 1112.68,-90.54 1121.75,-96.02 1123.19,-89.17"/>
</g>
<!-- Node31&#45;&gt;Node29 -->
<g id="edge58" class="edge">
<title>Node31&#45;&gt;Node29</title>
<path fill="none" stroke="#63b8ff" d="M1328.23,-144.06C1225.82,-139.52 981.08,-126.22 778,-96 771.71,-95.06 765.11,-93.88 758.63,-92.6"/>
<polygon fill="#63b8ff" stroke="#63b8ff" points="759.11,-89.13 748.61,-90.53 757.7,-95.98 759.11,-89.13"/>
</g>
<!-- Node31&#45;&gt;Node30 -->
<g id="edge60" class="edge">
<title>Node31&#45;&gt;Node30</title>
<path fill="none" stroke="#63b8ff" d="M1343.2,-131.95C1316.2,-120.73 1278.7,-105.15 1252.81,-94.39"/>
<polygon fill="#63b8ff" stroke="#63b8ff" points="1254.07,-91.12 1243.49,-90.52 1251.39,-97.59 1254.07,-91.12"/>
</g>
<!-- Node32 -->
<g id="node32" class="node">
<title>Node32</title>
<g id="a_node32"><a xlink:title=" ">
<polygon fill="#e0e0e0" stroke="#999999" points="1999,-90.5 1875,-90.5 1875,-71.5 1999,-71.5 1999,-90.5"/>
<text text-anchor="middle" x="1937" y="-78.5" font-family="Helvetica,sans-Serif" font-size="10.00">flutter/method_channel.h</text>
</a>
</g>
</g>
<!-- Node31&#45;&gt;Node32 -->
<g id="edge53" class="edge">
<title>Node31&#45;&gt;Node32</title>
<path fill="none" stroke="#63b8ff" d="M1425.5,-139.22C1443.54,-136.79 1464.19,-134.14 1483,-132 1650.68,-112.95 1693.86,-119.31 1861,-96 1868.66,-94.93 1876.73,-93.63 1884.63,-92.27"/>
<polygon fill="#63b8ff" stroke="#63b8ff" points="1885.27,-95.71 1894.5,-90.51 1884.04,-88.81 1885.27,-95.71"/>
</g>
<!-- Node33 -->
<g id="node33" class="node">
<title>Node33</title>
<g id="a_node33"><a xlink:title=" ">
<polygon fill="#e0e0e0" stroke="#999999" points="1484,-96 1378,-96 1378,-66 1484,-66 1484,-96"/>
<text text-anchor="start" x="1386" y="-84" font-family="Helvetica,sans-Serif" font-size="10.00">flutter/method_result</text>
<text text-anchor="middle" x="1431" y="-73" font-family="Helvetica,sans-Serif" font-size="10.00">_functions.h</text>
</a>
</g>
</g>
<!-- Node31&#45;&gt;Node33 -->
<g id="edge54" class="edge">
<title>Node31&#45;&gt;Node33</title>
<path fill="none" stroke="#63b8ff" d="M1388.98,-131.8C1395.91,-123.59 1404.76,-113.1 1412.55,-103.87"/>
<polygon fill="#63b8ff" stroke="#63b8ff" points="1415.28,-106.06 1419.05,-96.16 1409.93,-101.55 1415.28,-106.06"/>
</g>
<!-- Node34 -->
<g id="node34" class="node">
<title>Node34</title>
<g id="a_node34"><a xlink:title=" ">
<polygon fill="#e0e0e0" stroke="#999999" points="1657.5,-96 1502.5,-96 1502.5,-66 1657.5,-66 1657.5,-96"/>
<text text-anchor="start" x="1510.5" y="-84" font-family="Helvetica,sans-Serif" font-size="10.00">flutter/shell/platform</text>
<text text-anchor="middle" x="1580" y="-73" font-family="Helvetica,sans-Serif" font-size="10.00">/common/json_method_codec.h</text>
</a>
</g>
</g>
<!-- Node31&#45;&gt;Node34 -->
<g id="edge56" class="edge">
<title>Node31&#45;&gt;Node34</title>
<path fill="none" stroke="#63b8ff" d="M1421.55,-131.95C1452.22,-122.28 1493.16,-109.38 1525.73,-99.11"/>
<polygon fill="#63b8ff" stroke="#63b8ff" points="1527.07,-102.36 1535.55,-96.01 1524.97,-95.68 1527.07,-102.36"/>
</g>
<!-- Node35 -->
<g id="node35" class="node">
<title>Node35</title>
<g id="a_node35"><a xlink:title=" ">
<polygon fill="#e0e0e0" stroke="#999999" points="1818.5,-96 1675.5,-96 1675.5,-66 1818.5,-66 1818.5,-96"/>
<text text-anchor="start" x="1683.5" y="-84" font-family="Helvetica,sans-Serif" font-size="10.00">flutter/shell/platform</text>
<text text-anchor="middle" x="1747" y="-73" font-family="Helvetica,sans-Serif" font-size="10.00">/common/text_input_model.h</text>
</a>
</g>
</g>
<!-- Node31&#45;&gt;Node35 -->
<g id="edge57" class="edge">
<title>Node31&#45;&gt;Node35</title>
<path fill="none" stroke="#63b8ff" d="M1425.75,-137.63C1481.36,-128.08 1575.29,-111.92 1665.61,-96.24"/>
<polygon fill="#63b8ff" stroke="#63b8ff" points="1666.22,-99.69 1675.47,-94.53 1665.02,-92.79 1666.22,-99.69"/>
</g>
<!-- Node36&#45;&gt;Node14 -->
<g id="edge63" class="edge">
<title>Node36&#45;&gt;Node14</title>
<path fill="none" stroke="#63b8ff" d="M729.88,-202.6C685.2,-197.6 618.28,-186.46 565,-162 545.13,-152.88 545.94,-140.99 526,-132 449.24,-97.4 419.53,-123.66 340,-96 338.98,-95.64 337.95,-95.26 336.91,-94.84"/>
<polygon fill="#63b8ff" stroke="#63b8ff" points="338.34,-91.65 327.8,-90.64 335.41,-98 338.34,-91.65"/>
</g>
<!-- Node36&#45;&gt;Node15 -->
<g id="edge64" class="edge">
<title>Node36&#45;&gt;Node15</title>
<path fill="none" stroke="#63b8ff" d="M815.87,-197.92C844.57,-190.49 884.96,-178.35 918,-162 938.89,-151.67 939.17,-140.16 961,-132 1102.51,-79.12 1152.38,-132.4 1299,-96 1301.3,-95.43 1303.66,-94.74 1306,-93.97"/>
<polygon fill="#63b8ff" stroke="#63b8ff" points="1307.23,-97.25 1315.42,-90.53 1304.83,-90.67 1307.23,-97.25"/>
</g>
<!-- Node36&#45;&gt;Node23 -->
<g id="edge70" class="edge">
<title>Node36&#45;&gt;Node23</title>
<path fill="none" stroke="#63b8ff" d="M777.05,-197.93C772.97,-182.09 761.94,-148.37 739,-132 657.99,-74.2 615.62,-115.32 518,-96 513.01,-95.01 507.81,-93.91 502.64,-92.77"/>
<polygon fill="#63b8ff" stroke="#63b8ff" points="503.34,-89.34 492.81,-90.54 501.79,-96.16 503.34,-89.34"/>
</g>
<!-- Node37 -->
<g id="node37" class="node">
<title>Node37</title>
<g id="a_node37"><a xlink:href="configuration_8h.html" target="_top" xlink:title=" ">
<polygon fill="white" stroke="#666666" points="712.5,-156.5 573.5,-156.5 573.5,-137.5 712.5,-137.5 712.5,-156.5"/>
<text text-anchor="middle" x="643" y="-144.5" font-family="Helvetica,sans-Serif" font-size="10.00">configuration/configuration.h</text>
</a>
</g>
</g>
<!-- Node36&#45;&gt;Node37 -->
<g id="edge65" class="edge">
<title>Node36&#45;&gt;Node37</title>
<path fill="none" stroke="#63b8ff" d="M759.22,-197.99C736.36,-188.16 698.51,-171.88 672.24,-160.58"/>
<polygon fill="#63b8ff" stroke="#63b8ff" points="673.37,-157.25 662.8,-156.52 670.6,-163.68 673.37,-157.25"/>
</g>
<!-- Node38 -->
<g id="node38" class="node">
<title>Node38</title>
<g id="a_node38"><a xlink:href="window_8h.html" target="_top" xlink:title=" ">
<polygon fill="white" stroke="#666666" points="2195,-156.5 2099,-156.5 2099,-137.5 2195,-137.5 2195,-156.5"/>
<text text-anchor="middle" x="2147" y="-144.5" font-family="Helvetica,sans-Serif" font-size="10.00">wayland/window.h</text>
</a>
</g>
</g>
<!-- Node36&#45;&gt;Node38 -->
<g id="edge71" class="edge">
<title>Node36&#45;&gt;Node38</title>
<path fill="none" stroke="#63b8ff" d="M828.04,-203.15C853.65,-201.46 885.51,-199.47 914,-198 1366.06,-174.61 1911.83,-155.77 2088.68,-149.9"/>
<polygon fill="#63b8ff" stroke="#63b8ff" points="2088.93,-153.4 2098.8,-149.57 2088.69,-146.4 2088.93,-153.4"/>
</g>
<!-- Node37&#45;&gt;Node3 -->
<g id="edge67" class="edge">
<title>Node37&#45;&gt;Node3</title>
<path fill="none" stroke="#63b8ff" d="M573.41,-137.6C557.81,-135.74 541.34,-133.79 526,-132 385.16,-115.58 349.75,-113.2 209,-96 183.86,-92.93 155.44,-89.2 134.21,-86.36"/>
<polygon fill="#63b8ff" stroke="#63b8ff" points="134.49,-82.87 124.12,-85.01 133.56,-89.8 134.49,-82.87"/>
</g>
<!-- Node37&#45;&gt;Node18 -->
<g id="edge66" class="edge">
<title>Node37&#45;&gt;Node18</title>
<path fill="none" stroke="#63b8ff" d="M594.67,-137.49C534.32,-126.61 434.67,-107.79 399,-96 397.6,-95.54 396.18,-95.03 394.76,-94.48"/>
<polygon fill="#63b8ff" stroke="#63b8ff" points="396.11,-91.25 385.54,-90.56 393.37,-97.7 396.11,-91.25"/>
</g>
<!-- Node37&#45;&gt;Node23 -->
<g id="edge68" class="edge">
<title>Node37&#45;&gt;Node23</title>
<path fill="none" stroke="#63b8ff" d="M618.05,-137.37C585.69,-126.17 529.06,-106.58 492.57,-93.96"/>
<polygon fill="#63b8ff" stroke="#63b8ff" points="493.44,-90.56 482.85,-90.6 491.16,-97.17 493.44,-90.56"/>
</g>
<!-- Node37&#45;&gt;Node29 -->
<g id="edge69" class="edge">
<title>Node37&#45;&gt;Node29</title>
<path fill="none" stroke="#63b8ff" d="M652.44,-137.37C663.55,-127.21 682.2,-110.16 695.88,-97.65"/>
<polygon fill="#63b8ff" stroke="#63b8ff" points="698.24,-100.24 703.26,-90.91 693.52,-95.07 698.24,-100.24"/>
</g>
<!-- Node38&#45;&gt;Node5 -->
<g id="edge77" class="edge">
<title>Node38&#45;&gt;Node5</title>
<path fill="none" stroke="#63b8ff" d="M2142,-156.77C2126.84,-183.38 2081.18,-263.53 2060.89,-299.13"/>
<polygon fill="#63b8ff" stroke="#63b8ff" points="2057.8,-297.49 2055.89,-307.91 2063.88,-300.96 2057.8,-297.49"/>
</g>
<!-- Node38&#45;&gt;Node6 -->
<g id="edge76" class="edge">
<title>Node38&#45;&gt;Node6</title>
<path fill="none" stroke="#63b8ff" d="M2134.05,-137.37C2118.31,-126.87 2091.5,-109 2072.6,-96.4"/>
<polygon fill="#63b8ff" stroke="#63b8ff" points="2074.31,-93.33 2064.05,-90.7 2070.43,-99.16 2074.31,-93.33"/>
</g>
<!-- Node38&#45;&gt;Node15 -->
<g id="edge72" class="edge">
<title>Node38&#45;&gt;Node15</title>
<path fill="none" stroke="#63b8ff" d="M2098.87,-144.89C1951.69,-141.2 1509.1,-127.67 1369,-96 1366.63,-95.46 1364.21,-94.79 1361.81,-94.03"/>
<polygon fill="#63b8ff" stroke="#63b8ff" points="1362.77,-90.65 1352.18,-90.53 1360.39,-97.23 1362.77,-90.65"/>
</g>
<!-- Node38&#45;&gt;Node18 -->
<g id="edge73" class="edge">
<title>Node38&#45;&gt;Node18</title>
<path fill="none" stroke="#63b8ff" d="M2098.79,-144.89C1821.59,-138.47 441.51,-106.07 399,-96 397.27,-95.59 395.52,-95.07 393.78,-94.49"/>
<polygon fill="#63b8ff" stroke="#63b8ff" points="394.71,-91.09 384.13,-90.52 392.05,-97.56 394.71,-91.09"/>
</g>
<!-- Node39 -->
<g id="node39" class="node">
<title>Node39</title>
<g id="a_node39"><a xlink:title=" ">
<polygon fill="#e0e0e0" stroke="#999999" points="2698.5,-90.5 2649.5,-90.5 2649.5,-71.5 2698.5,-71.5 2698.5,-90.5"/>
<text text-anchor="middle" x="2674" y="-78.5" font-family="Helvetica,sans-Serif" font-size="10.00">cassert</text>
</a>
</g>
</g>
<!-- Node38&#45;&gt;Node39 -->
<g id="edge74" class="edge">
<title>Node38&#45;&gt;Node39</title>
<path fill="none" stroke="#63b8ff" d="M2195.04,-145.71C2284.12,-144.16 2480.42,-136.04 2640,-96 2642.16,-95.46 2644.37,-94.8 2646.57,-94.07"/>
<polygon fill="#63b8ff" stroke="#63b8ff" points="2647.84,-97.34 2655.98,-90.55 2645.39,-90.78 2647.84,-97.34"/>
</g>
<!-- Node40 -->
<g id="node40" class="node">
<title>Node40</title>
<g id="a_node40"><a xlink:title=" ">
<polygon fill="#e0e0e0" stroke="#999999" points="2228.5,-90.5 2103.5,-90.5 2103.5,-71.5 2228.5,-71.5 2228.5,-90.5"/>
<text text-anchor="middle" x="2166" y="-78.5" font-family="Helvetica,sans-Serif" font-size="10.00">agl&#45;shell&#45;client&#45;protocol.h</text>
</a>
</g>
</g>
<!-- Node38&#45;&gt;Node40 -->
<g id="edge75" class="edge">
<title>Node38&#45;&gt;Node40</title>
<path fill="none" stroke="#63b8ff" d="M2149.56,-137.37C2152.35,-127.97 2156.89,-112.67 2160.5,-100.53"/>
<polygon fill="#63b8ff" stroke="#63b8ff" points="2163.87,-101.49 2163.36,-90.91 2157.15,-99.5 2163.87,-101.49"/>
</g>
<!-- Node41 -->
<g id="node41" class="node">
<title>Node41</title>
<g id="a_node41"><a xlink:title=" ">
<polygon fill="#e0e0e0" stroke="#999999" points="2349,-96 2247,-96 2247,-66 2349,-66 2349,-96"/>
<text text-anchor="start" x="2255" y="-84" font-family="Helvetica,sans-Serif" font-size="10.00">ivi&#45;application&#45;client</text>
<text text-anchor="middle" x="2298" y="-73" font-family="Helvetica,sans-Serif" font-size="10.00">&#45;protocol.h</text>
</a>
</g>
</g>
<!-- Node38&#45;&gt;Node41 -->
<g id="edge78" class="edge">
<title>Node38&#45;&gt;Node41</title>
<path fill="none" stroke="#63b8ff" d="M2167.36,-137.37C2189.79,-127.87 2226.47,-112.32 2255.27,-100.11"/>
<polygon fill="#63b8ff" stroke="#63b8ff" points="2256.85,-103.24 2264.7,-96.12 2254.12,-96.8 2256.85,-103.24"/>
</g>
<!-- Node42 -->
<g id="node42" class="node">
<title>Node42</title>
<g id="a_node42"><a xlink:title=" ">
<polygon fill="#e0e0e0" stroke="#999999" points="2484.5,-90.5 2367.5,-90.5 2367.5,-71.5 2484.5,-71.5 2484.5,-90.5"/>
<text text-anchor="middle" x="2426" y="-78.5" font-family="Helvetica,sans-Serif" font-size="10.00">ivi&#45;wm&#45;client&#45;protocol.h</text>
</a>
</g>
</g>
<!-- Node38&#45;&gt;Node42 -->
<g id="edge79" class="edge">
<title>Node38&#45;&gt;Node42</title>
<path fill="none" stroke="#63b8ff" d="M2184.34,-137.44C2234.66,-125.89 2324.25,-105.34 2379.07,-92.77"/>
<polygon fill="#63b8ff" stroke="#63b8ff" points="2379.92,-96.16 2388.88,-90.51 2378.35,-89.34 2379.92,-96.16"/>
</g>
<!-- Node43 -->
<g id="node43" class="node">
<title>Node43</title>
<g id="a_node43"><a xlink:title=" ">
<polygon fill="#e0e0e0" stroke="#999999" points="2631,-90.5 2503,-90.5 2503,-71.5 2631,-71.5 2631,-90.5"/>
<text text-anchor="middle" x="2567" y="-78.5" font-family="Helvetica,sans-Serif" font-size="10.00">xdg&#45;shell&#45;client&#45;protocol.h</text>
</a>
</g>
</g>
<!-- Node38&#45;&gt;Node43 -->
<g id="edge80" class="edge">
<title>Node38&#45;&gt;Node43</title>
<path fill="none" stroke="#63b8ff" d="M2195.1,-139.79C2262.19,-130.96 2387.6,-113.86 2494,-96 2500.58,-94.89 2507.49,-93.66 2514.31,-92.41"/>
<polygon fill="#63b8ff" stroke="#63b8ff" points="2515.03,-95.83 2524.21,-90.55 2513.74,-88.95 2515.03,-95.83"/>
</g>
</g>
</svg>
