<?xml version="1.0" encoding="UTF-8" standalone="no"?>
<!DOCTYPE svg PUBLIC "-//W3C//DTD SVG 1.1//EN"
 "http://www.w3.org/Graphics/SVG/1.1/DTD/svg11.dtd">
<!-- Generated by graphviz version 2.43.0 (0)
 -->
<!-- Title: /home/joel.winarske@toyotaconnected.com/development/workspace&#45;automation&#45;configs/app/ivi&#45;homescreen/shell/backend/wayland_vulkan.h Pages: 1 -->
<svg width="2906pt" height="452pt"
 viewBox="0.00 0.00 2906.20 452.00" xmlns="http://www.w3.org/2000/svg" xmlns:xlink="http://www.w3.org/1999/xlink">
<g id="graph0" class="graph" transform="scale(1 1) rotate(0) translate(4 448)">
<title>/home/joel.winarske@toyotaconnected.com/development/workspace&#45;automation&#45;configs/app/ivi&#45;homescreen/shell/backend/wayland_vulkan.h</title>
<polygon fill="white" stroke="transparent" points="-4,4 -4,-448 2902.2,-448 2902.2,4 -4,4"/>
<!-- Node1 -->
<g id="node1" class="node">
<title>Node1</title>
<g id="a_node1"><a xlink:title=" ">
<polygon fill="#bfbfbf" stroke="black" points="2652.2,-369.5 2652.2,-443.5 2817.2,-443.5 2817.2,-369.5 2652.2,-369.5"/>
<text text-anchor="start" x="2660.2" y="-431.5" font-family="Helvetica,sans-Serif" font-size="10.00">/home/joel.winarske</text>
<text text-anchor="start" x="2660.2" y="-420.5" font-family="Helvetica,sans-Serif" font-size="10.00">@toyotaconnected.com</text>
<text text-anchor="start" x="2660.2" y="-409.5" font-family="Helvetica,sans-Serif" font-size="10.00">/development/workspace</text>
<text text-anchor="start" x="2660.2" y="-398.5" font-family="Helvetica,sans-Serif" font-size="10.00">&#45;automation&#45;configs/app</text>
<text text-anchor="start" x="2660.2" y="-387.5" font-family="Helvetica,sans-Serif" font-size="10.00">/ivi&#45;homescreen/shell/backend</text>
<text text-anchor="middle" x="2734.7" y="-376.5" font-family="Helvetica,sans-Serif" font-size="10.00">/wayland_vulkan.h</text>
</a>
</g>
</g>
<!-- Node2 -->
<g id="node2" class="node">
<title>Node2</title>
<g id="a_node2"><a xlink:title=" ">
<polygon fill="white" stroke="#bfbfbf" points="1932.7,-313.5 1932.7,-332.5 1982.7,-332.5 1982.7,-313.5 1932.7,-313.5"/>
<text text-anchor="middle" x="1957.7" y="-320.5" font-family="Helvetica,sans-Serif" font-size="10.00">cstdint</text>
</a>
</g>
</g>
<!-- Node1&#45;&gt;Node2 -->
<g id="edge1" class="edge">
<title>Node1&#45;&gt;Node2</title>
<path fill="none" stroke="midnightblue" d="M2652.2,-401.81C2516.33,-394.77 2237.05,-376.26 1992.98,-332.96"/>
<polygon fill="midnightblue" stroke="midnightblue" points="1993.31,-329.46 1982.85,-331.14 1992.08,-336.35 1993.31,-329.46"/>
</g>
<!-- Node3 -->
<g id="node3" class="node">
<title>Node3</title>
<g id="a_node3"><a xlink:title=" ">
<polygon fill="white" stroke="#bfbfbf" points="2418.2,-73 2418.2,-92 2465.2,-92 2465.2,-73 2418.2,-73"/>
<text text-anchor="middle" x="2441.7" y="-80" font-family="Helvetica,sans-Serif" font-size="10.00">vector</text>
</a>
</g>
</g>
<!-- Node1&#45;&gt;Node3 -->
<g id="edge2" class="edge">
<title>Node1&#45;&gt;Node3</title>
<path fill="none" stroke="midnightblue" d="M2733.89,-369.32C2730.4,-309.43 2713.91,-190.69 2639.7,-134 2590.97,-96.78 2517.78,-86.8 2475.38,-84.24"/>
<polygon fill="midnightblue" stroke="midnightblue" points="2475.45,-80.74 2465.29,-83.74 2475.1,-87.73 2475.45,-80.74"/>
</g>
<!-- Node4 -->
<g id="node4" class="node">
<title>Node4</title>
<g id="a_node4"><a xlink:title=" ">
<polygon fill="white" stroke="#bfbfbf" points="2321.2,-0.5 2321.2,-30.5 2458.2,-30.5 2458.2,-0.5 2321.2,-0.5"/>
<text text-anchor="start" x="2329.2" y="-18.5" font-family="Helvetica,sans-Serif" font-size="10.00">shell/platform/embedder</text>
<text text-anchor="middle" x="2389.7" y="-7.5" font-family="Helvetica,sans-Serif" font-size="10.00">/embedder.h</text>
</a>
</g>
</g>
<!-- Node1&#45;&gt;Node4 -->
<g id="edge3" class="edge">
<title>Node1&#45;&gt;Node4</title>
<path fill="none" stroke="midnightblue" d="M2750.38,-369.48C2760.85,-342.17 2772.7,-303.42 2772.7,-268 2772.7,-268 2772.7,-268 2772.7,-148.5 2772.7,-93.54 2729.29,-90.71 2679.7,-67 2612.91,-35.06 2528.84,-23.1 2468.44,-18.73"/>
<polygon fill="midnightblue" stroke="midnightblue" points="2468.42,-15.22 2458.21,-18.05 2467.95,-22.21 2468.42,-15.22"/>
</g>
<!-- Node5 -->
<g id="node5" class="node">
<title>Node5</title>
<g id="a_node5"><a xlink:href="backend_8h.html" target="_top" xlink:title=" ">
<polygon fill="white" stroke="black" points="2000.7,-313.5 2000.7,-332.5 2110.7,-332.5 2110.7,-313.5 2000.7,-313.5"/>
<text text-anchor="middle" x="2055.7" y="-320.5" font-family="Helvetica,sans-Serif" font-size="10.00">backend/backend.h</text>
</a>
</g>
</g>
<!-- Node1&#45;&gt;Node5 -->
<g id="edge4" class="edge">
<title>Node1&#45;&gt;Node5</title>
<path fill="none" stroke="midnightblue" d="M2652.12,-395.59C2515.48,-379.19 2245.11,-346.73 2120.89,-331.82"/>
<polygon fill="midnightblue" stroke="midnightblue" points="2121.11,-328.33 2110.77,-330.61 2120.28,-335.28 2121.11,-328.33"/>
</g>
<!-- Node39 -->
<g id="node39" class="node">
<title>Node39</title>
<g id="a_node39"><a xlink:title=" ">
<polygon fill="white" stroke="#bfbfbf" points="2801.2,-313.5 2801.2,-332.5 2898.2,-332.5 2898.2,-313.5 2801.2,-313.5"/>
<text text-anchor="middle" x="2849.7" y="-320.5" font-family="Helvetica,sans-Serif" font-size="10.00">bluevk/BlueVK.h</text>
</a>
</g>
</g>
<!-- Node1&#45;&gt;Node39 -->
<g id="edge73" class="edge">
<title>Node1&#45;&gt;Node39</title>
<path fill="none" stroke="midnightblue" d="M2785.81,-369.28C2801.11,-358.44 2817.02,-347.16 2829.13,-338.58"/>
<polygon fill="midnightblue" stroke="midnightblue" points="2831.45,-341.22 2837.59,-332.59 2827.4,-335.51 2831.45,-341.22"/>
</g>
<!-- Node5&#45;&gt;Node4 -->
<g id="edge5" class="edge">
<title>Node5&#45;&gt;Node4</title>
<path fill="none" stroke="midnightblue" d="M2110.91,-318.32C2266.39,-307.24 2696.7,-271.21 2696.7,-212 2696.7,-212 2696.7,-212 2696.7,-148.5 2696.7,-49.1 2559.2,-23.63 2468.24,-17.65"/>
<polygon fill="midnightblue" stroke="midnightblue" points="2468.41,-14.15 2458.22,-17.05 2467.99,-21.14 2468.41,-14.15"/>
</g>
<!-- Node6 -->
<g id="node6" class="node">
<title>Node6</title>
<g id="a_node6"><a xlink:href="constants_8h.html" target="_top" xlink:title=" ">
<polygon fill="white" stroke="black" points="412.2,-73 412.2,-92 485.2,-92 485.2,-73 412.2,-73"/>
<text text-anchor="middle" x="448.7" y="-80" font-family="Helvetica,sans-Serif" font-size="10.00">constants.h</text>
</a>
</g>
</g>
<!-- Node5&#45;&gt;Node6 -->
<g id="edge6" class="edge">
<title>Node5&#45;&gt;Node6</title>
<path fill="none" stroke="midnightblue" d="M2000.57,-314.08C1997.57,-313.7 1994.6,-313.34 1991.7,-313 1555.44,-261.96 1443.74,-273.99 1007.7,-221 840.85,-200.72 795.15,-211.74 633.7,-165 573.92,-147.69 508.19,-115.26 473.44,-96.96"/>
<polygon fill="midnightblue" stroke="midnightblue" points="474.96,-93.8 464.49,-92.19 471.68,-99.98 474.96,-93.8"/>
</g>
<!-- Node9 -->
<g id="node9" class="node">
<title>Node9</title>
<g id="a_node9"><a xlink:href="engine_8h.html" target="_top" xlink:title=" ">
<polygon fill="white" stroke="black" points="2026.2,-257.5 2026.2,-276.5 2085.2,-276.5 2085.2,-257.5 2026.2,-257.5"/>
<text text-anchor="middle" x="2055.7" y="-264.5" font-family="Helvetica,sans-Serif" font-size="10.00">engine.h</text>
</a>
</g>
</g>
<!-- Node5&#45;&gt;Node9 -->
<g id="edge10" class="edge">
<title>Node5&#45;&gt;Node9</title>
<path fill="none" stroke="midnightblue" d="M2050.54,-313.08C2049.03,-305.93 2048.6,-295.64 2049.25,-286.69"/>
<polygon fill="midnightblue" stroke="midnightblue" points="2052.72,-287.13 2050.57,-276.75 2045.78,-286.2 2052.72,-287.13"/>
</g>
<!-- Node6&#45;&gt;Node4 -->
<g id="edge8" class="edge">
<title>Node6&#45;&gt;Node4</title>
<path fill="none" stroke="midnightblue" d="M471.33,-72.99C478.68,-70.6 486.94,-68.3 494.7,-67 675.41,-36.72 1975.7,-20.91 2310.99,-17.3"/>
<polygon fill="midnightblue" stroke="midnightblue" points="2311.14,-20.8 2321.1,-17.2 2311.06,-13.8 2311.14,-20.8"/>
</g>
<!-- Node7 -->
<g id="node7" class="node">
<title>Node7</title>
<g id="a_node7"><a xlink:title=" ">
<polygon fill="white" stroke="#bfbfbf" points="153.7,-6 153.7,-25 215.7,-25 215.7,-6 153.7,-6"/>
<text text-anchor="middle" x="184.7" y="-13" font-family="Helvetica,sans-Serif" font-size="10.00">EGL/egl.h</text>
</a>
</g>
</g>
<!-- Node6&#45;&gt;Node7 -->
<g id="edge7" class="edge">
<title>Node6&#45;&gt;Node7</title>
<path fill="none" stroke="midnightblue" d="M422.54,-72.86C416.08,-70.84 409.17,-68.76 402.7,-67 341.64,-50.33 269.99,-34.42 225.97,-25.06"/>
<polygon fill="midnightblue" stroke="midnightblue" points="226.45,-21.58 215.94,-22.94 225,-28.43 226.45,-21.58"/>
</g>
<!-- Node8 -->
<g id="node8" class="node">
<title>Node8</title>
<g id="a_node8"><a xlink:title=" ">
<polygon fill="white" stroke="#bfbfbf" points="427.7,-6 427.7,-25 469.7,-25 469.7,-6 427.7,-6"/>
<text text-anchor="middle" x="448.7" y="-13" font-family="Helvetica,sans-Serif" font-size="10.00">array</text>
</a>
</g>
</g>
<!-- Node6&#45;&gt;Node8 -->
<g id="edge9" class="edge">
<title>Node6&#45;&gt;Node8</title>
<path fill="none" stroke="midnightblue" d="M448.7,-72.73C448.7,-63.18 448.7,-47.62 448.7,-35.28"/>
<polygon fill="midnightblue" stroke="midnightblue" points="452.2,-35.13 448.7,-25.13 445.2,-35.13 452.2,-35.13"/>
</g>
<!-- Node9&#45;&gt;Node3 -->
<g id="edge21" class="edge">
<title>Node9&#45;&gt;Node3</title>
<path fill="none" stroke="midnightblue" d="M2058.75,-257.07C2063.95,-243.13 2075.85,-216.2 2094.7,-201 2120.02,-180.59 2326.33,-117.81 2408.3,-93.37"/>
<polygon fill="midnightblue" stroke="midnightblue" points="2409.53,-96.66 2418.11,-90.46 2407.53,-89.95 2409.53,-96.66"/>
</g>
<!-- Node9&#45;&gt;Node4 -->
<g id="edge15" class="edge">
<title>Node9&#45;&gt;Node4</title>
<path fill="none" stroke="midnightblue" d="M2085.32,-262.93C2127.46,-257.86 2206.62,-245.75 2269.7,-221 2282.07,-216.15 2468.16,-109.56 2474.7,-98 2481.49,-86.01 2481.52,-78.97 2474.7,-67 2466.9,-53.29 2453.75,-42.92 2440.1,-35.25"/>
<polygon fill="midnightblue" stroke="midnightblue" points="2441.59,-32.09 2431.1,-30.6 2438.38,-38.3 2441.59,-32.09"/>
</g>
<!-- Node9&#45;&gt;Node5 -->
<g id="edge22" class="edge">
<title>Node9&#45;&gt;Node5</title>
<path fill="none" stroke="midnightblue" d="M2060.83,-276.75C2062.36,-283.86 2062.81,-294.14 2062.18,-303.1"/>
<polygon fill="midnightblue" stroke="midnightblue" points="2058.7,-302.71 2060.87,-313.08 2065.64,-303.62 2058.7,-302.71"/>
</g>
<!-- Node9&#45;&gt;Node6 -->
<g id="edge23" class="edge">
<title>Node9&#45;&gt;Node6</title>
<path fill="none" stroke="midnightblue" d="M2026.1,-265.42C1915.58,-263.07 1516.74,-252.73 1189.7,-221 1014.1,-203.96 970.29,-196.57 796.7,-165 661.44,-140.4 627.5,-133.59 494.7,-98 491.28,-97.08 487.74,-96.07 484.2,-95.03"/>
<polygon fill="midnightblue" stroke="midnightblue" points="484.96,-91.6 474.38,-92.03 482.92,-98.29 484.96,-91.6"/>
</g>
<!-- Node9&#45;&gt;Node7 -->
<g id="edge12" class="edge">
<title>Node9&#45;&gt;Node7</title>
<path fill="none" stroke="midnightblue" d="M2026.12,-266.08C1784.54,-266.41 141.34,-262.59 8.7,-98 -30.53,-49.32 79.72,-28.38 143.26,-20.55"/>
<polygon fill="midnightblue" stroke="midnightblue" points="143.88,-24 153.41,-19.36 143.07,-17.05 143.88,-24"/>
</g>
<!-- Node10 -->
<g id="node10" class="node">
<title>Node10</title>
<g id="a_node10"><a xlink:title=" ">
<polygon fill="white" stroke="#bfbfbf" points="2103.2,-201.5 2103.2,-220.5 2168.2,-220.5 2168.2,-201.5 2103.2,-201.5"/>
<text text-anchor="middle" x="2135.7" y="-208.5" font-family="Helvetica,sans-Serif" font-size="10.00">functional</text>
</a>
</g>
</g>
<!-- Node9&#45;&gt;Node10 -->
<g id="edge11" class="edge">
<title>Node9&#45;&gt;Node10</title>
<path fill="none" stroke="midnightblue" d="M2068.56,-257.32C2080.92,-248.98 2099.83,-236.21 2114.44,-226.35"/>
<polygon fill="midnightblue" stroke="midnightblue" points="2116.55,-229.15 2122.88,-220.65 2112.63,-223.35 2116.55,-229.15"/>
</g>
<!-- Node11 -->
<g id="node11" class="node">
<title>Node11</title>
<g id="a_node11"><a xlink:title=" ">
<polygon fill="white" stroke="#bfbfbf" points="2186.7,-201.5 2186.7,-220.5 2260.7,-220.5 2260.7,-201.5 2186.7,-201.5"/>
<text text-anchor="middle" x="2223.7" y="-208.5" font-family="Helvetica,sans-Serif" font-size="10.00">GLES2/gl2.h</text>
</a>
</g>
</g>
<!-- Node9&#45;&gt;Node11 -->
<g id="edge13" class="edge">
<title>Node9&#45;&gt;Node11</title>
<path fill="none" stroke="midnightblue" d="M2082.32,-257.44C2110.71,-248.32 2155.84,-233.81 2187.46,-223.65"/>
<polygon fill="midnightblue" stroke="midnightblue" points="2188.76,-226.91 2197.21,-220.52 2186.62,-220.24 2188.76,-226.91"/>
</g>
<!-- Node12 -->
<g id="node12" class="node">
<title>Node12</title>
<g id="a_node12"><a xlink:title=" ">
<polygon fill="white" stroke="#bfbfbf" points="2316.7,-201.5 2316.7,-220.5 2456.7,-220.5 2456.7,-201.5 2316.7,-201.5"/>
<text text-anchor="middle" x="2386.7" y="-208.5" font-family="Helvetica,sans-Serif" font-size="10.00">flutter/encodable_value.h</text>
</a>
</g>
</g>
<!-- Node9&#45;&gt;Node12 -->
<g id="edge14" class="edge">
<title>Node9&#45;&gt;Node12</title>
<path fill="none" stroke="midnightblue" d="M2085.37,-261.16C2138.91,-252.43 2252.75,-233.85 2324.16,-222.2"/>
<polygon fill="midnightblue" stroke="midnightblue" points="2325.07,-225.6 2334.37,-220.54 2323.94,-218.69 2325.07,-225.6"/>
</g>
<!-- Node13 -->
<g id="node13" class="node">
<title>Node13</title>
<g id="a_node13"><a xlink:title=" ">
<polygon fill="white" stroke="#bfbfbf" points="2323.7,-73 2323.7,-92 2361.7,-92 2361.7,-73 2323.7,-73"/>
<text text-anchor="middle" x="2342.7" y="-80" font-family="Helvetica,sans-Serif" font-size="10.00">map</text>
</a>
</g>
</g>
<!-- Node9&#45;&gt;Node13 -->
<g id="edge16" class="edge">
<title>Node9&#45;&gt;Node13</title>
<path fill="none" stroke="midnightblue" d="M2054.97,-257.29C2054.21,-244.54 2053.92,-220.21 2060.7,-201 2072.72,-166.94 2076.3,-153.5 2106.7,-134 2185.68,-83.35 2225.78,-127.92 2314.7,-98 2316.13,-97.52 2317.57,-96.98 2319.01,-96.39"/>
<polygon fill="midnightblue" stroke="midnightblue" points="2320.69,-99.47 2328.25,-92.05 2317.71,-93.13 2320.69,-99.47"/>
</g>
<!-- Node14 -->
<g id="node14" class="node">
<title>Node14</title>
<g id="a_node14"><a xlink:title=" ">
<polygon fill="white" stroke="#bfbfbf" points="503.7,-73 503.7,-92 561.7,-92 561.7,-73 503.7,-73"/>
<text text-anchor="middle" x="532.7" y="-80" font-family="Helvetica,sans-Serif" font-size="10.00">memory</text>
</a>
</g>
</g>
<!-- Node9&#45;&gt;Node14 -->
<g id="edge17" class="edge">
<title>Node9&#45;&gt;Node14</title>
<path fill="none" stroke="midnightblue" d="M2025.91,-265.16C1895.41,-261.07 1361.46,-240.37 930.7,-165 870.49,-154.46 856.57,-146.33 796.7,-134 708.67,-115.87 685.8,-115.79 597.7,-98 589.23,-96.29 580.16,-94.34 571.57,-92.44"/>
<polygon fill="midnightblue" stroke="midnightblue" points="572.29,-89.02 561.77,-90.25 570.77,-95.85 572.29,-89.02"/>
</g>
<!-- Node15 -->
<g id="node15" class="node">
<title>Node15</title>
<g id="a_node15"><a xlink:title=" ">
<polygon fill="white" stroke="#bfbfbf" points="2474.7,-201.5 2474.7,-220.5 2522.7,-220.5 2522.7,-201.5 2474.7,-201.5"/>
<text text-anchor="middle" x="2498.7" y="-208.5" font-family="Helvetica,sans-Serif" font-size="10.00">mutex</text>
</a>
</g>
</g>
<!-- Node9&#45;&gt;Node15 -->
<g id="edge18" class="edge">
<title>Node9&#45;&gt;Node15</title>
<path fill="none" stroke="midnightblue" d="M2085.27,-264.35C2151.53,-260.32 2317,-248.36 2464.52,-220.94"/>
<polygon fill="midnightblue" stroke="midnightblue" points="2465.48,-224.32 2474.65,-219.03 2464.18,-217.44 2465.48,-224.32"/>
</g>
<!-- Node16 -->
<g id="node16" class="node">
<title>Node16</title>
<g id="a_node16"><a xlink:title=" ">
<polygon fill="white" stroke="#bfbfbf" points="2541.2,-201.5 2541.2,-220.5 2588.2,-220.5 2588.2,-201.5 2541.2,-201.5"/>
<text text-anchor="middle" x="2564.7" y="-208.5" font-family="Helvetica,sans-Serif" font-size="10.00">queue</text>
</a>
</g>
</g>
<!-- Node9&#45;&gt;Node16 -->
<g id="edge19" class="edge">
<title>Node9&#45;&gt;Node16</title>
<path fill="none" stroke="midnightblue" d="M2085.47,-264.96C2159.37,-262.02 2357.18,-251.82 2531.18,-220.77"/>
<polygon fill="midnightblue" stroke="midnightblue" points="2531.81,-224.21 2541.02,-218.98 2530.56,-217.32 2531.81,-224.21"/>
</g>
<!-- Node17 -->
<g id="node17" class="node">
<title>Node17</title>
<g id="a_node17"><a xlink:title=" ">
<polygon fill="white" stroke="#bfbfbf" points="2261.7,-73 2261.7,-92 2305.7,-92 2305.7,-73 2261.7,-73"/>
<text text-anchor="middle" x="2283.7" y="-80" font-family="Helvetica,sans-Serif" font-size="10.00">string</text>
</a>
</g>
</g>
<!-- Node9&#45;&gt;Node17 -->
<g id="edge20" class="edge">
<title>Node9&#45;&gt;Node17</title>
<path fill="none" stroke="midnightblue" d="M2036.89,-257.42C1993.38,-236.49 1892.66,-181.07 1934.7,-134 1982.08,-80.96 2184.26,-117.32 2252.7,-98 2254.63,-97.46 2256.59,-96.8 2258.54,-96.08"/>
<polygon fill="midnightblue" stroke="midnightblue" points="2260.17,-99.19 2267.99,-92.05 2257.42,-92.75 2260.17,-99.19"/>
</g>
<!-- Node18 -->
<g id="node18" class="node">
<title>Node18</title>
<g id="a_node18"><a xlink:href="logging_8h.html" target="_top" xlink:title=" ">
<polygon fill="white" stroke="black" points="2606.7,-201.5 2606.7,-220.5 2668.7,-220.5 2668.7,-201.5 2606.7,-201.5"/>
<text text-anchor="middle" x="2637.7" y="-208.5" font-family="Helvetica,sans-Serif" font-size="10.00">logging.h</text>
</a>
</g>
</g>
<!-- Node9&#45;&gt;Node18 -->
<g id="edge24" class="edge">
<title>Node9&#45;&gt;Node18</title>
<path fill="none" stroke="midnightblue" d="M2085.25,-264.99C2165.74,-261.92 2395.76,-251.12 2596.21,-221.03"/>
<polygon fill="midnightblue" stroke="midnightblue" points="2596.98,-224.45 2606.34,-219.49 2595.93,-217.53 2596.98,-224.45"/>
</g>
<!-- Node20 -->
<g id="node20" class="node">
<title>Node20</title>
<g id="a_node20"><a xlink:href="platform__channel_8h.html" target="_top" xlink:title=" ">
<polygon fill="white" stroke="black" points="1943.2,-140 1943.2,-159 2054.2,-159 2054.2,-140 1943.2,-140"/>
<text text-anchor="middle" x="1998.7" y="-147" font-family="Helvetica,sans-Serif" font-size="10.00">platform_channel.h</text>
</a>
</g>
</g>
<!-- Node9&#45;&gt;Node20 -->
<g id="edge26" class="edge">
<title>Node9&#45;&gt;Node20</title>
<path fill="none" stroke="midnightblue" d="M2048.01,-257.23C2040.69,-248.53 2029.78,-234.57 2022.7,-221 2013.94,-204.19 2007.34,-183.51 2003.3,-168.9"/>
<polygon fill="midnightblue" stroke="midnightblue" points="2006.65,-167.87 2000.72,-159.09 1999.88,-169.65 2006.65,-167.87"/>
</g>
<!-- Node21 -->
<g id="node21" class="node">
<title>Node21</title>
<g id="a_node21"><a xlink:href="key__event_8h.html" target="_top" xlink:title=" ">
<polygon fill="white" stroke="black" points="1054.7,-134.5 1054.7,-164.5 1166.7,-164.5 1166.7,-134.5 1054.7,-134.5"/>
<text text-anchor="start" x="1062.7" y="-152.5" font-family="Helvetica,sans-Serif" font-size="10.00">static_plugins/key</text>
<text text-anchor="middle" x="1110.7" y="-141.5" font-family="Helvetica,sans-Serif" font-size="10.00">_event/key_event.h</text>
</a>
</g>
</g>
<!-- Node9&#45;&gt;Node21 -->
<g id="edge30" class="edge">
<title>Node9&#45;&gt;Node21</title>
<path fill="none" stroke="midnightblue" d="M2025.95,-264.31C1945.67,-259.55 1717.92,-244.85 1529.7,-221 1404.31,-205.11 1259.05,-178.91 1176.71,-163.32"/>
<polygon fill="midnightblue" stroke="midnightblue" points="1177.22,-159.85 1166.74,-161.42 1175.91,-166.73 1177.22,-159.85"/>
</g>
<!-- Node28 -->
<g id="node28" class="node">
<title>Node28</title>
<g id="a_node28"><a xlink:href="text__input_8h.html" target="_top" xlink:title=" ">
<polygon fill="white" stroke="black" points="1518.7,-134.5 1518.7,-164.5 1626.7,-164.5 1626.7,-134.5 1518.7,-134.5"/>
<text text-anchor="start" x="1526.7" y="-152.5" font-family="Helvetica,sans-Serif" font-size="10.00">static_plugins/text</text>
<text text-anchor="middle" x="1572.7" y="-141.5" font-family="Helvetica,sans-Serif" font-size="10.00">_input/text_input.h</text>
</a>
</g>
</g>
<!-- Node9&#45;&gt;Node28 -->
<g id="edge42" class="edge">
<title>Node9&#45;&gt;Node28</title>
<path fill="none" stroke="midnightblue" d="M2025.93,-259.15C1988,-250.4 1920.44,-234.75 1862.7,-221 1784.92,-202.48 1695.53,-180.67 1636.79,-166.26"/>
<polygon fill="midnightblue" stroke="midnightblue" points="1637.46,-162.82 1626.92,-163.84 1635.79,-169.62 1637.46,-162.82"/>
</g>
<!-- Node33 -->
<g id="node33" class="node">
<title>Node33</title>
<g id="a_node33"><a xlink:href="flutter__view_8h.html" target="_top" xlink:title=" ">
<polygon fill="white" stroke="black" points="1539.2,-201.5 1539.2,-220.5 1648.2,-220.5 1648.2,-201.5 1539.2,-201.5"/>
<text text-anchor="middle" x="1593.7" y="-208.5" font-family="Helvetica,sans-Serif" font-size="10.00">view/flutter_view.h</text>
</a>
</g>
</g>
<!-- Node9&#45;&gt;Node33 -->
<g id="edge56" class="edge">
<title>Node9&#45;&gt;Node33</title>
<path fill="none" stroke="midnightblue" d="M2026.1,-262.54C1952.55,-253.94 1760.13,-231.45 1658.59,-219.58"/>
<polygon fill="midnightblue" stroke="midnightblue" points="1658.8,-216.08 1648.46,-218.4 1657.99,-223.04 1658.8,-216.08"/>
</g>
<!-- Node19 -->
<g id="node19" class="node">
<title>Node19</title>
<g id="a_node19"><a xlink:title=" ">
<polygon fill="white" stroke="#bfbfbf" points="2517.2,-140 2517.2,-159 2630.2,-159 2630.2,-140 2517.2,-140"/>
<text text-anchor="middle" x="2573.7" y="-147" font-family="Helvetica,sans-Serif" font-size="10.00">flutter/fml/logging.h</text>
</a>
</g>
</g>
<!-- Node18&#45;&gt;Node19 -->
<g id="edge25" class="edge">
<title>Node18&#45;&gt;Node19</title>
<path fill="none" stroke="midnightblue" d="M2628.53,-201.48C2618.55,-192.2 2602.39,-177.17 2590.19,-165.83"/>
<polygon fill="midnightblue" stroke="midnightblue" points="2592.56,-163.25 2582.86,-159.01 2587.8,-168.38 2592.56,-163.25"/>
</g>
<!-- Node20&#45;&gt;Node4 -->
<g id="edge29" class="edge">
<title>Node20&#45;&gt;Node4</title>
<path fill="none" stroke="midnightblue" d="M2054.33,-141C2157.99,-127.01 2370.34,-98.33 2370.7,-98 2386.42,-83.69 2390.38,-59.13 2390.89,-40.69"/>
<polygon fill="midnightblue" stroke="midnightblue" points="2394.39,-40.66 2390.85,-30.67 2387.39,-40.69 2394.39,-40.66"/>
</g>
<!-- Node20&#45;&gt;Node13 -->
<g id="edge27" class="edge">
<title>Node20&#45;&gt;Node13</title>
<path fill="none" stroke="midnightblue" d="M2037.87,-139.96C2047.9,-137.89 2058.68,-135.77 2068.7,-134 2177.52,-114.79 2209.52,-131.87 2314.7,-98 2316.14,-97.54 2317.58,-97.01 2319.03,-96.43"/>
<polygon fill="midnightblue" stroke="midnightblue" points="2320.69,-99.52 2328.28,-92.13 2317.73,-93.17 2320.69,-99.52"/>
</g>
<!-- Node20&#45;&gt;Node17 -->
<g id="edge28" class="edge">
<title>Node20&#45;&gt;Node17</title>
<path fill="none" stroke="midnightblue" d="M2039.4,-139.99C2049.01,-138 2059.21,-135.91 2068.7,-134 2150.39,-117.55 2173.48,-123.85 2252.7,-98 2254.37,-97.46 2256.07,-96.84 2257.77,-96.19"/>
<polygon fill="midnightblue" stroke="midnightblue" points="2259.47,-99.26 2267.27,-92.09 2256.71,-92.83 2259.47,-99.26"/>
</g>
<!-- Node21&#45;&gt;Node4 -->
<g id="edge39" class="edge">
<title>Node21&#45;&gt;Node4</title>
<path fill="none" stroke="midnightblue" d="M1054.43,-140.49C1037.79,-138.24 1019.53,-135.9 1002.7,-134 959.02,-129.07 638.34,-130.47 608.7,-98 599.41,-87.82 599.1,-76.88 608.7,-67 638.79,-36.05 1970.78,-20.68 2311.16,-17.25"/>
<polygon fill="midnightblue" stroke="midnightblue" points="2311.21,-20.75 2321.18,-17.15 2311.14,-13.75 2311.21,-20.75"/>
</g>
<!-- Node21&#45;&gt;Node6 -->
<g id="edge41" class="edge">
<title>Node21&#45;&gt;Node6</title>
<path fill="none" stroke="midnightblue" d="M1054.24,-145.49C923.1,-138.24 601.05,-118.85 494.7,-98 490.54,-97.18 486.23,-96.12 481.99,-94.95"/>
<polygon fill="midnightblue" stroke="midnightblue" points="482.9,-91.57 472.32,-92.05 480.89,-98.27 482.9,-91.57"/>
</g>
<!-- Node21&#45;&gt;Node13 -->
<g id="edge31" class="edge">
<title>Node21&#45;&gt;Node13</title>
<path fill="none" stroke="midnightblue" d="M1166.89,-146.47C1400.83,-137.99 2286.63,-105.46 2314.7,-98 2316.38,-97.56 2318.06,-97 2319.73,-96.37"/>
<polygon fill="midnightblue" stroke="midnightblue" points="2321.32,-99.49 2328.94,-92.13 2318.4,-93.13 2321.32,-99.49"/>
</g>
<!-- Node21&#45;&gt;Node14 -->
<g id="edge32" class="edge">
<title>Node21&#45;&gt;Node14</title>
<path fill="none" stroke="midnightblue" d="M1054.62,-139.18C1042.16,-137.29 1029,-135.45 1016.7,-134 821.4,-111 768.3,-137.71 575.7,-98 572.01,-97.24 568.2,-96.26 564.44,-95.16"/>
<polygon fill="midnightblue" stroke="midnightblue" points="565.33,-91.77 554.74,-92.08 563.21,-98.44 565.33,-91.77"/>
</g>
<!-- Node21&#45;&gt;Node17 -->
<g id="edge33" class="edge">
<title>Node21&#45;&gt;Node17</title>
<path fill="none" stroke="midnightblue" d="M1167.03,-146.31C1393.4,-137.46 2226.07,-104.54 2252.7,-98 2254.69,-97.51 2256.71,-96.89 2258.71,-96.18"/>
<polygon fill="midnightblue" stroke="midnightblue" points="2260.51,-99.22 2268.37,-92.12 2257.8,-92.77 2260.51,-99.22"/>
</g>
<!-- Node22 -->
<g id="node22" class="node">
<title>Node22</title>
<g id="a_node22"><a xlink:title=" ">
<polygon fill="white" stroke="#bfbfbf" points="617.7,-67.5 617.7,-97.5 741.7,-97.5 741.7,-67.5 617.7,-67.5"/>
<text text-anchor="start" x="625.7" y="-85.5" font-family="Helvetica,sans-Serif" font-size="10.00">flutter/basic_message</text>
<text text-anchor="middle" x="679.7" y="-74.5" font-family="Helvetica,sans-Serif" font-size="10.00">_channel.h</text>
</a>
</g>
</g>
<!-- Node21&#45;&gt;Node22 -->
<g id="edge34" class="edge">
<title>Node21&#45;&gt;Node22</title>
<path fill="none" stroke="midnightblue" d="M1054.56,-139.67C1042.1,-137.75 1028.96,-135.77 1016.7,-134 901.86,-117.37 870.05,-117.9 752.15,-98.18"/>
<polygon fill="midnightblue" stroke="midnightblue" points="752.44,-94.68 742,-96.47 751.28,-101.58 752.44,-94.68"/>
</g>
<!-- Node23 -->
<g id="node23" class="node">
<title>Node23</title>
<g id="a_node23"><a xlink:title=" ">
<polygon fill="white" stroke="#bfbfbf" points="1124.2,-73 1124.2,-92 1271.2,-92 1271.2,-73 1124.2,-73"/>
<text text-anchor="middle" x="1197.7" y="-80" font-family="Helvetica,sans-Serif" font-size="10.00">flutter/binary_messenger.h</text>
</a>
</g>
</g>
<!-- Node21&#45;&gt;Node23 -->
<g id="edge35" class="edge">
<title>Node21&#45;&gt;Node23</title>
<path fill="none" stroke="midnightblue" d="M1129.58,-134.4C1143.82,-123.76 1163.3,-109.2 1177.78,-98.38"/>
<polygon fill="midnightblue" stroke="midnightblue" points="1180.15,-100.98 1186.07,-92.19 1175.96,-95.38 1180.15,-100.98"/>
</g>
<!-- Node24 -->
<g id="node24" class="node">
<title>Node24</title>
<g id="a_node24"><a xlink:title=" ">
<polygon fill="white" stroke="#bfbfbf" points="759.7,-67.5 759.7,-97.5 937.7,-97.5 937.7,-67.5 759.7,-67.5"/>
<text text-anchor="start" x="767.7" y="-85.5" font-family="Helvetica,sans-Serif" font-size="10.00">flutter/shell/platform</text>
<text text-anchor="middle" x="848.7" y="-74.5" font-family="Helvetica,sans-Serif" font-size="10.00">/common/json_message_codec.h</text>
</a>
</g>
</g>
<!-- Node21&#45;&gt;Node24 -->
<g id="edge36" class="edge">
<title>Node21&#45;&gt;Node24</title>
<path fill="none" stroke="midnightblue" d="M1054.5,-134.56C1013.63,-124.42 958.15,-110.65 915.09,-99.97"/>
<polygon fill="midnightblue" stroke="midnightblue" points="915.82,-96.54 905.27,-97.53 914.13,-103.34 915.82,-96.54"/>
</g>
<!-- Node25 -->
<g id="node25" class="node">
<title>Node25</title>
<g id="a_node25"><a xlink:title=" ">
<polygon fill="white" stroke="#bfbfbf" points="1289.2,-73 1289.2,-92 1402.2,-92 1402.2,-73 1289.2,-73"/>
<text text-anchor="middle" x="1345.7" y="-80" font-family="Helvetica,sans-Serif" font-size="10.00">flutter/fml/macros.h</text>
</a>
</g>
</g>
<!-- Node21&#45;&gt;Node25 -->
<g id="edge37" class="edge">
<title>Node21&#45;&gt;Node25</title>
<path fill="none" stroke="midnightblue" d="M1161.4,-134.48C1204.44,-122.57 1265.38,-105.72 1305.22,-94.7"/>
<polygon fill="midnightblue" stroke="midnightblue" points="1306.16,-98.07 1314.87,-92.03 1304.3,-91.32 1306.16,-98.07"/>
</g>
<!-- Node26 -->
<g id="node26" class="node">
<title>Node26</title>
<g id="a_node26"><a xlink:title=" ">
<polygon fill="white" stroke="#bfbfbf" points="1753.7,-73 1753.7,-92 1875.7,-92 1875.7,-73 1753.7,-73"/>
<text text-anchor="middle" x="1814.7" y="-80" font-family="Helvetica,sans-Serif" font-size="10.00">rapidjson/document.h</text>
</a>
</g>
</g>
<!-- Node21&#45;&gt;Node26 -->
<g id="edge38" class="edge">
<title>Node21&#45;&gt;Node26</title>
<path fill="none" stroke="midnightblue" d="M1166.94,-146.38C1277.89,-141.67 1532.64,-128.29 1744.7,-98 1752.22,-96.93 1760.14,-95.54 1767.85,-94.05"/>
<polygon fill="midnightblue" stroke="midnightblue" points="1768.69,-97.45 1777.8,-92.04 1767.31,-90.58 1768.69,-97.45"/>
</g>
<!-- Node27 -->
<g id="node27" class="node">
<title>Node27</title>
<g id="a_node27"><a xlink:title=" ">
<polygon fill="white" stroke="#bfbfbf" points="955.7,-73 955.7,-92 1105.7,-92 1105.7,-73 955.7,-73"/>
<text text-anchor="middle" x="1030.7" y="-80" font-family="Helvetica,sans-Serif" font-size="10.00">xkbcommon/xkbcommon.h</text>
</a>
</g>
</g>
<!-- Node21&#45;&gt;Node27 -->
<g id="edge40" class="edge">
<title>Node21&#45;&gt;Node27</title>
<path fill="none" stroke="midnightblue" d="M1093.34,-134.4C1080.38,-123.86 1062.67,-109.48 1049.4,-98.69"/>
<polygon fill="midnightblue" stroke="midnightblue" points="1051.37,-95.78 1041.4,-92.19 1046.96,-101.22 1051.37,-95.78"/>
</g>
<!-- Node28&#45;&gt;Node4 -->
<g id="edge53" class="edge">
<title>Node28&#45;&gt;Node4</title>
<path fill="none" stroke="midnightblue" d="M1519.33,-134.46C1474.57,-120.23 1422.04,-96.19 1449.7,-67 1479.13,-35.95 2089.49,-21.9 2310.61,-17.82"/>
<polygon fill="midnightblue" stroke="midnightblue" points="2310.9,-21.32 2320.84,-17.64 2310.78,-14.32 2310.9,-21.32"/>
</g>
<!-- Node28&#45;&gt;Node6 -->
<g id="edge55" class="edge">
<title>Node28&#45;&gt;Node6</title>
<path fill="none" stroke="midnightblue" d="M1518.48,-146.35C1306.83,-137.9 545.49,-107.04 494.7,-98 490.44,-97.24 486.02,-96.2 481.68,-95.01"/>
<polygon fill="midnightblue" stroke="midnightblue" points="482.4,-91.57 471.81,-92.07 480.39,-98.28 482.4,-91.57"/>
</g>
<!-- Node28&#45;&gt;Node13 -->
<g id="edge43" class="edge">
<title>Node28&#45;&gt;Node13</title>
<path fill="none" stroke="midnightblue" d="M1626.81,-140.63C1644.87,-138.22 1665.13,-135.74 1683.7,-134 1823.54,-120.9 2179.24,-135.11 2314.7,-98 2316.37,-97.54 2318.06,-96.98 2319.73,-96.34"/>
<polygon fill="midnightblue" stroke="midnightblue" points="2321.32,-99.46 2328.93,-92.09 2318.39,-93.1 2321.32,-99.46"/>
</g>
<!-- Node28&#45;&gt;Node14 -->
<g id="edge44" class="edge">
<title>Node28&#45;&gt;Node14</title>
<path fill="none" stroke="midnightblue" d="M1518.68,-146.64C1342.69,-140.43 787.04,-119.58 608.7,-98 596.64,-96.54 583.6,-94.3 571.8,-92.01"/>
<polygon fill="midnightblue" stroke="midnightblue" points="572.28,-88.54 561.79,-90.01 570.91,-95.41 572.28,-88.54"/>
</g>
<!-- Node28&#45;&gt;Node17 -->
<g id="edge45" class="edge">
<title>Node28&#45;&gt;Node17</title>
<path fill="none" stroke="midnightblue" d="M1626.82,-140.7C1644.88,-138.29 1665.13,-135.8 1683.7,-134 1935.92,-109.58 2007.21,-160.78 2252.7,-98 2254.69,-97.49 2256.7,-96.86 2258.7,-96.14"/>
<polygon fill="midnightblue" stroke="midnightblue" points="2260.51,-99.18 2268.36,-92.06 2257.78,-92.73 2260.51,-99.18"/>
</g>
<!-- Node28&#45;&gt;Node23 -->
<g id="edge46" class="edge">
<title>Node28&#45;&gt;Node23</title>
<path fill="none" stroke="midnightblue" d="M1518.69,-139.26C1459.89,-129.19 1363.09,-112.56 1279.7,-98 1271.99,-96.65 1263.88,-95.23 1255.87,-93.82"/>
<polygon fill="midnightblue" stroke="midnightblue" points="1256.28,-90.34 1245.83,-92.05 1255.07,-97.23 1256.28,-90.34"/>
</g>
<!-- Node28&#45;&gt;Node25 -->
<g id="edge49" class="edge">
<title>Node28&#45;&gt;Node25</title>
<path fill="none" stroke="midnightblue" d="M1523.73,-134.48C1482.33,-122.62 1423.78,-105.86 1385.3,-94.84"/>
<polygon fill="midnightblue" stroke="midnightblue" points="1386.06,-91.42 1375.49,-92.03 1384.14,-98.15 1386.06,-91.42"/>
</g>
<!-- Node28&#45;&gt;Node26 -->
<g id="edge52" class="edge">
<title>Node28&#45;&gt;Node26</title>
<path fill="none" stroke="midnightblue" d="M1624.92,-134.48C1669.33,-122.55 1732.26,-105.64 1773.27,-94.63"/>
<polygon fill="midnightblue" stroke="midnightblue" points="1774.2,-98 1782.95,-92.03 1772.38,-91.24 1774.2,-98"/>
</g>
<!-- Node28&#45;&gt;Node27 -->
<g id="edge54" class="edge">
<title>Node28&#45;&gt;Node27</title>
<path fill="none" stroke="midnightblue" d="M1518.63,-143.62C1432.82,-135.63 1260.25,-118.57 1114.7,-98 1105.87,-96.75 1096.53,-95.29 1087.42,-93.78"/>
<polygon fill="midnightblue" stroke="midnightblue" points="1087.72,-90.28 1077.28,-92.06 1086.55,-97.18 1087.72,-90.28"/>
</g>
<!-- Node29 -->
<g id="node29" class="node">
<title>Node29</title>
<g id="a_node29"><a xlink:title=" ">
<polygon fill="white" stroke="#bfbfbf" points="1459.2,-73 1459.2,-92 1598.2,-92 1598.2,-73 1459.2,-73"/>
<text text-anchor="middle" x="1528.7" y="-80" font-family="Helvetica,sans-Serif" font-size="10.00">flutter/method_channel.h</text>
</a>
</g>
</g>
<!-- Node28&#45;&gt;Node29 -->
<g id="edge47" class="edge">
<title>Node28&#45;&gt;Node29</title>
<path fill="none" stroke="midnightblue" d="M1563.16,-134.4C1556.43,-124.46 1547.39,-111.11 1540.26,-100.57"/>
<polygon fill="midnightblue" stroke="midnightblue" points="1543.09,-98.51 1534.59,-92.19 1537.3,-102.44 1543.09,-98.51"/>
</g>
<!-- Node30 -->
<g id="node30" class="node">
<title>Node30</title>
<g id="a_node30"><a xlink:title=" ">
<polygon fill="white" stroke="#bfbfbf" points="1616.2,-67.5 1616.2,-97.5 1735.2,-97.5 1735.2,-67.5 1616.2,-67.5"/>
<text text-anchor="start" x="1624.2" y="-85.5" font-family="Helvetica,sans-Serif" font-size="10.00">flutter/method_result</text>
<text text-anchor="middle" x="1675.7" y="-74.5" font-family="Helvetica,sans-Serif" font-size="10.00">_functions.h</text>
</a>
</g>
</g>
<!-- Node28&#45;&gt;Node30 -->
<g id="edge48" class="edge">
<title>Node28&#45;&gt;Node30</title>
<path fill="none" stroke="midnightblue" d="M1595.05,-134.4C1609.63,-125.2 1628.85,-113.07 1644.87,-102.95"/>
<polygon fill="midnightblue" stroke="midnightblue" points="1646.81,-105.87 1653.4,-97.58 1643.07,-99.95 1646.81,-105.87"/>
</g>
<!-- Node31 -->
<g id="node31" class="node">
<title>Node31</title>
<g id="a_node31"><a xlink:title=" ">
<polygon fill="white" stroke="#bfbfbf" points="1894.2,-67.5 1894.2,-97.5 2065.2,-97.5 2065.2,-67.5 1894.2,-67.5"/>
<text text-anchor="start" x="1902.2" y="-85.5" font-family="Helvetica,sans-Serif" font-size="10.00">flutter/shell/platform</text>
<text text-anchor="middle" x="1979.7" y="-74.5" font-family="Helvetica,sans-Serif" font-size="10.00">/common/json_method_codec.h</text>
</a>
</g>
</g>
<!-- Node28&#45;&gt;Node31 -->
<g id="edge50" class="edge">
<title>Node28&#45;&gt;Node31</title>
<path fill="none" stroke="midnightblue" d="M1626.75,-139.87C1692.28,-129.4 1803.88,-111.58 1884.06,-98.77"/>
<polygon fill="midnightblue" stroke="midnightblue" points="1884.85,-102.19 1894.17,-97.16 1883.75,-95.28 1884.85,-102.19"/>
</g>
<!-- Node32 -->
<g id="node32" class="node">
<title>Node32</title>
<g id="a_node32"><a xlink:title=" ">
<polygon fill="white" stroke="#bfbfbf" points="2083.7,-67.5 2083.7,-97.5 2243.7,-97.5 2243.7,-67.5 2083.7,-67.5"/>
<text text-anchor="start" x="2091.7" y="-85.5" font-family="Helvetica,sans-Serif" font-size="10.00">flutter/shell/platform</text>
<text text-anchor="middle" x="2163.7" y="-74.5" font-family="Helvetica,sans-Serif" font-size="10.00">/common/text_input_model.h</text>
</a>
</g>
</g>
<!-- Node28&#45;&gt;Node32 -->
<g id="edge51" class="edge">
<title>Node28&#45;&gt;Node32</title>
<path fill="none" stroke="midnightblue" d="M1626.85,-141.01C1644.92,-138.62 1665.16,-136.06 1683.7,-134 1853.93,-115.05 1899.89,-119.85 2073.69,-98.07"/>
<polygon fill="midnightblue" stroke="midnightblue" points="2074.21,-101.53 2083.69,-96.81 2073.33,-94.59 2074.21,-101.53"/>
</g>
<!-- Node33&#45;&gt;Node13 -->
<g id="edge57" class="edge">
<title>Node33&#45;&gt;Node13</title>
<path fill="none" stroke="midnightblue" d="M1648.3,-204.15C1702.22,-197.57 1786.68,-185.1 1857.7,-165 1893.2,-154.95 1898.86,-142.72 1934.7,-134 2099.54,-93.91 2151.96,-145.88 2314.7,-98 2316.18,-97.57 2317.67,-97.05 2319.15,-96.48"/>
<polygon fill="midnightblue" stroke="midnightblue" points="2320.99,-99.49 2328.61,-92.13 2318.07,-93.13 2320.99,-99.49"/>
</g>
<!-- Node33&#45;&gt;Node14 -->
<g id="edge58" class="edge">
<title>Node33&#45;&gt;Node14</title>
<path fill="none" stroke="midnightblue" d="M1538.84,-208.78C1439.69,-205.85 1224.38,-196.15 1045.7,-165 993.55,-155.91 982.76,-143.59 930.7,-134 774.74,-105.27 730.7,-131.55 575.7,-98 572.21,-97.24 568.6,-96.3 565.03,-95.26"/>
<polygon fill="midnightblue" stroke="midnightblue" points="565.79,-91.83 555.2,-92.14 563.67,-98.5 565.79,-91.83"/>
</g>
<!-- Node33&#45;&gt;Node25 -->
<g id="edge64" class="edge">
<title>Node33&#45;&gt;Node25</title>
<path fill="none" stroke="midnightblue" d="M1576.66,-201.31C1533.99,-179.54 1422.39,-122.62 1371.57,-96.7"/>
<polygon fill="midnightblue" stroke="midnightblue" points="1373.04,-93.51 1362.54,-92.09 1369.86,-99.75 1373.04,-93.51"/>
</g>
<!-- Node34 -->
<g id="node34" class="node">
<title>Node34</title>
<g id="a_node34"><a xlink:href="configuration_8h.html" target="_top" xlink:title=" ">
<polygon fill="white" stroke="black" points="1692.7,-140 1692.7,-159 1848.7,-159 1848.7,-140 1692.7,-140"/>
<text text-anchor="middle" x="1770.7" y="-147" font-family="Helvetica,sans-Serif" font-size="10.00">configuration/configuration.h</text>
</a>
</g>
</g>
<!-- Node33&#45;&gt;Node34 -->
<g id="edge59" class="edge">
<title>Node33&#45;&gt;Node34</title>
<path fill="none" stroke="midnightblue" d="M1619.06,-201.48C1649.69,-191.18 1701.36,-173.81 1735.75,-162.25"/>
<polygon fill="midnightblue" stroke="midnightblue" points="1737.03,-165.51 1745.39,-159.01 1734.8,-158.88 1737.03,-165.51"/>
</g>
<!-- Node35 -->
<g id="node35" class="node">
<title>Node35</title>
<g id="a_node35"><a xlink:href="window_8h.html" target="_top" xlink:title=" ">
<polygon fill="white" stroke="black" points="326.2,-140 326.2,-159 433.2,-159 433.2,-140 326.2,-140"/>
<text text-anchor="middle" x="379.7" y="-147" font-family="Helvetica,sans-Serif" font-size="10.00">wayland/window.h</text>
</a>
</g>
</g>
<!-- Node33&#45;&gt;Node35 -->
<g id="edge65" class="edge">
<title>Node33&#45;&gt;Node35</title>
<path fill="none" stroke="midnightblue" d="M1539.18,-207.33C1340.58,-197.59 656.38,-164.06 443.46,-153.62"/>
<polygon fill="midnightblue" stroke="midnightblue" points="443.54,-150.12 433.38,-153.13 443.2,-157.12 443.54,-150.12"/>
</g>
<!-- Node34&#45;&gt;Node3 -->
<g id="edge61" class="edge">
<title>Node34&#45;&gt;Node3</title>
<path fill="none" stroke="midnightblue" d="M1849.11,-141.47C1876.22,-139.07 1906.79,-136.39 1934.7,-134 2128.43,-117.44 2178.22,-125.5 2370.7,-98 2383.03,-96.24 2396.44,-93.67 2408.26,-91.18"/>
<polygon fill="midnightblue" stroke="midnightblue" points="2409.13,-94.58 2418.16,-89.04 2407.64,-87.74 2409.13,-94.58"/>
</g>
<!-- Node34&#45;&gt;Node17 -->
<g id="edge60" class="edge">
<title>Node34&#45;&gt;Node17</title>
<path fill="none" stroke="midnightblue" d="M1821.24,-139.94C1834.69,-137.82 1849.23,-135.68 1862.7,-134 2035.43,-112.44 2084.7,-143.55 2252.7,-98 2254.64,-97.48 2256.6,-96.84 2258.55,-96.12"/>
<polygon fill="midnightblue" stroke="midnightblue" points="2260.17,-99.24 2268.01,-92.12 2257.44,-92.79 2260.17,-99.24"/>
</g>
<!-- Node34&#45;&gt;Node25 -->
<g id="edge62" class="edge">
<title>Node34&#45;&gt;Node25</title>
<path fill="none" stroke="midnightblue" d="M1714.7,-139.94C1636.48,-127.97 1494.78,-106.3 1411.58,-93.58"/>
<polygon fill="midnightblue" stroke="midnightblue" points="1411.9,-90.08 1401.49,-92.03 1410.84,-97 1411.9,-90.08"/>
</g>
<!-- Node34&#45;&gt;Node26 -->
<g id="edge63" class="edge">
<title>Node34&#45;&gt;Node26</title>
<path fill="none" stroke="midnightblue" d="M1776.64,-139.73C1783.43,-129.7 1794.72,-113.01 1803.25,-100.42"/>
<polygon fill="midnightblue" stroke="midnightblue" points="1806.16,-102.37 1808.86,-92.13 1800.36,-98.45 1806.16,-102.37"/>
</g>
<!-- Node35&#45;&gt;Node5 -->
<g id="edge71" class="edge">
<title>Node35&#45;&gt;Node5</title>
<path fill="none" stroke="midnightblue" d="M386.86,-159.18C407.5,-183.45 470.1,-251.84 539.7,-277 688.73,-330.88 1790.02,-300.87 1990.45,-313.12"/>
<polygon fill="midnightblue" stroke="midnightblue" points="1990.37,-316.62 2000.59,-313.84 1990.86,-309.64 1990.37,-316.62"/>
</g>
<!-- Node35&#45;&gt;Node6 -->
<g id="edge70" class="edge">
<title>Node35&#45;&gt;Node6</title>
<path fill="none" stroke="midnightblue" d="M389.01,-139.73C399.97,-129.4 418.41,-112.04 431.9,-99.33"/>
<polygon fill="midnightblue" stroke="midnightblue" points="434.67,-101.53 439.54,-92.13 429.87,-96.44 434.67,-101.53"/>
</g>
<!-- Node35&#45;&gt;Node14 -->
<g id="edge66" class="edge">
<title>Node35&#45;&gt;Node14</title>
<path fill="none" stroke="midnightblue" d="M400.02,-139.87C426.43,-128.65 472.73,-108.98 503.06,-96.09"/>
<polygon fill="midnightblue" stroke="midnightblue" points="504.47,-99.3 512.3,-92.17 501.73,-92.86 504.47,-99.3"/>
</g>
<!-- Node35&#45;&gt;Node17 -->
<g id="edge67" class="edge">
<title>Node35&#45;&gt;Node17</title>
<path fill="none" stroke="midnightblue" d="M433.31,-147.36C734.8,-140.88 2207.25,-108.75 2252.7,-98 2254.91,-97.48 2257.15,-96.79 2259.36,-95.99"/>
<polygon fill="midnightblue" stroke="midnightblue" points="2260.87,-99.16 2268.7,-92.03 2258.13,-92.72 2260.87,-99.16"/>
</g>
<!-- Node36 -->
<g id="node36" class="node">
<title>Node36</title>
<g id="a_node36"><a xlink:title=" ">
<polygon fill="white" stroke="#bfbfbf" points="341.7,-73 341.7,-92 393.7,-92 393.7,-73 341.7,-73"/>
<text text-anchor="middle" x="367.7" y="-80" font-family="Helvetica,sans-Serif" font-size="10.00">cassert</text>
</a>
</g>
</g>
<!-- Node35&#45;&gt;Node36 -->
<g id="edge68" class="edge">
<title>Node35&#45;&gt;Node36</title>
<path fill="none" stroke="midnightblue" d="M378.08,-139.73C376.32,-130.18 373.45,-114.62 371.17,-102.28"/>
<polygon fill="midnightblue" stroke="midnightblue" points="374.55,-101.33 369.3,-92.13 367.67,-102.6 374.55,-101.33"/>
</g>
<!-- Node37 -->
<g id="node37" class="node">
<title>Node37</title>
<g id="a_node37"><a xlink:title=" ">
<polygon fill="white" stroke="#bfbfbf" points="181.7,-73 181.7,-92 323.7,-92 323.7,-73 181.7,-73"/>
<text text-anchor="middle" x="252.7" y="-80" font-family="Helvetica,sans-Serif" font-size="10.00">agl&#45;shell&#45;client&#45;protocol.h</text>
</a>
</g>
</g>
<!-- Node35&#45;&gt;Node37 -->
<g id="edge69" class="edge">
<title>Node35&#45;&gt;Node37</title>
<path fill="none" stroke="midnightblue" d="M362.84,-139.87C341.3,-128.84 303.81,-109.66 278.63,-96.77"/>
<polygon fill="midnightblue" stroke="midnightblue" points="280.13,-93.61 269.64,-92.17 276.94,-99.84 280.13,-93.61"/>
</g>
<!-- Node38 -->
<g id="node38" class="node">
<title>Node38</title>
<g id="a_node38"><a xlink:title=" ">
<polygon fill="white" stroke="#bfbfbf" points="18.2,-73 18.2,-92 163.2,-92 163.2,-73 18.2,-73"/>
<text text-anchor="middle" x="90.7" y="-80" font-family="Helvetica,sans-Serif" font-size="10.00">xdg&#45;shell&#45;client&#45;protocol.h</text>
</a>
</g>
</g>
<!-- Node35&#45;&gt;Node38 -->
<g id="edge72" class="edge">
<title>Node35&#45;&gt;Node38</title>
<path fill="none" stroke="midnightblue" d="M341.62,-139.94C289.43,-128.2 195.66,-107.11 138.71,-94.3"/>
<polygon fill="midnightblue" stroke="midnightblue" points="139.39,-90.86 128.87,-92.08 137.85,-97.69 139.39,-90.86"/>
</g>
</g>
</svg>
