<?xml version="1.0" encoding="UTF-8" standalone="no"?>
<!DOCTYPE svg PUBLIC "-//W3C//DTD SVG 1.1//EN"
 "http://www.w3.org/Graphics/SVG/1.1/DTD/svg11.dtd">
<!-- Generated by graphviz version 2.43.0 (0)
 -->
<!-- Title: /home/joel.winarske@toyotaconnected.com/development/stargate/ivi&#45;homescreen/shell/backend/wayland_egl.h Pages: 1 -->
<svg width="2722pt" height="441pt"
 viewBox="0.00 0.00 2721.50 441.00" xmlns="http://www.w3.org/2000/svg" xmlns:xlink="http://www.w3.org/1999/xlink">
<g id="graph0" class="graph" transform="scale(1 1) rotate(0) translate(4 437)">
<title>/home/joel.winarske@toyotaconnected.com/development/stargate/ivi&#45;homescreen/shell/backend/wayland_egl.h</title>
<polygon fill="white" stroke="transparent" points="-4,4 -4,-437 2717.5,-437 2717.5,4 -4,4"/>
<!-- Node1 -->
<g id="node1" class="node">
<title>Node1</title>
<g id="a_node1"><a xlink:title=" ">
<polygon fill="#bfbfbf" stroke="black" points="2347.5,-369.5 2347.5,-432.5 2481.5,-432.5 2481.5,-369.5 2347.5,-369.5"/>
<text text-anchor="start" x="2355.5" y="-420.5" font-family="Helvetica,sans-Serif" font-size="10.00">/home/joel.winarske</text>
<text text-anchor="start" x="2355.5" y="-409.5" font-family="Helvetica,sans-Serif" font-size="10.00">@toyotaconnected.com</text>
<text text-anchor="start" x="2355.5" y="-398.5" font-family="Helvetica,sans-Serif" font-size="10.00">/development/stargate</text>
<text text-anchor="start" x="2355.5" y="-387.5" font-family="Helvetica,sans-Serif" font-size="10.00">/ivi&#45;homescreen/shell</text>
<text text-anchor="middle" x="2414.5" y="-376.5" font-family="Helvetica,sans-Serif" font-size="10.00">/backend/wayland_egl.h</text>
</a>
</g>
</g>
<!-- Node2 -->
<g id="node2" class="node">
<title>Node2</title>
<g id="a_node2"><a xlink:title=" ">
<polygon fill="white" stroke="#bfbfbf" points="1825.5,-73 1825.5,-92 1883.5,-92 1883.5,-73 1825.5,-73"/>
<text text-anchor="middle" x="1854.5" y="-80" font-family="Helvetica,sans-Serif" font-size="10.00">memory</text>
</a>
</g>
</g>
<!-- Node1&#45;&gt;Node2 -->
<g id="edge1" class="edge">
<title>Node1&#45;&gt;Node2</title>
<path fill="none" stroke="midnightblue" d="M2347.22,-395.32C2247.71,-387.31 2067.26,-368.32 2013.5,-333 1984.76,-314.11 1971.5,-302.39 1971.5,-268 1971.5,-268 1971.5,-268 1971.5,-210 1971.5,-157.09 1915.66,-116.91 1881.13,-97.12"/>
<polygon fill="midnightblue" stroke="midnightblue" points="1882.47,-93.86 1872.02,-92.09 1879.08,-99.99 1882.47,-93.86"/>
</g>
<!-- Node3 -->
<g id="node3" class="node">
<title>Node3</title>
<g id="a_node3"><a xlink:title=" ">
<polygon fill="white" stroke="#bfbfbf" points="2464,-73 2464,-92 2511,-92 2511,-73 2464,-73"/>
<text text-anchor="middle" x="2487.5" y="-80" font-family="Helvetica,sans-Serif" font-size="10.00">vector</text>
</a>
</g>
</g>
<!-- Node1&#45;&gt;Node3 -->
<g id="edge2" class="edge">
<title>Node1&#45;&gt;Node3</title>
<path fill="none" stroke="midnightblue" d="M2444.32,-369.47C2465.62,-344.37 2490.5,-306.74 2490.5,-268 2490.5,-268 2490.5,-268 2490.5,-210 2490.5,-171.69 2489.11,-126.88 2488.23,-102.19"/>
<polygon fill="midnightblue" stroke="midnightblue" points="2491.72,-101.95 2487.85,-92.09 2484.72,-102.21 2491.72,-101.95"/>
</g>
<!-- Node4 -->
<g id="node4" class="node">
<title>Node4</title>
<g id="a_node4"><a xlink:href="backend_8h.html" target="_top" xlink:title=" ">
<polygon fill="white" stroke="black" points="2022.5,-313.5 2022.5,-332.5 2132.5,-332.5 2132.5,-313.5 2022.5,-313.5"/>
<text text-anchor="middle" x="2077.5" y="-320.5" font-family="Helvetica,sans-Serif" font-size="10.00">backend/backend.h</text>
</a>
</g>
</g>
<!-- Node1&#45;&gt;Node4 -->
<g id="edge3" class="edge">
<title>Node1&#45;&gt;Node4</title>
<path fill="none" stroke="midnightblue" d="M2347.12,-384.8C2281.52,-370.01 2183.49,-347.9 2125.47,-334.82"/>
<polygon fill="midnightblue" stroke="midnightblue" points="2125.99,-331.35 2115.46,-332.56 2124.45,-338.17 2125.99,-331.35"/>
</g>
<!-- Node6 -->
<g id="node6" class="node">
<title>Node6</title>
<g id="a_node6"><a xlink:href="constants_8h.html" target="_top" xlink:title=" ">
<polygon fill="white" stroke="black" points="2334,-73 2334,-92 2407,-92 2407,-73 2334,-73"/>
<text text-anchor="middle" x="2370.5" y="-80" font-family="Helvetica,sans-Serif" font-size="10.00">constants.h</text>
</a>
</g>
</g>
<!-- Node1&#45;&gt;Node6 -->
<g id="edge72" class="edge">
<title>Node1&#45;&gt;Node6</title>
<path fill="none" stroke="midnightblue" d="M2414.5,-369.33C2414.5,-342.57 2414.5,-302.72 2414.5,-268 2414.5,-268 2414.5,-268 2414.5,-210 2414.5,-169.1 2393.74,-124.69 2380.74,-100.9"/>
<polygon fill="midnightblue" stroke="midnightblue" points="2383.69,-99.02 2375.72,-92.04 2377.6,-102.46 2383.69,-99.02"/>
</g>
<!-- Node38 -->
<g id="node38" class="node">
<title>Node38</title>
<g id="a_node38"><a xlink:href="egl_8h.html" target="_top" xlink:title=" ">
<polygon fill="white" stroke="black" points="2519,-140 2519,-159 2560,-159 2560,-140 2519,-140"/>
<text text-anchor="middle" x="2539.5" y="-147" font-family="Helvetica,sans-Serif" font-size="10.00">egl.h</text>
</a>
</g>
</g>
<!-- Node1&#45;&gt;Node38 -->
<g id="edge73" class="edge">
<title>Node1&#45;&gt;Node38</title>
<path fill="none" stroke="midnightblue" d="M2469.08,-369.38C2482.53,-359.41 2495.6,-347.19 2504.5,-333 2537.31,-280.7 2540.63,-204.61 2540.21,-169.52"/>
<polygon fill="midnightblue" stroke="midnightblue" points="2543.7,-169.2 2539.96,-159.29 2536.71,-169.37 2543.7,-169.2"/>
</g>
<!-- Node5 -->
<g id="node5" class="node">
<title>Node5</title>
<g id="a_node5"><a xlink:title=" ">
<polygon fill="white" stroke="#bfbfbf" points="545,-0.5 545,-30.5 682,-30.5 682,-0.5 545,-0.5"/>
<text text-anchor="start" x="553" y="-18.5" font-family="Helvetica,sans-Serif" font-size="10.00">shell/platform/embedder</text>
<text text-anchor="middle" x="613.5" y="-7.5" font-family="Helvetica,sans-Serif" font-size="10.00">/embedder.h</text>
</a>
</g>
</g>
<!-- Node4&#45;&gt;Node5 -->
<g id="edge4" class="edge">
<title>Node4&#45;&gt;Node5</title>
<path fill="none" stroke="midnightblue" d="M2094.37,-313.43C2157.8,-280.18 2374,-157.17 2286.5,-67 2258.43,-38.06 1020.63,-21.33 692.59,-17.4"/>
<polygon fill="midnightblue" stroke="midnightblue" points="692.27,-13.9 682.23,-17.28 692.19,-20.9 692.27,-13.9"/>
</g>
<!-- Node4&#45;&gt;Node6 -->
<g id="edge5" class="edge">
<title>Node4&#45;&gt;Node6</title>
<path fill="none" stroke="midnightblue" d="M2132.78,-320.68C2204.37,-317.73 2323.46,-308.13 2352.5,-277 2397.75,-228.5 2384.12,-140.38 2375.36,-102.09"/>
<polygon fill="midnightblue" stroke="midnightblue" points="2378.74,-101.18 2372.96,-92.29 2371.94,-102.84 2378.74,-101.18"/>
</g>
<!-- Node9 -->
<g id="node9" class="node">
<title>Node9</title>
<g id="a_node9"><a xlink:href="engine_8h.html" target="_top" xlink:title=" ">
<polygon fill="white" stroke="black" points="1190,-257.5 1190,-276.5 1249,-276.5 1249,-257.5 1190,-257.5"/>
<text text-anchor="middle" x="1219.5" y="-264.5" font-family="Helvetica,sans-Serif" font-size="10.00">engine.h</text>
</a>
</g>
</g>
<!-- Node4&#45;&gt;Node9 -->
<g id="edge9" class="edge">
<title>Node4&#45;&gt;Node9</title>
<path fill="none" stroke="midnightblue" d="M2022.33,-318.74C1861.93,-308.93 1398.7,-279.77 1259.47,-270.71"/>
<polygon fill="midnightblue" stroke="midnightblue" points="1259.47,-267.21 1249.26,-270.05 1259.02,-274.19 1259.47,-267.21"/>
</g>
<!-- Node6&#45;&gt;Node5 -->
<g id="edge7" class="edge">
<title>Node6&#45;&gt;Node5</title>
<path fill="none" stroke="midnightblue" d="M2345.1,-72.94C2337.01,-70.58 2327.96,-68.31 2319.5,-67 1999.71,-17.59 983.81,-15.73 692.37,-16.25"/>
<polygon fill="midnightblue" stroke="midnightblue" points="692.3,-12.75 682.31,-16.27 692.31,-19.75 692.3,-12.75"/>
</g>
<!-- Node7 -->
<g id="node7" class="node">
<title>Node7</title>
<g id="a_node7"><a xlink:title=" ">
<polygon fill="white" stroke="#bfbfbf" points="2406.5,-6 2406.5,-25 2468.5,-25 2468.5,-6 2406.5,-6"/>
<text text-anchor="middle" x="2437.5" y="-13" font-family="Helvetica,sans-Serif" font-size="10.00">EGL/egl.h</text>
</a>
</g>
</g>
<!-- Node6&#45;&gt;Node7 -->
<g id="edge6" class="edge">
<title>Node6&#45;&gt;Node7</title>
<path fill="none" stroke="midnightblue" d="M2379.54,-72.73C2390.19,-62.4 2408.09,-45.04 2421.19,-32.33"/>
<polygon fill="midnightblue" stroke="midnightblue" points="2423.87,-34.6 2428.61,-25.13 2419,-29.58 2423.87,-34.6"/>
</g>
<!-- Node8 -->
<g id="node8" class="node">
<title>Node8</title>
<g id="a_node8"><a xlink:title=" ">
<polygon fill="white" stroke="#bfbfbf" points="2346.5,-6 2346.5,-25 2388.5,-25 2388.5,-6 2346.5,-6"/>
<text text-anchor="middle" x="2367.5" y="-13" font-family="Helvetica,sans-Serif" font-size="10.00">array</text>
</a>
</g>
</g>
<!-- Node6&#45;&gt;Node8 -->
<g id="edge8" class="edge">
<title>Node6&#45;&gt;Node8</title>
<path fill="none" stroke="midnightblue" d="M2370.1,-72.73C2369.66,-63.18 2368.94,-47.62 2368.37,-35.28"/>
<polygon fill="midnightblue" stroke="midnightblue" points="2371.86,-34.96 2367.9,-25.13 2364.87,-35.28 2371.86,-34.96"/>
</g>
<!-- Node9&#45;&gt;Node2 -->
<g id="edge16" class="edge">
<title>Node9&#45;&gt;Node2</title>
<path fill="none" stroke="midnightblue" d="M1236.16,-257.3C1262.84,-243.66 1317.07,-217.14 1365.5,-201 1560.56,-135.99 1619.75,-157.68 1816.5,-98 1819.08,-97.22 1821.72,-96.35 1824.37,-95.44"/>
<polygon fill="midnightblue" stroke="midnightblue" points="1825.58,-98.72 1833.78,-92.01 1823.19,-92.14 1825.58,-98.72"/>
</g>
<!-- Node9&#45;&gt;Node3 -->
<g id="edge20" class="edge">
<title>Node9&#45;&gt;Node3</title>
<path fill="none" stroke="midnightblue" d="M1249.22,-265.67C1410.42,-263.76 2176.42,-253.06 2276.5,-221 2357.5,-195.05 2437.23,-129.15 2470.85,-98.99"/>
<polygon fill="midnightblue" stroke="midnightblue" points="2473.34,-101.46 2478.38,-92.14 2468.63,-96.29 2473.34,-101.46"/>
</g>
<!-- Node9&#45;&gt;Node4 -->
<g id="edge21" class="edge">
<title>Node9&#45;&gt;Node4</title>
<path fill="none" stroke="midnightblue" d="M1249.29,-269.71C1372.02,-277.12 1839.31,-306.5 2012.5,-317.66"/>
<polygon fill="midnightblue" stroke="midnightblue" points="2012.29,-321.16 2022.49,-318.31 2012.74,-314.17 2012.29,-321.16"/>
</g>
<!-- Node9&#45;&gt;Node5 -->
<g id="edge14" class="edge">
<title>Node9&#45;&gt;Node5</title>
<path fill="none" stroke="midnightblue" d="M1189.61,-265.19C1060.29,-261.58 548.46,-245.94 389.5,-221 292.8,-205.83 269.53,-195.44 176.5,-165 99.32,-139.74 52.21,-165.13 6.5,-98 -1.25,-86.61 -2.83,-77.14 6.5,-67 41.58,-28.88 378.58,-19.53 534.76,-17.24"/>
<polygon fill="midnightblue" stroke="midnightblue" points="534.83,-20.74 544.78,-17.1 534.73,-13.74 534.83,-20.74"/>
</g>
<!-- Node9&#45;&gt;Node6 -->
<g id="edge22" class="edge">
<title>Node9&#45;&gt;Node6</title>
<path fill="none" stroke="midnightblue" d="M1249.27,-264.79C1363.06,-259.72 1780.94,-236.98 2116.5,-165 2198.73,-147.36 2292.1,-113.74 2339.44,-95.69"/>
<polygon fill="midnightblue" stroke="midnightblue" points="2340.74,-98.93 2348.82,-92.08 2338.23,-92.4 2340.74,-98.93"/>
</g>
<!-- Node9&#45;&gt;Node7 -->
<g id="edge11" class="edge">
<title>Node9&#45;&gt;Node7</title>
<path fill="none" stroke="midnightblue" d="M1249.18,-265.52C1368.35,-263.06 1823.16,-248.39 2185.5,-165 2289.68,-141.02 2342.06,-174.72 2416.5,-98 2432.77,-81.24 2436.91,-53.64 2437.73,-35.27"/>
<polygon fill="midnightblue" stroke="midnightblue" points="2441.23,-35.25 2437.88,-25.2 2434.23,-35.15 2441.23,-35.25"/>
</g>
<!-- Node10 -->
<g id="node10" class="node">
<title>Node10</title>
<g id="a_node10"><a xlink:title=" ">
<polygon fill="white" stroke="#bfbfbf" points="1374,-201.5 1374,-220.5 1439,-220.5 1439,-201.5 1374,-201.5"/>
<text text-anchor="middle" x="1406.5" y="-208.5" font-family="Helvetica,sans-Serif" font-size="10.00">functional</text>
</a>
</g>
</g>
<!-- Node9&#45;&gt;Node10 -->
<g id="edge10" class="edge">
<title>Node9&#45;&gt;Node10</title>
<path fill="none" stroke="midnightblue" d="M1249.14,-257.44C1281,-248.24 1331.84,-233.56 1367.07,-223.39"/>
<polygon fill="midnightblue" stroke="midnightblue" points="1368.38,-226.65 1377.01,-220.52 1366.43,-219.93 1368.38,-226.65"/>
</g>
<!-- Node11 -->
<g id="node11" class="node">
<title>Node11</title>
<g id="a_node11"><a xlink:title=" ">
<polygon fill="white" stroke="#bfbfbf" points="1457.5,-201.5 1457.5,-220.5 1531.5,-220.5 1531.5,-201.5 1457.5,-201.5"/>
<text text-anchor="middle" x="1494.5" y="-208.5" font-family="Helvetica,sans-Serif" font-size="10.00">GLES2/gl2.h</text>
</a>
</g>
</g>
<!-- Node9&#45;&gt;Node11 -->
<g id="edge12" class="edge">
<title>Node9&#45;&gt;Node11</title>
<path fill="none" stroke="midnightblue" d="M1249.2,-260.17C1296.76,-250.83 1390.43,-232.44 1447.26,-221.28"/>
<polygon fill="midnightblue" stroke="midnightblue" points="1447.94,-224.71 1457.08,-219.35 1446.59,-217.84 1447.94,-224.71"/>
</g>
<!-- Node12 -->
<g id="node12" class="node">
<title>Node12</title>
<g id="a_node12"><a xlink:title=" ">
<polygon fill="white" stroke="#bfbfbf" points="795.5,-201.5 795.5,-220.5 935.5,-220.5 935.5,-201.5 795.5,-201.5"/>
<text text-anchor="middle" x="865.5" y="-208.5" font-family="Helvetica,sans-Serif" font-size="10.00">flutter/encodable_value.h</text>
</a>
</g>
</g>
<!-- Node9&#45;&gt;Node12 -->
<g id="edge13" class="edge">
<title>Node9&#45;&gt;Node12</title>
<path fill="none" stroke="midnightblue" d="M1189.93,-261.49C1133.4,-252.86 1008.74,-233.85 931.46,-222.06"/>
<polygon fill="midnightblue" stroke="midnightblue" points="931.76,-218.57 921.35,-220.52 930.71,-225.49 931.76,-218.57"/>
</g>
<!-- Node13 -->
<g id="node13" class="node">
<title>Node13</title>
<g id="a_node13"><a xlink:title=" ">
<polygon fill="white" stroke="#bfbfbf" points="25.5,-73 25.5,-92 63.5,-92 63.5,-73 25.5,-73"/>
<text text-anchor="middle" x="44.5" y="-80" font-family="Helvetica,sans-Serif" font-size="10.00">map</text>
</a>
</g>
</g>
<!-- Node9&#45;&gt;Node13 -->
<g id="edge15" class="edge">
<title>Node9&#45;&gt;Node13</title>
<path fill="none" stroke="midnightblue" d="M1189.73,-266.04C1090.73,-265.78 763.81,-261.67 497.5,-221 394.36,-205.25 369.37,-195.26 269.5,-165 197.72,-143.25 115.29,-111.65 72.93,-94.9"/>
<polygon fill="midnightblue" stroke="midnightblue" points="74.12,-91.61 63.53,-91.18 71.54,-98.12 74.12,-91.61"/>
</g>
<!-- Node14 -->
<g id="node14" class="node">
<title>Node14</title>
<g id="a_node14"><a xlink:title=" ">
<polygon fill="white" stroke="#bfbfbf" points="1033.5,-201.5 1033.5,-220.5 1081.5,-220.5 1081.5,-201.5 1033.5,-201.5"/>
<text text-anchor="middle" x="1057.5" y="-208.5" font-family="Helvetica,sans-Serif" font-size="10.00">mutex</text>
</a>
</g>
</g>
<!-- Node9&#45;&gt;Node14 -->
<g id="edge17" class="edge">
<title>Node9&#45;&gt;Node14</title>
<path fill="none" stroke="midnightblue" d="M1193.84,-257.44C1166.18,-248.23 1122.05,-233.51 1091.52,-223.34"/>
<polygon fill="midnightblue" stroke="midnightblue" points="1092.32,-219.92 1081.73,-220.08 1090.11,-226.56 1092.32,-219.92"/>
</g>
<!-- Node15 -->
<g id="node15" class="node">
<title>Node15</title>
<g id="a_node15"><a xlink:title=" ">
<polygon fill="white" stroke="#bfbfbf" points="1100,-201.5 1100,-220.5 1147,-220.5 1147,-201.5 1100,-201.5"/>
<text text-anchor="middle" x="1123.5" y="-208.5" font-family="Helvetica,sans-Serif" font-size="10.00">queue</text>
</a>
</g>
</g>
<!-- Node9&#45;&gt;Node15 -->
<g id="edge18" class="edge">
<title>Node9&#45;&gt;Node15</title>
<path fill="none" stroke="midnightblue" d="M1204.08,-257.32C1188.97,-248.82 1165.69,-235.73 1148.03,-225.8"/>
<polygon fill="midnightblue" stroke="midnightblue" points="1149.32,-222.51 1138.89,-220.65 1145.89,-228.61 1149.32,-222.51"/>
</g>
<!-- Node16 -->
<g id="node16" class="node">
<title>Node16</title>
<g id="a_node16"><a xlink:title=" ">
<polygon fill="white" stroke="#bfbfbf" points="457.5,-73 457.5,-92 501.5,-92 501.5,-73 457.5,-73"/>
<text text-anchor="middle" x="479.5" y="-80" font-family="Helvetica,sans-Serif" font-size="10.00">string</text>
</a>
</g>
</g>
<!-- Node9&#45;&gt;Node16 -->
<g id="edge19" class="edge">
<title>Node9&#45;&gt;Node16</title>
<path fill="none" stroke="midnightblue" d="M1189.77,-266.63C1116.04,-267.45 919.52,-264.96 763.5,-221 659.67,-191.74 547.52,-126.13 501.3,-97.41"/>
<polygon fill="midnightblue" stroke="midnightblue" points="503.04,-94.37 492.71,-92.02 499.32,-100.3 503.04,-94.37"/>
</g>
<!-- Node17 -->
<g id="node17" class="node">
<title>Node17</title>
<g id="a_node17"><a xlink:href="logging_8h.html" target="_top" xlink:title=" ">
<polygon fill="white" stroke="black" points="953.5,-201.5 953.5,-220.5 1015.5,-220.5 1015.5,-201.5 953.5,-201.5"/>
<text text-anchor="middle" x="984.5" y="-208.5" font-family="Helvetica,sans-Serif" font-size="10.00">logging.h</text>
</a>
</g>
</g>
<!-- Node9&#45;&gt;Node17 -->
<g id="edge23" class="edge">
<title>Node9&#45;&gt;Node17</title>
<path fill="none" stroke="midnightblue" d="M1189.74,-259.16C1148.09,-249.59 1072.26,-232.17 1025.35,-221.39"/>
<polygon fill="midnightblue" stroke="midnightblue" points="1026.05,-217.95 1015.52,-219.13 1024.48,-224.78 1026.05,-217.95"/>
</g>
<!-- Node19 -->
<g id="node19" class="node">
<title>Node19</title>
<g id="a_node19"><a xlink:href="platform__channel_8h.html" target="_top" xlink:title=" ">
<polygon fill="white" stroke="black" points="279,-140 279,-159 390,-159 390,-140 279,-140"/>
<text text-anchor="middle" x="334.5" y="-147" font-family="Helvetica,sans-Serif" font-size="10.00">platform_channel.h</text>
</a>
</g>
</g>
<!-- Node9&#45;&gt;Node19 -->
<g id="edge25" class="edge">
<title>Node9&#45;&gt;Node19</title>
<path fill="none" stroke="midnightblue" d="M1189.81,-266.04C1098.65,-265.7 815.04,-261.24 584.5,-221 505.5,-207.21 415.61,-178.55 368.09,-162.34"/>
<polygon fill="midnightblue" stroke="midnightblue" points="369.2,-159.03 358.61,-159.08 366.93,-165.65 369.2,-159.03"/>
</g>
<!-- Node20 -->
<g id="node20" class="node">
<title>Node20</title>
<g id="a_node20"><a xlink:href="key__event_8h.html" target="_top" xlink:title=" ">
<polygon fill="white" stroke="black" points="689.5,-134.5 689.5,-164.5 801.5,-164.5 801.5,-134.5 689.5,-134.5"/>
<text text-anchor="start" x="697.5" y="-152.5" font-family="Helvetica,sans-Serif" font-size="10.00">static_plugins/key</text>
<text text-anchor="middle" x="745.5" y="-141.5" font-family="Helvetica,sans-Serif" font-size="10.00">_event/key_event.h</text>
</a>
</g>
</g>
<!-- Node9&#45;&gt;Node20 -->
<g id="edge29" class="edge">
<title>Node9&#45;&gt;Node20</title>
<path fill="none" stroke="midnightblue" d="M1189.97,-266.33C1103.61,-266.78 853.39,-264.23 786.5,-221 769.92,-210.28 759.24,-190.32 752.95,-174.37"/>
<polygon fill="midnightblue" stroke="midnightblue" points="756.11,-172.82 749.43,-164.6 749.53,-175.19 756.11,-172.82"/>
</g>
<!-- Node27 -->
<g id="node27" class="node">
<title>Node27</title>
<g id="a_node27"><a xlink:href="text__input_8h.html" target="_top" xlink:title=" ">
<polygon fill="white" stroke="black" points="1171.5,-134.5 1171.5,-164.5 1279.5,-164.5 1279.5,-134.5 1171.5,-134.5"/>
<text text-anchor="start" x="1179.5" y="-152.5" font-family="Helvetica,sans-Serif" font-size="10.00">static_plugins/text</text>
<text text-anchor="middle" x="1225.5" y="-141.5" font-family="Helvetica,sans-Serif" font-size="10.00">_input/text_input.h</text>
</a>
</g>
</g>
<!-- Node9&#45;&gt;Node27 -->
<g id="edge41" class="edge">
<title>Node9&#45;&gt;Node27</title>
<path fill="none" stroke="midnightblue" d="M1240.99,-257.36C1255.9,-250.09 1274.62,-238.12 1283.5,-221 1293.32,-202.09 1276.84,-183.61 1258.97,-170.31"/>
<polygon fill="midnightblue" stroke="midnightblue" points="1260.96,-167.43 1250.75,-164.58 1256.96,-173.17 1260.96,-167.43"/>
</g>
<!-- Node32 -->
<g id="node32" class="node">
<title>Node32</title>
<g id="a_node32"><a xlink:href="flutter__view_8h.html" target="_top" xlink:title=" ">
<polygon fill="white" stroke="black" points="1165,-201.5 1165,-220.5 1274,-220.5 1274,-201.5 1165,-201.5"/>
<text text-anchor="middle" x="1219.5" y="-208.5" font-family="Helvetica,sans-Serif" font-size="10.00">view/flutter_view.h</text>
</a>
</g>
</g>
<!-- Node9&#45;&gt;Node32 -->
<g id="edge55" class="edge">
<title>Node9&#45;&gt;Node32</title>
<path fill="none" stroke="midnightblue" d="M1219.5,-257.08C1219.5,-250.01 1219.5,-239.86 1219.5,-230.99"/>
<polygon fill="midnightblue" stroke="midnightblue" points="1223,-230.75 1219.5,-220.75 1216,-230.75 1223,-230.75"/>
</g>
<!-- Node18 -->
<g id="node18" class="node">
<title>Node18</title>
<g id="a_node18"><a xlink:title=" ">
<polygon fill="white" stroke="#bfbfbf" points="828,-140 828,-159 941,-159 941,-140 828,-140"/>
<text text-anchor="middle" x="884.5" y="-147" font-family="Helvetica,sans-Serif" font-size="10.00">flutter/fml/logging.h</text>
</a>
</g>
</g>
<!-- Node17&#45;&gt;Node18 -->
<g id="edge24" class="edge">
<title>Node17&#45;&gt;Node18</title>
<path fill="none" stroke="midnightblue" d="M970.18,-201.48C953.84,-191.75 926.9,-175.73 907.59,-164.24"/>
<polygon fill="midnightblue" stroke="midnightblue" points="909.19,-161.11 898.81,-159.01 905.61,-167.13 909.19,-161.11"/>
</g>
<!-- Node19&#45;&gt;Node5 -->
<g id="edge28" class="edge">
<title>Node19&#45;&gt;Node5</title>
<path fill="none" stroke="midnightblue" d="M278.77,-147.99C196.73,-145.92 49.58,-136.74 16.5,-98 7.56,-87.52 7.18,-77.14 16.5,-67 50.86,-29.61 380.13,-19.88 534.44,-17.37"/>
<polygon fill="midnightblue" stroke="midnightblue" points="534.85,-20.86 544.79,-17.2 534.74,-13.86 534.85,-20.86"/>
</g>
<!-- Node19&#45;&gt;Node13 -->
<g id="edge26" class="edge">
<title>Node19&#45;&gt;Node13</title>
<path fill="none" stroke="midnightblue" d="M278.98,-141.2C226.33,-133.43 145.4,-119.3 77.5,-98 75.58,-97.4 73.61,-96.71 71.65,-95.98"/>
<polygon fill="midnightblue" stroke="midnightblue" points="72.62,-92.6 62.04,-92.06 69.98,-99.08 72.62,-92.6"/>
</g>
<!-- Node19&#45;&gt;Node16 -->
<g id="edge27" class="edge">
<title>Node19&#45;&gt;Node16</title>
<path fill="none" stroke="midnightblue" d="M354.33,-139.86C377.12,-129.91 415.6,-112.98 448.5,-98 449.66,-97.47 450.84,-96.93 452.03,-96.39"/>
<polygon fill="midnightblue" stroke="midnightblue" points="453.57,-99.53 461.17,-92.15 450.63,-93.18 453.57,-99.53"/>
</g>
<!-- Node20&#45;&gt;Node2 -->
<g id="edge31" class="edge">
<title>Node20&#45;&gt;Node2</title>
<path fill="none" stroke="midnightblue" d="M801.52,-136.56C807.57,-135.56 813.65,-134.67 819.5,-134 1039.75,-108.61 1599.24,-142.11 1816.5,-98 1819.59,-97.37 1822.75,-96.53 1825.87,-95.55"/>
<polygon fill="midnightblue" stroke="midnightblue" points="1827.28,-98.77 1835.54,-92.14 1824.94,-92.17 1827.28,-98.77"/>
</g>
<!-- Node20&#45;&gt;Node5 -->
<g id="edge38" class="edge">
<title>Node20&#45;&gt;Node5</title>
<path fill="none" stroke="midnightblue" d="M689.23,-146.08C537.51,-139.28 130.03,-119.14 110.5,-98 101.16,-87.88 101.26,-77.22 110.5,-67 138.37,-36.2 400.11,-23.33 534.57,-18.72"/>
<polygon fill="midnightblue" stroke="midnightblue" points="534.94,-22.21 544.82,-18.38 534.7,-15.22 534.94,-22.21"/>
</g>
<!-- Node20&#45;&gt;Node6 -->
<g id="edge40" class="edge">
<title>Node20&#45;&gt;Node6</title>
<path fill="none" stroke="midnightblue" d="M801.51,-136.49C807.56,-135.5 813.65,-134.64 819.5,-134 1467.83,-63.04 1637.42,-161.64 2286.5,-98 2298.7,-96.8 2311.8,-94.86 2323.93,-92.79"/>
<polygon fill="midnightblue" stroke="midnightblue" points="2324.63,-96.22 2333.86,-91.02 2323.41,-89.33 2324.63,-96.22"/>
</g>
<!-- Node20&#45;&gt;Node13 -->
<g id="edge30" class="edge">
<title>Node20&#45;&gt;Node13</title>
<path fill="none" stroke="midnightblue" d="M689.24,-145.34C539.04,-136.75 136.07,-112.63 77.5,-98 75.15,-97.41 72.75,-96.67 70.37,-95.83"/>
<polygon fill="midnightblue" stroke="midnightblue" points="71.49,-92.51 60.9,-92.01 68.87,-99 71.49,-92.51"/>
</g>
<!-- Node20&#45;&gt;Node16 -->
<g id="edge32" class="edge">
<title>Node20&#45;&gt;Node16</title>
<path fill="none" stroke="midnightblue" d="M689.47,-140.12C641.26,-132.05 570.23,-118.1 510.5,-98 508.84,-97.44 507.15,-96.82 505.45,-96.15"/>
<polygon fill="midnightblue" stroke="midnightblue" points="506.52,-92.8 495.95,-92.03 503.74,-99.22 506.52,-92.8"/>
</g>
<!-- Node21 -->
<g id="node21" class="node">
<title>Node21</title>
<g id="a_node21"><a xlink:title=" ">
<polygon fill="white" stroke="#bfbfbf" points="315.5,-67.5 315.5,-97.5 439.5,-97.5 439.5,-67.5 315.5,-67.5"/>
<text text-anchor="start" x="323.5" y="-85.5" font-family="Helvetica,sans-Serif" font-size="10.00">flutter/basic_message</text>
<text text-anchor="middle" x="377.5" y="-74.5" font-family="Helvetica,sans-Serif" font-size="10.00">_channel.h</text>
</a>
</g>
</g>
<!-- Node20&#45;&gt;Node21 -->
<g id="edge33" class="edge">
<title>Node20&#45;&gt;Node21</title>
<path fill="none" stroke="midnightblue" d="M689.3,-139.51C631.66,-130.16 539.16,-114.81 449.85,-98.22"/>
<polygon fill="midnightblue" stroke="midnightblue" points="450.29,-94.74 439.82,-96.35 449.01,-101.62 450.29,-94.74"/>
</g>
<!-- Node22 -->
<g id="node22" class="node">
<title>Node22</title>
<g id="a_node22"><a xlink:title=" ">
<polygon fill="white" stroke="#bfbfbf" points="688,-73 688,-92 835,-92 835,-73 688,-73"/>
<text text-anchor="middle" x="761.5" y="-80" font-family="Helvetica,sans-Serif" font-size="10.00">flutter/binary_messenger.h</text>
</a>
</g>
</g>
<!-- Node20&#45;&gt;Node22 -->
<g id="edge34" class="edge">
<title>Node20&#45;&gt;Node22</title>
<path fill="none" stroke="midnightblue" d="M748.98,-134.4C751.3,-124.96 754.38,-112.45 756.9,-102.19"/>
<polygon fill="midnightblue" stroke="midnightblue" points="760.37,-102.74 759.36,-92.19 753.58,-101.07 760.37,-102.74"/>
</g>
<!-- Node23 -->
<g id="node23" class="node">
<title>Node23</title>
<g id="a_node23"><a xlink:title=" ">
<polygon fill="white" stroke="#bfbfbf" points="119.5,-67.5 119.5,-97.5 297.5,-97.5 297.5,-67.5 119.5,-67.5"/>
<text text-anchor="start" x="127.5" y="-85.5" font-family="Helvetica,sans-Serif" font-size="10.00">flutter/shell/platform</text>
<text text-anchor="middle" x="208.5" y="-74.5" font-family="Helvetica,sans-Serif" font-size="10.00">/common/json_message_codec.h</text>
</a>
</g>
</g>
<!-- Node20&#45;&gt;Node23 -->
<g id="edge35" class="edge">
<title>Node20&#45;&gt;Node23</title>
<path fill="none" stroke="midnightblue" d="M689.3,-142.62C607.69,-133.96 451.35,-116.87 307.98,-98.17"/>
<polygon fill="midnightblue" stroke="midnightblue" points="308.06,-94.65 297.69,-96.82 307.15,-101.59 308.06,-94.65"/>
</g>
<!-- Node24 -->
<g id="node24" class="node">
<title>Node24</title>
<g id="a_node24"><a xlink:title=" ">
<polygon fill="white" stroke="#bfbfbf" points="994,-73 994,-92 1107,-92 1107,-73 994,-73"/>
<text text-anchor="middle" x="1050.5" y="-80" font-family="Helvetica,sans-Serif" font-size="10.00">flutter/fml/macros.h</text>
</a>
</g>
</g>
<!-- Node20&#45;&gt;Node24 -->
<g id="edge36" class="edge">
<title>Node20&#45;&gt;Node24</title>
<path fill="none" stroke="midnightblue" d="M801.55,-136.79C850,-126.64 921.9,-111.49 984.5,-98 990.16,-96.78 996.09,-95.49 1001.97,-94.21"/>
<polygon fill="midnightblue" stroke="midnightblue" points="1002.76,-97.62 1011.78,-92.06 1001.26,-90.78 1002.76,-97.62"/>
</g>
<!-- Node25 -->
<g id="node25" class="node">
<title>Node25</title>
<g id="a_node25"><a xlink:title=" ">
<polygon fill="white" stroke="#bfbfbf" points="853.5,-73 853.5,-92 975.5,-92 975.5,-73 853.5,-73"/>
<text text-anchor="middle" x="914.5" y="-80" font-family="Helvetica,sans-Serif" font-size="10.00">rapidjson/document.h</text>
</a>
</g>
</g>
<!-- Node20&#45;&gt;Node25 -->
<g id="edge37" class="edge">
<title>Node20&#45;&gt;Node25</title>
<path fill="none" stroke="midnightblue" d="M782.18,-134.4C812.22,-122.84 854.3,-106.66 882.88,-95.66"/>
<polygon fill="midnightblue" stroke="midnightblue" points="884.31,-98.86 892.39,-92.01 881.8,-92.33 884.31,-98.86"/>
</g>
<!-- Node26 -->
<g id="node26" class="node">
<title>Node26</title>
<g id="a_node26"><a xlink:title=" ">
<polygon fill="white" stroke="#bfbfbf" points="519.5,-73 519.5,-92 669.5,-92 669.5,-73 519.5,-73"/>
<text text-anchor="middle" x="594.5" y="-80" font-family="Helvetica,sans-Serif" font-size="10.00">xkbcommon/xkbcommon.h</text>
</a>
</g>
</g>
<!-- Node20&#45;&gt;Node26 -->
<g id="edge39" class="edge">
<title>Node20&#45;&gt;Node26</title>
<path fill="none" stroke="midnightblue" d="M712.74,-134.4C686.25,-122.99 649.28,-107.08 623.77,-96.1"/>
<polygon fill="midnightblue" stroke="midnightblue" points="624.84,-92.75 614.27,-92.01 622.07,-99.18 624.84,-92.75"/>
</g>
<!-- Node27&#45;&gt;Node2 -->
<g id="edge43" class="edge">
<title>Node27&#45;&gt;Node2</title>
<path fill="none" stroke="midnightblue" d="M1279.57,-136.25C1284.27,-135.41 1288.96,-134.64 1293.5,-134 1524.24,-101.62 1588.96,-148.08 1816.5,-98 1819.58,-97.32 1822.73,-96.44 1825.85,-95.45"/>
<polygon fill="midnightblue" stroke="midnightblue" points="1827.27,-98.66 1835.51,-92.01 1824.92,-92.07 1827.27,-98.66"/>
</g>
<!-- Node27&#45;&gt;Node5 -->
<g id="edge52" class="edge">
<title>Node27&#45;&gt;Node5</title>
<path fill="none" stroke="midnightblue" d="M1205.41,-134.38C1191.32,-124.38 1172.11,-110.58 1155.5,-98 1137.85,-84.63 1137.02,-75.33 1116.5,-67 1041.57,-36.56 813.79,-23.77 692.1,-19"/>
<polygon fill="midnightblue" stroke="midnightblue" points="692.23,-15.5 682.1,-18.62 691.96,-22.5 692.23,-15.5"/>
</g>
<!-- Node27&#45;&gt;Node6 -->
<g id="edge54" class="edge">
<title>Node27&#45;&gt;Node6</title>
<path fill="none" stroke="midnightblue" d="M1279.51,-148.28C1435.87,-147.13 1902.24,-140.15 2286.5,-98 2298.69,-96.66 2311.78,-94.67 2323.91,-92.6"/>
<polygon fill="midnightblue" stroke="midnightblue" points="2324.61,-96.03 2333.84,-90.84 2323.39,-89.13 2324.61,-96.03"/>
</g>
<!-- Node27&#45;&gt;Node13 -->
<g id="edge42" class="edge">
<title>Node27&#45;&gt;Node13</title>
<path fill="none" stroke="midnightblue" d="M1171.38,-139.64C1156.25,-137.46 1139.77,-135.36 1124.5,-134 675.34,-93.9 557.89,-154.61 110.5,-98 98.3,-96.46 85.01,-93.74 73.58,-91.08"/>
<polygon fill="midnightblue" stroke="midnightblue" points="74.24,-87.63 63.69,-88.68 72.59,-94.44 74.24,-87.63"/>
</g>
<!-- Node27&#45;&gt;Node16 -->
<g id="edge44" class="edge">
<title>Node27&#45;&gt;Node16</title>
<path fill="none" stroke="midnightblue" d="M1171.36,-139.87C1156.22,-137.69 1139.75,-135.54 1124.5,-134 852.53,-106.55 775.5,-165.11 510.5,-98 508.52,-97.5 506.5,-96.87 504.5,-96.15"/>
<polygon fill="midnightblue" stroke="midnightblue" points="505.42,-92.74 494.85,-92.08 502.7,-99.19 505.42,-92.74"/>
</g>
<!-- Node27&#45;&gt;Node22 -->
<g id="edge45" class="edge">
<title>Node27&#45;&gt;Node22</title>
<path fill="none" stroke="midnightblue" d="M1171.27,-140.56C1156.14,-138.39 1139.69,-136.07 1124.5,-134 1000.18,-117.08 968.56,-116.8 844.5,-98 836.08,-96.72 827.2,-95.28 818.5,-93.81"/>
<polygon fill="midnightblue" stroke="midnightblue" points="818.86,-90.32 808.41,-92.07 817.68,-97.22 818.86,-90.32"/>
</g>
<!-- Node27&#45;&gt;Node24 -->
<g id="edge48" class="edge">
<title>Node27&#45;&gt;Node24</title>
<path fill="none" stroke="midnightblue" d="M1187.53,-134.4C1156.28,-122.79 1112.47,-106.51 1082.86,-95.52"/>
<polygon fill="midnightblue" stroke="midnightblue" points="1084,-92.21 1073.41,-92.01 1081.56,-98.77 1084,-92.21"/>
</g>
<!-- Node27&#45;&gt;Node25 -->
<g id="edge51" class="edge">
<title>Node27&#45;&gt;Node25</title>
<path fill="none" stroke="midnightblue" d="M1171.33,-137.18C1113.22,-125.03 1021.65,-105.89 965,-94.05"/>
<polygon fill="midnightblue" stroke="midnightblue" points="965.69,-90.62 955.18,-92 964.25,-97.47 965.69,-90.62"/>
</g>
<!-- Node27&#45;&gt;Node26 -->
<g id="edge53" class="edge">
<title>Node27&#45;&gt;Node26</title>
<path fill="none" stroke="midnightblue" d="M1171.33,-140.09C1156.2,-137.92 1139.73,-135.71 1124.5,-134 927.32,-111.89 876.38,-122.71 679.5,-98 670.02,-96.81 659.99,-95.31 650.26,-93.73"/>
<polygon fill="midnightblue" stroke="midnightblue" points="650.71,-90.26 640.27,-92.07 649.56,-97.17 650.71,-90.26"/>
</g>
<!-- Node28 -->
<g id="node28" class="node">
<title>Node28</title>
<g id="a_node28"><a xlink:title=" ">
<polygon fill="white" stroke="#bfbfbf" points="1164,-73 1164,-92 1303,-92 1303,-73 1164,-73"/>
<text text-anchor="middle" x="1233.5" y="-80" font-family="Helvetica,sans-Serif" font-size="10.00">flutter/method_channel.h</text>
</a>
</g>
</g>
<!-- Node27&#45;&gt;Node28 -->
<g id="edge46" class="edge">
<title>Node27&#45;&gt;Node28</title>
<path fill="none" stroke="midnightblue" d="M1227.24,-134.4C1228.4,-124.96 1229.94,-112.45 1231.2,-102.19"/>
<polygon fill="midnightblue" stroke="midnightblue" points="1234.69,-102.55 1232.43,-92.19 1227.74,-101.69 1234.69,-102.55"/>
</g>
<!-- Node29 -->
<g id="node29" class="node">
<title>Node29</title>
<g id="a_node29"><a xlink:title=" ">
<polygon fill="white" stroke="#bfbfbf" points="1321,-67.5 1321,-97.5 1440,-97.5 1440,-67.5 1321,-67.5"/>
<text text-anchor="start" x="1329" y="-85.5" font-family="Helvetica,sans-Serif" font-size="10.00">flutter/method_result</text>
<text text-anchor="middle" x="1380.5" y="-74.5" font-family="Helvetica,sans-Serif" font-size="10.00">_functions.h</text>
</a>
</g>
</g>
<!-- Node27&#45;&gt;Node29 -->
<g id="edge47" class="edge">
<title>Node27&#45;&gt;Node29</title>
<path fill="none" stroke="midnightblue" d="M1259.14,-134.4C1282.09,-124.77 1312.7,-111.94 1337.43,-101.56"/>
<polygon fill="midnightblue" stroke="midnightblue" points="1339.07,-104.67 1346.94,-97.58 1336.36,-98.22 1339.07,-104.67"/>
</g>
<!-- Node30 -->
<g id="node30" class="node">
<title>Node30</title>
<g id="a_node30"><a xlink:title=" ">
<polygon fill="white" stroke="#bfbfbf" points="1458,-67.5 1458,-97.5 1629,-97.5 1629,-67.5 1458,-67.5"/>
<text text-anchor="start" x="1466" y="-85.5" font-family="Helvetica,sans-Serif" font-size="10.00">flutter/shell/platform</text>
<text text-anchor="middle" x="1543.5" y="-74.5" font-family="Helvetica,sans-Serif" font-size="10.00">/common/json_method_codec.h</text>
</a>
</g>
</g>
<!-- Node27&#45;&gt;Node30 -->
<g id="edge49" class="edge">
<title>Node27&#45;&gt;Node30</title>
<path fill="none" stroke="midnightblue" d="M1279.68,-136.89C1284.36,-135.91 1289.01,-134.93 1293.5,-134 1350.19,-122.23 1414.18,-109.31 1463.23,-99.49"/>
<polygon fill="midnightblue" stroke="midnightblue" points="1464.03,-102.9 1473.15,-97.5 1462.66,-96.03 1464.03,-102.9"/>
</g>
<!-- Node31 -->
<g id="node31" class="node">
<title>Node31</title>
<g id="a_node31"><a xlink:title=" ">
<polygon fill="white" stroke="#bfbfbf" points="1647.5,-67.5 1647.5,-97.5 1807.5,-97.5 1807.5,-67.5 1647.5,-67.5"/>
<text text-anchor="start" x="1655.5" y="-85.5" font-family="Helvetica,sans-Serif" font-size="10.00">flutter/shell/platform</text>
<text text-anchor="middle" x="1727.5" y="-74.5" font-family="Helvetica,sans-Serif" font-size="10.00">/common/text_input_model.h</text>
</a>
</g>
</g>
<!-- Node27&#45;&gt;Node31 -->
<g id="edge50" class="edge">
<title>Node27&#45;&gt;Node31</title>
<path fill="none" stroke="midnightblue" d="M1279.6,-136.42C1284.29,-135.54 1288.97,-134.72 1293.5,-134 1442.5,-110.41 1483.93,-118.05 1637.22,-98.11"/>
<polygon fill="midnightblue" stroke="midnightblue" points="1638.03,-101.54 1647.48,-96.76 1637.11,-94.6 1638.03,-101.54"/>
</g>
<!-- Node32&#45;&gt;Node2 -->
<g id="edge57" class="edge">
<title>Node32&#45;&gt;Node2</title>
<path fill="none" stroke="midnightblue" d="M1233.11,-201.39C1247.12,-192.47 1269.52,-178.03 1288.5,-165 1307.93,-151.67 1309.37,-142.06 1331.5,-134 1534.6,-60.01 1605.53,-145.02 1816.5,-98 1819.51,-97.33 1822.59,-96.47 1825.64,-95.5"/>
<polygon fill="midnightblue" stroke="midnightblue" points="1826.86,-98.78 1835.12,-92.14 1824.52,-92.18 1826.86,-98.78"/>
</g>
<!-- Node32&#45;&gt;Node13 -->
<g id="edge56" class="edge">
<title>Node32&#45;&gt;Node13</title>
<path fill="none" stroke="midnightblue" d="M1164.9,-201.97C1162.06,-201.63 1159.25,-201.3 1156.5,-201 945.6,-177.99 891.7,-185.18 680.5,-165 648.22,-161.92 132.39,-103.94 100.5,-98 91.56,-96.33 81.94,-94.03 73.24,-91.75"/>
<polygon fill="midnightblue" stroke="midnightblue" points="74.1,-88.36 63.54,-89.13 72.27,-95.12 74.1,-88.36"/>
</g>
<!-- Node32&#45;&gt;Node24 -->
<g id="edge63" class="edge">
<title>Node32&#45;&gt;Node24</title>
<path fill="none" stroke="midnightblue" d="M1208.54,-201.42C1197.03,-192.41 1178.43,-177.78 1162.5,-165 1145.51,-151.36 1141.97,-147.04 1124.5,-134 1107.37,-121.2 1087.3,-107.59 1072.39,-97.72"/>
<polygon fill="midnightblue" stroke="midnightblue" points="1074.12,-94.67 1063.84,-92.11 1070.28,-100.52 1074.12,-94.67"/>
</g>
<!-- Node33 -->
<g id="node33" class="node">
<title>Node33</title>
<g id="a_node33"><a xlink:href="configuration_8h.html" target="_top" xlink:title=" ">
<polygon fill="white" stroke="black" points="959.5,-140 959.5,-159 1115.5,-159 1115.5,-140 959.5,-140"/>
<text text-anchor="middle" x="1037.5" y="-147" font-family="Helvetica,sans-Serif" font-size="10.00">configuration/configuration.h</text>
</a>
</g>
</g>
<!-- Node32&#45;&gt;Node33 -->
<g id="edge58" class="edge">
<title>Node32&#45;&gt;Node33</title>
<path fill="none" stroke="midnightblue" d="M1193.43,-201.48C1161.94,-191.18 1108.81,-173.81 1073.45,-162.25"/>
<polygon fill="midnightblue" stroke="midnightblue" points="1074.12,-158.79 1063.53,-159.01 1071.95,-165.44 1074.12,-158.79"/>
</g>
<!-- Node34 -->
<g id="node34" class="node">
<title>Node34</title>
<g id="a_node34"><a xlink:href="window_8h.html" target="_top" xlink:title=" ">
<polygon fill="white" stroke="black" points="2000,-140 2000,-159 2107,-159 2107,-140 2000,-140"/>
<text text-anchor="middle" x="2053.5" y="-147" font-family="Helvetica,sans-Serif" font-size="10.00">wayland/window.h</text>
</a>
</g>
</g>
<!-- Node32&#45;&gt;Node34 -->
<g id="edge64" class="edge">
<title>Node32&#45;&gt;Node34</title>
<path fill="none" stroke="midnightblue" d="M1274.23,-206.1C1422.54,-195.51 1831.67,-166.33 1989.88,-155.04"/>
<polygon fill="midnightblue" stroke="midnightblue" points="1990.21,-158.52 1999.94,-154.32 1989.71,-151.54 1990.21,-158.52"/>
</g>
<!-- Node33&#45;&gt;Node3 -->
<g id="edge60" class="edge">
<title>Node33&#45;&gt;Node3</title>
<path fill="none" stroke="midnightblue" d="M1101.64,-139.98C1121.15,-137.68 1142.68,-135.43 1162.5,-134 1718.62,-93.84 1862.63,-162.02 2416.5,-98 2428.88,-96.57 2442.3,-94.08 2454.11,-91.56"/>
<polygon fill="midnightblue" stroke="midnightblue" points="2455,-94.95 2464,-89.36 2453.48,-88.11 2455,-94.95"/>
</g>
<!-- Node33&#45;&gt;Node16 -->
<g id="edge59" class="edge">
<title>Node33&#45;&gt;Node16</title>
<path fill="none" stroke="midnightblue" d="M990.65,-139.95C977.68,-137.79 963.57,-135.62 950.5,-134 755.79,-109.85 700.14,-148.36 510.5,-98 508.52,-97.47 506.51,-96.83 504.52,-96.1"/>
<polygon fill="midnightblue" stroke="midnightblue" points="505.44,-92.69 494.87,-92 502.7,-99.13 505.44,-92.69"/>
</g>
<!-- Node33&#45;&gt;Node24 -->
<g id="edge61" class="edge">
<title>Node33&#45;&gt;Node24</title>
<path fill="none" stroke="midnightblue" d="M1039.26,-139.73C1041.17,-130.18 1044.28,-114.62 1046.75,-102.28"/>
<polygon fill="midnightblue" stroke="midnightblue" points="1050.25,-102.62 1048.78,-92.13 1043.39,-101.25 1050.25,-102.62"/>
</g>
<!-- Node33&#45;&gt;Node25 -->
<g id="edge62" class="edge">
<title>Node33&#45;&gt;Node25</title>
<path fill="none" stroke="midnightblue" d="M1021.17,-139.87C1000.4,-128.89 964.32,-109.82 939.93,-96.94"/>
<polygon fill="midnightblue" stroke="midnightblue" points="941.38,-93.75 930.91,-92.17 938.11,-99.93 941.38,-93.75"/>
</g>
<!-- Node34&#45;&gt;Node2 -->
<g id="edge65" class="edge">
<title>Node34&#45;&gt;Node2</title>
<path fill="none" stroke="midnightblue" d="M2024.54,-139.99C1992.17,-130.35 1938.3,-113.9 1892.5,-98 1890.25,-97.22 1887.94,-96.39 1885.61,-95.54"/>
<polygon fill="midnightblue" stroke="midnightblue" points="1886.72,-92.22 1876.12,-92.01 1884.27,-98.78 1886.72,-92.22"/>
</g>
<!-- Node34&#45;&gt;Node4 -->
<g id="edge70" class="edge">
<title>Node34&#45;&gt;Node4</title>
<path fill="none" stroke="midnightblue" d="M2054.7,-159.02C2058.39,-185.44 2069.73,-266.43 2074.89,-303.33"/>
<polygon fill="midnightblue" stroke="midnightblue" points="2071.43,-303.84 2076.28,-313.26 2078.36,-302.87 2071.43,-303.84"/>
</g>
<!-- Node34&#45;&gt;Node6 -->
<g id="edge69" class="edge">
<title>Node34&#45;&gt;Node6</title>
<path fill="none" stroke="midnightblue" d="M2095.27,-139.94C2154.36,-127.82 2262,-105.75 2323.71,-93.1"/>
<polygon fill="midnightblue" stroke="midnightblue" points="2324.48,-96.51 2333.57,-91.07 2323.07,-89.65 2324.48,-96.51"/>
</g>
<!-- Node34&#45;&gt;Node16 -->
<g id="edge66" class="edge">
<title>Node34&#45;&gt;Node16</title>
<path fill="none" stroke="midnightblue" d="M1999.7,-147.35C1735.39,-141.61 584.3,-115.68 510.5,-98 508.3,-97.47 506.06,-96.78 503.85,-95.98"/>
<polygon fill="midnightblue" stroke="midnightblue" points="505.08,-92.7 494.51,-92.01 502.34,-99.14 505.08,-92.7"/>
</g>
<!-- Node35 -->
<g id="node35" class="node">
<title>Node35</title>
<g id="a_node35"><a xlink:title=" ">
<polygon fill="white" stroke="#bfbfbf" points="2225.5,-73 2225.5,-92 2277.5,-92 2277.5,-73 2225.5,-73"/>
<text text-anchor="middle" x="2251.5" y="-80" font-family="Helvetica,sans-Serif" font-size="10.00">cassert</text>
</a>
</g>
</g>
<!-- Node34&#45;&gt;Node35 -->
<g id="edge67" class="edge">
<title>Node34&#45;&gt;Node35</title>
<path fill="none" stroke="midnightblue" d="M2084.13,-139.93C2117.09,-130.49 2170.95,-114.45 2216.5,-98 2218.36,-97.33 2220.26,-96.62 2222.17,-95.88"/>
<polygon fill="midnightblue" stroke="midnightblue" points="2223.65,-99.06 2231.64,-92.1 2221.05,-92.56 2223.65,-99.06"/>
</g>
<!-- Node36 -->
<g id="node36" class="node">
<title>Node36</title>
<g id="a_node36"><a xlink:title=" ">
<polygon fill="white" stroke="#bfbfbf" points="1901.5,-73 1901.5,-92 2043.5,-92 2043.5,-73 1901.5,-73"/>
<text text-anchor="middle" x="1972.5" y="-80" font-family="Helvetica,sans-Serif" font-size="10.00">agl&#45;shell&#45;client&#45;protocol.h</text>
</a>
</g>
</g>
<!-- Node34&#45;&gt;Node36 -->
<g id="edge68" class="edge">
<title>Node34&#45;&gt;Node36</title>
<path fill="none" stroke="midnightblue" d="M2042.58,-139.73C2029.46,-129.21 2007.25,-111.38 1991.34,-98.62"/>
<polygon fill="midnightblue" stroke="midnightblue" points="1993.25,-95.66 1983.26,-92.13 1988.86,-101.12 1993.25,-95.66"/>
</g>
<!-- Node37 -->
<g id="node37" class="node">
<title>Node37</title>
<g id="a_node37"><a xlink:title=" ">
<polygon fill="white" stroke="#bfbfbf" points="2062,-73 2062,-92 2207,-92 2207,-73 2062,-73"/>
<text text-anchor="middle" x="2134.5" y="-80" font-family="Helvetica,sans-Serif" font-size="10.00">xdg&#45;shell&#45;client&#45;protocol.h</text>
</a>
</g>
</g>
<!-- Node34&#45;&gt;Node37 -->
<g id="edge71" class="edge">
<title>Node34&#45;&gt;Node37</title>
<path fill="none" stroke="midnightblue" d="M2064.43,-139.73C2077.55,-129.21 2099.76,-111.38 2115.67,-98.62"/>
<polygon fill="midnightblue" stroke="midnightblue" points="2118.14,-101.12 2123.75,-92.13 2113.76,-95.66 2118.14,-101.12"/>
</g>
<!-- Node38&#45;&gt;Node3 -->
<g id="edge75" class="edge">
<title>Node38&#45;&gt;Node3</title>
<path fill="none" stroke="midnightblue" d="M2532.49,-139.73C2524.38,-129.6 2510.86,-112.69 2500.75,-100.06"/>
<polygon fill="midnightblue" stroke="midnightblue" points="2503.39,-97.75 2494.41,-92.13 2497.92,-102.12 2503.39,-97.75"/>
</g>
<!-- Node38&#45;&gt;Node6 -->
<g id="edge78" class="edge">
<title>Node38&#45;&gt;Node6</title>
<path fill="none" stroke="midnightblue" d="M2518.78,-140.53C2489.66,-129.33 2436.38,-108.84 2402.25,-95.71"/>
<polygon fill="midnightblue" stroke="midnightblue" points="2403.33,-92.38 2392.74,-92.05 2400.82,-98.91 2403.33,-92.38"/>
</g>
<!-- Node38&#45;&gt;Node7 -->
<g id="edge76" class="edge">
<title>Node38&#45;&gt;Node7</title>
<path fill="none" stroke="midnightblue" d="M2539.6,-139.75C2539.34,-123.78 2536.78,-89.48 2520.5,-67 2508.15,-49.94 2488.1,-37.51 2470.8,-29.25"/>
<polygon fill="midnightblue" stroke="midnightblue" points="2472.1,-25.99 2461.54,-25.08 2469.23,-32.38 2472.1,-25.99"/>
</g>
<!-- Node39 -->
<g id="node39" class="node">
<title>Node39</title>
<g id="a_node39"><a xlink:title=" ">
<polygon fill="white" stroke="#bfbfbf" points="2567.5,-73 2567.5,-92 2617.5,-92 2617.5,-73 2567.5,-73"/>
<text text-anchor="middle" x="2592.5" y="-80" font-family="Helvetica,sans-Serif" font-size="10.00">cstdint</text>
</a>
</g>
</g>
<!-- Node38&#45;&gt;Node39 -->
<g id="edge74" class="edge">
<title>Node38&#45;&gt;Node39</title>
<path fill="none" stroke="midnightblue" d="M2546.65,-139.73C2554.92,-129.6 2568.7,-112.69 2579.01,-100.06"/>
<polygon fill="midnightblue" stroke="midnightblue" points="2581.86,-102.09 2585.47,-92.13 2576.44,-97.67 2581.86,-102.09"/>
</g>
<!-- Node40 -->
<g id="node40" class="node">
<title>Node40</title>
<g id="a_node40"><a xlink:title=" ">
<polygon fill="white" stroke="#bfbfbf" points="2635.5,-73 2635.5,-92 2713.5,-92 2713.5,-73 2635.5,-73"/>
<text text-anchor="middle" x="2674.5" y="-80" font-family="Helvetica,sans-Serif" font-size="10.00">EGL/eglext.h</text>
</a>
</g>
</g>
<!-- Node38&#45;&gt;Node40 -->
<g id="edge77" class="edge">
<title>Node38&#45;&gt;Node40</title>
<path fill="none" stroke="midnightblue" d="M2557.43,-139.87C2580.43,-128.8 2620.53,-109.49 2647.3,-96.6"/>
<polygon fill="midnightblue" stroke="midnightblue" points="2649.01,-99.66 2656.5,-92.17 2645.98,-93.35 2649.01,-99.66"/>
</g>
</g>
</svg>
