<?xml version="1.0" encoding="UTF-8" standalone="no"?>
<!DOCTYPE svg PUBLIC "-//W3C//DTD SVG 1.1//EN"
 "http://www.w3.org/Graphics/SVG/1.1/DTD/svg11.dtd">
<!-- Generated by graphviz version 5.0.0 (0)
 -->
<!-- Title: /mnt/raid10/stargate/ivi&#45;homescreen/shell/backend/wayland_egl.h Pages: 1 -->
<svg width="2836pt" height="412pt"
 viewBox="0.00 0.00 2836.33 412.00" xmlns="http://www.w3.org/2000/svg" xmlns:xlink="http://www.w3.org/1999/xlink">
<g id="graph0" class="graph" transform="scale(1 1) rotate(0) translate(4 408)">
<title>/mnt/raid10/stargate/ivi&#45;homescreen/shell/backend/wayland_egl.h</title>
<!-- Node1 -->
<g id="node1" class="node">
<title>Node1</title>
<g id="a_node1"><a xlink:title=" ">
<polygon fill="#999999" stroke="#666666" points="2609,-404 2487,-404 2487,-363 2609,-363 2609,-404"/>
<text text-anchor="start" x="2495" y="-392" font-family="Helvetica,sans-Serif" font-size="10.00">/mnt/raid10/stargate</text>
<text text-anchor="start" x="2495" y="-381" font-family="Helvetica,sans-Serif" font-size="10.00">/ivi&#45;homescreen/shell</text>
<text text-anchor="middle" x="2548" y="-370" font-family="Helvetica,sans-Serif" font-size="10.00">/backend/wayland_egl.h</text>
</a>
</g>
</g>
<!-- Node2 -->
<g id="node2" class="node">
<title>Node2</title>
<g id="a_node2"><a xlink:title=" ">
<polygon fill="#e0e0e0" stroke="#999999" points="1885,-90.5 1833,-90.5 1833,-71.5 1885,-71.5 1885,-90.5"/>
<text text-anchor="middle" x="1859" y="-78.5" font-family="Helvetica,sans-Serif" font-size="10.00">memory</text>
</a>
</g>
</g>
<!-- Node1&#45;&gt;Node2 -->
<g id="edge1" class="edge">
<title>Node1&#45;&gt;Node2</title>
<path fill="none" stroke="#63b8ff" d="M2503.06,-362.9C2372.38,-305.91 1995.02,-141.32 1887.75,-94.54"/>
<polygon fill="#63b8ff" stroke="#63b8ff" points="1889.07,-91.3 1878.51,-90.51 1886.28,-97.71 1889.07,-91.3"/>
</g>
<!-- Node3 -->
<g id="node3" class="node">
<title>Node3</title>
<g id="a_node3"><a xlink:title=" ">
<polygon fill="#e0e0e0" stroke="#999999" points="2646,-90.5 2602,-90.5 2602,-71.5 2646,-71.5 2646,-90.5"/>
<text text-anchor="middle" x="2624" y="-78.5" font-family="Helvetica,sans-Serif" font-size="10.00">vector</text>
</a>
</g>
</g>
<!-- Node1&#45;&gt;Node3 -->
<g id="edge2" class="edge">
<title>Node1&#45;&gt;Node3</title>
<path fill="none" stroke="#63b8ff" d="M2570.8,-362.62C2593.19,-340.78 2624,-303.46 2624,-263.5 2624,-263.5 2624,-263.5 2624,-206.5 2624,-168.99 2624,-125.13 2624,-100.76"/>
<polygon fill="#63b8ff" stroke="#63b8ff" points="2627.5,-100.75 2624,-90.75 2620.5,-100.75 2627.5,-100.75"/>
</g>
<!-- Node4 -->
<g id="node4" class="node">
<title>Node4</title>
<g id="a_node4"><a xlink:href="backend_8h.html" target="_top" xlink:title=" ">
<polygon fill="white" stroke="#666666" points="2307.5,-327 2206.5,-327 2206.5,-308 2307.5,-308 2307.5,-327"/>
<text text-anchor="middle" x="2257" y="-315" font-family="Helvetica,sans-Serif" font-size="10.00">backend/backend.h</text>
</a>
</g>
</g>
<!-- Node1&#45;&gt;Node4 -->
<g id="edge3" class="edge">
<title>Node1&#45;&gt;Node4</title>
<path fill="none" stroke="#63b8ff" d="M2487,-369.08C2433.05,-357.22 2355.38,-340.14 2305.55,-329.18"/>
<polygon fill="#63b8ff" stroke="#63b8ff" points="2306.19,-325.73 2295.67,-327 2304.68,-332.57 2306.19,-325.73"/>
</g>
<!-- Node6 -->
<g id="node6" class="node">
<title>Node6</title>
<g id="a_node6"><a xlink:href="constants_8h.html" target="_top" xlink:title=" ">
<polygon fill="white" stroke="#666666" points="2584,-90.5 2516,-90.5 2516,-71.5 2584,-71.5 2584,-90.5"/>
<text text-anchor="middle" x="2550" y="-78.5" font-family="Helvetica,sans-Serif" font-size="10.00">constants.h</text>
</a>
</g>
</g>
<!-- Node1&#45;&gt;Node6 -->
<g id="edge80" class="edge">
<title>Node1&#45;&gt;Node6</title>
<path fill="none" stroke="#63b8ff" d="M2548,-362.71C2548,-339.09 2548,-298.41 2548,-263.5 2548,-263.5 2548,-263.5 2548,-206.5 2548,-168.99 2548.92,-125.13 2549.51,-100.76"/>
<polygon fill="#63b8ff" stroke="#63b8ff" points="2553.01,-100.84 2549.76,-90.75 2546.01,-100.66 2553.01,-100.84"/>
</g>
<!-- Node44 -->
<g id="node44" class="node">
<title>Node44</title>
<g id="a_node44"><a xlink:href="egl_8h.html" target="_top" xlink:title=" ">
<polygon fill="white" stroke="#666666" points="2691,-156.5 2653,-156.5 2653,-137.5 2691,-137.5 2691,-156.5"/>
<text text-anchor="middle" x="2672" y="-144.5" font-family="Helvetica,sans-Serif" font-size="10.00">egl.h</text>
</a>
</g>
</g>
<!-- Node1&#45;&gt;Node44 -->
<g id="edge81" class="edge">
<title>Node1&#45;&gt;Node44</title>
<path fill="none" stroke="#63b8ff" d="M2595.46,-362.89C2611.26,-354.13 2627.49,-342.27 2638,-327 2672.33,-277.14 2674.33,-201.8 2673.16,-166.93"/>
<polygon fill="#63b8ff" stroke="#63b8ff" points="2676.64,-166.58 2672.68,-156.76 2669.65,-166.91 2676.64,-166.58"/>
</g>
<!-- Node5 -->
<g id="node5" class="node">
<title>Node5</title>
<g id="a_node5"><a xlink:title=" ">
<polygon fill="#e0e0e0" stroke="#999999" points="282.5,-30 161.5,-30 161.5,0 282.5,0 282.5,-30"/>
<text text-anchor="start" x="169.5" y="-18" font-family="Helvetica,sans-Serif" font-size="10.00">shell/platform/embedder</text>
<text text-anchor="middle" x="222" y="-7" font-family="Helvetica,sans-Serif" font-size="10.00">/embedder.h</text>
</a>
</g>
</g>
<!-- Node4&#45;&gt;Node5 -->
<g id="edge4" class="edge">
<title>Node4&#45;&gt;Node5</title>
<path fill="none" stroke="#63b8ff" d="M2206.43,-316.8C1872.67,-318.49 0,-322.85 0,-208.5 0,-208.5 0,-208.5 0,-146 0,-74.63 86.5,-41.71 151.51,-27.04"/>
<polygon fill="#63b8ff" stroke="#63b8ff" points="152.3,-30.45 161.34,-24.92 150.82,-23.61 152.3,-30.45"/>
</g>
<!-- Node4&#45;&gt;Node6 -->
<g id="edge5" class="edge">
<title>Node4&#45;&gt;Node6</title>
<path fill="none" stroke="#63b8ff" d="M2267.78,-307.88C2311.39,-272.97 2475.13,-141.92 2531.1,-97.12"/>
<polygon fill="#63b8ff" stroke="#63b8ff" points="2533.51,-99.68 2539.13,-90.7 2529.13,-94.22 2533.51,-99.68"/>
</g>
<!-- Node9 -->
<g id="node9" class="node">
<title>Node9</title>
<g id="a_node9"><a xlink:href="engine_8h.html" target="_top" xlink:title=" ">
<polygon fill="white" stroke="#666666" points="899.5,-272 846.5,-272 846.5,-253 899.5,-253 899.5,-272"/>
<text text-anchor="middle" x="873" y="-260" font-family="Helvetica,sans-Serif" font-size="10.00">engine.h</text>
</a>
</g>
</g>
<!-- Node4&#45;&gt;Node9 -->
<g id="edge9" class="edge">
<title>Node4&#45;&gt;Node9</title>
<path fill="none" stroke="#63b8ff" d="M2206.28,-314.66C1984.31,-306.37 1101.69,-272.57 909.87,-265.01"/>
<polygon fill="#63b8ff" stroke="#63b8ff" points="909.87,-261.5 899.74,-264.61 909.6,-268.5 909.87,-261.5"/>
</g>
<!-- Node6&#45;&gt;Node5 -->
<g id="edge7" class="edge">
<title>Node6&#45;&gt;Node5</title>
<path fill="none" stroke="#63b8ff" d="M2528,-71.44C2521.35,-69.24 2513.97,-67.16 2507,-66 2022.32,14.97 784.86,-79.85 296,-30 295.06,-29.9 294.12,-29.8 293.17,-29.7"/>
<polygon fill="#63b8ff" stroke="#63b8ff" points="293.22,-26.17 282.86,-28.37 292.33,-33.12 293.22,-26.17"/>
</g>
<!-- Node7 -->
<g id="node7" class="node">
<title>Node7</title>
<g id="a_node7"><a xlink:title=" ">
<polygon fill="#e0e0e0" stroke="#999999" points="2742,-24.5 2682,-24.5 2682,-5.5 2742,-5.5 2742,-24.5"/>
<text text-anchor="middle" x="2712" y="-12.5" font-family="Helvetica,sans-Serif" font-size="10.00">EGL/egl.h</text>
</a>
</g>
</g>
<!-- Node6&#45;&gt;Node7 -->
<g id="edge6" class="edge">
<title>Node6&#45;&gt;Node7</title>
<path fill="none" stroke="#63b8ff" d="M2571.85,-71.37C2599.95,-60.27 2648.93,-40.92 2680.9,-28.28"/>
<polygon fill="#63b8ff" stroke="#63b8ff" points="2682.23,-31.53 2690.24,-24.6 2679.65,-25.02 2682.23,-31.53"/>
</g>
<!-- Node8 -->
<g id="node8" class="node">
<title>Node8</title>
<g id="a_node8"><a xlink:title=" ">
<polygon fill="#e0e0e0" stroke="#999999" points="2569,-24.5 2531,-24.5 2531,-5.5 2569,-5.5 2569,-24.5"/>
<text text-anchor="middle" x="2550" y="-12.5" font-family="Helvetica,sans-Serif" font-size="10.00">array</text>
</a>
</g>
</g>
<!-- Node6&#45;&gt;Node8 -->
<g id="edge8" class="edge">
<title>Node6&#45;&gt;Node8</title>
<path fill="none" stroke="#63b8ff" d="M2550,-71.37C2550,-62.16 2550,-47.29 2550,-35.27"/>
<polygon fill="#63b8ff" stroke="#63b8ff" points="2553.5,-34.91 2550,-24.91 2546.5,-34.91 2553.5,-34.91"/>
</g>
<!-- Node9&#45;&gt;Node2 -->
<g id="edge17" class="edge">
<title>Node9&#45;&gt;Node2</title>
<path fill="none" stroke="#63b8ff" d="M899.78,-256.66C959.08,-245.96 1105.93,-219.52 1229,-198 1493.29,-151.78 1565.79,-168.89 1824,-96 1825.94,-95.45 1827.91,-94.84 1829.89,-94.17"/>
<polygon fill="#63b8ff" stroke="#63b8ff" points="1831.45,-97.33 1839.63,-90.59 1829.04,-90.76 1831.45,-97.33"/>
</g>
<!-- Node9&#45;&gt;Node3 -->
<g id="edge21" class="edge">
<title>Node9&#45;&gt;Node3</title>
<path fill="none" stroke="#63b8ff" d="M899.93,-261.88C1045.7,-263.5 1754.59,-265.45 2321,-162 2443.37,-139.65 2475.36,-136.44 2593,-96 2594.4,-95.52 2595.82,-95 2597.24,-94.45"/>
<polygon fill="#63b8ff" stroke="#63b8ff" points="2598.65,-97.66 2606.52,-90.58 2595.95,-91.2 2598.65,-97.66"/>
</g>
<!-- Node9&#45;&gt;Node4 -->
<g id="edge22" class="edge">
<title>Node9&#45;&gt;Node4</title>
<path fill="none" stroke="#63b8ff" d="M899.66,-264.45C1065.42,-270.56 1954.73,-304.61 2196.4,-314.06"/>
<polygon fill="#63b8ff" stroke="#63b8ff" points="2196.28,-317.56 2206.41,-314.45 2196.55,-310.57 2196.28,-317.56"/>
</g>
<!-- Node9&#45;&gt;Node5 -->
<g id="edge14" class="edge">
<title>Node9&#45;&gt;Node5</title>
<path fill="none" stroke="#63b8ff" d="M846.29,-261.25C734.81,-259.96 306.55,-252.76 177,-217 125.46,-202.77 97.86,-207.64 70,-162 56.34,-139.61 79.54,-73.24 86,-66 102.92,-47.02 127.68,-35.24 151.45,-27.92"/>
<polygon fill="#63b8ff" stroke="#63b8ff" points="152.54,-31.25 161.2,-25.14 150.62,-24.52 152.54,-31.25"/>
</g>
<!-- Node9&#45;&gt;Node6 -->
<g id="edge23" class="edge">
<title>Node9&#45;&gt;Node6</title>
<path fill="none" stroke="#63b8ff" d="M899.63,-261.2C1039.41,-259.27 1702.19,-245.89 2236,-162 2358.46,-142.75 2387.75,-129.88 2507,-96 2509.6,-95.26 2512.28,-94.47 2514.97,-93.65"/>
<polygon fill="#63b8ff" stroke="#63b8ff" points="2516.14,-96.95 2524.63,-90.61 2514.04,-90.27 2516.14,-96.95"/>
</g>
<!-- Node9&#45;&gt;Node7 -->
<g id="edge11" class="edge">
<title>Node9&#45;&gt;Node7</title>
<path fill="none" stroke="#63b8ff" d="M899.68,-261.72C1097.74,-263.11 2341.36,-267.51 2700,-162 2759.52,-144.49 2791.15,-149.24 2823,-96 2829.85,-84.56 2830.24,-77.2 2823,-66 2807.42,-41.9 2777.14,-29.3 2752.13,-22.78"/>
<polygon fill="#63b8ff" stroke="#63b8ff" points="2752.69,-19.31 2742.15,-20.41 2751.08,-26.12 2752.69,-19.31"/>
</g>
<!-- Node10 -->
<g id="node10" class="node">
<title>Node10</title>
<g id="a_node10"><a xlink:title=" ">
<polygon fill="#e0e0e0" stroke="#999999" points="1296.5,-217 1237.5,-217 1237.5,-198 1296.5,-198 1296.5,-217"/>
<text text-anchor="middle" x="1267" y="-205" font-family="Helvetica,sans-Serif" font-size="10.00">functional</text>
</a>
</g>
</g>
<!-- Node9&#45;&gt;Node10 -->
<g id="edge10" class="edge">
<title>Node9&#45;&gt;Node10</title>
<path fill="none" stroke="#63b8ff" d="M899.87,-258.68C958.64,-252.38 1102.94,-236.21 1223,-217 1224.3,-216.79 1225.61,-216.58 1226.94,-216.35"/>
<polygon fill="#63b8ff" stroke="#63b8ff" points="1227.99,-219.72 1237.22,-214.52 1226.77,-212.83 1227.99,-219.72"/>
</g>
<!-- Node11 -->
<g id="node11" class="node">
<title>Node11</title>
<g id="a_node11"><a xlink:title=" ">
<polygon fill="#e0e0e0" stroke="#999999" points="1387,-217 1315,-217 1315,-198 1387,-198 1387,-217"/>
<text text-anchor="middle" x="1351" y="-205" font-family="Helvetica,sans-Serif" font-size="10.00">GLES2/gl2.h</text>
</a>
</g>
</g>
<!-- Node9&#45;&gt;Node11 -->
<g id="edge12" class="edge">
<title>Node9&#45;&gt;Node11</title>
<path fill="none" stroke="#63b8ff" d="M899.95,-259.52C966.76,-254.46 1145.54,-239.88 1304.72,-217.07"/>
<polygon fill="#63b8ff" stroke="#63b8ff" points="1305.3,-220.53 1314.69,-215.63 1304.3,-213.6 1305.3,-220.53"/>
</g>
<!-- Node12 -->
<g id="node12" class="node">
<title>Node12</title>
<g id="a_node12"><a xlink:title=" ">
<polygon fill="#e0e0e0" stroke="#999999" points="405.5,-217 280.5,-217 280.5,-198 405.5,-198 405.5,-217"/>
<text text-anchor="middle" x="343" y="-205" font-family="Helvetica,sans-Serif" font-size="10.00">flutter/encodable_value.h</text>
</a>
</g>
</g>
<!-- Node9&#45;&gt;Node12 -->
<g id="edge13" class="edge">
<title>Node9&#45;&gt;Node12</title>
<path fill="none" stroke="#63b8ff" d="M846.39,-259.11C777.33,-252.86 586.48,-235.33 415.98,-217.08"/>
<polygon fill="#63b8ff" stroke="#63b8ff" points="416.14,-213.58 405.82,-215.99 415.39,-220.54 416.14,-213.58"/>
</g>
<!-- Node13 -->
<g id="node13" class="node">
<title>Node13</title>
<g id="a_node13"><a xlink:title=" ">
<polygon fill="#e0e0e0" stroke="#999999" points="486,-217 424,-217 424,-198 486,-198 486,-217"/>
<text text-anchor="middle" x="455" y="-205" font-family="Helvetica,sans-Serif" font-size="10.00">filesystem</text>
</a>
</g>
</g>
<!-- Node9&#45;&gt;Node13 -->
<g id="edge15" class="edge">
<title>Node9&#45;&gt;Node13</title>
<path fill="none" stroke="#63b8ff" d="M846.3,-259.21C785.85,-253.84 633.72,-239.32 496.65,-217.14"/>
<polygon fill="#63b8ff" stroke="#63b8ff" points="496.83,-213.62 486.39,-215.46 495.69,-220.53 496.83,-213.62"/>
</g>
<!-- Node14 -->
<g id="node14" class="node">
<title>Node14</title>
<g id="a_node14"><a xlink:title=" ">
<polygon fill="#e0e0e0" stroke="#999999" points="139.5,-90.5 104.5,-90.5 104.5,-71.5 139.5,-71.5 139.5,-90.5"/>
<text text-anchor="middle" x="122" y="-78.5" font-family="Helvetica,sans-Serif" font-size="10.00">map</text>
</a>
</g>
</g>
<!-- Node9&#45;&gt;Node14 -->
<g id="edge16" class="edge">
<title>Node9&#45;&gt;Node14</title>
<path fill="none" stroke="#63b8ff" d="M846.43,-260.63C737.03,-256.9 324.66,-241.32 272,-217 223.78,-194.73 227.94,-167.01 188,-132 173.6,-119.37 156.31,-106.34 143.04,-96.75"/>
<polygon fill="#63b8ff" stroke="#63b8ff" points="144.75,-93.67 134.58,-90.71 140.68,-99.37 144.75,-93.67"/>
</g>
<!-- Node15 -->
<g id="node15" class="node">
<title>Node15</title>
<g id="a_node15"><a xlink:title=" ">
<polygon fill="#e0e0e0" stroke="#999999" points="635,-217 591,-217 591,-198 635,-198 635,-217"/>
<text text-anchor="middle" x="613" y="-205" font-family="Helvetica,sans-Serif" font-size="10.00">mutex</text>
</a>
</g>
</g>
<!-- Node9&#45;&gt;Node15 -->
<g id="edge18" class="edge">
<title>Node9&#45;&gt;Node15</title>
<path fill="none" stroke="#63b8ff" d="M846.2,-256.87C805.22,-249.66 724.31,-234.92 645.44,-216.96"/>
<polygon fill="#63b8ff" stroke="#63b8ff" points="645.86,-213.46 635.33,-214.64 644.29,-220.29 645.86,-213.46"/>
</g>
<!-- Node16 -->
<g id="node16" class="node">
<title>Node16</title>
<g id="a_node16"><a xlink:title=" ">
<polygon fill="#e0e0e0" stroke="#999999" points="696.5,-217 653.5,-217 653.5,-198 696.5,-198 696.5,-217"/>
<text text-anchor="middle" x="675" y="-205" font-family="Helvetica,sans-Serif" font-size="10.00">queue</text>
</a>
</g>
</g>
<!-- Node9&#45;&gt;Node16 -->
<g id="edge19" class="edge">
<title>Node9&#45;&gt;Node16</title>
<path fill="none" stroke="#63b8ff" d="M846.3,-254.35C809.96,-244.63 745.05,-227.25 706.42,-216.91"/>
<polygon fill="#63b8ff" stroke="#63b8ff" points="707.29,-213.52 696.73,-214.32 705.48,-220.28 707.29,-213.52"/>
</g>
<!-- Node17 -->
<g id="node17" class="node">
<title>Node17</title>
<g id="a_node17"><a xlink:title=" ">
<polygon fill="#e0e0e0" stroke="#999999" points="745.5,-90.5 704.5,-90.5 704.5,-71.5 745.5,-71.5 745.5,-90.5"/>
<text text-anchor="middle" x="725" y="-78.5" font-family="Helvetica,sans-Serif" font-size="10.00">string</text>
</a>
</g>
</g>
<!-- Node9&#45;&gt;Node17 -->
<g id="edge20" class="edge">
<title>Node9&#45;&gt;Node17</title>
<path fill="none" stroke="#63b8ff" d="M855.29,-252.93C827.12,-238.34 772.39,-205.95 744,-162 732.04,-143.49 727.6,-118.21 725.95,-101.06"/>
<polygon fill="#63b8ff" stroke="#63b8ff" points="729.41,-100.39 725.2,-90.67 722.43,-100.89 729.41,-100.39"/>
</g>
<!-- Node18 -->
<g id="node18" class="node">
<title>Node18</title>
<g id="a_node18"><a xlink:href="logging_8h.html" target="_top" xlink:title=" ">
<polygon fill="white" stroke="#666666" points="560,-217 504,-217 504,-198 560,-198 560,-217"/>
<text text-anchor="middle" x="532" y="-205" font-family="Helvetica,sans-Serif" font-size="10.00">logging.h</text>
</a>
</g>
</g>
<!-- Node9&#45;&gt;Node18 -->
<g id="edge24" class="edge">
<title>Node9&#45;&gt;Node18</title>
<path fill="none" stroke="#63b8ff" d="M846.5,-257.6C795.33,-250.03 679.38,-232.72 582,-217 578.1,-216.37 574.04,-215.7 569.98,-215.02"/>
<polygon fill="#63b8ff" stroke="#63b8ff" points="570.46,-211.56 560.02,-213.35 569.3,-218.46 570.46,-211.56"/>
</g>
<!-- Node24 -->
<g id="node24" class="node">
<title>Node24</title>
<g id="a_node24"><a xlink:href="platform__channel_8h.html" target="_top" xlink:title=" ">
<polygon fill="white" stroke="#666666" points="178.5,-156.5 79.5,-156.5 79.5,-137.5 178.5,-137.5 178.5,-156.5"/>
<text text-anchor="middle" x="129" y="-144.5" font-family="Helvetica,sans-Serif" font-size="10.00">platform_channel.h</text>
</a>
</g>
</g>
<!-- Node9&#45;&gt;Node24 -->
<g id="edge31" class="edge">
<title>Node9&#45;&gt;Node24</title>
<path fill="none" stroke="#63b8ff" d="M846.3,-261.87C737.8,-263.06 330.14,-264.24 212,-217 183.85,-205.74 158.13,-181.15 143.01,-164.58"/>
<polygon fill="#63b8ff" stroke="#63b8ff" points="145.35,-161.95 136.11,-156.76 140.1,-166.57 145.35,-161.95"/>
</g>
<!-- Node25 -->
<g id="node25" class="node">
<title>Node25</title>
<g id="a_node25"><a xlink:href="key__event_8h.html" target="_top" xlink:title=" ">
<polygon fill="white" stroke="#666666" points="855,-162 753,-162 753,-132 855,-132 855,-162"/>
<text text-anchor="start" x="761" y="-150" font-family="Helvetica,sans-Serif" font-size="10.00">static_plugins/key</text>
<text text-anchor="middle" x="804" y="-139" font-family="Helvetica,sans-Serif" font-size="10.00">_event/key_event.h</text>
</a>
</g>
</g>
<!-- Node9&#45;&gt;Node25 -->
<g id="edge35" class="edge">
<title>Node9&#45;&gt;Node25</title>
<path fill="none" stroke="#63b8ff" d="M867.81,-252.97C857.32,-235.7 833.25,-196.12 817.86,-170.8"/>
<polygon fill="#63b8ff" stroke="#63b8ff" points="820.81,-168.91 812.62,-162.18 814.83,-172.54 820.81,-168.91"/>
</g>
<!-- Node31 -->
<g id="node31" class="node">
<title>Node31</title>
<g id="a_node31"><a xlink:href="text__input_8h.html" target="_top" xlink:title=" ">
<polygon fill="white" stroke="#666666" points="1142.5,-162 1045.5,-162 1045.5,-132 1142.5,-132 1142.5,-162"/>
<text text-anchor="start" x="1053.5" y="-150" font-family="Helvetica,sans-Serif" font-size="10.00">static_plugins/text</text>
<text text-anchor="middle" x="1094" y="-139" font-family="Helvetica,sans-Serif" font-size="10.00">_input/text_input.h</text>
</a>
</g>
</g>
<!-- Node9&#45;&gt;Node31 -->
<g id="edge47" class="edge">
<title>Node9&#45;&gt;Node31</title>
<path fill="none" stroke="#63b8ff" d="M898.5,-252.9C921.59,-244.76 956.29,-231.63 985,-217 1013.59,-202.43 1044.31,-182.56 1065.83,-167.88"/>
<polygon fill="#63b8ff" stroke="#63b8ff" points="1067.92,-170.69 1074.17,-162.14 1063.95,-164.93 1067.92,-170.69"/>
</g>
<!-- Node36 -->
<g id="node36" class="node">
<title>Node36</title>
<g id="a_node36"><a xlink:href="flutter__view_8h.html" target="_top" xlink:title=" ">
<polygon fill="white" stroke="#666666" points="976,-217 878,-217 878,-198 976,-198 976,-217"/>
<text text-anchor="middle" x="927" y="-205" font-family="Helvetica,sans-Serif" font-size="10.00">view/flutter_view.h</text>
</a>
</g>
</g>
<!-- Node9&#45;&gt;Node36 -->
<g id="edge61" class="edge">
<title>Node9&#45;&gt;Node36</title>
<path fill="none" stroke="#63b8ff" d="M881.92,-252.75C889.78,-245.03 901.43,-233.6 910.92,-224.28"/>
<polygon fill="#63b8ff" stroke="#63b8ff" points="913.56,-226.59 918.25,-217.09 908.66,-221.6 913.56,-226.59"/>
</g>
<!-- Node19 -->
<g id="node19" class="node">
<title>Node19</title>
<g id="a_node19"><a xlink:title=" ">
<polygon fill="#e0e0e0" stroke="#999999" points="408,-156.5 356,-156.5 356,-137.5 408,-137.5 408,-156.5"/>
<text text-anchor="middle" x="382" y="-144.5" font-family="Helvetica,sans-Serif" font-size="10.00">sstream</text>
</a>
</g>
</g>
<!-- Node18&#45;&gt;Node19 -->
<g id="edge25" class="edge">
<title>Node18&#45;&gt;Node19</title>
<path fill="none" stroke="#63b8ff" d="M510.19,-197.99C484.75,-188.07 442.49,-171.59 413.49,-160.28"/>
<polygon fill="#63b8ff" stroke="#63b8ff" points="414.43,-156.89 403.84,-156.52 411.88,-163.41 414.43,-156.89"/>
</g>
<!-- Node20 -->
<g id="node20" class="node">
<title>Node20</title>
<g id="a_node20"><a xlink:href="dlt_8h.html" target="_top" xlink:title=" ">
<polygon fill="white" stroke="#666666" points="513.5,-156.5 464.5,-156.5 464.5,-137.5 513.5,-137.5 513.5,-156.5"/>
<text text-anchor="middle" x="489" y="-144.5" font-family="Helvetica,sans-Serif" font-size="10.00">dlt/dlt.h</text>
</a>
</g>
</g>
<!-- Node18&#45;&gt;Node20 -->
<g id="edge26" class="edge">
<title>Node18&#45;&gt;Node20</title>
<path fill="none" stroke="#63b8ff" d="M525.66,-197.87C519.3,-189.23 509.36,-175.7 501.43,-164.92"/>
<polygon fill="#63b8ff" stroke="#63b8ff" points="504.11,-162.65 495.37,-156.67 498.47,-166.8 504.11,-162.65"/>
</g>
<!-- Node23 -->
<g id="node23" class="node">
<title>Node23</title>
<g id="a_node23"><a xlink:title=" ">
<polygon fill="#e0e0e0" stroke="#999999" points="335.5,-90.5 234.5,-90.5 234.5,-71.5 335.5,-71.5 335.5,-90.5"/>
<text text-anchor="middle" x="285" y="-78.5" font-family="Helvetica,sans-Serif" font-size="10.00">flutter/fml/macros.h</text>
</a>
</g>
</g>
<!-- Node18&#45;&gt;Node23 -->
<g id="edge30" class="edge">
<title>Node18&#45;&gt;Node23</title>
<path fill="none" stroke="#63b8ff" d="M503.72,-199.95C452.73,-188.11 350.33,-164.15 347,-162 322.84,-146.39 304.23,-118.03 293.95,-99.61"/>
<polygon fill="#63b8ff" stroke="#63b8ff" points="296.91,-97.72 289.11,-90.55 290.73,-101.02 296.91,-97.72"/>
</g>
<!-- Node21 -->
<g id="node21" class="node">
<title>Node21</title>
<g id="a_node21"><a xlink:href="libdlt_8h.html" target="_top" xlink:title=" ">
<polygon fill="white" stroke="#666666" points="216.5,-90.5 157.5,-90.5 157.5,-71.5 216.5,-71.5 216.5,-90.5"/>
<text text-anchor="middle" x="187" y="-78.5" font-family="Helvetica,sans-Serif" font-size="10.00">dlt/libdlt.h</text>
</a>
</g>
</g>
<!-- Node20&#45;&gt;Node21 -->
<g id="edge27" class="edge">
<title>Node20&#45;&gt;Node21</title>
<path fill="none" stroke="#63b8ff" d="M467.36,-137.43C461.77,-135.44 455.71,-133.47 450,-132 352.35,-106.86 323.65,-121.14 226,-96 223.5,-95.36 220.94,-94.62 218.37,-93.82"/>
<polygon fill="#63b8ff" stroke="#63b8ff" points="219.24,-90.42 208.64,-90.57 217.02,-97.06 219.24,-90.42"/>
</g>
<!-- Node20&#45;&gt;Node23 -->
<g id="edge29" class="edge">
<title>Node20&#45;&gt;Node23</title>
<path fill="none" stroke="#63b8ff" d="M465.56,-137.37C460.45,-135.55 455.05,-133.67 450,-132 407.51,-117.94 358.36,-103.25 324.83,-93.46"/>
<polygon fill="#63b8ff" stroke="#63b8ff" points="325.53,-90.02 314.95,-90.58 323.57,-96.74 325.53,-90.02"/>
</g>
<!-- Node22 -->
<g id="node22" class="node">
<title>Node22</title>
<g id="a_node22"><a xlink:title=" ">
<polygon fill="#e0e0e0" stroke="#999999" points="351,-24.5 305,-24.5 305,-5.5 351,-5.5 351,-24.5"/>
<text text-anchor="middle" x="328" y="-12.5" font-family="Helvetica,sans-Serif" font-size="10.00">cstdint</text>
</a>
</g>
</g>
<!-- Node21&#45;&gt;Node22 -->
<g id="edge28" class="edge">
<title>Node21&#45;&gt;Node22</title>
<path fill="none" stroke="#63b8ff" d="M206.02,-71.37C230.09,-60.44 271.77,-41.52 299.61,-28.88"/>
<polygon fill="#63b8ff" stroke="#63b8ff" points="301.18,-32.02 308.84,-24.7 298.28,-25.65 301.18,-32.02"/>
</g>
<!-- Node24&#45;&gt;Node5 -->
<g id="edge34" class="edge">
<title>Node24&#45;&gt;Node5</title>
<path fill="none" stroke="#63b8ff" d="M120.35,-137.5C105.91,-122.24 79.96,-89.62 96,-66 108.84,-47.09 130.07,-35.33 151.48,-28.02"/>
<polygon fill="#63b8ff" stroke="#63b8ff" points="152.8,-31.28 161.3,-24.96 150.72,-24.59 152.8,-31.28"/>
</g>
<!-- Node24&#45;&gt;Node14 -->
<g id="edge32" class="edge">
<title>Node24&#45;&gt;Node14</title>
<path fill="none" stroke="#63b8ff" d="M128.06,-137.37C127.04,-128.07 125.39,-112.98 124.07,-100.9"/>
<polygon fill="#63b8ff" stroke="#63b8ff" points="127.54,-100.47 122.97,-90.91 120.58,-101.23 127.54,-100.47"/>
</g>
<!-- Node24&#45;&gt;Node17 -->
<g id="edge33" class="edge">
<title>Node24&#45;&gt;Node17</title>
<path fill="none" stroke="#63b8ff" d="M178.88,-142.63C308.05,-133.77 646.82,-109.55 696,-96 697.45,-95.6 698.91,-95.13 700.37,-94.61"/>
<polygon fill="#63b8ff" stroke="#63b8ff" points="701.91,-97.76 709.75,-90.63 699.18,-91.32 701.91,-97.76"/>
</g>
<!-- Node25&#45;&gt;Node2 -->
<g id="edge37" class="edge">
<title>Node25&#45;&gt;Node2</title>
<path fill="none" stroke="#63b8ff" d="M855.13,-133.53C858.46,-132.95 861.77,-132.43 865,-132 1076.42,-104.02 1615.38,-140.25 1824,-96 1826.38,-95.5 1828.8,-94.84 1831.21,-94.1"/>
<polygon fill="#63b8ff" stroke="#63b8ff" points="1832.62,-97.31 1840.84,-90.63 1830.25,-90.72 1832.62,-97.31"/>
</g>
<!-- Node25&#45;&gt;Node5 -->
<g id="edge44" class="edge">
<title>Node25&#45;&gt;Node5</title>
<path fill="none" stroke="#63b8ff" d="M752.69,-141.43C648.15,-131.9 417.49,-109.65 384,-96 363.75,-87.74 363.97,-76.88 345,-66 322.69,-53.2 296.47,-42.06 273.98,-33.57"/>
<polygon fill="#63b8ff" stroke="#63b8ff" points="275.18,-30.28 264.59,-30.09 272.75,-36.85 275.18,-30.28"/>
</g>
<!-- Node25&#45;&gt;Node6 -->
<g id="edge46" class="edge">
<title>Node25&#45;&gt;Node6</title>
<path fill="none" stroke="#63b8ff" d="M855.12,-133.47C858.45,-132.9 861.77,-132.4 865,-132 1227.19,-86.95 2147.18,-157.15 2507,-96 2510.7,-95.37 2514.52,-94.49 2518.28,-93.47"/>
<polygon fill="#63b8ff" stroke="#63b8ff" points="2519.44,-96.78 2527.99,-90.53 2517.41,-90.08 2519.44,-96.78"/>
</g>
<!-- Node25&#45;&gt;Node14 -->
<g id="edge36" class="edge">
<title>Node25&#45;&gt;Node14</title>
<path fill="none" stroke="#63b8ff" d="M752.96,-143.28C609.01,-135.45 206.48,-112.36 149,-96 147.74,-95.64 146.48,-95.22 145.21,-94.76"/>
<polygon fill="#63b8ff" stroke="#63b8ff" points="146.4,-91.45 135.85,-90.53 143.52,-97.83 146.4,-91.45"/>
</g>
<!-- Node25&#45;&gt;Node17 -->
<g id="edge38" class="edge">
<title>Node25&#45;&gt;Node17</title>
<path fill="none" stroke="#63b8ff" d="M786.47,-131.8C773.79,-121.53 756.68,-107.67 743.74,-97.18"/>
<polygon fill="#63b8ff" stroke="#63b8ff" points="745.89,-94.42 735.92,-90.84 741.48,-99.86 745.89,-94.42"/>
</g>
<!-- Node25&#45;&gt;Node23 -->
<g id="edge42" class="edge">
<title>Node25&#45;&gt;Node23</title>
<path fill="none" stroke="#63b8ff" d="M752.7,-142.07C668.35,-135.23 495.19,-119.57 350,-96 343.87,-95 337.44,-93.81 331.12,-92.54"/>
<polygon fill="#63b8ff" stroke="#63b8ff" points="331.82,-89.11 321.32,-90.51 330.4,-95.97 331.82,-89.11"/>
</g>
<!-- Node26 -->
<g id="node26" class="node">
<title>Node26</title>
<g id="a_node26"><a xlink:title=" ">
<polygon fill="#e0e0e0" stroke="#999999" points="505.5,-96 392.5,-96 392.5,-66 505.5,-66 505.5,-96"/>
<text text-anchor="start" x="400.5" y="-84" font-family="Helvetica,sans-Serif" font-size="10.00">flutter/basic_message</text>
<text text-anchor="middle" x="449" y="-73" font-family="Helvetica,sans-Serif" font-size="10.00">_channel.h</text>
</a>
</g>
</g>
<!-- Node25&#45;&gt;Node26 -->
<g id="edge39" class="edge">
<title>Node25&#45;&gt;Node26</title>
<path fill="none" stroke="#63b8ff" d="M752.99,-137.77C697.26,-128.65 605.09,-113.17 515.87,-96.13"/>
<polygon fill="#63b8ff" stroke="#63b8ff" points="516.33,-92.65 505.85,-94.2 515.01,-99.52 516.33,-92.65"/>
</g>
<!-- Node27 -->
<g id="node27" class="node">
<title>Node27</title>
<g id="a_node27"><a xlink:title=" ">
<polygon fill="#e0e0e0" stroke="#999999" points="1024,-90.5 892,-90.5 892,-71.5 1024,-71.5 1024,-90.5"/>
<text text-anchor="middle" x="958" y="-78.5" font-family="Helvetica,sans-Serif" font-size="10.00">flutter/binary_messenger.h</text>
</a>
</g>
</g>
<!-- Node25&#45;&gt;Node27 -->
<g id="edge40" class="edge">
<title>Node25&#45;&gt;Node27</title>
<path fill="none" stroke="#63b8ff" d="M837.8,-131.95C864.8,-120.73 902.3,-105.15 928.19,-94.39"/>
<polygon fill="#63b8ff" stroke="#63b8ff" points="929.61,-97.59 937.51,-90.52 926.93,-91.12 929.61,-97.59"/>
</g>
<!-- Node28 -->
<g id="node28" class="node">
<title>Node28</title>
<g id="a_node28"><a xlink:title=" ">
<polygon fill="#e0e0e0" stroke="#999999" points="686.5,-96 523.5,-96 523.5,-66 686.5,-66 686.5,-96"/>
<text text-anchor="start" x="531.5" y="-84" font-family="Helvetica,sans-Serif" font-size="10.00">flutter/shell/platform</text>
<text text-anchor="middle" x="605" y="-73" font-family="Helvetica,sans-Serif" font-size="10.00">/common/json_message_codec.h</text>
</a>
</g>
</g>
<!-- Node25&#45;&gt;Node28 -->
<g id="edge41" class="edge">
<title>Node25&#45;&gt;Node28</title>
<path fill="none" stroke="#63b8ff" d="M760.33,-131.95C730.26,-122.28 690.13,-109.38 658.2,-99.11"/>
<polygon fill="#63b8ff" stroke="#63b8ff" points="659.16,-95.74 648.57,-96.01 657.02,-102.41 659.16,-95.74"/>
</g>
<!-- Node29 -->
<g id="node29" class="node">
<title>Node29</title>
<g id="a_node29"><a xlink:title=" ">
<polygon fill="#e0e0e0" stroke="#999999" points="874,-90.5 764,-90.5 764,-71.5 874,-71.5 874,-90.5"/>
<text text-anchor="middle" x="819" y="-78.5" font-family="Helvetica,sans-Serif" font-size="10.00">rapidjson/document.h</text>
</a>
</g>
</g>
<!-- Node25&#45;&gt;Node29 -->
<g id="edge43" class="edge">
<title>Node25&#45;&gt;Node29</title>
<path fill="none" stroke="#63b8ff" d="M807.33,-131.8C809.46,-122.7 812.25,-110.79 814.57,-100.9"/>
<polygon fill="#63b8ff" stroke="#63b8ff" points="818.05,-101.38 816.93,-90.84 811.24,-99.78 818.05,-101.38"/>
</g>
<!-- Node30 -->
<g id="node30" class="node">
<title>Node30</title>
<g id="a_node30"><a xlink:title=" ">
<polygon fill="#e0e0e0" stroke="#999999" points="1176,-90.5 1042,-90.5 1042,-71.5 1176,-71.5 1176,-90.5"/>
<text text-anchor="middle" x="1109" y="-78.5" font-family="Helvetica,sans-Serif" font-size="10.00">xkbcommon/xkbcommon.h</text>
</a>
</g>
</g>
<!-- Node25&#45;&gt;Node30 -->
<g id="edge45" class="edge">
<title>Node25&#45;&gt;Node30</title>
<path fill="none" stroke="#63b8ff" d="M855.24,-134.15C858.54,-133.41 861.81,-132.69 865,-132 930.62,-117.75 1006.42,-102.39 1055.9,-92.51"/>
<polygon fill="#63b8ff" stroke="#63b8ff" points="1056.62,-95.93 1065.74,-90.55 1055.25,-89.07 1056.62,-95.93"/>
</g>
<!-- Node31&#45;&gt;Node2 -->
<g id="edge49" class="edge">
<title>Node31&#45;&gt;Node2</title>
<path fill="none" stroke="#63b8ff" d="M1142.7,-134.35C1147.51,-133.45 1152.34,-132.64 1157,-132 1451.12,-91.66 1534.1,-159.98 1824,-96 1826.37,-95.48 1828.79,-94.81 1831.2,-94.05"/>
<polygon fill="#63b8ff" stroke="#63b8ff" points="1832.62,-97.26 1840.83,-90.57 1830.24,-90.68 1832.62,-97.26"/>
</g>
<!-- Node31&#45;&gt;Node5 -->
<g id="edge58" class="edge">
<title>Node31&#45;&gt;Node5</title>
<path fill="none" stroke="#63b8ff" d="M1130.39,-131.93C1165.1,-116.56 1208.82,-90.81 1185,-66 1150.76,-30.35 345.11,-35.61 296,-30 295.06,-29.89 294.12,-29.78 293.17,-29.66"/>
<polygon fill="#63b8ff" stroke="#63b8ff" points="293.25,-26.14 282.87,-28.25 292.3,-33.08 293.25,-26.14"/>
</g>
<!-- Node31&#45;&gt;Node6 -->
<g id="edge60" class="edge">
<title>Node31&#45;&gt;Node6</title>
<path fill="none" stroke="#63b8ff" d="M1142.75,-146.1C1359.45,-146.25 2236.58,-143.83 2507,-96 2510.51,-95.38 2514.12,-94.54 2517.7,-93.58"/>
<polygon fill="#63b8ff" stroke="#63b8ff" points="2518.97,-96.85 2527.54,-90.62 2516.96,-90.14 2518.97,-96.85"/>
</g>
<!-- Node31&#45;&gt;Node14 -->
<g id="edge48" class="edge">
<title>Node31&#45;&gt;Node14</title>
<path fill="none" stroke="#63b8ff" d="M1045.36,-135.51C1037.58,-134.13 1029.59,-132.89 1022,-132 829.15,-109.41 336.65,-145.88 149,-96 147.74,-95.66 146.47,-95.26 145.2,-94.81"/>
<polygon fill="#63b8ff" stroke="#63b8ff" points="146.38,-91.5 135.82,-90.63 143.53,-97.9 146.38,-91.5"/>
</g>
<!-- Node31&#45;&gt;Node17 -->
<g id="edge50" class="edge">
<title>Node31&#45;&gt;Node17</title>
<path fill="none" stroke="#63b8ff" d="M1045.27,-136.13C1037.5,-134.67 1029.54,-133.24 1022,-132 903.85,-112.56 869.9,-129.7 755,-96 753.55,-95.58 752.09,-95.09 750.62,-94.56"/>
<polygon fill="#63b8ff" stroke="#63b8ff" points="751.73,-91.23 741.16,-90.63 749.05,-97.7 751.73,-91.23"/>
</g>
<!-- Node31&#45;&gt;Node23 -->
<g id="edge54" class="edge">
<title>Node31&#45;&gt;Node23</title>
<path fill="none" stroke="#63b8ff" d="M1045.34,-135.61C1037.56,-134.22 1029.58,-132.95 1022,-132 740.18,-96.81 666.63,-123.91 384,-96 371.53,-94.77 358.22,-93.12 345.53,-91.38"/>
<polygon fill="#63b8ff" stroke="#63b8ff" points="345.91,-87.9 335.52,-89.98 344.94,-94.83 345.91,-87.9"/>
</g>
<!-- Node31&#45;&gt;Node27 -->
<g id="edge51" class="edge">
<title>Node31&#45;&gt;Node27</title>
<path fill="none" stroke="#63b8ff" d="M1064.15,-131.95C1040.62,-120.88 1008.07,-105.56 985.23,-94.82"/>
<polygon fill="#63b8ff" stroke="#63b8ff" points="986.64,-91.61 976.1,-90.52 983.66,-97.94 986.64,-91.61"/>
</g>
<!-- Node31&#45;&gt;Node29 -->
<g id="edge57" class="edge">
<title>Node31&#45;&gt;Node29</title>
<path fill="none" stroke="#63b8ff" d="M1045.47,-134.71C994.69,-122.89 915.54,-104.47 865.53,-92.83"/>
<polygon fill="#63b8ff" stroke="#63b8ff" points="866.16,-89.38 855.62,-90.52 864.57,-96.2 866.16,-89.38"/>
</g>
<!-- Node31&#45;&gt;Node30 -->
<g id="edge59" class="edge">
<title>Node31&#45;&gt;Node30</title>
<path fill="none" stroke="#63b8ff" d="M1097.33,-131.8C1099.46,-122.7 1102.25,-110.79 1104.57,-100.9"/>
<polygon fill="#63b8ff" stroke="#63b8ff" points="1108.05,-101.38 1106.93,-90.84 1101.24,-99.78 1108.05,-101.38"/>
</g>
<!-- Node32 -->
<g id="node32" class="node">
<title>Node32</title>
<g id="a_node32"><a xlink:title=" ">
<polygon fill="#e0e0e0" stroke="#999999" points="1356,-90.5 1232,-90.5 1232,-71.5 1356,-71.5 1356,-90.5"/>
<text text-anchor="middle" x="1294" y="-78.5" font-family="Helvetica,sans-Serif" font-size="10.00">flutter/method_channel.h</text>
</a>
</g>
</g>
<!-- Node31&#45;&gt;Node32 -->
<g id="edge52" class="edge">
<title>Node31&#45;&gt;Node32</title>
<path fill="none" stroke="#63b8ff" d="M1137.89,-131.95C1173.74,-120.48 1223.81,-104.46 1257.49,-93.68"/>
<polygon fill="#63b8ff" stroke="#63b8ff" points="1258.93,-96.9 1267.38,-90.52 1256.79,-90.23 1258.93,-96.9"/>
</g>
<!-- Node33 -->
<g id="node33" class="node">
<title>Node33</title>
<g id="a_node33"><a xlink:title=" ">
<polygon fill="#e0e0e0" stroke="#999999" points="1480,-96 1374,-96 1374,-66 1480,-66 1480,-96"/>
<text text-anchor="start" x="1382" y="-84" font-family="Helvetica,sans-Serif" font-size="10.00">flutter/method_result</text>
<text text-anchor="middle" x="1427" y="-73" font-family="Helvetica,sans-Serif" font-size="10.00">_functions.h</text>
</a>
</g>
</g>
<!-- Node31&#45;&gt;Node33 -->
<g id="edge53" class="edge">
<title>Node31&#45;&gt;Node33</title>
<path fill="none" stroke="#63b8ff" d="M1142.79,-134.92C1147.59,-133.9 1152.38,-132.91 1157,-132 1245.89,-114.44 1271.27,-114.32 1363.85,-96.16"/>
<polygon fill="#63b8ff" stroke="#63b8ff" points="1364.81,-99.54 1373.94,-94.17 1363.45,-92.68 1364.81,-99.54"/>
</g>
<!-- Node34 -->
<g id="node34" class="node">
<title>Node34</title>
<g id="a_node34"><a xlink:title=" ">
<polygon fill="#e0e0e0" stroke="#999999" points="1653.5,-96 1498.5,-96 1498.5,-66 1653.5,-66 1653.5,-96"/>
<text text-anchor="start" x="1506.5" y="-84" font-family="Helvetica,sans-Serif" font-size="10.00">flutter/shell/platform</text>
<text text-anchor="middle" x="1576" y="-73" font-family="Helvetica,sans-Serif" font-size="10.00">/common/json_method_codec.h</text>
</a>
</g>
</g>
<!-- Node31&#45;&gt;Node34 -->
<g id="edge55" class="edge">
<title>Node31&#45;&gt;Node34</title>
<path fill="none" stroke="#63b8ff" d="M1142.74,-134.61C1147.54,-133.66 1152.36,-132.77 1157,-132 1300.3,-108.38 1340.2,-115.47 1488.33,-96.04"/>
<polygon fill="#63b8ff" stroke="#63b8ff" points="1488.79,-99.5 1498.24,-94.72 1487.87,-92.57 1488.79,-99.5"/>
</g>
<!-- Node35 -->
<g id="node35" class="node">
<title>Node35</title>
<g id="a_node35"><a xlink:title=" ">
<polygon fill="#e0e0e0" stroke="#999999" points="1814.5,-96 1671.5,-96 1671.5,-66 1814.5,-66 1814.5,-96"/>
<text text-anchor="start" x="1679.5" y="-84" font-family="Helvetica,sans-Serif" font-size="10.00">flutter/shell/platform</text>
<text text-anchor="middle" x="1743" y="-73" font-family="Helvetica,sans-Serif" font-size="10.00">/common/text_input_model.h</text>
</a>
</g>
</g>
<!-- Node31&#45;&gt;Node35 -->
<g id="edge56" class="edge">
<title>Node31&#45;&gt;Node35</title>
<path fill="none" stroke="#63b8ff" d="M1142.71,-134.43C1147.52,-133.51 1152.34,-132.68 1157,-132 1376.83,-99.93 1437.45,-122.78 1661.01,-96.16"/>
<polygon fill="#63b8ff" stroke="#63b8ff" points="1661.59,-99.62 1671.09,-94.94 1660.75,-92.67 1661.59,-99.62"/>
</g>
<!-- Node36&#45;&gt;Node2 -->
<g id="edge63" class="edge">
<title>Node36&#45;&gt;Node2</title>
<path fill="none" stroke="#63b8ff" d="M976.11,-202.66C1022.88,-197.66 1094.47,-186.47 1152,-162 1173.44,-152.88 1172.98,-139.62 1195,-132 1327.31,-86.21 1687.33,-126.39 1824,-96 1826.37,-95.47 1828.79,-94.8 1831.2,-94.05"/>
<polygon fill="#63b8ff" stroke="#63b8ff" points="1832.62,-97.25 1840.83,-90.56 1830.23,-90.67 1832.62,-97.25"/>
</g>
<!-- Node36&#45;&gt;Node14 -->
<g id="edge62" class="edge">
<title>Node36&#45;&gt;Node14</title>
<path fill="none" stroke="#63b8ff" d="M877.87,-205.29C773.26,-202.17 531.86,-191.85 456,-162 435.65,-153.99 437.19,-140.41 417,-132 306.06,-85.8 263.6,-132.2 149,-96 147.78,-95.62 146.55,-95.18 145.33,-94.7"/>
<polygon fill="#63b8ff" stroke="#63b8ff" points="146.73,-91.49 136.18,-90.51 143.81,-97.86 146.73,-91.49"/>
</g>
<!-- Node36&#45;&gt;Node23 -->
<g id="edge69" class="edge">
<title>Node36&#45;&gt;Node23</title>
<path fill="none" stroke="#63b8ff" d="M880.8,-197.95C751.84,-174.06 393.9,-107.59 341,-96 336.64,-95.05 332.11,-94 327.59,-92.92"/>
<polygon fill="#63b8ff" stroke="#63b8ff" points="328.34,-89.5 317.79,-90.54 326.68,-96.3 328.34,-89.5"/>
</g>
<!-- Node37 -->
<g id="node37" class="node">
<title>Node37</title>
<g id="a_node37"><a xlink:href="configuration_8h.html" target="_top" xlink:title=" ">
<polygon fill="white" stroke="#666666" points="1012.5,-156.5 873.5,-156.5 873.5,-137.5 1012.5,-137.5 1012.5,-156.5"/>
<text text-anchor="middle" x="943" y="-144.5" font-family="Helvetica,sans-Serif" font-size="10.00">configuration/configuration.h</text>
</a>
</g>
</g>
<!-- Node36&#45;&gt;Node37 -->
<g id="edge64" class="edge">
<title>Node36&#45;&gt;Node37</title>
<path fill="none" stroke="#63b8ff" d="M929.36,-197.87C931.61,-189.66 935.06,-177.04 937.93,-166.55"/>
<polygon fill="#63b8ff" stroke="#63b8ff" points="941.37,-167.24 940.63,-156.67 934.62,-165.39 941.37,-167.24"/>
</g>
<!-- Node38 -->
<g id="node38" class="node">
<title>Node38</title>
<g id="a_node38"><a xlink:href="window_8h.html" target="_top" xlink:title=" ">
<polygon fill="white" stroke="#666666" points="2227,-156.5 2131,-156.5 2131,-137.5 2227,-137.5 2227,-156.5"/>
<text text-anchor="middle" x="2179" y="-144.5" font-family="Helvetica,sans-Serif" font-size="10.00">wayland/window.h</text>
</a>
</g>
</g>
<!-- Node36&#45;&gt;Node38 -->
<g id="edge70" class="edge">
<title>Node36&#45;&gt;Node38</title>
<path fill="none" stroke="#63b8ff" d="M976.08,-204.21C1173.36,-194.99 1908.1,-160.66 2120.9,-150.71"/>
<polygon fill="#63b8ff" stroke="#63b8ff" points="2121.11,-154.21 2130.93,-150.25 2120.78,-147.22 2121.11,-154.21"/>
</g>
<!-- Node37&#45;&gt;Node3 -->
<g id="edge66" class="edge">
<title>Node37&#45;&gt;Node3</title>
<path fill="none" stroke="#63b8ff" d="M992.62,-137.43C1006.91,-135.28 1022.53,-133.24 1037,-132 1209.3,-117.23 2424.37,-134.36 2593,-96 2594.94,-95.56 2596.91,-94.99 2598.87,-94.33"/>
<polygon fill="#63b8ff" stroke="#63b8ff" points="2600.36,-97.51 2608.34,-90.54 2597.75,-91.01 2600.36,-97.51"/>
</g>
<!-- Node37&#45;&gt;Node17 -->
<g id="edge65" class="edge">
<title>Node37&#45;&gt;Node17</title>
<path fill="none" stroke="#63b8ff" d="M902.76,-137.47C864.26,-128.8 804.84,-114.1 755,-96 753.78,-95.56 752.55,-95.09 751.31,-94.59"/>
<polygon fill="#63b8ff" stroke="#63b8ff" points="752.48,-91.29 741.91,-90.53 749.7,-97.71 752.48,-91.29"/>
</g>
<!-- Node37&#45;&gt;Node23 -->
<g id="edge67" class="edge">
<title>Node37&#45;&gt;Node23</title>
<path fill="none" stroke="#63b8ff" d="M899.24,-137.44C887.81,-135.42 875.47,-133.44 864,-132 651.74,-105.3 596.69,-118.99 384,-96 371.54,-94.65 358.23,-92.95 345.55,-91.2"/>
<polygon fill="#63b8ff" stroke="#63b8ff" points="345.93,-87.72 335.54,-89.8 344.95,-94.66 345.93,-87.72"/>
</g>
<!-- Node37&#45;&gt;Node29 -->
<g id="edge68" class="edge">
<title>Node37&#45;&gt;Node29</title>
<path fill="none" stroke="#63b8ff" d="M926.28,-137.37C905.38,-126.59 869.41,-108.02 844.93,-95.38"/>
<polygon fill="#63b8ff" stroke="#63b8ff" points="846.35,-92.18 835.85,-90.7 843.14,-98.4 846.35,-92.18"/>
</g>
<!-- Node38&#45;&gt;Node2 -->
<g id="edge71" class="edge">
<title>Node38&#45;&gt;Node2</title>
<path fill="none" stroke="#63b8ff" d="M2143.02,-137.48C2134.51,-135.57 2125.45,-133.63 2117,-132 2018.43,-112.93 1990.75,-122.81 1894,-96 1892.06,-95.46 1890.08,-94.85 1888.1,-94.19"/>
<polygon fill="#63b8ff" stroke="#63b8ff" points="1888.95,-90.78 1878.36,-90.63 1886.55,-97.35 1888.95,-90.78"/>
</g>
<!-- Node38&#45;&gt;Node4 -->
<g id="edge76" class="edge">
<title>Node38&#45;&gt;Node4</title>
<path fill="none" stroke="#63b8ff" d="M2183.06,-156.77C2195.33,-183.27 2232.16,-262.85 2248.75,-298.67"/>
<polygon fill="#63b8ff" stroke="#63b8ff" points="2245.65,-300.31 2253.02,-307.91 2252,-297.37 2245.65,-300.31"/>
</g>
<!-- Node38&#45;&gt;Node6 -->
<g id="edge75" class="edge">
<title>Node38&#45;&gt;Node6</title>
<path fill="none" stroke="#63b8ff" d="M2214.3,-137.47C2223,-135.52 2232.31,-133.57 2241,-132 2358.41,-110.84 2390.7,-122.57 2507,-96 2510.04,-95.31 2513.17,-94.49 2516.29,-93.61"/>
<polygon fill="#63b8ff" stroke="#63b8ff" points="2517.56,-96.88 2526.11,-90.62 2515.52,-90.18 2517.56,-96.88"/>
</g>
<!-- Node38&#45;&gt;Node17 -->
<g id="edge72" class="edge">
<title>Node38&#45;&gt;Node17</title>
<path fill="none" stroke="#63b8ff" d="M2130.9,-145.45C1897.77,-142.64 890.97,-128.68 755,-96 753.27,-95.58 751.52,-95.06 749.78,-94.47"/>
<polygon fill="#63b8ff" stroke="#63b8ff" points="750.72,-91.07 740.14,-90.5 748.05,-97.55 750.72,-91.07"/>
</g>
<!-- Node39 -->
<g id="node39" class="node">
<title>Node39</title>
<g id="a_node39"><a xlink:title=" ">
<polygon fill="#e0e0e0" stroke="#999999" points="2098.5,-90.5 2049.5,-90.5 2049.5,-71.5 2098.5,-71.5 2098.5,-90.5"/>
<text text-anchor="middle" x="2074" y="-78.5" font-family="Helvetica,sans-Serif" font-size="10.00">cassert</text>
</a>
</g>
</g>
<!-- Node38&#45;&gt;Node39 -->
<g id="edge73" class="edge">
<title>Node38&#45;&gt;Node39</title>
<path fill="none" stroke="#63b8ff" d="M2164.84,-137.37C2147.46,-126.78 2117.76,-108.67 2097.07,-96.06"/>
<polygon fill="#63b8ff" stroke="#63b8ff" points="2098.63,-92.92 2088.27,-90.7 2094.99,-98.89 2098.63,-92.92"/>
</g>
<!-- Node40 -->
<g id="node40" class="node">
<title>Node40</title>
<g id="a_node40"><a xlink:title=" ">
<polygon fill="#e0e0e0" stroke="#999999" points="2241.5,-90.5 2116.5,-90.5 2116.5,-71.5 2241.5,-71.5 2241.5,-90.5"/>
<text text-anchor="middle" x="2179" y="-78.5" font-family="Helvetica,sans-Serif" font-size="10.00">agl&#45;shell&#45;client&#45;protocol.h</text>
</a>
</g>
</g>
<!-- Node38&#45;&gt;Node40 -->
<g id="edge74" class="edge">
<title>Node38&#45;&gt;Node40</title>
<path fill="none" stroke="#63b8ff" d="M2179,-137.37C2179,-128.16 2179,-113.29 2179,-101.27"/>
<polygon fill="#63b8ff" stroke="#63b8ff" points="2182.5,-100.91 2179,-90.91 2175.5,-100.91 2182.5,-100.91"/>
</g>
<!-- Node41 -->
<g id="node41" class="node">
<title>Node41</title>
<g id="a_node41"><a xlink:title=" ">
<polygon fill="#e0e0e0" stroke="#999999" points="2362,-96 2260,-96 2260,-66 2362,-66 2362,-96"/>
<text text-anchor="start" x="2268" y="-84" font-family="Helvetica,sans-Serif" font-size="10.00">ivi&#45;application&#45;client</text>
<text text-anchor="middle" x="2311" y="-73" font-family="Helvetica,sans-Serif" font-size="10.00">&#45;protocol.h</text>
</a>
</g>
</g>
<!-- Node38&#45;&gt;Node41 -->
<g id="edge77" class="edge">
<title>Node38&#45;&gt;Node41</title>
<path fill="none" stroke="#63b8ff" d="M2196.8,-137.37C2216.15,-127.99 2247.64,-112.72 2272.65,-100.59"/>
<polygon fill="#63b8ff" stroke="#63b8ff" points="2274.42,-103.63 2281.89,-96.12 2271.36,-97.33 2274.42,-103.63"/>
</g>
<!-- Node42 -->
<g id="node42" class="node">
<title>Node42</title>
<g id="a_node42"><a xlink:title=" ">
<polygon fill="#e0e0e0" stroke="#999999" points="2497.5,-90.5 2380.5,-90.5 2380.5,-71.5 2497.5,-71.5 2497.5,-90.5"/>
<text text-anchor="middle" x="2439" y="-78.5" font-family="Helvetica,sans-Serif" font-size="10.00">ivi&#45;wm&#45;client&#45;protocol.h</text>
</a>
</g>
</g>
<!-- Node38&#45;&gt;Node42 -->
<g id="edge78" class="edge">
<title>Node38&#45;&gt;Node42</title>
<path fill="none" stroke="#63b8ff" d="M2213.79,-137.44C2260.5,-125.94 2343.48,-105.51 2394.63,-92.92"/>
<polygon fill="#63b8ff" stroke="#63b8ff" points="2395.54,-96.3 2404.41,-90.51 2393.86,-89.51 2395.54,-96.3"/>
</g>
<!-- Node43 -->
<g id="node43" class="node">
<title>Node43</title>
<g id="a_node43"><a xlink:title=" ">
<polygon fill="#e0e0e0" stroke="#999999" points="2031,-90.5 1903,-90.5 1903,-71.5 2031,-71.5 2031,-90.5"/>
<text text-anchor="middle" x="1967" y="-78.5" font-family="Helvetica,sans-Serif" font-size="10.00">xdg&#45;shell&#45;client&#45;protocol.h</text>
</a>
</g>
</g>
<!-- Node38&#45;&gt;Node43 -->
<g id="edge79" class="edge">
<title>Node38&#45;&gt;Node43</title>
<path fill="none" stroke="#63b8ff" d="M2150.41,-137.37C2112.92,-126.05 2047.04,-106.16 2005.28,-93.56"/>
<polygon fill="#63b8ff" stroke="#63b8ff" points="2006.06,-90.14 1995.48,-90.6 2004.04,-96.84 2006.06,-90.14"/>
</g>
<!-- Node44&#45;&gt;Node3 -->
<g id="edge83" class="edge">
<title>Node44&#45;&gt;Node3</title>
<path fill="none" stroke="#63b8ff" d="M2665.53,-137.37C2658.2,-127.59 2646.07,-111.42 2636.81,-99.08"/>
<polygon fill="#63b8ff" stroke="#63b8ff" points="2639.48,-96.81 2630.68,-90.91 2633.88,-101.01 2639.48,-96.81"/>
</g>
<!-- Node44&#45;&gt;Node6 -->
<g id="edge86" class="edge">
<title>Node44&#45;&gt;Node6</title>
<path fill="none" stroke="#63b8ff" d="M2655.55,-137.37C2634.99,-126.59 2599.6,-108.02 2575.51,-95.38"/>
<polygon fill="#63b8ff" stroke="#63b8ff" points="2577.06,-92.25 2566.58,-90.7 2573.81,-98.44 2577.06,-92.25"/>
</g>
<!-- Node44&#45;&gt;Node7 -->
<g id="edge84" class="edge">
<title>Node44&#45;&gt;Node7</title>
<path fill="none" stroke="#63b8ff" d="M2674.88,-137.16C2678.12,-127.18 2683.52,-110.45 2688,-96 2694.49,-75.07 2701.68,-50.97 2706.48,-34.74"/>
<polygon fill="#63b8ff" stroke="#63b8ff" points="2709.91,-35.48 2709.39,-24.89 2703.2,-33.49 2709.91,-35.48"/>
</g>
<!-- Node44&#45;&gt;Node22 -->
<g id="edge82" class="edge">
<title>Node44&#45;&gt;Node22</title>
<path fill="none" stroke="#63b8ff" d="M2673.23,-137.29C2675.04,-120.45 2676.22,-83.56 2655,-66 2608.78,-27.74 644.24,-17.43 361.7,-16.15"/>
<polygon fill="#63b8ff" stroke="#63b8ff" points="361.31,-12.64 351.29,-16.1 361.27,-19.64 361.31,-12.64"/>
</g>
<!-- Node45 -->
<g id="node45" class="node">
<title>Node45</title>
<g id="a_node45"><a xlink:title=" ">
<polygon fill="#e0e0e0" stroke="#999999" points="2814,-90.5 2740,-90.5 2740,-71.5 2814,-71.5 2814,-90.5"/>
<text text-anchor="middle" x="2777" y="-78.5" font-family="Helvetica,sans-Serif" font-size="10.00">EGL/eglext.h</text>
</a>
</g>
</g>
<!-- Node44&#45;&gt;Node45 -->
<g id="edge85" class="edge">
<title>Node44&#45;&gt;Node45</title>
<path fill="none" stroke="#63b8ff" d="M2686.16,-137.37C2703.54,-126.78 2733.24,-108.67 2753.93,-96.06"/>
<polygon fill="#63b8ff" stroke="#63b8ff" points="2756.01,-98.89 2762.73,-90.7 2752.37,-92.92 2756.01,-98.89"/>
</g>
</g>
</svg>
