<?xml version="1.0" encoding="UTF-8" standalone="no"?>
<!DOCTYPE svg PUBLIC "-//W3C//DTD SVG 1.1//EN"
 "http://www.w3.org/Graphics/SVG/1.1/DTD/svg11.dtd">
<!-- Generated by graphviz version 5.0.0 (0)
 -->
<!-- Title: /mnt/raid10/stargate/ivi&#45;homescreen/shell/backend/wayland_vulkan.h Pages: 1 -->
<svg width="3162pt" height="412pt"
 viewBox="0.00 0.00 3161.82 412.00" xmlns="http://www.w3.org/2000/svg" xmlns:xlink="http://www.w3.org/1999/xlink">
<g id="graph0" class="graph" transform="scale(1 1) rotate(0) translate(4 408)">
<title>/mnt/raid10/stargate/ivi&#45;homescreen/shell/backend/wayland_vulkan.h</title>
<!-- Node1 -->
<g id="node1" class="node">
<title>Node1</title>
<g id="a_node1"><a xlink:title=" ">
<polygon fill="#999999" stroke="#666666" points="218.5,-404 81.5,-404 81.5,-363 218.5,-363 218.5,-404"/>
<text text-anchor="start" x="89.5" y="-392" font-family="Helvetica,sans-Serif" font-size="10.00">/mnt/raid10/stargate</text>
<text text-anchor="start" x="89.5" y="-381" font-family="Helvetica,sans-Serif" font-size="10.00">/ivi&#45;homescreen/shell</text>
<text text-anchor="middle" x="150" y="-370" font-family="Helvetica,sans-Serif" font-size="10.00">/backend/wayland_vulkan.h</text>
</a>
</g>
</g>
<!-- Node2 -->
<g id="node2" class="node">
<title>Node2</title>
<g id="a_node2"><a xlink:title=" ">
<polygon fill="#e0e0e0" stroke="#999999" points="46,-327 0,-327 0,-308 46,-308 46,-327"/>
<text text-anchor="middle" x="23" y="-315" font-family="Helvetica,sans-Serif" font-size="10.00">cstdint</text>
</a>
</g>
</g>
<!-- Node1&#45;&gt;Node2 -->
<g id="edge1" class="edge">
<title>Node1&#45;&gt;Node2</title>
<path fill="none" stroke="#63b8ff" d="M111.21,-362.95C91.14,-352.84 67.18,-340.76 49.3,-331.75"/>
<polygon fill="#63b8ff" stroke="#63b8ff" points="50.55,-328.47 40.05,-327.09 47.4,-334.72 50.55,-328.47"/>
</g>
<!-- Node3 -->
<g id="node3" class="node">
<title>Node3</title>
<g id="a_node3"><a xlink:title=" ">
<polygon fill="#e0e0e0" stroke="#999999" points="248,-90.5 204,-90.5 204,-71.5 248,-71.5 248,-90.5"/>
<text text-anchor="middle" x="226" y="-78.5" font-family="Helvetica,sans-Serif" font-size="10.00">vector</text>
</a>
</g>
</g>
<!-- Node1&#45;&gt;Node3 -->
<g id="edge2" class="edge">
<title>Node1&#45;&gt;Node3</title>
<path fill="none" stroke="#63b8ff" d="M154.99,-362.78C168.86,-307.93 207.78,-154.05 221.3,-100.58"/>
<polygon fill="#63b8ff" stroke="#63b8ff" points="224.72,-101.32 223.78,-90.77 217.94,-99.61 224.72,-101.32"/>
</g>
<!-- Node4 -->
<g id="node4" class="node">
<title>Node4</title>
<g id="a_node4"><a xlink:title=" ">
<polygon fill="#e0e0e0" stroke="#999999" points="1477.5,-30 1356.5,-30 1356.5,0 1477.5,0 1477.5,-30"/>
<text text-anchor="start" x="1364.5" y="-18" font-family="Helvetica,sans-Serif" font-size="10.00">shell/platform/embedder</text>
<text text-anchor="middle" x="1417" y="-7" font-family="Helvetica,sans-Serif" font-size="10.00">/embedder.h</text>
</a>
</g>
</g>
<!-- Node1&#45;&gt;Node4 -->
<g id="edge3" class="edge">
<title>Node1&#45;&gt;Node4</title>
<path fill="none" stroke="#63b8ff" d="M127.2,-362.62C104.81,-340.78 74,-303.46 74,-263.5 74,-263.5 74,-263.5 74,-146 74,-104.07 87.73,-87.03 124,-66 177.13,-35.2 1083.17,-20.53 1346.05,-16.91"/>
<polygon fill="#63b8ff" stroke="#63b8ff" points="1346.28,-20.41 1356.23,-16.77 1346.19,-13.41 1346.28,-20.41"/>
</g>
<!-- Node5 -->
<g id="node5" class="node">
<title>Node5</title>
<g id="a_node5"><a xlink:href="backend_8h.html" target="_top" xlink:title=" ">
<polygon fill="white" stroke="#666666" points="830.5,-327 729.5,-327 729.5,-308 830.5,-308 830.5,-327"/>
<text text-anchor="middle" x="780" y="-315" font-family="Helvetica,sans-Serif" font-size="10.00">backend/backend.h</text>
</a>
</g>
</g>
<!-- Node1&#45;&gt;Node5 -->
<g id="edge4" class="edge">
<title>Node1&#45;&gt;Node5</title>
<path fill="none" stroke="#63b8ff" d="M218.62,-375.53C342.45,-362.95 601.32,-336.65 719.2,-324.68"/>
<polygon fill="#63b8ff" stroke="#63b8ff" points="719.88,-328.13 729.48,-323.63 719.17,-321.16 719.88,-328.13"/>
</g>
<!-- Node48 -->
<g id="node48" class="node">
<title>Node48</title>
<g id="a_node48"><a xlink:title=" ">
<polygon fill="#e0e0e0" stroke="#999999" points="937.5,-327 848.5,-327 848.5,-308 937.5,-308 937.5,-327"/>
<text text-anchor="middle" x="893" y="-315" font-family="Helvetica,sans-Serif" font-size="10.00">bluevk/BlueVK.h</text>
</a>
</g>
</g>
<!-- Node1&#45;&gt;Node48 -->
<g id="edge83" class="edge">
<title>Node1&#45;&gt;Node48</title>
<path fill="none" stroke="#63b8ff" d="M218.63,-378.7C340.97,-371.54 604.97,-354.39 838.22,-327"/>
<polygon fill="#63b8ff" stroke="#63b8ff" points="838.73,-330.46 848.25,-325.81 837.91,-323.51 838.73,-330.46"/>
</g>
<!-- Node5&#45;&gt;Node4 -->
<g id="edge5" class="edge">
<title>Node5&#45;&gt;Node4</title>
<path fill="none" stroke="#63b8ff" d="M729.24,-313.64C573.36,-304.2 112,-270.98 112,-208.5 112,-208.5 112,-208.5 112,-146 112,-102.08 131.29,-86.74 170,-66 222.04,-38.12 1089.55,-21.47 1346.09,-17.14"/>
<polygon fill="#63b8ff" stroke="#63b8ff" points="1346.47,-20.63 1356.41,-16.96 1346.35,-13.63 1346.47,-20.63"/>
</g>
<!-- Node6 -->
<g id="node6" class="node">
<title>Node6</title>
<g id="a_node6"><a xlink:href="constants_8h.html" target="_top" xlink:title=" ">
<polygon fill="white" stroke="#666666" points="2525,-90.5 2457,-90.5 2457,-71.5 2525,-71.5 2525,-90.5"/>
<text text-anchor="middle" x="2491" y="-78.5" font-family="Helvetica,sans-Serif" font-size="10.00">constants.h</text>
</a>
</g>
</g>
<!-- Node5&#45;&gt;Node6 -->
<g id="edge6" class="edge">
<title>Node5&#45;&gt;Node6</title>
<path fill="none" stroke="#63b8ff" d="M830.51,-309.07C833.38,-308.69 836.23,-308.34 839,-308 1452.18,-233.87 1615.92,-285.93 2221,-162 2307.7,-144.24 2406.8,-111.59 2457.4,-94"/>
<polygon fill="#63b8ff" stroke="#63b8ff" points="2458.87,-97.19 2467.15,-90.58 2456.56,-90.58 2458.87,-97.19"/>
</g>
<!-- Node9 -->
<g id="node9" class="node">
<title>Node9</title>
<g id="a_node9"><a xlink:href="engine_8h.html" target="_top" xlink:title=" ">
<polygon fill="white" stroke="#666666" points="806.5,-272 753.5,-272 753.5,-253 806.5,-253 806.5,-272"/>
<text text-anchor="middle" x="780" y="-260" font-family="Helvetica,sans-Serif" font-size="10.00">engine.h</text>
</a>
</g>
</g>
<!-- Node5&#45;&gt;Node9 -->
<g id="edge10" class="edge">
<title>Node5&#45;&gt;Node9</title>
<path fill="none" stroke="#63b8ff" d="M774.83,-307.75C773.34,-300.8 772.9,-290.85 773.52,-282.13"/>
<polygon fill="#63b8ff" stroke="#63b8ff" points="777.01,-282.47 774.87,-272.09 770.07,-281.53 777.01,-282.47"/>
</g>
<!-- Node6&#45;&gt;Node4 -->
<g id="edge8" class="edge">
<title>Node6&#45;&gt;Node4</title>
<path fill="none" stroke="#63b8ff" d="M2468.53,-71.44C2462,-69.29 2454.8,-67.25 2448,-66 2354.31,-48.8 1705.03,-25.68 1487.69,-18.34"/>
<polygon fill="#63b8ff" stroke="#63b8ff" points="1487.79,-14.84 1477.68,-18 1487.55,-21.84 1487.79,-14.84"/>
</g>
<!-- Node7 -->
<g id="node7" class="node">
<title>Node7</title>
<g id="a_node7"><a xlink:title=" ">
<polygon fill="#e0e0e0" stroke="#999999" points="2005,-24.5 1945,-24.5 1945,-5.5 2005,-5.5 2005,-24.5"/>
<text text-anchor="middle" x="1975" y="-12.5" font-family="Helvetica,sans-Serif" font-size="10.00">EGL/egl.h</text>
</a>
</g>
</g>
<!-- Node6&#45;&gt;Node7 -->
<g id="edge7" class="edge">
<title>Node6&#45;&gt;Node7</title>
<path fill="none" stroke="#63b8ff" d="M2467.59,-71.39C2461.3,-69.35 2454.45,-67.37 2448,-66 2290.17,-32.35 2097.65,-20.94 2015.4,-17.42"/>
<polygon fill="#63b8ff" stroke="#63b8ff" points="2015.36,-13.92 2005.23,-17 2015.07,-20.91 2015.36,-13.92"/>
</g>
<!-- Node8 -->
<g id="node8" class="node">
<title>Node8</title>
<g id="a_node8"><a xlink:title=" ">
<polygon fill="#e0e0e0" stroke="#999999" points="2510,-24.5 2472,-24.5 2472,-5.5 2510,-5.5 2510,-24.5"/>
<text text-anchor="middle" x="2491" y="-12.5" font-family="Helvetica,sans-Serif" font-size="10.00">array</text>
</a>
</g>
</g>
<!-- Node6&#45;&gt;Node8 -->
<g id="edge9" class="edge">
<title>Node6&#45;&gt;Node8</title>
<path fill="none" stroke="#63b8ff" d="M2491,-71.37C2491,-62.16 2491,-47.29 2491,-35.27"/>
<polygon fill="#63b8ff" stroke="#63b8ff" points="2494.5,-34.91 2491,-24.91 2487.5,-34.91 2494.5,-34.91"/>
</g>
<!-- Node9&#45;&gt;Node3 -->
<g id="edge22" class="edge">
<title>Node9&#45;&gt;Node3</title>
<path fill="none" stroke="#63b8ff" d="M753.46,-254.63C724.41,-246.79 676.68,-232.97 637,-217 619.48,-209.95 617.11,-203.34 599,-198 459.19,-156.76 395.34,-241.25 273,-162 250.86,-147.66 237.81,-118.93 231.28,-100.08"/>
<polygon fill="#63b8ff" stroke="#63b8ff" points="234.62,-99.02 228.24,-90.55 227.95,-101.14 234.62,-99.02"/>
</g>
<!-- Node9&#45;&gt;Node4 -->
<g id="edge15" class="edge">
<title>Node9&#45;&gt;Node4</title>
<path fill="none" stroke="#63b8ff" d="M806.81,-260.69C1062.69,-252.85 3065.41,-188.56 3147,-96 3155.82,-86 3156.29,-75.56 3147,-66 3145.16,-64.11 1813.17,-27 1487.97,-17.97"/>
<polygon fill="#63b8ff" stroke="#63b8ff" points="1487.83,-14.46 1477.74,-17.68 1487.64,-21.46 1487.83,-14.46"/>
</g>
<!-- Node9&#45;&gt;Node5 -->
<g id="edge23" class="edge">
<title>Node9&#45;&gt;Node5</title>
<path fill="none" stroke="#63b8ff" d="M785.13,-272.09C786.64,-278.99 787.09,-288.93 786.49,-297.66"/>
<polygon fill="#63b8ff" stroke="#63b8ff" points="783,-297.38 785.17,-307.75 789.94,-298.29 783,-297.38"/>
</g>
<!-- Node9&#45;&gt;Node6 -->
<g id="edge24" class="edge">
<title>Node9&#45;&gt;Node6</title>
<path fill="none" stroke="#63b8ff" d="M806.68,-261.21C945.33,-259.36 1597.24,-246.35 2122,-162 2267.95,-138.54 2305.04,-133.61 2448,-96 2450.78,-95.27 2453.64,-94.46 2456.5,-93.61"/>
<polygon fill="#63b8ff" stroke="#63b8ff" points="2457.61,-96.93 2466.13,-90.63 2455.54,-90.25 2457.61,-96.93"/>
</g>
<!-- Node9&#45;&gt;Node7 -->
<g id="edge12" class="edge">
<title>Node9&#45;&gt;Node7</title>
<path fill="none" stroke="#63b8ff" d="M753.37,-261.4C645.7,-260.72 246.44,-255.61 207,-217 158.89,-169.91 148.06,-114.26 195,-66 220.03,-40.26 1451.11,-31.01 1487,-30 1653.15,-25.3 1851.12,-19.59 1934.65,-17.17"/>
<polygon fill="#63b8ff" stroke="#63b8ff" points="1934.84,-20.66 1944.73,-16.88 1934.64,-13.67 1934.84,-20.66"/>
</g>
<!-- Node10 -->
<g id="node10" class="node">
<title>Node10</title>
<g id="a_node10"><a xlink:title=" ">
<polygon fill="#e0e0e0" stroke="#999999" points="275.5,-217 216.5,-217 216.5,-198 275.5,-198 275.5,-217"/>
<text text-anchor="middle" x="246" y="-205" font-family="Helvetica,sans-Serif" font-size="10.00">functional</text>
</a>
</g>
</g>
<!-- Node9&#45;&gt;Node10 -->
<g id="edge11" class="edge">
<title>Node9&#45;&gt;Node10</title>
<path fill="none" stroke="#63b8ff" d="M753.3,-260.27C680.17,-256.67 470.38,-244.67 285.9,-216.93"/>
<polygon fill="#63b8ff" stroke="#63b8ff" points="286.15,-213.43 275.74,-215.38 285.1,-220.35 286.15,-213.43"/>
</g>
<!-- Node11 -->
<g id="node11" class="node">
<title>Node11</title>
<g id="a_node11"><a xlink:title=" ">
<polygon fill="#e0e0e0" stroke="#999999" points="366,-217 294,-217 294,-198 366,-198 366,-217"/>
<text text-anchor="middle" x="330" y="-205" font-family="Helvetica,sans-Serif" font-size="10.00">GLES2/gl2.h</text>
</a>
</g>
</g>
<!-- Node9&#45;&gt;Node11 -->
<g id="edge13" class="edge">
<title>Node9&#45;&gt;Node11</title>
<path fill="none" stroke="#63b8ff" d="M753.37,-259.29C689.93,-253.88 524.67,-238.88 376.49,-217.12"/>
<polygon fill="#63b8ff" stroke="#63b8ff" points="376.71,-213.61 366.31,-215.61 375.69,-220.54 376.71,-213.61"/>
</g>
<!-- Node12 -->
<g id="node12" class="node">
<title>Node12</title>
<g id="a_node12"><a xlink:title=" ">
<polygon fill="#e0e0e0" stroke="#999999" points="509.5,-217 384.5,-217 384.5,-198 509.5,-198 509.5,-217"/>
<text text-anchor="middle" x="447" y="-205" font-family="Helvetica,sans-Serif" font-size="10.00">flutter/encodable_value.h</text>
</a>
</g>
</g>
<!-- Node9&#45;&gt;Node12 -->
<g id="edge14" class="edge">
<title>Node9&#45;&gt;Node12</title>
<path fill="none" stroke="#63b8ff" d="M753.31,-257.25C701.06,-248.94 583.97,-230.3 510.64,-218.63"/>
<polygon fill="#63b8ff" stroke="#63b8ff" points="511.02,-215.15 500.59,-217.03 509.92,-222.06 511.02,-215.15"/>
</g>
<!-- Node13 -->
<g id="node13" class="node">
<title>Node13</title>
<g id="a_node13"><a xlink:title=" ">
<polygon fill="#e0e0e0" stroke="#999999" points="590,-217 528,-217 528,-198 590,-198 590,-217"/>
<text text-anchor="middle" x="559" y="-205" font-family="Helvetica,sans-Serif" font-size="10.00">filesystem</text>
</a>
</g>
</g>
<!-- Node9&#45;&gt;Node13 -->
<g id="edge16" class="edge">
<title>Node9&#45;&gt;Node13</title>
<path fill="none" stroke="#63b8ff" d="M753.34,-255.11C715.21,-245.96 644.77,-229.07 599.99,-218.33"/>
<polygon fill="#63b8ff" stroke="#63b8ff" points="600.56,-214.87 590.01,-215.94 598.92,-221.67 600.56,-214.87"/>
</g>
<!-- Node14 -->
<g id="node14" class="node">
<title>Node14</title>
<g id="a_node14"><a xlink:title=" ">
<polygon fill="#e0e0e0" stroke="#999999" points="769.5,-90.5 734.5,-90.5 734.5,-71.5 769.5,-71.5 769.5,-90.5"/>
<text text-anchor="middle" x="752" y="-78.5" font-family="Helvetica,sans-Serif" font-size="10.00">map</text>
</a>
</g>
</g>
<!-- Node9&#45;&gt;Node14 -->
<g id="edge17" class="edge">
<title>Node9&#45;&gt;Node14</title>
<path fill="none" stroke="#63b8ff" d="M780.11,-252.85C779.77,-238.83 776.84,-211.36 760,-198 676.71,-131.95 355.28,-239.94 283,-162 273.93,-152.22 274.09,-141.92 283,-132 312.65,-99.02 628.02,-86.05 724.27,-82.84"/>
<polygon fill="#63b8ff" stroke="#63b8ff" points="724.51,-86.34 734.39,-82.52 724.28,-79.34 724.51,-86.34"/>
</g>
<!-- Node15 -->
<g id="node15" class="node">
<title>Node15</title>
<g id="a_node15"><a xlink:title=" ">
<polygon fill="#e0e0e0" stroke="#999999" points="2439,-90.5 2387,-90.5 2387,-71.5 2439,-71.5 2439,-90.5"/>
<text text-anchor="middle" x="2413" y="-78.5" font-family="Helvetica,sans-Serif" font-size="10.00">memory</text>
</a>
</g>
</g>
<!-- Node9&#45;&gt;Node15 -->
<g id="edge18" class="edge">
<title>Node9&#45;&gt;Node15</title>
<path fill="none" stroke="#63b8ff" d="M806.89,-260.79C939.84,-256.99 1540.07,-236.3 2025,-162 2173.71,-139.21 2210.2,-128.92 2357,-96 2363.42,-94.56 2370.22,-92.94 2376.8,-91.32"/>
<polygon fill="#63b8ff" stroke="#63b8ff" points="2378,-94.63 2386.85,-88.82 2376.3,-87.84 2378,-94.63"/>
</g>
<!-- Node16 -->
<g id="node16" class="node">
<title>Node16</title>
<g id="a_node16"><a xlink:title=" ">
<polygon fill="#e0e0e0" stroke="#999999" points="690,-217 646,-217 646,-198 690,-198 690,-217"/>
<text text-anchor="middle" x="668" y="-205" font-family="Helvetica,sans-Serif" font-size="10.00">mutex</text>
</a>
</g>
</g>
<!-- Node9&#45;&gt;Node16 -->
<g id="edge19" class="edge">
<title>Node9&#45;&gt;Node16</title>
<path fill="none" stroke="#63b8ff" d="M762.01,-252.98C744.07,-244.5 716.28,-231.35 695.57,-221.54"/>
<polygon fill="#63b8ff" stroke="#63b8ff" points="696.86,-218.28 686.32,-217.17 693.86,-224.61 696.86,-218.28"/>
</g>
<!-- Node17 -->
<g id="node17" class="node">
<title>Node17</title>
<g id="a_node17"><a xlink:title=" ">
<polygon fill="#e0e0e0" stroke="#999999" points="751.5,-217 708.5,-217 708.5,-198 751.5,-198 751.5,-217"/>
<text text-anchor="middle" x="730" y="-205" font-family="Helvetica,sans-Serif" font-size="10.00">queue</text>
</a>
</g>
</g>
<!-- Node9&#45;&gt;Node17 -->
<g id="edge20" class="edge">
<title>Node9&#45;&gt;Node17</title>
<path fill="none" stroke="#63b8ff" d="M771.74,-252.75C764.54,-245.11 753.89,-233.82 745.15,-224.56"/>
<polygon fill="#63b8ff" stroke="#63b8ff" points="747.51,-221.96 738.1,-217.09 742.42,-226.76 747.51,-221.96"/>
</g>
<!-- Node18 -->
<g id="node18" class="node">
<title>Node18</title>
<g id="a_node18"><a xlink:title=" ">
<polygon fill="#e0e0e0" stroke="#999999" points="828.5,-90.5 787.5,-90.5 787.5,-71.5 828.5,-71.5 828.5,-90.5"/>
<text text-anchor="middle" x="808" y="-78.5" font-family="Helvetica,sans-Serif" font-size="10.00">string</text>
</a>
</g>
</g>
<!-- Node9&#45;&gt;Node18 -->
<g id="edge21" class="edge">
<title>Node9&#45;&gt;Node18</title>
<path fill="none" stroke="#63b8ff" d="M806.54,-259.02C887.94,-250.83 1131.43,-221.65 1178,-162 1186.21,-151.49 1186.92,-141.91 1178,-132 1127.03,-75.36 910.28,-116.87 837,-96 835.55,-95.59 834.09,-95.11 832.64,-94.58"/>
<polygon fill="#63b8ff" stroke="#63b8ff" points="833.83,-91.29 823.26,-90.58 831.09,-97.72 833.83,-91.29"/>
</g>
<!-- Node19 -->
<g id="node19" class="node">
<title>Node19</title>
<g id="a_node19"><a xlink:href="logging_8h.html" target="_top" xlink:title=" ">
<polygon fill="white" stroke="#666666" points="864,-217 808,-217 808,-198 864,-198 864,-217"/>
<text text-anchor="middle" x="836" y="-205" font-family="Helvetica,sans-Serif" font-size="10.00">logging.h</text>
</a>
</g>
</g>
<!-- Node9&#45;&gt;Node19 -->
<g id="edge25" class="edge">
<title>Node9&#45;&gt;Node19</title>
<path fill="none" stroke="#63b8ff" d="M789,-252.98C797.19,-245.23 809.51,-233.58 819.47,-224.14"/>
<polygon fill="#63b8ff" stroke="#63b8ff" points="821.98,-226.59 826.84,-217.17 817.17,-221.5 821.98,-226.59"/>
</g>
<!-- Node27 -->
<g id="node27" class="node">
<title>Node27</title>
<g id="a_node27"><a xlink:href="platform__channel_8h.html" target="_top" xlink:title=" ">
<polygon fill="white" stroke="#666666" points="1169.5,-156.5 1070.5,-156.5 1070.5,-137.5 1169.5,-137.5 1169.5,-156.5"/>
<text text-anchor="middle" x="1120" y="-144.5" font-family="Helvetica,sans-Serif" font-size="10.00">platform_channel.h</text>
</a>
</g>
</g>
<!-- Node9&#45;&gt;Node27 -->
<g id="edge34" class="edge">
<title>Node9&#45;&gt;Node27</title>
<path fill="none" stroke="#63b8ff" d="M805.56,-252.97C865.61,-232.92 1015.83,-182.77 1084.61,-159.81"/>
<polygon fill="#63b8ff" stroke="#63b8ff" points="1085.77,-163.12 1094.15,-156.63 1083.55,-156.48 1085.77,-163.12"/>
</g>
<!-- Node28 -->
<g id="node28" class="node">
<title>Node28</title>
<g id="a_node28"><a xlink:href="key__event_8h.html" target="_top" xlink:title=" ">
<polygon fill="white" stroke="#666666" points="1562,-162 1460,-162 1460,-132 1562,-132 1562,-162"/>
<text text-anchor="start" x="1468" y="-150" font-family="Helvetica,sans-Serif" font-size="10.00">static_plugins/key</text>
<text text-anchor="middle" x="1511" y="-139" font-family="Helvetica,sans-Serif" font-size="10.00">_event/key_event.h</text>
</a>
</g>
</g>
<!-- Node9&#45;&gt;Node28 -->
<g id="edge38" class="edge">
<title>Node9&#45;&gt;Node28</title>
<path fill="none" stroke="#63b8ff" d="M806.81,-260.79C923.33,-257.58 1382.46,-243.33 1441,-217 1463.32,-206.96 1482.61,-186.51 1495.25,-170.47"/>
<polygon fill="#63b8ff" stroke="#63b8ff" points="1498.33,-172.19 1501.57,-162.1 1492.75,-167.97 1498.33,-172.19"/>
</g>
<!-- Node35 -->
<g id="node35" class="node">
<title>Node35</title>
<g id="a_node35"><a xlink:href="text__input_8h.html" target="_top" xlink:title=" ">
<polygon fill="white" stroke="#666666" points="1728.5,-162 1631.5,-162 1631.5,-132 1728.5,-132 1728.5,-162"/>
<text text-anchor="start" x="1639.5" y="-150" font-family="Helvetica,sans-Serif" font-size="10.00">static_plugins/text</text>
<text text-anchor="middle" x="1680" y="-139" font-family="Helvetica,sans-Serif" font-size="10.00">_input/text_input.h</text>
</a>
</g>
</g>
<!-- Node9&#45;&gt;Node35 -->
<g id="edge50" class="edge">
<title>Node9&#45;&gt;Node35</title>
<path fill="none" stroke="#63b8ff" d="M806.65,-260.67C916.9,-257.08 1337.67,-242.01 1468,-217 1527.77,-205.53 1594.11,-182.11 1636.38,-165.76"/>
<polygon fill="#63b8ff" stroke="#63b8ff" points="1637.77,-168.97 1645.81,-162.07 1635.22,-162.45 1637.77,-168.97"/>
</g>
<!-- Node40 -->
<g id="node40" class="node">
<title>Node40</title>
<g id="a_node40"><a xlink:href="flutter__view_8h.html" target="_top" xlink:title=" ">
<polygon fill="white" stroke="#666666" points="1432,-217 1334,-217 1334,-198 1432,-198 1432,-217"/>
<text text-anchor="middle" x="1383" y="-205" font-family="Helvetica,sans-Serif" font-size="10.00">view/flutter_view.h</text>
</a>
</g>
</g>
<!-- Node9&#45;&gt;Node40 -->
<g id="edge64" class="edge">
<title>Node9&#45;&gt;Node40</title>
<path fill="none" stroke="#63b8ff" d="M806.69,-259.15C897.45,-251.18 1195.65,-224.97 1323.71,-213.71"/>
<polygon fill="#63b8ff" stroke="#63b8ff" points="1324.08,-217.19 1333.73,-212.83 1323.46,-210.22 1324.08,-217.19"/>
</g>
<!-- Node19&#45;&gt;Node6 -->
<g id="edge33" class="edge">
<title>Node19&#45;&gt;Node6</title>
<path fill="none" stroke="#63b8ff" d="M864.08,-205.56C975.08,-201.75 1393.94,-186.47 1738,-162 2054.12,-139.52 2137.64,-160.12 2448,-96 2451.41,-95.3 2454.93,-94.42 2458.42,-93.44"/>
<polygon fill="#63b8ff" stroke="#63b8ff" points="2459.49,-96.77 2468.05,-90.51 2457.46,-90.07 2459.49,-96.77"/>
</g>
<!-- Node20 -->
<g id="node20" class="node">
<title>Node20</title>
<g id="a_node20"><a xlink:title=" ">
<polygon fill="#e0e0e0" stroke="#999999" points="567,-156.5 515,-156.5 515,-137.5 567,-137.5 567,-156.5"/>
<text text-anchor="middle" x="541" y="-144.5" font-family="Helvetica,sans-Serif" font-size="10.00">sstream</text>
</a>
</g>
</g>
<!-- Node19&#45;&gt;Node20 -->
<g id="edge26" class="edge">
<title>Node19&#45;&gt;Node20</title>
<path fill="none" stroke="#63b8ff" d="M807.56,-200.6C803.03,-199.7 798.39,-198.81 794,-198 697.41,-180.26 670.59,-188.39 576,-162 574.06,-161.46 572.08,-160.85 570.1,-160.19"/>
<polygon fill="#63b8ff" stroke="#63b8ff" points="570.96,-156.77 560.36,-156.61 568.55,-163.34 570.96,-156.77"/>
</g>
<!-- Node21 -->
<g id="node21" class="node">
<title>Node21</title>
<g id="a_node21"><a xlink:title=" ">
<polygon fill="#e0e0e0" stroke="#999999" points="673,-156.5 585,-156.5 585,-137.5 673,-137.5 673,-156.5"/>
<text text-anchor="middle" x="629" y="-144.5" font-family="Helvetica,sans-Serif" font-size="10.00">spdlog/cfg/env.h</text>
</a>
</g>
</g>
<!-- Node19&#45;&gt;Node21 -->
<g id="edge27" class="edge">
<title>Node19&#45;&gt;Node21</title>
<path fill="none" stroke="#63b8ff" d="M807.65,-198.49C771.82,-188.36 709.93,-170.87 669.22,-159.37"/>
<polygon fill="#63b8ff" stroke="#63b8ff" points="669.93,-155.93 659.36,-156.58 668.03,-162.67 669.93,-155.93"/>
</g>
<!-- Node22 -->
<g id="node22" class="node">
<title>Node22</title>
<g id="a_node22"><a xlink:title=" ">
<polygon fill="#e0e0e0" stroke="#999999" points="801,-162 691,-162 691,-132 801,-132 801,-162"/>
<text text-anchor="start" x="699" y="-150" font-family="Helvetica,sans-Serif" font-size="10.00">spdlog/sinks/callback</text>
<text text-anchor="middle" x="746" y="-139" font-family="Helvetica,sans-Serif" font-size="10.00">_sink.h</text>
</a>
</g>
</g>
<!-- Node19&#45;&gt;Node22 -->
<g id="edge28" class="edge">
<title>Node19&#45;&gt;Node22</title>
<path fill="none" stroke="#63b8ff" d="M822.72,-197.87C810.51,-189.93 791.96,-177.87 776.15,-167.6"/>
<polygon fill="#63b8ff" stroke="#63b8ff" points="778.01,-164.63 767.71,-162.11 774.19,-170.5 778.01,-164.63"/>
</g>
<!-- Node23 -->
<g id="node23" class="node">
<title>Node23</title>
<g id="a_node23"><a xlink:title=" ">
<polygon fill="#e0e0e0" stroke="#999999" points="933,-162 819,-162 819,-132 933,-132 933,-162"/>
<text text-anchor="start" x="827" y="-150" font-family="Helvetica,sans-Serif" font-size="10.00">spdlog/sinks/ringbuffer</text>
<text text-anchor="middle" x="876" y="-139" font-family="Helvetica,sans-Serif" font-size="10.00">_sink.h</text>
</a>
</g>
</g>
<!-- Node19&#45;&gt;Node23 -->
<g id="edge29" class="edge">
<title>Node19&#45;&gt;Node23</title>
<path fill="none" stroke="#63b8ff" d="M841.9,-197.87C846.83,-190.67 854.07,-180.07 860.62,-170.49"/>
<polygon fill="#63b8ff" stroke="#63b8ff" points="863.59,-172.34 866.35,-162.11 857.82,-168.39 863.59,-172.34"/>
</g>
<!-- Node24 -->
<g id="node24" class="node">
<title>Node24</title>
<g id="a_node24"><a xlink:title=" ">
<polygon fill="#e0e0e0" stroke="#999999" points="1052.5,-162 951.5,-162 951.5,-132 1052.5,-132 1052.5,-162"/>
<text text-anchor="start" x="959.5" y="-150" font-family="Helvetica,sans-Serif" font-size="10.00">spdlog/sinks/stdout</text>
<text text-anchor="middle" x="1002" y="-139" font-family="Helvetica,sans-Serif" font-size="10.00">_color_sinks.h</text>
</a>
</g>
</g>
<!-- Node19&#45;&gt;Node24 -->
<g id="edge30" class="edge">
<title>Node19&#45;&gt;Node24</title>
<path fill="none" stroke="#63b8ff" d="M860.14,-197.99C884.24,-189.5 921.97,-176.2 952.47,-165.45"/>
<polygon fill="#63b8ff" stroke="#63b8ff" points="953.82,-168.69 962.09,-162.06 951.5,-162.09 953.82,-168.69"/>
</g>
<!-- Node25 -->
<g id="node25" class="node">
<title>Node25</title>
<g id="a_node25"><a xlink:title=" ">
<polygon fill="#e0e0e0" stroke="#999999" points="393.5,-162 292.5,-162 292.5,-132 393.5,-132 393.5,-162"/>
<text text-anchor="start" x="300.5" y="-150" font-family="Helvetica,sans-Serif" font-size="10.00">spdlog/sinks/stdout</text>
<text text-anchor="middle" x="343" y="-139" font-family="Helvetica,sans-Serif" font-size="10.00">_sinks.h</text>
</a>
</g>
</g>
<!-- Node19&#45;&gt;Node25 -->
<g id="edge31" class="edge">
<title>Node19&#45;&gt;Node25</title>
<path fill="none" stroke="#63b8ff" d="M807.61,-200.32C803.07,-199.46 798.42,-198.65 794,-198 624.11,-173.08 576.42,-189.63 403.69,-162.13"/>
<polygon fill="#63b8ff" stroke="#63b8ff" points="404.19,-158.67 393.76,-160.53 403.07,-165.58 404.19,-158.67"/>
</g>
<!-- Node26 -->
<g id="node26" class="node">
<title>Node26</title>
<g id="a_node26"><a xlink:title=" ">
<polygon fill="#e0e0e0" stroke="#999999" points="496.5,-156.5 411.5,-156.5 411.5,-137.5 496.5,-137.5 496.5,-156.5"/>
<text text-anchor="middle" x="454" y="-144.5" font-family="Helvetica,sans-Serif" font-size="10.00">spdlog/spdlog.h</text>
</a>
</g>
</g>
<!-- Node19&#45;&gt;Node26 -->
<g id="edge32" class="edge">
<title>Node19&#45;&gt;Node26</title>
<path fill="none" stroke="#63b8ff" d="M807.59,-200.45C803.05,-199.57 798.41,-198.72 794,-198 666.69,-177.19 632.58,-186.83 506,-162 501.77,-161.17 497.37,-160.18 493.01,-159.13"/>
<polygon fill="#63b8ff" stroke="#63b8ff" points="493.54,-155.65 482.99,-156.57 491.81,-162.43 493.54,-155.65"/>
</g>
<!-- Node27&#45;&gt;Node4 -->
<g id="edge37" class="edge">
<title>Node27&#45;&gt;Node4</title>
<path fill="none" stroke="#63b8ff" d="M1087.38,-137.48C1078.84,-135.47 1069.61,-133.48 1061,-132 911,-106.27 621.34,-177.42 725,-66 766.69,-21.19 1178.36,-16.02 1346.26,-15.79"/>
<polygon fill="#63b8ff" stroke="#63b8ff" points="1346.48,-19.29 1356.48,-15.78 1346.48,-12.29 1346.48,-19.29"/>
</g>
<!-- Node27&#45;&gt;Node14 -->
<g id="edge35" class="edge">
<title>Node27&#45;&gt;Node14</title>
<path fill="none" stroke="#63b8ff" d="M1086.74,-137.46C1078.38,-135.49 1069.39,-133.52 1061,-132 936.25,-109.33 898.74,-134.71 778,-96 776.95,-95.66 775.89,-95.28 774.84,-94.87"/>
<polygon fill="#63b8ff" stroke="#63b8ff" points="776.15,-91.62 765.61,-90.54 773.18,-97.96 776.15,-91.62"/>
</g>
<!-- Node27&#45;&gt;Node18 -->
<g id="edge36" class="edge">
<title>Node27&#45;&gt;Node18</title>
<path fill="none" stroke="#63b8ff" d="M1085.78,-137.43C1077.68,-135.53 1069.05,-133.6 1061,-132 962.1,-112.35 933.19,-126.24 837,-96 835.74,-95.6 834.47,-95.16 833.19,-94.69"/>
<polygon fill="#63b8ff" stroke="#63b8ff" points="834.18,-91.3 823.61,-90.56 831.41,-97.73 834.18,-91.3"/>
</g>
<!-- Node28&#45;&gt;Node4 -->
<g id="edge47" class="edge">
<title>Node28&#45;&gt;Node4</title>
<path fill="none" stroke="#63b8ff" d="M1479.45,-131.92C1464.16,-123.56 1446.82,-111.54 1436,-96 1424.63,-79.66 1420.01,-57.38 1418.16,-40.49"/>
<polygon fill="#63b8ff" stroke="#63b8ff" points="1421.62,-39.95 1417.3,-30.28 1414.65,-40.53 1421.62,-39.95"/>
</g>
<!-- Node28&#45;&gt;Node6 -->
<g id="edge49" class="edge">
<title>Node28&#45;&gt;Node6</title>
<path fill="none" stroke="#63b8ff" d="M1562.21,-138.72C1581.26,-136.24 1603.08,-133.68 1623,-132 1988.72,-101.21 2086.86,-161.41 2448,-96 2451.51,-95.37 2455.12,-94.52 2458.69,-93.55"/>
<polygon fill="#63b8ff" stroke="#63b8ff" points="2459.97,-96.82 2468.53,-90.58 2457.95,-90.12 2459.97,-96.82"/>
</g>
<!-- Node28&#45;&gt;Node14 -->
<g id="edge39" class="edge">
<title>Node28&#45;&gt;Node14</title>
<path fill="none" stroke="#63b8ff" d="M1459.98,-137.87C1444.89,-135.69 1428.31,-133.52 1413,-132 1272.36,-117.99 914.02,-134.42 778,-96 776.91,-95.69 775.82,-95.34 774.74,-94.94"/>
<polygon fill="#63b8ff" stroke="#63b8ff" points="775.83,-91.59 765.29,-90.59 772.91,-97.95 775.83,-91.59"/>
</g>
<!-- Node28&#45;&gt;Node15 -->
<g id="edge40" class="edge">
<title>Node28&#45;&gt;Node15</title>
<path fill="none" stroke="#63b8ff" d="M1562.21,-138.79C1581.26,-136.32 1603.09,-133.74 1623,-132 1940.85,-104.19 2023.22,-134.14 2340,-96 2352.09,-94.54 2365.18,-92.26 2376.9,-89.96"/>
<polygon fill="#63b8ff" stroke="#63b8ff" points="2377.68,-93.37 2386.78,-87.94 2376.29,-86.51 2377.68,-93.37"/>
</g>
<!-- Node28&#45;&gt;Node18 -->
<g id="edge41" class="edge">
<title>Node28&#45;&gt;Node18</title>
<path fill="none" stroke="#63b8ff" d="M1459.98,-137.93C1444.88,-135.75 1428.3,-133.57 1413,-132 1157.84,-105.84 1085.13,-160.97 837,-96 835.51,-95.61 834.01,-95.14 832.51,-94.62"/>
<polygon fill="#63b8ff" stroke="#63b8ff" points="833.5,-91.24 822.93,-90.56 830.77,-97.68 833.5,-91.24"/>
</g>
<!-- Node29 -->
<g id="node29" class="node">
<title>Node29</title>
<g id="a_node29"><a xlink:title=" ">
<polygon fill="#e0e0e0" stroke="#999999" points="1388.5,-96 1275.5,-96 1275.5,-66 1388.5,-66 1388.5,-96"/>
<text text-anchor="start" x="1283.5" y="-84" font-family="Helvetica,sans-Serif" font-size="10.00">flutter/basic_message</text>
<text text-anchor="middle" x="1332" y="-73" font-family="Helvetica,sans-Serif" font-size="10.00">_channel.h</text>
</a>
</g>
</g>
<!-- Node28&#45;&gt;Node29 -->
<g id="edge42" class="edge">
<title>Node28&#45;&gt;Node29</title>
<path fill="none" stroke="#63b8ff" d="M1471.72,-131.95C1445.02,-122.41 1409.51,-109.71 1380.97,-99.51"/>
<polygon fill="#63b8ff" stroke="#63b8ff" points="1381.79,-96.08 1371.19,-96.01 1379.43,-102.67 1381.79,-96.08"/>
</g>
<!-- Node30 -->
<g id="node30" class="node">
<title>Node30</title>
<g id="a_node30"><a xlink:title=" ">
<polygon fill="#e0e0e0" stroke="#999999" points="1577,-90.5 1445,-90.5 1445,-71.5 1577,-71.5 1577,-90.5"/>
<text text-anchor="middle" x="1511" y="-78.5" font-family="Helvetica,sans-Serif" font-size="10.00">flutter/binary_messenger.h</text>
</a>
</g>
</g>
<!-- Node28&#45;&gt;Node30 -->
<g id="edge43" class="edge">
<title>Node28&#45;&gt;Node30</title>
<path fill="none" stroke="#63b8ff" d="M1511,-131.8C1511,-122.7 1511,-110.79 1511,-100.9"/>
<polygon fill="#63b8ff" stroke="#63b8ff" points="1514.5,-100.84 1511,-90.84 1507.5,-100.84 1514.5,-100.84"/>
</g>
<!-- Node31 -->
<g id="node31" class="node">
<title>Node31</title>
<g id="a_node31"><a xlink:title=" ">
<polygon fill="#e0e0e0" stroke="#999999" points="1128.5,-96 965.5,-96 965.5,-66 1128.5,-66 1128.5,-96"/>
<text text-anchor="start" x="973.5" y="-84" font-family="Helvetica,sans-Serif" font-size="10.00">flutter/shell/platform</text>
<text text-anchor="middle" x="1047" y="-73" font-family="Helvetica,sans-Serif" font-size="10.00">/common/json_message_codec.h</text>
</a>
</g>
</g>
<!-- Node28&#45;&gt;Node31 -->
<g id="edge44" class="edge">
<title>Node28&#45;&gt;Node31</title>
<path fill="none" stroke="#63b8ff" d="M1459.99,-134.53C1455.27,-133.62 1450.56,-132.76 1446,-132 1313.22,-109.99 1276.29,-114.26 1138.9,-96.08"/>
<polygon fill="#63b8ff" stroke="#63b8ff" points="1139.21,-92.59 1128.83,-94.73 1138.28,-99.53 1139.21,-92.59"/>
</g>
<!-- Node32 -->
<g id="node32" class="node">
<title>Node32</title>
<g id="a_node32"><a xlink:title=" ">
<polygon fill="#e0e0e0" stroke="#999999" points="947.5,-90.5 846.5,-90.5 846.5,-71.5 947.5,-71.5 947.5,-90.5"/>
<text text-anchor="middle" x="897" y="-78.5" font-family="Helvetica,sans-Serif" font-size="10.00">flutter/fml/macros.h</text>
</a>
</g>
</g>
<!-- Node28&#45;&gt;Node32 -->
<g id="edge45" class="edge">
<title>Node28&#45;&gt;Node32</title>
<path fill="none" stroke="#63b8ff" d="M1459.67,-134.26C1455.06,-133.41 1450.46,-132.64 1446,-132 1229.86,-100.94 1171.81,-129.31 956,-96 950.47,-95.15 944.7,-94.04 939.02,-92.83"/>
<polygon fill="#63b8ff" stroke="#63b8ff" points="939.49,-89.35 928.97,-90.57 937.95,-96.18 939.49,-89.35"/>
</g>
<!-- Node33 -->
<g id="node33" class="node">
<title>Node33</title>
<g id="a_node33"><a xlink:title=" ">
<polygon fill="#e0e0e0" stroke="#999999" points="1257,-90.5 1147,-90.5 1147,-71.5 1257,-71.5 1257,-90.5"/>
<text text-anchor="middle" x="1202" y="-78.5" font-family="Helvetica,sans-Serif" font-size="10.00">rapidjson/document.h</text>
</a>
</g>
</g>
<!-- Node28&#45;&gt;Node33 -->
<g id="edge46" class="edge">
<title>Node28&#45;&gt;Node33</title>
<path fill="none" stroke="#63b8ff" d="M1459.92,-134.92C1455.22,-133.93 1450.52,-132.94 1446,-132 1366.12,-115.41 1345.85,-112.72 1266,-96 1260.98,-94.95 1255.74,-93.83 1250.52,-92.71"/>
<polygon fill="#63b8ff" stroke="#63b8ff" points="1251.07,-89.25 1240.56,-90.55 1249.59,-96.09 1251.07,-89.25"/>
</g>
<!-- Node34 -->
<g id="node34" class="node">
<title>Node34</title>
<g id="a_node34"><a xlink:title=" ">
<polygon fill="#e0e0e0" stroke="#999999" points="1729,-90.5 1595,-90.5 1595,-71.5 1729,-71.5 1729,-90.5"/>
<text text-anchor="middle" x="1662" y="-78.5" font-family="Helvetica,sans-Serif" font-size="10.00">xkbcommon/xkbcommon.h</text>
</a>
</g>
</g>
<!-- Node28&#45;&gt;Node34 -->
<g id="edge48" class="edge">
<title>Node28&#45;&gt;Node34</title>
<path fill="none" stroke="#63b8ff" d="M1544.14,-131.95C1570.5,-120.78 1607.06,-105.29 1632.44,-94.53"/>
<polygon fill="#63b8ff" stroke="#63b8ff" points="1634.06,-97.64 1641.9,-90.52 1631.33,-91.2 1634.06,-97.64"/>
</g>
<!-- Node35&#45;&gt;Node4 -->
<g id="edge61" class="edge">
<title>Node35&#45;&gt;Node4</title>
<path fill="none" stroke="#63b8ff" d="M1728.63,-144.11C1877.67,-138.08 2319.24,-118.4 2340,-96 2349.06,-86.22 2349.17,-75.68 2340,-66 2325.37,-50.55 1701.1,-26.37 1487.68,-18.54"/>
<polygon fill="#63b8ff" stroke="#63b8ff" points="1487.65,-15.04 1477.52,-18.17 1487.39,-22.03 1487.65,-15.04"/>
</g>
<!-- Node35&#45;&gt;Node6 -->
<g id="edge63" class="edge">
<title>Node35&#45;&gt;Node6</title>
<path fill="none" stroke="#63b8ff" d="M1728.71,-144.42C1875.04,-139.42 2309.16,-122.69 2448,-96 2451.42,-95.34 2454.94,-94.49 2458.43,-93.54"/>
<polygon fill="#63b8ff" stroke="#63b8ff" points="2459.5,-96.87 2468.07,-90.64 2457.48,-90.17 2459.5,-96.87"/>
</g>
<!-- Node35&#45;&gt;Node14 -->
<g id="edge51" class="edge">
<title>Node35&#45;&gt;Node14</title>
<path fill="none" stroke="#63b8ff" d="M1631.26,-138.87C1612.46,-136.35 1590.77,-133.72 1571,-132 1395.26,-116.75 948.03,-142.99 778,-96 776.91,-95.7 775.82,-95.35 774.73,-94.95"/>
<polygon fill="#63b8ff" stroke="#63b8ff" points="775.83,-91.61 765.28,-90.62 772.91,-97.97 775.83,-91.61"/>
</g>
<!-- Node35&#45;&gt;Node15 -->
<g id="edge52" class="edge">
<title>Node35&#45;&gt;Node15</title>
<path fill="none" stroke="#63b8ff" d="M1728.53,-144.17C1864.86,-138.76 2249.42,-121.61 2373,-96 2376,-95.38 2379.08,-94.59 2382.14,-93.7"/>
<polygon fill="#63b8ff" stroke="#63b8ff" points="2383.26,-97.02 2391.71,-90.62 2381.11,-90.36 2383.26,-97.02"/>
</g>
<!-- Node35&#45;&gt;Node18 -->
<g id="edge53" class="edge">
<title>Node35&#45;&gt;Node18</title>
<path fill="none" stroke="#63b8ff" d="M1631.26,-138.91C1612.46,-136.39 1590.76,-133.75 1571,-132 1408.33,-117.59 995.26,-136.31 837,-96 835.51,-95.62 834.01,-95.16 832.51,-94.64"/>
<polygon fill="#63b8ff" stroke="#63b8ff" points="833.49,-91.26 822.92,-90.61 830.77,-97.71 833.49,-91.26"/>
</g>
<!-- Node35&#45;&gt;Node30 -->
<g id="edge54" class="edge">
<title>Node35&#45;&gt;Node30</title>
<path fill="none" stroke="#63b8ff" d="M1642.91,-131.95C1613.01,-120.63 1571.4,-104.88 1542.96,-94.1"/>
<polygon fill="#63b8ff" stroke="#63b8ff" points="1544.08,-90.79 1533.49,-90.52 1541.6,-97.33 1544.08,-90.79"/>
</g>
<!-- Node35&#45;&gt;Node32 -->
<g id="edge57" class="edge">
<title>Node35&#45;&gt;Node32</title>
<path fill="none" stroke="#63b8ff" d="M1631.25,-139.01C1612.45,-136.5 1590.76,-133.84 1571,-132 1298.38,-106.54 1226.9,-135.76 956,-96 950.19,-95.15 944.12,-94 938.17,-92.73"/>
<polygon fill="#63b8ff" stroke="#63b8ff" points="938.87,-89.3 928.34,-90.51 937.32,-96.13 938.87,-89.3"/>
</g>
<!-- Node35&#45;&gt;Node33 -->
<g id="edge60" class="edge">
<title>Node35&#45;&gt;Node33</title>
<path fill="none" stroke="#63b8ff" d="M1631.45,-139.66C1612.58,-137.22 1590.79,-134.44 1571,-132 1435.53,-115.31 1400.61,-118.61 1266,-96 1260.18,-95.02 1254.09,-93.87 1248.08,-92.64"/>
<polygon fill="#63b8ff" stroke="#63b8ff" points="1248.6,-89.18 1238.1,-90.54 1247.16,-96.03 1248.6,-89.18"/>
</g>
<!-- Node35&#45;&gt;Node34 -->
<g id="edge62" class="edge">
<title>Node35&#45;&gt;Node34</title>
<path fill="none" stroke="#63b8ff" d="M1676.01,-131.8C1673.42,-122.6 1670.02,-110.53 1667.23,-100.58"/>
<polygon fill="#63b8ff" stroke="#63b8ff" points="1670.56,-99.52 1664.49,-90.84 1663.83,-101.42 1670.56,-99.52"/>
</g>
<!-- Node36 -->
<g id="node36" class="node">
<title>Node36</title>
<g id="a_node36"><a xlink:title=" ">
<polygon fill="#e0e0e0" stroke="#999999" points="2033,-90.5 1909,-90.5 1909,-71.5 2033,-71.5 2033,-90.5"/>
<text text-anchor="middle" x="1971" y="-78.5" font-family="Helvetica,sans-Serif" font-size="10.00">flutter/method_channel.h</text>
</a>
</g>
</g>
<!-- Node35&#45;&gt;Node36 -->
<g id="edge55" class="edge">
<title>Node35&#45;&gt;Node36</title>
<path fill="none" stroke="#63b8ff" d="M1728.71,-135.29C1782.36,-123.49 1868.16,-104.62 1921.95,-92.79"/>
<polygon fill="#63b8ff" stroke="#63b8ff" points="1922.92,-96.16 1931.94,-90.59 1921.42,-89.32 1922.92,-96.16"/>
</g>
<!-- Node37 -->
<g id="node37" class="node">
<title>Node37</title>
<g id="a_node37"><a xlink:title=" ">
<polygon fill="#e0e0e0" stroke="#999999" points="2157,-96 2051,-96 2051,-66 2157,-66 2157,-96"/>
<text text-anchor="start" x="2059" y="-84" font-family="Helvetica,sans-Serif" font-size="10.00">flutter/method_result</text>
<text text-anchor="middle" x="2104" y="-73" font-family="Helvetica,sans-Serif" font-size="10.00">_functions.h</text>
</a>
</g>
</g>
<!-- Node35&#45;&gt;Node37 -->
<g id="edge56" class="edge">
<title>Node35&#45;&gt;Node37</title>
<path fill="none" stroke="#63b8ff" d="M1728.51,-140.63C1796.26,-132.83 1923.23,-117.15 2041.05,-96.08"/>
<polygon fill="#63b8ff" stroke="#63b8ff" points="2041.74,-99.51 2050.96,-94.29 2040.5,-92.62 2041.74,-99.51"/>
</g>
<!-- Node38 -->
<g id="node38" class="node">
<title>Node38</title>
<g id="a_node38"><a xlink:title=" ">
<polygon fill="#e0e0e0" stroke="#999999" points="2330.5,-96 2175.5,-96 2175.5,-66 2330.5,-66 2330.5,-96"/>
<text text-anchor="start" x="2183.5" y="-84" font-family="Helvetica,sans-Serif" font-size="10.00">flutter/shell/platform</text>
<text text-anchor="middle" x="2253" y="-73" font-family="Helvetica,sans-Serif" font-size="10.00">/common/json_method_codec.h</text>
</a>
</g>
</g>
<!-- Node35&#45;&gt;Node38 -->
<g id="edge58" class="edge">
<title>Node35&#45;&gt;Node38</title>
<path fill="none" stroke="#63b8ff" d="M1728.74,-141.91C1814.61,-134.51 1998.68,-117.74 2164.83,-96.1"/>
<polygon fill="#63b8ff" stroke="#63b8ff" points="2165.78,-99.51 2175.24,-94.74 2164.87,-92.57 2165.78,-99.51"/>
</g>
<!-- Node39 -->
<g id="node39" class="node">
<title>Node39</title>
<g id="a_node39"><a xlink:title=" ">
<polygon fill="#e0e0e0" stroke="#999999" points="1890.5,-96 1747.5,-96 1747.5,-66 1890.5,-66 1890.5,-96"/>
<text text-anchor="start" x="1755.5" y="-84" font-family="Helvetica,sans-Serif" font-size="10.00">flutter/shell/platform</text>
<text text-anchor="middle" x="1819" y="-73" font-family="Helvetica,sans-Serif" font-size="10.00">/common/text_input_model.h</text>
</a>
</g>
</g>
<!-- Node35&#45;&gt;Node39 -->
<g id="edge59" class="edge">
<title>Node35&#45;&gt;Node39</title>
<path fill="none" stroke="#63b8ff" d="M1710.5,-131.95C1730.69,-122.66 1757.37,-110.38 1779.22,-100.32"/>
<polygon fill="#63b8ff" stroke="#63b8ff" points="1780.95,-103.37 1788.57,-96.01 1778.02,-97.02 1780.95,-103.37"/>
</g>
<!-- Node40&#45;&gt;Node14 -->
<g id="edge65" class="edge">
<title>Node40&#45;&gt;Node14</title>
<path fill="none" stroke="#63b8ff" d="M1357.4,-197.91C1331.49,-189.14 1290.32,-175.02 1255,-162 1220.54,-149.3 1213.76,-140.4 1178,-132 1004.23,-91.2 948.95,-147.36 778,-96 776.94,-95.68 775.88,-95.32 774.82,-94.92"/>
<polygon fill="#63b8ff" stroke="#63b8ff" points="776.13,-91.67 765.58,-90.64 773.19,-98.02 776.13,-91.67"/>
</g>
<!-- Node40&#45;&gt;Node15 -->
<g id="edge66" class="edge">
<title>Node40&#45;&gt;Node15</title>
<path fill="none" stroke="#63b8ff" d="M1432.23,-203.22C1575.71,-193.18 2005.54,-159.58 2357,-96 2363.47,-94.83 2370.31,-93.34 2376.89,-91.77"/>
<polygon fill="#63b8ff" stroke="#63b8ff" points="2378.08,-95.08 2386.94,-89.27 2376.4,-88.29 2378.08,-95.08"/>
</g>
<!-- Node40&#45;&gt;Node32 -->
<g id="edge72" class="edge">
<title>Node40&#45;&gt;Node32</title>
<path fill="none" stroke="#63b8ff" d="M1391.99,-197.6C1406.27,-182.4 1430.79,-151.25 1413,-132 1378.43,-94.6 1006.32,-103.9 956,-96 950.48,-95.13 944.7,-94.02 939.02,-92.81"/>
<polygon fill="#63b8ff" stroke="#63b8ff" points="939.5,-89.33 928.97,-90.54 937.96,-96.15 939.5,-89.33"/>
</g>
<!-- Node41 -->
<g id="node41" class="node">
<title>Node41</title>
<g id="a_node41"><a xlink:href="configuration_8h.html" target="_top" xlink:title=" ">
<polygon fill="white" stroke="#666666" points="1403.5,-156.5 1264.5,-156.5 1264.5,-137.5 1403.5,-137.5 1403.5,-156.5"/>
<text text-anchor="middle" x="1334" y="-144.5" font-family="Helvetica,sans-Serif" font-size="10.00">configuration/configuration.h</text>
</a>
</g>
</g>
<!-- Node40&#45;&gt;Node41 -->
<g id="edge67" class="edge">
<title>Node40&#45;&gt;Node41</title>
<path fill="none" stroke="#63b8ff" d="M1375.77,-197.87C1368.46,-189.14 1356.98,-175.43 1347.9,-164.59"/>
<polygon fill="#63b8ff" stroke="#63b8ff" points="1350.36,-162.09 1341.26,-156.67 1345,-166.58 1350.36,-162.09"/>
</g>
<!-- Node42 -->
<g id="node42" class="node">
<title>Node42</title>
<g id="a_node42"><a xlink:href="window_8h.html" target="_top" xlink:title=" ">
<polygon fill="white" stroke="#666666" points="2616,-156.5 2520,-156.5 2520,-137.5 2616,-137.5 2616,-156.5"/>
<text text-anchor="middle" x="2568" y="-144.5" font-family="Helvetica,sans-Serif" font-size="10.00">wayland/window.h</text>
</a>
</g>
</g>
<!-- Node40&#45;&gt;Node42 -->
<g id="edge73" class="edge">
<title>Node40&#45;&gt;Node42</title>
<path fill="none" stroke="#63b8ff" d="M1432.04,-204.08C1621.47,-194.73 2305.09,-160.98 2509.73,-150.88"/>
<polygon fill="#63b8ff" stroke="#63b8ff" points="2510.15,-154.36 2519.96,-150.37 2509.8,-147.37 2510.15,-154.36"/>
</g>
<!-- Node41&#45;&gt;Node3 -->
<g id="edge69" class="edge">
<title>Node41&#45;&gt;Node3</title>
<path fill="none" stroke="#63b8ff" d="M1264.15,-139.18C1237.24,-136.69 1206.21,-134.01 1178,-132 817.43,-106.36 379.17,-88.08 258.23,-83.26"/>
<polygon fill="#63b8ff" stroke="#63b8ff" points="258.29,-79.76 248.16,-82.86 258.01,-86.75 258.29,-79.76"/>
</g>
<!-- Node41&#45;&gt;Node18 -->
<g id="edge68" class="edge">
<title>Node41&#45;&gt;Node18</title>
<path fill="none" stroke="#63b8ff" d="M1286.56,-137.43C1274.65,-135.46 1261.88,-133.51 1250,-132 1067.21,-108.84 1014.66,-144.85 837,-96 835.55,-95.6 834.09,-95.13 832.63,-94.61"/>
<polygon fill="#63b8ff" stroke="#63b8ff" points="833.82,-91.32 823.25,-90.64 831.09,-97.76 833.82,-91.32"/>
</g>
<!-- Node41&#45;&gt;Node32 -->
<g id="edge70" class="edge">
<title>Node41&#45;&gt;Node32</title>
<path fill="none" stroke="#63b8ff" d="M1285.2,-137.5C1273.67,-135.59 1261.41,-133.65 1250,-132 1119.71,-113.17 1085.58,-119.23 956,-96 950.89,-95.08 945.55,-94 940.27,-92.85"/>
<polygon fill="#63b8ff" stroke="#63b8ff" points="940.78,-89.37 930.25,-90.57 939.23,-96.2 940.78,-89.37"/>
</g>
<!-- Node41&#45;&gt;Node33 -->
<g id="edge71" class="edge">
<title>Node41&#45;&gt;Node33</title>
<path fill="none" stroke="#63b8ff" d="M1316.2,-137.37C1293.86,-126.54 1255.32,-107.85 1229.26,-95.22"/>
<polygon fill="#63b8ff" stroke="#63b8ff" points="1230.47,-91.91 1219.94,-90.7 1227.41,-98.21 1230.47,-91.91"/>
</g>
<!-- Node42&#45;&gt;Node5 -->
<g id="edge79" class="edge">
<title>Node42&#45;&gt;Node5</title>
<path fill="none" stroke="#63b8ff" d="M2566.74,-156.62C2562.79,-180.1 2548.3,-245.22 2506,-272 2429.72,-320.29 1006.39,-301.41 841.11,-308.2"/>
<polygon fill="#63b8ff" stroke="#63b8ff" points="840.59,-304.72 830.8,-308.78 840.99,-311.71 840.59,-304.72"/>
</g>
<!-- Node42&#45;&gt;Node6 -->
<g id="edge78" class="edge">
<title>Node42&#45;&gt;Node6</title>
<path fill="none" stroke="#63b8ff" d="M2557.62,-137.37C2545.28,-127.12 2524.49,-109.84 2509.41,-97.31"/>
<polygon fill="#63b8ff" stroke="#63b8ff" points="2511.64,-94.61 2501.71,-90.91 2507.17,-99.99 2511.64,-94.61"/>
</g>
<!-- Node42&#45;&gt;Node15 -->
<g id="edge74" class="edge">
<title>Node42&#45;&gt;Node15</title>
<path fill="none" stroke="#63b8ff" d="M2547.1,-137.37C2520.4,-126.35 2474.01,-107.19 2443.41,-94.55"/>
<polygon fill="#63b8ff" stroke="#63b8ff" points="2444.65,-91.28 2434.07,-90.7 2441.98,-97.75 2444.65,-91.28"/>
</g>
<!-- Node42&#45;&gt;Node18 -->
<g id="edge75" class="edge">
<title>Node42&#45;&gt;Node18</title>
<path fill="none" stroke="#63b8ff" d="M2519.78,-145.18C2248.41,-140.47 920.88,-116.47 837,-96 835.32,-95.59 833.62,-95.07 831.94,-94.49"/>
<polygon fill="#63b8ff" stroke="#63b8ff" points="833.17,-91.21 822.6,-90.52 830.44,-97.65 833.17,-91.21"/>
</g>
<!-- Node43 -->
<g id="node43" class="node">
<title>Node43</title>
<g id="a_node43"><a xlink:title=" ">
<polygon fill="#e0e0e0" stroke="#999999" points="2592.5,-90.5 2543.5,-90.5 2543.5,-71.5 2592.5,-71.5 2592.5,-90.5"/>
<text text-anchor="middle" x="2568" y="-78.5" font-family="Helvetica,sans-Serif" font-size="10.00">cassert</text>
</a>
</g>
</g>
<!-- Node42&#45;&gt;Node43 -->
<g id="edge76" class="edge">
<title>Node42&#45;&gt;Node43</title>
<path fill="none" stroke="#63b8ff" d="M2568,-137.37C2568,-128.16 2568,-113.29 2568,-101.27"/>
<polygon fill="#63b8ff" stroke="#63b8ff" points="2571.5,-100.91 2568,-90.91 2564.5,-100.91 2571.5,-100.91"/>
</g>
<!-- Node44 -->
<g id="node44" class="node">
<title>Node44</title>
<g id="a_node44"><a xlink:title=" ">
<polygon fill="#e0e0e0" stroke="#999999" points="2735.5,-90.5 2610.5,-90.5 2610.5,-71.5 2735.5,-71.5 2735.5,-90.5"/>
<text text-anchor="middle" x="2673" y="-78.5" font-family="Helvetica,sans-Serif" font-size="10.00">agl&#45;shell&#45;client&#45;protocol.h</text>
</a>
</g>
</g>
<!-- Node42&#45;&gt;Node44 -->
<g id="edge77" class="edge">
<title>Node42&#45;&gt;Node44</title>
<path fill="none" stroke="#63b8ff" d="M2582.16,-137.37C2599.54,-126.78 2629.24,-108.67 2649.93,-96.06"/>
<polygon fill="#63b8ff" stroke="#63b8ff" points="2652.01,-98.89 2658.73,-90.7 2648.37,-92.92 2652.01,-98.89"/>
</g>
<!-- Node45 -->
<g id="node45" class="node">
<title>Node45</title>
<g id="a_node45"><a xlink:title=" ">
<polygon fill="#e0e0e0" stroke="#999999" points="2856,-96 2754,-96 2754,-66 2856,-66 2856,-96"/>
<text text-anchor="start" x="2762" y="-84" font-family="Helvetica,sans-Serif" font-size="10.00">ivi&#45;application&#45;client</text>
<text text-anchor="middle" x="2805" y="-73" font-family="Helvetica,sans-Serif" font-size="10.00">&#45;protocol.h</text>
</a>
</g>
</g>
<!-- Node42&#45;&gt;Node45 -->
<g id="edge80" class="edge">
<title>Node42&#45;&gt;Node45</title>
<path fill="none" stroke="#63b8ff" d="M2599.96,-137.37C2636.69,-127.45 2697.8,-110.95 2743.77,-98.53"/>
<polygon fill="#63b8ff" stroke="#63b8ff" points="2744.89,-101.86 2753.63,-95.87 2743.06,-95.1 2744.89,-101.86"/>
</g>
<!-- Node46 -->
<g id="node46" class="node">
<title>Node46</title>
<g id="a_node46"><a xlink:title=" ">
<polygon fill="#e0e0e0" stroke="#999999" points="2991.5,-90.5 2874.5,-90.5 2874.5,-71.5 2991.5,-71.5 2991.5,-90.5"/>
<text text-anchor="middle" x="2933" y="-78.5" font-family="Helvetica,sans-Serif" font-size="10.00">ivi&#45;wm&#45;client&#45;protocol.h</text>
</a>
</g>
</g>
<!-- Node42&#45;&gt;Node46 -->
<g id="edge81" class="edge">
<title>Node42&#45;&gt;Node46</title>
<path fill="none" stroke="#63b8ff" d="M2616.19,-138.44C2675.02,-129.08 2777.5,-112.37 2865,-96 2870.77,-94.92 2876.8,-93.75 2882.79,-92.55"/>
<polygon fill="#63b8ff" stroke="#63b8ff" points="2883.67,-95.94 2892.78,-90.53 2882.28,-89.08 2883.67,-95.94"/>
</g>
<!-- Node47 -->
<g id="node47" class="node">
<title>Node47</title>
<g id="a_node47"><a xlink:title=" ">
<polygon fill="#e0e0e0" stroke="#999999" points="3138,-90.5 3010,-90.5 3010,-71.5 3138,-71.5 3138,-90.5"/>
<text text-anchor="middle" x="3074" y="-78.5" font-family="Helvetica,sans-Serif" font-size="10.00">xdg&#45;shell&#45;client&#45;protocol.h</text>
</a>
</g>
</g>
<!-- Node42&#45;&gt;Node47 -->
<g id="edge82" class="edge">
<title>Node42&#45;&gt;Node47</title>
<path fill="none" stroke="#63b8ff" d="M2616.21,-141.62C2696.34,-134.07 2861.88,-117.34 3001,-96 3007.86,-94.95 3015.05,-93.72 3022.14,-92.44"/>
<polygon fill="#63b8ff" stroke="#63b8ff" points="3023.21,-95.8 3032.4,-90.53 3021.93,-88.92 3023.21,-95.8"/>
</g>
</g>
</svg>
