<?xml version="1.0" encoding="UTF-8" standalone="no"?>
<!DOCTYPE svg PUBLIC "-//W3C//DTD SVG 1.1//EN"
 "http://www.w3.org/Graphics/SVG/1.1/DTD/svg11.dtd">
<!-- Generated by graphviz version 2.43.0 (0)
 -->
<!-- Title: /home/joel.winarske@toyotaconnected.com/development/stargate/ivi&#45;homescreen/shell/backend/wayland_egl.h Pages: 1 -->
<svg width="632pt" height="183pt"
 viewBox="0.00 0.00 632.00 183.00" xmlns="http://www.w3.org/2000/svg" xmlns:xlink="http://www.w3.org/1999/xlink">
<g id="graph0" class="graph" transform="scale(1 1) rotate(0) translate(4 179)">
<title>/home/joel.winarske@toyotaconnected.com/development/stargate/ivi&#45;homescreen/shell/backend/wayland_egl.h</title>
<polygon fill="white" stroke="transparent" points="-4,4 -4,-179 628,-179 628,4 -4,4"/>
<!-- Node1 -->
<g id="node1" class="node">
<title>Node1</title>
<g id="a_node1"><a xlink:title=" ">
<polygon fill="#bfbfbf" stroke="black" points="241,-111.5 241,-174.5 375,-174.5 375,-111.5 241,-111.5"/>
<text text-anchor="start" x="249" y="-162.5" font-family="Helvetica,sans-Serif" font-size="10.00">/home/joel.winarske</text>
<text text-anchor="start" x="249" y="-151.5" font-family="Helvetica,sans-Serif" font-size="10.00">@toyotaconnected.com</text>
<text text-anchor="start" x="249" y="-140.5" font-family="Helvetica,sans-Serif" font-size="10.00">/development/stargate</text>
<text text-anchor="start" x="249" y="-129.5" font-family="Helvetica,sans-Serif" font-size="10.00">/ivi&#45;homescreen/shell</text>
<text text-anchor="middle" x="308" y="-118.5" font-family="Helvetica,sans-Serif" font-size="10.00">/backend/wayland_egl.h</text>
</a>
</g>
</g>
<!-- Node2 -->
<g id="node2" class="node">
<title>Node2</title>
<g id="a_node2"><a xlink:href="wayland__egl_8cc.html" target="_top" xlink:title=" ">
<polygon fill="white" stroke="black" points="0,-6 0,-69 138,-69 138,-6 0,-6"/>
<text text-anchor="start" x="8" y="-57" font-family="Helvetica,sans-Serif" font-size="10.00">/home/joel.winarske</text>
<text text-anchor="start" x="8" y="-46" font-family="Helvetica,sans-Serif" font-size="10.00">@toyotaconnected.com</text>
<text text-anchor="start" x="8" y="-35" font-family="Helvetica,sans-Serif" font-size="10.00">/development/stargate</text>
<text text-anchor="start" x="8" y="-24" font-family="Helvetica,sans-Serif" font-size="10.00">/ivi&#45;homescreen/shell</text>
<text text-anchor="middle" x="69" y="-13" font-family="Helvetica,sans-Serif" font-size="10.00">/backend/wayland_egl.cc</text>
</a>
</g>
</g>
<!-- Node1&#45;&gt;Node2 -->
<g id="edge1" class="edge">
<title>Node1&#45;&gt;Node2</title>
<path fill="none" stroke="midnightblue" d="M231.42,-110.93C204.61,-99.84 174.37,-87.09 147,-75 142.76,-73.13 138.4,-71.17 134.02,-69.18"/>
<polygon fill="midnightblue" stroke="midnightblue" points="230.17,-114.2 240.75,-114.77 232.84,-107.72 230.17,-114.2"/>
</g>
<!-- Node3 -->
<g id="node3" class="node">
<title>Node3</title>
<g id="a_node3"><a xlink:href="gstreamer__egl_8cc.html" target="_top" xlink:title=" ">
<polygon fill="white" stroke="black" points="156,-0.5 156,-74.5 296,-74.5 296,-0.5 156,-0.5"/>
<text text-anchor="start" x="164" y="-62.5" font-family="Helvetica,sans-Serif" font-size="10.00">/home/joel.winarske</text>
<text text-anchor="start" x="164" y="-51.5" font-family="Helvetica,sans-Serif" font-size="10.00">@toyotaconnected.com</text>
<text text-anchor="start" x="164" y="-40.5" font-family="Helvetica,sans-Serif" font-size="10.00">/development/stargate</text>
<text text-anchor="start" x="164" y="-29.5" font-family="Helvetica,sans-Serif" font-size="10.00">/ivi&#45;homescreen/shell</text>
<text text-anchor="start" x="164" y="-18.5" font-family="Helvetica,sans-Serif" font-size="10.00">/static_plugins/gstreamer</text>
<text text-anchor="middle" x="226" y="-7.5" font-family="Helvetica,sans-Serif" font-size="10.00">_egl/gstreamer_egl.cc</text>
</a>
</g>
</g>
<!-- Node1&#45;&gt;Node3 -->
<g id="edge2" class="edge">
<title>Node1&#45;&gt;Node3</title>
<path fill="none" stroke="midnightblue" d="M277.28,-103.23C269.91,-93.92 262.05,-84 254.77,-74.81"/>
<polygon fill="midnightblue" stroke="midnightblue" points="274.67,-105.56 283.62,-111.23 280.15,-101.22 274.67,-105.56"/>
</g>
<!-- Node4 -->
<g id="node4" class="node">
<title>Node4</title>
<g id="a_node4"><a xlink:href="texture__navi__render__egl_8cc.html" target="_top" xlink:title=" ">
<polygon fill="white" stroke="black" points="314,-0.5 314,-74.5 466,-74.5 466,-0.5 314,-0.5"/>
<text text-anchor="start" x="322" y="-62.5" font-family="Helvetica,sans-Serif" font-size="10.00">/home/joel.winarske</text>
<text text-anchor="start" x="322" y="-51.5" font-family="Helvetica,sans-Serif" font-size="10.00">@toyotaconnected.com</text>
<text text-anchor="start" x="322" y="-40.5" font-family="Helvetica,sans-Serif" font-size="10.00">/development/stargate</text>
<text text-anchor="start" x="322" y="-29.5" font-family="Helvetica,sans-Serif" font-size="10.00">/ivi&#45;homescreen/shell</text>
<text text-anchor="start" x="322" y="-18.5" font-family="Helvetica,sans-Serif" font-size="10.00">/textures/navi_render_egl</text>
<text text-anchor="middle" x="390" y="-7.5" font-family="Helvetica,sans-Serif" font-size="10.00">/texture_navi_render_egl.cc</text>
</a>
</g>
</g>
<!-- Node1&#45;&gt;Node4 -->
<g id="edge3" class="edge">
<title>Node1&#45;&gt;Node4</title>
<path fill="none" stroke="midnightblue" d="M338.72,-103.23C346.09,-93.92 353.95,-84 361.23,-74.81"/>
<polygon fill="midnightblue" stroke="midnightblue" points="335.85,-101.22 332.38,-111.23 341.33,-105.56 335.85,-101.22"/>
</g>
<!-- Node5 -->
<g id="node5" class="node">
<title>Node5</title>
<g id="a_node5"><a xlink:href="texture__test__egl_8cc.html" target="_top" xlink:title=" ">
<polygon fill="white" stroke="black" points="484,-0.5 484,-74.5 624,-74.5 624,-0.5 484,-0.5"/>
<text text-anchor="start" x="492" y="-62.5" font-family="Helvetica,sans-Serif" font-size="10.00">/home/joel.winarske</text>
<text text-anchor="start" x="492" y="-51.5" font-family="Helvetica,sans-Serif" font-size="10.00">@toyotaconnected.com</text>
<text text-anchor="start" x="492" y="-40.5" font-family="Helvetica,sans-Serif" font-size="10.00">/development/stargate</text>
<text text-anchor="start" x="492" y="-29.5" font-family="Helvetica,sans-Serif" font-size="10.00">/ivi&#45;homescreen/shell</text>
<text text-anchor="start" x="492" y="-18.5" font-family="Helvetica,sans-Serif" font-size="10.00">/textures/test_egl/texture</text>
<text text-anchor="middle" x="554" y="-7.5" font-family="Helvetica,sans-Serif" font-size="10.00">_test_egl.cc</text>
</a>
</g>
</g>
<!-- Node1&#45;&gt;Node5 -->
<g id="edge4" class="edge">
<title>Node1&#45;&gt;Node5</title>
<path fill="none" stroke="midnightblue" d="M384.85,-112.12C413.3,-100.81 445.75,-87.62 475,-75 477.91,-73.74 480.88,-72.45 483.87,-71.13"/>
<polygon fill="midnightblue" stroke="midnightblue" points="383.37,-108.95 375.36,-115.88 385.95,-115.45 383.37,-108.95"/>
</g>
</g>
</svg>
