<?xml version="1.0" encoding="UTF-8" standalone="no"?>
<!DOCTYPE svg PUBLIC "-//W3C//DTD SVG 1.1//EN"
 "http://www.w3.org/Graphics/SVG/1.1/DTD/svg11.dtd">
<!-- Generated by graphviz version 5.0.0 (0)
 -->
<!-- Title: /mnt/raid10/stargate/ivi&#45;homescreen/shell/wayland/window.h Pages: 1 -->
<svg width="3722pt" height="467pt"
 viewBox="0.00 0.00 3721.68 467.00" xmlns="http://www.w3.org/2000/svg" xmlns:xlink="http://www.w3.org/1999/xlink">
<g id="graph0" class="graph" transform="scale(1 1) rotate(0) translate(4 463)">
<title>/mnt/raid10/stargate/ivi&#45;homescreen/shell/wayland/window.h</title>
<!-- Node1 -->
<g id="node1" class="node">
<title>Node1</title>
<g id="a_node1"><a xlink:title=" ">
<polygon fill="#999999" stroke="#666666" points="3459.68,-459 3350.68,-459 3350.68,-418 3459.68,-418 3459.68,-459"/>
<text text-anchor="start" x="3358.68" y="-447" font-family="Helvetica,sans-Serif" font-size="10.00">/mnt/raid10/stargate</text>
<text text-anchor="start" x="3358.68" y="-436" font-family="Helvetica,sans-Serif" font-size="10.00">/ivi&#45;homescreen/shell</text>
<text text-anchor="middle" x="3405.18" y="-425" font-family="Helvetica,sans-Serif" font-size="10.00">/wayland/window.h</text>
</a>
</g>
</g>
<!-- Node2 -->
<g id="node2" class="node">
<title>Node2</title>
<g id="a_node2"><a xlink:href="nv12_8h.html" target="_top" xlink:title=" ">
<polygon fill="white" stroke="#666666" points="196.18,-382 70.18,-382 70.18,-330 196.18,-330 196.18,-382"/>
<text text-anchor="start" x="78.18" y="-370" font-family="Helvetica,sans-Serif" font-size="10.00">/mnt/raid10/stargate</text>
<text text-anchor="start" x="78.18" y="-359" font-family="Helvetica,sans-Serif" font-size="10.00">/ivi&#45;homescreen/shell</text>
<text text-anchor="start" x="78.18" y="-348" font-family="Helvetica,sans-Serif" font-size="10.00">/static_plugins/gstreamer</text>
<text text-anchor="middle" x="133.18" y="-337" font-family="Helvetica,sans-Serif" font-size="10.00">_egl/nv12.h</text>
</a>
</g>
</g>
<!-- Node1&#45;&gt;Node2 -->
<g id="edge1" class="edge">
<title>Node1&#45;&gt;Node2</title>
<path fill="none" stroke="#63b8ff" d="M3340.52,-436.98C2959.06,-433.79 998.73,-415.98 397.18,-382 328.34,-378.11 249.7,-370.22 196.28,-364.34"/>
<polygon fill="#63b8ff" stroke="#63b8ff" points="3340.52,-440.48 3350.55,-437.06 3340.58,-433.48 3340.52,-440.48"/>
</g>
<!-- Node4 -->
<g id="node4" class="node">
<title>Node4</title>
<g id="a_node4"><a xlink:href="flutter__view_8cc.html" target="_top" xlink:title=" ">
<polygon fill="white" stroke="#666666" points="3586.68,-211.5 3477.68,-211.5 3477.68,-170.5 3586.68,-170.5 3586.68,-211.5"/>
<text text-anchor="start" x="3485.68" y="-199.5" font-family="Helvetica,sans-Serif" font-size="10.00">/mnt/raid10/stargate</text>
<text text-anchor="start" x="3485.68" y="-188.5" font-family="Helvetica,sans-Serif" font-size="10.00">/ivi&#45;homescreen/shell</text>
<text text-anchor="middle" x="3532.18" y="-177.5" font-family="Helvetica,sans-Serif" font-size="10.00">/view/flutter_view.cc</text>
</a>
</g>
</g>
<!-- Node1&#45;&gt;Node4 -->
<g id="edge3" class="edge">
<title>Node1&#45;&gt;Node4</title>
<path fill="none" stroke="#63b8ff" d="M3420.04,-408.76C3446.15,-358.3 3499.56,-255.04 3521.95,-211.77"/>
<polygon fill="#63b8ff" stroke="#63b8ff" points="3416.84,-407.33 3415.35,-417.82 3423.06,-410.55 3416.84,-407.33"/>
</g>
<!-- Node5 -->
<g id="node5" class="node">
<title>Node5</title>
<g id="a_node5"><a xlink:href="flutter__view_8h.html" target="_top" xlink:title=" ">
<polygon fill="white" stroke="#666666" points="515.68,-376.5 406.68,-376.5 406.68,-335.5 515.68,-335.5 515.68,-376.5"/>
<text text-anchor="start" x="414.68" y="-364.5" font-family="Helvetica,sans-Serif" font-size="10.00">/mnt/raid10/stargate</text>
<text text-anchor="start" x="414.68" y="-353.5" font-family="Helvetica,sans-Serif" font-size="10.00">/ivi&#45;homescreen/shell</text>
<text text-anchor="middle" x="461.18" y="-342.5" font-family="Helvetica,sans-Serif" font-size="10.00">/view/flutter_view.h</text>
</a>
</g>
</g>
<!-- Node1&#45;&gt;Node5 -->
<g id="edge4" class="edge">
<title>Node1&#45;&gt;Node5</title>
<path fill="none" stroke="#63b8ff" d="M3340.54,-435.73C2947.11,-424.97 879.09,-368.43 515.72,-358.49"/>
<polygon fill="#63b8ff" stroke="#63b8ff" points="3340.51,-439.23 3350.61,-436.01 3340.71,-432.24 3340.51,-439.23"/>
</g>
<!-- Node36 -->
<g id="node36" class="node">
<title>Node36</title>
<g id="a_node36"><a xlink:href="window_8cc.html" target="_top" xlink:title=" ">
<polygon fill="white" stroke="#666666" points="3713.68,-211.5 3604.68,-211.5 3604.68,-170.5 3713.68,-170.5 3713.68,-211.5"/>
<text text-anchor="start" x="3612.68" y="-199.5" font-family="Helvetica,sans-Serif" font-size="10.00">/mnt/raid10/stargate</text>
<text text-anchor="start" x="3612.68" y="-188.5" font-family="Helvetica,sans-Serif" font-size="10.00">/ivi&#45;homescreen/shell</text>
<text text-anchor="middle" x="3659.18" y="-177.5" font-family="Helvetica,sans-Serif" font-size="10.00">/wayland/window.cc</text>
</a>
</g>
</g>
<!-- Node1&#45;&gt;Node36 -->
<g id="edge52" class="edge">
<title>Node1&#45;&gt;Node36</title>
<path fill="none" stroke="#63b8ff" d="M3432.99,-410.62C3484.44,-360.88 3593.39,-255.58 3638.72,-211.77"/>
<polygon fill="#63b8ff" stroke="#63b8ff" points="3430.29,-408.36 3425.53,-417.82 3435.16,-413.39 3430.29,-408.36"/>
</g>
<!-- Node3 -->
<g id="node3" class="node">
<title>Node3</title>
<g id="a_node3"><a xlink:href="gstreamer__egl_8cc.html" target="_top" xlink:title=" ">
<polygon fill="white" stroke="#666666" points="766.18,-52 640.18,-52 640.18,0 766.18,0 766.18,-52"/>
<text text-anchor="start" x="648.18" y="-40" font-family="Helvetica,sans-Serif" font-size="10.00">/mnt/raid10/stargate</text>
<text text-anchor="start" x="648.18" y="-29" font-family="Helvetica,sans-Serif" font-size="10.00">/ivi&#45;homescreen/shell</text>
<text text-anchor="start" x="648.18" y="-18" font-family="Helvetica,sans-Serif" font-size="10.00">/static_plugins/gstreamer</text>
<text text-anchor="middle" x="703.18" y="-7" font-family="Helvetica,sans-Serif" font-size="10.00">_egl/gstreamer_egl.cc</text>
</a>
</g>
</g>
<!-- Node2&#45;&gt;Node3 -->
<g id="edge2" class="edge">
<title>Node2&#45;&gt;Node3</title>
<path fill="none" stroke="#63b8ff" d="M76,-324.11C64.68,-315.68 53.92,-305.61 46.18,-294 -4.63,-217.83 -23.72,-149.42 44.18,-88 87.82,-48.52 483.68,-33.16 640.05,-28.6"/>
<polygon fill="#63b8ff" stroke="#63b8ff" points="74.12,-327.07 84.31,-329.96 78.15,-321.34 74.12,-327.07"/>
</g>
<!-- Node5&#45;&gt;Node4 -->
<g id="edge51" class="edge">
<title>Node5&#45;&gt;Node4</title>
<path fill="none" stroke="#63b8ff" d="M525.86,-354.98C908.51,-354.39 2878.94,-345.12 3468.18,-217 3474.47,-215.63 3480.96,-213.73 3487.27,-211.58"/>
<polygon fill="#63b8ff" stroke="#63b8ff" points="525.79,-351.48 515.8,-354.99 525.8,-358.48 525.79,-351.48"/>
</g>
<!-- Node6 -->
<g id="node6" class="node">
<title>Node6</title>
<g id="a_node6"><a xlink:href="app_8cc.html" target="_top" xlink:title=" ">
<polygon fill="white" stroke="#666666" points="228.68,-211.5 119.68,-211.5 119.68,-170.5 228.68,-170.5 228.68,-211.5"/>
<text text-anchor="start" x="127.68" y="-199.5" font-family="Helvetica,sans-Serif" font-size="10.00">/mnt/raid10/stargate</text>
<text text-anchor="start" x="127.68" y="-188.5" font-family="Helvetica,sans-Serif" font-size="10.00">/ivi&#45;homescreen/shell</text>
<text text-anchor="middle" x="174.18" y="-177.5" font-family="Helvetica,sans-Serif" font-size="10.00">/app.cc</text>
</a>
</g>
</g>
<!-- Node5&#45;&gt;Node6 -->
<g id="edge5" class="edge">
<title>Node5&#45;&gt;Node6</title>
<path fill="none" stroke="#63b8ff" d="M397.06,-336.57C368.4,-326.58 335.08,-312.46 308.18,-294 287.69,-279.94 289.26,-268.9 270.18,-253 251.52,-237.45 228.63,-222.76 209.88,-211.7"/>
<polygon fill="#63b8ff" stroke="#63b8ff" points="396,-339.9 406.59,-339.79 398.24,-333.27 396,-339.9"/>
</g>
<!-- Node7 -->
<g id="node7" class="node">
<title>Node7</title>
<g id="a_node7"><a xlink:href="app_8h.html" target="_top" xlink:title=" ">
<polygon fill="white" stroke="#666666" points="453.18,-288.5 317.18,-288.5 317.18,-258.5 453.18,-258.5 453.18,-288.5"/>
<text text-anchor="start" x="325.18" y="-276.5" font-family="Helvetica,sans-Serif" font-size="10.00">/mnt/raid10/stargate</text>
<text text-anchor="middle" x="385.18" y="-265.5" font-family="Helvetica,sans-Serif" font-size="10.00">/ivi&#45;homescreen/shell/app.h</text>
</a>
</g>
</g>
<!-- Node5&#45;&gt;Node7 -->
<g id="edge6" class="edge">
<title>Node5&#45;&gt;Node7</title>
<path fill="none" stroke="#63b8ff" d="M435.41,-327.71C423.12,-314.69 408.9,-299.63 398.74,-288.87"/>
<polygon fill="#63b8ff" stroke="#63b8ff" points="432.98,-330.23 442.39,-335.1 438.07,-325.43 432.98,-330.23"/>
</g>
<!-- Node9 -->
<g id="node9" class="node">
<title>Node9</title>
<g id="a_node9"><a xlink:href="engine_8h.html" target="_top" xlink:title=" ">
<polygon fill="white" stroke="#666666" points="2081.68,-294 1972.68,-294 1972.68,-253 2081.68,-253 2081.68,-294"/>
<text text-anchor="start" x="1980.68" y="-282" font-family="Helvetica,sans-Serif" font-size="10.00">/mnt/raid10/stargate</text>
<text text-anchor="start" x="1980.68" y="-271" font-family="Helvetica,sans-Serif" font-size="10.00">/ivi&#45;homescreen/shell</text>
<text text-anchor="middle" x="2027.18" y="-260" font-family="Helvetica,sans-Serif" font-size="10.00">/engine.h</text>
</a>
</g>
</g>
<!-- Node5&#45;&gt;Node9 -->
<g id="edge9" class="edge">
<title>Node5&#45;&gt;Node9</title>
<path fill="none" stroke="#63b8ff" d="M526.33,-351.65C784.56,-338.38 1733.67,-289.59 1972.4,-277.32"/>
<polygon fill="#63b8ff" stroke="#63b8ff" points="525.8,-348.17 515.99,-352.18 526.16,-355.16 525.8,-348.17"/>
</g>
<!-- Node13 -->
<g id="node13" class="node">
<title>Node13</title>
<g id="a_node13"><a xlink:href="texture__navi__render__egl_8cc.html" target="_top" xlink:title=" ">
<polygon fill="white" stroke="#666666" points="939.68,-52 784.68,-52 784.68,0 939.68,0 939.68,-52"/>
<text text-anchor="start" x="792.68" y="-40" font-family="Helvetica,sans-Serif" font-size="10.00">/mnt/raid10/stargate</text>
<text text-anchor="start" x="792.68" y="-29" font-family="Helvetica,sans-Serif" font-size="10.00">/ivi&#45;homescreen/shell</text>
<text text-anchor="start" x="792.68" y="-18" font-family="Helvetica,sans-Serif" font-size="10.00">/textures/navi_render</text>
<text text-anchor="middle" x="862.18" y="-7" font-family="Helvetica,sans-Serif" font-size="10.00">_egl/texture_navi_render_egl.cc</text>
</a>
</g>
</g>
<!-- Node5&#45;&gt;Node13 -->
<g id="edge48" class="edge">
<title>Node5&#45;&gt;Node13</title>
<path fill="none" stroke="#63b8ff" d="M396.22,-349.25C292.15,-339.38 97.61,-317.94 77.18,-294 17.73,-224.37 14.13,-154.39 77.18,-88 130.66,-31.69 698.58,-64.81 775.18,-52 778.28,-51.48 781.42,-50.89 784.59,-50.24"/>
<polygon fill="#63b8ff" stroke="#63b8ff" points="396.02,-352.75 406.3,-350.2 396.68,-345.78 396.02,-352.75"/>
</g>
<!-- Node14 -->
<g id="node14" class="node">
<title>Node14</title>
<g id="a_node14"><a xlink:href="texture__test__egl_8cc.html" target="_top" xlink:title=" ">
<polygon fill="white" stroke="#666666" points="1082.68,-52 957.68,-52 957.68,0 1082.68,0 1082.68,-52"/>
<text text-anchor="start" x="965.68" y="-40" font-family="Helvetica,sans-Serif" font-size="10.00">/mnt/raid10/stargate</text>
<text text-anchor="start" x="965.68" y="-29" font-family="Helvetica,sans-Serif" font-size="10.00">/ivi&#45;homescreen/shell</text>
<text text-anchor="start" x="965.68" y="-18" font-family="Helvetica,sans-Serif" font-size="10.00">/textures/test_egl/texture</text>
<text text-anchor="middle" x="1020.18" y="-7" font-family="Helvetica,sans-Serif" font-size="10.00">_test_egl.cc</text>
</a>
</g>
</g>
<!-- Node5&#45;&gt;Node14 -->
<g id="edge49" class="edge">
<title>Node5&#45;&gt;Node14</title>
<path fill="none" stroke="#63b8ff" d="M396.4,-348.24C300.07,-337.54 128.4,-315.66 110.18,-294 73.27,-250.13 72.44,-208.16 110.18,-165 233.85,-23.53 765.39,-95.59 948.18,-52 951.26,-51.26 954.41,-50.44 957.57,-49.57"/>
<polygon fill="#63b8ff" stroke="#63b8ff" points="396.29,-351.75 406.62,-349.37 397.06,-344.8 396.29,-351.75"/>
</g>
<!-- Node19 -->
<g id="node19" class="node">
<title>Node19</title>
<g id="a_node19"><a xlink:href="comp__region_8cc.html" target="_top" xlink:title=" ">
<polygon fill="white" stroke="#666666" points="789.18,-217 651.18,-217 651.18,-165 789.18,-165 789.18,-217"/>
<text text-anchor="start" x="659.18" y="-205" font-family="Helvetica,sans-Serif" font-size="10.00">/mnt/raid10/stargate</text>
<text text-anchor="start" x="659.18" y="-194" font-family="Helvetica,sans-Serif" font-size="10.00">/ivi&#45;homescreen/shell</text>
<text text-anchor="start" x="659.18" y="-183" font-family="Helvetica,sans-Serif" font-size="10.00">/static_plugins/comp_region</text>
<text text-anchor="middle" x="720.18" y="-172" font-family="Helvetica,sans-Serif" font-size="10.00">/comp_region.cc</text>
</a>
</g>
</g>
<!-- Node5&#45;&gt;Node19 -->
<g id="edge44" class="edge">
<title>Node5&#45;&gt;Node19</title>
<path fill="none" stroke="#63b8ff" d="M525.32,-334.51C552.58,-324.36 584.04,-310.68 610.18,-294 643.98,-272.42 676.92,-239.89 697.8,-217.4"/>
<polygon fill="#63b8ff" stroke="#63b8ff" points="524.06,-331.24 515.86,-337.95 526.46,-337.81 524.06,-331.24"/>
</g>
<!-- Node37 -->
<g id="node37" class="node">
<title>Node37</title>
<g id="a_node37"><a xlink:href="texture__egl_8h.html" target="_top" xlink:title=" ">
<polygon fill="white" stroke="#666666" points="601.18,-294 471.18,-294 471.18,-253 601.18,-253 601.18,-294"/>
<text text-anchor="start" x="479.18" y="-282" font-family="Helvetica,sans-Serif" font-size="10.00">/mnt/raid10/stargate</text>
<text text-anchor="start" x="479.18" y="-271" font-family="Helvetica,sans-Serif" font-size="10.00">/ivi&#45;homescreen/shell</text>
<text text-anchor="middle" x="536.18" y="-260" font-family="Helvetica,sans-Serif" font-size="10.00">/textures/egl/texture_egl.h</text>
</a>
</g>
</g>
<!-- Node5&#45;&gt;Node37 -->
<g id="edge45" class="edge">
<title>Node5&#45;&gt;Node37</title>
<path fill="none" stroke="#63b8ff" d="M486.56,-327.76C496.82,-316.74 508.44,-304.27 517.85,-294.17"/>
<polygon fill="#63b8ff" stroke="#63b8ff" points="483.97,-325.4 479.72,-335.1 489.09,-330.17 483.97,-325.4"/>
</g>
<!-- Node39 -->
<g id="node39" class="node">
<title>Node39</title>
<g id="a_node39"><a xlink:href="compositor__surface_8cc.html" target="_top" xlink:title=" ">
<polygon fill="white" stroke="#666666" points="261.18,-294 119.18,-294 119.18,-253 261.18,-253 261.18,-294"/>
<text text-anchor="start" x="127.18" y="-282" font-family="Helvetica,sans-Serif" font-size="10.00">/mnt/raid10/stargate</text>
<text text-anchor="start" x="127.18" y="-271" font-family="Helvetica,sans-Serif" font-size="10.00">/ivi&#45;homescreen/shell</text>
<text text-anchor="middle" x="190.18" y="-260" font-family="Helvetica,sans-Serif" font-size="10.00">/view/compositor_surface.cc</text>
</a>
</g>
</g>
<!-- Node5&#45;&gt;Node39 -->
<g id="edge50" class="edge">
<title>Node5&#45;&gt;Node39</title>
<path fill="none" stroke="#63b8ff" d="M396.98,-335.93C354.49,-323.31 298.93,-306.8 256.09,-294.08"/>
<polygon fill="#63b8ff" stroke="#63b8ff" points="396.08,-339.31 406.66,-338.81 398.07,-332.6 396.08,-339.31"/>
</g>
<!-- Node7&#45;&gt;Node6 -->
<g id="edge7" class="edge">
<title>Node7&#45;&gt;Node6</title>
<path fill="none" stroke="#63b8ff" d="M337.58,-254.91C308.52,-244.11 270.64,-229.91 237.18,-217 232.67,-215.26 228,-213.44 223.32,-211.61"/>
<polygon fill="#63b8ff" stroke="#63b8ff" points="336.48,-258.24 347.08,-258.44 338.92,-251.68 336.48,-258.24"/>
</g>
<!-- Node8 -->
<g id="node8" class="node">
<title>Node8</title>
<g id="a_node8"><a xlink:href="main_8cc.html" target="_top" xlink:title=" ">
<polygon fill="white" stroke="#666666" points="355.68,-211.5 246.68,-211.5 246.68,-170.5 355.68,-170.5 355.68,-211.5"/>
<text text-anchor="start" x="254.68" y="-199.5" font-family="Helvetica,sans-Serif" font-size="10.00">/mnt/raid10/stargate</text>
<text text-anchor="start" x="254.68" y="-188.5" font-family="Helvetica,sans-Serif" font-size="10.00">/ivi&#45;homescreen/shell</text>
<text text-anchor="middle" x="301.18" y="-177.5" font-family="Helvetica,sans-Serif" font-size="10.00">/main.cc</text>
</a>
</g>
</g>
<!-- Node7&#45;&gt;Node8 -->
<g id="edge8" class="edge">
<title>Node7&#45;&gt;Node8</title>
<path fill="none" stroke="#63b8ff" d="M363.03,-251.28C350.19,-238.98 334.15,-223.6 321.62,-211.59"/>
<polygon fill="#63b8ff" stroke="#63b8ff" points="360.9,-254.09 370.54,-258.48 365.75,-249.03 360.9,-254.09"/>
</g>
<!-- Node9&#45;&gt;Node3 -->
<g id="edge27" class="edge">
<title>Node9&#45;&gt;Node3</title>
<path fill="none" stroke="#63b8ff" d="M1962.4,-272.79C1728.35,-273.4 934.95,-271.38 836.18,-217 831.83,-214.61 755.41,-103.38 720.42,-52.24"/>
<polygon fill="#63b8ff" stroke="#63b8ff" points="1962.48,-276.29 1972.47,-272.76 1962.46,-269.29 1962.48,-276.29"/>
</g>
<!-- Node9&#45;&gt;Node4 -->
<g id="edge41" class="edge">
<title>Node9&#45;&gt;Node4</title>
<path fill="none" stroke="#63b8ff" d="M2092.03,-272.86C2336.2,-273.78 3199.82,-272.92 3468.18,-217 3474.6,-215.66 3481.22,-213.74 3487.65,-211.56"/>
<polygon fill="#63b8ff" stroke="#63b8ff" points="2091.91,-269.36 2081.89,-272.82 2091.88,-276.36 2091.91,-269.36"/>
</g>
<!-- Node10 -->
<g id="node10" class="node">
<title>Node10</title>
<g id="a_node10"><a xlink:href="backend_8h.html" target="_top" xlink:title=" ">
<polygon fill="white" stroke="#666666" points="3459.68,-211.5 3350.68,-211.5 3350.68,-170.5 3459.68,-170.5 3459.68,-211.5"/>
<text text-anchor="start" x="3358.68" y="-199.5" font-family="Helvetica,sans-Serif" font-size="10.00">/mnt/raid10/stargate</text>
<text text-anchor="start" x="3358.68" y="-188.5" font-family="Helvetica,sans-Serif" font-size="10.00">/ivi&#45;homescreen/shell</text>
<text text-anchor="middle" x="3405.18" y="-177.5" font-family="Helvetica,sans-Serif" font-size="10.00">/backend/backend.h</text>
</a>
</g>
</g>
<!-- Node9&#45;&gt;Node10 -->
<g id="edge10" class="edge">
<title>Node9&#45;&gt;Node10</title>
<path fill="none" stroke="#63b8ff" d="M2091.95,-272.58C2320.92,-272.37 3090.8,-267.77 3332.18,-217 3338.6,-215.65 3345.21,-213.73 3351.73,-211.54"/>
<polygon fill="#63b8ff" stroke="#63b8ff" points="2091.78,-269.08 2081.78,-272.58 2091.78,-276.08 2091.78,-269.08"/>
</g>
<!-- Node12 -->
<g id="node12" class="node">
<title>Node12</title>
<g id="a_node12"><a xlink:href="wayland__egl_8cc.html" target="_top" xlink:title=" ">
<polygon fill="white" stroke="#666666" points="1582.68,-46.5 1455.68,-46.5 1455.68,-5.5 1582.68,-5.5 1582.68,-46.5"/>
<text text-anchor="start" x="1463.68" y="-34.5" font-family="Helvetica,sans-Serif" font-size="10.00">/mnt/raid10/stargate</text>
<text text-anchor="start" x="1463.68" y="-23.5" font-family="Helvetica,sans-Serif" font-size="10.00">/ivi&#45;homescreen/shell</text>
<text text-anchor="middle" x="1519.18" y="-12.5" font-family="Helvetica,sans-Serif" font-size="10.00">/backend/wayland_egl.cc</text>
</a>
</g>
</g>
<!-- Node9&#45;&gt;Node12 -->
<g id="edge20" class="edge">
<title>Node9&#45;&gt;Node12</title>
<path fill="none" stroke="#63b8ff" d="M2018.6,-243.09C2010.08,-218.84 1994.69,-185.24 1970.18,-165 1855.72,-70.52 1677.26,-40.65 1582.8,-31.26"/>
<polygon fill="#63b8ff" stroke="#63b8ff" points="2015.37,-244.46 2021.84,-252.84 2022.01,-242.25 2015.37,-244.46"/>
</g>
<!-- Node16 -->
<g id="node16" class="node">
<title>Node16</title>
<g id="a_node16"><a xlink:href="wayland__vulkan_8cc.html" target="_top" xlink:title=" ">
<polygon fill="white" stroke="#666666" points="2151.68,-46.5 2008.68,-46.5 2008.68,-5.5 2151.68,-5.5 2151.68,-46.5"/>
<text text-anchor="start" x="2016.68" y="-34.5" font-family="Helvetica,sans-Serif" font-size="10.00">/mnt/raid10/stargate</text>
<text text-anchor="start" x="2016.68" y="-23.5" font-family="Helvetica,sans-Serif" font-size="10.00">/ivi&#45;homescreen/shell</text>
<text text-anchor="middle" x="2080.18" y="-12.5" font-family="Helvetica,sans-Serif" font-size="10.00">/backend/wayland_vulkan.cc</text>
</a>
</g>
</g>
<!-- Node9&#45;&gt;Node16 -->
<g id="edge21" class="edge">
<title>Node9&#45;&gt;Node16</title>
<path fill="none" stroke="#63b8ff" d="M2029.5,-242.72C2032.87,-205.86 2040.4,-141.43 2055.18,-88 2059.11,-73.77 2065.43,-58.39 2070.73,-46.64"/>
<polygon fill="#63b8ff" stroke="#63b8ff" points="2026,-242.52 2028.62,-252.79 2032.97,-243.13 2026,-242.52"/>
</g>
<!-- Node17 -->
<g id="node17" class="node">
<title>Node17</title>
<g id="a_node17"><a xlink:href="engine_8cc.html" target="_top" xlink:title=" ">
<polygon fill="white" stroke="#666666" points="1659.68,-211.5 1550.68,-211.5 1550.68,-170.5 1659.68,-170.5 1659.68,-211.5"/>
<text text-anchor="start" x="1558.68" y="-199.5" font-family="Helvetica,sans-Serif" font-size="10.00">/mnt/raid10/stargate</text>
<text text-anchor="start" x="1558.68" y="-188.5" font-family="Helvetica,sans-Serif" font-size="10.00">/ivi&#45;homescreen/shell</text>
<text text-anchor="middle" x="1605.18" y="-177.5" font-family="Helvetica,sans-Serif" font-size="10.00">/engine.cc</text>
</a>
</g>
</g>
<!-- Node9&#45;&gt;Node17 -->
<g id="edge22" class="edge">
<title>Node9&#45;&gt;Node17</title>
<path fill="none" stroke="#63b8ff" d="M1962.2,-266.88C1889.58,-259.58 1768.96,-244.41 1668.18,-217 1662.5,-215.46 1656.64,-213.56 1650.88,-211.51"/>
<polygon fill="#63b8ff" stroke="#63b8ff" points="1962.26,-270.4 1972.56,-267.9 1962.95,-263.44 1962.26,-270.4"/>
</g>
<!-- Node18 -->
<g id="node18" class="node">
<title>Node18</title>
<g id="a_node18"><a xlink:href="accessibility_8cc.html" target="_top" xlink:title=" ">
<polygon fill="white" stroke="#666666" points="1814.68,-217 1677.68,-217 1677.68,-165 1814.68,-165 1814.68,-217"/>
<text text-anchor="start" x="1685.68" y="-205" font-family="Helvetica,sans-Serif" font-size="10.00">/mnt/raid10/stargate</text>
<text text-anchor="start" x="1685.68" y="-194" font-family="Helvetica,sans-Serif" font-size="10.00">/ivi&#45;homescreen/shell</text>
<text text-anchor="start" x="1685.68" y="-183" font-family="Helvetica,sans-Serif" font-size="10.00">/static_plugins/accessibility</text>
<text text-anchor="middle" x="1746.18" y="-172" font-family="Helvetica,sans-Serif" font-size="10.00">/accessibility.cc</text>
</a>
</g>
</g>
<!-- Node9&#45;&gt;Node18 -->
<g id="edge23" class="edge">
<title>Node9&#45;&gt;Node18</title>
<path fill="none" stroke="#63b8ff" d="M1962.4,-255.56C1922.43,-244.91 1870.19,-230.66 1824.18,-217 1821.18,-216.11 1818.12,-215.19 1815.03,-214.25"/>
<polygon fill="#63b8ff" stroke="#63b8ff" points="1961.72,-259 1972.28,-258.18 1963.52,-252.23 1961.72,-259"/>
</g>
<!-- Node9&#45;&gt;Node19 -->
<g id="edge24" class="edge">
<title>Node9&#45;&gt;Node19</title>
<path fill="none" stroke="#63b8ff" d="M1962.54,-271.67C1743.35,-268.55 1029.33,-255.57 803.18,-217 798.73,-216.24 794.18,-215.32 789.62,-214.28"/>
<polygon fill="#63b8ff" stroke="#63b8ff" points="1962.56,-275.18 1972.6,-271.82 1962.65,-268.18 1962.56,-275.18"/>
</g>
<!-- Node20 -->
<g id="node20" class="node">
<title>Node20</title>
<g id="a_node20"><a xlink:href="comp__surf_8cc.html" target="_top" xlink:title=" ">
<polygon fill="white" stroke="#666666" points="1961.18,-217 1833.18,-217 1833.18,-165 1961.18,-165 1961.18,-217"/>
<text text-anchor="start" x="1841.18" y="-205" font-family="Helvetica,sans-Serif" font-size="10.00">/mnt/raid10/stargate</text>
<text text-anchor="start" x="1841.18" y="-194" font-family="Helvetica,sans-Serif" font-size="10.00">/ivi&#45;homescreen/shell</text>
<text text-anchor="start" x="1841.18" y="-183" font-family="Helvetica,sans-Serif" font-size="10.00">/static_plugins/comp_surf</text>
<text text-anchor="middle" x="1897.18" y="-172" font-family="Helvetica,sans-Serif" font-size="10.00">/comp_surf.cc</text>
</a>
</g>
</g>
<!-- Node9&#45;&gt;Node20 -->
<g id="edge25" class="edge">
<title>Node9&#45;&gt;Node20</title>
<path fill="none" stroke="#63b8ff" d="M1986.55,-247.34C1971.09,-237.77 1953.48,-226.86 1937.99,-217.28"/>
<polygon fill="#63b8ff" stroke="#63b8ff" points="1985.03,-250.52 1995.37,-252.81 1988.71,-244.57 1985.03,-250.52"/>
</g>
<!-- Node21 -->
<g id="node21" class="node">
<title>Node21</title>
<g id="a_node21"><a xlink:href="desktop__window_8cc.html" target="_top" xlink:title=" ">
<polygon fill="white" stroke="#666666" points="2198.68,-217 2055.68,-217 2055.68,-165 2198.68,-165 2198.68,-217"/>
<text text-anchor="start" x="2063.68" y="-205" font-family="Helvetica,sans-Serif" font-size="10.00">/mnt/raid10/stargate</text>
<text text-anchor="start" x="2063.68" y="-194" font-family="Helvetica,sans-Serif" font-size="10.00">/ivi&#45;homescreen/shell</text>
<text text-anchor="start" x="2063.68" y="-183" font-family="Helvetica,sans-Serif" font-size="10.00">/static_plugins/desktop</text>
<text text-anchor="middle" x="2127.18" y="-172" font-family="Helvetica,sans-Serif" font-size="10.00">_window/desktop_window.cc</text>
</a>
</g>
</g>
<!-- Node9&#45;&gt;Node21 -->
<g id="edge26" class="edge">
<title>Node9&#45;&gt;Node21</title>
<path fill="none" stroke="#63b8ff" d="M2059.43,-246.54C2071.08,-237.16 2084.2,-226.59 2095.78,-217.28"/>
<polygon fill="#63b8ff" stroke="#63b8ff" points="2057.23,-243.81 2051.64,-252.81 2061.62,-249.26 2057.23,-243.81"/>
</g>
<!-- Node22 -->
<g id="node22" class="node">
<title>Node22</title>
<g id="a_node22"><a xlink:href="isolate_8cc.html" target="_top" xlink:title=" ">
<polygon fill="white" stroke="#666666" points="2327.68,-217 2216.68,-217 2216.68,-165 2327.68,-165 2327.68,-217"/>
<text text-anchor="start" x="2224.68" y="-205" font-family="Helvetica,sans-Serif" font-size="10.00">/mnt/raid10/stargate</text>
<text text-anchor="start" x="2224.68" y="-194" font-family="Helvetica,sans-Serif" font-size="10.00">/ivi&#45;homescreen/shell</text>
<text text-anchor="start" x="2224.68" y="-183" font-family="Helvetica,sans-Serif" font-size="10.00">/static_plugins/isolate</text>
<text text-anchor="middle" x="2272.18" y="-172" font-family="Helvetica,sans-Serif" font-size="10.00">/isolate.cc</text>
</a>
</g>
</g>
<!-- Node9&#45;&gt;Node22 -->
<g id="edge28" class="edge">
<title>Node9&#45;&gt;Node22</title>
<path fill="none" stroke="#63b8ff" d="M2091.78,-253.74C2126.22,-243.45 2169.2,-230.14 2207.18,-217 2210.26,-215.93 2213.42,-214.81 2216.6,-213.66"/>
<polygon fill="#63b8ff" stroke="#63b8ff" points="2090.43,-250.49 2081.84,-256.7 2092.42,-257.2 2090.43,-250.49"/>
</g>
<!-- Node23 -->
<g id="node23" class="node">
<title>Node23</title>
<g id="a_node23"><a xlink:href="key__event_8cc.html" target="_top" xlink:title=" ">
<polygon fill="white" stroke="#666666" points="2474.18,-217 2346.18,-217 2346.18,-165 2474.18,-165 2474.18,-217"/>
<text text-anchor="start" x="2354.18" y="-205" font-family="Helvetica,sans-Serif" font-size="10.00">/mnt/raid10/stargate</text>
<text text-anchor="start" x="2354.18" y="-194" font-family="Helvetica,sans-Serif" font-size="10.00">/ivi&#45;homescreen/shell</text>
<text text-anchor="start" x="2354.18" y="-183" font-family="Helvetica,sans-Serif" font-size="10.00">/static_plugins/key_event</text>
<text text-anchor="middle" x="2410.18" y="-172" font-family="Helvetica,sans-Serif" font-size="10.00">/key_event.cc</text>
</a>
</g>
</g>
<!-- Node9&#45;&gt;Node23 -->
<g id="edge29" class="edge">
<title>Node9&#45;&gt;Node23</title>
<path fill="none" stroke="#63b8ff" d="M2092.02,-263.71C2154.96,-254.51 2252.92,-238.41 2336.18,-217 2339.46,-216.16 2342.81,-215.24 2346.17,-214.27"/>
<polygon fill="#63b8ff" stroke="#63b8ff" points="2091.24,-260.29 2081.84,-265.18 2092.24,-267.21 2091.24,-260.29"/>
</g>
<!-- Node24 -->
<g id="node24" class="node">
<title>Node24</title>
<g id="a_node24"><a xlink:href="mouse__cursor_8cc.html" target="_top" xlink:title=" ">
<polygon fill="white" stroke="#666666" points="2619.68,-217 2492.68,-217 2492.68,-165 2619.68,-165 2619.68,-217"/>
<text text-anchor="start" x="2500.68" y="-205" font-family="Helvetica,sans-Serif" font-size="10.00">/mnt/raid10/stargate</text>
<text text-anchor="start" x="2500.68" y="-194" font-family="Helvetica,sans-Serif" font-size="10.00">/ivi&#45;homescreen/shell</text>
<text text-anchor="start" x="2500.68" y="-183" font-family="Helvetica,sans-Serif" font-size="10.00">/static_plugins/mouse</text>
<text text-anchor="middle" x="2556.18" y="-172" font-family="Helvetica,sans-Serif" font-size="10.00">_cursor/mouse_cursor.cc</text>
</a>
</g>
</g>
<!-- Node9&#45;&gt;Node24 -->
<g id="edge30" class="edge">
<title>Node9&#45;&gt;Node24</title>
<path fill="none" stroke="#63b8ff" d="M2092.08,-268.88C2181.19,-262.93 2345.97,-248.48 2483.18,-217 2486.18,-216.31 2489.23,-215.54 2492.3,-214.72"/>
<polygon fill="#63b8ff" stroke="#63b8ff" points="2091.61,-265.4 2081.86,-269.54 2092.07,-272.38 2091.61,-265.4"/>
</g>
<!-- Node25 -->
<g id="node25" class="node">
<title>Node25</title>
<g id="a_node25"><a xlink:href="navigation_8cc.html" target="_top" xlink:title=" ">
<polygon fill="white" stroke="#666666" points="2764.68,-217 2637.68,-217 2637.68,-165 2764.68,-165 2764.68,-217"/>
<text text-anchor="start" x="2645.68" y="-205" font-family="Helvetica,sans-Serif" font-size="10.00">/mnt/raid10/stargate</text>
<text text-anchor="start" x="2645.68" y="-194" font-family="Helvetica,sans-Serif" font-size="10.00">/ivi&#45;homescreen/shell</text>
<text text-anchor="start" x="2645.68" y="-183" font-family="Helvetica,sans-Serif" font-size="10.00">/static_plugins/navigation</text>
<text text-anchor="middle" x="2701.18" y="-172" font-family="Helvetica,sans-Serif" font-size="10.00">/navigation.cc</text>
</a>
</g>
</g>
<!-- Node9&#45;&gt;Node25 -->
<g id="edge31" class="edge">
<title>Node9&#45;&gt;Node25</title>
<path fill="none" stroke="#63b8ff" d="M2091.72,-271.55C2202.61,-268.81 2435.92,-258.18 2628.18,-217 2631.19,-216.35 2634.25,-215.62 2637.32,-214.83"/>
<polygon fill="#63b8ff" stroke="#63b8ff" points="2091.62,-268.05 2081.7,-271.79 2091.78,-275.05 2091.62,-268.05"/>
</g>
<!-- Node26 -->
<g id="node26" class="node">
<title>Node26</title>
<g id="a_node26"><a xlink:href="opengl__texture_8cc.html" target="_top" xlink:title=" ">
<polygon fill="white" stroke="#666666" points="633.18,-217 501.18,-217 501.18,-165 633.18,-165 633.18,-217"/>
<text text-anchor="start" x="509.18" y="-205" font-family="Helvetica,sans-Serif" font-size="10.00">/mnt/raid10/stargate</text>
<text text-anchor="start" x="509.18" y="-194" font-family="Helvetica,sans-Serif" font-size="10.00">/ivi&#45;homescreen/shell</text>
<text text-anchor="start" x="509.18" y="-183" font-family="Helvetica,sans-Serif" font-size="10.00">/static_plugins/opengl</text>
<text text-anchor="middle" x="567.18" y="-172" font-family="Helvetica,sans-Serif" font-size="10.00">_texture/opengl_texture.cc</text>
</a>
</g>
</g>
<!-- Node9&#45;&gt;Node26 -->
<g id="edge32" class="edge">
<title>Node9&#45;&gt;Node26</title>
<path fill="none" stroke="#63b8ff" d="M1962.17,-272.32C1724.12,-271.27 900.35,-264.22 642.18,-217 639.34,-216.48 636.47,-215.88 633.58,-215.21"/>
<polygon fill="#63b8ff" stroke="#63b8ff" points="1962.38,-275.82 1972.4,-272.36 1962.41,-268.82 1962.38,-275.82"/>
</g>
<!-- Node27 -->
<g id="node27" class="node">
<title>Node27</title>
<g id="a_node27"><a xlink:href="package__info_8cc.html" target="_top" xlink:title=" ">
<polygon fill="white" stroke="#666666" points="2901.68,-217 2782.68,-217 2782.68,-165 2901.68,-165 2901.68,-217"/>
<text text-anchor="start" x="2790.68" y="-205" font-family="Helvetica,sans-Serif" font-size="10.00">/mnt/raid10/stargate</text>
<text text-anchor="start" x="2790.68" y="-194" font-family="Helvetica,sans-Serif" font-size="10.00">/ivi&#45;homescreen/shell</text>
<text text-anchor="start" x="2790.68" y="-183" font-family="Helvetica,sans-Serif" font-size="10.00">/static_plugins/package</text>
<text text-anchor="middle" x="2842.18" y="-172" font-family="Helvetica,sans-Serif" font-size="10.00">_info/package_info.cc</text>
</a>
</g>
</g>
<!-- Node9&#45;&gt;Node27 -->
<g id="edge33" class="edge">
<title>Node9&#45;&gt;Node27</title>
<path fill="none" stroke="#63b8ff" d="M2092.24,-269.94C2248.97,-263.41 2643.99,-244.66 2773.18,-217 2776.29,-216.33 2779.45,-215.56 2782.63,-214.7"/>
<polygon fill="#63b8ff" stroke="#63b8ff" points="2091.67,-266.46 2081.82,-270.37 2091.96,-273.46 2091.67,-266.46"/>
</g>
<!-- Node28 -->
<g id="node28" class="node">
<title>Node28</title>
<g id="a_node28"><a xlink:href="platform_8cc.html" target="_top" xlink:title=" ">
<polygon fill="white" stroke="#666666" points="3038.18,-217 2920.18,-217 2920.18,-165 3038.18,-165 3038.18,-217"/>
<text text-anchor="start" x="2928.18" y="-205" font-family="Helvetica,sans-Serif" font-size="10.00">/mnt/raid10/stargate</text>
<text text-anchor="start" x="2928.18" y="-194" font-family="Helvetica,sans-Serif" font-size="10.00">/ivi&#45;homescreen/shell</text>
<text text-anchor="start" x="2928.18" y="-183" font-family="Helvetica,sans-Serif" font-size="10.00">/static_plugins/platform</text>
<text text-anchor="middle" x="2979.18" y="-172" font-family="Helvetica,sans-Serif" font-size="10.00">/platform.cc</text>
</a>
</g>
</g>
<!-- Node9&#45;&gt;Node28 -->
<g id="edge34" class="edge">
<title>Node9&#45;&gt;Node28</title>
<path fill="none" stroke="#63b8ff" d="M2091.9,-270.82C2268.12,-265.86 2753.7,-249.56 2910.18,-217 2913.42,-216.33 2916.72,-215.53 2920.02,-214.64"/>
<polygon fill="#63b8ff" stroke="#63b8ff" points="2091.64,-267.32 2081.75,-271.1 2091.84,-274.32 2091.64,-267.32"/>
</g>
<!-- Node29 -->
<g id="node29" class="node">
<title>Node29</title>
<g id="a_node29"><a xlink:href="platform__views_8cc.html" target="_top" xlink:title=" ">
<polygon fill="white" stroke="#666666" points="3186.18,-217 3056.18,-217 3056.18,-165 3186.18,-165 3186.18,-217"/>
<text text-anchor="start" x="3064.18" y="-205" font-family="Helvetica,sans-Serif" font-size="10.00">/mnt/raid10/stargate</text>
<text text-anchor="start" x="3064.18" y="-194" font-family="Helvetica,sans-Serif" font-size="10.00">/ivi&#45;homescreen/shell</text>
<text text-anchor="start" x="3064.18" y="-183" font-family="Helvetica,sans-Serif" font-size="10.00">/static_plugins/platform</text>
<text text-anchor="middle" x="3121.18" y="-172" font-family="Helvetica,sans-Serif" font-size="10.00">_views/platform_views.cc</text>
</a>
</g>
</g>
<!-- Node9&#45;&gt;Node29 -->
<g id="edge35" class="edge">
<title>Node9&#45;&gt;Node29</title>
<path fill="none" stroke="#63b8ff" d="M2091.98,-271.27C2286.45,-267.21 2862.93,-252.45 3047.18,-217 3050.11,-216.44 3053.08,-215.78 3056.06,-215.07"/>
<polygon fill="#63b8ff" stroke="#63b8ff" points="2091.84,-267.77 2081.91,-271.48 2091.98,-274.77 2091.84,-267.77"/>
</g>
<!-- Node30 -->
<g id="node30" class="node">
<title>Node30</title>
<g id="a_node30"><a xlink:href="restoration_8cc.html" target="_top" xlink:title=" ">
<polygon fill="white" stroke="#666666" points="3332.18,-217 3204.18,-217 3204.18,-165 3332.18,-165 3332.18,-217"/>
<text text-anchor="start" x="3212.18" y="-205" font-family="Helvetica,sans-Serif" font-size="10.00">/mnt/raid10/stargate</text>
<text text-anchor="start" x="3212.18" y="-194" font-family="Helvetica,sans-Serif" font-size="10.00">/ivi&#45;homescreen/shell</text>
<text text-anchor="start" x="3212.18" y="-183" font-family="Helvetica,sans-Serif" font-size="10.00">/static_plugins/restoration</text>
<text text-anchor="middle" x="3268.18" y="-172" font-family="Helvetica,sans-Serif" font-size="10.00">/restoration.cc</text>
</a>
</g>
</g>
<!-- Node9&#45;&gt;Node30 -->
<g id="edge36" class="edge">
<title>Node9&#45;&gt;Node30</title>
<path fill="none" stroke="#63b8ff" d="M2091.75,-271.83C2304.36,-269.23 2981.08,-257.89 3195.18,-217 3198.07,-216.45 3201.01,-215.8 3203.96,-215.09"/>
<polygon fill="#63b8ff" stroke="#63b8ff" points="2091.64,-268.33 2081.68,-271.95 2091.73,-275.33 2091.64,-268.33"/>
</g>
<!-- Node31 -->
<g id="node31" class="node">
<title>Node31</title>
<g id="a_node31"><a xlink:href="secure__storage_8cc.html" target="_top" xlink:title=" ">
<polygon fill="white" stroke="#666666" points="982.68,-217 845.68,-217 845.68,-165 982.68,-165 982.68,-217"/>
<text text-anchor="start" x="853.68" y="-205" font-family="Helvetica,sans-Serif" font-size="10.00">/mnt/raid10/stargate</text>
<text text-anchor="start" x="853.68" y="-194" font-family="Helvetica,sans-Serif" font-size="10.00">/ivi&#45;homescreen/shell</text>
<text text-anchor="start" x="853.68" y="-183" font-family="Helvetica,sans-Serif" font-size="10.00">/static_plugins/secure</text>
<text text-anchor="middle" x="914.18" y="-172" font-family="Helvetica,sans-Serif" font-size="10.00">_storage/secure_storage.cc</text>
</a>
</g>
</g>
<!-- Node9&#45;&gt;Node31 -->
<g id="edge37" class="edge">
<title>Node9&#45;&gt;Node31</title>
<path fill="none" stroke="#63b8ff" d="M1962.4,-271.23C1765.95,-267.05 1178.85,-251.87 991.18,-217 988.41,-216.49 985.61,-215.9 982.79,-215.26"/>
<polygon fill="#63b8ff" stroke="#63b8ff" points="1962.49,-274.74 1972.57,-271.45 1962.64,-267.74 1962.49,-274.74"/>
</g>
<!-- Node32 -->
<g id="node32" class="node">
<title>Node32</title>
<g id="a_node32"><a xlink:href="text__input_8cc.html" target="_top" xlink:title=" ">
<polygon fill="white" stroke="#666666" points="1125.68,-217 1000.68,-217 1000.68,-165 1125.68,-165 1125.68,-217"/>
<text text-anchor="start" x="1008.68" y="-205" font-family="Helvetica,sans-Serif" font-size="10.00">/mnt/raid10/stargate</text>
<text text-anchor="start" x="1008.68" y="-194" font-family="Helvetica,sans-Serif" font-size="10.00">/ivi&#45;homescreen/shell</text>
<text text-anchor="start" x="1008.68" y="-183" font-family="Helvetica,sans-Serif" font-size="10.00">/static_plugins/text_input</text>
<text text-anchor="middle" x="1063.18" y="-172" font-family="Helvetica,sans-Serif" font-size="10.00">/text_input.cc</text>
</a>
</g>
</g>
<!-- Node9&#45;&gt;Node32 -->
<g id="edge38" class="edge">
<title>Node9&#45;&gt;Node32</title>
<path fill="none" stroke="#63b8ff" d="M1962.36,-270.79C1784.71,-265.75 1292.76,-249.2 1134.18,-217 1131.49,-216.45 1128.76,-215.83 1126.02,-215.14"/>
<polygon fill="#63b8ff" stroke="#63b8ff" points="1962.5,-274.3 1972.6,-271.08 1962.7,-267.3 1962.5,-274.3"/>
</g>
<!-- Node33 -->
<g id="node33" class="node">
<title>Node33</title>
<g id="a_node33"><a xlink:href="url__launcher_8cc.html" target="_top" xlink:title=" ">
<polygon fill="white" stroke="#666666" points="1278.68,-217 1143.68,-217 1143.68,-165 1278.68,-165 1278.68,-217"/>
<text text-anchor="start" x="1151.68" y="-205" font-family="Helvetica,sans-Serif" font-size="10.00">/mnt/raid10/stargate</text>
<text text-anchor="start" x="1151.68" y="-194" font-family="Helvetica,sans-Serif" font-size="10.00">/ivi&#45;homescreen/shell</text>
<text text-anchor="start" x="1151.68" y="-183" font-family="Helvetica,sans-Serif" font-size="10.00">/static_plugins/url_launcher</text>
<text text-anchor="middle" x="1211.18" y="-172" font-family="Helvetica,sans-Serif" font-size="10.00">/url_launcher.cc</text>
</a>
</g>
</g>
<!-- Node9&#45;&gt;Node33 -->
<g id="edge39" class="edge">
<title>Node9&#45;&gt;Node33</title>
<path fill="none" stroke="#63b8ff" d="M1962.09,-272.89C1832.37,-272.52 1532.92,-265.88 1287.18,-217 1284.45,-216.46 1281.69,-215.85 1278.91,-215.18"/>
<polygon fill="#63b8ff" stroke="#63b8ff" points="1962.25,-276.39 1972.25,-272.91 1962.26,-269.39 1962.25,-276.39"/>
</g>
<!-- Node34 -->
<g id="node34" class="node">
<title>Node34</title>
<g id="a_node34"><a xlink:href="texture_8cc.html" target="_top" xlink:title=" ">
<polygon fill="white" stroke="#666666" points="1405.68,-211.5 1296.68,-211.5 1296.68,-170.5 1405.68,-170.5 1405.68,-211.5"/>
<text text-anchor="start" x="1304.68" y="-199.5" font-family="Helvetica,sans-Serif" font-size="10.00">/mnt/raid10/stargate</text>
<text text-anchor="start" x="1304.68" y="-188.5" font-family="Helvetica,sans-Serif" font-size="10.00">/ivi&#45;homescreen/shell</text>
<text text-anchor="middle" x="1351.18" y="-177.5" font-family="Helvetica,sans-Serif" font-size="10.00">/textures/texture.cc</text>
</a>
</g>
</g>
<!-- Node9&#45;&gt;Node34 -->
<g id="edge40" class="edge">
<title>Node9&#45;&gt;Node34</title>
<path fill="none" stroke="#63b8ff" d="M1962.43,-272.7C1849.53,-271.71 1609.98,-263.68 1414.18,-217 1408.11,-215.55 1401.85,-213.63 1395.75,-211.5"/>
<polygon fill="#63b8ff" stroke="#63b8ff" points="1962.6,-276.2 1972.63,-272.77 1962.65,-269.2 1962.6,-276.2"/>
</g>
<!-- Node35 -->
<g id="node35" class="node">
<title>Node35</title>
<g id="a_node35"><a xlink:href="display_8cc.html" target="_top" xlink:title=" ">
<polygon fill="white" stroke="#666666" points="1532.68,-211.5 1423.68,-211.5 1423.68,-170.5 1532.68,-170.5 1532.68,-211.5"/>
<text text-anchor="start" x="1431.68" y="-199.5" font-family="Helvetica,sans-Serif" font-size="10.00">/mnt/raid10/stargate</text>
<text text-anchor="start" x="1431.68" y="-188.5" font-family="Helvetica,sans-Serif" font-size="10.00">/ivi&#45;homescreen/shell</text>
<text text-anchor="middle" x="1478.18" y="-177.5" font-family="Helvetica,sans-Serif" font-size="10.00">/wayland/display.cc</text>
</a>
</g>
</g>
<!-- Node9&#45;&gt;Node35 -->
<g id="edge42" class="edge">
<title>Node9&#45;&gt;Node35</title>
<path fill="none" stroke="#63b8ff" d="M1962.18,-270.51C1868.04,-266.42 1688.85,-254.04 1541.18,-217 1535.35,-215.54 1529.35,-213.67 1523.47,-211.61"/>
<polygon fill="#63b8ff" stroke="#63b8ff" points="1962.26,-274.02 1972.4,-270.94 1962.56,-267.03 1962.26,-274.02"/>
</g>
<!-- Node9&#45;&gt;Node36 -->
<g id="edge43" class="edge">
<title>Node9&#45;&gt;Node36</title>
<path fill="none" stroke="#63b8ff" d="M2092.1,-271.49C2369.35,-267 3446.62,-247.72 3595.18,-217 3601.6,-215.67 3608.22,-213.76 3614.65,-211.58"/>
<polygon fill="#63b8ff" stroke="#63b8ff" points="2091.75,-267.99 2081.81,-271.66 2091.86,-274.99 2091.75,-267.99"/>
</g>
<!-- Node10&#45;&gt;Node1 -->
<g id="edge19" class="edge">
<title>Node10&#45;&gt;Node1</title>
<path fill="none" stroke="#63b8ff" d="M3405.18,-221.8C3405.18,-272.67 3405.18,-374.91 3405.18,-417.82"/>
<polygon fill="#63b8ff" stroke="#63b8ff" points="3408.68,-221.77 3405.18,-211.77 3401.68,-221.77 3408.68,-221.77"/>
</g>
<!-- Node10&#45;&gt;Node9 -->
<g id="edge18" class="edge">
<title>Node10&#45;&gt;Node9</title>
<path fill="none" stroke="#63b8ff" d="M3359.89,-214.58C3356.64,-215.51 3353.39,-216.32 3350.18,-217 3102.72,-269.05 2299.78,-272.58 2082.02,-272.58"/>
<polygon fill="#63b8ff" stroke="#63b8ff" points="3361.07,-217.88 3369.55,-211.54 3358.96,-211.21 3361.07,-217.88"/>
</g>
<!-- Node11 -->
<g id="node11" class="node">
<title>Node11</title>
<g id="a_node11"><a xlink:href="wayland__egl_8h.html" target="_top" xlink:title=" ">
<polygon fill="white" stroke="#666666" points="1081.18,-129 959.18,-129 959.18,-88 1081.18,-88 1081.18,-129"/>
<text text-anchor="start" x="967.18" y="-117" font-family="Helvetica,sans-Serif" font-size="10.00">/mnt/raid10/stargate</text>
<text text-anchor="start" x="967.18" y="-106" font-family="Helvetica,sans-Serif" font-size="10.00">/ivi&#45;homescreen/shell</text>
<text text-anchor="middle" x="1020.18" y="-95" font-family="Helvetica,sans-Serif" font-size="10.00">/backend/wayland_egl.h</text>
</a>
</g>
</g>
<!-- Node10&#45;&gt;Node11 -->
<g id="edge11" class="edge">
<title>Node10&#45;&gt;Node11</title>
<path fill="none" stroke="#63b8ff" d="M3351.41,-167.48C3347.98,-166.52 3344.55,-165.68 3341.18,-165 3284.15,-153.55 1442.21,-117.61 1081.21,-110.67"/>
<polygon fill="#63b8ff" stroke="#63b8ff" points="3350.43,-170.84 3361.02,-170.47 3352.51,-164.16 3350.43,-170.84"/>
</g>
<!-- Node15 -->
<g id="node15" class="node">
<title>Node15</title>
<g id="a_node15"><a xlink:href="wayland__vulkan_8h.html" target="_top" xlink:title=" ">
<polygon fill="white" stroke="#666666" points="2201.68,-129 2064.68,-129 2064.68,-88 2201.68,-88 2201.68,-129"/>
<text text-anchor="start" x="2072.68" y="-117" font-family="Helvetica,sans-Serif" font-size="10.00">/mnt/raid10/stargate</text>
<text text-anchor="start" x="2072.68" y="-106" font-family="Helvetica,sans-Serif" font-size="10.00">/ivi&#45;homescreen/shell</text>
<text text-anchor="middle" x="2133.18" y="-95" font-family="Helvetica,sans-Serif" font-size="10.00">/backend/wayland_vulkan.h</text>
</a>
</g>
</g>
<!-- Node10&#45;&gt;Node15 -->
<g id="edge16" class="edge">
<title>Node10&#45;&gt;Node15</title>
<path fill="none" stroke="#63b8ff" d="M3350.9,-167.43C3347.64,-166.5 3344.38,-165.68 3341.18,-165 3121.3,-118.33 2424.12,-110.9 2201.92,-109.72"/>
<polygon fill="#63b8ff" stroke="#63b8ff" points="3350.05,-170.83 3360.64,-170.49 3352.14,-164.15 3350.05,-170.83"/>
</g>
<!-- Node11&#45;&gt;Node3 -->
<g id="edge13" class="edge">
<title>Node11&#45;&gt;Node3</title>
<path fill="none" stroke="#63b8ff" d="M949.13,-93.59C899.93,-83.43 833.14,-68.57 775.18,-52 772.25,-51.16 769.27,-50.28 766.26,-49.35"/>
<polygon fill="#63b8ff" stroke="#63b8ff" points="948.54,-97.04 959.04,-95.62 949.94,-90.19 948.54,-97.04"/>
</g>
<!-- Node11&#45;&gt;Node12 -->
<g id="edge12" class="edge">
<title>Node11&#45;&gt;Node12</title>
<path fill="none" stroke="#63b8ff" d="M1091.42,-96.01C1188.85,-80.29 1362.21,-52.32 1455.52,-37.27"/>
<polygon fill="#63b8ff" stroke="#63b8ff" points="1090.68,-92.58 1081.36,-97.63 1091.79,-99.49 1090.68,-92.58"/>
</g>
<!-- Node11&#45;&gt;Node13 -->
<g id="edge14" class="edge">
<title>Node11&#45;&gt;Node13</title>
<path fill="none" stroke="#63b8ff" d="M972.6,-83.26C953.28,-73.42 930.98,-62.06 911.49,-52.13"/>
<polygon fill="#63b8ff" stroke="#63b8ff" points="971.03,-86.39 981.52,-87.81 974.2,-80.15 971.03,-86.39"/>
</g>
<!-- Node11&#45;&gt;Node14 -->
<g id="edge15" class="edge">
<title>Node11&#45;&gt;Node14</title>
<path fill="none" stroke="#63b8ff" d="M1020.18,-77.49C1020.18,-69.15 1020.18,-60.19 1020.18,-52.16"/>
<polygon fill="#63b8ff" stroke="#63b8ff" points="1016.68,-77.6 1020.18,-87.6 1023.68,-77.6 1016.68,-77.6"/>
</g>
<!-- Node15&#45;&gt;Node16 -->
<g id="edge17" class="edge">
<title>Node15&#45;&gt;Node16</title>
<path fill="none" stroke="#63b8ff" d="M2114.4,-78.98C2107.36,-68.29 2099.52,-56.38 2093.13,-46.67"/>
<polygon fill="#63b8ff" stroke="#63b8ff" points="2111.65,-81.17 2120.07,-87.6 2117.5,-77.32 2111.65,-81.17"/>
</g>
<!-- Node37&#45;&gt;Node26 -->
<g id="edge46" class="edge">
<title>Node37&#45;&gt;Node26</title>
<path fill="none" stroke="#63b8ff" d="M547.52,-243.05C550.79,-234.55 554.33,-225.36 557.49,-217.16"/>
<polygon fill="#63b8ff" stroke="#63b8ff" points="544.17,-242.01 543.84,-252.6 550.7,-244.53 544.17,-242.01"/>
</g>
<!-- Node38 -->
<g id="node38" class="node">
<title>Node38</title>
<g id="a_node38"><a xlink:href="texture__egl_8cc.html" target="_top" xlink:title=" ">
<polygon fill="white" stroke="#666666" points="482.68,-217 373.68,-217 373.68,-165 482.68,-165 482.68,-217"/>
<text text-anchor="start" x="381.68" y="-205" font-family="Helvetica,sans-Serif" font-size="10.00">/mnt/raid10/stargate</text>
<text text-anchor="start" x="381.68" y="-194" font-family="Helvetica,sans-Serif" font-size="10.00">/ivi&#45;homescreen/shell</text>
<text text-anchor="start" x="381.68" y="-183" font-family="Helvetica,sans-Serif" font-size="10.00">/textures/egl/texture</text>
<text text-anchor="middle" x="428.18" y="-172" font-family="Helvetica,sans-Serif" font-size="10.00">_egl.cc</text>
</a>
</g>
</g>
<!-- Node37&#45;&gt;Node38 -->
<g id="edge47" class="edge">
<title>Node37&#45;&gt;Node38</title>
<path fill="none" stroke="#63b8ff" d="M501.7,-246.81C489.03,-237.36 474.71,-226.68 462.09,-217.28"/>
<polygon fill="#63b8ff" stroke="#63b8ff" points="499.65,-249.64 509.76,-252.81 503.83,-244.02 499.65,-249.64"/>
</g>
</g>
</svg>
